<?xml version="1.0" encoding="UTF-8" standalone="no"?>
<!DOCTYPE svg PUBLIC "-//W3C//DTD SVG 1.1//EN"
 "http://www.w3.org/Graphics/SVG/1.1/DTD/svg11.dtd">
<!-- Generated by graphviz version 2.38.0 (20140413.2041)
 -->
<!-- Title: Core/FreeflyCamera.cpp Pages: 1 -->
<svg width="1961pt" height="95pt"
 viewBox="0.00 0.00 1961.00 95.00" xmlns="http://www.w3.org/2000/svg" xmlns:xlink="http://www.w3.org/1999/xlink">
<g id="graph0" class="graph" transform="scale(1 1) rotate(0) translate(4 91)">
<title>Core/FreeflyCamera.cpp</title>
<!-- Node1 -->
<g id="node1" class="node"><title>Node1</title>
<polygon fill="#bfbfbf" stroke="black" points="835,-67.5 835,-86.5 959,-86.5 959,-67.5 835,-67.5"/>
<text text-anchor="middle" x="897" y="-74.5" font-family="Helvetica,sans-Serif" font-size="10.00">Core/FreeflyCamera.cpp</text>
</g>
<!-- Node2 -->
<g id="node2" class="node"><title>Node2</title>
<polygon fill="none" stroke="#bfbfbf" points="0,-6 0,-25 70,-25 70,-6 0,-6"/>
<text text-anchor="middle" x="35" y="-13" font-family="Helvetica,sans-Serif" font-size="10.00">glm/glm.hpp</text>
</g>
<!-- Node1&#45;&gt;Node2 -->
<g id="edge1" class="edge"><title>Node1&#45;&gt;Node2</title>
<path fill="none" stroke="midnightblue" d="M834.764,-74.6944C669.74,-70.8943 223.737,-58.3329 79,-31 75.0237,-30.2491 70.9108,-29.2333 66.8686,-28.0857"/>
<polygon fill="midnightblue" stroke="midnightblue" points="67.6729,-24.6704 57.0844,-25.0374 65.5907,-31.3535 67.6729,-24.6704"/>
</g>
<!-- Node3 -->
<g id="node3" class="node"><title>Node3</title>
<polygon fill="none" stroke="#bfbfbf" points="88,-6 88,-25 200,-25 200,-6 88,-6"/>
<text text-anchor="middle" x="144" y="-13" font-family="Helvetica,sans-Serif" font-size="10.00">glm/gtx/transform.hpp</text>
</g>
<!-- Node1&#45;&gt;Node3 -->
<g id="edge2" class="edge"><title>Node1&#45;&gt;Node3</title>
<path fill="none" stroke="midnightblue" d="M834.997,-75.1408C714.021,-72.7598 438.275,-63.8709 209,-31 202.079,-30.0078 194.801,-28.6753 187.721,-27.2187"/>
<polygon fill="midnightblue" stroke="midnightblue" points="188.068,-23.7128 177.554,-25.0208 186.589,-30.5548 188.068,-23.7128"/>
</g>
<!-- Node4 -->
<g id="node4" class="node"><title>Node4</title>
<polygon fill="none" stroke="#bfbfbf" points="218,-6 218,-25 362,-25 362,-6 218,-6"/>
<text text-anchor="middle" x="290" y="-13" font-family="Helvetica,sans-Serif" font-size="10.00">glm/gtc/matrix_transform.hpp</text>
</g>
<!-- Node1&#45;&gt;Node4 -->
<g id="edge3" class="edge"><title>Node1&#45;&gt;Node4</title>
<path fill="none" stroke="midnightblue" d="M834.855,-72.5365C736.238,-66.6239 537.964,-53.039 371,-31 362.15,-29.8318 352.795,-28.3701 343.708,-26.8277"/>
<polygon fill="midnightblue" stroke="midnightblue" points="344.057,-23.3358 333.604,-25.0633 342.853,-30.2314 344.057,-23.3358"/>
</g>
<!-- Node5 -->
<g id="node5" class="node"><title>Node5</title>
<polygon fill="none" stroke="#bfbfbf" points="380.5,-6 380.5,-25 487.5,-25 487.5,-6 380.5,-6"/>
<text text-anchor="middle" x="434" y="-13" font-family="Helvetica,sans-Serif" font-size="10.00">log4cpp/Category.hh</text>
</g>
<!-- Node1&#45;&gt;Node5 -->
<g id="edge4" class="edge"><title>Node1&#45;&gt;Node5</title>
<path fill="none" stroke="midnightblue" d="M834.854,-71.3143C755.758,-64.8271 615.088,-51.5338 496,-31 489.852,-29.9399 483.401,-28.6425 477.08,-27.2639"/>
<polygon fill="midnightblue" stroke="midnightblue" points="477.842,-23.8479 467.316,-25.0533 476.297,-30.6751 477.842,-23.8479"/>
</g>
<!-- Node6 -->
<g id="node6" class="node"><title>Node6</title>
<polygon fill="none" stroke="#bfbfbf" points="505.5,-6 505.5,-25 564.5,-25 564.5,-6 505.5,-6"/>
<text text-anchor="middle" x="535" y="-13" font-family="Helvetica,sans-Serif" font-size="10.00">functional</text>
</g>
<!-- Node1&#45;&gt;Node6 -->
<g id="edge5" class="edge"><title>Node1&#45;&gt;Node6</title>
<path fill="none" stroke="midnightblue" d="M834.913,-71.3854C769.309,-65.576 663.208,-53.5119 574,-31 571.015,-30.2466 567.942,-29.3421 564.894,-28.3577"/>
<polygon fill="midnightblue" stroke="midnightblue" points="565.975,-25.0277 555.38,-25.0282 563.662,-31.6349 565.975,-25.0277"/>
</g>
<!-- Node7 -->
<g id="node7" class="node"><title>Node7</title>
<polygon fill="none" stroke="#bfbfbf" points="583,-6 583,-25 703,-25 703,-6 583,-6"/>
<text text-anchor="middle" x="643" y="-13" font-family="Helvetica,sans-Serif" font-size="10.00">Engine/Core/Scene.hpp</text>
</g>
<!-- Node1&#45;&gt;Node7 -->
<g id="edge6" class="edge"><title>Node1&#45;&gt;Node7</title>
<path fill="none" stroke="midnightblue" d="M860.608,-67.4751C815.435,-56.8932 738.349,-38.8356 689.09,-27.2966"/>
<polygon fill="midnightblue" stroke="midnightblue" points="689.859,-23.8822 679.324,-25.0091 688.263,-30.6977 689.859,-23.8822"/>
</g>
<!-- Node8 -->
<g id="node8" class="node"><title>Node8</title>
<polygon fill="none" stroke="#bfbfbf" points="721,-6 721,-25 891,-25 891,-6 721,-6"/>
<text text-anchor="middle" x="806" y="-13" font-family="Helvetica,sans-Serif" font-size="10.00">Engine/Core/SceneGraphNode.hpp</text>
</g>
<!-- Node1&#45;&gt;Node8 -->
<g id="edge7" class="edge"><title>Node1&#45;&gt;Node8</title>
<path fill="none" stroke="midnightblue" d="M883.962,-67.4751C869.231,-57.8431 845.027,-42.0175 827.491,-30.5517"/>
<polygon fill="midnightblue" stroke="midnightblue" points="829.299,-27.5522 819.014,-25.0091 825.468,-33.411 829.299,-27.5522"/>
</g>
<!-- Node9 -->
<g id="node9" class="node"><title>Node9</title>
<polygon fill="none" stroke="#bfbfbf" points="909.5,-6 909.5,-25 1066.5,-25 1066.5,-6 909.5,-6"/>
<text text-anchor="middle" x="988" y="-13" font-family="Helvetica,sans-Serif" font-size="10.00">Engine/Core/FreeflyCamera.hpp</text>
</g>
<!-- Node1&#45;&gt;Node9 -->
<g id="edge8" class="edge"><title>Node1&#45;&gt;Node9</title>
<path fill="none" stroke="midnightblue" d="M910.038,-67.4751C924.769,-57.8431 948.973,-42.0175 966.509,-30.5517"/>
<polygon fill="midnightblue" stroke="midnightblue" points="968.532,-33.411 974.986,-25.0091 964.701,-27.5522 968.532,-33.411"/>
</g>
<!-- Node10 -->
<g id="node10" class="node"><title>Node10</title>
<polygon fill="none" stroke="#bfbfbf" points="1085,-6 1085,-25 1207,-25 1207,-6 1085,-6"/>
<text text-anchor="middle" x="1146" y="-13" font-family="Helvetica,sans-Serif" font-size="10.00">Engine/Event/Event.hpp</text>
</g>
<!-- Node1&#45;&gt;Node10 -->
<g id="edge9" class="edge"><title>Node1&#45;&gt;Node10</title>
<path fill="none" stroke="midnightblue" d="M932.676,-67.4751C976.867,-56.9153 1052.21,-38.911 1100.51,-27.3689"/>
<polygon fill="midnightblue" stroke="midnightblue" points="1101.48,-30.7374 1110.39,-25.0091 1099.85,-23.9291 1101.48,-30.7374"/>
</g>
<!-- Node11 -->
<g id="node11" class="node"><title>Node11</title>
<polygon fill="none" stroke="#bfbfbf" points="1225,-6 1225,-25 1375,-25 1375,-6 1225,-6"/>
<text text-anchor="middle" x="1300" y="-13" font-family="Helvetica,sans-Serif" font-size="10.00">Engine/Event/KeyPressed.hpp</text>
</g>
<!-- Node1&#45;&gt;Node11 -->
<g id="edge10" class="edge"><title>Node1&#45;&gt;Node11</title>
<path fill="none" stroke="midnightblue" d="M959.133,-67.8115C1023.48,-59.1957 1126.9,-44.9711 1216,-31 1224.41,-29.6818 1233.27,-28.2242 1241.97,-26.7564"/>
<polygon fill="midnightblue" stroke="midnightblue" points="1242.8,-30.1664 1252.07,-25.0364 1241.62,-23.2659 1242.8,-30.1664"/>
</g>
<!-- Node12 -->
<g id="node12" class="node"><title>Node12</title>
<polygon fill="none" stroke="#bfbfbf" points="1393,-0.5 1393,-30.5 1529,-30.5 1529,-0.5 1393,-0.5"/>
<text text-anchor="start" x="1401" y="-18.5" font-family="Helvetica,sans-Serif" font-size="10.00">Engine/Event/MouseButton</text>
<text text-anchor="middle" x="1461" y="-7.5" font-family="Helvetica,sans-Serif" font-size="10.00">Pressed.hpp</text>
</g>
<!-- Node1&#45;&gt;Node12 -->
<g id="edge11" class="edge"><title>Node1&#45;&gt;Node12</title>
<path fill="none" stroke="midnightblue" d="M959.101,-72.1386C1049.97,-66.0732 1224.66,-52.842 1382.72,-31.0987"/>
<polygon fill="midnightblue" stroke="midnightblue" points="1383.2,-34.5654 1392.62,-29.7217 1382.23,-27.6321 1383.2,-34.5654"/>
</g>
<!-- Node13 -->
<g id="node13" class="node"><title>Node13</title>
<polygon fill="none" stroke="#bfbfbf" points="1547,-6 1547,-25 1697,-25 1697,-6 1547,-6"/>
<text text-anchor="middle" x="1622" y="-13" font-family="Helvetica,sans-Serif" font-size="10.00">Engine/Event/MouseMove.hpp</text>
</g>
<!-- Node1&#45;&gt;Node13 -->
<g id="edge12" class="edge"><title>Node1&#45;&gt;Node13</title>
<path fill="none" stroke="midnightblue" d="M959.076,-73.7242C1073.77,-69.0577 1326.47,-56.616 1538,-31 1547.6,-29.838 1557.76,-28.3251 1567.58,-26.716"/>
<polygon fill="midnightblue" stroke="midnightblue" points="1568.38,-30.1314 1577.66,-25.015 1567.21,-23.2291 1568.38,-30.1314"/>
</g>
<!-- Node14 -->
<g id="node14" class="node"><title>Node14</title>
<polygon fill="none" stroke="#bfbfbf" points="1715,-0.5 1715,-30.5 1831,-30.5 1831,-0.5 1715,-0.5"/>
<text text-anchor="start" x="1723" y="-18.5" font-family="Helvetica,sans-Serif" font-size="10.00">Engine/Input/Keyboard</text>
<text text-anchor="middle" x="1773" y="-7.5" font-family="Helvetica,sans-Serif" font-size="10.00">/Key.hpp</text>
</g>
<!-- Node1&#45;&gt;Node14 -->
<g id="edge13" class="edge"><title>Node1&#45;&gt;Node14</title>
<path fill="none" stroke="midnightblue" d="M959.227,-75.8697C1093.71,-74.8685 1421.49,-68.5517 1704.93,-30.9882"/>
<polygon fill="midnightblue" stroke="midnightblue" points="1705.55,-34.4367 1714.99,-29.6387 1704.62,-27.4988 1705.55,-34.4367"/>
</g>
<!-- Node15 -->
<g id="node15" class="node"><title>Node15</title>
<polygon fill="none" stroke="#bfbfbf" points="1849,-0.5 1849,-30.5 1953,-30.5 1953,-0.5 1849,-0.5"/>
<text text-anchor="start" x="1857" y="-18.5" font-family="Helvetica,sans-Serif" font-size="10.00">Engine/Input/Mouse</text>
<text text-anchor="middle" x="1901" y="-7.5" font-family="Helvetica,sans-Serif" font-size="10.00">/Button.hpp</text>
</g>
<!-- Node1&#45;&gt;Node15 -->
<g id="edge14" class="edge"><title>Node1&#45;&gt;Node15</title>
<path fill="none" stroke="midnightblue" d="M959.267,-74.5386C1137.79,-70.1135 1650.13,-55.7101 1838.8,-30.9397"/>
<polygon fill="midnightblue" stroke="midnightblue" points="1839.44,-34.3839 1848.88,-29.5619 1838.5,-27.4483 1839.44,-34.3839"/>
</g>
</g>
</svg>
