<?xml version="1.0" encoding="UTF-8" standalone="no"?>
<!DOCTYPE svg PUBLIC "-//W3C//DTD SVG 1.1//EN"
 "http://www.w3.org/Graphics/SVG/1.1/DTD/svg11.dtd">
<!-- Generated by graphviz version 2.38.0 (20140413.2041)
 -->
<!-- Title: Core/SceneGraphNode.cpp Pages: 1 -->
<svg width="1106pt" height="84pt"
 viewBox="0.00 0.00 1106.00 84.00" xmlns="http://www.w3.org/2000/svg" xmlns:xlink="http://www.w3.org/1999/xlink">
<g id="graph0" class="graph" transform="scale(1 1) rotate(0) translate(4 80)">
<title>Core/SceneGraphNode.cpp</title>
<!-- Node1 -->
<g id="node1" class="node"><title>Node1</title>
<polygon fill="#bfbfbf" stroke="black" points="486,-56.5 486,-75.5 623,-75.5 623,-56.5 486,-56.5"/>
<text text-anchor="middle" x="554.5" y="-63.5" font-family="Helvetica,sans-Serif" font-size="10.00">Core/SceneGraphNode.cpp</text>
</g>
<!-- Node2 -->
<g id="node2" class="node"><title>Node2</title>
<polygon fill="none" stroke="#bfbfbf" points="0,-0.5 0,-19.5 107,-19.5 107,-0.5 0,-0.5"/>
<text text-anchor="middle" x="53.5" y="-7.5" font-family="Helvetica,sans-Serif" font-size="10.00">log4cpp/Category.hh</text>
</g>
<!-- Node1&#45;&gt;Node2 -->
<g id="edge1" class="edge"><title>Node1&#45;&gt;Node2</title>
<path fill="none" stroke="midnightblue" d="M485.749,-58.7838C401.525,-50.9784 254.223,-36.7136 117.352,-20.0585"/>
<polygon fill="midnightblue" stroke="midnightblue" points="117.448,-16.5442 107.097,-18.8036 116.598,-23.4924 117.448,-16.5442"/>
</g>
<!-- Node3 -->
<g id="node3" class="node"><title>Node3</title>
<polygon fill="none" stroke="#bfbfbf" points="125.5,-0.5 125.5,-19.5 295.5,-19.5 295.5,-0.5 125.5,-0.5"/>
<text text-anchor="middle" x="210.5" y="-7.5" font-family="Helvetica,sans-Serif" font-size="10.00">Engine/Core/SceneGraphNode.hpp</text>
</g>
<!-- Node1&#45;&gt;Node3 -->
<g id="edge2" class="edge"><title>Node1&#45;&gt;Node3</title>
<path fill="none" stroke="midnightblue" d="M499.992,-56.4435C438.85,-46.8456 339.765,-31.2916 274.864,-21.1037"/>
<polygon fill="midnightblue" stroke="midnightblue" points="275.175,-17.6096 264.753,-19.5164 274.089,-24.5249 275.175,-17.6096"/>
</g>
<!-- Node4 -->
<g id="node4" class="node"><title>Node4</title>
<polygon fill="none" stroke="#bfbfbf" points="313.5,-0.5 313.5,-19.5 459.5,-19.5 459.5,-0.5 313.5,-0.5"/>
<text text-anchor="middle" x="386.5" y="-7.5" font-family="Helvetica,sans-Serif" font-size="10.00">Engine/Core/SceneGraph.hpp</text>
</g>
<!-- Node1&#45;&gt;Node4 -->
<g id="edge3" class="edge"><title>Node1&#45;&gt;Node4</title>
<path fill="none" stroke="midnightblue" d="M527.88,-56.4435C499.494,-47.3196 454.363,-32.8133 422.747,-22.6509"/>
<polygon fill="midnightblue" stroke="midnightblue" points="423.587,-19.2445 412.996,-19.5164 421.445,-25.9087 423.587,-19.2445"/>
</g>
<!-- Node5 -->
<g id="node5" class="node"><title>Node5</title>
<polygon fill="none" stroke="#bfbfbf" points="478,-0.5 478,-19.5 631,-19.5 631,-0.5 478,-0.5"/>
<text text-anchor="middle" x="554.5" y="-7.5" font-family="Helvetica,sans-Serif" font-size="10.00">Engine/Core/AssimpScene.hpp</text>
</g>
<!-- Node1&#45;&gt;Node5 -->
<g id="edge4" class="edge"><title>Node1&#45;&gt;Node5</title>
<path fill="none" stroke="midnightblue" d="M554.5,-56.083C554.5,-49.0059 554.5,-38.8611 554.5,-29.9865"/>
<polygon fill="midnightblue" stroke="midnightblue" points="558,-29.751 554.5,-19.7511 551,-29.7511 558,-29.751"/>
</g>
<!-- Node6 -->
<g id="node6" class="node"><title>Node6</title>
<polygon fill="none" stroke="#bfbfbf" points="649,-0.5 649,-19.5 828,-19.5 828,-0.5 649,-0.5"/>
<text text-anchor="middle" x="738.5" y="-7.5" font-family="Helvetica,sans-Serif" font-size="10.00">Engine/Core/PerspectiveCamera.hpp</text>
</g>
<!-- Node1&#45;&gt;Node6 -->
<g id="edge5" class="edge"><title>Node1&#45;&gt;Node6</title>
<path fill="none" stroke="midnightblue" d="M583.655,-56.4435C615.013,-47.2406 665.031,-32.5617 699.697,-22.3879"/>
<polygon fill="midnightblue" stroke="midnightblue" points="700.871,-25.6909 709.481,-19.5164 698.9,-18.9742 700.871,-25.6909"/>
</g>
<!-- Node7 -->
<g id="node7" class="node"><title>Node7</title>
<polygon fill="none" stroke="#bfbfbf" points="846,-0.5 846,-19.5 959,-19.5 959,-0.5 846,-0.5"/>
<text text-anchor="middle" x="902.5" y="-7.5" font-family="Helvetica,sans-Serif" font-size="10.00">Engine/Core/Light.hpp</text>
</g>
<!-- Node1&#45;&gt;Node7 -->
<g id="edge6" class="edge"><title>Node1&#45;&gt;Node7</title>
<path fill="none" stroke="midnightblue" d="M609.642,-56.4435C671.495,-46.8456 771.732,-31.2916 837.387,-21.1037"/>
<polygon fill="midnightblue" stroke="midnightblue" points="838.271,-24.5085 847.616,-19.5164 837.198,-17.5913 838.271,-24.5085"/>
</g>
<!-- Node8 -->
<g id="node8" class="node"><title>Node8</title>
<polygon fill="none" stroke="#bfbfbf" points="977,-0.5 977,-19.5 1098,-19.5 1098,-0.5 977,-0.5"/>
<text text-anchor="middle" x="1037.5" y="-7.5" font-family="Helvetica,sans-Serif" font-size="10.00">Engine/Core/Object.hpp</text>
</g>
<!-- Node1&#45;&gt;Node8 -->
<g id="edge7" class="edge"><title>Node1&#45;&gt;Node8</title>
<path fill="none" stroke="midnightblue" d="M623.045,-58.0039C703.031,-49.7376 839.564,-35.3113 966.626,-20.2042"/>
<polygon fill="midnightblue" stroke="midnightblue" points="967.412,-23.6353 976.927,-18.9754 966.583,-16.6846 967.412,-23.6353"/>
</g>
</g>
</svg>
