<?xml version="1.0" encoding="UTF-8" standalone="no"?>
<!DOCTYPE svg PUBLIC "-//W3C//DTD SVG 1.1//EN"
 "http://www.w3.org/Graphics/SVG/1.1/DTD/svg11.dtd">
<!-- Generated by graphviz version 2.38.0 (20140413.2041)
 -->
<!-- Title: engine/SceneGraphNode/SceneGraphNode.cpp Pages: 1 -->
<!--zoomable 263 -->
<svg id="main" version="1.1" xmlns="http://www.w3.org/2000/svg" xmlns:xlink="http://www.w3.org/1999/xlink" xml:space="preserve" onload="init(evt)">
<style type="text/css"><![CDATA[
.edge:hover path { stroke: red; }
.edge:hover polygon { stroke: red; fill: red; }
]]></style>
<script type="text/javascript"><![CDATA[
var edges = document.getElementsByTagName('g');
if (edges && edges.length) {
  for (var i=0;i<edges.length;i++) {
    if (edges[i].id.substr(0,4)=='edge') {
      edges[i].setAttribute('class','edge');
    }
  }
}
]]></script>
        <defs>
                <circle id="rim" cx="0" cy="0" r="7"/>
                <circle id="rim2" cx="0" cy="0" r="3.5"/>
                <g id="zoomPlus">
                        <use xlink:href="#rim" fill="#404040">
                                <set attributeName="fill" to="#808080" begin="zoomplus.mouseover" end="zoomplus.mouseout"/>
                        </use>
                        <path d="M-4,0h8M0,-4v8" fill="none" stroke="white" stroke-width="1.5" pointer-events="none"/>
                </g>
                <g id="zoomMin">
                        <use xlink:href="#rim" fill="#404040">
                                <set attributeName="fill" to="#808080" begin="zoomminus.mouseover" end="zoomminus.mouseout"/>
                        </use>
                        <path d="M-4,0h8" fill="none" stroke="white" stroke-width="1.5" pointer-events="none"/>
                </g>
                <g id="dirArrow">
                        <path fill="none" stroke="white" stroke-width="1.5" d="M0,-3.0v7 M-2.5,-0.5L0,-3.0L2.5,-0.5"/>
                </g>
               <g id="resetDef">
                       <use xlink:href="#rim2" fill="#404040">
                               <set attributeName="fill" to="#808080" begin="reset.mouseover" end="reset.mouseout"/>
                       </use>
               </g>
        </defs>

<script type="text/javascript">
var viewWidth = 747;
var viewHeight = 263;
var sectionId = 'dynsection-0';
</script>
<script xlink:href="../../svgpan.js"/>
<svg id="graph" class="graph">
<g id="viewport">
<title>engine/SceneGraphNode/SceneGraphNode.cpp</title>
<!-- Node1 -->
<g id="node1" class="node"><title>Node1</title>
<polygon fill="#bfbfbf" stroke="black" points="367,-224.5 367,-254.5 492,-254.5 492,-224.5 367,-224.5"/>
<text text-anchor="start" x="375" y="-242.5" font-family="Helvetica,sans-Serif" font-size="10.00">engine/SceneGraphNode</text>
<text text-anchor="middle" x="429.5" y="-231.5" font-family="Helvetica,sans-Serif" font-size="10.00">/SceneGraphNode.cpp</text>
</g>
<!-- Node2 -->
<g id="node2" class="node"><title>Node2</title>
<polygon fill="none" stroke="#bfbfbf" points="0,-168.5 0,-187.5 107,-187.5 107,-168.5 0,-168.5"/>
<text text-anchor="middle" x="53.5" y="-175.5" font-family="Helvetica,sans-Serif" font-size="10.00">log4cpp/Category.hh</text>
</g>
<!-- Node1&#45;&gt;Node2 -->
<g id="edge1" class="edge"><title>Node1&#45;&gt;Node2</title>
<path fill="none" stroke="midnightblue" d="M366.989,-228.608C297.725,-217.647 186.638,-200.068 116.985,-189.046"/>
<polygon fill="midnightblue" stroke="midnightblue" points="117.443,-185.575 107.019,-187.469 116.349,-192.489 117.443,-185.575"/>
</g>
<!-- Node3 -->
<g id="node3" class="node"><title>Node3</title>
<g id="a_node3"><a xlink:href="../../d1/d2f/SceneGraphNode_8hpp.html" target="_top" xlink:title="SceneGraphNode.hpp">
<polygon fill="none" stroke="black" points="266,-168.5 266,-187.5 379,-187.5 379,-168.5 266,-168.5"/>
<text text-anchor="middle" x="322.5" y="-175.5" font-family="Helvetica,sans-Serif" font-size="10.00">SceneGraphNode.hpp</text>
</a>
</g>
</g>
<!-- Node1&#45;&gt;Node3 -->
<g id="edge2" class="edge"><title>Node1&#45;&gt;Node3</title>
<path fill="none" stroke="midnightblue" d="M404.142,-224.399C386.831,-214.773 364.024,-202.09 346.916,-192.577"/>
<polygon fill="midnightblue" stroke="midnightblue" points="348.51,-189.459 338.069,-187.658 345.108,-195.577 348.51,-189.459"/>
</g>
<!-- Node11 -->
<g id="node11" class="node"><title>Node11</title>
<g id="a_node11"><a xlink:href="../../d8/d58/SceneGraph_8hpp.html" target="_top" xlink:title="SceneGraph.hpp">
<polygon fill="none" stroke="black" points="480,-168.5 480,-187.5 569,-187.5 569,-168.5 480,-168.5"/>
<text text-anchor="middle" x="524.5" y="-175.5" font-family="Helvetica,sans-Serif" font-size="10.00">SceneGraph.hpp</text>
</a>
</g>
</g>
<!-- Node1&#45;&gt;Node11 -->
<g id="edge10" class="edge"><title>Node1&#45;&gt;Node11</title>
<path fill="none" stroke="midnightblue" d="M452.014,-224.399C467.099,-214.951 486.885,-202.559 501.973,-193.109"/>
<polygon fill="midnightblue" stroke="midnightblue" points="504.059,-195.932 510.677,-187.658 500.344,-190 504.059,-195.932"/>
</g>
<!-- Node12 -->
<g id="node12" class="node"><title>Node12</title>
<g id="a_node12"><a xlink:href="../../d0/d06/AssimpScene_8hpp.html" target="_top" xlink:title="AssimpScene.hpp">
<polygon fill="none" stroke="black" points="587.5,-168.5 587.5,-187.5 683.5,-187.5 683.5,-168.5 587.5,-168.5"/>
<text text-anchor="middle" x="635.5" y="-175.5" font-family="Helvetica,sans-Serif" font-size="10.00">AssimpScene.hpp</text>
</a>
</g>
</g>
<!-- Node1&#45;&gt;Node12 -->
<g id="edge12" class="edge"><title>Node1&#45;&gt;Node12</title>
<path fill="none" stroke="midnightblue" d="M478.058,-224.475C514.063,-214.075 562.523,-200.078 596.128,-190.372"/>
<polygon fill="midnightblue" stroke="midnightblue" points="597.413,-193.644 606.049,-187.506 595.471,-186.919 597.413,-193.644"/>
</g>
<!-- Node14 -->
<g id="node14" class="node"><title>Node14</title>
<g id="a_node14"><a xlink:href="../../d4/d3e/PerspectiveCamera_8hpp.html" target="_top" xlink:title="PerspectiveCamera.hpp">
<polygon fill="none" stroke="black" points="125.5,-168.5 125.5,-187.5 247.5,-187.5 247.5,-168.5 125.5,-168.5"/>
<text text-anchor="middle" x="186.5" y="-175.5" font-family="Helvetica,sans-Serif" font-size="10.00">PerspectiveCamera.hpp</text>
</a>
</g>
</g>
<!-- Node1&#45;&gt;Node14 -->
<g id="edge15" class="edge"><title>Node1&#45;&gt;Node14</title>
<path fill="none" stroke="midnightblue" d="M372.22,-224.475C329.108,-213.918 270.857,-199.655 231.162,-189.936"/>
<polygon fill="midnightblue" stroke="midnightblue" points="231.786,-186.485 221.24,-187.506 230.121,-193.284 231.786,-186.485"/>
</g>
<!-- Node18 -->
<g id="node18" class="node"><title>Node18</title>
<g id="a_node18"><a xlink:href="../../d5/dd5/Light_8hpp.html" target="_top" xlink:title="Light.hpp">
<polygon fill="none" stroke="black" points="671.5,-112.5 671.5,-131.5 727.5,-131.5 727.5,-112.5 671.5,-112.5"/>
<text text-anchor="middle" x="699.5" y="-119.5" font-family="Helvetica,sans-Serif" font-size="10.00">Light.hpp</text>
</a>
</g>
</g>
<!-- Node1&#45;&gt;Node18 -->
<g id="edge22" class="edge"><title>Node1&#45;&gt;Node18</title>
<path fill="none" stroke="midnightblue" d="M492.296,-234.861C561.36,-229.463 666.085,-216.688 692.5,-188 703.662,-175.878 704.415,-156.598 702.975,-142.179"/>
<polygon fill="midnightblue" stroke="midnightblue" points="706.384,-141.293 701.507,-131.887 699.454,-142.281 706.384,-141.293"/>
</g>
<!-- Node20 -->
<g id="node20" class="node"><title>Node20</title>
<g id="a_node20"><a xlink:href="../../d7/d3f/Object_8hpp.html" target="_top" xlink:title="Object.hpp">
<polygon fill="none" stroke="black" points="397.5,-168.5 397.5,-187.5 461.5,-187.5 461.5,-168.5 397.5,-168.5"/>
<text text-anchor="middle" x="429.5" y="-175.5" font-family="Helvetica,sans-Serif" font-size="10.00">Object.hpp</text>
</a>
</g>
</g>
<!-- Node1&#45;&gt;Node20 -->
<g id="edge26" class="edge"><title>Node1&#45;&gt;Node20</title>
<path fill="none" stroke="midnightblue" d="M429.5,-224.399C429.5,-216.466 429.5,-206.458 429.5,-197.858"/>
<polygon fill="midnightblue" stroke="midnightblue" points="433,-197.658 429.5,-187.658 426,-197.658 433,-197.658"/>
</g>
<!-- Node4 -->
<g id="node4" class="node"><title>Node4</title>
<polygon fill="none" stroke="#bfbfbf" points="524,-0.5 524,-19.5 565,-19.5 565,-0.5 524,-0.5"/>
<text text-anchor="middle" x="544.5" y="-7.5" font-family="Helvetica,sans-Serif" font-size="10.00">string</text>
</g>
<!-- Node3&#45;&gt;Node4 -->
<g id="edge3" class="edge"><title>Node3&#45;&gt;Node4</title>
<path fill="none" stroke="midnightblue" d="M290.614,-168.459C215.284,-147.537 35.0514,-92.7598 68.5,-56 98.4823,-23.0496 412.914,-13.7175 513.641,-11.5633"/>
<polygon fill="midnightblue" stroke="midnightblue" points="513.85,-15.0599 523.776,-11.3557 513.707,-8.06136 513.85,-15.0599"/>
</g>
<!-- Node5 -->
<g id="node5" class="node"><title>Node5</title>
<polygon fill="none" stroke="#bfbfbf" points="396,-112.5 396,-131.5 425,-131.5 425,-112.5 396,-112.5"/>
<text text-anchor="middle" x="410.5" y="-119.5" font-family="Helvetica,sans-Serif" font-size="10.00">list</text>
</g>
<!-- Node3&#45;&gt;Node5 -->
<g id="edge4" class="edge"><title>Node3&#45;&gt;Node5</title>
<path fill="none" stroke="midnightblue" d="M336.639,-168.324C350.366,-159.9 371.436,-146.971 387.564,-137.074"/>
<polygon fill="midnightblue" stroke="midnightblue" points="389.704,-139.868 396.396,-131.655 386.043,-133.902 389.704,-139.868"/>
</g>
<!-- Node6 -->
<g id="node6" class="node"><title>Node6</title>
<polygon fill="none" stroke="#bfbfbf" points="481.5,-112.5 481.5,-131.5 567.5,-131.5 567.5,-112.5 481.5,-112.5"/>
<text text-anchor="middle" x="524.5" y="-119.5" font-family="Helvetica,sans-Serif" font-size="10.00">assimp/scene.h</text>
</g>
<!-- Node3&#45;&gt;Node6 -->
<g id="edge5" class="edge"><title>Node3&#45;&gt;Node6</title>
<path fill="none" stroke="midnightblue" d="M354.508,-168.444C389.229,-159.162 444.788,-144.309 482.877,-134.127"/>
<polygon fill="midnightblue" stroke="midnightblue" points="483.885,-137.48 492.642,-131.516 482.078,-130.718 483.885,-137.48"/>
</g>
<!-- Node7 -->
<g id="node7" class="node"><title>Node7</title>
<g id="a_node7"><a xlink:href="../../da/d83/Transform_8hpp.html" target="_top" xlink:title="Transform.hpp">
<polygon fill="none" stroke="black" points="203.5,-112.5 203.5,-131.5 283.5,-131.5 283.5,-112.5 203.5,-112.5"/>
<text text-anchor="middle" x="243.5" y="-119.5" font-family="Helvetica,sans-Serif" font-size="10.00">Transform.hpp</text>
</a>
</g>
</g>
<!-- Node3&#45;&gt;Node7 -->
<g id="edge6" class="edge"><title>Node3&#45;&gt;Node7</title>
<path fill="none" stroke="midnightblue" d="M309.807,-168.324C297.599,-159.979 278.922,-147.212 264.497,-137.352"/>
<polygon fill="midnightblue" stroke="midnightblue" points="266.392,-134.408 256.161,-131.655 262.442,-140.187 266.392,-134.408"/>
</g>
<!-- Node8 -->
<g id="node8" class="node"><title>Node8</title>
<polygon fill="none" stroke="#bfbfbf" points="307.5,-56.5 307.5,-75.5 377.5,-75.5 377.5,-56.5 307.5,-56.5"/>
<text text-anchor="middle" x="342.5" y="-63.5" font-family="Helvetica,sans-Serif" font-size="10.00">glm/glm.hpp</text>
</g>
<!-- Node7&#45;&gt;Node8 -->
<g id="edge7" class="edge"><title>Node7&#45;&gt;Node8</title>
<path fill="none" stroke="midnightblue" d="M259.406,-112.324C275.138,-103.743 299.442,-90.486 317.709,-80.5224"/>
<polygon fill="midnightblue" stroke="midnightblue" points="319.53,-83.5157 326.633,-75.6545 316.178,-77.3704 319.53,-83.5157"/>
</g>
<!-- Node9 -->
<g id="node9" class="node"><title>Node9</title>
<polygon fill="none" stroke="#bfbfbf" points="77.5,-56.5 77.5,-75.5 169.5,-75.5 169.5,-56.5 77.5,-56.5"/>
<text text-anchor="middle" x="123.5" y="-63.5" font-family="Helvetica,sans-Serif" font-size="10.00">assimp/vector3.h</text>
</g>
<!-- Node7&#45;&gt;Node9 -->
<g id="edge8" class="edge"><title>Node7&#45;&gt;Node9</title>
<path fill="none" stroke="midnightblue" d="M224.486,-112.444C204.912,-103.636 174.192,-89.8116 151.771,-79.722"/>
<polygon fill="midnightblue" stroke="midnightblue" points="152.981,-76.4284 142.425,-75.5164 150.108,-82.8119 152.981,-76.4284"/>
</g>
<!-- Node10 -->
<g id="node10" class="node"><title>Node10</title>
<polygon fill="none" stroke="#bfbfbf" points="187.5,-56.5 187.5,-75.5 289.5,-75.5 289.5,-56.5 187.5,-56.5"/>
<text text-anchor="middle" x="238.5" y="-63.5" font-family="Helvetica,sans-Serif" font-size="10.00">assimp/matrix4x4.h</text>
</g>
<!-- Node7&#45;&gt;Node10 -->
<g id="edge9" class="edge"><title>Node7&#45;&gt;Node10</title>
<path fill="none" stroke="midnightblue" d="M242.674,-112.083C242.019,-105.006 241.08,-94.8611 240.258,-85.9865"/>
<polygon fill="midnightblue" stroke="midnightblue" points="243.717,-85.3858 239.31,-75.7511 236.747,-86.0312 243.717,-85.3858"/>
</g>
<!-- Node11&#45;&gt;Node6 -->
<g id="edge11" class="edge"><title>Node11&#45;&gt;Node6</title>
<path fill="none" stroke="midnightblue" d="M524.5,-168.083C524.5,-161.006 524.5,-150.861 524.5,-141.986"/>
<polygon fill="midnightblue" stroke="midnightblue" points="528,-141.751 524.5,-131.751 521,-141.751 528,-141.751"/>
</g>
<!-- Node12&#45;&gt;Node6 -->
<g id="edge13" class="edge"><title>Node12&#45;&gt;Node6</title>
<path fill="none" stroke="midnightblue" d="M617.666,-168.324C599.784,-159.625 572.025,-146.12 551.454,-136.113"/>
<polygon fill="midnightblue" stroke="midnightblue" points="552.813,-132.882 542.29,-131.655 549.751,-139.177 552.813,-132.882"/>
</g>
<!-- Node13 -->
<g id="node13" class="node"><title>Node13</title>
<polygon fill="none" stroke="#bfbfbf" points="618,-112.5 618,-131.5 653,-131.5 653,-112.5 618,-112.5"/>
<text text-anchor="middle" x="635.5" y="-119.5" font-family="Helvetica,sans-Serif" font-size="10.00">map</text>
</g>
<!-- Node12&#45;&gt;Node13 -->
<g id="edge14" class="edge"><title>Node12&#45;&gt;Node13</title>
<path fill="none" stroke="midnightblue" d="M635.5,-168.083C635.5,-161.006 635.5,-150.861 635.5,-141.986"/>
<polygon fill="midnightblue" stroke="midnightblue" points="639,-141.751 635.5,-131.751 632,-141.751 639,-141.751"/>
</g>
<!-- Node15 -->
<g id="node15" class="node"><title>Node15</title>
<g id="a_node15"><a xlink:href="../../d6/d80/Camera_8hpp.html" target="_top" xlink:title="Camera.hpp">
<polygon fill="none" stroke="black" points="307.5,-112.5 307.5,-131.5 377.5,-131.5 377.5,-112.5 307.5,-112.5"/>
<text text-anchor="middle" x="342.5" y="-119.5" font-family="Helvetica,sans-Serif" font-size="10.00">Camera.hpp</text>
</a>
</g>
</g>
<!-- Node14&#45;&gt;Node15 -->
<g id="edge16" class="edge"><title>Node14&#45;&gt;Node15</title>
<path fill="none" stroke="midnightblue" d="M211.219,-168.444C237.348,-159.399 278.759,-145.064 308.076,-134.916"/>
<polygon fill="midnightblue" stroke="midnightblue" points="309.592,-138.095 317.897,-131.516 307.302,-131.48 309.592,-138.095"/>
</g>
<!-- Node15&#45;&gt;Node4 -->
<g id="edge17" class="edge"><title>Node15&#45;&gt;Node4</title>
<path fill="none" stroke="midnightblue" d="M377.78,-113.452C416.989,-104.588 477.316,-89.3942 496.5,-76 513.883,-63.8637 527.47,-43.4044 535.685,-28.678"/>
<polygon fill="midnightblue" stroke="midnightblue" points="538.919,-30.0486 540.495,-19.5716 532.73,-26.7793 538.919,-30.0486"/>
</g>
<!-- Node15&#45;&gt;Node8 -->
<g id="edge18" class="edge"><title>Node15&#45;&gt;Node8</title>
<path fill="none" stroke="midnightblue" d="M342.5,-112.083C342.5,-105.006 342.5,-94.8611 342.5,-85.9865"/>
<polygon fill="midnightblue" stroke="midnightblue" points="346,-85.751 342.5,-75.7511 339,-85.7511 346,-85.751"/>
</g>
<!-- Node16 -->
<g id="node16" class="node"><title>Node16</title>
<polygon fill="none" stroke="#bfbfbf" points="395.5,-56.5 395.5,-75.5 487.5,-75.5 487.5,-56.5 395.5,-56.5"/>
<text text-anchor="middle" x="441.5" y="-63.5" font-family="Helvetica,sans-Serif" font-size="10.00">assimp/camera.h</text>
</g>
<!-- Node15&#45;&gt;Node16 -->
<g id="edge19" class="edge"><title>Node15&#45;&gt;Node16</title>
<path fill="none" stroke="midnightblue" d="M358.406,-112.324C374.138,-103.743 398.442,-90.486 416.709,-80.5224"/>
<polygon fill="midnightblue" stroke="midnightblue" points="418.53,-83.5157 425.633,-75.6545 415.178,-77.3704 418.53,-83.5157"/>
</g>
<!-- Node17 -->
<g id="node17" class="node"><title>Node17</title>
<g id="a_node17"><a xlink:href="../../de/da6/Entity_8hpp.html" target="_top" xlink:title="Entity.hpp">
<polygon fill="none" stroke="black" points="544,-56.5 544,-75.5 605,-75.5 605,-56.5 544,-56.5"/>
<text text-anchor="middle" x="574.5" y="-63.5" font-family="Helvetica,sans-Serif" font-size="10.00">Entity.hpp</text>
</a>
</g>
</g>
<!-- Node15&#45;&gt;Node17 -->
<g id="edge20" class="edge"><title>Node15&#45;&gt;Node17</title>
<path fill="none" stroke="midnightblue" d="M377.736,-112.799C419.719,-103.027 489.722,-86.7328 533.927,-76.4438"/>
<polygon fill="midnightblue" stroke="midnightblue" points="534.815,-79.8306 543.761,-74.1547 533.228,-73.0129 534.815,-79.8306"/>
</g>
<!-- Node17&#45;&gt;Node4 -->
<g id="edge21" class="edge"><title>Node17&#45;&gt;Node4</title>
<path fill="none" stroke="midnightblue" d="M569.546,-56.083C565.396,-48.6127 559.347,-37.7244 554.233,-28.5199"/>
<polygon fill="midnightblue" stroke="midnightblue" points="557.278,-26.7929 549.362,-19.7511 551.159,-30.1924 557.278,-26.7929"/>
</g>
<!-- Node18&#45;&gt;Node4 -->
<g id="edge23" class="edge"><title>Node18&#45;&gt;Node4</title>
<path fill="none" stroke="midnightblue" d="M688.71,-112.295C672.772,-99.543 641.868,-75.2134 614.5,-56 599.128,-45.2085 581.317,-33.7728 567.508,-25.13"/>
<polygon fill="midnightblue" stroke="midnightblue" points="569.008,-21.941 558.667,-19.635 565.313,-27.8863 569.008,-21.941"/>
</g>
<!-- Node18&#45;&gt;Node17 -->
<g id="edge25" class="edge"><title>Node18&#45;&gt;Node17</title>
<path fill="none" stroke="midnightblue" d="M679.693,-112.444C659.213,-103.596 627.017,-89.6875 603.635,-79.5865"/>
<polygon fill="midnightblue" stroke="midnightblue" points="604.782,-76.2692 594.214,-75.5164 602.006,-82.6953 604.782,-76.2692"/>
</g>
<!-- Node19 -->
<g id="node19" class="node"><title>Node19</title>
<polygon fill="none" stroke="#bfbfbf" points="662,-56.5 662,-75.5 739,-75.5 739,-56.5 662,-56.5"/>
<text text-anchor="middle" x="700.5" y="-63.5" font-family="Helvetica,sans-Serif" font-size="10.00">assimp/light.h</text>
</g>
<!-- Node18&#45;&gt;Node19 -->
<g id="edge24" class="edge"><title>Node18&#45;&gt;Node19</title>
<path fill="none" stroke="midnightblue" d="M699.665,-112.083C699.796,-105.006 699.984,-94.8611 700.148,-85.9865"/>
<polygon fill="midnightblue" stroke="midnightblue" points="703.652,-85.8142 700.338,-75.7511 696.653,-85.6845 703.652,-85.8142"/>
</g>
<!-- Node20&#45;&gt;Node5 -->
<g id="edge27" class="edge"><title>Node20&#45;&gt;Node5</title>
<path fill="none" stroke="midnightblue" d="M426.363,-168.083C423.817,-160.849 420.144,-150.409 416.973,-141.397"/>
<polygon fill="midnightblue" stroke="midnightblue" points="420.2,-140.023 413.579,-131.751 413.597,-142.346 420.2,-140.023"/>
</g>
<!-- Node20&#45;&gt;Node6 -->
<g id="edge28" class="edge"><title>Node20&#45;&gt;Node6</title>
<path fill="none" stroke="midnightblue" d="M444.763,-168.324C459.721,-159.822 482.755,-146.729 500.227,-136.797"/>
<polygon fill="midnightblue" stroke="midnightblue" points="502.31,-139.639 509.274,-131.655 498.851,-133.553 502.31,-139.639"/>
</g>
<!-- Node20&#45;&gt;Node17 -->
<g id="edge29" class="edge"><title>Node20&#45;&gt;Node17</title>
<path fill="none" stroke="midnightblue" d="M433.276,-168.278C439.584,-154.611 453.473,-128.056 472.5,-112 490.424,-96.8747 514.232,-85.986 534.338,-78.7121"/>
<polygon fill="midnightblue" stroke="midnightblue" points="535.555,-81.9951 543.869,-75.4289 533.275,-75.3767 535.555,-81.9951"/>
</g>
</g>
</svg>
        <g id="navigator" transform="translate(0 0)" fill="#404254">
                <rect fill="#f2f5e9" fill-opacity="0.5" stroke="#606060" stroke-width=".5" x="0" y="0" width="60" height="60"/>
                <use id="zoomplus" xlink:href="#zoomPlus" x="17" y="9" onmousedown="handleZoom(evt,'in')"/>
                <use id="zoomminus" xlink:href="#zoomMin" x="42" y="9" onmousedown="handleZoom(evt,'out')"/>
                <use id="reset" xlink:href="#resetDef" x="30" y="36" onmousedown="handleReset()"/>
                <g id="arrowUp" xlink:href="#dirArrow" transform="translate(30 24)" onmousedown="handlePan(0,-1)">
                  <use xlink:href="#rim" fill="#404040">
                        <set attributeName="fill" to="#808080" begin="arrowUp.mouseover" end="arrowUp.mouseout"/>
                  </use>
                  <path fill="none" stroke="white" stroke-width="1.5" d="M0,-3.0v7 M-2.5,-0.5L0,-3.0L2.5,-0.5"/>
                </g>
                <g id="arrowRight" xlink:href="#dirArrow" transform="rotate(90) translate(36 -43)" onmousedown="handlePan(1,0)">
                  <use xlink:href="#rim" fill="#404040">
                        <set attributeName="fill" to="#808080" begin="arrowRight.mouseover" end="arrowRight.mouseout"/>
                  </use>
                  <path fill="none" stroke="white" stroke-width="1.5" d="M0,-3.0v7 M-2.5,-0.5L0,-3.0L2.5,-0.5"/>
                </g>
                <g id="arrowDown" xlink:href="#dirArrow" transform="rotate(180) translate(-30 -48)" onmousedown="handlePan(0,1)">
                  <use xlink:href="#rim" fill="#404040">
                        <set attributeName="fill" to="#808080" begin="arrowDown.mouseover" end="arrowDown.mouseout"/>
                  </use>
                  <path fill="none" stroke="white" stroke-width="1.5" d="M0,-3.0v7 M-2.5,-0.5L0,-3.0L2.5,-0.5"/>
                </g>
                <g id="arrowLeft" xlink:href="#dirArrow" transform="rotate(270) translate(-36 17)" onmousedown="handlePan(-1,0)">
                  <use xlink:href="#rim" fill="#404040">
                        <set attributeName="fill" to="#808080" begin="arrowLeft.mouseover" end="arrowLeft.mouseout"/>
                  </use>
                  <path fill="none" stroke="white" stroke-width="1.5" d="M0,-3.0v7 M-2.5,-0.5L0,-3.0L2.5,-0.5"/>
                </g>
        </g>
        <svg viewBox="0 0 15 15" width="100%" height="30px" preserveAspectRatio="xMaxYMin meet">
         <g id="arrow_out" transform="scale(0.3 0.3)">
          <a xlink:href="SceneGraphNode_8cpp__incl_org.svg" target="_base">
           <rect id="button" ry="5" rx="5" y="6" x="6" height="38" width="38"
                fill="#f2f5e9" fill-opacity="0.5" stroke="#606060" stroke-width="1.0"/>
           <path id="arrow"
             d="M 11.500037,31.436501 C 11.940474,20.09759 22.043105,11.32322 32.158766,21.979434 L 37.068811,17.246167 C 37.068811,17.246167 37.088388,32 37.088388,32 L 22.160133,31.978069 C 22.160133,31.978069 26.997745,27.140456 26.997745,27.140456 C 18.528582,18.264221 13.291696,25.230495 11.500037,31.436501 z"
             style="fill:#404040;"/>
          </a>
         </g>
        </svg>
</svg>
