<?xml version="1.0" encoding="UTF-8" standalone="no"?>
<!DOCTYPE svg PUBLIC "-//W3C//DTD SVG 1.1//EN"
 "http://www.w3.org/Graphics/SVG/1.1/DTD/svg11.dtd">
<!-- Generated by graphviz version 2.38.0 (20140413.2041)
 -->
<!-- Title: WorldParticles::Engine::AnimationLibrary Pages: 1 -->
<svg width="254pt" height="602pt"
 viewBox="0.00 0.00 254.00 602.00" xmlns="http://www.w3.org/2000/svg" xmlns:xlink="http://www.w3.org/1999/xlink">
<g id="graph0" class="graph" transform="scale(1 1) rotate(0) translate(4 598)">
<title>WorldParticles::Engine::AnimationLibrary</title>
<!-- Node1 -->
<g id="node1" class="node"><title>Node1</title>
<polygon fill="#bfbfbf" stroke="black" points="49,-0.5 49,-134.5 165,-134.5 165,-0.5 49,-0.5"/>
<text text-anchor="start" x="57" y="-122.5" font-family="Helvetica,sans-Serif" font-size="10.00">WorldParticles::Engine</text>
<text text-anchor="middle" x="107" y="-111.5" font-family="Helvetica,sans-Serif" font-size="10.00">::AnimationLibrary</text>
<polyline fill="none" stroke="black" points="49,-104.5 165,-104.5 "/>
<text text-anchor="middle" x="107" y="-92.5" font-family="Helvetica,sans-Serif" font-size="10.00"> </text>
<polyline fill="none" stroke="black" points="49,-85.5 165,-85.5 "/>
<text text-anchor="start" x="57" y="-73.5" font-family="Helvetica,sans-Serif" font-size="10.00">+ AnimationLibrary()</text>
<text text-anchor="start" x="57" y="-62.5" font-family="Helvetica,sans-Serif" font-size="10.00">+ AnimationLibrary()</text>
<text text-anchor="start" x="57" y="-51.5" font-family="Helvetica,sans-Serif" font-size="10.00">+ AnimationLibrary()</text>
<text text-anchor="start" x="57" y="-40.5" font-family="Helvetica,sans-Serif" font-size="10.00">+ AnimationLibrary()</text>
<text text-anchor="start" x="57" y="-29.5" font-family="Helvetica,sans-Serif" font-size="10.00">+ ~AnimationLibrary()</text>
<text text-anchor="start" x="57" y="-18.5" font-family="Helvetica,sans-Serif" font-size="10.00">+ operator=()</text>
<text text-anchor="start" x="57" y="-7.5" font-family="Helvetica,sans-Serif" font-size="10.00">+ operator=()</text>
</g>
<!-- Node2 -->
<g id="node2" class="node"><title>Node2</title>
<g id="a_node2"><a xlink:href="../../d6/da4/classWorldParticles_1_1Engine_1_1Library.html" target="_top" xlink:title="{WorldParticles::Engine\l::Library\&lt; Animation * \&gt;\n||+ Library()\l+ Library()\l+ Library()\l+ ~Library()\l+ operator=()\l+ operator=()\l+ get()\l}">
<polygon fill="none" stroke="black" points="47,-172.5 47,-306.5 167,-306.5 167,-172.5 47,-172.5"/>
<text text-anchor="start" x="55" y="-294.5" font-family="Helvetica,sans-Serif" font-size="10.00">WorldParticles::Engine</text>
<text text-anchor="middle" x="107" y="-283.5" font-family="Helvetica,sans-Serif" font-size="10.00">::Library&lt; Animation * &gt;</text>
<polyline fill="none" stroke="black" points="47,-276.5 167,-276.5 "/>
<text text-anchor="middle" x="107" y="-264.5" font-family="Helvetica,sans-Serif" font-size="10.00"> </text>
<polyline fill="none" stroke="black" points="47,-257.5 167,-257.5 "/>
<text text-anchor="start" x="55" y="-245.5" font-family="Helvetica,sans-Serif" font-size="10.00">+ Library()</text>
<text text-anchor="start" x="55" y="-234.5" font-family="Helvetica,sans-Serif" font-size="10.00">+ Library()</text>
<text text-anchor="start" x="55" y="-223.5" font-family="Helvetica,sans-Serif" font-size="10.00">+ Library()</text>
<text text-anchor="start" x="55" y="-212.5" font-family="Helvetica,sans-Serif" font-size="10.00">+ ~Library()</text>
<text text-anchor="start" x="55" y="-201.5" font-family="Helvetica,sans-Serif" font-size="10.00">+ operator=()</text>
<text text-anchor="start" x="55" y="-190.5" font-family="Helvetica,sans-Serif" font-size="10.00">+ operator=()</text>
<text text-anchor="start" x="55" y="-179.5" font-family="Helvetica,sans-Serif" font-size="10.00">+ get()</text>
</a>
</g>
</g>
<!-- Node2&#45;&gt;Node1 -->
<g id="edge1" class="edge"><title>Node2&#45;&gt;Node1</title>
<path fill="none" stroke="midnightblue" d="M107,-162.013C107,-152.842 107,-143.537 107,-134.533"/>
<polygon fill="none" stroke="midnightblue" points="103.5,-162.287 107,-172.287 110.5,-162.287 103.5,-162.287"/>
</g>
<!-- Node3 -->
<g id="node3" class="node"><title>Node3</title>
<g id="a_node3"><a xlink:href="../../d2/d15/classstd_1_1vector_3_01Animation_01_5_01_4.html" target="_top" xlink:title="{vector\&lt; Animation * \&gt;\n||}">
<polygon fill="none" stroke="black" points="-7.10543e-15,-393 -7.10543e-15,-450 112,-450 112,-393 -7.10543e-15,-393"/>
<text text-anchor="middle" x="56" y="-438" font-family="Helvetica,sans-Serif" font-size="10.00">vector&lt; Animation * &gt;</text>
<polyline fill="none" stroke="black" points="-7.10543e-15,-431 112,-431 "/>
<text text-anchor="middle" x="56" y="-419" font-family="Helvetica,sans-Serif" font-size="10.00"> </text>
<polyline fill="none" stroke="black" points="-7.10543e-15,-412 112,-412 "/>
<text text-anchor="middle" x="56" y="-400" font-family="Helvetica,sans-Serif" font-size="10.00"> </text>
</a>
</g>
</g>
<!-- Node3&#45;&gt;Node2 -->
<g id="edge2" class="edge"><title>Node3&#45;&gt;Node2</title>
<path fill="none" stroke="#404040" d="M63.857,-392.769C69.5037,-372.84 77.4144,-344.92 84.9221,-318.422"/>
<polygon fill="none" stroke="#404040" points="84.9487,-318.328 82.7358,-311.465 88.22,-306.782 90.4328,-313.646 84.9487,-318.328"/>
<text text-anchor="middle" x="109" y="-328" font-family="Helvetica,sans-Serif" font-size="10.00"> #resources</text>
</g>
<!-- Node4 -->
<g id="node4" class="node"><title>Node4</title>
<g id="a_node4"><a xlink:href="../../d6/da4/classWorldParticles_1_1Engine_1_1Library.html" target="_top" xlink:title="{WorldParticles::Engine\l::Library\&lt; T \&gt;\n||+ Library()\l+ Library()\l+ Library()\l+ ~Library()\l+ operator=()\l+ operator=()\l+ get()\l}">
<polygon fill="none" stroke="black" points="130,-354.5 130,-488.5 246,-488.5 246,-354.5 130,-354.5"/>
<text text-anchor="start" x="138" y="-476.5" font-family="Helvetica,sans-Serif" font-size="10.00">WorldParticles::Engine</text>
<text text-anchor="middle" x="188" y="-465.5" font-family="Helvetica,sans-Serif" font-size="10.00">::Library&lt; T &gt;</text>
<polyline fill="none" stroke="black" points="130,-458.5 246,-458.5 "/>
<text text-anchor="middle" x="188" y="-446.5" font-family="Helvetica,sans-Serif" font-size="10.00"> </text>
<polyline fill="none" stroke="black" points="130,-439.5 246,-439.5 "/>
<text text-anchor="start" x="138" y="-427.5" font-family="Helvetica,sans-Serif" font-size="10.00">+ Library()</text>
<text text-anchor="start" x="138" y="-416.5" font-family="Helvetica,sans-Serif" font-size="10.00">+ Library()</text>
<text text-anchor="start" x="138" y="-405.5" font-family="Helvetica,sans-Serif" font-size="10.00">+ Library()</text>
<text text-anchor="start" x="138" y="-394.5" font-family="Helvetica,sans-Serif" font-size="10.00">+ ~Library()</text>
<text text-anchor="start" x="138" y="-383.5" font-family="Helvetica,sans-Serif" font-size="10.00">+ operator=()</text>
<text text-anchor="start" x="138" y="-372.5" font-family="Helvetica,sans-Serif" font-size="10.00">+ operator=()</text>
<text text-anchor="start" x="138" y="-361.5" font-family="Helvetica,sans-Serif" font-size="10.00">+ get()</text>
</a>
</g>
</g>
<!-- Node4&#45;&gt;Node2 -->
<g id="edge3" class="edge"><title>Node4&#45;&gt;Node2</title>
<path fill="none" stroke="orange" d="M154.152,-345.281C148.403,-332.506 142.47,-319.321 136.833,-306.796"/>
<polygon fill="orange" stroke="orange" points="151.003,-346.814 158.299,-354.497 157.387,-343.941 151.003,-346.814"/>
<text text-anchor="middle" x="185" y="-328" font-family="Helvetica,sans-Serif" font-size="10.00"> &lt; Animation * &gt;</text>
</g>
<!-- Node5 -->
<g id="node5" class="node"><title>Node5</title>
<polygon fill="none" stroke="#bfbfbf" points="154,-536.5 154,-593.5 222,-593.5 222,-536.5 154,-536.5"/>
<text text-anchor="middle" x="188" y="-581.5" font-family="Helvetica,sans-Serif" font-size="10.00">vector&lt; T &gt;</text>
<polyline fill="none" stroke="#bfbfbf" points="154,-574.5 222,-574.5 "/>
<text text-anchor="middle" x="188" y="-562.5" font-family="Helvetica,sans-Serif" font-size="10.00"> </text>
<polyline fill="none" stroke="#bfbfbf" points="154,-555.5 222,-555.5 "/>
<text text-anchor="middle" x="188" y="-543.5" font-family="Helvetica,sans-Serif" font-size="10.00"> </text>
</g>
<!-- Node5&#45;&gt;Node4 -->
<g id="edge4" class="edge"><title>Node5&#45;&gt;Node4</title>
<path fill="none" stroke="#404040" d="M188,-536.381C188,-526.02 188,-513.663 188,-500.97"/>
<polygon fill="none" stroke="#404040" points="188,-500.753 184,-494.753 188,-488.753 192,-494.753 188,-500.753"/>
<text text-anchor="middle" x="214" y="-510" font-family="Helvetica,sans-Serif" font-size="10.00"> #resources</text>
</g>
</g>
</svg>
