<?xml version="1.0" encoding="UTF-8" standalone="no"?>
<!DOCTYPE svg PUBLIC "-//W3C//DTD SVG 1.1//EN"
 "http://www.w3.org/Graphics/SVG/1.1/DTD/svg11.dtd">
<!-- Generated by graphviz version 2.38.0 (20140413.2041)
 -->
<!-- Title: engine/Renderer/Renderer.hpp Pages: 1 -->
<svg width="1166pt" height="341pt"
 viewBox="0.00 0.00 1166.00 341.00" xmlns="http://www.w3.org/2000/svg" xmlns:xlink="http://www.w3.org/1999/xlink">
<g id="graph0" class="graph" transform="scale(1 1) rotate(0) translate(4 337)">
<title>engine/Renderer/Renderer.hpp</title>
<!-- Node1 -->
<g id="node1" class="node"><title>Node1</title>
<polygon fill="#bfbfbf" stroke="black" points="586,-313.5 586,-332.5 735,-332.5 735,-313.5 586,-313.5"/>
<text text-anchor="middle" x="660.5" y="-320.5" font-family="Helvetica,sans-Serif" font-size="10.00">engine/Renderer/Renderer.hpp</text>
</g>
<!-- Node2 -->
<g id="node2" class="node"><title>Node2</title>
<g id="a_node2"><a xlink:href="../../d3/d28/Renderer_8cpp.html" target="_top" xlink:title="engine/Renderer/Renderer.cpp">
<polygon fill="none" stroke="black" points="0,-62 0,-81 149,-81 149,-62 0,-62"/>
<text text-anchor="middle" x="74.5" y="-69" font-family="Helvetica,sans-Serif" font-size="10.00">engine/Renderer/Renderer.cpp</text>
</a>
</g>
</g>
<!-- Node1&#45;&gt;Node2 -->
<g id="edge1" class="edge"><title>Node1&#45;&gt;Node2</title>
<path fill="none" stroke="midnightblue" d="M596.584,-311.635C515.201,-296.785 371.692,-264.994 259.5,-210 184.759,-173.364 109.343,-105.49 83.69,-81.3252"/>
<polygon fill="midnightblue" stroke="midnightblue" points="596.216,-315.125 606.678,-313.448 597.454,-308.235 596.216,-315.125"/>
</g>
<!-- Node3 -->
<g id="node3" class="node"><title>Node3</title>
<g id="a_node3"><a xlink:href="../../db/de8/Scene_8hpp.html" target="_top" xlink:title="engine/Scene/Scene.hpp">
<polygon fill="none" stroke="black" points="598,-252 598,-271 723,-271 723,-252 598,-252"/>
<text text-anchor="middle" x="660.5" y="-259" font-family="Helvetica,sans-Serif" font-size="10.00">engine/Scene/Scene.hpp</text>
</a>
</g>
</g>
<!-- Node1&#45;&gt;Node3 -->
<g id="edge2" class="edge"><title>Node1&#45;&gt;Node3</title>
<path fill="none" stroke="midnightblue" d="M660.5,-303.317C660.5,-292.496 660.5,-279.398 660.5,-271.009"/>
<polygon fill="midnightblue" stroke="midnightblue" points="657,-303.475 660.5,-313.475 664,-303.475 657,-303.475"/>
</g>
<!-- Node21 -->
<g id="node21" class="node"><title>Node21</title>
<g id="a_node21"><a xlink:href="../../d3/d35/SpatialGraph_8cpp.html" target="_top" xlink:title="engine/SpatialGraph\l/SpatialGraph.cpp">
<polygon fill="none" stroke="black" points="741.5,-246.5 741.5,-276.5 845.5,-276.5 845.5,-246.5 741.5,-246.5"/>
<text text-anchor="start" x="749.5" y="-264.5" font-family="Helvetica,sans-Serif" font-size="10.00">engine/SpatialGraph</text>
<text text-anchor="middle" x="793.5" y="-253.5" font-family="Helvetica,sans-Serif" font-size="10.00">/SpatialGraph.cpp</text>
</a>
</g>
</g>
<!-- Node1&#45;&gt;Node21 -->
<g id="edge22" class="edge"><title>Node1&#45;&gt;Node21</title>
<path fill="none" stroke="midnightblue" d="M688.82,-309.331C710.339,-299.704 739.925,-286.468 762.155,-276.523"/>
<polygon fill="midnightblue" stroke="midnightblue" points="687.255,-306.197 679.556,-313.475 690.113,-312.586 687.255,-306.197"/>
</g>
<!-- Node4 -->
<g id="node4" class="node"><title>Node4</title>
<g id="a_node4"><a xlink:href="../../d4/d7f/AssimpImporter_8cpp.html" target="_top" xlink:title="engine/AssimpImporter\l/AssimpImporter.cpp">
<polygon fill="none" stroke="black" points="269,-179.5 269,-209.5 386,-209.5 386,-179.5 269,-179.5"/>
<text text-anchor="start" x="277" y="-197.5" font-family="Helvetica,sans-Serif" font-size="10.00">engine/AssimpImporter</text>
<text text-anchor="middle" x="327.5" y="-186.5" font-family="Helvetica,sans-Serif" font-size="10.00">/AssimpImporter.cpp</text>
</a>
</g>
</g>
<!-- Node3&#45;&gt;Node4 -->
<g id="edge3" class="edge"><title>Node3&#45;&gt;Node4</title>
<path fill="none" stroke="midnightblue" d="M603.999,-250.102C550.3,-240.132 467.31,-224.497 395.5,-210 392.424,-209.379 389.271,-208.734 386.089,-208.078"/>
<polygon fill="midnightblue" stroke="midnightblue" points="603.535,-253.575 614.006,-251.957 604.811,-246.692 603.535,-253.575"/>
</g>
<!-- Node5 -->
<g id="node5" class="node"><title>Node5</title>
<g id="a_node5"><a xlink:href="../../d4/d1c/GameEngine_8hpp.html" target="_top" xlink:title="engine/GameEngine/GameEngine.hpp">
<polygon fill="none" stroke="black" points="404.5,-185 404.5,-204 586.5,-204 586.5,-185 404.5,-185"/>
<text text-anchor="middle" x="495.5" y="-192" font-family="Helvetica,sans-Serif" font-size="10.00">engine/GameEngine/GameEngine.hpp</text>
</a>
</g>
</g>
<!-- Node3&#45;&gt;Node5 -->
<g id="edge4" class="edge"><title>Node3&#45;&gt;Node5</title>
<path fill="none" stroke="midnightblue" d="M629.034,-248.104C596.273,-235.198 545.83,-215.327 517.239,-204.064"/>
<polygon fill="midnightblue" stroke="midnightblue" points="628.002,-251.46 638.589,-251.869 630.568,-244.947 628.002,-251.46"/>
</g>
<!-- Node17 -->
<g id="node17" class="node"><title>Node17</title>
<g id="a_node17"><a xlink:href="../../d2/d41/Light_8cpp.html" target="_top" xlink:title="engine/Light/Light.cpp">
<polygon fill="none" stroke="black" points="604.5,-185 604.5,-204 716.5,-204 716.5,-185 604.5,-185"/>
<text text-anchor="middle" x="660.5" y="-192" font-family="Helvetica,sans-Serif" font-size="10.00">engine/Light/Light.cpp</text>
</a>
</g>
</g>
<!-- Node3&#45;&gt;Node17 -->
<g id="edge18" class="edge"><title>Node3&#45;&gt;Node17</title>
<path fill="none" stroke="midnightblue" d="M660.5,-241.537C660.5,-229.17 660.5,-213.62 660.5,-204.127"/>
<polygon fill="midnightblue" stroke="midnightblue" points="657,-241.734 660.5,-251.734 664,-241.734 657,-241.734"/>
</g>
<!-- Node18 -->
<g id="node18" class="node"><title>Node18</title>
<g id="a_node18"><a xlink:href="../../de/d4f/Object_8cpp.html" target="_top" xlink:title="engine/Object/Object.cpp">
<polygon fill="none" stroke="black" points="735,-185 735,-204 862,-204 862,-185 735,-185"/>
<text text-anchor="middle" x="798.5" y="-192" font-family="Helvetica,sans-Serif" font-size="10.00">engine/Object/Object.cpp</text>
</a>
</g>
</g>
<!-- Node3&#45;&gt;Node18 -->
<g id="edge19" class="edge"><title>Node3&#45;&gt;Node18</title>
<path fill="none" stroke="midnightblue" d="M688.22,-247.444C715.553,-234.569 756.554,-215.257 780.099,-204.167"/>
<polygon fill="midnightblue" stroke="midnightblue" points="686.381,-244.441 678.825,-251.869 689.363,-250.774 686.381,-244.441"/>
</g>
<!-- Node19 -->
<g id="node19" class="node"><title>Node19</title>
<g id="a_node19"><a xlink:href="../../da/daf/PerspectiveCamera_8cpp.html" target="_top" xlink:title="engine/PerspectiveCamera\l/PerspectiveCamera.cpp">
<polygon fill="none" stroke="black" points="880.5,-179.5 880.5,-209.5 1014.5,-209.5 1014.5,-179.5 880.5,-179.5"/>
<text text-anchor="start" x="888.5" y="-197.5" font-family="Helvetica,sans-Serif" font-size="10.00">engine/PerspectiveCamera</text>
<text text-anchor="middle" x="947.5" y="-186.5" font-family="Helvetica,sans-Serif" font-size="10.00">/PerspectiveCamera.cpp</text>
</a>
</g>
</g>
<!-- Node3&#45;&gt;Node19 -->
<g id="edge20" class="edge"><title>Node3&#45;&gt;Node19</title>
<path fill="none" stroke="midnightblue" d="M708.25,-249.685C756.805,-238.689 832.258,-221.6 885.423,-209.559"/>
<polygon fill="midnightblue" stroke="midnightblue" points="707.295,-246.313 698.315,-251.936 708.841,-253.14 707.295,-246.313"/>
</g>
<!-- Node20 -->
<g id="node20" class="node"><title>Node20</title>
<g id="a_node20"><a xlink:href="../../de/d15/Scene_8cpp.html" target="_top" xlink:title="engine/Scene/Scene.cpp">
<polygon fill="none" stroke="black" points="1033,-185 1033,-204 1158,-204 1158,-185 1033,-185"/>
<text text-anchor="middle" x="1095.5" y="-192" font-family="Helvetica,sans-Serif" font-size="10.00">engine/Scene/Scene.cpp</text>
</a>
</g>
</g>
<!-- Node3&#45;&gt;Node20 -->
<g id="edge21" class="edge"><title>Node3&#45;&gt;Node20</title>
<path fill="none" stroke="midnightblue" d="M709.828,-250.052C717.404,-248.597 725.149,-247.193 732.5,-246 861.136,-225.121 894.864,-230.879 1023.5,-210 1034.07,-208.284 1045.46,-206.133 1055.99,-204.017"/>
<polygon fill="midnightblue" stroke="midnightblue" points="709.15,-246.619 700.014,-251.983 710.501,-253.487 709.15,-246.619"/>
</g>
<!-- Node6 -->
<g id="node6" class="node"><title>Node6</title>
<g id="a_node6"><a xlink:href="../../dd/d98/GameEngine_8cpp.html" target="_top" xlink:title="engine/GameEngine/GameEngine.cpp">
<polygon fill="none" stroke="black" points="281.5,-123.5 281.5,-142.5 463.5,-142.5 463.5,-123.5 281.5,-123.5"/>
<text text-anchor="middle" x="372.5" y="-130.5" font-family="Helvetica,sans-Serif" font-size="10.00">engine/GameEngine/GameEngine.cpp</text>
</a>
</g>
</g>
<!-- Node5&#45;&gt;Node6 -->
<g id="edge5" class="edge"><title>Node5&#45;&gt;Node6</title>
<path fill="none" stroke="midnightblue" d="M468.669,-180.521C444.815,-168.982 410.627,-152.443 390.09,-142.509"/>
<polygon fill="midnightblue" stroke="midnightblue" points="467.351,-183.771 477.877,-184.975 470.399,-177.47 467.351,-183.771"/>
</g>
<!-- Node7 -->
<g id="node7" class="node"><title>Node7</title>
<g id="a_node7"><a xlink:href="../../d0/d5e/glwindow_8hpp.html" target="_top" xlink:title="window/glwindow.hpp">
<polygon fill="none" stroke="black" points="481.5,-123.5 481.5,-142.5 593.5,-142.5 593.5,-123.5 481.5,-123.5"/>
<text text-anchor="middle" x="537.5" y="-130.5" font-family="Helvetica,sans-Serif" font-size="10.00">window/glwindow.hpp</text>
</a>
</g>
</g>
<!-- Node5&#45;&gt;Node7 -->
<g id="edge6" class="edge"><title>Node5&#45;&gt;Node7</title>
<path fill="none" stroke="midnightblue" d="M507.496,-176.505C515.344,-165.388 525.26,-151.34 531.494,-142.509"/>
<polygon fill="midnightblue" stroke="midnightblue" points="504.425,-174.787 501.518,-184.975 510.144,-178.824 504.425,-174.787"/>
</g>
<!-- Node13 -->
<g id="node13" class="node"><title>Node13</title>
<g id="a_node13"><a xlink:href="../../d3/d1f/glwindow_8cpp.html" target="_top" xlink:title="window/glwindow.cpp">
<polygon fill="none" stroke="black" points="971.5,-62 971.5,-81 1083.5,-81 1083.5,-62 971.5,-62"/>
<text text-anchor="middle" x="1027.5" y="-69" font-family="Helvetica,sans-Serif" font-size="10.00">window/glwindow.cpp</text>
</a>
</g>
</g>
<!-- Node5&#45;&gt;Node13 -->
<g id="edge17" class="edge"><title>Node5&#45;&gt;Node13</title>
<path fill="none" stroke="midnightblue" d="M542.841,-182.733C647.149,-159.009 895.02,-102.632 989.777,-81.0799"/>
<polygon fill="midnightblue" stroke="midnightblue" points="541.884,-179.361 532.909,-184.992 543.436,-186.186 541.884,-179.361"/>
</g>
<!-- Node7&#45;&gt;Node2 -->
<g id="edge10" class="edge"><title>Node7&#45;&gt;Node2</title>
<path fill="none" stroke="midnightblue" d="M471.243,-122.872C331.416,-105.429 294.286,-106.488 158.5,-87 146.341,-85.255 133.237,-83.1174 121.078,-81.0251"/>
<polygon fill="midnightblue" stroke="midnightblue" points="471.133,-126.385 481.491,-124.16 472.006,-119.44 471.133,-126.385"/>
</g>
<!-- Node8 -->
<g id="node8" class="node"><title>Node8</title>
<g id="a_node8"><a xlink:href="../../d8/d49/ArrayObject_8cpp.html" target="_top" xlink:title="engine/ArrayObject\l/ArrayObject.cpp">
<polygon fill="none" stroke="black" points="167.5,-56.5 167.5,-86.5 267.5,-86.5 267.5,-56.5 167.5,-56.5"/>
<text text-anchor="start" x="175.5" y="-74.5" font-family="Helvetica,sans-Serif" font-size="10.00">engine/ArrayObject</text>
<text text-anchor="middle" x="217.5" y="-63.5" font-family="Helvetica,sans-Serif" font-size="10.00">/ArrayObject.cpp</text>
</a>
</g>
</g>
<!-- Node7&#45;&gt;Node8 -->
<g id="edge7" class="edge"><title>Node7&#45;&gt;Node8</title>
<path fill="none" stroke="midnightblue" d="M471.347,-121.911C418.441,-113.526 342.465,-100.775 276.5,-87 273.609,-86.3963 270.645,-85.7512 267.657,-85.081"/>
<polygon fill="midnightblue" stroke="midnightblue" points="470.857,-125.377 481.28,-123.477 471.947,-118.462 470.857,-125.377"/>
</g>
<!-- Node9 -->
<g id="node9" class="node"><title>Node9</title>
<g id="a_node9"><a xlink:href="../../db/d2b/BufferObject_8cpp.html" target="_top" xlink:title="engine/BufferObject\l/BufferObject.cpp">
<polygon fill="none" stroke="black" points="286,-56.5 286,-86.5 389,-86.5 389,-56.5 286,-56.5"/>
<text text-anchor="start" x="294" y="-74.5" font-family="Helvetica,sans-Serif" font-size="10.00">engine/BufferObject</text>
<text text-anchor="middle" x="337.5" y="-63.5" font-family="Helvetica,sans-Serif" font-size="10.00">/BufferObject.cpp</text>
</a>
</g>
</g>
<!-- Node7&#45;&gt;Node9 -->
<g id="edge8" class="edge"><title>Node7&#45;&gt;Node9</title>
<path fill="none" stroke="midnightblue" d="M499.211,-120.609C466.585,-110.903 419.57,-96.9159 384.636,-86.523"/>
<polygon fill="midnightblue" stroke="midnightblue" points="498.262,-123.978 508.845,-123.475 500.258,-117.269 498.262,-123.978"/>
</g>
<!-- Node10 -->
<g id="node10" class="node"><title>Node10</title>
<g id="a_node10"><a xlink:href="../../d2/dcc/Mesh_8cpp.html" target="_top" xlink:title="engine/Mesh/Mesh.cpp">
<polygon fill="none" stroke="black" points="407.5,-62 407.5,-81 525.5,-81 525.5,-62 407.5,-62"/>
<text text-anchor="middle" x="466.5" y="-69" font-family="Helvetica,sans-Serif" font-size="10.00">engine/Mesh/Mesh.cpp</text>
</a>
</g>
</g>
<!-- Node7&#45;&gt;Node10 -->
<g id="edge9" class="edge"><title>Node7&#45;&gt;Node10</title>
<path fill="none" stroke="midnightblue" d="M519.568,-116.973C505.989,-105.593 487.823,-90.3694 476.654,-81.0091"/>
<polygon fill="midnightblue" stroke="midnightblue" points="517.415,-119.735 527.327,-123.475 521.911,-114.369 517.415,-119.735"/>
</g>
<!-- Node11 -->
<g id="node11" class="node"><title>Node11</title>
<g id="a_node11"><a xlink:href="../../dd/d84/Shader_8cpp.html" target="_top" xlink:title="engine/Shader/Shader.cpp">
<polygon fill="none" stroke="black" points="544,-62 544,-81 675,-81 675,-62 544,-62"/>
<text text-anchor="middle" x="609.5" y="-69" font-family="Helvetica,sans-Serif" font-size="10.00">engine/Shader/Shader.cpp</text>
</a>
</g>
</g>
<!-- Node7&#45;&gt;Node11 -->
<g id="edge11" class="edge"><title>Node7&#45;&gt;Node11</title>
<path fill="none" stroke="midnightblue" d="M555.684,-116.973C569.455,-105.593 587.877,-90.3694 599.203,-81.0091"/>
<polygon fill="midnightblue" stroke="midnightblue" points="553.295,-114.407 547.816,-123.475 557.754,-119.803 553.295,-114.407"/>
</g>
<!-- Node12 -->
<g id="node12" class="node"><title>Node12</title>
<g id="a_node12"><a xlink:href="../../de/d34/ShaderProgram_8cpp.html" target="_top" xlink:title="engine/ShaderProgram\l/ShaderProgram.cpp">
<polygon fill="none" stroke="black" points="693.5,-56.5 693.5,-86.5 809.5,-86.5 809.5,-56.5 693.5,-56.5"/>
<text text-anchor="start" x="701.5" y="-74.5" font-family="Helvetica,sans-Serif" font-size="10.00">engine/ShaderProgram</text>
<text text-anchor="middle" x="751.5" y="-63.5" font-family="Helvetica,sans-Serif" font-size="10.00">/ShaderProgram.cpp</text>
</a>
</g>
</g>
<!-- Node7&#45;&gt;Node12 -->
<g id="edge12" class="edge"><title>Node7&#45;&gt;Node12</title>
<path fill="none" stroke="midnightblue" d="M578.019,-120.734C612.945,-111.023 663.524,-96.9607 701.064,-86.523"/>
<polygon fill="midnightblue" stroke="midnightblue" points="576.858,-117.424 568.161,-123.475 578.733,-124.168 576.858,-117.424"/>
</g>
<!-- Node7&#45;&gt;Node13 -->
<g id="edge13" class="edge"><title>Node7&#45;&gt;Node13</title>
<path fill="none" stroke="midnightblue" d="M603.961,-127.321C687.875,-120.873 836.508,-107.654 962.5,-87 972.312,-85.3914 982.868,-83.2272 992.559,-81.0623"/>
<polygon fill="midnightblue" stroke="midnightblue" points="603.511,-123.845 593.805,-128.093 604.041,-130.825 603.511,-123.845"/>
</g>
<!-- Node14 -->
<g id="node14" class="node"><title>Node14</title>
<g id="a_node14"><a xlink:href="../../df/d50/mainwindow_8hpp.html" target="_top" xlink:title="window/mainwindow.hpp">
<polygon fill="none" stroke="black" points="828,-62 828,-81 953,-81 953,-62 828,-62"/>
<text text-anchor="middle" x="890.5" y="-69" font-family="Helvetica,sans-Serif" font-size="10.00">window/mainwindow.hpp</text>
</a>
</g>
</g>
<!-- Node7&#45;&gt;Node14 -->
<g id="edge14" class="edge"><title>Node7&#45;&gt;Node14</title>
<path fill="none" stroke="midnightblue" d="M603.558,-122.183C660.583,-113.527 745.116,-100.26 818.5,-87 828.538,-85.1862 839.334,-83.09 849.433,-81.065"/>
<polygon fill="midnightblue" stroke="midnightblue" points="602.956,-118.734 593.592,-123.692 604.004,-125.656 602.956,-118.734"/>
</g>
<!-- Node15 -->
<g id="node15" class="node"><title>Node15</title>
<g id="a_node15"><a xlink:href="../../df/d0a/main_8cpp.html" target="_top" xlink:title="TODO. ">
<polygon fill="none" stroke="black" points="808.5,-0.5 808.5,-19.5 864.5,-19.5 864.5,-0.5 808.5,-0.5"/>
<text text-anchor="middle" x="836.5" y="-7.5" font-family="Helvetica,sans-Serif" font-size="10.00">main.cpp</text>
</a>
</g>
</g>
<!-- Node14&#45;&gt;Node15 -->
<g id="edge15" class="edge"><title>Node14&#45;&gt;Node15</title>
<path fill="none" stroke="midnightblue" d="M875.977,-54.4975C865.756,-43.2356 852.477,-28.6044 844.223,-19.5091"/>
<polygon fill="midnightblue" stroke="midnightblue" points="873.451,-56.9222 882.763,-61.9751 878.634,-52.2178 873.451,-56.9222"/>
</g>
<!-- Node16 -->
<g id="node16" class="node"><title>Node16</title>
<g id="a_node16"><a xlink:href="../../d8/dd9/mainwindow_8cpp.html" target="_top" xlink:title="window/mainwindow.cpp">
<polygon fill="none" stroke="black" points="882,-0.5 882,-19.5 1007,-19.5 1007,-0.5 882,-0.5"/>
<text text-anchor="middle" x="944.5" y="-7.5" font-family="Helvetica,sans-Serif" font-size="10.00">window/mainwindow.cpp</text>
</a>
</g>
</g>
<!-- Node14&#45;&gt;Node16 -->
<g id="edge16" class="edge"><title>Node14&#45;&gt;Node16</title>
<path fill="none" stroke="midnightblue" d="M905.023,-54.4975C915.244,-43.2356 928.523,-28.6044 936.777,-19.5091"/>
<polygon fill="midnightblue" stroke="midnightblue" points="902.366,-52.2178 898.237,-61.9751 907.549,-56.9222 902.366,-52.2178"/>
</g>
</g>
</svg>
