<?xml version="1.0" encoding="UTF-8" standalone="no"?>
<!DOCTYPE svg PUBLIC "-//W3C//DTD SVG 1.1//EN"
 "http://www.w3.org/Graphics/SVG/1.1/DTD/svg11.dtd">
<!-- Generated by graphviz version 2.38.0 (20140413.2041)
 -->
<!-- Title: engine/ShaderLibrary/ShaderLibrary.hpp Pages: 1 -->
<svg width="362pt" height="151pt"
 viewBox="0.00 0.00 362.00 151.00" xmlns="http://www.w3.org/2000/svg" xmlns:xlink="http://www.w3.org/1999/xlink">
<g id="graph0" class="graph" transform="scale(1 1) rotate(0) translate(4 147)">
<title>engine/ShaderLibrary/ShaderLibrary.hpp</title>
<!-- Node1 -->
<g id="node1" class="node"><title>Node1</title>
<polygon fill="#bfbfbf" stroke="black" points="100,-112.5 100,-142.5 208,-142.5 208,-112.5 100,-112.5"/>
<text text-anchor="start" x="108" y="-130.5" font-family="Helvetica,sans-Serif" font-size="10.00">engine/ShaderLibrary</text>
<text text-anchor="middle" x="154" y="-119.5" font-family="Helvetica,sans-Serif" font-size="10.00">/ShaderLibrary.hpp</text>
</g>
<!-- Node2 -->
<g id="node2" class="node"><title>Node2</title>
<polygon fill="none" stroke="#bfbfbf" points="0,-56.5 0,-75.5 52,-75.5 52,-56.5 0,-56.5"/>
<text text-anchor="middle" x="26" y="-63.5" font-family="Helvetica,sans-Serif" font-size="10.00">memory</text>
</g>
<!-- Node1&#45;&gt;Node2 -->
<g id="edge1" class="edge"><title>Node1&#45;&gt;Node2</title>
<path fill="none" stroke="midnightblue" d="M123.666,-112.399C102.477,-102.55 74.4063,-89.5014 53.798,-79.9217"/>
<polygon fill="midnightblue" stroke="midnightblue" points="55.1687,-76.6993 44.6251,-75.6578 52.2179,-83.047 55.1687,-76.6993"/>
</g>
<!-- Node3 -->
<g id="node3" class="node"><title>Node3</title>
<g id="a_node3"><a xlink:href="../../df/d67/Library_8hpp.html" target="_top" xlink:title="Library.hpp">
<polygon fill="none" stroke="black" points="70.5,-56.5 70.5,-75.5 135.5,-75.5 135.5,-56.5 70.5,-56.5"/>
<text text-anchor="middle" x="103" y="-63.5" font-family="Helvetica,sans-Serif" font-size="10.00">Library.hpp</text>
</a>
</g>
</g>
<!-- Node1&#45;&gt;Node3 -->
<g id="edge2" class="edge"><title>Node1&#45;&gt;Node3</title>
<path fill="none" stroke="midnightblue" d="M141.914,-112.399C134.426,-103.664 124.782,-92.4126 116.968,-83.2962"/>
<polygon fill="midnightblue" stroke="midnightblue" points="119.586,-80.9726 110.421,-75.6578 114.271,-85.5281 119.586,-80.9726"/>
</g>
<!-- Node6 -->
<g id="node6" class="node"><title>Node6</title>
<g id="a_node6"><a xlink:href="../../d4/d6e/Shader_8hpp.html" target="_top" xlink:title="Shader.hpp">
<polygon fill="none" stroke="black" points="172,-56.5 172,-75.5 238,-75.5 238,-56.5 172,-56.5"/>
<text text-anchor="middle" x="205" y="-63.5" font-family="Helvetica,sans-Serif" font-size="10.00">Shader.hpp</text>
</a>
</g>
</g>
<!-- Node1&#45;&gt;Node6 -->
<g id="edge6" class="edge"><title>Node1&#45;&gt;Node6</title>
<path fill="none" stroke="midnightblue" d="M166.086,-112.399C173.574,-103.664 183.218,-92.4126 191.032,-83.2962"/>
<polygon fill="midnightblue" stroke="midnightblue" points="193.729,-85.5281 197.579,-75.6578 188.414,-80.9726 193.729,-85.5281"/>
</g>
<!-- Node8 -->
<g id="node8" class="node"><title>Node8</title>
<g id="a_node8"><a xlink:href="../../d2/dba/ShaderNames_8hpp.html" target="_top" xlink:title="ShaderNames.hpp">
<polygon fill="none" stroke="black" points="256,-56.5 256,-75.5 354,-75.5 354,-56.5 256,-56.5"/>
<text text-anchor="middle" x="305" y="-63.5" font-family="Helvetica,sans-Serif" font-size="10.00">ShaderNames.hpp</text>
</a>
</g>
</g>
<!-- Node1&#45;&gt;Node8 -->
<g id="edge8" class="edge"><title>Node1&#45;&gt;Node8</title>
<path fill="none" stroke="midnightblue" d="M189.785,-112.399C215.233,-102.372 249.097,-89.028 273.518,-79.405"/>
<polygon fill="midnightblue" stroke="midnightblue" points="275.008,-82.5802 283.028,-75.6578 272.441,-76.0676 275.008,-82.5802"/>
</g>
<!-- Node3&#45;&gt;Node3 -->
<g id="edge5" class="edge"><title>Node3&#45;&gt;Node3</title>
<path fill="none" stroke="midnightblue" d="M124.538,-75.5252C139.173,-78.3079 153.5,-75.1328 153.5,-66 153.5,-59.0077 145.102,-55.5077 134.597,-55.5"/>
<polygon fill="midnightblue" stroke="midnightblue" points="134.154,-52.0265 124.538,-56.4748 134.829,-58.9938 134.154,-52.0265"/>
</g>
<!-- Node4 -->
<g id="node4" class="node"><title>Node4</title>
<polygon fill="none" stroke="#bfbfbf" points="26,-0.5 26,-19.5 70,-19.5 70,-0.5 26,-0.5"/>
<text text-anchor="middle" x="48" y="-7.5" font-family="Helvetica,sans-Serif" font-size="10.00">vector</text>
</g>
<!-- Node3&#45;&gt;Node4 -->
<g id="edge3" class="edge"><title>Node3&#45;&gt;Node4</title>
<path fill="none" stroke="midnightblue" d="M93.9179,-56.083C85.8287,-48.1409 73.8046,-36.3354 64.0898,-26.7973"/>
<polygon fill="midnightblue" stroke="midnightblue" points="66.5009,-24.2595 56.9131,-19.7511 61.5967,-29.2545 66.5009,-24.2595"/>
</g>
<!-- Node5 -->
<g id="node5" class="node"><title>Node5</title>
<polygon fill="none" stroke="#bfbfbf" points="88,-0.5 88,-19.5 150,-19.5 150,-0.5 88,-0.5"/>
<text text-anchor="middle" x="119" y="-7.5" font-family="Helvetica,sans-Serif" font-size="10.00">Library.tpp</text>
</g>
<!-- Node3&#45;&gt;Node5 -->
<g id="edge4" class="edge"><title>Node3&#45;&gt;Node5</title>
<path fill="none" stroke="midnightblue" d="M105.642,-56.083C107.786,-48.8486 110.879,-38.4087 113.549,-29.3968"/>
<polygon fill="midnightblue" stroke="midnightblue" points="116.922,-30.3334 116.407,-19.7511 110.21,-28.3447 116.922,-30.3334"/>
</g>
<!-- Node7 -->
<g id="node7" class="node"><title>Node7</title>
<polygon fill="none" stroke="#bfbfbf" points="184.5,-0.5 184.5,-19.5 225.5,-19.5 225.5,-0.5 184.5,-0.5"/>
<text text-anchor="middle" x="205" y="-7.5" font-family="Helvetica,sans-Serif" font-size="10.00">string</text>
</g>
<!-- Node6&#45;&gt;Node7 -->
<g id="edge7" class="edge"><title>Node6&#45;&gt;Node7</title>
<path fill="none" stroke="midnightblue" d="M205,-56.083C205,-49.0059 205,-38.8611 205,-29.9865"/>
<polygon fill="midnightblue" stroke="midnightblue" points="208.5,-29.751 205,-19.7511 201.5,-29.7511 208.5,-29.751"/>
</g>
</g>
</svg>
