<?xml version="1.0" encoding="UTF-8" standalone="no"?>
<!DOCTYPE svg PUBLIC "-//W3C//DTD SVG 1.1//EN"
 "http://www.w3.org/Graphics/SVG/1.1/DTD/svg11.dtd">
<!-- Generated by graphviz version 2.38.0 (20140413.2041)
 -->
<!-- Title: engine/Shaders/ShaderProgramNames.hpp Pages: 1 -->
<svg width="471pt" height="195pt"
 viewBox="0.00 0.00 470.50 195.00" xmlns="http://www.w3.org/2000/svg" xmlns:xlink="http://www.w3.org/1999/xlink">
<g id="graph0" class="graph" transform="scale(1 1) rotate(0) translate(4 191)">
<title>engine/Shaders/ShaderProgramNames.hpp</title>
<!-- Node1 -->
<g id="node1" class="node"><title>Node1</title>
<polygon fill="#bfbfbf" stroke="black" points="100,-156.5 100,-186.5 255,-186.5 255,-156.5 100,-156.5"/>
<text text-anchor="start" x="108" y="-174.5" font-family="Helvetica,sans-Serif" font-size="10.00">engine/Shaders/ShaderProgram</text>
<text text-anchor="middle" x="177.5" y="-163.5" font-family="Helvetica,sans-Serif" font-size="10.00">Names.hpp</text>
</g>
<!-- Node2 -->
<g id="node2" class="node"><title>Node2</title>
<g id="a_node2"><a xlink:href="../../dd/d4f/ShaderProgramMapping_8hpp.html" target="_top" xlink:title="engine/Shaders/Managers\l/ShaderProgramManager\l/internal/ShaderProgramMapping.hpp">
<polygon fill="none" stroke="black" points="0,-78.5 0,-119.5 177,-119.5 177,-78.5 0,-78.5"/>
<text text-anchor="start" x="8" y="-107.5" font-family="Helvetica,sans-Serif" font-size="10.00">engine/Shaders/Managers</text>
<text text-anchor="start" x="8" y="-96.5" font-family="Helvetica,sans-Serif" font-size="10.00">/ShaderProgramManager</text>
<text text-anchor="middle" x="88.5" y="-85.5" font-family="Helvetica,sans-Serif" font-size="10.00">/internal/ShaderProgramMapping.hpp</text>
</a>
</g>
</g>
<!-- Node1&#45;&gt;Node2 -->
<g id="edge1" class="edge"><title>Node1&#45;&gt;Node2</title>
<path fill="none" stroke="midnightblue" d="M151.536,-149.933C139.454,-140.363 125.153,-129.034 113.229,-119.588"/>
<polygon fill="midnightblue" stroke="midnightblue" points="149.478,-152.767 159.49,-156.233 153.824,-147.28 149.478,-152.767"/>
</g>
<!-- Node4 -->
<g id="node4" class="node"><title>Node4</title>
<g id="a_node4"><a xlink:href="../../df/dfd/ShaderProgramManager_8hpp.html" target="_top" xlink:title="engine/Shaders/Managers\l/ShaderProgramManager\l/ShaderProgramManager.hpp">
<polygon fill="none" stroke="black" points="195,-78.5 195,-119.5 338,-119.5 338,-78.5 195,-78.5"/>
<text text-anchor="start" x="203" y="-107.5" font-family="Helvetica,sans-Serif" font-size="10.00">engine/Shaders/Managers</text>
<text text-anchor="start" x="203" y="-96.5" font-family="Helvetica,sans-Serif" font-size="10.00">/ShaderProgramManager</text>
<text text-anchor="middle" x="266.5" y="-85.5" font-family="Helvetica,sans-Serif" font-size="10.00">/ShaderProgramManager.hpp</text>
</a>
</g>
</g>
<!-- Node1&#45;&gt;Node4 -->
<g id="edge3" class="edge"><title>Node1&#45;&gt;Node4</title>
<path fill="none" stroke="midnightblue" d="M203.464,-149.933C215.546,-140.363 229.847,-129.034 241.771,-119.588"/>
<polygon fill="midnightblue" stroke="midnightblue" points="201.176,-147.28 195.51,-156.233 205.522,-152.767 201.176,-147.28"/>
</g>
<!-- Node3 -->
<g id="node3" class="node"><title>Node3</title>
<g id="a_node3"><a xlink:href="../../d4/d46/ShaderProgramManager_8cpp.html" target="_top" xlink:title="engine/Shaders/Managers\l/ShaderProgramManager\l/ShaderProgramManager.cpp">
<polygon fill="none" stroke="black" points="28,-0.5 28,-41.5 171,-41.5 171,-0.5 28,-0.5"/>
<text text-anchor="start" x="36" y="-29.5" font-family="Helvetica,sans-Serif" font-size="10.00">engine/Shaders/Managers</text>
<text text-anchor="start" x="36" y="-18.5" font-family="Helvetica,sans-Serif" font-size="10.00">/ShaderProgramManager</text>
<text text-anchor="middle" x="99.5" y="-7.5" font-family="Helvetica,sans-Serif" font-size="10.00">/ShaderProgramManager.cpp</text>
</a>
</g>
</g>
<!-- Node2&#45;&gt;Node3 -->
<g id="edge2" class="edge"><title>Node2&#45;&gt;Node3</title>
<path fill="none" stroke="midnightblue" d="M92.7992,-68.2965C94.1012,-59.3009 95.4976,-49.6532 96.6768,-41.5056"/>
<polygon fill="midnightblue" stroke="midnightblue" points="89.3014,-68.0299 91.3328,-78.4281 96.2292,-69.0326 89.3014,-68.0299"/>
</g>
<!-- Node4&#45;&gt;Node3 -->
<g id="edge6" class="edge"><title>Node4&#45;&gt;Node3</title>
<path fill="none" stroke="midnightblue" d="M214.178,-74.189C191.075,-63.6749 164.254,-51.4687 142.361,-41.5056"/>
<polygon fill="midnightblue" stroke="midnightblue" points="212.942,-77.4716 223.493,-78.4281 215.841,-71.1003 212.942,-77.4716"/>
</g>
<!-- Node5 -->
<g id="node5" class="node"><title>Node5</title>
<g id="a_node5"><a xlink:href="../../dd/d2e/Model_8cpp.html" target="_top" xlink:title="engine/GameObject/Model\l/Model.cpp">
<polygon fill="none" stroke="black" points="194.5,-6 194.5,-36 326.5,-36 326.5,-6 194.5,-6"/>
<text text-anchor="start" x="202.5" y="-24" font-family="Helvetica,sans-Serif" font-size="10.00">engine/GameObject/Model</text>
<text text-anchor="middle" x="260.5" y="-13" font-family="Helvetica,sans-Serif" font-size="10.00">/Model.cpp</text>
</a>
</g>
</g>
<!-- Node4&#45;&gt;Node5 -->
<g id="edge4" class="edge"><title>Node4&#45;&gt;Node5</title>
<path fill="none" stroke="midnightblue" d="M264.154,-68.2829C263.283,-57.2536 262.335,-45.2457 261.623,-36.2254"/>
<polygon fill="midnightblue" stroke="midnightblue" points="260.679,-68.7346 264.955,-78.4281 267.657,-68.1836 260.679,-68.7346"/>
</g>
<!-- Node6 -->
<g id="node6" class="node"><title>Node6</title>
<g id="a_node6"><a xlink:href="../../d6/d05/Cube_8cpp.html" target="_top" xlink:title="engine/Primitives/Cube\l/Cube.cpp">
<polygon fill="none" stroke="black" points="344.5,-6 344.5,-36 462.5,-36 462.5,-6 344.5,-6"/>
<text text-anchor="start" x="352.5" y="-24" font-family="Helvetica,sans-Serif" font-size="10.00">engine/Primitives/Cube</text>
<text text-anchor="middle" x="403.5" y="-13" font-family="Helvetica,sans-Serif" font-size="10.00">/Cube.cpp</text>
</a>
</g>
</g>
<!-- Node4&#45;&gt;Node6 -->
<g id="edge5" class="edge"><title>Node4&#45;&gt;Node6</title>
<path fill="none" stroke="midnightblue" d="M310.702,-73.479C332.896,-61.1674 358.998,-46.6871 377.857,-36.2254"/>
<polygon fill="midnightblue" stroke="midnightblue" points="308.828,-70.5164 301.781,-78.4281 312.223,-76.6377 308.828,-70.5164"/>
</g>
</g>
</svg>
