<?xml version="1.0" encoding="UTF-8" standalone="no"?>
<!DOCTYPE svg PUBLIC "-//W3C//DTD SVG 1.1//EN"
 "http://www.w3.org/Graphics/SVG/1.1/DTD/svg11.dtd">
<!-- Generated by graphviz version 2.38.0 (20140413.2041)
 -->
<!-- Title: GLWindow Pages: 1 -->
<svg width="472pt" height="270pt"
 viewBox="0.00 0.00 471.50 270.00" xmlns="http://www.w3.org/2000/svg" xmlns:xlink="http://www.w3.org/1999/xlink">
<g id="graph0" class="graph" transform="scale(1 1) rotate(0) translate(4 266)">
<title>GLWindow</title>
<!-- Node1 -->
<g id="node1" class="node"><title>Node1</title>
<polygon fill="#bfbfbf" stroke="black" points="132,-0.5 132,-145.5 243,-145.5 243,-0.5 132,-0.5"/>
<text text-anchor="middle" x="187.5" y="-133.5" font-family="Helvetica,sans-Serif" font-size="10.00">GLWindow</text>
<polyline fill="none" stroke="black" points="132,-126.5 243,-126.5 "/>
<text text-anchor="middle" x="187.5" y="-114.5" font-family="Helvetica,sans-Serif" font-size="10.00"> </text>
<polyline fill="none" stroke="black" points="132,-107.5 243,-107.5 "/>
<text text-anchor="start" x="140" y="-95.5" font-family="Helvetica,sans-Serif" font-size="10.00">+ GLWindow()</text>
<text text-anchor="start" x="140" y="-84.5" font-family="Helvetica,sans-Serif" font-size="10.00">+ ~GLWindow()</text>
<text text-anchor="start" x="140" y="-73.5" font-family="Helvetica,sans-Serif" font-size="10.00">+ start()</text>
<text text-anchor="start" x="140" y="-62.5" font-family="Helvetica,sans-Serif" font-size="10.00"># keyPressEvent()</text>
<text text-anchor="start" x="140" y="-51.5" font-family="Helvetica,sans-Serif" font-size="10.00"># resizeEvent()</text>
<text text-anchor="start" x="140" y="-40.5" font-family="Helvetica,sans-Serif" font-size="10.00"># mousePressEvent()</text>
<text text-anchor="start" x="140" y="-29.5" font-family="Helvetica,sans-Serif" font-size="10.00"># keyReleaseEvent()</text>
<text text-anchor="start" x="140" y="-18.5" font-family="Helvetica,sans-Serif" font-size="10.00"># mouseMoveEvent()</text>
<text text-anchor="start" x="140" y="-7.5" font-family="Helvetica,sans-Serif" font-size="10.00"># resizeWindow()</text>
</g>
<!-- Node2 -->
<g id="node2" class="node"><title>Node2</title>
<g id="a_node2"><a xlink:href="../../de/d30/classQWindow.html" target="_top" xlink:title="{QWindow\n||}">
<polygon fill="none" stroke="black" points="0,-199 0,-256 59,-256 59,-199 0,-199"/>
<text text-anchor="middle" x="29.5" y="-244" font-family="Helvetica,sans-Serif" font-size="10.00">QWindow</text>
<polyline fill="none" stroke="black" points="0,-237 59,-237 "/>
<text text-anchor="middle" x="29.5" y="-225" font-family="Helvetica,sans-Serif" font-size="10.00"> </text>
<polyline fill="none" stroke="black" points="0,-218 59,-218 "/>
<text text-anchor="middle" x="29.5" y="-206" font-family="Helvetica,sans-Serif" font-size="10.00"> </text>
</a>
</g>
</g>
<!-- Node2&#45;&gt;Node1 -->
<g id="edge1" class="edge"><title>Node2&#45;&gt;Node1</title>
<path fill="none" stroke="midnightblue" d="M65.3778,-191.871C85.0328,-172.9 109.822,-148.974 131.923,-127.643"/>
<polygon fill="none" stroke="midnightblue" points="62.8772,-189.42 58.1126,-198.883 67.7385,-194.457 62.8772,-189.42"/>
</g>
<!-- Node3 -->
<g id="node3" class="node"><title>Node3</title>
<polygon fill="none" stroke="#bfbfbf" points="77.5,-199 77.5,-256 169.5,-256 169.5,-199 77.5,-199"/>
<text text-anchor="middle" x="123.5" y="-244" font-family="Helvetica,sans-Serif" font-size="10.00">static QSurface *</text>
<polyline fill="none" stroke="#bfbfbf" points="77.5,-237 169.5,-237 "/>
<text text-anchor="middle" x="123.5" y="-225" font-family="Helvetica,sans-Serif" font-size="10.00"> </text>
<polyline fill="none" stroke="#bfbfbf" points="77.5,-218 169.5,-218 "/>
<text text-anchor="middle" x="123.5" y="-206" font-family="Helvetica,sans-Serif" font-size="10.00"> </text>
</g>
<!-- Node3&#45;&gt;Node1 -->
<g id="edge2" class="edge"><title>Node3&#45;&gt;Node1</title>
<path fill="none" stroke="#404040" d="M135.09,-198.883C140.162,-186.796 146.409,-171.911 152.801,-156.681"/>
<polygon fill="none" stroke="#404040" points="152.822,-156.631 151.456,-149.55 157.466,-145.566 158.832,-152.646 152.822,-156.631"/>
<text text-anchor="middle" x="169.5" y="-167" font-family="Helvetica,sans-Serif" font-size="10.00"> +surface</text>
</g>
<!-- Node4 -->
<g id="node4" class="node"><title>Node4</title>
<polygon fill="none" stroke="#bfbfbf" points="187.5,-199 187.5,-256 315.5,-256 315.5,-199 187.5,-199"/>
<text text-anchor="middle" x="251.5" y="-244" font-family="Helvetica,sans-Serif" font-size="10.00">static QOpenGLContext *</text>
<polyline fill="none" stroke="#bfbfbf" points="187.5,-237 315.5,-237 "/>
<text text-anchor="middle" x="251.5" y="-225" font-family="Helvetica,sans-Serif" font-size="10.00"> </text>
<polyline fill="none" stroke="#bfbfbf" points="187.5,-218 315.5,-218 "/>
<text text-anchor="middle" x="251.5" y="-206" font-family="Helvetica,sans-Serif" font-size="10.00"> </text>
</g>
<!-- Node4&#45;&gt;Node1 -->
<g id="edge3" class="edge"><title>Node4&#45;&gt;Node1</title>
<path fill="none" stroke="#404040" d="M239.91,-198.883C234.838,-186.796 228.591,-171.911 222.199,-156.681"/>
<polygon fill="none" stroke="#404040" points="222.178,-156.631 216.168,-152.646 217.534,-145.566 223.544,-149.55 222.178,-156.631"/>
<text text-anchor="middle" x="250.5" y="-167" font-family="Helvetica,sans-Serif" font-size="10.00"> +context</text>
</g>
<!-- Node5 -->
<g id="node5" class="node"><title>Node5</title>
<polygon fill="none" stroke="#bfbfbf" points="333.5,-193.5 333.5,-261.5 463.5,-261.5 463.5,-193.5 333.5,-193.5"/>
<text text-anchor="start" x="341.5" y="-249.5" font-family="Helvetica,sans-Serif" font-size="10.00">static QOpenGLFunctions</text>
<text text-anchor="middle" x="398.5" y="-238.5" font-family="Helvetica,sans-Serif" font-size="10.00">_4_2_Core *</text>
<polyline fill="none" stroke="#bfbfbf" points="333.5,-231.5 463.5,-231.5 "/>
<text text-anchor="middle" x="398.5" y="-219.5" font-family="Helvetica,sans-Serif" font-size="10.00"> </text>
<polyline fill="none" stroke="#bfbfbf" points="333.5,-212.5 463.5,-212.5 "/>
<text text-anchor="middle" x="398.5" y="-200.5" font-family="Helvetica,sans-Serif" font-size="10.00"> </text>
</g>
<!-- Node5&#45;&gt;Node1 -->
<g id="edge4" class="edge"><title>Node5&#45;&gt;Node1</title>
<path fill="none" stroke="#404040" d="M352.716,-193.41C323.608,-172.372 285.457,-144.798 253.15,-121.449"/>
<polygon fill="none" stroke="#404040" points="253.054,-121.379 245.848,-121.106 243.328,-114.35 250.534,-114.622 253.054,-121.379"/>
<text text-anchor="middle" x="348" y="-167" font-family="Helvetica,sans-Serif" font-size="10.00"> +m_funcs</text>
</g>
</g>
</svg>
