<?xml version="1.0" encoding="UTF-8" standalone="no"?>
<!DOCTYPE svg PUBLIC "-//W3C//DTD SVG 1.1//EN"
 "http://www.w3.org/Graphics/SVG/1.1/DTD/svg11.dtd">
<!-- Generated by graphviz version 2.38.0 (20140413.2041)
 -->
<!-- Title: WorldParticles::Engine::TextureLibrary Pages: 1 -->
<svg width="244pt" height="602pt"
 viewBox="0.00 0.00 243.50 602.00" xmlns="http://www.w3.org/2000/svg" xmlns:xlink="http://www.w3.org/1999/xlink">
<g id="graph0" class="graph" transform="scale(1 1) rotate(0) translate(4 598)">
<title>WorldParticles::Engine::TextureLibrary</title>
<!-- Node1 -->
<g id="node1" class="node"><title>Node1</title>
<polygon fill="#bfbfbf" stroke="black" points="42.5,-0.5 42.5,-134.5 158.5,-134.5 158.5,-0.5 42.5,-0.5"/>
<text text-anchor="start" x="50.5" y="-122.5" font-family="Helvetica,sans-Serif" font-size="10.00">WorldParticles::Engine</text>
<text text-anchor="middle" x="100.5" y="-111.5" font-family="Helvetica,sans-Serif" font-size="10.00">::TextureLibrary</text>
<polyline fill="none" stroke="black" points="42.5,-104.5 158.5,-104.5 "/>
<text text-anchor="middle" x="100.5" y="-92.5" font-family="Helvetica,sans-Serif" font-size="10.00"> </text>
<polyline fill="none" stroke="black" points="42.5,-85.5 158.5,-85.5 "/>
<text text-anchor="start" x="50.5" y="-73.5" font-family="Helvetica,sans-Serif" font-size="10.00">+ TextureLibrary()</text>
<text text-anchor="start" x="50.5" y="-62.5" font-family="Helvetica,sans-Serif" font-size="10.00">+ TextureLibrary()</text>
<text text-anchor="start" x="50.5" y="-51.5" font-family="Helvetica,sans-Serif" font-size="10.00">+ TextureLibrary()</text>
<text text-anchor="start" x="50.5" y="-40.5" font-family="Helvetica,sans-Serif" font-size="10.00">+ TextureLibrary()</text>
<text text-anchor="start" x="50.5" y="-29.5" font-family="Helvetica,sans-Serif" font-size="10.00">+ ~TextureLibrary()</text>
<text text-anchor="start" x="50.5" y="-18.5" font-family="Helvetica,sans-Serif" font-size="10.00">+ operator=()</text>
<text text-anchor="start" x="50.5" y="-7.5" font-family="Helvetica,sans-Serif" font-size="10.00">+ operator=()</text>
</g>
<!-- Node2 -->
<g id="node2" class="node"><title>Node2</title>
<g id="a_node2"><a xlink:href="../../d6/da4/classWorldParticles_1_1Engine_1_1Library.html" target="_top" xlink:title="{WorldParticles::Engine\l::Library\&lt; Texture * \&gt;\n||+ Library()\l+ Library()\l+ Library()\l+ ~Library()\l+ operator=()\l+ operator=()\l+ get()\l}">
<polygon fill="none" stroke="black" points="42.5,-172.5 42.5,-306.5 158.5,-306.5 158.5,-172.5 42.5,-172.5"/>
<text text-anchor="start" x="50.5" y="-294.5" font-family="Helvetica,sans-Serif" font-size="10.00">WorldParticles::Engine</text>
<text text-anchor="middle" x="100.5" y="-283.5" font-family="Helvetica,sans-Serif" font-size="10.00">::Library&lt; Texture * &gt;</text>
<polyline fill="none" stroke="black" points="42.5,-276.5 158.5,-276.5 "/>
<text text-anchor="middle" x="100.5" y="-264.5" font-family="Helvetica,sans-Serif" font-size="10.00"> </text>
<polyline fill="none" stroke="black" points="42.5,-257.5 158.5,-257.5 "/>
<text text-anchor="start" x="50.5" y="-245.5" font-family="Helvetica,sans-Serif" font-size="10.00">+ Library()</text>
<text text-anchor="start" x="50.5" y="-234.5" font-family="Helvetica,sans-Serif" font-size="10.00">+ Library()</text>
<text text-anchor="start" x="50.5" y="-223.5" font-family="Helvetica,sans-Serif" font-size="10.00">+ Library()</text>
<text text-anchor="start" x="50.5" y="-212.5" font-family="Helvetica,sans-Serif" font-size="10.00">+ ~Library()</text>
<text text-anchor="start" x="50.5" y="-201.5" font-family="Helvetica,sans-Serif" font-size="10.00">+ operator=()</text>
<text text-anchor="start" x="50.5" y="-190.5" font-family="Helvetica,sans-Serif" font-size="10.00">+ operator=()</text>
<text text-anchor="start" x="50.5" y="-179.5" font-family="Helvetica,sans-Serif" font-size="10.00">+ get()</text>
</a>
</g>
</g>
<!-- Node2&#45;&gt;Node1 -->
<g id="edge1" class="edge"><title>Node2&#45;&gt;Node1</title>
<path fill="none" stroke="midnightblue" d="M100.5,-162.013C100.5,-152.842 100.5,-143.537 100.5,-134.533"/>
<polygon fill="none" stroke="midnightblue" points="97.0001,-162.287 100.5,-172.287 104,-162.287 97.0001,-162.287"/>
</g>
<!-- Node3 -->
<g id="node3" class="node"><title>Node3</title>
<g id="a_node3"><a xlink:href="../../d7/d79/classstd_1_1vector_3_01Texture_01_5_01_4.html" target="_top" xlink:title="{vector\&lt; Texture * \&gt;\n||}">
<polygon fill="none" stroke="black" points="0,-393 0,-450 101,-450 101,-393 0,-393"/>
<text text-anchor="middle" x="50.5" y="-438" font-family="Helvetica,sans-Serif" font-size="10.00">vector&lt; Texture * &gt;</text>
<polyline fill="none" stroke="black" points="0,-431 101,-431 "/>
<text text-anchor="middle" x="50.5" y="-419" font-family="Helvetica,sans-Serif" font-size="10.00"> </text>
<polyline fill="none" stroke="black" points="0,-412 101,-412 "/>
<text text-anchor="middle" x="50.5" y="-400" font-family="Helvetica,sans-Serif" font-size="10.00"> </text>
</a>
</g>
</g>
<!-- Node3&#45;&gt;Node2 -->
<g id="edge2" class="edge"><title>Node3&#45;&gt;Node2</title>
<path fill="none" stroke="#404040" d="M58.2029,-392.769C63.739,-372.84 71.4945,-344.92 78.855,-318.422"/>
<polygon fill="none" stroke="#404040" points="78.8764,-318.345 76.6282,-311.493 82.0882,-306.782 84.3364,-313.634 78.8764,-318.345"/>
<text text-anchor="middle" x="103.5" y="-328" font-family="Helvetica,sans-Serif" font-size="10.00"> #resources</text>
</g>
<!-- Node4 -->
<g id="node4" class="node"><title>Node4</title>
<g id="a_node4"><a xlink:href="../../d6/da4/classWorldParticles_1_1Engine_1_1Library.html" target="_top" xlink:title="{WorldParticles::Engine\l::Library\&lt; T \&gt;\n||+ Library()\l+ Library()\l+ Library()\l+ ~Library()\l+ operator=()\l+ operator=()\l+ get()\l}">
<polygon fill="none" stroke="black" points="119.5,-354.5 119.5,-488.5 235.5,-488.5 235.5,-354.5 119.5,-354.5"/>
<text text-anchor="start" x="127.5" y="-476.5" font-family="Helvetica,sans-Serif" font-size="10.00">WorldParticles::Engine</text>
<text text-anchor="middle" x="177.5" y="-465.5" font-family="Helvetica,sans-Serif" font-size="10.00">::Library&lt; T &gt;</text>
<polyline fill="none" stroke="black" points="119.5,-458.5 235.5,-458.5 "/>
<text text-anchor="middle" x="177.5" y="-446.5" font-family="Helvetica,sans-Serif" font-size="10.00"> </text>
<polyline fill="none" stroke="black" points="119.5,-439.5 235.5,-439.5 "/>
<text text-anchor="start" x="127.5" y="-427.5" font-family="Helvetica,sans-Serif" font-size="10.00">+ Library()</text>
<text text-anchor="start" x="127.5" y="-416.5" font-family="Helvetica,sans-Serif" font-size="10.00">+ Library()</text>
<text text-anchor="start" x="127.5" y="-405.5" font-family="Helvetica,sans-Serif" font-size="10.00">+ Library()</text>
<text text-anchor="start" x="127.5" y="-394.5" font-family="Helvetica,sans-Serif" font-size="10.00">+ ~Library()</text>
<text text-anchor="start" x="127.5" y="-383.5" font-family="Helvetica,sans-Serif" font-size="10.00">+ operator=()</text>
<text text-anchor="start" x="127.5" y="-372.5" font-family="Helvetica,sans-Serif" font-size="10.00">+ operator=()</text>
<text text-anchor="start" x="127.5" y="-361.5" font-family="Helvetica,sans-Serif" font-size="10.00">+ get()</text>
</a>
</g>
</g>
<!-- Node4&#45;&gt;Node2 -->
<g id="edge3" class="edge"><title>Node4&#45;&gt;Node2</title>
<path fill="none" stroke="orange" d="M145.323,-345.281C139.858,-332.506 134.218,-319.321 128.86,-306.796"/>
<polygon fill="orange" stroke="orange" points="142.114,-346.679 149.265,-354.497 148.55,-343.926 142.114,-346.679"/>
<text text-anchor="middle" x="171" y="-328" font-family="Helvetica,sans-Serif" font-size="10.00"> &lt; Texture * &gt;</text>
</g>
<!-- Node5 -->
<g id="node5" class="node"><title>Node5</title>
<polygon fill="none" stroke="#bfbfbf" points="143.5,-536.5 143.5,-593.5 211.5,-593.5 211.5,-536.5 143.5,-536.5"/>
<text text-anchor="middle" x="177.5" y="-581.5" font-family="Helvetica,sans-Serif" font-size="10.00">vector&lt; T &gt;</text>
<polyline fill="none" stroke="#bfbfbf" points="143.5,-574.5 211.5,-574.5 "/>
<text text-anchor="middle" x="177.5" y="-562.5" font-family="Helvetica,sans-Serif" font-size="10.00"> </text>
<polyline fill="none" stroke="#bfbfbf" points="143.5,-555.5 211.5,-555.5 "/>
<text text-anchor="middle" x="177.5" y="-543.5" font-family="Helvetica,sans-Serif" font-size="10.00"> </text>
</g>
<!-- Node5&#45;&gt;Node4 -->
<g id="edge4" class="edge"><title>Node5&#45;&gt;Node4</title>
<path fill="none" stroke="#404040" d="M177.5,-536.381C177.5,-526.02 177.5,-513.663 177.5,-500.97"/>
<polygon fill="none" stroke="#404040" points="177.5,-500.753 173.5,-494.753 177.5,-488.753 181.5,-494.753 177.5,-500.753"/>
<text text-anchor="middle" x="203.5" y="-510" font-family="Helvetica,sans-Serif" font-size="10.00"> #resources</text>
</g>
</g>
</svg>
