<?xml version="1.0" encoding="UTF-8" standalone="no"?>
<!DOCTYPE svg PUBLIC "-//W3C//DTD SVG 1.1//EN"
 "http://www.w3.org/Graphics/SVG/1.1/DTD/svg11.dtd">
<!-- Generated by graphviz version 2.38.0 (20140413.2041)
 -->
<!-- Title: WorldParticles::Engine::ShaderManager Pages: 1 -->
<svg width="149pt" height="204pt"
 viewBox="0.00 0.00 149.00 204.00" xmlns="http://www.w3.org/2000/svg" xmlns:xlink="http://www.w3.org/1999/xlink">
<g id="graph0" class="graph" transform="scale(1 1) rotate(0) translate(4 200)">
<title>WorldParticles::Engine::ShaderManager</title>
<!-- Node1 -->
<g id="node1" class="node"><title>Node1</title>
<polygon fill="#bfbfbf" stroke="black" points="12.5,-0.5 12.5,-68.5 128.5,-68.5 128.5,-0.5 12.5,-0.5"/>
<text text-anchor="start" x="20.5" y="-56.5" font-family="Helvetica,sans-Serif" font-size="10.00">WorldParticles::Engine</text>
<text text-anchor="middle" x="70.5" y="-45.5" font-family="Helvetica,sans-Serif" font-size="10.00">::ShaderManager</text>
<polyline fill="none" stroke="black" points="12.5,-38.5 128.5,-38.5 "/>
<text text-anchor="middle" x="70.5" y="-26.5" font-family="Helvetica,sans-Serif" font-size="10.00"> </text>
<polyline fill="none" stroke="black" points="12.5,-19.5 128.5,-19.5 "/>
<text text-anchor="start" x="20.5" y="-7.5" font-family="Helvetica,sans-Serif" font-size="10.00">+ Get()</text>
</g>
<!-- Node2 -->
<g id="node2" class="node"><title>Node2</title>
<polygon fill="none" stroke="#bfbfbf" points="0,-116.5 0,-195.5 141,-195.5 141,-116.5 0,-116.5"/>
<text text-anchor="start" x="8" y="-183.5" font-family="Helvetica,sans-Serif" font-size="10.00">map&lt; ShaderName, std</text>
<text text-anchor="start" x="8" y="-172.5" font-family="Helvetica,sans-Serif" font-size="10.00">::shared_ptr&lt; WorldParticles</text>
<text text-anchor="middle" x="70.5" y="-161.5" font-family="Helvetica,sans-Serif" font-size="10.00">::Engine::Shader &gt; &gt;</text>
<polyline fill="none" stroke="#bfbfbf" points="0,-154.5 141,-154.5 "/>
<text text-anchor="middle" x="70.5" y="-142.5" font-family="Helvetica,sans-Serif" font-size="10.00"> </text>
<polyline fill="none" stroke="#bfbfbf" points="0,-135.5 141,-135.5 "/>
<text text-anchor="middle" x="70.5" y="-123.5" font-family="Helvetica,sans-Serif" font-size="10.00"> </text>
</g>
<!-- Node2&#45;&gt;Node1 -->
<g id="edge1" class="edge"><title>Node2&#45;&gt;Node1</title>
<path fill="none" stroke="#404040" d="M70.5,-116.202C70.5,-104.991 70.5,-92.6534 70.5,-81.0704"/>
<polygon fill="none" stroke="#404040" points="70.5001,-80.8867 66.5,-74.8867 70.5,-68.8867 74.5,-74.8867 70.5001,-80.8867"/>
<text text-anchor="middle" x="95" y="-90" font-family="Helvetica,sans-Serif" font-size="10.00"> #_shaders</text>
</g>
</g>
</svg>
