<?xml version="1.0" encoding="UTF-8" standalone="no"?>
<!DOCTYPE svg PUBLIC "-//W3C//DTD SVG 1.1//EN"
 "http://www.w3.org/Graphics/SVG/1.1/DTD/svg11.dtd">
<!-- Generated by graphviz version 2.38.0 (20140413.2041)
 -->
<!-- Title: engine/Object/Object.hpp Pages: 1 -->
<svg width="221pt" height="140pt"
 viewBox="0.00 0.00 221.00 140.00" xmlns="http://www.w3.org/2000/svg" xmlns:xlink="http://www.w3.org/1999/xlink">
<g id="graph0" class="graph" transform="scale(1 1) rotate(0) translate(4 136)">
<title>engine/Object/Object.hpp</title>
<!-- Node1 -->
<g id="node1" class="node"><title>Node1</title>
<polygon fill="#bfbfbf" stroke="black" points="27,-112.5 27,-131.5 154,-131.5 154,-112.5 27,-112.5"/>
<text text-anchor="middle" x="90.5" y="-119.5" font-family="Helvetica,sans-Serif" font-size="10.00">engine/Object/Object.hpp</text>
</g>
<!-- Node2 -->
<g id="node2" class="node"><title>Node2</title>
<polygon fill="none" stroke="#bfbfbf" points="-1.77636e-15,-56.5 -1.77636e-15,-75.5 29,-75.5 29,-56.5 -1.77636e-15,-56.5"/>
<text text-anchor="middle" x="14.5" y="-63.5" font-family="Helvetica,sans-Serif" font-size="10.00">list</text>
</g>
<!-- Node1&#45;&gt;Node2 -->
<g id="edge1" class="edge"><title>Node1&#45;&gt;Node2</title>
<path fill="none" stroke="midnightblue" d="M78.2893,-112.324C66.7241,-104.107 49.1246,-91.6017 35.3393,-81.8069"/>
<polygon fill="midnightblue" stroke="midnightblue" points="37.112,-78.7729 26.9329,-75.8339 33.0575,-84.4791 37.112,-78.7729"/>
</g>
<!-- Node3 -->
<g id="node3" class="node"><title>Node3</title>
<polygon fill="none" stroke="#bfbfbf" points="47.5,-56.5 47.5,-75.5 133.5,-75.5 133.5,-56.5 47.5,-56.5"/>
<text text-anchor="middle" x="90.5" y="-63.5" font-family="Helvetica,sans-Serif" font-size="10.00">assimp/scene.h</text>
</g>
<!-- Node1&#45;&gt;Node3 -->
<g id="edge2" class="edge"><title>Node1&#45;&gt;Node3</title>
<path fill="none" stroke="midnightblue" d="M90.5,-112.083C90.5,-105.006 90.5,-94.8611 90.5,-85.9865"/>
<polygon fill="midnightblue" stroke="midnightblue" points="94.0001,-85.751 90.5,-75.7511 87.0001,-85.7511 94.0001,-85.751"/>
</g>
<!-- Node4 -->
<g id="node4" class="node"><title>Node4</title>
<g id="a_node4"><a xlink:href="../../de/da6/Entity_8hpp.html" target="_top" xlink:title="Entity.hpp">
<polygon fill="none" stroke="black" points="152,-56.5 152,-75.5 213,-75.5 213,-56.5 152,-56.5"/>
<text text-anchor="middle" x="182.5" y="-63.5" font-family="Helvetica,sans-Serif" font-size="10.00">Entity.hpp</text>
</a>
</g>
</g>
<!-- Node1&#45;&gt;Node4 -->
<g id="edge3" class="edge"><title>Node1&#45;&gt;Node4</title>
<path fill="none" stroke="midnightblue" d="M105.281,-112.324C119.767,-103.822 142.073,-90.7288 158.993,-80.7975"/>
<polygon fill="midnightblue" stroke="midnightblue" points="160.903,-83.735 167.755,-75.6545 157.359,-77.6981 160.903,-83.735"/>
</g>
<!-- Node5 -->
<g id="node5" class="node"><title>Node5</title>
<polygon fill="none" stroke="#bfbfbf" points="162,-0.5 162,-19.5 203,-19.5 203,-0.5 162,-0.5"/>
<text text-anchor="middle" x="182.5" y="-7.5" font-family="Helvetica,sans-Serif" font-size="10.00">string</text>
</g>
<!-- Node4&#45;&gt;Node5 -->
<g id="edge4" class="edge"><title>Node4&#45;&gt;Node5</title>
<path fill="none" stroke="midnightblue" d="M182.5,-56.083C182.5,-49.0059 182.5,-38.8611 182.5,-29.9865"/>
<polygon fill="midnightblue" stroke="midnightblue" points="186,-29.751 182.5,-19.7511 179,-29.7511 186,-29.751"/>
</g>
</g>
</svg>
