<?xml version="1.0" encoding="UTF-8" standalone="no"?>
<!DOCTYPE svg PUBLIC "-//W3C//DTD SVG 1.1//EN"
 "http://www.w3.org/Graphics/SVG/1.1/DTD/svg11.dtd">
<!-- Generated by graphviz version 2.38.0 (20140413.2041)
 -->
<!-- Title: window/glwindow.hpp Pages: 1 -->
<!--zoomable 151 -->
<svg id="main" version="1.1" xmlns="http://www.w3.org/2000/svg" xmlns:xlink="http://www.w3.org/1999/xlink" xml:space="preserve" onload="init(evt)">
<style type="text/css"><![CDATA[
.edge:hover path { stroke: red; }
.edge:hover polygon { stroke: red; fill: red; }
]]></style>
<script type="text/javascript"><![CDATA[
var edges = document.getElementsByTagName('g');
if (edges && edges.length) {
  for (var i=0;i<edges.length;i++) {
    if (edges[i].id.substr(0,4)=='edge') {
      edges[i].setAttribute('class','edge');
    }
  }
}
]]></script>
        <defs>
                <circle id="rim" cx="0" cy="0" r="7"/>
                <circle id="rim2" cx="0" cy="0" r="3.5"/>
                <g id="zoomPlus">
                        <use xlink:href="#rim" fill="#404040">
                                <set attributeName="fill" to="#808080" begin="zoomplus.mouseover" end="zoomplus.mouseout"/>
                        </use>
                        <path d="M-4,0h8M0,-4v8" fill="none" stroke="white" stroke-width="1.5" pointer-events="none"/>
                </g>
                <g id="zoomMin">
                        <use xlink:href="#rim" fill="#404040">
                                <set attributeName="fill" to="#808080" begin="zoomminus.mouseover" end="zoomminus.mouseout"/>
                        </use>
                        <path d="M-4,0h8" fill="none" stroke="white" stroke-width="1.5" pointer-events="none"/>
                </g>
                <g id="dirArrow">
                        <path fill="none" stroke="white" stroke-width="1.5" d="M0,-3.0v7 M-2.5,-0.5L0,-3.0L2.5,-0.5"/>
                </g>
               <g id="resetDef">
                       <use xlink:href="#rim2" fill="#404040">
                               <set attributeName="fill" to="#808080" begin="reset.mouseover" end="reset.mouseout"/>
                       </use>
               </g>
        </defs>

<script type="text/javascript">
var viewWidth = 1145;
var viewHeight = 151;
var sectionId = 'dynsection-1';
</script>
<script xlink:href="../../svgpan.js"/>
<svg id="graph" class="graph">
<g id="viewport">
<title>window/glwindow.hpp</title>
<!-- Node1 -->
<g id="node1" class="node"><title>Node1</title>
<polygon fill="#bfbfbf" stroke="black" points="474,-123.5 474,-142.5 586,-142.5 586,-123.5 474,-123.5"/>
<text text-anchor="middle" x="530" y="-130.5" font-family="Helvetica,sans-Serif" font-size="10.00">window/glwindow.hpp</text>
</g>
<!-- Node2 -->
<g id="node2" class="node"><title>Node2</title>
<g id="a_node2"><a xlink:href="../../d8/d49/ArrayObject_8cpp.html" target="_top" xlink:title="engine/ArrayObject\l/ArrayObject.cpp">
<polygon fill="none" stroke="black" points="0,-56.5 0,-86.5 100,-86.5 100,-56.5 0,-56.5"/>
<text text-anchor="start" x="8" y="-74.5" font-family="Helvetica,sans-Serif" font-size="10.00">engine/ArrayObject</text>
<text text-anchor="middle" x="50" y="-63.5" font-family="Helvetica,sans-Serif" font-size="10.00">/ArrayObject.cpp</text>
</a>
</g>
</g>
<!-- Node1&#45;&gt;Node2 -->
<g id="edge1" class="edge"><title>Node1&#45;&gt;Node2</title>
<path fill="none" stroke="midnightblue" d="M463.915,-127.597C380.865,-121.45 234.154,-108.558 110,-87 106.832,-86.45 103.583,-85.8297 100.315,-85.1633"/>
<polygon fill="midnightblue" stroke="midnightblue" points="463.74,-131.093 473.968,-128.331 464.25,-124.112 463.74,-131.093"/>
</g>
<!-- Node3 -->
<g id="node3" class="node"><title>Node3</title>
<g id="a_node3"><a xlink:href="../../db/d2b/BufferObject_8cpp.html" target="_top" xlink:title="engine/BufferObject\l/BufferObject.cpp">
<polygon fill="none" stroke="black" points="118.5,-56.5 118.5,-86.5 221.5,-86.5 221.5,-56.5 118.5,-56.5"/>
<text text-anchor="start" x="126.5" y="-74.5" font-family="Helvetica,sans-Serif" font-size="10.00">engine/BufferObject</text>
<text text-anchor="middle" x="170" y="-63.5" font-family="Helvetica,sans-Serif" font-size="10.00">/BufferObject.cpp</text>
</a>
</g>
</g>
<!-- Node1&#45;&gt;Node3 -->
<g id="edge2" class="edge"><title>Node1&#45;&gt;Node3</title>
<path fill="none" stroke="midnightblue" d="M463.604,-123.635C402.831,-115.593 310.531,-102.409 231,-87 227.901,-86.3996 224.721,-85.7491 221.519,-85.0676"/>
<polygon fill="midnightblue" stroke="midnightblue" points="463.455,-127.145 473.826,-124.979 464.367,-120.205 463.455,-127.145"/>
</g>
<!-- Node4 -->
<g id="node4" class="node"><title>Node4</title>
<g id="a_node4"><a xlink:href="../../d2/dcc/Mesh_8cpp.html" target="_top" xlink:title="engine/Mesh/Mesh.cpp">
<polygon fill="none" stroke="black" points="240,-62 240,-81 358,-81 358,-62 240,-62"/>
<text text-anchor="middle" x="299" y="-69" font-family="Helvetica,sans-Serif" font-size="10.00">engine/Mesh/Mesh.cpp</text>
</a>
</g>
</g>
<!-- Node1&#45;&gt;Node4 -->
<g id="edge3" class="edge"><title>Node1&#45;&gt;Node4</title>
<path fill="none" stroke="midnightblue" d="M487.172,-120.968C442.316,-109.415 372.832,-91.5173 332.035,-81.0091"/>
<polygon fill="midnightblue" stroke="midnightblue" points="486.346,-124.37 496.903,-123.475 488.092,-117.591 486.346,-124.37"/>
</g>
<!-- Node5 -->
<g id="node5" class="node"><title>Node5</title>
<g id="a_node5"><a xlink:href="../../d3/d28/Renderer_8cpp.html" target="_top" xlink:title="engine/Renderer/Renderer.cpp">
<polygon fill="none" stroke="black" points="376.5,-62 376.5,-81 525.5,-81 525.5,-62 376.5,-62"/>
<text text-anchor="middle" x="451" y="-69" font-family="Helvetica,sans-Serif" font-size="10.00">engine/Renderer/Renderer.cpp</text>
</a>
</g>
</g>
<!-- Node1&#45;&gt;Node5 -->
<g id="edge4" class="edge"><title>Node1&#45;&gt;Node5</title>
<path fill="none" stroke="midnightblue" d="M510.474,-117.294C495.32,-105.88 474.843,-90.4577 462.298,-81.0091"/>
<polygon fill="midnightblue" stroke="midnightblue" points="508.588,-120.255 518.681,-123.475 512.799,-114.663 508.588,-120.255"/>
</g>
<!-- Node6 -->
<g id="node6" class="node"><title>Node6</title>
<g id="a_node6"><a xlink:href="../../dd/d84/Shader_8cpp.html" target="_top" xlink:title="engine/Shader/Shader.cpp">
<polygon fill="none" stroke="black" points="543.5,-62 543.5,-81 674.5,-81 674.5,-62 543.5,-62"/>
<text text-anchor="middle" x="609" y="-69" font-family="Helvetica,sans-Serif" font-size="10.00">engine/Shader/Shader.cpp</text>
</a>
</g>
</g>
<!-- Node1&#45;&gt;Node6 -->
<g id="edge5" class="edge"><title>Node1&#45;&gt;Node6</title>
<path fill="none" stroke="midnightblue" d="M549.526,-117.294C564.68,-105.88 585.157,-90.4577 597.702,-81.0091"/>
<polygon fill="midnightblue" stroke="midnightblue" points="547.201,-114.663 541.319,-123.475 551.412,-120.255 547.201,-114.663"/>
</g>
<!-- Node7 -->
<g id="node7" class="node"><title>Node7</title>
<g id="a_node7"><a xlink:href="../../de/d34/ShaderProgram_8cpp.html" target="_top" xlink:title="engine/ShaderProgram\l/ShaderProgram.cpp">
<polygon fill="none" stroke="black" points="693,-56.5 693,-86.5 809,-86.5 809,-56.5 693,-56.5"/>
<text text-anchor="start" x="701" y="-74.5" font-family="Helvetica,sans-Serif" font-size="10.00">engine/ShaderProgram</text>
<text text-anchor="middle" x="751" y="-63.5" font-family="Helvetica,sans-Serif" font-size="10.00">/ShaderProgram.cpp</text>
</a>
</g>
</g>
<!-- Node1&#45;&gt;Node7 -->
<g id="edge6" class="edge"><title>Node1&#45;&gt;Node7</title>
<path fill="none" stroke="midnightblue" d="M571.381,-120.859C607.464,-111.144 659.98,-97.0055 698.915,-86.523"/>
<polygon fill="midnightblue" stroke="midnightblue" points="570.41,-117.496 561.664,-123.475 572.23,-124.255 570.41,-117.496"/>
</g>
<!-- Node8 -->
<g id="node8" class="node"><title>Node8</title>
<g id="a_node8"><a xlink:href="../../d3/d1f/glwindow_8cpp.html" target="_top" xlink:title="window/glwindow.cpp">
<polygon fill="none" stroke="black" points="827,-62 827,-81 939,-81 939,-62 827,-62"/>
<text text-anchor="middle" x="883" y="-69" font-family="Helvetica,sans-Serif" font-size="10.00">window/glwindow.cpp</text>
</a>
</g>
</g>
<!-- Node1&#45;&gt;Node8 -->
<g id="edge7" class="edge"><title>Node1&#45;&gt;Node8</title>
<path fill="none" stroke="midnightblue" d="M596.42,-122.863C654.928,-114.519 742.364,-101.33 818,-87 827.315,-85.2351 837.332,-83.1132 846.645,-81.044"/>
<polygon fill="midnightblue" stroke="midnightblue" points="595.612,-119.442 586.203,-124.312 596.596,-126.373 595.612,-119.442"/>
</g>
<!-- Node9 -->
<g id="node9" class="node"><title>Node9</title>
<g id="a_node9"><a xlink:href="../../df/d50/mainwindow_8hpp.html" target="_top" xlink:title="window/mainwindow.hpp">
<polygon fill="none" stroke="black" points="957.5,-62 957.5,-81 1082.5,-81 1082.5,-62 957.5,-62"/>
<text text-anchor="middle" x="1020" y="-69" font-family="Helvetica,sans-Serif" font-size="10.00">window/mainwindow.hpp</text>
</a>
</g>
</g>
<!-- Node1&#45;&gt;Node9 -->
<g id="edge8" class="edge"><title>Node1&#45;&gt;Node9</title>
<path fill="none" stroke="midnightblue" d="M596.337,-126.745C678.983,-119.765 824.392,-106.059 948,-87 958.712,-85.3483 970.248,-83.1949 980.88,-81.0551"/>
<polygon fill="midnightblue" stroke="midnightblue" points="596.002,-123.261 586.329,-127.583 596.586,-130.236 596.002,-123.261"/>
</g>
<!-- Node10 -->
<g id="node10" class="node"><title>Node10</title>
<g id="a_node10"><a xlink:href="../../df/d0a/main_8cpp.html" target="_top" xlink:title="TODO. ">
<polygon fill="none" stroke="black" points="938,-0.5 938,-19.5 994,-19.5 994,-0.5 938,-0.5"/>
<text text-anchor="middle" x="966" y="-7.5" font-family="Helvetica,sans-Serif" font-size="10.00">main.cpp</text>
</a>
</g>
</g>
<!-- Node9&#45;&gt;Node10 -->
<g id="edge9" class="edge"><title>Node9&#45;&gt;Node10</title>
<path fill="none" stroke="midnightblue" d="M1005.48,-54.4975C995.256,-43.2356 981.977,-28.6044 973.723,-19.5091"/>
<polygon fill="midnightblue" stroke="midnightblue" points="1002.95,-56.9222 1012.26,-61.9751 1008.13,-52.2178 1002.95,-56.9222"/>
</g>
<!-- Node11 -->
<g id="node11" class="node"><title>Node11</title>
<g id="a_node11"><a xlink:href="../../d8/dd9/mainwindow_8cpp.html" target="_top" xlink:title="window/mainwindow.cpp">
<polygon fill="none" stroke="black" points="1011.5,-0.5 1011.5,-19.5 1136.5,-19.5 1136.5,-0.5 1011.5,-0.5"/>
<text text-anchor="middle" x="1074" y="-7.5" font-family="Helvetica,sans-Serif" font-size="10.00">window/mainwindow.cpp</text>
</a>
</g>
</g>
<!-- Node9&#45;&gt;Node11 -->
<g id="edge10" class="edge"><title>Node9&#45;&gt;Node11</title>
<path fill="none" stroke="midnightblue" d="M1034.52,-54.4975C1044.74,-43.2356 1058.02,-28.6044 1066.28,-19.5091"/>
<polygon fill="midnightblue" stroke="midnightblue" points="1031.87,-52.2178 1027.74,-61.9751 1037.05,-56.9222 1031.87,-52.2178"/>
</g>
</g>
</svg>
        <g id="navigator" transform="translate(0 0)" fill="#404254">
                <rect fill="#f2f5e9" fill-opacity="0.5" stroke="#606060" stroke-width=".5" x="0" y="0" width="60" height="60"/>
                <use id="zoomplus" xlink:href="#zoomPlus" x="17" y="9" onmousedown="handleZoom(evt,'in')"/>
                <use id="zoomminus" xlink:href="#zoomMin" x="42" y="9" onmousedown="handleZoom(evt,'out')"/>
                <use id="reset" xlink:href="#resetDef" x="30" y="36" onmousedown="handleReset()"/>
                <g id="arrowUp" xlink:href="#dirArrow" transform="translate(30 24)" onmousedown="handlePan(0,-1)">
                  <use xlink:href="#rim" fill="#404040">
                        <set attributeName="fill" to="#808080" begin="arrowUp.mouseover" end="arrowUp.mouseout"/>
                  </use>
                  <path fill="none" stroke="white" stroke-width="1.5" d="M0,-3.0v7 M-2.5,-0.5L0,-3.0L2.5,-0.5"/>
                </g>
                <g id="arrowRight" xlink:href="#dirArrow" transform="rotate(90) translate(36 -43)" onmousedown="handlePan(1,0)">
                  <use xlink:href="#rim" fill="#404040">
                        <set attributeName="fill" to="#808080" begin="arrowRight.mouseover" end="arrowRight.mouseout"/>
                  </use>
                  <path fill="none" stroke="white" stroke-width="1.5" d="M0,-3.0v7 M-2.5,-0.5L0,-3.0L2.5,-0.5"/>
                </g>
                <g id="arrowDown" xlink:href="#dirArrow" transform="rotate(180) translate(-30 -48)" onmousedown="handlePan(0,1)">
                  <use xlink:href="#rim" fill="#404040">
                        <set attributeName="fill" to="#808080" begin="arrowDown.mouseover" end="arrowDown.mouseout"/>
                  </use>
                  <path fill="none" stroke="white" stroke-width="1.5" d="M0,-3.0v7 M-2.5,-0.5L0,-3.0L2.5,-0.5"/>
                </g>
                <g id="arrowLeft" xlink:href="#dirArrow" transform="rotate(270) translate(-36 17)" onmousedown="handlePan(-1,0)">
                  <use xlink:href="#rim" fill="#404040">
                        <set attributeName="fill" to="#808080" begin="arrowLeft.mouseover" end="arrowLeft.mouseout"/>
                  </use>
                  <path fill="none" stroke="white" stroke-width="1.5" d="M0,-3.0v7 M-2.5,-0.5L0,-3.0L2.5,-0.5"/>
                </g>
        </g>
        <svg viewBox="0 0 15 15" width="100%" height="30px" preserveAspectRatio="xMaxYMin meet">
         <g id="arrow_out" transform="scale(0.3 0.3)">
          <a xlink:href="glwindow_8hpp__dep__incl_org.svg" target="_base">
           <rect id="button" ry="5" rx="5" y="6" x="6" height="38" width="38"
                fill="#f2f5e9" fill-opacity="0.5" stroke="#606060" stroke-width="1.0"/>
           <path id="arrow"
             d="M 11.500037,31.436501 C 11.940474,20.09759 22.043105,11.32322 32.158766,21.979434 L 37.068811,17.246167 C 37.068811,17.246167 37.088388,32 37.088388,32 L 22.160133,31.978069 C 22.160133,31.978069 26.997745,27.140456 26.997745,27.140456 C 18.528582,18.264221 13.291696,25.230495 11.500037,31.436501 z"
             style="fill:#404040;"/>
          </a>
         </g>
        </svg>
</svg>
