<?xml version="1.0" encoding="UTF-8" standalone="no"?>
<!DOCTYPE svg PUBLIC "-//W3C//DTD SVG 1.1//EN"
 "http://www.w3.org/Graphics/SVG/1.1/DTD/svg11.dtd">
<!-- Generated by graphviz version 2.38.0 (20140413.2041)
 -->
<!-- Title: WorldParticles::Engine::Camera Pages: 1 -->
<!--zoomable 496 -->
<svg id="main" version="1.1" xmlns="http://www.w3.org/2000/svg" xmlns:xlink="http://www.w3.org/1999/xlink" xml:space="preserve" onload="init(evt)">
<style type="text/css"><![CDATA[
.edge:hover path { stroke: red; }
.edge:hover polygon { stroke: red; fill: red; }
]]></style>
<script type="text/javascript"><![CDATA[
var edges = document.getElementsByTagName('g');
if (edges && edges.length) {
  for (var i=0;i<edges.length;i++) {
    if (edges[i].id.substr(0,4)=='edge') {
      edges[i].setAttribute('class','edge');
    }
  }
}
]]></script>
        <defs>
                <circle id="rim" cx="0" cy="0" r="7"/>
                <circle id="rim2" cx="0" cy="0" r="3.5"/>
                <g id="zoomPlus">
                        <use xlink:href="#rim" fill="#404040">
                                <set attributeName="fill" to="#808080" begin="zoomplus.mouseover" end="zoomplus.mouseout"/>
                        </use>
                        <path d="M-4,0h8M0,-4v8" fill="none" stroke="white" stroke-width="1.5" pointer-events="none"/>
                </g>
                <g id="zoomMin">
                        <use xlink:href="#rim" fill="#404040">
                                <set attributeName="fill" to="#808080" begin="zoomminus.mouseover" end="zoomminus.mouseout"/>
                        </use>
                        <path d="M-4,0h8" fill="none" stroke="white" stroke-width="1.5" pointer-events="none"/>
                </g>
                <g id="dirArrow">
                        <path fill="none" stroke="white" stroke-width="1.5" d="M0,-3.0v7 M-2.5,-0.5L0,-3.0L2.5,-0.5"/>
                </g>
               <g id="resetDef">
                       <use xlink:href="#rim2" fill="#404040">
                               <set attributeName="fill" to="#808080" begin="reset.mouseover" end="reset.mouseout"/>
                       </use>
               </g>
        </defs>

<script type="text/javascript">
var viewWidth = 261;
var viewHeight = 496;
var sectionId = 'dynsection-0';
</script>
<script xlink:href="../../svgpan.js"/>
<svg id="graph" class="graph">
<g id="viewport">
<title>WorldParticles::Engine::Camera</title>
<!-- Node1 -->
<g id="node1" class="node"><title>Node1</title>
<polygon fill="#bfbfbf" stroke="black" points="71.6361,-0.5 71.6361,-134.5 187.636,-134.5 187.636,-0.5 71.6361,-0.5"/>
<text text-anchor="start" x="79.6361" y="-122.5" font-family="Helvetica,sans-Serif" font-size="10.00">WorldParticles::Engine</text>
<text text-anchor="middle" x="129.636" y="-111.5" font-family="Helvetica,sans-Serif" font-size="10.00">::Camera</text>
<polyline fill="none" stroke="black" points="71.6361,-104.5 187.636,-104.5 "/>
<text text-anchor="middle" x="129.636" y="-92.5" font-family="Helvetica,sans-Serif" font-size="10.00"> </text>
<polyline fill="none" stroke="black" points="71.6361,-85.5 187.636,-85.5 "/>
<text text-anchor="start" x="79.6361" y="-73.5" font-family="Helvetica,sans-Serif" font-size="10.00">+ Camera()</text>
<text text-anchor="start" x="79.6361" y="-62.5" font-family="Helvetica,sans-Serif" font-size="10.00">+ ~Camera()</text>
<text text-anchor="start" x="79.6361" y="-51.5" font-family="Helvetica,sans-Serif" font-size="10.00">+ getProjection()</text>
<text text-anchor="start" x="79.6361" y="-40.5" font-family="Helvetica,sans-Serif" font-size="10.00">+ getView()</text>
<text text-anchor="start" x="79.6361" y="-29.5" font-family="Helvetica,sans-Serif" font-size="10.00">+ initialise()</text>
<text text-anchor="start" x="79.6361" y="-18.5" font-family="Helvetica,sans-Serif" font-size="10.00">+ update()</text>
<text text-anchor="start" x="79.6361" y="-7.5" font-family="Helvetica,sans-Serif" font-size="10.00">+ draw()</text>
</g>
<!-- Node2 -->
<g id="node2" class="node"><title>Node2</title>
<polygon fill="none" stroke="#bfbfbf" points="11.6361,-430.5 11.6361,-487.5 49.6361,-487.5 49.6361,-430.5 11.6361,-430.5"/>
<text text-anchor="middle" x="30.6361" y="-475.5" font-family="Helvetica,sans-Serif" font-size="10.00">mat4</text>
<polyline fill="none" stroke="#bfbfbf" points="11.6361,-468.5 49.6361,-468.5 "/>
<text text-anchor="middle" x="30.6361" y="-456.5" font-family="Helvetica,sans-Serif" font-size="10.00"> </text>
<polyline fill="none" stroke="#bfbfbf" points="11.6361,-449.5 49.6361,-449.5 "/>
<text text-anchor="middle" x="30.6361" y="-437.5" font-family="Helvetica,sans-Serif" font-size="10.00"> </text>
</g>
<!-- Node2&#45;&gt;Node1 -->
<g id="edge1" class="edge"><title>Node2&#45;&gt;Node1</title>
<path fill="none" stroke="#404040" d="M21.7891,-430.262C8.05552,-382.409 -13.9935,-281.978 14.6361,-204 24.8715,-176.122 43.6666,-150.053 63.138,-128.373"/>
<polygon fill="none" stroke="#404040" points="63.3399,-128.156 64.4882,-121.037 71.5013,-119.358 70.353,-126.477 63.3399,-128.156"/>
<text text-anchor="middle" x="38.6361" y="-285.5" font-family="Helvetica,sans-Serif" font-size="10.00"> #view</text>
<text text-anchor="middle" x="38.6361" y="-274.5" font-family="Helvetica,sans-Serif" font-size="10.00">#projection</text>
</g>
<!-- Node4 -->
<g id="node4" class="node"><title>Node4</title>
<g id="a_node4"><a xlink:href="../../de/d34/classWorldParticles_1_1Engine_1_1Transform.html" target="_top" xlink:title="The Transform class is used to represent an object transformation in space. (like position...">
<polygon fill="none" stroke="black" points="71.6361,-204.5 71.6361,-360.5 187.636,-360.5 187.636,-204.5 71.6361,-204.5"/>
<text text-anchor="start" x="79.6361" y="-348.5" font-family="Helvetica,sans-Serif" font-size="10.00">WorldParticles::Engine</text>
<text text-anchor="middle" x="129.636" y="-337.5" font-family="Helvetica,sans-Serif" font-size="10.00">::Transform</text>
<polyline fill="none" stroke="black" points="71.6361,-330.5 187.636,-330.5 "/>
<text text-anchor="middle" x="129.636" y="-318.5" font-family="Helvetica,sans-Serif" font-size="10.00"> </text>
<polyline fill="none" stroke="black" points="71.6361,-311.5 187.636,-311.5 "/>
<text text-anchor="start" x="79.6361" y="-299.5" font-family="Helvetica,sans-Serif" font-size="10.00">+ Transform()</text>
<text text-anchor="start" x="79.6361" y="-288.5" font-family="Helvetica,sans-Serif" font-size="10.00">+ ~Transform()</text>
<text text-anchor="start" x="79.6361" y="-277.5" font-family="Helvetica,sans-Serif" font-size="10.00">+ getMatrix()</text>
<text text-anchor="start" x="79.6361" y="-266.5" font-family="Helvetica,sans-Serif" font-size="10.00">+ setPosition()</text>
<text text-anchor="start" x="79.6361" y="-255.5" font-family="Helvetica,sans-Serif" font-size="10.00">+ setRotation()</text>
<text text-anchor="start" x="79.6361" y="-244.5" font-family="Helvetica,sans-Serif" font-size="10.00">+ setScale()</text>
<text text-anchor="start" x="79.6361" y="-233.5" font-family="Helvetica,sans-Serif" font-size="10.00">+ getPosition()</text>
<text text-anchor="start" x="79.6361" y="-222.5" font-family="Helvetica,sans-Serif" font-size="10.00">+ getRotation()</text>
<text text-anchor="start" x="79.6361" y="-211.5" font-family="Helvetica,sans-Serif" font-size="10.00">+ getScale()</text>
</a>
</g>
</g>
<!-- Node2&#45;&gt;Node4 -->
<g id="edge4" class="edge"><title>Node2&#45;&gt;Node4</title>
<path fill="none" stroke="#404040" d="M46.3229,-430.35C55.5065,-414.163 67.6644,-392.733 79.8458,-371.262"/>
<polygon fill="none" stroke="#404040" points="79.8932,-371.178 79.3748,-363.986 85.8147,-360.741 86.333,-367.933 79.8932,-371.178"/>
<text text-anchor="middle" x="92.6361" y="-393" font-family="Helvetica,sans-Serif" font-size="10.00"> #matrix</text>
</g>
<!-- Node3 -->
<g id="node3" class="node"><title>Node3</title>
<polygon fill="none" stroke="#bfbfbf" points="206.136,-254 206.136,-311 241.136,-311 241.136,-254 206.136,-254"/>
<text text-anchor="middle" x="223.636" y="-299" font-family="Helvetica,sans-Serif" font-size="10.00">float</text>
<polyline fill="none" stroke="#bfbfbf" points="206.136,-292 241.136,-292 "/>
<text text-anchor="middle" x="223.636" y="-280" font-family="Helvetica,sans-Serif" font-size="10.00"> </text>
<polyline fill="none" stroke="#bfbfbf" points="206.136,-273 241.136,-273 "/>
<text text-anchor="middle" x="223.636" y="-261" font-family="Helvetica,sans-Serif" font-size="10.00"> </text>
</g>
<!-- Node3&#45;&gt;Node1 -->
<g id="edge2" class="edge"><title>Node3&#45;&gt;Node1</title>
<path fill="none" stroke="#404040" d="M217.318,-253.889C210.716,-227.318 199.151,-186.369 183.636,-153 182.503,-150.563 181.31,-148.112 180.069,-145.659"/>
<polygon fill="none" stroke="#404040" points="179.99,-145.51 173.64,-142.092 174.352,-134.916 180.702,-138.334 179.99,-145.51"/>
<text text-anchor="middle" x="224.636" y="-178" font-family="Helvetica,sans-Serif" font-size="10.00"> #zFar</text>
<text text-anchor="middle" x="224.636" y="-167" font-family="Helvetica,sans-Serif" font-size="10.00">#zNear</text>
<text text-anchor="middle" x="224.636" y="-156" font-family="Helvetica,sans-Serif" font-size="10.00">#fieldOfView</text>
</g>
<!-- Node4&#45;&gt;Node1 -->
<g id="edge3" class="edge"><title>Node4&#45;&gt;Node1</title>
<path fill="none" stroke="#404040" d="M129.636,-204.301C129.636,-185.55 129.636,-165.484 129.636,-146.687"/>
<polygon fill="none" stroke="#404040" points="129.636,-146.545 125.636,-140.545 129.636,-134.545 133.636,-140.545 129.636,-146.545"/>
<text text-anchor="middle" x="154.636" y="-167" font-family="Helvetica,sans-Serif" font-size="10.00"> #transform</text>
</g>
<!-- Node5 -->
<g id="node5" class="node"><title>Node5</title>
<polygon fill="none" stroke="#bfbfbf" points="110.636,-430.5 110.636,-487.5 148.636,-487.5 148.636,-430.5 110.636,-430.5"/>
<text text-anchor="middle" x="129.636" y="-475.5" font-family="Helvetica,sans-Serif" font-size="10.00">vec3</text>
<polyline fill="none" stroke="#bfbfbf" points="110.636,-468.5 148.636,-468.5 "/>
<text text-anchor="middle" x="129.636" y="-456.5" font-family="Helvetica,sans-Serif" font-size="10.00"> </text>
<polyline fill="none" stroke="#bfbfbf" points="110.636,-449.5 148.636,-449.5 "/>
<text text-anchor="middle" x="129.636" y="-437.5" font-family="Helvetica,sans-Serif" font-size="10.00"> </text>
</g>
<!-- Node5&#45;&gt;Node4 -->
<g id="edge5" class="edge"><title>Node5&#45;&gt;Node4</title>
<path fill="none" stroke="#404040" d="M129.636,-430.35C129.636,-414.604 129.636,-393.898 129.636,-373.018"/>
<polygon fill="none" stroke="#404040" points="129.636,-372.741 125.636,-366.741 129.636,-360.741 133.636,-366.741 129.636,-372.741"/>
<text text-anchor="middle" x="149.636" y="-404" font-family="Helvetica,sans-Serif" font-size="10.00"> #scale</text>
<text text-anchor="middle" x="149.636" y="-393" font-family="Helvetica,sans-Serif" font-size="10.00">#rotation</text>
<text text-anchor="middle" x="149.636" y="-382" font-family="Helvetica,sans-Serif" font-size="10.00">#position</text>
</g>
</g>
</svg>
        <g id="navigator" transform="translate(0 0)" fill="#404254">
                <rect fill="#f2f5e9" fill-opacity="0.5" stroke="#606060" stroke-width=".5" x="0" y="0" width="60" height="60"/>
                <use id="zoomplus" xlink:href="#zoomPlus" x="17" y="9" onmousedown="handleZoom(evt,'in')"/>
                <use id="zoomminus" xlink:href="#zoomMin" x="42" y="9" onmousedown="handleZoom(evt,'out')"/>
                <use id="reset" xlink:href="#resetDef" x="30" y="36" onmousedown="handleReset()"/>
                <g id="arrowUp" xlink:href="#dirArrow" transform="translate(30 24)" onmousedown="handlePan(0,-1)">
                  <use xlink:href="#rim" fill="#404040">
                        <set attributeName="fill" to="#808080" begin="arrowUp.mouseover" end="arrowUp.mouseout"/>
                  </use>
                  <path fill="none" stroke="white" stroke-width="1.5" d="M0,-3.0v7 M-2.5,-0.5L0,-3.0L2.5,-0.5"/>
                </g>
                <g id="arrowRight" xlink:href="#dirArrow" transform="rotate(90) translate(36 -43)" onmousedown="handlePan(1,0)">
                  <use xlink:href="#rim" fill="#404040">
                        <set attributeName="fill" to="#808080" begin="arrowRight.mouseover" end="arrowRight.mouseout"/>
                  </use>
                  <path fill="none" stroke="white" stroke-width="1.5" d="M0,-3.0v7 M-2.5,-0.5L0,-3.0L2.5,-0.5"/>
                </g>
                <g id="arrowDown" xlink:href="#dirArrow" transform="rotate(180) translate(-30 -48)" onmousedown="handlePan(0,1)">
                  <use xlink:href="#rim" fill="#404040">
                        <set attributeName="fill" to="#808080" begin="arrowDown.mouseover" end="arrowDown.mouseout"/>
                  </use>
                  <path fill="none" stroke="white" stroke-width="1.5" d="M0,-3.0v7 M-2.5,-0.5L0,-3.0L2.5,-0.5"/>
                </g>
                <g id="arrowLeft" xlink:href="#dirArrow" transform="rotate(270) translate(-36 17)" onmousedown="handlePan(-1,0)">
                  <use xlink:href="#rim" fill="#404040">
                        <set attributeName="fill" to="#808080" begin="arrowLeft.mouseover" end="arrowLeft.mouseout"/>
                  </use>
                  <path fill="none" stroke="white" stroke-width="1.5" d="M0,-3.0v7 M-2.5,-0.5L0,-3.0L2.5,-0.5"/>
                </g>
        </g>
        <svg viewBox="0 0 15 15" width="100%" height="30px" preserveAspectRatio="xMaxYMin meet">
         <g id="arrow_out" transform="scale(0.3 0.3)">
          <a xlink:href="classWorldParticles_1_1Engine_1_1Camera__coll__graph_org.svg" target="_base">
           <rect id="button" ry="5" rx="5" y="6" x="6" height="38" width="38"
                fill="#f2f5e9" fill-opacity="0.5" stroke="#606060" stroke-width="1.0"/>
           <path id="arrow"
             d="M 11.500037,31.436501 C 11.940474,20.09759 22.043105,11.32322 32.158766,21.979434 L 37.068811,17.246167 C 37.068811,17.246167 37.088388,32 37.088388,32 L 22.160133,31.978069 C 22.160133,31.978069 26.997745,27.140456 26.997745,27.140456 C 18.528582,18.264221 13.291696,25.230495 11.500037,31.436501 z"
             style="fill:#404040;"/>
          </a>
         </g>
        </svg>
</svg>
