<?xml version="1.0" encoding="UTF-8" standalone="no"?>
<!DOCTYPE svg PUBLIC "-//W3C//DTD SVG 1.1//EN"
 "http://www.w3.org/Graphics/SVG/1.1/DTD/svg11.dtd">
<!-- Generated by graphviz version 2.38.0 (20140413.2041)
 -->
<!-- Title: engine/Shaders/Managers/ShaderManager/ShaderManager.cpp Pages: 1 -->
<svg width="568pt" height="207pt"
 viewBox="0.00 0.00 567.80 207.00" xmlns="http://www.w3.org/2000/svg" xmlns:xlink="http://www.w3.org/1999/xlink">
<g id="graph0" class="graph" transform="scale(1 1) rotate(0) translate(4 203)">
<title>engine/Shaders/Managers/ShaderManager/ShaderManager.cpp</title>
<!-- Node1 -->
<g id="node1" class="node"><title>Node1</title>
<polygon fill="#bfbfbf" stroke="black" points="198.296,-168.5 198.296,-198.5 376.296,-198.5 376.296,-168.5 198.296,-168.5"/>
<text text-anchor="start" x="206.296" y="-186.5" font-family="Helvetica,sans-Serif" font-size="10.00">engine/Shaders/Managers</text>
<text text-anchor="middle" x="287.296" y="-175.5" font-family="Helvetica,sans-Serif" font-size="10.00">/ShaderManager/ShaderManager.cpp</text>
</g>
<!-- Node2 -->
<g id="node2" class="node"><title>Node2</title>
<polygon fill="none" stroke="#bfbfbf" points="31.7962,-0.5 31.7962,-19.5 72.7962,-19.5 72.7962,-0.5 31.7962,-0.5"/>
<text text-anchor="middle" x="52.2962" y="-7.5" font-family="Helvetica,sans-Serif" font-size="10.00">string</text>
</g>
<!-- Node1&#45;&gt;Node2 -->
<g id="edge1" class="edge"><title>Node1&#45;&gt;Node2</title>
<path fill="none" stroke="midnightblue" d="M198.147,-173.673C134.886,-165.811 56.8485,-152.362 31.2962,-132 3.48763,-109.84 -7.49169,-88.7764 6.29619,-56 11.322,-44.0528 21.2399,-33.6922 30.5837,-25.9339"/>
<polygon fill="midnightblue" stroke="midnightblue" points="32.7354,-28.6944 38.5097,-19.8113 28.4562,-23.1547 32.7354,-28.6944"/>
</g>
<!-- Node3 -->
<g id="node3" class="node"><title>Node3</title>
<polygon fill="none" stroke="#bfbfbf" points="318.296,-112.5 318.296,-131.5 368.296,-131.5 368.296,-112.5 318.296,-112.5"/>
<text text-anchor="middle" x="343.296" y="-119.5" font-family="Helvetica,sans-Serif" font-size="10.00">fstream</text>
</g>
<!-- Node1&#45;&gt;Node3 -->
<g id="edge2" class="edge"><title>Node1&#45;&gt;Node3</title>
<path fill="none" stroke="midnightblue" d="M300.567,-168.399C308.873,-159.575 319.595,-148.183 328.221,-139.018"/>
<polygon fill="midnightblue" stroke="midnightblue" points="330.843,-141.339 335.148,-131.658 325.745,-136.541 330.843,-141.339"/>
</g>
<!-- Node4 -->
<g id="node4" class="node"><title>Node4</title>
<polygon fill="none" stroke="#bfbfbf" points="386.296,-112.5 386.296,-131.5 446.296,-131.5 446.296,-112.5 386.296,-112.5"/>
<text text-anchor="middle" x="416.296" y="-119.5" font-family="Helvetica,sans-Serif" font-size="10.00">streambuf</text>
</g>
<!-- Node1&#45;&gt;Node4 -->
<g id="edge3" class="edge"><title>Node1&#45;&gt;Node4</title>
<path fill="none" stroke="midnightblue" d="M317.867,-168.399C339.221,-158.55 367.512,-145.501 388.281,-135.922"/>
<polygon fill="midnightblue" stroke="midnightblue" points="389.911,-139.024 397.526,-131.658 386.979,-132.668 389.911,-139.024"/>
</g>
<!-- Node5 -->
<g id="node5" class="node"><title>Node5</title>
<g id="a_node5"><a xlink:href="../../de/df7/worldparticles_8hpp.html" target="_top" xlink:title="wordparticles configuration file ">
<polygon fill="none" stroke="black" points="464.796,-112.5 464.796,-131.5 559.796,-131.5 559.796,-112.5 464.796,-112.5"/>
<text text-anchor="middle" x="512.296" y="-119.5" font-family="Helvetica,sans-Serif" font-size="10.00">worldparticles.hpp</text>
</a>
</g>
</g>
<!-- Node1&#45;&gt;Node5 -->
<g id="edge4" class="edge"><title>Node1&#45;&gt;Node5</title>
<path fill="none" stroke="midnightblue" d="M340.333,-168.475C379.998,-157.986 433.502,-143.837 470.238,-134.122"/>
<polygon fill="midnightblue" stroke="midnightblue" points="471.356,-137.447 480.129,-131.506 469.567,-130.679 471.356,-137.447"/>
</g>
<!-- Node6 -->
<g id="node6" class="node"><title>Node6</title>
<g id="a_node6"><a xlink:href="../../d2/d1f/ShaderManager_8hpp.html" target="_top" xlink:title="ShaderManager.hpp">
<polygon fill="none" stroke="black" points="40.2962,-112.5 40.2962,-131.5 144.296,-131.5 144.296,-112.5 40.2962,-112.5"/>
<text text-anchor="middle" x="92.2962" y="-119.5" font-family="Helvetica,sans-Serif" font-size="10.00">ShaderManager.hpp</text>
</a>
</g>
</g>
<!-- Node1&#45;&gt;Node6 -->
<g id="edge5" class="edge"><title>Node1&#45;&gt;Node6</title>
<path fill="none" stroke="midnightblue" d="M241.084,-168.399C207.242,-158.073 161.876,-144.231 130.169,-134.556"/>
<polygon fill="midnightblue" stroke="midnightblue" points="130.972,-131.142 120.386,-131.571 128.929,-137.837 130.972,-131.142"/>
</g>
<!-- Node11 -->
<g id="node11" class="node"><title>Node11</title>
<g id="a_node11"><a xlink:href="../../d3/d1a/ShaderMapping_8hpp.html" target="_top" xlink:title="internal/ShaderMapping.hpp">
<polygon fill="none" stroke="black" points="162.796,-112.5 162.796,-131.5 299.796,-131.5 299.796,-112.5 162.796,-112.5"/>
<text text-anchor="middle" x="231.296" y="-119.5" font-family="Helvetica,sans-Serif" font-size="10.00">internal/ShaderMapping.hpp</text>
</a>
</g>
</g>
<!-- Node1&#45;&gt;Node11 -->
<g id="edge11" class="edge"><title>Node1&#45;&gt;Node11</title>
<path fill="none" stroke="midnightblue" d="M274.025,-168.399C265.72,-159.575 254.998,-148.183 246.372,-139.018"/>
<polygon fill="midnightblue" stroke="midnightblue" points="248.847,-136.541 239.445,-131.658 243.75,-141.339 248.847,-136.541"/>
</g>
<!-- Node7 -->
<g id="node7" class="node"><title>Node7</title>
<polygon fill="none" stroke="#bfbfbf" points="15.2962,-56.5 15.2962,-75.5 67.2962,-75.5 67.2962,-56.5 15.2962,-56.5"/>
<text text-anchor="middle" x="41.2962" y="-63.5" font-family="Helvetica,sans-Serif" font-size="10.00">memory</text>
</g>
<!-- Node6&#45;&gt;Node7 -->
<g id="edge6" class="edge"><title>Node6&#45;&gt;Node7</title>
<path fill="none" stroke="midnightblue" d="M83.8746,-112.083C76.448,-104.22 65.4445,-92.5688 56.484,-83.0813"/>
<polygon fill="midnightblue" stroke="midnightblue" points="58.9719,-80.618 49.5611,-75.7511 53.8828,-85.4244 58.9719,-80.618"/>
</g>
<!-- Node8 -->
<g id="node8" class="node"><title>Node8</title>
<polygon fill="none" stroke="#bfbfbf" points="169.796,-56.5 169.796,-75.5 204.796,-75.5 204.796,-56.5 169.796,-56.5"/>
<text text-anchor="middle" x="187.296" y="-63.5" font-family="Helvetica,sans-Serif" font-size="10.00">map</text>
</g>
<!-- Node6&#45;&gt;Node8 -->
<g id="edge7" class="edge"><title>Node6&#45;&gt;Node8</title>
<path fill="none" stroke="midnightblue" d="M107.56,-112.324C122.518,-103.822 145.551,-90.7288 163.023,-80.7975"/>
<polygon fill="midnightblue" stroke="midnightblue" points="165.107,-83.639 172.071,-75.6545 161.647,-77.5534 165.107,-83.639"/>
</g>
<!-- Node9 -->
<g id="node9" class="node"><title>Node9</title>
<g id="a_node9"><a xlink:href="../../d4/d6e/Shader_8hpp.html" target="_top" xlink:title="Shader.hpp">
<polygon fill="none" stroke="black" points="85.2962,-56.5 85.2962,-75.5 151.296,-75.5 151.296,-56.5 85.2962,-56.5"/>
<text text-anchor="middle" x="118.296" y="-63.5" font-family="Helvetica,sans-Serif" font-size="10.00">Shader.hpp</text>
</a>
</g>
</g>
<!-- Node6&#45;&gt;Node9 -->
<g id="edge8" class="edge"><title>Node6&#45;&gt;Node9</title>
<path fill="none" stroke="midnightblue" d="M96.5896,-112.083C100.149,-104.691 105.319,-93.9533 109.72,-84.8111"/>
<polygon fill="midnightblue" stroke="midnightblue" points="112.898,-86.2795 114.083,-75.7511 106.591,-83.2427 112.898,-86.2795"/>
</g>
<!-- Node10 -->
<g id="node10" class="node"><title>Node10</title>
<g id="a_node10"><a xlink:href="../../d2/dba/ShaderNames_8hpp.html" target="_top" xlink:title="ShaderNames.hpp">
<polygon fill="none" stroke="black" points="223.296,-56.5 223.296,-75.5 321.296,-75.5 321.296,-56.5 223.296,-56.5"/>
<text text-anchor="middle" x="272.296" y="-63.5" font-family="Helvetica,sans-Serif" font-size="10.00">ShaderNames.hpp</text>
</a>
</g>
</g>
<!-- Node6&#45;&gt;Node10 -->
<g id="edge10" class="edge"><title>Node6&#45;&gt;Node10</title>
<path fill="none" stroke="midnightblue" d="M120.818,-112.444C151.362,-103.28 200.004,-88.6876 233.899,-78.5192"/>
<polygon fill="midnightblue" stroke="midnightblue" points="235.336,-81.7424 243.908,-75.5164 233.324,-75.0376 235.336,-81.7424"/>
</g>
<!-- Node9&#45;&gt;Node2 -->
<g id="edge9" class="edge"><title>Node9&#45;&gt;Node2</title>
<path fill="none" stroke="midnightblue" d="M107.692,-56.324C97.84,-48.2631 82.9453,-36.0765 71.0811,-26.3695"/>
<polygon fill="midnightblue" stroke="midnightblue" points="73.0491,-23.4575 63.0932,-19.8339 68.6164,-28.8752 73.0491,-23.4575"/>
</g>
<!-- Node11&#45;&gt;Node8 -->
<g id="edge12" class="edge"><title>Node11&#45;&gt;Node8</title>
<path fill="none" stroke="midnightblue" d="M224.03,-112.083C217.751,-104.377 208.509,-93.0333 200.865,-83.6531"/>
<polygon fill="midnightblue" stroke="midnightblue" points="203.457,-81.2926 194.427,-75.7511 198.03,-85.7143 203.457,-81.2926"/>
</g>
<!-- Node11&#45;&gt;Node9 -->
<g id="edge13" class="edge"><title>Node11&#45;&gt;Node9</title>
<path fill="none" stroke="midnightblue" d="M213.391,-112.444C195.042,-103.675 166.291,-89.9355 145.203,-79.8579"/>
<polygon fill="midnightblue" stroke="midnightblue" points="146.649,-76.6703 136.118,-75.5164 143.631,-82.9862 146.649,-76.6703"/>
</g>
<!-- Node11&#45;&gt;Node10 -->
<g id="edge14" class="edge"><title>Node11&#45;&gt;Node10</title>
<path fill="none" stroke="midnightblue" d="M238.067,-112.083C243.858,-104.455 252.355,-93.2645 259.434,-83.9408"/>
<polygon fill="midnightblue" stroke="midnightblue" points="262.392,-85.8321 265.652,-75.7511 256.817,-81.5991 262.392,-85.8321"/>
</g>
</g>
</svg>
