<?xml version="1.0" encoding="UTF-8" standalone="no"?>
<!DOCTYPE svg PUBLIC "-//W3C//DTD SVG 1.1//EN"
 "http://www.w3.org/Graphics/SVG/1.1/DTD/svg11.dtd">
<!-- Generated by graphviz version 2.38.0 (20140413.2041)
 -->
<!-- Title: engine/Object/Object.hpp Pages: 1 -->
<svg width="568pt" height="95pt"
 viewBox="0.00 0.00 567.50 95.00" xmlns="http://www.w3.org/2000/svg" xmlns:xlink="http://www.w3.org/1999/xlink">
<g id="graph0" class="graph" transform="scale(1 1) rotate(0) translate(4 91)">
<title>engine/Object/Object.hpp</title>
<!-- Node1 -->
<g id="node1" class="node"><title>Node1</title>
<polygon fill="#bfbfbf" stroke="black" points="233,-67.5 233,-86.5 360,-86.5 360,-67.5 233,-67.5"/>
<text text-anchor="middle" x="296.5" y="-74.5" font-family="Helvetica,sans-Serif" font-size="10.00">engine/Object/Object.hpp</text>
</g>
<!-- Node2 -->
<g id="node2" class="node"><title>Node2</title>
<g id="a_node2"><a xlink:href="../../de/d4f/Object_8cpp.html" target="_top" xlink:title="engine/Object/Object.cpp">
<polygon fill="none" stroke="black" points="0,-6 0,-25 127,-25 127,-6 0,-6"/>
<text text-anchor="middle" x="63.5" y="-13" font-family="Helvetica,sans-Serif" font-size="10.00">engine/Object/Object.cpp</text>
</a>
</g>
</g>
<!-- Node1&#45;&gt;Node2 -->
<g id="edge1" class="edge"><title>Node1&#45;&gt;Node2</title>
<path fill="none" stroke="midnightblue" d="M253.301,-64.9685C208.057,-53.4147 137.971,-35.5173 96.8213,-25.0091"/>
<polygon fill="midnightblue" stroke="midnightblue" points="252.562,-68.392 263.117,-67.4751 254.294,-61.6096 252.562,-68.392"/>
</g>
<!-- Node3 -->
<g id="node3" class="node"><title>Node3</title>
<g id="a_node3"><a xlink:href="../../d3/d28/Renderer_8cpp.html" target="_top" xlink:title="engine/Renderer/Renderer.cpp">
<polygon fill="none" stroke="black" points="145,-6 145,-25 294,-25 294,-6 145,-6"/>
<text text-anchor="middle" x="219.5" y="-13" font-family="Helvetica,sans-Serif" font-size="10.00">engine/Renderer/Renderer.cpp</text>
</a>
</g>
</g>
<!-- Node1&#45;&gt;Node3 -->
<g id="edge2" class="edge"><title>Node1&#45;&gt;Node3</title>
<path fill="none" stroke="midnightblue" d="M277.468,-61.2938C262.698,-49.8803 242.739,-34.4577 230.512,-25.0091"/>
<polygon fill="midnightblue" stroke="midnightblue" points="275.415,-64.1301 285.468,-67.4751 279.695,-58.5911 275.415,-64.1301"/>
</g>
<!-- Node4 -->
<g id="node4" class="node"><title>Node4</title>
<g id="a_node4"><a xlink:href="../../d2/d22/SceneGraphNode_8cpp.html" target="_top" xlink:title="engine/SceneGraphNode\l/SceneGraphNode.cpp">
<polygon fill="none" stroke="black" points="312,-0.5 312,-30.5 437,-30.5 437,-0.5 312,-0.5"/>
<text text-anchor="start" x="320" y="-18.5" font-family="Helvetica,sans-Serif" font-size="10.00">engine/SceneGraphNode</text>
<text text-anchor="middle" x="374.5" y="-7.5" font-family="Helvetica,sans-Serif" font-size="10.00">/SceneGraphNode.cpp</text>
</a>
</g>
</g>
<!-- Node1&#45;&gt;Node4 -->
<g id="edge3" class="edge"><title>Node1&#45;&gt;Node4</title>
<path fill="none" stroke="midnightblue" d="M315.908,-61.1955C328.207,-51.8129 344.019,-39.7512 356.117,-30.523"/>
<polygon fill="midnightblue" stroke="midnightblue" points="313.504,-58.6272 307.675,-67.4751 317.749,-64.1928 313.504,-58.6272"/>
</g>
<!-- Node5 -->
<g id="node5" class="node"><title>Node5</title>
<g id="a_node5"><a xlink:href="../../d3/d35/SpatialGraph_8cpp.html" target="_top" xlink:title="engine/SpatialGraph\l/SpatialGraph.cpp">
<polygon fill="none" stroke="black" points="455.5,-0.5 455.5,-30.5 559.5,-30.5 559.5,-0.5 455.5,-0.5"/>
<text text-anchor="start" x="463.5" y="-18.5" font-family="Helvetica,sans-Serif" font-size="10.00">engine/SpatialGraph</text>
<text text-anchor="middle" x="507.5" y="-7.5" font-family="Helvetica,sans-Serif" font-size="10.00">/SpatialGraph.cpp</text>
</a>
</g>
</g>
<!-- Node1&#45;&gt;Node5 -->
<g id="edge4" class="edge"><title>Node1&#45;&gt;Node5</title>
<path fill="none" stroke="midnightblue" d="M336.451,-64.7343C370.887,-55.0234 420.757,-40.9607 457.771,-30.523"/>
<polygon fill="midnightblue" stroke="midnightblue" points="335.406,-61.3923 326.731,-67.4751 337.306,-68.1296 335.406,-61.3923"/>
</g>
</g>
</svg>
