<?xml version="1.0" encoding="UTF-8" standalone="no"?>
<!DOCTYPE svg PUBLIC "-//W3C//DTD SVG 1.1//EN"
 "http://www.w3.org/Graphics/SVG/1.1/DTD/svg11.dtd">
<!-- Generated by graphviz version 2.38.0 (20140413.2041)
 -->
<!-- Title: engine/Camera Pages: 1 -->
<svg width="179pt" height="223pt"
 viewBox="0.00 0.00 178.50 223.00" xmlns="http://www.w3.org/2000/svg" xmlns:xlink="http://www.w3.org/1999/xlink">
<g id="graph0" class="graph" transform="scale(1 1) rotate(0) translate(4 219)">
<title>engine/Camera</title>
<g id="clust1" class="cluster"><title>clusterdir_996f45160da62e1a3d7f6046fad68f51</title>
<g id="a_clust1"><a xlink:href="dir_996f45160da62e1a3d7f6046fad68f51.html" target="_top" xlink:title="engine">
<polygon fill="#ddddee" stroke="black" points="27.5,-136 27.5,-207 97.5,-207 97.5,-136 27.5,-136"/>
<text text-anchor="middle" x="62.5" y="-195" font-family="Helvetica,sans-Serif" font-size="10.00">engine</text>
</a>
</g>
</g>
<!-- dir_4b71b285adca0ee8727c2f059697f1fe -->
<g id="node1" class="node"><title>dir_4b71b285adca0ee8727c2f059697f1fe</title>
<g id="a_node1"><a xlink:href="dir_4b71b285adca0ee8727c2f059697f1fe.html" target="_top" xlink:title="Camera">
<polygon fill="#eeeeff" stroke="black" points="89.5,-180 35.5,-180 35.5,-144 89.5,-144 89.5,-180"/>
<text text-anchor="middle" x="62.5" y="-159.5" font-family="Helvetica,sans-Serif" font-size="10.00">Camera</text>
</a>
</g>
</g>
<!-- dir_c9dbd819322c113e6234637a00e97751 -->
<g id="node2" class="node"><title>dir_c9dbd819322c113e6234637a00e97751</title>
<g id="a_node2"><a xlink:href="dir_c9dbd819322c113e6234637a00e97751.html" target="_top" xlink:title="Transform">
<polygon fill="none" stroke="black" points="61,-36 -3.55271e-15,-36 -3.55271e-15,-0 61,-0 61,-36"/>
<text text-anchor="middle" x="30.5" y="-15.5" font-family="Helvetica,sans-Serif" font-size="10.00">Transform</text>
</a>
</g>
</g>
<!-- dir_4b71b285adca0ee8727c2f059697f1fe&#45;&gt;dir_c9dbd819322c113e6234637a00e97751 -->
<g id="edge2" class="edge"><title>dir_4b71b285adca0ee8727c2f059697f1fe&#45;&gt;dir_c9dbd819322c113e6234637a00e97751</title>
<path fill="none" stroke="black" d="M42.1214,-143.531C32.6934,-134.092 22.4936,-121.597 17.5,-108 10.1304,-87.9339 14.3599,-63.8786 19.8907,-45.8384"/>
<polygon fill="black" stroke="black" points="23.2474,-46.8375 23.1254,-36.2434 16.6142,-44.6013 23.2474,-46.8375"/>
<g id="a_edge2&#45;headlabel"><a xlink:href="dir_000003_000024.html" target="_top" xlink:title="1">
<text text-anchor="middle" x="24.7896" y="-48.6508" font-family="Helvetica,sans-Serif" font-size="10.00">1</text>
</a>
</g>
</g>
<!-- dir_3a555b69b7795839eed54f72b7b4132a -->
<g id="node3" class="node"><title>dir_3a555b69b7795839eed54f72b7b4132a</title>
<g id="a_node3"><a xlink:href="dir_3a555b69b7795839eed54f72b7b4132a.html" target="_top" xlink:title="GameObject">
<polygon fill="none" stroke="red" points="98,-108 27,-108 27,-72 98,-72 98,-108"/>
<text text-anchor="middle" x="62.5" y="-87.5" font-family="Helvetica,sans-Serif" font-size="10.00">GameObject</text>
</a>
</g>
</g>
<!-- dir_4b71b285adca0ee8727c2f059697f1fe&#45;&gt;dir_3a555b69b7795839eed54f72b7b4132a -->
<g id="edge3" class="edge"><title>dir_4b71b285adca0ee8727c2f059697f1fe&#45;&gt;dir_3a555b69b7795839eed54f72b7b4132a</title>
<path fill="none" stroke="black" d="M62.5,-143.697C62.5,-135.983 62.5,-126.712 62.5,-118.112"/>
<polygon fill="black" stroke="black" points="66.0001,-118.104 62.5,-108.104 59.0001,-118.104 66.0001,-118.104"/>
<g id="a_edge3&#45;headlabel"><a xlink:href="dir_000003_000006.html" target="_top" xlink:title="1">
<text text-anchor="middle" x="68.8393" y="-119.199" font-family="Helvetica,sans-Serif" font-size="10.00">1</text>
</a>
</g>
</g>
<!-- dir_9257174f690635f75a6c414b151b5118 -->
<g id="node4" class="node"><title>dir_9257174f690635f75a6c414b151b5118</title>
<g id="a_node4"><a xlink:href="dir_9257174f690635f75a6c414b151b5118.html" target="_top" xlink:title="window">
<polygon fill="none" stroke="black" points="170.5,-108 116.5,-108 116.5,-72 170.5,-72 170.5,-108"/>
<text text-anchor="middle" x="143.5" y="-87.5" font-family="Helvetica,sans-Serif" font-size="10.00">window</text>
</a>
</g>
</g>
<!-- dir_4b71b285adca0ee8727c2f059697f1fe&#45;&gt;dir_9257174f690635f75a6c414b151b5118 -->
<g id="edge4" class="edge"><title>dir_4b71b285adca0ee8727c2f059697f1fe&#45;&gt;dir_9257174f690635f75a6c414b151b5118</title>
<path fill="none" stroke="black" d="M82.5225,-143.697C92.6256,-134.965 105.036,-124.24 116.018,-114.75"/>
<polygon fill="black" stroke="black" points="118.43,-117.291 123.708,-108.104 113.853,-111.995 118.43,-117.291"/>
<g id="a_edge4&#45;headlabel"><a xlink:href="dir_000003_000026.html" target="_top" xlink:title="1">
<text text-anchor="middle" x="117.567" y="-119.29" font-family="Helvetica,sans-Serif" font-size="10.00">1</text>
</a>
</g>
</g>
<!-- dir_3a555b69b7795839eed54f72b7b4132a&#45;&gt;dir_c9dbd819322c113e6234637a00e97751 -->
<g id="edge1" class="edge"><title>dir_3a555b69b7795839eed54f72b7b4132a&#45;&gt;dir_c9dbd819322c113e6234637a00e97751</title>
<path fill="none" stroke="black" d="M54.5899,-71.6966C50.9473,-63.7284 46.5455,-54.0995 42.5065,-45.2641"/>
<polygon fill="black" stroke="black" points="45.6599,-43.7439 38.3191,-36.1043 39.2936,-46.6543 45.6599,-43.7439"/>
<g id="a_edge1&#45;headlabel"><a xlink:href="dir_000006_000024.html" target="_top" xlink:title="1">
<text text-anchor="middle" x="49.7366" y="-43.3327" font-family="Helvetica,sans-Serif" font-size="10.00">1</text>
</a>
</g>
</g>
</g>
</svg>
