<?xml version="1.0" encoding="UTF-8" standalone="no"?>
<!DOCTYPE svg PUBLIC "-//W3C//DTD SVG 1.1//EN"
 "http://www.w3.org/Graphics/SVG/1.1/DTD/svg11.dtd">
<!-- Generated by graphviz version 2.38.0 (20140413.2041)
 -->
<!-- Title: engine/MeshLibrary Pages: 1 -->
<svg width="181pt" height="223pt"
 viewBox="0.00 0.00 181.00 223.00" xmlns="http://www.w3.org/2000/svg" xmlns:xlink="http://www.w3.org/1999/xlink">
<g id="graph0" class="graph" transform="scale(1 1) rotate(0) translate(4 219)">
<title>engine/MeshLibrary</title>
<g id="clust1" class="cluster"><title>clusterdir_996f45160da62e1a3d7f6046fad68f51</title>
<g id="a_clust1"><a xlink:href="dir_996f45160da62e1a3d7f6046fad68f51.html" target="_top" xlink:title="engine">
<polygon fill="#ddddee" stroke="black" points="69,-136 69,-207 155,-207 155,-136 69,-136"/>
<text text-anchor="middle" x="112" y="-195" font-family="Helvetica,sans-Serif" font-size="10.00">engine</text>
</a>
</g>
</g>
<!-- dir_739becae7bf9538439801a5afaf14558 -->
<g id="node1" class="node"><title>dir_739becae7bf9538439801a5afaf14558</title>
<g id="a_node1"><a xlink:href="dir_739becae7bf9538439801a5afaf14558.html" target="_top" xlink:title="MeshLibrary">
<polygon fill="#eeeeff" stroke="black" points="147,-180 77,-180 77,-144 147,-144 147,-180"/>
<text text-anchor="middle" x="112" y="-159.5" font-family="Helvetica,sans-Serif" font-size="10.00">MeshLibrary</text>
</a>
</g>
</g>
<!-- dir_c7f0c751fa7d09d1405d1c0441c3546f -->
<g id="node2" class="node"><title>dir_c7f0c751fa7d09d1405d1c0441c3546f</title>
<g id="a_node2"><a xlink:href="dir_c7f0c751fa7d09d1405d1c0441c3546f.html" target="_top" xlink:title="Mesh">
<polygon fill="none" stroke="black" points="54,-108 0,-108 0,-72 54,-72 54,-108"/>
<text text-anchor="middle" x="27" y="-87.5" font-family="Helvetica,sans-Serif" font-size="10.00">Mesh</text>
</a>
</g>
</g>
<!-- dir_739becae7bf9538439801a5afaf14558&#45;&gt;dir_c7f0c751fa7d09d1405d1c0441c3546f -->
<g id="edge1" class="edge"><title>dir_739becae7bf9538439801a5afaf14558&#45;&gt;dir_c7f0c751fa7d09d1405d1c0441c3546f</title>
<path fill="none" stroke="black" d="M90.9888,-143.697C80.2837,-134.881 67.1103,-124.032 55.5044,-114.474"/>
<polygon fill="black" stroke="black" points="57.7139,-111.76 47.7695,-108.104 53.2639,-117.163 57.7139,-111.76"/>
<g id="a_edge1&#45;headlabel"><a xlink:href="dir_000016_000015.html" target="_top" xlink:title="1">
<text text-anchor="middle" x="62.2936" y="-109.353" font-family="Helvetica,sans-Serif" font-size="10.00">1</text>
</a>
</g>
</g>
<!-- dir_5a7d2741bb1a02a1f8374392e7b7e10e -->
<g id="node3" class="node"><title>dir_5a7d2741bb1a02a1f8374392e7b7e10e</title>
<g id="a_node3"><a xlink:href="dir_5a7d2741bb1a02a1f8374392e7b7e10e.html" target="_top" xlink:title="MaterialLibrary">
<polygon fill="none" stroke="black" points="152,-108 72,-108 72,-72 152,-72 152,-108"/>
<text text-anchor="middle" x="112" y="-87.5" font-family="Helvetica,sans-Serif" font-size="10.00">MaterialLibrary</text>
</a>
</g>
</g>
<!-- dir_739becae7bf9538439801a5afaf14558&#45;&gt;dir_5a7d2741bb1a02a1f8374392e7b7e10e -->
<g id="edge2" class="edge"><title>dir_739becae7bf9538439801a5afaf14558&#45;&gt;dir_5a7d2741bb1a02a1f8374392e7b7e10e</title>
<path fill="none" stroke="black" d="M112,-143.697C112,-135.983 112,-126.712 112,-118.112"/>
<polygon fill="black" stroke="black" points="115.5,-118.104 112,-108.104 108.5,-118.104 115.5,-118.104"/>
<g id="a_edge2&#45;headlabel"><a xlink:href="dir_000016_000014.html" target="_top" xlink:title="1">
<text text-anchor="middle" x="118.339" y="-119.199" font-family="Helvetica,sans-Serif" font-size="10.00">1</text>
</a>
</g>
</g>
<!-- dir_02303b2d12aef3ee678de5e70c9c5297 -->
<g id="node4" class="node"><title>dir_02303b2d12aef3ee678de5e70c9c5297</title>
<g id="a_node4"><a xlink:href="dir_02303b2d12aef3ee678de5e70c9c5297.html" target="_top" xlink:title="Library">
<polygon fill="none" stroke="black" points="173,-36 119,-36 119,-0 173,-0 173,-36"/>
<text text-anchor="middle" x="146" y="-15.5" font-family="Helvetica,sans-Serif" font-size="10.00">Library</text>
</a>
</g>
</g>
<!-- dir_739becae7bf9538439801a5afaf14558&#45;&gt;dir_02303b2d12aef3ee678de5e70c9c5297 -->
<g id="edge3" class="edge"><title>dir_739becae7bf9538439801a5afaf14558&#45;&gt;dir_02303b2d12aef3ee678de5e70c9c5297</title>
<path fill="none" stroke="black" d="M134.153,-143.875C144.41,-134.524 155.519,-122.003 161,-108 168.855,-87.9324 163.941,-63.7398 157.71,-45.6461"/>
<polygon fill="black" stroke="black" points="160.986,-44.4118 154.186,-36.2865 154.435,-46.8784 160.986,-44.4118"/>
<g id="a_edge3&#45;headlabel"><a xlink:href="dir_000016_000011.html" target="_top" xlink:title="1">
<text text-anchor="middle" x="164.909" y="-44.2754" font-family="Helvetica,sans-Serif" font-size="10.00">1</text>
</a>
</g>
</g>
<!-- dir_5a7d2741bb1a02a1f8374392e7b7e10e&#45;&gt;dir_02303b2d12aef3ee678de5e70c9c5297 -->
<g id="edge4" class="edge"><title>dir_5a7d2741bb1a02a1f8374392e7b7e10e&#45;&gt;dir_02303b2d12aef3ee678de5e70c9c5297</title>
<path fill="none" stroke="black" d="M120.404,-71.6966C124.275,-63.7284 128.952,-54.0995 133.243,-45.2641"/>
<polygon fill="black" stroke="black" points="136.471,-46.6286 137.692,-36.1043 130.175,-43.5702 136.471,-46.6286"/>
<g id="a_edge4&#45;headlabel"><a xlink:href="dir_000014_000011.html" target="_top" xlink:title="1">
<text text-anchor="middle" x="137.455" y="-48.6025" font-family="Helvetica,sans-Serif" font-size="10.00">1</text>
</a>
</g>
</g>
</g>
</svg>
