<?xml version="1.0" encoding="UTF-8" standalone="no"?>
<!DOCTYPE svg PUBLIC "-//W3C//DTD SVG 1.1//EN"
 "http://www.w3.org/Graphics/SVG/1.1/DTD/svg11.dtd">
<!-- Generated by graphviz version 2.38.0 (20140413.2041)
 -->
<!-- Title: engine/SpatialGraph Pages: 1 -->
<svg width="208pt" height="223pt"
 viewBox="0.00 0.00 208.00 223.00" xmlns="http://www.w3.org/2000/svg" xmlns:xlink="http://www.w3.org/1999/xlink">
<g id="graph0" class="graph" transform="scale(1 1) rotate(0) translate(4 219)">
<title>engine/SpatialGraph</title>
<g id="clust1" class="cluster"><title>clusterdir_996f45160da62e1a3d7f6046fad68f51</title>
<g id="a_clust1"><a xlink:href="dir_996f45160da62e1a3d7f6046fad68f51.html" target="_top" xlink:title="engine">
<polygon fill="#ddddee" stroke="black" points="63,-136 63,-207 153,-207 153,-136 63,-136"/>
<text text-anchor="middle" x="108" y="-195" font-family="Helvetica,sans-Serif" font-size="10.00">engine</text>
</a>
</g>
</g>
<!-- dir_ec4803f4ce0d4994db2ca7b963fe099a -->
<g id="node1" class="node"><title>dir_ec4803f4ce0d4994db2ca7b963fe099a</title>
<g id="a_node1"><a xlink:href="dir_ec4803f4ce0d4994db2ca7b963fe099a.html" target="_top" xlink:title="SpatialGraph">
<polygon fill="#eeeeff" stroke="black" points="144.5,-180 71.5,-180 71.5,-144 144.5,-144 144.5,-180"/>
<text text-anchor="middle" x="108" y="-159.5" font-family="Helvetica,sans-Serif" font-size="10.00">SpatialGraph</text>
</a>
</g>
</g>
<!-- dir_d0d75729f6392f71d180a932040f5f47 -->
<g id="node2" class="node"><title>dir_d0d75729f6392f71d180a932040f5f47</title>
<g id="a_node2"><a xlink:href="dir_d0d75729f6392f71d180a932040f5f47.html" target="_top" xlink:title="Light">
<polygon fill="none" stroke="black" points="54,-36 0,-36 0,-0 54,-0 54,-36"/>
<text text-anchor="middle" x="27" y="-15.5" font-family="Helvetica,sans-Serif" font-size="10.00">Light</text>
</a>
</g>
</g>
<!-- dir_ec4803f4ce0d4994db2ca7b963fe099a&#45;&gt;dir_d0d75729f6392f71d180a932040f5f47 -->
<g id="edge4" class="edge"><title>dir_ec4803f4ce0d4994db2ca7b963fe099a&#45;&gt;dir_d0d75729f6392f71d180a932040f5f47</title>
<path fill="none" stroke="black" d="M78.6342,-143.842C65.7218,-134.8 51.5722,-122.553 43,-108 32.0102,-89.3424 28.2181,-64.9537 27.0578,-46.4258"/>
<polygon fill="black" stroke="black" points="30.5488,-46.1309 26.6443,-36.2818 23.5546,-46.4161 30.5488,-46.1309"/>
<g id="a_edge4&#45;headlabel"><a xlink:href="dir_000029_000012.html" target="_top" xlink:title="1">
<text text-anchor="middle" x="33.532" y="-47.1069" font-family="Helvetica,sans-Serif" font-size="10.00">1</text>
</a>
</g>
</g>
<!-- dir_367b412637a5abf5b1dc26af7424a7dc -->
<g id="node3" class="node"><title>dir_367b412637a5abf5b1dc26af7424a7dc</title>
<g id="a_node3"><a xlink:href="dir_367b412637a5abf5b1dc26af7424a7dc.html" target="_top" xlink:title="Object">
<polygon fill="none" stroke="black" points="127,-36 73,-36 73,-0 127,-0 127,-36"/>
<text text-anchor="middle" x="100" y="-15.5" font-family="Helvetica,sans-Serif" font-size="10.00">Object</text>
</a>
</g>
</g>
<!-- dir_ec4803f4ce0d4994db2ca7b963fe099a&#45;&gt;dir_367b412637a5abf5b1dc26af7424a7dc -->
<g id="edge5" class="edge"><title>dir_ec4803f4ce0d4994db2ca7b963fe099a&#45;&gt;dir_367b412637a5abf5b1dc26af7424a7dc</title>
<path fill="none" stroke="black" d="M112.322,-143.867C116.252,-125.894 120.889,-96.8565 117,-72 115.641,-63.3122 113.1,-54.1039 110.389,-45.843"/>
<polygon fill="black" stroke="black" points="113.669,-44.6203 107.066,-36.3349 107.061,-46.9297 113.669,-44.6203"/>
<g id="a_edge5&#45;headlabel"><a xlink:href="dir_000029_000017.html" target="_top" xlink:title="1">
<text text-anchor="middle" x="117.535" y="-44.577" font-family="Helvetica,sans-Serif" font-size="10.00">1</text>
</a>
</g>
</g>
<!-- dir_37e584d61c1ad01a0f32aaf99da6b41e -->
<g id="node4" class="node"><title>dir_37e584d61c1ad01a0f32aaf99da6b41e</title>
<g id="a_node4"><a xlink:href="dir_37e584d61c1ad01a0f32aaf99da6b41e.html" target="_top" xlink:title="Renderer">
<polygon fill="none" stroke="black" points="108,-108 52,-108 52,-72 108,-72 108,-108"/>
<text text-anchor="middle" x="80" y="-87.5" font-family="Helvetica,sans-Serif" font-size="10.00">Renderer</text>
</a>
</g>
</g>
<!-- dir_ec4803f4ce0d4994db2ca7b963fe099a&#45;&gt;dir_37e584d61c1ad01a0f32aaf99da6b41e -->
<g id="edge6" class="edge"><title>dir_ec4803f4ce0d4994db2ca7b963fe099a&#45;&gt;dir_37e584d61c1ad01a0f32aaf99da6b41e</title>
<path fill="none" stroke="black" d="M101.079,-143.697C97.9253,-135.813 94.1217,-126.304 90.6186,-117.546"/>
<polygon fill="black" stroke="black" points="93.8054,-116.089 86.8417,-108.104 87.306,-118.689 93.8054,-116.089"/>
<g id="a_edge6&#45;headlabel"><a xlink:href="dir_000029_000019.html" target="_top" xlink:title="1">
<text text-anchor="middle" x="97.7765" y="-115.872" font-family="Helvetica,sans-Serif" font-size="10.00">1</text>
</a>
</g>
</g>
<!-- dir_4b71b285adca0ee8727c2f059697f1fe -->
<g id="node5" class="node"><title>dir_4b71b285adca0ee8727c2f059697f1fe</title>
<g id="a_node5"><a xlink:href="dir_4b71b285adca0ee8727c2f059697f1fe.html" target="_top" xlink:title="Camera">
<polygon fill="none" stroke="black" points="200,-36 146,-36 146,-0 200,-0 200,-36"/>
<text text-anchor="middle" x="173" y="-15.5" font-family="Helvetica,sans-Serif" font-size="10.00">Camera</text>
</a>
</g>
</g>
<!-- dir_ec4803f4ce0d4994db2ca7b963fe099a&#45;&gt;dir_4b71b285adca0ee8727c2f059697f1fe -->
<g id="edge7" class="edge"><title>dir_ec4803f4ce0d4994db2ca7b963fe099a&#45;&gt;dir_4b71b285adca0ee8727c2f059697f1fe</title>
<path fill="none" stroke="black" d="M115.841,-143.871C127.016,-119.457 147.629,-74.4258 160.808,-45.6351"/>
<polygon fill="black" stroke="black" points="164.152,-46.7387 165.132,-36.1893 157.787,-43.8252 164.152,-46.7387"/>
<g id="a_edge7&#45;headlabel"><a xlink:href="dir_000029_000007.html" target="_top" xlink:title="1">
<text text-anchor="middle" x="165.238" y="-48.6889" font-family="Helvetica,sans-Serif" font-size="10.00">1</text>
</a>
</g>
</g>
<!-- dir_37e584d61c1ad01a0f32aaf99da6b41e&#45;&gt;dir_d0d75729f6392f71d180a932040f5f47 -->
<g id="edge1" class="edge"><title>dir_37e584d61c1ad01a0f32aaf99da6b41e&#45;&gt;dir_d0d75729f6392f71d180a932040f5f47</title>
<path fill="none" stroke="black" d="M66.8989,-71.6966C60.6091,-63.3893 52.9526,-53.2771 46.0351,-44.1407"/>
<polygon fill="black" stroke="black" points="48.7773,-41.9642 39.9504,-36.1043 43.1964,-46.1897 48.7773,-41.9642"/>
<g id="a_edge1&#45;headlabel"><a xlink:href="dir_000019_000012.html" target="_top" xlink:title="1">
<text text-anchor="middle" x="53.2107" y="-40.6161" font-family="Helvetica,sans-Serif" font-size="10.00">1</text>
</a>
</g>
</g>
<!-- dir_37e584d61c1ad01a0f32aaf99da6b41e&#45;&gt;dir_367b412637a5abf5b1dc26af7424a7dc -->
<g id="edge2" class="edge"><title>dir_37e584d61c1ad01a0f32aaf99da6b41e&#45;&gt;dir_367b412637a5abf5b1dc26af7424a7dc</title>
<path fill="none" stroke="black" d="M84.9438,-71.6966C87.172,-63.8979 89.8547,-54.5085 92.3345,-45.8292"/>
<polygon fill="black" stroke="black" points="95.7311,-46.6811 95.113,-36.1043 89.0004,-44.758 95.7311,-46.6811"/>
<g id="a_edge2&#45;headlabel"><a xlink:href="dir_000019_000017.html" target="_top" xlink:title="1">
<text text-anchor="middle" x="97.4737" y="-48.4174" font-family="Helvetica,sans-Serif" font-size="10.00">1</text>
</a>
</g>
</g>
<!-- dir_37e584d61c1ad01a0f32aaf99da6b41e&#45;&gt;dir_4b71b285adca0ee8727c2f059697f1fe -->
<g id="edge3" class="edge"><title>dir_37e584d61c1ad01a0f32aaf99da6b41e&#45;&gt;dir_4b71b285adca0ee8727c2f059697f1fe</title>
<path fill="none" stroke="black" d="M102.989,-71.6966C114.814,-62.796 129.392,-51.8232 142.179,-42.1989"/>
<polygon fill="black" stroke="black" points="144.391,-44.9145 150.276,-36.1043 140.181,-39.3217 144.391,-44.9145"/>
<g id="a_edge3&#45;headlabel"><a xlink:href="dir_000019_000007.html" target="_top" xlink:title="1">
<text text-anchor="middle" x="143.226" y="-46.8447" font-family="Helvetica,sans-Serif" font-size="10.00">1</text>
</a>
</g>
</g>
</g>
</svg>
