<?xml version="1.0" encoding="UTF-8" standalone="no"?>
<!DOCTYPE svg PUBLIC "-//W3C//DTD SVG 1.1//EN"
 "http://www.w3.org/Graphics/SVG/1.1/DTD/svg11.dtd">
<!-- Generated by graphviz version 2.38.0 (20140413.2041)
 -->
<!-- Title: engine/AssimpImporter Pages: 1 -->
<svg width="126pt" height="223pt"
 viewBox="0.00 0.00 126.00 223.00" xmlns="http://www.w3.org/2000/svg" xmlns:xlink="http://www.w3.org/1999/xlink">
<g id="graph0" class="graph" transform="scale(1 1) rotate(0) translate(4 219)">
<title>engine/AssimpImporter</title>
<g id="clust1" class="cluster"><title>clusterdir_996f45160da62e1a3d7f6046fad68f51</title>
<g id="a_clust1"><a xlink:href="dir_996f45160da62e1a3d7f6046fad68f51.html" target="_top" xlink:title="engine">
<polygon fill="#ddddee" stroke="black" points="8,-136 8,-207 110,-207 110,-136 8,-136"/>
<text text-anchor="middle" x="59" y="-195" font-family="Helvetica,sans-Serif" font-size="10.00">engine</text>
</a>
</g>
</g>
<!-- dir_b7a1b3aac5fc8229ebcf624041b688b6 -->
<g id="node1" class="node"><title>dir_b7a1b3aac5fc8229ebcf624041b688b6</title>
<g id="a_node1"><a xlink:href="dir_b7a1b3aac5fc8229ebcf624041b688b6.html" target="_top" xlink:title="AssimpImporter">
<polygon fill="#eeeeff" stroke="black" points="102,-180 16,-180 16,-144 102,-144 102,-180"/>
<text text-anchor="middle" x="59" y="-159.5" font-family="Helvetica,sans-Serif" font-size="10.00">AssimpImporter</text>
</a>
</g>
</g>
<!-- dir_3a555b69b7795839eed54f72b7b4132a -->
<g id="node2" class="node"><title>dir_3a555b69b7795839eed54f72b7b4132a</title>
<g id="a_node2"><a xlink:href="dir_3a555b69b7795839eed54f72b7b4132a.html" target="_top" xlink:title="GameObject">
<polygon fill="none" stroke="red" points="94.5,-36 23.5,-36 23.5,-0 94.5,-0 94.5,-36"/>
<text text-anchor="middle" x="59" y="-15.5" font-family="Helvetica,sans-Serif" font-size="10.00">GameObject</text>
</a>
</g>
</g>
<!-- dir_b7a1b3aac5fc8229ebcf624041b688b6&#45;&gt;dir_3a555b69b7795839eed54f72b7b4132a -->
<g id="edge2" class="edge"><title>dir_b7a1b3aac5fc8229ebcf624041b688b6&#45;&gt;dir_3a555b69b7795839eed54f72b7b4132a</title>
<path fill="none" stroke="black" d="M55.7517,-143.888C53.9542,-133.542 51.9053,-120.063 51,-108 49.8026,-92.0449 49.8026,-87.9551 51,-72 51.6366,-63.5179 52.8384,-54.3361 54.1208,-46.0356"/>
<polygon fill="black" stroke="black" points="57.5836,-46.5472 55.7517,-36.1119 50.6763,-45.412 57.5836,-46.5472"/>
<g id="a_edge2&#45;headlabel"><a xlink:href="dir_000001_000006.html" target="_top" xlink:title="1">
<text text-anchor="middle" x="59.8024" y="-48.0546" font-family="Helvetica,sans-Serif" font-size="10.00">1</text>
</a>
</g>
</g>
<!-- dir_ba775a609e100e11fec950409e9afc1d -->
<g id="node3" class="node"><title>dir_ba775a609e100e11fec950409e9afc1d</title>
<g id="a_node3"><a xlink:href="dir_ba775a609e100e11fec950409e9afc1d.html" target="_top" xlink:title="Scene">
<polygon fill="none" stroke="black" points="114,-108 60,-108 60,-72 114,-72 114,-108"/>
<text text-anchor="middle" x="87" y="-87.5" font-family="Helvetica,sans-Serif" font-size="10.00">Scene</text>
</a>
</g>
</g>
<!-- dir_b7a1b3aac5fc8229ebcf624041b688b6&#45;&gt;dir_ba775a609e100e11fec950409e9afc1d -->
<g id="edge3" class="edge"><title>dir_b7a1b3aac5fc8229ebcf624041b688b6&#45;&gt;dir_ba775a609e100e11fec950409e9afc1d</title>
<path fill="none" stroke="black" d="M65.9214,-143.697C69.0747,-135.813 72.8783,-126.304 76.3814,-117.546"/>
<polygon fill="black" stroke="black" points="79.694,-118.689 80.1583,-108.104 73.1946,-116.089 79.694,-118.689"/>
<g id="a_edge3&#45;headlabel"><a xlink:href="dir_000001_000015.html" target="_top" xlink:title="1">
<text text-anchor="middle" x="80.9952" y="-120.581" font-family="Helvetica,sans-Serif" font-size="10.00">1</text>
</a>
</g>
</g>
<!-- dir_ba775a609e100e11fec950409e9afc1d&#45;&gt;dir_3a555b69b7795839eed54f72b7b4132a -->
<g id="edge1" class="edge"><title>dir_ba775a609e100e11fec950409e9afc1d&#45;&gt;dir_3a555b69b7795839eed54f72b7b4132a</title>
<path fill="none" stroke="black" d="M80.0786,-71.6966C76.9253,-63.8132 73.1217,-54.3042 69.6186,-45.5464"/>
<polygon fill="black" stroke="black" points="72.8054,-44.0892 65.8417,-36.1043 66.306,-46.689 72.8054,-44.0892"/>
<g id="a_edge1&#45;headlabel"><a xlink:href="dir_000015_000006.html" target="_top" xlink:title="1">
<text text-anchor="middle" x="76.7765" y="-43.8723" font-family="Helvetica,sans-Serif" font-size="10.00">1</text>
</a>
</g>
</g>
</g>
</svg>
