<?xml version="1.0" encoding="UTF-8" standalone="no"?>
<!DOCTYPE svg PUBLIC "-//W3C//DTD SVG 1.1//EN"
 "http://www.w3.org/Graphics/SVG/1.1/DTD/svg11.dtd">
<!-- Generated by graphviz version 2.38.0 (20140413.2041)
 -->
<!-- Title: engine/GameEngine Pages: 1 -->
<svg width="204pt" height="295pt"
 viewBox="0.00 0.00 203.52 295.00" xmlns="http://www.w3.org/2000/svg" xmlns:xlink="http://www.w3.org/1999/xlink">
<g id="graph0" class="graph" transform="scale(1 1) rotate(0) translate(4 291)">
<title>engine/GameEngine</title>
<g id="clust1" class="cluster"><title>clusterdir_996f45160da62e1a3d7f6046fad68f51</title>
<g id="a_clust1"><a xlink:href="dir_996f45160da62e1a3d7f6046fad68f51.html" target="_top" xlink:title="engine">
<polygon fill="#ddddee" stroke="black" points="41.2997,-208 41.2997,-279 131.3,-279 131.3,-208 41.2997,-208"/>
<text text-anchor="middle" x="86.2997" y="-267" font-family="Helvetica,sans-Serif" font-size="10.00">engine</text>
</a>
</g>
</g>
<!-- dir_4c761d917b3d7065665124abac5e2195 -->
<g id="node1" class="node"><title>dir_4c761d917b3d7065665124abac5e2195</title>
<g id="a_node1"><a xlink:href="dir_4c761d917b3d7065665124abac5e2195.html" target="_top" xlink:title="GameEngine">
<polygon fill="#eeeeff" stroke="black" points="122.8,-252 49.7997,-252 49.7997,-216 122.8,-216 122.8,-252"/>
<text text-anchor="middle" x="86.2997" y="-231.5" font-family="Helvetica,sans-Serif" font-size="10.00">GameEngine</text>
</a>
</g>
</g>
<!-- dir_ba775a609e100e11fec950409e9afc1d -->
<g id="node2" class="node"><title>dir_ba775a609e100e11fec950409e9afc1d</title>
<g id="a_node2"><a xlink:href="dir_ba775a609e100e11fec950409e9afc1d.html" target="_top" xlink:title="Scene">
<polygon fill="none" stroke="black" points="157.3,-108 103.3,-108 103.3,-72 157.3,-72 157.3,-108"/>
<text text-anchor="middle" x="130.3" y="-87.5" font-family="Helvetica,sans-Serif" font-size="10.00">Scene</text>
</a>
</g>
</g>
<!-- dir_4c761d917b3d7065665124abac5e2195&#45;&gt;dir_ba775a609e100e11fec950409e9afc1d -->
<g id="edge4" class="edge"><title>dir_4c761d917b3d7065665124abac5e2195&#45;&gt;dir_ba775a609e100e11fec950409e9afc1d</title>
<path fill="none" stroke="black" d="M49.7304,-218.499C33.3248,-209.933 15.6011,-197.32 6.29971,-180 -1.2704,-165.904 -2.51465,-157.353 6.29971,-144 25.4515,-114.986 64.1058,-101.799 93.1942,-95.8401"/>
<polygon fill="black" stroke="black" points="93.8399,-99.2801 103.036,-94.0196 92.5667,-92.3968 93.8399,-99.2801"/>
<g id="a_edge4&#45;headlabel"><a xlink:href="dir_000005_000015.html" target="_top" xlink:title="1">
<text text-anchor="middle" x="90.8216" y="-100.226" font-family="Helvetica,sans-Serif" font-size="10.00">1</text>
</a>
</g>
</g>
<!-- dir_9257174f690635f75a6c414b151b5118 -->
<g id="node3" class="node"><title>dir_9257174f690635f75a6c414b151b5118</title>
<g id="a_node3"><a xlink:href="dir_9257174f690635f75a6c414b151b5118.html" target="_top" xlink:title="window">
<polygon fill="none" stroke="black" points="69.2997,-180 15.2997,-180 15.2997,-144 69.2997,-144 69.2997,-180"/>
<text text-anchor="middle" x="42.2997" y="-159.5" font-family="Helvetica,sans-Serif" font-size="10.00">window</text>
</a>
</g>
</g>
<!-- dir_4c761d917b3d7065665124abac5e2195&#45;&gt;dir_9257174f690635f75a6c414b151b5118 -->
<g id="edge5" class="edge"><title>dir_4c761d917b3d7065665124abac5e2195&#45;&gt;dir_9257174f690635f75a6c414b151b5118</title>
<path fill="none" stroke="black" d="M69.5076,-215.697C63.615,-207.644 57.2766,-197.894 52.0847,-188.982"/>
<polygon fill="black" stroke="black" points="55.0699,-187.149 47.156,-180.104 48.9497,-190.546 55.0699,-187.149"/>
<g id="a_edge5&#45;headlabel"><a xlink:href="dir_000005_000026.html" target="_top" xlink:title="1">
<text text-anchor="middle" x="59.2969" y="-186.413" font-family="Helvetica,sans-Serif" font-size="10.00">1</text>
</a>
</g>
</g>
<!-- dir_b7a1b3aac5fc8229ebcf624041b688b6 -->
<g id="node4" class="node"><title>dir_b7a1b3aac5fc8229ebcf624041b688b6</title>
<g id="a_node4"><a xlink:href="dir_b7a1b3aac5fc8229ebcf624041b688b6.html" target="_top" xlink:title="AssimpImporter">
<polygon fill="none" stroke="black" points="173.3,-180 87.2997,-180 87.2997,-144 173.3,-144 173.3,-180"/>
<text text-anchor="middle" x="130.3" y="-159.5" font-family="Helvetica,sans-Serif" font-size="10.00">AssimpImporter</text>
</a>
</g>
</g>
<!-- dir_4c761d917b3d7065665124abac5e2195&#45;&gt;dir_b7a1b3aac5fc8229ebcf624041b688b6 -->
<g id="edge6" class="edge"><title>dir_4c761d917b3d7065665124abac5e2195&#45;&gt;dir_b7a1b3aac5fc8229ebcf624041b688b6</title>
<path fill="none" stroke="black" d="M97.1761,-215.697C102.291,-207.559 108.495,-197.689 114.145,-188.701"/>
<polygon fill="black" stroke="black" points="117.19,-190.433 119.548,-180.104 111.263,-186.708 117.19,-190.433"/>
<g id="a_edge6&#45;headlabel"><a xlink:href="dir_000005_000001.html" target="_top" xlink:title="1">
<text text-anchor="middle" x="117.681" y="-192.488" font-family="Helvetica,sans-Serif" font-size="10.00">1</text>
</a>
</g>
</g>
<!-- dir_d186e51cee5d13416ee677b4100a6cb0 -->
<g id="node5" class="node"><title>dir_d186e51cee5d13416ee677b4100a6cb0</title>
<g id="a_node5"><a xlink:href="dir_d186e51cee5d13416ee677b4100a6cb0.html" target="_top" xlink:title="Primitives">
<polygon fill="none" stroke="red" points="195.3,-36 135.3,-36 135.3,-0 195.3,-0 195.3,-36"/>
<text text-anchor="middle" x="165.3" y="-15.5" font-family="Helvetica,sans-Serif" font-size="10.00">Primitives</text>
</a>
</g>
</g>
<!-- dir_4c761d917b3d7065665124abac5e2195&#45;&gt;dir_d186e51cee5d13416ee677b4100a6cb0 -->
<g id="edge7" class="edge"><title>dir_4c761d917b3d7065665124abac5e2195&#45;&gt;dir_d186e51cee5d13416ee677b4100a6cb0</title>
<path fill="none" stroke="black" d="M123.06,-222.975C144.402,-215.057 169.527,-201.642 182.3,-180 206.898,-138.321 190.716,-79.8728 177.483,-46.0691"/>
<polygon fill="black" stroke="black" points="180.555,-44.3366 173.519,-36.4153 174.08,-46.9953 180.555,-44.3366"/>
<g id="a_edge7&#45;headlabel"><a xlink:href="dir_000005_000011.html" target="_top" xlink:title="1">
<text text-anchor="middle" x="184.547" y="-44.0835" font-family="Helvetica,sans-Serif" font-size="10.00">1</text>
</a>
</g>
</g>
<!-- dir_ba775a609e100e11fec950409e9afc1d&#45;&gt;dir_d186e51cee5d13416ee677b4100a6cb0 -->
<g id="edge1" class="edge"><title>dir_ba775a609e100e11fec950409e9afc1d&#45;&gt;dir_d186e51cee5d13416ee677b4100a6cb0</title>
<path fill="none" stroke="black" d="M138.951,-71.6966C142.936,-63.7284 147.75,-54.0995 152.168,-45.2641"/>
<polygon fill="black" stroke="black" points="155.406,-46.6139 156.748,-36.1043 149.145,-43.4833 155.406,-46.6139"/>
<g id="a_edge1&#45;headlabel"><a xlink:href="dir_000015_000011.html" target="_top" xlink:title="1">
<text text-anchor="middle" x="156.338" y="-48.5987" font-family="Helvetica,sans-Serif" font-size="10.00">1</text>
</a>
</g>
</g>
<!-- dir_9257174f690635f75a6c414b151b5118&#45;&gt;dir_4c761d917b3d7065665124abac5e2195 -->
<g id="edge2" class="edge"><title>dir_9257174f690635f75a6c414b151b5118&#45;&gt;dir_4c761d917b3d7065665124abac5e2195</title>
<path fill="none" stroke="black" d="M58.946,-180.104C64.8311,-188.129 71.1752,-197.871 76.3859,-206.797"/>
<polygon fill="black" stroke="black" points="73.4177,-208.661 81.339,-215.697 79.5343,-205.257 73.4177,-208.661"/>
<g id="a_edge2&#45;headlabel"><a xlink:href="dir_000026_000005.html" target="_top" xlink:title="2">
<text text-anchor="middle" x="69.1888" y="-204.401" font-family="Helvetica,sans-Serif" font-size="10.00">2</text>
</a>
</g>
</g>
<!-- dir_b7a1b3aac5fc8229ebcf624041b688b6&#45;&gt;dir_ba775a609e100e11fec950409e9afc1d -->
<g id="edge3" class="edge"><title>dir_b7a1b3aac5fc8229ebcf624041b688b6&#45;&gt;dir_ba775a609e100e11fec950409e9afc1d</title>
<path fill="none" stroke="black" d="M130.3,-143.697C130.3,-135.983 130.3,-126.712 130.3,-118.112"/>
<polygon fill="black" stroke="black" points="133.8,-118.104 130.3,-108.104 126.8,-118.104 133.8,-118.104"/>
<g id="a_edge3&#45;headlabel"><a xlink:href="dir_000001_000015.html" target="_top" xlink:title="1">
<text text-anchor="middle" x="136.639" y="-119.199" font-family="Helvetica,sans-Serif" font-size="10.00">1</text>
</a>
</g>
</g>
</g>
</svg>
