<?xml version="1.0" encoding="UTF-8" standalone="no"?>
<!DOCTYPE svg PUBLIC "-//W3C//DTD SVG 1.1//EN"
 "http://www.w3.org/Graphics/SVG/1.1/DTD/svg11.dtd">
<!-- Generated by graphviz version 2.38.0 (20140413.2041)
 -->
<!-- Title: engine Pages: 1 -->
<svg width="524pt" height="508pt"
 viewBox="0.00 0.00 524.00 508.00" xmlns="http://www.w3.org/2000/svg" xmlns:xlink="http://www.w3.org/1999/xlink">
<g id="graph0" class="graph" transform="scale(1 1) rotate(0) translate(4 504)">
<title>engine</title>
<g id="clust1" class="cluster"><title>clusterdir_996f45160da62e1a3d7f6046fad68f51</title>
<g id="a_clust1"><a xlink:href="dir_996f45160da62e1a3d7f6046fad68f51.html" target="_top">
<polygon fill="#eeeeff" stroke="black" points="8,-8 8,-492 344,-492 344,-8 8,-8"/>
</a>
</g>
</g>
<!-- dir_996f45160da62e1a3d7f6046fad68f51 -->
<g id="node1" class="node"><title>dir_996f45160da62e1a3d7f6046fad68f51</title>
<text text-anchor="middle" x="223" y="-463.5" font-family="Helvetica,sans-Serif" font-size="10.00">engine</text>
</g>
<!-- dir_b7a1b3aac5fc8229ebcf624041b688b6 -->
<g id="node2" class="node"><title>dir_b7a1b3aac5fc8229ebcf624041b688b6</title>
<g id="a_node2"><a xlink:href="dir_b7a1b3aac5fc8229ebcf624041b688b6.html" target="_top" xlink:title="AssimpImporter">
<polygon fill="white" stroke="black" points="197,-412 111,-412 111,-376 197,-376 197,-412"/>
<text text-anchor="middle" x="154" y="-391.5" font-family="Helvetica,sans-Serif" font-size="10.00">AssimpImporter</text>
</a>
</g>
</g>
<!-- dir_3a555b69b7795839eed54f72b7b4132a -->
<g id="node7" class="node"><title>dir_3a555b69b7795839eed54f72b7b4132a</title>
<g id="a_node7"><a xlink:href="dir_3a555b69b7795839eed54f72b7b4132a.html" target="_top" xlink:title="GameObject">
<polygon fill="white" stroke="red" points="192.5,-196 121.5,-196 121.5,-160 192.5,-160 192.5,-196"/>
<text text-anchor="middle" x="157" y="-175.5" font-family="Helvetica,sans-Serif" font-size="10.00">GameObject</text>
</a>
</g>
</g>
<!-- dir_b7a1b3aac5fc8229ebcf624041b688b6&#45;&gt;dir_3a555b69b7795839eed54f72b7b4132a -->
<g id="edge18" class="edge"><title>dir_b7a1b3aac5fc8229ebcf624041b688b6&#45;&gt;dir_3a555b69b7795839eed54f72b7b4132a</title>
<path fill="none" stroke="black" d="M154.24,-375.849C154.759,-338.832 155.988,-251.181 156.616,-206.386"/>
<polygon fill="black" stroke="black" points="160.118,-206.281 156.758,-196.232 153.118,-206.182 160.118,-206.281"/>
<g id="a_edge18&#45;headlabel"><a xlink:href="dir_000001_000006.html" target="_top" xlink:title="1">
<text text-anchor="middle" x="162.907" y="-207.415" font-family="Helvetica,sans-Serif" font-size="10.00">1</text>
</a>
</g>
</g>
<!-- dir_ba775a609e100e11fec950409e9afc1d -->
<g id="node13" class="node"><title>dir_ba775a609e100e11fec950409e9afc1d</title>
<g id="a_node13"><a xlink:href="dir_ba775a609e100e11fec950409e9afc1d.html" target="_top" xlink:title="Scene">
<polygon fill="white" stroke="black" points="235,-340 181,-340 181,-304 235,-304 235,-340"/>
<text text-anchor="middle" x="208" y="-319.5" font-family="Helvetica,sans-Serif" font-size="10.00">Scene</text>
</a>
</g>
</g>
<!-- dir_b7a1b3aac5fc8229ebcf624041b688b6&#45;&gt;dir_ba775a609e100e11fec950409e9afc1d -->
<g id="edge19" class="edge"><title>dir_b7a1b3aac5fc8229ebcf624041b688b6&#45;&gt;dir_ba775a609e100e11fec950409e9afc1d</title>
<path fill="none" stroke="black" d="M167.348,-375.697C173.757,-367.389 181.558,-357.277 188.606,-348.141"/>
<polygon fill="black" stroke="black" points="191.468,-350.16 194.805,-340.104 185.926,-345.884 191.468,-350.16"/>
<g id="a_edge19&#45;headlabel"><a xlink:href="dir_000001_000015.html" target="_top" xlink:title="1">
<text text-anchor="middle" x="191.521" y="-352.24" font-family="Helvetica,sans-Serif" font-size="10.00">1</text>
</a>
</g>
</g>
<!-- dir_f6d700fdd15b5878ddf9766ea840a413 -->
<g id="node3" class="node"><title>dir_f6d700fdd15b5878ddf9766ea840a413</title>
<g id="a_node3"><a xlink:href="dir_f6d700fdd15b5878ddf9766ea840a413.html" target="_top" xlink:title="BufferObject">
<polygon fill="white" stroke="black" points="202.5,-52 131.5,-52 131.5,-16 202.5,-16 202.5,-52"/>
<text text-anchor="middle" x="167" y="-31.5" font-family="Helvetica,sans-Serif" font-size="10.00">BufferObject</text>
</a>
</g>
</g>
<!-- dir_9257174f690635f75a6c414b151b5118 -->
<g id="node16" class="node"><title>dir_9257174f690635f75a6c414b151b5118</title>
<g id="a_node16"><a xlink:href="dir_9257174f690635f75a6c414b151b5118.html" target="_top" xlink:title="window">
<polygon fill="none" stroke="black" points="406,-52 352,-52 352,-16 406,-16 406,-52"/>
<text text-anchor="middle" x="379" y="-31.5" font-family="Helvetica,sans-Serif" font-size="10.00">window</text>
</a>
</g>
</g>
<!-- dir_f6d700fdd15b5878ddf9766ea840a413&#45;&gt;dir_9257174f690635f75a6c414b151b5118 -->
<g id="edge27" class="edge"><title>dir_f6d700fdd15b5878ddf9766ea840a413&#45;&gt;dir_9257174f690635f75a6c414b151b5118</title>
<path fill="none" stroke="black" d="M202.609,-34C248.935,-34 295.26,-34 341.586,-34"/>
<polygon fill="black" stroke="black" points="341.784,-37.5001 351.783,-34 341.783,-30.5001 341.784,-37.5001"/>
<g id="a_edge27&#45;headlabel"><a xlink:href="dir_000002_000026.html" target="_top" xlink:title="1">
<text text-anchor="middle" x="338.189" y="-37.8393" font-family="Helvetica,sans-Serif" font-size="10.00">1</text>
</a>
</g>
</g>
<!-- dir_4b71b285adca0ee8727c2f059697f1fe -->
<g id="node4" class="node"><title>dir_4b71b285adca0ee8727c2f059697f1fe</title>
<g id="a_node4"><a xlink:href="dir_4b71b285adca0ee8727c2f059697f1fe.html" target="_top" xlink:title="Camera">
<polygon fill="white" stroke="black" points="322,-268 268,-268 268,-232 322,-232 322,-268"/>
<text text-anchor="middle" x="295" y="-247.5" font-family="Helvetica,sans-Serif" font-size="10.00">Camera</text>
</a>
</g>
</g>
<!-- dir_4b71b285adca0ee8727c2f059697f1fe&#45;&gt;dir_3a555b69b7795839eed54f72b7b4132a -->
<g id="edge29" class="edge"><title>dir_4b71b285adca0ee8727c2f059697f1fe&#45;&gt;dir_3a555b69b7795839eed54f72b7b4132a</title>
<path fill="none" stroke="black" d="M267.736,-235.17C248.354,-225.339 221.934,-211.937 199.761,-200.691"/>
<polygon fill="black" stroke="black" points="201.053,-197.421 190.552,-196.019 197.887,-203.664 201.053,-197.421"/>
<g id="a_edge29&#45;headlabel"><a xlink:href="dir_000003_000006.html" target="_top" xlink:title="1">
<text text-anchor="middle" x="205.544" y="-194.015" font-family="Helvetica,sans-Serif" font-size="10.00">1</text>
</a>
</g>
</g>
<!-- dir_c9dbd819322c113e6234637a00e97751 -->
<g id="node15" class="node"><title>dir_c9dbd819322c113e6234637a00e97751</title>
<g id="a_node15"><a xlink:href="dir_c9dbd819322c113e6234637a00e97751.html" target="_top" xlink:title="Transform">
<polygon fill="white" stroke="black" points="335.5,-124 274.5,-124 274.5,-88 335.5,-88 335.5,-124"/>
<text text-anchor="middle" x="305" y="-103.5" font-family="Helvetica,sans-Serif" font-size="10.00">Transform</text>
</a>
</g>
</g>
<!-- dir_4b71b285adca0ee8727c2f059697f1fe&#45;&gt;dir_c9dbd819322c113e6234637a00e97751 -->
<g id="edge28" class="edge"><title>dir_4b71b285adca0ee8727c2f059697f1fe&#45;&gt;dir_c9dbd819322c113e6234637a00e97751</title>
<path fill="none" stroke="black" d="M296.206,-231.871C297.911,-207.67 301.041,-163.211 303.071,-134.393"/>
<polygon fill="black" stroke="black" points="306.578,-134.41 303.789,-124.189 299.596,-133.919 306.578,-134.41"/>
<g id="a_edge28&#45;headlabel"><a xlink:href="dir_000003_000024.html" target="_top" xlink:title="1">
<text text-anchor="middle" x="309.158" y="-135.696" font-family="Helvetica,sans-Serif" font-size="10.00">1</text>
</a>
</g>
</g>
<!-- dir_4b71b285adca0ee8727c2f059697f1fe&#45;&gt;dir_9257174f690635f75a6c414b151b5118 -->
<g id="edge30" class="edge"><title>dir_4b71b285adca0ee8727c2f059697f1fe&#45;&gt;dir_9257174f690635f75a6c414b151b5118</title>
<path fill="none" stroke="black" d="M301.732,-231.849C316.324,-194.675 350.959,-106.439 368.472,-61.8204"/>
<polygon fill="black" stroke="black" points="371.84,-62.8199 372.236,-52.2325 365.324,-60.2622 371.84,-62.8199"/>
<g id="a_edge30&#45;headlabel"><a xlink:href="dir_000003_000026.html" target="_top" xlink:title="1">
<text text-anchor="middle" x="373.17" y="-64.7034" font-family="Helvetica,sans-Serif" font-size="10.00">1</text>
</a>
</g>
</g>
<!-- dir_85eda2cf83d057042b8d455297085bdf -->
<g id="node5" class="node"><title>dir_85eda2cf83d057042b8d455297085bdf</title>
<g id="a_node5"><a xlink:href="dir_85eda2cf83d057042b8d455297085bdf.html" target="_top" xlink:title="GameClock">
<polygon fill="white" stroke="black" points="336,-484 268,-484 268,-448 336,-448 336,-484"/>
<text text-anchor="middle" x="302" y="-463.5" font-family="Helvetica,sans-Serif" font-size="10.00">GameClock</text>
</a>
</g>
</g>
<!-- dir_4c761d917b3d7065665124abac5e2195 -->
<g id="node6" class="node"><title>dir_4c761d917b3d7065665124abac5e2195</title>
<g id="a_node6"><a xlink:href="dir_4c761d917b3d7065665124abac5e2195.html" target="_top" xlink:title="GameEngine">
<polygon fill="white" stroke="black" points="177.5,-484 104.5,-484 104.5,-448 177.5,-448 177.5,-484"/>
<text text-anchor="middle" x="141" y="-463.5" font-family="Helvetica,sans-Serif" font-size="10.00">GameEngine</text>
</a>
</g>
</g>
<!-- dir_4c761d917b3d7065665124abac5e2195&#45;&gt;dir_b7a1b3aac5fc8229ebcf624041b688b6 -->
<g id="edge22" class="edge"><title>dir_4c761d917b3d7065665124abac5e2195&#45;&gt;dir_b7a1b3aac5fc8229ebcf624041b688b6</title>
<path fill="none" stroke="black" d="M144.213,-447.697C145.646,-439.983 147.368,-430.712 148.965,-422.112"/>
<polygon fill="black" stroke="black" points="152.439,-422.575 150.823,-412.104 145.556,-421.297 152.439,-422.575"/>
<g id="a_edge22&#45;headlabel"><a xlink:href="dir_000005_000001.html" target="_top" xlink:title="1">
<text text-anchor="middle" x="154.574" y="-424.128" font-family="Helvetica,sans-Serif" font-size="10.00">1</text>
</a>
</g>
</g>
<!-- dir_d186e51cee5d13416ee677b4100a6cb0 -->
<g id="node11" class="node"><title>dir_d186e51cee5d13416ee677b4100a6cb0</title>
<g id="a_node11"><a xlink:href="dir_d186e51cee5d13416ee677b4100a6cb0.html" target="_top" xlink:title="Primitives">
<polygon fill="white" stroke="red" points="132,-268 72,-268 72,-232 132,-232 132,-268"/>
<text text-anchor="middle" x="102" y="-247.5" font-family="Helvetica,sans-Serif" font-size="10.00">Primitives</text>
</a>
</g>
</g>
<!-- dir_4c761d917b3d7065665124abac5e2195&#45;&gt;dir_d186e51cee5d13416ee677b4100a6cb0 -->
<g id="edge23" class="edge"><title>dir_4c761d917b3d7065665124abac5e2195&#45;&gt;dir_d186e51cee5d13416ee677b4100a6cb0</title>
<path fill="none" stroke="black" d="M124.11,-447.993C115.707,-438.315 106.418,-425.459 102,-412 87.2747,-367.144 91.9806,-311.392 96.887,-278.649"/>
<polygon fill="black" stroke="black" points="100.391,-278.906 98.5308,-268.476 93.4803,-277.79 100.391,-278.906"/>
<g id="a_edge23&#45;headlabel"><a xlink:href="dir_000005_000011.html" target="_top" xlink:title="1">
<text text-anchor="middle" x="102.62" y="-280.408" font-family="Helvetica,sans-Serif" font-size="10.00">1</text>
</a>
</g>
</g>
<!-- dir_4c761d917b3d7065665124abac5e2195&#45;&gt;dir_ba775a609e100e11fec950409e9afc1d -->
<g id="edge20" class="edge"><title>dir_4c761d917b3d7065665124abac5e2195&#45;&gt;dir_ba775a609e100e11fec950409e9afc1d</title>
<path fill="none" stroke="black" d="M172.083,-447.935C185.024,-439.054 198.711,-426.913 206,-412 215.361,-392.848 215.215,-368.497 213.09,-350.11"/>
<polygon fill="black" stroke="black" points="216.534,-349.468 211.666,-340.057 209.603,-350.449 216.534,-349.468"/>
<g id="a_edge20&#45;headlabel"><a xlink:href="dir_000005_000015.html" target="_top" xlink:title="1">
<text text-anchor="middle" x="219.849" y="-350.129" font-family="Helvetica,sans-Serif" font-size="10.00">1</text>
</a>
</g>
</g>
<!-- dir_4c761d917b3d7065665124abac5e2195&#45;&gt;dir_9257174f690635f75a6c414b151b5118 -->
<g id="edge21" class="edge"><title>dir_4c761d917b3d7065665124abac5e2195&#45;&gt;dir_9257174f690635f75a6c414b151b5118</title>
<path fill="none" stroke="black" d="M177.566,-449.301C249.397,-417.908 402,-348.244 402,-323 402,-323 402,-323 402,-177 402,-136.696 392.86,-90.7758 386.103,-62.3373"/>
<polygon fill="black" stroke="black" points="389.433,-61.222 383.654,-52.3421 382.635,-62.8877 389.433,-61.222"/>
<g id="a_edge21&#45;headlabel"><a xlink:href="dir_000005_000026.html" target="_top" xlink:title="1">
<text text-anchor="middle" x="393.046" y="-61.5378" font-family="Helvetica,sans-Serif" font-size="10.00">1</text>
</a>
</g>
</g>
<!-- dir_b41e47541e4ab589c73a15e470a6bf7f -->
<g id="node9" class="node"><title>dir_b41e47541e4ab589c73a15e470a6bf7f</title>
<g id="a_node9"><a xlink:href="dir_b41e47541e4ab589c73a15e470a6bf7f.html" target="_top" xlink:title="Material">
<polygon fill="white" stroke="black" points="110,-124 56,-124 56,-88 110,-88 110,-124"/>
<text text-anchor="middle" x="83" y="-103.5" font-family="Helvetica,sans-Serif" font-size="10.00">Material</text>
</a>
</g>
</g>
<!-- dir_3a555b69b7795839eed54f72b7b4132a&#45;&gt;dir_b41e47541e4ab589c73a15e470a6bf7f -->
<g id="edge3" class="edge"><title>dir_3a555b69b7795839eed54f72b7b4132a&#45;&gt;dir_b41e47541e4ab589c73a15e470a6bf7f</title>
<path fill="none" stroke="black" d="M138.708,-159.697C129.567,-151.05 118.36,-140.449 108.4,-131.027"/>
<polygon fill="black" stroke="black" points="110.752,-128.434 101.082,-124.104 105.941,-133.519 110.752,-128.434"/>
<g id="a_edge3&#45;headlabel"><a xlink:href="dir_000006_000009.html" target="_top" xlink:title="1">
<text text-anchor="middle" x="115.314" y="-126.341" font-family="Helvetica,sans-Serif" font-size="10.00">1</text>
</a>
</g>
</g>
<!-- dir_c7f0c751fa7d09d1405d1c0441c3546f -->
<g id="node10" class="node"><title>dir_c7f0c751fa7d09d1405d1c0441c3546f</title>
<g id="a_node10"><a xlink:href="dir_c7f0c751fa7d09d1405d1c0441c3546f.html" target="_top" xlink:title="Mesh">
<polygon fill="white" stroke="black" points="182,-124 128,-124 128,-88 182,-88 182,-124"/>
<text text-anchor="middle" x="155" y="-103.5" font-family="Helvetica,sans-Serif" font-size="10.00">Mesh</text>
</a>
</g>
</g>
<!-- dir_3a555b69b7795839eed54f72b7b4132a&#45;&gt;dir_c7f0c751fa7d09d1405d1c0441c3546f -->
<g id="edge4" class="edge"><title>dir_3a555b69b7795839eed54f72b7b4132a&#45;&gt;dir_c7f0c751fa7d09d1405d1c0441c3546f</title>
<path fill="none" stroke="black" d="M156.506,-159.697C156.285,-151.983 156.02,-142.712 155.775,-134.112"/>
<polygon fill="black" stroke="black" points="159.273,-134 155.489,-124.104 152.276,-134.2 159.273,-134"/>
<g id="a_edge4&#45;headlabel"><a xlink:href="dir_000006_000010.html" target="_top" xlink:title="1">
<text text-anchor="middle" x="162.214" y="-135.012" font-family="Helvetica,sans-Serif" font-size="10.00">1</text>
</a>
</g>
</g>
<!-- dir_37e584d61c1ad01a0f32aaf99da6b41e -->
<g id="node12" class="node"><title>dir_37e584d61c1ad01a0f32aaf99da6b41e</title>
<g id="a_node12"><a xlink:href="dir_37e584d61c1ad01a0f32aaf99da6b41e.html" target="_top" xlink:title="Renderer">
<polygon fill="white" stroke="red" points="256,-124 200,-124 200,-88 256,-88 256,-124"/>
<text text-anchor="middle" x="228" y="-103.5" font-family="Helvetica,sans-Serif" font-size="10.00">Renderer</text>
</a>
</g>
</g>
<!-- dir_3a555b69b7795839eed54f72b7b4132a&#45;&gt;dir_37e584d61c1ad01a0f32aaf99da6b41e -->
<g id="edge6" class="edge"><title>dir_3a555b69b7795839eed54f72b7b4132a&#45;&gt;dir_37e584d61c1ad01a0f32aaf99da6b41e</title>
<path fill="none" stroke="black" d="M174.551,-159.697C183.234,-151.135 193.863,-140.656 203.348,-131.304"/>
<polygon fill="black" stroke="black" points="205.988,-133.617 210.651,-124.104 201.073,-128.633 205.988,-133.617"/>
<g id="a_edge6&#45;headlabel"><a xlink:href="dir_000006_000013.html" target="_top" xlink:title="2">
<text text-anchor="middle" x="205.421" y="-135.663" font-family="Helvetica,sans-Serif" font-size="10.00">2</text>
</a>
</g>
</g>
<!-- dir_6e4d7cc950507c27f994556db83bd942 -->
<g id="node14" class="node"><title>dir_6e4d7cc950507c27f994556db83bd942</title>
<g id="a_node14"><a xlink:href="dir_6e4d7cc950507c27f994556db83bd942.html" target="_top" xlink:title="Shaders">
<polygon fill="white" stroke="red" points="98,-52 44,-52 44,-16 98,-16 98,-52"/>
<text text-anchor="middle" x="71" y="-31.5" font-family="Helvetica,sans-Serif" font-size="10.00">Shaders</text>
</a>
</g>
</g>
<!-- dir_3a555b69b7795839eed54f72b7b4132a&#45;&gt;dir_6e4d7cc950507c27f994556db83bd942 -->
<g id="edge5" class="edge"><title>dir_3a555b69b7795839eed54f72b7b4132a&#45;&gt;dir_6e4d7cc950507c27f994556db83bd942</title>
<path fill="none" stroke="black" d="M121.316,-170.213C95.7856,-163.293 63.1817,-149.759 47,-124 34.9838,-104.872 43.5149,-79.7801 53.5878,-61.1162"/>
<polygon fill="black" stroke="black" points="56.7325,-62.6707 58.7336,-52.2666 50.6812,-59.152 56.7325,-62.6707"/>
<g id="a_edge5&#45;headlabel"><a xlink:href="dir_000006_000016.html" target="_top" xlink:title="1">
<text text-anchor="middle" x="57.3801" y="-64.7054" font-family="Helvetica,sans-Serif" font-size="10.00">1</text>
</a>
</g>
</g>
<!-- dir_3a555b69b7795839eed54f72b7b4132a&#45;&gt;dir_c9dbd819322c113e6234637a00e97751 -->
<g id="edge2" class="edge"><title>dir_3a555b69b7795839eed54f72b7b4132a&#45;&gt;dir_c9dbd819322c113e6234637a00e97751</title>
<path fill="none" stroke="black" d="M192.827,-160.055C214.535,-149.788 242.278,-136.666 264.742,-126.041"/>
<polygon fill="black" stroke="black" points="266.47,-129.095 274.014,-121.656 263.477,-122.767 266.47,-129.095"/>
<g id="a_edge2&#45;headlabel"><a xlink:href="dir_000006_000024.html" target="_top" xlink:title="1">
<text text-anchor="middle" x="264.435" y="-130.699" font-family="Helvetica,sans-Serif" font-size="10.00">1</text>
</a>
</g>
</g>
<!-- dir_d0d75729f6392f71d180a932040f5f47 -->
<g id="node8" class="node"><title>dir_d0d75729f6392f71d180a932040f5f47</title>
<g id="a_node8"><a xlink:href="dir_d0d75729f6392f71d180a932040f5f47.html" target="_top" xlink:title="Light">
<polygon fill="white" stroke="black" points="247,-268 193,-268 193,-232 247,-232 247,-268"/>
<text text-anchor="middle" x="220" y="-247.5" font-family="Helvetica,sans-Serif" font-size="10.00">Light</text>
</a>
</g>
</g>
<!-- dir_b41e47541e4ab589c73a15e470a6bf7f&#45;&gt;dir_6e4d7cc950507c27f994556db83bd942 -->
<g id="edge1" class="edge"><title>dir_b41e47541e4ab589c73a15e470a6bf7f&#45;&gt;dir_6e4d7cc950507c27f994556db83bd942</title>
<path fill="none" stroke="black" d="M80.0337,-87.6966C78.7113,-79.9827 77.1221,-70.7125 75.6478,-62.1124"/>
<polygon fill="black" stroke="black" points="79.0716,-61.3692 73.9322,-52.1043 72.1722,-62.552 79.0716,-61.3692"/>
<g id="a_edge1&#45;headlabel"><a xlink:href="dir_000009_000016.html" target="_top" xlink:title="1">
<text text-anchor="middle" x="82.4773" y="-61.9324" font-family="Helvetica,sans-Serif" font-size="10.00">1</text>
</a>
</g>
</g>
<!-- dir_c7f0c751fa7d09d1405d1c0441c3546f&#45;&gt;dir_f6d700fdd15b5878ddf9766ea840a413 -->
<g id="edge12" class="edge"><title>dir_c7f0c751fa7d09d1405d1c0441c3546f&#45;&gt;dir_f6d700fdd15b5878ddf9766ea840a413</title>
<path fill="none" stroke="black" d="M157.966,-87.6966C159.289,-79.9827 160.878,-70.7125 162.352,-62.1124"/>
<polygon fill="black" stroke="black" points="165.828,-62.552 164.068,-52.1043 158.928,-61.3692 165.828,-62.552"/>
<g id="a_edge12&#45;headlabel"><a xlink:href="dir_000010_000002.html" target="_top" xlink:title="1">
<text text-anchor="middle" x="168.019" y="-64.0746" font-family="Helvetica,sans-Serif" font-size="10.00">1</text>
</a>
</g>
</g>
<!-- dir_c7f0c751fa7d09d1405d1c0441c3546f&#45;&gt;dir_9257174f690635f75a6c414b151b5118 -->
<g id="edge11" class="edge"><title>dir_c7f0c751fa7d09d1405d1c0441c3546f&#45;&gt;dir_9257174f690635f75a6c414b151b5118</title>
<path fill="none" stroke="black" d="M182.263,-91.3809C185.177,-90.1501 188.126,-88.9949 191,-88 255.478,-65.6773 278.886,-76.3262 342.174,-53.985"/>
<polygon fill="black" stroke="black" points="343.633,-57.1777 351.811,-50.4415 341.218,-50.6078 343.633,-57.1777"/>
<g id="a_edge11&#45;headlabel"><a xlink:href="dir_000010_000026.html" target="_top" xlink:title="1">
<text text-anchor="middle" x="341.24" y="-58.583" font-family="Helvetica,sans-Serif" font-size="10.00">1</text>
</a>
</g>
</g>
<!-- dir_d186e51cee5d13416ee677b4100a6cb0&#45;&gt;dir_3a555b69b7795839eed54f72b7b4132a -->
<g id="edge24" class="edge"><title>dir_d186e51cee5d13416ee677b4100a6cb0&#45;&gt;dir_3a555b69b7795839eed54f72b7b4132a</title>
<path fill="none" stroke="black" d="M115.596,-231.697C122.123,-223.389 130.068,-213.277 137.247,-204.141"/>
<polygon fill="black" stroke="black" points="140.135,-206.13 143.561,-196.104 134.631,-201.805 140.135,-206.13"/>
<g id="a_edge24&#45;headlabel"><a xlink:href="dir_000011_000006.html" target="_top" xlink:title="1">
<text text-anchor="middle" x="140.147" y="-208.211" font-family="Helvetica,sans-Serif" font-size="10.00">1</text>
</a>
</g>
</g>
<!-- dir_d186e51cee5d13416ee677b4100a6cb0&#45;&gt;dir_37e584d61c1ad01a0f32aaf99da6b41e -->
<g id="edge26" class="edge"><title>dir_d186e51cee5d13416ee677b4100a6cb0&#45;&gt;dir_37e584d61c1ad01a0f32aaf99da6b41e</title>
<path fill="none" stroke="black" d="M99.2573,-231.83C97.1434,-212.489 96.7535,-181.019 112,-160 132.974,-131.085 152.751,-138.613 190.331,-123.98"/>
<polygon fill="black" stroke="black" points="191.879,-127.126 199.722,-120.003 189.149,-120.68 191.879,-127.126"/>
<g id="a_edge26&#45;headlabel"><a xlink:href="dir_000011_000013.html" target="_top" xlink:title="1">
<text text-anchor="middle" x="189.676" y="-128.642" font-family="Helvetica,sans-Serif" font-size="10.00">1</text>
</a>
</g>
</g>
<!-- dir_d186e51cee5d13416ee677b4100a6cb0&#45;&gt;dir_6e4d7cc950507c27f994556db83bd942 -->
<g id="edge25" class="edge"><title>dir_d186e51cee5d13416ee677b4100a6cb0&#45;&gt;dir_6e4d7cc950507c27f994556db83bd942</title>
<path fill="none" stroke="black" d="M89.8365,-231.834C74.2359,-208.66 48.0008,-165.477 38,-124 34.2496,-108.446 33.6021,-103.384 38,-88 40.7131,-78.5097 45.6715,-69.0649 50.9347,-60.834"/>
<polygon fill="black" stroke="black" points="53.9221,-62.6657 56.6735,-52.4343 48.1423,-58.7168 53.9221,-62.6657"/>
<g id="a_edge25&#45;headlabel"><a xlink:href="dir_000011_000016.html" target="_top" xlink:title="1">
<text text-anchor="middle" x="54.2386" y="-64.7354" font-family="Helvetica,sans-Serif" font-size="10.00">1</text>
</a>
</g>
</g>
<!-- dir_37e584d61c1ad01a0f32aaf99da6b41e&#45;&gt;dir_9257174f690635f75a6c414b151b5118 -->
<g id="edge17" class="edge"><title>dir_37e584d61c1ad01a0f32aaf99da6b41e&#45;&gt;dir_9257174f690635f75a6c414b151b5118</title>
<path fill="none" stroke="black" d="M256.253,-91.9432C259.203,-90.6027 262.16,-89.2682 265,-88 298.703,-72.9502 310.041,-70.0982 342.46,-54.6245"/>
<polygon fill="black" stroke="black" points="344.213,-57.6648 351.687,-50.1562 341.162,-51.3646 344.213,-57.6648"/>
<g id="a_edge17&#45;headlabel"><a xlink:href="dir_000013_000026.html" target="_top" xlink:title="1">
<text text-anchor="middle" x="342.215" y="-59.2868" font-family="Helvetica,sans-Serif" font-size="10.00">1</text>
</a>
</g>
</g>
<!-- dir_ba775a609e100e11fec950409e9afc1d&#45;&gt;dir_4b71b285adca0ee8727c2f059697f1fe -->
<g id="edge10" class="edge"><title>dir_ba775a609e100e11fec950409e9afc1d&#45;&gt;dir_4b71b285adca0ee8727c2f059697f1fe</title>
<path fill="none" stroke="black" d="M229.506,-303.697C240.463,-294.881 253.946,-284.032 265.825,-274.474"/>
<polygon fill="black" stroke="black" points="268.145,-277.1 273.742,-268.104 263.756,-271.646 268.145,-277.1"/>
<g id="a_edge10&#45;headlabel"><a xlink:href="dir_000015_000003.html" target="_top" xlink:title="1">
<text text-anchor="middle" x="267.124" y="-279.066" font-family="Helvetica,sans-Serif" font-size="10.00">1</text>
</a>
</g>
</g>
<!-- dir_ba775a609e100e11fec950409e9afc1d&#45;&gt;dir_3a555b69b7795839eed54f72b7b4132a -->
<g id="edge7" class="edge"><title>dir_ba775a609e100e11fec950409e9afc1d&#45;&gt;dir_3a555b69b7795839eed54f72b7b4132a</title>
<path fill="none" stroke="black" d="M199.415,-303.576C194.553,-293.351 188.553,-280.101 184,-268 176.3,-247.534 169.191,-223.816 164.202,-206.013"/>
<polygon fill="black" stroke="black" points="167.552,-204.995 161.522,-196.284 160.804,-206.854 167.552,-204.995"/>
<g id="a_edge7&#45;headlabel"><a xlink:href="dir_000015_000006.html" target="_top" xlink:title="1">
<text text-anchor="middle" x="171.244" y="-205.206" font-family="Helvetica,sans-Serif" font-size="10.00">1</text>
</a>
</g>
</g>
<!-- dir_ba775a609e100e11fec950409e9afc1d&#45;&gt;dir_d0d75729f6392f71d180a932040f5f47 -->
<g id="edge8" class="edge"><title>dir_ba775a609e100e11fec950409e9afc1d&#45;&gt;dir_d0d75729f6392f71d180a932040f5f47</title>
<path fill="none" stroke="black" d="M210.966,-303.697C212.289,-295.983 213.878,-286.712 215.352,-278.112"/>
<polygon fill="black" stroke="black" points="218.828,-278.552 217.068,-268.104 211.928,-277.369 218.828,-278.552"/>
<g id="a_edge8&#45;headlabel"><a xlink:href="dir_000015_000008.html" target="_top" xlink:title="1">
<text text-anchor="middle" x="221.019" y="-280.075" font-family="Helvetica,sans-Serif" font-size="10.00">1</text>
</a>
</g>
</g>
<!-- dir_ba775a609e100e11fec950409e9afc1d&#45;&gt;dir_d186e51cee5d13416ee677b4100a6cb0 -->
<g id="edge9" class="edge"><title>dir_ba775a609e100e11fec950409e9afc1d&#45;&gt;dir_d186e51cee5d13416ee677b4100a6cb0</title>
<path fill="none" stroke="black" d="M182.069,-303.876C168.338,-294.808 151.294,-283.552 136.464,-273.759"/>
<polygon fill="black" stroke="black" points="138.304,-270.78 128.03,-268.19 134.446,-276.621 138.304,-270.78"/>
<g id="a_edge9&#45;headlabel"><a xlink:href="dir_000015_000011.html" target="_top" xlink:title="1">
<text text-anchor="middle" x="142.868" y="-267.891" font-family="Helvetica,sans-Serif" font-size="10.00">1</text>
</a>
</g>
</g>
<!-- dir_6e4d7cc950507c27f994556db83bd942&#45;&gt;dir_9257174f690635f75a6c414b151b5118 -->
<g id="edge13" class="edge"><title>dir_6e4d7cc950507c27f994556db83bd942&#45;&gt;dir_9257174f690635f75a6c414b151b5118</title>
<path fill="none" stroke="black" d="M94.4346,-52.1007C104.999,-59.1545 118.005,-66.4006 131,-70 175.545,-82.3383 295.846,-86.5597 339,-70 345.297,-67.5838 351.223,-63.6677 356.487,-59.2897"/>
<polygon fill="black" stroke="black" points="359.208,-61.5397 364.171,-52.1792 354.454,-56.4017 359.208,-61.5397"/>
<g id="a_edge13&#45;headlabel"><a xlink:href="dir_000016_000026.html" target="_top" xlink:title="2">
<text text-anchor="middle" x="358.498" y="-63.565" font-family="Helvetica,sans-Serif" font-size="10.00">2</text>
</a>
</g>
</g>
<!-- dir_9257174f690635f75a6c414b151b5118&#45;&gt;dir_996f45160da62e1a3d7f6046fad68f51 -->
<g id="edge14" class="edge"><title>dir_9257174f690635f75a6c414b151b5118&#45;&gt;dir_996f45160da62e1a3d7f6046fad68f51</title>
<path fill="none" stroke="black" d="M393.31,-52.2078C400.967,-62.1465 410.023,-75.1859 416,-88 433.318,-125.128 440,-136.031 440,-177 440,-323 440,-323 440,-323 440,-363.969 445.514,-383.586 416,-412 366.643,-459.517 329.921,-427.605 259.9,-448.268"/>
<polygon fill="black" stroke="black" points="258.703,-444.976 250.263,-451.381 260.854,-451.638 258.703,-444.976"/>
<g id="a_edge14&#45;headlabel"><a xlink:href="dir_000026_000000.html" target="_top" xlink:title="3">
<text text-anchor="middle" x="261.25" y="-438.67" font-family="Helvetica,sans-Serif" font-size="10.00">3</text>
</a>
</g>
</g>
<!-- dir_9257174f690635f75a6c414b151b5118&#45;&gt;dir_85eda2cf83d057042b8d455297085bdf -->
<g id="edge16" class="edge"><title>dir_9257174f690635f75a6c414b151b5118&#45;&gt;dir_85eda2cf83d057042b8d455297085bdf</title>
<path fill="none" stroke="black" d="M406.263,-48.1123C422.388,-57.192 441.952,-70.7438 454,-88 477.453,-121.591 478,-136.031 478,-177 478,-323 478,-323 478,-323 478,-363.969 481.906,-382.006 454,-412 426.138,-441.947 380.452,-454.975 346.429,-460.641"/>
<polygon fill="black" stroke="black" points="345.643,-457.22 336.277,-462.174 346.688,-464.142 345.643,-457.22"/>
<g id="a_edge16&#45;headlabel"><a xlink:href="dir_000026_000004.html" target="_top" xlink:title="1">
<text text-anchor="middle" x="348.773" y="-451.376" font-family="Helvetica,sans-Serif" font-size="10.00">1</text>
</a>
</g>
</g>
<!-- dir_9257174f690635f75a6c414b151b5118&#45;&gt;dir_4c761d917b3d7065665124abac5e2195 -->
<g id="edge15" class="edge"><title>dir_9257174f690635f75a6c414b151b5118&#45;&gt;dir_4c761d917b3d7065665124abac5e2195</title>
<path fill="none" stroke="black" d="M406.257,-44.0936C427.887,-52.5144 457.612,-66.9375 477,-88 506.248,-119.775 516,-133.813 516,-177 516,-323 516,-323 516,-323 516,-382.497 469.79,-386.572 416,-412 325.675,-454.699 288.939,-424.003 187.405,-448.27"/>
<polygon fill="black" stroke="black" points="186.548,-444.876 177.702,-450.707 188.254,-451.665 186.548,-444.876"/>
<g id="a_edge15&#45;headlabel"><a xlink:href="dir_000026_000005.html" target="_top" xlink:title="2">
<text text-anchor="middle" x="189.343" y="-438.747" font-family="Helvetica,sans-Serif" font-size="10.00">2</text>
</a>
</g>
</g>
</g>
</svg>
