<?xml version="1.0" encoding="UTF-8" standalone="no"?>
<!DOCTYPE svg PUBLIC "-//W3C//DTD SVG 1.1//EN"
 "http://www.w3.org/Graphics/SVG/1.1/DTD/svg11.dtd">
<!-- Generated by graphviz version 2.38.0 (20140413.2041)
 -->
<!-- Title: engine/Object Pages: 1 -->
<svg width="134pt" height="151pt"
 viewBox="0.00 0.00 134.00 151.00" xmlns="http://www.w3.org/2000/svg" xmlns:xlink="http://www.w3.org/1999/xlink">
<g id="graph0" class="graph" transform="scale(1 1) rotate(0) translate(4 147)">
<title>engine/Object</title>
<g id="clust1" class="cluster"><title>clusterdir_996f45160da62e1a3d7f6046fad68f51</title>
<g id="a_clust1"><a xlink:href="dir_996f45160da62e1a3d7f6046fad68f51.html" target="_top" xlink:title="engine">
<polygon fill="#ddddee" stroke="black" points="28,-64 28,-135 98,-135 98,-64 28,-64"/>
<text text-anchor="middle" x="63" y="-123" font-family="Helvetica,sans-Serif" font-size="10.00">engine</text>
</a>
</g>
</g>
<!-- dir_367b412637a5abf5b1dc26af7424a7dc -->
<g id="node1" class="node"><title>dir_367b412637a5abf5b1dc26af7424a7dc</title>
<g id="a_node1"><a xlink:href="dir_367b412637a5abf5b1dc26af7424a7dc.html" target="_top" xlink:title="Object">
<polygon fill="#eeeeff" stroke="black" points="90,-108 36,-108 36,-72 90,-72 90,-108"/>
<text text-anchor="middle" x="63" y="-87.5" font-family="Helvetica,sans-Serif" font-size="10.00">Object</text>
</a>
</g>
</g>
<!-- dir_ba775a609e100e11fec950409e9afc1d -->
<g id="node2" class="node"><title>dir_ba775a609e100e11fec950409e9afc1d</title>
<g id="a_node2"><a xlink:href="dir_ba775a609e100e11fec950409e9afc1d.html" target="_top" xlink:title="Scene">
<polygon fill="none" stroke="black" points="54,-36 0,-36 0,-0 54,-0 54,-36"/>
<text text-anchor="middle" x="27" y="-15.5" font-family="Helvetica,sans-Serif" font-size="10.00">Scene</text>
</a>
</g>
</g>
<!-- dir_367b412637a5abf5b1dc26af7424a7dc&#45;&gt;dir_ba775a609e100e11fec950409e9afc1d -->
<g id="edge1" class="edge"><title>dir_367b412637a5abf5b1dc26af7424a7dc&#45;&gt;dir_ba775a609e100e11fec950409e9afc1d</title>
<path fill="none" stroke="black" d="M54.1011,-71.6966C50.0032,-63.7284 45.0512,-54.0995 40.5073,-45.2641"/>
<polygon fill="black" stroke="black" points="43.4826,-43.3965 35.7965,-36.1043 37.2575,-46.598 43.4826,-43.3965"/>
<g id="a_edge1&#45;headlabel"><a xlink:href="dir_000017_000020.html" target="_top" xlink:title="1">
<text text-anchor="middle" x="47.6514" y="-42.7946" font-family="Helvetica,sans-Serif" font-size="10.00">1</text>
</a>
</g>
</g>
<!-- dir_cf3bba9db808a8251f69ff62b590e81a -->
<g id="node3" class="node"><title>dir_cf3bba9db808a8251f69ff62b590e81a</title>
<g id="a_node3"><a xlink:href="dir_cf3bba9db808a8251f69ff62b590e81a.html" target="_top" xlink:title="Entity">
<polygon fill="none" stroke="black" points="126,-36 72,-36 72,-0 126,-0 126,-36"/>
<text text-anchor="middle" x="99" y="-15.5" font-family="Helvetica,sans-Serif" font-size="10.00">Entity</text>
</a>
</g>
</g>
<!-- dir_367b412637a5abf5b1dc26af7424a7dc&#45;&gt;dir_cf3bba9db808a8251f69ff62b590e81a -->
<g id="edge2" class="edge"><title>dir_367b412637a5abf5b1dc26af7424a7dc&#45;&gt;dir_cf3bba9db808a8251f69ff62b590e81a</title>
<path fill="none" stroke="black" d="M71.8989,-71.6966C75.9968,-63.7284 80.9488,-54.0995 85.4927,-45.2641"/>
<polygon fill="black" stroke="black" points="88.7425,-46.598 90.2035,-36.1043 82.5174,-43.3965 88.7425,-46.598"/>
<g id="a_edge2&#45;headlabel"><a xlink:href="dir_000017_000008.html" target="_top" xlink:title="1">
<text text-anchor="middle" x="89.6235" y="-48.5931" font-family="Helvetica,sans-Serif" font-size="10.00">1</text>
</a>
</g>
</g>
</g>
</svg>
