<?xml version="1.0" encoding="UTF-8" standalone="no"?>
<!DOCTYPE svg PUBLIC "-//W3C//DTD SVG 1.1//EN"
 "http://www.w3.org/Graphics/SVG/1.1/DTD/svg11.dtd">
<!-- Generated by graphviz version 2.38.0 (20140413.2041)
 -->
<!-- Title: engine/SceneGraph Pages: 1 -->
<svg width="208pt" height="151pt"
 viewBox="0.00 0.00 208.00 151.00" xmlns="http://www.w3.org/2000/svg" xmlns:xlink="http://www.w3.org/1999/xlink">
<g id="graph0" class="graph" transform="scale(1 1) rotate(0) translate(4 147)">
<title>engine/SceneGraph</title>
<g id="clust1" class="cluster"><title>clusterdir_996f45160da62e1a3d7f6046fad68f51</title>
<g id="a_clust1"><a xlink:href="dir_996f45160da62e1a3d7f6046fad68f51.html" target="_top" xlink:title="engine">
<polygon fill="#ddddee" stroke="black" points="8,-64 8,-135 96,-135 96,-64 8,-64"/>
<text text-anchor="middle" x="52" y="-123" font-family="Helvetica,sans-Serif" font-size="10.00">engine</text>
</a>
</g>
</g>
<!-- dir_302221a7aab9197b428d32165f6aeb64 -->
<g id="node1" class="node"><title>dir_302221a7aab9197b428d32165f6aeb64</title>
<g id="a_node1"><a xlink:href="dir_302221a7aab9197b428d32165f6aeb64.html" target="_top" xlink:title="SceneGraph">
<polygon fill="#eeeeff" stroke="black" points="87.5,-108 16.5,-108 16.5,-72 87.5,-72 87.5,-108"/>
<text text-anchor="middle" x="52" y="-87.5" font-family="Helvetica,sans-Serif" font-size="10.00">SceneGraph</text>
</a>
</g>
</g>
<!-- dir_b0e652ac9949ee2dc3907b5e9895ade1 -->
<g id="node2" class="node"><title>dir_b0e652ac9949ee2dc3907b5e9895ade1</title>
<g id="a_node2"><a xlink:href="dir_b0e652ac9949ee2dc3907b5e9895ade1.html" target="_top" xlink:title="AssimpScene">
<polygon fill="none" stroke="black" points="140.5,-36 63.5,-36 63.5,-0 140.5,-0 140.5,-36"/>
<text text-anchor="middle" x="102" y="-15.5" font-family="Helvetica,sans-Serif" font-size="10.00">AssimpScene</text>
</a>
</g>
</g>
<!-- dir_302221a7aab9197b428d32165f6aeb64&#45;&gt;dir_b0e652ac9949ee2dc3907b5e9895ade1 -->
<g id="edge1" class="edge"><title>dir_302221a7aab9197b428d32165f6aeb64&#45;&gt;dir_b0e652ac9949ee2dc3907b5e9895ade1</title>
<path fill="none" stroke="black" d="M64.3596,-71.6966C70.2328,-63.4741 77.3691,-53.4832 83.8424,-44.4207"/>
<polygon fill="black" stroke="black" points="86.8183,-46.276 89.7826,-36.1043 81.1221,-42.2073 86.8183,-46.276"/>
<g id="a_edge1&#45;headlabel"><a xlink:href="dir_000021_000005.html" target="_top" xlink:title="1">
<text text-anchor="middle" x="87.0394" y="-48.3514" font-family="Helvetica,sans-Serif" font-size="10.00">1</text>
</a>
</g>
</g>
<!-- dir_a28f2302bff7720243f96c5e6010cda6 -->
<g id="node3" class="node"><title>dir_a28f2302bff7720243f96c5e6010cda6</title>
<g id="a_node3"><a xlink:href="dir_a28f2302bff7720243f96c5e6010cda6.html" target="_top" xlink:title="SceneGraphNode">
<polygon fill="none" stroke="black" points="200,-108 106,-108 106,-72 200,-72 200,-108"/>
<text text-anchor="middle" x="153" y="-87.5" font-family="Helvetica,sans-Serif" font-size="10.00">SceneGraphNode</text>
</a>
</g>
</g>
<!-- dir_302221a7aab9197b428d32165f6aeb64&#45;&gt;dir_a28f2302bff7720243f96c5e6010cda6 -->
<g id="edge2" class="edge"><title>dir_302221a7aab9197b428d32165f6aeb64&#45;&gt;dir_a28f2302bff7720243f96c5e6010cda6</title>
<path fill="none" stroke="black" d="M87.5078,-90C90.29,-90 93.0721,-90 95.8542,-90"/>
<polygon fill="black" stroke="black" points="95.9275,-93.5001 105.927,-90 95.9275,-86.5001 95.9275,-93.5001"/>
<g id="a_edge2&#45;headlabel"><a xlink:href="dir_000021_000022.html" target="_top" xlink:title="1">
<text text-anchor="middle" x="92.3329" y="-93.8393" font-family="Helvetica,sans-Serif" font-size="10.00">1</text>
</a>
</g>
</g>
<!-- dir_a28f2302bff7720243f96c5e6010cda6&#45;&gt;dir_302221a7aab9197b428d32165f6aeb64 -->
<g id="edge3" class="edge"><title>dir_a28f2302bff7720243f96c5e6010cda6&#45;&gt;dir_302221a7aab9197b428d32165f6aeb64</title>
<path fill="none" stroke="black" d="M105.927,-90C103.145,-90 100.363,-90 97.5811,-90"/>
<polygon fill="black" stroke="black" points="97.5078,-86.5001 87.5078,-90 97.5078,-93.5001 97.5078,-86.5001"/>
<g id="a_edge3&#45;headlabel"><a xlink:href="dir_000022_000021.html" target="_top" xlink:title="1">
<text text-anchor="middle" x="101.102" y="-81.1607" font-family="Helvetica,sans-Serif" font-size="10.00">1</text>
</a>
</g>
</g>
<!-- dir_a28f2302bff7720243f96c5e6010cda6&#45;&gt;dir_b0e652ac9949ee2dc3907b5e9895ade1 -->
<g id="edge4" class="edge"><title>dir_a28f2302bff7720243f96c5e6010cda6&#45;&gt;dir_b0e652ac9949ee2dc3907b5e9895ade1</title>
<path fill="none" stroke="black" d="M140.393,-71.6966C134.403,-63.4741 127.124,-53.4832 120.521,-44.4207"/>
<polygon fill="black" stroke="black" points="123.179,-42.1257 114.462,-36.1043 117.522,-46.2477 123.179,-42.1257"/>
<g id="a_edge4&#45;headlabel"><a xlink:href="dir_000022_000005.html" target="_top" xlink:title="1">
<text text-anchor="middle" x="127.591" y="-40.8591" font-family="Helvetica,sans-Serif" font-size="10.00">1</text>
</a>
</g>
</g>
</g>
</svg>
