<?xml version="1.0" encoding="UTF-8" standalone="no"?>
<!DOCTYPE svg PUBLIC "-//W3C//DTD SVG 1.1//EN"
 "http://www.w3.org/Graphics/SVG/1.1/DTD/svg11.dtd">
<!-- Generated by graphviz version 2.38.0 (20140413.2041)
 -->
<!-- Title: engine/GameEngine Pages: 1 -->
<svg width="140pt" height="223pt"
 viewBox="0.00 0.00 140.00 223.00" xmlns="http://www.w3.org/2000/svg" xmlns:xlink="http://www.w3.org/1999/xlink">
<g id="graph0" class="graph" transform="scale(1 1) rotate(0) translate(4 219)">
<title>engine/GameEngine</title>
<g id="clust1" class="cluster"><title>clusterdir_996f45160da62e1a3d7f6046fad68f51</title>
<g id="a_clust1"><a xlink:href="dir_996f45160da62e1a3d7f6046fad68f51.html" target="_top" xlink:title="engine">
<polygon fill="#ddddee" stroke="black" points="8,-136 8,-207 98,-207 98,-136 8,-136"/>
<text text-anchor="middle" x="53" y="-195" font-family="Helvetica,sans-Serif" font-size="10.00">engine</text>
</a>
</g>
</g>
<!-- dir_4c761d917b3d7065665124abac5e2195 -->
<g id="node1" class="node"><title>dir_4c761d917b3d7065665124abac5e2195</title>
<g id="a_node1"><a xlink:href="dir_4c761d917b3d7065665124abac5e2195.html" target="_top" xlink:title="GameEngine">
<polygon fill="#eeeeff" stroke="black" points="89.5,-180 16.5,-180 16.5,-144 89.5,-144 89.5,-180"/>
<text text-anchor="middle" x="53" y="-159.5" font-family="Helvetica,sans-Serif" font-size="10.00">GameEngine</text>
</a>
</g>
</g>
<!-- dir_ba775a609e100e11fec950409e9afc1d -->
<g id="node2" class="node"><title>dir_ba775a609e100e11fec950409e9afc1d</title>
<g id="a_node2"><a xlink:href="dir_ba775a609e100e11fec950409e9afc1d.html" target="_top" xlink:title="Scene">
<polygon fill="none" stroke="black" points="80,-36 26,-36 26,-0 80,-0 80,-36"/>
<text text-anchor="middle" x="53" y="-15.5" font-family="Helvetica,sans-Serif" font-size="10.00">Scene</text>
</a>
</g>
</g>
<!-- dir_4c761d917b3d7065665124abac5e2195&#45;&gt;dir_ba775a609e100e11fec950409e9afc1d -->
<g id="edge2" class="edge"><title>dir_4c761d917b3d7065665124abac5e2195&#45;&gt;dir_ba775a609e100e11fec950409e9afc1d</title>
<path fill="none" stroke="black" d="M46.3478,-143.628C42.7971,-133.421 38.7971,-120.171 37,-108 34.6629,-92.1716 34.6629,-87.8284 37,-72 38.2776,-63.3473 40.6686,-54.1492 43.2201,-45.8867"/>
<polygon fill="black" stroke="black" points="46.5499,-46.9648 46.3478,-36.3719 39.8999,-44.7788 46.5499,-46.9648"/>
<g id="a_edge2&#45;headlabel"><a xlink:href="dir_000010_000020.html" target="_top" xlink:title="1">
<text text-anchor="middle" x="48.1247" y="-48.7663" font-family="Helvetica,sans-Serif" font-size="10.00">1</text>
</a>
</g>
</g>
<!-- dir_b7a1b3aac5fc8229ebcf624041b688b6 -->
<g id="node3" class="node"><title>dir_b7a1b3aac5fc8229ebcf624041b688b6</title>
<g id="a_node3"><a xlink:href="dir_b7a1b3aac5fc8229ebcf624041b688b6.html" target="_top" xlink:title="AssimpImporter">
<polygon fill="none" stroke="black" points="132,-108 46,-108 46,-72 132,-72 132,-108"/>
<text text-anchor="middle" x="89" y="-87.5" font-family="Helvetica,sans-Serif" font-size="10.00">AssimpImporter</text>
</a>
</g>
</g>
<!-- dir_4c761d917b3d7065665124abac5e2195&#45;&gt;dir_b7a1b3aac5fc8229ebcf624041b688b6 -->
<g id="edge3" class="edge"><title>dir_4c761d917b3d7065665124abac5e2195&#45;&gt;dir_b7a1b3aac5fc8229ebcf624041b688b6</title>
<path fill="none" stroke="black" d="M61.8989,-143.697C65.9968,-135.728 70.9488,-126.1 75.4927,-117.264"/>
<polygon fill="black" stroke="black" points="78.7425,-118.598 80.2035,-108.104 72.5174,-115.396 78.7425,-118.598"/>
<g id="a_edge3&#45;headlabel"><a xlink:href="dir_000010_000004.html" target="_top" xlink:title="1">
<text text-anchor="middle" x="79.6235" y="-120.593" font-family="Helvetica,sans-Serif" font-size="10.00">1</text>
</a>
</g>
</g>
<!-- dir_b7a1b3aac5fc8229ebcf624041b688b6&#45;&gt;dir_ba775a609e100e11fec950409e9afc1d -->
<g id="edge1" class="edge"><title>dir_b7a1b3aac5fc8229ebcf624041b688b6&#45;&gt;dir_ba775a609e100e11fec950409e9afc1d</title>
<path fill="none" stroke="black" d="M80.1011,-71.6966C76.0032,-63.7284 71.0512,-54.0995 66.5073,-45.2641"/>
<polygon fill="black" stroke="black" points="69.4826,-43.3965 61.7965,-36.1043 63.2575,-46.598 69.4826,-43.3965"/>
<g id="a_edge1&#45;headlabel"><a xlink:href="dir_000004_000020.html" target="_top" xlink:title="1">
<text text-anchor="middle" x="73.6514" y="-42.7946" font-family="Helvetica,sans-Serif" font-size="10.00">1</text>
</a>
</g>
</g>
</g>
</svg>
