<?xml version="1.0" encoding="UTF-8" standalone="no"?>
<!DOCTYPE svg PUBLIC "-//W3C//DTD SVG 1.1//EN"
 "http://www.w3.org/Graphics/SVG/1.1/DTD/svg11.dtd">
<!-- Generated by graphviz version 2.38.0 (20140413.2041)
 -->
<!-- Title: engine/Mesh Pages: 1 -->
<svg width="204pt" height="223pt"
 viewBox="0.00 0.00 203.50 223.00" xmlns="http://www.w3.org/2000/svg" xmlns:xlink="http://www.w3.org/1999/xlink">
<g id="graph0" class="graph" transform="scale(1 1) rotate(0) translate(4 219)">
<title>engine/Mesh</title>
<g id="clust1" class="cluster"><title>clusterdir_996f45160da62e1a3d7f6046fad68f51</title>
<g id="a_clust1"><a xlink:href="dir_996f45160da62e1a3d7f6046fad68f51.html" target="_top" xlink:title="engine">
<polygon fill="#ddddee" stroke="black" points="61,-136 61,-207 131,-207 131,-136 61,-136"/>
<text text-anchor="middle" x="96" y="-195" font-family="Helvetica,sans-Serif" font-size="10.00">engine</text>
</a>
</g>
</g>
<!-- dir_c7f0c751fa7d09d1405d1c0441c3546f -->
<g id="node1" class="node"><title>dir_c7f0c751fa7d09d1405d1c0441c3546f</title>
<g id="a_node1"><a xlink:href="dir_c7f0c751fa7d09d1405d1c0441c3546f.html" target="_top" xlink:title="Mesh">
<polygon fill="#eeeeff" stroke="black" points="123,-180 69,-180 69,-144 123,-144 123,-180"/>
<text text-anchor="middle" x="96" y="-159.5" font-family="Helvetica,sans-Serif" font-size="10.00">Mesh</text>
</a>
</g>
</g>
<!-- dir_3f8d367a77166baf3cf04059c7c94f63 -->
<g id="node2" class="node"><title>dir_3f8d367a77166baf3cf04059c7c94f63</title>
<g id="a_node2"><a xlink:href="dir_3f8d367a77166baf3cf04059c7c94f63.html" target="_top" xlink:title="ArrayObject">
<polygon fill="none" stroke="black" points="68,-108 0,-108 0,-72 68,-72 68,-108"/>
<text text-anchor="middle" x="34" y="-87.5" font-family="Helvetica,sans-Serif" font-size="10.00">ArrayObject</text>
</a>
</g>
</g>
<!-- dir_c7f0c751fa7d09d1405d1c0441c3546f&#45;&gt;dir_3f8d367a77166baf3cf04059c7c94f63 -->
<g id="edge2" class="edge"><title>dir_c7f0c751fa7d09d1405d1c0441c3546f&#45;&gt;dir_3f8d367a77166baf3cf04059c7c94f63</title>
<path fill="none" stroke="black" d="M80.6742,-143.697C73.2412,-135.305 64.1767,-125.07 56.02,-115.861"/>
<polygon fill="black" stroke="black" points="58.4,-113.27 49.1496,-108.104 53.1599,-117.911 58.4,-113.27"/>
<g id="a_edge2&#45;headlabel"><a xlink:href="dir_000015_000003.html" target="_top" xlink:title="1">
<text text-anchor="middle" x="62.9088" y="-111.578" font-family="Helvetica,sans-Serif" font-size="10.00">1</text>
</a>
</g>
</g>
<!-- dir_9257174f690635f75a6c414b151b5118 -->
<g id="node3" class="node"><title>dir_9257174f690635f75a6c414b151b5118</title>
<g id="a_node3"><a xlink:href="dir_9257174f690635f75a6c414b151b5118.html" target="_top" xlink:title="window">
<polygon fill="none" stroke="black" points="123,-36 69,-36 69,-0 123,-0 123,-36"/>
<text text-anchor="middle" x="96" y="-15.5" font-family="Helvetica,sans-Serif" font-size="10.00">window</text>
</a>
</g>
</g>
<!-- dir_c7f0c751fa7d09d1405d1c0441c3546f&#45;&gt;dir_9257174f690635f75a6c414b151b5118 -->
<g id="edge3" class="edge"><title>dir_c7f0c751fa7d09d1405d1c0441c3546f&#45;&gt;dir_9257174f690635f75a6c414b151b5118</title>
<path fill="none" stroke="black" d="M96,-143.871C96,-119.67 96,-75.2108 96,-46.3932"/>
<polygon fill="black" stroke="black" points="99.5001,-46.1892 96,-36.1893 92.5001,-46.1893 99.5001,-46.1892"/>
<g id="a_edge3&#45;headlabel"><a xlink:href="dir_000015_000034.html" target="_top" xlink:title="1">
<text text-anchor="middle" x="102.339" y="-47.2839" font-family="Helvetica,sans-Serif" font-size="10.00">1</text>
</a>
</g>
</g>
<!-- dir_f6d700fdd15b5878ddf9766ea840a413 -->
<g id="node4" class="node"><title>dir_f6d700fdd15b5878ddf9766ea840a413</title>
<g id="a_node4"><a xlink:href="dir_f6d700fdd15b5878ddf9766ea840a413.html" target="_top" xlink:title="BufferObject">
<polygon fill="none" stroke="black" points="195.5,-108 124.5,-108 124.5,-72 195.5,-72 195.5,-108"/>
<text text-anchor="middle" x="160" y="-87.5" font-family="Helvetica,sans-Serif" font-size="10.00">BufferObject</text>
</a>
</g>
</g>
<!-- dir_c7f0c751fa7d09d1405d1c0441c3546f&#45;&gt;dir_f6d700fdd15b5878ddf9766ea840a413 -->
<g id="edge4" class="edge"><title>dir_c7f0c751fa7d09d1405d1c0441c3546f&#45;&gt;dir_f6d700fdd15b5878ddf9766ea840a413</title>
<path fill="none" stroke="black" d="M111.82,-143.697C119.57,-135.22 129.039,-124.864 137.524,-115.583"/>
<polygon fill="black" stroke="black" points="140.197,-117.846 144.362,-108.104 135.031,-113.123 140.197,-117.846"/>
<g id="a_edge4&#45;headlabel"><a xlink:href="dir_000015_000006.html" target="_top" xlink:title="1">
<text text-anchor="middle" x="139.867" y="-119.915" font-family="Helvetica,sans-Serif" font-size="10.00">1</text>
</a>
</g>
</g>
<!-- dir_3f8d367a77166baf3cf04059c7c94f63&#45;&gt;dir_9257174f690635f75a6c414b151b5118 -->
<g id="edge1" class="edge"><title>dir_3f8d367a77166baf3cf04059c7c94f63&#45;&gt;dir_9257174f690635f75a6c414b151b5118</title>
<path fill="none" stroke="black" d="M49.3258,-71.6966C56.7588,-63.3046 65.8233,-53.0705 73.98,-43.8613"/>
<polygon fill="black" stroke="black" points="76.8401,-45.9109 80.8504,-36.1043 71.6,-41.2696 76.8401,-45.9109"/>
<g id="a_edge1&#45;headlabel"><a xlink:href="dir_000003_000034.html" target="_top" xlink:title="1">
<text text-anchor="middle" x="76.5822" y="-47.9843" font-family="Helvetica,sans-Serif" font-size="10.00">1</text>
</a>
</g>
</g>
<!-- dir_f6d700fdd15b5878ddf9766ea840a413&#45;&gt;dir_9257174f690635f75a6c414b151b5118 -->
<g id="edge5" class="edge"><title>dir_f6d700fdd15b5878ddf9766ea840a413&#45;&gt;dir_9257174f690635f75a6c414b151b5118</title>
<path fill="none" stroke="black" d="M144.18,-71.6966C136.43,-63.2198 126.961,-52.8636 118.476,-43.5826"/>
<polygon fill="black" stroke="black" points="120.969,-41.1229 111.638,-36.1043 115.803,-45.8464 120.969,-41.1229"/>
<g id="a_edge5&#45;headlabel"><a xlink:href="dir_000006_000034.html" target="_top" xlink:title="1">
<text text-anchor="middle" x="125.49" y="-39.36" font-family="Helvetica,sans-Serif" font-size="10.00">1</text>
</a>
</g>
</g>
</g>
</svg>
