<?xml version="1.0" encoding="UTF-8" standalone="no"?>
<!DOCTYPE svg PUBLIC "-//W3C//DTD SVG 1.1//EN"
 "http://www.w3.org/Graphics/SVG/1.1/DTD/svg11.dtd">
<!-- Generated by graphviz version 2.38.0 (20140413.2041)
 -->
<!-- Title: engine/Entity Pages: 1 -->
<svg width="102pt" height="151pt"
 viewBox="0.00 0.00 102.00 151.00" xmlns="http://www.w3.org/2000/svg" xmlns:xlink="http://www.w3.org/1999/xlink">
<g id="graph0" class="graph" transform="scale(1 1) rotate(0) translate(4 147)">
<title>engine/Entity</title>
<g id="clust1" class="cluster"><title>clusterdir_996f45160da62e1a3d7f6046fad68f51</title>
<g id="a_clust1"><a xlink:href="dir_996f45160da62e1a3d7f6046fad68f51.html" target="_top" xlink:title="engine">
<polygon fill="#ddddee" stroke="black" points="12,-64 12,-135 82,-135 82,-64 12,-64"/>
<text text-anchor="middle" x="47" y="-123" font-family="Helvetica,sans-Serif" font-size="10.00">engine</text>
</a>
</g>
</g>
<!-- dir_cf3bba9db808a8251f69ff62b590e81a -->
<g id="node1" class="node"><title>dir_cf3bba9db808a8251f69ff62b590e81a</title>
<g id="a_node1"><a xlink:href="dir_cf3bba9db808a8251f69ff62b590e81a.html" target="_top" xlink:title="Entity">
<polygon fill="#eeeeff" stroke="black" points="74,-108 20,-108 20,-72 74,-72 74,-108"/>
<text text-anchor="middle" x="47" y="-87.5" font-family="Helvetica,sans-Serif" font-size="10.00">Entity</text>
</a>
</g>
</g>
<!-- dir_a28f2302bff7720243f96c5e6010cda6 -->
<g id="node2" class="node"><title>dir_a28f2302bff7720243f96c5e6010cda6</title>
<g id="a_node2"><a xlink:href="dir_a28f2302bff7720243f96c5e6010cda6.html" target="_top" xlink:title="SceneGraphNode">
<polygon fill="none" stroke="black" points="94,-36 -7.10543e-15,-36 -7.10543e-15,-0 94,-0 94,-36"/>
<text text-anchor="middle" x="47" y="-15.5" font-family="Helvetica,sans-Serif" font-size="10.00">SceneGraphNode</text>
</a>
</g>
</g>
<!-- dir_cf3bba9db808a8251f69ff62b590e81a&#45;&gt;dir_a28f2302bff7720243f96c5e6010cda6 -->
<g id="edge1" class="edge"><title>dir_cf3bba9db808a8251f69ff62b590e81a&#45;&gt;dir_a28f2302bff7720243f96c5e6010cda6</title>
<path fill="none" stroke="black" d="M47,-71.6966C47,-63.9827 47,-54.7125 47,-46.1124"/>
<polygon fill="black" stroke="black" points="50.5001,-46.1043 47,-36.1043 43.5001,-46.1044 50.5001,-46.1043"/>
<g id="a_edge1&#45;headlabel"><a xlink:href="dir_000008_000022.html" target="_top" xlink:title="1">
<text text-anchor="middle" x="53.3393" y="-47.199" font-family="Helvetica,sans-Serif" font-size="10.00">1</text>
</a>
</g>
</g>
</g>
</svg>
