<?xml version="1.0" encoding="UTF-8" standalone="no"?>
<!DOCTYPE svg PUBLIC "-//W3C//DTD SVG 1.1//EN"
 "http://www.w3.org/Graphics/SVG/1.1/DTD/svg11.dtd">
<!-- Generated by graphviz version 2.38.0 (20140413.2041)
 -->
<!-- Title: engine/Shaders/Managers Pages: 1 -->
<svg width="340pt" height="231pt"
 viewBox="0.00 0.00 340.00 231.00" xmlns="http://www.w3.org/2000/svg" xmlns:xlink="http://www.w3.org/1999/xlink">
<g id="graph0" class="graph" transform="scale(1 1) rotate(0) translate(4 227)">
<title>engine/Shaders/Managers</title>
<g id="clust1" class="cluster"><title>clusterdir_6e4d7cc950507c27f994556db83bd942</title>
<g id="a_clust1"><a xlink:href="dir_6e4d7cc950507c27f994556db83bd942.html" target="_top" xlink:title="Shaders">
<polygon fill="#ddddee" stroke="black" points="8,-56 8,-215 240,-215 240,-56 8,-56"/>
<text text-anchor="middle" x="124" y="-203" font-family="Helvetica,sans-Serif" font-size="10.00">Shaders</text>
</a>
</g>
</g>
<g id="clust2" class="cluster"><title>clusterdir_858418d68bfa5fd6fd105055203c82ad</title>
<g id="a_clust2"><a xlink:href="dir_858418d68bfa5fd6fd105055203c82ad.html" target="_top">
<polygon fill="#eeeeff" stroke="black" points="16,-64 16,-188 232,-188 232,-64 16,-64"/>
</a>
</g>
</g>
<!-- dir_858418d68bfa5fd6fd105055203c82ad -->
<g id="node1" class="node"><title>dir_858418d68bfa5fd6fd105055203c82ad</title>
<text text-anchor="middle" x="194" y="-159.5" font-family="Helvetica,sans-Serif" font-size="10.00">Managers</text>
</g>
<!-- dir_68fd9dc4658ebdc3f714d16672cea513 -->
<g id="node2" class="node"><title>dir_68fd9dc4658ebdc3f714d16672cea513</title>
<g id="a_node2"><a xlink:href="dir_68fd9dc4658ebdc3f714d16672cea513.html" target="_top" xlink:title="ShaderManager">
<polygon fill="white" stroke="red" points="175.5,-108 90.5,-108 90.5,-72 175.5,-72 175.5,-108"/>
<text text-anchor="middle" x="133" y="-87.5" font-family="Helvetica,sans-Serif" font-size="10.00">ShaderManager</text>
</a>
</g>
</g>
<!-- dir_1999bd0b5a0bb9db12366bc1ddfefb6a -->
<g id="node5" class="node"><title>dir_1999bd0b5a0bb9db12366bc1ddfefb6a</title>
<g id="a_node5"><a xlink:href="dir_1999bd0b5a0bb9db12366bc1ddfefb6a.html" target="_top" xlink:title="Shader">
<polygon fill="none" stroke="black" points="262,-36 208,-36 208,-0 262,-0 262,-36"/>
<text text-anchor="middle" x="235" y="-15.5" font-family="Helvetica,sans-Serif" font-size="10.00">Shader</text>
</a>
</g>
</g>
<!-- dir_68fd9dc4658ebdc3f714d16672cea513&#45;&gt;dir_1999bd0b5a0bb9db12366bc1ddfefb6a -->
<g id="edge2" class="edge"><title>dir_68fd9dc4658ebdc3f714d16672cea513&#45;&gt;dir_1999bd0b5a0bb9db12366bc1ddfefb6a</title>
<path fill="none" stroke="black" d="M157.952,-71.8761C171.042,-62.8931 187.26,-51.7625 201.436,-42.0341"/>
<polygon fill="black" stroke="black" points="203.687,-44.734 209.952,-36.1898 199.726,-38.9624 203.687,-44.734"/>
<g id="a_edge2&#45;headlabel"><a xlink:href="dir_000018_000022.html" target="_top" xlink:title="2">
<text text-anchor="middle" x="202.33" y="-46.609" font-family="Helvetica,sans-Serif" font-size="10.00">2</text>
</a>
</g>
</g>
<!-- dir_af3c592130d1b78e8713ed65c2f11fac -->
<g id="node3" class="node"><title>dir_af3c592130d1b78e8713ed65c2f11fac</title>
<g id="a_node3"><a xlink:href="dir_af3c592130d1b78e8713ed65c2f11fac.html" target="_top" xlink:title="ShaderProgramManager">
<polygon fill="white" stroke="red" points="146,-180 24,-180 24,-144 146,-144 146,-180"/>
<text text-anchor="middle" x="85" y="-159.5" font-family="Helvetica,sans-Serif" font-size="10.00">ShaderProgramManager</text>
</a>
</g>
</g>
<!-- dir_af3c592130d1b78e8713ed65c2f11fac&#45;&gt;dir_68fd9dc4658ebdc3f714d16672cea513 -->
<g id="edge4" class="edge"><title>dir_af3c592130d1b78e8713ed65c2f11fac&#45;&gt;dir_68fd9dc4658ebdc3f714d16672cea513</title>
<path fill="none" stroke="black" d="M96.8652,-143.697C102.503,-135.474 109.354,-125.483 115.569,-116.421"/>
<polygon fill="black" stroke="black" points="118.503,-118.331 121.271,-108.104 112.729,-114.372 118.503,-118.331"/>
<g id="a_edge4&#45;headlabel"><a xlink:href="dir_000020_000018.html" target="_top" xlink:title="1">
<text text-anchor="middle" x="118.811" y="-120.401" font-family="Helvetica,sans-Serif" font-size="10.00">1</text>
</a>
</g>
</g>
<!-- dir_e1d3a58c952f3de1419780d008a20c9e -->
<g id="node4" class="node"><title>dir_e1d3a58c952f3de1419780d008a20c9e</title>
<g id="a_node4"><a xlink:href="dir_e1d3a58c952f3de1419780d008a20c9e.html" target="_top" xlink:title="ShaderProgram">
<polygon fill="none" stroke="black" points="332,-108 248,-108 248,-72 332,-72 332,-108"/>
<text text-anchor="middle" x="290" y="-87.5" font-family="Helvetica,sans-Serif" font-size="10.00">ShaderProgram</text>
</a>
</g>
</g>
<!-- dir_af3c592130d1b78e8713ed65c2f11fac&#45;&gt;dir_e1d3a58c952f3de1419780d008a20c9e -->
<g id="edge3" class="edge"><title>dir_af3c592130d1b78e8713ed65c2f11fac&#45;&gt;dir_e1d3a58c952f3de1419780d008a20c9e</title>
<path fill="none" stroke="black" d="M134.887,-143.966C166.249,-133.256 206.628,-119.469 238.325,-108.645"/>
<polygon fill="black" stroke="black" points="239.531,-111.932 247.864,-105.388 237.269,-105.307 239.531,-111.932"/>
<g id="a_edge3&#45;headlabel"><a xlink:href="dir_000020_000023.html" target="_top" xlink:title="2">
<text text-anchor="middle" x="237.047" y="-113.28" font-family="Helvetica,sans-Serif" font-size="10.00">2</text>
</a>
</g>
</g>
<!-- dir_e1d3a58c952f3de1419780d008a20c9e&#45;&gt;dir_1999bd0b5a0bb9db12366bc1ddfefb6a -->
<g id="edge1" class="edge"><title>dir_e1d3a58c952f3de1419780d008a20c9e&#45;&gt;dir_1999bd0b5a0bb9db12366bc1ddfefb6a</title>
<path fill="none" stroke="black" d="M276.404,-71.6966C269.877,-63.3893 261.932,-53.2771 254.753,-44.1407"/>
<polygon fill="black" stroke="black" points="257.369,-41.8051 248.439,-36.1043 251.865,-46.1299 257.369,-41.8051"/>
<g id="a_edge1&#45;headlabel"><a xlink:href="dir_000023_000022.html" target="_top" xlink:title="1">
<text text-anchor="middle" x="261.823" y="-40.3775" font-family="Helvetica,sans-Serif" font-size="10.00">1</text>
</a>
</g>
</g>
</g>
</svg>
