<?xml version="1.0" encoding="UTF-8" standalone="no"?>
<!DOCTYPE svg PUBLIC "-//W3C//DTD SVG 1.1//EN"
 "http://www.w3.org/Graphics/SVG/1.1/DTD/svg11.dtd">
<!-- Generated by graphviz version 2.38.0 (20140413.2041)
 -->
<!-- Title: engine/AssimpImporter Pages: 1 -->
<svg width="126pt" height="223pt"
 viewBox="0.00 0.00 126.00 223.00" xmlns="http://www.w3.org/2000/svg" xmlns:xlink="http://www.w3.org/1999/xlink">
<g id="graph0" class="graph" transform="scale(1 1) rotate(0) translate(4 219)">
<title>engine/AssimpImporter</title>
<g id="clust1" class="cluster"><title>clusterdir_996f45160da62e1a3d7f6046fad68f51</title>
<g id="a_clust1"><a xlink:href="dir_996f45160da62e1a3d7f6046fad68f51.html" target="_top" xlink:title="engine">
<polygon fill="#ddddee" stroke="black" points="8,-136 8,-207 110,-207 110,-136 8,-136"/>
<text text-anchor="middle" x="59" y="-195" font-family="Helvetica,sans-Serif" font-size="10.00">engine</text>
</a>
</g>
</g>
<!-- dir_b7a1b3aac5fc8229ebcf624041b688b6 -->
<g id="node1" class="node"><title>dir_b7a1b3aac5fc8229ebcf624041b688b6</title>
<g id="a_node1"><a xlink:href="dir_b7a1b3aac5fc8229ebcf624041b688b6.html" target="_top" xlink:title="AssimpImporter">
<polygon fill="#eeeeff" stroke="black" points="102,-180 16,-180 16,-144 102,-144 102,-180"/>
<text text-anchor="middle" x="59" y="-159.5" font-family="Helvetica,sans-Serif" font-size="10.00">AssimpImporter</text>
</a>
</g>
</g>
<!-- dir_ba775a609e100e11fec950409e9afc1d -->
<g id="node2" class="node"><title>dir_ba775a609e100e11fec950409e9afc1d</title>
<g id="a_node2"><a xlink:href="dir_ba775a609e100e11fec950409e9afc1d.html" target="_top" xlink:title="Scene">
<polygon fill="none" stroke="black" points="59,-108 5,-108 5,-72 59,-72 59,-108"/>
<text text-anchor="middle" x="32" y="-87.5" font-family="Helvetica,sans-Serif" font-size="10.00">Scene</text>
</a>
</g>
</g>
<!-- dir_b7a1b3aac5fc8229ebcf624041b688b6&#45;&gt;dir_ba775a609e100e11fec950409e9afc1d -->
<g id="edge2" class="edge"><title>dir_b7a1b3aac5fc8229ebcf624041b688b6&#45;&gt;dir_ba775a609e100e11fec950409e9afc1d</title>
<path fill="none" stroke="black" d="M52.3258,-143.697C49.2851,-135.813 45.6173,-126.304 42.2393,-117.546"/>
<polygon fill="black" stroke="black" points="45.4617,-116.175 38.5974,-108.104 38.9307,-118.694 45.4617,-116.175"/>
<g id="a_edge2&#45;headlabel"><a xlink:href="dir_000004_000020.html" target="_top" xlink:title="1">
<text text-anchor="middle" x="49.4043" y="-116.007" font-family="Helvetica,sans-Serif" font-size="10.00">1</text>
</a>
</g>
</g>
<!-- dir_b0e652ac9949ee2dc3907b5e9895ade1 -->
<g id="node3" class="node"><title>dir_b0e652ac9949ee2dc3907b5e9895ade1</title>
<g id="a_node3"><a xlink:href="dir_b0e652ac9949ee2dc3907b5e9895ade1.html" target="_top" xlink:title="AssimpScene">
<polygon fill="none" stroke="black" points="97.5,-36 20.5,-36 20.5,-0 97.5,-0 97.5,-36"/>
<text text-anchor="middle" x="59" y="-15.5" font-family="Helvetica,sans-Serif" font-size="10.00">AssimpScene</text>
</a>
</g>
</g>
<!-- dir_b7a1b3aac5fc8229ebcf624041b688b6&#45;&gt;dir_b0e652ac9949ee2dc3907b5e9895ade1 -->
<g id="edge3" class="edge"><title>dir_b7a1b3aac5fc8229ebcf624041b688b6&#45;&gt;dir_b0e652ac9949ee2dc3907b5e9895ade1</title>
<path fill="none" stroke="black" d="M62.6538,-143.908C64.6758,-133.569 66.9808,-120.09 68,-108 69.3441,-92.0566 69.3441,-87.9434 68,-72 67.2834,-63.4991 65.9311,-54.3119 64.4884,-46.0122"/>
<polygon fill="black" stroke="black" points="67.9142,-45.2892 62.6538,-36.0925 61.0309,-46.5623 67.9142,-45.2892"/>
<g id="a_edge3&#45;headlabel"><a xlink:href="dir_000004_000005.html" target="_top" xlink:title="1">
<text text-anchor="middle" x="71.3597" y="-45.8075" font-family="Helvetica,sans-Serif" font-size="10.00">1</text>
</a>
</g>
</g>
<!-- dir_ba775a609e100e11fec950409e9afc1d&#45;&gt;dir_b0e652ac9949ee2dc3907b5e9895ade1 -->
<g id="edge1" class="edge"><title>dir_ba775a609e100e11fec950409e9afc1d&#45;&gt;dir_b0e652ac9949ee2dc3907b5e9895ade1</title>
<path fill="none" stroke="black" d="M38.6742,-71.6966C41.7149,-63.8132 45.3827,-54.3042 48.7607,-45.5464"/>
<polygon fill="black" stroke="black" points="52.0693,-46.6939 52.4026,-36.1043 45.5383,-44.1748 52.0693,-46.6939"/>
<g id="a_edge1&#45;headlabel"><a xlink:href="dir_000020_000005.html" target="_top" xlink:title="1">
<text text-anchor="middle" x="53.4248" y="-48.5695" font-family="Helvetica,sans-Serif" font-size="10.00">1</text>
</a>
</g>
</g>
</g>
</svg>
