<?xml version="1.0" encoding="UTF-8" standalone="no"?>
<!DOCTYPE svg PUBLIC "-//W3C//DTD SVG 1.1//EN"
 "http://www.w3.org/Graphics/SVG/1.1/DTD/svg11.dtd">
<!-- Generated by graphviz version 2.38.0 (20140413.2041)
 -->
<!-- Title: engine/ShaderProgram Pages: 1 -->
<svg width="124pt" height="223pt"
 viewBox="0.00 0.00 124.00 223.00" xmlns="http://www.w3.org/2000/svg" xmlns:xlink="http://www.w3.org/1999/xlink">
<g id="graph0" class="graph" transform="scale(1 1) rotate(0) translate(4 219)">
<title>engine/ShaderProgram</title>
<g id="clust1" class="cluster"><title>clusterdir_996f45160da62e1a3d7f6046fad68f51</title>
<g id="a_clust1"><a xlink:href="dir_996f45160da62e1a3d7f6046fad68f51.html" target="_top" xlink:title="engine">
<polygon fill="#ddddee" stroke="black" points="8,-136 8,-207 108,-207 108,-136 8,-136"/>
<text text-anchor="middle" x="58" y="-195" font-family="Helvetica,sans-Serif" font-size="10.00">engine</text>
</a>
</g>
</g>
<!-- dir_8d9108dda3c239cf08b47fed3bf8c3b4 -->
<g id="node1" class="node"><title>dir_8d9108dda3c239cf08b47fed3bf8c3b4</title>
<g id="a_node1"><a xlink:href="dir_8d9108dda3c239cf08b47fed3bf8c3b4.html" target="_top" xlink:title="ShaderProgram">
<polygon fill="#eeeeff" stroke="black" points="100,-180 16,-180 16,-144 100,-144 100,-180"/>
<text text-anchor="middle" x="58" y="-159.5" font-family="Helvetica,sans-Serif" font-size="10.00">ShaderProgram</text>
</a>
</g>
</g>
<!-- dir_9257174f690635f75a6c414b151b5118 -->
<g id="node2" class="node"><title>dir_9257174f690635f75a6c414b151b5118</title>
<g id="a_node2"><a xlink:href="dir_9257174f690635f75a6c414b151b5118.html" target="_top" xlink:title="window">
<polygon fill="none" stroke="black" points="85,-36 31,-36 31,-0 85,-0 85,-36"/>
<text text-anchor="middle" x="58" y="-15.5" font-family="Helvetica,sans-Serif" font-size="10.00">window</text>
</a>
</g>
</g>
<!-- dir_8d9108dda3c239cf08b47fed3bf8c3b4&#45;&gt;dir_9257174f690635f75a6c414b151b5118 -->
<g id="edge1" class="edge"><title>dir_8d9108dda3c239cf08b47fed3bf8c3b4&#45;&gt;dir_9257174f690635f75a6c414b151b5118</title>
<path fill="none" stroke="black" d="M54.7517,-143.888C52.9542,-133.542 50.9053,-120.063 50,-108 48.8026,-92.0449 48.8026,-87.9551 50,-72 50.6366,-63.5179 51.8384,-54.3361 53.1208,-46.0356"/>
<polygon fill="black" stroke="black" points="56.5836,-46.5472 54.7517,-36.1119 49.6763,-45.412 56.5836,-46.5472"/>
<g id="a_edge1&#45;headlabel"><a xlink:href="dir_000026_000034.html" target="_top" xlink:title="1">
<text text-anchor="middle" x="58.8024" y="-48.0546" font-family="Helvetica,sans-Serif" font-size="10.00">1</text>
</a>
</g>
</g>
<!-- dir_6c7ad4a209b4a41f8ea1bd754da7c037 -->
<g id="node3" class="node"><title>dir_6c7ad4a209b4a41f8ea1bd754da7c037</title>
<g id="a_node3"><a xlink:href="dir_6c7ad4a209b4a41f8ea1bd754da7c037.html" target="_top" xlink:title="Shader">
<polygon fill="none" stroke="black" points="113,-108 59,-108 59,-72 113,-72 113,-108"/>
<text text-anchor="middle" x="86" y="-87.5" font-family="Helvetica,sans-Serif" font-size="10.00">Shader</text>
</a>
</g>
</g>
<!-- dir_8d9108dda3c239cf08b47fed3bf8c3b4&#45;&gt;dir_6c7ad4a209b4a41f8ea1bd754da7c037 -->
<g id="edge2" class="edge"><title>dir_8d9108dda3c239cf08b47fed3bf8c3b4&#45;&gt;dir_6c7ad4a209b4a41f8ea1bd754da7c037</title>
<path fill="none" stroke="black" d="M64.9214,-143.697C68.0747,-135.813 71.8783,-126.304 75.3814,-117.546"/>
<polygon fill="black" stroke="black" points="78.694,-118.689 79.1583,-108.104 72.1946,-116.089 78.694,-118.689"/>
<g id="a_edge2&#45;headlabel"><a xlink:href="dir_000026_000023.html" target="_top" xlink:title="1">
<text text-anchor="middle" x="79.9952" y="-120.581" font-family="Helvetica,sans-Serif" font-size="10.00">1</text>
</a>
</g>
</g>
<!-- dir_6c7ad4a209b4a41f8ea1bd754da7c037&#45;&gt;dir_9257174f690635f75a6c414b151b5118 -->
<g id="edge3" class="edge"><title>dir_6c7ad4a209b4a41f8ea1bd754da7c037&#45;&gt;dir_9257174f690635f75a6c414b151b5118</title>
<path fill="none" stroke="black" d="M79.0786,-71.6966C75.9253,-63.8132 72.1217,-54.3042 68.6186,-45.5464"/>
<polygon fill="black" stroke="black" points="71.8054,-44.0892 64.8417,-36.1043 65.306,-46.689 71.8054,-44.0892"/>
<g id="a_edge3&#45;headlabel"><a xlink:href="dir_000023_000034.html" target="_top" xlink:title="1">
<text text-anchor="middle" x="75.7765" y="-43.8723" font-family="Helvetica,sans-Serif" font-size="10.00">1</text>
</a>
</g>
</g>
</g>
</svg>
