<?xml version="1.0" encoding="UTF-8" standalone="no"?>
<!DOCTYPE svg PUBLIC "-//W3C//DTD SVG 1.1//EN"
 "http://www.w3.org/Graphics/SVG/1.1/DTD/svg11.dtd">
<!-- Generated by graphviz version 2.38.0 (20140413.2041)
 -->
<!-- Title: engine/ShaderProgramLibrary Pages: 1 -->
<svg width="269pt" height="303pt"
 viewBox="0.00 0.00 268.50 303.00" xmlns="http://www.w3.org/2000/svg" xmlns:xlink="http://www.w3.org/1999/xlink">
<g id="graph0" class="graph" transform="scale(1 1) rotate(0) translate(4 299)">
<title>engine/ShaderProgramLibrary</title>
<g id="clust1" class="cluster"><title>clusterdir_996f45160da62e1a3d7f6046fad68f51</title>
<g id="a_clust1"><a xlink:href="dir_996f45160da62e1a3d7f6046fad68f51.html" target="_top" xlink:title="engine">
<polygon fill="#ddddee" stroke="black" points="29,-128 29,-287 175,-287 175,-128 29,-128"/>
<text text-anchor="middle" x="102" y="-275" font-family="Helvetica,sans-Serif" font-size="10.00">engine</text>
</a>
</g>
</g>
<g id="clust2" class="cluster"><title>clusterdir_c7ca53a371db3aaaa90f5de0c52e0180</title>
<g id="a_clust2"><a xlink:href="dir_c7ca53a371db3aaaa90f5de0c52e0180.html" target="_top">
<polygon fill="#eeeeff" stroke="black" points="37,-136 37,-260 167,-260 167,-136 37,-136"/>
</a>
</g>
</g>
<!-- dir_c7ca53a371db3aaaa90f5de0c52e0180 -->
<g id="node1" class="node"><title>dir_c7ca53a371db3aaaa90f5de0c52e0180</title>
<text text-anchor="middle" x="102" y="-231.5" font-family="Helvetica,sans-Serif" font-size="10.00">ShaderProgramLibrary</text>
</g>
<!-- dir_06949e2a5a9e51b79febede2cb1f7013 -->
<g id="node2" class="node"><title>dir_06949e2a5a9e51b79febede2cb1f7013</title>
<g id="a_node2"><a xlink:href="dir_06949e2a5a9e51b79febede2cb1f7013.html" target="_top" xlink:title="internal">
<polygon fill="white" stroke="black" points="127,-180 73,-180 73,-144 127,-144 127,-180"/>
<text text-anchor="middle" x="100" y="-159.5" font-family="Helvetica,sans-Serif" font-size="10.00">internal</text>
</a>
</g>
</g>
<!-- dir_c7ca53a371db3aaaa90f5de0c52e0180&#45;&gt;dir_06949e2a5a9e51b79febede2cb1f7013 -->
<g id="edge4" class="edge"><title>dir_c7ca53a371db3aaaa90f5de0c52e0180&#45;&gt;dir_06949e2a5a9e51b79febede2cb1f7013</title>
<path fill="none" stroke="black" d="M101.506,-215.697C101.285,-207.983 101.02,-198.712 100.775,-190.112"/>
<polygon fill="black" stroke="black" points="104.273,-190 100.489,-180.104 97.2758,-190.2 104.273,-190"/>
<g id="a_edge4&#45;headlabel"><a xlink:href="dir_000027_000028.html" target="_top" xlink:title="1">
<text text-anchor="middle" x="107.214" y="-191.012" font-family="Helvetica,sans-Serif" font-size="10.00">1</text>
</a>
</g>
</g>
<!-- dir_02303b2d12aef3ee678de5e70c9c5297 -->
<g id="node5" class="node"><title>dir_02303b2d12aef3ee678de5e70c9c5297</title>
<g id="a_node5"><a xlink:href="dir_02303b2d12aef3ee678de5e70c9c5297.html" target="_top" xlink:title="Library">
<polygon fill="none" stroke="black" points="194,-108 140,-108 140,-72 194,-72 194,-108"/>
<text text-anchor="middle" x="167" y="-87.5" font-family="Helvetica,sans-Serif" font-size="10.00">Library</text>
</a>
</g>
</g>
<!-- dir_c7ca53a371db3aaaa90f5de0c52e0180&#45;&gt;dir_02303b2d12aef3ee678de5e70c9c5297 -->
<g id="edge5" class="edge"><title>dir_c7ca53a371db3aaaa90f5de0c52e0180&#45;&gt;dir_02303b2d12aef3ee678de5e70c9c5297</title>
<path fill="none" stroke="black" d="M114.409,-215.937C121.379,-205.833 129.879,-192.583 136,-180 145.753,-159.952 153.906,-136.032 159.399,-118.041"/>
<polygon fill="black" stroke="black" points="162.828,-118.79 162.318,-108.208 156.117,-116.798 162.828,-118.79"/>
<g id="a_edge5&#45;headlabel"><a xlink:href="dir_000027_000011.html" target="_top" xlink:title="1">
<text text-anchor="middle" x="164.527" y="-120.544" font-family="Helvetica,sans-Serif" font-size="10.00">1</text>
</a>
</g>
</g>
<!-- dir_cca337c27a5c73ffd11f470374daf5de -->
<g id="node6" class="node"><title>dir_cca337c27a5c73ffd11f470374daf5de</title>
<g id="a_node6"><a xlink:href="dir_cca337c27a5c73ffd11f470374daf5de.html" target="_top" xlink:title="ShaderLibrary">
<polygon fill="none" stroke="red" points="260.5,-180 183.5,-180 183.5,-144 260.5,-144 260.5,-180"/>
<text text-anchor="middle" x="222" y="-159.5" font-family="Helvetica,sans-Serif" font-size="10.00">ShaderLibrary</text>
</a>
</g>
</g>
<!-- dir_c7ca53a371db3aaaa90f5de0c52e0180&#45;&gt;dir_cca337c27a5c73ffd11f470374daf5de -->
<g id="edge6" class="edge"><title>dir_c7ca53a371db3aaaa90f5de0c52e0180&#45;&gt;dir_cca337c27a5c73ffd11f470374daf5de</title>
<path fill="none" stroke="black" d="M131.355,-215.876C147.045,-206.724 166.557,-195.342 183.454,-185.485"/>
<polygon fill="black" stroke="black" points="185.658,-188.252 192.532,-180.19 182.13,-182.205 185.658,-188.252"/>
<g id="a_edge6&#45;headlabel"><a xlink:href="dir_000027_000024.html" target="_top" xlink:title="2">
<text text-anchor="middle" x="183.983" y="-190.015" font-family="Helvetica,sans-Serif" font-size="10.00">2</text>
</a>
</g>
</g>
<!-- dir_8d9108dda3c239cf08b47fed3bf8c3b4 -->
<g id="node3" class="node"><title>dir_8d9108dda3c239cf08b47fed3bf8c3b4</title>
<g id="a_node3"><a xlink:href="dir_8d9108dda3c239cf08b47fed3bf8c3b4.html" target="_top" xlink:title="ShaderProgram">
<polygon fill="none" stroke="black" points="84,-108 7.10543e-15,-108 7.10543e-15,-72 84,-72 84,-108"/>
<text text-anchor="middle" x="42" y="-87.5" font-family="Helvetica,sans-Serif" font-size="10.00">ShaderProgram</text>
</a>
</g>
</g>
<!-- dir_06949e2a5a9e51b79febede2cb1f7013&#45;&gt;dir_8d9108dda3c239cf08b47fed3bf8c3b4 -->
<g id="edge2" class="edge"><title>dir_06949e2a5a9e51b79febede2cb1f7013&#45;&gt;dir_8d9108dda3c239cf08b47fed3bf8c3b4</title>
<path fill="none" stroke="black" d="M85.6629,-143.697C78.7095,-135.305 70.2298,-125.07 62.5994,-115.861"/>
<polygon fill="black" stroke="black" points="65.2475,-113.571 56.1722,-108.104 59.8573,-118.038 65.2475,-113.571"/>
<g id="a_edge2&#45;headlabel"><a xlink:href="dir_000028_000026.html" target="_top" xlink:title="2">
<text text-anchor="middle" x="69.7271" y="-112.028" font-family="Helvetica,sans-Serif" font-size="10.00">2</text>
</a>
</g>
</g>
<!-- dir_6c7ad4a209b4a41f8ea1bd754da7c037 -->
<g id="node4" class="node"><title>dir_6c7ad4a209b4a41f8ea1bd754da7c037</title>
<g id="a_node4"><a xlink:href="dir_6c7ad4a209b4a41f8ea1bd754da7c037.html" target="_top" xlink:title="Shader">
<polygon fill="none" stroke="black" points="139,-36 85,-36 85,-0 139,-0 139,-36"/>
<text text-anchor="middle" x="112" y="-15.5" font-family="Helvetica,sans-Serif" font-size="10.00">Shader</text>
</a>
</g>
</g>
<!-- dir_06949e2a5a9e51b79febede2cb1f7013&#45;&gt;dir_6c7ad4a209b4a41f8ea1bd754da7c037 -->
<g id="edge3" class="edge"><title>dir_06949e2a5a9e51b79febede2cb1f7013&#45;&gt;dir_6c7ad4a209b4a41f8ea1bd754da7c037</title>
<path fill="none" stroke="black" d="M101.447,-143.871C103.493,-119.67 107.25,-75.2108 109.685,-46.3932"/>
<polygon fill="black" stroke="black" points="113.193,-46.4485 110.547,-36.1893 106.218,-45.859 113.193,-46.4485"/>
<g id="a_edge3&#45;headlabel"><a xlink:href="dir_000028_000023.html" target="_top" xlink:title="1">
<text text-anchor="middle" x="115.719" y="-47.7694" font-family="Helvetica,sans-Serif" font-size="10.00">1</text>
</a>
</g>
</g>
<!-- dir_8d9108dda3c239cf08b47fed3bf8c3b4&#45;&gt;dir_6c7ad4a209b4a41f8ea1bd754da7c037 -->
<g id="edge1" class="edge"><title>dir_8d9108dda3c239cf08b47fed3bf8c3b4&#45;&gt;dir_6c7ad4a209b4a41f8ea1bd754da7c037</title>
<path fill="none" stroke="black" d="M59.3034,-71.6966C67.865,-63.135 78.3438,-52.6562 87.6955,-43.3045"/>
<polygon fill="black" stroke="black" points="90.2995,-45.6503 94.8957,-36.1043 85.3497,-40.7005 90.2995,-45.6503"/>
<g id="a_edge1&#45;headlabel"><a xlink:href="dir_000026_000023.html" target="_top" xlink:title="1">
<text text-anchor="middle" x="89.7654" y="-47.6997" font-family="Helvetica,sans-Serif" font-size="10.00">1</text>
</a>
</g>
</g>
<!-- dir_cca337c27a5c73ffd11f470374daf5de&#45;&gt;dir_6c7ad4a209b4a41f8ea1bd754da7c037 -->
<g id="edge7" class="edge"><title>dir_cca337c27a5c73ffd11f470374daf5de&#45;&gt;dir_6c7ad4a209b4a41f8ea1bd754da7c037</title>
<path fill="none" stroke="black" d="M222.32,-143.957C221.847,-124.732 218.478,-93.3686 203,-72 189.605,-53.5066 167.619,-40.4429 148.614,-31.9127"/>
<polygon fill="black" stroke="black" points="149.866,-28.6421 139.293,-27.973 147.141,-35.0899 149.866,-28.6421"/>
<g id="a_edge7&#45;headlabel"><a xlink:href="dir_000024_000023.html" target="_top" xlink:title="4">
<text text-anchor="middle" x="154.283" y="-24.9261" font-family="Helvetica,sans-Serif" font-size="10.00">4</text>
</a>
</g>
</g>
<!-- dir_cca337c27a5c73ffd11f470374daf5de&#45;&gt;dir_02303b2d12aef3ee678de5e70c9c5297 -->
<g id="edge8" class="edge"><title>dir_cca337c27a5c73ffd11f470374daf5de&#45;&gt;dir_02303b2d12aef3ee678de5e70c9c5297</title>
<path fill="none" stroke="black" d="M208.404,-143.697C201.877,-135.389 193.932,-125.277 186.753,-116.141"/>
<polygon fill="black" stroke="black" points="189.369,-113.805 180.439,-108.104 183.865,-118.13 189.369,-113.805"/>
<g id="a_edge8&#45;headlabel"><a xlink:href="dir_000024_000011.html" target="_top" xlink:title="1">
<text text-anchor="middle" x="193.823" y="-112.377" font-family="Helvetica,sans-Serif" font-size="10.00">1</text>
</a>
</g>
</g>
</g>
</svg>
