<?xml version="1.0" encoding="UTF-8" standalone="no"?>
<!DOCTYPE svg PUBLIC "-//W3C//DTD SVG 1.1//EN"
 "http://www.w3.org/Graphics/SVG/1.1/DTD/svg11.dtd">
<!-- Generated by graphviz version 2.38.0 (20140413.2041)
 -->
<!-- Title: engine/MaterialLibrary Pages: 1 -->
<svg width="207pt" height="223pt"
 viewBox="0.00 0.00 206.66 223.00" xmlns="http://www.w3.org/2000/svg" xmlns:xlink="http://www.w3.org/1999/xlink">
<g id="graph0" class="graph" transform="scale(1 1) rotate(0) translate(4 219)">
<title>engine/MaterialLibrary</title>
<g id="clust1" class="cluster"><title>clusterdir_996f45160da62e1a3d7f6046fad68f51</title>
<g id="a_clust1"><a xlink:href="dir_996f45160da62e1a3d7f6046fad68f51.html" target="_top" xlink:title="engine">
<polygon fill="#ddddee" stroke="black" points="81,-136 81,-207 177,-207 177,-136 81,-136"/>
<text text-anchor="middle" x="129" y="-195" font-family="Helvetica,sans-Serif" font-size="10.00">engine</text>
</a>
</g>
</g>
<!-- dir_5a7d2741bb1a02a1f8374392e7b7e10e -->
<g id="node1" class="node"><title>dir_5a7d2741bb1a02a1f8374392e7b7e10e</title>
<g id="a_node1"><a xlink:href="dir_5a7d2741bb1a02a1f8374392e7b7e10e.html" target="_top" xlink:title="MaterialLibrary">
<polygon fill="#eeeeff" stroke="black" points="169,-180 89,-180 89,-144 169,-144 169,-180"/>
<text text-anchor="middle" x="129" y="-159.5" font-family="Helvetica,sans-Serif" font-size="10.00">MaterialLibrary</text>
</a>
</g>
</g>
<!-- dir_b41e47541e4ab589c73a15e470a6bf7f -->
<g id="node2" class="node"><title>dir_b41e47541e4ab589c73a15e470a6bf7f</title>
<g id="a_node2"><a xlink:href="dir_b41e47541e4ab589c73a15e470a6bf7f.html" target="_top" xlink:title="Material">
<polygon fill="none" stroke="black" points="54,-108 0,-108 0,-72 54,-72 54,-108"/>
<text text-anchor="middle" x="27" y="-87.5" font-family="Helvetica,sans-Serif" font-size="10.00">Material</text>
</a>
</g>
</g>
<!-- dir_5a7d2741bb1a02a1f8374392e7b7e10e&#45;&gt;dir_b41e47541e4ab589c73a15e470a6bf7f -->
<g id="edge2" class="edge"><title>dir_5a7d2741bb1a02a1f8374392e7b7e10e&#45;&gt;dir_b41e47541e4ab589c73a15e470a6bf7f</title>
<path fill="none" stroke="black" d="M104.048,-143.876C90.9585,-134.893 74.7397,-123.763 60.564,-114.034"/>
<polygon fill="black" stroke="black" points="62.2735,-110.962 52.0479,-108.19 58.3126,-116.734 62.2735,-110.962"/>
<g id="a_edge2&#45;headlabel"><a xlink:href="dir_000014_000013.html" target="_top" xlink:title="2">
<text text-anchor="middle" x="66.8439" y="-108.155" font-family="Helvetica,sans-Serif" font-size="10.00">2</text>
</a>
</g>
</g>
<!-- dir_c7ca53a371db3aaaa90f5de0c52e0180 -->
<g id="node3" class="node"><title>dir_c7ca53a371db3aaaa90f5de0c52e0180</title>
<g id="a_node3"><a xlink:href="dir_c7ca53a371db3aaaa90f5de0c52e0180.html" target="_top" xlink:title="ShaderProgramLibrary">
<polygon fill="none" stroke="red" points="185.5,-108 72.5,-108 72.5,-72 185.5,-72 185.5,-108"/>
<text text-anchor="middle" x="129" y="-87.5" font-family="Helvetica,sans-Serif" font-size="10.00">ShaderProgramLibrary</text>
</a>
</g>
</g>
<!-- dir_5a7d2741bb1a02a1f8374392e7b7e10e&#45;&gt;dir_c7ca53a371db3aaaa90f5de0c52e0180 -->
<g id="edge3" class="edge"><title>dir_5a7d2741bb1a02a1f8374392e7b7e10e&#45;&gt;dir_c7ca53a371db3aaaa90f5de0c52e0180</title>
<path fill="none" stroke="black" d="M129,-143.697C129,-135.983 129,-126.712 129,-118.112"/>
<polygon fill="black" stroke="black" points="132.5,-118.104 129,-108.104 125.5,-118.104 132.5,-118.104"/>
<g id="a_edge3&#45;headlabel"><a xlink:href="dir_000014_000027.html" target="_top" xlink:title="1">
<text text-anchor="middle" x="135.339" y="-119.199" font-family="Helvetica,sans-Serif" font-size="10.00">1</text>
</a>
</g>
</g>
<!-- dir_02303b2d12aef3ee678de5e70c9c5297 -->
<g id="node4" class="node"><title>dir_02303b2d12aef3ee678de5e70c9c5297</title>
<g id="a_node4"><a xlink:href="dir_02303b2d12aef3ee678de5e70c9c5297.html" target="_top" xlink:title="Library">
<polygon fill="none" stroke="black" points="198,-36 144,-36 144,-0 198,-0 198,-36"/>
<text text-anchor="middle" x="171" y="-15.5" font-family="Helvetica,sans-Serif" font-size="10.00">Library</text>
</a>
</g>
</g>
<!-- dir_5a7d2741bb1a02a1f8374392e7b7e10e&#45;&gt;dir_02303b2d12aef3ee678de5e70c9c5297 -->
<g id="edge4" class="edge"><title>dir_5a7d2741bb1a02a1f8374392e7b7e10e&#45;&gt;dir_02303b2d12aef3ee678de5e70c9c5297</title>
<path fill="none" stroke="black" d="M160.58,-143.776C173.45,-134.931 186.942,-122.863 194,-108 203.561,-87.8672 195.846,-63.2137 186.858,-44.9635"/>
<polygon fill="black" stroke="black" points="189.91,-43.2492 182.127,-36.0614 183.729,-46.5344 189.91,-43.2492"/>
<g id="a_edge4&#45;headlabel"><a xlink:href="dir_000014_000011.html" target="_top" xlink:title="1">
<text text-anchor="middle" x="194.104" y="-42.5909" font-family="Helvetica,sans-Serif" font-size="10.00">1</text>
</a>
</g>
</g>
<!-- dir_c7ca53a371db3aaaa90f5de0c52e0180&#45;&gt;dir_02303b2d12aef3ee678de5e70c9c5297 -->
<g id="edge1" class="edge"><title>dir_c7ca53a371db3aaaa90f5de0c52e0180&#45;&gt;dir_02303b2d12aef3ee678de5e70c9c5297</title>
<path fill="none" stroke="black" d="M139.382,-71.6966C144.265,-63.5589 150.187,-53.689 155.579,-44.7013"/>
<polygon fill="black" stroke="black" points="158.594,-46.48 160.737,-36.1043 152.591,-42.8785 158.594,-46.48"/>
<g id="a_edge1&#45;headlabel"><a xlink:href="dir_000027_000011.html" target="_top" xlink:title="1">
<text text-anchor="middle" x="159.179" y="-48.5232" font-family="Helvetica,sans-Serif" font-size="10.00">1</text>
</a>
</g>
</g>
</g>
</svg>
