<?xml version="1.0" encoding="UTF-8" standalone="no"?>
<!DOCTYPE svg PUBLIC "-//W3C//DTD SVG 1.1//EN"
 "http://www.w3.org/Graphics/SVG/1.1/DTD/svg11.dtd">
<!-- Generated by graphviz version 2.38.0 (20140413.2041)
 -->
<!-- Title: engine/Primitives/Cube Pages: 1 -->
<svg width="150pt" height="223pt"
 viewBox="0.00 0.00 150.00 223.00" xmlns="http://www.w3.org/2000/svg" xmlns:xlink="http://www.w3.org/1999/xlink">
<g id="graph0" class="graph" transform="scale(1 1) rotate(0) translate(4 219)">
<title>engine/Primitives/Cube</title>
<g id="clust1" class="cluster"><title>clusterdir_d186e51cee5d13416ee677b4100a6cb0</title>
<g id="a_clust1"><a xlink:href="dir_d186e51cee5d13416ee677b4100a6cb0.html" target="_top" xlink:title="Primitives">
<polygon fill="#ddddee" stroke="black" points="29,-136 29,-207 99,-207 99,-136 29,-136"/>
<text text-anchor="middle" x="64" y="-195" font-family="Helvetica,sans-Serif" font-size="10.00">Primitives</text>
</a>
</g>
</g>
<!-- dir_807d55d5f35f4275a59d37e1982fdc2c -->
<g id="node1" class="node"><title>dir_807d55d5f35f4275a59d37e1982fdc2c</title>
<g id="a_node1"><a xlink:href="dir_807d55d5f35f4275a59d37e1982fdc2c.html" target="_top" xlink:title="Cube">
<polygon fill="#eeeeff" stroke="black" points="91,-180 37,-180 37,-144 91,-144 91,-180"/>
<text text-anchor="middle" x="64" y="-159.5" font-family="Helvetica,sans-Serif" font-size="10.00">Cube</text>
</a>
</g>
</g>
<!-- dir_3a555b69b7795839eed54f72b7b4132a -->
<g id="node2" class="node"><title>dir_3a555b69b7795839eed54f72b7b4132a</title>
<g id="a_node2"><a xlink:href="dir_3a555b69b7795839eed54f72b7b4132a.html" target="_top" xlink:title="GameObject">
<polygon fill="none" stroke="red" points="99.5,-108 28.5,-108 28.5,-72 99.5,-72 99.5,-108"/>
<text text-anchor="middle" x="64" y="-87.5" font-family="Helvetica,sans-Serif" font-size="10.00">GameObject</text>
</a>
</g>
</g>
<!-- dir_807d55d5f35f4275a59d37e1982fdc2c&#45;&gt;dir_3a555b69b7795839eed54f72b7b4132a -->
<g id="edge3" class="edge"><title>dir_807d55d5f35f4275a59d37e1982fdc2c&#45;&gt;dir_3a555b69b7795839eed54f72b7b4132a</title>
<path fill="none" stroke="black" d="M64,-143.697C64,-135.983 64,-126.712 64,-118.112"/>
<polygon fill="black" stroke="black" points="67.5001,-118.104 64,-108.104 60.5001,-118.104 67.5001,-118.104"/>
<g id="a_edge3&#45;headlabel"><a xlink:href="dir_000012_000006.html" target="_top" xlink:title="1">
<text text-anchor="middle" x="70.3393" y="-119.199" font-family="Helvetica,sans-Serif" font-size="10.00">1</text>
</a>
</g>
</g>
<!-- dir_6e4d7cc950507c27f994556db83bd942 -->
<g id="node3" class="node"><title>dir_6e4d7cc950507c27f994556db83bd942</title>
<g id="a_node3"><a xlink:href="dir_6e4d7cc950507c27f994556db83bd942.html" target="_top" xlink:title="Shaders">
<polygon fill="none" stroke="red" points="54,-36 0,-36 0,-0 54,-0 54,-36"/>
<text text-anchor="middle" x="27" y="-15.5" font-family="Helvetica,sans-Serif" font-size="10.00">Shaders</text>
</a>
</g>
</g>
<!-- dir_807d55d5f35f4275a59d37e1982fdc2c&#45;&gt;dir_6e4d7cc950507c27f994556db83bd942 -->
<g id="edge4" class="edge"><title>dir_807d55d5f35f4275a59d37e1982fdc2c&#45;&gt;dir_6e4d7cc950507c27f994556db83bd942</title>
<path fill="none" stroke="black" d="M43.6214,-143.531C34.1934,-134.092 23.9936,-121.597 19,-108 11.7125,-88.1573 14.449,-64.224 18.6034,-46.1759"/>
<polygon fill="black" stroke="black" points="22.0408,-46.8621 21.1482,-36.305 15.2625,-45.1146 22.0408,-46.8621"/>
<g id="a_edge4&#45;headlabel"><a xlink:href="dir_000012_000016.html" target="_top" xlink:title="1">
<text text-anchor="middle" x="23.8929" y="-48.5517" font-family="Helvetica,sans-Serif" font-size="10.00">1</text>
</a>
</g>
</g>
<!-- dir_37e584d61c1ad01a0f32aaf99da6b41e -->
<g id="node4" class="node"><title>dir_37e584d61c1ad01a0f32aaf99da6b41e</title>
<g id="a_node4"><a xlink:href="dir_37e584d61c1ad01a0f32aaf99da6b41e.html" target="_top" xlink:title="Renderer">
<polygon fill="none" stroke="red" points="142,-36 86,-36 86,-0 142,-0 142,-36"/>
<text text-anchor="middle" x="114" y="-15.5" font-family="Helvetica,sans-Serif" font-size="10.00">Renderer</text>
</a>
</g>
</g>
<!-- dir_807d55d5f35f4275a59d37e1982fdc2c&#45;&gt;dir_37e584d61c1ad01a0f32aaf99da6b41e -->
<g id="edge5" class="edge"><title>dir_807d55d5f35f4275a59d37e1982fdc2c&#45;&gt;dir_37e584d61c1ad01a0f32aaf99da6b41e</title>
<path fill="none" stroke="black" d="M83.0964,-143.775C92.3403,-134.221 102.587,-121.549 108,-108 115.84,-88.3764 117.027,-64.3866 116.426,-46.2603"/>
<polygon fill="black" stroke="black" points="119.911,-45.8829 115.883,-36.0835 112.921,-46.2557 119.911,-45.8829"/>
<g id="a_edge5&#45;headlabel"><a xlink:href="dir_000012_000013.html" target="_top" xlink:title="1">
<text text-anchor="middle" x="122.937" y="-46.8212" font-family="Helvetica,sans-Serif" font-size="10.00">1</text>
</a>
</g>
</g>
<!-- dir_3a555b69b7795839eed54f72b7b4132a&#45;&gt;dir_6e4d7cc950507c27f994556db83bd942 -->
<g id="edge1" class="edge"><title>dir_3a555b69b7795839eed54f72b7b4132a&#45;&gt;dir_6e4d7cc950507c27f994556db83bd942</title>
<path fill="none" stroke="black" d="M54.8539,-71.6966C50.5974,-63.6436 45.4442,-53.8945 40.7336,-44.9824"/>
<polygon fill="black" stroke="black" points="43.8083,-43.3097 36.0409,-36.1043 37.6197,-46.5809 43.8083,-43.3097"/>
<g id="a_edge1&#45;headlabel"><a xlink:href="dir_000006_000016.html" target="_top" xlink:title="1">
<text text-anchor="middle" x="47.9982" y="-42.6609" font-family="Helvetica,sans-Serif" font-size="10.00">1</text>
</a>
</g>
</g>
<!-- dir_3a555b69b7795839eed54f72b7b4132a&#45;&gt;dir_37e584d61c1ad01a0f32aaf99da6b41e -->
<g id="edge2" class="edge"><title>dir_3a555b69b7795839eed54f72b7b4132a&#45;&gt;dir_37e584d61c1ad01a0f32aaf99da6b41e</title>
<path fill="none" stroke="black" d="M76.3596,-71.6966C82.2328,-63.4741 89.3691,-53.4832 95.8424,-44.4207"/>
<polygon fill="black" stroke="black" points="98.8183,-46.276 101.783,-36.1043 93.1221,-42.2073 98.8183,-46.276"/>
<g id="a_edge2&#45;headlabel"><a xlink:href="dir_000006_000013.html" target="_top" xlink:title="2">
<text text-anchor="middle" x="99.0394" y="-48.3514" font-family="Helvetica,sans-Serif" font-size="10.00">2</text>
</a>
</g>
</g>
</g>
</svg>
