<?xml version="1.0" encoding="UTF-8" standalone="no"?>
<!DOCTYPE svg PUBLIC "-//W3C//DTD SVG 1.1//EN"
 "http://www.w3.org/Graphics/SVG/1.1/DTD/svg11.dtd">
<!-- Generated by graphviz version 2.38.0 (20140413.2041)
 -->
<!-- Title: engine/GameObject Pages: 1 -->
<svg width="315pt" height="231pt"
 viewBox="0.00 0.00 314.50 231.00" xmlns="http://www.w3.org/2000/svg" xmlns:xlink="http://www.w3.org/1999/xlink">
<g id="graph0" class="graph" transform="scale(1 1) rotate(0) translate(4 227)">
<title>engine/GameObject</title>
<g id="clust1" class="cluster"><title>clusterdir_996f45160da62e1a3d7f6046fad68f51</title>
<g id="a_clust1"><a xlink:href="dir_996f45160da62e1a3d7f6046fad68f51.html" target="_top" xlink:title="engine">
<polygon fill="#ddddee" stroke="black" points="122.5,-128 122.5,-215 298.5,-215 298.5,-128 122.5,-128"/>
<text text-anchor="middle" x="210.5" y="-203" font-family="Helvetica,sans-Serif" font-size="10.00">engine</text>
</a>
</g>
</g>
<g id="clust2" class="cluster"><title>clusterdir_3a555b69b7795839eed54f72b7b4132a</title>
<g id="a_clust2"><a xlink:href="dir_3a555b69b7795839eed54f72b7b4132a.html" target="_top">
<polygon fill="#eeeeff" stroke="black" points="130.5,-136 130.5,-188 290.5,-188 290.5,-136 130.5,-136"/>
</a>
</g>
</g>
<!-- dir_3a555b69b7795839eed54f72b7b4132a -->
<g id="node1" class="node"><title>dir_3a555b69b7795839eed54f72b7b4132a</title>
<text text-anchor="middle" x="174.5" y="-159.5" font-family="Helvetica,sans-Serif" font-size="10.00">GameObject</text>
</g>
<!-- dir_c9dbd819322c113e6234637a00e97751 -->
<g id="node3" class="node"><title>dir_c9dbd819322c113e6234637a00e97751</title>
<g id="a_node3"><a xlink:href="dir_c9dbd819322c113e6234637a00e97751.html" target="_top" xlink:title="Transform">
<polygon fill="none" stroke="black" points="61,-108 -3.55271e-15,-108 -3.55271e-15,-72 61,-72 61,-108"/>
<text text-anchor="middle" x="30.5" y="-87.5" font-family="Helvetica,sans-Serif" font-size="10.00">Transform</text>
</a>
</g>
</g>
<!-- dir_3a555b69b7795839eed54f72b7b4132a&#45;&gt;dir_c9dbd819322c113e6234637a00e97751 -->
<g id="edge2" class="edge"><title>dir_3a555b69b7795839eed54f72b7b4132a&#45;&gt;dir_c9dbd819322c113e6234637a00e97751</title>
<path fill="none" stroke="black" d="M139.274,-143.876C118.53,-133.792 92.2194,-121.002 70.671,-110.528"/>
<polygon fill="black" stroke="black" points="71.9749,-107.27 61.451,-106.046 68.9145,-113.565 71.9749,-107.27"/>
<g id="a_edge2&#45;headlabel"><a xlink:href="dir_000006_000024.html" target="_top" xlink:title="1">
<text text-anchor="middle" x="76.4491" y="-103.788" font-family="Helvetica,sans-Serif" font-size="10.00">1</text>
</a>
</g>
</g>
<!-- dir_b41e47541e4ab589c73a15e470a6bf7f -->
<g id="node4" class="node"><title>dir_b41e47541e4ab589c73a15e470a6bf7f</title>
<g id="a_node4"><a xlink:href="dir_b41e47541e4ab589c73a15e470a6bf7f.html" target="_top" xlink:title="Material">
<polygon fill="none" stroke="black" points="133.5,-108 79.5,-108 79.5,-72 133.5,-72 133.5,-108"/>
<text text-anchor="middle" x="106.5" y="-87.5" font-family="Helvetica,sans-Serif" font-size="10.00">Material</text>
</a>
</g>
</g>
<!-- dir_3a555b69b7795839eed54f72b7b4132a&#45;&gt;dir_b41e47541e4ab589c73a15e470a6bf7f -->
<g id="edge3" class="edge"><title>dir_3a555b69b7795839eed54f72b7b4132a&#45;&gt;dir_b41e47541e4ab589c73a15e470a6bf7f</title>
<path fill="none" stroke="black" d="M157.691,-143.697C149.374,-135.135 139.195,-124.656 130.11,-115.304"/>
<polygon fill="black" stroke="black" points="132.594,-112.838 123.116,-108.104 127.573,-117.716 132.594,-112.838"/>
<g id="a_edge3&#45;headlabel"><a xlink:href="dir_000006_000009.html" target="_top" xlink:title="1">
<text text-anchor="middle" x="137.135" y="-110.938" font-family="Helvetica,sans-Serif" font-size="10.00">1</text>
</a>
</g>
</g>
<!-- dir_c7f0c751fa7d09d1405d1c0441c3546f -->
<g id="node5" class="node"><title>dir_c7f0c751fa7d09d1405d1c0441c3546f</title>
<g id="a_node5"><a xlink:href="dir_c7f0c751fa7d09d1405d1c0441c3546f.html" target="_top" xlink:title="Mesh">
<polygon fill="none" stroke="black" points="205.5,-108 151.5,-108 151.5,-72 205.5,-72 205.5,-108"/>
<text text-anchor="middle" x="178.5" y="-87.5" font-family="Helvetica,sans-Serif" font-size="10.00">Mesh</text>
</a>
</g>
</g>
<!-- dir_3a555b69b7795839eed54f72b7b4132a&#45;&gt;dir_c7f0c751fa7d09d1405d1c0441c3546f -->
<g id="edge4" class="edge"><title>dir_3a555b69b7795839eed54f72b7b4132a&#45;&gt;dir_c7f0c751fa7d09d1405d1c0441c3546f</title>
<path fill="none" stroke="black" d="M175.489,-143.697C175.93,-135.983 176.459,-126.712 176.951,-118.112"/>
<polygon fill="black" stroke="black" points="180.446,-118.288 177.523,-108.104 173.458,-117.888 180.446,-118.288"/>
<g id="a_edge4&#45;headlabel"><a xlink:href="dir_000006_000010.html" target="_top" xlink:title="1">
<text text-anchor="middle" x="183.076" y="-119.538" font-family="Helvetica,sans-Serif" font-size="10.00">1</text>
</a>
</g>
</g>
<!-- dir_37e584d61c1ad01a0f32aaf99da6b41e -->
<g id="node7" class="node"><title>dir_37e584d61c1ad01a0f32aaf99da6b41e</title>
<g id="a_node7"><a xlink:href="dir_37e584d61c1ad01a0f32aaf99da6b41e.html" target="_top" xlink:title="Renderer">
<polygon fill="none" stroke="red" points="279.5,-108 223.5,-108 223.5,-72 279.5,-72 279.5,-108"/>
<text text-anchor="middle" x="251.5" y="-87.5" font-family="Helvetica,sans-Serif" font-size="10.00">Renderer</text>
</a>
</g>
</g>
<!-- dir_3a555b69b7795839eed54f72b7b4132a&#45;&gt;dir_37e584d61c1ad01a0f32aaf99da6b41e -->
<g id="edge5" class="edge"><title>dir_3a555b69b7795839eed54f72b7b4132a&#45;&gt;dir_37e584d61c1ad01a0f32aaf99da6b41e</title>
<path fill="none" stroke="black" d="M193.534,-143.697C203.045,-135.05 214.707,-124.449 225.07,-115.027"/>
<polygon fill="black" stroke="black" points="227.64,-117.421 232.685,-108.104 222.931,-112.241 227.64,-117.421"/>
<g id="a_edge5&#45;headlabel"><a xlink:href="dir_000006_000013.html" target="_top" xlink:title="2">
<text text-anchor="middle" x="226.89" y="-119.44" font-family="Helvetica,sans-Serif" font-size="10.00">2</text>
</a>
</g>
</g>
<!-- dir_2dac2ce4ef2c03ba2caf7c67ae287e5d -->
<g id="node2" class="node"><title>dir_2dac2ce4ef2c03ba2caf7c67ae287e5d</title>
<g id="a_node2"><a xlink:href="dir_2dac2ce4ef2c03ba2caf7c67ae287e5d.html" target="_top" xlink:title="Model">
<polygon fill="white" stroke="black" points="282.5,-180 228.5,-180 228.5,-144 282.5,-144 282.5,-180"/>
<text text-anchor="middle" x="255.5" y="-159.5" font-family="Helvetica,sans-Serif" font-size="10.00">Model</text>
</a>
</g>
</g>
<!-- dir_6e4d7cc950507c27f994556db83bd942 -->
<g id="node6" class="node"><title>dir_6e4d7cc950507c27f994556db83bd942</title>
<g id="a_node6"><a xlink:href="dir_6e4d7cc950507c27f994556db83bd942.html" target="_top" xlink:title="Shaders">
<polygon fill="none" stroke="red" points="233.5,-36 179.5,-36 179.5,-0 233.5,-0 233.5,-36"/>
<text text-anchor="middle" x="206.5" y="-15.5" font-family="Helvetica,sans-Serif" font-size="10.00">Shaders</text>
</a>
</g>
</g>
<!-- dir_2dac2ce4ef2c03ba2caf7c67ae287e5d&#45;&gt;dir_6e4d7cc950507c27f994556db83bd942 -->
<g id="edge6" class="edge"><title>dir_2dac2ce4ef2c03ba2caf7c67ae287e5d&#45;&gt;dir_6e4d7cc950507c27f994556db83bd942</title>
<path fill="none" stroke="black" d="M270.229,-143.975C284.244,-125.587 301.421,-95.7371 288.5,-72 278.722,-54.0367 259.945,-41.2329 242.825,-32.7154"/>
<polygon fill="black" stroke="black" points="244.097,-29.4471 233.552,-28.4188 241.154,-35.7985 244.097,-29.4471"/>
<g id="a_edge6&#45;headlabel"><a xlink:href="dir_000007_000016.html" target="_top" xlink:title="1">
<text text-anchor="middle" x="248.552" y="-25.882" font-family="Helvetica,sans-Serif" font-size="10.00">1</text>
</a>
</g>
</g>
<!-- dir_2dac2ce4ef2c03ba2caf7c67ae287e5d&#45;&gt;dir_37e584d61c1ad01a0f32aaf99da6b41e -->
<g id="edge7" class="edge"><title>dir_2dac2ce4ef2c03ba2caf7c67ae287e5d&#45;&gt;dir_37e584d61c1ad01a0f32aaf99da6b41e</title>
<path fill="none" stroke="black" d="M254.511,-143.697C254.07,-135.983 253.541,-126.712 253.049,-118.112"/>
<polygon fill="black" stroke="black" points="256.542,-117.888 252.477,-108.104 249.554,-118.288 256.542,-117.888"/>
<g id="a_edge7&#45;headlabel"><a xlink:href="dir_000007_000013.html" target="_top" xlink:title="1">
<text text-anchor="middle" x="259.582" y="-118.815" font-family="Helvetica,sans-Serif" font-size="10.00">1</text>
</a>
</g>
</g>
<!-- dir_b41e47541e4ab589c73a15e470a6bf7f&#45;&gt;dir_6e4d7cc950507c27f994556db83bd942 -->
<g id="edge1" class="edge"><title>dir_b41e47541e4ab589c73a15e470a6bf7f&#45;&gt;dir_6e4d7cc950507c27f994556db83bd942</title>
<path fill="none" stroke="black" d="M130.963,-71.8761C143.796,-62.8931 159.696,-51.7625 173.594,-42.0341"/>
<polygon fill="black" stroke="black" points="175.758,-44.7917 181.943,-36.1898 171.744,-39.0571 175.758,-44.7917"/>
<g id="a_edge1&#45;headlabel"><a xlink:href="dir_000009_000016.html" target="_top" xlink:title="1">
<text text-anchor="middle" x="174.441" y="-46.6791" font-family="Helvetica,sans-Serif" font-size="10.00">1</text>
</a>
</g>
</g>
</g>
</svg>
