<?xml version="1.0" encoding="UTF-8" standalone="no"?>
<!DOCTYPE svg PUBLIC "-//W3C//DTD SVG 1.1//EN"
 "http://www.w3.org/Graphics/SVG/1.1/DTD/svg11.dtd">
<!-- Generated by graphviz version 2.38.0 (20140413.2041)
 -->
<!-- Title: engine/ShaderLibrary Pages: 1 -->
<svg width="188pt" height="231pt"
 viewBox="0.00 0.00 188.00 231.00" xmlns="http://www.w3.org/2000/svg" xmlns:xlink="http://www.w3.org/1999/xlink">
<g id="graph0" class="graph" transform="scale(1 1) rotate(0) translate(4 227)">
<title>engine/ShaderLibrary</title>
<g id="clust1" class="cluster"><title>clusterdir_996f45160da62e1a3d7f6046fad68f51</title>
<g id="a_clust1"><a xlink:href="dir_996f45160da62e1a3d7f6046fad68f51.html" target="_top" xlink:title="engine">
<polygon fill="#ddddee" stroke="black" points="8,-56 8,-215 118,-215 118,-56 8,-56"/>
<text text-anchor="middle" x="63" y="-203" font-family="Helvetica,sans-Serif" font-size="10.00">engine</text>
</a>
</g>
</g>
<g id="clust2" class="cluster"><title>clusterdir_cca337c27a5c73ffd11f470374daf5de</title>
<g id="a_clust2"><a xlink:href="dir_cca337c27a5c73ffd11f470374daf5de.html" target="_top">
<polygon fill="#eeeeff" stroke="black" points="16,-64 16,-188 110,-188 110,-64 16,-64"/>
</a>
</g>
</g>
<!-- dir_cca337c27a5c73ffd11f470374daf5de -->
<g id="node1" class="node"><title>dir_cca337c27a5c73ffd11f470374daf5de</title>
<text text-anchor="middle" x="63" y="-159.5" font-family="Helvetica,sans-Serif" font-size="10.00">ShaderLibrary</text>
</g>
<!-- dir_edc0cab6df344131c8e5dd936d573fed -->
<g id="node2" class="node"><title>dir_edc0cab6df344131c8e5dd936d573fed</title>
<g id="a_node2"><a xlink:href="dir_edc0cab6df344131c8e5dd936d573fed.html" target="_top" xlink:title="internal">
<polygon fill="white" stroke="black" points="90,-108 36,-108 36,-72 90,-72 90,-108"/>
<text text-anchor="middle" x="63" y="-87.5" font-family="Helvetica,sans-Serif" font-size="10.00">internal</text>
</a>
</g>
</g>
<!-- dir_cca337c27a5c73ffd11f470374daf5de&#45;&gt;dir_edc0cab6df344131c8e5dd936d573fed -->
<g id="edge2" class="edge"><title>dir_cca337c27a5c73ffd11f470374daf5de&#45;&gt;dir_edc0cab6df344131c8e5dd936d573fed</title>
<path fill="none" stroke="black" d="M63,-143.697C63,-135.983 63,-126.712 63,-118.112"/>
<polygon fill="black" stroke="black" points="66.5001,-118.104 63,-108.104 59.5001,-118.104 66.5001,-118.104"/>
<g id="a_edge2&#45;headlabel"><a xlink:href="dir_000024_000025.html" target="_top" xlink:title="1">
<text text-anchor="middle" x="69.3393" y="-119.199" font-family="Helvetica,sans-Serif" font-size="10.00">1</text>
</a>
</g>
</g>
<!-- dir_02303b2d12aef3ee678de5e70c9c5297 -->
<g id="node4" class="node"><title>dir_02303b2d12aef3ee678de5e70c9c5297</title>
<g id="a_node4"><a xlink:href="dir_02303b2d12aef3ee678de5e70c9c5297.html" target="_top" xlink:title="Library">
<polygon fill="none" stroke="black" points="180,-108 126,-108 126,-72 180,-72 180,-108"/>
<text text-anchor="middle" x="153" y="-87.5" font-family="Helvetica,sans-Serif" font-size="10.00">Library</text>
</a>
</g>
</g>
<!-- dir_cca337c27a5c73ffd11f470374daf5de&#45;&gt;dir_02303b2d12aef3ee678de5e70c9c5297 -->
<g id="edge3" class="edge"><title>dir_cca337c27a5c73ffd11f470374daf5de&#45;&gt;dir_02303b2d12aef3ee678de5e70c9c5297</title>
<path fill="none" stroke="black" d="M85.2472,-143.697C96.5819,-134.881 110.53,-124.032 122.819,-114.474"/>
<polygon fill="black" stroke="black" points="125.264,-117.007 131.009,-108.104 120.966,-111.481 125.264,-117.007"/>
<g id="a_edge3&#45;headlabel"><a xlink:href="dir_000024_000011.html" target="_top" xlink:title="1">
<text text-anchor="middle" x="124.17" y="-118.955" font-family="Helvetica,sans-Serif" font-size="10.00">1</text>
</a>
</g>
</g>
<!-- dir_6c7ad4a209b4a41f8ea1bd754da7c037 -->
<g id="node3" class="node"><title>dir_6c7ad4a209b4a41f8ea1bd754da7c037</title>
<g id="a_node3"><a xlink:href="dir_6c7ad4a209b4a41f8ea1bd754da7c037.html" target="_top" xlink:title="Shader">
<polygon fill="none" stroke="black" points="90,-36 36,-36 36,-0 90,-0 90,-36"/>
<text text-anchor="middle" x="63" y="-15.5" font-family="Helvetica,sans-Serif" font-size="10.00">Shader</text>
</a>
</g>
</g>
<!-- dir_edc0cab6df344131c8e5dd936d573fed&#45;&gt;dir_6c7ad4a209b4a41f8ea1bd754da7c037 -->
<g id="edge1" class="edge"><title>dir_edc0cab6df344131c8e5dd936d573fed&#45;&gt;dir_6c7ad4a209b4a41f8ea1bd754da7c037</title>
<path fill="none" stroke="black" d="M63,-71.6966C63,-63.9827 63,-54.7125 63,-46.1124"/>
<polygon fill="black" stroke="black" points="66.5001,-46.1043 63,-36.1043 59.5001,-46.1044 66.5001,-46.1043"/>
<g id="a_edge1&#45;headlabel"><a xlink:href="dir_000025_000023.html" target="_top" xlink:title="2">
<text text-anchor="middle" x="69.3393" y="-47.199" font-family="Helvetica,sans-Serif" font-size="10.00">2</text>
</a>
</g>
</g>
</g>
</svg>
