<?xml version="1.0" encoding="UTF-8" standalone="no"?>
<!DOCTYPE svg PUBLIC "-//W3C//DTD SVG 1.1//EN"
 "http://www.w3.org/Graphics/SVG/1.1/DTD/svg11.dtd">
<!-- Generated by graphviz version 2.38.0 (20140413.2041)
 -->
<!-- Title: engine/Scene Pages: 1 -->
<svg width="616pt" height="295pt"
 viewBox="0.00 0.00 616.00 295.00" xmlns="http://www.w3.org/2000/svg" xmlns:xlink="http://www.w3.org/1999/xlink">
<g id="graph0" class="graph" transform="scale(1 1) rotate(0) translate(4 291)">
<title>engine/Scene</title>
<g id="clust1" class="cluster"><title>clusterdir_996f45160da62e1a3d7f6046fad68f51</title>
<g id="a_clust1"><a xlink:href="dir_996f45160da62e1a3d7f6046fad68f51.html" target="_top" xlink:title="engine">
<polygon fill="#ddddee" stroke="black" points="262.5,-208 262.5,-279 332.5,-279 332.5,-208 262.5,-208"/>
<text text-anchor="middle" x="297.5" y="-267" font-family="Helvetica,sans-Serif" font-size="10.00">engine</text>
</a>
</g>
</g>
<!-- dir_ba775a609e100e11fec950409e9afc1d -->
<g id="node1" class="node"><title>dir_ba775a609e100e11fec950409e9afc1d</title>
<g id="a_node1"><a xlink:href="dir_ba775a609e100e11fec950409e9afc1d.html" target="_top" xlink:title="Scene">
<polygon fill="#eeeeff" stroke="black" points="324.5,-252 270.5,-252 270.5,-216 324.5,-216 324.5,-252"/>
<text text-anchor="middle" x="297.5" y="-231.5" font-family="Helvetica,sans-Serif" font-size="10.00">Scene</text>
</a>
</g>
</g>
<!-- dir_317619dc3757f22c59d28beb04882cee -->
<g id="node2" class="node"><title>dir_317619dc3757f22c59d28beb04882cee</title>
<g id="a_node2"><a xlink:href="dir_317619dc3757f22c59d28beb04882cee.html" target="_top" xlink:title="TextureLibrary">
<polygon fill="none" stroke="black" points="79,-180 7.10543e-15,-180 7.10543e-15,-144 79,-144 79,-180"/>
<text text-anchor="middle" x="39.5" y="-159.5" font-family="Helvetica,sans-Serif" font-size="10.00">TextureLibrary</text>
</a>
</g>
</g>
<!-- dir_ba775a609e100e11fec950409e9afc1d&#45;&gt;dir_317619dc3757f22c59d28beb04882cee -->
<g id="edge1" class="edge"><title>dir_ba775a609e100e11fec950409e9afc1d&#45;&gt;dir_317619dc3757f22c59d28beb04882cee</title>
<path fill="none" stroke="black" d="M270.242,-226.874C231.951,-218.099 159.897,-200.971 89.2141,-180.083"/>
<polygon fill="black" stroke="black" points="89.8364,-176.616 79.2532,-177.111 87.8351,-183.324 89.8364,-176.616"/>
<g id="a_edge1&#45;headlabel"><a xlink:href="dir_000020_000031.html" target="_top" xlink:title="1">
<text text-anchor="middle" x="94.0928" y="-172.423" font-family="Helvetica,sans-Serif" font-size="10.00">1</text>
</a>
</g>
</g>
<!-- dir_739becae7bf9538439801a5afaf14558 -->
<g id="node3" class="node"><title>dir_739becae7bf9538439801a5afaf14558</title>
<g id="a_node3"><a xlink:href="dir_739becae7bf9538439801a5afaf14558.html" target="_top" xlink:title="MeshLibrary">
<polygon fill="none" stroke="black" points="167.5,-180 97.5,-180 97.5,-144 167.5,-144 167.5,-180"/>
<text text-anchor="middle" x="132.5" y="-159.5" font-family="Helvetica,sans-Serif" font-size="10.00">MeshLibrary</text>
</a>
</g>
</g>
<!-- dir_ba775a609e100e11fec950409e9afc1d&#45;&gt;dir_739becae7bf9538439801a5afaf14558 -->
<g id="edge2" class="edge"><title>dir_ba775a609e100e11fec950409e9afc1d&#45;&gt;dir_739becae7bf9538439801a5afaf14558</title>
<path fill="none" stroke="black" d="M270.254,-221.441C244.897,-210.684 206.653,-194.459 176.89,-181.832"/>
<polygon fill="black" stroke="black" points="178.125,-178.554 167.552,-177.871 175.391,-184.998 178.125,-178.554"/>
<g id="a_edge2&#45;headlabel"><a xlink:href="dir_000020_000016.html" target="_top" xlink:title="1">
<text text-anchor="middle" x="182.543" y="-174.844" font-family="Helvetica,sans-Serif" font-size="10.00">1</text>
</a>
</g>
</g>
<!-- dir_c7ca53a371db3aaaa90f5de0c52e0180 -->
<g id="node4" class="node"><title>dir_c7ca53a371db3aaaa90f5de0c52e0180</title>
<g id="a_node4"><a xlink:href="dir_c7ca53a371db3aaaa90f5de0c52e0180.html" target="_top" xlink:title="ShaderProgramLibrary">
<polygon fill="none" stroke="red" points="256,-36 143,-36 143,-0 256,-0 256,-36"/>
<text text-anchor="middle" x="199.5" y="-15.5" font-family="Helvetica,sans-Serif" font-size="10.00">ShaderProgramLibrary</text>
</a>
</g>
</g>
<!-- dir_ba775a609e100e11fec950409e9afc1d&#45;&gt;dir_c7ca53a371db3aaaa90f5de0c52e0180 -->
<g id="edge3" class="edge"><title>dir_ba775a609e100e11fec950409e9afc1d&#45;&gt;dir_c7ca53a371db3aaaa90f5de0c52e0180</title>
<path fill="none" stroke="black" d="M279.784,-215.672C270.606,-205.899 259.82,-193.056 252.5,-180 239.422,-156.673 218.198,-85.3119 206.987,-45.883"/>
<polygon fill="black" stroke="black" points="210.321,-44.8074 204.235,-36.1348 203.584,-46.7096 210.321,-44.8074"/>
<g id="a_edge3&#45;headlabel"><a xlink:href="dir_000020_000027.html" target="_top" xlink:title="1">
<text text-anchor="middle" x="214.03" y="-44.9953" font-family="Helvetica,sans-Serif" font-size="10.00">1</text>
</a>
</g>
</g>
<!-- dir_5a7d2741bb1a02a1f8374392e7b7e10e -->
<g id="node5" class="node"><title>dir_5a7d2741bb1a02a1f8374392e7b7e10e</title>
<g id="a_node5"><a xlink:href="dir_5a7d2741bb1a02a1f8374392e7b7e10e.html" target="_top" xlink:title="MaterialLibrary">
<polygon fill="none" stroke="black" points="205.5,-108 125.5,-108 125.5,-72 205.5,-72 205.5,-108"/>
<text text-anchor="middle" x="165.5" y="-87.5" font-family="Helvetica,sans-Serif" font-size="10.00">MaterialLibrary</text>
</a>
</g>
</g>
<!-- dir_ba775a609e100e11fec950409e9afc1d&#45;&gt;dir_5a7d2741bb1a02a1f8374392e7b7e10e -->
<g id="edge4" class="edge"><title>dir_ba775a609e100e11fec950409e9afc1d&#45;&gt;dir_5a7d2741bb1a02a1f8374392e7b7e10e</title>
<path fill="none" stroke="black" d="M270.435,-218.554C254.349,-209.065 234.27,-195.551 219.5,-180 201.906,-161.476 187.277,-136.273 177.703,-117.414"/>
<polygon fill="black" stroke="black" points="180.725,-115.627 173.169,-108.2 174.444,-118.718 180.725,-115.627"/>
<g id="a_edge4&#45;headlabel"><a xlink:href="dir_000020_000014.html" target="_top" xlink:title="1">
<text text-anchor="middle" x="184.859" y="-115.099" font-family="Helvetica,sans-Serif" font-size="10.00">1</text>
</a>
</g>
</g>
<!-- dir_302221a7aab9197b428d32165f6aeb64 -->
<g id="node6" class="node"><title>dir_302221a7aab9197b428d32165f6aeb64</title>
<g id="a_node6"><a xlink:href="dir_302221a7aab9197b428d32165f6aeb64.html" target="_top" xlink:title="SceneGraph">
<polygon fill="none" stroke="black" points="333,-180 262,-180 262,-144 333,-144 333,-180"/>
<text text-anchor="middle" x="297.5" y="-159.5" font-family="Helvetica,sans-Serif" font-size="10.00">SceneGraph</text>
</a>
</g>
</g>
<!-- dir_ba775a609e100e11fec950409e9afc1d&#45;&gt;dir_302221a7aab9197b428d32165f6aeb64 -->
<g id="edge5" class="edge"><title>dir_ba775a609e100e11fec950409e9afc1d&#45;&gt;dir_302221a7aab9197b428d32165f6aeb64</title>
<path fill="none" stroke="black" d="M297.5,-215.697C297.5,-207.983 297.5,-198.712 297.5,-190.112"/>
<polygon fill="black" stroke="black" points="301,-190.104 297.5,-180.104 294,-190.104 301,-190.104"/>
<g id="a_edge5&#45;headlabel"><a xlink:href="dir_000020_000021.html" target="_top" xlink:title="1">
<text text-anchor="middle" x="303.839" y="-191.199" font-family="Helvetica,sans-Serif" font-size="10.00">1</text>
</a>
</g>
</g>
<!-- dir_f2fd0b7bba5a7cc47440d48ed6481aff -->
<g id="node7" class="node"><title>dir_f2fd0b7bba5a7cc47440d48ed6481aff</title>
<g id="a_node7"><a xlink:href="dir_f2fd0b7bba5a7cc47440d48ed6481aff.html" target="_top" xlink:title="AnimationLibrary">
<polygon fill="none" stroke="black" points="440,-180 351,-180 351,-144 440,-144 440,-180"/>
<text text-anchor="middle" x="395.5" y="-159.5" font-family="Helvetica,sans-Serif" font-size="10.00">AnimationLibrary</text>
</a>
</g>
</g>
<!-- dir_ba775a609e100e11fec950409e9afc1d&#45;&gt;dir_f2fd0b7bba5a7cc47440d48ed6481aff -->
<g id="edge6" class="edge"><title>dir_ba775a609e100e11fec950409e9afc1d&#45;&gt;dir_f2fd0b7bba5a7cc47440d48ed6481aff</title>
<path fill="none" stroke="black" d="M321.473,-215.876C334.05,-206.893 349.632,-195.763 363.252,-186.034"/>
<polygon fill="black" stroke="black" points="365.331,-188.85 371.434,-180.19 361.263,-183.154 365.331,-188.85"/>
<g id="a_edge6&#45;headlabel"><a xlink:href="dir_000020_000002.html" target="_top" xlink:title="1">
<text text-anchor="middle" x="364.057" y="-190.75" font-family="Helvetica,sans-Serif" font-size="10.00">1</text>
</a>
</g>
</g>
<!-- dir_37e584d61c1ad01a0f32aaf99da6b41e -->
<g id="node8" class="node"><title>dir_37e584d61c1ad01a0f32aaf99da6b41e</title>
<g id="a_node8"><a xlink:href="dir_37e584d61c1ad01a0f32aaf99da6b41e.html" target="_top" xlink:title="Renderer">
<polygon fill="none" stroke="black" points="566.5,-108 510.5,-108 510.5,-72 566.5,-72 566.5,-108"/>
<text text-anchor="middle" x="538.5" y="-87.5" font-family="Helvetica,sans-Serif" font-size="10.00">Renderer</text>
</a>
</g>
</g>
<!-- dir_ba775a609e100e11fec950409e9afc1d&#45;&gt;dir_37e584d61c1ad01a0f32aaf99da6b41e -->
<g id="edge7" class="edge"><title>dir_ba775a609e100e11fec950409e9afc1d&#45;&gt;dir_37e584d61c1ad01a0f32aaf99da6b41e</title>
<path fill="none" stroke="black" d="M324.601,-229.347C359.65,-223.585 421.421,-209.815 465.5,-180 489.759,-163.591 510.167,-136.801 523.183,-116.894"/>
<polygon fill="black" stroke="black" points="526.236,-118.615 528.63,-108.294 520.322,-114.869 526.236,-118.615"/>
<g id="a_edge7&#45;headlabel"><a xlink:href="dir_000020_000019.html" target="_top" xlink:title="1">
<text text-anchor="middle" x="526.711" y="-120.671" font-family="Helvetica,sans-Serif" font-size="10.00">1</text>
</a>
</g>
</g>
<!-- dir_b0e652ac9949ee2dc3907b5e9895ade1 -->
<g id="node9" class="node"><title>dir_b0e652ac9949ee2dc3907b5e9895ade1</title>
<g id="a_node9"><a xlink:href="dir_b0e652ac9949ee2dc3907b5e9895ade1.html" target="_top" xlink:title="AssimpScene">
<polygon fill="none" stroke="black" points="432,-108 355,-108 355,-72 432,-72 432,-108"/>
<text text-anchor="middle" x="393.5" y="-87.5" font-family="Helvetica,sans-Serif" font-size="10.00">AssimpScene</text>
</a>
</g>
</g>
<!-- dir_ba775a609e100e11fec950409e9afc1d&#45;&gt;dir_b0e652ac9949ee2dc3907b5e9895ade1 -->
<g id="edge8" class="edge"><title>dir_ba775a609e100e11fec950409e9afc1d&#45;&gt;dir_b0e652ac9949ee2dc3907b5e9895ade1</title>
<path fill="none" stroke="black" d="M324.538,-232.374C359.801,-229.926 420.303,-219.78 448.5,-180 457.752,-166.947 454.76,-158.725 448.5,-144 443.765,-132.862 435.416,-122.93 426.632,-114.759"/>
<polygon fill="black" stroke="black" points="428.73,-111.946 418.88,-108.045 424.148,-117.238 428.73,-111.946"/>
<g id="a_edge8&#45;headlabel"><a xlink:href="dir_000020_000005.html" target="_top" xlink:title="1">
<text text-anchor="middle" x="433.306" y="-109.653" font-family="Helvetica,sans-Serif" font-size="10.00">1</text>
</a>
</g>
</g>
<!-- dir_ec4803f4ce0d4994db2ca7b963fe099a -->
<g id="node10" class="node"><title>dir_ec4803f4ce0d4994db2ca7b963fe099a</title>
<g id="a_node10"><a xlink:href="dir_ec4803f4ce0d4994db2ca7b963fe099a.html" target="_top" xlink:title="SpatialGraph">
<polygon fill="none" stroke="black" points="608,-180 535,-180 535,-144 608,-144 608,-180"/>
<text text-anchor="middle" x="571.5" y="-159.5" font-family="Helvetica,sans-Serif" font-size="10.00">SpatialGraph</text>
</a>
</g>
</g>
<!-- dir_ba775a609e100e11fec950409e9afc1d&#45;&gt;dir_ec4803f4ce0d4994db2ca7b963fe099a -->
<g id="edge9" class="edge"><title>dir_ba775a609e100e11fec950409e9afc1d&#45;&gt;dir_ec4803f4ce0d4994db2ca7b963fe099a</title>
<path fill="none" stroke="black" d="M324.819,-227.323C367.063,-218.361 450.656,-199.898 520.5,-180 521.959,-179.584 523.438,-179.153 524.928,-178.71"/>
<polygon fill="black" stroke="black" points="526.327,-181.941 534.85,-175.647 524.262,-175.253 526.327,-181.941"/>
<g id="a_edge9&#45;headlabel"><a xlink:href="dir_000020_000029.html" target="_top" xlink:title="1">
<text text-anchor="middle" x="523.729" y="-183.214" font-family="Helvetica,sans-Serif" font-size="10.00">1</text>
</a>
</g>
</g>
<!-- dir_739becae7bf9538439801a5afaf14558&#45;&gt;dir_5a7d2741bb1a02a1f8374392e7b7e10e -->
<g id="edge10" class="edge"><title>dir_739becae7bf9538439801a5afaf14558&#45;&gt;dir_5a7d2741bb1a02a1f8374392e7b7e10e</title>
<path fill="none" stroke="black" d="M140.657,-143.697C144.414,-135.728 148.953,-126.1 153.118,-117.264"/>
<polygon fill="black" stroke="black" points="156.338,-118.642 157.437,-108.104 150.006,-115.657 156.338,-118.642"/>
<g id="a_edge10&#45;headlabel"><a xlink:href="dir_000016_000014.html" target="_top" xlink:title="1">
<text text-anchor="middle" x="157.374" y="-120.604" font-family="Helvetica,sans-Serif" font-size="10.00">1</text>
</a>
</g>
</g>
<!-- dir_5a7d2741bb1a02a1f8374392e7b7e10e&#45;&gt;dir_c7ca53a371db3aaaa90f5de0c52e0180 -->
<g id="edge12" class="edge"><title>dir_5a7d2741bb1a02a1f8374392e7b7e10e&#45;&gt;dir_c7ca53a371db3aaaa90f5de0c52e0180</title>
<path fill="none" stroke="black" d="M173.904,-71.6966C177.775,-63.7284 182.452,-54.0995 186.743,-45.2641"/>
<polygon fill="black" stroke="black" points="189.971,-46.6286 191.192,-36.1043 183.675,-43.5702 189.971,-46.6286"/>
<g id="a_edge12&#45;headlabel"><a xlink:href="dir_000014_000027.html" target="_top" xlink:title="1">
<text text-anchor="middle" x="190.955" y="-48.6025" font-family="Helvetica,sans-Serif" font-size="10.00">1</text>
</a>
</g>
</g>
<!-- dir_302221a7aab9197b428d32165f6aeb64&#45;&gt;dir_b0e652ac9949ee2dc3907b5e9895ade1 -->
<g id="edge11" class="edge"><title>dir_302221a7aab9197b428d32165f6aeb64&#45;&gt;dir_b0e652ac9949ee2dc3907b5e9895ade1</title>
<path fill="none" stroke="black" d="M321.23,-143.697C333.437,-134.796 348.485,-123.823 361.684,-114.199"/>
<polygon fill="black" stroke="black" points="364.025,-116.824 370.043,-108.104 359.9,-111.168 364.025,-116.824"/>
<g id="a_edge11&#45;headlabel"><a xlink:href="dir_000021_000005.html" target="_top" xlink:title="1">
<text text-anchor="middle" x="362.793" y="-118.736" font-family="Helvetica,sans-Serif" font-size="10.00">1</text>
</a>
</g>
</g>
<!-- dir_ec4803f4ce0d4994db2ca7b963fe099a&#45;&gt;dir_37e584d61c1ad01a0f32aaf99da6b41e -->
<g id="edge13" class="edge"><title>dir_ec4803f4ce0d4994db2ca7b963fe099a&#45;&gt;dir_37e584d61c1ad01a0f32aaf99da6b41e</title>
<path fill="none" stroke="black" d="M563.343,-143.697C559.586,-135.728 555.047,-126.1 550.882,-117.264"/>
<polygon fill="black" stroke="black" points="553.994,-115.657 546.563,-108.104 547.662,-118.642 553.994,-115.657"/>
<g id="a_edge13&#45;headlabel"><a xlink:href="dir_000029_000019.html" target="_top" xlink:title="1">
<text text-anchor="middle" x="558.095" y="-115.198" font-family="Helvetica,sans-Serif" font-size="10.00">1</text>
</a>
</g>
</g>
</g>
</svg>
