<?xml version="1.0" encoding="UTF-8" standalone="no"?>
<!DOCTYPE svg PUBLIC "-//W3C//DTD SVG 1.1//EN"
 "http://www.w3.org/Graphics/SVG/1.1/DTD/svg11.dtd">
<!-- Generated by graphviz version 2.38.0 (20140413.2041)
 -->
<!-- Title: engine/PerspectiveCamera Pages: 1 -->
<svg width="214pt" height="151pt"
 viewBox="0.00 0.00 213.50 151.00" xmlns="http://www.w3.org/2000/svg" xmlns:xlink="http://www.w3.org/1999/xlink">
<g id="graph0" class="graph" transform="scale(1 1) rotate(0) translate(4 147)">
<title>engine/PerspectiveCamera</title>
<g id="clust1" class="cluster"><title>clusterdir_996f45160da62e1a3d7f6046fad68f51</title>
<g id="a_clust1"><a xlink:href="dir_996f45160da62e1a3d7f6046fad68f51.html" target="_top" xlink:title="engine">
<polygon fill="#ddddee" stroke="black" points="46.5,-64 46.5,-135 166.5,-135 166.5,-64 46.5,-64"/>
<text text-anchor="middle" x="106.5" y="-123" font-family="Helvetica,sans-Serif" font-size="10.00">engine</text>
</a>
</g>
</g>
<!-- dir_a415b2168ca0b3ab07233d2f974b7a5e -->
<g id="node1" class="node"><title>dir_a415b2168ca0b3ab07233d2f974b7a5e</title>
<g id="a_node1"><a xlink:href="dir_a415b2168ca0b3ab07233d2f974b7a5e.html" target="_top" xlink:title="PerspectiveCamera">
<polygon fill="#eeeeff" stroke="black" points="158,-108 55,-108 55,-72 158,-72 158,-108"/>
<text text-anchor="middle" x="106.5" y="-87.5" font-family="Helvetica,sans-Serif" font-size="10.00">PerspectiveCamera</text>
</a>
</g>
</g>
<!-- dir_c9dbd819322c113e6234637a00e97751 -->
<g id="node2" class="node"><title>dir_c9dbd819322c113e6234637a00e97751</title>
<g id="a_node2"><a xlink:href="dir_c9dbd819322c113e6234637a00e97751.html" target="_top" xlink:title="Transform">
<polygon fill="none" stroke="black" points="61,-36 -3.55271e-15,-36 -3.55271e-15,-0 61,-0 61,-36"/>
<text text-anchor="middle" x="30.5" y="-15.5" font-family="Helvetica,sans-Serif" font-size="10.00">Transform</text>
</a>
</g>
</g>
<!-- dir_a415b2168ca0b3ab07233d2f974b7a5e&#45;&gt;dir_c9dbd819322c113e6234637a00e97751 -->
<g id="edge1" class="edge"><title>dir_a415b2168ca0b3ab07233d2f974b7a5e&#45;&gt;dir_c9dbd819322c113e6234637a00e97751</title>
<path fill="none" stroke="black" d="M87.7135,-71.6966C78.326,-63.0503 66.8156,-52.4486 56.5865,-43.027"/>
<polygon fill="black" stroke="black" points="58.7971,-40.3047 49.0704,-36.1043 54.0547,-45.4535 58.7971,-40.3047"/>
<g id="a_edge1&#45;headlabel"><a xlink:href="dir_000018_000032.html" target="_top" xlink:title="1">
<text text-anchor="middle" x="63.3646" y="-38.1515" font-family="Helvetica,sans-Serif" font-size="10.00">1</text>
</a>
</g>
</g>
<!-- dir_ba775a609e100e11fec950409e9afc1d -->
<g id="node3" class="node"><title>dir_ba775a609e100e11fec950409e9afc1d</title>
<g id="a_node3"><a xlink:href="dir_ba775a609e100e11fec950409e9afc1d.html" target="_top" xlink:title="Scene">
<polygon fill="none" stroke="black" points="133.5,-36 79.5,-36 79.5,-0 133.5,-0 133.5,-36"/>
<text text-anchor="middle" x="106.5" y="-15.5" font-family="Helvetica,sans-Serif" font-size="10.00">Scene</text>
</a>
</g>
</g>
<!-- dir_a415b2168ca0b3ab07233d2f974b7a5e&#45;&gt;dir_ba775a609e100e11fec950409e9afc1d -->
<g id="edge2" class="edge"><title>dir_a415b2168ca0b3ab07233d2f974b7a5e&#45;&gt;dir_ba775a609e100e11fec950409e9afc1d</title>
<path fill="none" stroke="black" d="M106.5,-71.6966C106.5,-63.9827 106.5,-54.7125 106.5,-46.1124"/>
<polygon fill="black" stroke="black" points="110,-46.1043 106.5,-36.1043 103,-46.1044 110,-46.1043"/>
<g id="a_edge2&#45;headlabel"><a xlink:href="dir_000018_000020.html" target="_top" xlink:title="1">
<text text-anchor="middle" x="112.839" y="-47.199" font-family="Helvetica,sans-Serif" font-size="10.00">1</text>
</a>
</g>
</g>
<!-- dir_4b71b285adca0ee8727c2f059697f1fe -->
<g id="node4" class="node"><title>dir_4b71b285adca0ee8727c2f059697f1fe</title>
<g id="a_node4"><a xlink:href="dir_4b71b285adca0ee8727c2f059697f1fe.html" target="_top" xlink:title="Camera">
<polygon fill="none" stroke="black" points="205.5,-36 151.5,-36 151.5,-0 205.5,-0 205.5,-36"/>
<text text-anchor="middle" x="178.5" y="-15.5" font-family="Helvetica,sans-Serif" font-size="10.00">Camera</text>
</a>
</g>
</g>
<!-- dir_a415b2168ca0b3ab07233d2f974b7a5e&#45;&gt;dir_4b71b285adca0ee8727c2f059697f1fe -->
<g id="edge3" class="edge"><title>dir_a415b2168ca0b3ab07233d2f974b7a5e&#45;&gt;dir_4b71b285adca0ee8727c2f059697f1fe</title>
<path fill="none" stroke="black" d="M124.298,-71.6966C133.104,-63.135 143.882,-52.6562 153.501,-43.3045"/>
<polygon fill="black" stroke="black" points="156.177,-45.5846 160.907,-36.1043 151.297,-40.5657 156.177,-45.5846"/>
<g id="a_edge3&#45;headlabel"><a xlink:href="dir_000018_000007.html" target="_top" xlink:title="1">
<text text-anchor="middle" x="155.579" y="-47.6261" font-family="Helvetica,sans-Serif" font-size="10.00">1</text>
</a>
</g>
</g>
</g>
</svg>
