<?xml version="1.0" encoding="UTF-8" standalone="no"?>
<!DOCTYPE svg PUBLIC "-//W3C//DTD SVG 1.1//EN"
 "http://www.w3.org/Graphics/SVG/1.1/DTD/svg11.dtd">
<!-- Generated by graphviz version 2.38.0 (20140413.2041)
 -->
<!-- Title: engine/Renderer Pages: 1 -->
<svg width="396pt" height="223pt"
 viewBox="0.00 0.00 395.50 223.00" xmlns="http://www.w3.org/2000/svg" xmlns:xlink="http://www.w3.org/1999/xlink">
<g id="graph0" class="graph" transform="scale(1 1) rotate(0) translate(4 219)">
<title>engine/Renderer</title>
<g id="clust1" class="cluster"><title>clusterdir_996f45160da62e1a3d7f6046fad68f51</title>
<g id="a_clust1"><a xlink:href="dir_996f45160da62e1a3d7f6046fad68f51.html" target="_top" xlink:title="engine">
<polygon fill="#ddddee" stroke="black" points="178.5,-136 178.5,-207 250.5,-207 250.5,-136 178.5,-136"/>
<text text-anchor="middle" x="214.5" y="-195" font-family="Helvetica,sans-Serif" font-size="10.00">engine</text>
</a>
</g>
</g>
<!-- dir_37e584d61c1ad01a0f32aaf99da6b41e -->
<g id="node1" class="node"><title>dir_37e584d61c1ad01a0f32aaf99da6b41e</title>
<g id="a_node1"><a xlink:href="dir_37e584d61c1ad01a0f32aaf99da6b41e.html" target="_top" xlink:title="Renderer">
<polygon fill="#eeeeff" stroke="black" points="242.5,-180 186.5,-180 186.5,-144 242.5,-144 242.5,-180"/>
<text text-anchor="middle" x="214.5" y="-159.5" font-family="Helvetica,sans-Serif" font-size="10.00">Renderer</text>
</a>
</g>
</g>
<!-- dir_c9dbd819322c113e6234637a00e97751 -->
<g id="node2" class="node"><title>dir_c9dbd819322c113e6234637a00e97751</title>
<g id="a_node2"><a xlink:href="dir_c9dbd819322c113e6234637a00e97751.html" target="_top" xlink:title="Transform">
<polygon fill="none" stroke="black" points="61,-108 -3.55271e-15,-108 -3.55271e-15,-72 61,-72 61,-108"/>
<text text-anchor="middle" x="30.5" y="-87.5" font-family="Helvetica,sans-Serif" font-size="10.00">Transform</text>
</a>
</g>
</g>
<!-- dir_37e584d61c1ad01a0f32aaf99da6b41e&#45;&gt;dir_c9dbd819322c113e6234637a00e97751 -->
<g id="edge2" class="edge"><title>dir_37e584d61c1ad01a0f32aaf99da6b41e&#45;&gt;dir_c9dbd819322c113e6234637a00e97751</title>
<path fill="none" stroke="black" d="M186.471,-151.145C157.339,-140.794 110.497,-123.849 70.5,-108 70.4035,-107.962 70.307,-107.923 70.2103,-107.885"/>
<polygon fill="black" stroke="black" points="71.5931,-104.669 61.011,-104.15 68.9596,-111.155 71.5931,-104.669"/>
<g id="a_edge2&#45;headlabel"><a xlink:href="dir_000019_000032.html" target="_top" xlink:title="1">
<text text-anchor="middle" x="75.9918" y="-100.891" font-family="Helvetica,sans-Serif" font-size="10.00">1</text>
</a>
</g>
</g>
<!-- dir_d0d75729f6392f71d180a932040f5f47 -->
<g id="node3" class="node"><title>dir_d0d75729f6392f71d180a932040f5f47</title>
<g id="a_node3"><a xlink:href="dir_d0d75729f6392f71d180a932040f5f47.html" target="_top" xlink:title="Light">
<polygon fill="none" stroke="black" points="133.5,-108 79.5,-108 79.5,-72 133.5,-72 133.5,-108"/>
<text text-anchor="middle" x="106.5" y="-87.5" font-family="Helvetica,sans-Serif" font-size="10.00">Light</text>
</a>
</g>
</g>
<!-- dir_37e584d61c1ad01a0f32aaf99da6b41e&#45;&gt;dir_d0d75729f6392f71d180a932040f5f47 -->
<g id="edge3" class="edge"><title>dir_37e584d61c1ad01a0f32aaf99da6b41e&#45;&gt;dir_d0d75729f6392f71d180a932040f5f47</title>
<path fill="none" stroke="black" d="M188.08,-143.876C174.09,-134.808 156.724,-123.552 141.614,-113.759"/>
<polygon fill="black" stroke="black" points="143.317,-110.692 133.021,-108.19 139.509,-116.566 143.317,-110.692"/>
<g id="a_edge3&#45;headlabel"><a xlink:href="dir_000019_000012.html" target="_top" xlink:title="1">
<text text-anchor="middle" x="147.877" y="-107.764" font-family="Helvetica,sans-Serif" font-size="10.00">1</text>
</a>
</g>
</g>
<!-- dir_c7f0c751fa7d09d1405d1c0441c3546f -->
<g id="node4" class="node"><title>dir_c7f0c751fa7d09d1405d1c0441c3546f</title>
<g id="a_node4"><a xlink:href="dir_c7f0c751fa7d09d1405d1c0441c3546f.html" target="_top" xlink:title="Mesh">
<polygon fill="none" stroke="black" points="205.5,-108 151.5,-108 151.5,-72 205.5,-72 205.5,-108"/>
<text text-anchor="middle" x="178.5" y="-87.5" font-family="Helvetica,sans-Serif" font-size="10.00">Mesh</text>
</a>
</g>
</g>
<!-- dir_37e584d61c1ad01a0f32aaf99da6b41e&#45;&gt;dir_c7f0c751fa7d09d1405d1c0441c3546f -->
<g id="edge4" class="edge"><title>dir_37e584d61c1ad01a0f32aaf99da6b41e&#45;&gt;dir_c7f0c751fa7d09d1405d1c0441c3546f</title>
<path fill="none" stroke="black" d="M205.601,-143.697C201.503,-135.728 196.551,-126.1 192.007,-117.264"/>
<polygon fill="black" stroke="black" points="194.983,-115.396 187.297,-108.104 188.758,-118.598 194.983,-115.396"/>
<g id="a_edge4&#45;headlabel"><a xlink:href="dir_000019_000015.html" target="_top" xlink:title="1">
<text text-anchor="middle" x="199.151" y="-114.795" font-family="Helvetica,sans-Serif" font-size="10.00">1</text>
</a>
</g>
</g>
<!-- dir_367b412637a5abf5b1dc26af7424a7dc -->
<g id="node5" class="node"><title>dir_367b412637a5abf5b1dc26af7424a7dc</title>
<g id="a_node5"><a xlink:href="dir_367b412637a5abf5b1dc26af7424a7dc.html" target="_top" xlink:title="Object">
<polygon fill="none" stroke="black" points="277.5,-108 223.5,-108 223.5,-72 277.5,-72 277.5,-108"/>
<text text-anchor="middle" x="250.5" y="-87.5" font-family="Helvetica,sans-Serif" font-size="10.00">Object</text>
</a>
</g>
</g>
<!-- dir_37e584d61c1ad01a0f32aaf99da6b41e&#45;&gt;dir_367b412637a5abf5b1dc26af7424a7dc -->
<g id="edge5" class="edge"><title>dir_37e584d61c1ad01a0f32aaf99da6b41e&#45;&gt;dir_367b412637a5abf5b1dc26af7424a7dc</title>
<path fill="none" stroke="black" d="M223.399,-143.697C227.497,-135.728 232.449,-126.1 236.993,-117.264"/>
<polygon fill="black" stroke="black" points="240.242,-118.598 241.703,-108.104 234.017,-115.396 240.242,-118.598"/>
<g id="a_edge5&#45;headlabel"><a xlink:href="dir_000019_000017.html" target="_top" xlink:title="1">
<text text-anchor="middle" x="241.123" y="-120.593" font-family="Helvetica,sans-Serif" font-size="10.00">1</text>
</a>
</g>
</g>
<!-- dir_9257174f690635f75a6c414b151b5118 -->
<g id="node6" class="node"><title>dir_9257174f690635f75a6c414b151b5118</title>
<g id="a_node6"><a xlink:href="dir_9257174f690635f75a6c414b151b5118.html" target="_top" xlink:title="window">
<polygon fill="none" stroke="black" points="268.5,-36 214.5,-36 214.5,-0 268.5,-0 268.5,-36"/>
<text text-anchor="middle" x="241.5" y="-15.5" font-family="Helvetica,sans-Serif" font-size="10.00">window</text>
</a>
</g>
</g>
<!-- dir_37e584d61c1ad01a0f32aaf99da6b41e&#45;&gt;dir_9257174f690635f75a6c414b151b5118 -->
<g id="edge6" class="edge"><title>dir_37e584d61c1ad01a0f32aaf99da6b41e&#45;&gt;dir_9257174f690635f75a6c414b151b5118</title>
<path fill="none" stroke="black" d="M242.672,-148.41C258.687,-139.599 277.325,-126.146 286.5,-108 293.719,-93.7213 292.016,-87.0191 286.5,-72 282.716,-61.6962 275.942,-52.0249 268.78,-43.837"/>
<polygon fill="black" stroke="black" points="271.269,-41.3751 261.879,-36.469 266.16,-46.1603 271.269,-41.3751"/>
<g id="a_edge6&#45;headlabel"><a xlink:href="dir_000019_000034.html" target="_top" xlink:title="1">
<text text-anchor="middle" x="275.799" y="-39.5577" font-family="Helvetica,sans-Serif" font-size="10.00">1</text>
</a>
</g>
</g>
<!-- dir_4b71b285adca0ee8727c2f059697f1fe -->
<g id="node7" class="node"><title>dir_4b71b285adca0ee8727c2f059697f1fe</title>
<g id="a_node7"><a xlink:href="dir_4b71b285adca0ee8727c2f059697f1fe.html" target="_top" xlink:title="Camera">
<polygon fill="none" stroke="black" points="387.5,-108 333.5,-108 333.5,-72 387.5,-72 387.5,-108"/>
<text text-anchor="middle" x="360.5" y="-87.5" font-family="Helvetica,sans-Serif" font-size="10.00">Camera</text>
</a>
</g>
</g>
<!-- dir_37e584d61c1ad01a0f32aaf99da6b41e&#45;&gt;dir_4b71b285adca0ee8727c2f059697f1fe -->
<g id="edge7" class="edge"><title>dir_37e584d61c1ad01a0f32aaf99da6b41e&#45;&gt;dir_4b71b285adca0ee8727c2f059697f1fe</title>
<path fill="none" stroke="black" d="M242.65,-147.503C265.869,-136.371 298.97,-120.501 324.183,-108.412"/>
<polygon fill="black" stroke="black" points="325.919,-111.461 333.423,-103.982 322.893,-105.149 325.919,-111.461"/>
<g id="a_edge7&#45;headlabel"><a xlink:href="dir_000019_000007.html" target="_top" xlink:title="1">
<text text-anchor="middle" x="323.906" y="-113.076" font-family="Helvetica,sans-Serif" font-size="10.00">1</text>
</a>
</g>
</g>
<!-- dir_c7f0c751fa7d09d1405d1c0441c3546f&#45;&gt;dir_9257174f690635f75a6c414b151b5118 -->
<g id="edge1" class="edge"><title>dir_c7f0c751fa7d09d1405d1c0441c3546f&#45;&gt;dir_9257174f690635f75a6c414b151b5118</title>
<path fill="none" stroke="black" d="M194.073,-71.6966C201.702,-63.2198 211.023,-52.8636 219.376,-43.5826"/>
<polygon fill="black" stroke="black" points="222.018,-45.8787 226.106,-36.1043 216.815,-41.1959 222.018,-45.8787"/>
<g id="a_edge1&#45;headlabel"><a xlink:href="dir_000015_000034.html" target="_top" xlink:title="1">
<text text-anchor="middle" x="221.724" y="-47.9499" font-family="Helvetica,sans-Serif" font-size="10.00">1</text>
</a>
</g>
</g>
</g>
</svg>
