<?xml version="1.0" encoding="UTF-8" standalone="no"?>
<!DOCTYPE svg PUBLIC "-//W3C//DTD SVG 1.1//EN"
 "http://www.w3.org/Graphics/SVG/1.1/DTD/svg11.dtd">
<!-- Generated by graphviz version 2.38.0 (20140413.2041)
 -->
<!-- Title: engine/AnimationLibrary Pages: 1 -->
<svg width="140pt" height="151pt"
 viewBox="0.00 0.00 140.00 151.00" xmlns="http://www.w3.org/2000/svg" xmlns:xlink="http://www.w3.org/1999/xlink">
<g id="graph0" class="graph" transform="scale(1 1) rotate(0) translate(4 147)">
<title>engine/AnimationLibrary</title>
<g id="clust1" class="cluster"><title>clusterdir_996f45160da62e1a3d7f6046fad68f51</title>
<g id="a_clust1"><a xlink:href="dir_996f45160da62e1a3d7f6046fad68f51.html" target="_top" xlink:title="engine">
<polygon fill="#ddddee" stroke="black" points="15,-64 15,-135 119,-135 119,-64 15,-64"/>
<text text-anchor="middle" x="67" y="-123" font-family="Helvetica,sans-Serif" font-size="10.00">engine</text>
</a>
</g>
</g>
<!-- dir_f2fd0b7bba5a7cc47440d48ed6481aff -->
<g id="node1" class="node"><title>dir_f2fd0b7bba5a7cc47440d48ed6481aff</title>
<g id="a_node1"><a xlink:href="dir_f2fd0b7bba5a7cc47440d48ed6481aff.html" target="_top" xlink:title="AnimationLibrary">
<polygon fill="#eeeeff" stroke="black" points="111.5,-108 22.5,-108 22.5,-72 111.5,-72 111.5,-108"/>
<text text-anchor="middle" x="67" y="-87.5" font-family="Helvetica,sans-Serif" font-size="10.00">AnimationLibrary</text>
</a>
</g>
</g>
<!-- dir_d8cb112fecda772ba4049b91386a9f69 -->
<g id="node2" class="node"><title>dir_d8cb112fecda772ba4049b91386a9f69</title>
<g id="a_node2"><a xlink:href="dir_d8cb112fecda772ba4049b91386a9f69.html" target="_top" xlink:title="Animation">
<polygon fill="none" stroke="black" points="60,-36 3.55271e-15,-36 3.55271e-15,-0 60,-0 60,-36"/>
<text text-anchor="middle" x="30" y="-15.5" font-family="Helvetica,sans-Serif" font-size="10.00">Animation</text>
</a>
</g>
</g>
<!-- dir_f2fd0b7bba5a7cc47440d48ed6481aff&#45;&gt;dir_d8cb112fecda772ba4049b91386a9f69 -->
<g id="edge1" class="edge"><title>dir_f2fd0b7bba5a7cc47440d48ed6481aff&#45;&gt;dir_d8cb112fecda772ba4049b91386a9f69</title>
<path fill="none" stroke="black" d="M57.8539,-71.6966C53.5974,-63.6436 48.4442,-53.8945 43.7336,-44.9824"/>
<polygon fill="black" stroke="black" points="46.8083,-43.3097 39.0409,-36.1043 40.6197,-46.5809 46.8083,-43.3097"/>
<g id="a_edge1&#45;headlabel"><a xlink:href="dir_000002_000001.html" target="_top" xlink:title="2">
<text text-anchor="middle" x="50.9982" y="-42.6609" font-family="Helvetica,sans-Serif" font-size="10.00">2</text>
</a>
</g>
</g>
<!-- dir_02303b2d12aef3ee678de5e70c9c5297 -->
<g id="node3" class="node"><title>dir_02303b2d12aef3ee678de5e70c9c5297</title>
<g id="a_node3"><a xlink:href="dir_02303b2d12aef3ee678de5e70c9c5297.html" target="_top" xlink:title="Library">
<polygon fill="none" stroke="black" points="132,-36 78,-36 78,-0 132,-0 132,-36"/>
<text text-anchor="middle" x="105" y="-15.5" font-family="Helvetica,sans-Serif" font-size="10.00">Library</text>
</a>
</g>
</g>
<!-- dir_f2fd0b7bba5a7cc47440d48ed6481aff&#45;&gt;dir_02303b2d12aef3ee678de5e70c9c5297 -->
<g id="edge2" class="edge"><title>dir_f2fd0b7bba5a7cc47440d48ed6481aff&#45;&gt;dir_02303b2d12aef3ee678de5e70c9c5297</title>
<path fill="none" stroke="black" d="M76.3933,-71.6966C80.7649,-63.6436 86.0573,-53.8945 90.8953,-44.9824"/>
<polygon fill="black" stroke="black" points="94.0198,-46.5627 95.7148,-36.1043 87.8678,-43.223 94.0198,-46.5627"/>
<g id="a_edge2&#45;headlabel"><a xlink:href="dir_000002_000011.html" target="_top" xlink:title="1">
<text text-anchor="middle" x="94.8002" y="-48.5764" font-family="Helvetica,sans-Serif" font-size="10.00">1</text>
</a>
</g>
</g>
</g>
</svg>
