<?xml version="1.0" encoding="UTF-8" standalone="no"?>
<!DOCTYPE svg PUBLIC "-//W3C//DTD SVG 1.1//EN"
 "http://www.w3.org/Graphics/SVG/1.1/DTD/svg11.dtd">
<!-- Generated by graphviz version 2.38.0 (20140413.2041)
 -->
<!-- Title: engine/ShaderProgramLibrary/internal Pages: 1 -->
<svg width="150pt" height="223pt"
 viewBox="0.00 0.00 150.00 223.00" xmlns="http://www.w3.org/2000/svg" xmlns:xlink="http://www.w3.org/1999/xlink">
<g id="graph0" class="graph" transform="scale(1 1) rotate(0) translate(4 219)">
<title>engine/ShaderProgramLibrary/internal</title>
<g id="clust1" class="cluster"><title>clusterdir_c7ca53a371db3aaaa90f5de0c52e0180</title>
<g id="a_clust1"><a xlink:href="dir_c7ca53a371db3aaaa90f5de0c52e0180.html" target="_top" xlink:title="ShaderProgramLibrary">
<polygon fill="#ddddee" stroke="black" points="21,-136 21,-207 134,-207 134,-136 21,-136"/>
<text text-anchor="middle" x="77.5" y="-195" font-family="Helvetica,sans-Serif" font-size="10.00">ShaderProgramLibrary</text>
</a>
</g>
</g>
<!-- dir_06949e2a5a9e51b79febede2cb1f7013 -->
<g id="node1" class="node"><title>dir_06949e2a5a9e51b79febede2cb1f7013</title>
<g id="a_node1"><a xlink:href="dir_06949e2a5a9e51b79febede2cb1f7013.html" target="_top" xlink:title="internal">
<polygon fill="#eeeeff" stroke="black" points="104,-180 50,-180 50,-144 104,-144 104,-180"/>
<text text-anchor="middle" x="77" y="-159.5" font-family="Helvetica,sans-Serif" font-size="10.00">internal</text>
</a>
</g>
</g>
<!-- dir_8d9108dda3c239cf08b47fed3bf8c3b4 -->
<g id="node2" class="node"><title>dir_8d9108dda3c239cf08b47fed3bf8c3b4</title>
<g id="a_node2"><a xlink:href="dir_8d9108dda3c239cf08b47fed3bf8c3b4.html" target="_top" xlink:title="ShaderProgram">
<polygon fill="none" stroke="black" points="84,-108 0,-108 0,-72 84,-72 84,-108"/>
<text text-anchor="middle" x="42" y="-87.5" font-family="Helvetica,sans-Serif" font-size="10.00">ShaderProgram</text>
</a>
</g>
</g>
<!-- dir_06949e2a5a9e51b79febede2cb1f7013&#45;&gt;dir_8d9108dda3c239cf08b47fed3bf8c3b4 -->
<g id="edge2" class="edge"><title>dir_06949e2a5a9e51b79febede2cb1f7013&#45;&gt;dir_8d9108dda3c239cf08b47fed3bf8c3b4</title>
<path fill="none" stroke="black" d="M68.3483,-143.697C64.3642,-135.728 59.5498,-126.1 55.1321,-117.264"/>
<polygon fill="black" stroke="black" points="58.1549,-115.483 50.5522,-108.104 51.8939,-118.614 58.1549,-115.483"/>
<g id="a_edge2&#45;headlabel"><a xlink:href="dir_000028_000026.html" target="_top" xlink:title="2">
<text text-anchor="middle" x="62.3019" y="-114.929" font-family="Helvetica,sans-Serif" font-size="10.00">2</text>
</a>
</g>
</g>
<!-- dir_6c7ad4a209b4a41f8ea1bd754da7c037 -->
<g id="node3" class="node"><title>dir_6c7ad4a209b4a41f8ea1bd754da7c037</title>
<g id="a_node3"><a xlink:href="dir_6c7ad4a209b4a41f8ea1bd754da7c037.html" target="_top" xlink:title="Shader">
<polygon fill="none" stroke="black" points="104,-36 50,-36 50,-0 104,-0 104,-36"/>
<text text-anchor="middle" x="77" y="-15.5" font-family="Helvetica,sans-Serif" font-size="10.00">Shader</text>
</a>
</g>
</g>
<!-- dir_06949e2a5a9e51b79febede2cb1f7013&#45;&gt;dir_6c7ad4a209b4a41f8ea1bd754da7c037 -->
<g id="edge3" class="edge"><title>dir_06949e2a5a9e51b79febede2cb1f7013&#45;&gt;dir_6c7ad4a209b4a41f8ea1bd754da7c037</title>
<path fill="none" stroke="black" d="M83.6522,-143.628C87.2029,-133.421 91.2029,-120.171 93,-108 95.3371,-92.1716 95.3371,-87.8284 93,-72 91.7224,-63.3473 89.3314,-54.1492 86.7799,-45.8867"/>
<polygon fill="black" stroke="black" points="90.1001,-44.7788 83.6522,-36.3719 83.4501,-46.9648 90.1001,-44.7788"/>
<g id="a_edge3&#45;headlabel"><a xlink:href="dir_000028_000023.html" target="_top" xlink:title="1">
<text text-anchor="middle" x="93.9198" y="-44.807" font-family="Helvetica,sans-Serif" font-size="10.00">1</text>
</a>
</g>
</g>
<!-- dir_8d9108dda3c239cf08b47fed3bf8c3b4&#45;&gt;dir_6c7ad4a209b4a41f8ea1bd754da7c037 -->
<g id="edge1" class="edge"><title>dir_8d9108dda3c239cf08b47fed3bf8c3b4&#45;&gt;dir_6c7ad4a209b4a41f8ea1bd754da7c037</title>
<path fill="none" stroke="black" d="M50.6517,-71.6966C54.6358,-63.7284 59.4502,-54.0995 63.8679,-45.2641"/>
<polygon fill="black" stroke="black" points="67.1061,-46.6139 68.4478,-36.1043 60.8451,-43.4833 67.1061,-46.6139"/>
<g id="a_edge1&#45;headlabel"><a xlink:href="dir_000026_000023.html" target="_top" xlink:title="1">
<text text-anchor="middle" x="68.0382" y="-48.5987" font-family="Helvetica,sans-Serif" font-size="10.00">1</text>
</a>
</g>
</g>
</g>
</svg>
