<?xml version="1.0" encoding="UTF-8" standalone="no"?>
<!DOCTYPE svg PUBLIC "-//W3C//DTD SVG 1.1//EN"
 "http://www.w3.org/Graphics/SVG/1.1/DTD/svg11.dtd">
<!-- Generated by graphviz version 2.38.0 (20140413.2041)
 -->
<!-- Title: engine/Mesh Pages: 1 -->
<svg width="119pt" height="223pt"
 viewBox="0.00 0.00 118.50 223.00" xmlns="http://www.w3.org/2000/svg" xmlns:xlink="http://www.w3.org/1999/xlink">
<g id="graph0" class="graph" transform="scale(1 1) rotate(0) translate(4 219)">
<title>engine/Mesh</title>
<g id="clust1" class="cluster"><title>clusterdir_996f45160da62e1a3d7f6046fad68f51</title>
<g id="a_clust1"><a xlink:href="dir_996f45160da62e1a3d7f6046fad68f51.html" target="_top" xlink:title="engine">
<polygon fill="#ddddee" stroke="black" points="8,-136 8,-207 78,-207 78,-136 8,-136"/>
<text text-anchor="middle" x="43" y="-195" font-family="Helvetica,sans-Serif" font-size="10.00">engine</text>
</a>
</g>
</g>
<!-- dir_c7f0c751fa7d09d1405d1c0441c3546f -->
<g id="node1" class="node"><title>dir_c7f0c751fa7d09d1405d1c0441c3546f</title>
<g id="a_node1"><a xlink:href="dir_c7f0c751fa7d09d1405d1c0441c3546f.html" target="_top" xlink:title="Mesh">
<polygon fill="#eeeeff" stroke="black" points="70,-180 16,-180 16,-144 70,-144 70,-180"/>
<text text-anchor="middle" x="43" y="-159.5" font-family="Helvetica,sans-Serif" font-size="10.00">Mesh</text>
</a>
</g>
</g>
<!-- dir_9257174f690635f75a6c414b151b5118 -->
<g id="node2" class="node"><title>dir_9257174f690635f75a6c414b151b5118</title>
<g id="a_node2"><a xlink:href="dir_9257174f690635f75a6c414b151b5118.html" target="_top" xlink:title="window">
<polygon fill="none" stroke="black" points="70,-36 16,-36 16,-0 70,-0 70,-36"/>
<text text-anchor="middle" x="43" y="-15.5" font-family="Helvetica,sans-Serif" font-size="10.00">window</text>
</a>
</g>
</g>
<!-- dir_c7f0c751fa7d09d1405d1c0441c3546f&#45;&gt;dir_9257174f690635f75a6c414b151b5118 -->
<g id="edge1" class="edge"><title>dir_c7f0c751fa7d09d1405d1c0441c3546f&#45;&gt;dir_9257174f690635f75a6c414b151b5118</title>
<path fill="none" stroke="black" d="M37.5912,-143.529C34.705,-133.289 31.455,-120.039 30,-108 28.0804,-92.1156 28.0804,-87.8844 30,-72 31.023,-63.5349 32.9335,-54.4712 34.9809,-46.2761"/>
<polygon fill="black" stroke="black" points="38.4009,-47.0344 37.5912,-36.4705 31.6365,-45.2336 38.4009,-47.0344"/>
<g id="a_edge1&#45;headlabel"><a xlink:href="dir_000010_000026.html" target="_top" xlink:title="1">
<text text-anchor="middle" x="40.22" y="-48.7384" font-family="Helvetica,sans-Serif" font-size="10.00">1</text>
</a>
</g>
</g>
<!-- dir_f6d700fdd15b5878ddf9766ea840a413 -->
<g id="node3" class="node"><title>dir_f6d700fdd15b5878ddf9766ea840a413</title>
<g id="a_node3"><a xlink:href="dir_f6d700fdd15b5878ddf9766ea840a413.html" target="_top" xlink:title="BufferObject">
<polygon fill="none" stroke="black" points="110.5,-108 39.5,-108 39.5,-72 110.5,-72 110.5,-108"/>
<text text-anchor="middle" x="75" y="-87.5" font-family="Helvetica,sans-Serif" font-size="10.00">BufferObject</text>
</a>
</g>
</g>
<!-- dir_c7f0c751fa7d09d1405d1c0441c3546f&#45;&gt;dir_f6d700fdd15b5878ddf9766ea840a413 -->
<g id="edge2" class="edge"><title>dir_c7f0c751fa7d09d1405d1c0441c3546f&#45;&gt;dir_f6d700fdd15b5878ddf9766ea840a413</title>
<path fill="none" stroke="black" d="M50.9101,-143.697C54.5527,-135.728 58.9545,-126.1 62.9935,-117.264"/>
<polygon fill="black" stroke="black" points="66.2064,-118.654 67.1809,-108.104 59.8401,-115.744 66.2064,-118.654"/>
<g id="a_edge2&#45;headlabel"><a xlink:href="dir_000010_000002.html" target="_top" xlink:title="1">
<text text-anchor="middle" x="67.2942" y="-120.604" font-family="Helvetica,sans-Serif" font-size="10.00">1</text>
</a>
</g>
</g>
<!-- dir_f6d700fdd15b5878ddf9766ea840a413&#45;&gt;dir_9257174f690635f75a6c414b151b5118 -->
<g id="edge3" class="edge"><title>dir_f6d700fdd15b5878ddf9766ea840a413&#45;&gt;dir_9257174f690635f75a6c414b151b5118</title>
<path fill="none" stroke="black" d="M67.0899,-71.6966C63.4473,-63.7284 59.0455,-54.0995 55.0065,-45.2641"/>
<polygon fill="black" stroke="black" points="58.1599,-43.7439 50.8191,-36.1043 51.7936,-46.6543 58.1599,-43.7439"/>
<g id="a_edge3&#45;headlabel"><a xlink:href="dir_000002_000026.html" target="_top" xlink:title="1">
<text text-anchor="middle" x="62.2366" y="-43.3327" font-family="Helvetica,sans-Serif" font-size="10.00">1</text>
</a>
</g>
</g>
</g>
</svg>
