<?xml version="1.0" encoding="UTF-8" standalone="no"?>
<!DOCTYPE svg PUBLIC "-//W3C//DTD SVG 1.1//EN"
 "http://www.w3.org/Graphics/SVG/1.1/DTD/svg11.dtd">
<!-- Generated by graphviz version 2.38.0 (20140413.2041)
 -->
<!-- Title: engine/Shaders/ShaderProgram Pages: 1 -->
<svg width="124pt" height="223pt"
 viewBox="0.00 0.00 124.00 223.00" xmlns="http://www.w3.org/2000/svg" xmlns:xlink="http://www.w3.org/1999/xlink">
<g id="graph0" class="graph" transform="scale(1 1) rotate(0) translate(4 219)">
<title>engine/Shaders/ShaderProgram</title>
<g id="clust1" class="cluster"><title>clusterdir_6e4d7cc950507c27f994556db83bd942</title>
<g id="a_clust1"><a xlink:href="dir_6e4d7cc950507c27f994556db83bd942.html" target="_top" xlink:title="Shaders">
<polygon fill="#ddddee" stroke="black" points="8,-136 8,-207 108,-207 108,-136 8,-136"/>
<text text-anchor="middle" x="58" y="-195" font-family="Helvetica,sans-Serif" font-size="10.00">Shaders</text>
</a>
</g>
</g>
<!-- dir_e1d3a58c952f3de1419780d008a20c9e -->
<g id="node1" class="node"><title>dir_e1d3a58c952f3de1419780d008a20c9e</title>
<g id="a_node1"><a xlink:href="dir_e1d3a58c952f3de1419780d008a20c9e.html" target="_top" xlink:title="ShaderProgram">
<polygon fill="#eeeeff" stroke="black" points="100,-180 16,-180 16,-144 100,-144 100,-180"/>
<text text-anchor="middle" x="58" y="-159.5" font-family="Helvetica,sans-Serif" font-size="10.00">ShaderProgram</text>
</a>
</g>
</g>
<!-- dir_1999bd0b5a0bb9db12366bc1ddfefb6a -->
<g id="node2" class="node"><title>dir_1999bd0b5a0bb9db12366bc1ddfefb6a</title>
<g id="a_node2"><a xlink:href="dir_1999bd0b5a0bb9db12366bc1ddfefb6a.html" target="_top" xlink:title="Shader">
<polygon fill="none" stroke="black" points="58,-108 4,-108 4,-72 58,-72 58,-108"/>
<text text-anchor="middle" x="31" y="-87.5" font-family="Helvetica,sans-Serif" font-size="10.00">Shader</text>
</a>
</g>
</g>
<!-- dir_e1d3a58c952f3de1419780d008a20c9e&#45;&gt;dir_1999bd0b5a0bb9db12366bc1ddfefb6a -->
<g id="edge1" class="edge"><title>dir_e1d3a58c952f3de1419780d008a20c9e&#45;&gt;dir_1999bd0b5a0bb9db12366bc1ddfefb6a</title>
<path fill="none" stroke="black" d="M51.3258,-143.697C48.2851,-135.813 44.6173,-126.304 41.2393,-117.546"/>
<polygon fill="black" stroke="black" points="44.4617,-116.175 37.5974,-108.104 37.9307,-118.694 44.4617,-116.175"/>
<g id="a_edge1&#45;headlabel"><a xlink:href="dir_000023_000022.html" target="_top" xlink:title="1">
<text text-anchor="middle" x="48.4043" y="-116.007" font-family="Helvetica,sans-Serif" font-size="10.00">1</text>
</a>
</g>
</g>
<!-- dir_9257174f690635f75a6c414b151b5118 -->
<g id="node3" class="node"><title>dir_9257174f690635f75a6c414b151b5118</title>
<g id="a_node3"><a xlink:href="dir_9257174f690635f75a6c414b151b5118.html" target="_top" xlink:title="window">
<polygon fill="none" stroke="black" points="85,-36 31,-36 31,-0 85,-0 85,-36"/>
<text text-anchor="middle" x="58" y="-15.5" font-family="Helvetica,sans-Serif" font-size="10.00">window</text>
</a>
</g>
</g>
<!-- dir_e1d3a58c952f3de1419780d008a20c9e&#45;&gt;dir_9257174f690635f75a6c414b151b5118 -->
<g id="edge2" class="edge"><title>dir_e1d3a58c952f3de1419780d008a20c9e&#45;&gt;dir_9257174f690635f75a6c414b151b5118</title>
<path fill="none" stroke="black" d="M61.6538,-143.908C63.6758,-133.569 65.9808,-120.09 67,-108 68.3441,-92.0566 68.3441,-87.9434 67,-72 66.2834,-63.4991 64.9311,-54.3119 63.4884,-46.0122"/>
<polygon fill="black" stroke="black" points="66.9142,-45.2892 61.6538,-36.0925 60.0309,-46.5623 66.9142,-45.2892"/>
<g id="a_edge2&#45;headlabel"><a xlink:href="dir_000023_000026.html" target="_top" xlink:title="1">
<text text-anchor="middle" x="70.3597" y="-45.8075" font-family="Helvetica,sans-Serif" font-size="10.00">1</text>
</a>
</g>
</g>
<!-- dir_1999bd0b5a0bb9db12366bc1ddfefb6a&#45;&gt;dir_9257174f690635f75a6c414b151b5118 -->
<g id="edge3" class="edge"><title>dir_1999bd0b5a0bb9db12366bc1ddfefb6a&#45;&gt;dir_9257174f690635f75a6c414b151b5118</title>
<path fill="none" stroke="black" d="M37.6742,-71.6966C40.7149,-63.8132 44.3827,-54.3042 47.7607,-45.5464"/>
<polygon fill="black" stroke="black" points="51.0693,-46.6939 51.4026,-36.1043 44.5383,-44.1748 51.0693,-46.6939"/>
<g id="a_edge3&#45;headlabel"><a xlink:href="dir_000022_000026.html" target="_top" xlink:title="1">
<text text-anchor="middle" x="52.4248" y="-48.5695" font-family="Helvetica,sans-Serif" font-size="10.00">1</text>
</a>
</g>
</g>
</g>
</svg>
