<?xml version="1.0" encoding="UTF-8" standalone="no"?>
<!DOCTYPE svg PUBLIC "-//W3C//DTD SVG 1.1//EN"
 "http://www.w3.org/Graphics/SVG/1.1/DTD/svg11.dtd">
<!-- Generated by graphviz version 2.38.0 (20140413.2041)
 -->
<!-- Title: engine/GameObject/Model Pages: 1 -->
<svg width="136pt" height="151pt"
 viewBox="0.00 0.00 136.00 151.00" xmlns="http://www.w3.org/2000/svg" xmlns:xlink="http://www.w3.org/1999/xlink">
<g id="graph0" class="graph" transform="scale(1 1) rotate(0) translate(4 147)">
<title>engine/GameObject/Model</title>
<g id="clust1" class="cluster"><title>clusterdir_3a555b69b7795839eed54f72b7b4132a</title>
<g id="a_clust1"><a xlink:href="dir_3a555b69b7795839eed54f72b7b4132a.html" target="_top" xlink:title="GameObject">
<polygon fill="#ddddee" stroke="black" points="28,-64 28,-135 99,-135 99,-64 28,-64"/>
<text text-anchor="middle" x="63.5" y="-123" font-family="Helvetica,sans-Serif" font-size="10.00">GameObject</text>
</a>
</g>
</g>
<!-- dir_2dac2ce4ef2c03ba2caf7c67ae287e5d -->
<g id="node1" class="node"><title>dir_2dac2ce4ef2c03ba2caf7c67ae287e5d</title>
<g id="a_node1"><a xlink:href="dir_2dac2ce4ef2c03ba2caf7c67ae287e5d.html" target="_top" xlink:title="Model">
<polygon fill="#eeeeff" stroke="black" points="90,-108 36,-108 36,-72 90,-72 90,-108"/>
<text text-anchor="middle" x="63" y="-87.5" font-family="Helvetica,sans-Serif" font-size="10.00">Model</text>
</a>
</g>
</g>
<!-- dir_6e4d7cc950507c27f994556db83bd942 -->
<g id="node2" class="node"><title>dir_6e4d7cc950507c27f994556db83bd942</title>
<g id="a_node2"><a xlink:href="dir_6e4d7cc950507c27f994556db83bd942.html" target="_top" xlink:title="Shaders">
<polygon fill="none" stroke="red" points="54,-36 0,-36 0,-0 54,-0 54,-36"/>
<text text-anchor="middle" x="27" y="-15.5" font-family="Helvetica,sans-Serif" font-size="10.00">Shaders</text>
</a>
</g>
</g>
<!-- dir_2dac2ce4ef2c03ba2caf7c67ae287e5d&#45;&gt;dir_6e4d7cc950507c27f994556db83bd942 -->
<g id="edge1" class="edge"><title>dir_2dac2ce4ef2c03ba2caf7c67ae287e5d&#45;&gt;dir_6e4d7cc950507c27f994556db83bd942</title>
<path fill="none" stroke="black" d="M54.1011,-71.6966C50.0032,-63.7284 45.0512,-54.0995 40.5073,-45.2641"/>
<polygon fill="black" stroke="black" points="43.4826,-43.3965 35.7965,-36.1043 37.2575,-46.598 43.4826,-43.3965"/>
<g id="a_edge1&#45;headlabel"><a xlink:href="dir_000007_000016.html" target="_top" xlink:title="1">
<text text-anchor="middle" x="47.6514" y="-42.7946" font-family="Helvetica,sans-Serif" font-size="10.00">1</text>
</a>
</g>
</g>
<!-- dir_37e584d61c1ad01a0f32aaf99da6b41e -->
<g id="node3" class="node"><title>dir_37e584d61c1ad01a0f32aaf99da6b41e</title>
<g id="a_node3"><a xlink:href="dir_37e584d61c1ad01a0f32aaf99da6b41e.html" target="_top" xlink:title="Renderer">
<polygon fill="none" stroke="red" points="128,-36 72,-36 72,-0 128,-0 128,-36"/>
<text text-anchor="middle" x="100" y="-15.5" font-family="Helvetica,sans-Serif" font-size="10.00">Renderer</text>
</a>
</g>
</g>
<!-- dir_2dac2ce4ef2c03ba2caf7c67ae287e5d&#45;&gt;dir_37e584d61c1ad01a0f32aaf99da6b41e -->
<g id="edge2" class="edge"><title>dir_2dac2ce4ef2c03ba2caf7c67ae287e5d&#45;&gt;dir_37e584d61c1ad01a0f32aaf99da6b41e</title>
<path fill="none" stroke="black" d="M72.1461,-71.6966C76.4026,-63.6436 81.5558,-53.8945 86.2664,-44.9824"/>
<polygon fill="black" stroke="black" points="89.3803,-46.5809 90.9591,-36.1043 83.1917,-43.3097 89.3803,-46.5809"/>
<g id="a_edge2&#45;headlabel"><a xlink:href="dir_000007_000013.html" target="_top" xlink:title="1">
<text text-anchor="middle" x="90.2108" y="-48.5857" font-family="Helvetica,sans-Serif" font-size="10.00">1</text>
</a>
</g>
</g>
</g>
</svg>
