<?xml version="1.0" encoding="UTF-8" standalone="no"?>
<!DOCTYPE svg PUBLIC "-//W3C//DTD SVG 1.1//EN"
 "http://www.w3.org/Graphics/SVG/1.1/DTD/svg11.dtd">
<!-- Generated by graphviz version 2.38.0 (20140413.2041)
 -->
<!-- Title: engine/Scene Pages: 1 -->
<svg width="227pt" height="223pt"
 viewBox="0.00 0.00 227.08 223.00" xmlns="http://www.w3.org/2000/svg" xmlns:xlink="http://www.w3.org/1999/xlink">
<g id="graph0" class="graph" transform="scale(1 1) rotate(0) translate(4 219)">
<title>engine/Scene</title>
<g id="clust1" class="cluster"><title>clusterdir_996f45160da62e1a3d7f6046fad68f51</title>
<g id="a_clust1"><a xlink:href="dir_996f45160da62e1a3d7f6046fad68f51.html" target="_top" xlink:title="engine">
<polygon fill="#ddddee" stroke="black" points="44.0841,-136 44.0841,-207 114.084,-207 114.084,-136 44.0841,-136"/>
<text text-anchor="middle" x="79.0841" y="-195" font-family="Helvetica,sans-Serif" font-size="10.00">engine</text>
</a>
</g>
</g>
<!-- dir_ba775a609e100e11fec950409e9afc1d -->
<g id="node1" class="node"><title>dir_ba775a609e100e11fec950409e9afc1d</title>
<g id="a_node1"><a xlink:href="dir_ba775a609e100e11fec950409e9afc1d.html" target="_top" xlink:title="Scene">
<polygon fill="#eeeeff" stroke="black" points="106.084,-180 52.0841,-180 52.0841,-144 106.084,-144 106.084,-180"/>
<text text-anchor="middle" x="79.0841" y="-159.5" font-family="Helvetica,sans-Serif" font-size="10.00">Scene</text>
</a>
</g>
</g>
<!-- dir_3a555b69b7795839eed54f72b7b4132a -->
<g id="node2" class="node"><title>dir_3a555b69b7795839eed54f72b7b4132a</title>
<g id="a_node2"><a xlink:href="dir_3a555b69b7795839eed54f72b7b4132a.html" target="_top" xlink:title="GameObject">
<polygon fill="none" stroke="red" points="152.584,-36 81.5841,-36 81.5841,-0 152.584,-0 152.584,-36"/>
<text text-anchor="middle" x="117.084" y="-15.5" font-family="Helvetica,sans-Serif" font-size="10.00">GameObject</text>
</a>
</g>
</g>
<!-- dir_ba775a609e100e11fec950409e9afc1d&#45;&gt;dir_3a555b69b7795839eed54f72b7b4132a -->
<g id="edge1" class="edge"><title>dir_ba775a609e100e11fec950409e9afc1d&#45;&gt;dir_3a555b69b7795839eed54f72b7b4132a</title>
<path fill="none" stroke="black" d="M52.0106,-149.296C35.4616,-140.546 15.6861,-126.837 6.0841,-108 -1.18216,-93.7451 -2.45097,-85.5334 6.0841,-72 20.5016,-49.1393 47.7937,-35.9285 71.7065,-28.4136"/>
<polygon fill="black" stroke="black" points="72.7225,-31.7633 81.3556,-25.6215 70.7767,-25.0392 72.7225,-31.7633"/>
<g id="a_edge1&#45;headlabel"><a xlink:href="dir_000015_000006.html" target="_top" xlink:title="1">
<text text-anchor="middle" x="70.0588" y="-32.9898" font-family="Helvetica,sans-Serif" font-size="10.00">1</text>
</a>
</g>
</g>
<!-- dir_d0d75729f6392f71d180a932040f5f47 -->
<g id="node3" class="node"><title>dir_d0d75729f6392f71d180a932040f5f47</title>
<g id="a_node3"><a xlink:href="dir_d0d75729f6392f71d180a932040f5f47.html" target="_top" xlink:title="Light">
<polygon fill="none" stroke="black" points="69.0841,-108 15.0841,-108 15.0841,-72 69.0841,-72 69.0841,-108"/>
<text text-anchor="middle" x="42.0841" y="-87.5" font-family="Helvetica,sans-Serif" font-size="10.00">Light</text>
</a>
</g>
</g>
<!-- dir_ba775a609e100e11fec950409e9afc1d&#45;&gt;dir_d0d75729f6392f71d180a932040f5f47 -->
<g id="edge2" class="edge"><title>dir_ba775a609e100e11fec950409e9afc1d&#45;&gt;dir_d0d75729f6392f71d180a932040f5f47</title>
<path fill="none" stroke="black" d="M69.938,-143.697C65.6814,-135.644 60.5283,-125.894 55.8177,-116.982"/>
<polygon fill="black" stroke="black" points="58.8924,-115.31 51.125,-108.104 52.7037,-118.581 58.8924,-115.31"/>
<g id="a_edge2&#45;headlabel"><a xlink:href="dir_000015_000008.html" target="_top" xlink:title="1">
<text text-anchor="middle" x="63.0823" y="-114.661" font-family="Helvetica,sans-Serif" font-size="10.00">1</text>
</a>
</g>
</g>
<!-- dir_d186e51cee5d13416ee677b4100a6cb0 -->
<g id="node4" class="node"><title>dir_d186e51cee5d13416ee677b4100a6cb0</title>
<g id="a_node4"><a xlink:href="dir_d186e51cee5d13416ee677b4100a6cb0.html" target="_top" xlink:title="Primitives">
<polygon fill="none" stroke="red" points="147.084,-108 87.0841,-108 87.0841,-72 147.084,-72 147.084,-108"/>
<text text-anchor="middle" x="117.084" y="-87.5" font-family="Helvetica,sans-Serif" font-size="10.00">Primitives</text>
</a>
</g>
</g>
<!-- dir_ba775a609e100e11fec950409e9afc1d&#45;&gt;dir_d186e51cee5d13416ee677b4100a6cb0 -->
<g id="edge3" class="edge"><title>dir_ba775a609e100e11fec950409e9afc1d&#45;&gt;dir_d186e51cee5d13416ee677b4100a6cb0</title>
<path fill="none" stroke="black" d="M88.4774,-143.697C92.849,-135.644 98.1414,-125.894 102.979,-116.982"/>
<polygon fill="black" stroke="black" points="106.104,-118.563 107.799,-108.104 99.9519,-115.223 106.104,-118.563"/>
<g id="a_edge3&#45;headlabel"><a xlink:href="dir_000015_000011.html" target="_top" xlink:title="1">
<text text-anchor="middle" x="106.884" y="-120.576" font-family="Helvetica,sans-Serif" font-size="10.00">1</text>
</a>
</g>
</g>
<!-- dir_4b71b285adca0ee8727c2f059697f1fe -->
<g id="node5" class="node"><title>dir_4b71b285adca0ee8727c2f059697f1fe</title>
<g id="a_node5"><a xlink:href="dir_4b71b285adca0ee8727c2f059697f1fe.html" target="_top" xlink:title="Camera">
<polygon fill="none" stroke="black" points="219.084,-108 165.084,-108 165.084,-72 219.084,-72 219.084,-108"/>
<text text-anchor="middle" x="192.084" y="-87.5" font-family="Helvetica,sans-Serif" font-size="10.00">Camera</text>
</a>
</g>
</g>
<!-- dir_ba775a609e100e11fec950409e9afc1d&#45;&gt;dir_4b71b285adca0ee8727c2f059697f1fe -->
<g id="edge4" class="edge"><title>dir_ba775a609e100e11fec950409e9afc1d&#45;&gt;dir_4b71b285adca0ee8727c2f059697f1fe</title>
<path fill="none" stroke="black" d="M106.15,-144.233C121.135,-134.951 139.952,-123.294 156.155,-113.257"/>
<polygon fill="black" stroke="black" points="158.189,-116.114 164.847,-107.873 154.503,-110.163 158.189,-116.114"/>
<g id="a_edge4&#45;headlabel"><a xlink:href="dir_000015_000003.html" target="_top" xlink:title="1">
<text text-anchor="middle" x="156.628" y="-117.921" font-family="Helvetica,sans-Serif" font-size="10.00">1</text>
</a>
</g>
</g>
<!-- dir_d186e51cee5d13416ee677b4100a6cb0&#45;&gt;dir_3a555b69b7795839eed54f72b7b4132a -->
<g id="edge5" class="edge"><title>dir_d186e51cee5d13416ee677b4100a6cb0&#45;&gt;dir_3a555b69b7795839eed54f72b7b4132a</title>
<path fill="none" stroke="black" d="M117.084,-71.6966C117.084,-63.9827 117.084,-54.7125 117.084,-46.1124"/>
<polygon fill="black" stroke="black" points="120.584,-46.1043 117.084,-36.1043 113.584,-46.1044 120.584,-46.1043"/>
<g id="a_edge5&#45;headlabel"><a xlink:href="dir_000011_000006.html" target="_top" xlink:title="1">
<text text-anchor="middle" x="123.423" y="-47.199" font-family="Helvetica,sans-Serif" font-size="10.00">1</text>
</a>
</g>
</g>
<!-- dir_4b71b285adca0ee8727c2f059697f1fe&#45;&gt;dir_3a555b69b7795839eed54f72b7b4132a -->
<g id="edge6" class="edge"><title>dir_4b71b285adca0ee8727c2f059697f1fe&#45;&gt;dir_3a555b69b7795839eed54f72b7b4132a</title>
<path fill="none" stroke="black" d="M173.545,-71.6966C164.281,-63.0503 152.922,-52.4486 142.827,-43.027"/>
<polygon fill="black" stroke="black" points="145.109,-40.3688 135.41,-36.1043 140.333,-45.4863 145.109,-40.3688"/>
<g id="a_edge6&#45;headlabel"><a xlink:href="dir_000003_000006.html" target="_top" xlink:title="1">
<text text-anchor="middle" x="149.674" y="-38.2458" font-family="Helvetica,sans-Serif" font-size="10.00">1</text>
</a>
</g>
</g>
</g>
</svg>
