<?xml version="1.0" encoding="UTF-8" standalone="no"?>
<!DOCTYPE svg PUBLIC "-//W3C//DTD SVG 1.1//EN"
 "http://www.w3.org/Graphics/SVG/1.1/DTD/svg11.dtd">
<!-- Generated by graphviz version 2.38.0 (20140413.2041)
 -->
<!-- Title: engine/Shaders Pages: 1 -->
<svg width="188pt" height="303pt"
 viewBox="0.00 0.00 188.00 303.00" xmlns="http://www.w3.org/2000/svg" xmlns:xlink="http://www.w3.org/1999/xlink">
<g id="graph0" class="graph" transform="scale(1 1) rotate(0) translate(4 299)">
<title>engine/Shaders</title>
<g id="clust1" class="cluster"><title>clusterdir_996f45160da62e1a3d7f6046fad68f51</title>
<g id="a_clust1"><a xlink:href="dir_996f45160da62e1a3d7f6046fad68f51.html" target="_top" xlink:title="engine">
<polygon fill="#ddddee" stroke="black" points="8,-56 8,-287 172,-287 172,-56 8,-56"/>
<text text-anchor="middle" x="90" y="-275" font-family="Helvetica,sans-Serif" font-size="10.00">engine</text>
</a>
</g>
</g>
<g id="clust2" class="cluster"><title>clusterdir_6e4d7cc950507c27f994556db83bd942</title>
<g id="a_clust2"><a xlink:href="dir_6e4d7cc950507c27f994556db83bd942.html" target="_top">
<polygon fill="#eeeeff" stroke="black" points="16,-64 16,-260 164,-260 164,-64 16,-64"/>
</a>
</g>
</g>
<!-- dir_6e4d7cc950507c27f994556db83bd942 -->
<g id="node1" class="node"><title>dir_6e4d7cc950507c27f994556db83bd942</title>
<text text-anchor="middle" x="129" y="-231.5" font-family="Helvetica,sans-Serif" font-size="10.00">Shaders</text>
</g>
<!-- dir_858418d68bfa5fd6fd105055203c82ad -->
<g id="node2" class="node"><title>dir_858418d68bfa5fd6fd105055203c82ad</title>
<g id="a_node2"><a xlink:href="dir_858418d68bfa5fd6fd105055203c82ad.html" target="_top" xlink:title="Managers">
<polygon fill="white" stroke="red" points="83.5,-252 24.5,-252 24.5,-216 83.5,-216 83.5,-252"/>
<text text-anchor="middle" x="54" y="-231.5" font-family="Helvetica,sans-Serif" font-size="10.00">Managers</text>
</a>
</g>
</g>
<!-- dir_1999bd0b5a0bb9db12366bc1ddfefb6a -->
<g id="node3" class="node"><title>dir_1999bd0b5a0bb9db12366bc1ddfefb6a</title>
<g id="a_node3"><a xlink:href="dir_1999bd0b5a0bb9db12366bc1ddfefb6a.html" target="_top" xlink:title="Shader">
<polygon fill="white" stroke="black" points="82,-108 28,-108 28,-72 82,-72 82,-108"/>
<text text-anchor="middle" x="55" y="-87.5" font-family="Helvetica,sans-Serif" font-size="10.00">Shader</text>
</a>
</g>
</g>
<!-- dir_858418d68bfa5fd6fd105055203c82ad&#45;&gt;dir_1999bd0b5a0bb9db12366bc1ddfefb6a -->
<g id="edge5" class="edge"><title>dir_858418d68bfa5fd6fd105055203c82ad&#45;&gt;dir_1999bd0b5a0bb9db12366bc1ddfefb6a</title>
<path fill="none" stroke="black" d="M54.1206,-215.871C54.2911,-191.67 54.6041,-147.211 54.8071,-118.393"/>
<polygon fill="black" stroke="black" points="58.3083,-118.214 54.8789,-108.189 51.3085,-118.164 58.3083,-118.214"/>
<g id="a_edge5&#45;headlabel"><a xlink:href="dir_000017_000022.html" target="_top" xlink:title="2">
<text text-anchor="middle" x="61.1223" y="-119.328" font-family="Helvetica,sans-Serif" font-size="10.00">2</text>
</a>
</g>
</g>
<!-- dir_e1d3a58c952f3de1419780d008a20c9e -->
<g id="node4" class="node"><title>dir_e1d3a58c952f3de1419780d008a20c9e</title>
<g id="a_node4"><a xlink:href="dir_e1d3a58c952f3de1419780d008a20c9e.html" target="_top" xlink:title="ShaderProgram">
<polygon fill="white" stroke="black" points="152,-180 68,-180 68,-144 152,-144 152,-180"/>
<text text-anchor="middle" x="110" y="-159.5" font-family="Helvetica,sans-Serif" font-size="10.00">ShaderProgram</text>
</a>
</g>
</g>
<!-- dir_858418d68bfa5fd6fd105055203c82ad&#45;&gt;dir_e1d3a58c952f3de1419780d008a20c9e -->
<g id="edge4" class="edge"><title>dir_858418d68bfa5fd6fd105055203c82ad&#45;&gt;dir_e1d3a58c952f3de1419780d008a20c9e</title>
<path fill="none" stroke="black" d="M67.8427,-215.697C74.4885,-207.389 82.5784,-197.277 89.8874,-188.141"/>
<polygon fill="black" stroke="black" points="92.8026,-190.099 96.3165,-180.104 87.3365,-185.727 92.8026,-190.099"/>
<g id="a_edge4&#45;headlabel"><a xlink:href="dir_000017_000023.html" target="_top" xlink:title="2">
<text text-anchor="middle" x="92.7742" y="-192.18" font-family="Helvetica,sans-Serif" font-size="10.00">2</text>
</a>
</g>
</g>
<!-- dir_9257174f690635f75a6c414b151b5118 -->
<g id="node5" class="node"><title>dir_9257174f690635f75a6c414b151b5118</title>
<g id="a_node5"><a xlink:href="dir_9257174f690635f75a6c414b151b5118.html" target="_top" xlink:title="window">
<polygon fill="none" stroke="black" points="109,-36 55,-36 55,-0 109,-0 109,-36"/>
<text text-anchor="middle" x="82" y="-15.5" font-family="Helvetica,sans-Serif" font-size="10.00">window</text>
</a>
</g>
</g>
<!-- dir_1999bd0b5a0bb9db12366bc1ddfefb6a&#45;&gt;dir_9257174f690635f75a6c414b151b5118 -->
<g id="edge3" class="edge"><title>dir_1999bd0b5a0bb9db12366bc1ddfefb6a&#45;&gt;dir_9257174f690635f75a6c414b151b5118</title>
<path fill="none" stroke="black" d="M61.6742,-71.6966C64.7149,-63.8132 68.3827,-54.3042 71.7607,-45.5464"/>
<polygon fill="black" stroke="black" points="75.0693,-46.6939 75.4026,-36.1043 68.5383,-44.1748 75.0693,-46.6939"/>
<g id="a_edge3&#45;headlabel"><a xlink:href="dir_000022_000026.html" target="_top" xlink:title="1">
<text text-anchor="middle" x="76.4248" y="-48.5695" font-family="Helvetica,sans-Serif" font-size="10.00">1</text>
</a>
</g>
</g>
<!-- dir_e1d3a58c952f3de1419780d008a20c9e&#45;&gt;dir_1999bd0b5a0bb9db12366bc1ddfefb6a -->
<g id="edge1" class="edge"><title>dir_e1d3a58c952f3de1419780d008a20c9e&#45;&gt;dir_1999bd0b5a0bb9db12366bc1ddfefb6a</title>
<path fill="none" stroke="black" d="M96.4045,-143.697C89.8773,-135.389 81.932,-125.277 74.7534,-116.141"/>
<polygon fill="black" stroke="black" points="77.3695,-113.805 68.4391,-108.104 71.8653,-118.13 77.3695,-113.805"/>
<g id="a_edge1&#45;headlabel"><a xlink:href="dir_000023_000022.html" target="_top" xlink:title="1">
<text text-anchor="middle" x="81.8229" y="-112.377" font-family="Helvetica,sans-Serif" font-size="10.00">1</text>
</a>
</g>
</g>
<!-- dir_e1d3a58c952f3de1419780d008a20c9e&#45;&gt;dir_9257174f690635f75a6c414b151b5118 -->
<g id="edge2" class="edge"><title>dir_e1d3a58c952f3de1419780d008a20c9e&#45;&gt;dir_9257174f690635f75a6c414b151b5118</title>
<path fill="none" stroke="black" d="M107.218,-143.843C103.765,-123.002 97.5284,-86.8088 91,-56 90.3148,-52.7663 89.5539,-49.3844 88.7731,-46.0354"/>
<polygon fill="black" stroke="black" points="92.1659,-45.1743 86.4263,-36.2688 85.3596,-46.8098 92.1659,-45.1743"/>
<g id="a_edge2&#45;headlabel"><a xlink:href="dir_000023_000026.html" target="_top" xlink:title="1">
<text text-anchor="middle" x="95.7663" y="-45.5062" font-family="Helvetica,sans-Serif" font-size="10.00">1</text>
</a>
</g>
</g>
</g>
</svg>
