<?xml version="1.0" encoding="UTF-8" standalone="no"?>
<!DOCTYPE svg PUBLIC "-//W3C//DTD SVG 1.1//EN"
 "http://www.w3.org/Graphics/SVG/1.1/DTD/svg11.dtd">
<!-- Generated by graphviz version 2.38.0 (20140413.2041)
 -->
<!-- Title: engine/SceneGraphNode Pages: 1 -->
<svg width="366pt" height="223pt"
 viewBox="0.00 0.00 365.95 223.00" xmlns="http://www.w3.org/2000/svg" xmlns:xlink="http://www.w3.org/1999/xlink">
<g id="graph0" class="graph" transform="scale(1 1) rotate(0) translate(4 219)">
<title>engine/SceneGraphNode</title>
<g id="clust1" class="cluster"><title>clusterdir_996f45160da62e1a3d7f6046fad68f51</title>
<g id="a_clust1"><a xlink:href="dir_996f45160da62e1a3d7f6046fad68f51.html" target="_top" xlink:title="engine">
<polygon fill="#ddddee" stroke="black" points="85.4477,-136 85.4477,-207 195.448,-207 195.448,-136 85.4477,-136"/>
<text text-anchor="middle" x="140.448" y="-195" font-family="Helvetica,sans-Serif" font-size="10.00">engine</text>
</a>
</g>
</g>
<!-- dir_a28f2302bff7720243f96c5e6010cda6 -->
<g id="node1" class="node"><title>dir_a28f2302bff7720243f96c5e6010cda6</title>
<g id="a_node1"><a xlink:href="dir_a28f2302bff7720243f96c5e6010cda6.html" target="_top" xlink:title="SceneGraphNode">
<polygon fill="#eeeeff" stroke="black" points="187.448,-180 93.4477,-180 93.4477,-144 187.448,-144 187.448,-180"/>
<text text-anchor="middle" x="140.448" y="-159.5" font-family="Helvetica,sans-Serif" font-size="10.00">SceneGraphNode</text>
</a>
</g>
</g>
<!-- dir_c9dbd819322c113e6234637a00e97751 -->
<g id="node2" class="node"><title>dir_c9dbd819322c113e6234637a00e97751</title>
<g id="a_node2"><a xlink:href="dir_c9dbd819322c113e6234637a00e97751.html" target="_top" xlink:title="Transform">
<polygon fill="none" stroke="black" points="129.948,-36 68.9477,-36 68.9477,-0 129.948,-0 129.948,-36"/>
<text text-anchor="middle" x="99.4477" y="-15.5" font-family="Helvetica,sans-Serif" font-size="10.00">Transform</text>
</a>
</g>
</g>
<!-- dir_a28f2302bff7720243f96c5e6010cda6&#45;&gt;dir_c9dbd819322c113e6234637a00e97751 -->
<g id="edge4" class="edge"><title>dir_a28f2302bff7720243f96c5e6010cda6&#45;&gt;dir_c9dbd819322c113e6234637a00e97751</title>
<path fill="none" stroke="black" d="M93.3249,-155.731C63.0096,-149.626 25.7878,-136.447 6.44774,-108 -2.54792,-94.7683 -1.59111,-85.8339 6.44774,-72 17.922,-52.2542 39.8109,-39.2527 59.4714,-31.0706"/>
<polygon fill="black" stroke="black" points="60.8217,-34.3011 68.8886,-27.4327 58.2991,-27.7714 60.8217,-34.3011"/>
<g id="a_edge4&#45;headlabel"><a xlink:href="dir_000022_000032.html" target="_top" xlink:title="1">
<text text-anchor="middle" x="58.4917" y="-35.7449" font-family="Helvetica,sans-Serif" font-size="10.00">1</text>
</a>
</g>
</g>
<!-- dir_d0d75729f6392f71d180a932040f5f47 -->
<g id="node3" class="node"><title>dir_d0d75729f6392f71d180a932040f5f47</title>
<g id="a_node3"><a xlink:href="dir_d0d75729f6392f71d180a932040f5f47.html" target="_top" xlink:title="Light">
<polygon fill="none" stroke="black" points="69.4477,-108 15.4477,-108 15.4477,-72 69.4477,-72 69.4477,-108"/>
<text text-anchor="middle" x="42.4477" y="-87.5" font-family="Helvetica,sans-Serif" font-size="10.00">Light</text>
</a>
</g>
</g>
<!-- dir_a28f2302bff7720243f96c5e6010cda6&#45;&gt;dir_d0d75729f6392f71d180a932040f5f47 -->
<g id="edge5" class="edge"><title>dir_a28f2302bff7720243f96c5e6010cda6&#45;&gt;dir_d0d75729f6392f71d180a932040f5f47</title>
<path fill="none" stroke="black" d="M116.474,-143.876C103.898,-134.893 88.3153,-123.763 74.6955,-114.034"/>
<polygon fill="black" stroke="black" points="76.6851,-111.154 66.5134,-108.19 72.6164,-116.85 76.6851,-111.154"/>
<g id="a_edge5&#45;headlabel"><a xlink:href="dir_000022_000012.html" target="_top" xlink:title="1">
<text text-anchor="middle" x="81.2604" y="-108.433" font-family="Helvetica,sans-Serif" font-size="10.00">1</text>
</a>
</g>
</g>
<!-- dir_302221a7aab9197b428d32165f6aeb64 -->
<g id="node4" class="node"><title>dir_302221a7aab9197b428d32165f6aeb64</title>
<g id="a_node4"><a xlink:href="dir_302221a7aab9197b428d32165f6aeb64.html" target="_top" xlink:title="SceneGraph">
<polygon fill="none" stroke="black" points="328.948,-180 257.948,-180 257.948,-144 328.948,-144 328.948,-180"/>
<text text-anchor="middle" x="293.448" y="-159.5" font-family="Helvetica,sans-Serif" font-size="10.00">SceneGraph</text>
</a>
</g>
</g>
<!-- dir_a28f2302bff7720243f96c5e6010cda6&#45;&gt;dir_302221a7aab9197b428d32165f6aeb64 -->
<g id="edge6" class="edge"><title>dir_a28f2302bff7720243f96c5e6010cda6&#45;&gt;dir_302221a7aab9197b428d32165f6aeb64</title>
<path fill="none" stroke="black" d="M187.663,-162C207.694,-162 227.726,-162 247.758,-162"/>
<polygon fill="black" stroke="black" points="247.911,-165.5 257.911,-162 247.911,-158.5 247.911,-165.5"/>
<g id="a_edge6&#45;headlabel"><a xlink:href="dir_000022_000021.html" target="_top" xlink:title="1">
<text text-anchor="middle" x="244.316" y="-165.839" font-family="Helvetica,sans-Serif" font-size="10.00">1</text>
</a>
</g>
</g>
<!-- dir_367b412637a5abf5b1dc26af7424a7dc -->
<g id="node5" class="node"><title>dir_367b412637a5abf5b1dc26af7424a7dc</title>
<g id="a_node5"><a xlink:href="dir_367b412637a5abf5b1dc26af7424a7dc.html" target="_top" xlink:title="Object">
<polygon fill="none" stroke="black" points="141.448,-108 87.4477,-108 87.4477,-72 141.448,-72 141.448,-108"/>
<text text-anchor="middle" x="114.448" y="-87.5" font-family="Helvetica,sans-Serif" font-size="10.00">Object</text>
</a>
</g>
</g>
<!-- dir_a28f2302bff7720243f96c5e6010cda6&#45;&gt;dir_367b412637a5abf5b1dc26af7424a7dc -->
<g id="edge7" class="edge"><title>dir_a28f2302bff7720243f96c5e6010cda6&#45;&gt;dir_367b412637a5abf5b1dc26af7424a7dc</title>
<path fill="none" stroke="black" d="M134.021,-143.697C131.093,-135.813 127.561,-126.304 124.308,-117.546"/>
<polygon fill="black" stroke="black" points="127.564,-116.26 120.801,-108.104 121.002,-118.697 127.564,-116.26"/>
<g id="a_edge7&#45;headlabel"><a xlink:href="dir_000022_000017.html" target="_top" xlink:title="1">
<text text-anchor="middle" x="131.477" y="-116.141" font-family="Helvetica,sans-Serif" font-size="10.00">1</text>
</a>
</g>
</g>
<!-- dir_b0e652ac9949ee2dc3907b5e9895ade1 -->
<g id="node6" class="node"><title>dir_b0e652ac9949ee2dc3907b5e9895ade1</title>
<g id="a_node6"><a xlink:href="dir_b0e652ac9949ee2dc3907b5e9895ade1.html" target="_top" xlink:title="AssimpScene">
<polygon fill="none" stroke="black" points="357.948,-108 280.948,-108 280.948,-72 357.948,-72 357.948,-108"/>
<text text-anchor="middle" x="319.448" y="-87.5" font-family="Helvetica,sans-Serif" font-size="10.00">AssimpScene</text>
</a>
</g>
</g>
<!-- dir_a28f2302bff7720243f96c5e6010cda6&#45;&gt;dir_b0e652ac9949ee2dc3907b5e9895ade1 -->
<g id="edge8" class="edge"><title>dir_a28f2302bff7720243f96c5e6010cda6&#45;&gt;dir_b0e652ac9949ee2dc3907b5e9895ade1</title>
<path fill="none" stroke="black" d="M184.236,-143.876C210.508,-133.602 243.962,-120.519 271.021,-109.938"/>
<polygon fill="black" stroke="black" points="272.637,-113.064 280.675,-106.162 270.088,-106.545 272.637,-113.064"/>
<g id="a_edge8&#45;headlabel"><a xlink:href="dir_000022_000005.html" target="_top" xlink:title="1">
<text text-anchor="middle" x="270.323" y="-114.517" font-family="Helvetica,sans-Serif" font-size="10.00">1</text>
</a>
</g>
</g>
<!-- dir_a415b2168ca0b3ab07233d2f974b7a5e -->
<g id="node7" class="node"><title>dir_a415b2168ca0b3ab07233d2f974b7a5e</title>
<g id="a_node7"><a xlink:href="dir_a415b2168ca0b3ab07233d2f974b7a5e.html" target="_top" xlink:title="PerspectiveCamera">
<polygon fill="none" stroke="black" points="262.948,-108 159.948,-108 159.948,-72 262.948,-72 262.948,-108"/>
<text text-anchor="middle" x="211.448" y="-87.5" font-family="Helvetica,sans-Serif" font-size="10.00">PerspectiveCamera</text>
</a>
</g>
</g>
<!-- dir_a28f2302bff7720243f96c5e6010cda6&#45;&gt;dir_a415b2168ca0b3ab07233d2f974b7a5e -->
<g id="edge9" class="edge"><title>dir_a28f2302bff7720243f96c5e6010cda6&#45;&gt;dir_a415b2168ca0b3ab07233d2f974b7a5e</title>
<path fill="none" stroke="black" d="M157.998,-143.697C166.682,-135.135 177.311,-124.656 186.796,-115.304"/>
<polygon fill="black" stroke="black" points="189.435,-117.617 194.099,-108.104 184.521,-112.633 189.435,-117.617"/>
<g id="a_edge9&#45;headlabel"><a xlink:href="dir_000022_000018.html" target="_top" xlink:title="1">
<text text-anchor="middle" x="188.869" y="-119.663" font-family="Helvetica,sans-Serif" font-size="10.00">1</text>
</a>
</g>
</g>
<!-- dir_302221a7aab9197b428d32165f6aeb64&#45;&gt;dir_a28f2302bff7720243f96c5e6010cda6 -->
<g id="edge2" class="edge"><title>dir_302221a7aab9197b428d32165f6aeb64&#45;&gt;dir_a28f2302bff7720243f96c5e6010cda6</title>
<path fill="none" stroke="black" d="M257.911,-162C237.879,-162 217.847,-162 197.816,-162"/>
<polygon fill="black" stroke="black" points="197.663,-158.5 187.663,-162 197.663,-165.5 197.663,-158.5"/>
<g id="a_edge2&#45;headlabel"><a xlink:href="dir_000021_000022.html" target="_top" xlink:title="1">
<text text-anchor="middle" x="201.257" y="-153.161" font-family="Helvetica,sans-Serif" font-size="10.00">1</text>
</a>
</g>
</g>
<!-- dir_302221a7aab9197b428d32165f6aeb64&#45;&gt;dir_b0e652ac9949ee2dc3907b5e9895ade1 -->
<g id="edge1" class="edge"><title>dir_302221a7aab9197b428d32165f6aeb64&#45;&gt;dir_b0e652ac9949ee2dc3907b5e9895ade1</title>
<path fill="none" stroke="black" d="M299.875,-143.697C302.803,-135.813 306.335,-126.304 309.588,-117.546"/>
<polygon fill="black" stroke="black" points="312.894,-118.697 313.095,-108.104 306.332,-116.26 312.894,-118.697"/>
<g id="a_edge1&#45;headlabel"><a xlink:href="dir_000021_000005.html" target="_top" xlink:title="1">
<text text-anchor="middle" x="314.304" y="-120.556" font-family="Helvetica,sans-Serif" font-size="10.00">1</text>
</a>
</g>
</g>
<!-- dir_a415b2168ca0b3ab07233d2f974b7a5e&#45;&gt;dir_c9dbd819322c113e6234637a00e97751 -->
<g id="edge3" class="edge"><title>dir_a415b2168ca0b3ab07233d2f974b7a5e&#45;&gt;dir_c9dbd819322c113e6234637a00e97751</title>
<path fill="none" stroke="black" d="M184.049,-71.8761C169.541,-62.8083 151.531,-51.5523 135.862,-41.7592"/>
<polygon fill="black" stroke="black" points="137.286,-38.5218 126.951,-36.1898 133.576,-44.4578 137.286,-38.5218"/>
<g id="a_edge3&#45;headlabel"><a xlink:href="dir_000018_000032.html" target="_top" xlink:title="1">
<text text-anchor="middle" x="141.839" y="-35.5192" font-family="Helvetica,sans-Serif" font-size="10.00">1</text>
</a>
</g>
</g>
</g>
</svg>
