<?xml version="1.0" encoding="UTF-8" standalone="no"?>
<!DOCTYPE svg PUBLIC "-//W3C//DTD SVG 1.1//EN"
 "http://www.w3.org/Graphics/SVG/1.1/DTD/svg11.dtd">
<!-- Generated by graphviz version 2.38.0 (20140413.2041)
 -->
<!-- Title: Graphical Class Hierarchy Pages: 1 -->
<svg width="428pt" height="137pt"
 viewBox="0.00 0.00 428.00 137.00" xmlns="http://www.w3.org/2000/svg" xmlns:xlink="http://www.w3.org/1999/xlink">
<g id="graph0" class="graph" transform="scale(1 1) rotate(0) translate(4 133)">
<title>Graphical Class Hierarchy</title>
<!-- Node1 -->
<g id="node1" class="node"><title>Node1</title>
<g id="a_node1"><a xlink:href="de/dd2/classWorldParticles_1_1Engine_1_1Entity.html" target="_top" xlink:title="This class is used to represent something physically or not in the 3D world. ">
<polygon fill="none" stroke="black" points="0,-49.5 0,-79.5 116,-79.5 116,-49.5 0,-49.5"/>
<text text-anchor="start" x="8" y="-67.5" font-family="Helvetica,sans-Serif" font-size="10.00">WorldParticles::Engine</text>
<text text-anchor="middle" x="58" y="-56.5" font-family="Helvetica,sans-Serif" font-size="10.00">::Entity</text>
</a>
</g>
</g>
<!-- Node2 -->
<g id="node2" class="node"><title>Node2</title>
<g id="a_node2"><a xlink:href="d3/de4/classWorldParticles_1_1Engine_1_1Camera.html" target="_top" xlink:title="This class is used to store information about a basic camera in a 3D world. ">
<polygon fill="none" stroke="black" points="152,-98.5 152,-128.5 268,-128.5 268,-98.5 152,-98.5"/>
<text text-anchor="start" x="160" y="-116.5" font-family="Helvetica,sans-Serif" font-size="10.00">WorldParticles::Engine</text>
<text text-anchor="middle" x="210" y="-105.5" font-family="Helvetica,sans-Serif" font-size="10.00">::Camera</text>
</a>
</g>
</g>
<!-- Node1&#45;&gt;Node2 -->
<g id="edge1" class="edge"><title>Node1&#45;&gt;Node2</title>
<path fill="none" stroke="midnightblue" d="M114.895,-82.7591C130.716,-87.9273 147.752,-93.4924 162.924,-98.4484"/>
<polygon fill="midnightblue" stroke="midnightblue" points="115.821,-79.3797 105.229,-79.6014 113.648,-86.0337 115.821,-79.3797"/>
</g>
<!-- Node4 -->
<g id="node4" class="node"><title>Node4</title>
<g id="a_node4"><a xlink:href="d6/def/classWorldParticles_1_1Engine_1_1Light.html" target="_top" xlink:title="This class is used to represent a light in the 3d world. ">
<polygon fill="none" stroke="black" points="152,-49.5 152,-79.5 268,-79.5 268,-49.5 152,-49.5"/>
<text text-anchor="start" x="160" y="-67.5" font-family="Helvetica,sans-Serif" font-size="10.00">WorldParticles::Engine</text>
<text text-anchor="middle" x="210" y="-56.5" font-family="Helvetica,sans-Serif" font-size="10.00">::Light</text>
</a>
</g>
</g>
<!-- Node1&#45;&gt;Node4 -->
<g id="edge3" class="edge"><title>Node1&#45;&gt;Node4</title>
<path fill="none" stroke="midnightblue" d="M126.311,-64.5C134.728,-64.5 143.277,-64.5 151.525,-64.5"/>
<polygon fill="midnightblue" stroke="midnightblue" points="126.137,-61.0001 116.136,-64.5 126.136,-68.0001 126.137,-61.0001"/>
</g>
<!-- Node5 -->
<g id="node5" class="node"><title>Node5</title>
<g id="a_node5"><a xlink:href="d8/def/classWorldParticles_1_1Engine_1_1Object.html" target="_top" xlink:title="This class is used to represent a physical entity. ">
<polygon fill="none" stroke="black" points="152,-0.5 152,-30.5 268,-30.5 268,-0.5 152,-0.5"/>
<text text-anchor="start" x="160" y="-18.5" font-family="Helvetica,sans-Serif" font-size="10.00">WorldParticles::Engine</text>
<text text-anchor="middle" x="210" y="-7.5" font-family="Helvetica,sans-Serif" font-size="10.00">::Object</text>
</a>
</g>
</g>
<!-- Node1&#45;&gt;Node5 -->
<g id="edge4" class="edge"><title>Node1&#45;&gt;Node5</title>
<path fill="none" stroke="midnightblue" d="M114.895,-46.2409C130.716,-41.0727 147.752,-35.5076 162.924,-30.5516"/>
<polygon fill="midnightblue" stroke="midnightblue" points="113.648,-42.9663 105.229,-49.3986 115.821,-49.6203 113.648,-42.9663"/>
</g>
<!-- Node3 -->
<g id="node3" class="node"><title>Node3</title>
<g id="a_node3"><a xlink:href="df/ddc/classWorldParticles_1_1Engine_1_1PerspectiveCamera.html" target="_top" xlink:title="This class defined a perspective camera. This class implement the abstract class Camera. ">
<polygon fill="none" stroke="black" points="304,-98.5 304,-128.5 420,-128.5 420,-98.5 304,-98.5"/>
<text text-anchor="start" x="312" y="-116.5" font-family="Helvetica,sans-Serif" font-size="10.00">WorldParticles::Engine</text>
<text text-anchor="middle" x="362" y="-105.5" font-family="Helvetica,sans-Serif" font-size="10.00">::PerspectiveCamera</text>
</a>
</g>
</g>
<!-- Node2&#45;&gt;Node3 -->
<g id="edge2" class="edge"><title>Node2&#45;&gt;Node3</title>
<path fill="none" stroke="midnightblue" d="M278.311,-113.5C286.728,-113.5 295.277,-113.5 303.525,-113.5"/>
<polygon fill="midnightblue" stroke="midnightblue" points="278.137,-110 268.136,-113.5 278.136,-117 278.137,-110"/>
</g>
</g>
</svg>
