<?xml version="1.0" encoding="UTF-8" standalone="no"?>
<!DOCTYPE svg PUBLIC "-//W3C//DTD SVG 1.1//EN"
 "http://www.w3.org/Graphics/SVG/1.1/DTD/svg11.dtd">
<!-- Generated by graphviz version 2.38.0 (20140413.2041)
 -->
<!-- Title: engine/Renderer/IRenderer.hpp Pages: 1 -->
<svg width="1439pt" height="464pt"
 viewBox="0.00 0.00 1439.00 464.00" xmlns="http://www.w3.org/2000/svg" xmlns:xlink="http://www.w3.org/1999/xlink">
<g id="graph0" class="graph" transform="scale(1 1) rotate(0) translate(4 460)">
<title>engine/Renderer/IRenderer.hpp</title>
<!-- Node1 -->
<g id="node1" class="node"><title>Node1</title>
<polygon fill="#bfbfbf" stroke="black" points="1112.5,-436.5 1112.5,-455.5 1264.5,-455.5 1264.5,-436.5 1112.5,-436.5"/>
<text text-anchor="middle" x="1188.5" y="-443.5" font-family="Helvetica,sans-Serif" font-size="10.00">engine/Renderer/IRenderer.hpp</text>
</g>
<!-- Node2 -->
<g id="node2" class="node"><title>Node2</title>
<g id="a_node2"><a xlink:href="../../d4/db5/GameObject_8hpp.html" target="_top" xlink:title="engine/GameObject/GameObject.hpp">
<polygon fill="none" stroke="black" points="951,-380.5 951,-399.5 1130,-399.5 1130,-380.5 951,-380.5"/>
<text text-anchor="middle" x="1040.5" y="-387.5" font-family="Helvetica,sans-Serif" font-size="10.00">engine/GameObject/GameObject.hpp</text>
</a>
</g>
</g>
<!-- Node1&#45;&gt;Node2 -->
<g id="edge1" class="edge"><title>Node1&#45;&gt;Node2</title>
<path fill="none" stroke="midnightblue" d="M1155.35,-432.906C1127.53,-422.754 1088.48,-408.506 1063.84,-399.516"/>
<polygon fill="midnightblue" stroke="midnightblue" points="1154.46,-436.304 1165.05,-436.444 1156.85,-429.728 1154.46,-436.304"/>
</g>
<!-- Node26 -->
<g id="node26" class="node"><title>Node26</title>
<g id="a_node26"><a xlink:href="../../de/db3/BasicRenderer_8hpp.html" target="_top" xlink:title="engine/Renderer/BasicRenderer\l/BasicRenderer.hpp">
<polygon fill="none" stroke="black" points="1262,-257.5 1262,-287.5 1417,-287.5 1417,-257.5 1262,-257.5"/>
<text text-anchor="start" x="1270" y="-275.5" font-family="Helvetica,sans-Serif" font-size="10.00">engine/Renderer/BasicRenderer</text>
<text text-anchor="middle" x="1339.5" y="-264.5" font-family="Helvetica,sans-Serif" font-size="10.00">/BasicRenderer.hpp</text>
</a>
</g>
</g>
<!-- Node1&#45;&gt;Node26 -->
<g id="edge33" class="edge"><title>Node1&#45;&gt;Node26</title>
<path fill="none" stroke="midnightblue" d="M1202.83,-428.727C1232.27,-395.287 1299.14,-319.338 1326.98,-287.723"/>
<polygon fill="midnightblue" stroke="midnightblue" points="1200.18,-426.441 1196.2,-436.26 1205.43,-431.067 1200.18,-426.441"/>
</g>
<!-- Node3 -->
<g id="node3" class="node"><title>Node3</title>
<g id="a_node3"><a xlink:href="../../d6/d80/Camera_8hpp.html" target="_top" xlink:title="engine/Camera/Camera.hpp">
<polygon fill="none" stroke="black" points="786,-324.5 786,-343.5 925,-343.5 925,-324.5 786,-324.5"/>
<text text-anchor="middle" x="855.5" y="-331.5" font-family="Helvetica,sans-Serif" font-size="10.00">engine/Camera/Camera.hpp</text>
</a>
</g>
</g>
<!-- Node2&#45;&gt;Node3 -->
<g id="edge2" class="edge"><title>Node2&#45;&gt;Node3</title>
<path fill="none" stroke="midnightblue" d="M1001.33,-377.568C966.435,-367.381 916.151,-352.703 884.677,-343.516"/>
<polygon fill="midnightblue" stroke="midnightblue" points="1000.61,-381.001 1011.19,-380.444 1002.57,-374.282 1000.61,-381.001"/>
</g>
<!-- Node5 -->
<g id="node5" class="node"><title>Node5</title>
<g id="a_node5"><a xlink:href="../../db/de8/Scene_8hpp.html" target="_top" xlink:title="engine/Scene/Scene.hpp">
<polygon fill="none" stroke="black" points="793,-263 793,-282 918,-282 918,-263 793,-263"/>
<text text-anchor="middle" x="855.5" y="-270" font-family="Helvetica,sans-Serif" font-size="10.00">engine/Scene/Scene.hpp</text>
</a>
</g>
</g>
<!-- Node2&#45;&gt;Node5 -->
<g id="edge32" class="edge"><title>Node2&#45;&gt;Node5</title>
<path fill="none" stroke="midnightblue" d="M1017.62,-374.717C978.843,-350.506 901.328,-302.112 869.566,-282.282"/>
<polygon fill="midnightblue" stroke="midnightblue" points="1016.26,-377.992 1026.59,-380.319 1019.97,-372.054 1016.26,-377.992"/>
</g>
<!-- Node21 -->
<g id="node21" class="node"><title>Node21</title>
<g id="a_node21"><a xlink:href="../../d4/d2b/GameObject_8cpp.html" target="_top" xlink:title="engine/GameObject/GameObject.cpp">
<polygon fill="none" stroke="black" points="1088,-324.5 1088,-343.5 1267,-343.5 1267,-324.5 1088,-324.5"/>
<text text-anchor="middle" x="1177.5" y="-331.5" font-family="Helvetica,sans-Serif" font-size="10.00">engine/GameObject/GameObject.cpp</text>
</a>
</g>
</g>
<!-- Node2&#45;&gt;Node21 -->
<g id="edge24" class="edge"><title>Node2&#45;&gt;Node21</title>
<path fill="none" stroke="midnightblue" d="M1071.52,-376.772C1097.26,-366.629 1133.19,-352.467 1155.89,-343.516"/>
<polygon fill="midnightblue" stroke="midnightblue" points="1070.23,-373.52 1062.21,-380.444 1072.79,-380.033 1070.23,-373.52"/>
</g>
<!-- Node22 -->
<g id="node22" class="node"><title>Node22</title>
<g id="a_node22"><a xlink:href="../../df/d6e/Model_8hpp.html" target="_top" xlink:title="engine/GameObject/Model\l/Model.hpp">
<polygon fill="none" stroke="black" points="1098.5,-257.5 1098.5,-287.5 1230.5,-287.5 1230.5,-257.5 1098.5,-257.5"/>
<text text-anchor="start" x="1106.5" y="-275.5" font-family="Helvetica,sans-Serif" font-size="10.00">engine/GameObject/Model</text>
<text text-anchor="middle" x="1164.5" y="-264.5" font-family="Helvetica,sans-Serif" font-size="10.00">/Model.hpp</text>
</a>
</g>
</g>
<!-- Node2&#45;&gt;Node22 -->
<g id="edge25" class="edge"><title>Node2&#45;&gt;Node22</title>
<path fill="none" stroke="midnightblue" d="M1048.31,-370.95C1055.05,-356.911 1065.84,-337.599 1079.5,-324 1094.83,-308.74 1115.66,-296.268 1132.86,-287.536"/>
<polygon fill="midnightblue" stroke="midnightblue" points="1045.11,-369.532 1044.14,-380.082 1051.48,-372.441 1045.11,-369.532"/>
</g>
<!-- Node24 -->
<g id="node24" class="node"><title>Node24</title>
<g id="a_node24"><a xlink:href="../../d4/dd0/Cube_8hpp.html" target="_top" xlink:title="engine/Primitives/Cube\l/Cube.hpp">
<polygon fill="none" stroke="black" points="962.5,-257.5 962.5,-287.5 1080.5,-287.5 1080.5,-257.5 962.5,-257.5"/>
<text text-anchor="start" x="970.5" y="-275.5" font-family="Helvetica,sans-Serif" font-size="10.00">engine/Primitives/Cube</text>
<text text-anchor="middle" x="1021.5" y="-264.5" font-family="Helvetica,sans-Serif" font-size="10.00">/Cube.hpp</text>
</a>
</g>
</g>
<!-- Node2&#45;&gt;Node24 -->
<g id="edge28" class="edge"><title>Node2&#45;&gt;Node24</title>
<path fill="none" stroke="midnightblue" d="M1037.44,-370.385C1033.63,-347.257 1027.23,-308.317 1023.81,-287.545"/>
<polygon fill="midnightblue" stroke="midnightblue" points="1034,-371.019 1039.07,-380.319 1040.9,-369.883 1034,-371.019"/>
</g>
<!-- Node4 -->
<g id="node4" class="node"><title>Node4</title>
<g id="a_node4"><a xlink:href="../../da/d8c/Camera_8cpp.html" target="_top" xlink:title="engine/Camera/Camera.cpp">
<polygon fill="none" stroke="black" points="0,-62 0,-81 139,-81 139,-62 0,-62"/>
<text text-anchor="middle" x="69.5" y="-69" font-family="Helvetica,sans-Serif" font-size="10.00">engine/Camera/Camera.cpp</text>
</a>
</g>
</g>
<!-- Node3&#45;&gt;Node4 -->
<g id="edge3" class="edge"><title>Node3&#45;&gt;Node4</title>
<path fill="none" stroke="midnightblue" d="M820.019,-321.241C685.919,-276.797 211.725,-119.637 95.4055,-81.0857"/>
<polygon fill="midnightblue" stroke="midnightblue" points="819.202,-324.657 829.795,-324.481 821.404,-318.012 819.202,-324.657"/>
</g>
<!-- Node3&#45;&gt;Node5 -->
<g id="edge4" class="edge"><title>Node3&#45;&gt;Node5</title>
<path fill="none" stroke="midnightblue" d="M855.5,-314.317C855.5,-303.496 855.5,-290.398 855.5,-282.009"/>
<polygon fill="midnightblue" stroke="midnightblue" points="852,-314.475 855.5,-324.475 859,-314.475 852,-314.475"/>
</g>
<!-- Node6 -->
<g id="node6" class="node"><title>Node6</title>
<g id="a_node6"><a xlink:href="../../d0/dbd/AssimpImporter_8hpp.html" target="_top" xlink:title="engine/AssimpImporter\l/AssimpImporter.hpp">
<polygon fill="none" stroke="black" points="790,-190.5 790,-220.5 907,-220.5 907,-190.5 790,-190.5"/>
<text text-anchor="start" x="798" y="-208.5" font-family="Helvetica,sans-Serif" font-size="10.00">engine/AssimpImporter</text>
<text text-anchor="middle" x="848.5" y="-197.5" font-family="Helvetica,sans-Serif" font-size="10.00">/AssimpImporter.hpp</text>
</a>
</g>
</g>
<!-- Node5&#45;&gt;Node6 -->
<g id="edge5" class="edge"><title>Node5&#45;&gt;Node6</title>
<path fill="none" stroke="midnightblue" d="M853.48,-252.739C852.376,-242.487 851.031,-230.001 850.017,-220.589"/>
<polygon fill="midnightblue" stroke="midnightblue" points="850.005,-253.166 854.556,-262.734 856.965,-252.417 850.005,-253.166"/>
</g>
<!-- Node9 -->
<g id="node9" class="node"><title>Node9</title>
<g id="a_node9"><a xlink:href="../../d4/d1c/GameEngine_8hpp.html" target="_top" xlink:title="engine/GameEngine/GameEngine.hpp">
<polygon fill="none" stroke="black" points="589.5,-196 589.5,-215 771.5,-215 771.5,-196 589.5,-196"/>
<text text-anchor="middle" x="680.5" y="-203" font-family="Helvetica,sans-Serif" font-size="10.00">engine/GameEngine/GameEngine.hpp</text>
</a>
</g>
</g>
<!-- Node5&#45;&gt;Node9 -->
<g id="edge8" class="edge"><title>Node5&#45;&gt;Node9</title>
<path fill="none" stroke="midnightblue" d="M822.575,-259.271C787.842,-246.37 734.012,-226.376 703.556,-215.064"/>
<polygon fill="midnightblue" stroke="midnightblue" points="821.668,-262.668 832.261,-262.869 824.106,-256.106 821.668,-262.668"/>
</g>
<!-- Node20 -->
<g id="node20" class="node"><title>Node20</title>
<g id="a_node20"><a xlink:href="../../de/d15/Scene_8cpp.html" target="_top" xlink:title="engine/Scene/Scene.cpp">
<polygon fill="none" stroke="black" points="925,-196 925,-215 1050,-215 1050,-196 925,-196"/>
<text text-anchor="middle" x="987.5" y="-203" font-family="Helvetica,sans-Serif" font-size="10.00">engine/Scene/Scene.cpp</text>
</a>
</g>
</g>
<!-- Node5&#45;&gt;Node20 -->
<g id="edge23" class="edge"><title>Node5&#45;&gt;Node20</title>
<path fill="none" stroke="midnightblue" d="M882.014,-258.444C908.16,-245.569 947.378,-226.257 969.899,-215.167"/>
<polygon fill="midnightblue" stroke="midnightblue" points="880.454,-255.311 873.029,-262.869 883.546,-261.591 880.454,-255.311"/>
</g>
<!-- Node7 -->
<g id="node7" class="node"><title>Node7</title>
<g id="a_node7"><a xlink:href="../../d4/d7f/AssimpImporter_8cpp.html" target="_top" xlink:title="engine/AssimpImporter\l/AssimpImporter.cpp">
<polygon fill="none" stroke="black" points="927,-123.5 927,-153.5 1044,-153.5 1044,-123.5 927,-123.5"/>
<text text-anchor="start" x="935" y="-141.5" font-family="Helvetica,sans-Serif" font-size="10.00">engine/AssimpImporter</text>
<text text-anchor="middle" x="985.5" y="-130.5" font-family="Helvetica,sans-Serif" font-size="10.00">/AssimpImporter.cpp</text>
</a>
</g>
</g>
<!-- Node6&#45;&gt;Node7 -->
<g id="edge6" class="edge"><title>Node6&#45;&gt;Node7</title>
<path fill="none" stroke="midnightblue" d="M887.509,-185.992C909.224,-175.689 935.827,-163.068 955.831,-153.577"/>
<polygon fill="midnightblue" stroke="midnightblue" points="885.761,-182.947 878.227,-190.396 888.762,-189.272 885.761,-182.947"/>
</g>
<!-- Node8 -->
<g id="node8" class="node"><title>Node8</title>
<g id="a_node8"><a xlink:href="../../dd/d98/GameEngine_8cpp.html" target="_top" xlink:title="engine/GameEngine/GameEngine.cpp">
<polygon fill="none" stroke="black" points="987.5,-62 987.5,-81 1169.5,-81 1169.5,-62 987.5,-62"/>
<text text-anchor="middle" x="1078.5" y="-69" font-family="Helvetica,sans-Serif" font-size="10.00">engine/GameEngine/GameEngine.cpp</text>
</a>
</g>
</g>
<!-- Node6&#45;&gt;Node8 -->
<g id="edge7" class="edge"><title>Node6&#45;&gt;Node8</title>
<path fill="none" stroke="midnightblue" d="M862.674,-181.908C875.256,-163.587 895.224,-138.365 918.5,-123 951.561,-101.176 994.651,-88.2877 1027.78,-81"/>
<polygon fill="midnightblue" stroke="midnightblue" points="859.733,-180.01 857.108,-190.274 865.561,-183.887 859.733,-180.01"/>
</g>
<!-- Node9&#45;&gt;Node8 -->
<g id="edge9" class="edge"><title>Node9&#45;&gt;Node8</title>
<path fill="none" stroke="midnightblue" d="M710.492,-192.079C762.269,-170.676 864.532,-128.587 881.5,-123 935.158,-105.333 998.697,-90.023 1038.8,-81.0251"/>
<polygon fill="midnightblue" stroke="midnightblue" points="709.049,-188.888 701.146,-195.945 711.725,-195.357 709.049,-188.888"/>
</g>
<!-- Node10 -->
<g id="node10" class="node"><title>Node10</title>
<g id="a_node10"><a xlink:href="../../d1/d2a/glwindow_8h.html" target="_top" xlink:title="window/glwindow.h">
<polygon fill="none" stroke="black" points="594,-129 594,-148 695,-148 695,-129 594,-129"/>
<text text-anchor="middle" x="644.5" y="-136" font-family="Helvetica,sans-Serif" font-size="10.00">window/glwindow.h</text>
</a>
</g>
</g>
<!-- Node9&#45;&gt;Node10 -->
<g id="edge10" class="edge"><title>Node9&#45;&gt;Node10</title>
<path fill="none" stroke="midnightblue" d="M670.621,-186.663C663.679,-174.128 654.697,-157.91 649.278,-148.127"/>
<polygon fill="midnightblue" stroke="midnightblue" points="667.738,-188.682 675.645,-195.734 673.862,-185.29 667.738,-188.682"/>
</g>
<!-- Node16 -->
<g id="node16" class="node"><title>Node16</title>
<g id="a_node16"><a xlink:href="../../d3/d1f/glwindow_8cpp.html" target="_top" xlink:title="window/glwindow.cpp">
<polygon fill="none" stroke="black" points="857.5,-62 857.5,-81 969.5,-81 969.5,-62 857.5,-62"/>
<text text-anchor="middle" x="913.5" y="-69" font-family="Helvetica,sans-Serif" font-size="10.00">window/glwindow.cpp</text>
</a>
</g>
</g>
<!-- Node9&#45;&gt;Node16 -->
<g id="edge22" class="edge"><title>Node9&#45;&gt;Node16</title>
<path fill="none" stroke="midnightblue" d="M702.604,-190.183C728.729,-173.443 773.688,-145.202 813.5,-123 841.698,-107.275 875.374,-90.7098 895.567,-81.0057"/>
<polygon fill="midnightblue" stroke="midnightblue" points="700.393,-187.444 693.876,-195.797 704.18,-193.331 700.393,-187.444"/>
</g>
<!-- Node10&#45;&gt;Node4 -->
<g id="edge12" class="edge"><title>Node10&#45;&gt;Node4</title>
<path fill="none" stroke="midnightblue" d="M588.738,-127.318C579.012,-125.733 568.977,-124.22 559.5,-123 377.196,-99.5258 329.625,-111.826 147.5,-87 135.763,-85.4001 123.109,-83.2388 111.479,-81.0738"/>
<polygon fill="midnightblue" stroke="midnightblue" points="588.285,-130.79 598.725,-128.985 589.438,-123.886 588.285,-130.79"/>
</g>
<!-- Node10&#45;&gt;Node8 -->
<g id="edge13" class="edge"><title>Node10&#45;&gt;Node8</title>
<path fill="none" stroke="midnightblue" d="M705.035,-128.434C789.005,-115.858 939.724,-93.2845 1021.67,-81.0108"/>
<polygon fill="midnightblue" stroke="midnightblue" points="704.506,-124.974 695.135,-129.916 705.543,-131.897 704.506,-124.974"/>
</g>
<!-- Node11 -->
<g id="node11" class="node"><title>Node11</title>
<g id="a_node11"><a xlink:href="../../db/d2b/BufferObject_8cpp.html" target="_top" xlink:title="engine/BufferObject\l/BufferObject.cpp">
<polygon fill="none" stroke="black" points="157,-56.5 157,-86.5 260,-86.5 260,-56.5 157,-56.5"/>
<text text-anchor="start" x="165" y="-74.5" font-family="Helvetica,sans-Serif" font-size="10.00">engine/BufferObject</text>
<text text-anchor="middle" x="208.5" y="-63.5" font-family="Helvetica,sans-Serif" font-size="10.00">/BufferObject.cpp</text>
</a>
</g>
</g>
<!-- Node10&#45;&gt;Node11 -->
<g id="edge11" class="edge"><title>Node10&#45;&gt;Node11</title>
<path fill="none" stroke="midnightblue" d="M586.752,-127.286C577.644,-125.78 568.324,-124.3 559.5,-123 431.008,-104.075 397.316,-110.053 269.5,-87 266.393,-86.4397 263.208,-85.8203 260.001,-85.1623"/>
<polygon fill="midnightblue" stroke="midnightblue" points="586.466,-130.787 596.907,-128.989 587.624,-123.883 586.466,-130.787"/>
</g>
<!-- Node12 -->
<g id="node12" class="node"><title>Node12</title>
<g id="a_node12"><a xlink:href="../../d2/dcc/Mesh_8cpp.html" target="_top" xlink:title="engine/Mesh/Mesh.cpp">
<polygon fill="none" stroke="black" points="278.5,-62 278.5,-81 396.5,-81 396.5,-62 278.5,-62"/>
<text text-anchor="middle" x="337.5" y="-69" font-family="Helvetica,sans-Serif" font-size="10.00">engine/Mesh/Mesh.cpp</text>
</a>
</g>
</g>
<!-- Node10&#45;&gt;Node12 -->
<g id="edge14" class="edge"><title>Node10&#45;&gt;Node12</title>
<path fill="none" stroke="midnightblue" d="M593.993,-126.856C545.617,-116.655 470.566,-100.811 405.5,-87 396.408,-85.0701 386.633,-82.9893 377.409,-81.023"/>
<polygon fill="midnightblue" stroke="midnightblue" points="593.391,-130.306 603.898,-128.945 594.836,-123.457 593.391,-130.306"/>
</g>
<!-- Node13 -->
<g id="node13" class="node"><title>Node13</title>
<g id="a_node13"><a xlink:href="../../da/d3d/BasicRenderer_8cpp.html" target="_top" xlink:title="engine/Renderer/BasicRenderer\l/BasicRenderer.cpp">
<polygon fill="none" stroke="black" points="1276,-56.5 1276,-86.5 1431,-86.5 1431,-56.5 1276,-56.5"/>
<text text-anchor="start" x="1284" y="-74.5" font-family="Helvetica,sans-Serif" font-size="10.00">engine/Renderer/BasicRenderer</text>
<text text-anchor="middle" x="1353.5" y="-63.5" font-family="Helvetica,sans-Serif" font-size="10.00">/BasicRenderer.cpp</text>
</a>
</g>
</g>
<!-- Node10&#45;&gt;Node13 -->
<g id="edge15" class="edge"><title>Node10&#45;&gt;Node13</title>
<path fill="none" stroke="midnightblue" d="M705.271,-131.929C833.883,-120.138 1133.43,-92.6756 1275.75,-79.6283"/>
<polygon fill="midnightblue" stroke="midnightblue" points="704.844,-128.453 695.205,-132.851 705.483,-135.424 704.844,-128.453"/>
</g>
<!-- Node14 -->
<g id="node14" class="node"><title>Node14</title>
<g id="a_node14"><a xlink:href="../../dd/d84/Shader_8cpp.html" target="_top" xlink:title="engine/Shaders/Shader\l/Shader.cpp">
<polygon fill="none" stroke="black" points="414.5,-56.5 414.5,-86.5 532.5,-86.5 532.5,-56.5 414.5,-56.5"/>
<text text-anchor="start" x="422.5" y="-74.5" font-family="Helvetica,sans-Serif" font-size="10.00">engine/Shaders/Shader</text>
<text text-anchor="middle" x="473.5" y="-63.5" font-family="Helvetica,sans-Serif" font-size="10.00">/Shader.cpp</text>
</a>
</g>
</g>
<!-- Node10&#45;&gt;Node14 -->
<g id="edge16" class="edge"><title>Node10&#45;&gt;Node14</title>
<path fill="none" stroke="midnightblue" d="M612.148,-125.202C583.171,-114.188 540.696,-98.0424 510.405,-86.5281"/>
<polygon fill="midnightblue" stroke="midnightblue" points="611.201,-128.587 621.793,-128.869 613.689,-122.044 611.201,-128.587"/>
</g>
<!-- Node15 -->
<g id="node15" class="node"><title>Node15</title>
<g id="a_node15"><a xlink:href="../../de/d34/ShaderProgram_8cpp.html" target="_top" xlink:title="engine/Shaders/ShaderProgram\l/ShaderProgram.cpp">
<polygon fill="none" stroke="black" points="551,-56.5 551,-86.5 706,-86.5 706,-56.5 551,-56.5"/>
<text text-anchor="start" x="559" y="-74.5" font-family="Helvetica,sans-Serif" font-size="10.00">engine/Shaders/ShaderProgram</text>
<text text-anchor="middle" x="628.5" y="-63.5" font-family="Helvetica,sans-Serif" font-size="10.00">/ShaderProgram.cpp</text>
</a>
</g>
</g>
<!-- Node10&#45;&gt;Node15 -->
<g id="edge17" class="edge"><title>Node10&#45;&gt;Node15</title>
<path fill="none" stroke="midnightblue" d="M639.882,-118.739C637.358,-108.487 634.285,-96.0011 631.968,-86.589"/>
<polygon fill="midnightblue" stroke="midnightblue" points="636.553,-119.86 642.342,-128.734 643.35,-118.187 636.553,-119.86"/>
</g>
<!-- Node10&#45;&gt;Node16 -->
<g id="edge18" class="edge"><title>Node10&#45;&gt;Node16</title>
<path fill="none" stroke="midnightblue" d="M689.758,-126.564C742.789,-113.75 829.552,-92.7848 877.978,-81.0834"/>
<polygon fill="midnightblue" stroke="midnightblue" points="688.842,-123.185 679.944,-128.936 690.486,-129.989 688.842,-123.185"/>
</g>
<!-- Node17 -->
<g id="node17" class="node"><title>Node17</title>
<g id="a_node17"><a xlink:href="../../d9/d53/mainwindow_8h.html" target="_top" xlink:title="window/mainwindow.h">
<polygon fill="none" stroke="black" points="724,-62 724,-81 839,-81 839,-62 724,-62"/>
<text text-anchor="middle" x="781.5" y="-69" font-family="Helvetica,sans-Serif" font-size="10.00">window/mainwindow.h</text>
</a>
</g>
</g>
<!-- Node10&#45;&gt;Node17 -->
<g id="edge19" class="edge"><title>Node10&#45;&gt;Node17</title>
<path fill="none" stroke="midnightblue" d="M672.019,-124.444C699.154,-111.569 739.858,-92.2573 763.232,-81.1672"/>
<polygon fill="midnightblue" stroke="midnightblue" points="670.227,-121.42 662.693,-128.869 673.228,-127.744 670.227,-121.42"/>
</g>
<!-- Node18 -->
<g id="node18" class="node"><title>Node18</title>
<g id="a_node18"><a xlink:href="../../df/d0a/main_8cpp.html" target="_top" xlink:title="TODO. ">
<polygon fill="none" stroke="black" points="699.5,-0.5 699.5,-19.5 755.5,-19.5 755.5,-0.5 699.5,-0.5"/>
<text text-anchor="middle" x="727.5" y="-7.5" font-family="Helvetica,sans-Serif" font-size="10.00">main.cpp</text>
</a>
</g>
</g>
<!-- Node17&#45;&gt;Node18 -->
<g id="edge20" class="edge"><title>Node17&#45;&gt;Node18</title>
<path fill="none" stroke="midnightblue" d="M766.977,-54.4975C756.756,-43.2356 743.477,-28.6044 735.223,-19.5091"/>
<polygon fill="midnightblue" stroke="midnightblue" points="764.451,-56.9222 773.763,-61.9751 769.634,-52.2178 764.451,-56.9222"/>
</g>
<!-- Node19 -->
<g id="node19" class="node"><title>Node19</title>
<g id="a_node19"><a xlink:href="../../d8/dd9/mainwindow_8cpp.html" target="_top" xlink:title="window/mainwindow.cpp">
<polygon fill="none" stroke="black" points="773,-0.5 773,-19.5 898,-19.5 898,-0.5 773,-0.5"/>
<text text-anchor="middle" x="835.5" y="-7.5" font-family="Helvetica,sans-Serif" font-size="10.00">window/mainwindow.cpp</text>
</a>
</g>
</g>
<!-- Node17&#45;&gt;Node19 -->
<g id="edge21" class="edge"><title>Node17&#45;&gt;Node19</title>
<path fill="none" stroke="midnightblue" d="M796.023,-54.4975C806.244,-43.2356 819.523,-28.6044 827.777,-19.5091"/>
<polygon fill="midnightblue" stroke="midnightblue" points="793.366,-52.2178 789.237,-61.9751 798.549,-56.9222 793.366,-52.2178"/>
</g>
<!-- Node22&#45;&gt;Node7 -->
<g id="edge26" class="edge"><title>Node22&#45;&gt;Node7</title>
<path fill="none" stroke="midnightblue" d="M1139.08,-251.064C1118.02,-234.305 1087.17,-210.148 1059.5,-190 1042.02,-177.273 1021.71,-163.478 1006.79,-153.528"/>
<polygon fill="midnightblue" stroke="midnightblue" points="1136.92,-253.818 1146.92,-257.32 1141.28,-248.347 1136.92,-253.818"/>
</g>
<!-- Node23 -->
<g id="node23" class="node"><title>Node23</title>
<g id="a_node23"><a xlink:href="../../dd/d2e/Model_8cpp.html" target="_top" xlink:title="engine/GameObject/Model\l/Model.cpp">
<polygon fill="none" stroke="black" points="1280.5,-190.5 1280.5,-220.5 1412.5,-220.5 1412.5,-190.5 1280.5,-190.5"/>
<text text-anchor="start" x="1288.5" y="-208.5" font-family="Helvetica,sans-Serif" font-size="10.00">engine/GameObject/Model</text>
<text text-anchor="middle" x="1346.5" y="-197.5" font-family="Helvetica,sans-Serif" font-size="10.00">/Model.cpp</text>
</a>
</g>
</g>
<!-- Node22&#45;&gt;Node23 -->
<g id="edge27" class="edge"><title>Node22&#45;&gt;Node23</title>
<path fill="none" stroke="midnightblue" d="M1213.63,-253.955C1242.94,-243.485 1279.68,-230.366 1307.09,-220.577"/>
<polygon fill="midnightblue" stroke="midnightblue" points="1212.23,-250.736 1203.99,-257.396 1214.59,-257.329 1212.23,-250.736"/>
</g>
<!-- Node24&#45;&gt;Node8 -->
<g id="edge29" class="edge"><title>Node24&#45;&gt;Node8</title>
<path fill="none" stroke="midnightblue" d="M1041.93,-249.545C1048.6,-241.193 1055.35,-231.215 1059.5,-221 1079.76,-171.16 1079.68,-104.828 1078.91,-81.2609"/>
<polygon fill="midnightblue" stroke="midnightblue" points="1039.16,-247.402 1035.39,-257.304 1044.51,-251.913 1039.16,-247.402"/>
</g>
<!-- Node24&#45;&gt;Node20 -->
<g id="edge31" class="edge"><title>Node24&#45;&gt;Node20</title>
<path fill="none" stroke="midnightblue" d="M1009.36,-248.287C1003.35,-236.803 996.46,-223.63 992.048,-215.195"/>
<polygon fill="midnightblue" stroke="midnightblue" points="1006.39,-250.157 1014.12,-257.396 1012.59,-246.913 1006.39,-250.157"/>
</g>
<!-- Node25 -->
<g id="node25" class="node"><title>Node25</title>
<g id="a_node25"><a xlink:href="../../d6/d05/Cube_8cpp.html" target="_top" xlink:title="engine/Primitives/Cube\l/Cube.cpp">
<polygon fill="none" stroke="black" points="1144.5,-190.5 1144.5,-220.5 1262.5,-220.5 1262.5,-190.5 1144.5,-190.5"/>
<text text-anchor="start" x="1152.5" y="-208.5" font-family="Helvetica,sans-Serif" font-size="10.00">engine/Primitives/Cube</text>
<text text-anchor="middle" x="1203.5" y="-197.5" font-family="Helvetica,sans-Serif" font-size="10.00">/Cube.cpp</text>
</a>
</g>
</g>
<!-- Node24&#45;&gt;Node25 -->
<g id="edge30" class="edge"><title>Node24&#45;&gt;Node25</title>
<path fill="none" stroke="midnightblue" d="M1070.63,-253.955C1099.94,-243.485 1136.68,-230.366 1164.09,-220.577"/>
<polygon fill="midnightblue" stroke="midnightblue" points="1069.23,-250.736 1060.99,-257.396 1071.59,-257.329 1069.23,-250.736"/>
</g>
<!-- Node26&#45;&gt;Node13 -->
<g id="edge36" class="edge"><title>Node26&#45;&gt;Node13</title>
<path fill="none" stroke="midnightblue" d="M1387.45,-252.79C1400.88,-245.066 1413.88,-234.65 1421.5,-221 1448.05,-173.469 1396.52,-113.703 1369.1,-86.7911"/>
<polygon fill="midnightblue" stroke="midnightblue" points="1385.81,-249.7 1378.62,-257.483 1389.09,-255.882 1385.81,-249.7"/>
</g>
<!-- Node26&#45;&gt;Node23 -->
<g id="edge34" class="edge"><title>Node26&#45;&gt;Node23</title>
<path fill="none" stroke="midnightblue" d="M1342.1,-247.403C1343.07,-238.37 1344.14,-228.408 1344.98,-220.577"/>
<polygon fill="midnightblue" stroke="midnightblue" points="1338.61,-247.079 1341.02,-257.396 1345.57,-247.828 1338.61,-247.079"/>
</g>
<!-- Node26&#45;&gt;Node25 -->
<g id="edge35" class="edge"><title>Node26&#45;&gt;Node25</title>
<path fill="none" stroke="midnightblue" d="M1300.78,-252.992C1279.22,-242.689 1252.81,-230.068 1232.95,-220.577"/>
<polygon fill="midnightblue" stroke="midnightblue" points="1299.46,-256.242 1309.99,-257.396 1302.48,-249.926 1299.46,-256.242"/>
</g>
</g>
</svg>
