<?xml version="1.0" encoding="UTF-8" standalone="no"?>
<!DOCTYPE svg PUBLIC "-//W3C//DTD SVG 1.1//EN"
 "http://www.w3.org/Graphics/SVG/1.1/DTD/svg11.dtd">
<!-- Generated by graphviz version 2.38.0 (20140413.2041)
 -->
<!-- Title: engine/GameEngine/GameEngine.hpp Pages: 1 -->
<svg width="1352pt" height="207pt"
 viewBox="0.00 0.00 1352.00 207.00" xmlns="http://www.w3.org/2000/svg" xmlns:xlink="http://www.w3.org/1999/xlink">
<g id="graph0" class="graph" transform="scale(1 1) rotate(0) translate(4 203)">
<title>engine/GameEngine/GameEngine.hpp</title>
<!-- Node1 -->
<g id="node1" class="node"><title>Node1</title>
<polygon fill="#bfbfbf" stroke="black" points="602,-179.5 602,-198.5 784,-198.5 784,-179.5 602,-179.5"/>
<text text-anchor="middle" x="693" y="-186.5" font-family="Helvetica,sans-Serif" font-size="10.00">engine/GameEngine/GameEngine.hpp</text>
</g>
<!-- Node2 -->
<g id="node2" class="node"><title>Node2</title>
<g id="a_node2"><a xlink:href="../../dd/d98/GameEngine_8cpp.html" target="_top" xlink:title="engine/GameEngine/GameEngine.cpp">
<polygon fill="none" stroke="black" points="0,-62 0,-81 182,-81 182,-62 0,-62"/>
<text text-anchor="middle" x="91" y="-69" font-family="Helvetica,sans-Serif" font-size="10.00">engine/GameEngine/GameEngine.cpp</text>
</a>
</g>
</g>
<!-- Node1&#45;&gt;Node2 -->
<g id="edge1" class="edge"><title>Node1&#45;&gt;Node2</title>
<path fill="none" stroke="midnightblue" d="M638.344,-177.514C520.402,-154.885 243.948,-101.845 135.642,-81.065"/>
<polygon fill="midnightblue" stroke="midnightblue" points="637.764,-180.966 648.244,-179.413 639.083,-174.091 637.764,-180.966"/>
</g>
<!-- Node3 -->
<g id="node3" class="node"><title>Node3</title>
<g id="a_node3"><a xlink:href="../../d1/d2a/glwindow_8h.html" target="_top" xlink:title="window/glwindow.h">
<polygon fill="none" stroke="black" points="642.5,-123.5 642.5,-142.5 743.5,-142.5 743.5,-123.5 642.5,-123.5"/>
<text text-anchor="middle" x="693" y="-130.5" font-family="Helvetica,sans-Serif" font-size="10.00">window/glwindow.h</text>
</a>
</g>
</g>
<!-- Node1&#45;&gt;Node3 -->
<g id="edge2" class="edge"><title>Node1&#45;&gt;Node3</title>
<path fill="none" stroke="midnightblue" d="M693,-168.805C693,-159.91 693,-149.78 693,-142.751"/>
<polygon fill="midnightblue" stroke="midnightblue" points="689.5,-169.083 693,-179.083 696.5,-169.083 689.5,-169.083"/>
</g>
<!-- Node10 -->
<g id="node10" class="node"><title>Node10</title>
<g id="a_node10"><a xlink:href="../../d3/d1f/glwindow_8cpp.html" target="_top" xlink:title="window/glwindow.cpp">
<polygon fill="none" stroke="black" points="1232,-62 1232,-81 1344,-81 1344,-62 1232,-62"/>
<text text-anchor="middle" x="1288" y="-69" font-family="Helvetica,sans-Serif" font-size="10.00">window/glwindow.cpp</text>
</a>
</g>
</g>
<!-- Node1&#45;&gt;Node10 -->
<g id="edge14" class="edge"><title>Node1&#45;&gt;Node10</title>
<path fill="none" stroke="midnightblue" d="M750.547,-177.641C847.981,-159.966 1051.57,-122.446 1223,-87 1231.94,-85.1505 1241.56,-83.0616 1250.58,-81.0573"/>
<polygon fill="midnightblue" stroke="midnightblue" points="749.823,-174.215 740.608,-179.442 751.071,-181.103 749.823,-174.215"/>
</g>
<!-- Node3&#45;&gt;Node2 -->
<g id="edge5" class="edge"><title>Node3&#45;&gt;Node2</title>
<path fill="none" stroke="midnightblue" d="M632.079,-127.618C537.511,-120.571 349.738,-105.609 191,-87 176.364,-85.2842 160.567,-83.1333 145.946,-81.0175"/>
<polygon fill="midnightblue" stroke="midnightblue" points="632.084,-131.127 642.315,-128.376 632.601,-124.147 632.084,-131.127"/>
</g>
<!-- Node4 -->
<g id="node4" class="node"><title>Node4</title>
<g id="a_node4"><a xlink:href="../../db/d2b/BufferObject_8cpp.html" target="_top" xlink:title="engine/BufferObject\l/BufferObject.cpp">
<polygon fill="none" stroke="black" points="200.5,-56.5 200.5,-86.5 303.5,-86.5 303.5,-56.5 200.5,-56.5"/>
<text text-anchor="start" x="208.5" y="-74.5" font-family="Helvetica,sans-Serif" font-size="10.00">engine/BufferObject</text>
<text text-anchor="middle" x="252" y="-63.5" font-family="Helvetica,sans-Serif" font-size="10.00">/BufferObject.cpp</text>
</a>
</g>
</g>
<!-- Node3&#45;&gt;Node4 -->
<g id="edge3" class="edge"><title>Node3&#45;&gt;Node4</title>
<path fill="none" stroke="midnightblue" d="M632.08,-126.971C556.764,-120.252 424.827,-106.844 313,-87 309.999,-86.4675 306.925,-85.878 303.829,-85.2503"/>
<polygon fill="midnightblue" stroke="midnightblue" points="632.055,-130.482 642.324,-127.875 632.67,-123.509 632.055,-130.482"/>
</g>
<!-- Node5 -->
<g id="node5" class="node"><title>Node5</title>
<g id="a_node5"><a xlink:href="../../da/d8c/Camera_8cpp.html" target="_top" xlink:title="engine/Camera/Camera.cpp">
<polygon fill="none" stroke="black" points="321.5,-62 321.5,-81 460.5,-81 460.5,-62 321.5,-62"/>
<text text-anchor="middle" x="391" y="-69" font-family="Helvetica,sans-Serif" font-size="10.00">engine/Camera/Camera.cpp</text>
</a>
</g>
</g>
<!-- Node3&#45;&gt;Node5 -->
<g id="edge4" class="edge"><title>Node3&#45;&gt;Node5</title>
<path fill="none" stroke="midnightblue" d="M639.574,-121.474C581.045,-109.943 488.309,-91.6719 434.189,-81.0091"/>
<polygon fill="midnightblue" stroke="midnightblue" points="639.243,-124.976 649.731,-123.475 640.596,-118.108 639.243,-124.976"/>
</g>
<!-- Node6 -->
<g id="node6" class="node"><title>Node6</title>
<g id="a_node6"><a xlink:href="../../d2/dcc/Mesh_8cpp.html" target="_top" xlink:title="engine/Mesh/Mesh.cpp">
<polygon fill="none" stroke="black" points="479,-62 479,-81 597,-81 597,-62 479,-62"/>
<text text-anchor="middle" x="538" y="-69" font-family="Helvetica,sans-Serif" font-size="10.00">engine/Mesh/Mesh.cpp</text>
</a>
</g>
</g>
<!-- Node3&#45;&gt;Node6 -->
<g id="edge6" class="edge"><title>Node3&#45;&gt;Node6</title>
<path fill="none" stroke="midnightblue" d="M661.173,-119.782C631.052,-108.22 586.621,-91.1641 560.167,-81.0091"/>
<polygon fill="midnightblue" stroke="midnightblue" points="660.202,-123.159 670.792,-123.475 662.711,-116.624 660.202,-123.159"/>
</g>
<!-- Node7 -->
<g id="node7" class="node"><title>Node7</title>
<g id="a_node7"><a xlink:href="../../da/d3d/BasicRenderer_8cpp.html" target="_top" xlink:title="engine/Renderer/BasicRenderer\l/BasicRenderer.cpp">
<polygon fill="none" stroke="black" points="615.5,-56.5 615.5,-86.5 770.5,-86.5 770.5,-56.5 615.5,-56.5"/>
<text text-anchor="start" x="623.5" y="-74.5" font-family="Helvetica,sans-Serif" font-size="10.00">engine/Renderer/BasicRenderer</text>
<text text-anchor="middle" x="693" y="-63.5" font-family="Helvetica,sans-Serif" font-size="10.00">/BasicRenderer.cpp</text>
</a>
</g>
</g>
<!-- Node3&#45;&gt;Node7 -->
<g id="edge7" class="edge"><title>Node3&#45;&gt;Node7</title>
<path fill="none" stroke="midnightblue" d="M693,-113.235C693,-104.586 693,-94.4969 693,-86.523"/>
<polygon fill="midnightblue" stroke="midnightblue" points="689.5,-113.475 693,-123.475 696.5,-113.475 689.5,-113.475"/>
</g>
<!-- Node8 -->
<g id="node8" class="node"><title>Node8</title>
<g id="a_node8"><a xlink:href="../../dd/d84/Shader_8cpp.html" target="_top" xlink:title="engine/Shaders/Shader\l/Shader.cpp">
<polygon fill="none" stroke="black" points="789,-56.5 789,-86.5 907,-86.5 907,-56.5 789,-56.5"/>
<text text-anchor="start" x="797" y="-74.5" font-family="Helvetica,sans-Serif" font-size="10.00">engine/Shaders/Shader</text>
<text text-anchor="middle" x="848" y="-63.5" font-family="Helvetica,sans-Serif" font-size="10.00">/Shader.cpp</text>
</a>
</g>
</g>
<!-- Node3&#45;&gt;Node8 -->
<g id="edge8" class="edge"><title>Node3&#45;&gt;Node8</title>
<path fill="none" stroke="midnightblue" d="M724.658,-119.847C749.837,-110.182 785.096,-96.6471 811.47,-86.523"/>
<polygon fill="midnightblue" stroke="midnightblue" points="723.289,-116.624 715.208,-123.475 725.798,-123.159 723.289,-116.624"/>
</g>
<!-- Node9 -->
<g id="node9" class="node"><title>Node9</title>
<g id="a_node9"><a xlink:href="../../de/d34/ShaderProgram_8cpp.html" target="_top" xlink:title="engine/Shaders/ShaderProgram\l/ShaderProgram.cpp">
<polygon fill="none" stroke="black" points="925.5,-56.5 925.5,-86.5 1080.5,-86.5 1080.5,-56.5 925.5,-56.5"/>
<text text-anchor="start" x="933.5" y="-74.5" font-family="Helvetica,sans-Serif" font-size="10.00">engine/Shaders/ShaderProgram</text>
<text text-anchor="middle" x="1003" y="-63.5" font-family="Helvetica,sans-Serif" font-size="10.00">/ShaderProgram.cpp</text>
</a>
</g>
</g>
<!-- Node3&#45;&gt;Node9 -->
<g id="edge9" class="edge"><title>Node3&#45;&gt;Node9</title>
<path fill="none" stroke="midnightblue" d="M747.515,-121.537C798.187,-111.811 874.041,-97.2519 929.939,-86.523"/>
<polygon fill="midnightblue" stroke="midnightblue" points="746.576,-118.153 737.415,-123.475 747.896,-125.027 746.576,-118.153"/>
</g>
<!-- Node3&#45;&gt;Node10 -->
<g id="edge10" class="edge"><title>Node3&#45;&gt;Node10</title>
<path fill="none" stroke="midnightblue" d="M753.794,-129.505C852.648,-124.852 1054.18,-112.877 1223,-87 1233.06,-85.4585 1243.88,-83.2634 1253.76,-81.0462"/>
<polygon fill="midnightblue" stroke="midnightblue" points="753.519,-126.014 743.691,-129.972 753.842,-133.007 753.519,-126.014"/>
</g>
<!-- Node11 -->
<g id="node11" class="node"><title>Node11</title>
<g id="a_node11"><a xlink:href="../../d9/d53/mainwindow_8h.html" target="_top" xlink:title="window/mainwindow.h">
<polygon fill="none" stroke="black" points="1098.5,-62 1098.5,-81 1213.5,-81 1213.5,-62 1098.5,-62"/>
<text text-anchor="middle" x="1156" y="-69" font-family="Helvetica,sans-Serif" font-size="10.00">window/mainwindow.h</text>
</a>
</g>
</g>
<!-- Node3&#45;&gt;Node11 -->
<g id="edge11" class="edge"><title>Node3&#45;&gt;Node11</title>
<path fill="none" stroke="midnightblue" d="M753.826,-127.074C831.963,-120.296 971.631,-106.657 1090,-87 1099.95,-85.3472 1110.67,-83.1684 1120.51,-81.0037"/>
<polygon fill="midnightblue" stroke="midnightblue" points="753.345,-123.602 743.681,-127.945 753.944,-130.577 753.345,-123.602"/>
</g>
<!-- Node12 -->
<g id="node12" class="node"><title>Node12</title>
<g id="a_node12"><a xlink:href="../../df/d0a/main_8cpp.html" target="_top" xlink:title="TODO. ">
<polygon fill="none" stroke="black" points="1074,-0.5 1074,-19.5 1130,-19.5 1130,-0.5 1074,-0.5"/>
<text text-anchor="middle" x="1102" y="-7.5" font-family="Helvetica,sans-Serif" font-size="10.00">main.cpp</text>
</a>
</g>
</g>
<!-- Node11&#45;&gt;Node12 -->
<g id="edge12" class="edge"><title>Node11&#45;&gt;Node12</title>
<path fill="none" stroke="midnightblue" d="M1141.48,-54.4975C1131.26,-43.2356 1117.98,-28.6044 1109.72,-19.5091"/>
<polygon fill="midnightblue" stroke="midnightblue" points="1138.95,-56.9222 1148.26,-61.9751 1144.13,-52.2178 1138.95,-56.9222"/>
</g>
<!-- Node13 -->
<g id="node13" class="node"><title>Node13</title>
<g id="a_node13"><a xlink:href="../../d8/dd9/mainwindow_8cpp.html" target="_top" xlink:title="window/mainwindow.cpp">
<polygon fill="none" stroke="black" points="1147.5,-0.5 1147.5,-19.5 1272.5,-19.5 1272.5,-0.5 1147.5,-0.5"/>
<text text-anchor="middle" x="1210" y="-7.5" font-family="Helvetica,sans-Serif" font-size="10.00">window/mainwindow.cpp</text>
</a>
</g>
</g>
<!-- Node11&#45;&gt;Node13 -->
<g id="edge13" class="edge"><title>Node11&#45;&gt;Node13</title>
<path fill="none" stroke="midnightblue" d="M1170.52,-54.4975C1180.74,-43.2356 1194.02,-28.6044 1202.28,-19.5091"/>
<polygon fill="midnightblue" stroke="midnightblue" points="1167.87,-52.2178 1163.74,-61.9751 1173.05,-56.9222 1167.87,-52.2178"/>
</g>
</g>
</svg>
