<?xml version="1.0" encoding="UTF-8" standalone="no"?>
<!DOCTYPE svg PUBLIC "-//W3C//DTD SVG 1.1//EN"
 "http://www.w3.org/Graphics/SVG/1.1/DTD/svg11.dtd">
<!-- Generated by graphviz version 2.38.0 (20140413.2041)
 -->
<!-- Title: Core/MaterialLibrary.cpp Pages: 1 -->
<svg width="469pt" height="95pt"
 viewBox="0.00 0.00 468.50 95.00" xmlns="http://www.w3.org/2000/svg" xmlns:xlink="http://www.w3.org/1999/xlink">
<g id="graph0" class="graph" transform="scale(1 1) rotate(0) translate(4 91)">
<title>Core/MaterialLibrary.cpp</title>
<!-- Node1 -->
<g id="node1" class="node"><title>Node1</title>
<polygon fill="#bfbfbf" stroke="black" points="176.5,-67.5 176.5,-86.5 299.5,-86.5 299.5,-67.5 176.5,-67.5"/>
<text text-anchor="middle" x="238" y="-74.5" font-family="Helvetica,sans-Serif" font-size="10.00">Core/MaterialLibrary.cpp</text>
</g>
<!-- Node2 -->
<g id="node2" class="node"><title>Node2</title>
<polygon fill="none" stroke="#bfbfbf" points="0,-6 0,-25 156,-25 156,-6 0,-6"/>
<text text-anchor="middle" x="78" y="-13" font-family="Helvetica,sans-Serif" font-size="10.00">Engine/Core/MaterialLibrary.hpp</text>
</g>
<!-- Node1&#45;&gt;Node2 -->
<g id="edge1" class="edge"><title>Node1&#45;&gt;Node2</title>
<path fill="none" stroke="midnightblue" d="M215.076,-67.4751C187.63,-57.2687 141.484,-40.108 110.401,-28.5492"/>
<polygon fill="midnightblue" stroke="midnightblue" points="111.474,-25.2142 100.882,-25.0091 109.035,-31.7752 111.474,-25.2142"/>
</g>
<!-- Node3 -->
<g id="node3" class="node"><title>Node3</title>
<polygon fill="none" stroke="#bfbfbf" points="174.5,-6 174.5,-25 301.5,-25 301.5,-6 174.5,-6"/>
<text text-anchor="middle" x="238" y="-13" font-family="Helvetica,sans-Serif" font-size="10.00">Engine/Core/Material.hpp</text>
</g>
<!-- Node1&#45;&gt;Node3 -->
<g id="edge2" class="edge"><title>Node1&#45;&gt;Node3</title>
<path fill="none" stroke="midnightblue" d="M238,-67.4751C238,-59.0803 238,-45.9806 238,-35.1631"/>
<polygon fill="midnightblue" stroke="midnightblue" points="241.5,-35.0091 238,-25.0091 234.5,-35.0091 241.5,-35.0091"/>
</g>
<!-- Node4 -->
<g id="node4" class="node"><title>Node4</title>
<polygon fill="none" stroke="#bfbfbf" points="319.5,-0.5 319.5,-30.5 460.5,-30.5 460.5,-0.5 319.5,-0.5"/>
<text text-anchor="start" x="327.5" y="-18.5" font-family="Helvetica,sans-Serif" font-size="10.00">Engine/Core/ShaderProgram</text>
<text text-anchor="middle" x="390" y="-7.5" font-family="Helvetica,sans-Serif" font-size="10.00">Library.hpp</text>
</g>
<!-- Node1&#45;&gt;Node4 -->
<g id="edge3" class="edge"><title>Node1&#45;&gt;Node4</title>
<path fill="none" stroke="midnightblue" d="M259.778,-67.4751C281.807,-58.8518 316.518,-45.2641 344.566,-34.2852"/>
<polygon fill="midnightblue" stroke="midnightblue" points="346.14,-37.4274 354.177,-30.523 343.589,-30.909 346.14,-37.4274"/>
</g>
</g>
</svg>
