<?xml version="1.0" encoding="UTF-8" standalone="no"?>
<!DOCTYPE svg PUBLIC "-//W3C//DTD SVG 1.1//EN"
 "http://www.w3.org/Graphics/SVG/1.1/DTD/svg11.dtd">
<!-- Generated by graphviz version 2.38.0 (20140413.2041)
 -->
<!-- Title: engine/MaterialLibrary/MaterialLibrary.cpp Pages: 1 -->
<!--zoomable 263 -->
<svg id="main" version="1.1" xmlns="http://www.w3.org/2000/svg" xmlns:xlink="http://www.w3.org/1999/xlink" xml:space="preserve" onload="init(evt)">
<style type="text/css"><![CDATA[
.edge:hover path { stroke: red; }
.edge:hover polygon { stroke: red; fill: red; }
]]></style>
<script type="text/javascript"><![CDATA[
var edges = document.getElementsByTagName('g');
if (edges && edges.length) {
  for (var i=0;i<edges.length;i++) {
    if (edges[i].id.substr(0,4)=='edge') {
      edges[i].setAttribute('class','edge');
    }
  }
}
]]></script>
        <defs>
                <circle id="rim" cx="0" cy="0" r="7"/>
                <circle id="rim2" cx="0" cy="0" r="3.5"/>
                <g id="zoomPlus">
                        <use xlink:href="#rim" fill="#404040">
                                <set attributeName="fill" to="#808080" begin="zoomplus.mouseover" end="zoomplus.mouseout"/>
                        </use>
                        <path d="M-4,0h8M0,-4v8" fill="none" stroke="white" stroke-width="1.5" pointer-events="none"/>
                </g>
                <g id="zoomMin">
                        <use xlink:href="#rim" fill="#404040">
                                <set attributeName="fill" to="#808080" begin="zoomminus.mouseover" end="zoomminus.mouseout"/>
                        </use>
                        <path d="M-4,0h8" fill="none" stroke="white" stroke-width="1.5" pointer-events="none"/>
                </g>
                <g id="dirArrow">
                        <path fill="none" stroke="white" stroke-width="1.5" d="M0,-3.0v7 M-2.5,-0.5L0,-3.0L2.5,-0.5"/>
                </g>
               <g id="resetDef">
                       <use xlink:href="#rim2" fill="#404040">
                               <set attributeName="fill" to="#808080" begin="reset.mouseover" end="reset.mouseout"/>
                       </use>
               </g>
        </defs>

<script type="text/javascript">
var viewWidth = 671;
var viewHeight = 263;
var sectionId = 'dynsection-0';
</script>
<script xlink:href="../../svgpan.js"/>
<svg id="graph" class="graph">
<g id="viewport">
<title>engine/MaterialLibrary/MaterialLibrary.cpp</title>
<!-- Node1 -->
<g id="node1" class="node"><title>Node1</title>
<polygon fill="#bfbfbf" stroke="black" points="148,-224.5 148,-254.5 260,-254.5 260,-224.5 148,-224.5"/>
<text text-anchor="start" x="156" y="-242.5" font-family="Helvetica,sans-Serif" font-size="10.00">engine/MaterialLibrary</text>
<text text-anchor="middle" x="204" y="-231.5" font-family="Helvetica,sans-Serif" font-size="10.00">/MaterialLibrary.cpp</text>
</g>
<!-- Node2 -->
<g id="node2" class="node"><title>Node2</title>
<g id="a_node2"><a xlink:href="../../d2/d26/MaterialLibrary_8hpp.html" target="_top" xlink:title="MaterialLibrary.hpp">
<polygon fill="none" stroke="black" points="76.5,-168.5 76.5,-187.5 175.5,-187.5 175.5,-168.5 76.5,-168.5"/>
<text text-anchor="middle" x="126" y="-175.5" font-family="Helvetica,sans-Serif" font-size="10.00">MaterialLibrary.hpp</text>
</a>
</g>
</g>
<!-- Node1&#45;&gt;Node2 -->
<g id="edge1" class="edge"><title>Node1&#45;&gt;Node2</title>
<path fill="none" stroke="midnightblue" d="M185.515,-224.399C173.48,-215.218 157.8,-203.258 145.557,-193.918"/>
<polygon fill="midnightblue" stroke="midnightblue" points="147.423,-190.94 137.35,-187.658 143.178,-196.506 147.423,-190.94"/>
</g>
<!-- Node7 -->
<g id="node7" class="node"><title>Node7</title>
<g id="a_node7"><a xlink:href="../../d0/d70/Material_8hpp.html" target="_top" xlink:title="Material.hpp">
<polygon fill="none" stroke="black" points="91,-112.5 91,-131.5 161,-131.5 161,-112.5 91,-112.5"/>
<text text-anchor="middle" x="126" y="-119.5" font-family="Helvetica,sans-Serif" font-size="10.00">Material.hpp</text>
</a>
</g>
</g>
<!-- Node1&#45;&gt;Node7 -->
<g id="edge11" class="edge"><title>Node1&#45;&gt;Node7</title>
<path fill="none" stroke="midnightblue" d="M202.63,-224.43C200.597,-209.364 195.672,-185.295 184,-168 175.478,-155.373 162.269,-144.727 150.608,-136.965"/>
<polygon fill="midnightblue" stroke="midnightblue" points="152.424,-133.972 142.096,-131.606 148.694,-139.896 152.424,-133.972"/>
</g>
<!-- Node10 -->
<g id="node10" class="node"><title>Node10</title>
<g id="a_node10"><a xlink:href="../../d1/d93/ShaderProgramLibrary_8hpp.html" target="_top" xlink:title="ShaderProgramLibrary.hpp">
<polygon fill="none" stroke="black" points="295,-168.5 295,-187.5 427,-187.5 427,-168.5 295,-168.5"/>
<text text-anchor="middle" x="361" y="-175.5" font-family="Helvetica,sans-Serif" font-size="10.00">ShaderProgramLibrary.hpp</text>
</a>
</g>
</g>
<!-- Node1&#45;&gt;Node10 -->
<g id="edge12" class="edge"><title>Node1&#45;&gt;Node10</title>
<path fill="none" stroke="midnightblue" d="M241.207,-224.399C267.784,-214.327 303.189,-200.909 328.605,-191.277"/>
<polygon fill="midnightblue" stroke="midnightblue" points="330.044,-194.475 338.155,-187.658 327.564,-187.929 330.044,-194.475"/>
</g>
<!-- Node3 -->
<g id="node3" class="node"><title>Node3</title>
<polygon fill="none" stroke="#bfbfbf" points="0,-56.5 0,-75.5 94,-75.5 94,-56.5 0,-56.5"/>
<text text-anchor="middle" x="47" y="-63.5" font-family="Helvetica,sans-Serif" font-size="10.00">assimp/material.h</text>
</g>
<!-- Node2&#45;&gt;Node3 -->
<g id="edge2" class="edge"><title>Node2&#45;&gt;Node3</title>
<path fill="none" stroke="midnightblue" d="M116.089,-168.38C106.591,-159.79 92.2273,-145.908 82,-132 71.1091,-117.189 61.4347,-98.5695 55.0327,-85.0588"/>
<polygon fill="midnightblue" stroke="midnightblue" points="58.1659,-83.4947 50.809,-75.8706 51.8057,-86.4185 58.1659,-83.4947"/>
</g>
<!-- Node4 -->
<g id="node4" class="node"><title>Node4</title>
<g id="a_node4"><a xlink:href="../../df/d67/Library_8hpp.html" target="_top" xlink:title="Library.hpp">
<polygon fill="none" stroke="black" points="392.5,-56.5 392.5,-75.5 457.5,-75.5 457.5,-56.5 392.5,-56.5"/>
<text text-anchor="middle" x="425" y="-63.5" font-family="Helvetica,sans-Serif" font-size="10.00">Library.hpp</text>
</a>
</g>
</g>
<!-- Node2&#45;&gt;Node4 -->
<g id="edge3" class="edge"><title>Node2&#45;&gt;Node4</title>
<path fill="none" stroke="midnightblue" d="M175.59,-171.32C217.713,-165.265 279.102,-153.489 329,-132 358.549,-119.274 388.625,-97.099 407.049,-82.236"/>
<polygon fill="midnightblue" stroke="midnightblue" points="409.611,-84.66 415.105,-75.6004 405.161,-79.257 409.611,-84.66"/>
</g>
<!-- Node2&#45;&gt;Node7 -->
<g id="edge7" class="edge"><title>Node2&#45;&gt;Node7</title>
<path fill="none" stroke="midnightblue" d="M126,-168.083C126,-161.006 126,-150.861 126,-141.986"/>
<polygon fill="midnightblue" stroke="midnightblue" points="129.5,-141.751 126,-131.751 122.5,-141.751 129.5,-141.751"/>
</g>
<!-- Node4&#45;&gt;Node4 -->
<g id="edge6" class="edge"><title>Node4&#45;&gt;Node4</title>
<path fill="none" stroke="midnightblue" d="M446.538,-75.5252C461.173,-78.3079 475.5,-75.1328 475.5,-66 475.5,-59.0077 467.102,-55.5077 456.597,-55.5"/>
<polygon fill="midnightblue" stroke="midnightblue" points="456.154,-52.0265 446.538,-56.4748 456.829,-58.9938 456.154,-52.0265"/>
</g>
<!-- Node5 -->
<g id="node5" class="node"><title>Node5</title>
<polygon fill="none" stroke="#bfbfbf" points="258,-0.5 258,-19.5 302,-19.5 302,-0.5 258,-0.5"/>
<text text-anchor="middle" x="280" y="-7.5" font-family="Helvetica,sans-Serif" font-size="10.00">vector</text>
</g>
<!-- Node4&#45;&gt;Node5 -->
<g id="edge4" class="edge"><title>Node4&#45;&gt;Node5</title>
<path fill="none" stroke="midnightblue" d="M402.024,-56.4435C377.701,-47.3851 339.131,-33.0213 311.875,-22.8705"/>
<polygon fill="midnightblue" stroke="midnightblue" points="312.984,-19.5491 302.392,-19.339 310.541,-26.109 312.984,-19.5491"/>
</g>
<!-- Node6 -->
<g id="node6" class="node"><title>Node6</title>
<polygon fill="none" stroke="#bfbfbf" points="394,-0.5 394,-19.5 456,-19.5 456,-0.5 394,-0.5"/>
<text text-anchor="middle" x="425" y="-7.5" font-family="Helvetica,sans-Serif" font-size="10.00">Library.tpp</text>
</g>
<!-- Node4&#45;&gt;Node6 -->
<g id="edge5" class="edge"><title>Node4&#45;&gt;Node6</title>
<path fill="none" stroke="midnightblue" d="M425,-56.083C425,-49.0059 425,-38.8611 425,-29.9865"/>
<polygon fill="midnightblue" stroke="midnightblue" points="428.5,-29.751 425,-19.7511 421.5,-29.7511 428.5,-29.751"/>
</g>
<!-- Node7&#45;&gt;Node3 -->
<g id="edge10" class="edge"><title>Node7&#45;&gt;Node3</title>
<path fill="none" stroke="midnightblue" d="M113.307,-112.324C101.099,-103.979 82.4215,-91.2122 67.9971,-81.3524"/>
<polygon fill="midnightblue" stroke="midnightblue" points="69.892,-78.4082 59.6612,-75.6545 65.9418,-84.1871 69.892,-78.4082"/>
</g>
<!-- Node8 -->
<g id="node8" class="node"><title>Node8</title>
<polygon fill="none" stroke="#bfbfbf" points="200,-56.5 200,-75.5 252,-75.5 252,-56.5 200,-56.5"/>
<text text-anchor="middle" x="226" y="-63.5" font-family="Helvetica,sans-Serif" font-size="10.00">memory</text>
</g>
<!-- Node7&#45;&gt;Node8 -->
<g id="edge8" class="edge"><title>Node7&#45;&gt;Node8</title>
<path fill="none" stroke="midnightblue" d="M142.067,-112.324C157.958,-103.743 182.507,-90.486 200.958,-80.5224"/>
<polygon fill="midnightblue" stroke="midnightblue" points="202.837,-83.4857 209.973,-75.6545 199.511,-77.3264 202.837,-83.4857"/>
</g>
<!-- Node9 -->
<g id="node9" class="node"><title>Node9</title>
<polygon fill="none" stroke="#bfbfbf" points="112,-56.5 112,-75.5 182,-75.5 182,-56.5 112,-56.5"/>
<text text-anchor="middle" x="147" y="-63.5" font-family="Helvetica,sans-Serif" font-size="10.00">glm/glm.hpp</text>
</g>
<!-- Node7&#45;&gt;Node9 -->
<g id="edge9" class="edge"><title>Node7&#45;&gt;Node9</title>
<path fill="none" stroke="midnightblue" d="M129.468,-112.083C132.312,-104.77 136.429,-94.1814 139.96,-85.1034"/>
<polygon fill="midnightblue" stroke="midnightblue" points="143.234,-86.3397 143.597,-75.7511 136.71,-83.8025 143.234,-86.3397"/>
</g>
<!-- Node10&#45;&gt;Node4 -->
<g id="edge14" class="edge"><title>Node10&#45;&gt;Node4</title>
<path fill="none" stroke="midnightblue" d="M424.247,-168.489C446.233,-162.156 468.697,-151.14 482,-132 495.207,-112.997 471.829,-93.3063 451.144,-80.6492"/>
<polygon fill="midnightblue" stroke="midnightblue" points="452.675,-77.4913 442.266,-75.5172 449.172,-83.5518 452.675,-77.4913"/>
</g>
<!-- Node10&#45;&gt;Node8 -->
<g id="edge13" class="edge"><title>Node10&#45;&gt;Node8</title>
<path fill="none" stroke="midnightblue" d="M308.838,-168.49C269.494,-160.882 220.275,-148.405 208,-132 197.626,-118.136 205.243,-98.6006 213.528,-84.5716"/>
<polygon fill="midnightblue" stroke="midnightblue" points="216.66,-86.1729 219.157,-75.8764 210.784,-82.3687 216.66,-86.1729"/>
</g>
<!-- Node11 -->
<g id="node11" class="node"><title>Node11</title>
<g id="a_node11"><a xlink:href="../../dc/ddb/ShaderProgram_8hpp.html" target="_top" xlink:title="ShaderProgram.hpp">
<polygon fill="none" stroke="black" points="217.5,-112.5 217.5,-131.5 320.5,-131.5 320.5,-112.5 217.5,-112.5"/>
<text text-anchor="middle" x="269" y="-119.5" font-family="Helvetica,sans-Serif" font-size="10.00">ShaderProgram.hpp</text>
</a>
</g>
</g>
<!-- Node10&#45;&gt;Node11 -->
<g id="edge15" class="edge"><title>Node10&#45;&gt;Node11</title>
<path fill="none" stroke="midnightblue" d="M346.219,-168.324C331.733,-159.822 309.427,-146.729 292.507,-136.797"/>
<polygon fill="midnightblue" stroke="midnightblue" points="294.141,-133.698 283.745,-131.655 290.597,-139.735 294.141,-133.698"/>
</g>
<!-- Node14 -->
<g id="node14" class="node"><title>Node14</title>
<g id="a_node14"><a xlink:href="../../d9/db7/ShaderProgramNames_8hpp.html" target="_top" xlink:title="ShaderProgramNames.hpp">
<polygon fill="none" stroke="black" points="529,-112.5 529,-131.5 663,-131.5 663,-112.5 529,-112.5"/>
<text text-anchor="middle" x="596" y="-119.5" font-family="Helvetica,sans-Serif" font-size="10.00">ShaderProgramNames.hpp</text>
</a>
</g>
</g>
<!-- Node10&#45;&gt;Node14 -->
<g id="edge21" class="edge"><title>Node10&#45;&gt;Node14</title>
<path fill="none" stroke="midnightblue" d="M398.236,-168.444C439.06,-159.063 504.643,-143.993 548.984,-133.804"/>
<polygon fill="midnightblue" stroke="midnightblue" points="549.976,-137.167 558.938,-131.516 548.408,-130.345 549.976,-137.167"/>
</g>
<!-- Node15 -->
<g id="node15" class="node"><title>Node15</title>
<g id="a_node15"><a xlink:href="../../d2/db1/ShaderLibrary_8hpp.html" target="_top" xlink:title="ShaderLibrary.hpp">
<polygon fill="none" stroke="black" points="377.5,-112.5 377.5,-131.5 472.5,-131.5 472.5,-112.5 377.5,-112.5"/>
<text text-anchor="middle" x="425" y="-119.5" font-family="Helvetica,sans-Serif" font-size="10.00">ShaderLibrary.hpp</text>
</a>
</g>
</g>
<!-- Node10&#45;&gt;Node15 -->
<g id="edge22" class="edge"><title>Node10&#45;&gt;Node15</title>
<path fill="none" stroke="midnightblue" d="M371.283,-168.324C380.836,-160.263 395.28,-148.077 406.784,-138.369"/>
<polygon fill="midnightblue" stroke="midnightblue" points="409.144,-140.958 414.53,-131.834 404.63,-135.608 409.144,-140.958"/>
</g>
<!-- Node11&#45;&gt;Node5 -->
<g id="edge17" class="edge"><title>Node11&#45;&gt;Node5</title>
<path fill="none" stroke="midnightblue" d="M269.863,-112.368C271.638,-94.617 275.733,-53.6664 278.14,-29.5974"/>
<polygon fill="midnightblue" stroke="midnightblue" points="281.628,-29.8901 279.141,-19.5914 274.663,-29.1935 281.628,-29.8901"/>
</g>
<!-- Node11&#45;&gt;Node8 -->
<g id="edge18" class="edge"><title>Node11&#45;&gt;Node8</title>
<path fill="none" stroke="midnightblue" d="M261.899,-112.083C255.763,-104.377 246.73,-93.0333 239.261,-83.6531"/>
<polygon fill="midnightblue" stroke="midnightblue" points="241.936,-81.3936 232.968,-75.7511 236.46,-85.7542 241.936,-81.3936"/>
</g>
<!-- Node11&#45;&gt;Node9 -->
<g id="edge16" class="edge"><title>Node11&#45;&gt;Node9</title>
<path fill="none" stroke="midnightblue" d="M249.669,-112.444C229.68,-103.596 198.257,-89.6875 175.436,-79.5865"/>
<polygon fill="midnightblue" stroke="midnightblue" points="176.802,-76.3635 166.241,-75.5164 173.968,-82.7645 176.802,-76.3635"/>
</g>
<!-- Node12 -->
<g id="node12" class="node"><title>Node12</title>
<g id="a_node12"><a xlink:href="../../d4/d6e/Shader_8hpp.html" target="_top" xlink:title="Shader.hpp">
<polygon fill="none" stroke="black" points="308,-56.5 308,-75.5 374,-75.5 374,-56.5 308,-56.5"/>
<text text-anchor="middle" x="341" y="-63.5" font-family="Helvetica,sans-Serif" font-size="10.00">Shader.hpp</text>
</a>
</g>
</g>
<!-- Node11&#45;&gt;Node12 -->
<g id="edge19" class="edge"><title>Node11&#45;&gt;Node12</title>
<path fill="none" stroke="midnightblue" d="M280.568,-112.324C291.42,-104.185 307.881,-91.8395 320.883,-82.0874"/>
<polygon fill="midnightblue" stroke="midnightblue" points="323.321,-84.6339 329.221,-75.8339 319.121,-79.0339 323.321,-84.6339"/>
</g>
<!-- Node13 -->
<g id="node13" class="node"><title>Node13</title>
<polygon fill="none" stroke="#bfbfbf" points="320.5,-0.5 320.5,-19.5 361.5,-19.5 361.5,-0.5 320.5,-0.5"/>
<text text-anchor="middle" x="341" y="-7.5" font-family="Helvetica,sans-Serif" font-size="10.00">string</text>
</g>
<!-- Node12&#45;&gt;Node13 -->
<g id="edge20" class="edge"><title>Node12&#45;&gt;Node13</title>
<path fill="none" stroke="midnightblue" d="M341,-56.083C341,-49.0059 341,-38.8611 341,-29.9865"/>
<polygon fill="midnightblue" stroke="midnightblue" points="344.5,-29.751 341,-19.7511 337.5,-29.7511 344.5,-29.751"/>
</g>
<!-- Node15&#45;&gt;Node4 -->
<g id="edge24" class="edge"><title>Node15&#45;&gt;Node4</title>
<path fill="none" stroke="midnightblue" d="M425,-112.083C425,-105.006 425,-94.8611 425,-85.9865"/>
<polygon fill="midnightblue" stroke="midnightblue" points="428.5,-85.751 425,-75.7511 421.5,-85.7511 428.5,-85.751"/>
</g>
<!-- Node15&#45;&gt;Node8 -->
<g id="edge23" class="edge"><title>Node15&#45;&gt;Node8</title>
<path fill="none" stroke="midnightblue" d="M393.468,-112.444C357.805,-102.766 299.828,-87.0336 262.306,-76.8518"/>
<polygon fill="midnightblue" stroke="midnightblue" points="262.868,-73.3779 252.301,-74.1368 261.035,-80.1336 262.868,-73.3779"/>
</g>
<!-- Node15&#45;&gt;Node12 -->
<g id="edge25" class="edge"><title>Node15&#45;&gt;Node12</title>
<path fill="none" stroke="midnightblue" d="M411.504,-112.324C398.4,-103.9 378.288,-90.9709 362.893,-81.0741"/>
<polygon fill="midnightblue" stroke="midnightblue" points="364.767,-78.118 354.463,-75.6545 360.982,-84.0063 364.767,-78.118"/>
</g>
<!-- Node16 -->
<g id="node16" class="node"><title>Node16</title>
<g id="a_node16"><a xlink:href="../../d2/dba/ShaderNames_8hpp.html" target="_top" xlink:title="ShaderNames.hpp">
<polygon fill="none" stroke="black" points="494,-56.5 494,-75.5 592,-75.5 592,-56.5 494,-56.5"/>
<text text-anchor="middle" x="543" y="-63.5" font-family="Helvetica,sans-Serif" font-size="10.00">ShaderNames.hpp</text>
</a>
</g>
</g>
<!-- Node15&#45;&gt;Node16 -->
<g id="edge26" class="edge"><title>Node15&#45;&gt;Node16</title>
<path fill="none" stroke="midnightblue" d="M443.697,-112.444C462.944,-103.636 493.152,-89.8116 515.2,-79.722"/>
<polygon fill="midnightblue" stroke="midnightblue" points="516.753,-82.8603 524.39,-75.5164 513.84,-76.4951 516.753,-82.8603"/>
</g>
</g>
</svg>
        <g id="navigator" transform="translate(0 0)" fill="#404254">
                <rect fill="#f2f5e9" fill-opacity="0.5" stroke="#606060" stroke-width=".5" x="0" y="0" width="60" height="60"/>
                <use id="zoomplus" xlink:href="#zoomPlus" x="17" y="9" onmousedown="handleZoom(evt,'in')"/>
                <use id="zoomminus" xlink:href="#zoomMin" x="42" y="9" onmousedown="handleZoom(evt,'out')"/>
                <use id="reset" xlink:href="#resetDef" x="30" y="36" onmousedown="handleReset()"/>
                <g id="arrowUp" xlink:href="#dirArrow" transform="translate(30 24)" onmousedown="handlePan(0,-1)">
                  <use xlink:href="#rim" fill="#404040">
                        <set attributeName="fill" to="#808080" begin="arrowUp.mouseover" end="arrowUp.mouseout"/>
                  </use>
                  <path fill="none" stroke="white" stroke-width="1.5" d="M0,-3.0v7 M-2.5,-0.5L0,-3.0L2.5,-0.5"/>
                </g>
                <g id="arrowRight" xlink:href="#dirArrow" transform="rotate(90) translate(36 -43)" onmousedown="handlePan(1,0)">
                  <use xlink:href="#rim" fill="#404040">
                        <set attributeName="fill" to="#808080" begin="arrowRight.mouseover" end="arrowRight.mouseout"/>
                  </use>
                  <path fill="none" stroke="white" stroke-width="1.5" d="M0,-3.0v7 M-2.5,-0.5L0,-3.0L2.5,-0.5"/>
                </g>
                <g id="arrowDown" xlink:href="#dirArrow" transform="rotate(180) translate(-30 -48)" onmousedown="handlePan(0,1)">
                  <use xlink:href="#rim" fill="#404040">
                        <set attributeName="fill" to="#808080" begin="arrowDown.mouseover" end="arrowDown.mouseout"/>
                  </use>
                  <path fill="none" stroke="white" stroke-width="1.5" d="M0,-3.0v7 M-2.5,-0.5L0,-3.0L2.5,-0.5"/>
                </g>
                <g id="arrowLeft" xlink:href="#dirArrow" transform="rotate(270) translate(-36 17)" onmousedown="handlePan(-1,0)">
                  <use xlink:href="#rim" fill="#404040">
                        <set attributeName="fill" to="#808080" begin="arrowLeft.mouseover" end="arrowLeft.mouseout"/>
                  </use>
                  <path fill="none" stroke="white" stroke-width="1.5" d="M0,-3.0v7 M-2.5,-0.5L0,-3.0L2.5,-0.5"/>
                </g>
        </g>
        <svg viewBox="0 0 15 15" width="100%" height="30px" preserveAspectRatio="xMaxYMin meet">
         <g id="arrow_out" transform="scale(0.3 0.3)">
          <a xlink:href="MaterialLibrary_8cpp__incl_org.svg" target="_base">
           <rect id="button" ry="5" rx="5" y="6" x="6" height="38" width="38"
                fill="#f2f5e9" fill-opacity="0.5" stroke="#606060" stroke-width="1.0"/>
           <path id="arrow"
             d="M 11.500037,31.436501 C 11.940474,20.09759 22.043105,11.32322 32.158766,21.979434 L 37.068811,17.246167 C 37.068811,17.246167 37.088388,32 37.088388,32 L 22.160133,31.978069 C 22.160133,31.978069 26.997745,27.140456 26.997745,27.140456 C 18.528582,18.264221 13.291696,25.230495 11.500037,31.436501 z"
             style="fill:#404040;"/>
          </a>
         </g>
        </svg>
</svg>
