<?xml version="1.0" encoding="UTF-8" standalone="no"?>
<!DOCTYPE svg PUBLIC "-//W3C//DTD SVG 1.1//EN"
 "http://www.w3.org/Graphics/SVG/1.1/DTD/svg11.dtd">
<!-- Generated by graphviz version 2.38.0 (20140413.2041)
 -->
<!-- Title: ToolWidget Pages: 1 -->
<svg width="112pt" height="270pt"
 viewBox="0.00 0.00 112.00 270.00" xmlns="http://www.w3.org/2000/svg" xmlns:xlink="http://www.w3.org/1999/xlink">
<g id="graph0" class="graph" transform="scale(1 1) rotate(0) translate(4 266)">
<title>ToolWidget</title>
<!-- Node1 -->
<g id="node1" class="node"><title>Node1</title>
<polygon fill="#bfbfbf" stroke="black" points="0,-0.5 0,-167.5 104,-167.5 104,-0.5 0,-0.5"/>
<text text-anchor="middle" x="52" y="-155.5" font-family="Helvetica,sans-Serif" font-size="10.00">ToolWidget</text>
<polyline fill="none" stroke="black" points="0,-148.5 104,-148.5 "/>
<text text-anchor="middle" x="52" y="-136.5" font-family="Helvetica,sans-Serif" font-size="10.00"> </text>
<polyline fill="none" stroke="black" points="0,-129.5 104,-129.5 "/>
<text text-anchor="start" x="8" y="-117.5" font-family="Helvetica,sans-Serif" font-size="10.00">+ ToolWidget()</text>
<text text-anchor="start" x="8" y="-106.5" font-family="Helvetica,sans-Serif" font-size="10.00">+ ~ToolWidget()</text>
<text text-anchor="start" x="8" y="-95.5" font-family="Helvetica,sans-Serif" font-size="10.00">+ setConfiguration()</text>
<text text-anchor="start" x="8" y="-84.5" font-family="Helvetica,sans-Serif" font-size="10.00">+ getConfiguration()</text>
<text text-anchor="start" x="8" y="-73.5" font-family="Helvetica,sans-Serif" font-size="10.00">+ setConfName()</text>
<text text-anchor="start" x="8" y="-62.5" font-family="Helvetica,sans-Serif" font-size="10.00">+ setLandType()</text>
<text text-anchor="start" x="8" y="-51.5" font-family="Helvetica,sans-Serif" font-size="10.00">+ setClimatType()</text>
<text text-anchor="start" x="8" y="-40.5" font-family="Helvetica,sans-Serif" font-size="10.00">+ setWindPower()</text>
<text text-anchor="start" x="8" y="-29.5" font-family="Helvetica,sans-Serif" font-size="10.00">+ addModel()</text>
<text text-anchor="start" x="8" y="-18.5" font-family="Helvetica,sans-Serif" font-size="10.00">+ delModel()</text>
<text text-anchor="start" x="8" y="-7.5" font-family="Helvetica,sans-Serif" font-size="10.00">+ setCurrentModel()</text>
</g>
<!-- Node2 -->
<g id="node2" class="node"><title>Node2</title>
<g id="a_node2"><a xlink:href="../../d9/d5f/classQTabWidget.html" target="_top" xlink:title="{QTabWidget\n||}">
<polygon fill="none" stroke="black" points="16.5,-204.5 16.5,-261.5 87.5,-261.5 87.5,-204.5 16.5,-204.5"/>
<text text-anchor="middle" x="52" y="-249.5" font-family="Helvetica,sans-Serif" font-size="10.00">QTabWidget</text>
<polyline fill="none" stroke="black" points="16.5,-242.5 87.5,-242.5 "/>
<text text-anchor="middle" x="52" y="-230.5" font-family="Helvetica,sans-Serif" font-size="10.00"> </text>
<polyline fill="none" stroke="black" points="16.5,-223.5 87.5,-223.5 "/>
<text text-anchor="middle" x="52" y="-211.5" font-family="Helvetica,sans-Serif" font-size="10.00"> </text>
</a>
</g>
</g>
<!-- Node2&#45;&gt;Node1 -->
<g id="edge1" class="edge"><title>Node2&#45;&gt;Node1</title>
<path fill="none" stroke="midnightblue" d="M52,-194.35C52,-186.08 52,-177.008 52,-167.738"/>
<polygon fill="none" stroke="midnightblue" points="48.5001,-194.35 52,-204.35 55.5001,-194.35 48.5001,-194.35"/>
</g>
</g>
</svg>
