<?xml version="1.0" encoding="UTF-8" standalone="no"?>
<!DOCTYPE svg PUBLIC "-//W3C//DTD SVG 1.1//EN"
 "http://www.w3.org/Graphics/SVG/1.1/DTD/svg11.dtd">
<!-- Generated by graphviz version 2.38.0 (20140413.2041)
 -->
<!-- Title: engine/MaterialLibrary/MaterialLibrary.hpp Pages: 1 -->
<svg width="402pt" height="151pt"
 viewBox="0.00 0.00 402.00 151.00" xmlns="http://www.w3.org/2000/svg" xmlns:xlink="http://www.w3.org/1999/xlink">
<g id="graph0" class="graph" transform="scale(1 1) rotate(0) translate(4 147)">
<title>engine/MaterialLibrary/MaterialLibrary.hpp</title>
<!-- Node1 -->
<g id="node1" class="node"><title>Node1</title>
<polygon fill="#bfbfbf" stroke="black" points="133,-112.5 133,-142.5 245,-142.5 245,-112.5 133,-112.5"/>
<text text-anchor="start" x="141" y="-130.5" font-family="Helvetica,sans-Serif" font-size="10.00">engine/MaterialLibrary</text>
<text text-anchor="middle" x="189" y="-119.5" font-family="Helvetica,sans-Serif" font-size="10.00">/MaterialLibrary.hpp</text>
</g>
<!-- Node2 -->
<g id="node2" class="node"><title>Node2</title>
<polygon fill="none" stroke="#bfbfbf" points="142,-0.5 142,-19.5 236,-19.5 236,-0.5 142,-0.5"/>
<text text-anchor="middle" x="189" y="-7.5" font-family="Helvetica,sans-Serif" font-size="10.00">assimp/material.h</text>
</g>
<!-- Node1&#45;&gt;Node2 -->
<g id="edge1" class="edge"><title>Node1&#45;&gt;Node2</title>
<path fill="none" stroke="midnightblue" d="M189,-112.337C189,-91.6217 189,-53.0162 189,-29.8991"/>
<polygon fill="midnightblue" stroke="midnightblue" points="192.5,-29.6694 189,-19.6695 185.5,-29.6695 192.5,-29.6694"/>
</g>
<!-- Node3 -->
<g id="node3" class="node"><title>Node3</title>
<g id="a_node3"><a xlink:href="../../df/d67/Library_8hpp.html" target="_top" xlink:title="Library.hpp">
<polygon fill="none" stroke="black" points="69.5,-56.5 69.5,-75.5 134.5,-75.5 134.5,-56.5 69.5,-56.5"/>
<text text-anchor="middle" x="102" y="-63.5" font-family="Helvetica,sans-Serif" font-size="10.00">Library.hpp</text>
</a>
</g>
</g>
<!-- Node1&#45;&gt;Node3 -->
<g id="edge2" class="edge"><title>Node1&#45;&gt;Node3</title>
<path fill="none" stroke="midnightblue" d="M168.382,-112.399C154.697,-103.04 136.789,-90.7924 123.022,-81.3771"/>
<polygon fill="midnightblue" stroke="midnightblue" points="124.889,-78.414 114.659,-75.6578 120.938,-84.1919 124.889,-78.414"/>
</g>
<!-- Node6 -->
<g id="node6" class="node"><title>Node6</title>
<g id="a_node6"><a xlink:href="../../d0/d70/Material_8hpp.html" target="_top" xlink:title="Material.hpp">
<polygon fill="none" stroke="black" points="235,-56.5 235,-75.5 305,-75.5 305,-56.5 235,-56.5"/>
<text text-anchor="middle" x="270" y="-63.5" font-family="Helvetica,sans-Serif" font-size="10.00">Material.hpp</text>
</a>
</g>
</g>
<!-- Node1&#45;&gt;Node6 -->
<g id="edge6" class="edge"><title>Node1&#45;&gt;Node6</title>
<path fill="none" stroke="midnightblue" d="M208.196,-112.399C220.816,-103.129 237.293,-91.0254 250.061,-81.6469"/>
<polygon fill="midnightblue" stroke="midnightblue" points="252.227,-84.3987 258.214,-75.6578 248.082,-78.7572 252.227,-84.3987"/>
</g>
<!-- Node3&#45;&gt;Node3 -->
<g id="edge5" class="edge"><title>Node3&#45;&gt;Node3</title>
<path fill="none" stroke="midnightblue" d="M123.538,-75.5252C138.173,-78.3079 152.5,-75.1328 152.5,-66 152.5,-59.0077 144.102,-55.5077 133.597,-55.5"/>
<polygon fill="midnightblue" stroke="midnightblue" points="133.154,-52.0265 123.538,-56.4748 133.829,-58.9938 133.154,-52.0265"/>
</g>
<!-- Node4 -->
<g id="node4" class="node"><title>Node4</title>
<polygon fill="none" stroke="#bfbfbf" points="80,-0.5 80,-19.5 124,-19.5 124,-0.5 80,-0.5"/>
<text text-anchor="middle" x="102" y="-7.5" font-family="Helvetica,sans-Serif" font-size="10.00">vector</text>
</g>
<!-- Node3&#45;&gt;Node4 -->
<g id="edge3" class="edge"><title>Node3&#45;&gt;Node4</title>
<path fill="none" stroke="midnightblue" d="M102,-56.083C102,-49.0059 102,-38.8611 102,-29.9865"/>
<polygon fill="midnightblue" stroke="midnightblue" points="105.5,-29.751 102,-19.7511 98.5001,-29.7511 105.5,-29.751"/>
</g>
<!-- Node5 -->
<g id="node5" class="node"><title>Node5</title>
<polygon fill="none" stroke="#bfbfbf" points="0,-0.5 0,-19.5 62,-19.5 62,-0.5 0,-0.5"/>
<text text-anchor="middle" x="31" y="-7.5" font-family="Helvetica,sans-Serif" font-size="10.00">Library.tpp</text>
</g>
<!-- Node3&#45;&gt;Node5 -->
<g id="edge4" class="edge"><title>Node3&#45;&gt;Node5</title>
<path fill="none" stroke="midnightblue" d="M90.5926,-56.324C79.8912,-48.1849 63.6593,-35.8395 50.8372,-26.0874"/>
<polygon fill="midnightblue" stroke="midnightblue" points="52.6932,-23.1018 42.6149,-19.8339 48.4556,-28.6734 52.6932,-23.1018"/>
</g>
<!-- Node6&#45;&gt;Node2 -->
<g id="edge9" class="edge"><title>Node6&#45;&gt;Node2</title>
<path fill="none" stroke="midnightblue" d="M256.986,-56.324C244.468,-47.979 225.318,-35.2122 210.529,-25.3524"/>
<polygon fill="midnightblue" stroke="midnightblue" points="212.244,-22.2894 201.982,-19.6545 208.361,-28.1137 212.244,-22.2894"/>
</g>
<!-- Node7 -->
<g id="node7" class="node"><title>Node7</title>
<polygon fill="none" stroke="#bfbfbf" points="342,-0.5 342,-19.5 394,-19.5 394,-0.5 342,-0.5"/>
<text text-anchor="middle" x="368" y="-7.5" font-family="Helvetica,sans-Serif" font-size="10.00">memory</text>
</g>
<!-- Node6&#45;&gt;Node7 -->
<g id="edge7" class="edge"><title>Node6&#45;&gt;Node7</title>
<path fill="none" stroke="midnightblue" d="M285.745,-56.324C301.319,-47.7428 325.377,-34.486 343.459,-24.5224"/>
<polygon fill="midnightblue" stroke="midnightblue" points="345.224,-27.546 352.294,-19.6545 341.846,-21.4152 345.224,-27.546"/>
</g>
<!-- Node8 -->
<g id="node8" class="node"><title>Node8</title>
<polygon fill="none" stroke="#bfbfbf" points="254,-0.5 254,-19.5 324,-19.5 324,-0.5 254,-0.5"/>
<text text-anchor="middle" x="289" y="-7.5" font-family="Helvetica,sans-Serif" font-size="10.00">glm/glm.hpp</text>
</g>
<!-- Node6&#45;&gt;Node8 -->
<g id="edge8" class="edge"><title>Node6&#45;&gt;Node8</title>
<path fill="none" stroke="midnightblue" d="M273.137,-56.083C275.683,-48.8486 279.356,-38.4087 282.527,-29.3968"/>
<polygon fill="midnightblue" stroke="midnightblue" points="285.903,-30.3459 285.921,-19.7511 279.3,-28.0225 285.903,-30.3459"/>
</g>
</g>
</svg>
