<?xml version="1.0" encoding="UTF-8" standalone="no"?>
<!DOCTYPE svg PUBLIC "-//W3C//DTD SVG 1.1//EN"
 "http://www.w3.org/Graphics/SVG/1.1/DTD/svg11.dtd">
<!-- Generated by graphviz version 2.38.0 (20140413.2041)
 -->
<!-- Title: engine/Scene/Scene.hpp Pages: 1 -->
<svg width="1352pt" height="285pt"
 viewBox="0.00 0.00 1352.00 285.00" xmlns="http://www.w3.org/2000/svg" xmlns:xlink="http://www.w3.org/1999/xlink">
<g id="graph0" class="graph" transform="scale(1 1) rotate(0) translate(4 281)">
<title>engine/Scene/Scene.hpp</title>
<!-- Node1 -->
<g id="node1" class="node"><title>Node1</title>
<polygon fill="#bfbfbf" stroke="black" points="500.5,-257.5 500.5,-276.5 625.5,-276.5 625.5,-257.5 500.5,-257.5"/>
<text text-anchor="middle" x="563" y="-264.5" font-family="Helvetica,sans-Serif" font-size="10.00">engine/Scene/Scene.hpp</text>
</g>
<!-- Node2 -->
<g id="node2" class="node"><title>Node2</title>
<g id="a_node2"><a xlink:href="../../d0/dbd/AssimpImporter_8hpp.html" target="_top" xlink:title="engine/AssimpImporter\l/AssimpImporter.hpp">
<polygon fill="none" stroke="black" points="184.5,-190.5 184.5,-220.5 301.5,-220.5 301.5,-190.5 184.5,-190.5"/>
<text text-anchor="start" x="192.5" y="-208.5" font-family="Helvetica,sans-Serif" font-size="10.00">engine/AssimpImporter</text>
<text text-anchor="middle" x="243" y="-197.5" font-family="Helvetica,sans-Serif" font-size="10.00">/AssimpImporter.hpp</text>
</a>
</g>
</g>
<!-- Node1&#45;&gt;Node2 -->
<g id="edge1" class="edge"><title>Node1&#45;&gt;Node2</title>
<path fill="none" stroke="midnightblue" d="M507.134,-255.612C449.529,-244.902 360.087,-228.271 301.526,-217.382"/>
<polygon fill="midnightblue" stroke="midnightblue" points="506.68,-259.088 517.152,-257.475 507.96,-252.206 506.68,-259.088"/>
</g>
<!-- Node5 -->
<g id="node5" class="node"><title>Node5</title>
<g id="a_node5"><a xlink:href="../../d4/d1c/GameEngine_8hpp.html" target="_top" xlink:title="engine/GameEngine/GameEngine.hpp">
<polygon fill="none" stroke="black" points="472,-196 472,-215 654,-215 654,-196 472,-196"/>
<text text-anchor="middle" x="563" y="-203" font-family="Helvetica,sans-Serif" font-size="10.00">engine/GameEngine/GameEngine.hpp</text>
</a>
</g>
</g>
<!-- Node1&#45;&gt;Node5 -->
<g id="edge4" class="edge"><title>Node1&#45;&gt;Node5</title>
<path fill="none" stroke="midnightblue" d="M563,-247.317C563,-236.496 563,-223.398 563,-215.009"/>
<polygon fill="midnightblue" stroke="midnightblue" points="559.5,-247.475 563,-257.475 566.5,-247.475 559.5,-247.475"/>
</g>
<!-- Node17 -->
<g id="node17" class="node"><title>Node17</title>
<g id="a_node17"><a xlink:href="../../de/d15/Scene_8cpp.html" target="_top" xlink:title="engine/Scene/Scene.cpp">
<polygon fill="none" stroke="black" points="672.5,-196 672.5,-215 797.5,-215 797.5,-196 672.5,-196"/>
<text text-anchor="middle" x="735" y="-203" font-family="Helvetica,sans-Serif" font-size="10.00">engine/Scene/Scene.cpp</text>
</a>
</g>
</g>
<!-- Node1&#45;&gt;Node17 -->
<g id="edge19" class="edge"><title>Node1&#45;&gt;Node17</title>
<path fill="none" stroke="midnightblue" d="M597.45,-254.083C630.884,-242.517 680.791,-225.252 710.402,-215.009"/>
<polygon fill="midnightblue" stroke="midnightblue" points="595.95,-250.898 587.643,-257.475 598.238,-257.513 595.95,-250.898"/>
</g>
<!-- Node3 -->
<g id="node3" class="node"><title>Node3</title>
<g id="a_node3"><a xlink:href="../../d4/d7f/AssimpImporter_8cpp.html" target="_top" xlink:title="engine/AssimpImporter\l/AssimpImporter.cpp">
<polygon fill="none" stroke="black" points="97.5,-123.5 97.5,-153.5 214.5,-153.5 214.5,-123.5 97.5,-123.5"/>
<text text-anchor="start" x="105.5" y="-141.5" font-family="Helvetica,sans-Serif" font-size="10.00">engine/AssimpImporter</text>
<text text-anchor="middle" x="156" y="-130.5" font-family="Helvetica,sans-Serif" font-size="10.00">/AssimpImporter.cpp</text>
</a>
</g>
</g>
<!-- Node2&#45;&gt;Node3 -->
<g id="edge2" class="edge"><title>Node2&#45;&gt;Node3</title>
<path fill="none" stroke="midnightblue" d="M215.786,-184.168C202.482,-174.228 186.804,-162.514 174.841,-153.577"/>
<polygon fill="midnightblue" stroke="midnightblue" points="214.016,-187.215 224.122,-190.396 218.206,-181.607 214.016,-187.215"/>
</g>
<!-- Node4 -->
<g id="node4" class="node"><title>Node4</title>
<g id="a_node4"><a xlink:href="../../dd/d98/GameEngine_8cpp.html" target="_top" xlink:title="engine/GameEngine/GameEngine.cpp">
<polygon fill="none" stroke="black" points="0,-62 0,-81 182,-81 182,-62 0,-62"/>
<text text-anchor="middle" x="91" y="-69" font-family="Helvetica,sans-Serif" font-size="10.00">engine/GameEngine/GameEngine.cpp</text>
</a>
</g>
</g>
<!-- Node2&#45;&gt;Node4 -->
<g id="edge3" class="edge"><title>Node2&#45;&gt;Node4</title>
<path fill="none" stroke="midnightblue" d="M242.815,-180.11C241.427,-162.309 236.81,-138.65 223,-123 203.194,-100.555 172.287,-88.0335 145.357,-81.075"/>
<polygon fill="midnightblue" stroke="midnightblue" points="239.33,-180.497 243.315,-190.314 246.321,-180.154 239.33,-180.497"/>
</g>
<!-- Node5&#45;&gt;Node4 -->
<g id="edge5" class="edge"><title>Node5&#45;&gt;Node4</title>
<path fill="none" stroke="midnightblue" d="M522.547,-193.187C429.851,-167.263 203.76,-104.035 121.536,-81.0398"/>
<polygon fill="midnightblue" stroke="midnightblue" points="521.821,-196.618 532.394,-195.941 523.707,-189.877 521.821,-196.618"/>
</g>
<!-- Node6 -->
<g id="node6" class="node"><title>Node6</title>
<g id="a_node6"><a xlink:href="../../d1/d2a/glwindow_8h.html" target="_top" xlink:title="window/glwindow.h">
<polygon fill="none" stroke="black" points="564.5,-129 564.5,-148 665.5,-148 665.5,-129 564.5,-129"/>
<text text-anchor="middle" x="615" y="-136" font-family="Helvetica,sans-Serif" font-size="10.00">window/glwindow.h</text>
</a>
</g>
</g>
<!-- Node5&#45;&gt;Node6 -->
<g id="edge6" class="edge"><title>Node5&#45;&gt;Node6</title>
<path fill="none" stroke="midnightblue" d="M576.384,-187.77C586.522,-175.097 600.039,-158.201 608.098,-148.127"/>
<polygon fill="midnightblue" stroke="midnightblue" points="573.527,-185.739 570.013,-195.734 578.993,-190.112 573.527,-185.739"/>
</g>
<!-- Node13 -->
<g id="node13" class="node"><title>Node13</title>
<g id="a_node13"><a xlink:href="../../d3/d1f/glwindow_8cpp.html" target="_top" xlink:title="window/glwindow.cpp">
<polygon fill="none" stroke="black" points="1232,-62 1232,-81 1344,-81 1344,-62 1232,-62"/>
<text text-anchor="middle" x="1288" y="-69" font-family="Helvetica,sans-Serif" font-size="10.00">window/glwindow.cpp</text>
</a>
</g>
</g>
<!-- Node5&#45;&gt;Node13 -->
<g id="edge18" class="edge"><title>Node5&#45;&gt;Node13</title>
<path fill="none" stroke="midnightblue" d="M625.214,-194.347C742.454,-175.011 1004.01,-130.899 1223,-87 1232.07,-85.182 1241.82,-83.0843 1250.94,-81.0591"/>
<polygon fill="midnightblue" stroke="midnightblue" points="624.634,-190.896 615.336,-195.974 625.772,-197.803 624.634,-190.896"/>
</g>
<!-- Node6&#45;&gt;Node4 -->
<g id="edge9" class="edge"><title>Node6&#45;&gt;Node4</title>
<path fill="none" stroke="midnightblue" d="M555.156,-127.409C545.101,-125.843 534.764,-124.312 525,-123 377.025,-103.119 339.127,-105.716 191,-87 176.815,-85.2078 161.527,-83.0871 147.276,-81.0287"/>
<polygon fill="midnightblue" stroke="midnightblue" points="554.66,-130.874 565.084,-128.981 555.754,-123.96 554.66,-130.874"/>
</g>
<!-- Node7 -->
<g id="node7" class="node"><title>Node7</title>
<g id="a_node7"><a xlink:href="../../db/d2b/BufferObject_8cpp.html" target="_top" xlink:title="engine/BufferObject\l/BufferObject.cpp">
<polygon fill="none" stroke="black" points="200.5,-56.5 200.5,-86.5 303.5,-86.5 303.5,-56.5 200.5,-56.5"/>
<text text-anchor="start" x="208.5" y="-74.5" font-family="Helvetica,sans-Serif" font-size="10.00">engine/BufferObject</text>
<text text-anchor="middle" x="252" y="-63.5" font-family="Helvetica,sans-Serif" font-size="10.00">/BufferObject.cpp</text>
</a>
</g>
</g>
<!-- Node6&#45;&gt;Node7 -->
<g id="edge7" class="edge"><title>Node6&#45;&gt;Node7</title>
<path fill="none" stroke="midnightblue" d="M554.285,-127.574C472.967,-114.244 336.172,-91.6859 313,-87 309.906,-86.3743 306.73,-85.7043 303.531,-85.008"/>
<polygon fill="midnightblue" stroke="midnightblue" points="553.967,-131.068 564.401,-129.231 555.099,-124.16 553.967,-131.068"/>
</g>
<!-- Node8 -->
<g id="node8" class="node"><title>Node8</title>
<g id="a_node8"><a xlink:href="../../da/d8c/Camera_8cpp.html" target="_top" xlink:title="engine/Camera/Camera.cpp">
<polygon fill="none" stroke="black" points="321.5,-62 321.5,-81 460.5,-81 460.5,-62 321.5,-62"/>
<text text-anchor="middle" x="391" y="-69" font-family="Helvetica,sans-Serif" font-size="10.00">engine/Camera/Camera.cpp</text>
</a>
</g>
</g>
<!-- Node6&#45;&gt;Node8 -->
<g id="edge8" class="edge"><title>Node6&#45;&gt;Node8</title>
<path fill="none" stroke="midnightblue" d="M575.404,-126.01C531.07,-113.145 460.248,-92.5942 420.512,-81.0637"/>
<polygon fill="midnightblue" stroke="midnightblue" points="574.675,-129.443 585.255,-128.869 576.626,-122.72 574.675,-129.443"/>
</g>
<!-- Node9 -->
<g id="node9" class="node"><title>Node9</title>
<g id="a_node9"><a xlink:href="../../d2/dcc/Mesh_8cpp.html" target="_top" xlink:title="engine/Mesh/Mesh.cpp">
<polygon fill="none" stroke="black" points="479,-62 479,-81 597,-81 597,-62 479,-62"/>
<text text-anchor="middle" x="538" y="-69" font-family="Helvetica,sans-Serif" font-size="10.00">engine/Mesh/Mesh.cpp</text>
</a>
</g>
</g>
<!-- Node6&#45;&gt;Node9 -->
<g id="edge10" class="edge"><title>Node6&#45;&gt;Node9</title>
<path fill="none" stroke="midnightblue" d="M596.891,-122.213C581.721,-109.407 560.612,-91.5884 548.22,-81.1273"/>
<polygon fill="midnightblue" stroke="midnightblue" points="594.716,-124.958 604.615,-128.734 599.232,-119.609 594.716,-124.958"/>
</g>
<!-- Node10 -->
<g id="node10" class="node"><title>Node10</title>
<g id="a_node10"><a xlink:href="../../da/d3d/BasicRenderer_8cpp.html" target="_top" xlink:title="engine/Renderer/BasicRenderer\l/BasicRenderer.cpp">
<polygon fill="none" stroke="black" points="615.5,-56.5 615.5,-86.5 770.5,-86.5 770.5,-56.5 615.5,-56.5"/>
<text text-anchor="start" x="623.5" y="-74.5" font-family="Helvetica,sans-Serif" font-size="10.00">engine/Renderer/BasicRenderer</text>
<text text-anchor="middle" x="693" y="-63.5" font-family="Helvetica,sans-Serif" font-size="10.00">/BasicRenderer.cpp</text>
</a>
</g>
</g>
<!-- Node6&#45;&gt;Node10 -->
<g id="edge11" class="edge"><title>Node6&#45;&gt;Node10</title>
<path fill="none" stroke="midnightblue" d="M633.315,-122.237C646.258,-111.452 663.477,-97.1025 676.093,-86.589"/>
<polygon fill="midnightblue" stroke="midnightblue" points="630.961,-119.643 625.519,-128.734 635.442,-125.021 630.961,-119.643"/>
</g>
<!-- Node11 -->
<g id="node11" class="node"><title>Node11</title>
<g id="a_node11"><a xlink:href="../../dd/d84/Shader_8cpp.html" target="_top" xlink:title="engine/Shaders/Shader\l/Shader.cpp">
<polygon fill="none" stroke="black" points="789,-56.5 789,-86.5 907,-86.5 907,-56.5 789,-56.5"/>
<text text-anchor="start" x="797" y="-74.5" font-family="Helvetica,sans-Serif" font-size="10.00">engine/Shaders/Shader</text>
<text text-anchor="middle" x="848" y="-63.5" font-family="Helvetica,sans-Serif" font-size="10.00">/Shader.cpp</text>
</a>
</g>
</g>
<!-- Node6&#45;&gt;Node11 -->
<g id="edge12" class="edge"><title>Node6&#45;&gt;Node11</title>
<path fill="none" stroke="midnightblue" d="M655.765,-126.128C695.266,-115.108 755.269,-98.3692 797.715,-86.5281"/>
<polygon fill="midnightblue" stroke="midnightblue" points="654.632,-122.81 645.941,-128.869 656.513,-129.553 654.632,-122.81"/>
</g>
<!-- Node12 -->
<g id="node12" class="node"><title>Node12</title>
<g id="a_node12"><a xlink:href="../../de/d34/ShaderProgram_8cpp.html" target="_top" xlink:title="engine/Shaders/ShaderProgram\l/ShaderProgram.cpp">
<polygon fill="none" stroke="black" points="925.5,-56.5 925.5,-86.5 1080.5,-86.5 1080.5,-56.5 925.5,-56.5"/>
<text text-anchor="start" x="933.5" y="-74.5" font-family="Helvetica,sans-Serif" font-size="10.00">engine/Shaders/ShaderProgram</text>
<text text-anchor="middle" x="1003" y="-63.5" font-family="Helvetica,sans-Serif" font-size="10.00">/ShaderProgram.cpp</text>
</a>
</g>
</g>
<!-- Node6&#45;&gt;Node12 -->
<g id="edge13" class="edge"><title>Node6&#45;&gt;Node12</title>
<path fill="none" stroke="midnightblue" d="M675.762,-127.321C743.136,-116.034 851.987,-97.7986 925.459,-85.4902"/>
<polygon fill="midnightblue" stroke="midnightblue" points="675.008,-123.898 665.724,-129.002 676.165,-130.802 675.008,-123.898"/>
</g>
<!-- Node6&#45;&gt;Node13 -->
<g id="edge14" class="edge"><title>Node6&#45;&gt;Node13</title>
<path fill="none" stroke="midnightblue" d="M675.944,-135.195C785.818,-130.428 1024.18,-117.288 1223,-87 1233.06,-85.4677 1243.88,-83.2755 1253.76,-81.0581"/>
<polygon fill="midnightblue" stroke="midnightblue" points="675.56,-131.708 665.718,-135.63 675.858,-138.702 675.56,-131.708"/>
</g>
<!-- Node14 -->
<g id="node14" class="node"><title>Node14</title>
<g id="a_node14"><a xlink:href="../../d9/d53/mainwindow_8h.html" target="_top" xlink:title="window/mainwindow.h">
<polygon fill="none" stroke="black" points="1098.5,-62 1098.5,-81 1213.5,-81 1213.5,-62 1098.5,-62"/>
<text text-anchor="middle" x="1156" y="-69" font-family="Helvetica,sans-Serif" font-size="10.00">window/mainwindow.h</text>
</a>
</g>
</g>
<!-- Node6&#45;&gt;Node14 -->
<g id="edge15" class="edge"><title>Node6&#45;&gt;Node14</title>
<path fill="none" stroke="midnightblue" d="M675.596,-133.211C766.161,-126.315 942.018,-111.047 1090,-87 1099.96,-85.3818 1110.67,-83.2144 1120.52,-81.0495"/>
<polygon fill="midnightblue" stroke="midnightblue" points="675.221,-129.729 665.512,-133.971 675.747,-136.709 675.221,-129.729"/>
</g>
<!-- Node15 -->
<g id="node15" class="node"><title>Node15</title>
<g id="a_node15"><a xlink:href="../../df/d0a/main_8cpp.html" target="_top" xlink:title="TODO. ">
<polygon fill="none" stroke="black" points="1074,-0.5 1074,-19.5 1130,-19.5 1130,-0.5 1074,-0.5"/>
<text text-anchor="middle" x="1102" y="-7.5" font-family="Helvetica,sans-Serif" font-size="10.00">main.cpp</text>
</a>
</g>
</g>
<!-- Node14&#45;&gt;Node15 -->
<g id="edge16" class="edge"><title>Node14&#45;&gt;Node15</title>
<path fill="none" stroke="midnightblue" d="M1141.48,-54.4975C1131.26,-43.2356 1117.98,-28.6044 1109.72,-19.5091"/>
<polygon fill="midnightblue" stroke="midnightblue" points="1138.95,-56.9222 1148.26,-61.9751 1144.13,-52.2178 1138.95,-56.9222"/>
</g>
<!-- Node16 -->
<g id="node16" class="node"><title>Node16</title>
<g id="a_node16"><a xlink:href="../../d8/dd9/mainwindow_8cpp.html" target="_top" xlink:title="window/mainwindow.cpp">
<polygon fill="none" stroke="black" points="1147.5,-0.5 1147.5,-19.5 1272.5,-19.5 1272.5,-0.5 1147.5,-0.5"/>
<text text-anchor="middle" x="1210" y="-7.5" font-family="Helvetica,sans-Serif" font-size="10.00">window/mainwindow.cpp</text>
</a>
</g>
</g>
<!-- Node14&#45;&gt;Node16 -->
<g id="edge17" class="edge"><title>Node14&#45;&gt;Node16</title>
<path fill="none" stroke="midnightblue" d="M1170.52,-54.4975C1180.74,-43.2356 1194.02,-28.6044 1202.28,-19.5091"/>
<polygon fill="midnightblue" stroke="midnightblue" points="1167.87,-52.2178 1163.74,-61.9751 1173.05,-56.9222 1167.87,-52.2178"/>
</g>
</g>
</svg>
