<?xml version="1.0" encoding="UTF-8" standalone="no"?>
<!DOCTYPE svg PUBLIC "-//W3C//DTD SVG 1.1//EN"
 "http://www.w3.org/Graphics/SVG/1.1/DTD/svg11.dtd">
<!-- Generated by graphviz version 2.38.0 (20140413.2041)
 -->
<!-- Title: engine/ShaderProgramLibrary/ShaderProgramLibrary.hpp Pages: 1 -->
<svg width="534pt" height="207pt"
 viewBox="0.00 0.00 533.50 207.00" xmlns="http://www.w3.org/2000/svg" xmlns:xlink="http://www.w3.org/1999/xlink">
<g id="graph0" class="graph" transform="scale(1 1) rotate(0) translate(4 203)">
<title>engine/ShaderProgramLibrary/ShaderProgramLibrary.hpp</title>
<!-- Node1 -->
<g id="node1" class="node"><title>Node1</title>
<polygon fill="#bfbfbf" stroke="black" points="169,-168.5 169,-198.5 314,-198.5 314,-168.5 169,-168.5"/>
<text text-anchor="start" x="177" y="-186.5" font-family="Helvetica,sans-Serif" font-size="10.00">engine/ShaderProgramLibrary</text>
<text text-anchor="middle" x="241.5" y="-175.5" font-family="Helvetica,sans-Serif" font-size="10.00">/ShaderProgramLibrary.hpp</text>
</g>
<!-- Node2 -->
<g id="node2" class="node"><title>Node2</title>
<polygon fill="none" stroke="#bfbfbf" points="217.5,-56.5 217.5,-75.5 269.5,-75.5 269.5,-56.5 217.5,-56.5"/>
<text text-anchor="middle" x="243.5" y="-63.5" font-family="Helvetica,sans-Serif" font-size="10.00">memory</text>
</g>
<!-- Node1&#45;&gt;Node2 -->
<g id="edge1" class="edge"><title>Node1&#45;&gt;Node2</title>
<path fill="none" stroke="midnightblue" d="M241.745,-168.337C242.104,-147.622 242.772,-109.016 243.173,-85.8991"/>
<polygon fill="midnightblue" stroke="midnightblue" points="246.676,-85.7286 243.35,-75.6695 239.677,-85.6073 246.676,-85.7286"/>
</g>
<!-- Node3 -->
<g id="node3" class="node"><title>Node3</title>
<g id="a_node3"><a xlink:href="../../df/d67/Library_8hpp.html" target="_top" xlink:title="Library.hpp">
<polygon fill="none" stroke="black" points="0,-56.5 0,-75.5 65,-75.5 65,-56.5 0,-56.5"/>
<text text-anchor="middle" x="32.5" y="-63.5" font-family="Helvetica,sans-Serif" font-size="10.00">Library.hpp</text>
</a>
</g>
</g>
<!-- Node1&#45;&gt;Node3 -->
<g id="edge2" class="edge"><title>Node1&#45;&gt;Node3</title>
<path fill="none" stroke="midnightblue" d="M192.581,-168.422C166.613,-159.857 134.737,-147.557 108.5,-132 85.3148,-118.253 62.2998,-97.2738 47.7754,-82.8905"/>
<polygon fill="midnightblue" stroke="midnightblue" points="50.1524,-80.3166 40.6327,-75.6662 45.1746,-85.2381 50.1524,-80.3166"/>
</g>
<!-- Node6 -->
<g id="node6" class="node"><title>Node6</title>
<g id="a_node6"><a xlink:href="../../dc/ddb/ShaderProgram_8hpp.html" target="_top" xlink:title="ShaderProgram.hpp">
<polygon fill="none" stroke="black" points="270,-112.5 270,-131.5 373,-131.5 373,-112.5 270,-112.5"/>
<text text-anchor="middle" x="321.5" y="-119.5" font-family="Helvetica,sans-Serif" font-size="10.00">ShaderProgram.hpp</text>
</a>
</g>
</g>
<!-- Node1&#45;&gt;Node6 -->
<g id="edge6" class="edge"><title>Node1&#45;&gt;Node6</title>
<path fill="none" stroke="midnightblue" d="M260.459,-168.399C272.923,-159.129 289.197,-147.025 301.807,-137.647"/>
<polygon fill="midnightblue" stroke="midnightblue" points="303.924,-140.434 309.859,-131.658 299.747,-134.817 303.924,-140.434"/>
</g>
<!-- Node10 -->
<g id="node10" class="node"><title>Node10</title>
<g id="a_node10"><a xlink:href="../../d9/db7/ShaderProgramNames_8hpp.html" target="_top" xlink:title="ShaderProgramNames.hpp">
<polygon fill="none" stroke="black" points="391.5,-112.5 391.5,-131.5 525.5,-131.5 525.5,-112.5 391.5,-112.5"/>
<text text-anchor="middle" x="458.5" y="-119.5" font-family="Helvetica,sans-Serif" font-size="10.00">ShaderProgramNames.hpp</text>
</a>
</g>
</g>
<!-- Node1&#45;&gt;Node10 -->
<g id="edge12" class="edge"><title>Node1&#45;&gt;Node10</title>
<path fill="none" stroke="midnightblue" d="M292.651,-168.475C330.742,-158.03 382.066,-143.958 417.482,-134.247"/>
<polygon fill="midnightblue" stroke="midnightblue" points="418.758,-137.526 427.477,-131.506 416.907,-130.775 418.758,-137.526"/>
</g>
<!-- Node11 -->
<g id="node11" class="node"><title>Node11</title>
<g id="a_node11"><a xlink:href="../../d2/db1/ShaderLibrary_8hpp.html" target="_top" xlink:title="ShaderLibrary.hpp">
<polygon fill="none" stroke="black" points="118,-112.5 118,-131.5 213,-131.5 213,-112.5 118,-112.5"/>
<text text-anchor="middle" x="165.5" y="-119.5" font-family="Helvetica,sans-Serif" font-size="10.00">ShaderLibrary.hpp</text>
</a>
</g>
</g>
<!-- Node1&#45;&gt;Node11 -->
<g id="edge13" class="edge"><title>Node1&#45;&gt;Node11</title>
<path fill="none" stroke="midnightblue" d="M223.489,-168.399C211.762,-159.218 196.485,-147.258 184.555,-137.918"/>
<polygon fill="midnightblue" stroke="midnightblue" points="186.59,-135.066 176.559,-131.658 182.275,-140.578 186.59,-135.066"/>
</g>
<!-- Node3&#45;&gt;Node3 -->
<g id="edge5" class="edge"><title>Node3&#45;&gt;Node3</title>
<path fill="none" stroke="midnightblue" d="M54.0383,-75.5252C68.6731,-78.3079 83,-75.1328 83,-66 83,-59.0077 74.6018,-55.5077 64.0972,-55.5"/>
<polygon fill="midnightblue" stroke="midnightblue" points="63.6541,-52.0265 54.0383,-56.4748 64.3293,-58.9938 63.6541,-52.0265"/>
</g>
<!-- Node4 -->
<g id="node4" class="node"><title>Node4</title>
<polygon fill="none" stroke="#bfbfbf" points="159.5,-0.5 159.5,-19.5 203.5,-19.5 203.5,-0.5 159.5,-0.5"/>
<text text-anchor="middle" x="181.5" y="-7.5" font-family="Helvetica,sans-Serif" font-size="10.00">vector</text>
</g>
<!-- Node3&#45;&gt;Node4 -->
<g id="edge3" class="edge"><title>Node3&#45;&gt;Node4</title>
<path fill="none" stroke="midnightblue" d="M56.1095,-56.4435C81.3963,-47.2792 121.667,-32.6846 149.724,-22.5161"/>
<polygon fill="midnightblue" stroke="midnightblue" points="151.249,-25.6862 159.458,-18.9883 148.864,-19.1051 151.249,-25.6862"/>
</g>
<!-- Node5 -->
<g id="node5" class="node"><title>Node5</title>
<polygon fill="none" stroke="#bfbfbf" points="1.5,-0.5 1.5,-19.5 63.5,-19.5 63.5,-0.5 1.5,-0.5"/>
<text text-anchor="middle" x="32.5" y="-7.5" font-family="Helvetica,sans-Serif" font-size="10.00">Library.tpp</text>
</g>
<!-- Node3&#45;&gt;Node5 -->
<g id="edge4" class="edge"><title>Node3&#45;&gt;Node5</title>
<path fill="none" stroke="midnightblue" d="M32.5,-56.083C32.5,-49.0059 32.5,-38.8611 32.5,-29.9865"/>
<polygon fill="midnightblue" stroke="midnightblue" points="36.0001,-29.751 32.5,-19.7511 29.0001,-29.7511 36.0001,-29.751"/>
</g>
<!-- Node6&#45;&gt;Node2 -->
<g id="edge9" class="edge"><title>Node6&#45;&gt;Node2</title>
<path fill="none" stroke="midnightblue" d="M308.968,-112.324C296.914,-103.979 278.473,-91.2122 264.231,-81.3524"/>
<polygon fill="midnightblue" stroke="midnightblue" points="266.215,-78.469 256.001,-75.6545 262.231,-84.2243 266.215,-78.469"/>
</g>
<!-- Node6&#45;&gt;Node4 -->
<g id="edge8" class="edge"><title>Node6&#45;&gt;Node4</title>
<path fill="none" stroke="midnightblue" d="M333.825,-112.431C350.72,-99.6404 377.374,-75.0249 362.5,-56 344.376,-32.8179 260.751,-19.8703 213.769,-14.31"/>
<polygon fill="midnightblue" stroke="midnightblue" points="214.114,-10.8267 203.783,-13.174 213.323,-17.7819 214.114,-10.8267"/>
</g>
<!-- Node7 -->
<g id="node7" class="node"><title>Node7</title>
<polygon fill="none" stroke="#bfbfbf" points="409.5,-56.5 409.5,-75.5 479.5,-75.5 479.5,-56.5 409.5,-56.5"/>
<text text-anchor="middle" x="444.5" y="-63.5" font-family="Helvetica,sans-Serif" font-size="10.00">glm/glm.hpp</text>
</g>
<!-- Node6&#45;&gt;Node7 -->
<g id="edge7" class="edge"><title>Node6&#45;&gt;Node7</title>
<path fill="none" stroke="midnightblue" d="M340.99,-112.444C361.142,-103.596 392.823,-89.6875 415.831,-79.5865"/>
<polygon fill="midnightblue" stroke="midnightblue" points="417.352,-82.7411 425.101,-75.5164 414.538,-76.3316 417.352,-82.7411"/>
</g>
<!-- Node8 -->
<g id="node8" class="node"><title>Node8</title>
<g id="a_node8"><a xlink:href="../../d4/d6e/Shader_8hpp.html" target="_top" xlink:title="Shader.hpp">
<polygon fill="none" stroke="black" points="287.5,-56.5 287.5,-75.5 353.5,-75.5 353.5,-56.5 287.5,-56.5"/>
<text text-anchor="middle" x="320.5" y="-63.5" font-family="Helvetica,sans-Serif" font-size="10.00">Shader.hpp</text>
</a>
</g>
</g>
<!-- Node6&#45;&gt;Node8 -->
<g id="edge10" class="edge"><title>Node6&#45;&gt;Node8</title>
<path fill="none" stroke="midnightblue" d="M321.335,-112.083C321.204,-105.006 321.016,-94.8611 320.852,-85.9865"/>
<polygon fill="midnightblue" stroke="midnightblue" points="324.347,-85.6845 320.662,-75.7511 317.348,-85.8142 324.347,-85.6845"/>
</g>
<!-- Node9 -->
<g id="node9" class="node"><title>Node9</title>
<polygon fill="none" stroke="#bfbfbf" points="300,-0.5 300,-19.5 341,-19.5 341,-0.5 300,-0.5"/>
<text text-anchor="middle" x="320.5" y="-7.5" font-family="Helvetica,sans-Serif" font-size="10.00">string</text>
</g>
<!-- Node8&#45;&gt;Node9 -->
<g id="edge11" class="edge"><title>Node8&#45;&gt;Node9</title>
<path fill="none" stroke="midnightblue" d="M320.5,-56.083C320.5,-49.0059 320.5,-38.8611 320.5,-29.9865"/>
<polygon fill="midnightblue" stroke="midnightblue" points="324,-29.751 320.5,-19.7511 317,-29.7511 324,-29.751"/>
</g>
<!-- Node11&#45;&gt;Node2 -->
<g id="edge14" class="edge"><title>Node11&#45;&gt;Node2</title>
<path fill="none" stroke="midnightblue" d="M178.032,-112.324C190.086,-103.979 208.527,-91.2122 222.769,-81.3524"/>
<polygon fill="midnightblue" stroke="midnightblue" points="224.769,-84.2243 230.999,-75.6545 220.785,-78.469 224.769,-84.2243"/>
</g>
<!-- Node11&#45;&gt;Node3 -->
<g id="edge15" class="edge"><title>Node11&#45;&gt;Node3</title>
<path fill="none" stroke="midnightblue" d="M144.426,-112.444C122.44,-103.517 87.7657,-89.4387 62.8359,-79.3168"/>
<polygon fill="midnightblue" stroke="midnightblue" points="64.0578,-76.0355 53.4756,-75.5164 61.4244,-82.5213 64.0578,-76.0355"/>
</g>
<!-- Node11&#45;&gt;Node8 -->
<g id="edge16" class="edge"><title>Node11&#45;&gt;Node8</title>
<path fill="none" stroke="midnightblue" d="M190.06,-112.444C216.023,-103.399 257.168,-89.064 286.297,-78.9158"/>
<polygon fill="midnightblue" stroke="midnightblue" points="287.763,-82.1116 296.055,-75.5164 285.46,-75.5013 287.763,-82.1116"/>
</g>
<!-- Node12 -->
<g id="node12" class="node"><title>Node12</title>
<g id="a_node12"><a xlink:href="../../d2/dba/ShaderNames_8hpp.html" target="_top" xlink:title="ShaderNames.hpp">
<polygon fill="none" stroke="black" points="101.5,-56.5 101.5,-75.5 199.5,-75.5 199.5,-56.5 101.5,-56.5"/>
<text text-anchor="middle" x="150.5" y="-63.5" font-family="Helvetica,sans-Serif" font-size="10.00">ShaderNames.hpp</text>
</a>
</g>
</g>
<!-- Node11&#45;&gt;Node12 -->
<g id="edge17" class="edge"><title>Node11&#45;&gt;Node12</title>
<path fill="none" stroke="midnightblue" d="M163.023,-112.083C161.014,-104.849 158.114,-94.4087 155.61,-85.3968"/>
<polygon fill="midnightblue" stroke="midnightblue" points="158.98,-84.4495 152.931,-75.7511 152.235,-86.323 158.98,-84.4495"/>
</g>
</g>
</svg>
