<?xml version="1.0" encoding="UTF-8" standalone="no"?>
<!DOCTYPE svg PUBLIC "-//W3C//DTD SVG 1.1//EN"
 "http://www.w3.org/Graphics/SVG/1.1/DTD/svg11.dtd">
<!-- Generated by graphviz version 2.38.0 (20140413.2041)
 -->
<!-- Title: engine/GameObject/Model/Model.cpp Pages: 1 -->
<svg width="1004pt" height="375pt"
 viewBox="0.00 0.00 1003.95 375.00" xmlns="http://www.w3.org/2000/svg" xmlns:xlink="http://www.w3.org/1999/xlink">
<g id="graph0" class="graph" transform="scale(1 1) rotate(0) translate(4 371)">
<title>engine/GameObject/Model/Model.cpp</title>
<!-- Node1 -->
<g id="node1" class="node"><title>Node1</title>
<polygon fill="#bfbfbf" stroke="black" points="163.448,-336.5 163.448,-366.5 295.448,-366.5 295.448,-336.5 163.448,-336.5"/>
<text text-anchor="start" x="171.448" y="-354.5" font-family="Helvetica,sans-Serif" font-size="10.00">engine/GameObject/Model</text>
<text text-anchor="middle" x="229.448" y="-343.5" font-family="Helvetica,sans-Serif" font-size="10.00">/Model.cpp</text>
</g>
<!-- Node2 -->
<g id="node2" class="node"><title>Node2</title>
<g id="a_node2"><a xlink:href="../../df/d6e/Model_8hpp.html" target="_top" xlink:title="Model.hpp">
<polygon fill="none" stroke="black" points="198.448,-280.5 198.448,-299.5 260.448,-299.5 260.448,-280.5 198.448,-280.5"/>
<text text-anchor="middle" x="229.448" y="-287.5" font-family="Helvetica,sans-Serif" font-size="10.00">Model.hpp</text>
</a>
</g>
</g>
<!-- Node1&#45;&gt;Node2 -->
<g id="edge1" class="edge"><title>Node1&#45;&gt;Node2</title>
<path fill="none" stroke="midnightblue" d="M229.448,-336.399C229.448,-328.466 229.448,-318.458 229.448,-309.858"/>
<polygon fill="midnightblue" stroke="midnightblue" points="232.948,-309.658 229.448,-299.658 225.948,-309.658 232.948,-309.658"/>
</g>
<!-- Node17 -->
<g id="node17" class="node"><title>Node17</title>
<g id="a_node17"><a xlink:href="../../df/dfd/ShaderProgramManager_8hpp.html" target="_top" xlink:title="ShaderProgramManager.hpp">
<polygon fill="none" stroke="black" points="770.448,-168.5 770.448,-187.5 910.448,-187.5 910.448,-168.5 770.448,-168.5"/>
<text text-anchor="middle" x="840.448" y="-175.5" font-family="Helvetica,sans-Serif" font-size="10.00">ShaderProgramManager.hpp</text>
</a>
</g>
</g>
<!-- Node1&#45;&gt;Node17 -->
<g id="edge29" class="edge"><title>Node1&#45;&gt;Node17</title>
<path fill="none" stroke="midnightblue" d="M279.448,-336.465C397.62,-303.296 692.3,-220.583 800.114,-190.321"/>
<polygon fill="midnightblue" stroke="midnightblue" points="801.27,-193.632 809.952,-187.56 799.378,-186.892 801.27,-193.632"/>
</g>
<!-- Node20 -->
<g id="node20" class="node"><title>Node20</title>
<g id="a_node20"><a xlink:href="../../de/db3/BasicRenderer_8hpp.html" target="_top" xlink:title="BasicRenderer.hpp">
<polygon fill="none" stroke="black" points="55.4475,-224.5 55.4475,-243.5 155.448,-243.5 155.448,-224.5 55.4475,-224.5"/>
<text text-anchor="middle" x="105.448" y="-231.5" font-family="Helvetica,sans-Serif" font-size="10.00">BasicRenderer.hpp</text>
</a>
</g>
</g>
<!-- Node1&#45;&gt;Node20 -->
<g id="edge34" class="edge"><title>Node1&#45;&gt;Node20</title>
<path fill="none" stroke="midnightblue" d="M214.243,-336.337C190.885,-314.581 146.344,-273.093 122.128,-250.537"/>
<polygon fill="midnightblue" stroke="midnightblue" points="124.458,-247.924 114.755,-243.669 119.687,-253.046 124.458,-247.924"/>
</g>
<!-- Node3 -->
<g id="node3" class="node"><title>Node3</title>
<g id="a_node3"><a xlink:href="../../d4/db5/GameObject_8hpp.html" target="_top" xlink:title="GameObject.hpp">
<polygon fill="none" stroke="black" points="184.448,-224.5 184.448,-243.5 274.448,-243.5 274.448,-224.5 184.448,-224.5"/>
<text text-anchor="middle" x="229.448" y="-231.5" font-family="Helvetica,sans-Serif" font-size="10.00">GameObject.hpp</text>
</a>
</g>
</g>
<!-- Node2&#45;&gt;Node3 -->
<g id="edge2" class="edge"><title>Node2&#45;&gt;Node3</title>
<path fill="none" stroke="midnightblue" d="M229.448,-280.083C229.448,-273.006 229.448,-262.861 229.448,-253.986"/>
<polygon fill="midnightblue" stroke="midnightblue" points="232.948,-253.751 229.448,-243.751 225.948,-253.751 232.948,-253.751"/>
</g>
<!-- Node4 -->
<g id="node4" class="node"><title>Node4</title>
<polygon fill="none" stroke="#bfbfbf" points="147.448,-56.5 147.448,-75.5 217.448,-75.5 217.448,-56.5 147.448,-56.5"/>
<text text-anchor="middle" x="182.448" y="-63.5" font-family="Helvetica,sans-Serif" font-size="10.00">glm/glm.hpp</text>
</g>
<!-- Node3&#45;&gt;Node4 -->
<g id="edge3" class="edge"><title>Node3&#45;&gt;Node4</title>
<path fill="none" stroke="midnightblue" d="M184.234,-225.426C137.695,-217.012 68.9097,-202.67 46.4475,-188 20.1744,-170.841 13.5392,-161.713 3.44752,-132 0.58888,-123.583 -2.0182,-119.01 3.44752,-112 19.7388,-91.1062 89.6737,-78.4286 137.151,-72.0708"/>
<polygon fill="midnightblue" stroke="midnightblue" points="137.739,-75.5239 147.209,-70.7726 136.843,-68.5815 137.739,-75.5239"/>
</g>
<!-- Node5 -->
<g id="node5" class="node"><title>Node5</title>
<polygon fill="none" stroke="#bfbfbf" points="659.448,-56.5 659.448,-75.5 711.448,-75.5 711.448,-56.5 659.448,-56.5"/>
<text text-anchor="middle" x="685.448" y="-63.5" font-family="Helvetica,sans-Serif" font-size="10.00">memory</text>
</g>
<!-- Node3&#45;&gt;Node5 -->
<g id="edge4" class="edge"><title>Node3&#45;&gt;Node5</title>
<path fill="none" stroke="midnightblue" d="M274.773,-230.667C382.746,-224.021 649.855,-200.807 699.448,-132 709.333,-118.285 703.326,-98.9894 696.375,-84.9866"/>
<polygon fill="midnightblue" stroke="midnightblue" points="699.25,-82.9524 691.36,-75.8814 693.118,-86.3293 699.25,-82.9524"/>
</g>
<!-- Node6 -->
<g id="node6" class="node"><title>Node6</title>
<g id="a_node6"><a xlink:href="../../de/df7/worldparticles_8hpp.html" target="_top" xlink:title="wordparticles configuration file ">
<polygon fill="none" stroke="black" points="20.9475,-112.5 20.9475,-131.5 115.948,-131.5 115.948,-112.5 20.9475,-112.5"/>
<text text-anchor="middle" x="68.4475" y="-119.5" font-family="Helvetica,sans-Serif" font-size="10.00">worldparticles.hpp</text>
</a>
</g>
</g>
<!-- Node3&#45;&gt;Node6 -->
<g id="edge5" class="edge"><title>Node3&#45;&gt;Node6</title>
<path fill="none" stroke="midnightblue" d="M218.703,-224.45C202.509,-211.684 170.728,-187.1 142.448,-168 126.093,-156.955 107.057,-145.406 92.3878,-136.775"/>
<polygon fill="midnightblue" stroke="midnightblue" points="93.8515,-133.576 83.4507,-131.558 90.3226,-139.622 93.8515,-133.576"/>
</g>
<!-- Node7 -->
<g id="node7" class="node"><title>Node7</title>
<g id="a_node7"><a xlink:href="../../da/d83/Transform_8hpp.html" target="_top" xlink:title="Transform.hpp">
<polygon fill="none" stroke="black" points="189.448,-168.5 189.448,-187.5 269.448,-187.5 269.448,-168.5 189.448,-168.5"/>
<text text-anchor="middle" x="229.448" y="-175.5" font-family="Helvetica,sans-Serif" font-size="10.00">Transform.hpp</text>
</a>
</g>
</g>
<!-- Node3&#45;&gt;Node7 -->
<g id="edge6" class="edge"><title>Node3&#45;&gt;Node7</title>
<path fill="none" stroke="midnightblue" d="M229.448,-224.083C229.448,-217.006 229.448,-206.861 229.448,-197.986"/>
<polygon fill="midnightblue" stroke="midnightblue" points="232.948,-197.751 229.448,-187.751 225.948,-197.751 232.948,-197.751"/>
</g>
<!-- Node8 -->
<g id="node8" class="node"><title>Node8</title>
<g id="a_node8"><a xlink:href="../../d1/dca/IRenderer_8hpp.html" target="_top" xlink:title="IRenderer.hpp">
<polygon fill="none" stroke="black" points="55.4475,-168.5 55.4475,-187.5 133.448,-187.5 133.448,-168.5 55.4475,-168.5"/>
<text text-anchor="middle" x="94.4475" y="-175.5" font-family="Helvetica,sans-Serif" font-size="10.00">IRenderer.hpp</text>
</a>
</g>
</g>
<!-- Node3&#45;&gt;Node8 -->
<g id="edge8" class="edge"><title>Node3&#45;&gt;Node8</title>
<path fill="none" stroke="midnightblue" d="M208.056,-224.444C185.74,-215.517 150.544,-201.439 125.24,-191.317"/>
<polygon fill="midnightblue" stroke="midnightblue" points="126.323,-187.981 115.739,-187.516 123.723,-194.48 126.323,-187.981"/>
</g>
<!-- Node9 -->
<g id="node9" class="node"><title>Node9</title>
<g id="a_node9"><a xlink:href="../../d0/d70/Material_8hpp.html" target="_top" xlink:title="Material.hpp">
<polygon fill="none" stroke="black" points="452.448,-168.5 452.448,-187.5 522.448,-187.5 522.448,-168.5 452.448,-168.5"/>
<text text-anchor="middle" x="487.448" y="-175.5" font-family="Helvetica,sans-Serif" font-size="10.00">Material.hpp</text>
</a>
</g>
</g>
<!-- Node3&#45;&gt;Node9 -->
<g id="edge12" class="edge"><title>Node3&#45;&gt;Node9</title>
<path fill="none" stroke="midnightblue" d="M270.328,-224.444C317.155,-214.643 393.654,-198.631 442.227,-188.465"/>
<polygon fill="midnightblue" stroke="midnightblue" points="443.076,-191.863 452.147,-186.388 441.642,-185.011 443.076,-191.863"/>
</g>
<!-- Node14 -->
<g id="node14" class="node"><title>Node14</title>
<g id="a_node14"><a xlink:href="../../d1/d62/Mesh_8hpp.html" target="_top" xlink:title="Mesh.hpp">
<polygon fill="none" stroke="black" points="339.948,-168.5 339.948,-187.5 398.948,-187.5 398.948,-168.5 339.948,-168.5"/>
<text text-anchor="middle" x="369.448" y="-175.5" font-family="Helvetica,sans-Serif" font-size="10.00">Mesh.hpp</text>
</a>
</g>
</g>
<!-- Node3&#45;&gt;Node14 -->
<g id="edge21" class="edge"><title>Node3&#45;&gt;Node14</title>
<path fill="none" stroke="midnightblue" d="M251.631,-224.444C274.876,-215.478 311.596,-201.314 337.863,-191.183"/>
<polygon fill="midnightblue" stroke="midnightblue" points="339.297,-194.381 347.368,-187.516 336.778,-187.85 339.297,-194.381"/>
</g>
<!-- Node7&#45;&gt;Node4 -->
<g id="edge7" class="edge"><title>Node7&#45;&gt;Node4</title>
<path fill="none" stroke="midnightblue" d="M209.541,-168.41C195.223,-161.04 176.99,-148.916 168.448,-132 160.984,-117.22 166.279,-98.5963 172.379,-85.0764"/>
<polygon fill="midnightblue" stroke="midnightblue" points="175.637,-86.3873 177.002,-75.8807 169.383,-83.243 175.637,-86.3873"/>
</g>
<!-- Node8&#45;&gt;Node4 -->
<g id="edge9" class="edge"><title>Node8&#45;&gt;Node4</title>
<path fill="none" stroke="midnightblue" d="M66.7532,-168.459C35.7916,-157.462 -7.66067,-136.787 11.4475,-112 26.7376,-92.1657 91.9991,-79.3346 137.323,-72.6367"/>
<polygon fill="midnightblue" stroke="midnightblue" points="137.829,-76.1 147.234,-71.2218 136.84,-69.1702 137.829,-76.1"/>
</g>
<!-- Node8&#45;&gt;Node5 -->
<g id="edge10" class="edge"><title>Node8&#45;&gt;Node5</title>
<path fill="none" stroke="midnightblue" d="M133.819,-172.71C148.454,-171.16 165.203,-169.439 180.448,-168 275.472,-159.032 520.259,-168.509 608.448,-132 634.088,-121.385 657.516,-98.969 671.63,-83.4515"/>
<polygon fill="midnightblue" stroke="midnightblue" points="674.503,-85.4843 678.467,-75.6593 669.241,-80.8674 674.503,-85.4843"/>
</g>
<!-- Node8&#45;&gt;Node6 -->
<g id="edge11" class="edge"><title>Node8&#45;&gt;Node6</title>
<path fill="none" stroke="midnightblue" d="M90.1542,-168.083C86.5952,-160.691 81.425,-149.953 77.0232,-140.811"/>
<polygon fill="midnightblue" stroke="midnightblue" points="80.1527,-139.243 72.661,-131.751 73.8457,-142.279 80.1527,-139.243"/>
</g>
<!-- Node9&#45;&gt;Node4 -->
<g id="edge13" class="edge"><title>Node9&#45;&gt;Node4</title>
<path fill="none" stroke="midnightblue" d="M453.817,-168.435C423.845,-160.381 379.037,-147.294 341.448,-132 323.404,-124.659 320.263,-119.877 302.448,-112 274.368,-99.5843 241.694,-87.4789 217.537,-78.9565"/>
<polygon fill="midnightblue" stroke="midnightblue" points="218.667,-75.6436 208.072,-75.6465 216.356,-82.2513 218.667,-75.6436"/>
</g>
<!-- Node9&#45;&gt;Node5 -->
<g id="edge14" class="edge"><title>Node9&#45;&gt;Node5</title>
<path fill="none" stroke="midnightblue" d="M522.63,-173.715C572.572,-168.27 660.225,-155.563 680.448,-132 691.149,-119.53 691.321,-100.298 689.464,-85.984"/>
<polygon fill="midnightblue" stroke="midnightblue" points="692.853,-85.041 687.702,-75.7825 685.955,-86.2322 692.853,-85.041"/>
</g>
<!-- Node10 -->
<g id="node10" class="node"><title>Node10</title>
<g id="a_node10"><a xlink:href="../../dc/ddb/ShaderProgram_8hpp.html" target="_top" xlink:title="ShaderProgram.hpp">
<polygon fill="none" stroke="black" points="496.948,-112.5 496.948,-131.5 599.948,-131.5 599.948,-112.5 496.948,-112.5"/>
<text text-anchor="middle" x="548.448" y="-119.5" font-family="Helvetica,sans-Serif" font-size="10.00">ShaderProgram.hpp</text>
</a>
</g>
</g>
<!-- Node9&#45;&gt;Node10 -->
<g id="edge15" class="edge"><title>Node9&#45;&gt;Node10</title>
<path fill="none" stroke="midnightblue" d="M497.248,-168.324C506.266,-160.341 519.853,-148.313 530.766,-138.653"/>
<polygon fill="midnightblue" stroke="midnightblue" points="533.301,-141.083 538.468,-131.834 528.661,-135.842 533.301,-141.083"/>
</g>
<!-- Node10&#45;&gt;Node4 -->
<g id="edge16" class="edge"><title>Node10&#45;&gt;Node4</title>
<path fill="none" stroke="midnightblue" d="M496.785,-113.378C424.907,-102.773 295.895,-83.7382 227.643,-73.6682"/>
<polygon fill="midnightblue" stroke="midnightblue" points="228.032,-70.1878 217.629,-72.1907 227.011,-77.1129 228.032,-70.1878"/>
</g>
<!-- Node10&#45;&gt;Node5 -->
<g id="edge18" class="edge"><title>Node10&#45;&gt;Node5</title>
<path fill="none" stroke="midnightblue" d="M570.156,-112.444C592.802,-103.517 628.52,-89.4387 654.199,-79.3168"/>
<polygon fill="midnightblue" stroke="midnightblue" points="655.821,-82.4397 663.841,-75.5164 653.254,-75.9273 655.821,-82.4397"/>
</g>
<!-- Node11 -->
<g id="node11" class="node"><title>Node11</title>
<polygon fill="none" stroke="#bfbfbf" points="446.448,-56.5 446.448,-75.5 490.448,-75.5 490.448,-56.5 446.448,-56.5"/>
<text text-anchor="middle" x="468.448" y="-63.5" font-family="Helvetica,sans-Serif" font-size="10.00">vector</text>
</g>
<!-- Node10&#45;&gt;Node11 -->
<g id="edge17" class="edge"><title>Node10&#45;&gt;Node11</title>
<path fill="none" stroke="midnightblue" d="M535.594,-112.324C523.231,-103.979 504.317,-91.2122 489.71,-81.3524"/>
<polygon fill="midnightblue" stroke="midnightblue" points="491.516,-78.3483 481.269,-75.6545 487.599,-84.1503 491.516,-78.3483"/>
</g>
<!-- Node12 -->
<g id="node12" class="node"><title>Node12</title>
<g id="a_node12"><a xlink:href="../../d4/d6e/Shader_8hpp.html" target="_top" xlink:title="Shader.hpp">
<polygon fill="none" stroke="black" points="515.448,-56.5 515.448,-75.5 581.448,-75.5 581.448,-56.5 515.448,-56.5"/>
<text text-anchor="middle" x="548.448" y="-63.5" font-family="Helvetica,sans-Serif" font-size="10.00">Shader.hpp</text>
</a>
</g>
</g>
<!-- Node10&#45;&gt;Node12 -->
<g id="edge19" class="edge"><title>Node10&#45;&gt;Node12</title>
<path fill="none" stroke="midnightblue" d="M548.448,-112.083C548.448,-105.006 548.448,-94.8611 548.448,-85.9865"/>
<polygon fill="midnightblue" stroke="midnightblue" points="551.948,-85.751 548.448,-75.7511 544.948,-85.7511 551.948,-85.751"/>
</g>
<!-- Node13 -->
<g id="node13" class="node"><title>Node13</title>
<polygon fill="none" stroke="#bfbfbf" points="527.948,-0.5 527.948,-19.5 568.948,-19.5 568.948,-0.5 527.948,-0.5"/>
<text text-anchor="middle" x="548.448" y="-7.5" font-family="Helvetica,sans-Serif" font-size="10.00">string</text>
</g>
<!-- Node12&#45;&gt;Node13 -->
<g id="edge20" class="edge"><title>Node12&#45;&gt;Node13</title>
<path fill="none" stroke="midnightblue" d="M548.448,-56.083C548.448,-49.0059 548.448,-38.8611 548.448,-29.9865"/>
<polygon fill="midnightblue" stroke="midnightblue" points="551.948,-29.751 548.448,-19.7511 544.948,-29.7511 551.948,-29.751"/>
</g>
<!-- Node14&#45;&gt;Node4 -->
<g id="edge24" class="edge"><title>Node14&#45;&gt;Node4</title>
<path fill="none" stroke="midnightblue" d="M339.669,-172.595C296.879,-165.688 220.988,-151.102 201.448,-132 189.241,-120.068 184.769,-100.763 183.184,-86.286"/>
<polygon fill="midnightblue" stroke="midnightblue" points="186.649,-85.6669 182.44,-75.9441 179.667,-86.1696 186.649,-85.6669"/>
</g>
<!-- Node14&#45;&gt;Node5 -->
<g id="edge23" class="edge"><title>Node14&#45;&gt;Node5</title>
<path fill="none" stroke="midnightblue" d="M399.031,-173.479C465.446,-165.38 622.189,-145.124 642.448,-132 659.609,-120.882 671.494,-100.239 678.351,-85.1908"/>
<polygon fill="midnightblue" stroke="midnightblue" points="681.629,-86.4264 682.298,-75.8527 675.181,-83.7008 681.629,-86.4264"/>
</g>
<!-- Node14&#45;&gt;Node11 -->
<g id="edge22" class="edge"><title>Node14&#45;&gt;Node11</title>
<path fill="none" stroke="midnightblue" d="M395.29,-168.414C412.945,-161.288 435.569,-149.467 449.448,-132 460.066,-118.635 464.752,-99.5228 466.818,-85.4809"/>
<polygon fill="midnightblue" stroke="midnightblue" points="470.299,-85.8507 467.978,-75.5133 463.346,-85.042 470.299,-85.8507"/>
</g>
<!-- Node15 -->
<g id="node15" class="node"><title>Node15</title>
<polygon fill="none" stroke="#bfbfbf" points="210.948,-112.5 210.948,-131.5 293.948,-131.5 293.948,-112.5 210.948,-112.5"/>
<text text-anchor="middle" x="252.448" y="-119.5" font-family="Helvetica,sans-Serif" font-size="10.00">assimp/mesh.h</text>
</g>
<!-- Node14&#45;&gt;Node15 -->
<g id="edge25" class="edge"><title>Node14&#45;&gt;Node15</title>
<path fill="none" stroke="midnightblue" d="M350.909,-168.444C331.825,-159.636 301.873,-145.812 280.012,-135.722"/>
<polygon fill="midnightblue" stroke="midnightblue" points="281.446,-132.529 270.9,-131.516 278.513,-138.885 281.446,-132.529"/>
</g>
<!-- Node16 -->
<g id="node16" class="node"><title>Node16</title>
<g id="a_node16"><a xlink:href="../../da/d04/BufferObject_8hpp.html" target="_top" xlink:title="BufferObject.hpp">
<polygon fill="none" stroke="black" points="350.448,-112.5 350.448,-131.5 440.448,-131.5 440.448,-112.5 350.448,-112.5"/>
<text text-anchor="middle" x="395.448" y="-119.5" font-family="Helvetica,sans-Serif" font-size="10.00">BufferObject.hpp</text>
</a>
</g>
</g>
<!-- Node14&#45;&gt;Node16 -->
<g id="edge26" class="edge"><title>Node14&#45;&gt;Node16</title>
<path fill="none" stroke="midnightblue" d="M373.741,-168.083C377.3,-160.691 382.47,-149.953 386.872,-140.811"/>
<polygon fill="midnightblue" stroke="midnightblue" points="390.049,-142.279 391.234,-131.751 383.742,-139.243 390.049,-142.279"/>
</g>
<!-- Node16&#45;&gt;Node4 -->
<g id="edge28" class="edge"><title>Node16&#45;&gt;Node4</title>
<path fill="none" stroke="midnightblue" d="M361.697,-112.444C324.929,-103.122 266.002,-88.1828 225.825,-77.9972"/>
<polygon fill="midnightblue" stroke="midnightblue" points="226.594,-74.5813 216.04,-75.5164 224.873,-81.3666 226.594,-74.5813"/>
</g>
<!-- Node16&#45;&gt;Node11 -->
<g id="edge27" class="edge"><title>Node16&#45;&gt;Node11</title>
<path fill="none" stroke="midnightblue" d="M407.176,-112.324C418.285,-104.107 435.19,-91.6017 448.431,-81.8069"/>
<polygon fill="midnightblue" stroke="midnightblue" points="450.547,-84.5948 456.505,-75.8339 446.384,-78.9671 450.547,-84.5948"/>
</g>
<!-- Node17&#45;&gt;Node5 -->
<g id="edge31" class="edge"><title>Node17&#45;&gt;Node5</title>
<path fill="none" stroke="midnightblue" d="M830.078,-168.467C814.448,-155.724 783.771,-131.167 756.448,-112 740.767,-101 722.502,-89.4507 708.425,-80.8069"/>
<polygon fill="midnightblue" stroke="midnightblue" points="710.209,-77.7954 699.848,-75.5811 706.567,-83.7732 710.209,-77.7954"/>
</g>
<!-- Node17&#45;&gt;Node10 -->
<g id="edge32" class="edge"><title>Node17&#45;&gt;Node10</title>
<path fill="none" stroke="midnightblue" d="M794.179,-168.444C742.707,-158.925 659.555,-143.547 604.449,-133.356"/>
<polygon fill="midnightblue" stroke="midnightblue" points="604.969,-129.893 594.499,-131.516 603.696,-136.777 604.969,-129.893"/>
</g>
<!-- Node18 -->
<g id="node18" class="node"><title>Node18</title>
<polygon fill="none" stroke="#bfbfbf" points="960.948,-112.5 960.948,-131.5 995.948,-131.5 995.948,-112.5 960.948,-112.5"/>
<text text-anchor="middle" x="978.448" y="-119.5" font-family="Helvetica,sans-Serif" font-size="10.00">map</text>
</g>
<!-- Node17&#45;&gt;Node18 -->
<g id="edge30" class="edge"><title>Node17&#45;&gt;Node18</title>
<path fill="none" stroke="midnightblue" d="M862.314,-168.444C886.334,-159.045 924.95,-143.934 950.991,-133.744"/>
<polygon fill="midnightblue" stroke="midnightblue" points="952.596,-136.874 960.633,-129.971 950.045,-130.356 952.596,-136.874"/>
</g>
<!-- Node19 -->
<g id="node19" class="node"><title>Node19</title>
<g id="a_node19"><a xlink:href="../../d9/db7/ShaderProgramNames_8hpp.html" target="_top" xlink:title="ShaderProgramNames.hpp">
<polygon fill="none" stroke="black" points="808.448,-112.5 808.448,-131.5 942.448,-131.5 942.448,-112.5 808.448,-112.5"/>
<text text-anchor="middle" x="875.448" y="-119.5" font-family="Helvetica,sans-Serif" font-size="10.00">ShaderProgramNames.hpp</text>
</a>
</g>
</g>
<!-- Node17&#45;&gt;Node19 -->
<g id="edge33" class="edge"><title>Node17&#45;&gt;Node19</title>
<path fill="none" stroke="midnightblue" d="M846.227,-168.083C851.12,-160.534 858.275,-149.495 864.28,-140.23"/>
<polygon fill="midnightblue" stroke="midnightblue" points="867.274,-142.046 869.776,-131.751 861.399,-138.239 867.274,-142.046"/>
</g>
<!-- Node20&#45;&gt;Node8 -->
<g id="edge35" class="edge"><title>Node20&#45;&gt;Node8</title>
<path fill="none" stroke="midnightblue" d="M103.631,-224.083C102.173,-216.927 100.077,-206.635 98.255,-197.691"/>
<polygon fill="midnightblue" stroke="midnightblue" points="101.656,-196.851 96.2302,-187.751 94.7967,-198.248 101.656,-196.851"/>
</g>
</g>
</svg>
