<?xml version="1.0" encoding="UTF-8" standalone="no"?>
<!DOCTYPE svg PUBLIC "-//W3C//DTD SVG 1.1//EN"
 "http://www.w3.org/Graphics/SVG/1.1/DTD/svg11.dtd">
<!-- Generated by graphviz version 2.38.0 (20140413.2041)
 -->
<!-- Title: worldparticles.hpp Pages: 1 -->
<svg width="1255pt" height="274pt"
 viewBox="0.00 0.00 1255.00 274.00" xmlns="http://www.w3.org/2000/svg" xmlns:xlink="http://www.w3.org/1999/xlink">
<g id="graph0" class="graph" transform="scale(1 1) rotate(0) translate(4 270)">
<title>worldparticles.hpp</title>
<!-- Node1 -->
<g id="node1" class="node"><title>Node1</title>
<polygon fill="#bfbfbf" stroke="black" points="1063.5,-246.5 1063.5,-265.5 1158.5,-265.5 1158.5,-246.5 1063.5,-246.5"/>
<text text-anchor="middle" x="1111" y="-253.5" font-family="Helvetica,sans-Serif" font-size="10.00">worldparticles.hpp</text>
</g>
<!-- Node2 -->
<g id="node2" class="node"><title>Node2</title>
<g id="a_node2"><a xlink:href="../../d4/d1c/GameEngine_8hpp.html" target="_top" xlink:title="engine/GameEngine/GameEngine.hpp">
<polygon fill="none" stroke="black" points="781,-185 781,-204 963,-204 963,-185 781,-185"/>
<text text-anchor="middle" x="872" y="-192" font-family="Helvetica,sans-Serif" font-size="10.00">engine/GameEngine/GameEngine.hpp</text>
</a>
</g>
</g>
<!-- Node1&#45;&gt;Node2 -->
<g id="edge1" class="edge"><title>Node1&#45;&gt;Node2</title>
<path fill="none" stroke="midnightblue" d="M1066.98,-244.041C1020.58,-232.49 948.478,-214.539 906.179,-204.009"/>
<polygon fill="midnightblue" stroke="midnightblue" points="1066.21,-247.456 1076.76,-246.475 1067.9,-240.663 1066.21,-247.456"/>
</g>
<!-- Node13 -->
<g id="node13" class="node"><title>Node13</title>
<g id="a_node13"><a xlink:href="../../df/d0a/main_8cpp.html" target="_top" xlink:title="TODO. ">
<polygon fill="none" stroke="black" points="1026,-0.5 1026,-19.5 1082,-19.5 1082,-0.5 1026,-0.5"/>
<text text-anchor="middle" x="1054" y="-7.5" font-family="Helvetica,sans-Serif" font-size="10.00">main.cpp</text>
</a>
</g>
</g>
<!-- Node1&#45;&gt;Node13 -->
<g id="edge16" class="edge"><title>Node1&#45;&gt;Node13</title>
<path fill="none" stroke="midnightblue" d="M1112.83,-236.051C1115.58,-199.581 1117.99,-117.773 1092,-56 1085.81,-41.2966 1073.06,-27.8028 1064.03,-19.5043"/>
<polygon fill="midnightblue" stroke="midnightblue" points="1109.32,-235.954 1111.96,-246.216 1116.3,-236.551 1109.32,-235.954"/>
</g>
<!-- Node15 -->
<g id="node15" class="node"><title>Node15</title>
<g id="a_node15"><a xlink:href="../../d8/df3/ShaderLibrary_8cpp.html" target="_top" xlink:title="engine/ShaderLibrary\l/ShaderLibrary.cpp">
<polygon fill="none" stroke="black" points="1139,-179.5 1139,-209.5 1247,-209.5 1247,-179.5 1139,-179.5"/>
<text text-anchor="start" x="1147" y="-197.5" font-family="Helvetica,sans-Serif" font-size="10.00">engine/ShaderLibrary</text>
<text text-anchor="middle" x="1193" y="-186.5" font-family="Helvetica,sans-Serif" font-size="10.00">/ShaderLibrary.cpp</text>
</a>
</g>
</g>
<!-- Node1&#45;&gt;Node15 -->
<g id="edge15" class="edge"><title>Node1&#45;&gt;Node15</title>
<path fill="none" stroke="midnightblue" d="M1131.03,-240.468C1144.01,-231.047 1160.83,-218.841 1173.67,-209.523"/>
<polygon fill="midnightblue" stroke="midnightblue" points="1128.79,-237.769 1122.75,-246.475 1132.9,-243.435 1128.79,-237.769"/>
</g>
<!-- Node3 -->
<g id="node3" class="node"><title>Node3</title>
<g id="a_node3"><a xlink:href="../../dd/d98/GameEngine_8cpp.html" target="_top" xlink:title="engine/GameEngine/GameEngine.cpp">
<polygon fill="none" stroke="black" points="424,-123.5 424,-142.5 606,-142.5 606,-123.5 424,-123.5"/>
<text text-anchor="middle" x="515" y="-130.5" font-family="Helvetica,sans-Serif" font-size="10.00">engine/GameEngine/GameEngine.cpp</text>
</a>
</g>
</g>
<!-- Node2&#45;&gt;Node3 -->
<g id="edge2" class="edge"><title>Node2&#45;&gt;Node3</title>
<path fill="none" stroke="midnightblue" d="M810.98,-183.33C741.931,-171.822 630.693,-153.282 566.055,-142.509"/>
<polygon fill="midnightblue" stroke="midnightblue" points="810.411,-186.783 820.851,-184.975 811.562,-179.879 810.411,-186.783"/>
</g>
<!-- Node4 -->
<g id="node4" class="node"><title>Node4</title>
<g id="a_node4"><a xlink:href="../../d0/d5e/glwindow_8hpp.html" target="_top" xlink:title="window/glwindow.hpp">
<polygon fill="none" stroke="black" points="624,-123.5 624,-142.5 736,-142.5 736,-123.5 624,-123.5"/>
<text text-anchor="middle" x="680" y="-130.5" font-family="Helvetica,sans-Serif" font-size="10.00">window/glwindow.hpp</text>
</a>
</g>
</g>
<!-- Node2&#45;&gt;Node4 -->
<g id="edge3" class="edge"><title>Node2&#45;&gt;Node4</title>
<path fill="none" stroke="midnightblue" d="M834.505,-181.881C797.185,-170.315 740.797,-152.841 707.458,-142.509"/>
<polygon fill="midnightblue" stroke="midnightblue" points="833.903,-185.358 844.491,-184.975 835.975,-178.672 833.903,-185.358"/>
</g>
<!-- Node11 -->
<g id="node11" class="node"><title>Node11</title>
<g id="a_node11"><a xlink:href="../../d3/d1f/glwindow_8cpp.html" target="_top" xlink:title="window/glwindow.cpp">
<polygon fill="none" stroke="black" points="971,-62 971,-81 1083,-81 1083,-62 971,-62"/>
<text text-anchor="middle" x="1027" y="-69" font-family="Helvetica,sans-Serif" font-size="10.00">window/glwindow.cpp</text>
</a>
</g>
</g>
<!-- Node2&#45;&gt;Node11 -->
<g id="edge14" class="edge"><title>Node2&#45;&gt;Node11</title>
<path fill="none" stroke="midnightblue" d="M891.084,-178.602C923.851,-153.023 989.803,-101.537 1015.95,-81.1232"/>
<polygon fill="midnightblue" stroke="midnightblue" points="888.876,-175.886 883.147,-184.798 893.184,-181.403 888.876,-175.886"/>
</g>
<!-- Node5 -->
<g id="node5" class="node"><title>Node5</title>
<g id="a_node5"><a xlink:href="../../d8/d49/ArrayObject_8cpp.html" target="_top" xlink:title="engine/ArrayObject\l/ArrayObject.cpp">
<polygon fill="none" stroke="black" points="0,-56.5 0,-86.5 100,-86.5 100,-56.5 0,-56.5"/>
<text text-anchor="start" x="8" y="-74.5" font-family="Helvetica,sans-Serif" font-size="10.00">engine/ArrayObject</text>
<text text-anchor="middle" x="50" y="-63.5" font-family="Helvetica,sans-Serif" font-size="10.00">/ArrayObject.cpp</text>
</a>
</g>
</g>
<!-- Node4&#45;&gt;Node5 -->
<g id="edge4" class="edge"><title>Node4&#45;&gt;Node5</title>
<path fill="none" stroke="midnightblue" d="M613.534,-122.921C389.003,-100.173 328.457,-121.517 109,-87 106.082,-86.5411 103.097,-86.0092 100.094,-85.4256"/>
<polygon fill="midnightblue" stroke="midnightblue" points="613.351,-126.421 623.658,-123.965 614.07,-119.458 613.351,-126.421"/>
</g>
<!-- Node6 -->
<g id="node6" class="node"><title>Node6</title>
<g id="a_node6"><a xlink:href="../../db/d2b/BufferObject_8cpp.html" target="_top" xlink:title="engine/BufferObject\l/BufferObject.cpp">
<polygon fill="none" stroke="black" points="118.5,-56.5 118.5,-86.5 221.5,-86.5 221.5,-56.5 118.5,-56.5"/>
<text text-anchor="start" x="126.5" y="-74.5" font-family="Helvetica,sans-Serif" font-size="10.00">engine/BufferObject</text>
<text text-anchor="middle" x="170" y="-63.5" font-family="Helvetica,sans-Serif" font-size="10.00">/BufferObject.cpp</text>
</a>
</g>
</g>
<!-- Node4&#45;&gt;Node6 -->
<g id="edge5" class="edge"><title>Node4&#45;&gt;Node6</title>
<path fill="none" stroke="midnightblue" d="M613.572,-122.889C442.984,-103.669 396.91,-114.358 231,-87 227.993,-86.5041 224.914,-85.9432 221.814,-85.3375"/>
<polygon fill="midnightblue" stroke="midnightblue" points="613.316,-126.383 623.649,-124.043 614.112,-119.428 613.316,-126.383"/>
</g>
<!-- Node7 -->
<g id="node7" class="node"><title>Node7</title>
<g id="a_node7"><a xlink:href="../../d2/dcc/Mesh_8cpp.html" target="_top" xlink:title="engine/Mesh/Mesh.cpp">
<polygon fill="none" stroke="black" points="240,-62 240,-81 358,-81 358,-62 240,-62"/>
<text text-anchor="middle" x="299" y="-69" font-family="Helvetica,sans-Serif" font-size="10.00">engine/Mesh/Mesh.cpp</text>
</a>
</g>
</g>
<!-- Node4&#45;&gt;Node7 -->
<g id="edge6" class="edge"><title>Node4&#45;&gt;Node7</title>
<path fill="none" stroke="midnightblue" d="M613.811,-122.726C529.191,-110.833 390.728,-91.2306 367,-87 357.137,-85.2414 346.521,-83.099 336.678,-81.0064"/>
<polygon fill="midnightblue" stroke="midnightblue" points="613.462,-126.212 623.852,-124.137 614.436,-119.28 613.462,-126.212"/>
</g>
<!-- Node8 -->
<g id="node8" class="node"><title>Node8</title>
<g id="a_node8"><a xlink:href="../../d3/d28/Renderer_8cpp.html" target="_top" xlink:title="engine/Renderer/Renderer.cpp">
<polygon fill="none" stroke="black" points="376.5,-62 376.5,-81 525.5,-81 525.5,-62 376.5,-62"/>
<text text-anchor="middle" x="451" y="-69" font-family="Helvetica,sans-Serif" font-size="10.00">engine/Renderer/Renderer.cpp</text>
</a>
</g>
</g>
<!-- Node4&#45;&gt;Node8 -->
<g id="edge7" class="edge"><title>Node4&#45;&gt;Node8</title>
<path fill="none" stroke="midnightblue" d="M637.262,-120.896C592.786,-109.34 524.108,-91.4952 483.749,-81.0091"/>
<polygon fill="midnightblue" stroke="midnightblue" points="636.631,-124.348 647.19,-123.475 638.391,-117.573 636.631,-124.348"/>
</g>
<!-- Node9 -->
<g id="node9" class="node"><title>Node9</title>
<g id="a_node9"><a xlink:href="../../dd/d84/Shader_8cpp.html" target="_top" xlink:title="engine/Shader/Shader.cpp">
<polygon fill="none" stroke="black" points="543.5,-62 543.5,-81 674.5,-81 674.5,-62 543.5,-62"/>
<text text-anchor="middle" x="609" y="-69" font-family="Helvetica,sans-Serif" font-size="10.00">engine/Shader/Shader.cpp</text>
</a>
</g>
</g>
<!-- Node4&#45;&gt;Node9 -->
<g id="edge8" class="edge"><title>Node4&#45;&gt;Node9</title>
<path fill="none" stroke="midnightblue" d="M662.068,-116.973C648.489,-105.593 630.323,-90.3694 619.154,-81.0091"/>
<polygon fill="midnightblue" stroke="midnightblue" points="659.915,-119.735 669.827,-123.475 664.411,-114.369 659.915,-119.735"/>
</g>
<!-- Node10 -->
<g id="node10" class="node"><title>Node10</title>
<g id="a_node10"><a xlink:href="../../de/d34/ShaderProgram_8cpp.html" target="_top" xlink:title="engine/ShaderProgram\l/ShaderProgram.cpp">
<polygon fill="none" stroke="black" points="693,-56.5 693,-86.5 809,-86.5 809,-56.5 693,-56.5"/>
<text text-anchor="start" x="701" y="-74.5" font-family="Helvetica,sans-Serif" font-size="10.00">engine/ShaderProgram</text>
<text text-anchor="middle" x="751" y="-63.5" font-family="Helvetica,sans-Serif" font-size="10.00">/ShaderProgram.cpp</text>
</a>
</g>
</g>
<!-- Node4&#45;&gt;Node10 -->
<g id="edge9" class="edge"><title>Node4&#45;&gt;Node10</title>
<path fill="none" stroke="midnightblue" d="M697.993,-116.921C709.141,-107.579 723.362,-95.6616 734.267,-86.523"/>
<polygon fill="midnightblue" stroke="midnightblue" points="695.589,-114.369 690.173,-123.475 700.085,-119.735 695.589,-114.369"/>
</g>
<!-- Node4&#45;&gt;Node11 -->
<g id="edge10" class="edge"><title>Node4&#45;&gt;Node11</title>
<path fill="none" stroke="midnightblue" d="M746.118,-122.508C803.18,-114.055 887.735,-100.903 961,-87 970.451,-85.2066 980.619,-83.0743 990.075,-81.0044"/>
<polygon fill="midnightblue" stroke="midnightblue" points="745.528,-119.057 736.146,-123.979 746.549,-125.982 745.528,-119.057"/>
</g>
<!-- Node12 -->
<g id="node12" class="node"><title>Node12</title>
<g id="a_node12"><a xlink:href="../../df/d50/mainwindow_8hpp.html" target="_top" xlink:title="window/mainwindow.hpp">
<polygon fill="none" stroke="black" points="827.5,-62 827.5,-81 952.5,-81 952.5,-62 827.5,-62"/>
<text text-anchor="middle" x="890" y="-69" font-family="Helvetica,sans-Serif" font-size="10.00">window/mainwindow.hpp</text>
</a>
</g>
</g>
<!-- Node4&#45;&gt;Node12 -->
<g id="edge11" class="edge"><title>Node4&#45;&gt;Node12</title>
<path fill="none" stroke="midnightblue" d="M719.968,-120.676C760.773,-109.114 823.192,-91.429 859.968,-81.0091"/>
<polygon fill="midnightblue" stroke="midnightblue" points="718.755,-117.382 710.088,-123.475 720.663,-124.116 718.755,-117.382"/>
</g>
<!-- Node12&#45;&gt;Node13 -->
<g id="edge12" class="edge"><title>Node12&#45;&gt;Node13</title>
<path fill="none" stroke="midnightblue" d="M923.261,-58.4329C955.136,-46.8683 1002.43,-29.7083 1030.55,-19.5091"/>
<polygon fill="midnightblue" stroke="midnightblue" points="921.704,-55.2744 913.497,-61.9751 924.091,-61.8547 921.704,-55.2744"/>
</g>
<!-- Node14 -->
<g id="node14" class="node"><title>Node14</title>
<g id="a_node14"><a xlink:href="../../d8/dd9/mainwindow_8cpp.html" target="_top" xlink:title="window/mainwindow.cpp">
<polygon fill="none" stroke="black" points="827.5,-0.5 827.5,-19.5 952.5,-19.5 952.5,-0.5 827.5,-0.5"/>
<text text-anchor="middle" x="890" y="-7.5" font-family="Helvetica,sans-Serif" font-size="10.00">window/mainwindow.cpp</text>
</a>
</g>
</g>
<!-- Node12&#45;&gt;Node14 -->
<g id="edge13" class="edge"><title>Node12&#45;&gt;Node14</title>
<path fill="none" stroke="midnightblue" d="M890,-51.8165C890,-40.9962 890,-27.898 890,-19.5091"/>
<polygon fill="midnightblue" stroke="midnightblue" points="886.5,-51.9751 890,-61.9751 893.5,-51.9751 886.5,-51.9751"/>
</g>
</g>
</svg>
