<?xml version="1.0" encoding="UTF-8" standalone="no"?>
<!DOCTYPE svg PUBLIC "-//W3C//DTD SVG 1.1//EN"
 "http://www.w3.org/Graphics/SVG/1.1/DTD/svg11.dtd">
<!-- Generated by graphviz version 2.38.0 (20140413.2041)
 -->
<!-- Title: worldparticles.hpp Pages: 1 -->
<!--zoomable 542 -->
<svg id="main" version="1.1" xmlns="http://www.w3.org/2000/svg" xmlns:xlink="http://www.w3.org/1999/xlink" xml:space="preserve" onload="init(evt)">
<style type="text/css"><![CDATA[
.edge:hover path { stroke: red; }
.edge:hover polygon { stroke: red; fill: red; }
]]></style>
<script type="text/javascript"><![CDATA[
var edges = document.getElementsByTagName('g');
if (edges && edges.length) {
  for (var i=0;i<edges.length;i++) {
    if (edges[i].id.substr(0,4)=='edge') {
      edges[i].setAttribute('class','edge');
    }
  }
}
]]></script>
        <defs>
                <circle id="rim" cx="0" cy="0" r="7"/>
                <circle id="rim2" cx="0" cy="0" r="3.5"/>
                <g id="zoomPlus">
                        <use xlink:href="#rim" fill="#404040">
                                <set attributeName="fill" to="#808080" begin="zoomplus.mouseover" end="zoomplus.mouseout"/>
                        </use>
                        <path d="M-4,0h8M0,-4v8" fill="none" stroke="white" stroke-width="1.5" pointer-events="none"/>
                </g>
                <g id="zoomMin">
                        <use xlink:href="#rim" fill="#404040">
                                <set attributeName="fill" to="#808080" begin="zoomminus.mouseover" end="zoomminus.mouseout"/>
                        </use>
                        <path d="M-4,0h8" fill="none" stroke="white" stroke-width="1.5" pointer-events="none"/>
                </g>
                <g id="dirArrow">
                        <path fill="none" stroke="white" stroke-width="1.5" d="M0,-3.0v7 M-2.5,-0.5L0,-3.0L2.5,-0.5"/>
                </g>
               <g id="resetDef">
                       <use xlink:href="#rim2" fill="#404040">
                               <set attributeName="fill" to="#808080" begin="reset.mouseover" end="reset.mouseout"/>
                       </use>
               </g>
        </defs>

<script type="text/javascript">
var viewWidth = 1631;
var viewHeight = 542;
var sectionId = 'dynsection-0';
</script>
<script xlink:href="../../svgpan.js"/>
<svg id="graph" class="graph">
<g id="viewport">
<title>worldparticles.hpp</title>
<!-- Node1 -->
<g id="node1" class="node"><title>Node1</title>
<polygon fill="#bfbfbf" stroke="black" points="1278.5,-514.5 1278.5,-533.5 1373.5,-533.5 1373.5,-514.5 1278.5,-514.5"/>
<text text-anchor="middle" x="1326" y="-521.5" font-family="Helvetica,sans-Serif" font-size="10.00">worldparticles.hpp</text>
</g>
<!-- Node2 -->
<g id="node2" class="node"><title>Node2</title>
<g id="a_node2"><a xlink:href="../../d4/d1c/GameEngine_8hpp.html" target="_top" xlink:title="engine/GameEngine/GameEngine.hpp">
<polygon fill="none" stroke="black" points="397,-196 397,-215 579,-215 579,-196 397,-196"/>
<text text-anchor="middle" x="488" y="-203" font-family="Helvetica,sans-Serif" font-size="10.00">engine/GameEngine/GameEngine.hpp</text>
</a>
</g>
</g>
<!-- Node1&#45;&gt;Node2 -->
<g id="edge1" class="edge"><title>Node1&#45;&gt;Node2</title>
<path fill="none" stroke="midnightblue" d="M1268.19,-520.754C1078.64,-512.63 488,-480.981 488,-402 488,-402 488,-402 488,-338.5 488,-291.979 488,-236.236 488,-215.149"/>
<polygon fill="midnightblue" stroke="midnightblue" points="1268.1,-524.253 1278.24,-521.179 1268.4,-517.259 1268.1,-524.253"/>
</g>
<!-- Node13 -->
<g id="node13" class="node"><title>Node13</title>
<g id="a_node13"><a xlink:href="../../df/d0a/main_8cpp.html" target="_top" xlink:title="TODO. ">
<polygon fill="none" stroke="black" points="957,-0.5 957,-19.5 1013,-19.5 1013,-0.5 957,-0.5"/>
<text text-anchor="middle" x="985" y="-7.5" font-family="Helvetica,sans-Serif" font-size="10.00">main.cpp</text>
</a>
</g>
</g>
<!-- Node1&#45;&gt;Node13 -->
<g id="edge42" class="edge"><title>Node1&#45;&gt;Node13</title>
<path fill="none" stroke="midnightblue" d="M1347.13,-508.474C1374.01,-488.085 1417,-448.25 1417,-402 1417,-402 1417,-402 1417,-137.5 1417,-91.4442 1393.12,-78.6195 1353,-56 1294.76,-23.1635 1088.69,-13.9865 1013.08,-11.6937"/>
<polygon fill="midnightblue" stroke="midnightblue" points="1345.04,-505.663 1339.04,-514.394 1349.17,-511.312 1345.04,-505.663"/>
</g>
<!-- Node15 -->
<g id="node15" class="node"><title>Node15</title>
<g id="a_node15"><a xlink:href="../../d4/db5/GameObject_8hpp.html" target="_top" xlink:title="engine/GameObject/GameObject.hpp">
<polygon fill="none" stroke="black" points="885.5,-391.5 885.5,-410.5 1064.5,-410.5 1064.5,-391.5 885.5,-391.5"/>
<text text-anchor="middle" x="975" y="-398.5" font-family="Helvetica,sans-Serif" font-size="10.00">engine/GameObject/GameObject.hpp</text>
</a>
</g>
</g>
<!-- Node1&#45;&gt;Node15 -->
<g id="edge16" class="edge"><title>Node1&#45;&gt;Node15</title>
<path fill="none" stroke="midnightblue" d="M1289.24,-511.315C1261.38,-502.388 1222.2,-489.674 1188,-478 1118.7,-454.343 1037.33,-424.819 998.25,-410.532"/>
<polygon fill="midnightblue" stroke="midnightblue" points="1288.36,-514.711 1298.96,-514.424 1290.5,-508.044 1288.36,-514.711"/>
</g>
<!-- Node25 -->
<g id="node25" class="node"><title>Node25</title>
<g id="a_node25"><a xlink:href="../../d6/d05/Cube_8cpp.html" target="_top" xlink:title="engine/Primitives/Cube\l/Cube.cpp">
<polygon fill="none" stroke="black" points="1271,-257.5 1271,-287.5 1389,-287.5 1389,-257.5 1271,-257.5"/>
<text text-anchor="start" x="1279" y="-275.5" font-family="Helvetica,sans-Serif" font-size="10.00">engine/Primitives/Cube</text>
<text text-anchor="middle" x="1330" y="-264.5" font-family="Helvetica,sans-Serif" font-size="10.00">/Cube.cpp</text>
</a>
</g>
</g>
<!-- Node1&#45;&gt;Node25 -->
<g id="edge34" class="edge"><title>Node1&#45;&gt;Node25</title>
<path fill="none" stroke="midnightblue" d="M1341.41,-506.538C1347.85,-498.557 1354.62,-488.448 1358,-478 1379.08,-412.883 1376.64,-390.134 1359,-324 1355.46,-310.715 1347.49,-297.292 1340.81,-287.628"/>
<polygon fill="midnightblue" stroke="midnightblue" points="1338.61,-504.423 1334.72,-514.278 1343.91,-508.999 1338.61,-504.423"/>
</g>
<!-- Node26 -->
<g id="node26" class="node"><title>Node26</title>
<g id="a_node26"><a xlink:href="../../d1/dca/IRenderer_8hpp.html" target="_top" xlink:title="engine/Renderer/IRenderer.hpp">
<polygon fill="none" stroke="black" points="1197,-453 1197,-472 1349,-472 1349,-453 1197,-453"/>
<text text-anchor="middle" x="1273" y="-460" font-family="Helvetica,sans-Serif" font-size="10.00">engine/Renderer/IRenderer.hpp</text>
</a>
</g>
</g>
<!-- Node1&#45;&gt;Node26 -->
<g id="edge35" class="edge"><title>Node1&#45;&gt;Node26</title>
<path fill="none" stroke="midnightblue" d="M1311.75,-506.997C1301.71,-495.736 1288.68,-481.104 1280.58,-472.009"/>
<polygon fill="midnightblue" stroke="midnightblue" points="1309.14,-509.336 1318.41,-514.475 1314.37,-504.68 1309.14,-509.336"/>
</g>
<!-- Node28 -->
<g id="node28" class="node"><title>Node28</title>
<g id="a_node28"><a xlink:href="../../d3/d73/ShaderManager_8cpp.html" target="_top" xlink:title="engine/Shaders/Managers\l/ShaderManager/ShaderManager.cpp">
<polygon fill="none" stroke="black" points="1445,-447.5 1445,-477.5 1623,-477.5 1623,-447.5 1445,-447.5"/>
<text text-anchor="start" x="1453" y="-465.5" font-family="Helvetica,sans-Serif" font-size="10.00">engine/Shaders/Managers</text>
<text text-anchor="middle" x="1534" y="-454.5" font-family="Helvetica,sans-Serif" font-size="10.00">/ShaderManager/ShaderManager.cpp</text>
</a>
</g>
</g>
<!-- Node1&#45;&gt;Node28 -->
<g id="edge41" class="edge"><title>Node1&#45;&gt;Node28</title>
<path fill="none" stroke="midnightblue" d="M1365.82,-511.609C1399.75,-501.903 1448.65,-487.916 1484.98,-477.523"/>
<polygon fill="midnightblue" stroke="midnightblue" points="1364.45,-508.36 1355.8,-514.475 1366.38,-515.09 1364.45,-508.36"/>
</g>
<!-- Node3 -->
<g id="node3" class="node"><title>Node3</title>
<g id="a_node3"><a xlink:href="../../dd/d98/GameEngine_8cpp.html" target="_top" xlink:title="engine/GameEngine/GameEngine.cpp">
<polygon fill="none" stroke="black" points="989,-62 989,-81 1171,-81 1171,-62 989,-62"/>
<text text-anchor="middle" x="1080" y="-69" font-family="Helvetica,sans-Serif" font-size="10.00">engine/GameEngine/GameEngine.cpp</text>
</a>
</g>
</g>
<!-- Node2&#45;&gt;Node3 -->
<g id="edge2" class="edge"><title>Node2&#45;&gt;Node3</title>
<path fill="none" stroke="midnightblue" d="M515.089,-191.596C554.593,-173.347 630.746,-140.3 699,-123 820.623,-92.173 854.677,-103.915 979,-87 992.867,-85.1133 1007.79,-83.0102 1021.81,-81.0039"/>
<polygon fill="midnightblue" stroke="midnightblue" points="513.447,-188.5 505.862,-195.898 516.405,-194.844 513.447,-188.5"/>
</g>
<!-- Node4 -->
<g id="node4" class="node"><title>Node4</title>
<g id="a_node4"><a xlink:href="../../d1/d2a/glwindow_8h.html" target="_top" xlink:title="window/glwindow.h">
<polygon fill="none" stroke="black" points="461.5,-129 461.5,-148 562.5,-148 562.5,-129 461.5,-129"/>
<text text-anchor="middle" x="512" y="-136" font-family="Helvetica,sans-Serif" font-size="10.00">window/glwindow.h</text>
</a>
</g>
</g>
<!-- Node2&#45;&gt;Node4 -->
<g id="edge3" class="edge"><title>Node2&#45;&gt;Node4</title>
<path fill="none" stroke="midnightblue" d="M494.724,-186.29C499.333,-173.808 505.238,-157.814 508.815,-148.127"/>
<polygon fill="midnightblue" stroke="midnightblue" points="491.417,-185.141 491.237,-195.734 497.984,-187.565 491.417,-185.141"/>
</g>
<!-- Node11 -->
<g id="node11" class="node"><title>Node11</title>
<g id="a_node11"><a xlink:href="../../d3/d1f/glwindow_8cpp.html" target="_top" xlink:title="window/glwindow.cpp">
<polygon fill="none" stroke="black" points="0,-62 0,-81 112,-81 112,-62 0,-62"/>
<text text-anchor="middle" x="56" y="-69" font-family="Helvetica,sans-Serif" font-size="10.00">window/glwindow.cpp</text>
</a>
</g>
</g>
<!-- Node2&#45;&gt;Node11 -->
<g id="edge15" class="edge"><title>Node2&#45;&gt;Node11</title>
<path fill="none" stroke="midnightblue" d="M450.198,-192.949C364.878,-166.879 158.975,-103.965 83.9484,-81.0398"/>
<polygon fill="midnightblue" stroke="midnightblue" points="449.402,-196.366 459.988,-195.941 451.447,-189.671 449.402,-196.366"/>
</g>
<!-- Node4&#45;&gt;Node3 -->
<g id="edge6" class="edge"><title>Node4&#45;&gt;Node3</title>
<path fill="none" stroke="midnightblue" d="M571.468,-127.364C581.637,-125.789 592.11,-124.268 602,-123 768.952,-101.603 811.871,-106.965 979,-87 993.599,-85.256 1009.35,-83.1186 1023.97,-81.0264"/>
<polygon fill="midnightblue" stroke="midnightblue" points="570.764,-123.931 561.432,-128.948 571.855,-130.846 570.764,-123.931"/>
</g>
<!-- Node5 -->
<g id="node5" class="node"><title>Node5</title>
<g id="a_node5"><a xlink:href="../../db/d2b/BufferObject_8cpp.html" target="_top" xlink:title="engine/BufferObject\l/BufferObject.cpp">
<polygon fill="none" stroke="black" points="130.5,-56.5 130.5,-86.5 233.5,-86.5 233.5,-56.5 130.5,-56.5"/>
<text text-anchor="start" x="138.5" y="-74.5" font-family="Helvetica,sans-Serif" font-size="10.00">engine/BufferObject</text>
<text text-anchor="middle" x="182" y="-63.5" font-family="Helvetica,sans-Serif" font-size="10.00">/BufferObject.cpp</text>
</a>
</g>
</g>
<!-- Node4&#45;&gt;Node5 -->
<g id="edge4" class="edge"><title>Node4&#45;&gt;Node5</title>
<path fill="none" stroke="midnightblue" d="M452.92,-127.247C398.31,-117.57 314.977,-102.302 243,-87 239.912,-86.3436 236.741,-85.6498 233.546,-84.9355"/>
<polygon fill="midnightblue" stroke="midnightblue" points="452.317,-130.694 462.773,-128.987 453.534,-123.801 452.317,-130.694"/>
</g>
<!-- Node6 -->
<g id="node6" class="node"><title>Node6</title>
<g id="a_node6"><a xlink:href="../../da/d8c/Camera_8cpp.html" target="_top" xlink:title="engine/Camera/Camera.cpp">
<polygon fill="none" stroke="black" points="831.5,-62 831.5,-81 970.5,-81 970.5,-62 831.5,-62"/>
<text text-anchor="middle" x="901" y="-69" font-family="Helvetica,sans-Serif" font-size="10.00">engine/Camera/Camera.cpp</text>
</a>
</g>
</g>
<!-- Node4&#45;&gt;Node6 -->
<g id="edge5" class="edge"><title>Node4&#45;&gt;Node6</title>
<path fill="none" stroke="midnightblue" d="M572.694,-127.68C655.923,-114.203 797.952,-91.1653 822,-87 832.854,-85.1199 844.533,-83.0194 855.493,-81.0135"/>
<polygon fill="midnightblue" stroke="midnightblue" points="571.912,-124.261 562.6,-129.314 573.03,-131.171 571.912,-124.261"/>
</g>
<!-- Node7 -->
<g id="node7" class="node"><title>Node7</title>
<g id="a_node7"><a xlink:href="../../d2/dcc/Mesh_8cpp.html" target="_top" xlink:title="engine/Mesh/Mesh.cpp">
<polygon fill="none" stroke="black" points="252,-62 252,-81 370,-81 370,-62 252,-62"/>
<text text-anchor="middle" x="311" y="-69" font-family="Helvetica,sans-Serif" font-size="10.00">engine/Mesh/Mesh.cpp</text>
</a>
</g>
</g>
<!-- Node4&#45;&gt;Node7 -->
<g id="edge7" class="edge"><title>Node4&#45;&gt;Node7</title>
<path fill="none" stroke="midnightblue" d="M475.713,-125.765C435.887,-112.886 372.912,-92.5214 337.482,-81.0637"/>
<polygon fill="midnightblue" stroke="midnightblue" points="474.717,-129.122 485.309,-128.869 476.871,-122.461 474.717,-129.122"/>
</g>
<!-- Node8 -->
<g id="node8" class="node"><title>Node8</title>
<g id="a_node8"><a xlink:href="../../da/d3d/BasicRenderer_8cpp.html" target="_top" xlink:title="engine/Renderer/BasicRenderer\l/BasicRenderer.cpp">
<polygon fill="none" stroke="black" points="1189.5,-56.5 1189.5,-86.5 1344.5,-86.5 1344.5,-56.5 1189.5,-56.5"/>
<text text-anchor="start" x="1197.5" y="-74.5" font-family="Helvetica,sans-Serif" font-size="10.00">engine/Renderer/BasicRenderer</text>
<text text-anchor="middle" x="1267" y="-63.5" font-family="Helvetica,sans-Serif" font-size="10.00">/BasicRenderer.cpp</text>
</a>
</g>
</g>
<!-- Node4&#45;&gt;Node8 -->
<g id="edge8" class="edge"><title>Node4&#45;&gt;Node8</title>
<path fill="none" stroke="midnightblue" d="M573.175,-133.581C715.078,-124.377 1063.41,-101.094 1180,-87 1183.04,-86.6325 1186.14,-86.2339 1189.26,-85.8113"/>
<polygon fill="midnightblue" stroke="midnightblue" points="572.669,-130.107 562.916,-134.246 573.121,-137.092 572.669,-130.107"/>
</g>
<!-- Node9 -->
<g id="node9" class="node"><title>Node9</title>
<g id="a_node9"><a xlink:href="../../dd/d84/Shader_8cpp.html" target="_top" xlink:title="engine/Shaders/Shader\l/Shader.cpp">
<polygon fill="none" stroke="black" points="522,-56.5 522,-86.5 640,-86.5 640,-56.5 522,-56.5"/>
<text text-anchor="start" x="530" y="-74.5" font-family="Helvetica,sans-Serif" font-size="10.00">engine/Shaders/Shader</text>
<text text-anchor="middle" x="581" y="-63.5" font-family="Helvetica,sans-Serif" font-size="10.00">/Shader.cpp</text>
</a>
</g>
</g>
<!-- Node4&#45;&gt;Node9 -->
<g id="edge9" class="edge"><title>Node4&#45;&gt;Node9</title>
<path fill="none" stroke="midnightblue" d="M528.86,-121.617C540.23,-110.907 555.096,-96.9022 566.044,-86.589"/>
<polygon fill="midnightblue" stroke="midnightblue" points="526.185,-119.329 521.306,-128.734 530.985,-124.424 526.185,-119.329"/>
</g>
<!-- Node10 -->
<g id="node10" class="node"><title>Node10</title>
<g id="a_node10"><a xlink:href="../../de/d34/ShaderProgram_8cpp.html" target="_top" xlink:title="engine/Shaders/ShaderProgram\l/ShaderProgram.cpp">
<polygon fill="none" stroke="black" points="658.5,-56.5 658.5,-86.5 813.5,-86.5 813.5,-56.5 658.5,-56.5"/>
<text text-anchor="start" x="666.5" y="-74.5" font-family="Helvetica,sans-Serif" font-size="10.00">engine/Shaders/ShaderProgram</text>
<text text-anchor="middle" x="736" y="-63.5" font-family="Helvetica,sans-Serif" font-size="10.00">/ShaderProgram.cpp</text>
</a>
</g>
</g>
<!-- Node4&#45;&gt;Node10 -->
<g id="edge10" class="edge"><title>Node4&#45;&gt;Node10</title>
<path fill="none" stroke="midnightblue" d="M551.433,-126.058C589.411,-115.037 646.937,-98.3441 687.657,-86.5281"/>
<polygon fill="midnightblue" stroke="midnightblue" points="550.374,-122.72 541.745,-128.869 552.325,-129.443 550.374,-122.72"/>
</g>
<!-- Node4&#45;&gt;Node11 -->
<g id="edge11" class="edge"><title>Node4&#45;&gt;Node11</title>
<path fill="none" stroke="midnightblue" d="M451.464,-131.41C374.398,-123.262 237.29,-107.437 121,-87 111.434,-85.3189 101.148,-83.1799 91.6436,-81.0645"/>
<polygon fill="midnightblue" stroke="midnightblue" points="451.163,-134.898 461.474,-132.461 451.894,-127.936 451.163,-134.898"/>
</g>
<!-- Node12 -->
<g id="node12" class="node"><title>Node12</title>
<g id="a_node12"><a xlink:href="../../d9/d53/mainwindow_8h.html" target="_top" xlink:title="window/mainwindow.h">
<polygon fill="none" stroke="black" points="388.5,-62 388.5,-81 503.5,-81 503.5,-62 388.5,-62"/>
<text text-anchor="middle" x="446" y="-69" font-family="Helvetica,sans-Serif" font-size="10.00">window/mainwindow.h</text>
</a>
</g>
</g>
<!-- Node4&#45;&gt;Node12 -->
<g id="edge12" class="edge"><title>Node4&#45;&gt;Node12</title>
<path fill="none" stroke="midnightblue" d="M495.751,-121.497C482.807,-108.75 465.185,-91.3947 454.76,-81.1273"/>
<polygon fill="midnightblue" stroke="midnightblue" points="493.518,-124.211 503.099,-128.734 498.43,-119.223 493.518,-124.211"/>
</g>
<!-- Node12&#45;&gt;Node13 -->
<g id="edge13" class="edge"><title>Node12&#45;&gt;Node13</title>
<path fill="none" stroke="midnightblue" d="M491.836,-59.8301C498.898,-58.4038 506.126,-57.0677 513,-56 680.358,-30.0054 883.59,-16.7273 956.926,-12.5161"/>
<polygon fill="midnightblue" stroke="midnightblue" points="490.737,-56.4844 481.669,-61.9634 492.174,-63.3352 490.737,-56.4844"/>
</g>
<!-- Node14 -->
<g id="node14" class="node"><title>Node14</title>
<g id="a_node14"><a xlink:href="../../d8/dd9/mainwindow_8cpp.html" target="_top" xlink:title="window/mainwindow.cpp">
<polygon fill="none" stroke="black" points="383.5,-0.5 383.5,-19.5 508.5,-19.5 508.5,-0.5 383.5,-0.5"/>
<text text-anchor="middle" x="446" y="-7.5" font-family="Helvetica,sans-Serif" font-size="10.00">window/mainwindow.cpp</text>
</a>
</g>
</g>
<!-- Node12&#45;&gt;Node14 -->
<g id="edge14" class="edge"><title>Node12&#45;&gt;Node14</title>
<path fill="none" stroke="midnightblue" d="M446,-51.8165C446,-40.9962 446,-27.898 446,-19.5091"/>
<polygon fill="midnightblue" stroke="midnightblue" points="442.5,-51.9751 446,-61.9751 449.5,-51.9751 442.5,-51.9751"/>
</g>
<!-- Node16 -->
<g id="node16" class="node"><title>Node16</title>
<g id="a_node16"><a xlink:href="../../d6/d80/Camera_8hpp.html" target="_top" xlink:title="engine/Camera/Camera.hpp">
<polygon fill="none" stroke="black" points="751.5,-330 751.5,-349 890.5,-349 890.5,-330 751.5,-330"/>
<text text-anchor="middle" x="821" y="-337" font-family="Helvetica,sans-Serif" font-size="10.00">engine/Camera/Camera.hpp</text>
</a>
</g>
</g>
<!-- Node15&#45;&gt;Node16 -->
<g id="edge17" class="edge"><title>Node15&#45;&gt;Node16</title>
<path fill="none" stroke="midnightblue" d="M943.378,-387.782C913.451,-376.22 869.307,-359.164 843.024,-349.009"/>
<polygon fill="midnightblue" stroke="midnightblue" points="942.346,-391.136 952.936,-391.475 944.869,-384.606 942.346,-391.136"/>
</g>
<!-- Node17 -->
<g id="node17" class="node"><title>Node17</title>
<g id="a_node17"><a xlink:href="../../db/de8/Scene_8hpp.html" target="_top" xlink:title="engine/Scene/Scene.hpp">
<polygon fill="none" stroke="black" points="593.5,-263 593.5,-282 718.5,-282 718.5,-263 593.5,-263"/>
<text text-anchor="middle" x="656" y="-270" font-family="Helvetica,sans-Serif" font-size="10.00">engine/Scene/Scene.hpp</text>
</a>
</g>
</g>
<!-- Node15&#45;&gt;Node17 -->
<g id="edge33" class="edge"><title>Node15&#45;&gt;Node17</title>
<path fill="none" stroke="midnightblue" d="M874.968,-396.457C754.843,-391.151 566.692,-379.081 545,-355 516.038,-322.849 583.518,-295.42 625.543,-282.108"/>
<polygon fill="midnightblue" stroke="midnightblue" points="875.15,-399.968 885.292,-396.903 875.453,-392.974 875.15,-399.968"/>
</g>
<!-- Node21 -->
<g id="node21" class="node"><title>Node21</title>
<g id="a_node21"><a xlink:href="../../d4/d2b/GameObject_8cpp.html" target="_top" xlink:title="engine/GameObject/GameObject.cpp">
<polygon fill="none" stroke="black" points="554.5,-330 554.5,-349 733.5,-349 733.5,-330 554.5,-330"/>
<text text-anchor="middle" x="644" y="-337" font-family="Helvetica,sans-Serif" font-size="10.00">engine/GameObject/GameObject.cpp</text>
</a>
</g>
</g>
<!-- Node15&#45;&gt;Node21 -->
<g id="edge25" class="edge"><title>Node15&#45;&gt;Node21</title>
<path fill="none" stroke="midnightblue" d="M917.635,-389.688C853.559,-378.17 751.022,-359.738 691.336,-349.009"/>
<polygon fill="midnightblue" stroke="midnightblue" points="917.114,-393.151 927.576,-391.475 918.353,-386.261 917.114,-393.151"/>
</g>
<!-- Node22 -->
<g id="node22" class="node"><title>Node22</title>
<g id="a_node22"><a xlink:href="../../df/d6e/Model_8hpp.html" target="_top" xlink:title="engine/GameObject/Model\l/Model.hpp">
<polygon fill="none" stroke="black" points="909,-324.5 909,-354.5 1041,-354.5 1041,-324.5 909,-324.5"/>
<text text-anchor="start" x="917" y="-342.5" font-family="Helvetica,sans-Serif" font-size="10.00">engine/GameObject/Model</text>
<text text-anchor="middle" x="975" y="-331.5" font-family="Helvetica,sans-Serif" font-size="10.00">/Model.hpp</text>
</a>
</g>
</g>
<!-- Node15&#45;&gt;Node22 -->
<g id="edge26" class="edge"><title>Node15&#45;&gt;Node22</title>
<path fill="none" stroke="midnightblue" d="M975,-381.235C975,-372.586 975,-362.497 975,-354.523"/>
<polygon fill="midnightblue" stroke="midnightblue" points="971.5,-381.475 975,-391.475 978.5,-381.475 971.5,-381.475"/>
</g>
<!-- Node24 -->
<g id="node24" class="node"><title>Node24</title>
<g id="a_node24"><a xlink:href="../../d4/dd0/Cube_8hpp.html" target="_top" xlink:title="engine/Primitives/Cube\l/Cube.hpp">
<polygon fill="none" stroke="black" points="1059,-324.5 1059,-354.5 1177,-354.5 1177,-324.5 1059,-324.5"/>
<text text-anchor="start" x="1067" y="-342.5" font-family="Helvetica,sans-Serif" font-size="10.00">engine/Primitives/Cube</text>
<text text-anchor="middle" x="1118" y="-331.5" font-family="Helvetica,sans-Serif" font-size="10.00">/Cube.hpp</text>
</a>
</g>
</g>
<!-- Node15&#45;&gt;Node24 -->
<g id="edge29" class="edge"><title>Node15&#45;&gt;Node24</title>
<path fill="none" stroke="midnightblue" d="M1004.83,-387.59C1028.01,-377.942 1060.18,-364.558 1084.3,-354.523"/>
<polygon fill="midnightblue" stroke="midnightblue" points="1003.38,-384.402 995.488,-391.475 1006.07,-390.865 1003.38,-384.402"/>
</g>
<!-- Node16&#45;&gt;Node6 -->
<g id="edge18" class="edge"><title>Node16&#45;&gt;Node6</title>
<path fill="none" stroke="midnightblue" d="M828.82,-320.366C838.472,-297.509 854.96,-256.866 866,-221 882.052,-168.85 894.934,-104.472 899.353,-81.3136"/>
<polygon fill="midnightblue" stroke="midnightblue" points="825.501,-319.226 824.797,-329.798 831.94,-321.972 825.501,-319.226"/>
</g>
<!-- Node16&#45;&gt;Node17 -->
<g id="edge19" class="edge"><title>Node16&#45;&gt;Node17</title>
<path fill="none" stroke="midnightblue" d="M789.534,-326.104C756.773,-313.198 706.33,-293.327 677.739,-282.064"/>
<polygon fill="midnightblue" stroke="midnightblue" points="788.502,-329.46 799.089,-329.869 791.068,-322.947 788.502,-329.46"/>
</g>
<!-- Node17&#45;&gt;Node2 -->
<g id="edge23" class="edge"><title>Node17&#45;&gt;Node2</title>
<path fill="none" stroke="midnightblue" d="M623.961,-259.104C590.605,-246.198 539.246,-226.327 510.134,-215.064"/>
<polygon fill="midnightblue" stroke="midnightblue" points="623.102,-262.524 633.691,-262.869 625.628,-255.996 623.102,-262.524"/>
</g>
<!-- Node18 -->
<g id="node18" class="node"><title>Node18</title>
<g id="a_node18"><a xlink:href="../../d0/dbd/AssimpImporter_8hpp.html" target="_top" xlink:title="engine/AssimpImporter\l/AssimpImporter.hpp">
<polygon fill="none" stroke="black" points="597.5,-190.5 597.5,-220.5 714.5,-220.5 714.5,-190.5 597.5,-190.5"/>
<text text-anchor="start" x="605.5" y="-208.5" font-family="Helvetica,sans-Serif" font-size="10.00">engine/AssimpImporter</text>
<text text-anchor="middle" x="656" y="-197.5" font-family="Helvetica,sans-Serif" font-size="10.00">/AssimpImporter.hpp</text>
</a>
</g>
</g>
<!-- Node17&#45;&gt;Node18 -->
<g id="edge20" class="edge"><title>Node17&#45;&gt;Node18</title>
<path fill="none" stroke="midnightblue" d="M656,-252.411C656,-242.222 656,-229.901 656,-220.589"/>
<polygon fill="midnightblue" stroke="midnightblue" points="652.5,-252.734 656,-262.734 659.5,-252.734 652.5,-252.734"/>
</g>
<!-- Node20 -->
<g id="node20" class="node"><title>Node20</title>
<g id="a_node20"><a xlink:href="../../de/d15/Scene_8cpp.html" target="_top" xlink:title="engine/Scene/Scene.cpp">
<polygon fill="none" stroke="black" points="732.5,-196 732.5,-215 857.5,-215 857.5,-196 732.5,-196"/>
<text text-anchor="middle" x="795" y="-203" font-family="Helvetica,sans-Serif" font-size="10.00">engine/Scene/Scene.cpp</text>
</a>
</g>
</g>
<!-- Node17&#45;&gt;Node20 -->
<g id="edge24" class="edge"><title>Node17&#45;&gt;Node20</title>
<path fill="none" stroke="midnightblue" d="M683.559,-258.613C711.09,-245.739 752.646,-226.306 776.466,-215.167"/>
<polygon fill="midnightblue" stroke="midnightblue" points="682.034,-255.462 674.458,-262.869 684.999,-261.803 682.034,-255.462"/>
</g>
<!-- Node18&#45;&gt;Node3 -->
<g id="edge22" class="edge"><title>Node18&#45;&gt;Node3</title>
<path fill="none" stroke="midnightblue" d="M673.481,-182.362C689.827,-163.335 716.015,-136.842 745,-123 751.178,-120.05 925.687,-94.6619 1020.32,-81.0467"/>
<polygon fill="midnightblue" stroke="midnightblue" points="670.615,-180.333 666.894,-190.253 675.989,-184.819 670.615,-180.333"/>
</g>
<!-- Node19 -->
<g id="node19" class="node"><title>Node19</title>
<g id="a_node19"><a xlink:href="../../d4/d7f/AssimpImporter_8cpp.html" target="_top" xlink:title="engine/AssimpImporter\l/AssimpImporter.cpp">
<polygon fill="none" stroke="black" points="754.5,-123.5 754.5,-153.5 871.5,-153.5 871.5,-123.5 754.5,-123.5"/>
<text text-anchor="start" x="762.5" y="-141.5" font-family="Helvetica,sans-Serif" font-size="10.00">engine/AssimpImporter</text>
<text text-anchor="middle" x="813" y="-130.5" font-family="Helvetica,sans-Serif" font-size="10.00">/AssimpImporter.cpp</text>
</a>
</g>
</g>
<!-- Node18&#45;&gt;Node19 -->
<g id="edge21" class="edge"><title>Node18&#45;&gt;Node19</title>
<path fill="none" stroke="midnightblue" d="M699.37,-186.544C724.493,-176.143 755.664,-163.238 779,-153.577"/>
<polygon fill="midnightblue" stroke="midnightblue" points="697.967,-183.337 690.067,-190.396 700.645,-189.804 697.967,-183.337"/>
</g>
<!-- Node22&#45;&gt;Node19 -->
<g id="edge27" class="edge"><title>Node22&#45;&gt;Node19</title>
<path fill="none" stroke="midnightblue" d="M960.237,-315.881C940.285,-285.931 902.941,-232.003 866,-190 854.585,-177.021 840.34,-163.579 829.494,-153.83"/>
<polygon fill="midnightblue" stroke="midnightblue" points="957.415,-317.958 965.851,-324.367 963.253,-314.096 957.415,-317.958"/>
</g>
<!-- Node23 -->
<g id="node23" class="node"><title>Node23</title>
<g id="a_node23"><a xlink:href="../../dd/d2e/Model_8cpp.html" target="_top" xlink:title="engine/GameObject/Model\l/Model.cpp">
<polygon fill="none" stroke="black" points="952,-257.5 952,-287.5 1084,-287.5 1084,-257.5 952,-257.5"/>
<text text-anchor="start" x="960" y="-275.5" font-family="Helvetica,sans-Serif" font-size="10.00">engine/GameObject/Model</text>
<text text-anchor="middle" x="1018" y="-264.5" font-family="Helvetica,sans-Serif" font-size="10.00">/Model.cpp</text>
</a>
</g>
</g>
<!-- Node22&#45;&gt;Node23 -->
<g id="edge28" class="edge"><title>Node22&#45;&gt;Node23</title>
<path fill="none" stroke="midnightblue" d="M989.973,-315.867C996.196,-306.459 1003.23,-295.833 1008.69,-287.577"/>
<polygon fill="midnightblue" stroke="midnightblue" points="986.929,-314.125 984.33,-324.396 992.767,-317.987 986.929,-314.125"/>
</g>
<!-- Node24&#45;&gt;Node3 -->
<g id="edge30" class="edge"><title>Node24&#45;&gt;Node3</title>
<path fill="none" stroke="midnightblue" d="M1118.88,-314.069C1119.17,-297.843 1119.01,-276.094 1117,-257 1109.77,-188.449 1089.32,-107.562 1082.36,-81.2439"/>
<polygon fill="midnightblue" stroke="midnightblue" points="1115.37,-314.234 1118.62,-324.319 1122.37,-314.411 1115.37,-314.234"/>
</g>
<!-- Node24&#45;&gt;Node20 -->
<g id="edge32" class="edge"><title>Node24&#45;&gt;Node20</title>
<path fill="none" stroke="midnightblue" d="M1117.13,-314.295C1115.11,-295.857 1109.27,-271.285 1093,-257 1058.84,-227.01 934.433,-214.483 857.574,-209.518"/>
<polygon fill="midnightblue" stroke="midnightblue" points="1113.64,-314.626 1117.92,-324.318 1120.62,-314.072 1113.64,-314.626"/>
</g>
<!-- Node24&#45;&gt;Node25 -->
<g id="edge31" class="edge"><title>Node24&#45;&gt;Node25</title>
<path fill="none" stroke="midnightblue" d="M1173.63,-321.444C1207.99,-310.908 1251.56,-297.549 1283.98,-287.611"/>
<polygon fill="midnightblue" stroke="midnightblue" points="1172.27,-318.198 1163.74,-324.476 1174.33,-324.891 1172.27,-318.198"/>
</g>
<!-- Node26&#45;&gt;Node15 -->
<g id="edge36" class="edge"><title>Node26&#45;&gt;Node15</title>
<path fill="none" stroke="midnightblue" d="M1220.28,-450.974C1162.53,-439.443 1071.02,-421.172 1017.62,-410.509"/>
<polygon fill="midnightblue" stroke="midnightblue" points="1219.81,-454.449 1230.3,-452.975 1221.18,-447.585 1219.81,-454.449"/>
</g>
<!-- Node27 -->
<g id="node27" class="node"><title>Node27</title>
<g id="a_node27"><a xlink:href="../../de/db3/BasicRenderer_8hpp.html" target="_top" xlink:title="engine/Renderer/BasicRenderer\l/BasicRenderer.hpp">
<polygon fill="none" stroke="black" points="1195.5,-324.5 1195.5,-354.5 1350.5,-354.5 1350.5,-324.5 1195.5,-324.5"/>
<text text-anchor="start" x="1203.5" y="-342.5" font-family="Helvetica,sans-Serif" font-size="10.00">engine/Renderer/BasicRenderer</text>
<text text-anchor="middle" x="1273" y="-331.5" font-family="Helvetica,sans-Serif" font-size="10.00">/BasicRenderer.hpp</text>
</a>
</g>
</g>
<!-- Node26&#45;&gt;Node27 -->
<g id="edge37" class="edge"><title>Node26&#45;&gt;Node27</title>
<path fill="none" stroke="midnightblue" d="M1273,-442.685C1273,-418.297 1273,-376.325 1273,-354.539"/>
<polygon fill="midnightblue" stroke="midnightblue" points="1269.5,-442.798 1273,-452.798 1276.5,-442.798 1269.5,-442.798"/>
</g>
<!-- Node27&#45;&gt;Node8 -->
<g id="edge40" class="edge"><title>Node27&#45;&gt;Node8</title>
<path fill="none" stroke="midnightblue" d="M1266.7,-314.638C1264.79,-306.277 1262.95,-296.782 1262,-288 1253.87,-212.467 1261.78,-121.218 1265.4,-86.6732"/>
<polygon fill="midnightblue" stroke="midnightblue" points="1263.33,-315.595 1269.1,-324.484 1270.13,-313.94 1263.33,-315.595"/>
</g>
<!-- Node27&#45;&gt;Node23 -->
<g id="edge38" class="edge"><title>Node27&#45;&gt;Node23</title>
<path fill="none" stroke="midnightblue" d="M1208.21,-321.984C1166.56,-311.367 1113.02,-297.72 1073.36,-287.611"/>
<polygon fill="midnightblue" stroke="midnightblue" points="1207.43,-325.397 1217.98,-324.476 1209.16,-318.614 1207.43,-325.397"/>
</g>
<!-- Node27&#45;&gt;Node25 -->
<g id="edge39" class="edge"><title>Node27&#45;&gt;Node25</title>
<path fill="none" stroke="midnightblue" d="M1292.09,-316.736C1300.52,-307.119 1310.19,-296.089 1317.66,-287.577"/>
<polygon fill="midnightblue" stroke="midnightblue" points="1289.33,-314.57 1285.37,-324.396 1294.59,-319.185 1289.33,-314.57"/>
</g>
</g>
</svg>
        <g id="navigator" transform="translate(0 0)" fill="#404254">
                <rect fill="#f2f5e9" fill-opacity="0.5" stroke="#606060" stroke-width=".5" x="0" y="0" width="60" height="60"/>
                <use id="zoomplus" xlink:href="#zoomPlus" x="17" y="9" onmousedown="handleZoom(evt,'in')"/>
                <use id="zoomminus" xlink:href="#zoomMin" x="42" y="9" onmousedown="handleZoom(evt,'out')"/>
                <use id="reset" xlink:href="#resetDef" x="30" y="36" onmousedown="handleReset()"/>
                <g id="arrowUp" xlink:href="#dirArrow" transform="translate(30 24)" onmousedown="handlePan(0,-1)">
                  <use xlink:href="#rim" fill="#404040">
                        <set attributeName="fill" to="#808080" begin="arrowUp.mouseover" end="arrowUp.mouseout"/>
                  </use>
                  <path fill="none" stroke="white" stroke-width="1.5" d="M0,-3.0v7 M-2.5,-0.5L0,-3.0L2.5,-0.5"/>
                </g>
                <g id="arrowRight" xlink:href="#dirArrow" transform="rotate(90) translate(36 -43)" onmousedown="handlePan(1,0)">
                  <use xlink:href="#rim" fill="#404040">
                        <set attributeName="fill" to="#808080" begin="arrowRight.mouseover" end="arrowRight.mouseout"/>
                  </use>
                  <path fill="none" stroke="white" stroke-width="1.5" d="M0,-3.0v7 M-2.5,-0.5L0,-3.0L2.5,-0.5"/>
                </g>
                <g id="arrowDown" xlink:href="#dirArrow" transform="rotate(180) translate(-30 -48)" onmousedown="handlePan(0,1)">
                  <use xlink:href="#rim" fill="#404040">
                        <set attributeName="fill" to="#808080" begin="arrowDown.mouseover" end="arrowDown.mouseout"/>
                  </use>
                  <path fill="none" stroke="white" stroke-width="1.5" d="M0,-3.0v7 M-2.5,-0.5L0,-3.0L2.5,-0.5"/>
                </g>
                <g id="arrowLeft" xlink:href="#dirArrow" transform="rotate(270) translate(-36 17)" onmousedown="handlePan(-1,0)">
                  <use xlink:href="#rim" fill="#404040">
                        <set attributeName="fill" to="#808080" begin="arrowLeft.mouseover" end="arrowLeft.mouseout"/>
                  </use>
                  <path fill="none" stroke="white" stroke-width="1.5" d="M0,-3.0v7 M-2.5,-0.5L0,-3.0L2.5,-0.5"/>
                </g>
        </g>
        <svg viewBox="0 0 15 15" width="100%" height="30px" preserveAspectRatio="xMaxYMin meet">
         <g id="arrow_out" transform="scale(0.3 0.3)">
          <a xlink:href="worldparticles_8hpp__dep__incl_org.svg" target="_base">
           <rect id="button" ry="5" rx="5" y="6" x="6" height="38" width="38"
                fill="#f2f5e9" fill-opacity="0.5" stroke="#606060" stroke-width="1.0"/>
           <path id="arrow"
             d="M 11.500037,31.436501 C 11.940474,20.09759 22.043105,11.32322 32.158766,21.979434 L 37.068811,17.246167 C 37.068811,17.246167 37.088388,32 37.088388,32 L 22.160133,31.978069 C 22.160133,31.978069 26.997745,27.140456 26.997745,27.140456 C 18.528582,18.264221 13.291696,25.230495 11.500037,31.436501 z"
             style="fill:#404040;"/>
          </a>
         </g>
        </svg>
</svg>
