<?xml version="1.0" encoding="UTF-8" standalone="no"?>
<!DOCTYPE svg PUBLIC "-//W3C//DTD SVG 1.1//EN"
 "http://www.w3.org/Graphics/SVG/1.1/DTD/svg11.dtd">
<!-- Generated by graphviz version 2.38.0 (20140413.2041)
 -->
<!-- Title: WorldParticles::Engine::Model Pages: 1 -->
<svg width="718pt" height="712pt"
 viewBox="0.00 0.00 718.00 712.00" xmlns="http://www.w3.org/2000/svg" xmlns:xlink="http://www.w3.org/1999/xlink">
<g id="graph0" class="graph" transform="scale(1 1) rotate(0) translate(4 708)">
<title>WorldParticles::Engine::Model</title>
<!-- Node1 -->
<g id="node1" class="node"><title>Node1</title>
<polygon fill="#bfbfbf" stroke="black" points="306.5,-0.5 306.5,-112.5 422.5,-112.5 422.5,-0.5 306.5,-0.5"/>
<text text-anchor="start" x="314.5" y="-100.5" font-family="Helvetica,sans-Serif" font-size="10.00">WorldParticles::Engine</text>
<text text-anchor="middle" x="364.5" y="-89.5" font-family="Helvetica,sans-Serif" font-size="10.00">::Model</text>
<polyline fill="none" stroke="black" points="306.5,-82.5 422.5,-82.5 "/>
<text text-anchor="middle" x="364.5" y="-70.5" font-family="Helvetica,sans-Serif" font-size="10.00"> </text>
<polyline fill="none" stroke="black" points="306.5,-63.5 422.5,-63.5 "/>
<text text-anchor="start" x="314.5" y="-51.5" font-family="Helvetica,sans-Serif" font-size="10.00">+ Model()</text>
<text text-anchor="start" x="314.5" y="-40.5" font-family="Helvetica,sans-Serif" font-size="10.00">+ ~Model()</text>
<text text-anchor="start" x="314.5" y="-29.5" font-family="Helvetica,sans-Serif" font-size="10.00">+ initialise()</text>
<text text-anchor="start" x="314.5" y="-18.5" font-family="Helvetica,sans-Serif" font-size="10.00">+ draw()</text>
<text text-anchor="start" x="314.5" y="-7.5" font-family="Helvetica,sans-Serif" font-size="10.00">+ update()</text>
</g>
<!-- Node2 -->
<g id="node2" class="node"><title>Node2</title>
<g id="a_node2"><a xlink:href="../../dc/dc5/classWorldParticles_1_1Engine_1_1GameObject.html" target="_top" xlink:title="This class is used to represent an object in the 3D world. This object must be drawable. ">
<polygon fill="none" stroke="black" points="306.5,-150.5 306.5,-372.5 422.5,-372.5 422.5,-150.5 306.5,-150.5"/>
<text text-anchor="start" x="314.5" y="-360.5" font-family="Helvetica,sans-Serif" font-size="10.00">WorldParticles::Engine</text>
<text text-anchor="middle" x="364.5" y="-349.5" font-family="Helvetica,sans-Serif" font-size="10.00">::GameObject</text>
<polyline fill="none" stroke="black" points="306.5,-342.5 422.5,-342.5 "/>
<text text-anchor="middle" x="364.5" y="-330.5" font-family="Helvetica,sans-Serif" font-size="10.00"> </text>
<polyline fill="none" stroke="black" points="306.5,-323.5 422.5,-323.5 "/>
<text text-anchor="start" x="314.5" y="-311.5" font-family="Helvetica,sans-Serif" font-size="10.00">+ GameObject()</text>
<text text-anchor="start" x="314.5" y="-300.5" font-family="Helvetica,sans-Serif" font-size="10.00">+ ~GameObject()</text>
<text text-anchor="start" x="314.5" y="-289.5" font-family="Helvetica,sans-Serif" font-size="10.00">+ initialise()</text>
<text text-anchor="start" x="314.5" y="-278.5" font-family="Helvetica,sans-Serif" font-size="10.00">+ draw()</text>
<text text-anchor="start" x="314.5" y="-267.5" font-family="Helvetica,sans-Serif" font-size="10.00">+ update()</text>
<text text-anchor="start" x="314.5" y="-256.5" font-family="Helvetica,sans-Serif" font-size="10.00">+ getTransform()</text>
<text text-anchor="start" x="314.5" y="-245.5" font-family="Helvetica,sans-Serif" font-size="10.00">+ getRenderer()</text>
<text text-anchor="start" x="314.5" y="-234.5" font-family="Helvetica,sans-Serif" font-size="10.00">+ getMaterial()</text>
<text text-anchor="start" x="314.5" y="-223.5" font-family="Helvetica,sans-Serif" font-size="10.00">+ getMesh()</text>
<text text-anchor="start" x="314.5" y="-212.5" font-family="Helvetica,sans-Serif" font-size="10.00">+ getShaderProgram()</text>
<text text-anchor="start" x="314.5" y="-201.5" font-family="Helvetica,sans-Serif" font-size="10.00">+ setTransform()</text>
<text text-anchor="start" x="314.5" y="-190.5" font-family="Helvetica,sans-Serif" font-size="10.00">+ setRenderer()</text>
<text text-anchor="start" x="314.5" y="-179.5" font-family="Helvetica,sans-Serif" font-size="10.00">+ setMaterial()</text>
<text text-anchor="start" x="314.5" y="-168.5" font-family="Helvetica,sans-Serif" font-size="10.00">+ setMesh()</text>
<text text-anchor="start" x="314.5" y="-157.5" font-family="Helvetica,sans-Serif" font-size="10.00">+ setShaderProgram()</text>
</a>
</g>
</g>
<!-- Node2&#45;&gt;Node1 -->
<g id="edge1" class="edge"><title>Node2&#45;&gt;Node1</title>
<path fill="none" stroke="midnightblue" d="M364.5,-140.346C364.5,-130.778 364.5,-121.438 364.5,-112.684"/>
<polygon fill="none" stroke="midnightblue" points="361,-140.386 364.5,-150.386 368,-140.386 361,-140.386"/>
</g>
<!-- Node3 -->
<g id="node3" class="node"><title>Node3</title>
<polygon fill="none" stroke="#bfbfbf" points="0,-464.5 0,-532.5 135,-532.5 135,-464.5 0,-464.5"/>
<text text-anchor="start" x="8" y="-520.5" font-family="Helvetica,sans-Serif" font-size="10.00">shared_ptr&lt; WorldParticles</text>
<text text-anchor="middle" x="67.5" y="-509.5" font-family="Helvetica,sans-Serif" font-size="10.00">::Engine::ShaderProgram &gt;</text>
<polyline fill="none" stroke="#bfbfbf" points="0,-502.5 135,-502.5 "/>
<text text-anchor="middle" x="67.5" y="-490.5" font-family="Helvetica,sans-Serif" font-size="10.00"> </text>
<polyline fill="none" stroke="#bfbfbf" points="0,-483.5 135,-483.5 "/>
<text text-anchor="middle" x="67.5" y="-471.5" font-family="Helvetica,sans-Serif" font-size="10.00"> </text>
</g>
<!-- Node3&#45;&gt;Node2 -->
<g id="edge2" class="edge"><title>Node3&#45;&gt;Node2</title>
<path fill="none" stroke="#404040" d="M97.7213,-464.155C111.198,-449.965 127.598,-433.59 143.5,-420 192.013,-378.539 251.058,-336.861 295.908,-306.802"/>
<polygon fill="none" stroke="#404040" points="296.135,-306.651 298.908,-299.994 306.119,-299.994 303.346,-306.651 296.135,-306.651"/>
<text text-anchor="middle" x="215" y="-394" font-family="Helvetica,sans-Serif" font-size="10.00"> #shaderprogram</text>
</g>
<!-- Node4 -->
<g id="node4" class="node"><title>Node4</title>
<polygon fill="none" stroke="#bfbfbf" points="153,-464.5 153,-532.5 288,-532.5 288,-464.5 153,-464.5"/>
<text text-anchor="start" x="161" y="-520.5" font-family="Helvetica,sans-Serif" font-size="10.00">shared_ptr&lt; WorldParticles</text>
<text text-anchor="middle" x="220.5" y="-509.5" font-family="Helvetica,sans-Serif" font-size="10.00">::Engine::Material &gt;</text>
<polyline fill="none" stroke="#bfbfbf" points="153,-502.5 288,-502.5 "/>
<text text-anchor="middle" x="220.5" y="-490.5" font-family="Helvetica,sans-Serif" font-size="10.00"> </text>
<polyline fill="none" stroke="#bfbfbf" points="153,-483.5 288,-483.5 "/>
<text text-anchor="middle" x="220.5" y="-471.5" font-family="Helvetica,sans-Serif" font-size="10.00"> </text>
</g>
<!-- Node4&#45;&gt;Node2 -->
<g id="edge3" class="edge"><title>Node4&#45;&gt;Node2</title>
<path fill="none" stroke="#404040" d="M240.826,-464.329C256.35,-438.995 278.647,-402.608 300.045,-367.687"/>
<polygon fill="none" stroke="#404040" points="300.078,-367.633 299.802,-360.427 306.348,-357.401 306.624,-364.607 300.078,-367.633"/>
<text text-anchor="middle" x="306" y="-394" font-family="Helvetica,sans-Serif" font-size="10.00"> #material</text>
</g>
<!-- Node5 -->
<g id="node5" class="node"><title>Node5</title>
<g id="a_node5"><a xlink:href="../../de/d34/classWorldParticles_1_1Engine_1_1Transform.html" target="_top" xlink:title="The Transform class is used to represent an object transformation in space. (like position...">
<polygon fill="none" stroke="black" points="306.5,-420.5 306.5,-576.5 422.5,-576.5 422.5,-420.5 306.5,-420.5"/>
<text text-anchor="start" x="314.5" y="-564.5" font-family="Helvetica,sans-Serif" font-size="10.00">WorldParticles::Engine</text>
<text text-anchor="middle" x="364.5" y="-553.5" font-family="Helvetica,sans-Serif" font-size="10.00">::Transform</text>
<polyline fill="none" stroke="black" points="306.5,-546.5 422.5,-546.5 "/>
<text text-anchor="middle" x="364.5" y="-534.5" font-family="Helvetica,sans-Serif" font-size="10.00"> </text>
<polyline fill="none" stroke="black" points="306.5,-527.5 422.5,-527.5 "/>
<text text-anchor="start" x="314.5" y="-515.5" font-family="Helvetica,sans-Serif" font-size="10.00">+ Transform()</text>
<text text-anchor="start" x="314.5" y="-504.5" font-family="Helvetica,sans-Serif" font-size="10.00">+ ~Transform()</text>
<text text-anchor="start" x="314.5" y="-493.5" font-family="Helvetica,sans-Serif" font-size="10.00">+ getMatrix()</text>
<text text-anchor="start" x="314.5" y="-482.5" font-family="Helvetica,sans-Serif" font-size="10.00">+ setPosition()</text>
<text text-anchor="start" x="314.5" y="-471.5" font-family="Helvetica,sans-Serif" font-size="10.00">+ setRotation()</text>
<text text-anchor="start" x="314.5" y="-460.5" font-family="Helvetica,sans-Serif" font-size="10.00">+ setScale()</text>
<text text-anchor="start" x="314.5" y="-449.5" font-family="Helvetica,sans-Serif" font-size="10.00">+ getPosition()</text>
<text text-anchor="start" x="314.5" y="-438.5" font-family="Helvetica,sans-Serif" font-size="10.00">+ getRotation()</text>
<text text-anchor="start" x="314.5" y="-427.5" font-family="Helvetica,sans-Serif" font-size="10.00">+ getScale()</text>
</a>
</g>
</g>
<!-- Node5&#45;&gt;Node2 -->
<g id="edge4" class="edge"><title>Node5&#45;&gt;Node2</title>
<path fill="none" stroke="#404040" d="M364.5,-420.227C364.5,-408.789 364.5,-396.773 364.5,-384.69"/>
<polygon fill="none" stroke="#404040" points="364.5,-384.605 360.5,-378.605 364.5,-372.605 368.5,-378.605 364.5,-384.605"/>
<text text-anchor="middle" x="389.5" y="-394" font-family="Helvetica,sans-Serif" font-size="10.00"> #transform</text>
</g>
<!-- Node6 -->
<g id="node6" class="node"><title>Node6</title>
<polygon fill="none" stroke="#bfbfbf" points="316.5,-646.5 316.5,-703.5 354.5,-703.5 354.5,-646.5 316.5,-646.5"/>
<text text-anchor="middle" x="335.5" y="-691.5" font-family="Helvetica,sans-Serif" font-size="10.00">mat4</text>
<polyline fill="none" stroke="#bfbfbf" points="316.5,-684.5 354.5,-684.5 "/>
<text text-anchor="middle" x="335.5" y="-672.5" font-family="Helvetica,sans-Serif" font-size="10.00"> </text>
<polyline fill="none" stroke="#bfbfbf" points="316.5,-665.5 354.5,-665.5 "/>
<text text-anchor="middle" x="335.5" y="-653.5" font-family="Helvetica,sans-Serif" font-size="10.00"> </text>
</g>
<!-- Node6&#45;&gt;Node5 -->
<g id="edge5" class="edge"><title>Node6&#45;&gt;Node5</title>
<path fill="none" stroke="#404040" d="M334.019,-646.431C333.658,-631.188 333.956,-611.956 336.5,-595 336.808,-592.944 337.15,-590.871 337.52,-588.786"/>
<polygon fill="none" stroke="#404040" points="337.572,-588.528 334.831,-581.858 339.933,-576.762 342.674,-583.432 337.572,-588.528"/>
<text text-anchor="middle" x="354.5" y="-609" font-family="Helvetica,sans-Serif" font-size="10.00"> #matrix</text>
</g>
<!-- Node7 -->
<g id="node7" class="node"><title>Node7</title>
<polygon fill="none" stroke="#bfbfbf" points="375.5,-646.5 375.5,-703.5 413.5,-703.5 413.5,-646.5 375.5,-646.5"/>
<text text-anchor="middle" x="394.5" y="-691.5" font-family="Helvetica,sans-Serif" font-size="10.00">vec3</text>
<polyline fill="none" stroke="#bfbfbf" points="375.5,-684.5 413.5,-684.5 "/>
<text text-anchor="middle" x="394.5" y="-672.5" font-family="Helvetica,sans-Serif" font-size="10.00"> </text>
<polyline fill="none" stroke="#bfbfbf" points="375.5,-665.5 413.5,-665.5 "/>
<text text-anchor="middle" x="394.5" y="-653.5" font-family="Helvetica,sans-Serif" font-size="10.00"> </text>
</g>
<!-- Node7&#45;&gt;Node5 -->
<g id="edge6" class="edge"><title>Node7&#45;&gt;Node5</title>
<path fill="none" stroke="#404040" d="M389.746,-646.35C387.027,-630.531 383.446,-609.704 379.84,-588.725"/>
<polygon fill="none" stroke="#404040" points="379.812,-588.567 374.854,-583.332 377.779,-576.741 382.738,-581.976 379.812,-588.567"/>
<text text-anchor="middle" x="406.5" y="-620" font-family="Helvetica,sans-Serif" font-size="10.00"> #scale</text>
<text text-anchor="middle" x="406.5" y="-609" font-family="Helvetica,sans-Serif" font-size="10.00">#rotation</text>
<text text-anchor="middle" x="406.5" y="-598" font-family="Helvetica,sans-Serif" font-size="10.00">#position</text>
</g>
<!-- Node8 -->
<g id="node8" class="node"><title>Node8</title>
<g id="a_node8"><a xlink:href="../../d4/ddd/classWorldParticles_1_1Engine_1_1IRenderer.html" target="_top" xlink:title="This class is used to store the whole rendering part into a class. This class should be inherited...">
<polygon fill="none" stroke="black" points="440.5,-464.5 440.5,-532.5 556.5,-532.5 556.5,-464.5 440.5,-464.5"/>
<text text-anchor="start" x="448.5" y="-520.5" font-family="Helvetica,sans-Serif" font-size="10.00">WorldParticles::Engine</text>
<text text-anchor="middle" x="498.5" y="-509.5" font-family="Helvetica,sans-Serif" font-size="10.00">::IRenderer</text>
<polyline fill="none" stroke="black" points="440.5,-502.5 556.5,-502.5 "/>
<text text-anchor="middle" x="498.5" y="-490.5" font-family="Helvetica,sans-Serif" font-size="10.00"> </text>
<polyline fill="none" stroke="black" points="440.5,-483.5 556.5,-483.5 "/>
<text text-anchor="start" x="448.5" y="-471.5" font-family="Helvetica,sans-Serif" font-size="10.00">+ draw()</text>
</a>
</g>
</g>
<!-- Node8&#45;&gt;Node2 -->
<g id="edge7" class="edge"><title>Node8&#45;&gt;Node2</title>
<path fill="none" stroke="#404040" d="M479.585,-464.329C466.143,-440.754 447.242,-407.607 428.636,-374.977"/>
<polygon fill="none" stroke="#404040" points="428.557,-374.838 422.11,-371.607 422.613,-364.414 429.059,-367.645 428.557,-374.838"/>
<text text-anchor="middle" x="466.5" y="-394" font-family="Helvetica,sans-Serif" font-size="10.00"> #renderer</text>
</g>
<!-- Node9 -->
<g id="node9" class="node"><title>Node9</title>
<polygon fill="none" stroke="#bfbfbf" points="575,-464.5 575,-532.5 710,-532.5 710,-464.5 575,-464.5"/>
<text text-anchor="start" x="583" y="-520.5" font-family="Helvetica,sans-Serif" font-size="10.00">shared_ptr&lt; WorldParticles</text>
<text text-anchor="middle" x="642.5" y="-509.5" font-family="Helvetica,sans-Serif" font-size="10.00">::Engine::Mesh &gt;</text>
<polyline fill="none" stroke="#bfbfbf" points="575,-502.5 710,-502.5 "/>
<text text-anchor="middle" x="642.5" y="-490.5" font-family="Helvetica,sans-Serif" font-size="10.00"> </text>
<polyline fill="none" stroke="#bfbfbf" points="575,-483.5 710,-483.5 "/>
<text text-anchor="middle" x="642.5" y="-471.5" font-family="Helvetica,sans-Serif" font-size="10.00"> </text>
</g>
<!-- Node9&#45;&gt;Node2 -->
<g id="edge8" class="edge"><title>Node9&#45;&gt;Node2</title>
<path fill="none" stroke="#404040" d="M611.148,-464.155C597.503,-450.119 581.094,-433.861 565.5,-420 522.798,-382.043 472.151,-342.387 432.38,-312.363"/>
<polygon fill="none" stroke="#404040" points="432.365,-312.352 425.166,-311.942 422.775,-305.139 429.974,-305.548 432.365,-312.352"/>
<text text-anchor="middle" x="562" y="-394" font-family="Helvetica,sans-Serif" font-size="10.00"> #mesh</text>
</g>
</g>
</svg>
