<?xml version="1.0" encoding="UTF-8" standalone="no"?>
<!DOCTYPE svg PUBLIC "-//W3C//DTD SVG 1.1//EN"
 "http://www.w3.org/Graphics/SVG/1.1/DTD/svg11.dtd">
<!-- Generated by graphviz version 2.38.0 (20140413.2041)
 -->
<!-- Title: Core/ShaderLibrary.cpp Pages: 1 -->
<svg width="813pt" height="84pt"
 viewBox="0.00 0.00 812.50 84.00" xmlns="http://www.w3.org/2000/svg" xmlns:xlink="http://www.w3.org/1999/xlink">
<g id="graph0" class="graph" transform="scale(1 1) rotate(0) translate(4 80)">
<title>Core/ShaderLibrary.cpp</title>
<!-- Node1 -->
<g id="node1" class="node"><title>Node1</title>
<polygon fill="#bfbfbf" stroke="black" points="199,-56.5 199,-75.5 318,-75.5 318,-56.5 199,-56.5"/>
<text text-anchor="middle" x="258.5" y="-63.5" font-family="Helvetica,sans-Serif" font-size="10.00">Core/ShaderLibrary.cpp</text>
</g>
<!-- Node2 -->
<g id="node2" class="node"><title>Node2</title>
<polygon fill="none" stroke="#bfbfbf" points="0,-0.5 0,-19.5 41,-19.5 41,-0.5 0,-0.5"/>
<text text-anchor="middle" x="20.5" y="-7.5" font-family="Helvetica,sans-Serif" font-size="10.00">string</text>
</g>
<!-- Node1&#45;&gt;Node2 -->
<g id="edge1" class="edge"><title>Node1&#45;&gt;Node2</title>
<path fill="none" stroke="midnightblue" d="M214.036,-56.4309C173.906,-48.4623 113.061,-35.8 51.0556,-19.9771"/>
<polygon fill="midnightblue" stroke="midnightblue" points="51.6543,-16.5171 41.0972,-17.4107 49.9074,-23.2956 51.6543,-16.5171"/>
</g>
<!-- Node3 -->
<g id="node3" class="node"><title>Node3</title>
<polygon fill="none" stroke="#bfbfbf" points="59.5,-0.5 59.5,-19.5 109.5,-19.5 109.5,-0.5 59.5,-0.5"/>
<text text-anchor="middle" x="84.5" y="-7.5" font-family="Helvetica,sans-Serif" font-size="10.00">fstream</text>
</g>
<!-- Node1&#45;&gt;Node3 -->
<g id="edge2" class="edge"><title>Node1&#45;&gt;Node3</title>
<path fill="none" stroke="midnightblue" d="M230.929,-56.4435C200.708,-47.0645 152.16,-31.9978 119.329,-21.8089"/>
<polygon fill="midnightblue" stroke="midnightblue" points="120.27,-18.4364 109.682,-18.8151 118.195,-25.1219 120.27,-18.4364"/>
</g>
<!-- Node4 -->
<g id="node4" class="node"><title>Node4</title>
<polygon fill="none" stroke="#bfbfbf" points="127.5,-0.5 127.5,-19.5 187.5,-19.5 187.5,-0.5 127.5,-0.5"/>
<text text-anchor="middle" x="157.5" y="-7.5" font-family="Helvetica,sans-Serif" font-size="10.00">streambuf</text>
</g>
<!-- Node1&#45;&gt;Node4 -->
<g id="edge3" class="edge"><title>Node1&#45;&gt;Node4</title>
<path fill="none" stroke="midnightblue" d="M242.273,-56.324C226.149,-47.7034 201.2,-34.3643 182.536,-24.3855"/>
<polygon fill="midnightblue" stroke="midnightblue" points="184.156,-21.283 173.687,-19.6545 180.856,-27.456 184.156,-21.283"/>
</g>
<!-- Node5 -->
<g id="node5" class="node"><title>Node5</title>
<polygon fill="none" stroke="#bfbfbf" points="205,-0.5 205,-19.5 312,-19.5 312,-0.5 205,-0.5"/>
<text text-anchor="middle" x="258.5" y="-7.5" font-family="Helvetica,sans-Serif" font-size="10.00">log4cpp/Category.hh</text>
</g>
<!-- Node1&#45;&gt;Node5 -->
<g id="edge4" class="edge"><title>Node1&#45;&gt;Node5</title>
<path fill="none" stroke="midnightblue" d="M258.5,-56.083C258.5,-49.0059 258.5,-38.8611 258.5,-29.9865"/>
<polygon fill="midnightblue" stroke="midnightblue" points="262,-29.751 258.5,-19.7511 255,-29.7511 262,-29.751"/>
</g>
<!-- Node6 -->
<g id="node6" class="node"><title>Node6</title>
<polygon fill="none" stroke="#bfbfbf" points="330.5,-0.5 330.5,-19.5 456.5,-19.5 456.5,-0.5 330.5,-0.5"/>
<text text-anchor="middle" x="393.5" y="-7.5" font-family="Helvetica,sans-Serif" font-size="10.00">Engine/Configuration.hpp</text>
</g>
<!-- Node1&#45;&gt;Node6 -->
<g id="edge5" class="edge"><title>Node1&#45;&gt;Node6</title>
<path fill="none" stroke="midnightblue" d="M279.891,-56.4435C302.207,-47.5171 337.403,-33.4387 362.708,-23.3168"/>
<polygon fill="midnightblue" stroke="midnightblue" points="364.224,-26.4801 372.209,-19.5164 361.624,-19.9807 364.224,-26.4801"/>
</g>
<!-- Node7 -->
<g id="node7" class="node"><title>Node7</title>
<polygon fill="none" stroke="#bfbfbf" points="474.5,-0.5 474.5,-19.5 626.5,-19.5 626.5,-0.5 474.5,-0.5"/>
<text text-anchor="middle" x="550.5" y="-7.5" font-family="Helvetica,sans-Serif" font-size="10.00">Engine/Core/ShaderLibrary.hpp</text>
</g>
<!-- Node1&#45;&gt;Node7 -->
<g id="edge6" class="edge"><title>Node1&#45;&gt;Node7</title>
<path fill="none" stroke="midnightblue" d="M304.768,-56.4435C356.241,-46.9246 439.393,-31.5472 494.499,-21.3563"/>
<polygon fill="midnightblue" stroke="midnightblue" points="495.251,-24.7766 504.448,-19.5164 493.978,-17.8933 495.251,-24.7766"/>
</g>
<!-- Node8 -->
<g id="node8" class="node"><title>Node8</title>
<polygon fill="none" stroke="#bfbfbf" points="644.5,-0.5 644.5,-19.5 804.5,-19.5 804.5,-0.5 644.5,-0.5"/>
<text text-anchor="middle" x="724.5" y="-7.5" font-family="Helvetica,sans-Serif" font-size="10.00">Engine/Core/ShaderMapping.hpp</text>
</g>
<!-- Node1&#45;&gt;Node8 -->
<g id="edge7" class="edge"><title>Node1&#45;&gt;Node8</title>
<path fill="none" stroke="midnightblue" d="M318.467,-58.051C400.447,-48.5512 547.899,-31.4645 640.749,-20.7051"/>
<polygon fill="midnightblue" stroke="midnightblue" points="641.424,-24.1504 650.954,-19.5225 640.618,-17.1969 641.424,-24.1504"/>
</g>
</g>
</svg>
