<?xml version="1.0" encoding="UTF-8" standalone="no"?>
<!DOCTYPE svg PUBLIC "-//W3C//DTD SVG 1.1//EN"
 "http://www.w3.org/Graphics/SVG/1.1/DTD/svg11.dtd">
<!-- Generated by graphviz version 2.38.0 (20140413.2041)
 -->
<!-- Title: engine/ShaderLibrary/ShaderLibrary.cpp Pages: 1 -->
<svg width="821pt" height="207pt"
 viewBox="0.00 0.00 820.50 207.00" xmlns="http://www.w3.org/2000/svg" xmlns:xlink="http://www.w3.org/1999/xlink">
<g id="graph0" class="graph" transform="scale(1 1) rotate(0) translate(4 203)">
<title>engine/ShaderLibrary/ShaderLibrary.cpp</title>
<!-- Node1 -->
<g id="node1" class="node"><title>Node1</title>
<polygon fill="#bfbfbf" stroke="black" points="418,-168.5 418,-198.5 526,-198.5 526,-168.5 418,-168.5"/>
<text text-anchor="start" x="426" y="-186.5" font-family="Helvetica,sans-Serif" font-size="10.00">engine/ShaderLibrary</text>
<text text-anchor="middle" x="472" y="-175.5" font-family="Helvetica,sans-Serif" font-size="10.00">/ShaderLibrary.cpp</text>
</g>
<!-- Node2 -->
<g id="node2" class="node"><title>Node2</title>
<polygon fill="none" stroke="#bfbfbf" points="250.5,-0.5 250.5,-19.5 291.5,-19.5 291.5,-0.5 250.5,-0.5"/>
<text text-anchor="middle" x="271" y="-7.5" font-family="Helvetica,sans-Serif" font-size="10.00">string</text>
</g>
<!-- Node1&#45;&gt;Node2 -->
<g id="edge1" class="edge"><title>Node1&#45;&gt;Node2</title>
<path fill="none" stroke="midnightblue" d="M417.985,-180.123C341.115,-175.664 205.422,-163.463 169,-132 142.732,-109.308 131.228,-84.5309 151,-56 170.891,-27.2974 211.497,-16.8747 239.941,-13.1063"/>
<polygon fill="midnightblue" stroke="midnightblue" points="240.629,-16.5514 250.179,-11.9635 239.852,-9.59456 240.629,-16.5514"/>
</g>
<!-- Node3 -->
<g id="node3" class="node"><title>Node3</title>
<polygon fill="none" stroke="#bfbfbf" points="447,-112.5 447,-131.5 497,-131.5 497,-112.5 447,-112.5"/>
<text text-anchor="middle" x="472" y="-119.5" font-family="Helvetica,sans-Serif" font-size="10.00">fstream</text>
</g>
<!-- Node1&#45;&gt;Node3 -->
<g id="edge2" class="edge"><title>Node1&#45;&gt;Node3</title>
<path fill="none" stroke="midnightblue" d="M472,-168.399C472,-160.466 472,-150.458 472,-141.858"/>
<polygon fill="midnightblue" stroke="midnightblue" points="475.5,-141.658 472,-131.658 468.5,-141.658 475.5,-141.658"/>
</g>
<!-- Node4 -->
<g id="node4" class="node"><title>Node4</title>
<polygon fill="none" stroke="#bfbfbf" points="515,-112.5 515,-131.5 575,-131.5 575,-112.5 515,-112.5"/>
<text text-anchor="middle" x="545" y="-119.5" font-family="Helvetica,sans-Serif" font-size="10.00">streambuf</text>
</g>
<!-- Node1&#45;&gt;Node4 -->
<g id="edge3" class="edge"><title>Node1&#45;&gt;Node4</title>
<path fill="none" stroke="midnightblue" d="M489.3,-168.399C500.455,-159.308 514.954,-147.49 526.362,-138.191"/>
<polygon fill="midnightblue" stroke="midnightblue" points="528.838,-140.689 534.378,-131.658 524.415,-135.263 528.838,-140.689"/>
</g>
<!-- Node5 -->
<g id="node5" class="node"><title>Node5</title>
<polygon fill="none" stroke="#bfbfbf" points="592.5,-112.5 592.5,-131.5 699.5,-131.5 699.5,-112.5 592.5,-112.5"/>
<text text-anchor="middle" x="646" y="-119.5" font-family="Helvetica,sans-Serif" font-size="10.00">log4cpp/Category.hh</text>
</g>
<!-- Node1&#45;&gt;Node5 -->
<g id="edge4" class="edge"><title>Node1&#45;&gt;Node5</title>
<path fill="none" stroke="midnightblue" d="M513.236,-168.399C543.171,-158.163 583.213,-144.47 611.469,-134.808"/>
<polygon fill="midnightblue" stroke="midnightblue" points="612.606,-138.118 620.935,-131.571 610.341,-131.495 612.606,-138.118"/>
</g>
<!-- Node6 -->
<g id="node6" class="node"><title>Node6</title>
<g id="a_node6"><a xlink:href="../../de/df7/worldparticles_8hpp.html" target="_top" xlink:title="wordparticles configuration file ">
<polygon fill="none" stroke="black" points="717.5,-112.5 717.5,-131.5 812.5,-131.5 812.5,-112.5 717.5,-112.5"/>
<text text-anchor="middle" x="765" y="-119.5" font-family="Helvetica,sans-Serif" font-size="10.00">worldparticles.hpp</text>
</a>
</g>
</g>
<!-- Node1&#45;&gt;Node6 -->
<g id="edge5" class="edge"><title>Node1&#45;&gt;Node6</title>
<path fill="none" stroke="midnightblue" d="M526.082,-171.517C579.408,-160.688 660.347,-144.252 712.956,-133.569"/>
<polygon fill="midnightblue" stroke="midnightblue" points="713.98,-136.932 723.084,-131.512 712.587,-130.072 713.98,-136.932"/>
</g>
<!-- Node7 -->
<g id="node7" class="node"><title>Node7</title>
<g id="a_node7"><a xlink:href="../../d2/db1/ShaderLibrary_8hpp.html" target="_top" xlink:title="ShaderLibrary.hpp">
<polygon fill="none" stroke="black" points="178.5,-112.5 178.5,-131.5 273.5,-131.5 273.5,-112.5 178.5,-112.5"/>
<text text-anchor="middle" x="226" y="-119.5" font-family="Helvetica,sans-Serif" font-size="10.00">ShaderLibrary.hpp</text>
</a>
</g>
</g>
<!-- Node1&#45;&gt;Node7 -->
<g id="edge6" class="edge"><title>Node1&#45;&gt;Node7</title>
<path fill="none" stroke="midnightblue" d="M417.71,-169.369C373.659,-158.714 312.296,-143.872 270.962,-133.875"/>
<polygon fill="midnightblue" stroke="midnightblue" points="271.71,-130.455 261.168,-131.506 270.065,-137.259 271.71,-130.455"/>
</g>
<!-- Node14 -->
<g id="node14" class="node"><title>Node14</title>
<g id="a_node14"><a xlink:href="../../d3/d1a/ShaderMapping_8hpp.html" target="_top" xlink:title="internal/ShaderMapping.hpp">
<polygon fill="none" stroke="black" points="291.5,-112.5 291.5,-131.5 428.5,-131.5 428.5,-112.5 291.5,-112.5"/>
<text text-anchor="middle" x="360" y="-119.5" font-family="Helvetica,sans-Serif" font-size="10.00">internal/ShaderMapping.hpp</text>
</a>
</g>
</g>
<!-- Node1&#45;&gt;Node14 -->
<g id="edge15" class="edge"><title>Node1&#45;&gt;Node14</title>
<path fill="none" stroke="midnightblue" d="M445.458,-168.399C427.337,-158.773 403.464,-146.09 385.557,-136.577"/>
<polygon fill="midnightblue" stroke="midnightblue" points="386.77,-133.258 376.297,-131.658 383.486,-139.44 386.77,-133.258"/>
</g>
<!-- Node8 -->
<g id="node8" class="node"><title>Node8</title>
<polygon fill="none" stroke="#bfbfbf" points="160,-56.5 160,-75.5 212,-75.5 212,-56.5 160,-56.5"/>
<text text-anchor="middle" x="186" y="-63.5" font-family="Helvetica,sans-Serif" font-size="10.00">memory</text>
</g>
<!-- Node7&#45;&gt;Node8 -->
<g id="edge7" class="edge"><title>Node7&#45;&gt;Node8</title>
<path fill="none" stroke="midnightblue" d="M219.395,-112.083C213.745,-104.455 205.455,-93.2645 198.549,-83.9408"/>
<polygon fill="midnightblue" stroke="midnightblue" points="201.247,-81.7034 192.482,-75.7511 195.622,-85.87 201.247,-81.7034"/>
</g>
<!-- Node9 -->
<g id="node9" class="node"><title>Node9</title>
<g id="a_node9"><a xlink:href="../../df/d67/Library_8hpp.html" target="_top" xlink:title="Library.hpp">
<polygon fill="none" stroke="black" points="20.5,-56.5 20.5,-75.5 85.5,-75.5 85.5,-56.5 20.5,-56.5"/>
<text text-anchor="middle" x="53" y="-63.5" font-family="Helvetica,sans-Serif" font-size="10.00">Library.hpp</text>
</a>
</g>
</g>
<!-- Node7&#45;&gt;Node9 -->
<g id="edge8" class="edge"><title>Node7&#45;&gt;Node9</title>
<path fill="none" stroke="midnightblue" d="M198.588,-112.444C169.231,-103.28 122.481,-88.6876 89.9041,-78.5192"/>
<polygon fill="midnightblue" stroke="midnightblue" points="90.8728,-75.1551 80.2841,-75.5164 88.787,-81.8371 90.8728,-75.1551"/>
</g>
<!-- Node12 -->
<g id="node12" class="node"><title>Node12</title>
<g id="a_node12"><a xlink:href="../../d4/d6e/Shader_8hpp.html" target="_top" xlink:title="Shader.hpp">
<polygon fill="none" stroke="black" points="346,-56.5 346,-75.5 412,-75.5 412,-56.5 346,-56.5"/>
<text text-anchor="middle" x="379" y="-63.5" font-family="Helvetica,sans-Serif" font-size="10.00">Shader.hpp</text>
</a>
</g>
</g>
<!-- Node7&#45;&gt;Node12 -->
<g id="edge12" class="edge"><title>Node7&#45;&gt;Node12</title>
<path fill="none" stroke="midnightblue" d="M250.243,-112.444C275.871,-103.399 316.485,-89.064 345.238,-78.9158"/>
<polygon fill="midnightblue" stroke="midnightblue" points="346.605,-82.1452 354.87,-75.5164 344.275,-75.5442 346.605,-82.1452"/>
</g>
<!-- Node13 -->
<g id="node13" class="node"><title>Node13</title>
<g id="a_node13"><a xlink:href="../../d2/dba/ShaderNames_8hpp.html" target="_top" xlink:title="ShaderNames.hpp">
<polygon fill="none" stroke="black" points="230,-56.5 230,-75.5 328,-75.5 328,-56.5 230,-56.5"/>
<text text-anchor="middle" x="279" y="-63.5" font-family="Helvetica,sans-Serif" font-size="10.00">ShaderNames.hpp</text>
</a>
</g>
</g>
<!-- Node7&#45;&gt;Node13 -->
<g id="edge14" class="edge"><title>Node7&#45;&gt;Node13</title>
<path fill="none" stroke="midnightblue" d="M234.752,-112.083C242.47,-104.22 253.905,-92.5688 263.217,-83.0813"/>
<polygon fill="midnightblue" stroke="midnightblue" points="265.904,-85.3396 270.411,-75.7511 260.908,-80.4363 265.904,-85.3396"/>
</g>
<!-- Node9&#45;&gt;Node9 -->
<g id="edge11" class="edge"><title>Node9&#45;&gt;Node9</title>
<path fill="none" stroke="midnightblue" d="M74.5383,-75.5252C89.1731,-78.3079 103.5,-75.1328 103.5,-66 103.5,-59.0077 95.1018,-55.5077 84.5972,-55.5"/>
<polygon fill="midnightblue" stroke="midnightblue" points="84.1541,-52.0265 74.5383,-56.4748 84.8293,-58.9938 84.1541,-52.0265"/>
</g>
<!-- Node10 -->
<g id="node10" class="node"><title>Node10</title>
<polygon fill="none" stroke="#bfbfbf" points="0,-0.5 0,-19.5 44,-19.5 44,-0.5 0,-0.5"/>
<text text-anchor="middle" x="22" y="-7.5" font-family="Helvetica,sans-Serif" font-size="10.00">vector</text>
</g>
<!-- Node9&#45;&gt;Node10 -->
<g id="edge9" class="edge"><title>Node9&#45;&gt;Node10</title>
<path fill="none" stroke="midnightblue" d="M47.881,-56.083C43.5925,-48.6127 37.3418,-37.7244 32.0577,-28.5199"/>
<polygon fill="midnightblue" stroke="midnightblue" points="35.0379,-26.6811 27.0238,-19.7511 28.9671,-30.1662 35.0379,-26.6811"/>
</g>
<!-- Node11 -->
<g id="node11" class="node"><title>Node11</title>
<polygon fill="none" stroke="#bfbfbf" points="62,-0.5 62,-19.5 124,-19.5 124,-0.5 62,-0.5"/>
<text text-anchor="middle" x="93" y="-7.5" font-family="Helvetica,sans-Serif" font-size="10.00">Library.tpp</text>
</g>
<!-- Node9&#45;&gt;Node11 -->
<g id="edge10" class="edge"><title>Node9&#45;&gt;Node11</title>
<path fill="none" stroke="midnightblue" d="M59.6052,-56.083C65.2552,-48.4554 73.5448,-37.2645 80.4512,-27.9408"/>
<polygon fill="midnightblue" stroke="midnightblue" points="83.3779,-29.87 86.5177,-19.7511 77.7529,-25.7034 83.3779,-29.87"/>
</g>
<!-- Node12&#45;&gt;Node2 -->
<g id="edge13" class="edge"><title>Node12&#45;&gt;Node2</title>
<path fill="none" stroke="midnightblue" d="M361.648,-56.324C344.328,-47.6641 317.485,-34.2424 297.498,-24.249"/>
<polygon fill="midnightblue" stroke="midnightblue" points="298.819,-20.9962 288.309,-19.6545 295.688,-27.2572 298.819,-20.9962"/>
</g>
<!-- Node14&#45;&gt;Node12 -->
<g id="edge17" class="edge"><title>Node14&#45;&gt;Node12</title>
<path fill="none" stroke="midnightblue" d="M363.137,-112.083C365.683,-104.849 369.356,-94.4087 372.527,-85.3968"/>
<polygon fill="midnightblue" stroke="midnightblue" points="375.903,-86.3459 375.921,-75.7511 369.3,-84.0225 375.903,-86.3459"/>
</g>
<!-- Node14&#45;&gt;Node13 -->
<g id="edge18" class="edge"><title>Node14&#45;&gt;Node13</title>
<path fill="none" stroke="midnightblue" d="M346.986,-112.324C334.468,-103.979 315.318,-91.2122 300.529,-81.3524"/>
<polygon fill="midnightblue" stroke="midnightblue" points="302.244,-78.2894 291.982,-75.6545 298.361,-84.1137 302.244,-78.2894"/>
</g>
<!-- Node15 -->
<g id="node15" class="node"><title>Node15</title>
<polygon fill="none" stroke="#bfbfbf" points="430.5,-56.5 430.5,-75.5 465.5,-75.5 465.5,-56.5 430.5,-56.5"/>
<text text-anchor="middle" x="448" y="-63.5" font-family="Helvetica,sans-Serif" font-size="10.00">map</text>
</g>
<!-- Node14&#45;&gt;Node15 -->
<g id="edge16" class="edge"><title>Node14&#45;&gt;Node15</title>
<path fill="none" stroke="midnightblue" d="M374.139,-112.324C387.866,-103.9 408.936,-90.9709 425.064,-81.0741"/>
<polygon fill="midnightblue" stroke="midnightblue" points="427.204,-83.8678 433.896,-75.6545 423.543,-77.9016 427.204,-83.8678"/>
</g>
</g>
</svg>
