<?xml version="1.0" encoding="UTF-8" standalone="no"?>
<!DOCTYPE svg PUBLIC "-//W3C//DTD SVG 1.1//EN"
 "http://www.w3.org/Graphics/SVG/1.1/DTD/svg11.dtd">
<!-- Generated by graphviz version 2.38.0 (20140413.2041)
 -->
<!-- Title: engine/Shaders/Shader/Shader.cpp Pages: 1 -->
<!--zoomable 554 -->
<svg id="main" version="1.1" xmlns="http://www.w3.org/2000/svg" xmlns:xlink="http://www.w3.org/1999/xlink" xml:space="preserve" onload="init(evt)">
<style type="text/css"><![CDATA[
.edge:hover path { stroke: red; }
.edge:hover polygon { stroke: red; fill: red; }
]]></style>
<script type="text/javascript"><![CDATA[
var edges = document.getElementsByTagName('g');
if (edges && edges.length) {
  for (var i=0;i<edges.length;i++) {
    if (edges[i].id.substr(0,4)=='edge') {
      edges[i].setAttribute('class','edge');
    }
  }
}
]]></script>
        <defs>
                <circle id="rim" cx="0" cy="0" r="7"/>
                <circle id="rim2" cx="0" cy="0" r="3.5"/>
                <g id="zoomPlus">
                        <use xlink:href="#rim" fill="#404040">
                                <set attributeName="fill" to="#808080" begin="zoomplus.mouseover" end="zoomplus.mouseout"/>
                        </use>
                        <path d="M-4,0h8M0,-4v8" fill="none" stroke="white" stroke-width="1.5" pointer-events="none"/>
                </g>
                <g id="zoomMin">
                        <use xlink:href="#rim" fill="#404040">
                                <set attributeName="fill" to="#808080" begin="zoomminus.mouseover" end="zoomminus.mouseout"/>
                        </use>
                        <path d="M-4,0h8" fill="none" stroke="white" stroke-width="1.5" pointer-events="none"/>
                </g>
                <g id="dirArrow">
                        <path fill="none" stroke="white" stroke-width="1.5" d="M0,-3.0v7 M-2.5,-0.5L0,-3.0L2.5,-0.5"/>
                </g>
               <g id="resetDef">
                       <use xlink:href="#rim2" fill="#404040">
                               <set attributeName="fill" to="#808080" begin="reset.mouseover" end="reset.mouseout"/>
                       </use>
               </g>
        </defs>

<script type="text/javascript">
var viewWidth = 1232;
var viewHeight = 554;
var sectionId = 'dynsection-0';
</script>
<script xlink:href="../../svgpan.js"/>
<svg id="graph" class="graph">
<g id="viewport">
<title>engine/Shaders/Shader/Shader.cpp</title>
<!-- Node1 -->
<g id="node1" class="node"><title>Node1</title>
<polygon fill="#bfbfbf" stroke="black" points="471,-515.5 471,-545.5 589,-545.5 589,-515.5 471,-515.5"/>
<text text-anchor="start" x="479" y="-533.5" font-family="Helvetica,sans-Serif" font-size="10.00">engine/Shaders/Shader</text>
<text text-anchor="middle" x="530" y="-522.5" font-family="Helvetica,sans-Serif" font-size="10.00">/Shader.cpp</text>
</g>
<!-- Node2 -->
<g id="node2" class="node"><title>Node2</title>
<g id="a_node2"><a xlink:href="../../d4/d6e/Shader_8hpp.html" target="_top" xlink:title="Shader.hpp">
<polygon fill="none" stroke="black" points="137,-56.5 137,-75.5 203,-75.5 203,-56.5 137,-56.5"/>
<text text-anchor="middle" x="170" y="-63.5" font-family="Helvetica,sans-Serif" font-size="10.00">Shader.hpp</text>
</a>
</g>
</g>
<!-- Node1&#45;&gt;Node2 -->
<g id="edge1" class="edge"><title>Node1&#45;&gt;Node2</title>
<path fill="none" stroke="midnightblue" d="M470.745,-528.391C332.443,-524.201 0,-504.179 0,-408.5 0,-408.5 0,-408.5 0,-177 0,-116.651 76.4491,-87.7746 126.814,-75.299"/>
<polygon fill="midnightblue" stroke="midnightblue" points="127.884,-78.643 136.819,-72.9491 126.283,-71.8285 127.884,-78.643"/>
</g>
<!-- Node4 -->
<g id="node4" class="node"><title>Node4</title>
<g id="a_node4"><a xlink:href="../../d1/d2a/glwindow_8h.html" target="_top" xlink:title="glwindow.h">
<polygon fill="none" stroke="black" points="497.5,-459.5 497.5,-478.5 562.5,-478.5 562.5,-459.5 497.5,-459.5"/>
<text text-anchor="middle" x="530" y="-466.5" font-family="Helvetica,sans-Serif" font-size="10.00">glwindow.h</text>
</a>
</g>
</g>
<!-- Node1&#45;&gt;Node4 -->
<g id="edge3" class="edge"><title>Node1&#45;&gt;Node4</title>
<path fill="none" stroke="midnightblue" d="M530,-515.399C530,-507.466 530,-497.458 530,-488.858"/>
<polygon fill="midnightblue" stroke="midnightblue" points="533.5,-488.658 530,-478.658 526.5,-488.658 533.5,-488.658"/>
</g>
<!-- Node35 -->
<g id="node35" class="node"><title>Node35</title>
<polygon fill="none" stroke="#bfbfbf" points="580.5,-459.5 580.5,-478.5 687.5,-478.5 687.5,-459.5 580.5,-459.5"/>
<text text-anchor="middle" x="634" y="-466.5" font-family="Helvetica,sans-Serif" font-size="10.00">log4cpp/Category.hh</text>
</g>
<!-- Node1&#45;&gt;Node35 -->
<g id="edge53" class="edge"><title>Node1&#45;&gt;Node35</title>
<path fill="none" stroke="midnightblue" d="M554.647,-515.399C571.317,-505.862 593.231,-493.325 609.805,-483.842"/>
<polygon fill="midnightblue" stroke="midnightblue" points="611.925,-486.662 618.867,-478.658 608.449,-480.586 611.925,-486.662"/>
</g>
<!-- Node3 -->
<g id="node3" class="node"><title>Node3</title>
<polygon fill="none" stroke="#bfbfbf" points="149.5,-0.5 149.5,-19.5 190.5,-19.5 190.5,-0.5 149.5,-0.5"/>
<text text-anchor="middle" x="170" y="-7.5" font-family="Helvetica,sans-Serif" font-size="10.00">string</text>
</g>
<!-- Node2&#45;&gt;Node3 -->
<g id="edge2" class="edge"><title>Node2&#45;&gt;Node3</title>
<path fill="none" stroke="midnightblue" d="M170,-56.083C170,-49.0059 170,-38.8611 170,-29.9865"/>
<polygon fill="midnightblue" stroke="midnightblue" points="173.5,-29.751 170,-19.7511 166.5,-29.7511 173.5,-29.751"/>
</g>
<!-- Node5 -->
<g id="node5" class="node"><title>Node5</title>
<polygon fill="none" stroke="#bfbfbf" points="739.5,-398 739.5,-417 798.5,-417 798.5,-398 739.5,-398"/>
<text text-anchor="middle" x="769" y="-405" font-family="Helvetica,sans-Serif" font-size="10.00">QWindow</text>
</g>
<!-- Node4&#45;&gt;Node5 -->
<g id="edge4" class="edge"><title>Node4&#45;&gt;Node5</title>
<path fill="none" stroke="midnightblue" d="M562.705,-460.762C617.325,-448.657 721.961,-425.387 730,-423 732.636,-422.217 735.35,-421.347 738.061,-420.432"/>
<polygon fill="midnightblue" stroke="midnightblue" points="739.467,-423.647 747.719,-417.002 737.124,-417.051 739.467,-423.647"/>
</g>
<!-- Node6 -->
<g id="node6" class="node"><title>Node6</title>
<polygon fill="none" stroke="#bfbfbf" points="816.5,-398 816.5,-417 911.5,-417 911.5,-398 816.5,-398"/>
<text text-anchor="middle" x="864" y="-405" font-family="Helvetica,sans-Serif" font-size="10.00">QOpenGLContext</text>
</g>
<!-- Node4&#45;&gt;Node6 -->
<g id="edge5" class="edge"><title>Node4&#45;&gt;Node6</title>
<path fill="none" stroke="midnightblue" d="M562.635,-460.637C565.46,-460.06 568.277,-459.506 571,-459 675.316,-439.615 703.018,-444.104 807,-423 812.122,-421.96 817.475,-420.757 822.761,-419.496"/>
<polygon fill="midnightblue" stroke="midnightblue" points="823.895,-422.822 832.767,-417.031 822.22,-416.025 823.895,-422.822"/>
</g>
<!-- Node7 -->
<g id="node7" class="node"><title>Node7</title>
<polygon fill="none" stroke="#bfbfbf" points="250.5,-392.5 250.5,-422.5 363.5,-422.5 363.5,-392.5 250.5,-392.5"/>
<text text-anchor="start" x="258.5" y="-410.5" font-family="Helvetica,sans-Serif" font-size="10.00">QOpenGLFunctions_4</text>
<text text-anchor="middle" x="307" y="-399.5" font-family="Helvetica,sans-Serif" font-size="10.00">_2_Core</text>
</g>
<!-- Node4&#45;&gt;Node7 -->
<g id="edge6" class="edge"><title>Node4&#45;&gt;Node7</title>
<path fill="none" stroke="midnightblue" d="M498.05,-459.475C464.601,-450.551 411.224,-436.309 369.382,-425.144"/>
<polygon fill="midnightblue" stroke="midnightblue" points="370.121,-421.719 359.557,-422.523 368.316,-428.483 370.121,-421.719"/>
</g>
<!-- Node8 -->
<g id="node8" class="node"><title>Node8</title>
<polygon fill="none" stroke="#bfbfbf" points="381.5,-398 381.5,-417 448.5,-417 448.5,-398 381.5,-398"/>
<text text-anchor="middle" x="415" y="-405" font-family="Helvetica,sans-Serif" font-size="10.00">QKeyEvent</text>
</g>
<!-- Node4&#45;&gt;Node8 -->
<g id="edge7" class="edge"><title>Node4&#45;&gt;Node8</title>
<path fill="none" stroke="midnightblue" d="M513.523,-459.475C494.395,-449.578 462.627,-433.142 440.348,-421.615"/>
<polygon fill="midnightblue" stroke="midnightblue" points="441.936,-418.496 431.446,-417.009 438.719,-424.713 441.936,-418.496"/>
</g>
<!-- Node9 -->
<g id="node9" class="node"><title>Node9</title>
<polygon fill="none" stroke="#bfbfbf" points="467,-398 467,-417 513,-417 513,-398 467,-398"/>
<text text-anchor="middle" x="490" y="-405" font-family="Helvetica,sans-Serif" font-size="10.00">QTime</text>
</g>
<!-- Node4&#45;&gt;Node9 -->
<g id="edge8" class="edge"><title>Node4&#45;&gt;Node9</title>
<path fill="none" stroke="midnightblue" d="M524.269,-459.475C518.328,-450.638 508.883,-436.589 501.412,-425.475"/>
<polygon fill="midnightblue" stroke="midnightblue" points="504.204,-423.355 495.72,-417.009 498.395,-427.261 504.204,-423.355"/>
</g>
<!-- Node10 -->
<g id="node10" class="node"><title>Node10</title>
<g id="a_node10"><a xlink:href="../../d4/d1c/GameEngine_8hpp.html" target="_top" xlink:title="GameEngine.hpp">
<polygon fill="none" stroke="black" points="629,-398 629,-417 721,-417 721,-398 629,-398"/>
<text text-anchor="middle" x="675" y="-405" font-family="Helvetica,sans-Serif" font-size="10.00">GameEngine.hpp</text>
</a>
</g>
</g>
<!-- Node4&#45;&gt;Node10 -->
<g id="edge9" class="edge"><title>Node4&#45;&gt;Node10</title>
<path fill="none" stroke="midnightblue" d="M550.775,-459.475C575.432,-449.357 616.745,-432.405 644.902,-420.851"/>
<polygon fill="midnightblue" stroke="midnightblue" points="646.341,-424.043 654.264,-417.009 643.683,-417.567 646.341,-424.043"/>
</g>
<!-- Node27 -->
<g id="node27" class="node"><title>Node27</title>
<g id="a_node27"><a xlink:href="../../dc/d51/model_8h.html" target="_top" xlink:title="model/model.h">
<polygon fill="none" stroke="black" points="531,-398 531,-417 611,-417 611,-398 531,-398"/>
<text text-anchor="middle" x="571" y="-405" font-family="Helvetica,sans-Serif" font-size="10.00">model/model.h</text>
</a>
</g>
</g>
<!-- Node4&#45;&gt;Node27 -->
<g id="edge45" class="edge"><title>Node4&#45;&gt;Node27</title>
<path fill="none" stroke="midnightblue" d="M535.874,-459.475C541.963,-450.638 551.645,-436.589 559.303,-425.475"/>
<polygon fill="midnightblue" stroke="midnightblue" points="562.344,-427.229 565.137,-417.009 556.58,-423.258 562.344,-427.229"/>
</g>
<!-- Node11 -->
<g id="node11" class="node"><title>Node11</title>
<g id="a_node11"><a xlink:href="../../de/df7/worldparticles_8hpp.html" target="_top" xlink:title="wordparticles configuration file ">
<polygon fill="none" stroke="black" points="925.5,-112.5 925.5,-131.5 1020.5,-131.5 1020.5,-112.5 925.5,-112.5"/>
<text text-anchor="middle" x="973" y="-119.5" font-family="Helvetica,sans-Serif" font-size="10.00">worldparticles.hpp</text>
</a>
</g>
</g>
<!-- Node10&#45;&gt;Node11 -->
<g id="edge10" class="edge"><title>Node10&#45;&gt;Node11</title>
<path fill="none" stroke="midnightblue" d="M705.433,-397.975C713.395,-395.883 721.992,-393.745 730,-392 839.266,-368.188 1223,-402.831 1223,-291 1223,-291 1223,-291 1223,-233 1223,-202.902 1226.24,-188.281 1204,-168 1179.14,-145.324 1090.63,-133.199 1030.68,-127.435"/>
<polygon fill="midnightblue" stroke="midnightblue" points="1030.86,-123.937 1020.58,-126.498 1030.21,-130.907 1030.86,-123.937"/>
</g>
<!-- Node12 -->
<g id="node12" class="node"><title>Node12</title>
<g id="a_node12"><a xlink:href="../../db/de8/Scene_8hpp.html" target="_top" xlink:title="Scene.hpp">
<polygon fill="none" stroke="black" points="865.5,-336.5 865.5,-355.5 928.5,-355.5 928.5,-336.5 865.5,-336.5"/>
<text text-anchor="middle" x="897" y="-343.5" font-family="Helvetica,sans-Serif" font-size="10.00">Scene.hpp</text>
</a>
</g>
</g>
<!-- Node10&#45;&gt;Node12 -->
<g id="edge11" class="edge"><title>Node10&#45;&gt;Node12</title>
<path fill="none" stroke="midnightblue" d="M706.807,-397.975C745.877,-387.504 812.26,-369.712 855.361,-358.16"/>
<polygon fill="midnightblue" stroke="midnightblue" points="856.499,-361.479 865.252,-355.509 854.687,-354.717 856.499,-361.479"/>
</g>
<!-- Node13 -->
<g id="node13" class="node"><title>Node13</title>
<polygon fill="none" stroke="#bfbfbf" points="351,-56.5 351,-75.5 403,-75.5 403,-56.5 351,-56.5"/>
<text text-anchor="middle" x="377" y="-63.5" font-family="Helvetica,sans-Serif" font-size="10.00">memory</text>
</g>
<!-- Node12&#45;&gt;Node13 -->
<g id="edge12" class="edge"><title>Node12&#45;&gt;Node13</title>
<path fill="none" stroke="midnightblue" d="M865.201,-343.878C776.712,-339.166 524.056,-314.713 371,-188 343.152,-164.945 330.267,-146.196 342,-112 345.719,-101.161 353.233,-90.9216 360.349,-82.9566"/>
<polygon fill="midnightblue" stroke="midnightblue" points="363.054,-85.1922 367.444,-75.5497 357.999,-80.3498 363.054,-85.1922"/>
</g>
<!-- Node14 -->
<g id="node14" class="node"><title>Node14</title>
<polygon fill="none" stroke="#bfbfbf" points="982.5,-280.5 982.5,-299.5 1011.5,-299.5 1011.5,-280.5 982.5,-280.5"/>
<text text-anchor="middle" x="997" y="-287.5" font-family="Helvetica,sans-Serif" font-size="10.00">list</text>
</g>
<!-- Node12&#45;&gt;Node14 -->
<g id="edge13" class="edge"><title>Node12&#45;&gt;Node14</title>
<path fill="none" stroke="midnightblue" d="M913.067,-336.324C929.334,-327.54 954.674,-313.856 973.258,-303.821"/>
<polygon fill="midnightblue" stroke="midnightblue" points="975.141,-306.782 982.277,-298.951 971.814,-300.623 975.141,-306.782"/>
</g>
<!-- Node15 -->
<g id="node15" class="node"><title>Node15</title>
<g id="a_node15"><a xlink:href="../../d4/db5/GameObject_8hpp.html" target="_top" xlink:title="GameObject.hpp">
<polygon fill="none" stroke="black" points="852,-224.5 852,-243.5 942,-243.5 942,-224.5 852,-224.5"/>
<text text-anchor="middle" x="897" y="-231.5" font-family="Helvetica,sans-Serif" font-size="10.00">GameObject.hpp</text>
</a>
</g>
</g>
<!-- Node12&#45;&gt;Node15 -->
<g id="edge14" class="edge"><title>Node12&#45;&gt;Node15</title>
<path fill="none" stroke="midnightblue" d="M893.598,-336.215C889.184,-323.767 882.346,-300.253 885,-280 886.156,-271.181 888.534,-261.633 890.87,-253.61"/>
<polygon fill="midnightblue" stroke="midnightblue" points="894.285,-254.415 893.912,-243.827 887.601,-252.337 894.285,-254.415"/>
</g>
<!-- Node25 -->
<g id="node25" class="node"><title>Node25</title>
<g id="a_node25"><a xlink:href="../../d6/d80/Camera_8hpp.html" target="_top" xlink:title="Camera.hpp">
<polygon fill="none" stroke="black" points="894,-280.5 894,-299.5 964,-299.5 964,-280.5 894,-280.5"/>
<text text-anchor="middle" x="929" y="-287.5" font-family="Helvetica,sans-Serif" font-size="10.00">Camera.hpp</text>
</a>
</g>
</g>
<!-- Node12&#45;&gt;Node25 -->
<g id="edge40" class="edge"><title>Node12&#45;&gt;Node25</title>
<path fill="none" stroke="midnightblue" d="M902.284,-336.083C906.711,-328.613 913.163,-317.724 918.618,-308.52"/>
<polygon fill="midnightblue" stroke="midnightblue" points="921.727,-310.138 923.814,-299.751 915.705,-306.57 921.727,-310.138"/>
</g>
<!-- Node26 -->
<g id="node26" class="node"><title>Node26</title>
<g id="a_node26"><a xlink:href="../../d5/dd5/Light_8hpp.html" target="_top" xlink:title="Light.hpp">
<polygon fill="none" stroke="black" points="1029,-280.5 1029,-299.5 1085,-299.5 1085,-280.5 1029,-280.5"/>
<text text-anchor="middle" x="1057" y="-287.5" font-family="Helvetica,sans-Serif" font-size="10.00">Light.hpp</text>
</a>
</g>
</g>
<!-- Node12&#45;&gt;Node26 -->
<g id="edge44" class="edge"><title>Node12&#45;&gt;Node26</title>
<path fill="none" stroke="midnightblue" d="M922.352,-336.444C949.269,-327.359 991.996,-312.939 1022.09,-302.783"/>
<polygon fill="midnightblue" stroke="midnightblue" points="1023.41,-306.031 1031.77,-299.516 1021.17,-299.398 1023.41,-306.031"/>
</g>
<!-- Node15&#45;&gt;Node11 -->
<g id="edge17" class="edge"><title>Node15&#45;&gt;Node11</title>
<path fill="none" stroke="midnightblue" d="M908.563,-224.441C919.176,-216.103 934.76,-202.583 945,-188 955.14,-173.559 962.715,-154.865 967.412,-141.234"/>
<polygon fill="midnightblue" stroke="midnightblue" points="970.792,-142.158 970.555,-131.566 964.135,-139.994 970.792,-142.158"/>
</g>
<!-- Node15&#45;&gt;Node13 -->
<g id="edge16" class="edge"><title>Node15&#45;&gt;Node13</title>
<path fill="none" stroke="midnightblue" d="M851.95,-232.289C747.44,-230.085 491.442,-221.343 413,-188 377.907,-173.083 363.89,-166.663 348,-132 340.481,-115.598 350.974,-96.7605 361.378,-83.6016"/>
<polygon fill="midnightblue" stroke="midnightblue" points="364.164,-85.7287 368.011,-75.857 358.848,-81.1749 364.164,-85.7287"/>
</g>
<!-- Node16 -->
<g id="node16" class="node"><title>Node16</title>
<polygon fill="none" stroke="#bfbfbf" points="843,-56.5 843,-75.5 913,-75.5 913,-56.5 843,-56.5"/>
<text text-anchor="middle" x="878" y="-63.5" font-family="Helvetica,sans-Serif" font-size="10.00">glm/glm.hpp</text>
</g>
<!-- Node15&#45;&gt;Node16 -->
<g id="edge15" class="edge"><title>Node15&#45;&gt;Node16</title>
<path fill="none" stroke="midnightblue" d="M921.163,-224.394C968.702,-206.136 1066.7,-161.146 1030,-112 1005.64,-79.3878 958.696,-69.438 923.39,-66.8501"/>
<polygon fill="midnightblue" stroke="midnightblue" points="923.489,-63.3502 913.308,-66.2843 923.096,-70.3392 923.489,-63.3502"/>
</g>
<!-- Node17 -->
<g id="node17" class="node"><title>Node17</title>
<g id="a_node17"><a xlink:href="../../da/d83/Transform_8hpp.html" target="_top" xlink:title="Transform.hpp">
<polygon fill="none" stroke="black" points="1115,-168.5 1115,-187.5 1195,-187.5 1195,-168.5 1115,-168.5"/>
<text text-anchor="middle" x="1155" y="-175.5" font-family="Helvetica,sans-Serif" font-size="10.00">Transform.hpp</text>
</a>
</g>
</g>
<!-- Node15&#45;&gt;Node17 -->
<g id="edge18" class="edge"><title>Node15&#45;&gt;Node17</title>
<path fill="none" stroke="midnightblue" d="M937.881,-224.444C983.115,-214.976 1056.04,-199.713 1104.73,-189.521"/>
<polygon fill="midnightblue" stroke="midnightblue" points="1105.66,-192.902 1114.74,-187.428 1104.23,-186.05 1105.66,-192.902"/>
</g>
<!-- Node18 -->
<g id="node18" class="node"><title>Node18</title>
<g id="a_node18"><a xlink:href="../../d1/dca/IRenderer_8hpp.html" target="_top" xlink:title="IRenderer.hpp">
<polygon fill="none" stroke="black" points="858,-168.5 858,-187.5 936,-187.5 936,-168.5 858,-168.5"/>
<text text-anchor="middle" x="897" y="-175.5" font-family="Helvetica,sans-Serif" font-size="10.00">IRenderer.hpp</text>
</a>
</g>
</g>
<!-- Node15&#45;&gt;Node18 -->
<g id="edge20" class="edge"><title>Node15&#45;&gt;Node18</title>
<path fill="none" stroke="midnightblue" d="M897,-224.083C897,-217.006 897,-206.861 897,-197.986"/>
<polygon fill="midnightblue" stroke="midnightblue" points="900.5,-197.751 897,-187.751 893.5,-197.751 900.5,-197.751"/>
</g>
<!-- Node19 -->
<g id="node19" class="node"><title>Node19</title>
<g id="a_node19"><a xlink:href="../../d0/d70/Material_8hpp.html" target="_top" xlink:title="Material.hpp">
<polygon fill="none" stroke="black" points="422,-168.5 422,-187.5 492,-187.5 492,-168.5 422,-168.5"/>
<text text-anchor="middle" x="457" y="-175.5" font-family="Helvetica,sans-Serif" font-size="10.00">Material.hpp</text>
</a>
</g>
</g>
<!-- Node15&#45;&gt;Node19 -->
<g id="edge24" class="edge"><title>Node15&#45;&gt;Node19</title>
<path fill="none" stroke="midnightblue" d="M851.98,-227.475C767.667,-217.127 586.864,-194.938 502.322,-184.562"/>
<polygon fill="midnightblue" stroke="midnightblue" points="502.612,-181.072 492.26,-183.327 501.759,-188.019 502.612,-181.072"/>
</g>
<!-- Node22 -->
<g id="node22" class="node"><title>Node22</title>
<g id="a_node22"><a xlink:href="../../d1/d62/Mesh_8hpp.html" target="_top" xlink:title="Mesh.hpp">
<polygon fill="none" stroke="black" points="719.5,-168.5 719.5,-187.5 778.5,-187.5 778.5,-168.5 719.5,-168.5"/>
<text text-anchor="middle" x="749" y="-175.5" font-family="Helvetica,sans-Serif" font-size="10.00">Mesh.hpp</text>
</a>
</g>
</g>
<!-- Node15&#45;&gt;Node22 -->
<g id="edge32" class="edge"><title>Node15&#45;&gt;Node22</title>
<path fill="none" stroke="midnightblue" d="M873.549,-224.444C848.867,-215.438 809.815,-201.189 782.023,-191.049"/>
<polygon fill="midnightblue" stroke="midnightblue" points="782.935,-187.656 772.341,-187.516 780.536,-194.232 782.935,-187.656"/>
</g>
<!-- Node17&#45;&gt;Node16 -->
<g id="edge19" class="edge"><title>Node17&#45;&gt;Node16</title>
<path fill="none" stroke="midnightblue" d="M1150.35,-168.216C1142.32,-153.964 1124.43,-125.991 1101,-112 1045.83,-79.054 970.716,-69.8089 923.29,-67.4463"/>
<polygon fill="midnightblue" stroke="midnightblue" points="923.162,-63.9381 913.025,-67.0211 922.872,-70.9321 923.162,-63.9381"/>
</g>
<!-- Node18&#45;&gt;Node11 -->
<g id="edge23" class="edge"><title>Node18&#45;&gt;Node11</title>
<path fill="none" stroke="midnightblue" d="M909.211,-168.324C920.776,-160.107 938.375,-147.602 952.161,-137.807"/>
<polygon fill="midnightblue" stroke="midnightblue" points="954.443,-140.479 960.567,-131.834 950.388,-134.773 954.443,-140.479"/>
</g>
<!-- Node18&#45;&gt;Node13 -->
<g id="edge22" class="edge"><title>Node18&#45;&gt;Node13</title>
<path fill="none" stroke="midnightblue" d="M865.859,-168.445C805.294,-151.835 675.735,-116.451 655,-112 568.954,-93.5304 466.471,-78.7863 413.206,-71.6599"/>
<polygon fill="midnightblue" stroke="midnightblue" points="413.602,-68.1818 403.228,-70.3373 412.682,-75.1211 413.602,-68.1818"/>
</g>
<!-- Node18&#45;&gt;Node16 -->
<g id="edge21" class="edge"><title>Node18&#45;&gt;Node16</title>
<path fill="none" stroke="midnightblue" d="M895.509,-168.368C892.443,-150.617 885.37,-109.666 881.212,-85.5974"/>
<polygon fill="midnightblue" stroke="midnightblue" points="884.635,-84.8498 879.484,-75.5914 877.737,-86.0413 884.635,-84.8498"/>
</g>
<!-- Node19&#45;&gt;Node13 -->
<g id="edge26" class="edge"><title>Node19&#45;&gt;Node13</title>
<path fill="none" stroke="midnightblue" d="M421.6,-171.294C398.648,-165.56 370.425,-154.219 356,-132 346.451,-117.291 354.941,-97.887 363.815,-84.1196"/>
<polygon fill="midnightblue" stroke="midnightblue" points="366.908,-85.8071 369.804,-75.6158 361.185,-81.7765 366.908,-85.8071"/>
</g>
<!-- Node19&#45;&gt;Node16 -->
<g id="edge25" class="edge"><title>Node19&#45;&gt;Node16</title>
<path fill="none" stroke="midnightblue" d="M466.622,-168.322C483.148,-153.962 518.578,-125.503 554,-112 603.985,-92.9461 755.862,-77.5662 832.598,-70.7714"/>
<polygon fill="midnightblue" stroke="midnightblue" points="833.252,-74.2277 842.909,-69.8701 832.642,-67.2543 833.252,-74.2277"/>
</g>
<!-- Node20 -->
<g id="node20" class="node"><title>Node20</title>
<g id="a_node20"><a xlink:href="../../dc/ddb/ShaderProgram_8hpp.html" target="_top" xlink:title="ShaderProgram.hpp">
<polygon fill="none" stroke="black" points="365.5,-112.5 365.5,-131.5 468.5,-131.5 468.5,-112.5 365.5,-112.5"/>
<text text-anchor="middle" x="417" y="-119.5" font-family="Helvetica,sans-Serif" font-size="10.00">ShaderProgram.hpp</text>
</a>
</g>
</g>
<!-- Node19&#45;&gt;Node20 -->
<g id="edge27" class="edge"><title>Node19&#45;&gt;Node20</title>
<path fill="none" stroke="midnightblue" d="M450.395,-168.083C444.745,-160.455 436.455,-149.264 429.549,-139.941"/>
<polygon fill="midnightblue" stroke="midnightblue" points="432.247,-137.703 423.482,-131.751 426.622,-141.87 432.247,-137.703"/>
</g>
<!-- Node20&#45;&gt;Node2 -->
<g id="edge31" class="edge"><title>Node20&#45;&gt;Node2</title>
<path fill="none" stroke="midnightblue" d="M377.862,-112.444C332.873,-102.608 259.272,-86.517 212.797,-76.3563"/>
<polygon fill="midnightblue" stroke="midnightblue" points="213.543,-72.9369 203.026,-74.2203 212.048,-79.7754 213.543,-72.9369"/>
</g>
<!-- Node20&#45;&gt;Node13 -->
<g id="edge30" class="edge"><title>Node20&#45;&gt;Node13</title>
<path fill="none" stroke="midnightblue" d="M410.395,-112.083C404.745,-104.455 396.455,-93.2645 389.549,-83.9408"/>
<polygon fill="midnightblue" stroke="midnightblue" points="392.247,-81.7034 383.482,-75.7511 386.622,-85.87 392.247,-81.7034"/>
</g>
<!-- Node20&#45;&gt;Node16 -->
<g id="edge28" class="edge"><title>Node20&#45;&gt;Node16</title>
<path fill="none" stroke="midnightblue" d="M468.508,-113.864C473.405,-113.22 478.295,-112.589 483,-112 609.472,-96.1748 759.022,-79.7648 832.545,-71.8484"/>
<polygon fill="midnightblue" stroke="midnightblue" points="833.26,-75.2918 842.829,-70.7431 832.512,-68.3319 833.26,-75.2918"/>
</g>
<!-- Node21 -->
<g id="node21" class="node"><title>Node21</title>
<polygon fill="none" stroke="#bfbfbf" points="691,-56.5 691,-75.5 735,-75.5 735,-56.5 691,-56.5"/>
<text text-anchor="middle" x="713" y="-63.5" font-family="Helvetica,sans-Serif" font-size="10.00">vector</text>
</g>
<!-- Node20&#45;&gt;Node21 -->
<g id="edge29" class="edge"><title>Node20&#45;&gt;Node21</title>
<path fill="none" stroke="midnightblue" d="M463.902,-112.444C524.448,-101.398 628.234,-82.4641 680.665,-72.8989"/>
<polygon fill="midnightblue" stroke="midnightblue" points="681.53,-76.299 690.74,-71.061 680.274,-69.4126 681.53,-76.299"/>
</g>
<!-- Node22&#45;&gt;Node13 -->
<g id="edge34" class="edge"><title>Node22&#45;&gt;Node13</title>
<path fill="none" stroke="midnightblue" d="M719.298,-171.351C680.806,-163.756 611.774,-149.201 554,-132 501.6,-116.399 442.236,-93.4887 407.297,-79.4463"/>
<polygon fill="midnightblue" stroke="midnightblue" points="408.278,-76.0674 397.695,-75.5626 405.653,-82.5568 408.278,-76.0674"/>
</g>
<!-- Node22&#45;&gt;Node16 -->
<g id="edge35" class="edge"><title>Node22&#45;&gt;Node16</title>
<path fill="none" stroke="midnightblue" d="M775.765,-168.484C795.333,-161.216 821.568,-149.189 840,-132 854.155,-118.8 864.647,-99.126 870.979,-84.8819"/>
<polygon fill="midnightblue" stroke="midnightblue" points="874.215,-86.216 874.847,-75.64 867.758,-83.5133 874.215,-86.216"/>
</g>
<!-- Node22&#45;&gt;Node21 -->
<g id="edge33" class="edge"><title>Node22&#45;&gt;Node21</title>
<path fill="none" stroke="midnightblue" d="M745.543,-168.444C741.959,-159.443 736.292,-144.831 732,-132 726.814,-116.495 721.655,-98.6547 718.025,-85.5916"/>
<polygon fill="midnightblue" stroke="midnightblue" points="721.387,-84.6172 715.368,-75.8983 714.636,-86.4678 721.387,-84.6172"/>
</g>
<!-- Node23 -->
<g id="node23" class="node"><title>Node23</title>
<polygon fill="none" stroke="#bfbfbf" points="563.5,-112.5 563.5,-131.5 646.5,-131.5 646.5,-112.5 563.5,-112.5"/>
<text text-anchor="middle" x="605" y="-119.5" font-family="Helvetica,sans-Serif" font-size="10.00">assimp/mesh.h</text>
</g>
<!-- Node22&#45;&gt;Node23 -->
<g id="edge36" class="edge"><title>Node22&#45;&gt;Node23</title>
<path fill="none" stroke="midnightblue" d="M726.183,-168.444C702.168,-159.438 664.171,-145.189 637.131,-135.049"/>
<polygon fill="midnightblue" stroke="midnightblue" points="638.303,-131.751 627.71,-131.516 635.845,-138.305 638.303,-131.751"/>
</g>
<!-- Node24 -->
<g id="node24" class="node"><title>Node24</title>
<g id="a_node24"><a xlink:href="../../da/d04/BufferObject_8hpp.html" target="_top" xlink:title="BufferObject.hpp">
<polygon fill="none" stroke="black" points="741,-112.5 741,-131.5 831,-131.5 831,-112.5 741,-112.5"/>
<text text-anchor="middle" x="786" y="-119.5" font-family="Helvetica,sans-Serif" font-size="10.00">BufferObject.hpp</text>
</a>
</g>
</g>
<!-- Node22&#45;&gt;Node24 -->
<g id="edge37" class="edge"><title>Node22&#45;&gt;Node24</title>
<path fill="none" stroke="midnightblue" d="M755.11,-168.083C760.282,-160.534 767.846,-149.495 774.194,-140.23"/>
<polygon fill="midnightblue" stroke="midnightblue" points="777.239,-141.979 780.004,-131.751 771.464,-138.022 777.239,-141.979"/>
</g>
<!-- Node24&#45;&gt;Node16 -->
<g id="edge39" class="edge"><title>Node24&#45;&gt;Node16</title>
<path fill="none" stroke="midnightblue" d="M800.781,-112.324C815.267,-103.822 837.573,-90.7288 854.493,-80.7975"/>
<polygon fill="midnightblue" stroke="midnightblue" points="856.403,-83.735 863.255,-75.6545 852.859,-77.6981 856.403,-83.735"/>
</g>
<!-- Node24&#45;&gt;Node21 -->
<g id="edge38" class="edge"><title>Node24&#45;&gt;Node21</title>
<path fill="none" stroke="midnightblue" d="M774.271,-112.324C763.163,-104.107 746.258,-91.6017 733.017,-81.8069"/>
<polygon fill="midnightblue" stroke="midnightblue" points="735.063,-78.9671 724.942,-75.8339 730.9,-84.5948 735.063,-78.9671"/>
</g>
<!-- Node25&#45;&gt;Node15 -->
<g id="edge43" class="edge"><title>Node25&#45;&gt;Node15</title>
<path fill="none" stroke="midnightblue" d="M923.716,-280.083C919.289,-272.613 912.837,-261.724 907.382,-252.52"/>
<polygon fill="midnightblue" stroke="midnightblue" points="910.295,-250.57 902.186,-243.751 904.273,-254.138 910.295,-250.57"/>
</g>
<!-- Node25&#45;&gt;Node16 -->
<g id="edge41" class="edge"><title>Node25&#45;&gt;Node16</title>
<path fill="none" stroke="midnightblue" d="M942.772,-280.429C983.006,-254.344 1094.6,-173.932 1047,-112 1031.98,-92.4577 968.039,-79.6035 923.269,-72.8143"/>
<polygon fill="midnightblue" stroke="midnightblue" points="923.59,-69.324 913.188,-71.3379 922.575,-76.2501 923.59,-69.324"/>
</g>
<!-- Node25&#45;&gt;Node17 -->
<g id="edge42" class="edge"><title>Node25&#45;&gt;Node17</title>
<path fill="none" stroke="midnightblue" d="M964.341,-280.975C1011.22,-270.143 1089.44,-251.354 1101,-244 1119.88,-231.982 1135.44,-211.2 1144.93,-196.37"/>
<polygon fill="midnightblue" stroke="midnightblue" points="1148.04,-197.995 1150.26,-187.636 1142.06,-194.348 1148.04,-197.995"/>
</g>
<!-- Node28 -->
<g id="node28" class="node"><title>Node28</title>
<g id="a_node28"><a xlink:href="../../d5/da5/tools_8h.html" target="_top" xlink:title="tools.h">
<polygon fill="none" stroke="black" points="266,-336.5 266,-355.5 312,-355.5 312,-336.5 266,-336.5"/>
<text text-anchor="middle" x="289" y="-343.5" font-family="Helvetica,sans-Serif" font-size="10.00">tools.h</text>
</a>
</g>
</g>
<!-- Node27&#45;&gt;Node28 -->
<g id="edge46" class="edge"><title>Node27&#45;&gt;Node28</title>
<path fill="none" stroke="midnightblue" d="M543.913,-397.975C536.819,-395.883 529.154,-393.745 522,-392 451.447,-374.791 367.587,-359.946 322.194,-352.368"/>
<polygon fill="midnightblue" stroke="midnightblue" points="322.748,-348.912 312.311,-350.732 321.605,-355.818 322.748,-348.912"/>
</g>
<!-- Node29 -->
<g id="node29" class="node"><title>Node29</title>
<polygon fill="none" stroke="#bfbfbf" points="264,-280.5 264,-299.5 314,-299.5 314,-280.5 264,-280.5"/>
<text text-anchor="middle" x="289" y="-287.5" font-family="Helvetica,sans-Serif" font-size="10.00">QString</text>
</g>
<!-- Node28&#45;&gt;Node29 -->
<g id="edge47" class="edge"><title>Node28&#45;&gt;Node29</title>
<path fill="none" stroke="midnightblue" d="M289,-336.083C289,-329.006 289,-318.861 289,-309.986"/>
<polygon fill="midnightblue" stroke="midnightblue" points="292.5,-309.751 289,-299.751 285.5,-309.751 292.5,-309.751"/>
</g>
<!-- Node30 -->
<g id="node30" class="node"><title>Node30</title>
<polygon fill="none" stroke="#bfbfbf" points="332.5,-280.5 332.5,-299.5 397.5,-299.5 397.5,-280.5 332.5,-280.5"/>
<text text-anchor="middle" x="365" y="-287.5" font-family="Helvetica,sans-Serif" font-size="10.00">QVector3D</text>
</g>
<!-- Node28&#45;&gt;Node30 -->
<g id="edge48" class="edge"><title>Node28&#45;&gt;Node30</title>
<path fill="none" stroke="midnightblue" d="M301.211,-336.324C312.776,-328.107 330.375,-315.602 344.161,-305.807"/>
<polygon fill="midnightblue" stroke="midnightblue" points="346.443,-308.479 352.567,-299.834 342.388,-302.773 346.443,-308.479"/>
</g>
<!-- Node31 -->
<g id="node31" class="node"><title>Node31</title>
<polygon fill="none" stroke="#bfbfbf" points="416,-280.5 416,-299.5 456,-299.5 456,-280.5 416,-280.5"/>
<text text-anchor="middle" x="436" y="-287.5" font-family="Helvetica,sans-Serif" font-size="10.00">QList</text>
</g>
<!-- Node28&#45;&gt;Node31 -->
<g id="edge49" class="edge"><title>Node28&#45;&gt;Node31</title>
<path fill="none" stroke="midnightblue" d="M312.293,-336.444C337.673,-327.12 378.352,-312.177 406.08,-301.991"/>
<polygon fill="midnightblue" stroke="midnightblue" points="407.477,-305.207 415.657,-298.473 405.063,-298.636 407.477,-305.207"/>
</g>
<!-- Node32 -->
<g id="node32" class="node"><title>Node32</title>
<polygon fill="none" stroke="#bfbfbf" points="28.5,-280.5 28.5,-299.5 71.5,-299.5 71.5,-280.5 28.5,-280.5"/>
<text text-anchor="middle" x="50" y="-287.5" font-family="Helvetica,sans-Serif" font-size="10.00">QMap</text>
</g>
<!-- Node28&#45;&gt;Node32 -->
<g id="edge50" class="edge"><title>Node28&#45;&gt;Node32</title>
<path fill="none" stroke="midnightblue" d="M265.975,-340.664C228.985,-333.565 153.862,-318.603 81.3238,-300.195"/>
<polygon fill="midnightblue" stroke="midnightblue" points="82.1286,-296.788 71.5727,-297.695 80.3902,-303.569 82.1286,-296.788"/>
</g>
<!-- Node33 -->
<g id="node33" class="node"><title>Node33</title>
<polygon fill="none" stroke="#bfbfbf" points="89.5,-280.5 89.5,-299.5 180.5,-299.5 180.5,-280.5 89.5,-280.5"/>
<text text-anchor="middle" x="135" y="-287.5" font-family="Helvetica,sans-Serif" font-size="10.00">QGraphicsScene</text>
</g>
<!-- Node28&#45;&gt;Node33 -->
<g id="edge51" class="edge"><title>Node28&#45;&gt;Node33</title>
<path fill="none" stroke="midnightblue" d="M265.945,-336.916C240.238,-327.902 198.411,-313.235 168.96,-302.908"/>
<polygon fill="midnightblue" stroke="midnightblue" points="170.082,-299.593 159.488,-299.587 167.766,-306.198 170.082,-299.593"/>
</g>
<!-- Node34 -->
<g id="node34" class="node"><title>Node34</title>
<polygon fill="none" stroke="#bfbfbf" points="198.5,-280.5 198.5,-299.5 245.5,-299.5 245.5,-280.5 198.5,-280.5"/>
<text text-anchor="middle" x="222" y="-287.5" font-family="Helvetica,sans-Serif" font-size="10.00">math.h</text>
</g>
<!-- Node28&#45;&gt;Node34 -->
<g id="edge52" class="edge"><title>Node28&#45;&gt;Node34</title>
<path fill="none" stroke="midnightblue" d="M278.235,-336.324C268.234,-328.263 253.113,-316.077 241.07,-306.369"/>
<polygon fill="midnightblue" stroke="midnightblue" points="242.943,-303.384 232.961,-299.834 238.55,-308.834 242.943,-303.384"/>
</g>
</g>
</svg>
        <g id="navigator" transform="translate(0 0)" fill="#404254">
                <rect fill="#f2f5e9" fill-opacity="0.5" stroke="#606060" stroke-width=".5" x="0" y="0" width="60" height="60"/>
                <use id="zoomplus" xlink:href="#zoomPlus" x="17" y="9" onmousedown="handleZoom(evt,'in')"/>
                <use id="zoomminus" xlink:href="#zoomMin" x="42" y="9" onmousedown="handleZoom(evt,'out')"/>
                <use id="reset" xlink:href="#resetDef" x="30" y="36" onmousedown="handleReset()"/>
                <g id="arrowUp" xlink:href="#dirArrow" transform="translate(30 24)" onmousedown="handlePan(0,-1)">
                  <use xlink:href="#rim" fill="#404040">
                        <set attributeName="fill" to="#808080" begin="arrowUp.mouseover" end="arrowUp.mouseout"/>
                  </use>
                  <path fill="none" stroke="white" stroke-width="1.5" d="M0,-3.0v7 M-2.5,-0.5L0,-3.0L2.5,-0.5"/>
                </g>
                <g id="arrowRight" xlink:href="#dirArrow" transform="rotate(90) translate(36 -43)" onmousedown="handlePan(1,0)">
                  <use xlink:href="#rim" fill="#404040">
                        <set attributeName="fill" to="#808080" begin="arrowRight.mouseover" end="arrowRight.mouseout"/>
                  </use>
                  <path fill="none" stroke="white" stroke-width="1.5" d="M0,-3.0v7 M-2.5,-0.5L0,-3.0L2.5,-0.5"/>
                </g>
                <g id="arrowDown" xlink:href="#dirArrow" transform="rotate(180) translate(-30 -48)" onmousedown="handlePan(0,1)">
                  <use xlink:href="#rim" fill="#404040">
                        <set attributeName="fill" to="#808080" begin="arrowDown.mouseover" end="arrowDown.mouseout"/>
                  </use>
                  <path fill="none" stroke="white" stroke-width="1.5" d="M0,-3.0v7 M-2.5,-0.5L0,-3.0L2.5,-0.5"/>
                </g>
                <g id="arrowLeft" xlink:href="#dirArrow" transform="rotate(270) translate(-36 17)" onmousedown="handlePan(-1,0)">
                  <use xlink:href="#rim" fill="#404040">
                        <set attributeName="fill" to="#808080" begin="arrowLeft.mouseover" end="arrowLeft.mouseout"/>
                  </use>
                  <path fill="none" stroke="white" stroke-width="1.5" d="M0,-3.0v7 M-2.5,-0.5L0,-3.0L2.5,-0.5"/>
                </g>
        </g>
        <svg viewBox="0 0 15 15" width="100%" height="30px" preserveAspectRatio="xMaxYMin meet">
         <g id="arrow_out" transform="scale(0.3 0.3)">
          <a xlink:href="Shader_8cpp__incl_org.svg" target="_base">
           <rect id="button" ry="5" rx="5" y="6" x="6" height="38" width="38"
                fill="#f2f5e9" fill-opacity="0.5" stroke="#606060" stroke-width="1.0"/>
           <path id="arrow"
             d="M 11.500037,31.436501 C 11.940474,20.09759 22.043105,11.32322 32.158766,21.979434 L 37.068811,17.246167 C 37.068811,17.246167 37.088388,32 37.088388,32 L 22.160133,31.978069 C 22.160133,31.978069 26.997745,27.140456 26.997745,27.140456 C 18.528582,18.264221 13.291696,25.230495 11.500037,31.436501 z"
             style="fill:#404040;"/>
          </a>
         </g>
        </svg>
</svg>
