<?xml version="1.0" encoding="UTF-8" standalone="no"?>
<!DOCTYPE svg PUBLIC "-//W3C//DTD SVG 1.1//EN"
 "http://www.w3.org/Graphics/SVG/1.1/DTD/svg11.dtd">
<!-- Generated by graphviz version 2.38.0 (20140413.2041)
 -->
<!-- Title: engine/Camera/Camera.hpp Pages: 1 -->
<svg width="1351pt" height="341pt"
 viewBox="0.00 0.00 1350.50 341.00" xmlns="http://www.w3.org/2000/svg" xmlns:xlink="http://www.w3.org/1999/xlink">
<g id="graph0" class="graph" transform="scale(1 1) rotate(0) translate(4 337)">
<title>engine/Camera/Camera.hpp</title>
<!-- Node1 -->
<g id="node1" class="node"><title>Node1</title>
<polygon fill="#bfbfbf" stroke="black" points="739,-313.5 739,-332.5 878,-332.5 878,-313.5 739,-313.5"/>
<text text-anchor="middle" x="808.5" y="-320.5" font-family="Helvetica,sans-Serif" font-size="10.00">engine/Camera/Camera.hpp</text>
</g>
<!-- Node2 -->
<g id="node2" class="node"><title>Node2</title>
<g id="a_node2"><a xlink:href="../../da/d8c/Camera_8cpp.html" target="_top" xlink:title="engine/Camera/Camera.cpp">
<polygon fill="none" stroke="black" points="0,-62 0,-81 139,-81 139,-62 0,-62"/>
<text text-anchor="middle" x="69.5" y="-69" font-family="Helvetica,sans-Serif" font-size="10.00">engine/Camera/Camera.cpp</text>
</a>
</g>
</g>
<!-- Node1&#45;&gt;Node2 -->
<g id="edge1" class="edge"><title>Node1&#45;&gt;Node2</title>
<path fill="none" stroke="midnightblue" d="M773.356,-310.135C645.288,-266.897 205.323,-118.356 94.8311,-81.0522"/>
<polygon fill="midnightblue" stroke="midnightblue" points="772.468,-313.529 783.062,-313.412 774.707,-306.897 772.468,-313.529"/>
</g>
<!-- Node3 -->
<g id="node3" class="node"><title>Node3</title>
<g id="a_node3"><a xlink:href="../../db/de8/Scene_8hpp.html" target="_top" xlink:title="engine/Scene/Scene.hpp">
<polygon fill="none" stroke="black" points="880,-257.5 880,-276.5 1005,-276.5 1005,-257.5 880,-257.5"/>
<text text-anchor="middle" x="942.5" y="-264.5" font-family="Helvetica,sans-Serif" font-size="10.00">engine/Scene/Scene.hpp</text>
</a>
</g>
</g>
<!-- Node1&#45;&gt;Node3 -->
<g id="edge2" class="edge"><title>Node1&#45;&gt;Node3</title>
<path fill="none" stroke="midnightblue" d="M839.177,-309.638C864.323,-299.504 899.254,-285.427 921.367,-276.516"/>
<polygon fill="midnightblue" stroke="midnightblue" points="837.7,-306.459 829.733,-313.444 840.316,-312.952 837.7,-306.459"/>
</g>
<!-- Node4 -->
<g id="node4" class="node"><title>Node4</title>
<g id="a_node4"><a xlink:href="../../d0/dbd/AssimpImporter_8hpp.html" target="_top" xlink:title="engine/AssimpImporter\l/AssimpImporter.hpp">
<polygon fill="none" stroke="black" points="1109,-190.5 1109,-220.5 1226,-220.5 1226,-190.5 1109,-190.5"/>
<text text-anchor="start" x="1117" y="-208.5" font-family="Helvetica,sans-Serif" font-size="10.00">engine/AssimpImporter</text>
<text text-anchor="middle" x="1167.5" y="-197.5" font-family="Helvetica,sans-Serif" font-size="10.00">/AssimpImporter.hpp</text>
</a>
</g>
</g>
<!-- Node3&#45;&gt;Node4 -->
<g id="edge3" class="edge"><title>Node3&#45;&gt;Node4</title>
<path fill="none" stroke="midnightblue" d="M984.63,-254.859C1021.37,-245.144 1074.83,-231.006 1114.47,-220.523"/>
<polygon fill="midnightblue" stroke="midnightblue" points="983.51,-251.535 974.737,-257.475 985.3,-258.302 983.51,-251.535"/>
</g>
<!-- Node7 -->
<g id="node7" class="node"><title>Node7</title>
<g id="a_node7"><a xlink:href="../../d4/d1c/GameEngine_8hpp.html" target="_top" xlink:title="engine/GameEngine/GameEngine.hpp">
<polygon fill="none" stroke="black" points="765.5,-196 765.5,-215 947.5,-215 947.5,-196 765.5,-196"/>
<text text-anchor="middle" x="856.5" y="-203" font-family="Helvetica,sans-Serif" font-size="10.00">engine/GameEngine/GameEngine.hpp</text>
</a>
</g>
</g>
<!-- Node3&#45;&gt;Node7 -->
<g id="edge6" class="edge"><title>Node3&#45;&gt;Node7</title>
<path fill="none" stroke="midnightblue" d="M921.705,-251.613C905.165,-240.169 882.583,-224.546 868.799,-215.009"/>
<polygon fill="midnightblue" stroke="midnightblue" points="919.963,-254.664 930.178,-257.475 923.946,-248.907 919.963,-254.664"/>
</g>
<!-- Node18 -->
<g id="node18" class="node"><title>Node18</title>
<g id="a_node18"><a xlink:href="../../de/d15/Scene_8cpp.html" target="_top" xlink:title="engine/Scene/Scene.cpp">
<polygon fill="none" stroke="black" points="966,-196 966,-215 1091,-215 1091,-196 966,-196"/>
<text text-anchor="middle" x="1028.5" y="-203" font-family="Helvetica,sans-Serif" font-size="10.00">engine/Scene/Scene.cpp</text>
</a>
</g>
</g>
<!-- Node3&#45;&gt;Node18 -->
<g id="edge21" class="edge"><title>Node3&#45;&gt;Node18</title>
<path fill="none" stroke="midnightblue" d="M963.295,-251.613C979.835,-240.169 1002.42,-224.546 1016.2,-215.009"/>
<polygon fill="midnightblue" stroke="midnightblue" points="961.054,-248.907 954.822,-257.475 965.037,-254.664 961.054,-248.907"/>
</g>
<!-- Node5 -->
<g id="node5" class="node"><title>Node5</title>
<g id="a_node5"><a xlink:href="../../d4/d7f/AssimpImporter_8cpp.html" target="_top" xlink:title="engine/AssimpImporter\l/AssimpImporter.cpp">
<polygon fill="none" stroke="black" points="1106,-123.5 1106,-153.5 1223,-153.5 1223,-123.5 1106,-123.5"/>
<text text-anchor="start" x="1114" y="-141.5" font-family="Helvetica,sans-Serif" font-size="10.00">engine/AssimpImporter</text>
<text text-anchor="middle" x="1164.5" y="-130.5" font-family="Helvetica,sans-Serif" font-size="10.00">/AssimpImporter.cpp</text>
</a>
</g>
</g>
<!-- Node4&#45;&gt;Node5 -->
<g id="edge4" class="edge"><title>Node4&#45;&gt;Node5</title>
<path fill="none" stroke="midnightblue" d="M1166.39,-180.403C1165.97,-171.37 1165.51,-161.408 1165.15,-153.577"/>
<polygon fill="midnightblue" stroke="midnightblue" points="1162.89,-180.568 1166.85,-190.396 1169.88,-180.245 1162.89,-180.568"/>
</g>
<!-- Node6 -->
<g id="node6" class="node"><title>Node6</title>
<g id="a_node6"><a xlink:href="../../dd/d98/GameEngine_8cpp.html" target="_top" xlink:title="engine/GameEngine/GameEngine.cpp">
<polygon fill="none" stroke="black" points="1160.5,-62 1160.5,-81 1342.5,-81 1342.5,-62 1160.5,-62"/>
<text text-anchor="middle" x="1251.5" y="-69" font-family="Helvetica,sans-Serif" font-size="10.00">engine/GameEngine/GameEngine.cpp</text>
</a>
</g>
</g>
<!-- Node4&#45;&gt;Node6 -->
<g id="edge5" class="edge"><title>Node4&#45;&gt;Node6</title>
<path fill="none" stroke="midnightblue" d="M1201.77,-184.602C1213.09,-176.456 1224.76,-166.082 1232.5,-154 1247.47,-130.632 1250.68,-96.7661 1251.34,-81.075"/>
<polygon fill="midnightblue" stroke="midnightblue" points="1199.56,-181.875 1193.25,-190.388 1203.49,-187.666 1199.56,-181.875"/>
</g>
<!-- Node7&#45;&gt;Node6 -->
<g id="edge7" class="edge"><title>Node7&#45;&gt;Node6</title>
<path fill="none" stroke="midnightblue" d="M891.096,-192.689C937.872,-176.745 1023.91,-147.509 1097.5,-123 1142.35,-108.064 1194.66,-90.9828 1225.32,-81.0046"/>
<polygon fill="midnightblue" stroke="midnightblue" points="889.79,-189.436 881.454,-195.977 892.049,-196.062 889.79,-189.436"/>
</g>
<!-- Node8 -->
<g id="node8" class="node"><title>Node8</title>
<g id="a_node8"><a xlink:href="../../d1/d2a/glwindow_8h.html" target="_top" xlink:title="window/glwindow.h">
<polygon fill="none" stroke="black" points="709,-129 709,-148 810,-148 810,-129 709,-129"/>
<text text-anchor="middle" x="759.5" y="-136" font-family="Helvetica,sans-Serif" font-size="10.00">window/glwindow.h</text>
</a>
</g>
</g>
<!-- Node7&#45;&gt;Node8 -->
<g id="edge8" class="edge"><title>Node7&#45;&gt;Node8</title>
<path fill="none" stroke="midnightblue" d="M835.003,-190.095C815.814,-177.236 788.347,-158.831 772.375,-148.127"/>
<polygon fill="midnightblue" stroke="midnightblue" points="833.162,-193.075 843.418,-195.734 837.059,-187.259 833.162,-193.075"/>
</g>
<!-- Node14 -->
<g id="node14" class="node"><title>Node14</title>
<g id="a_node14"><a xlink:href="../../d3/d1f/glwindow_8cpp.html" target="_top" xlink:title="window/glwindow.cpp">
<polygon fill="none" stroke="black" points="1030.5,-62 1030.5,-81 1142.5,-81 1142.5,-62 1030.5,-62"/>
<text text-anchor="middle" x="1086.5" y="-69" font-family="Helvetica,sans-Serif" font-size="10.00">window/glwindow.cpp</text>
</a>
</g>
</g>
<!-- Node7&#45;&gt;Node14 -->
<g id="edge20" class="edge"><title>Node7&#45;&gt;Node14</title>
<path fill="none" stroke="midnightblue" d="M880.266,-190.86C927.672,-163.653 1032.76,-103.34 1071.65,-81.0212"/>
<polygon fill="midnightblue" stroke="midnightblue" points="878.522,-187.826 871.591,-195.839 882.006,-193.897 878.522,-187.826"/>
</g>
<!-- Node8&#45;&gt;Node2 -->
<g id="edge10" class="edge"><title>Node8&#45;&gt;Node2</title>
<path fill="none" stroke="midnightblue" d="M712.92,-126.919C705.131,-125.418 697.11,-124.036 689.5,-123 450.286,-90.4382 387.034,-117.114 147.5,-87 135.337,-85.4709 122.204,-83.2525 110.245,-81.0088"/>
<polygon fill="midnightblue" stroke="midnightblue" points="712.478,-130.4 722.971,-128.941 713.858,-123.538 712.478,-130.4"/>
</g>
<!-- Node8&#45;&gt;Node6 -->
<g id="edge11" class="edge"><title>Node8&#45;&gt;Node6</title>
<path fill="none" stroke="midnightblue" d="M820.292,-129.972C897.386,-120.356 1034.39,-103.033 1151.5,-87 1165.23,-85.1202 1180.01,-83.0198 1193.88,-81.0139"/>
<polygon fill="midnightblue" stroke="midnightblue" points="819.768,-126.51 810.278,-131.22 820.634,-133.456 819.768,-126.51"/>
</g>
<!-- Node9 -->
<g id="node9" class="node"><title>Node9</title>
<g id="a_node9"><a xlink:href="../../db/d2b/BufferObject_8cpp.html" target="_top" xlink:title="engine/BufferObject\l/BufferObject.cpp">
<polygon fill="none" stroke="black" points="773,-56.5 773,-86.5 876,-86.5 876,-56.5 773,-56.5"/>
<text text-anchor="start" x="781" y="-74.5" font-family="Helvetica,sans-Serif" font-size="10.00">engine/BufferObject</text>
<text text-anchor="middle" x="824.5" y="-63.5" font-family="Helvetica,sans-Serif" font-size="10.00">/BufferObject.cpp</text>
</a>
</g>
</g>
<!-- Node8&#45;&gt;Node9 -->
<g id="edge9" class="edge"><title>Node8&#45;&gt;Node9</title>
<path fill="none" stroke="midnightblue" d="M775.383,-121.617C786.093,-110.907 800.098,-96.9022 810.411,-86.589"/>
<polygon fill="midnightblue" stroke="midnightblue" points="772.862,-119.188 768.266,-128.734 777.812,-124.138 772.862,-119.188"/>
</g>
<!-- Node10 -->
<g id="node10" class="node"><title>Node10</title>
<g id="a_node10"><a xlink:href="../../d2/dcc/Mesh_8cpp.html" target="_top" xlink:title="engine/Mesh/Mesh.cpp">
<polygon fill="none" stroke="black" points="894.5,-62 894.5,-81 1012.5,-81 1012.5,-62 894.5,-62"/>
<text text-anchor="middle" x="953.5" y="-69" font-family="Helvetica,sans-Serif" font-size="10.00">engine/Mesh/Mesh.cpp</text>
</a>
</g>
</g>
<!-- Node8&#45;&gt;Node10 -->
<g id="edge12" class="edge"><title>Node8&#45;&gt;Node10</title>
<path fill="none" stroke="midnightblue" d="M795.013,-125.601C833.477,-112.714 893.889,-92.4728 927.941,-81.0637"/>
<polygon fill="midnightblue" stroke="midnightblue" points="793.632,-122.373 785.262,-128.869 795.856,-129.01 793.632,-122.373"/>
</g>
<!-- Node11 -->
<g id="node11" class="node"><title>Node11</title>
<g id="a_node11"><a xlink:href="../../da/d3d/BasicRenderer_8cpp.html" target="_top" xlink:title="engine/Renderer/BasicRenderer\l/BasicRenderer.cpp">
<polygon fill="none" stroke="black" points="157,-56.5 157,-86.5 312,-86.5 312,-56.5 157,-56.5"/>
<text text-anchor="start" x="165" y="-74.5" font-family="Helvetica,sans-Serif" font-size="10.00">engine/Renderer/BasicRenderer</text>
<text text-anchor="middle" x="234.5" y="-63.5" font-family="Helvetica,sans-Serif" font-size="10.00">/BasicRenderer.cpp</text>
</a>
</g>
</g>
<!-- Node8&#45;&gt;Node11 -->
<g id="edge13" class="edge"><title>Node8&#45;&gt;Node11</title>
<path fill="none" stroke="midnightblue" d="M711.848,-126.92C704.392,-125.47 696.754,-124.103 689.5,-123 527.031,-98.2981 484.421,-108.521 321.5,-87 318.464,-86.5989 315.371,-86.1721 312.249,-85.7258"/>
<polygon fill="midnightblue" stroke="midnightblue" points="711.357,-130.391 721.851,-128.932 712.738,-123.529 711.357,-130.391"/>
</g>
<!-- Node12 -->
<g id="node12" class="node"><title>Node12</title>
<g id="a_node12"><a xlink:href="../../dd/d84/Shader_8cpp.html" target="_top" xlink:title="engine/Shaders/Shader\l/Shader.cpp">
<polygon fill="none" stroke="black" points="330.5,-56.5 330.5,-86.5 448.5,-86.5 448.5,-56.5 330.5,-56.5"/>
<text text-anchor="start" x="338.5" y="-74.5" font-family="Helvetica,sans-Serif" font-size="10.00">engine/Shaders/Shader</text>
<text text-anchor="middle" x="389.5" y="-63.5" font-family="Helvetica,sans-Serif" font-size="10.00">/Shader.cpp</text>
</a>
</g>
</g>
<!-- Node8&#45;&gt;Node12 -->
<g id="edge14" class="edge"><title>Node8&#45;&gt;Node12</title>
<path fill="none" stroke="midnightblue" d="M710.007,-126.929C703.129,-125.554 696.146,-124.205 689.5,-123 587.262,-104.456 560.711,-105.691 458.5,-87 455.249,-86.4055 451.916,-85.7751 448.555,-85.123"/>
<polygon fill="midnightblue" stroke="midnightblue" points="709.459,-130.389 719.956,-128.951 710.853,-123.53 709.459,-130.389"/>
</g>
<!-- Node13 -->
<g id="node13" class="node"><title>Node13</title>
<g id="a_node13"><a xlink:href="../../de/d34/ShaderProgram_8cpp.html" target="_top" xlink:title="engine/Shaders/ShaderProgram\l/ShaderProgram.cpp">
<polygon fill="none" stroke="black" points="467,-56.5 467,-86.5 622,-86.5 622,-56.5 467,-56.5"/>
<text text-anchor="start" x="475" y="-74.5" font-family="Helvetica,sans-Serif" font-size="10.00">engine/Shaders/ShaderProgram</text>
<text text-anchor="middle" x="544.5" y="-63.5" font-family="Helvetica,sans-Serif" font-size="10.00">/ShaderProgram.cpp</text>
</a>
</g>
</g>
<!-- Node8&#45;&gt;Node13 -->
<g id="edge15" class="edge"><title>Node8&#45;&gt;Node13</title>
<path fill="none" stroke="midnightblue" d="M721.185,-125.917C684.73,-114.895 629.818,-98.2938 590.901,-86.5281"/>
<polygon fill="midnightblue" stroke="midnightblue" points="720.365,-129.325 730.95,-128.869 722.39,-122.624 720.365,-129.325"/>
</g>
<!-- Node8&#45;&gt;Node14 -->
<g id="edge16" class="edge"><title>Node8&#45;&gt;Node14</title>
<path fill="none" stroke="midnightblue" d="M815.865,-127.126C868.988,-117.232 950.771,-101.702 1021.5,-87 1030.44,-85.1411 1040.06,-83.0486 1049.07,-81.0438"/>
<polygon fill="midnightblue" stroke="midnightblue" points="815.154,-123.698 805.962,-128.967 816.433,-130.58 815.154,-123.698"/>
</g>
<!-- Node15 -->
<g id="node15" class="node"><title>Node15</title>
<g id="a_node15"><a xlink:href="../../d9/d53/mainwindow_8h.html" target="_top" xlink:title="window/mainwindow.h">
<polygon fill="none" stroke="black" points="640,-62 640,-81 755,-81 755,-62 640,-62"/>
<text text-anchor="middle" x="697.5" y="-69" font-family="Helvetica,sans-Serif" font-size="10.00">window/mainwindow.h</text>
</a>
</g>
</g>
<!-- Node8&#45;&gt;Node15 -->
<g id="edge17" class="edge"><title>Node8&#45;&gt;Node15</title>
<path fill="none" stroke="midnightblue" d="M744.235,-121.497C732.077,-108.75 715.523,-91.3947 705.729,-81.1273"/>
<polygon fill="midnightblue" stroke="midnightblue" points="741.704,-123.913 751.138,-128.734 746.769,-119.082 741.704,-123.913"/>
</g>
<!-- Node16 -->
<g id="node16" class="node"><title>Node16</title>
<g id="a_node16"><a xlink:href="../../df/d0a/main_8cpp.html" target="_top" xlink:title="TODO. ">
<polygon fill="none" stroke="black" points="615.5,-0.5 615.5,-19.5 671.5,-19.5 671.5,-0.5 615.5,-0.5"/>
<text text-anchor="middle" x="643.5" y="-7.5" font-family="Helvetica,sans-Serif" font-size="10.00">main.cpp</text>
</a>
</g>
</g>
<!-- Node15&#45;&gt;Node16 -->
<g id="edge18" class="edge"><title>Node15&#45;&gt;Node16</title>
<path fill="none" stroke="midnightblue" d="M682.977,-54.4975C672.756,-43.2356 659.477,-28.6044 651.223,-19.5091"/>
<polygon fill="midnightblue" stroke="midnightblue" points="680.451,-56.9222 689.763,-61.9751 685.634,-52.2178 680.451,-56.9222"/>
</g>
<!-- Node17 -->
<g id="node17" class="node"><title>Node17</title>
<g id="a_node17"><a xlink:href="../../d8/dd9/mainwindow_8cpp.html" target="_top" xlink:title="window/mainwindow.cpp">
<polygon fill="none" stroke="black" points="689,-0.5 689,-19.5 814,-19.5 814,-0.5 689,-0.5"/>
<text text-anchor="middle" x="751.5" y="-7.5" font-family="Helvetica,sans-Serif" font-size="10.00">window/mainwindow.cpp</text>
</a>
</g>
</g>
<!-- Node15&#45;&gt;Node17 -->
<g id="edge19" class="edge"><title>Node15&#45;&gt;Node17</title>
<path fill="none" stroke="midnightblue" d="M712.023,-54.4975C722.244,-43.2356 735.523,-28.6044 743.777,-19.5091"/>
<polygon fill="midnightblue" stroke="midnightblue" points="709.366,-52.2178 705.237,-61.9751 714.549,-56.9222 709.366,-52.2178"/>
</g>
</g>
</svg>
