<?xml version="1.0" encoding="UTF-8" standalone="no"?>
<!DOCTYPE svg PUBLIC "-//W3C//DTD SVG 1.1//EN"
 "http://www.w3.org/Graphics/SVG/1.1/DTD/svg11.dtd">
<!-- Generated by graphviz version 2.38.0 (20140413.2041)
 -->
<!-- Title: engine/Camera/Camera.hpp Pages: 1 -->
<svg width="590pt" height="162pt"
 viewBox="0.00 0.00 589.50 162.00" xmlns="http://www.w3.org/2000/svg" xmlns:xlink="http://www.w3.org/1999/xlink">
<g id="graph0" class="graph" transform="scale(1 1) rotate(0) translate(4 158)">
<title>engine/Camera/Camera.hpp</title>
<!-- Node1 -->
<g id="node1" class="node"><title>Node1</title>
<polygon fill="#bfbfbf" stroke="black" points="235,-134.5 235,-153.5 374,-153.5 374,-134.5 235,-134.5"/>
<text text-anchor="middle" x="304.5" y="-141.5" font-family="Helvetica,sans-Serif" font-size="10.00">engine/Camera/Camera.hpp</text>
</g>
<!-- Node2 -->
<g id="node2" class="node"><title>Node2</title>
<g id="a_node2"><a xlink:href="../../da/d8c/Camera_8cpp.html" target="_top" xlink:title="engine/Camera/Camera.cpp">
<polygon fill="none" stroke="black" points="0,-73 0,-92 139,-92 139,-73 0,-73"/>
<text text-anchor="middle" x="69.5" y="-80" font-family="Helvetica,sans-Serif" font-size="10.00">engine/Camera/Camera.cpp</text>
</a>
</g>
</g>
<!-- Node1&#45;&gt;Node2 -->
<g id="edge1" class="edge"><title>Node1&#45;&gt;Node2</title>
<path fill="none" stroke="midnightblue" d="M260.93,-131.968C215.298,-120.415 144.61,-102.517 103.107,-92.0091"/>
<polygon fill="midnightblue" stroke="midnightblue" points="260.277,-135.413 270.83,-134.475 261.995,-128.628 260.277,-135.413"/>
</g>
<!-- Node3 -->
<g id="node3" class="node"><title>Node3</title>
<g id="a_node3"><a xlink:href="../../d4/d3e/PerspectiveCamera_8hpp.html" target="_top" xlink:title="engine/PerspectiveCamera\l/PerspectiveCamera.hpp">
<polygon fill="none" stroke="black" points="157.5,-67.5 157.5,-97.5 291.5,-97.5 291.5,-67.5 157.5,-67.5"/>
<text text-anchor="start" x="165.5" y="-85.5" font-family="Helvetica,sans-Serif" font-size="10.00">engine/PerspectiveCamera</text>
<text text-anchor="middle" x="224.5" y="-74.5" font-family="Helvetica,sans-Serif" font-size="10.00">/PerspectiveCamera.hpp</text>
</a>
</g>
</g>
<!-- Node1&#45;&gt;Node3 -->
<g id="edge2" class="edge"><title>Node1&#45;&gt;Node3</title>
<path fill="none" stroke="midnightblue" d="M284.961,-128.468C272.295,-119.047 255.883,-106.841 243.354,-97.523"/>
<polygon fill="midnightblue" stroke="midnightblue" points="282.925,-131.316 293.038,-134.475 287.103,-125.699 282.925,-131.316"/>
</g>
<!-- Node6 -->
<g id="node6" class="node"><title>Node6</title>
<g id="a_node6"><a xlink:href="../../d3/d28/Renderer_8cpp.html" target="_top" xlink:title="engine/Renderer/Renderer.cpp">
<polygon fill="none" stroke="black" points="310,-73 310,-92 459,-92 459,-73 310,-73"/>
<text text-anchor="middle" x="384.5" y="-80" font-family="Helvetica,sans-Serif" font-size="10.00">engine/Renderer/Renderer.cpp</text>
</a>
</g>
</g>
<!-- Node1&#45;&gt;Node6 -->
<g id="edge5" class="edge"><title>Node1&#45;&gt;Node6</title>
<path fill="none" stroke="midnightblue" d="M324.273,-128.294C339.619,-116.88 360.355,-101.458 373.059,-92.0091"/>
<polygon fill="midnightblue" stroke="midnightblue" points="321.897,-125.699 315.962,-134.475 326.075,-131.316 321.897,-125.699"/>
</g>
<!-- Node7 -->
<g id="node7" class="node"><title>Node7</title>
<g id="a_node7"><a xlink:href="../../d3/d35/SpatialGraph_8cpp.html" target="_top" xlink:title="engine/SpatialGraph\l/SpatialGraph.cpp">
<polygon fill="none" stroke="black" points="477.5,-67.5 477.5,-97.5 581.5,-97.5 581.5,-67.5 477.5,-67.5"/>
<text text-anchor="start" x="485.5" y="-85.5" font-family="Helvetica,sans-Serif" font-size="10.00">engine/SpatialGraph</text>
<text text-anchor="middle" x="529.5" y="-74.5" font-family="Helvetica,sans-Serif" font-size="10.00">/SpatialGraph.cpp</text>
</a>
</g>
</g>
<!-- Node1&#45;&gt;Node7 -->
<g id="edge6" class="edge"><title>Node1&#45;&gt;Node7</title>
<path fill="none" stroke="midnightblue" d="M346.699,-131.841C383.702,-122.056 437.638,-107.793 477.337,-97.2942"/>
<polygon fill="midnightblue" stroke="midnightblue" points="345.51,-128.535 336.737,-134.475 347.3,-135.302 345.51,-128.535"/>
</g>
<!-- Node4 -->
<g id="node4" class="node"><title>Node4</title>
<g id="a_node4"><a xlink:href="../../da/daf/PerspectiveCamera_8cpp.html" target="_top" xlink:title="engine/PerspectiveCamera\l/PerspectiveCamera.cpp">
<polygon fill="none" stroke="black" points="83.5,-0.5 83.5,-30.5 217.5,-30.5 217.5,-0.5 83.5,-0.5"/>
<text text-anchor="start" x="91.5" y="-18.5" font-family="Helvetica,sans-Serif" font-size="10.00">engine/PerspectiveCamera</text>
<text text-anchor="middle" x="150.5" y="-7.5" font-family="Helvetica,sans-Serif" font-size="10.00">/PerspectiveCamera.cpp</text>
</a>
</g>
</g>
<!-- Node3&#45;&gt;Node4 -->
<g id="edge3" class="edge"><title>Node3&#45;&gt;Node4</title>
<path fill="none" stroke="midnightblue" d="M200.704,-60.5978C189.53,-50.7831 176.507,-39.3442 166.526,-30.5765"/>
<polygon fill="midnightblue" stroke="midnightblue" points="198.62,-63.4261 208.443,-67.396 203.24,-58.1669 198.62,-63.4261"/>
</g>
<!-- Node5 -->
<g id="node5" class="node"><title>Node5</title>
<g id="a_node5"><a xlink:href="../../d2/d22/SceneGraphNode_8cpp.html" target="_top" xlink:title="engine/SceneGraphNode\l/SceneGraphNode.cpp">
<polygon fill="none" stroke="black" points="236,-0.5 236,-30.5 361,-30.5 361,-0.5 236,-0.5"/>
<text text-anchor="start" x="244" y="-18.5" font-family="Helvetica,sans-Serif" font-size="10.00">engine/SceneGraphNode</text>
<text text-anchor="middle" x="298.5" y="-7.5" font-family="Helvetica,sans-Serif" font-size="10.00">/SceneGraphNode.cpp</text>
</a>
</g>
</g>
<!-- Node3&#45;&gt;Node5 -->
<g id="edge4" class="edge"><title>Node3&#45;&gt;Node5</title>
<path fill="none" stroke="midnightblue" d="M248.296,-60.5978C259.47,-50.7831 272.493,-39.3442 282.474,-30.5765"/>
<polygon fill="midnightblue" stroke="midnightblue" points="245.76,-58.1669 240.557,-67.396 250.38,-63.4261 245.76,-58.1669"/>
</g>
</g>
</svg>
