<?xml version="1.0" encoding="UTF-8" standalone="no"?>
<!DOCTYPE svg PUBLIC "-//W3C//DTD SVG 1.1//EN"
 "http://www.w3.org/Graphics/SVG/1.1/DTD/svg11.dtd">
<!-- Generated by graphviz version 2.38.0 (20140413.2041)
 -->
<!-- Title: engine/Texture/Texture.hpp Pages: 1 -->
<svg width="1280pt" height="408pt"
 viewBox="0.00 0.00 1279.50 408.00" xmlns="http://www.w3.org/2000/svg" xmlns:xlink="http://www.w3.org/1999/xlink">
<g id="graph0" class="graph" transform="scale(1 1) rotate(0) translate(4 404)">
<title>engine/Texture/Texture.hpp</title>
<!-- Node1 -->
<g id="node1" class="node"><title>Node1</title>
<polygon fill="#bfbfbf" stroke="black" points="772,-380.5 772,-399.5 908,-399.5 908,-380.5 772,-380.5"/>
<text text-anchor="middle" x="840" y="-387.5" font-family="Helvetica,sans-Serif" font-size="10.00">engine/Texture/Texture.hpp</text>
</g>
<!-- Node2 -->
<g id="node2" class="node"><title>Node2</title>
<g id="a_node2"><a xlink:href="../../d5/d87/Texture_8cpp.html" target="_top" xlink:title="engine/Texture/Texture.cpp">
<polygon fill="none" stroke="black" points="702,-319 702,-338 838,-338 838,-319 702,-319"/>
<text text-anchor="middle" x="770" y="-326" font-family="Helvetica,sans-Serif" font-size="10.00">engine/Texture/Texture.cpp</text>
</a>
</g>
</g>
<!-- Node1&#45;&gt;Node2 -->
<g id="edge1" class="edge"><title>Node1&#45;&gt;Node2</title>
<path fill="none" stroke="midnightblue" d="M822.321,-373.973C808.932,-362.593 791.023,-347.369 780.011,-338.009"/>
<polygon fill="midnightblue" stroke="midnightblue" points="820.085,-376.665 829.971,-380.475 824.618,-371.332 820.085,-376.665"/>
</g>
<!-- Node3 -->
<g id="node3" class="node"><title>Node3</title>
<g id="a_node3"><a xlink:href="../../dc/d23/TextureLibrary_8hpp.html" target="_top" xlink:title="engine/TextureLibrary\l/TextureLibrary.hpp">
<polygon fill="none" stroke="black" points="856,-313.5 856,-343.5 966,-343.5 966,-313.5 856,-313.5"/>
<text text-anchor="start" x="864" y="-331.5" font-family="Helvetica,sans-Serif" font-size="10.00">engine/TextureLibrary</text>
<text text-anchor="middle" x="911" y="-320.5" font-family="Helvetica,sans-Serif" font-size="10.00">/TextureLibrary.hpp</text>
</a>
</g>
</g>
<!-- Node1&#45;&gt;Node3 -->
<g id="edge2" class="edge"><title>Node1&#45;&gt;Node3</title>
<path fill="none" stroke="midnightblue" d="M857.993,-373.921C869.141,-364.579 883.362,-352.662 894.267,-343.523"/>
<polygon fill="midnightblue" stroke="midnightblue" points="855.589,-371.369 850.173,-380.475 860.085,-376.735 855.589,-371.369"/>
</g>
<!-- Node4 -->
<g id="node4" class="node"><title>Node4</title>
<g id="a_node4"><a xlink:href="../../db/de8/Scene_8hpp.html" target="_top" xlink:title="engine/Scene/Scene.hpp">
<polygon fill="none" stroke="black" points="780.5,-252 780.5,-271 905.5,-271 905.5,-252 780.5,-252"/>
<text text-anchor="middle" x="843" y="-259" font-family="Helvetica,sans-Serif" font-size="10.00">engine/Scene/Scene.hpp</text>
</a>
</g>
</g>
<!-- Node3&#45;&gt;Node4 -->
<g id="edge3" class="edge"><title>Node3&#45;&gt;Node4</title>
<path fill="none" stroke="midnightblue" d="M888.858,-306.335C876.373,-294.401 861.45,-280.136 852.096,-271.195"/>
<polygon fill="midnightblue" stroke="midnightblue" points="886.598,-309.016 896.245,-313.396 891.435,-303.956 886.598,-309.016"/>
</g>
<!-- Node23 -->
<g id="node23" class="node"><title>Node23</title>
<g id="a_node23"><a xlink:href="../../d3/da5/TextureLibrary_8cpp.html" target="_top" xlink:title="engine/TextureLibrary\l/TextureLibrary.cpp">
<polygon fill="none" stroke="black" points="924,-246.5 924,-276.5 1034,-276.5 1034,-246.5 924,-246.5"/>
<text text-anchor="start" x="932" y="-264.5" font-family="Helvetica,sans-Serif" font-size="10.00">engine/TextureLibrary</text>
<text text-anchor="middle" x="979" y="-253.5" font-family="Helvetica,sans-Serif" font-size="10.00">/TextureLibrary.cpp</text>
</a>
</g>
</g>
<!-- Node3&#45;&gt;Node23 -->
<g id="edge23" class="edge"><title>Node3&#45;&gt;Node23</title>
<path fill="none" stroke="midnightblue" d="M933.166,-306.311C943.367,-296.561 955.191,-285.259 964.274,-276.577"/>
<polygon fill="midnightblue" stroke="midnightblue" points="930.565,-303.956 925.755,-313.396 935.402,-309.016 930.565,-303.956"/>
</g>
<!-- Node5 -->
<g id="node5" class="node"><title>Node5</title>
<g id="a_node5"><a xlink:href="../../d4/d7f/AssimpImporter_8cpp.html" target="_top" xlink:title="engine/AssimpImporter\l/AssimpImporter.cpp">
<polygon fill="none" stroke="black" points="382.5,-179.5 382.5,-209.5 499.5,-209.5 499.5,-179.5 382.5,-179.5"/>
<text text-anchor="start" x="390.5" y="-197.5" font-family="Helvetica,sans-Serif" font-size="10.00">engine/AssimpImporter</text>
<text text-anchor="middle" x="441" y="-186.5" font-family="Helvetica,sans-Serif" font-size="10.00">/AssimpImporter.cpp</text>
</a>
</g>
</g>
<!-- Node4&#45;&gt;Node5 -->
<g id="edge4" class="edge"><title>Node4&#45;&gt;Node5</title>
<path fill="none" stroke="midnightblue" d="M770.182,-250.774C702.381,-241.413 598.591,-226.31 509,-210 505.912,-209.438 502.75,-208.84 499.561,-208.22"/>
<polygon fill="midnightblue" stroke="midnightblue" points="769.949,-254.274 780.333,-252.169 770.903,-247.34 769.949,-254.274"/>
</g>
<!-- Node6 -->
<g id="node6" class="node"><title>Node6</title>
<g id="a_node6"><a xlink:href="../../d4/d1c/GameEngine_8hpp.html" target="_top" xlink:title="engine/GameEngine/GameEngine.hpp">
<polygon fill="none" stroke="black" points="518,-185 518,-204 700,-204 700,-185 518,-185"/>
<text text-anchor="middle" x="609" y="-192" font-family="Helvetica,sans-Serif" font-size="10.00">engine/GameEngine/GameEngine.hpp</text>
</a>
</g>
</g>
<!-- Node4&#45;&gt;Node6 -->
<g id="edge5" class="edge"><title>Node4&#45;&gt;Node6</title>
<path fill="none" stroke="midnightblue" d="M802.22,-249.172C755.947,-236.319 681.514,-215.643 639.829,-204.064"/>
<polygon fill="midnightblue" stroke="midnightblue" points="801.355,-252.564 811.927,-251.869 803.228,-245.82 801.355,-252.564"/>
</g>
<!-- Node19 -->
<g id="node19" class="node"><title>Node19</title>
<g id="a_node19"><a xlink:href="../../d2/d41/Light_8cpp.html" target="_top" xlink:title="engine/Light/Light.cpp">
<polygon fill="none" stroke="black" points="718,-185 718,-204 830,-204 830,-185 718,-185"/>
<text text-anchor="middle" x="774" y="-192" font-family="Helvetica,sans-Serif" font-size="10.00">engine/Light/Light.cpp</text>
</a>
</g>
</g>
<!-- Node4&#45;&gt;Node19 -->
<g id="edge19" class="edge"><title>Node4&#45;&gt;Node19</title>
<path fill="none" stroke="midnightblue" d="M826.394,-244.856C812.829,-232.078 794.16,-214.492 783.158,-204.127"/>
<polygon fill="midnightblue" stroke="midnightblue" points="824.015,-247.424 833.694,-251.734 828.815,-242.329 824.015,-247.424"/>
</g>
<!-- Node20 -->
<g id="node20" class="node"><title>Node20</title>
<g id="a_node20"><a xlink:href="../../de/d4f/Object_8cpp.html" target="_top" xlink:title="engine/Object/Object.cpp">
<polygon fill="none" stroke="black" points="848.5,-185 848.5,-204 975.5,-204 975.5,-185 848.5,-185"/>
<text text-anchor="middle" x="912" y="-192" font-family="Helvetica,sans-Serif" font-size="10.00">engine/Object/Object.cpp</text>
</a>
</g>
</g>
<!-- Node4&#45;&gt;Node20 -->
<g id="edge20" class="edge"><title>Node4&#45;&gt;Node20</title>
<path fill="none" stroke="midnightblue" d="M859.606,-244.856C873.171,-232.078 891.84,-214.492 902.842,-204.127"/>
<polygon fill="midnightblue" stroke="midnightblue" points="857.185,-242.329 852.306,-251.734 861.985,-247.424 857.185,-242.329"/>
</g>
<!-- Node21 -->
<g id="node21" class="node"><title>Node21</title>
<g id="a_node21"><a xlink:href="../../da/daf/PerspectiveCamera_8cpp.html" target="_top" xlink:title="engine/PerspectiveCamera\l/PerspectiveCamera.cpp">
<polygon fill="none" stroke="black" points="994,-179.5 994,-209.5 1128,-209.5 1128,-179.5 994,-179.5"/>
<text text-anchor="start" x="1002" y="-197.5" font-family="Helvetica,sans-Serif" font-size="10.00">engine/PerspectiveCamera</text>
<text text-anchor="middle" x="1061" y="-186.5" font-family="Helvetica,sans-Serif" font-size="10.00">/PerspectiveCamera.cpp</text>
</a>
</g>
</g>
<!-- Node4&#45;&gt;Node21 -->
<g id="edge21" class="edge"><title>Node4&#45;&gt;Node21</title>
<path fill="none" stroke="midnightblue" d="M881.849,-248.917C918.813,-237.895 974.492,-221.294 1013.95,-209.528"/>
<polygon fill="midnightblue" stroke="midnightblue" points="880.532,-245.657 871.949,-251.869 882.532,-252.365 880.532,-245.657"/>
</g>
<!-- Node22 -->
<g id="node22" class="node"><title>Node22</title>
<g id="a_node22"><a xlink:href="../../de/d15/Scene_8cpp.html" target="_top" xlink:title="engine/Scene/Scene.cpp">
<polygon fill="none" stroke="black" points="1146.5,-185 1146.5,-204 1271.5,-204 1271.5,-185 1146.5,-185"/>
<text text-anchor="middle" x="1209" y="-192" font-family="Helvetica,sans-Serif" font-size="10.00">engine/Scene/Scene.cpp</text>
</a>
</g>
</g>
<!-- Node4&#45;&gt;Node22 -->
<g id="edge22" class="edge"><title>Node4&#45;&gt;Node22</title>
<path fill="none" stroke="midnightblue" d="M894.184,-249.944C901.171,-248.575 908.257,-247.225 915,-246 1013.35,-228.13 1038.65,-227.87 1137,-210 1147.04,-208.176 1157.83,-206.076 1167.93,-204.051"/>
<polygon fill="midnightblue" stroke="midnightblue" points="893.198,-246.571 884.069,-251.949 894.559,-253.437 893.198,-246.571"/>
</g>
<!-- Node7 -->
<g id="node7" class="node"><title>Node7</title>
<g id="a_node7"><a xlink:href="../../dd/d98/GameEngine_8cpp.html" target="_top" xlink:title="engine/GameEngine/GameEngine.cpp">
<polygon fill="none" stroke="black" points="353,-123.5 353,-142.5 535,-142.5 535,-123.5 353,-123.5"/>
<text text-anchor="middle" x="444" y="-130.5" font-family="Helvetica,sans-Serif" font-size="10.00">engine/GameEngine/GameEngine.cpp</text>
</a>
</g>
</g>
<!-- Node6&#45;&gt;Node7 -->
<g id="edge6" class="edge"><title>Node6&#45;&gt;Node7</title>
<path fill="none" stroke="midnightblue" d="M575.952,-181.583C543.879,-170.017 496.002,-152.752 467.597,-142.509"/>
<polygon fill="midnightblue" stroke="midnightblue" points="574.765,-184.875 585.36,-184.975 577.14,-178.29 574.765,-184.875"/>
</g>
<!-- Node8 -->
<g id="node8" class="node"><title>Node8</title>
<g id="a_node8"><a xlink:href="../../d0/d5e/glwindow_8hpp.html" target="_top" xlink:title="window/glwindow.hpp">
<polygon fill="none" stroke="black" points="553,-123.5 553,-142.5 665,-142.5 665,-123.5 553,-123.5"/>
<text text-anchor="middle" x="609" y="-130.5" font-family="Helvetica,sans-Serif" font-size="10.00">window/glwindow.hpp</text>
</a>
</g>
</g>
<!-- Node6&#45;&gt;Node8 -->
<g id="edge7" class="edge"><title>Node6&#45;&gt;Node8</title>
<path fill="none" stroke="midnightblue" d="M609,-174.817C609,-163.996 609,-150.898 609,-142.509"/>
<polygon fill="midnightblue" stroke="midnightblue" points="605.5,-174.975 609,-184.975 612.5,-174.975 605.5,-174.975"/>
</g>
<!-- Node15 -->
<g id="node15" class="node"><title>Node15</title>
<g id="a_node15"><a xlink:href="../../d3/d1f/glwindow_8cpp.html" target="_top" xlink:title="window/glwindow.cpp">
<polygon fill="none" stroke="black" points="971,-62 971,-81 1083,-81 1083,-62 971,-62"/>
<text text-anchor="middle" x="1027" y="-69" font-family="Helvetica,sans-Serif" font-size="10.00">window/glwindow.cpp</text>
</a>
</g>
</g>
<!-- Node6&#45;&gt;Node15 -->
<g id="edge18" class="edge"><title>Node6&#45;&gt;Node15</title>
<path fill="none" stroke="midnightblue" d="M648.203,-182.152C731.289,-158.101 923.51,-102.458 997.36,-81.0799"/>
<polygon fill="midnightblue" stroke="midnightblue" points="647.025,-178.849 638.393,-184.992 648.972,-185.573 647.025,-178.849"/>
</g>
<!-- Node9 -->
<g id="node9" class="node"><title>Node9</title>
<g id="a_node9"><a xlink:href="../../d8/d49/ArrayObject_8cpp.html" target="_top" xlink:title="engine/ArrayObject\l/ArrayObject.cpp">
<polygon fill="none" stroke="black" points="0,-56.5 0,-86.5 100,-86.5 100,-56.5 0,-56.5"/>
<text text-anchor="start" x="8" y="-74.5" font-family="Helvetica,sans-Serif" font-size="10.00">engine/ArrayObject</text>
<text text-anchor="middle" x="50" y="-63.5" font-family="Helvetica,sans-Serif" font-size="10.00">/ArrayObject.cpp</text>
</a>
</g>
</g>
<!-- Node8&#45;&gt;Node9 -->
<g id="edge8" class="edge"><title>Node8&#45;&gt;Node9</title>
<path fill="none" stroke="midnightblue" d="M542.455,-122.894C349.405,-102.24 297.189,-117.713 109,-87 106.085,-86.5243 103.102,-85.9792 100.101,-85.3855"/>
<polygon fill="midnightblue" stroke="midnightblue" points="542.333,-126.402 552.653,-124.005 543.091,-119.443 542.333,-126.402"/>
</g>
<!-- Node10 -->
<g id="node10" class="node"><title>Node10</title>
<g id="a_node10"><a xlink:href="../../db/d2b/BufferObject_8cpp.html" target="_top" xlink:title="engine/BufferObject\l/BufferObject.cpp">
<polygon fill="none" stroke="black" points="118.5,-56.5 118.5,-86.5 221.5,-86.5 221.5,-56.5 118.5,-56.5"/>
<text text-anchor="start" x="126.5" y="-74.5" font-family="Helvetica,sans-Serif" font-size="10.00">engine/BufferObject</text>
<text text-anchor="middle" x="170" y="-63.5" font-family="Helvetica,sans-Serif" font-size="10.00">/BufferObject.cpp</text>
</a>
</g>
</g>
<!-- Node8&#45;&gt;Node10 -->
<g id="edge9" class="edge"><title>Node8&#45;&gt;Node10</title>
<path fill="none" stroke="midnightblue" d="M542.773,-122.882C403.331,-105.653 365.683,-110.666 231,-87 227.998,-86.4725 224.923,-85.8869 221.827,-85.2623"/>
<polygon fill="midnightblue" stroke="midnightblue" points="542.634,-126.392 552.991,-124.161 543.503,-119.446 542.634,-126.392"/>
</g>
<!-- Node11 -->
<g id="node11" class="node"><title>Node11</title>
<g id="a_node11"><a xlink:href="../../d2/dcc/Mesh_8cpp.html" target="_top" xlink:title="engine/Mesh/Mesh.cpp">
<polygon fill="none" stroke="black" points="240,-62 240,-81 358,-81 358,-62 240,-62"/>
<text text-anchor="middle" x="299" y="-69" font-family="Helvetica,sans-Serif" font-size="10.00">engine/Mesh/Mesh.cpp</text>
</a>
</g>
</g>
<!-- Node8&#45;&gt;Node11 -->
<g id="edge10" class="edge"><title>Node8&#45;&gt;Node11</title>
<path fill="none" stroke="midnightblue" d="M551.065,-121.668C501.989,-112.81 429.795,-99.5313 367,-87 357.648,-85.1338 347.593,-83.0386 338.158,-81.0334"/>
<polygon fill="midnightblue" stroke="midnightblue" points="550.713,-125.161 561.175,-123.489 551.954,-118.271 550.713,-125.161"/>
</g>
<!-- Node12 -->
<g id="node12" class="node"><title>Node12</title>
<g id="a_node12"><a xlink:href="../../d3/d28/Renderer_8cpp.html" target="_top" xlink:title="engine/Renderer/Renderer.cpp">
<polygon fill="none" stroke="black" points="376.5,-62 376.5,-81 525.5,-81 525.5,-62 376.5,-62"/>
<text text-anchor="middle" x="451" y="-69" font-family="Helvetica,sans-Serif" font-size="10.00">engine/Renderer/Renderer.cpp</text>
</a>
</g>
</g>
<!-- Node8&#45;&gt;Node12 -->
<g id="edge11" class="edge"><title>Node8&#45;&gt;Node12</title>
<path fill="none" stroke="midnightblue" d="M576.956,-119.933C546.247,-108.368 500.679,-91.2083 473.596,-81.0091"/>
<polygon fill="midnightblue" stroke="midnightblue" points="575.771,-123.226 586.362,-123.475 578.238,-116.675 575.771,-123.226"/>
</g>
<!-- Node13 -->
<g id="node13" class="node"><title>Node13</title>
<g id="a_node13"><a xlink:href="../../dd/d84/Shader_8cpp.html" target="_top" xlink:title="engine/Shader/Shader.cpp">
<polygon fill="none" stroke="black" points="543.5,-62 543.5,-81 674.5,-81 674.5,-62 543.5,-62"/>
<text text-anchor="middle" x="609" y="-69" font-family="Helvetica,sans-Serif" font-size="10.00">engine/Shader/Shader.cpp</text>
</a>
</g>
</g>
<!-- Node8&#45;&gt;Node13 -->
<g id="edge12" class="edge"><title>Node8&#45;&gt;Node13</title>
<path fill="none" stroke="midnightblue" d="M609,-113.317C609,-102.496 609,-89.398 609,-81.0091"/>
<polygon fill="midnightblue" stroke="midnightblue" points="605.5,-113.475 609,-123.475 612.5,-113.475 605.5,-113.475"/>
</g>
<!-- Node14 -->
<g id="node14" class="node"><title>Node14</title>
<g id="a_node14"><a xlink:href="../../de/d34/ShaderProgram_8cpp.html" target="_top" xlink:title="engine/ShaderProgram\l/ShaderProgram.cpp">
<polygon fill="none" stroke="black" points="693,-56.5 693,-86.5 809,-86.5 809,-56.5 693,-56.5"/>
<text text-anchor="start" x="701" y="-74.5" font-family="Helvetica,sans-Serif" font-size="10.00">engine/ShaderProgram</text>
<text text-anchor="middle" x="751" y="-63.5" font-family="Helvetica,sans-Serif" font-size="10.00">/ShaderProgram.cpp</text>
</a>
</g>
</g>
<!-- Node8&#45;&gt;Node14 -->
<g id="edge13" class="edge"><title>Node8&#45;&gt;Node14</title>
<path fill="none" stroke="midnightblue" d="M638.617,-119.59C661.642,-109.942 693.585,-96.5575 717.533,-86.523"/>
<polygon fill="midnightblue" stroke="midnightblue" points="637.216,-116.382 629.345,-123.475 639.921,-122.839 637.216,-116.382"/>
</g>
<!-- Node8&#45;&gt;Node15 -->
<g id="edge14" class="edge"><title>Node8&#45;&gt;Node15</title>
<path fill="none" stroke="midnightblue" d="M675.147,-125.323C746.09,-117.747 861.92,-104.182 961,-87 970.71,-85.3162 981.153,-83.1763 990.804,-81.0608"/>
<polygon fill="midnightblue" stroke="midnightblue" points="674.588,-121.862 665.013,-126.397 675.326,-128.823 674.588,-121.862"/>
</g>
<!-- Node16 -->
<g id="node16" class="node"><title>Node16</title>
<g id="a_node16"><a xlink:href="../../df/d50/mainwindow_8hpp.html" target="_top" xlink:title="window/mainwindow.hpp">
<polygon fill="none" stroke="black" points="827.5,-62 827.5,-81 952.5,-81 952.5,-62 827.5,-62"/>
<text text-anchor="middle" x="890" y="-69" font-family="Helvetica,sans-Serif" font-size="10.00">window/mainwindow.hpp</text>
</a>
</g>
</g>
<!-- Node8&#45;&gt;Node16 -->
<g id="edge15" class="edge"><title>Node8&#45;&gt;Node16</title>
<path fill="none" stroke="midnightblue" d="M659.05,-121.402C713.527,-109.867 799.562,-91.6498 849.814,-81.0091"/>
<polygon fill="midnightblue" stroke="midnightblue" points="658.318,-117.979 649.26,-123.475 659.769,-124.828 658.318,-117.979"/>
</g>
<!-- Node17 -->
<g id="node17" class="node"><title>Node17</title>
<g id="a_node17"><a xlink:href="../../df/d0a/main_8cpp.html" target="_top" xlink:title="TODO. ">
<polygon fill="none" stroke="black" points="808,-0.5 808,-19.5 864,-19.5 864,-0.5 808,-0.5"/>
<text text-anchor="middle" x="836" y="-7.5" font-family="Helvetica,sans-Serif" font-size="10.00">main.cpp</text>
</a>
</g>
</g>
<!-- Node16&#45;&gt;Node17 -->
<g id="edge16" class="edge"><title>Node16&#45;&gt;Node17</title>
<path fill="none" stroke="midnightblue" d="M875.477,-54.4975C865.256,-43.2356 851.977,-28.6044 843.723,-19.5091"/>
<polygon fill="midnightblue" stroke="midnightblue" points="872.951,-56.9222 882.263,-61.9751 878.134,-52.2178 872.951,-56.9222"/>
</g>
<!-- Node18 -->
<g id="node18" class="node"><title>Node18</title>
<g id="a_node18"><a xlink:href="../../d8/dd9/mainwindow_8cpp.html" target="_top" xlink:title="window/mainwindow.cpp">
<polygon fill="none" stroke="black" points="881.5,-0.5 881.5,-19.5 1006.5,-19.5 1006.5,-0.5 881.5,-0.5"/>
<text text-anchor="middle" x="944" y="-7.5" font-family="Helvetica,sans-Serif" font-size="10.00">window/mainwindow.cpp</text>
</a>
</g>
</g>
<!-- Node16&#45;&gt;Node18 -->
<g id="edge17" class="edge"><title>Node16&#45;&gt;Node18</title>
<path fill="none" stroke="midnightblue" d="M904.523,-54.4975C914.744,-43.2356 928.023,-28.6044 936.277,-19.5091"/>
<polygon fill="midnightblue" stroke="midnightblue" points="901.866,-52.2178 897.737,-61.9751 907.049,-56.9222 901.866,-52.2178"/>
</g>
</g>
</svg>
