<?xml version="1.0" encoding="UTF-8" standalone="no"?>
<!DOCTYPE svg PUBLIC "-//W3C//DTD SVG 1.1//EN"
 "http://www.w3.org/Graphics/SVG/1.1/DTD/svg11.dtd">
<!-- Generated by graphviz version 2.38.0 (20140413.2041)
 -->
<!-- Title: engine/MeshLibrary/MeshLibrary.hpp Pages: 1 -->
<svg width="543pt" height="207pt"
 viewBox="0.00 0.00 543.20 207.00" xmlns="http://www.w3.org/2000/svg" xmlns:xlink="http://www.w3.org/1999/xlink">
<g id="graph0" class="graph" transform="scale(1 1) rotate(0) translate(4 203)">
<title>engine/MeshLibrary/MeshLibrary.hpp</title>
<!-- Node1 -->
<g id="node1" class="node"><title>Node1</title>
<polygon fill="#bfbfbf" stroke="black" points="103.197,-168.5 103.197,-198.5 204.197,-198.5 204.197,-168.5 103.197,-168.5"/>
<text text-anchor="start" x="111.197" y="-186.5" font-family="Helvetica,sans-Serif" font-size="10.00">engine/MeshLibrary</text>
<text text-anchor="middle" x="153.697" y="-175.5" font-family="Helvetica,sans-Serif" font-size="10.00">/MeshLibrary.hpp</text>
</g>
<!-- Node2 -->
<g id="node2" class="node"><title>Node2</title>
<g id="a_node2"><a xlink:href="../../df/d67/Library_8hpp.html" target="_top" xlink:title="Library.hpp">
<polygon fill="none" stroke="black" points="11.197,-112.5 11.197,-131.5 76.197,-131.5 76.197,-112.5 11.197,-112.5"/>
<text text-anchor="middle" x="43.697" y="-119.5" font-family="Helvetica,sans-Serif" font-size="10.00">Library.hpp</text>
</a>
</g>
</g>
<!-- Node1&#45;&gt;Node2 -->
<g id="edge1" class="edge"><title>Node1&#45;&gt;Node2</title>
<path fill="none" stroke="midnightblue" d="M127.629,-168.399C109.832,-158.773 86.3848,-146.09 68.7977,-136.577"/>
<polygon fill="midnightblue" stroke="midnightblue" points="70.1639,-133.337 59.703,-131.658 66.8335,-139.494 70.1639,-133.337"/>
</g>
<!-- Node5 -->
<g id="node5" class="node"><title>Node5</title>
<g id="a_node5"><a xlink:href="../../d1/d62/Mesh_8hpp.html" target="_top" xlink:title="Mesh.hpp">
<polygon fill="none" stroke="black" points="235.197,-112.5 235.197,-131.5 294.197,-131.5 294.197,-112.5 235.197,-112.5"/>
<text text-anchor="middle" x="264.697" y="-119.5" font-family="Helvetica,sans-Serif" font-size="10.00">Mesh.hpp</text>
</a>
</g>
</g>
<!-- Node1&#45;&gt;Node5 -->
<g id="edge5" class="edge"><title>Node1&#45;&gt;Node5</title>
<path fill="none" stroke="midnightblue" d="M180.002,-168.399C197.961,-158.773 221.621,-146.09 239.368,-136.577"/>
<polygon fill="midnightblue" stroke="midnightblue" points="241.385,-139.467 248.546,-131.658 238.078,-133.297 241.385,-139.467"/>
</g>
<!-- Node2&#45;&gt;Node2 -->
<g id="edge4" class="edge"><title>Node2&#45;&gt;Node2</title>
<path fill="none" stroke="midnightblue" d="M65.2354,-131.525C79.8701,-134.308 94.197,-131.133 94.197,-122 94.197,-115.008 85.7989,-111.508 75.2942,-111.5"/>
<polygon fill="midnightblue" stroke="midnightblue" points="74.8511,-108.026 65.2354,-112.475 75.5264,-114.994 74.8511,-108.026"/>
</g>
<!-- Node3 -->
<g id="node3" class="node"><title>Node3</title>
<polygon fill="none" stroke="#bfbfbf" points="80.697,-0.5 80.697,-19.5 124.697,-19.5 124.697,-0.5 80.697,-0.5"/>
<text text-anchor="middle" x="102.697" y="-7.5" font-family="Helvetica,sans-Serif" font-size="10.00">vector</text>
</g>
<!-- Node2&#45;&gt;Node3 -->
<g id="edge2" class="edge"><title>Node2&#45;&gt;Node3</title>
<path fill="none" stroke="midnightblue" d="M31.5326,-112.308C15.5289,-99.775 -9.14356,-75.9415 3.69704,-56 18.3222,-33.2871 47.5263,-21.9059 70.4432,-16.2847"/>
<polygon fill="midnightblue" stroke="midnightblue" points="71.438,-19.6498 80.4552,-14.0874 69.9374,-12.8125 71.438,-19.6498"/>
</g>
<!-- Node4 -->
<g id="node4" class="node"><title>Node4</title>
<polygon fill="none" stroke="#bfbfbf" points="12.697,-56.5 12.697,-75.5 74.697,-75.5 74.697,-56.5 12.697,-56.5"/>
<text text-anchor="middle" x="43.697" y="-63.5" font-family="Helvetica,sans-Serif" font-size="10.00">Library.tpp</text>
</g>
<!-- Node2&#45;&gt;Node4 -->
<g id="edge3" class="edge"><title>Node2&#45;&gt;Node4</title>
<path fill="none" stroke="midnightblue" d="M43.697,-112.083C43.697,-105.006 43.697,-94.8611 43.697,-85.9865"/>
<polygon fill="midnightblue" stroke="midnightblue" points="47.1971,-85.751 43.697,-75.7511 40.1971,-85.7511 47.1971,-85.751"/>
</g>
<!-- Node5&#45;&gt;Node3 -->
<g id="edge6" class="edge"><title>Node5&#45;&gt;Node3</title>
<path fill="none" stroke="midnightblue" d="M235.021,-119.64C202.776,-116.562 151.841,-106.768 121.697,-76 109.751,-63.8069 105.244,-44.5372 103.58,-30.1395"/>
<polygon fill="midnightblue" stroke="midnightblue" points="107.045,-29.5586 102.768,-19.8657 100.067,-30.1105 107.045,-29.5586"/>
</g>
<!-- Node6 -->
<g id="node6" class="node"><title>Node6</title>
<polygon fill="none" stroke="#bfbfbf" points="238.697,-56.5 238.697,-75.5 290.697,-75.5 290.697,-56.5 238.697,-56.5"/>
<text text-anchor="middle" x="264.697" y="-63.5" font-family="Helvetica,sans-Serif" font-size="10.00">memory</text>
</g>
<!-- Node5&#45;&gt;Node6 -->
<g id="edge7" class="edge"><title>Node5&#45;&gt;Node6</title>
<path fill="none" stroke="midnightblue" d="M264.697,-112.083C264.697,-105.006 264.697,-94.8611 264.697,-85.9865"/>
<polygon fill="midnightblue" stroke="midnightblue" points="268.197,-85.751 264.697,-75.7511 261.197,-85.7511 268.197,-85.751"/>
</g>
<!-- Node7 -->
<g id="node7" class="node"><title>Node7</title>
<polygon fill="none" stroke="#bfbfbf" points="212.697,-0.5 212.697,-19.5 282.697,-19.5 282.697,-0.5 212.697,-0.5"/>
<text text-anchor="middle" x="247.697" y="-7.5" font-family="Helvetica,sans-Serif" font-size="10.00">glm/glm.hpp</text>
</g>
<!-- Node5&#45;&gt;Node7 -->
<g id="edge8" class="edge"><title>Node5&#45;&gt;Node7</title>
<path fill="none" stroke="midnightblue" d="M275.106,-112.353C288.555,-100.069 309.181,-76.749 299.697,-56 293.92,-43.3602 282.645,-32.911 272.066,-25.2737"/>
<polygon fill="midnightblue" stroke="midnightblue" points="273.739,-22.1817 263.48,-19.5333 269.848,-28.0009 273.739,-22.1817"/>
</g>
<!-- Node8 -->
<g id="node8" class="node"><title>Node8</title>
<polygon fill="none" stroke="#bfbfbf" points="347.197,-56.5 347.197,-75.5 430.197,-75.5 430.197,-56.5 347.197,-56.5"/>
<text text-anchor="middle" x="388.697" y="-63.5" font-family="Helvetica,sans-Serif" font-size="10.00">assimp/mesh.h</text>
</g>
<!-- Node5&#45;&gt;Node8 -->
<g id="edge9" class="edge"><title>Node5&#45;&gt;Node8</title>
<path fill="none" stroke="midnightblue" d="M284.345,-112.444C304.662,-103.596 336.6,-89.6875 359.795,-79.5865"/>
<polygon fill="midnightblue" stroke="midnightblue" points="361.37,-82.7181 369.141,-75.5164 358.575,-76.3002 361.37,-82.7181"/>
</g>
<!-- Node9 -->
<g id="node9" class="node"><title>Node9</title>
<g id="a_node9"><a xlink:href="../../da/d04/BufferObject_8hpp.html" target="_top" xlink:title="BufferObject.hpp">
<polygon fill="none" stroke="black" points="130.697,-56.5 130.697,-75.5 220.697,-75.5 220.697,-56.5 130.697,-56.5"/>
<text text-anchor="middle" x="175.697" y="-63.5" font-family="Helvetica,sans-Serif" font-size="10.00">BufferObject.hpp</text>
</a>
</g>
</g>
<!-- Node5&#45;&gt;Node9 -->
<g id="edge10" class="edge"><title>Node5&#45;&gt;Node9</title>
<path fill="none" stroke="midnightblue" d="M250.398,-112.324C236.514,-103.9 215.205,-90.9709 198.893,-81.0741"/>
<polygon fill="midnightblue" stroke="midnightblue" points="200.326,-77.8495 189.961,-75.6545 196.695,-83.8341 200.326,-77.8495"/>
</g>
<!-- Node10 -->
<g id="node10" class="node"><title>Node10</title>
<g id="a_node10"><a xlink:href="../../df/d20/ArrayObject_8hpp.html" target="_top" xlink:title="ArrayObject.hpp">
<polygon fill="none" stroke="black" points="448.197,-56.5 448.197,-75.5 535.197,-75.5 535.197,-56.5 448.197,-56.5"/>
<text text-anchor="middle" x="491.697" y="-63.5" font-family="Helvetica,sans-Serif" font-size="10.00">ArrayObject.hpp</text>
</a>
</g>
</g>
<!-- Node5&#45;&gt;Node10 -->
<g id="edge13" class="edge"><title>Node5&#45;&gt;Node10</title>
<path fill="none" stroke="midnightblue" d="M294.373,-113.94C332.919,-104.771 400.609,-88.6686 445.801,-77.9181"/>
<polygon fill="midnightblue" stroke="midnightblue" points="446.727,-81.2954 455.646,-75.576 445.107,-74.4854 446.727,-81.2954"/>
</g>
<!-- Node9&#45;&gt;Node3 -->
<g id="edge11" class="edge"><title>Node9&#45;&gt;Node3</title>
<path fill="none" stroke="midnightblue" d="M163.968,-56.324C152.86,-48.1066 135.955,-35.6017 122.714,-25.8069"/>
<polygon fill="midnightblue" stroke="midnightblue" points="124.76,-22.9671 114.639,-19.8339 120.597,-28.5948 124.76,-22.9671"/>
</g>
<!-- Node9&#45;&gt;Node7 -->
<g id="edge12" class="edge"><title>Node9&#45;&gt;Node7</title>
<path fill="none" stroke="midnightblue" d="M187.265,-56.324C198.117,-48.1849 214.578,-35.8395 227.58,-26.0874"/>
<polygon fill="midnightblue" stroke="midnightblue" points="230.019,-28.6339 235.919,-19.8339 225.818,-23.0339 230.019,-28.6339"/>
</g>
</g>
</svg>
