<?xml version="1.0" encoding="UTF-8" standalone="no"?>
<!DOCTYPE svg PUBLIC "-//W3C//DTD SVG 1.1//EN"
 "http://www.w3.org/Graphics/SVG/1.1/DTD/svg11.dtd">
<!-- Generated by graphviz version 2.38.0 (20140413.2041)
 -->
<!-- Title: WorldParticles::Engine::Library&lt; T &gt; Pages: 1 -->
<!--zoomable 519 -->
<svg id="main" version="1.1" xmlns="http://www.w3.org/2000/svg" xmlns:xlink="http://www.w3.org/1999/xlink" xml:space="preserve" onload="init(evt)">
<style type="text/css"><![CDATA[
.edge:hover path { stroke: red; }
.edge:hover polygon { stroke: red; fill: red; }
]]></style>
<script type="text/javascript"><![CDATA[
var edges = document.getElementsByTagName('g');
if (edges && edges.length) {
  for (var i=0;i<edges.length;i++) {
    if (edges[i].id.substr(0,4)=='edge') {
      edges[i].setAttribute('class','edge');
    }
  }
}
]]></script>
        <defs>
                <circle id="rim" cx="0" cy="0" r="7"/>
                <circle id="rim2" cx="0" cy="0" r="3.5"/>
                <g id="zoomPlus">
                        <use xlink:href="#rim" fill="#404040">
                                <set attributeName="fill" to="#808080" begin="zoomplus.mouseover" end="zoomplus.mouseout"/>
                        </use>
                        <path d="M-4,0h8M0,-4v8" fill="none" stroke="white" stroke-width="1.5" pointer-events="none"/>
                </g>
                <g id="zoomMin">
                        <use xlink:href="#rim" fill="#404040">
                                <set attributeName="fill" to="#808080" begin="zoomminus.mouseover" end="zoomminus.mouseout"/>
                        </use>
                        <path d="M-4,0h8" fill="none" stroke="white" stroke-width="1.5" pointer-events="none"/>
                </g>
                <g id="dirArrow">
                        <path fill="none" stroke="white" stroke-width="1.5" d="M0,-3.0v7 M-2.5,-0.5L0,-3.0L2.5,-0.5"/>
                </g>
               <g id="resetDef">
                       <use xlink:href="#rim2" fill="#404040">
                               <set attributeName="fill" to="#808080" begin="reset.mouseover" end="reset.mouseout"/>
                       </use>
               </g>
        </defs>

<script type="text/javascript">
var viewWidth = 815;
var viewHeight = 519;
var sectionId = 'dynsection-0';
</script>
<script xlink:href="../../svgpan.js"/>
<svg id="graph" class="graph">
<g id="viewport">
<title>WorldParticles::Engine::Library&lt; T &gt;</title>
<!-- Node1 -->
<g id="node1" class="node"><title>Node1</title>
<polygon fill="#bfbfbf" stroke="black" points="351,-376.5 351,-510.5 467,-510.5 467,-376.5 351,-376.5"/>
<text text-anchor="start" x="359" y="-498.5" font-family="Helvetica,sans-Serif" font-size="10.00">WorldParticles::Engine</text>
<text text-anchor="middle" x="409" y="-487.5" font-family="Helvetica,sans-Serif" font-size="10.00">::Library&lt; T &gt;</text>
<polyline fill="none" stroke="black" points="351,-480.5 467,-480.5 "/>
<text text-anchor="start" x="359" y="-468.5" font-family="Helvetica,sans-Serif" font-size="10.00"># resources</text>
<polyline fill="none" stroke="black" points="351,-461.5 467,-461.5 "/>
<text text-anchor="start" x="359" y="-449.5" font-family="Helvetica,sans-Serif" font-size="10.00">+ Library()</text>
<text text-anchor="start" x="359" y="-438.5" font-family="Helvetica,sans-Serif" font-size="10.00">+ Library()</text>
<text text-anchor="start" x="359" y="-427.5" font-family="Helvetica,sans-Serif" font-size="10.00">+ Library()</text>
<text text-anchor="start" x="359" y="-416.5" font-family="Helvetica,sans-Serif" font-size="10.00">+ ~Library()</text>
<text text-anchor="start" x="359" y="-405.5" font-family="Helvetica,sans-Serif" font-size="10.00">+ operator=()</text>
<text text-anchor="start" x="359" y="-394.5" font-family="Helvetica,sans-Serif" font-size="10.00">+ operator=()</text>
<text text-anchor="start" x="359" y="-383.5" font-family="Helvetica,sans-Serif" font-size="10.00">+ get()</text>
</g>
<!-- Node2 -->
<g id="node2" class="node"><title>Node2</title>
<g id="a_node2"><a xlink:href="../../d6/da4/classWorldParticles_1_1Engine_1_1Library.html" target="_top" xlink:title="{WorldParticles::Engine\l::Library\&lt; Mesh * \&gt;\n|# resources\l|+ Library()\l+ Library()\l+ Library()\l+ ~Library()\l+ operator=()\l+ operator=()\l+ get()\l}">
<polygon fill="none" stroke="black" points="3,-178 3,-312 119,-312 119,-178 3,-178"/>
<text text-anchor="start" x="11" y="-300" font-family="Helvetica,sans-Serif" font-size="10.00">WorldParticles::Engine</text>
<text text-anchor="middle" x="61" y="-289" font-family="Helvetica,sans-Serif" font-size="10.00">::Library&lt; Mesh * &gt;</text>
<polyline fill="none" stroke="black" points="3,-282 119,-282 "/>
<text text-anchor="start" x="11" y="-270" font-family="Helvetica,sans-Serif" font-size="10.00"># resources</text>
<polyline fill="none" stroke="black" points="3,-263 119,-263 "/>
<text text-anchor="start" x="11" y="-251" font-family="Helvetica,sans-Serif" font-size="10.00">+ Library()</text>
<text text-anchor="start" x="11" y="-240" font-family="Helvetica,sans-Serif" font-size="10.00">+ Library()</text>
<text text-anchor="start" x="11" y="-229" font-family="Helvetica,sans-Serif" font-size="10.00">+ Library()</text>
<text text-anchor="start" x="11" y="-218" font-family="Helvetica,sans-Serif" font-size="10.00">+ ~Library()</text>
<text text-anchor="start" x="11" y="-207" font-family="Helvetica,sans-Serif" font-size="10.00">+ operator=()</text>
<text text-anchor="start" x="11" y="-196" font-family="Helvetica,sans-Serif" font-size="10.00">+ operator=()</text>
<text text-anchor="start" x="11" y="-185" font-family="Helvetica,sans-Serif" font-size="10.00">+ get()</text>
</a>
</g>
</g>
<!-- Node1&#45;&gt;Node2 -->
<g id="edge1" class="edge"><title>Node1&#45;&gt;Node2</title>
<path fill="none" stroke="orange" d="M341.22,-421.617C281.838,-401.232 195.097,-366.233 130,-318 126.383,-315.32 122.789,-312.442 119.251,-309.433"/>
<polygon fill="orange" stroke="orange" points="340.281,-424.994 350.875,-424.886 342.525,-418.364 340.281,-424.994"/>
<text text-anchor="middle" x="213" y="-344.5" font-family="Helvetica,sans-Serif" font-size="10.00"> &lt; Mesh * &gt;</text>
</g>
<!-- Node4 -->
<g id="node4" class="node"><title>Node4</title>
<g id="a_node4"><a xlink:href="../../d6/da4/classWorldParticles_1_1Engine_1_1Library.html" target="_top" xlink:title="{WorldParticles::Engine\l::Library\&lt; std::shared\l_ptr\&lt; ShaderProgram \&gt; \&gt;\n|# resources\l|+ Library()\l+ Library()\l+ Library()\l+ ~Library()\l+ operator=()\l+ operator=()\l+ get()\l}">
<polygon fill="none" stroke="black" points="139,-172.5 139,-317.5 267,-317.5 267,-172.5 139,-172.5"/>
<text text-anchor="start" x="147" y="-305.5" font-family="Helvetica,sans-Serif" font-size="10.00">WorldParticles::Engine</text>
<text text-anchor="start" x="147" y="-294.5" font-family="Helvetica,sans-Serif" font-size="10.00">::Library&lt; std::shared</text>
<text text-anchor="middle" x="203" y="-283.5" font-family="Helvetica,sans-Serif" font-size="10.00">_ptr&lt; ShaderProgram &gt; &gt;</text>
<polyline fill="none" stroke="black" points="139,-276.5 267,-276.5 "/>
<text text-anchor="start" x="147" y="-264.5" font-family="Helvetica,sans-Serif" font-size="10.00"># resources</text>
<polyline fill="none" stroke="black" points="139,-257.5 267,-257.5 "/>
<text text-anchor="start" x="147" y="-245.5" font-family="Helvetica,sans-Serif" font-size="10.00">+ Library()</text>
<text text-anchor="start" x="147" y="-234.5" font-family="Helvetica,sans-Serif" font-size="10.00">+ Library()</text>
<text text-anchor="start" x="147" y="-223.5" font-family="Helvetica,sans-Serif" font-size="10.00">+ Library()</text>
<text text-anchor="start" x="147" y="-212.5" font-family="Helvetica,sans-Serif" font-size="10.00">+ ~Library()</text>
<text text-anchor="start" x="147" y="-201.5" font-family="Helvetica,sans-Serif" font-size="10.00">+ operator=()</text>
<text text-anchor="start" x="147" y="-190.5" font-family="Helvetica,sans-Serif" font-size="10.00">+ operator=()</text>
<text text-anchor="start" x="147" y="-179.5" font-family="Helvetica,sans-Serif" font-size="10.00">+ get()</text>
</a>
</g>
</g>
<!-- Node1&#45;&gt;Node4 -->
<g id="edge3" class="edge"><title>Node1&#45;&gt;Node4</title>
<path fill="none" stroke="orange" d="M342.268,-404.696C321.732,-391.387 299.853,-375.373 282,-358 269.637,-345.969 257.94,-331.769 247.524,-317.594"/>
<polygon fill="orange" stroke="orange" points="340.655,-407.818 350.972,-410.23 344.411,-401.911 340.655,-407.818"/>
<text text-anchor="start" x="282" y="-350" font-family="Helvetica,sans-Serif" font-size="10.00"> &lt; std::shared_ptr&lt;</text>
<text text-anchor="middle" x="326.5" y="-339" font-family="Helvetica,sans-Serif" font-size="10.00"> ShaderProgram &gt; &gt;</text>
</g>
<!-- Node6 -->
<g id="node6" class="node"><title>Node6</title>
<g id="a_node6"><a xlink:href="../../d6/da4/classWorldParticles_1_1Engine_1_1Library.html" target="_top" xlink:title="{WorldParticles::Engine\l::Library\&lt; Texture * \&gt;\n|# resources\l|+ Library()\l+ Library()\l+ Library()\l+ ~Library()\l+ operator=()\l+ operator=()\l+ get()\l}">
<polygon fill="none" stroke="black" points="285,-178 285,-312 401,-312 401,-178 285,-178"/>
<text text-anchor="start" x="293" y="-300" font-family="Helvetica,sans-Serif" font-size="10.00">WorldParticles::Engine</text>
<text text-anchor="middle" x="343" y="-289" font-family="Helvetica,sans-Serif" font-size="10.00">::Library&lt; Texture * &gt;</text>
<polyline fill="none" stroke="black" points="285,-282 401,-282 "/>
<text text-anchor="start" x="293" y="-270" font-family="Helvetica,sans-Serif" font-size="10.00"># resources</text>
<polyline fill="none" stroke="black" points="285,-263 401,-263 "/>
<text text-anchor="start" x="293" y="-251" font-family="Helvetica,sans-Serif" font-size="10.00">+ Library()</text>
<text text-anchor="start" x="293" y="-240" font-family="Helvetica,sans-Serif" font-size="10.00">+ Library()</text>
<text text-anchor="start" x="293" y="-229" font-family="Helvetica,sans-Serif" font-size="10.00">+ Library()</text>
<text text-anchor="start" x="293" y="-218" font-family="Helvetica,sans-Serif" font-size="10.00">+ ~Library()</text>
<text text-anchor="start" x="293" y="-207" font-family="Helvetica,sans-Serif" font-size="10.00">+ operator=()</text>
<text text-anchor="start" x="293" y="-196" font-family="Helvetica,sans-Serif" font-size="10.00">+ operator=()</text>
<text text-anchor="start" x="293" y="-185" font-family="Helvetica,sans-Serif" font-size="10.00">+ get()</text>
</a>
</g>
</g>
<!-- Node1&#45;&gt;Node6 -->
<g id="edge5" class="edge"><title>Node1&#45;&gt;Node6</title>
<path fill="none" stroke="orange" d="M383.456,-366.448C377.457,-348.587 371.111,-329.693 365.268,-312.299"/>
<polygon fill="orange" stroke="orange" points="380.246,-367.883 386.747,-376.248 386.881,-365.654 380.246,-367.883"/>
<text text-anchor="middle" x="410.5" y="-344.5" font-family="Helvetica,sans-Serif" font-size="10.00"> &lt; Texture * &gt;</text>
</g>
<!-- Node8 -->
<g id="node8" class="node"><title>Node8</title>
<g id="a_node8"><a xlink:href="../../d6/da4/classWorldParticles_1_1Engine_1_1Library.html" target="_top" xlink:title="{WorldParticles::Engine\l::Library\&lt; std::shared\l_ptr\&lt; Shader \&gt; \&gt;\n|# resources\l|+ Library()\l+ Library()\l+ Library()\l+ ~Library()\l+ operator=()\l+ operator=()\l+ get()\l}">
<polygon fill="none" stroke="black" points="419,-172.5 419,-317.5 535,-317.5 535,-172.5 419,-172.5"/>
<text text-anchor="start" x="427" y="-305.5" font-family="Helvetica,sans-Serif" font-size="10.00">WorldParticles::Engine</text>
<text text-anchor="start" x="427" y="-294.5" font-family="Helvetica,sans-Serif" font-size="10.00">::Library&lt; std::shared</text>
<text text-anchor="middle" x="477" y="-283.5" font-family="Helvetica,sans-Serif" font-size="10.00">_ptr&lt; Shader &gt; &gt;</text>
<polyline fill="none" stroke="black" points="419,-276.5 535,-276.5 "/>
<text text-anchor="start" x="427" y="-264.5" font-family="Helvetica,sans-Serif" font-size="10.00"># resources</text>
<polyline fill="none" stroke="black" points="419,-257.5 535,-257.5 "/>
<text text-anchor="start" x="427" y="-245.5" font-family="Helvetica,sans-Serif" font-size="10.00">+ Library()</text>
<text text-anchor="start" x="427" y="-234.5" font-family="Helvetica,sans-Serif" font-size="10.00">+ Library()</text>
<text text-anchor="start" x="427" y="-223.5" font-family="Helvetica,sans-Serif" font-size="10.00">+ Library()</text>
<text text-anchor="start" x="427" y="-212.5" font-family="Helvetica,sans-Serif" font-size="10.00">+ ~Library()</text>
<text text-anchor="start" x="427" y="-201.5" font-family="Helvetica,sans-Serif" font-size="10.00">+ operator=()</text>
<text text-anchor="start" x="427" y="-190.5" font-family="Helvetica,sans-Serif" font-size="10.00">+ operator=()</text>
<text text-anchor="start" x="427" y="-179.5" font-family="Helvetica,sans-Serif" font-size="10.00">+ get()</text>
</a>
</g>
</g>
<!-- Node1&#45;&gt;Node8 -->
<g id="edge7" class="edge"><title>Node1&#45;&gt;Node8</title>
<path fill="none" stroke="orange" d="M438.871,-366.758C439.943,-363.807 440.989,-360.879 442,-358 446.555,-345.025 451.141,-331.106 455.425,-317.643"/>
<polygon fill="orange" stroke="orange" points="435.551,-365.646 435.378,-376.239 442.119,-368.066 435.551,-365.646"/>
<text text-anchor="start" x="450" y="-350" font-family="Helvetica,sans-Serif" font-size="10.00"> &lt; std::shared_ptr&lt;</text>
<text text-anchor="middle" x="492" y="-339" font-family="Helvetica,sans-Serif" font-size="10.00"> Shader &gt; &gt;</text>
</g>
<!-- Node10 -->
<g id="node10" class="node"><title>Node10</title>
<g id="a_node10"><a xlink:href="../../d6/da4/classWorldParticles_1_1Engine_1_1Library.html" target="_top" xlink:title="{WorldParticles::Engine\l::Library\&lt; Animation * \&gt;\n|# resources\l|+ Library()\l+ Library()\l+ Library()\l+ ~Library()\l+ operator=()\l+ operator=()\l+ get()\l}">
<polygon fill="none" stroke="black" points="553,-178 553,-312 673,-312 673,-178 553,-178"/>
<text text-anchor="start" x="561" y="-300" font-family="Helvetica,sans-Serif" font-size="10.00">WorldParticles::Engine</text>
<text text-anchor="middle" x="613" y="-289" font-family="Helvetica,sans-Serif" font-size="10.00">::Library&lt; Animation * &gt;</text>
<polyline fill="none" stroke="black" points="553,-282 673,-282 "/>
<text text-anchor="start" x="561" y="-270" font-family="Helvetica,sans-Serif" font-size="10.00"># resources</text>
<polyline fill="none" stroke="black" points="553,-263 673,-263 "/>
<text text-anchor="start" x="561" y="-251" font-family="Helvetica,sans-Serif" font-size="10.00">+ Library()</text>
<text text-anchor="start" x="561" y="-240" font-family="Helvetica,sans-Serif" font-size="10.00">+ Library()</text>
<text text-anchor="start" x="561" y="-229" font-family="Helvetica,sans-Serif" font-size="10.00">+ Library()</text>
<text text-anchor="start" x="561" y="-218" font-family="Helvetica,sans-Serif" font-size="10.00">+ ~Library()</text>
<text text-anchor="start" x="561" y="-207" font-family="Helvetica,sans-Serif" font-size="10.00">+ operator=()</text>
<text text-anchor="start" x="561" y="-196" font-family="Helvetica,sans-Serif" font-size="10.00">+ operator=()</text>
<text text-anchor="start" x="561" y="-185" font-family="Helvetica,sans-Serif" font-size="10.00">+ get()</text>
</a>
</g>
</g>
<!-- Node1&#45;&gt;Node10 -->
<g id="edge9" class="edge"><title>Node1&#45;&gt;Node10</title>
<path fill="none" stroke="orange" d="M475.91,-405.842C497.121,-392.417 519.772,-376.044 538,-358 551.638,-344.5 564.233,-328.158 575.056,-312.178"/>
<polygon fill="orange" stroke="orange" points="473.894,-402.974 467.241,-411.22 477.583,-408.923 473.894,-402.974"/>
<text text-anchor="middle" x="594" y="-344.5" font-family="Helvetica,sans-Serif" font-size="10.00"> &lt; Animation * &gt;</text>
</g>
<!-- Node12 -->
<g id="node12" class="node"><title>Node12</title>
<g id="a_node12"><a xlink:href="../../d6/da4/classWorldParticles_1_1Engine_1_1Library.html" target="_top" xlink:title="{WorldParticles::Engine\l::Library\&lt; Material * \&gt;\n|# resources\l|+ Library()\l+ Library()\l+ Library()\l+ ~Library()\l+ operator=()\l+ operator=()\l+ get()\l}">
<polygon fill="none" stroke="black" points="691,-178 691,-312 807,-312 807,-178 691,-178"/>
<text text-anchor="start" x="699" y="-300" font-family="Helvetica,sans-Serif" font-size="10.00">WorldParticles::Engine</text>
<text text-anchor="middle" x="749" y="-289" font-family="Helvetica,sans-Serif" font-size="10.00">::Library&lt; Material * &gt;</text>
<polyline fill="none" stroke="black" points="691,-282 807,-282 "/>
<text text-anchor="start" x="699" y="-270" font-family="Helvetica,sans-Serif" font-size="10.00"># resources</text>
<polyline fill="none" stroke="black" points="691,-263 807,-263 "/>
<text text-anchor="start" x="699" y="-251" font-family="Helvetica,sans-Serif" font-size="10.00">+ Library()</text>
<text text-anchor="start" x="699" y="-240" font-family="Helvetica,sans-Serif" font-size="10.00">+ Library()</text>
<text text-anchor="start" x="699" y="-229" font-family="Helvetica,sans-Serif" font-size="10.00">+ Library()</text>
<text text-anchor="start" x="699" y="-218" font-family="Helvetica,sans-Serif" font-size="10.00">+ ~Library()</text>
<text text-anchor="start" x="699" y="-207" font-family="Helvetica,sans-Serif" font-size="10.00">+ operator=()</text>
<text text-anchor="start" x="699" y="-196" font-family="Helvetica,sans-Serif" font-size="10.00">+ operator=()</text>
<text text-anchor="start" x="699" y="-185" font-family="Helvetica,sans-Serif" font-size="10.00">+ get()</text>
</a>
</g>
</g>
<!-- Node1&#45;&gt;Node12 -->
<g id="edge11" class="edge"><title>Node1&#45;&gt;Node12</title>
<path fill="none" stroke="orange" d="M476.916,-423.558C522.999,-409.157 584.337,-386.899 634,-358 658.002,-344.033 661.834,-337.092 682,-318 684.976,-315.183 687.983,-312.261 690.988,-309.279"/>
<polygon fill="orange" stroke="orange" points="475.852,-420.223 467.324,-426.511 477.911,-426.914 475.852,-420.223"/>
<text text-anchor="middle" x="694.5" y="-344.5" font-family="Helvetica,sans-Serif" font-size="10.00"> &lt; Material * &gt;</text>
</g>
<!-- Node3 -->
<g id="node3" class="node"><title>Node3</title>
<g id="a_node3"><a xlink:href="../../da/d27/classWorldParticles_1_1Engine_1_1MeshLibrary.html" target="_top" xlink:title="This class is used as a container for the mesh used in the scene. ">
<polygon fill="none" stroke="black" points="0,-0.5 0,-134.5 116,-134.5 116,-0.5 0,-0.5"/>
<text text-anchor="start" x="8" y="-122.5" font-family="Helvetica,sans-Serif" font-size="10.00">WorldParticles::Engine</text>
<text text-anchor="middle" x="58" y="-111.5" font-family="Helvetica,sans-Serif" font-size="10.00">::MeshLibrary</text>
<polyline fill="none" stroke="black" points="0,-104.5 116,-104.5 "/>
<text text-anchor="middle" x="58" y="-92.5" font-family="Helvetica,sans-Serif" font-size="10.00"> </text>
<polyline fill="none" stroke="black" points="0,-85.5 116,-85.5 "/>
<text text-anchor="start" x="8" y="-73.5" font-family="Helvetica,sans-Serif" font-size="10.00">+ MeshLibrary()</text>
<text text-anchor="start" x="8" y="-62.5" font-family="Helvetica,sans-Serif" font-size="10.00">+ MeshLibrary()</text>
<text text-anchor="start" x="8" y="-51.5" font-family="Helvetica,sans-Serif" font-size="10.00">+ MeshLibrary()</text>
<text text-anchor="start" x="8" y="-40.5" font-family="Helvetica,sans-Serif" font-size="10.00">+ MeshLibrary()</text>
<text text-anchor="start" x="8" y="-29.5" font-family="Helvetica,sans-Serif" font-size="10.00">+ ~MeshLibrary()</text>
<text text-anchor="start" x="8" y="-18.5" font-family="Helvetica,sans-Serif" font-size="10.00">+ operator=()</text>
<text text-anchor="start" x="8" y="-7.5" font-family="Helvetica,sans-Serif" font-size="10.00">+ operator=()</text>
</a>
</g>
</g>
<!-- Node2&#45;&gt;Node3 -->
<g id="edge2" class="edge"><title>Node2&#45;&gt;Node3</title>
<path fill="none" stroke="midnightblue" d="M59.6948,-167.646C59.5069,-156.655 59.3149,-145.422 59.1308,-134.652"/>
<polygon fill="none" stroke="midnightblue" points="56.1953,-167.712 59.8658,-177.651 63.1943,-167.593 56.1953,-167.712"/>
</g>
<!-- Node5 -->
<g id="node5" class="node"><title>Node5</title>
<g id="a_node5"><a xlink:href="../../db/d20/classWorldParticles_1_1Engine_1_1ShaderProgramLibrary.html" target="_top" xlink:title="This class is used to store / create and retrieve every shader program used in the engine...">
<polygon fill="none" stroke="black" points="134,-6 134,-129 268,-129 268,-6 134,-6"/>
<text text-anchor="start" x="142" y="-117" font-family="Helvetica,sans-Serif" font-size="10.00">WorldParticles::Engine</text>
<text text-anchor="middle" x="201" y="-106" font-family="Helvetica,sans-Serif" font-size="10.00">::ShaderProgramLibrary</text>
<polyline fill="none" stroke="black" points="134,-99 268,-99 "/>
<text text-anchor="middle" x="201" y="-87" font-family="Helvetica,sans-Serif" font-size="10.00"> </text>
<polyline fill="none" stroke="black" points="134,-80 268,-80 "/>
<text text-anchor="start" x="142" y="-68" font-family="Helvetica,sans-Serif" font-size="10.00">+ ShaderProgramLibrary()</text>
<text text-anchor="start" x="142" y="-57" font-family="Helvetica,sans-Serif" font-size="10.00">+ ShaderProgramLibrary()</text>
<text text-anchor="start" x="142" y="-46" font-family="Helvetica,sans-Serif" font-size="10.00">+ ShaderProgramLibrary()</text>
<text text-anchor="start" x="142" y="-35" font-family="Helvetica,sans-Serif" font-size="10.00">+ ~ShaderProgramLibrary()</text>
<text text-anchor="start" x="142" y="-24" font-family="Helvetica,sans-Serif" font-size="10.00">+ operator=()</text>
<text text-anchor="start" x="142" y="-13" font-family="Helvetica,sans-Serif" font-size="10.00">+ operator=()</text>
</a>
</g>
</g>
<!-- Node4&#45;&gt;Node5 -->
<g id="edge4" class="edge"><title>Node4&#45;&gt;Node5</title>
<path fill="none" stroke="midnightblue" d="M202.068,-162.224C201.942,-151.121 201.814,-139.89 201.692,-129.246"/>
<polygon fill="none" stroke="midnightblue" points="198.57,-162.405 202.184,-172.364 205.569,-162.325 198.57,-162.405"/>
</g>
<!-- Node7 -->
<g id="node7" class="node"><title>Node7</title>
<g id="a_node7"><a xlink:href="../../d2/d31/classWorldParticles_1_1Engine_1_1TextureLibrary.html" target="_top" xlink:title="{WorldParticles::Engine\l::TextureLibrary\n||+ TextureLibrary()\l+ TextureLibrary()\l+ TextureLibrary()\l+ TextureLibrary()\l+ ~TextureLibrary()\l+ operator=()\l+ operator=()\l}">
<polygon fill="none" stroke="black" points="286,-0.5 286,-134.5 402,-134.5 402,-0.5 286,-0.5"/>
<text text-anchor="start" x="294" y="-122.5" font-family="Helvetica,sans-Serif" font-size="10.00">WorldParticles::Engine</text>
<text text-anchor="middle" x="344" y="-111.5" font-family="Helvetica,sans-Serif" font-size="10.00">::TextureLibrary</text>
<polyline fill="none" stroke="black" points="286,-104.5 402,-104.5 "/>
<text text-anchor="middle" x="344" y="-92.5" font-family="Helvetica,sans-Serif" font-size="10.00"> </text>
<polyline fill="none" stroke="black" points="286,-85.5 402,-85.5 "/>
<text text-anchor="start" x="294" y="-73.5" font-family="Helvetica,sans-Serif" font-size="10.00">+ TextureLibrary()</text>
<text text-anchor="start" x="294" y="-62.5" font-family="Helvetica,sans-Serif" font-size="10.00">+ TextureLibrary()</text>
<text text-anchor="start" x="294" y="-51.5" font-family="Helvetica,sans-Serif" font-size="10.00">+ TextureLibrary()</text>
<text text-anchor="start" x="294" y="-40.5" font-family="Helvetica,sans-Serif" font-size="10.00">+ TextureLibrary()</text>
<text text-anchor="start" x="294" y="-29.5" font-family="Helvetica,sans-Serif" font-size="10.00">+ ~TextureLibrary()</text>
<text text-anchor="start" x="294" y="-18.5" font-family="Helvetica,sans-Serif" font-size="10.00">+ operator=()</text>
<text text-anchor="start" x="294" y="-7.5" font-family="Helvetica,sans-Serif" font-size="10.00">+ operator=()</text>
</a>
</g>
</g>
<!-- Node6&#45;&gt;Node7 -->
<g id="edge6" class="edge"><title>Node6&#45;&gt;Node7</title>
<path fill="none" stroke="midnightblue" d="M343.435,-167.646C343.498,-156.655 343.562,-145.422 343.623,-134.652"/>
<polygon fill="none" stroke="midnightblue" points="339.935,-167.631 343.378,-177.651 346.935,-167.671 339.935,-167.631"/>
</g>
<!-- Node9 -->
<g id="node9" class="node"><title>Node9</title>
<g id="a_node9"><a xlink:href="../../d7/d87/classWorldParticles_1_1Engine_1_1ShaderLibrary.html" target="_top" xlink:title="This class is used to store / create and retrieve every shader used in the engine. ">
<polygon fill="none" stroke="black" points="420,-6 420,-129 536,-129 536,-6 420,-6"/>
<text text-anchor="start" x="428" y="-117" font-family="Helvetica,sans-Serif" font-size="10.00">WorldParticles::Engine</text>
<text text-anchor="middle" x="478" y="-106" font-family="Helvetica,sans-Serif" font-size="10.00">::ShaderLibrary</text>
<polyline fill="none" stroke="black" points="420,-99 536,-99 "/>
<text text-anchor="middle" x="478" y="-87" font-family="Helvetica,sans-Serif" font-size="10.00"> </text>
<polyline fill="none" stroke="black" points="420,-80 536,-80 "/>
<text text-anchor="start" x="428" y="-68" font-family="Helvetica,sans-Serif" font-size="10.00">+ ShaderLibrary()</text>
<text text-anchor="start" x="428" y="-57" font-family="Helvetica,sans-Serif" font-size="10.00">+ ShaderLibrary()</text>
<text text-anchor="start" x="428" y="-46" font-family="Helvetica,sans-Serif" font-size="10.00">+ ShaderLibrary()</text>
<text text-anchor="start" x="428" y="-35" font-family="Helvetica,sans-Serif" font-size="10.00">+ ~ShaderLibrary()</text>
<text text-anchor="start" x="428" y="-24" font-family="Helvetica,sans-Serif" font-size="10.00">+ operator=()</text>
<text text-anchor="start" x="428" y="-13" font-family="Helvetica,sans-Serif" font-size="10.00">+ operator=()</text>
</a>
</g>
</g>
<!-- Node8&#45;&gt;Node9 -->
<g id="edge8" class="edge"><title>Node8&#45;&gt;Node9</title>
<path fill="none" stroke="midnightblue" d="M477.466,-162.224C477.529,-151.121 477.593,-139.89 477.654,-129.246"/>
<polygon fill="none" stroke="midnightblue" points="473.965,-162.344 477.408,-172.364 480.965,-162.384 473.965,-162.344"/>
</g>
<!-- Node11 -->
<g id="node11" class="node"><title>Node11</title>
<g id="a_node11"><a xlink:href="../../d3/d4e/classWorldParticles_1_1Engine_1_1AnimationLibrary.html" target="_top" xlink:title="{WorldParticles::Engine\l::AnimationLibrary\n||+ AnimationLibrary()\l+ AnimationLibrary()\l+ AnimationLibrary()\l+ AnimationLibrary()\l+ ~AnimationLibrary()\l+ operator=()\l+ operator=()\l}">
<polygon fill="none" stroke="black" points="555,-0.5 555,-134.5 671,-134.5 671,-0.5 555,-0.5"/>
<text text-anchor="start" x="563" y="-122.5" font-family="Helvetica,sans-Serif" font-size="10.00">WorldParticles::Engine</text>
<text text-anchor="middle" x="613" y="-111.5" font-family="Helvetica,sans-Serif" font-size="10.00">::AnimationLibrary</text>
<polyline fill="none" stroke="black" points="555,-104.5 671,-104.5 "/>
<text text-anchor="middle" x="613" y="-92.5" font-family="Helvetica,sans-Serif" font-size="10.00"> </text>
<polyline fill="none" stroke="black" points="555,-85.5 671,-85.5 "/>
<text text-anchor="start" x="563" y="-73.5" font-family="Helvetica,sans-Serif" font-size="10.00">+ AnimationLibrary()</text>
<text text-anchor="start" x="563" y="-62.5" font-family="Helvetica,sans-Serif" font-size="10.00">+ AnimationLibrary()</text>
<text text-anchor="start" x="563" y="-51.5" font-family="Helvetica,sans-Serif" font-size="10.00">+ AnimationLibrary()</text>
<text text-anchor="start" x="563" y="-40.5" font-family="Helvetica,sans-Serif" font-size="10.00">+ AnimationLibrary()</text>
<text text-anchor="start" x="563" y="-29.5" font-family="Helvetica,sans-Serif" font-size="10.00">+ ~AnimationLibrary()</text>
<text text-anchor="start" x="563" y="-18.5" font-family="Helvetica,sans-Serif" font-size="10.00">+ operator=()</text>
<text text-anchor="start" x="563" y="-7.5" font-family="Helvetica,sans-Serif" font-size="10.00">+ operator=()</text>
</a>
</g>
</g>
<!-- Node10&#45;&gt;Node11 -->
<g id="edge10" class="edge"><title>Node10&#45;&gt;Node11</title>
<path fill="none" stroke="midnightblue" d="M613,-167.646C613,-156.655 613,-145.422 613,-134.652"/>
<polygon fill="none" stroke="midnightblue" points="609.5,-167.651 613,-177.651 616.5,-167.651 609.5,-167.651"/>
</g>
<!-- Node13 -->
<g id="node13" class="node"><title>Node13</title>
<g id="a_node13"><a xlink:href="../../d3/d10/classWorldParticles_1_1Engine_1_1MaterialLibrary.html" target="_top" xlink:title="This material library wrap the Library&lt;Material&gt; and provide a constructor from assimp materials...">
<polygon fill="none" stroke="black" points="691,-0.5 691,-134.5 807,-134.5 807,-0.5 691,-0.5"/>
<text text-anchor="start" x="699" y="-122.5" font-family="Helvetica,sans-Serif" font-size="10.00">WorldParticles::Engine</text>
<text text-anchor="middle" x="749" y="-111.5" font-family="Helvetica,sans-Serif" font-size="10.00">::MaterialLibrary</text>
<polyline fill="none" stroke="black" points="691,-104.5 807,-104.5 "/>
<text text-anchor="middle" x="749" y="-92.5" font-family="Helvetica,sans-Serif" font-size="10.00"> </text>
<polyline fill="none" stroke="black" points="691,-85.5 807,-85.5 "/>
<text text-anchor="start" x="699" y="-73.5" font-family="Helvetica,sans-Serif" font-size="10.00">+ MaterialLibrary()</text>
<text text-anchor="start" x="699" y="-62.5" font-family="Helvetica,sans-Serif" font-size="10.00">+ MaterialLibrary()</text>
<text text-anchor="start" x="699" y="-51.5" font-family="Helvetica,sans-Serif" font-size="10.00">+ MaterialLibrary()</text>
<text text-anchor="start" x="699" y="-40.5" font-family="Helvetica,sans-Serif" font-size="10.00">+ MaterialLibrary()</text>
<text text-anchor="start" x="699" y="-29.5" font-family="Helvetica,sans-Serif" font-size="10.00">+ ~MaterialLibrary()</text>
<text text-anchor="start" x="699" y="-18.5" font-family="Helvetica,sans-Serif" font-size="10.00">+ operator=()</text>
<text text-anchor="start" x="699" y="-7.5" font-family="Helvetica,sans-Serif" font-size="10.00">+ operator=()</text>
</a>
</g>
</g>
<!-- Node12&#45;&gt;Node13 -->
<g id="edge12" class="edge"><title>Node12&#45;&gt;Node13</title>
<path fill="none" stroke="midnightblue" d="M749,-167.646C749,-156.655 749,-145.422 749,-134.652"/>
<polygon fill="none" stroke="midnightblue" points="745.5,-167.651 749,-177.651 752.5,-167.651 745.5,-167.651"/>
</g>
</g>
</svg>
        <g id="navigator" transform="translate(0 0)" fill="#404254">
                <rect fill="#f2f5e9" fill-opacity="0.5" stroke="#606060" stroke-width=".5" x="0" y="0" width="60" height="60"/>
                <use id="zoomplus" xlink:href="#zoomPlus" x="17" y="9" onmousedown="handleZoom(evt,'in')"/>
                <use id="zoomminus" xlink:href="#zoomMin" x="42" y="9" onmousedown="handleZoom(evt,'out')"/>
                <use id="reset" xlink:href="#resetDef" x="30" y="36" onmousedown="handleReset()"/>
                <g id="arrowUp" xlink:href="#dirArrow" transform="translate(30 24)" onmousedown="handlePan(0,-1)">
                  <use xlink:href="#rim" fill="#404040">
                        <set attributeName="fill" to="#808080" begin="arrowUp.mouseover" end="arrowUp.mouseout"/>
                  </use>
                  <path fill="none" stroke="white" stroke-width="1.5" d="M0,-3.0v7 M-2.5,-0.5L0,-3.0L2.5,-0.5"/>
                </g>
                <g id="arrowRight" xlink:href="#dirArrow" transform="rotate(90) translate(36 -43)" onmousedown="handlePan(1,0)">
                  <use xlink:href="#rim" fill="#404040">
                        <set attributeName="fill" to="#808080" begin="arrowRight.mouseover" end="arrowRight.mouseout"/>
                  </use>
                  <path fill="none" stroke="white" stroke-width="1.5" d="M0,-3.0v7 M-2.5,-0.5L0,-3.0L2.5,-0.5"/>
                </g>
                <g id="arrowDown" xlink:href="#dirArrow" transform="rotate(180) translate(-30 -48)" onmousedown="handlePan(0,1)">
                  <use xlink:href="#rim" fill="#404040">
                        <set attributeName="fill" to="#808080" begin="arrowDown.mouseover" end="arrowDown.mouseout"/>
                  </use>
                  <path fill="none" stroke="white" stroke-width="1.5" d="M0,-3.0v7 M-2.5,-0.5L0,-3.0L2.5,-0.5"/>
                </g>
                <g id="arrowLeft" xlink:href="#dirArrow" transform="rotate(270) translate(-36 17)" onmousedown="handlePan(-1,0)">
                  <use xlink:href="#rim" fill="#404040">
                        <set attributeName="fill" to="#808080" begin="arrowLeft.mouseover" end="arrowLeft.mouseout"/>
                  </use>
                  <path fill="none" stroke="white" stroke-width="1.5" d="M0,-3.0v7 M-2.5,-0.5L0,-3.0L2.5,-0.5"/>
                </g>
        </g>
        <svg viewBox="0 0 15 15" width="100%" height="30px" preserveAspectRatio="xMaxYMin meet">
         <g id="arrow_out" transform="scale(0.3 0.3)">
          <a xlink:href="classWorldParticles_1_1Engine_1_1Library__inherit__graph_org.svg" target="_base">
           <rect id="button" ry="5" rx="5" y="6" x="6" height="38" width="38"
                fill="#f2f5e9" fill-opacity="0.5" stroke="#606060" stroke-width="1.0"/>
           <path id="arrow"
             d="M 11.500037,31.436501 C 11.940474,20.09759 22.043105,11.32322 32.158766,21.979434 L 37.068811,17.246167 C 37.068811,17.246167 37.088388,32 37.088388,32 L 22.160133,31.978069 C 22.160133,31.978069 26.997745,27.140456 26.997745,27.140456 C 18.528582,18.264221 13.291696,25.230495 11.500037,31.436501 z"
             style="fill:#404040;"/>
          </a>
         </g>
        </svg>
</svg>
