<?xml version="1.0" encoding="UTF-8" standalone="no"?>
<!DOCTYPE svg PUBLIC "-//W3C//DTD SVG 1.1//EN"
 "http://www.w3.org/Graphics/SVG/1.1/DTD/svg11.dtd">
<!-- Generated by graphviz version 2.38.0 (20140413.2041)
 -->
<!-- Title: engine/Shaders/Managers/ShaderManager/ShaderManager.hpp Pages: 1 -->
<svg width="314pt" height="151pt"
 viewBox="0.00 0.00 314.00 151.00" xmlns="http://www.w3.org/2000/svg" xmlns:xlink="http://www.w3.org/1999/xlink">
<g id="graph0" class="graph" transform="scale(1 1) rotate(0) translate(4 147)">
<title>engine/Shaders/Managers/ShaderManager/ShaderManager.hpp</title>
<!-- Node1 -->
<g id="node1" class="node"><title>Node1</title>
<polygon fill="#bfbfbf" stroke="black" points="33,-112.5 33,-142.5 211,-142.5 211,-112.5 33,-112.5"/>
<text text-anchor="start" x="41" y="-130.5" font-family="Helvetica,sans-Serif" font-size="10.00">engine/Shaders/Managers</text>
<text text-anchor="middle" x="122" y="-119.5" font-family="Helvetica,sans-Serif" font-size="10.00">/ShaderManager/ShaderManager.hpp</text>
</g>
<!-- Node2 -->
<g id="node2" class="node"><title>Node2</title>
<polygon fill="none" stroke="#bfbfbf" points="0,-56.5 0,-75.5 52,-75.5 52,-56.5 0,-56.5"/>
<text text-anchor="middle" x="26" y="-63.5" font-family="Helvetica,sans-Serif" font-size="10.00">memory</text>
</g>
<!-- Node1&#45;&gt;Node2 -->
<g id="edge1" class="edge"><title>Node1&#45;&gt;Node2</title>
<path fill="none" stroke="midnightblue" d="M99.2493,-112.399C84.0051,-102.951 64.0109,-90.5589 48.7639,-81.1089"/>
<polygon fill="midnightblue" stroke="midnightblue" points="50.3125,-77.951 39.9689,-75.6578 46.6248,-83.9009 50.3125,-77.951"/>
</g>
<!-- Node3 -->
<g id="node3" class="node"><title>Node3</title>
<polygon fill="none" stroke="#bfbfbf" points="70.5,-56.5 70.5,-75.5 105.5,-75.5 105.5,-56.5 70.5,-56.5"/>
<text text-anchor="middle" x="88" y="-63.5" font-family="Helvetica,sans-Serif" font-size="10.00">map</text>
</g>
<!-- Node1&#45;&gt;Node3 -->
<g id="edge2" class="edge"><title>Node1&#45;&gt;Node3</title>
<path fill="none" stroke="midnightblue" d="M113.942,-112.399C109.155,-104.021 103.044,-93.3269 97.9559,-84.4229"/>
<polygon fill="midnightblue" stroke="midnightblue" points="100.948,-82.6037 92.9473,-75.6578 94.8699,-86.0767 100.948,-82.6037"/>
</g>
<!-- Node4 -->
<g id="node4" class="node"><title>Node4</title>
<g id="a_node4"><a xlink:href="../../d4/d6e/Shader_8hpp.html" target="_top" xlink:title="Shader.hpp">
<polygon fill="none" stroke="black" points="124,-56.5 124,-75.5 190,-75.5 190,-56.5 124,-56.5"/>
<text text-anchor="middle" x="157" y="-63.5" font-family="Helvetica,sans-Serif" font-size="10.00">Shader.hpp</text>
</a>
</g>
</g>
<!-- Node1&#45;&gt;Node4 -->
<g id="edge3" class="edge"><title>Node1&#45;&gt;Node4</title>
<path fill="none" stroke="midnightblue" d="M130.295,-112.399C135.223,-104.021 141.514,-93.3269 146.751,-84.4229"/>
<polygon fill="midnightblue" stroke="midnightblue" points="149.854,-86.0517 151.907,-75.6578 143.82,-82.5025 149.854,-86.0517"/>
</g>
<!-- Node6 -->
<g id="node6" class="node"><title>Node6</title>
<g id="a_node6"><a xlink:href="../../d2/dba/ShaderNames_8hpp.html" target="_top" xlink:title="ShaderNames.hpp">
<polygon fill="none" stroke="black" points="208,-56.5 208,-75.5 306,-75.5 306,-56.5 208,-56.5"/>
<text text-anchor="middle" x="257" y="-63.5" font-family="Helvetica,sans-Serif" font-size="10.00">ShaderNames.hpp</text>
</a>
</g>
</g>
<!-- Node1&#45;&gt;Node6 -->
<g id="edge5" class="edge"><title>Node1&#45;&gt;Node6</title>
<path fill="none" stroke="midnightblue" d="M153.993,-112.399C176.442,-102.505 206.215,-89.3832 227.976,-79.7919"/>
<polygon fill="midnightblue" stroke="midnightblue" points="229.617,-82.8936 237.356,-75.6578 226.794,-76.4882 229.617,-82.8936"/>
</g>
<!-- Node5 -->
<g id="node5" class="node"><title>Node5</title>
<polygon fill="none" stroke="#bfbfbf" points="136.5,-0.5 136.5,-19.5 177.5,-19.5 177.5,-0.5 136.5,-0.5"/>
<text text-anchor="middle" x="157" y="-7.5" font-family="Helvetica,sans-Serif" font-size="10.00">string</text>
</g>
<!-- Node4&#45;&gt;Node5 -->
<g id="edge4" class="edge"><title>Node4&#45;&gt;Node5</title>
<path fill="none" stroke="midnightblue" d="M157,-56.083C157,-49.0059 157,-38.8611 157,-29.9865"/>
<polygon fill="midnightblue" stroke="midnightblue" points="160.5,-29.751 157,-19.7511 153.5,-29.7511 160.5,-29.751"/>
</g>
</g>
</svg>
