<?xml version="1.0" encoding="UTF-8" standalone="no"?>
<!DOCTYPE svg PUBLIC "-//W3C//DTD SVG 1.1//EN"
 "http://www.w3.org/Graphics/SVG/1.1/DTD/svg11.dtd">
<!-- Generated by graphviz version 2.38.0 (20140413.2041)
 -->
<!-- Title: WorldParticles::Engine::GameObject Pages: 1 -->
<!--zoomable 562 -->
<svg id="main" version="1.1" xmlns="http://www.w3.org/2000/svg" xmlns:xlink="http://www.w3.org/1999/xlink" xml:space="preserve" onload="init(evt)">
<style type="text/css"><![CDATA[
.edge:hover path { stroke: red; }
.edge:hover polygon { stroke: red; fill: red; }
]]></style>
<script type="text/javascript"><![CDATA[
var edges = document.getElementsByTagName('g');
if (edges && edges.length) {
  for (var i=0;i<edges.length;i++) {
    if (edges[i].id.substr(0,4)=='edge') {
      edges[i].setAttribute('class','edge');
    }
  }
}
]]></script>
        <defs>
                <circle id="rim" cx="0" cy="0" r="7"/>
                <circle id="rim2" cx="0" cy="0" r="3.5"/>
                <g id="zoomPlus">
                        <use xlink:href="#rim" fill="#404040">
                                <set attributeName="fill" to="#808080" begin="zoomplus.mouseover" end="zoomplus.mouseout"/>
                        </use>
                        <path d="M-4,0h8M0,-4v8" fill="none" stroke="white" stroke-width="1.5" pointer-events="none"/>
                </g>
                <g id="zoomMin">
                        <use xlink:href="#rim" fill="#404040">
                                <set attributeName="fill" to="#808080" begin="zoomminus.mouseover" end="zoomminus.mouseout"/>
                        </use>
                        <path d="M-4,0h8" fill="none" stroke="white" stroke-width="1.5" pointer-events="none"/>
                </g>
                <g id="dirArrow">
                        <path fill="none" stroke="white" stroke-width="1.5" d="M0,-3.0v7 M-2.5,-0.5L0,-3.0L2.5,-0.5"/>
                </g>
               <g id="resetDef">
                       <use xlink:href="#rim2" fill="#404040">
                               <set attributeName="fill" to="#808080" begin="reset.mouseover" end="reset.mouseout"/>
                       </use>
               </g>
        </defs>

<script type="text/javascript">
var viewWidth = 718;
var viewHeight = 562;
var sectionId = 'dynsection-1';
</script>
<script xlink:href="../../svgpan.js"/>
<svg id="graph" class="graph">
<g id="viewport">
<title>WorldParticles::Engine::GameObject</title>
<!-- Node1 -->
<g id="node1" class="node"><title>Node1</title>
<polygon fill="#bfbfbf" stroke="black" points="306.5,-0.5 306.5,-222.5 422.5,-222.5 422.5,-0.5 306.5,-0.5"/>
<text text-anchor="start" x="314.5" y="-210.5" font-family="Helvetica,sans-Serif" font-size="10.00">WorldParticles::Engine</text>
<text text-anchor="middle" x="364.5" y="-199.5" font-family="Helvetica,sans-Serif" font-size="10.00">::GameObject</text>
<polyline fill="none" stroke="black" points="306.5,-192.5 422.5,-192.5 "/>
<text text-anchor="middle" x="364.5" y="-180.5" font-family="Helvetica,sans-Serif" font-size="10.00"> </text>
<polyline fill="none" stroke="black" points="306.5,-173.5 422.5,-173.5 "/>
<text text-anchor="start" x="314.5" y="-161.5" font-family="Helvetica,sans-Serif" font-size="10.00">+ GameObject()</text>
<text text-anchor="start" x="314.5" y="-150.5" font-family="Helvetica,sans-Serif" font-size="10.00">+ ~GameObject()</text>
<text text-anchor="start" x="314.5" y="-139.5" font-family="Helvetica,sans-Serif" font-size="10.00">+ initialise()</text>
<text text-anchor="start" x="314.5" y="-128.5" font-family="Helvetica,sans-Serif" font-size="10.00">+ draw()</text>
<text text-anchor="start" x="314.5" y="-117.5" font-family="Helvetica,sans-Serif" font-size="10.00">+ update()</text>
<text text-anchor="start" x="314.5" y="-106.5" font-family="Helvetica,sans-Serif" font-size="10.00">+ getTransform()</text>
<text text-anchor="start" x="314.5" y="-95.5" font-family="Helvetica,sans-Serif" font-size="10.00">+ getRenderer()</text>
<text text-anchor="start" x="314.5" y="-84.5" font-family="Helvetica,sans-Serif" font-size="10.00">+ getMaterial()</text>
<text text-anchor="start" x="314.5" y="-73.5" font-family="Helvetica,sans-Serif" font-size="10.00">+ getMesh()</text>
<text text-anchor="start" x="314.5" y="-62.5" font-family="Helvetica,sans-Serif" font-size="10.00">+ getShaderProgram()</text>
<text text-anchor="start" x="314.5" y="-51.5" font-family="Helvetica,sans-Serif" font-size="10.00">+ setTransform()</text>
<text text-anchor="start" x="314.5" y="-40.5" font-family="Helvetica,sans-Serif" font-size="10.00">+ setRenderer()</text>
<text text-anchor="start" x="314.5" y="-29.5" font-family="Helvetica,sans-Serif" font-size="10.00">+ setMaterial()</text>
<text text-anchor="start" x="314.5" y="-18.5" font-family="Helvetica,sans-Serif" font-size="10.00">+ setMesh()</text>
<text text-anchor="start" x="314.5" y="-7.5" font-family="Helvetica,sans-Serif" font-size="10.00">+ setShaderProgram()</text>
</g>
<!-- Node2 -->
<g id="node2" class="node"><title>Node2</title>
<polygon fill="none" stroke="#bfbfbf" points="0,-314.5 0,-382.5 135,-382.5 135,-314.5 0,-314.5"/>
<text text-anchor="start" x="8" y="-370.5" font-family="Helvetica,sans-Serif" font-size="10.00">shared_ptr&lt; WorldParticles</text>
<text text-anchor="middle" x="67.5" y="-359.5" font-family="Helvetica,sans-Serif" font-size="10.00">::Engine::ShaderProgram &gt;</text>
<polyline fill="none" stroke="#bfbfbf" points="0,-352.5 135,-352.5 "/>
<text text-anchor="middle" x="67.5" y="-340.5" font-family="Helvetica,sans-Serif" font-size="10.00"> </text>
<polyline fill="none" stroke="#bfbfbf" points="0,-333.5 135,-333.5 "/>
<text text-anchor="middle" x="67.5" y="-321.5" font-family="Helvetica,sans-Serif" font-size="10.00"> </text>
</g>
<!-- Node2&#45;&gt;Node1 -->
<g id="edge1" class="edge"><title>Node2&#45;&gt;Node1</title>
<path fill="none" stroke="#404040" d="M97.7213,-314.155C111.198,-299.965 127.598,-283.59 143.5,-270 192.013,-228.539 251.058,-186.861 295.908,-156.802"/>
<polygon fill="none" stroke="#404040" points="296.135,-156.651 298.908,-149.994 306.119,-149.994 303.346,-156.651 296.135,-156.651"/>
<text text-anchor="middle" x="215" y="-244" font-family="Helvetica,sans-Serif" font-size="10.00"> #shaderprogram</text>
</g>
<!-- Node3 -->
<g id="node3" class="node"><title>Node3</title>
<polygon fill="none" stroke="#bfbfbf" points="153,-314.5 153,-382.5 288,-382.5 288,-314.5 153,-314.5"/>
<text text-anchor="start" x="161" y="-370.5" font-family="Helvetica,sans-Serif" font-size="10.00">shared_ptr&lt; WorldParticles</text>
<text text-anchor="middle" x="220.5" y="-359.5" font-family="Helvetica,sans-Serif" font-size="10.00">::Engine::Material &gt;</text>
<polyline fill="none" stroke="#bfbfbf" points="153,-352.5 288,-352.5 "/>
<text text-anchor="middle" x="220.5" y="-340.5" font-family="Helvetica,sans-Serif" font-size="10.00"> </text>
<polyline fill="none" stroke="#bfbfbf" points="153,-333.5 288,-333.5 "/>
<text text-anchor="middle" x="220.5" y="-321.5" font-family="Helvetica,sans-Serif" font-size="10.00"> </text>
</g>
<!-- Node3&#45;&gt;Node1 -->
<g id="edge2" class="edge"><title>Node3&#45;&gt;Node1</title>
<path fill="none" stroke="#404040" d="M240.826,-314.329C256.35,-288.995 278.647,-252.608 300.045,-217.687"/>
<polygon fill="none" stroke="#404040" points="300.078,-217.633 299.802,-210.427 306.348,-207.401 306.624,-214.607 300.078,-217.633"/>
<text text-anchor="middle" x="306" y="-244" font-family="Helvetica,sans-Serif" font-size="10.00"> #material</text>
</g>
<!-- Node4 -->
<g id="node4" class="node"><title>Node4</title>
<g id="a_node4"><a xlink:href="../../de/d34/classWorldParticles_1_1Engine_1_1Transform.html" target="_top" xlink:title="The Transform class is used to represent an object transformation in space. (like position...">
<polygon fill="none" stroke="black" points="306.5,-270.5 306.5,-426.5 422.5,-426.5 422.5,-270.5 306.5,-270.5"/>
<text text-anchor="start" x="314.5" y="-414.5" font-family="Helvetica,sans-Serif" font-size="10.00">WorldParticles::Engine</text>
<text text-anchor="middle" x="364.5" y="-403.5" font-family="Helvetica,sans-Serif" font-size="10.00">::Transform</text>
<polyline fill="none" stroke="black" points="306.5,-396.5 422.5,-396.5 "/>
<text text-anchor="middle" x="364.5" y="-384.5" font-family="Helvetica,sans-Serif" font-size="10.00"> </text>
<polyline fill="none" stroke="black" points="306.5,-377.5 422.5,-377.5 "/>
<text text-anchor="start" x="314.5" y="-365.5" font-family="Helvetica,sans-Serif" font-size="10.00">+ Transform()</text>
<text text-anchor="start" x="314.5" y="-354.5" font-family="Helvetica,sans-Serif" font-size="10.00">+ ~Transform()</text>
<text text-anchor="start" x="314.5" y="-343.5" font-family="Helvetica,sans-Serif" font-size="10.00">+ getMatrix()</text>
<text text-anchor="start" x="314.5" y="-332.5" font-family="Helvetica,sans-Serif" font-size="10.00">+ setPosition()</text>
<text text-anchor="start" x="314.5" y="-321.5" font-family="Helvetica,sans-Serif" font-size="10.00">+ setRotation()</text>
<text text-anchor="start" x="314.5" y="-310.5" font-family="Helvetica,sans-Serif" font-size="10.00">+ setScale()</text>
<text text-anchor="start" x="314.5" y="-299.5" font-family="Helvetica,sans-Serif" font-size="10.00">+ getPosition()</text>
<text text-anchor="start" x="314.5" y="-288.5" font-family="Helvetica,sans-Serif" font-size="10.00">+ getRotation()</text>
<text text-anchor="start" x="314.5" y="-277.5" font-family="Helvetica,sans-Serif" font-size="10.00">+ getScale()</text>
</a>
</g>
</g>
<!-- Node4&#45;&gt;Node1 -->
<g id="edge3" class="edge"><title>Node4&#45;&gt;Node1</title>
<path fill="none" stroke="#404040" d="M364.5,-270.227C364.5,-258.789 364.5,-246.773 364.5,-234.69"/>
<polygon fill="none" stroke="#404040" points="364.5,-234.605 360.5,-228.605 364.5,-222.605 368.5,-228.605 364.5,-234.605"/>
<text text-anchor="middle" x="389.5" y="-244" font-family="Helvetica,sans-Serif" font-size="10.00"> #transform</text>
</g>
<!-- Node5 -->
<g id="node5" class="node"><title>Node5</title>
<polygon fill="none" stroke="#bfbfbf" points="316.5,-496.5 316.5,-553.5 354.5,-553.5 354.5,-496.5 316.5,-496.5"/>
<text text-anchor="middle" x="335.5" y="-541.5" font-family="Helvetica,sans-Serif" font-size="10.00">mat4</text>
<polyline fill="none" stroke="#bfbfbf" points="316.5,-534.5 354.5,-534.5 "/>
<text text-anchor="middle" x="335.5" y="-522.5" font-family="Helvetica,sans-Serif" font-size="10.00"> </text>
<polyline fill="none" stroke="#bfbfbf" points="316.5,-515.5 354.5,-515.5 "/>
<text text-anchor="middle" x="335.5" y="-503.5" font-family="Helvetica,sans-Serif" font-size="10.00"> </text>
</g>
<!-- Node5&#45;&gt;Node4 -->
<g id="edge4" class="edge"><title>Node5&#45;&gt;Node4</title>
<path fill="none" stroke="#404040" d="M334.019,-496.431C333.658,-481.188 333.956,-461.956 336.5,-445 336.808,-442.944 337.15,-440.871 337.52,-438.786"/>
<polygon fill="none" stroke="#404040" points="337.572,-438.528 334.831,-431.858 339.933,-426.762 342.674,-433.432 337.572,-438.528"/>
<text text-anchor="middle" x="354.5" y="-459" font-family="Helvetica,sans-Serif" font-size="10.00"> #matrix</text>
</g>
<!-- Node6 -->
<g id="node6" class="node"><title>Node6</title>
<polygon fill="none" stroke="#bfbfbf" points="375.5,-496.5 375.5,-553.5 413.5,-553.5 413.5,-496.5 375.5,-496.5"/>
<text text-anchor="middle" x="394.5" y="-541.5" font-family="Helvetica,sans-Serif" font-size="10.00">vec3</text>
<polyline fill="none" stroke="#bfbfbf" points="375.5,-534.5 413.5,-534.5 "/>
<text text-anchor="middle" x="394.5" y="-522.5" font-family="Helvetica,sans-Serif" font-size="10.00"> </text>
<polyline fill="none" stroke="#bfbfbf" points="375.5,-515.5 413.5,-515.5 "/>
<text text-anchor="middle" x="394.5" y="-503.5" font-family="Helvetica,sans-Serif" font-size="10.00"> </text>
</g>
<!-- Node6&#45;&gt;Node4 -->
<g id="edge5" class="edge"><title>Node6&#45;&gt;Node4</title>
<path fill="none" stroke="#404040" d="M389.746,-496.35C387.027,-480.531 383.446,-459.704 379.84,-438.725"/>
<polygon fill="none" stroke="#404040" points="379.812,-438.567 374.854,-433.332 377.779,-426.741 382.738,-431.976 379.812,-438.567"/>
<text text-anchor="middle" x="406.5" y="-470" font-family="Helvetica,sans-Serif" font-size="10.00"> #scale</text>
<text text-anchor="middle" x="406.5" y="-459" font-family="Helvetica,sans-Serif" font-size="10.00">#rotation</text>
<text text-anchor="middle" x="406.5" y="-448" font-family="Helvetica,sans-Serif" font-size="10.00">#position</text>
</g>
<!-- Node7 -->
<g id="node7" class="node"><title>Node7</title>
<g id="a_node7"><a xlink:href="../../d4/ddd/classWorldParticles_1_1Engine_1_1IRenderer.html" target="_top" xlink:title="This class is used to store the whole rendering part into a class. This class should be inherited...">
<polygon fill="none" stroke="black" points="440.5,-314.5 440.5,-382.5 556.5,-382.5 556.5,-314.5 440.5,-314.5"/>
<text text-anchor="start" x="448.5" y="-370.5" font-family="Helvetica,sans-Serif" font-size="10.00">WorldParticles::Engine</text>
<text text-anchor="middle" x="498.5" y="-359.5" font-family="Helvetica,sans-Serif" font-size="10.00">::IRenderer</text>
<polyline fill="none" stroke="black" points="440.5,-352.5 556.5,-352.5 "/>
<text text-anchor="middle" x="498.5" y="-340.5" font-family="Helvetica,sans-Serif" font-size="10.00"> </text>
<polyline fill="none" stroke="black" points="440.5,-333.5 556.5,-333.5 "/>
<text text-anchor="start" x="448.5" y="-321.5" font-family="Helvetica,sans-Serif" font-size="10.00">+ draw()</text>
</a>
</g>
</g>
<!-- Node7&#45;&gt;Node1 -->
<g id="edge6" class="edge"><title>Node7&#45;&gt;Node1</title>
<path fill="none" stroke="#404040" d="M479.585,-314.329C466.143,-290.754 447.242,-257.607 428.636,-224.977"/>
<polygon fill="none" stroke="#404040" points="428.557,-224.838 422.11,-221.607 422.613,-214.414 429.059,-217.645 428.557,-224.838"/>
<text text-anchor="middle" x="466.5" y="-244" font-family="Helvetica,sans-Serif" font-size="10.00"> #renderer</text>
</g>
<!-- Node8 -->
<g id="node8" class="node"><title>Node8</title>
<polygon fill="none" stroke="#bfbfbf" points="575,-314.5 575,-382.5 710,-382.5 710,-314.5 575,-314.5"/>
<text text-anchor="start" x="583" y="-370.5" font-family="Helvetica,sans-Serif" font-size="10.00">shared_ptr&lt; WorldParticles</text>
<text text-anchor="middle" x="642.5" y="-359.5" font-family="Helvetica,sans-Serif" font-size="10.00">::Engine::Mesh &gt;</text>
<polyline fill="none" stroke="#bfbfbf" points="575,-352.5 710,-352.5 "/>
<text text-anchor="middle" x="642.5" y="-340.5" font-family="Helvetica,sans-Serif" font-size="10.00"> </text>
<polyline fill="none" stroke="#bfbfbf" points="575,-333.5 710,-333.5 "/>
<text text-anchor="middle" x="642.5" y="-321.5" font-family="Helvetica,sans-Serif" font-size="10.00"> </text>
</g>
<!-- Node8&#45;&gt;Node1 -->
<g id="edge7" class="edge"><title>Node8&#45;&gt;Node1</title>
<path fill="none" stroke="#404040" d="M611.148,-314.155C597.503,-300.119 581.094,-283.861 565.5,-270 522.798,-232.043 472.151,-192.387 432.38,-162.363"/>
<polygon fill="none" stroke="#404040" points="432.365,-162.352 425.166,-161.942 422.775,-155.139 429.974,-155.548 432.365,-162.352"/>
<text text-anchor="middle" x="562" y="-244" font-family="Helvetica,sans-Serif" font-size="10.00"> #mesh</text>
</g>
</g>
</svg>
        <g id="navigator" transform="translate(0 0)" fill="#404254">
                <rect fill="#f2f5e9" fill-opacity="0.5" stroke="#606060" stroke-width=".5" x="0" y="0" width="60" height="60"/>
                <use id="zoomplus" xlink:href="#zoomPlus" x="17" y="9" onmousedown="handleZoom(evt,'in')"/>
                <use id="zoomminus" xlink:href="#zoomMin" x="42" y="9" onmousedown="handleZoom(evt,'out')"/>
                <use id="reset" xlink:href="#resetDef" x="30" y="36" onmousedown="handleReset()"/>
                <g id="arrowUp" xlink:href="#dirArrow" transform="translate(30 24)" onmousedown="handlePan(0,-1)">
                  <use xlink:href="#rim" fill="#404040">
                        <set attributeName="fill" to="#808080" begin="arrowUp.mouseover" end="arrowUp.mouseout"/>
                  </use>
                  <path fill="none" stroke="white" stroke-width="1.5" d="M0,-3.0v7 M-2.5,-0.5L0,-3.0L2.5,-0.5"/>
                </g>
                <g id="arrowRight" xlink:href="#dirArrow" transform="rotate(90) translate(36 -43)" onmousedown="handlePan(1,0)">
                  <use xlink:href="#rim" fill="#404040">
                        <set attributeName="fill" to="#808080" begin="arrowRight.mouseover" end="arrowRight.mouseout"/>
                  </use>
                  <path fill="none" stroke="white" stroke-width="1.5" d="M0,-3.0v7 M-2.5,-0.5L0,-3.0L2.5,-0.5"/>
                </g>
                <g id="arrowDown" xlink:href="#dirArrow" transform="rotate(180) translate(-30 -48)" onmousedown="handlePan(0,1)">
                  <use xlink:href="#rim" fill="#404040">
                        <set attributeName="fill" to="#808080" begin="arrowDown.mouseover" end="arrowDown.mouseout"/>
                  </use>
                  <path fill="none" stroke="white" stroke-width="1.5" d="M0,-3.0v7 M-2.5,-0.5L0,-3.0L2.5,-0.5"/>
                </g>
                <g id="arrowLeft" xlink:href="#dirArrow" transform="rotate(270) translate(-36 17)" onmousedown="handlePan(-1,0)">
                  <use xlink:href="#rim" fill="#404040">
                        <set attributeName="fill" to="#808080" begin="arrowLeft.mouseover" end="arrowLeft.mouseout"/>
                  </use>
                  <path fill="none" stroke="white" stroke-width="1.5" d="M0,-3.0v7 M-2.5,-0.5L0,-3.0L2.5,-0.5"/>
                </g>
        </g>
        <svg viewBox="0 0 15 15" width="100%" height="30px" preserveAspectRatio="xMaxYMin meet">
         <g id="arrow_out" transform="scale(0.3 0.3)">
          <a xlink:href="classWorldParticles_1_1Engine_1_1GameObject__coll__graph_org.svg" target="_base">
           <rect id="button" ry="5" rx="5" y="6" x="6" height="38" width="38"
                fill="#f2f5e9" fill-opacity="0.5" stroke="#606060" stroke-width="1.0"/>
           <path id="arrow"
             d="M 11.500037,31.436501 C 11.940474,20.09759 22.043105,11.32322 32.158766,21.979434 L 37.068811,17.246167 C 37.068811,17.246167 37.088388,32 37.088388,32 L 22.160133,31.978069 C 22.160133,31.978069 26.997745,27.140456 26.997745,27.140456 C 18.528582,18.264221 13.291696,25.230495 11.500037,31.436501 z"
             style="fill:#404040;"/>
          </a>
         </g>
        </svg>
</svg>
