<?xml version="1.0" encoding="UTF-8" standalone="no"?>
<!DOCTYPE svg PUBLIC "-//W3C//DTD SVG 1.1//EN"
 "http://www.w3.org/Graphics/SVG/1.1/DTD/svg11.dtd">
<!-- Generated by graphviz version 2.38.0 (20140413.2041)
 -->
<!-- Title: WorldParticles::Engine::MaterialLibrary Pages: 1 -->
<svg width="246pt" height="602pt"
 viewBox="0.00 0.00 245.50 602.00" xmlns="http://www.w3.org/2000/svg" xmlns:xlink="http://www.w3.org/1999/xlink">
<g id="graph0" class="graph" transform="scale(1 1) rotate(0) translate(4 598)">
<title>WorldParticles::Engine::MaterialLibrary</title>
<!-- Node1 -->
<g id="node1" class="node"><title>Node1</title>
<polygon fill="#bfbfbf" stroke="black" points="43.5,-0.5 43.5,-134.5 159.5,-134.5 159.5,-0.5 43.5,-0.5"/>
<text text-anchor="start" x="51.5" y="-122.5" font-family="Helvetica,sans-Serif" font-size="10.00">WorldParticles::Engine</text>
<text text-anchor="middle" x="101.5" y="-111.5" font-family="Helvetica,sans-Serif" font-size="10.00">::MaterialLibrary</text>
<polyline fill="none" stroke="black" points="43.5,-104.5 159.5,-104.5 "/>
<text text-anchor="middle" x="101.5" y="-92.5" font-family="Helvetica,sans-Serif" font-size="10.00"> </text>
<polyline fill="none" stroke="black" points="43.5,-85.5 159.5,-85.5 "/>
<text text-anchor="start" x="51.5" y="-73.5" font-family="Helvetica,sans-Serif" font-size="10.00">+ MaterialLibrary()</text>
<text text-anchor="start" x="51.5" y="-62.5" font-family="Helvetica,sans-Serif" font-size="10.00">+ MaterialLibrary()</text>
<text text-anchor="start" x="51.5" y="-51.5" font-family="Helvetica,sans-Serif" font-size="10.00">+ MaterialLibrary()</text>
<text text-anchor="start" x="51.5" y="-40.5" font-family="Helvetica,sans-Serif" font-size="10.00">+ MaterialLibrary()</text>
<text text-anchor="start" x="51.5" y="-29.5" font-family="Helvetica,sans-Serif" font-size="10.00">+ ~MaterialLibrary()</text>
<text text-anchor="start" x="51.5" y="-18.5" font-family="Helvetica,sans-Serif" font-size="10.00">+ operator=()</text>
<text text-anchor="start" x="51.5" y="-7.5" font-family="Helvetica,sans-Serif" font-size="10.00">+ operator=()</text>
</g>
<!-- Node2 -->
<g id="node2" class="node"><title>Node2</title>
<g id="a_node2"><a xlink:href="../../d6/da4/classWorldParticles_1_1Engine_1_1Library.html" target="_top" xlink:title="{WorldParticles::Engine\l::Library\&lt; Material * \&gt;\n||+ Library()\l+ Library()\l+ Library()\l+ ~Library()\l+ operator=()\l+ operator=()\l+ get()\l}">
<polygon fill="none" stroke="black" points="43.5,-172.5 43.5,-306.5 159.5,-306.5 159.5,-172.5 43.5,-172.5"/>
<text text-anchor="start" x="51.5" y="-294.5" font-family="Helvetica,sans-Serif" font-size="10.00">WorldParticles::Engine</text>
<text text-anchor="middle" x="101.5" y="-283.5" font-family="Helvetica,sans-Serif" font-size="10.00">::Library&lt; Material * &gt;</text>
<polyline fill="none" stroke="black" points="43.5,-276.5 159.5,-276.5 "/>
<text text-anchor="middle" x="101.5" y="-264.5" font-family="Helvetica,sans-Serif" font-size="10.00"> </text>
<polyline fill="none" stroke="black" points="43.5,-257.5 159.5,-257.5 "/>
<text text-anchor="start" x="51.5" y="-245.5" font-family="Helvetica,sans-Serif" font-size="10.00">+ Library()</text>
<text text-anchor="start" x="51.5" y="-234.5" font-family="Helvetica,sans-Serif" font-size="10.00">+ Library()</text>
<text text-anchor="start" x="51.5" y="-223.5" font-family="Helvetica,sans-Serif" font-size="10.00">+ Library()</text>
<text text-anchor="start" x="51.5" y="-212.5" font-family="Helvetica,sans-Serif" font-size="10.00">+ ~Library()</text>
<text text-anchor="start" x="51.5" y="-201.5" font-family="Helvetica,sans-Serif" font-size="10.00">+ operator=()</text>
<text text-anchor="start" x="51.5" y="-190.5" font-family="Helvetica,sans-Serif" font-size="10.00">+ operator=()</text>
<text text-anchor="start" x="51.5" y="-179.5" font-family="Helvetica,sans-Serif" font-size="10.00">+ get()</text>
</a>
</g>
</g>
<!-- Node2&#45;&gt;Node1 -->
<g id="edge1" class="edge"><title>Node2&#45;&gt;Node1</title>
<path fill="none" stroke="midnightblue" d="M101.5,-162.013C101.5,-152.842 101.5,-143.537 101.5,-134.533"/>
<polygon fill="none" stroke="midnightblue" points="98.0001,-162.287 101.5,-172.287 105,-162.287 98.0001,-162.287"/>
</g>
<!-- Node3 -->
<g id="node3" class="node"><title>Node3</title>
<g id="a_node3"><a xlink:href="../../dc/d1d/classstd_1_1vector_3_01Material_01_5_01_4.html" target="_top" xlink:title="{vector\&lt; Material * \&gt;\n||}">
<polygon fill="none" stroke="black" points="0,-393 0,-450 103,-450 103,-393 0,-393"/>
<text text-anchor="middle" x="51.5" y="-438" font-family="Helvetica,sans-Serif" font-size="10.00">vector&lt; Material * &gt;</text>
<polyline fill="none" stroke="black" points="0,-431 103,-431 "/>
<text text-anchor="middle" x="51.5" y="-419" font-family="Helvetica,sans-Serif" font-size="10.00"> </text>
<polyline fill="none" stroke="black" points="0,-412 103,-412 "/>
<text text-anchor="middle" x="51.5" y="-400" font-family="Helvetica,sans-Serif" font-size="10.00"> </text>
</a>
</g>
</g>
<!-- Node3&#45;&gt;Node2 -->
<g id="edge2" class="edge"><title>Node3&#45;&gt;Node2</title>
<path fill="none" stroke="#404040" d="M59.2029,-392.769C64.739,-372.84 72.4945,-344.92 79.855,-318.422"/>
<polygon fill="none" stroke="#404040" points="79.8764,-318.345 77.6282,-311.493 83.0882,-306.782 85.3364,-313.634 79.8764,-318.345"/>
<text text-anchor="middle" x="104.5" y="-328" font-family="Helvetica,sans-Serif" font-size="10.00"> #resources</text>
</g>
<!-- Node4 -->
<g id="node4" class="node"><title>Node4</title>
<g id="a_node4"><a xlink:href="../../d6/da4/classWorldParticles_1_1Engine_1_1Library.html" target="_top" xlink:title="{WorldParticles::Engine\l::Library\&lt; T \&gt;\n||+ Library()\l+ Library()\l+ Library()\l+ ~Library()\l+ operator=()\l+ operator=()\l+ get()\l}">
<polygon fill="none" stroke="black" points="121.5,-354.5 121.5,-488.5 237.5,-488.5 237.5,-354.5 121.5,-354.5"/>
<text text-anchor="start" x="129.5" y="-476.5" font-family="Helvetica,sans-Serif" font-size="10.00">WorldParticles::Engine</text>
<text text-anchor="middle" x="179.5" y="-465.5" font-family="Helvetica,sans-Serif" font-size="10.00">::Library&lt; T &gt;</text>
<polyline fill="none" stroke="black" points="121.5,-458.5 237.5,-458.5 "/>
<text text-anchor="middle" x="179.5" y="-446.5" font-family="Helvetica,sans-Serif" font-size="10.00"> </text>
<polyline fill="none" stroke="black" points="121.5,-439.5 237.5,-439.5 "/>
<text text-anchor="start" x="129.5" y="-427.5" font-family="Helvetica,sans-Serif" font-size="10.00">+ Library()</text>
<text text-anchor="start" x="129.5" y="-416.5" font-family="Helvetica,sans-Serif" font-size="10.00">+ Library()</text>
<text text-anchor="start" x="129.5" y="-405.5" font-family="Helvetica,sans-Serif" font-size="10.00">+ Library()</text>
<text text-anchor="start" x="129.5" y="-394.5" font-family="Helvetica,sans-Serif" font-size="10.00">+ ~Library()</text>
<text text-anchor="start" x="129.5" y="-383.5" font-family="Helvetica,sans-Serif" font-size="10.00">+ operator=()</text>
<text text-anchor="start" x="129.5" y="-372.5" font-family="Helvetica,sans-Serif" font-size="10.00">+ operator=()</text>
<text text-anchor="start" x="129.5" y="-361.5" font-family="Helvetica,sans-Serif" font-size="10.00">+ get()</text>
</a>
</g>
</g>
<!-- Node4&#45;&gt;Node2 -->
<g id="edge3" class="edge"><title>Node4&#45;&gt;Node2</title>
<path fill="none" stroke="orange" d="M146.905,-345.281C141.369,-332.506 135.656,-319.321 130.228,-306.796"/>
<polygon fill="orange" stroke="orange" points="143.711,-346.713 150.899,-354.497 150.134,-343.93 143.711,-346.713"/>
<text text-anchor="middle" x="174" y="-328" font-family="Helvetica,sans-Serif" font-size="10.00"> &lt; Material * &gt;</text>
</g>
<!-- Node5 -->
<g id="node5" class="node"><title>Node5</title>
<polygon fill="none" stroke="#bfbfbf" points="145.5,-536.5 145.5,-593.5 213.5,-593.5 213.5,-536.5 145.5,-536.5"/>
<text text-anchor="middle" x="179.5" y="-581.5" font-family="Helvetica,sans-Serif" font-size="10.00">vector&lt; T &gt;</text>
<polyline fill="none" stroke="#bfbfbf" points="145.5,-574.5 213.5,-574.5 "/>
<text text-anchor="middle" x="179.5" y="-562.5" font-family="Helvetica,sans-Serif" font-size="10.00"> </text>
<polyline fill="none" stroke="#bfbfbf" points="145.5,-555.5 213.5,-555.5 "/>
<text text-anchor="middle" x="179.5" y="-543.5" font-family="Helvetica,sans-Serif" font-size="10.00"> </text>
</g>
<!-- Node5&#45;&gt;Node4 -->
<g id="edge4" class="edge"><title>Node5&#45;&gt;Node4</title>
<path fill="none" stroke="#404040" d="M179.5,-536.381C179.5,-526.02 179.5,-513.663 179.5,-500.97"/>
<polygon fill="none" stroke="#404040" points="179.5,-500.753 175.5,-494.753 179.5,-488.753 183.5,-494.753 179.5,-500.753"/>
<text text-anchor="middle" x="205.5" y="-510" font-family="Helvetica,sans-Serif" font-size="10.00"> #resources</text>
</g>
</g>
</svg>
