<?xml version="1.0" encoding="UTF-8" standalone="no"?>
<!DOCTYPE svg PUBLIC "-//W3C//DTD SVG 1.1//EN"
 "http://www.w3.org/Graphics/SVG/1.1/DTD/svg11.dtd">
<!-- Generated by graphviz version 2.38.0 (20140413.2041)
 -->
<!-- Title: engine/Shaders/ShaderNames.hpp Pages: 1 -->
<svg width="529pt" height="184pt"
 viewBox="0.00 0.00 528.50 184.00" xmlns="http://www.w3.org/2000/svg" xmlns:xlink="http://www.w3.org/1999/xlink">
<g id="graph0" class="graph" transform="scale(1 1) rotate(0) translate(4 180)">
<title>engine/Shaders/ShaderNames.hpp</title>
<!-- Node1 -->
<g id="node1" class="node"><title>Node1</title>
<polygon fill="#bfbfbf" stroke="black" points="153,-156.5 153,-175.5 321,-175.5 321,-156.5 153,-156.5"/>
<text text-anchor="middle" x="237" y="-163.5" font-family="Helvetica,sans-Serif" font-size="10.00">engine/Shaders/ShaderNames.hpp</text>
</g>
<!-- Node2 -->
<g id="node2" class="node"><title>Node2</title>
<g id="a_node2"><a xlink:href="../../d3/d1a/ShaderMapping_8hpp.html" target="_top" xlink:title="engine/Shaders/Managers\l/ShaderManager/internal\l/ShaderMapping.hpp">
<polygon fill="none" stroke="black" points="0,-78.5 0,-119.5 130,-119.5 130,-78.5 0,-78.5"/>
<text text-anchor="start" x="8" y="-107.5" font-family="Helvetica,sans-Serif" font-size="10.00">engine/Shaders/Managers</text>
<text text-anchor="start" x="8" y="-96.5" font-family="Helvetica,sans-Serif" font-size="10.00">/ShaderManager/internal</text>
<text text-anchor="middle" x="65" y="-85.5" font-family="Helvetica,sans-Serif" font-size="10.00">/ShaderMapping.hpp</text>
</a>
</g>
</g>
<!-- Node1&#45;&gt;Node2 -->
<g id="edge1" class="edge"><title>Node1&#45;&gt;Node2</title>
<path fill="none" stroke="midnightblue" d="M204.558,-152.74C179.881,-143.414 145.43,-130.395 116.932,-119.625"/>
<polygon fill="midnightblue" stroke="midnightblue" points="203.568,-156.107 214.16,-156.369 206.043,-149.559 203.568,-156.107"/>
</g>
<!-- Node4 -->
<g id="node4" class="node"><title>Node4</title>
<g id="a_node4"><a xlink:href="../../d2/d1f/ShaderManager_8hpp.html" target="_top" xlink:title="engine/Shaders/Managers\l/ShaderManager/ShaderManager.hpp">
<polygon fill="none" stroke="black" points="148,-84 148,-114 326,-114 326,-84 148,-84"/>
<text text-anchor="start" x="156" y="-102" font-family="Helvetica,sans-Serif" font-size="10.00">engine/Shaders/Managers</text>
<text text-anchor="middle" x="237" y="-91" font-family="Helvetica,sans-Serif" font-size="10.00">/ShaderManager/ShaderManager.hpp</text>
</a>
</g>
</g>
<!-- Node1&#45;&gt;Node4 -->
<g id="edge3" class="edge"><title>Node1&#45;&gt;Node4</title>
<path fill="none" stroke="midnightblue" d="M237,-145.911C237,-135.722 237,-123.401 237,-114.089"/>
<polygon fill="midnightblue" stroke="midnightblue" points="233.5,-146.234 237,-156.234 240.5,-146.234 233.5,-146.234"/>
</g>
<!-- Node6 -->
<g id="node6" class="node"><title>Node6</title>
<g id="a_node6"><a xlink:href="../../dd/d4f/ShaderProgramMapping_8hpp.html" target="_top" xlink:title="engine/Shaders/Managers\l/ShaderProgramManager\l/internal/ShaderProgramMapping.hpp">
<polygon fill="none" stroke="black" points="343.5,-78.5 343.5,-119.5 520.5,-119.5 520.5,-78.5 343.5,-78.5"/>
<text text-anchor="start" x="351.5" y="-107.5" font-family="Helvetica,sans-Serif" font-size="10.00">engine/Shaders/Managers</text>
<text text-anchor="start" x="351.5" y="-96.5" font-family="Helvetica,sans-Serif" font-size="10.00">/ShaderProgramManager</text>
<text text-anchor="middle" x="432" y="-85.5" font-family="Helvetica,sans-Serif" font-size="10.00">/internal/ShaderProgramMapping.hpp</text>
</a>
</g>
</g>
<!-- Node1&#45;&gt;Node6 -->
<g id="edge6" class="edge"><title>Node1&#45;&gt;Node6</title>
<path fill="none" stroke="midnightblue" d="M272.667,-153.111C300.715,-143.762 340.384,-130.539 373.124,-119.625"/>
<polygon fill="midnightblue" stroke="midnightblue" points="271.275,-149.886 262.894,-156.369 273.488,-156.527 271.275,-149.886"/>
</g>
<!-- Node3 -->
<g id="node3" class="node"><title>Node3</title>
<g id="a_node3"><a xlink:href="../../d3/d73/ShaderManager_8cpp.html" target="_top" xlink:title="engine/Shaders/Managers\l/ShaderManager/ShaderManager.cpp">
<polygon fill="none" stroke="black" points="23,-6 23,-36 201,-36 201,-6 23,-6"/>
<text text-anchor="start" x="31" y="-24" font-family="Helvetica,sans-Serif" font-size="10.00">engine/Shaders/Managers</text>
<text text-anchor="middle" x="112" y="-13" font-family="Helvetica,sans-Serif" font-size="10.00">/ShaderManager/ShaderManager.cpp</text>
</a>
</g>
</g>
<!-- Node2&#45;&gt;Node3 -->
<g id="edge2" class="edge"><title>Node2&#45;&gt;Node3</title>
<path fill="none" stroke="midnightblue" d="M82.5371,-69.6421C89.5829,-58.249 97.3943,-45.6177 103.203,-36.2254"/>
<polygon fill="midnightblue" stroke="midnightblue" points="79.3866,-68.0822 77.1037,-78.4281 85.3402,-71.764 79.3866,-68.0822"/>
</g>
<!-- Node4&#45;&gt;Node3 -->
<g id="edge4" class="edge"><title>Node4&#45;&gt;Node3</title>
<path fill="none" stroke="midnightblue" d="M205.165,-78.6444C183.305,-65.3533 154.79,-48.0166 135.094,-36.0413"/>
<polygon fill="midnightblue" stroke="midnightblue" points="203.418,-81.6785 213.781,-83.8831 207.055,-75.6973 203.418,-81.6785"/>
</g>
<!-- Node5 -->
<g id="node5" class="node"><title>Node5</title>
<g id="a_node5"><a xlink:href="../../d4/d46/ShaderProgramManager_8cpp.html" target="_top" xlink:title="engine/Shaders/Managers\l/ShaderProgramManager\l/ShaderProgramManager.cpp">
<polygon fill="none" stroke="black" points="313.5,-0.5 313.5,-41.5 456.5,-41.5 456.5,-0.5 313.5,-0.5"/>
<text text-anchor="start" x="321.5" y="-29.5" font-family="Helvetica,sans-Serif" font-size="10.00">engine/Shaders/Managers</text>
<text text-anchor="start" x="321.5" y="-18.5" font-family="Helvetica,sans-Serif" font-size="10.00">/ShaderProgramManager</text>
<text text-anchor="middle" x="385" y="-7.5" font-family="Helvetica,sans-Serif" font-size="10.00">/ShaderProgramManager.cpp</text>
</a>
</g>
</g>
<!-- Node4&#45;&gt;Node5 -->
<g id="edge5" class="edge"><title>Node4&#45;&gt;Node5</title>
<path fill="none" stroke="midnightblue" d="M273.618,-79.196C295.871,-67.769 324.24,-53.2013 346.777,-41.6279"/>
<polygon fill="midnightblue" stroke="midnightblue" points="271.788,-76.2015 264.491,-83.8831 274.985,-82.4285 271.788,-76.2015"/>
</g>
<!-- Node6&#45;&gt;Node5 -->
<g id="edge7" class="edge"><title>Node6&#45;&gt;Node5</title>
<path fill="none" stroke="midnightblue" d="M414.534,-69.7571C408.719,-60.354 402.375,-50.096 397.063,-41.5056"/>
<polygon fill="midnightblue" stroke="midnightblue" points="411.66,-71.764 419.896,-78.4281 417.613,-68.0822 411.66,-71.764"/>
</g>
</g>
</svg>
