<?xml version="1.0" encoding="UTF-8" standalone="no"?>
<!DOCTYPE svg PUBLIC "-//W3C//DTD SVG 1.1//EN"
 "http://www.w3.org/Graphics/SVG/1.1/DTD/svg11.dtd">
<!-- Generated by graphviz version 2.38.0 (20140413.2041)
 -->
<!-- Title: engine/Shader/ShaderNames.hpp Pages: 1 -->
<svg width="1303pt" height="475pt"
 viewBox="0.00 0.00 1303.00 475.00" xmlns="http://www.w3.org/2000/svg" xmlns:xlink="http://www.w3.org/1999/xlink">
<g id="graph0" class="graph" transform="scale(1 1) rotate(0) translate(4 471)">
<title>engine/Shader/ShaderNames.hpp</title>
<!-- Node1 -->
<g id="node1" class="node"><title>Node1</title>
<polygon fill="#bfbfbf" stroke="black" points="785,-447.5 785,-466.5 948,-466.5 948,-447.5 785,-447.5"/>
<text text-anchor="middle" x="866.5" y="-454.5" font-family="Helvetica,sans-Serif" font-size="10.00">engine/Shader/ShaderNames.hpp</text>
</g>
<!-- Node2 -->
<g id="node2" class="node"><title>Node2</title>
<g id="a_node2"><a xlink:href="../../d3/d1a/ShaderMapping_8hpp.html" target="_top" xlink:title="engine/ShaderLibrary\l/internal/ShaderMapping.hpp">
<polygon fill="none" stroke="black" points="652.5,-380.5 652.5,-410.5 792.5,-410.5 792.5,-380.5 652.5,-380.5"/>
<text text-anchor="start" x="660.5" y="-398.5" font-family="Helvetica,sans-Serif" font-size="10.00">engine/ShaderLibrary</text>
<text text-anchor="middle" x="722.5" y="-387.5" font-family="Helvetica,sans-Serif" font-size="10.00">/internal/ShaderMapping.hpp</text>
</a>
</g>
</g>
<!-- Node1&#45;&gt;Node2 -->
<g id="edge1" class="edge"><title>Node1&#45;&gt;Node2</title>
<path fill="none" stroke="midnightblue" d="M836.466,-443.59C813.117,-433.942 780.723,-420.558 756.438,-410.523"/>
<polygon fill="midnightblue" stroke="midnightblue" points="835.29,-446.891 845.868,-447.475 837.963,-440.422 835.29,-446.891"/>
</g>
<!-- Node4 -->
<g id="node4" class="node"><title>Node4</title>
<g id="a_node4"><a xlink:href="../../d2/db1/ShaderLibrary_8hpp.html" target="_top" xlink:title="engine/ShaderLibrary\l/ShaderLibrary.hpp">
<polygon fill="none" stroke="black" points="812.5,-380.5 812.5,-410.5 920.5,-410.5 920.5,-380.5 812.5,-380.5"/>
<text text-anchor="start" x="820.5" y="-398.5" font-family="Helvetica,sans-Serif" font-size="10.00">engine/ShaderLibrary</text>
<text text-anchor="middle" x="866.5" y="-387.5" font-family="Helvetica,sans-Serif" font-size="10.00">/ShaderLibrary.hpp</text>
</a>
</g>
</g>
<!-- Node1&#45;&gt;Node4 -->
<g id="edge3" class="edge"><title>Node1&#45;&gt;Node4</title>
<path fill="none" stroke="midnightblue" d="M866.5,-437.235C866.5,-428.586 866.5,-418.497 866.5,-410.523"/>
<polygon fill="midnightblue" stroke="midnightblue" points="863,-437.475 866.5,-447.475 870,-437.475 863,-437.475"/>
</g>
<!-- Node27 -->
<g id="node27" class="node"><title>Node27</title>
<g id="a_node27"><a xlink:href="../../dd/d4f/ShaderProgramMapping_8hpp.html" target="_top" xlink:title="engine/ShaderProgramLibrary\l/internal/ShaderProgramMapping.hpp">
<polygon fill="none" stroke="black" points="995,-313.5 995,-343.5 1172,-343.5 1172,-313.5 995,-313.5"/>
<text text-anchor="start" x="1003" y="-331.5" font-family="Helvetica,sans-Serif" font-size="10.00">engine/ShaderProgramLibrary</text>
<text text-anchor="middle" x="1083.5" y="-320.5" font-family="Helvetica,sans-Serif" font-size="10.00">/internal/ShaderProgramMapping.hpp</text>
</a>
</g>
</g>
<!-- Node1&#45;&gt;Node27 -->
<g id="edge29" class="edge"><title>Node1&#45;&gt;Node27</title>
<path fill="none" stroke="midnightblue" d="M890.288,-442.133C931.847,-417.906 1017.24,-368.128 1059.17,-343.682"/>
<polygon fill="midnightblue" stroke="midnightblue" points="888.292,-439.245 881.415,-447.305 891.817,-445.293 888.292,-439.245"/>
</g>
<!-- Node3 -->
<g id="node3" class="node"><title>Node3</title>
<g id="a_node3"><a xlink:href="../../d8/df3/ShaderLibrary_8cpp.html" target="_top" xlink:title="engine/ShaderLibrary\l/ShaderLibrary.cpp">
<polygon fill="none" stroke="black" points="667.5,-313.5 667.5,-343.5 775.5,-343.5 775.5,-313.5 667.5,-313.5"/>
<text text-anchor="start" x="675.5" y="-331.5" font-family="Helvetica,sans-Serif" font-size="10.00">engine/ShaderLibrary</text>
<text text-anchor="middle" x="721.5" y="-320.5" font-family="Helvetica,sans-Serif" font-size="10.00">/ShaderLibrary.cpp</text>
</a>
</g>
</g>
<!-- Node2&#45;&gt;Node3 -->
<g id="edge2" class="edge"><title>Node2&#45;&gt;Node3</title>
<path fill="none" stroke="midnightblue" d="M722.125,-370.108C721.987,-361.154 721.836,-351.323 721.717,-343.577"/>
<polygon fill="midnightblue" stroke="midnightblue" points="718.63,-370.451 722.283,-380.396 725.629,-370.343 718.63,-370.451"/>
</g>
<!-- Node4&#45;&gt;Node3 -->
<g id="edge4" class="edge"><title>Node4&#45;&gt;Node3</title>
<path fill="none" stroke="midnightblue" d="M825.83,-376.269C802.735,-365.916 774.264,-353.153 752.901,-343.577"/>
<polygon fill="midnightblue" stroke="midnightblue" points="824.48,-379.499 835.037,-380.396 827.344,-373.112 824.48,-379.499"/>
</g>
<!-- Node5 -->
<g id="node5" class="node"><title>Node5</title>
<g id="a_node5"><a xlink:href="../../d8/d9e/ShaderProgramLibrary_8cpp.html" target="_top" xlink:title="engine/ShaderProgramLibrary\l/ShaderProgramLibrary.cpp">
<polygon fill="none" stroke="black" points="947,-246.5 947,-276.5 1092,-276.5 1092,-246.5 947,-246.5"/>
<text text-anchor="start" x="955" y="-264.5" font-family="Helvetica,sans-Serif" font-size="10.00">engine/ShaderProgramLibrary</text>
<text text-anchor="middle" x="1019.5" y="-253.5" font-family="Helvetica,sans-Serif" font-size="10.00">/ShaderProgramLibrary.cpp</text>
</a>
</g>
</g>
<!-- Node4&#45;&gt;Node5 -->
<g id="edge5" class="edge"><title>Node4&#45;&gt;Node5</title>
<path fill="none" stroke="midnightblue" d="M902.186,-375.286C916.885,-366.619 933.672,-355.702 947.5,-344 972.144,-323.144 995.99,-293.786 1009.11,-276.59"/>
<polygon fill="midnightblue" stroke="midnightblue" points="900.266,-372.354 893.35,-380.38 903.761,-378.418 900.266,-372.354"/>
</g>
<!-- Node6 -->
<g id="node6" class="node"><title>Node6</title>
<g id="a_node6"><a xlink:href="../../d1/d93/ShaderProgramLibrary_8hpp.html" target="_top" xlink:title="engine/ShaderProgramLibrary\l/ShaderProgramLibrary.hpp">
<polygon fill="none" stroke="black" points="794,-313.5 794,-343.5 939,-343.5 939,-313.5 794,-313.5"/>
<text text-anchor="start" x="802" y="-331.5" font-family="Helvetica,sans-Serif" font-size="10.00">engine/ShaderProgramLibrary</text>
<text text-anchor="middle" x="866.5" y="-320.5" font-family="Helvetica,sans-Serif" font-size="10.00">/ShaderProgramLibrary.hpp</text>
</a>
</g>
</g>
<!-- Node4&#45;&gt;Node6 -->
<g id="edge6" class="edge"><title>Node4&#45;&gt;Node6</title>
<path fill="none" stroke="midnightblue" d="M866.5,-370.108C866.5,-361.154 866.5,-351.323 866.5,-343.577"/>
<polygon fill="midnightblue" stroke="midnightblue" points="863,-370.396 866.5,-380.396 870,-370.396 863,-370.396"/>
</g>
<!-- Node6&#45;&gt;Node5 -->
<g id="edge28" class="edge"><title>Node6&#45;&gt;Node5</title>
<path fill="none" stroke="midnightblue" d="M909.089,-309.407C933.515,-299.029 963.725,-286.195 986.366,-276.577"/>
<polygon fill="midnightblue" stroke="midnightblue" points="907.534,-306.264 899.699,-313.396 910.271,-312.707 907.534,-306.264"/>
</g>
<!-- Node7 -->
<g id="node7" class="node"><title>Node7</title>
<g id="a_node7"><a xlink:href="../../d2/d3b/MaterialLibrary_8cpp.html" target="_top" xlink:title="engine/MaterialLibrary\l/MaterialLibrary.cpp">
<polygon fill="none" stroke="black" points="673.5,-246.5 673.5,-276.5 785.5,-276.5 785.5,-246.5 673.5,-246.5"/>
<text text-anchor="start" x="681.5" y="-264.5" font-family="Helvetica,sans-Serif" font-size="10.00">engine/MaterialLibrary</text>
<text text-anchor="middle" x="729.5" y="-253.5" font-family="Helvetica,sans-Serif" font-size="10.00">/MaterialLibrary.cpp</text>
</a>
</g>
</g>
<!-- Node6&#45;&gt;Node7 -->
<g id="edge7" class="edge"><title>Node6&#45;&gt;Node7</title>
<path fill="none" stroke="midnightblue" d="M827.491,-308.992C805.776,-298.689 779.173,-286.068 759.169,-276.577"/>
<polygon fill="midnightblue" stroke="midnightblue" points="826.238,-312.272 836.773,-313.396 829.239,-305.947 826.238,-312.272"/>
</g>
<!-- Node8 -->
<g id="node8" class="node"><title>Node8</title>
<g id="a_node8"><a xlink:href="../../db/de8/Scene_8hpp.html" target="_top" xlink:title="engine/Scene/Scene.hpp">
<polygon fill="none" stroke="black" points="804,-252 804,-271 929,-271 929,-252 804,-252"/>
<text text-anchor="middle" x="866.5" y="-259" font-family="Helvetica,sans-Serif" font-size="10.00">engine/Scene/Scene.hpp</text>
</a>
</g>
</g>
<!-- Node6&#45;&gt;Node8 -->
<g id="edge8" class="edge"><title>Node6&#45;&gt;Node8</title>
<path fill="none" stroke="midnightblue" d="M866.5,-303.25C866.5,-292.017 866.5,-279.377 866.5,-271.195"/>
<polygon fill="midnightblue" stroke="midnightblue" points="863,-303.396 866.5,-313.396 870,-303.396 863,-303.396"/>
</g>
<!-- Node9 -->
<g id="node9" class="node"><title>Node9</title>
<g id="a_node9"><a xlink:href="../../d4/d7f/AssimpImporter_8cpp.html" target="_top" xlink:title="engine/AssimpImporter\l/AssimpImporter.cpp">
<polygon fill="none" stroke="black" points="406,-179.5 406,-209.5 523,-209.5 523,-179.5 406,-179.5"/>
<text text-anchor="start" x="414" y="-197.5" font-family="Helvetica,sans-Serif" font-size="10.00">engine/AssimpImporter</text>
<text text-anchor="middle" x="464.5" y="-186.5" font-family="Helvetica,sans-Serif" font-size="10.00">/AssimpImporter.cpp</text>
</a>
</g>
</g>
<!-- Node8&#45;&gt;Node9 -->
<g id="edge9" class="edge"><title>Node8&#45;&gt;Node9</title>
<path fill="none" stroke="midnightblue" d="M816.366,-249.988C809.045,-248.574 801.588,-247.199 794.5,-246 678.609,-226.388 648.278,-230.27 532.5,-210 529.409,-209.459 526.244,-208.878 523.052,-208.271"/>
<polygon fill="midnightblue" stroke="midnightblue" points="815.729,-253.429 826.217,-251.928 817.082,-246.561 815.729,-253.429"/>
</g>
<!-- Node10 -->
<g id="node10" class="node"><title>Node10</title>
<g id="a_node10"><a xlink:href="../../d4/d1c/GameEngine_8hpp.html" target="_top" xlink:title="engine/GameEngine/GameEngine.hpp">
<polygon fill="none" stroke="black" points="541.5,-185 541.5,-204 723.5,-204 723.5,-185 541.5,-185"/>
<text text-anchor="middle" x="632.5" y="-192" font-family="Helvetica,sans-Serif" font-size="10.00">engine/GameEngine/GameEngine.hpp</text>
</a>
</g>
</g>
<!-- Node8&#45;&gt;Node10 -->
<g id="edge10" class="edge"><title>Node8&#45;&gt;Node10</title>
<path fill="none" stroke="midnightblue" d="M825.72,-249.172C779.447,-236.319 705.014,-215.643 663.329,-204.064"/>
<polygon fill="midnightblue" stroke="midnightblue" points="824.855,-252.564 835.427,-251.869 826.728,-245.82 824.855,-252.564"/>
</g>
<!-- Node23 -->
<g id="node23" class="node"><title>Node23</title>
<g id="a_node23"><a xlink:href="../../d2/d41/Light_8cpp.html" target="_top" xlink:title="engine/Light/Light.cpp">
<polygon fill="none" stroke="black" points="741.5,-185 741.5,-204 853.5,-204 853.5,-185 741.5,-185"/>
<text text-anchor="middle" x="797.5" y="-192" font-family="Helvetica,sans-Serif" font-size="10.00">engine/Light/Light.cpp</text>
</a>
</g>
</g>
<!-- Node8&#45;&gt;Node23 -->
<g id="edge24" class="edge"><title>Node8&#45;&gt;Node23</title>
<path fill="none" stroke="midnightblue" d="M849.894,-244.856C836.329,-232.078 817.66,-214.492 806.658,-204.127"/>
<polygon fill="midnightblue" stroke="midnightblue" points="847.515,-247.424 857.194,-251.734 852.315,-242.329 847.515,-247.424"/>
</g>
<!-- Node24 -->
<g id="node24" class="node"><title>Node24</title>
<g id="a_node24"><a xlink:href="../../de/d4f/Object_8cpp.html" target="_top" xlink:title="engine/Object/Object.cpp">
<polygon fill="none" stroke="black" points="872,-185 872,-204 999,-204 999,-185 872,-185"/>
<text text-anchor="middle" x="935.5" y="-192" font-family="Helvetica,sans-Serif" font-size="10.00">engine/Object/Object.cpp</text>
</a>
</g>
</g>
<!-- Node8&#45;&gt;Node24 -->
<g id="edge25" class="edge"><title>Node8&#45;&gt;Node24</title>
<path fill="none" stroke="midnightblue" d="M883.106,-244.856C896.671,-232.078 915.34,-214.492 926.342,-204.127"/>
<polygon fill="midnightblue" stroke="midnightblue" points="880.685,-242.329 875.806,-251.734 885.485,-247.424 880.685,-242.329"/>
</g>
<!-- Node25 -->
<g id="node25" class="node"><title>Node25</title>
<g id="a_node25"><a xlink:href="../../da/daf/PerspectiveCamera_8cpp.html" target="_top" xlink:title="engine/PerspectiveCamera\l/PerspectiveCamera.cpp">
<polygon fill="none" stroke="black" points="1017.5,-179.5 1017.5,-209.5 1151.5,-209.5 1151.5,-179.5 1017.5,-179.5"/>
<text text-anchor="start" x="1025.5" y="-197.5" font-family="Helvetica,sans-Serif" font-size="10.00">engine/PerspectiveCamera</text>
<text text-anchor="middle" x="1084.5" y="-186.5" font-family="Helvetica,sans-Serif" font-size="10.00">/PerspectiveCamera.cpp</text>
</a>
</g>
</g>
<!-- Node8&#45;&gt;Node25 -->
<g id="edge26" class="edge"><title>Node8&#45;&gt;Node25</title>
<path fill="none" stroke="midnightblue" d="M905.349,-248.917C942.313,-237.895 997.992,-221.294 1037.45,-209.528"/>
<polygon fill="midnightblue" stroke="midnightblue" points="904.032,-245.657 895.449,-251.869 906.032,-252.365 904.032,-245.657"/>
</g>
<!-- Node26 -->
<g id="node26" class="node"><title>Node26</title>
<g id="a_node26"><a xlink:href="../../de/d15/Scene_8cpp.html" target="_top" xlink:title="engine/Scene/Scene.cpp">
<polygon fill="none" stroke="black" points="1170,-185 1170,-204 1295,-204 1295,-185 1170,-185"/>
<text text-anchor="middle" x="1232.5" y="-192" font-family="Helvetica,sans-Serif" font-size="10.00">engine/Scene/Scene.cpp</text>
</a>
</g>
</g>
<!-- Node8&#45;&gt;Node26 -->
<g id="edge27" class="edge"><title>Node8&#45;&gt;Node26</title>
<path fill="none" stroke="midnightblue" d="M916.969,-249.926C923.859,-248.56 930.848,-247.216 937.5,-246 1036.26,-227.952 1061.72,-227.914 1160.5,-210 1170.54,-208.18 1181.33,-206.081 1191.43,-204.056"/>
<polygon fill="midnightblue" stroke="midnightblue" points="916.109,-246.528 906.994,-251.929 917.487,-253.391 916.109,-246.528"/>
</g>
<!-- Node11 -->
<g id="node11" class="node"><title>Node11</title>
<g id="a_node11"><a xlink:href="../../dd/d98/GameEngine_8cpp.html" target="_top" xlink:title="engine/GameEngine/GameEngine.cpp">
<polygon fill="none" stroke="black" points="376.5,-123.5 376.5,-142.5 558.5,-142.5 558.5,-123.5 376.5,-123.5"/>
<text text-anchor="middle" x="467.5" y="-130.5" font-family="Helvetica,sans-Serif" font-size="10.00">engine/GameEngine/GameEngine.cpp</text>
</a>
</g>
</g>
<!-- Node10&#45;&gt;Node11 -->
<g id="edge11" class="edge"><title>Node10&#45;&gt;Node11</title>
<path fill="none" stroke="midnightblue" d="M599.452,-181.583C567.379,-170.017 519.502,-152.752 491.097,-142.509"/>
<polygon fill="midnightblue" stroke="midnightblue" points="598.265,-184.875 608.86,-184.975 600.64,-178.29 598.265,-184.875"/>
</g>
<!-- Node12 -->
<g id="node12" class="node"><title>Node12</title>
<g id="a_node12"><a xlink:href="../../d0/d5e/glwindow_8hpp.html" target="_top" xlink:title="window/glwindow.hpp">
<polygon fill="none" stroke="black" points="576.5,-123.5 576.5,-142.5 688.5,-142.5 688.5,-123.5 576.5,-123.5"/>
<text text-anchor="middle" x="632.5" y="-130.5" font-family="Helvetica,sans-Serif" font-size="10.00">window/glwindow.hpp</text>
</a>
</g>
</g>
<!-- Node10&#45;&gt;Node12 -->
<g id="edge12" class="edge"><title>Node10&#45;&gt;Node12</title>
<path fill="none" stroke="midnightblue" d="M632.5,-174.817C632.5,-163.996 632.5,-150.898 632.5,-142.509"/>
<polygon fill="midnightblue" stroke="midnightblue" points="629,-174.975 632.5,-184.975 636,-174.975 629,-174.975"/>
</g>
<!-- Node19 -->
<g id="node19" class="node"><title>Node19</title>
<g id="a_node19"><a xlink:href="../../d3/d1f/glwindow_8cpp.html" target="_top" xlink:title="window/glwindow.cpp">
<polygon fill="none" stroke="black" points="970.5,-62 970.5,-81 1082.5,-81 1082.5,-62 970.5,-62"/>
<text text-anchor="middle" x="1026.5" y="-69" font-family="Helvetica,sans-Serif" font-size="10.00">window/glwindow.cpp</text>
</a>
</g>
</g>
<!-- Node10&#45;&gt;Node19 -->
<g id="edge23" class="edge"><title>Node10&#45;&gt;Node19</title>
<path fill="none" stroke="midnightblue" d="M670.172,-181.931C748.873,-157.761 929.164,-102.392 998.562,-81.0799"/>
<polygon fill="midnightblue" stroke="midnightblue" points="668.737,-178.71 660.205,-184.992 670.792,-185.401 668.737,-178.71"/>
</g>
<!-- Node13 -->
<g id="node13" class="node"><title>Node13</title>
<g id="a_node13"><a xlink:href="../../d8/d49/ArrayObject_8cpp.html" target="_top" xlink:title="engine/ArrayObject\l/ArrayObject.cpp">
<polygon fill="none" stroke="black" points="852.5,-56.5 852.5,-86.5 952.5,-86.5 952.5,-56.5 852.5,-56.5"/>
<text text-anchor="start" x="860.5" y="-74.5" font-family="Helvetica,sans-Serif" font-size="10.00">engine/ArrayObject</text>
<text text-anchor="middle" x="902.5" y="-63.5" font-family="Helvetica,sans-Serif" font-size="10.00">/ArrayObject.cpp</text>
</a>
</g>
</g>
<!-- Node12&#45;&gt;Node13 -->
<g id="edge13" class="edge"><title>Node12&#45;&gt;Node13</title>
<path fill="none" stroke="midnightblue" d="M683.857,-121.384C726.425,-112.492 788.483,-99.3124 842.5,-87 845.739,-86.2617 849.073,-85.4896 852.433,-84.7027"/>
<polygon fill="midnightblue" stroke="midnightblue" points="683.085,-117.97 674.01,-123.438 684.513,-124.823 683.085,-117.97"/>
</g>
<!-- Node14 -->
<g id="node14" class="node"><title>Node14</title>
<g id="a_node14"><a xlink:href="../../db/d2b/BufferObject_8cpp.html" target="_top" xlink:title="engine/BufferObject\l/BufferObject.cpp">
<polygon fill="none" stroke="black" points="0,-56.5 0,-86.5 103,-86.5 103,-56.5 0,-56.5"/>
<text text-anchor="start" x="8" y="-74.5" font-family="Helvetica,sans-Serif" font-size="10.00">engine/BufferObject</text>
<text text-anchor="middle" x="51.5" y="-63.5" font-family="Helvetica,sans-Serif" font-size="10.00">/BufferObject.cpp</text>
</a>
</g>
</g>
<!-- Node12&#45;&gt;Node14 -->
<g id="edge14" class="edge"><title>Node12&#45;&gt;Node14</title>
<path fill="none" stroke="midnightblue" d="M566.109,-122.916C364.089,-101.63 309.657,-118.042 112.5,-87 109.489,-86.526 106.407,-85.9821 103.306,-85.3895"/>
<polygon fill="midnightblue" stroke="midnightblue" points="565.839,-126.407 576.155,-123.992 566.585,-119.447 565.839,-126.407"/>
</g>
<!-- Node15 -->
<g id="node15" class="node"><title>Node15</title>
<g id="a_node15"><a xlink:href="../../d2/dcc/Mesh_8cpp.html" target="_top" xlink:title="engine/Mesh/Mesh.cpp">
<polygon fill="none" stroke="black" points="121.5,-62 121.5,-81 239.5,-81 239.5,-62 121.5,-62"/>
<text text-anchor="middle" x="180.5" y="-69" font-family="Helvetica,sans-Serif" font-size="10.00">engine/Mesh/Mesh.cpp</text>
</a>
</g>
</g>
<!-- Node12&#45;&gt;Node15 -->
<g id="edge15" class="edge"><title>Node12&#45;&gt;Node15</title>
<path fill="none" stroke="midnightblue" d="M566.517,-122.913C424.238,-105.411 386.164,-109.39 248.5,-87 238.373,-85.3529 227.474,-83.201 217.433,-81.0611"/>
<polygon fill="midnightblue" stroke="midnightblue" points="566.136,-126.392 576.492,-124.154 567.001,-119.446 566.136,-126.392"/>
</g>
<!-- Node16 -->
<g id="node16" class="node"><title>Node16</title>
<g id="a_node16"><a xlink:href="../../d3/d28/Renderer_8cpp.html" target="_top" xlink:title="engine/Renderer/Renderer.cpp">
<polygon fill="none" stroke="black" points="258,-62 258,-81 407,-81 407,-62 258,-62"/>
<text text-anchor="middle" x="332.5" y="-69" font-family="Helvetica,sans-Serif" font-size="10.00">engine/Renderer/Renderer.cpp</text>
</a>
</g>
</g>
<!-- Node12&#45;&gt;Node16 -->
<g id="edge16" class="edge"><title>Node12&#45;&gt;Node16</title>
<path fill="none" stroke="midnightblue" d="M579.428,-121.474C521.287,-109.943 429.165,-91.6719 375.403,-81.0091"/>
<polygon fill="midnightblue" stroke="midnightblue" points="579.027,-124.963 589.517,-123.475 580.389,-118.096 579.027,-124.963"/>
</g>
<!-- Node17 -->
<g id="node17" class="node"><title>Node17</title>
<g id="a_node17"><a xlink:href="../../dd/d84/Shader_8cpp.html" target="_top" xlink:title="engine/Shader/Shader.cpp">
<polygon fill="none" stroke="black" points="425,-62 425,-81 556,-81 556,-62 425,-62"/>
<text text-anchor="middle" x="490.5" y="-69" font-family="Helvetica,sans-Serif" font-size="10.00">engine/Shader/Shader.cpp</text>
</a>
</g>
</g>
<!-- Node12&#45;&gt;Node17 -->
<g id="edge17" class="edge"><title>Node12&#45;&gt;Node17</title>
<path fill="none" stroke="midnightblue" d="M602.619,-119.48C575.041,-107.924 534.832,-91.0758 510.807,-81.0091"/>
<polygon fill="midnightblue" stroke="midnightblue" points="601.579,-122.839 612.155,-123.475 604.284,-116.382 601.579,-122.839"/>
</g>
<!-- Node18 -->
<g id="node18" class="node"><title>Node18</title>
<g id="a_node18"><a xlink:href="../../de/d34/ShaderProgram_8cpp.html" target="_top" xlink:title="engine/ShaderProgram\l/ShaderProgram.cpp">
<polygon fill="none" stroke="black" points="574.5,-56.5 574.5,-86.5 690.5,-86.5 690.5,-56.5 574.5,-56.5"/>
<text text-anchor="start" x="582.5" y="-74.5" font-family="Helvetica,sans-Serif" font-size="10.00">engine/ShaderProgram</text>
<text text-anchor="middle" x="632.5" y="-63.5" font-family="Helvetica,sans-Serif" font-size="10.00">/ShaderProgram.cpp</text>
</a>
</g>
</g>
<!-- Node12&#45;&gt;Node18 -->
<g id="edge18" class="edge"><title>Node12&#45;&gt;Node18</title>
<path fill="none" stroke="midnightblue" d="M632.5,-113.235C632.5,-104.586 632.5,-94.4969 632.5,-86.523"/>
<polygon fill="midnightblue" stroke="midnightblue" points="629,-113.475 632.5,-123.475 636,-113.475 629,-113.475"/>
</g>
<!-- Node12&#45;&gt;Node19 -->
<g id="edge19" class="edge"><title>Node12&#45;&gt;Node19</title>
<path fill="none" stroke="midnightblue" d="M698.551,-124.611C765.163,-116.773 870.828,-103.285 961.5,-87 971.059,-85.2831 981.343,-83.1318 990.848,-81.016"/>
<polygon fill="midnightblue" stroke="midnightblue" points="698.134,-121.136 688.608,-125.773 698.947,-128.088 698.134,-121.136"/>
</g>
<!-- Node20 -->
<g id="node20" class="node"><title>Node20</title>
<g id="a_node20"><a xlink:href="../../df/d50/mainwindow_8hpp.html" target="_top" xlink:title="window/mainwindow.hpp">
<polygon fill="none" stroke="black" points="709,-62 709,-81 834,-81 834,-62 709,-62"/>
<text text-anchor="middle" x="771.5" y="-69" font-family="Helvetica,sans-Serif" font-size="10.00">window/mainwindow.hpp</text>
</a>
</g>
</g>
<!-- Node12&#45;&gt;Node20 -->
<g id="edge20" class="edge"><title>Node12&#45;&gt;Node20</title>
<path fill="none" stroke="midnightblue" d="M661.75,-119.48C688.745,-107.924 728.104,-91.0758 751.622,-81.0091"/>
<polygon fill="midnightblue" stroke="midnightblue" points="660.231,-116.322 652.415,-123.475 662.986,-122.757 660.231,-116.322"/>
</g>
<!-- Node21 -->
<g id="node21" class="node"><title>Node21</title>
<g id="a_node21"><a xlink:href="../../df/d0a/main_8cpp.html" target="_top" xlink:title="TODO. ">
<polygon fill="none" stroke="black" points="689.5,-0.5 689.5,-19.5 745.5,-19.5 745.5,-0.5 689.5,-0.5"/>
<text text-anchor="middle" x="717.5" y="-7.5" font-family="Helvetica,sans-Serif" font-size="10.00">main.cpp</text>
</a>
</g>
</g>
<!-- Node20&#45;&gt;Node21 -->
<g id="edge21" class="edge"><title>Node20&#45;&gt;Node21</title>
<path fill="none" stroke="midnightblue" d="M756.977,-54.4975C746.756,-43.2356 733.477,-28.6044 725.223,-19.5091"/>
<polygon fill="midnightblue" stroke="midnightblue" points="754.451,-56.9222 763.763,-61.9751 759.634,-52.2178 754.451,-56.9222"/>
</g>
<!-- Node22 -->
<g id="node22" class="node"><title>Node22</title>
<g id="a_node22"><a xlink:href="../../d8/dd9/mainwindow_8cpp.html" target="_top" xlink:title="window/mainwindow.cpp">
<polygon fill="none" stroke="black" points="763,-0.5 763,-19.5 888,-19.5 888,-0.5 763,-0.5"/>
<text text-anchor="middle" x="825.5" y="-7.5" font-family="Helvetica,sans-Serif" font-size="10.00">window/mainwindow.cpp</text>
</a>
</g>
</g>
<!-- Node20&#45;&gt;Node22 -->
<g id="edge22" class="edge"><title>Node20&#45;&gt;Node22</title>
<path fill="none" stroke="midnightblue" d="M786.023,-54.4975C796.244,-43.2356 809.523,-28.6044 817.777,-19.5091"/>
<polygon fill="midnightblue" stroke="midnightblue" points="783.366,-52.2178 779.237,-61.9751 788.549,-56.9222 783.366,-52.2178"/>
</g>
<!-- Node27&#45;&gt;Node5 -->
<g id="edge30" class="edge"><title>Node27&#45;&gt;Node5</title>
<path fill="none" stroke="midnightblue" d="M1062.35,-306.024C1052.82,-296.34 1041.83,-285.174 1033.36,-276.577"/>
<polygon fill="midnightblue" stroke="midnightblue" points="1060.1,-308.726 1069.61,-313.396 1065.09,-303.815 1060.1,-308.726"/>
</g>
</g>
</svg>
