<?xml version="1.0" encoding="UTF-8" standalone="no"?>
<!DOCTYPE svg PUBLIC "-//W3C//DTD SVG 1.1//EN"
 "http://www.w3.org/Graphics/SVG/1.1/DTD/svg11.dtd">
<!-- Generated by graphviz version 2.38.0 (20140413.2041)
 -->
<!-- Title: Core/Light.cpp Pages: 1 -->
<svg width="573pt" height="84pt"
 viewBox="0.00 0.00 572.50 84.00" xmlns="http://www.w3.org/2000/svg" xmlns:xlink="http://www.w3.org/1999/xlink">
<g id="graph0" class="graph" transform="scale(1 1) rotate(0) translate(4 80)">
<title>Core/Light.cpp</title>
<!-- Node1 -->
<g id="node1" class="node"><title>Node1</title>
<polygon fill="#bfbfbf" stroke="black" points="208.5,-56.5 208.5,-75.5 288.5,-75.5 288.5,-56.5 208.5,-56.5"/>
<text text-anchor="middle" x="248.5" y="-63.5" font-family="Helvetica,sans-Serif" font-size="10.00">Core/Light.cpp</text>
</g>
<!-- Node2 -->
<g id="node2" class="node"><title>Node2</title>
<polygon fill="none" stroke="#bfbfbf" points="0,-0.5 0,-19.5 107,-19.5 107,-0.5 0,-0.5"/>
<text text-anchor="middle" x="53.5" y="-7.5" font-family="Helvetica,sans-Serif" font-size="10.00">log4cpp/Category.hh</text>
</g>
<!-- Node1&#45;&gt;Node2 -->
<g id="edge1" class="edge"><title>Node1&#45;&gt;Node2</title>
<path fill="none" stroke="midnightblue" d="M217.602,-56.4435C184.226,-47.2011 130.906,-32.4356 94.151,-22.2572"/>
<polygon fill="midnightblue" stroke="midnightblue" points="94.8252,-18.8122 84.2538,-19.5164 92.957,-25.5583 94.8252,-18.8122"/>
</g>
<!-- Node3 -->
<g id="node3" class="node"><title>Node3</title>
<polygon fill="none" stroke="#bfbfbf" points="125,-0.5 125,-19.5 238,-19.5 238,-0.5 125,-0.5"/>
<text text-anchor="middle" x="181.5" y="-7.5" font-family="Helvetica,sans-Serif" font-size="10.00">Engine/Core/Light.hpp</text>
</g>
<!-- Node1&#45;&gt;Node3 -->
<g id="edge2" class="edge"><title>Node1&#45;&gt;Node3</title>
<path fill="none" stroke="midnightblue" d="M237.735,-56.324C227.734,-48.2631 212.613,-36.0765 200.57,-26.3695"/>
<polygon fill="midnightblue" stroke="midnightblue" points="202.443,-23.3841 192.461,-19.8339 198.05,-28.8343 202.443,-23.3841"/>
</g>
<!-- Node4 -->
<g id="node4" class="node"><title>Node4</title>
<polygon fill="none" stroke="#bfbfbf" points="256.5,-0.5 256.5,-19.5 376.5,-19.5 376.5,-0.5 256.5,-0.5"/>
<text text-anchor="middle" x="316.5" y="-7.5" font-family="Helvetica,sans-Serif" font-size="10.00">Engine/Core/Scene.hpp</text>
</g>
<!-- Node1&#45;&gt;Node4 -->
<g id="edge3" class="edge"><title>Node1&#45;&gt;Node4</title>
<path fill="none" stroke="midnightblue" d="M259.425,-56.324C269.675,-48.1849 285.221,-35.8395 297.501,-26.0874"/>
<polygon fill="midnightblue" stroke="midnightblue" points="299.721,-28.7937 305.376,-19.8339 295.368,-23.3119 299.721,-28.7937"/>
</g>
<!-- Node5 -->
<g id="node5" class="node"><title>Node5</title>
<polygon fill="none" stroke="#bfbfbf" points="394.5,-0.5 394.5,-19.5 564.5,-19.5 564.5,-0.5 394.5,-0.5"/>
<text text-anchor="middle" x="479.5" y="-7.5" font-family="Helvetica,sans-Serif" font-size="10.00">Engine/Core/SceneGraphNode.hpp</text>
</g>
<!-- Node1&#45;&gt;Node5 -->
<g id="edge4" class="edge"><title>Node1&#45;&gt;Node5</title>
<path fill="none" stroke="midnightblue" d="M285.103,-56.4435C325.231,-47.0629 389.698,-31.9926 433.285,-21.8036"/>
<polygon fill="midnightblue" stroke="midnightblue" points="434.128,-25.2009 443.069,-19.5164 432.534,-18.3847 434.128,-25.2009"/>
</g>
</g>
</svg>
