<?xml version="1.0" encoding="UTF-8" standalone="no"?>
<!DOCTYPE svg PUBLIC "-//W3C//DTD SVG 1.1//EN"
 "http://www.w3.org/Graphics/SVG/1.1/DTD/svg11.dtd">
<!-- Generated by graphviz version 2.38.0 (20140413.2041)
 -->
<!-- Title: engine/Light/Light.cpp Pages: 1 -->
<svg width="1705pt" height="308pt"
 viewBox="0.00 0.00 1704.50 308.00" xmlns="http://www.w3.org/2000/svg" xmlns:xlink="http://www.w3.org/1999/xlink">
<g id="graph0" class="graph" transform="scale(1 1) rotate(0) translate(4 304)">
<title>engine/Light/Light.cpp</title>
<!-- Node1 -->
<g id="node1" class="node"><title>Node1</title>
<polygon fill="#bfbfbf" stroke="black" points="79.5,-280.5 79.5,-299.5 191.5,-299.5 191.5,-280.5 79.5,-280.5"/>
<text text-anchor="middle" x="135.5" y="-287.5" font-family="Helvetica,sans-Serif" font-size="10.00">engine/Light/Light.cpp</text>
</g>
<!-- Node2 -->
<g id="node2" class="node"><title>Node2</title>
<polygon fill="none" stroke="#bfbfbf" points="0,-224.5 0,-243.5 107,-243.5 107,-224.5 0,-224.5"/>
<text text-anchor="middle" x="53.5" y="-231.5" font-family="Helvetica,sans-Serif" font-size="10.00">log4cpp/Category.hh</text>
</g>
<!-- Node1&#45;&gt;Node2 -->
<g id="edge1" class="edge"><title>Node1&#45;&gt;Node2</title>
<path fill="none" stroke="midnightblue" d="M122.325,-280.324C109.653,-271.979 90.2666,-259.212 75.2944,-249.352"/>
<polygon fill="midnightblue" stroke="midnightblue" points="76.9187,-246.231 66.642,-243.655 73.0688,-252.078 76.9187,-246.231"/>
</g>
<!-- Node3 -->
<g id="node3" class="node"><title>Node3</title>
<g id="a_node3"><a xlink:href="../../d5/dd5/Light_8hpp.html" target="_top" xlink:title="Light.hpp">
<polygon fill="none" stroke="black" points="114.5,-112.5 114.5,-131.5 170.5,-131.5 170.5,-112.5 114.5,-112.5"/>
<text text-anchor="middle" x="142.5" y="-119.5" font-family="Helvetica,sans-Serif" font-size="10.00">Light.hpp</text>
</a>
</g>
</g>
<!-- Node1&#45;&gt;Node3 -->
<g id="edge2" class="edge"><title>Node1&#45;&gt;Node3</title>
<path fill="none" stroke="midnightblue" d="M135.876,-280.075C136.978,-253.945 140.214,-177.211 141.717,-141.577"/>
<polygon fill="midnightblue" stroke="midnightblue" points="145.214,-141.707 142.139,-131.568 138.22,-141.412 145.214,-141.707"/>
</g>
<!-- Node7 -->
<g id="node7" class="node"><title>Node7</title>
<g id="a_node7"><a xlink:href="../../db/de8/Scene_8hpp.html" target="_top" xlink:title="Scene.hpp">
<polygon fill="none" stroke="black" points="491,-224.5 491,-243.5 554,-243.5 554,-224.5 491,-224.5"/>
<text text-anchor="middle" x="522.5" y="-231.5" font-family="Helvetica,sans-Serif" font-size="10.00">Scene.hpp</text>
</a>
</g>
</g>
<!-- Node1&#45;&gt;Node7 -->
<g id="edge7" class="edge"><title>Node1&#45;&gt;Node7</title>
<path fill="none" stroke="midnightblue" d="M191.773,-281.148C270.137,-270.213 410.366,-250.647 480.354,-240.881"/>
<polygon fill="midnightblue" stroke="midnightblue" points="481.139,-244.305 490.559,-239.457 480.171,-237.373 481.139,-244.305"/>
</g>
<!-- Node4 -->
<g id="node4" class="node"><title>Node4</title>
<polygon fill="none" stroke="#bfbfbf" points="274,-0.5 274,-19.5 315,-19.5 315,-0.5 274,-0.5"/>
<text text-anchor="middle" x="294.5" y="-7.5" font-family="Helvetica,sans-Serif" font-size="10.00">string</text>
</g>
<!-- Node3&#45;&gt;Node4 -->
<g id="edge3" class="edge"><title>Node3&#45;&gt;Node4</title>
<path fill="none" stroke="midnightblue" d="M170.681,-112.792C201.046,-103.514 246.857,-88.1258 260.5,-76 274.457,-63.5949 283.58,-44.0769 288.827,-29.6633"/>
<polygon fill="midnightblue" stroke="midnightblue" points="292.26,-30.4321 292.101,-19.8385 285.619,-28.2194 292.26,-30.4321"/>
</g>
<!-- Node5 -->
<g id="node5" class="node"><title>Node5</title>
<polygon fill="none" stroke="#bfbfbf" points="96,-56.5 96,-75.5 173,-75.5 173,-56.5 96,-56.5"/>
<text text-anchor="middle" x="134.5" y="-63.5" font-family="Helvetica,sans-Serif" font-size="10.00">assimp/light.h</text>
</g>
<!-- Node3&#45;&gt;Node5 -->
<g id="edge4" class="edge"><title>Node3&#45;&gt;Node5</title>
<path fill="none" stroke="midnightblue" d="M141.179,-112.083C140.119,-104.927 138.594,-94.6353 137.269,-85.6911"/>
<polygon fill="midnightblue" stroke="midnightblue" points="140.724,-85.1302 135.796,-75.7511 133.8,-86.1561 140.724,-85.1302"/>
</g>
<!-- Node6 -->
<g id="node6" class="node"><title>Node6</title>
<g id="a_node6"><a xlink:href="../../de/da6/Entity_8hpp.html" target="_top" xlink:title="Entity.hpp">
<polygon fill="none" stroke="black" points="191,-56.5 191,-75.5 252,-75.5 252,-56.5 191,-56.5"/>
<text text-anchor="middle" x="221.5" y="-63.5" font-family="Helvetica,sans-Serif" font-size="10.00">Entity.hpp</text>
</a>
</g>
</g>
<!-- Node3&#45;&gt;Node6 -->
<g id="edge5" class="edge"><title>Node3&#45;&gt;Node6</title>
<path fill="none" stroke="midnightblue" d="M155.193,-112.324C167.401,-103.979 186.078,-91.2122 200.503,-81.3524"/>
<polygon fill="midnightblue" stroke="midnightblue" points="202.558,-84.1871 208.839,-75.6545 198.608,-78.4082 202.558,-84.1871"/>
</g>
<!-- Node6&#45;&gt;Node4 -->
<g id="edge6" class="edge"><title>Node6&#45;&gt;Node4</title>
<path fill="none" stroke="midnightblue" d="M233.229,-56.324C244.337,-48.1066 261.242,-35.6017 274.483,-25.8069"/>
<polygon fill="midnightblue" stroke="midnightblue" points="276.6,-28.5948 282.558,-19.8339 272.437,-22.9671 276.6,-28.5948"/>
</g>
<!-- Node8 -->
<g id="node8" class="node"><title>Node8</title>
<polygon fill="none" stroke="#bfbfbf" points="956.5,-56.5 956.5,-75.5 1008.5,-75.5 1008.5,-56.5 956.5,-56.5"/>
<text text-anchor="middle" x="982.5" y="-63.5" font-family="Helvetica,sans-Serif" font-size="10.00">memory</text>
</g>
<!-- Node7&#45;&gt;Node8 -->
<g id="edge8" class="edge"><title>Node7&#45;&gt;Node8</title>
<path fill="none" stroke="midnightblue" d="M554.075,-233.371C621.778,-233.312 785.253,-228.565 914.5,-188 964.588,-172.28 991.58,-177.07 1018.5,-132 1028.45,-115.336 1014.27,-95.8054 1000.88,-82.535"/>
<polygon fill="midnightblue" stroke="midnightblue" points="1003,-79.7286 993.283,-75.514 998.254,-84.8705 1003,-79.7286"/>
</g>
<!-- Node9 -->
<g id="node9" class="node"><title>Node9</title>
<polygon fill="none" stroke="#bfbfbf" points="195,-112.5 195,-131.5 224,-131.5 224,-112.5 195,-112.5"/>
<text text-anchor="middle" x="209.5" y="-119.5" font-family="Helvetica,sans-Serif" font-size="10.00">list</text>
</g>
<!-- Node7&#45;&gt;Node9 -->
<g id="edge9" class="edge"><title>Node7&#45;&gt;Node9</title>
<path fill="none" stroke="midnightblue" d="M490.691,-230.572C446.798,-226.327 365.898,-215.245 302.5,-188 273.571,-175.568 244.511,-153.32 226.762,-138.36"/>
<polygon fill="midnightblue" stroke="midnightblue" points="228.867,-135.554 219.007,-131.677 224.297,-140.857 228.867,-135.554"/>
</g>
<!-- Node10 -->
<g id="node10" class="node"><title>Node10</title>
<g id="a_node10"><a xlink:href="../../dd/db8/Renderer_8hpp.html" target="_top" xlink:title="Renderer.hpp">
<polygon fill="none" stroke="black" points="312,-168.5 312,-187.5 387,-187.5 387,-168.5 312,-168.5"/>
<text text-anchor="middle" x="349.5" y="-175.5" font-family="Helvetica,sans-Serif" font-size="10.00">Renderer.hpp</text>
</a>
</g>
</g>
<!-- Node7&#45;&gt;Node10 -->
<g id="edge10" class="edge"><title>Node7&#45;&gt;Node10</title>
<path fill="none" stroke="midnightblue" d="M495.088,-224.444C465.731,-215.28 418.981,-200.688 386.404,-190.519"/>
<polygon fill="midnightblue" stroke="midnightblue" points="387.373,-187.155 376.784,-187.516 385.287,-193.837 387.373,-187.155"/>
</g>
<!-- Node11 -->
<g id="node11" class="node"><title>Node11</title>
<g id="a_node11"><a xlink:href="../../de/dbe/SpatialGraph_8hpp.html" target="_top" xlink:title="SpatialGraph.hpp">
<polygon fill="none" stroke="black" points="163.5,-168.5 163.5,-187.5 255.5,-187.5 255.5,-168.5 163.5,-168.5"/>
<text text-anchor="middle" x="209.5" y="-175.5" font-family="Helvetica,sans-Serif" font-size="10.00">SpatialGraph.hpp</text>
</a>
</g>
</g>
<!-- Node7&#45;&gt;Node11 -->
<g id="edge12" class="edge"><title>Node7&#45;&gt;Node11</title>
<path fill="none" stroke="midnightblue" d="M490.765,-227.525C438.025,-218.426 331.641,-200.072 265.889,-188.728"/>
<polygon fill="midnightblue" stroke="midnightblue" points="266.149,-185.222 255.699,-186.97 264.959,-192.12 266.149,-185.222"/>
</g>
<!-- Node12 -->
<g id="node12" class="node"><title>Node12</title>
<g id="a_node12"><a xlink:href="../../d8/d58/SceneGraph_8hpp.html" target="_top" xlink:title="SceneGraph.hpp">
<polygon fill="none" stroke="black" points="405,-168.5 405,-187.5 494,-187.5 494,-168.5 405,-168.5"/>
<text text-anchor="middle" x="449.5" y="-175.5" font-family="Helvetica,sans-Serif" font-size="10.00">SceneGraph.hpp</text>
</a>
</g>
</g>
<!-- Node7&#45;&gt;Node12 -->
<g id="edge14" class="edge"><title>Node7&#45;&gt;Node12</title>
<path fill="none" stroke="midnightblue" d="M510.771,-224.324C499.663,-216.107 482.758,-203.602 469.517,-193.807"/>
<polygon fill="midnightblue" stroke="midnightblue" points="471.563,-190.967 461.442,-187.834 467.4,-196.595 471.563,-190.967"/>
</g>
<!-- Node14 -->
<g id="node14" class="node"><title>Node14</title>
<g id="a_node14"><a xlink:href="../../d1/d93/ShaderProgramLibrary_8hpp.html" target="_top" xlink:title="ShaderProgramLibrary.hpp">
<polygon fill="none" stroke="black" points="550.5,-168.5 550.5,-187.5 682.5,-187.5 682.5,-168.5 550.5,-168.5"/>
<text text-anchor="middle" x="616.5" y="-175.5" font-family="Helvetica,sans-Serif" font-size="10.00">ShaderProgramLibrary.hpp</text>
</a>
</g>
</g>
<!-- Node7&#45;&gt;Node14 -->
<g id="edge16" class="edge"><title>Node7&#45;&gt;Node14</title>
<path fill="none" stroke="midnightblue" d="M537.603,-224.324C552.403,-215.822 575.194,-202.729 592.482,-192.797"/>
<polygon fill="midnightblue" stroke="midnightblue" points="594.507,-195.671 601.435,-187.655 591.02,-189.601 594.507,-195.671"/>
</g>
<!-- Node24 -->
<g id="node24" class="node"><title>Node24</title>
<g id="a_node24"><a xlink:href="../../d2/d26/MaterialLibrary_8hpp.html" target="_top" xlink:title="MaterialLibrary.hpp">
<polygon fill="none" stroke="black" points="1237,-168.5 1237,-187.5 1336,-187.5 1336,-168.5 1237,-168.5"/>
<text text-anchor="middle" x="1286.5" y="-175.5" font-family="Helvetica,sans-Serif" font-size="10.00">MaterialLibrary.hpp</text>
</a>
</g>
</g>
<!-- Node7&#45;&gt;Node24 -->
<g id="edge34" class="edge"><title>Node7&#45;&gt;Node24</title>
<path fill="none" stroke="midnightblue" d="M554.355,-230.748C670.648,-222.529 1073.47,-194.057 1226.7,-183.227"/>
<polygon fill="midnightblue" stroke="midnightblue" points="1227.13,-186.705 1236.86,-182.508 1226.64,-179.722 1227.13,-186.705"/>
</g>
<!-- Node27 -->
<g id="node27" class="node"><title>Node27</title>
<g id="a_node27"><a xlink:href="../../d1/da3/AnimationLibrary_8hpp.html" target="_top" xlink:title="AnimationLibrary.hpp">
<polygon fill="none" stroke="black" points="346.5,-112.5 346.5,-131.5 454.5,-131.5 454.5,-112.5 346.5,-112.5"/>
<text text-anchor="middle" x="400.5" y="-119.5" font-family="Helvetica,sans-Serif" font-size="10.00">AnimationLibrary.hpp</text>
</a>
</g>
</g>
<!-- Node7&#45;&gt;Node27 -->
<g id="edge41" class="edge"><title>Node7&#45;&gt;Node27</title>
<path fill="none" stroke="midnightblue" d="M522.07,-224.32C520.953,-210.71 516.937,-184.233 502.5,-168 488.415,-152.163 467.718,-141.641 448.642,-134.785"/>
<polygon fill="midnightblue" stroke="midnightblue" points="449.746,-131.463 439.152,-131.616 447.528,-138.103 449.746,-131.463"/>
</g>
<!-- Node30 -->
<g id="node30" class="node"><title>Node30</title>
<g id="a_node30"><a xlink:href="../../dd/de2/MeshLibrary_8hpp.html" target="_top" xlink:title="MeshLibrary.hpp">
<polygon fill="none" stroke="black" points="701,-168.5 701,-187.5 790,-187.5 790,-168.5 701,-168.5"/>
<text text-anchor="middle" x="745.5" y="-175.5" font-family="Helvetica,sans-Serif" font-size="10.00">MeshLibrary.hpp</text>
</a>
</g>
</g>
<!-- Node7&#45;&gt;Node30 -->
<g id="edge47" class="edge"><title>Node7&#45;&gt;Node30</title>
<path fill="none" stroke="midnightblue" d="M554.45,-225.263C592.693,-216.003 656.986,-200.434 700.307,-189.944"/>
<polygon fill="midnightblue" stroke="midnightblue" points="701.402,-193.28 710.298,-187.524 699.755,-186.476 701.402,-193.28"/>
</g>
<!-- Node35 -->
<g id="node35" class="node"><title>Node35</title>
<g id="a_node35"><a xlink:href="../../dc/d23/TextureLibrary_8hpp.html" target="_top" xlink:title="TextureLibrary.hpp">
<polygon fill="none" stroke="black" points="807.5,-168.5 807.5,-187.5 905.5,-187.5 905.5,-168.5 807.5,-168.5"/>
<text text-anchor="middle" x="856.5" y="-175.5" font-family="Helvetica,sans-Serif" font-size="10.00">TextureLibrary.hpp</text>
</a>
</g>
</g>
<!-- Node7&#45;&gt;Node35 -->
<g id="edge58" class="edge"><title>Node7&#45;&gt;Node35</title>
<path fill="none" stroke="midnightblue" d="M554.223,-227.871C609.941,-218.863 726.192,-200.068 797.182,-188.59"/>
<polygon fill="midnightblue" stroke="midnightblue" points="798.001,-192.003 807.315,-186.952 796.884,-185.093 798.001,-192.003"/>
</g>
<!-- Node10&#45;&gt;Node9 -->
<g id="edge11" class="edge"><title>Node10&#45;&gt;Node9</title>
<path fill="none" stroke="midnightblue" d="M327.317,-168.444C301.86,-158.624 260.241,-142.572 233.891,-132.408"/>
<polygon fill="midnightblue" stroke="midnightblue" points="234.868,-129.034 224.279,-128.7 232.349,-135.565 234.868,-129.034"/>
</g>
<!-- Node11&#45;&gt;Node9 -->
<g id="edge13" class="edge"><title>Node11&#45;&gt;Node9</title>
<path fill="none" stroke="midnightblue" d="M209.5,-168.083C209.5,-161.006 209.5,-150.861 209.5,-141.986"/>
<polygon fill="midnightblue" stroke="midnightblue" points="213,-141.751 209.5,-131.751 206,-141.751 213,-141.751"/>
</g>
<!-- Node13 -->
<g id="node13" class="node"><title>Node13</title>
<polygon fill="none" stroke="#bfbfbf" points="242.5,-112.5 242.5,-131.5 328.5,-131.5 328.5,-112.5 242.5,-112.5"/>
<text text-anchor="middle" x="285.5" y="-119.5" font-family="Helvetica,sans-Serif" font-size="10.00">assimp/scene.h</text>
</g>
<!-- Node12&#45;&gt;Node13 -->
<g id="edge15" class="edge"><title>Node12&#45;&gt;Node13</title>
<path fill="none" stroke="midnightblue" d="M423.514,-168.444C395.804,-159.32 351.748,-144.813 320.884,-134.651"/>
<polygon fill="midnightblue" stroke="midnightblue" points="321.958,-131.32 311.365,-131.516 319.768,-137.968 321.958,-131.32"/>
</g>
<!-- Node14&#45;&gt;Node8 -->
<g id="edge17" class="edge"><title>Node14&#45;&gt;Node8</title>
<path fill="none" stroke="midnightblue" d="M682.752,-169.036C685.708,-168.685 688.635,-168.338 691.5,-168 760.373,-159.869 955.376,-183.79 1001.5,-132 1013.3,-118.748 1004.58,-98.5269 995.437,-84.1615"/>
<polygon fill="midnightblue" stroke="midnightblue" points="998.148,-81.928 989.578,-75.699 992.393,-85.913 998.148,-81.928"/>
</g>
<!-- Node15 -->
<g id="node15" class="node"><title>Node15</title>
<g id="a_node15"><a xlink:href="../../df/d67/Library_8hpp.html" target="_top" xlink:title="Library.hpp">
<polygon fill="none" stroke="black" points="617,-56.5 617,-75.5 682,-75.5 682,-56.5 617,-56.5"/>
<text text-anchor="middle" x="649.5" y="-63.5" font-family="Helvetica,sans-Serif" font-size="10.00">Library.hpp</text>
</a>
</g>
</g>
<!-- Node14&#45;&gt;Node15 -->
<g id="edge18" class="edge"><title>Node14&#45;&gt;Node15</title>
<path fill="none" stroke="midnightblue" d="M568.974,-168.425C528.478,-158.935 479.992,-141.019 501.5,-112 525.412,-79.7371 571.884,-69.811 606.403,-67.1351"/>
<polygon fill="midnightblue" stroke="midnightblue" points="606.921,-70.6105 616.694,-66.5206 606.503,-63.6229 606.921,-70.6105"/>
</g>
<!-- Node18 -->
<g id="node18" class="node"><title>Node18</title>
<g id="a_node18"><a xlink:href="../../dc/ddb/ShaderProgram_8hpp.html" target="_top" xlink:title="ShaderProgram.hpp">
<polygon fill="none" stroke="black" points="890,-112.5 890,-131.5 993,-131.5 993,-112.5 890,-112.5"/>
<text text-anchor="middle" x="941.5" y="-119.5" font-family="Helvetica,sans-Serif" font-size="10.00">ShaderProgram.hpp</text>
</a>
</g>
</g>
<!-- Node14&#45;&gt;Node18 -->
<g id="edge22" class="edge"><title>Node14&#45;&gt;Node18</title>
<path fill="none" stroke="midnightblue" d="M667.997,-168.444C725.644,-158.865 818.99,-143.356 880.312,-133.167"/>
<polygon fill="midnightblue" stroke="midnightblue" points="880.953,-136.608 890.244,-131.516 879.805,-129.703 880.953,-136.608"/>
</g>
<!-- Node21 -->
<g id="node21" class="node"><title>Node21</title>
<g id="a_node21"><a xlink:href="../../d9/db7/ShaderProgramNames_8hpp.html" target="_top" xlink:title="ShaderProgramNames.hpp">
<polygon fill="none" stroke="black" points="510.5,-112.5 510.5,-131.5 644.5,-131.5 644.5,-112.5 510.5,-112.5"/>
<text text-anchor="middle" x="577.5" y="-119.5" font-family="Helvetica,sans-Serif" font-size="10.00">ShaderProgramNames.hpp</text>
</a>
</g>
</g>
<!-- Node14&#45;&gt;Node21 -->
<g id="edge28" class="edge"><title>Node14&#45;&gt;Node21</title>
<path fill="none" stroke="midnightblue" d="M610.06,-168.083C604.551,-160.455 596.469,-149.264 589.735,-139.941"/>
<polygon fill="midnightblue" stroke="midnightblue" points="592.513,-137.809 583.82,-131.751 586.838,-141.907 592.513,-137.809"/>
</g>
<!-- Node22 -->
<g id="node22" class="node"><title>Node22</title>
<g id="a_node22"><a xlink:href="../../d2/db1/ShaderLibrary_8hpp.html" target="_top" xlink:title="ShaderLibrary.hpp">
<polygon fill="none" stroke="black" points="777,-112.5 777,-131.5 872,-131.5 872,-112.5 777,-112.5"/>
<text text-anchor="middle" x="824.5" y="-119.5" font-family="Helvetica,sans-Serif" font-size="10.00">ShaderLibrary.hpp</text>
</a>
</g>
</g>
<!-- Node14&#45;&gt;Node22 -->
<g id="edge29" class="edge"><title>Node14&#45;&gt;Node22</title>
<path fill="none" stroke="midnightblue" d="M649.458,-168.444C685.287,-159.142 742.663,-144.246 781.891,-134.062"/>
<polygon fill="midnightblue" stroke="midnightblue" points="782.896,-137.417 791.696,-131.516 781.137,-130.642 782.896,-137.417"/>
</g>
<!-- Node15&#45;&gt;Node15 -->
<g id="edge21" class="edge"><title>Node15&#45;&gt;Node15</title>
<path fill="none" stroke="midnightblue" d="M671.038,-75.5252C685.673,-78.3079 700,-75.1328 700,-66 700,-59.0077 691.602,-55.5077 681.097,-55.5"/>
<polygon fill="midnightblue" stroke="midnightblue" points="680.654,-52.0265 671.038,-56.4748 681.329,-58.9938 680.654,-52.0265"/>
</g>
<!-- Node16 -->
<g id="node16" class="node"><title>Node16</title>
<polygon fill="none" stroke="#bfbfbf" points="1014.5,-0.5 1014.5,-19.5 1058.5,-19.5 1058.5,-0.5 1014.5,-0.5"/>
<text text-anchor="middle" x="1036.5" y="-7.5" font-family="Helvetica,sans-Serif" font-size="10.00">vector</text>
</g>
<!-- Node15&#45;&gt;Node16 -->
<g id="edge19" class="edge"><title>Node15&#45;&gt;Node16</title>
<path fill="none" stroke="midnightblue" d="M682.186,-60.0235C691.046,-58.6947 700.638,-57.2744 709.5,-56 817.366,-40.4887 945.417,-23.1911 1004.14,-15.3201"/>
<polygon fill="midnightblue" stroke="midnightblue" points="1004.84,-18.7589 1014.28,-13.9627 1003.91,-11.8208 1004.84,-18.7589"/>
</g>
<!-- Node17 -->
<g id="node17" class="node"><title>Node17</title>
<polygon fill="none" stroke="#bfbfbf" points="618.5,-0.5 618.5,-19.5 680.5,-19.5 680.5,-0.5 618.5,-0.5"/>
<text text-anchor="middle" x="649.5" y="-7.5" font-family="Helvetica,sans-Serif" font-size="10.00">Library.tpp</text>
</g>
<!-- Node15&#45;&gt;Node17 -->
<g id="edge20" class="edge"><title>Node15&#45;&gt;Node17</title>
<path fill="none" stroke="midnightblue" d="M649.5,-56.083C649.5,-49.0059 649.5,-38.8611 649.5,-29.9865"/>
<polygon fill="midnightblue" stroke="midnightblue" points="653,-29.751 649.5,-19.7511 646,-29.7511 653,-29.751"/>
</g>
<!-- Node18&#45;&gt;Node8 -->
<g id="edge25" class="edge"><title>Node18&#45;&gt;Node8</title>
<path fill="none" stroke="midnightblue" d="M948.27,-112.083C954.062,-104.455 962.558,-93.2645 969.638,-83.9408"/>
<polygon fill="midnightblue" stroke="midnightblue" points="972.596,-85.8321 975.856,-75.7511 967.021,-81.5991 972.596,-85.8321"/>
</g>
<!-- Node18&#45;&gt;Node16 -->
<g id="edge24" class="edge"><title>Node18&#45;&gt;Node16</title>
<path fill="none" stroke="midnightblue" d="M939.806,-112.121C937.761,-98.7123 935.899,-73.0537 947.5,-56 960.663,-36.6502 984.737,-25.1886 1004.53,-18.6797"/>
<polygon fill="midnightblue" stroke="midnightblue" points="1005.56,-22.0258 1014.12,-15.7906 1003.54,-15.3232 1005.56,-22.0258"/>
</g>
<!-- Node19 -->
<g id="node19" class="node"><title>Node19</title>
<polygon fill="none" stroke="#bfbfbf" points="1380.5,-0.5 1380.5,-19.5 1450.5,-19.5 1450.5,-0.5 1380.5,-0.5"/>
<text text-anchor="middle" x="1415.5" y="-7.5" font-family="Helvetica,sans-Serif" font-size="10.00">glm/glm.hpp</text>
</g>
<!-- Node18&#45;&gt;Node19 -->
<g id="edge23" class="edge"><title>Node18&#45;&gt;Node19</title>
<path fill="none" stroke="midnightblue" d="M993.086,-116.927C1105.03,-107.919 1361.53,-86.2901 1377.5,-76 1394.12,-65.2904 1404.37,-44.5395 1409.97,-29.3549"/>
<polygon fill="midnightblue" stroke="midnightblue" points="1413.41,-30.0987 1413.25,-19.505 1406.77,-27.8856 1413.41,-30.0987"/>
</g>
<!-- Node20 -->
<g id="node20" class="node"><title>Node20</title>
<g id="a_node20"><a xlink:href="../../d4/d6e/Shader_8hpp.html" target="_top" xlink:title="Shader.hpp">
<polygon fill="none" stroke="black" points="834.5,-56.5 834.5,-75.5 900.5,-75.5 900.5,-56.5 834.5,-56.5"/>
<text text-anchor="middle" x="867.5" y="-63.5" font-family="Helvetica,sans-Serif" font-size="10.00">Shader.hpp</text>
</a>
</g>
</g>
<!-- Node18&#45;&gt;Node20 -->
<g id="edge26" class="edge"><title>Node18&#45;&gt;Node20</title>
<path fill="none" stroke="midnightblue" d="M929.611,-112.324C918.35,-104.107 901.213,-91.6017 887.791,-81.8069"/>
<polygon fill="midnightblue" stroke="midnightblue" points="889.747,-78.9014 879.606,-75.8339 885.62,-84.5559 889.747,-78.9014"/>
</g>
<!-- Node20&#45;&gt;Node4 -->
<g id="edge27" class="edge"><title>Node20&#45;&gt;Node4</title>
<path fill="none" stroke="midnightblue" d="M834.104,-57.4116C831.203,-56.8838 828.305,-56.4025 825.5,-56 611.104,-25.2366 554.102,-49.2944 339.5,-20 334.845,-19.3646 329.947,-18.5443 325.165,-17.6582"/>
<polygon fill="midnightblue" stroke="midnightblue" points="325.508,-14.1586 315.02,-15.659 324.154,-21.0265 325.508,-14.1586"/>
</g>
<!-- Node22&#45;&gt;Node8 -->
<g id="edge30" class="edge"><title>Node22&#45;&gt;Node8</title>
<path fill="none" stroke="midnightblue" d="M849.536,-112.444C876.116,-103.359 918.309,-88.9388 948.023,-78.7831"/>
<polygon fill="midnightblue" stroke="midnightblue" points="949.251,-82.0625 957.582,-75.5164 946.987,-75.4386 949.251,-82.0625"/>
</g>
<!-- Node22&#45;&gt;Node15 -->
<g id="edge31" class="edge"><title>Node22&#45;&gt;Node15</title>
<path fill="none" stroke="midnightblue" d="M796.771,-112.444C767.074,-103.28 719.784,-88.6876 686.831,-78.5192"/>
<polygon fill="midnightblue" stroke="midnightblue" points="687.687,-75.1206 677.1,-75.5164 685.623,-81.8094 687.687,-75.1206"/>
</g>
<!-- Node22&#45;&gt;Node20 -->
<g id="edge32" class="edge"><title>Node22&#45;&gt;Node20</title>
<path fill="none" stroke="midnightblue" d="M831.601,-112.083C837.737,-104.377 846.77,-93.0333 854.239,-83.6531"/>
<polygon fill="midnightblue" stroke="midnightblue" points="857.04,-85.7542 860.532,-75.7511 851.564,-81.3936 857.04,-85.7542"/>
</g>
<!-- Node23 -->
<g id="node23" class="node"><title>Node23</title>
<g id="a_node23"><a xlink:href="../../d2/dba/ShaderNames_8hpp.html" target="_top" xlink:title="ShaderNames.hpp">
<polygon fill="none" stroke="black" points="718.5,-56.5 718.5,-75.5 816.5,-75.5 816.5,-56.5 718.5,-56.5"/>
<text text-anchor="middle" x="767.5" y="-63.5" font-family="Helvetica,sans-Serif" font-size="10.00">ShaderNames.hpp</text>
</a>
</g>
</g>
<!-- Node22&#45;&gt;Node23 -->
<g id="edge33" class="edge"><title>Node22&#45;&gt;Node23</title>
<path fill="none" stroke="midnightblue" d="M815.342,-112.324C806.999,-104.42 794.468,-92.5482 784.323,-82.9377"/>
<polygon fill="midnightblue" stroke="midnightblue" points="786.491,-80.1705 776.825,-75.8339 781.677,-85.2522 786.491,-80.1705"/>
</g>
<!-- Node24&#45;&gt;Node15 -->
<g id="edge36" class="edge"><title>Node24&#45;&gt;Node15</title>
<path fill="none" stroke="midnightblue" d="M1236.89,-175.569C1124.57,-171.867 853.903,-160.219 767.5,-132 751.197,-126.676 749.418,-120.46 734.5,-112 714.952,-100.914 692.465,-89.0473 675.532,-80.2843"/>
<polygon fill="midnightblue" stroke="midnightblue" points="676.761,-76.9803 666.268,-75.5129 673.555,-83.2034 676.761,-76.9803"/>
</g>
<!-- Node25 -->
<g id="node25" class="node"><title>Node25</title>
<polygon fill="none" stroke="#bfbfbf" points="1602.5,-56.5 1602.5,-75.5 1696.5,-75.5 1696.5,-56.5 1602.5,-56.5"/>
<text text-anchor="middle" x="1649.5" y="-63.5" font-family="Helvetica,sans-Serif" font-size="10.00">assimp/material.h</text>
</g>
<!-- Node24&#45;&gt;Node25 -->
<g id="edge35" class="edge"><title>Node24&#45;&gt;Node25</title>
<path fill="none" stroke="midnightblue" d="M1331.27,-168.461C1370.9,-160.468 1430.09,-147.458 1480.5,-132 1530.62,-116.632 1587.15,-93.7062 1620.47,-79.5888"/>
<polygon fill="midnightblue" stroke="midnightblue" points="1622.21,-82.6517 1630.04,-75.5085 1619.47,-76.2131 1622.21,-82.6517"/>
</g>
<!-- Node26 -->
<g id="node26" class="node"><title>Node26</title>
<g id="a_node26"><a xlink:href="../../d0/d70/Material_8hpp.html" target="_top" xlink:title="Material.hpp">
<polygon fill="none" stroke="black" points="1401.5,-112.5 1401.5,-131.5 1471.5,-131.5 1471.5,-112.5 1401.5,-112.5"/>
<text text-anchor="middle" x="1436.5" y="-119.5" font-family="Helvetica,sans-Serif" font-size="10.00">Material.hpp</text>
</a>
</g>
</g>
<!-- Node24&#45;&gt;Node26 -->
<g id="edge37" class="edge"><title>Node24&#45;&gt;Node26</title>
<path fill="none" stroke="midnightblue" d="M1310.27,-168.444C1335.39,-159.399 1375.21,-145.064 1403.4,-134.916"/>
<polygon fill="midnightblue" stroke="midnightblue" points="1404.62,-138.197 1412.84,-131.516 1402.25,-131.611 1404.62,-138.197"/>
</g>
<!-- Node26&#45;&gt;Node8 -->
<g id="edge38" class="edge"><title>Node26&#45;&gt;Node8</title>
<path fill="none" stroke="midnightblue" d="M1401.31,-118.855C1330.73,-114.201 1166.75,-101.615 1018.92,-75.8077"/>
<polygon fill="midnightblue" stroke="midnightblue" points="1019.21,-72.3054 1008.76,-74.0078 1017.99,-79.1981 1019.21,-72.3054"/>
</g>
<!-- Node26&#45;&gt;Node19 -->
<g id="edge39" class="edge"><title>Node26&#45;&gt;Node19</title>
<path fill="none" stroke="midnightblue" d="M1471.62,-115.664C1514.88,-107.545 1579.84,-89.3854 1555.5,-56 1533.99,-26.4937 1492.82,-15.911 1460.67,-12.317"/>
<polygon fill="midnightblue" stroke="midnightblue" points="1460.86,-8.82018 1450.58,-11.3806 1460.21,-15.7902 1460.86,-8.82018"/>
</g>
<!-- Node26&#45;&gt;Node25 -->
<g id="edge40" class="edge"><title>Node26&#45;&gt;Node25</title>
<path fill="none" stroke="midnightblue" d="M1470.25,-112.444C1507.02,-103.122 1565.95,-88.1828 1606.12,-77.9972"/>
<polygon fill="midnightblue" stroke="midnightblue" points="1607.07,-81.3666 1615.91,-75.5164 1605.35,-74.5813 1607.07,-81.3666"/>
</g>
<!-- Node27&#45;&gt;Node15 -->
<g id="edge43" class="edge"><title>Node27&#45;&gt;Node15</title>
<path fill="none" stroke="midnightblue" d="M439.955,-112.444C485.564,-102.552 560.342,-86.3355 607.146,-76.1852"/>
<polygon fill="midnightblue" stroke="midnightblue" points="607.944,-79.5937 616.975,-74.0537 606.46,-72.7527 607.944,-79.5937"/>
</g>
<!-- Node28 -->
<g id="node28" class="node"><title>Node28</title>
<polygon fill="none" stroke="#bfbfbf" points="348.5,-0.5 348.5,-19.5 428.5,-19.5 428.5,-0.5 348.5,-0.5"/>
<text text-anchor="middle" x="388.5" y="-7.5" font-family="Helvetica,sans-Serif" font-size="10.00">assimp/anim.h</text>
</g>
<!-- Node27&#45;&gt;Node28 -->
<g id="edge42" class="edge"><title>Node27&#45;&gt;Node28</title>
<path fill="none" stroke="midnightblue" d="M400.276,-112.14C399.886,-99.6021 398.883,-75.9832 396.5,-56 395.453,-47.2246 393.803,-37.5674 392.273,-29.4566"/>
<polygon fill="midnightblue" stroke="midnightblue" points="395.695,-28.7181 390.328,-19.5831 388.827,-30.071 395.695,-28.7181"/>
</g>
<!-- Node29 -->
<g id="node29" class="node"><title>Node29</title>
<g id="a_node29"><a xlink:href="../../d0/d36/Animation_8hpp.html" target="_top" xlink:title="Animation.hpp">
<polygon fill="none" stroke="black" points="309,-56.5 309,-75.5 388,-75.5 388,-56.5 309,-56.5"/>
<text text-anchor="middle" x="348.5" y="-63.5" font-family="Helvetica,sans-Serif" font-size="10.00">Animation.hpp</text>
</a>
</g>
</g>
<!-- Node27&#45;&gt;Node29 -->
<g id="edge44" class="edge"><title>Node27&#45;&gt;Node29</title>
<path fill="none" stroke="midnightblue" d="M391.913,-112.083C384.341,-104.22 373.122,-92.5688 363.986,-83.0813"/>
<polygon fill="midnightblue" stroke="midnightblue" points="366.385,-80.5266 356.927,-75.7511 361.342,-85.3821 366.385,-80.5266"/>
</g>
<!-- Node29&#45;&gt;Node4 -->
<g id="edge46" class="edge"><title>Node29&#45;&gt;Node4</title>
<path fill="none" stroke="midnightblue" d="M339.583,-56.083C331.72,-48.2195 320.069,-36.5688 310.581,-27.0813"/>
<polygon fill="midnightblue" stroke="midnightblue" points="312.797,-24.3473 303.251,-19.7511 307.847,-29.2971 312.797,-24.3473"/>
</g>
<!-- Node29&#45;&gt;Node28 -->
<g id="edge45" class="edge"><title>Node29&#45;&gt;Node28</title>
<path fill="none" stroke="midnightblue" d="M355.105,-56.083C360.755,-48.4554 369.045,-37.2645 375.951,-27.9408"/>
<polygon fill="midnightblue" stroke="midnightblue" points="378.878,-29.87 382.018,-19.7511 373.253,-25.7034 378.878,-29.87"/>
</g>
<!-- Node30&#45;&gt;Node15 -->
<g id="edge48" class="edge"><title>Node30&#45;&gt;Node15</title>
<path fill="none" stroke="midnightblue" d="M734.788,-168.26C724.451,-159.581 708.629,-145.635 696.5,-132 682.964,-116.783 669.555,-97.7382 660.545,-84.2059"/>
<polygon fill="midnightblue" stroke="midnightblue" points="663.469,-82.2819 655.063,-75.8328 657.612,-86.1163 663.469,-82.2819"/>
</g>
<!-- Node31 -->
<g id="node31" class="node"><title>Node31</title>
<g id="a_node31"><a xlink:href="../../d1/d62/Mesh_8hpp.html" target="_top" xlink:title="Mesh.hpp">
<polygon fill="none" stroke="black" points="1187,-112.5 1187,-131.5 1246,-131.5 1246,-112.5 1187,-112.5"/>
<text text-anchor="middle" x="1216.5" y="-119.5" font-family="Helvetica,sans-Serif" font-size="10.00">Mesh.hpp</text>
</a>
</g>
</g>
<!-- Node30&#45;&gt;Node31 -->
<g id="edge49" class="edge"><title>Node30&#45;&gt;Node31</title>
<path fill="none" stroke="midnightblue" d="M790.286,-169.168C793.062,-168.753 795.817,-168.359 798.5,-168 960.505,-146.305 1002.53,-153.952 1164.5,-132 1168.47,-131.462 1172.61,-130.844 1176.73,-130.191"/>
<polygon fill="midnightblue" stroke="midnightblue" points="1177.56,-133.601 1186.86,-128.517 1176.42,-126.694 1177.56,-133.601"/>
</g>
<!-- Node31&#45;&gt;Node8 -->
<g id="edge51" class="edge"><title>Node31&#45;&gt;Node8</title>
<path fill="none" stroke="midnightblue" d="M1186.93,-114.489C1150.01,-106.311 1084.66,-91.6897 1018.58,-75.9774"/>
<polygon fill="midnightblue" stroke="midnightblue" points="1019.37,-72.5672 1008.83,-73.6519 1017.75,-79.3762 1019.37,-72.5672"/>
</g>
<!-- Node31&#45;&gt;Node16 -->
<g id="edge50" class="edge"><title>Node31&#45;&gt;Node16</title>
<path fill="none" stroke="midnightblue" d="M1205.66,-112.432C1188.97,-99.4293 1155.73,-74.294 1125.5,-56 1105.75,-44.0499 1082.44,-32.3426 1064.62,-23.866"/>
<polygon fill="midnightblue" stroke="midnightblue" points="1065.89,-20.5942 1055.35,-19.5081 1062.91,-26.9294 1065.89,-20.5942"/>
</g>
<!-- Node31&#45;&gt;Node19 -->
<g id="edge52" class="edge"><title>Node31&#45;&gt;Node19</title>
<path fill="none" stroke="midnightblue" d="M1246.2,-118.339C1295.13,-113.297 1389.38,-100.585 1410.5,-76 1421.21,-63.5364 1421.38,-44.3029 1419.52,-29.9874"/>
<polygon fill="midnightblue" stroke="midnightblue" points="1422.91,-29.0421 1417.76,-19.7843 1416.01,-30.2343 1422.91,-29.0421"/>
</g>
<!-- Node32 -->
<g id="node32" class="node"><title>Node32</title>
<polygon fill="none" stroke="#bfbfbf" points="1463,-56.5 1463,-75.5 1546,-75.5 1546,-56.5 1463,-56.5"/>
<text text-anchor="middle" x="1504.5" y="-63.5" font-family="Helvetica,sans-Serif" font-size="10.00">assimp/mesh.h</text>
</g>
<!-- Node31&#45;&gt;Node32 -->
<g id="edge53" class="edge"><title>Node31&#45;&gt;Node32</title>
<path fill="none" stroke="midnightblue" d="M1246.24,-115.424C1295.01,-106.279 1392.59,-87.9828 1452.85,-76.6842"/>
<polygon fill="midnightblue" stroke="midnightblue" points="1453.73,-80.0797 1462.92,-74.7966 1452.44,-73.1996 1453.73,-80.0797"/>
</g>
<!-- Node33 -->
<g id="node33" class="node"><title>Node33</title>
<g id="a_node33"><a xlink:href="../../da/d04/BufferObject_8hpp.html" target="_top" xlink:title="BufferObject.hpp">
<polygon fill="none" stroke="black" points="1278.5,-56.5 1278.5,-75.5 1368.5,-75.5 1368.5,-56.5 1278.5,-56.5"/>
<text text-anchor="middle" x="1323.5" y="-63.5" font-family="Helvetica,sans-Serif" font-size="10.00">BufferObject.hpp</text>
</a>
</g>
</g>
<!-- Node31&#45;&gt;Node33 -->
<g id="edge54" class="edge"><title>Node31&#45;&gt;Node33</title>
<path fill="none" stroke="midnightblue" d="M1233.69,-112.324C1250.85,-103.664 1277.45,-90.2424 1297.25,-80.249"/>
<polygon fill="midnightblue" stroke="midnightblue" points="1299,-83.2847 1306.35,-75.6545 1295.85,-77.0354 1299,-83.2847"/>
</g>
<!-- Node34 -->
<g id="node34" class="node"><title>Node34</title>
<g id="a_node34"><a xlink:href="../../df/d20/ArrayObject_8hpp.html" target="_top" xlink:title="ArrayObject.hpp">
<polygon fill="none" stroke="black" points="1173,-56.5 1173,-75.5 1260,-75.5 1260,-56.5 1173,-56.5"/>
<text text-anchor="middle" x="1216.5" y="-63.5" font-family="Helvetica,sans-Serif" font-size="10.00">ArrayObject.hpp</text>
</a>
</g>
</g>
<!-- Node31&#45;&gt;Node34 -->
<g id="edge57" class="edge"><title>Node31&#45;&gt;Node34</title>
<path fill="none" stroke="midnightblue" d="M1216.5,-112.083C1216.5,-105.006 1216.5,-94.8611 1216.5,-85.9865"/>
<polygon fill="midnightblue" stroke="midnightblue" points="1220,-85.751 1216.5,-75.7511 1213,-85.7511 1220,-85.751"/>
</g>
<!-- Node33&#45;&gt;Node16 -->
<g id="edge55" class="edge"><title>Node33&#45;&gt;Node16</title>
<path fill="none" stroke="midnightblue" d="M1278.34,-56.5031C1220.01,-45.5272 1119.89,-26.691 1068.7,-17.0587"/>
<polygon fill="midnightblue" stroke="midnightblue" points="1069.32,-13.6141 1058.85,-15.2045 1068.03,-20.4933 1069.32,-13.6141"/>
</g>
<!-- Node33&#45;&gt;Node19 -->
<g id="edge56" class="edge"><title>Node33&#45;&gt;Node19</title>
<path fill="none" stroke="midnightblue" d="M1338.28,-56.324C1352.77,-47.8215 1375.07,-34.7288 1391.99,-24.7975"/>
<polygon fill="midnightblue" stroke="midnightblue" points="1393.9,-27.735 1400.76,-19.6545 1390.36,-21.6981 1393.9,-27.735"/>
</g>
<!-- Node35&#45;&gt;Node15 -->
<g id="edge59" class="edge"><title>Node35&#45;&gt;Node15</title>
<path fill="none" stroke="midnightblue" d="M825.822,-168.487C800.463,-160.802 763.969,-148.218 734.5,-132 708.999,-117.965 682.872,-96.7607 666.438,-82.4206"/>
<polygon fill="midnightblue" stroke="midnightblue" points="668.584,-79.6451 658.782,-75.6217 663.935,-84.879 668.584,-79.6451"/>
</g>
<!-- Node36 -->
<g id="node36" class="node"><title>Node36</title>
<g id="a_node36"><a xlink:href="../../d0/ddc/Texture_8hpp.html" target="_top" xlink:title="Texture.hpp">
<polygon fill="none" stroke="black" points="1087.5,-112.5 1087.5,-131.5 1155.5,-131.5 1155.5,-112.5 1087.5,-112.5"/>
<text text-anchor="middle" x="1121.5" y="-119.5" font-family="Helvetica,sans-Serif" font-size="10.00">Texture.hpp</text>
</a>
</g>
</g>
<!-- Node35&#45;&gt;Node36 -->
<g id="edge60" class="edge"><title>Node35&#45;&gt;Node36</title>
<path fill="none" stroke="midnightblue" d="M898.49,-168.444C947.37,-158.483 1027.73,-142.108 1077.47,-131.973"/>
<polygon fill="midnightblue" stroke="midnightblue" points="1078.19,-135.397 1087.29,-129.971 1076.79,-128.538 1078.19,-135.397"/>
</g>
<!-- Node37 -->
<g id="node37" class="node"><title>Node37</title>
<polygon fill="none" stroke="#bfbfbf" points="1027,-56.5 1027,-75.5 1116,-75.5 1116,-56.5 1027,-56.5"/>
<text text-anchor="middle" x="1071.5" y="-63.5" font-family="Helvetica,sans-Serif" font-size="10.00">assimp/texture.h</text>
</g>
<!-- Node36&#45;&gt;Node37 -->
<g id="edge61" class="edge"><title>Node36&#45;&gt;Node37</title>
<path fill="none" stroke="midnightblue" d="M1113.24,-112.083C1106.04,-104.298 1095.39,-92.8015 1086.65,-83.3665"/>
<polygon fill="midnightblue" stroke="midnightblue" points="1088.97,-80.7108 1079.6,-75.7511 1083.83,-85.4666 1088.97,-80.7108"/>
</g>
</g>
</svg>
