<?xml version="1.0" encoding="UTF-8" standalone="no"?>
<!DOCTYPE svg PUBLIC "-//W3C//DTD SVG 1.1//EN"
 "http://www.w3.org/Graphics/SVG/1.1/DTD/svg11.dtd">
<!-- Generated by graphviz version 2.38.0 (20140413.2041)
 -->
<!-- Title: Model::Mod Pages: 1 -->
<svg width="288pt" height="182pt"
 viewBox="0.00 0.00 287.50 182.00" xmlns="http://www.w3.org/2000/svg" xmlns:xlink="http://www.w3.org/1999/xlink">
<g id="graph0" class="graph" transform="scale(1 1) rotate(0) translate(4 178)">
<title>Model::Mod</title>
<!-- Node1 -->
<g id="node1" class="node"><title>Node1</title>
<polygon fill="#bfbfbf" stroke="black" points="98,-0.5 98,-57.5 166,-57.5 166,-0.5 98,-0.5"/>
<text text-anchor="middle" x="132" y="-45.5" font-family="Helvetica,sans-Serif" font-size="10.00">Model::Mod</text>
<polyline fill="none" stroke="black" points="98,-38.5 166,-38.5 "/>
<text text-anchor="middle" x="132" y="-26.5" font-family="Helvetica,sans-Serif" font-size="10.00"> </text>
<polyline fill="none" stroke="black" points="98,-19.5 166,-19.5 "/>
<text text-anchor="middle" x="132" y="-7.5" font-family="Helvetica,sans-Serif" font-size="10.00"> </text>
</g>
<!-- Node2 -->
<g id="node2" class="node"><title>Node2</title>
<polygon fill="none" stroke="#bfbfbf" points="0,-116.5 0,-173.5 50,-173.5 50,-116.5 0,-116.5"/>
<text text-anchor="middle" x="25" y="-161.5" font-family="Helvetica,sans-Serif" font-size="10.00">QString</text>
<polyline fill="none" stroke="#bfbfbf" points="0,-154.5 50,-154.5 "/>
<text text-anchor="middle" x="25" y="-142.5" font-family="Helvetica,sans-Serif" font-size="10.00"> </text>
<polyline fill="none" stroke="#bfbfbf" points="0,-135.5 50,-135.5 "/>
<text text-anchor="middle" x="25" y="-123.5" font-family="Helvetica,sans-Serif" font-size="10.00"> </text>
</g>
<!-- Node2&#45;&gt;Node1 -->
<g id="edge1" class="edge"><title>Node2&#45;&gt;Node1</title>
<path fill="none" stroke="#404040" d="M38.207,-116.377C45.3046,-103.252 54.8841,-87.8762 66,-76 72.5095,-69.0453 80.235,-62.5313 88.0667,-56.7168"/>
<polygon fill="none" stroke="#404040" points="88.1507,-56.6576 90.7513,-49.9318 97.96,-49.7454 95.3595,-56.4713 88.1507,-56.6576"/>
<text text-anchor="middle" x="83" y="-90" font-family="Helvetica,sans-Serif" font-size="10.00"> +name</text>
<text text-anchor="middle" x="83" y="-79" font-family="Helvetica,sans-Serif" font-size="10.00">+path</text>
</g>
<!-- Node3 -->
<g id="node3" class="node"><title>Node3</title>
<polygon fill="none" stroke="#bfbfbf" points="68.5,-116.5 68.5,-173.5 133.5,-173.5 133.5,-116.5 68.5,-116.5"/>
<text text-anchor="middle" x="101" y="-161.5" font-family="Helvetica,sans-Serif" font-size="10.00">QVector3D</text>
<polyline fill="none" stroke="#bfbfbf" points="68.5,-154.5 133.5,-154.5 "/>
<text text-anchor="middle" x="101" y="-142.5" font-family="Helvetica,sans-Serif" font-size="10.00"> </text>
<polyline fill="none" stroke="#bfbfbf" points="68.5,-135.5 133.5,-135.5 "/>
<text text-anchor="middle" x="101" y="-123.5" font-family="Helvetica,sans-Serif" font-size="10.00"> </text>
</g>
<!-- Node3&#45;&gt;Node1 -->
<g id="edge2" class="edge"><title>Node3&#45;&gt;Node1</title>
<path fill="none" stroke="#404040" d="M101.48,-116.405C102.295,-103.86 104.109,-88.9578 108,-76 108.729,-73.5736 109.587,-71.1252 110.537,-68.6888"/>
<polygon fill="none" stroke="#404040" points="110.636,-68.4662 109.423,-61.3579 115.518,-57.5041 116.731,-64.6124 110.636,-68.4662"/>
<text text-anchor="middle" x="124.5" y="-90" font-family="Helvetica,sans-Serif" font-size="10.00"> +angle</text>
<text text-anchor="middle" x="124.5" y="-79" font-family="Helvetica,sans-Serif" font-size="10.00">+scale</text>
</g>
<!-- Node4 -->
<g id="node4" class="node"><title>Node4</title>
<polygon fill="none" stroke="#bfbfbf" points="151.5,-116.5 151.5,-173.5 186.5,-173.5 186.5,-116.5 151.5,-116.5"/>
<text text-anchor="middle" x="169" y="-161.5" font-family="Helvetica,sans-Serif" font-size="10.00">float</text>
<polyline fill="none" stroke="#bfbfbf" points="151.5,-154.5 186.5,-154.5 "/>
<text text-anchor="middle" x="169" y="-142.5" font-family="Helvetica,sans-Serif" font-size="10.00"> </text>
<polyline fill="none" stroke="#bfbfbf" points="151.5,-135.5 186.5,-135.5 "/>
<text text-anchor="middle" x="169" y="-123.5" font-family="Helvetica,sans-Serif" font-size="10.00"> </text>
</g>
<!-- Node4&#45;&gt;Node1 -->
<g id="edge3" class="edge"><title>Node4&#45;&gt;Node1</title>
<path fill="none" stroke="#404040" d="M160.043,-116.404C155.442,-102.226 149.755,-84.7058 144.709,-69.1561"/>
<polygon fill="none" stroke="#404040" points="144.707,-69.1511 139.05,-64.679 141.002,-57.7372 146.659,-62.2093 144.707,-69.1511"/>
<text text-anchor="middle" x="190.5" y="-84.5" font-family="Helvetica,sans-Serif" font-size="10.00"> +apparitionRate</text>
</g>
<!-- Node5 -->
<g id="node5" class="node"><title>Node5</title>
<polygon fill="none" stroke="#bfbfbf" points="238.5,-116.5 238.5,-173.5 279.5,-173.5 279.5,-116.5 238.5,-116.5"/>
<text text-anchor="middle" x="259" y="-161.5" font-family="Helvetica,sans-Serif" font-size="10.00">void *</text>
<polyline fill="none" stroke="#bfbfbf" points="238.5,-154.5 279.5,-154.5 "/>
<text text-anchor="middle" x="259" y="-142.5" font-family="Helvetica,sans-Serif" font-size="10.00"> </text>
<polyline fill="none" stroke="#bfbfbf" points="238.5,-135.5 279.5,-135.5 "/>
<text text-anchor="middle" x="259" y="-123.5" font-family="Helvetica,sans-Serif" font-size="10.00"> </text>
</g>
<!-- Node5&#45;&gt;Node1 -->
<g id="edge4" class="edge"><title>Node5&#45;&gt;Node1</title>
<path fill="none" stroke="#404040" d="M252.656,-116.19C248.405,-102.704 241.59,-87.0709 231,-76 216.531,-60.8743 196.12,-50.2379 177.587,-43.0326"/>
<polygon fill="none" stroke="#404040" points="177.351,-42.9477 170.35,-44.6773 166.061,-38.8804 173.062,-37.1508 177.351,-42.9477"/>
<text text-anchor="middle" x="260" y="-84.5" font-family="Helvetica,sans-Serif" font-size="10.00"> +data</text>
</g>
</g>
</svg>
