<?xml version="1.0" encoding="UTF-8" standalone="no"?>
<!DOCTYPE svg PUBLIC "-//W3C//DTD SVG 1.1//EN"
 "http://www.w3.org/Graphics/SVG/1.1/DTD/svg11.dtd">
<!-- Generated by graphviz version 2.38.0 (20140413.2041)
 -->
<!-- Title: Core/ArrayObject.cpp Pages: 1 -->
<svg width="290pt" height="84pt"
 viewBox="0.00 0.00 289.50 84.00" xmlns="http://www.w3.org/2000/svg" xmlns:xlink="http://www.w3.org/1999/xlink">
<g id="graph0" class="graph" transform="scale(1 1) rotate(0) translate(4 80)">
<title>Core/ArrayObject.cpp</title>
<!-- Node1 -->
<g id="node1" class="node"><title>Node1</title>
<polygon fill="#bfbfbf" stroke="black" points="44,-56.5 44,-75.5 155,-75.5 155,-56.5 44,-56.5"/>
<text text-anchor="middle" x="99.5" y="-63.5" font-family="Helvetica,sans-Serif" font-size="10.00">Core/ArrayObject.cpp</text>
</g>
<!-- Node2 -->
<g id="node2" class="node"><title>Node2</title>
<polygon fill="none" stroke="#bfbfbf" points="0,-0.5 0,-19.5 61,-19.5 61,-0.5 0,-0.5"/>
<text text-anchor="middle" x="30.5" y="-7.5" font-family="Helvetica,sans-Serif" font-size="10.00">GL/glew.h</text>
</g>
<!-- Node1&#45;&gt;Node2 -->
<g id="edge1" class="edge"><title>Node1&#45;&gt;Node2</title>
<path fill="none" stroke="midnightblue" d="M88.414,-56.324C78.014,-48.1849 62.2394,-35.8395 49.7784,-26.0874"/>
<polygon fill="midnightblue" stroke="midnightblue" points="51.8199,-23.2407 41.7878,-19.8339 47.5057,-28.7533 51.8199,-23.2407"/>
</g>
<!-- Node3 -->
<g id="node3" class="node"><title>Node3</title>
<polygon fill="none" stroke="#bfbfbf" points="79.5,-0.5 79.5,-19.5 119.5,-19.5 119.5,-0.5 79.5,-0.5"/>
<text text-anchor="middle" x="99.5" y="-7.5" font-family="Helvetica,sans-Serif" font-size="10.00">utility</text>
</g>
<!-- Node1&#45;&gt;Node3 -->
<g id="edge2" class="edge"><title>Node1&#45;&gt;Node3</title>
<path fill="none" stroke="midnightblue" d="M99.5,-56.083C99.5,-49.0059 99.5,-38.8611 99.5,-29.9865"/>
<polygon fill="midnightblue" stroke="midnightblue" points="103,-29.751 99.5,-19.7511 96.0001,-29.7511 103,-29.751"/>
</g>
<!-- Node4 -->
<g id="node4" class="node"><title>Node4</title>
<polygon fill="none" stroke="#bfbfbf" points="137.5,-0.5 137.5,-19.5 281.5,-19.5 281.5,-0.5 137.5,-0.5"/>
<text text-anchor="middle" x="209.5" y="-7.5" font-family="Helvetica,sans-Serif" font-size="10.00">Engine/Core/ArrayObject.hpp</text>
</g>
<!-- Node1&#45;&gt;Node4 -->
<g id="edge3" class="edge"><title>Node1&#45;&gt;Node4</title>
<path fill="none" stroke="midnightblue" d="M117.173,-56.324C134.894,-47.6247 162.403,-34.1202 182.788,-24.113"/>
<polygon fill="midnightblue" stroke="midnightblue" points="184.436,-27.2031 191.87,-19.6545 181.351,-20.9195 184.436,-27.2031"/>
</g>
</g>
</svg>
