<?xml version="1.0" encoding="UTF-8" standalone="no"?>
<!DOCTYPE svg PUBLIC "-//W3C//DTD SVG 1.1//EN"
 "http://www.w3.org/Graphics/SVG/1.1/DTD/svg11.dtd">
<!-- Generated by graphviz version 2.38.0 (20140413.2041)
 -->
<!-- Title: engine/Library/Library.hpp Pages: 1 -->
<svg width="154pt" height="85pt"
 viewBox="0.00 0.00 154.00 84.92" xmlns="http://www.w3.org/2000/svg" xmlns:xlink="http://www.w3.org/1999/xlink">
<g id="graph0" class="graph" transform="scale(1 1) rotate(0) translate(4 80.9166)">
<title>engine/Library/Library.hpp</title>
<!-- Node1 -->
<g id="node1" class="node"><title>Node1</title>
<polygon fill="#bfbfbf" stroke="black" points="0,-56.5 0,-75.5 128,-75.5 128,-56.5 0,-56.5"/>
<text text-anchor="middle" x="64" y="-63.5" font-family="Helvetica,sans-Serif" font-size="10.00">engine/Library/Library.hpp</text>
</g>
<!-- Node1&#45;&gt;Node1 -->
<g id="edge3" class="edge"><title>Node1&#45;&gt;Node1</title>
<path fill="none" stroke="midnightblue" d="M98.9731,-75.5252C122.736,-78.3079 146,-75.1328 146,-66 146,-58.1872 128.975,-54.7344 109.177,-55.6416"/>
<polygon fill="midnightblue" stroke="midnightblue" points="108.655,-52.1724 98.9731,-56.4748 109.225,-59.1492 108.655,-52.1724"/>
</g>
<!-- Node2 -->
<g id="node2" class="node"><title>Node2</title>
<polygon fill="none" stroke="#bfbfbf" points="7,-0.5 7,-19.5 51,-19.5 51,-0.5 7,-0.5"/>
<text text-anchor="middle" x="29" y="-7.5" font-family="Helvetica,sans-Serif" font-size="10.00">vector</text>
</g>
<!-- Node1&#45;&gt;Node2 -->
<g id="edge1" class="edge"><title>Node1&#45;&gt;Node2</title>
<path fill="none" stroke="midnightblue" d="M58.2205,-56.083C53.3276,-48.5341 46.1726,-37.4948 40.1674,-28.2298"/>
<polygon fill="midnightblue" stroke="midnightblue" points="43.048,-26.239 34.672,-19.7511 37.174,-30.0463 43.048,-26.239"/>
</g>
<!-- Node3 -->
<g id="node3" class="node"><title>Node3</title>
<polygon fill="none" stroke="#bfbfbf" points="69,-0.5 69,-19.5 131,-19.5 131,-0.5 69,-0.5"/>
<text text-anchor="middle" x="100" y="-7.5" font-family="Helvetica,sans-Serif" font-size="10.00">Library.tpp</text>
</g>
<!-- Node1&#45;&gt;Node3 -->
<g id="edge2" class="edge"><title>Node1&#45;&gt;Node3</title>
<path fill="none" stroke="midnightblue" d="M69.9447,-56.083C74.9773,-48.5341 82.3368,-37.4948 88.5135,-28.2298"/>
<polygon fill="midnightblue" stroke="midnightblue" points="91.5311,-30.0131 94.1659,-19.7511 85.7067,-26.1301 91.5311,-30.0131"/>
</g>
</g>
</svg>
