<?xml version="1.0" encoding="UTF-8" standalone="no"?>
<!DOCTYPE svg PUBLIC "-//W3C//DTD SVG 1.1//EN"
 "http://www.w3.org/Graphics/SVG/1.1/DTD/svg11.dtd">
<!-- Generated by graphviz version 2.38.0 (20140413.2041)
 -->
<!-- Title: engine/Shaders/Managers/ShaderProgramManager/internal/ShaderProgramMapping.hpp Pages: 1 -->
<svg width="472pt" height="218pt"
 viewBox="0.00 0.00 471.50 218.00" xmlns="http://www.w3.org/2000/svg" xmlns:xlink="http://www.w3.org/1999/xlink">
<g id="graph0" class="graph" transform="scale(1 1) rotate(0) translate(4 214)">
<title>engine/Shaders/Managers/ShaderProgramManager/internal/ShaderProgramMapping.hpp</title>
<!-- Node1 -->
<g id="node1" class="node"><title>Node1</title>
<polygon fill="#bfbfbf" stroke="black" points="55,-168.5 55,-209.5 232,-209.5 232,-168.5 55,-168.5"/>
<text text-anchor="start" x="63" y="-197.5" font-family="Helvetica,sans-Serif" font-size="10.00">engine/Shaders/Managers</text>
<text text-anchor="start" x="63" y="-186.5" font-family="Helvetica,sans-Serif" font-size="10.00">/ShaderProgramManager</text>
<text text-anchor="middle" x="143.5" y="-175.5" font-family="Helvetica,sans-Serif" font-size="10.00">/internal/ShaderProgramMapping.hpp</text>
</g>
<!-- Node2 -->
<g id="node2" class="node"><title>Node2</title>
<polygon fill="none" stroke="#bfbfbf" points="0,-112.5 0,-131.5 35,-131.5 35,-112.5 0,-112.5"/>
<text text-anchor="middle" x="17.5" y="-119.5" font-family="Helvetica,sans-Serif" font-size="10.00">map</text>
</g>
<!-- Node1&#45;&gt;Node2 -->
<g id="edge1" class="edge"><title>Node1&#45;&gt;Node2</title>
<path fill="none" stroke="midnightblue" d="M105.696,-168.498C85.6347,-158.149 61.4926,-145.695 43.5425,-136.435"/>
<polygon fill="midnightblue" stroke="midnightblue" points="44.7643,-133.127 34.2725,-131.652 41.555,-139.348 44.7643,-133.127"/>
</g>
<!-- Node3 -->
<g id="node3" class="node"><title>Node3</title>
<polygon fill="none" stroke="#bfbfbf" points="41.5,-56.5 41.5,-75.5 85.5,-75.5 85.5,-56.5 41.5,-56.5"/>
<text text-anchor="middle" x="63.5" y="-63.5" font-family="Helvetica,sans-Serif" font-size="10.00">vector</text>
</g>
<!-- Node1&#45;&gt;Node3 -->
<g id="edge2" class="edge"><title>Node1&#45;&gt;Node3</title>
<path fill="none" stroke="midnightblue" d="M116.003,-168.272C104.196,-158.545 91.1534,-145.918 82.5,-132 73.6734,-117.803 68.7904,-99.3249 66.1933,-85.7007"/>
<polygon fill="midnightblue" stroke="midnightblue" points="69.6064,-84.8887 64.5128,-75.5986 62.7012,-86.0374 69.6064,-84.8887"/>
</g>
<!-- Node4 -->
<g id="node4" class="node"><title>Node4</title>
<g id="a_node4"><a xlink:href="../../dc/ddb/ShaderProgram_8hpp.html" target="_top" xlink:title="ShaderProgram.hpp">
<polygon fill="none" stroke="black" points="92,-112.5 92,-131.5 195,-131.5 195,-112.5 92,-112.5"/>
<text text-anchor="middle" x="143.5" y="-119.5" font-family="Helvetica,sans-Serif" font-size="10.00">ShaderProgram.hpp</text>
</a>
</g>
</g>
<!-- Node1&#45;&gt;Node4 -->
<g id="edge3" class="edge"><title>Node1&#45;&gt;Node4</title>
<path fill="none" stroke="midnightblue" d="M143.5,-168.498C143.5,-160.065 143.5,-150.235 143.5,-141.874"/>
<polygon fill="midnightblue" stroke="midnightblue" points="147,-141.652 143.5,-131.652 140,-141.653 147,-141.652"/>
</g>
<!-- Node9 -->
<g id="node9" class="node"><title>Node9</title>
<g id="a_node9"><a xlink:href="../../d2/dba/ShaderNames_8hpp.html" target="_top" xlink:title="ShaderNames.hpp">
<polygon fill="none" stroke="black" points="213.5,-112.5 213.5,-131.5 311.5,-131.5 311.5,-112.5 213.5,-112.5"/>
<text text-anchor="middle" x="262.5" y="-119.5" font-family="Helvetica,sans-Serif" font-size="10.00">ShaderNames.hpp</text>
</a>
</g>
</g>
<!-- Node1&#45;&gt;Node9 -->
<g id="edge9" class="edge"><title>Node1&#45;&gt;Node9</title>
<path fill="none" stroke="midnightblue" d="M179.204,-168.498C197.975,-158.245 220.53,-145.925 237.432,-136.693"/>
<polygon fill="midnightblue" stroke="midnightblue" points="239.561,-139.518 246.659,-131.652 236.205,-133.375 239.561,-139.518"/>
</g>
<!-- Node10 -->
<g id="node10" class="node"><title>Node10</title>
<g id="a_node10"><a xlink:href="../../d9/db7/ShaderProgramNames_8hpp.html" target="_top" xlink:title="ShaderProgramNames.hpp">
<polygon fill="none" stroke="black" points="329.5,-112.5 329.5,-131.5 463.5,-131.5 463.5,-112.5 329.5,-112.5"/>
<text text-anchor="middle" x="396.5" y="-119.5" font-family="Helvetica,sans-Serif" font-size="10.00">ShaderProgramNames.hpp</text>
</a>
</g>
</g>
<!-- Node1&#45;&gt;Node10 -->
<g id="edge10" class="edge"><title>Node1&#45;&gt;Node10</title>
<path fill="none" stroke="midnightblue" d="M219.408,-168.498C263.18,-157.252 316.627,-143.521 353.283,-134.103"/>
<polygon fill="midnightblue" stroke="midnightblue" points="354.34,-137.445 363.154,-131.567 352.598,-130.666 354.34,-137.445"/>
</g>
<!-- Node4&#45;&gt;Node3 -->
<g id="edge5" class="edge"><title>Node4&#45;&gt;Node3</title>
<path fill="none" stroke="midnightblue" d="M130.647,-112.324C118.284,-103.979 99.3699,-91.2122 84.7628,-81.3524"/>
<polygon fill="midnightblue" stroke="midnightblue" points="86.5682,-78.3483 76.3215,-75.6545 82.6518,-84.1503 86.5682,-78.3483"/>
</g>
<!-- Node5 -->
<g id="node5" class="node"><title>Node5</title>
<polygon fill="none" stroke="#bfbfbf" points="103.5,-56.5 103.5,-75.5 173.5,-75.5 173.5,-56.5 103.5,-56.5"/>
<text text-anchor="middle" x="138.5" y="-63.5" font-family="Helvetica,sans-Serif" font-size="10.00">glm/glm.hpp</text>
</g>
<!-- Node4&#45;&gt;Node5 -->
<g id="edge4" class="edge"><title>Node4&#45;&gt;Node5</title>
<path fill="none" stroke="midnightblue" d="M142.674,-112.083C142.019,-105.006 141.08,-94.8611 140.258,-85.9865"/>
<polygon fill="midnightblue" stroke="midnightblue" points="143.717,-85.3858 139.31,-75.7511 136.747,-86.0312 143.717,-85.3858"/>
</g>
<!-- Node6 -->
<g id="node6" class="node"><title>Node6</title>
<polygon fill="none" stroke="#bfbfbf" points="191.5,-56.5 191.5,-75.5 243.5,-75.5 243.5,-56.5 191.5,-56.5"/>
<text text-anchor="middle" x="217.5" y="-63.5" font-family="Helvetica,sans-Serif" font-size="10.00">memory</text>
</g>
<!-- Node4&#45;&gt;Node6 -->
<g id="edge6" class="edge"><title>Node4&#45;&gt;Node6</title>
<path fill="none" stroke="midnightblue" d="M155.389,-112.324C166.65,-104.107 183.787,-91.6017 197.209,-81.8069"/>
<polygon fill="midnightblue" stroke="midnightblue" points="199.38,-84.5559 205.394,-75.8339 195.253,-78.9014 199.38,-84.5559"/>
</g>
<!-- Node7 -->
<g id="node7" class="node"><title>Node7</title>
<g id="a_node7"><a xlink:href="../../d4/d6e/Shader_8hpp.html" target="_top" xlink:title="Shader.hpp">
<polygon fill="none" stroke="black" points="261.5,-56.5 261.5,-75.5 327.5,-75.5 327.5,-56.5 261.5,-56.5"/>
<text text-anchor="middle" x="294.5" y="-63.5" font-family="Helvetica,sans-Serif" font-size="10.00">Shader.hpp</text>
</a>
</g>
</g>
<!-- Node4&#45;&gt;Node7 -->
<g id="edge7" class="edge"><title>Node4&#45;&gt;Node7</title>
<path fill="none" stroke="midnightblue" d="M167.426,-112.444C192.719,-103.399 232.802,-89.064 261.18,-78.9158"/>
<polygon fill="midnightblue" stroke="midnightblue" points="262.448,-82.1794 270.686,-75.5164 260.091,-75.5882 262.448,-82.1794"/>
</g>
<!-- Node8 -->
<g id="node8" class="node"><title>Node8</title>
<polygon fill="none" stroke="#bfbfbf" points="274,-0.5 274,-19.5 315,-19.5 315,-0.5 274,-0.5"/>
<text text-anchor="middle" x="294.5" y="-7.5" font-family="Helvetica,sans-Serif" font-size="10.00">string</text>
</g>
<!-- Node7&#45;&gt;Node8 -->
<g id="edge8" class="edge"><title>Node7&#45;&gt;Node8</title>
<path fill="none" stroke="midnightblue" d="M294.5,-56.083C294.5,-49.0059 294.5,-38.8611 294.5,-29.9865"/>
<polygon fill="midnightblue" stroke="midnightblue" points="298,-29.751 294.5,-19.7511 291,-29.7511 298,-29.751"/>
</g>
</g>
</svg>
