<?xml version="1.0" encoding="UTF-8" standalone="no"?>
<!DOCTYPE svg PUBLIC "-//W3C//DTD SVG 1.1//EN"
 "http://www.w3.org/Graphics/SVG/1.1/DTD/svg11.dtd">
<!-- Generated by graphviz version 2.38.0 (20140413.2041)
 -->
<!-- Title: engine/ShaderProgramLibrary/internal/ShaderProgramMapping.hpp Pages: 1 -->
<svg width="472pt" height="207pt"
 viewBox="0.00 0.00 471.50 207.00" xmlns="http://www.w3.org/2000/svg" xmlns:xlink="http://www.w3.org/1999/xlink">
<g id="graph0" class="graph" transform="scale(1 1) rotate(0) translate(4 203)">
<title>engine/ShaderProgramLibrary/internal/ShaderProgramMapping.hpp</title>
<!-- Node1 -->
<g id="node1" class="node"><title>Node1</title>
<polygon fill="#bfbfbf" stroke="black" points="55,-168.5 55,-198.5 232,-198.5 232,-168.5 55,-168.5"/>
<text text-anchor="start" x="63" y="-186.5" font-family="Helvetica,sans-Serif" font-size="10.00">engine/ShaderProgramLibrary</text>
<text text-anchor="middle" x="143.5" y="-175.5" font-family="Helvetica,sans-Serif" font-size="10.00">/internal/ShaderProgramMapping.hpp</text>
</g>
<!-- Node2 -->
<g id="node2" class="node"><title>Node2</title>
<polygon fill="none" stroke="#bfbfbf" points="0,-112.5 0,-131.5 35,-131.5 35,-112.5 0,-112.5"/>
<text text-anchor="middle" x="17.5" y="-119.5" font-family="Helvetica,sans-Serif" font-size="10.00">map</text>
</g>
<!-- Node1&#45;&gt;Node2 -->
<g id="edge1" class="edge"><title>Node1&#45;&gt;Node2</title>
<path fill="none" stroke="midnightblue" d="M113.64,-168.399C92.6265,-158.476 64.7368,-145.306 44.4103,-135.708"/>
<polygon fill="midnightblue" stroke="midnightblue" points="45.6397,-132.418 35.1026,-131.312 42.6506,-138.747 45.6397,-132.418"/>
</g>
<!-- Node3 -->
<g id="node3" class="node"><title>Node3</title>
<polygon fill="none" stroke="#bfbfbf" points="41.5,-56.5 41.5,-75.5 85.5,-75.5 85.5,-56.5 41.5,-56.5"/>
<text text-anchor="middle" x="63.5" y="-63.5" font-family="Helvetica,sans-Serif" font-size="10.00">vector</text>
</g>
<!-- Node1&#45;&gt;Node3 -->
<g id="edge2" class="edge"><title>Node1&#45;&gt;Node3</title>
<path fill="none" stroke="midnightblue" d="M120.554,-168.486C107.66,-159.524 92.2468,-146.817 82.5,-132 73.313,-118.034 68.47,-99.5299 65.9796,-85.8374"/>
<polygon fill="midnightblue" stroke="midnightblue" points="69.3938,-85.0151 64.3972,-75.6725 62.4771,-86.0919 69.3938,-85.0151"/>
</g>
<!-- Node4 -->
<g id="node4" class="node"><title>Node4</title>
<g id="a_node4"><a xlink:href="../../dc/ddb/ShaderProgram_8hpp.html" target="_top" xlink:title="ShaderProgram.hpp">
<polygon fill="none" stroke="black" points="92,-112.5 92,-131.5 195,-131.5 195,-112.5 92,-112.5"/>
<text text-anchor="middle" x="143.5" y="-119.5" font-family="Helvetica,sans-Serif" font-size="10.00">ShaderProgram.hpp</text>
</a>
</g>
</g>
<!-- Node1&#45;&gt;Node4 -->
<g id="edge3" class="edge"><title>Node1&#45;&gt;Node4</title>
<path fill="none" stroke="midnightblue" d="M143.5,-168.399C143.5,-160.466 143.5,-150.458 143.5,-141.858"/>
<polygon fill="midnightblue" stroke="midnightblue" points="147,-141.658 143.5,-131.658 140,-141.658 147,-141.658"/>
</g>
<!-- Node9 -->
<g id="node9" class="node"><title>Node9</title>
<g id="a_node9"><a xlink:href="../../d2/dba/ShaderNames_8hpp.html" target="_top" xlink:title="ShaderNames.hpp">
<polygon fill="none" stroke="black" points="213.5,-112.5 213.5,-131.5 311.5,-131.5 311.5,-112.5 213.5,-112.5"/>
<text text-anchor="middle" x="262.5" y="-119.5" font-family="Helvetica,sans-Serif" font-size="10.00">ShaderNames.hpp</text>
</a>
</g>
</g>
<!-- Node1&#45;&gt;Node9 -->
<g id="edge9" class="edge"><title>Node1&#45;&gt;Node9</title>
<path fill="none" stroke="midnightblue" d="M171.701,-168.399C191.222,-158.639 217.025,-145.737 236.135,-136.183"/>
<polygon fill="midnightblue" stroke="midnightblue" points="237.805,-139.26 245.184,-131.658 234.675,-132.999 237.805,-139.26"/>
</g>
<!-- Node10 -->
<g id="node10" class="node"><title>Node10</title>
<g id="a_node10"><a xlink:href="../../d9/db7/ShaderProgramNames_8hpp.html" target="_top" xlink:title="ShaderProgramNames.hpp">
<polygon fill="none" stroke="black" points="329.5,-112.5 329.5,-131.5 463.5,-131.5 463.5,-112.5 329.5,-112.5"/>
<text text-anchor="middle" x="396.5" y="-119.5" font-family="Helvetica,sans-Serif" font-size="10.00">ShaderProgramNames.hpp</text>
</a>
</g>
</g>
<!-- Node1&#45;&gt;Node10 -->
<g id="edge10" class="edge"><title>Node1&#45;&gt;Node10</title>
<path fill="none" stroke="midnightblue" d="M203.137,-168.475C248.214,-157.874 309.187,-143.534 350.525,-133.812"/>
<polygon fill="midnightblue" stroke="midnightblue" points="351.397,-137.203 360.33,-131.506 349.794,-130.389 351.397,-137.203"/>
</g>
<!-- Node4&#45;&gt;Node3 -->
<g id="edge5" class="edge"><title>Node4&#45;&gt;Node3</title>
<path fill="none" stroke="midnightblue" d="M130.647,-112.324C118.284,-103.979 99.3699,-91.2122 84.7628,-81.3524"/>
<polygon fill="midnightblue" stroke="midnightblue" points="86.5682,-78.3483 76.3215,-75.6545 82.6518,-84.1503 86.5682,-78.3483"/>
</g>
<!-- Node5 -->
<g id="node5" class="node"><title>Node5</title>
<polygon fill="none" stroke="#bfbfbf" points="103.5,-56.5 103.5,-75.5 173.5,-75.5 173.5,-56.5 103.5,-56.5"/>
<text text-anchor="middle" x="138.5" y="-63.5" font-family="Helvetica,sans-Serif" font-size="10.00">glm/glm.hpp</text>
</g>
<!-- Node4&#45;&gt;Node5 -->
<g id="edge4" class="edge"><title>Node4&#45;&gt;Node5</title>
<path fill="none" stroke="midnightblue" d="M142.674,-112.083C142.019,-105.006 141.08,-94.8611 140.258,-85.9865"/>
<polygon fill="midnightblue" stroke="midnightblue" points="143.717,-85.3858 139.31,-75.7511 136.747,-86.0312 143.717,-85.3858"/>
</g>
<!-- Node6 -->
<g id="node6" class="node"><title>Node6</title>
<polygon fill="none" stroke="#bfbfbf" points="191.5,-56.5 191.5,-75.5 243.5,-75.5 243.5,-56.5 191.5,-56.5"/>
<text text-anchor="middle" x="217.5" y="-63.5" font-family="Helvetica,sans-Serif" font-size="10.00">memory</text>
</g>
<!-- Node4&#45;&gt;Node6 -->
<g id="edge6" class="edge"><title>Node4&#45;&gt;Node6</title>
<path fill="none" stroke="midnightblue" d="M155.389,-112.324C166.65,-104.107 183.787,-91.6017 197.209,-81.8069"/>
<polygon fill="midnightblue" stroke="midnightblue" points="199.38,-84.5559 205.394,-75.8339 195.253,-78.9014 199.38,-84.5559"/>
</g>
<!-- Node7 -->
<g id="node7" class="node"><title>Node7</title>
<g id="a_node7"><a xlink:href="../../d4/d6e/Shader_8hpp.html" target="_top" xlink:title="Shader.hpp">
<polygon fill="none" stroke="black" points="261.5,-56.5 261.5,-75.5 327.5,-75.5 327.5,-56.5 261.5,-56.5"/>
<text text-anchor="middle" x="294.5" y="-63.5" font-family="Helvetica,sans-Serif" font-size="10.00">Shader.hpp</text>
</a>
</g>
</g>
<!-- Node4&#45;&gt;Node7 -->
<g id="edge7" class="edge"><title>Node4&#45;&gt;Node7</title>
<path fill="none" stroke="midnightblue" d="M167.426,-112.444C192.719,-103.399 232.802,-89.064 261.18,-78.9158"/>
<polygon fill="midnightblue" stroke="midnightblue" points="262.448,-82.1794 270.686,-75.5164 260.091,-75.5882 262.448,-82.1794"/>
</g>
<!-- Node8 -->
<g id="node8" class="node"><title>Node8</title>
<polygon fill="none" stroke="#bfbfbf" points="274,-0.5 274,-19.5 315,-19.5 315,-0.5 274,-0.5"/>
<text text-anchor="middle" x="294.5" y="-7.5" font-family="Helvetica,sans-Serif" font-size="10.00">string</text>
</g>
<!-- Node7&#45;&gt;Node8 -->
<g id="edge8" class="edge"><title>Node7&#45;&gt;Node8</title>
<path fill="none" stroke="midnightblue" d="M294.5,-56.083C294.5,-49.0059 294.5,-38.8611 294.5,-29.9865"/>
<polygon fill="midnightblue" stroke="midnightblue" points="298,-29.751 294.5,-19.7511 291,-29.7511 298,-29.751"/>
</g>
</g>
</svg>
