<?xml version="1.0" encoding="UTF-8" standalone="no"?>
<!DOCTYPE svg PUBLIC "-//W3C//DTD SVG 1.1//EN"
 "http://www.w3.org/Graphics/SVG/1.1/DTD/svg11.dtd">
<!-- Generated by graphviz version 2.38.0 (20140413.2041)
 -->
<!-- Title: engine/Shaders/Managers/ShaderProgramManager/ShaderProgramManager.cpp Pages: 1 -->
<svg width="533pt" height="274pt"
 viewBox="0.00 0.00 532.72 274.00" xmlns="http://www.w3.org/2000/svg" xmlns:xlink="http://www.w3.org/1999/xlink">
<g id="graph0" class="graph" transform="scale(1 1) rotate(0) translate(4 270)">
<title>engine/Shaders/Managers/ShaderProgramManager/ShaderProgramManager.cpp</title>
<!-- Node1 -->
<g id="node1" class="node"><title>Node1</title>
<polygon fill="#bfbfbf" stroke="black" points="155.485,-224.5 155.485,-265.5 298.485,-265.5 298.485,-224.5 155.485,-224.5"/>
<text text-anchor="start" x="163.485" y="-253.5" font-family="Helvetica,sans-Serif" font-size="10.00">engine/Shaders/Managers</text>
<text text-anchor="start" x="163.485" y="-242.5" font-family="Helvetica,sans-Serif" font-size="10.00">/ShaderProgramManager</text>
<text text-anchor="middle" x="226.985" y="-231.5" font-family="Helvetica,sans-Serif" font-size="10.00">/ShaderProgramManager.cpp</text>
</g>
<!-- Node2 -->
<g id="node2" class="node"><title>Node2</title>
<g id="a_node2"><a xlink:href="../../d2/d1f/ShaderManager_8hpp.html" target="_top" xlink:title="ShaderManager.hpp">
<polygon fill="none" stroke="black" points="34.985,-168.5 34.985,-187.5 138.985,-187.5 138.985,-168.5 34.985,-168.5"/>
<text text-anchor="middle" x="86.985" y="-175.5" font-family="Helvetica,sans-Serif" font-size="10.00">ShaderManager.hpp</text>
</a>
</g>
</g>
<!-- Node1&#45;&gt;Node2 -->
<g id="edge1" class="edge"><title>Node1&#45;&gt;Node2</title>
<path fill="none" stroke="midnightblue" d="M184.98,-224.498C162.277,-213.957 134.871,-201.233 114.82,-191.923"/>
<polygon fill="midnightblue" stroke="midnightblue" points="116.165,-188.689 105.621,-187.652 113.217,-195.038 116.165,-188.689"/>
</g>
<!-- Node8 -->
<g id="node8" class="node"><title>Node8</title>
<g id="a_node8"><a xlink:href="../../df/dfd/ShaderProgramManager_8hpp.html" target="_top" xlink:title="ShaderProgramManager.hpp">
<polygon fill="none" stroke="black" points="156.985,-168.5 156.985,-187.5 296.985,-187.5 296.985,-168.5 156.985,-168.5"/>
<text text-anchor="middle" x="226.985" y="-175.5" font-family="Helvetica,sans-Serif" font-size="10.00">ShaderProgramManager.hpp</text>
</a>
</g>
</g>
<!-- Node1&#45;&gt;Node8 -->
<g id="edge7" class="edge"><title>Node1&#45;&gt;Node8</title>
<path fill="none" stroke="midnightblue" d="M226.985,-224.498C226.985,-216.065 226.985,-206.235 226.985,-197.874"/>
<polygon fill="midnightblue" stroke="midnightblue" points="230.485,-197.652 226.985,-187.652 223.485,-197.653 230.485,-197.652"/>
</g>
<!-- Node13 -->
<g id="node13" class="node"><title>Node13</title>
<g id="a_node13"><a xlink:href="../../dd/d4f/ShaderProgramMapping_8hpp.html" target="_top" xlink:title="internal/ShaderProgramMapping.hpp">
<polygon fill="none" stroke="black" points="314.985,-168.5 314.985,-187.5 488.985,-187.5 488.985,-168.5 314.985,-168.5"/>
<text text-anchor="middle" x="401.985" y="-175.5" font-family="Helvetica,sans-Serif" font-size="10.00">internal/ShaderProgramMapping.hpp</text>
</a>
</g>
</g>
<!-- Node1&#45;&gt;Node13 -->
<g id="edge16" class="edge"><title>Node1&#45;&gt;Node13</title>
<path fill="none" stroke="midnightblue" d="M279.491,-224.498C308.643,-213.67 344.001,-200.537 369.221,-191.17"/>
<polygon fill="midnightblue" stroke="midnightblue" points="370.534,-194.415 378.69,-187.652 368.097,-187.853 370.534,-194.415"/>
</g>
<!-- Node3 -->
<g id="node3" class="node"><title>Node3</title>
<polygon fill="none" stroke="#bfbfbf" points="156.985,-56.5 156.985,-75.5 208.985,-75.5 208.985,-56.5 156.985,-56.5"/>
<text text-anchor="middle" x="182.985" y="-63.5" font-family="Helvetica,sans-Serif" font-size="10.00">memory</text>
</g>
<!-- Node2&#45;&gt;Node3 -->
<g id="edge2" class="edge"><title>Node2&#45;&gt;Node3</title>
<path fill="none" stroke="midnightblue" d="M59.8245,-168.464C29.1503,-157.4 -14.1558,-136.582 4.985,-112 22.2353,-89.8459 100.044,-76.8721 146.89,-70.9352"/>
<polygon fill="midnightblue" stroke="midnightblue" points="147.445,-74.3935 156.948,-69.7081 146.598,-67.445 147.445,-74.3935"/>
</g>
<!-- Node4 -->
<g id="node4" class="node"><title>Node4</title>
<polygon fill="none" stroke="#bfbfbf" points="163.485,-112.5 163.485,-131.5 198.485,-131.5 198.485,-112.5 163.485,-112.5"/>
<text text-anchor="middle" x="180.985" y="-119.5" font-family="Helvetica,sans-Serif" font-size="10.00">map</text>
</g>
<!-- Node2&#45;&gt;Node4 -->
<g id="edge3" class="edge"><title>Node2&#45;&gt;Node4</title>
<path fill="none" stroke="midnightblue" d="M102.088,-168.324C116.888,-159.822 139.679,-146.729 156.967,-136.797"/>
<polygon fill="midnightblue" stroke="midnightblue" points="158.992,-139.671 165.92,-131.655 155.505,-133.601 158.992,-139.671"/>
</g>
<!-- Node5 -->
<g id="node5" class="node"><title>Node5</title>
<g id="a_node5"><a xlink:href="../../d4/d6e/Shader_8hpp.html" target="_top" xlink:title="Shader.hpp">
<polygon fill="none" stroke="black" points="226.985,-56.5 226.985,-75.5 292.985,-75.5 292.985,-56.5 226.985,-56.5"/>
<text text-anchor="middle" x="259.985" y="-63.5" font-family="Helvetica,sans-Serif" font-size="10.00">Shader.hpp</text>
</a>
</g>
</g>
<!-- Node2&#45;&gt;Node5 -->
<g id="edge4" class="edge"><title>Node2&#45;&gt;Node5</title>
<path fill="none" stroke="midnightblue" d="M72.3293,-168.417C52.6344,-155.815 21.8579,-131.672 37.985,-112 87.7386,-51.3104 134.406,-89.3782 216.997,-75.9624"/>
<polygon fill="midnightblue" stroke="midnightblue" points="217.782,-79.3767 226.979,-74.1173 216.509,-72.4933 217.782,-79.3767"/>
</g>
<!-- Node7 -->
<g id="node7" class="node"><title>Node7</title>
<g id="a_node7"><a xlink:href="../../d2/dba/ShaderNames_8hpp.html" target="_top" xlink:title="ShaderNames.hpp">
<polygon fill="none" stroke="black" points="46.985,-112.5 46.985,-131.5 144.985,-131.5 144.985,-112.5 46.985,-112.5"/>
<text text-anchor="middle" x="95.985" y="-119.5" font-family="Helvetica,sans-Serif" font-size="10.00">ShaderNames.hpp</text>
</a>
</g>
</g>
<!-- Node2&#45;&gt;Node7 -->
<g id="edge6" class="edge"><title>Node2&#45;&gt;Node7</title>
<path fill="none" stroke="midnightblue" d="M88.4712,-168.083C89.6638,-160.927 91.3791,-150.635 92.8698,-141.691"/>
<polygon fill="midnightblue" stroke="midnightblue" points="96.3348,-142.19 94.5265,-131.751 89.43,-141.04 96.3348,-142.19"/>
</g>
<!-- Node6 -->
<g id="node6" class="node"><title>Node6</title>
<polygon fill="none" stroke="#bfbfbf" points="239.485,-0.5 239.485,-19.5 280.485,-19.5 280.485,-0.5 239.485,-0.5"/>
<text text-anchor="middle" x="259.985" y="-7.5" font-family="Helvetica,sans-Serif" font-size="10.00">string</text>
</g>
<!-- Node5&#45;&gt;Node6 -->
<g id="edge5" class="edge"><title>Node5&#45;&gt;Node6</title>
<path fill="none" stroke="midnightblue" d="M259.985,-56.083C259.985,-49.0059 259.985,-38.8611 259.985,-29.9865"/>
<polygon fill="midnightblue" stroke="midnightblue" points="263.485,-29.751 259.985,-19.7511 256.485,-29.7511 263.485,-29.751"/>
</g>
<!-- Node8&#45;&gt;Node3 -->
<g id="edge9" class="edge"><title>Node8&#45;&gt;Node3</title>
<path fill="none" stroke="midnightblue" d="M224.902,-168.403C221.719,-155.786 215.148,-131.622 206.985,-112 203.117,-102.701 197.947,-92.7812 193.397,-84.6282"/>
<polygon fill="midnightblue" stroke="midnightblue" points="196.297,-82.65 188.283,-75.7202 190.227,-86.1352 196.297,-82.65"/>
</g>
<!-- Node8&#45;&gt;Node4 -->
<g id="edge8" class="edge"><title>Node8&#45;&gt;Node4</title>
<path fill="none" stroke="midnightblue" d="M219.389,-168.083C212.758,-160.298 202.964,-148.801 194.927,-139.367"/>
<polygon fill="midnightblue" stroke="midnightblue" points="197.589,-137.094 188.44,-131.751 192.26,-141.633 197.589,-137.094"/>
</g>
<!-- Node9 -->
<g id="node9" class="node"><title>Node9</title>
<g id="a_node9"><a xlink:href="../../dc/ddb/ShaderProgram_8hpp.html" target="_top" xlink:title="ShaderProgram.hpp">
<polygon fill="none" stroke="black" points="255.485,-112.5 255.485,-131.5 358.485,-131.5 358.485,-112.5 255.485,-112.5"/>
<text text-anchor="middle" x="306.985" y="-119.5" font-family="Helvetica,sans-Serif" font-size="10.00">ShaderProgram.hpp</text>
</a>
</g>
</g>
<!-- Node8&#45;&gt;Node9 -->
<g id="edge10" class="edge"><title>Node8&#45;&gt;Node9</title>
<path fill="none" stroke="midnightblue" d="M239.838,-168.324C252.201,-159.979 271.115,-147.212 285.722,-137.352"/>
<polygon fill="midnightblue" stroke="midnightblue" points="287.833,-140.15 294.164,-131.655 283.917,-134.348 287.833,-140.15"/>
</g>
<!-- Node12 -->
<g id="node12" class="node"><title>Node12</title>
<g id="a_node12"><a xlink:href="../../d9/db7/ShaderProgramNames_8hpp.html" target="_top" xlink:title="ShaderProgramNames.hpp">
<polygon fill="none" stroke="black" points="376.985,-112.5 376.985,-131.5 510.985,-131.5 510.985,-112.5 376.985,-112.5"/>
<text text-anchor="middle" x="443.985" y="-119.5" font-family="Helvetica,sans-Serif" font-size="10.00">ShaderProgramNames.hpp</text>
</a>
</g>
</g>
<!-- Node8&#45;&gt;Node12 -->
<g id="edge15" class="edge"><title>Node8&#45;&gt;Node12</title>
<path fill="none" stroke="midnightblue" d="M261.369,-168.444C298.907,-159.102 359.116,-144.119 400.052,-133.933"/>
<polygon fill="midnightblue" stroke="midnightblue" points="400.903,-137.328 409.762,-131.516 399.212,-130.535 400.903,-137.328"/>
</g>
<!-- Node9&#45;&gt;Node3 -->
<g id="edge13" class="edge"><title>Node9&#45;&gt;Node3</title>
<path fill="none" stroke="midnightblue" d="M287.337,-112.444C267.02,-103.596 235.082,-89.6875 211.887,-79.5865"/>
<polygon fill="midnightblue" stroke="midnightblue" points="213.107,-76.3002 202.541,-75.5164 210.312,-82.7181 213.107,-76.3002"/>
</g>
<!-- Node9&#45;&gt;Node5 -->
<g id="edge14" class="edge"><title>Node9&#45;&gt;Node5</title>
<path fill="none" stroke="midnightblue" d="M299.224,-112.083C292.448,-104.298 282.442,-92.8015 274.23,-83.3665"/>
<polygon fill="midnightblue" stroke="midnightblue" points="276.807,-80.9963 267.602,-75.7511 271.527,-85.592 276.807,-80.9963"/>
</g>
<!-- Node10 -->
<g id="node10" class="node"><title>Node10</title>
<polygon fill="none" stroke="#bfbfbf" points="310.985,-56.5 310.985,-75.5 380.985,-75.5 380.985,-56.5 310.985,-56.5"/>
<text text-anchor="middle" x="345.985" y="-63.5" font-family="Helvetica,sans-Serif" font-size="10.00">glm/glm.hpp</text>
</g>
<!-- Node9&#45;&gt;Node10 -->
<g id="edge11" class="edge"><title>Node9&#45;&gt;Node10</title>
<path fill="none" stroke="midnightblue" d="M313.425,-112.083C318.934,-104.455 327.016,-93.2645 333.75,-83.9408"/>
<polygon fill="midnightblue" stroke="midnightblue" points="336.647,-85.9071 339.665,-75.7511 330.972,-81.8087 336.647,-85.9071"/>
</g>
<!-- Node11 -->
<g id="node11" class="node"><title>Node11</title>
<polygon fill="none" stroke="#bfbfbf" points="476.985,-56.5 476.985,-75.5 520.985,-75.5 520.985,-56.5 476.985,-56.5"/>
<text text-anchor="middle" x="498.985" y="-63.5" font-family="Helvetica,sans-Serif" font-size="10.00">vector</text>
</g>
<!-- Node9&#45;&gt;Node11 -->
<g id="edge12" class="edge"><title>Node9&#45;&gt;Node11</title>
<path fill="none" stroke="midnightblue" d="M337.408,-112.444C372.728,-102.51 430.733,-86.1958 466.791,-76.0544"/>
<polygon fill="midnightblue" stroke="midnightblue" points="468.106,-79.3205 476.785,-73.2437 466.211,-72.582 468.106,-79.3205"/>
</g>
<!-- Node13&#45;&gt;Node4 -->
<g id="edge17" class="edge"><title>Node13&#45;&gt;Node4</title>
<path fill="none" stroke="midnightblue" d="M366.967,-168.444C323.058,-157.715 248.691,-139.543 208.587,-129.744"/>
<polygon fill="midnightblue" stroke="midnightblue" points="209.248,-126.303 198.703,-127.329 207.587,-133.103 209.248,-126.303"/>
</g>
<!-- Node13&#45;&gt;Node7 -->
<g id="edge20" class="edge"><title>Node13&#45;&gt;Node7</title>
<path fill="none" stroke="midnightblue" d="M353.498,-168.444C299.446,-158.905 212.057,-143.483 154.312,-133.293"/>
<polygon fill="midnightblue" stroke="midnightblue" points="154.701,-129.808 144.245,-131.516 153.484,-136.701 154.701,-129.808"/>
</g>
<!-- Node13&#45;&gt;Node9 -->
<g id="edge19" class="edge"><title>Node13&#45;&gt;Node9</title>
<path fill="none" stroke="midnightblue" d="M386.722,-168.324C371.764,-159.822 348.73,-146.729 331.258,-136.797"/>
<polygon fill="midnightblue" stroke="midnightblue" points="332.634,-133.553 322.211,-131.655 329.175,-139.639 332.634,-133.553"/>
</g>
<!-- Node13&#45;&gt;Node11 -->
<g id="edge18" class="edge"><title>Node13&#45;&gt;Node11</title>
<path fill="none" stroke="midnightblue" d="M462.466,-168.469C484.303,-162.144 506.8,-151.139 519.985,-132 530.029,-117.42 521.216,-97.7383 512.124,-83.8646"/>
<polygon fill="midnightblue" stroke="midnightblue" points="514.958,-81.8107 506.304,-75.6983 509.257,-85.8732 514.958,-81.8107"/>
</g>
<!-- Node13&#45;&gt;Node12 -->
<g id="edge21" class="edge"><title>Node13&#45;&gt;Node12</title>
<path fill="none" stroke="midnightblue" d="M408.92,-168.083C414.914,-160.377 423.737,-149.033 431.033,-139.653"/>
<polygon fill="midnightblue" stroke="midnightblue" points="433.802,-141.793 437.179,-131.751 428.276,-137.496 433.802,-141.793"/>
</g>
</g>
</svg>
