<?xml version="1.0" encoding="UTF-8" standalone="no"?>
<!DOCTYPE svg PUBLIC "-//W3C//DTD SVG 1.1//EN"
 "http://www.w3.org/Graphics/SVG/1.1/DTD/svg11.dtd">
<!-- Generated by graphviz version 2.38.0 (20140413.2041)
 -->
<!-- Title: engine/AssimpScene/AssimpScene.hpp Pages: 1 -->
<svg width="733pt" height="106pt"
 viewBox="0.00 0.00 733.00 106.00" xmlns="http://www.w3.org/2000/svg" xmlns:xlink="http://www.w3.org/1999/xlink">
<g id="graph0" class="graph" transform="scale(1 1) rotate(0) translate(4 102)">
<title>engine/AssimpScene/AssimpScene.hpp</title>
<!-- Node1 -->
<g id="node1" class="node"><title>Node1</title>
<polygon fill="#bfbfbf" stroke="black" points="270,-67.5 270,-97.5 379,-97.5 379,-67.5 270,-67.5"/>
<text text-anchor="start" x="278" y="-85.5" font-family="Helvetica,sans-Serif" font-size="10.00">engine/AssimpScene</text>
<text text-anchor="middle" x="324.5" y="-74.5" font-family="Helvetica,sans-Serif" font-size="10.00">/AssimpScene.hpp</text>
</g>
<!-- Node2 -->
<g id="node2" class="node"><title>Node2</title>
<g id="a_node2"><a xlink:href="../../d4/d7f/AssimpImporter_8cpp.html" target="_top" xlink:title="engine/AssimpImporter\l/AssimpImporter.cpp">
<polygon fill="none" stroke="black" points="0,-0.5 0,-30.5 117,-30.5 117,-0.5 0,-0.5"/>
<text text-anchor="start" x="8" y="-18.5" font-family="Helvetica,sans-Serif" font-size="10.00">engine/AssimpImporter</text>
<text text-anchor="middle" x="58.5" y="-7.5" font-family="Helvetica,sans-Serif" font-size="10.00">/AssimpImporter.cpp</text>
</a>
</g>
</g>
<!-- Node1&#45;&gt;Node2 -->
<g id="edge1" class="edge"><title>Node1&#45;&gt;Node2</title>
<path fill="none" stroke="midnightblue" d="M259.983,-65.7345C216.031,-54.9943 158.357,-40.901 115.981,-30.546"/>
<polygon fill="midnightblue" stroke="midnightblue" points="259.162,-69.1369 269.707,-68.1108 260.824,-62.337 259.162,-69.1369"/>
</g>
<!-- Node3 -->
<g id="node3" class="node"><title>Node3</title>
<g id="a_node3"><a xlink:href="../../d0/d46/AssimpScene_8cpp.html" target="_top" xlink:title="engine/AssimpScene\l/AssimpScene.cpp">
<polygon fill="none" stroke="black" points="135,-0.5 135,-30.5 244,-30.5 244,-0.5 135,-0.5"/>
<text text-anchor="start" x="143" y="-18.5" font-family="Helvetica,sans-Serif" font-size="10.00">engine/AssimpScene</text>
<text text-anchor="middle" x="189.5" y="-7.5" font-family="Helvetica,sans-Serif" font-size="10.00">/AssimpScene.cpp</text>
</a>
</g>
</g>
<!-- Node1&#45;&gt;Node3 -->
<g id="edge2" class="edge"><title>Node1&#45;&gt;Node3</title>
<path fill="none" stroke="midnightblue" d="M286.06,-62.9921C264.662,-52.6892 238.448,-40.0677 218.736,-30.5765"/>
<polygon fill="midnightblue" stroke="midnightblue" points="284.679,-66.2113 295.207,-67.396 287.715,-59.9042 284.679,-66.2113"/>
</g>
<!-- Node4 -->
<g id="node4" class="node"><title>Node4</title>
<g id="a_node4"><a xlink:href="../../de/d15/Scene_8cpp.html" target="_top" xlink:title="engine/Scene/Scene.cpp">
<polygon fill="none" stroke="black" points="262,-6 262,-25 387,-25 387,-6 262,-6"/>
<text text-anchor="middle" x="324.5" y="-13" font-family="Helvetica,sans-Serif" font-size="10.00">engine/Scene/Scene.cpp</text>
</a>
</g>
</g>
<!-- Node1&#45;&gt;Node4 -->
<g id="edge3" class="edge"><title>Node1&#45;&gt;Node4</title>
<path fill="none" stroke="midnightblue" d="M324.5,-57.2495C324.5,-46.017 324.5,-33.3767 324.5,-25.1945"/>
<polygon fill="midnightblue" stroke="midnightblue" points="321,-57.3959 324.5,-67.396 328,-57.396 321,-57.3959"/>
</g>
<!-- Node5 -->
<g id="node5" class="node"><title>Node5</title>
<g id="a_node5"><a xlink:href="../../d1/d20/SceneGraph_8cpp.html" target="_top" xlink:title="engine/SceneGraph/SceneGraph.cpp">
<polygon fill="none" stroke="black" points="404.5,-6 404.5,-25 582.5,-25 582.5,-6 404.5,-6"/>
<text text-anchor="middle" x="493.5" y="-13" font-family="Helvetica,sans-Serif" font-size="10.00">engine/SceneGraph/SceneGraph.cpp</text>
</a>
</g>
</g>
<!-- Node1&#45;&gt;Node5 -->
<g id="edge4" class="edge"><title>Node1&#45;&gt;Node5</title>
<path fill="none" stroke="midnightblue" d="M370.562,-63.7838C403.33,-51.1807 445.899,-34.8082 471.382,-25.007"/>
<polygon fill="midnightblue" stroke="midnightblue" points="369.247,-60.5394 361.17,-67.396 371.76,-67.0728 369.247,-60.5394"/>
</g>
<!-- Node6 -->
<g id="node6" class="node"><title>Node6</title>
<g id="a_node6"><a xlink:href="../../d2/d22/SceneGraphNode_8cpp.html" target="_top" xlink:title="engine/SceneGraphNode\l/SceneGraphNode.cpp">
<polygon fill="none" stroke="black" points="600,-0.5 600,-30.5 725,-30.5 725,-0.5 600,-0.5"/>
<text text-anchor="start" x="608" y="-18.5" font-family="Helvetica,sans-Serif" font-size="10.00">engine/SceneGraphNode</text>
<text text-anchor="middle" x="662.5" y="-7.5" font-family="Helvetica,sans-Serif" font-size="10.00">/SceneGraphNode.cpp</text>
</a>
</g>
</g>
<!-- Node1&#45;&gt;Node6 -->
<g id="edge5" class="edge"><title>Node1&#45;&gt;Node6</title>
<path fill="none" stroke="midnightblue" d="M389.144,-69.5452C443.249,-59.4742 522.465,-44.5772 591.5,-31 594.216,-30.4659 596.989,-29.9165 599.79,-29.3584"/>
<polygon fill="midnightblue" stroke="midnightblue" points="388.196,-66.1613 379.005,-71.4307 389.476,-73.0433 388.196,-66.1613"/>
</g>
</g>
</svg>
