<?xml version="1.0" encoding="UTF-8" standalone="no"?>
<!DOCTYPE svg PUBLIC "-//W3C//DTD SVG 1.1//EN"
 "http://www.w3.org/Graphics/SVG/1.1/DTD/svg11.dtd">
<!-- Generated by graphviz version 2.38.0 (20140413.2041)
 -->
<!-- Title: engine/Mesh/Mesh.hpp Pages: 1 -->
<!--zoomable 475 -->
<svg id="main" version="1.1" xmlns="http://www.w3.org/2000/svg" xmlns:xlink="http://www.w3.org/1999/xlink" xml:space="preserve" onload="init(evt)">
<style type="text/css"><![CDATA[
.edge:hover path { stroke: red; }
.edge:hover polygon { stroke: red; fill: red; }
]]></style>
<script type="text/javascript"><![CDATA[
var edges = document.getElementsByTagName('g');
if (edges && edges.length) {
  for (var i=0;i<edges.length;i++) {
    if (edges[i].id.substr(0,4)=='edge') {
      edges[i].setAttribute('class','edge');
    }
  }
}
]]></script>
        <defs>
                <circle id="rim" cx="0" cy="0" r="7"/>
                <circle id="rim2" cx="0" cy="0" r="3.5"/>
                <g id="zoomPlus">
                        <use xlink:href="#rim" fill="#404040">
                                <set attributeName="fill" to="#808080" begin="zoomplus.mouseover" end="zoomplus.mouseout"/>
                        </use>
                        <path d="M-4,0h8M0,-4v8" fill="none" stroke="white" stroke-width="1.5" pointer-events="none"/>
                </g>
                <g id="zoomMin">
                        <use xlink:href="#rim" fill="#404040">
                                <set attributeName="fill" to="#808080" begin="zoomminus.mouseover" end="zoomminus.mouseout"/>
                        </use>
                        <path d="M-4,0h8" fill="none" stroke="white" stroke-width="1.5" pointer-events="none"/>
                </g>
                <g id="dirArrow">
                        <path fill="none" stroke="white" stroke-width="1.5" d="M0,-3.0v7 M-2.5,-0.5L0,-3.0L2.5,-0.5"/>
                </g>
               <g id="resetDef">
                       <use xlink:href="#rim2" fill="#404040">
                               <set attributeName="fill" to="#808080" begin="reset.mouseover" end="reset.mouseout"/>
                       </use>
               </g>
        </defs>

<script type="text/javascript">
var viewWidth = 1351;
var viewHeight = 475;
var sectionId = 'dynsection-1';
</script>
<script xlink:href="../../svgpan.js"/>
<svg id="graph" class="graph">
<g id="viewport">
<title>engine/Mesh/Mesh.hpp</title>
<!-- Node1 -->
<g id="node1" class="node"><title>Node1</title>
<polygon fill="#bfbfbf" stroke="black" points="798,-447.5 798,-466.5 916,-466.5 916,-447.5 798,-447.5"/>
<text text-anchor="middle" x="857" y="-454.5" font-family="Helvetica,sans-Serif" font-size="10.00">engine/Mesh/Mesh.hpp</text>
</g>
<!-- Node2 -->
<g id="node2" class="node"><title>Node2</title>
<g id="a_node2"><a xlink:href="../../d4/db5/GameObject_8hpp.html" target="_top" xlink:title="engine/GameObject/GameObject.hpp">
<polygon fill="none" stroke="black" points="474.5,-391.5 474.5,-410.5 653.5,-410.5 653.5,-391.5 474.5,-391.5"/>
<text text-anchor="middle" x="564" y="-398.5" font-family="Helvetica,sans-Serif" font-size="10.00">engine/GameObject/GameObject.hpp</text>
</a>
</g>
</g>
<!-- Node1&#45;&gt;Node2 -->
<g id="edge1" class="edge"><title>Node1&#45;&gt;Node2</title>
<path fill="none" stroke="midnightblue" d="M800.574,-445.601C745.201,-435.395 661.769,-420.019 610.21,-410.516"/>
<polygon fill="midnightblue" stroke="midnightblue" points="800.105,-449.073 810.573,-447.444 801.373,-442.189 800.105,-449.073"/>
</g>
<!-- Node12 -->
<g id="node12" class="node"><title>Node12</title>
<g id="a_node12"><a xlink:href="../../d2/dcc/Mesh_8cpp.html" target="_top" xlink:title="engine/Mesh/Mesh.cpp">
<polygon fill="none" stroke="black" points="1225,-62 1225,-81 1343,-81 1343,-62 1225,-62"/>
<text text-anchor="middle" x="1284" y="-69" font-family="Helvetica,sans-Serif" font-size="10.00">engine/Mesh/Mesh.cpp</text>
</a>
</g>
</g>
<!-- Node1&#45;&gt;Node12 -->
<g id="edge33" class="edge"><title>Node1&#45;&gt;Node12</title>
<path fill="none" stroke="midnightblue" d="M926.021,-450.747C995.039,-441.283 1091,-414.771 1091,-340.5 1091,-340.5 1091,-340.5 1091,-204.5 1091,-131.227 1186.95,-95.6588 1243.54,-81.052"/>
<polygon fill="midnightblue" stroke="midnightblue" points="925.523,-447.282 916.048,-452.024 926.411,-454.226 925.523,-447.282"/>
</g>
<!-- Node3 -->
<g id="node3" class="node"><title>Node3</title>
<g id="a_node3"><a xlink:href="../../d6/d80/Camera_8hpp.html" target="_top" xlink:title="engine/Camera/Camera.hpp">
<polygon fill="none" stroke="black" points="730.5,-330 730.5,-349 869.5,-349 869.5,-330 730.5,-330"/>
<text text-anchor="middle" x="800" y="-337" font-family="Helvetica,sans-Serif" font-size="10.00">engine/Camera/Camera.hpp</text>
</a>
</g>
</g>
<!-- Node2&#45;&gt;Node3 -->
<g id="edge2" class="edge"><title>Node2&#45;&gt;Node3</title>
<path fill="none" stroke="midnightblue" d="M607.755,-388.968C653.582,-377.415 724.57,-359.517 766.25,-349.009"/>
<polygon fill="midnightblue" stroke="midnightblue" points="606.654,-385.637 597.813,-391.475 608.365,-392.424 606.654,-385.637"/>
</g>
<!-- Node5 -->
<g id="node5" class="node"><title>Node5</title>
<g id="a_node5"><a xlink:href="../../db/de8/Scene_8hpp.html" target="_top" xlink:title="engine/Scene/Scene.hpp">
<polygon fill="none" stroke="black" points="442.5,-263 442.5,-282 567.5,-282 567.5,-263 442.5,-263"/>
<text text-anchor="middle" x="505" y="-270" font-family="Helvetica,sans-Serif" font-size="10.00">engine/Scene/Scene.hpp</text>
</a>
</g>
</g>
<!-- Node2&#45;&gt;Node5 -->
<g id="edge32" class="edge"><title>Node2&#45;&gt;Node5</title>
<path fill="none" stroke="midnightblue" d="M546.402,-384.212C538.462,-376.193 529.624,-365.86 524,-355 511.306,-330.487 506.988,-297.467 505.606,-282.07"/>
<polygon fill="midnightblue" stroke="midnightblue" points="544.251,-386.998 553.89,-391.393 549.096,-381.945 544.251,-386.998"/>
</g>
<!-- Node21 -->
<g id="node21" class="node"><title>Node21</title>
<g id="a_node21"><a xlink:href="../../d4/d2b/GameObject_8cpp.html" target="_top" xlink:title="engine/GameObject/GameObject.cpp">
<polygon fill="none" stroke="black" points="533.5,-330 533.5,-349 712.5,-349 712.5,-330 533.5,-330"/>
<text text-anchor="middle" x="623" y="-337" font-family="Helvetica,sans-Serif" font-size="10.00">engine/GameObject/GameObject.cpp</text>
</a>
</g>
</g>
<!-- Node2&#45;&gt;Node21 -->
<g id="edge24" class="edge"><title>Node2&#45;&gt;Node21</title>
<path fill="none" stroke="midnightblue" d="M579.544,-384.325C590.753,-373.02 605.456,-358.193 614.562,-349.009"/>
<polygon fill="midnightblue" stroke="midnightblue" points="577.009,-381.91 572.453,-391.475 581.98,-386.839 577.009,-381.91"/>
</g>
<!-- Node22 -->
<g id="node22" class="node"><title>Node22</title>
<g id="a_node22"><a xlink:href="../../df/d6e/Model_8hpp.html" target="_top" xlink:title="engine/GameObject/Model\l/Model.hpp">
<polygon fill="none" stroke="black" points="345,-324.5 345,-354.5 477,-354.5 477,-324.5 345,-324.5"/>
<text text-anchor="start" x="353" y="-342.5" font-family="Helvetica,sans-Serif" font-size="10.00">engine/GameObject/Model</text>
<text text-anchor="middle" x="411" y="-331.5" font-family="Helvetica,sans-Serif" font-size="10.00">/Model.hpp</text>
</a>
</g>
</g>
<!-- Node2&#45;&gt;Node22 -->
<g id="edge25" class="edge"><title>Node2&#45;&gt;Node22</title>
<path fill="none" stroke="midnightblue" d="M532.751,-387.847C507.896,-378.182 473.093,-364.647 447.059,-354.523"/>
<polygon fill="midnightblue" stroke="midnightblue" points="531.49,-391.113 542.079,-391.475 534.027,-384.589 531.49,-391.113"/>
</g>
<!-- Node24 -->
<g id="node24" class="node"><title>Node24</title>
<g id="a_node24"><a xlink:href="../../d4/dd0/Cube_8hpp.html" target="_top" xlink:title="engine/Primitives/Cube\l/Cube.hpp">
<polygon fill="none" stroke="black" points="117,-257.5 117,-287.5 235,-287.5 235,-257.5 117,-257.5"/>
<text text-anchor="start" x="125" y="-275.5" font-family="Helvetica,sans-Serif" font-size="10.00">engine/Primitives/Cube</text>
<text text-anchor="middle" x="176" y="-264.5" font-family="Helvetica,sans-Serif" font-size="10.00">/Cube.hpp</text>
</a>
</g>
</g>
<!-- Node2&#45;&gt;Node24 -->
<g id="edge28" class="edge"><title>Node2&#45;&gt;Node24</title>
<path fill="none" stroke="midnightblue" d="M485.205,-389.94C440.623,-382.897 384.3,-371.706 336,-355 284.59,-337.219 228.925,-305.811 198.692,-287.615"/>
<polygon fill="midnightblue" stroke="midnightblue" points="484.693,-393.403 495.11,-391.468 485.76,-386.484 484.693,-393.403"/>
</g>
<!-- Node4 -->
<g id="node4" class="node"><title>Node4</title>
<g id="a_node4"><a xlink:href="../../da/d8c/Camera_8cpp.html" target="_top" xlink:title="engine/Camera/Camera.cpp">
<polygon fill="none" stroke="black" points="1067.5,-62 1067.5,-81 1206.5,-81 1206.5,-62 1067.5,-62"/>
<text text-anchor="middle" x="1137" y="-69" font-family="Helvetica,sans-Serif" font-size="10.00">engine/Camera/Camera.cpp</text>
</a>
</g>
</g>
<!-- Node3&#45;&gt;Node4 -->
<g id="edge3" class="edge"><title>Node3&#45;&gt;Node4</title>
<path fill="none" stroke="midnightblue" d="M819,-323.503C881.191,-274.415 1077.46,-119.499 1126.04,-81.1509"/>
<polygon fill="midnightblue" stroke="midnightblue" points="816.512,-321.008 810.831,-329.951 820.849,-326.503 816.512,-321.008"/>
</g>
<!-- Node3&#45;&gt;Node5 -->
<g id="edge4" class="edge"><title>Node3&#45;&gt;Node5</title>
<path fill="none" stroke="midnightblue" d="M751.092,-327.724C693.003,-314.924 597.283,-293.833 543.956,-282.083"/>
<polygon fill="midnightblue" stroke="midnightblue" points="750.612,-331.202 761.131,-329.936 752.118,-324.366 750.612,-331.202"/>
</g>
<!-- Node6 -->
<g id="node6" class="node"><title>Node6</title>
<g id="a_node6"><a xlink:href="../../d0/dbd/AssimpImporter_8hpp.html" target="_top" xlink:title="engine/AssimpImporter\l/AssimpImporter.hpp">
<polygon fill="none" stroke="black" points="441.5,-190.5 441.5,-220.5 558.5,-220.5 558.5,-190.5 441.5,-190.5"/>
<text text-anchor="start" x="449.5" y="-208.5" font-family="Helvetica,sans-Serif" font-size="10.00">engine/AssimpImporter</text>
<text text-anchor="middle" x="500" y="-197.5" font-family="Helvetica,sans-Serif" font-size="10.00">/AssimpImporter.hpp</text>
</a>
</g>
</g>
<!-- Node5&#45;&gt;Node6 -->
<g id="edge5" class="edge"><title>Node5&#45;&gt;Node6</title>
<path fill="none" stroke="midnightblue" d="M503.557,-252.739C502.768,-242.487 501.808,-230.001 501.084,-220.589"/>
<polygon fill="midnightblue" stroke="midnightblue" points="500.069,-253.032 504.326,-262.734 507.048,-252.495 500.069,-253.032"/>
</g>
<!-- Node9 -->
<g id="node9" class="node"><title>Node9</title>
<g id="a_node9"><a xlink:href="../../d4/d1c/GameEngine_8hpp.html" target="_top" xlink:title="engine/GameEngine/GameEngine.hpp">
<polygon fill="none" stroke="black" points="577,-196 577,-215 759,-215 759,-196 577,-196"/>
<text text-anchor="middle" x="668" y="-203" font-family="Helvetica,sans-Serif" font-size="10.00">engine/GameEngine/GameEngine.hpp</text>
</a>
</g>
</g>
<!-- Node5&#45;&gt;Node9 -->
<g id="edge8" class="edge"><title>Node5&#45;&gt;Node9</title>
<path fill="none" stroke="midnightblue" d="M536.085,-259.104C568.449,-246.198 618.28,-226.327 646.525,-215.064"/>
<polygon fill="midnightblue" stroke="midnightblue" points="534.637,-255.913 526.645,-262.869 537.23,-262.415 534.637,-255.913"/>
</g>
<!-- Node20 -->
<g id="node20" class="node"><title>Node20</title>
<g id="a_node20"><a xlink:href="../../de/d15/Scene_8cpp.html" target="_top" xlink:title="engine/Scene/Scene.cpp">
<polygon fill="none" stroke="black" points="258.5,-196 258.5,-215 383.5,-215 383.5,-196 258.5,-196"/>
<text text-anchor="middle" x="321" y="-203" font-family="Helvetica,sans-Serif" font-size="10.00">engine/Scene/Scene.cpp</text>
</a>
</g>
</g>
<!-- Node5&#45;&gt;Node20 -->
<g id="edge23" class="edge"><title>Node5&#45;&gt;Node20</title>
<path fill="none" stroke="midnightblue" d="M470.851,-259.436C434.349,-246.542 377.401,-226.424 345.242,-215.064"/>
<polygon fill="midnightblue" stroke="midnightblue" points="469.971,-262.838 480.566,-262.869 472.303,-256.237 469.971,-262.838"/>
</g>
<!-- Node7 -->
<g id="node7" class="node"><title>Node7</title>
<g id="a_node7"><a xlink:href="../../d4/d7f/AssimpImporter_8cpp.html" target="_top" xlink:title="engine/AssimpImporter\l/AssimpImporter.cpp">
<polygon fill="none" stroke="black" points="354.5,-123.5 354.5,-153.5 471.5,-153.5 471.5,-123.5 354.5,-123.5"/>
<text text-anchor="start" x="362.5" y="-141.5" font-family="Helvetica,sans-Serif" font-size="10.00">engine/AssimpImporter</text>
<text text-anchor="middle" x="413" y="-130.5" font-family="Helvetica,sans-Serif" font-size="10.00">/AssimpImporter.cpp</text>
</a>
</g>
</g>
<!-- Node6&#45;&gt;Node7 -->
<g id="edge6" class="edge"><title>Node6&#45;&gt;Node7</title>
<path fill="none" stroke="midnightblue" d="M472.786,-184.168C459.482,-174.228 443.804,-162.514 431.841,-153.577"/>
<polygon fill="midnightblue" stroke="midnightblue" points="471.016,-187.215 481.122,-190.396 475.206,-181.607 471.016,-187.215"/>
</g>
<!-- Node8 -->
<g id="node8" class="node"><title>Node8</title>
<g id="a_node8"><a xlink:href="../../dd/d98/GameEngine_8cpp.html" target="_top" xlink:title="engine/GameEngine/GameEngine.cpp">
<polygon fill="none" stroke="black" points="0,-62 0,-81 182,-81 182,-62 0,-62"/>
<text text-anchor="middle" x="91" y="-69" font-family="Helvetica,sans-Serif" font-size="10.00">engine/GameEngine/GameEngine.cpp</text>
</a>
</g>
</g>
<!-- Node6&#45;&gt;Node8 -->
<g id="edge7" class="edge"><title>Node6&#45;&gt;Node8</title>
<path fill="none" stroke="midnightblue" d="M500.903,-180.23C500.18,-161.755 495.924,-137.166 480,-123 431.646,-79.984 255.139,-95.644 191,-87 177.179,-85.1373 162.298,-83.0331 148.348,-81.0171"/>
<polygon fill="midnightblue" stroke="midnightblue" points="497.403,-180.303 500.981,-190.275 504.403,-180.248 497.403,-180.303"/>
</g>
<!-- Node9&#45;&gt;Node8 -->
<g id="edge9" class="edge"><title>Node9&#45;&gt;Node8</title>
<path fill="none" stroke="midnightblue" d="M641.915,-191.324C597.264,-168.811 510.262,-125.142 503,-123 369.116,-83.5088 329.419,-105.017 191,-87 176.996,-85.1772 161.912,-83.067 147.81,-81.0304"/>
<polygon fill="midnightblue" stroke="midnightblue" points="640.507,-194.534 651.012,-195.913 643.66,-188.284 640.507,-194.534"/>
</g>
<!-- Node10 -->
<g id="node10" class="node"><title>Node10</title>
<g id="a_node10"><a xlink:href="../../d1/d2a/glwindow_8h.html" target="_top" xlink:title="window/glwindow.h">
<polygon fill="none" stroke="black" points="629.5,-129 629.5,-148 730.5,-148 730.5,-129 629.5,-129"/>
<text text-anchor="middle" x="680" y="-136" font-family="Helvetica,sans-Serif" font-size="10.00">window/glwindow.h</text>
</a>
</g>
</g>
<!-- Node9&#45;&gt;Node10 -->
<g id="edge10" class="edge"><title>Node9&#45;&gt;Node10</title>
<path fill="none" stroke="midnightblue" d="M671.501,-185.537C673.784,-173.17 676.655,-157.62 678.407,-148.127"/>
<polygon fill="midnightblue" stroke="midnightblue" points="667.992,-185.265 669.618,-195.734 674.876,-186.535 667.992,-185.265"/>
</g>
<!-- Node16 -->
<g id="node16" class="node"><title>Node16</title>
<g id="a_node16"><a xlink:href="../../d3/d1f/glwindow_8cpp.html" target="_top" xlink:title="window/glwindow.cpp">
<polygon fill="none" stroke="black" points="200,-62 200,-81 312,-81 312,-62 200,-62"/>
<text text-anchor="middle" x="256" y="-69" font-family="Helvetica,sans-Serif" font-size="10.00">window/glwindow.cpp</text>
</a>
</g>
</g>
<!-- Node9&#45;&gt;Node16 -->
<g id="edge22" class="edge"><title>Node9&#45;&gt;Node16</title>
<path fill="none" stroke="midnightblue" d="M653.483,-188.23C635.463,-169.187 602.826,-138.314 568,-123 466.447,-78.3446 430.103,-107.091 321,-87 311.562,-85.2621 301.411,-83.1268 292.002,-81.0347"/>
<polygon fill="midnightblue" stroke="midnightblue" points="651.129,-190.84 660.482,-195.817 656.274,-186.094 651.129,-190.84"/>
</g>
<!-- Node10&#45;&gt;Node4 -->
<g id="edge12" class="edge"><title>Node10&#45;&gt;Node4</title>
<path fill="none" stroke="midnightblue" d="M740.729,-130.311C815.516,-121.246 946.363,-104.692 1058,-87 1069.29,-85.2103 1081.46,-83.0794 1092.78,-81.0095"/>
<polygon fill="midnightblue" stroke="midnightblue" points="740.064,-126.866 730.556,-131.54 740.903,-133.816 740.064,-126.866"/>
</g>
<!-- Node10&#45;&gt;Node8 -->
<g id="edge13" class="edge"><title>Node10&#45;&gt;Node8</title>
<path fill="none" stroke="midnightblue" d="M619.184,-129.249C602.597,-127.102 584.619,-124.869 568,-123 400.736,-104.192 358.115,-107.083 191,-87 176.544,-85.2627 160.949,-83.1278 146.475,-81.0356"/>
<polygon fill="midnightblue" stroke="midnightblue" points="618.938,-132.747 629.307,-130.571 619.845,-125.806 618.938,-132.747"/>
</g>
<!-- Node11 -->
<g id="node11" class="node"><title>Node11</title>
<g id="a_node11"><a xlink:href="../../db/d2b/BufferObject_8cpp.html" target="_top" xlink:title="engine/BufferObject\l/BufferObject.cpp">
<polygon fill="none" stroke="black" points="636.5,-56.5 636.5,-86.5 739.5,-86.5 739.5,-56.5 636.5,-56.5"/>
<text text-anchor="start" x="644.5" y="-74.5" font-family="Helvetica,sans-Serif" font-size="10.00">engine/BufferObject</text>
<text text-anchor="middle" x="688" y="-63.5" font-family="Helvetica,sans-Serif" font-size="10.00">/BufferObject.cpp</text>
</a>
</g>
</g>
<!-- Node10&#45;&gt;Node11 -->
<g id="edge11" class="edge"><title>Node10&#45;&gt;Node11</title>
<path fill="none" stroke="midnightblue" d="M682.309,-118.739C683.571,-108.487 685.108,-96.0011 686.266,-86.589"/>
<polygon fill="midnightblue" stroke="midnightblue" points="678.827,-118.381 681.079,-128.734 685.774,-119.236 678.827,-118.381"/>
</g>
<!-- Node10&#45;&gt;Node12 -->
<g id="edge14" class="edge"><title>Node10&#45;&gt;Node12</title>
<path fill="none" stroke="midnightblue" d="M741.059,-134.063C840.844,-127.928 1044.9,-113.212 1216,-87 1226.38,-85.4097 1237.56,-83.2257 1247.79,-81.0351"/>
<polygon fill="midnightblue" stroke="midnightblue" points="740.632,-130.582 730.863,-134.682 741.056,-137.57 740.632,-130.582"/>
</g>
<!-- Node13 -->
<g id="node13" class="node"><title>Node13</title>
<g id="a_node13"><a xlink:href="../../da/d3d/BasicRenderer_8cpp.html" target="_top" xlink:title="engine/Renderer/BasicRenderer\l/BasicRenderer.cpp">
<polygon fill="none" stroke="black" points="757.5,-56.5 757.5,-86.5 912.5,-86.5 912.5,-56.5 757.5,-56.5"/>
<text text-anchor="start" x="765.5" y="-74.5" font-family="Helvetica,sans-Serif" font-size="10.00">engine/Renderer/BasicRenderer</text>
<text text-anchor="middle" x="835" y="-63.5" font-family="Helvetica,sans-Serif" font-size="10.00">/BasicRenderer.cpp</text>
</a>
</g>
</g>
<!-- Node10&#45;&gt;Node13 -->
<g id="edge15" class="edge"><title>Node10&#45;&gt;Node13</title>
<path fill="none" stroke="midnightblue" d="M710.016,-124.913C736.262,-113.906 774.331,-97.9418 801.548,-86.5281"/>
<polygon fill="midnightblue" stroke="midnightblue" points="708.451,-121.773 700.583,-128.869 711.158,-128.229 708.451,-121.773"/>
</g>
<!-- Node14 -->
<g id="node14" class="node"><title>Node14</title>
<g id="a_node14"><a xlink:href="../../dd/d84/Shader_8cpp.html" target="_top" xlink:title="engine/Shaders/Shader\l/Shader.cpp">
<polygon fill="none" stroke="black" points="931,-56.5 931,-86.5 1049,-86.5 1049,-56.5 931,-56.5"/>
<text text-anchor="start" x="939" y="-74.5" font-family="Helvetica,sans-Serif" font-size="10.00">engine/Shaders/Shader</text>
<text text-anchor="middle" x="990" y="-63.5" font-family="Helvetica,sans-Serif" font-size="10.00">/Shader.cpp</text>
</a>
</g>
</g>
<!-- Node10&#45;&gt;Node14 -->
<g id="edge16" class="edge"><title>Node10&#45;&gt;Node14</title>
<path fill="none" stroke="midnightblue" d="M731.148,-126.894C780.138,-116.72 856.134,-100.895 922,-87 924.835,-86.402 927.735,-85.7887 930.665,-85.1682"/>
<polygon fill="midnightblue" stroke="midnightblue" points="730.197,-123.517 721.118,-128.977 731.621,-130.371 730.197,-123.517"/>
</g>
<!-- Node15 -->
<g id="node15" class="node"><title>Node15</title>
<g id="a_node15"><a xlink:href="../../de/d34/ShaderProgram_8cpp.html" target="_top" xlink:title="engine/Shaders/ShaderProgram\l/ShaderProgram.cpp">
<polygon fill="none" stroke="black" points="330.5,-56.5 330.5,-86.5 485.5,-86.5 485.5,-56.5 330.5,-56.5"/>
<text text-anchor="start" x="338.5" y="-74.5" font-family="Helvetica,sans-Serif" font-size="10.00">engine/Shaders/ShaderProgram</text>
<text text-anchor="middle" x="408" y="-63.5" font-family="Helvetica,sans-Serif" font-size="10.00">/ShaderProgram.cpp</text>
</a>
</g>
</g>
<!-- Node10&#45;&gt;Node15 -->
<g id="edge17" class="edge"><title>Node10&#45;&gt;Node15</title>
<path fill="none" stroke="midnightblue" d="M634.166,-126.547C588.131,-115.546 517.009,-98.5498 466.832,-86.5592"/>
<polygon fill="midnightblue" stroke="midnightblue" points="633.621,-130.015 644.161,-128.936 635.248,-123.207 633.621,-130.015"/>
</g>
<!-- Node10&#45;&gt;Node16 -->
<g id="edge18" class="edge"><title>Node10&#45;&gt;Node16</title>
<path fill="none" stroke="midnightblue" d="M632.705,-126.863C625.779,-125.466 618.718,-124.13 612,-123 483.485,-101.391 449.412,-109.213 321,-87 311.316,-85.3249 300.897,-83.1636 291.298,-81.0237"/>
<polygon fill="midnightblue" stroke="midnightblue" points="632.198,-130.332 642.701,-128.936 633.62,-123.478 632.198,-130.332"/>
</g>
<!-- Node17 -->
<g id="node17" class="node"><title>Node17</title>
<g id="a_node17"><a xlink:href="../../d9/d53/mainwindow_8h.html" target="_top" xlink:title="window/mainwindow.h">
<polygon fill="none" stroke="black" points="503.5,-62 503.5,-81 618.5,-81 618.5,-62 503.5,-62"/>
<text text-anchor="middle" x="561" y="-69" font-family="Helvetica,sans-Serif" font-size="10.00">window/mainwindow.h</text>
</a>
</g>
</g>
<!-- Node10&#45;&gt;Node17 -->
<g id="edge19" class="edge"><title>Node10&#45;&gt;Node17</title>
<path fill="none" stroke="midnightblue" d="M654.895,-123.787C631.31,-110.905 596.744,-92.0243 576.795,-81.1273"/>
<polygon fill="midnightblue" stroke="midnightblue" points="653.497,-127.012 663.951,-128.734 656.853,-120.868 653.497,-127.012"/>
</g>
<!-- Node18 -->
<g id="node18" class="node"><title>Node18</title>
<g id="a_node18"><a xlink:href="../../df/d0a/main_8cpp.html" target="_top" xlink:title="TODO. ">
<polygon fill="none" stroke="black" points="479,-0.5 479,-19.5 535,-19.5 535,-0.5 479,-0.5"/>
<text text-anchor="middle" x="507" y="-7.5" font-family="Helvetica,sans-Serif" font-size="10.00">main.cpp</text>
</a>
</g>
</g>
<!-- Node17&#45;&gt;Node18 -->
<g id="edge20" class="edge"><title>Node17&#45;&gt;Node18</title>
<path fill="none" stroke="midnightblue" d="M546.477,-54.4975C536.256,-43.2356 522.977,-28.6044 514.723,-19.5091"/>
<polygon fill="midnightblue" stroke="midnightblue" points="543.951,-56.9222 553.263,-61.9751 549.134,-52.2178 543.951,-56.9222"/>
</g>
<!-- Node19 -->
<g id="node19" class="node"><title>Node19</title>
<g id="a_node19"><a xlink:href="../../d8/dd9/mainwindow_8cpp.html" target="_top" xlink:title="window/mainwindow.cpp">
<polygon fill="none" stroke="black" points="552.5,-0.5 552.5,-19.5 677.5,-19.5 677.5,-0.5 552.5,-0.5"/>
<text text-anchor="middle" x="615" y="-7.5" font-family="Helvetica,sans-Serif" font-size="10.00">window/mainwindow.cpp</text>
</a>
</g>
</g>
<!-- Node17&#45;&gt;Node19 -->
<g id="edge21" class="edge"><title>Node17&#45;&gt;Node19</title>
<path fill="none" stroke="midnightblue" d="M575.523,-54.4975C585.744,-43.2356 599.023,-28.6044 607.277,-19.5091"/>
<polygon fill="midnightblue" stroke="midnightblue" points="572.866,-52.2178 568.737,-61.9751 578.049,-56.9222 572.866,-52.2178"/>
</g>
<!-- Node22&#45;&gt;Node7 -->
<g id="edge26" class="edge"><title>Node22&#45;&gt;Node7</title>
<path fill="none" stroke="midnightblue" d="M411.246,-313.998C411.669,-271.93 412.52,-187.256 412.857,-153.682"/>
<polygon fill="midnightblue" stroke="midnightblue" points="407.745,-314.154 411.144,-324.188 414.744,-314.224 407.745,-314.154"/>
</g>
<!-- Node23 -->
<g id="node23" class="node"><title>Node23</title>
<g id="a_node23"><a xlink:href="../../dd/d2e/Model_8cpp.html" target="_top" xlink:title="engine/GameObject/Model\l/Model.cpp">
<polygon fill="none" stroke="black" points="253,-257.5 253,-287.5 385,-287.5 385,-257.5 253,-257.5"/>
<text text-anchor="start" x="261" y="-275.5" font-family="Helvetica,sans-Serif" font-size="10.00">engine/GameObject/Model</text>
<text text-anchor="middle" x="319" y="-264.5" font-family="Helvetica,sans-Serif" font-size="10.00">/Model.cpp</text>
</a>
</g>
</g>
<!-- Node22&#45;&gt;Node23 -->
<g id="edge27" class="edge"><title>Node22&#45;&gt;Node23</title>
<path fill="none" stroke="midnightblue" d="M382.623,-318.451C368.47,-308.452 351.695,-296.6 338.924,-287.577"/>
<polygon fill="midnightblue" stroke="midnightblue" points="380.851,-321.484 391.037,-324.396 384.89,-315.767 380.851,-321.484"/>
</g>
<!-- Node24&#45;&gt;Node8 -->
<g id="edge29" class="edge"><title>Node24&#45;&gt;Node8</title>
<path fill="none" stroke="midnightblue" d="M139.955,-251.737C128.569,-243.695 117.114,-233.355 110,-221 83.0222,-174.15 87.3404,-105.398 89.9081,-81.2631"/>
<polygon fill="midnightblue" stroke="midnightblue" points="138.302,-254.839 148.574,-257.433 142.161,-248.999 138.302,-254.839"/>
</g>
<!-- Node24&#45;&gt;Node20 -->
<g id="edge31" class="edge"><title>Node24&#45;&gt;Node20</title>
<path fill="none" stroke="midnightblue" d="M216.611,-253.295C244.574,-240.76 280.44,-224.682 302.023,-215.007"/>
<polygon fill="midnightblue" stroke="midnightblue" points="215.156,-250.112 207.463,-257.396 218.02,-256.499 215.156,-250.112"/>
</g>
<!-- Node25 -->
<g id="node25" class="node"><title>Node25</title>
<g id="a_node25"><a xlink:href="../../d6/d05/Cube_8cpp.html" target="_top" xlink:title="engine/Primitives/Cube\l/Cube.cpp">
<polygon fill="none" stroke="black" points="119,-190.5 119,-220.5 237,-220.5 237,-190.5 119,-190.5"/>
<text text-anchor="start" x="127" y="-208.5" font-family="Helvetica,sans-Serif" font-size="10.00">engine/Primitives/Cube</text>
<text text-anchor="middle" x="178" y="-197.5" font-family="Helvetica,sans-Serif" font-size="10.00">/Cube.cpp</text>
</a>
</g>
</g>
<!-- Node24&#45;&gt;Node25 -->
<g id="edge30" class="edge"><title>Node24&#45;&gt;Node25</title>
<path fill="none" stroke="midnightblue" d="M176.751,-247.108C177.026,-238.154 177.329,-228.323 177.567,-220.577"/>
<polygon fill="midnightblue" stroke="midnightblue" points="173.243,-247.293 176.434,-257.396 180.24,-247.508 173.243,-247.293"/>
</g>
</g>
</svg>
        <g id="navigator" transform="translate(0 0)" fill="#404254">
                <rect fill="#f2f5e9" fill-opacity="0.5" stroke="#606060" stroke-width=".5" x="0" y="0" width="60" height="60"/>
                <use id="zoomplus" xlink:href="#zoomPlus" x="17" y="9" onmousedown="handleZoom(evt,'in')"/>
                <use id="zoomminus" xlink:href="#zoomMin" x="42" y="9" onmousedown="handleZoom(evt,'out')"/>
                <use id="reset" xlink:href="#resetDef" x="30" y="36" onmousedown="handleReset()"/>
                <g id="arrowUp" xlink:href="#dirArrow" transform="translate(30 24)" onmousedown="handlePan(0,-1)">
                  <use xlink:href="#rim" fill="#404040">
                        <set attributeName="fill" to="#808080" begin="arrowUp.mouseover" end="arrowUp.mouseout"/>
                  </use>
                  <path fill="none" stroke="white" stroke-width="1.5" d="M0,-3.0v7 M-2.5,-0.5L0,-3.0L2.5,-0.5"/>
                </g>
                <g id="arrowRight" xlink:href="#dirArrow" transform="rotate(90) translate(36 -43)" onmousedown="handlePan(1,0)">
                  <use xlink:href="#rim" fill="#404040">
                        <set attributeName="fill" to="#808080" begin="arrowRight.mouseover" end="arrowRight.mouseout"/>
                  </use>
                  <path fill="none" stroke="white" stroke-width="1.5" d="M0,-3.0v7 M-2.5,-0.5L0,-3.0L2.5,-0.5"/>
                </g>
                <g id="arrowDown" xlink:href="#dirArrow" transform="rotate(180) translate(-30 -48)" onmousedown="handlePan(0,1)">
                  <use xlink:href="#rim" fill="#404040">
                        <set attributeName="fill" to="#808080" begin="arrowDown.mouseover" end="arrowDown.mouseout"/>
                  </use>
                  <path fill="none" stroke="white" stroke-width="1.5" d="M0,-3.0v7 M-2.5,-0.5L0,-3.0L2.5,-0.5"/>
                </g>
                <g id="arrowLeft" xlink:href="#dirArrow" transform="rotate(270) translate(-36 17)" onmousedown="handlePan(-1,0)">
                  <use xlink:href="#rim" fill="#404040">
                        <set attributeName="fill" to="#808080" begin="arrowLeft.mouseover" end="arrowLeft.mouseout"/>
                  </use>
                  <path fill="none" stroke="white" stroke-width="1.5" d="M0,-3.0v7 M-2.5,-0.5L0,-3.0L2.5,-0.5"/>
                </g>
        </g>
        <svg viewBox="0 0 15 15" width="100%" height="30px" preserveAspectRatio="xMaxYMin meet">
         <g id="arrow_out" transform="scale(0.3 0.3)">
          <a xlink:href="Mesh_8hpp__dep__incl_org.svg" target="_base">
           <rect id="button" ry="5" rx="5" y="6" x="6" height="38" width="38"
                fill="#f2f5e9" fill-opacity="0.5" stroke="#606060" stroke-width="1.0"/>
           <path id="arrow"
             d="M 11.500037,31.436501 C 11.940474,20.09759 22.043105,11.32322 32.158766,21.979434 L 37.068811,17.246167 C 37.068811,17.246167 37.088388,32 37.088388,32 L 22.160133,31.978069 C 22.160133,31.978069 26.997745,27.140456 26.997745,27.140456 C 18.528582,18.264221 13.291696,25.230495 11.500037,31.436501 z"
             style="fill:#404040;"/>
          </a>
         </g>
        </svg>
</svg>
