<?xml version="1.0" encoding="UTF-8" standalone="no"?>
<!DOCTYPE svg PUBLIC "-//W3C//DTD SVG 1.1//EN"
 "http://www.w3.org/Graphics/SVG/1.1/DTD/svg11.dtd">
<!-- Generated by graphviz version 2.38.0 (20140413.2041)
 -->
<!-- Title: engine/Mesh/Mesh.hpp Pages: 1 -->
<!--zoomable 408 -->
<svg id="main" version="1.1" xmlns="http://www.w3.org/2000/svg" xmlns:xlink="http://www.w3.org/1999/xlink" xml:space="preserve" onload="init(evt)">
<style type="text/css"><![CDATA[
.edge:hover path { stroke: red; }
.edge:hover polygon { stroke: red; fill: red; }
]]></style>
<script type="text/javascript"><![CDATA[
var edges = document.getElementsByTagName('g');
if (edges && edges.length) {
  for (var i=0;i<edges.length;i++) {
    if (edges[i].id.substr(0,4)=='edge') {
      edges[i].setAttribute('class','edge');
    }
  }
}
]]></script>
        <defs>
                <circle id="rim" cx="0" cy="0" r="7"/>
                <circle id="rim2" cx="0" cy="0" r="3.5"/>
                <g id="zoomPlus">
                        <use xlink:href="#rim" fill="#404040">
                                <set attributeName="fill" to="#808080" begin="zoomplus.mouseover" end="zoomplus.mouseout"/>
                        </use>
                        <path d="M-4,0h8M0,-4v8" fill="none" stroke="white" stroke-width="1.5" pointer-events="none"/>
                </g>
                <g id="zoomMin">
                        <use xlink:href="#rim" fill="#404040">
                                <set attributeName="fill" to="#808080" begin="zoomminus.mouseover" end="zoomminus.mouseout"/>
                        </use>
                        <path d="M-4,0h8" fill="none" stroke="white" stroke-width="1.5" pointer-events="none"/>
                </g>
                <g id="dirArrow">
                        <path fill="none" stroke="white" stroke-width="1.5" d="M0,-3.0v7 M-2.5,-0.5L0,-3.0L2.5,-0.5"/>
                </g>
               <g id="resetDef">
                       <use xlink:href="#rim2" fill="#404040">
                               <set attributeName="fill" to="#808080" begin="reset.mouseover" end="reset.mouseout"/>
                       </use>
               </g>
        </defs>

<script type="text/javascript">
var viewWidth = 1414;
var viewHeight = 408;
var sectionId = 'dynsection-1';
</script>
<script xlink:href="../../svgpan.js"/>
<svg id="graph" class="graph">
<g id="viewport">
<title>engine/Mesh/Mesh.hpp</title>
<!-- Node1 -->
<g id="node1" class="node"><title>Node1</title>
<polygon fill="#bfbfbf" stroke="black" points="152,-380.5 152,-399.5 270,-399.5 270,-380.5 152,-380.5"/>
<text text-anchor="middle" x="211" y="-387.5" font-family="Helvetica,sans-Serif" font-size="10.00">engine/Mesh/Mesh.hpp</text>
</g>
<!-- Node2 -->
<g id="node2" class="node"><title>Node2</title>
<g id="a_node2"><a xlink:href="../../d2/dcc/Mesh_8cpp.html" target="_top" xlink:title="engine/Mesh/Mesh.cpp">
<polygon fill="none" stroke="black" points="0,-62 0,-81 118,-81 118,-62 0,-62"/>
<text text-anchor="middle" x="59" y="-69" font-family="Helvetica,sans-Serif" font-size="10.00">engine/Mesh/Mesh.cpp</text>
</a>
</g>
</g>
<!-- Node1&#45;&gt;Node2 -->
<g id="edge1" class="edge"><title>Node1&#45;&gt;Node2</title>
<path fill="none" stroke="midnightblue" d="M189.376,-374.133C161.342,-352.91 116,-311.075 116,-262.5 116,-262.5 116,-262.5 116,-193.5 116,-147.522 81.9023,-100.283 66.4518,-81.2384"/>
<polygon fill="midnightblue" stroke="midnightblue" points="187.652,-377.208 197.791,-380.282 191.782,-371.556 187.652,-377.208"/>
</g>
<!-- Node3 -->
<g id="node3" class="node"><title>Node3</title>
<g id="a_node3"><a xlink:href="../../dd/de2/MeshLibrary_8hpp.html" target="_top" xlink:title="engine/MeshLibrary\l/MeshLibrary.hpp">
<polygon fill="none" stroke="black" points="857.5,-313.5 857.5,-343.5 958.5,-343.5 958.5,-313.5 857.5,-313.5"/>
<text text-anchor="start" x="865.5" y="-331.5" font-family="Helvetica,sans-Serif" font-size="10.00">engine/MeshLibrary</text>
<text text-anchor="middle" x="908" y="-320.5" font-family="Helvetica,sans-Serif" font-size="10.00">/MeshLibrary.hpp</text>
</a>
</g>
</g>
<!-- Node1&#45;&gt;Node3 -->
<g id="edge2" class="edge"><title>Node1&#45;&gt;Node3</title>
<path fill="none" stroke="midnightblue" d="M280.31,-383.083C420.397,-371.125 734.337,-344.325 857.264,-333.831"/>
<polygon fill="midnightblue" stroke="midnightblue" points="279.791,-379.615 270.125,-383.953 280.387,-386.589 279.791,-379.615"/>
</g>
<!-- Node12 -->
<g id="node12" class="node"><title>Node12</title>
<g id="a_node12"><a xlink:href="../../d3/d28/Renderer_8cpp.html" target="_top" xlink:title="engine/Renderer/Renderer.cpp">
<polygon fill="none" stroke="black" points="136.5,-62 136.5,-81 285.5,-81 285.5,-62 136.5,-62"/>
<text text-anchor="middle" x="211" y="-69" font-family="Helvetica,sans-Serif" font-size="10.00">engine/Renderer/Renderer.cpp</text>
</a>
</g>
</g>
<!-- Node1&#45;&gt;Node12 -->
<g id="edge24" class="edge"><title>Node1&#45;&gt;Node12</title>
<path fill="none" stroke="midnightblue" d="M211,-370.303C211,-345.617 211,-300.798 211,-262.5 211,-262.5 211,-262.5 211,-193.5 211,-151.276 211,-100.764 211,-81.0085"/>
<polygon fill="midnightblue" stroke="midnightblue" points="207.5,-370.411 211,-380.411 214.5,-370.411 207.5,-370.411"/>
</g>
<!-- Node4 -->
<g id="node4" class="node"><title>Node4</title>
<g id="a_node4"><a xlink:href="../../d6/d92/MeshLibrary_8cpp.html" target="_top" xlink:title="engine/MeshLibrary\l/MeshLibrary.cpp">
<polygon fill="none" stroke="black" points="988.5,-246.5 988.5,-276.5 1089.5,-276.5 1089.5,-246.5 988.5,-246.5"/>
<text text-anchor="start" x="996.5" y="-264.5" font-family="Helvetica,sans-Serif" font-size="10.00">engine/MeshLibrary</text>
<text text-anchor="middle" x="1039" y="-253.5" font-family="Helvetica,sans-Serif" font-size="10.00">/MeshLibrary.cpp</text>
</a>
</g>
</g>
<!-- Node3&#45;&gt;Node4 -->
<g id="edge3" class="edge"><title>Node3&#45;&gt;Node4</title>
<path fill="none" stroke="midnightblue" d="M945.58,-308.853C966.293,-298.576 991.588,-286.025 1010.63,-276.577"/>
<polygon fill="midnightblue" stroke="midnightblue" points="943.827,-305.816 936.425,-313.396 946.939,-312.086 943.827,-305.816"/>
</g>
<!-- Node5 -->
<g id="node5" class="node"><title>Node5</title>
<g id="a_node5"><a xlink:href="../../db/de8/Scene_8hpp.html" target="_top" xlink:title="engine/Scene/Scene.hpp">
<polygon fill="none" stroke="black" points="845.5,-252 845.5,-271 970.5,-271 970.5,-252 845.5,-252"/>
<text text-anchor="middle" x="908" y="-259" font-family="Helvetica,sans-Serif" font-size="10.00">engine/Scene/Scene.hpp</text>
</a>
</g>
</g>
<!-- Node3&#45;&gt;Node5 -->
<g id="edge4" class="edge"><title>Node3&#45;&gt;Node5</title>
<path fill="none" stroke="midnightblue" d="M908,-303.25C908,-292.017 908,-279.377 908,-271.195"/>
<polygon fill="midnightblue" stroke="midnightblue" points="904.5,-303.396 908,-313.396 911.5,-303.396 904.5,-303.396"/>
</g>
<!-- Node6 -->
<g id="node6" class="node"><title>Node6</title>
<g id="a_node6"><a xlink:href="../../d4/d7f/AssimpImporter_8cpp.html" target="_top" xlink:title="engine/AssimpImporter\l/AssimpImporter.cpp">
<polygon fill="none" stroke="black" points="716.5,-179.5 716.5,-209.5 833.5,-209.5 833.5,-179.5 716.5,-179.5"/>
<text text-anchor="start" x="724.5" y="-197.5" font-family="Helvetica,sans-Serif" font-size="10.00">engine/AssimpImporter</text>
<text text-anchor="middle" x="775" y="-186.5" font-family="Helvetica,sans-Serif" font-size="10.00">/AssimpImporter.cpp</text>
</a>
</g>
</g>
<!-- Node5&#45;&gt;Node6 -->
<g id="edge5" class="edge"><title>Node5&#45;&gt;Node6</title>
<path fill="none" stroke="midnightblue" d="M881.346,-247.474C858.862,-236.485 826.749,-220.791 803.704,-209.528"/>
<polygon fill="midnightblue" stroke="midnightblue" points="879.817,-250.622 890.339,-251.869 882.891,-244.333 879.817,-250.622"/>
</g>
<!-- Node7 -->
<g id="node7" class="node"><title>Node7</title>
<g id="a_node7"><a xlink:href="../../d4/d1c/GameEngine_8hpp.html" target="_top" xlink:title="engine/GameEngine/GameEngine.hpp">
<polygon fill="none" stroke="black" points="516,-185 516,-204 698,-204 698,-185 516,-185"/>
<text text-anchor="middle" x="607" y="-192" font-family="Helvetica,sans-Serif" font-size="10.00">engine/GameEngine/GameEngine.hpp</text>
</a>
</g>
</g>
<!-- Node5&#45;&gt;Node7 -->
<g id="edge6" class="edge"><title>Node5&#45;&gt;Node7</title>
<path fill="none" stroke="midnightblue" d="M858.465,-249.803C799.231,-237.012 701.272,-215.858 646.748,-204.083"/>
<polygon fill="midnightblue" stroke="midnightblue" points="857.826,-253.246 868.34,-251.936 859.304,-246.404 857.826,-253.246"/>
</g>
<!-- Node19 -->
<g id="node19" class="node"><title>Node19</title>
<g id="a_node19"><a xlink:href="../../d2/d41/Light_8cpp.html" target="_top" xlink:title="engine/Light/Light.cpp">
<polygon fill="none" stroke="black" points="852,-185 852,-204 964,-204 964,-185 852,-185"/>
<text text-anchor="middle" x="908" y="-192" font-family="Helvetica,sans-Serif" font-size="10.00">engine/Light/Light.cpp</text>
</a>
</g>
</g>
<!-- Node5&#45;&gt;Node19 -->
<g id="edge20" class="edge"><title>Node5&#45;&gt;Node19</title>
<path fill="none" stroke="midnightblue" d="M908,-241.537C908,-229.17 908,-213.62 908,-204.127"/>
<polygon fill="midnightblue" stroke="midnightblue" points="904.5,-241.734 908,-251.734 911.5,-241.734 904.5,-241.734"/>
</g>
<!-- Node20 -->
<g id="node20" class="node"><title>Node20</title>
<g id="a_node20"><a xlink:href="../../de/d4f/Object_8cpp.html" target="_top" xlink:title="engine/Object/Object.cpp">
<polygon fill="none" stroke="black" points="982.5,-185 982.5,-204 1109.5,-204 1109.5,-185 982.5,-185"/>
<text text-anchor="middle" x="1046" y="-192" font-family="Helvetica,sans-Serif" font-size="10.00">engine/Object/Object.cpp</text>
</a>
</g>
</g>
<!-- Node5&#45;&gt;Node20 -->
<g id="edge21" class="edge"><title>Node5&#45;&gt;Node20</title>
<path fill="none" stroke="midnightblue" d="M935.72,-247.444C963.053,-234.569 1004.05,-215.257 1027.6,-204.167"/>
<polygon fill="midnightblue" stroke="midnightblue" points="933.881,-244.441 926.325,-251.869 936.863,-250.774 933.881,-244.441"/>
</g>
<!-- Node21 -->
<g id="node21" class="node"><title>Node21</title>
<g id="a_node21"><a xlink:href="../../da/daf/PerspectiveCamera_8cpp.html" target="_top" xlink:title="engine/PerspectiveCamera\l/PerspectiveCamera.cpp">
<polygon fill="none" stroke="black" points="1128,-179.5 1128,-209.5 1262,-209.5 1262,-179.5 1128,-179.5"/>
<text text-anchor="start" x="1136" y="-197.5" font-family="Helvetica,sans-Serif" font-size="10.00">engine/PerspectiveCamera</text>
<text text-anchor="middle" x="1195" y="-186.5" font-family="Helvetica,sans-Serif" font-size="10.00">/PerspectiveCamera.cpp</text>
</a>
</g>
</g>
<!-- Node5&#45;&gt;Node21 -->
<g id="edge22" class="edge"><title>Node5&#45;&gt;Node21</title>
<path fill="none" stroke="midnightblue" d="M955.75,-249.685C1004.3,-238.689 1079.76,-221.6 1132.92,-209.559"/>
<polygon fill="midnightblue" stroke="midnightblue" points="954.795,-246.313 945.815,-251.936 956.341,-253.14 954.795,-246.313"/>
</g>
<!-- Node22 -->
<g id="node22" class="node"><title>Node22</title>
<g id="a_node22"><a xlink:href="../../de/d15/Scene_8cpp.html" target="_top" xlink:title="engine/Scene/Scene.cpp">
<polygon fill="none" stroke="black" points="1280.5,-185 1280.5,-204 1405.5,-204 1405.5,-185 1280.5,-185"/>
<text text-anchor="middle" x="1343" y="-192" font-family="Helvetica,sans-Serif" font-size="10.00">engine/Scene/Scene.cpp</text>
</a>
</g>
</g>
<!-- Node5&#45;&gt;Node22 -->
<g id="edge23" class="edge"><title>Node5&#45;&gt;Node22</title>
<path fill="none" stroke="midnightblue" d="M957.328,-250.052C964.904,-248.597 972.649,-247.193 980,-246 1108.64,-225.121 1142.36,-230.879 1271,-210 1281.57,-208.284 1292.96,-206.133 1303.49,-204.017"/>
<polygon fill="midnightblue" stroke="midnightblue" points="956.65,-246.619 947.514,-251.983 958.001,-253.487 956.65,-246.619"/>
</g>
<!-- Node8 -->
<g id="node8" class="node"><title>Node8</title>
<g id="a_node8"><a xlink:href="../../dd/d98/GameEngine_8cpp.html" target="_top" xlink:title="engine/GameEngine/GameEngine.cpp">
<polygon fill="none" stroke="black" points="677,-123.5 677,-142.5 859,-142.5 859,-123.5 677,-123.5"/>
<text text-anchor="middle" x="768" y="-130.5" font-family="Helvetica,sans-Serif" font-size="10.00">engine/GameEngine/GameEngine.cpp</text>
</a>
</g>
</g>
<!-- Node7&#45;&gt;Node8 -->
<g id="edge7" class="edge"><title>Node7&#45;&gt;Node8</title>
<path fill="none" stroke="midnightblue" d="M639.652,-181.433C670.945,-169.868 717.378,-152.708 744.975,-142.509"/>
<polygon fill="midnightblue" stroke="midnightblue" points="638.234,-178.226 630.067,-184.975 640.661,-184.792 638.234,-178.226"/>
</g>
<!-- Node9 -->
<g id="node9" class="node"><title>Node9</title>
<g id="a_node9"><a xlink:href="../../d0/d5e/glwindow_8hpp.html" target="_top" xlink:title="window/glwindow.hpp">
<polygon fill="none" stroke="black" points="509,-123.5 509,-142.5 621,-142.5 621,-123.5 509,-123.5"/>
<text text-anchor="middle" x="565" y="-130.5" font-family="Helvetica,sans-Serif" font-size="10.00">window/glwindow.hpp</text>
</a>
</g>
</g>
<!-- Node7&#45;&gt;Node9 -->
<g id="edge8" class="edge"><title>Node7&#45;&gt;Node9</title>
<path fill="none" stroke="midnightblue" d="M595.004,-176.505C587.156,-165.388 577.24,-151.34 571.006,-142.509"/>
<polygon fill="midnightblue" stroke="midnightblue" points="592.356,-178.824 600.982,-184.975 598.075,-174.787 592.356,-178.824"/>
</g>
<!-- Node15 -->
<g id="node15" class="node"><title>Node15</title>
<g id="a_node15"><a xlink:href="../../d3/d1f/glwindow_8cpp.html" target="_top" xlink:title="window/glwindow.cpp">
<polygon fill="none" stroke="black" points="970,-62 970,-81 1082,-81 1082,-62 970,-62"/>
<text text-anchor="middle" x="1026" y="-69" font-family="Helvetica,sans-Serif" font-size="10.00">window/glwindow.cpp</text>
</a>
</g>
</g>
<!-- Node7&#45;&gt;Node15 -->
<g id="edge19" class="edge"><title>Node7&#45;&gt;Node15</title>
<path fill="none" stroke="midnightblue" d="M616.89,-175.967C627.3,-159.32 645.317,-135.096 668,-123 783.77,-61.2665 831.709,-109.309 961,-87 970.685,-85.3289 981.104,-83.169 990.702,-81.029"/>
<polygon fill="midnightblue" stroke="midnightblue" points="613.772,-174.361 611.662,-184.744 619.786,-177.943 613.772,-174.361"/>
</g>
<!-- Node9&#45;&gt;Node2 -->
<g id="edge11" class="edge"><title>Node9&#45;&gt;Node2</title>
<path fill="none" stroke="midnightblue" d="M498.596,-127.416C412.534,-120.963 257.973,-107.631 127,-87 116.745,-85.3847 105.707,-83.2183 95.5676,-81.0534"/>
<polygon fill="midnightblue" stroke="midnightblue" points="498.514,-130.919 508.746,-128.169 499.032,-123.938 498.514,-130.919"/>
</g>
<!-- Node10 -->
<g id="node10" class="node"><title>Node10</title>
<g id="a_node10"><a xlink:href="../../d8/d49/ArrayObject_8cpp.html" target="_top" xlink:title="engine/ArrayObject\l/ArrayObject.cpp">
<polygon fill="none" stroke="black" points="581,-56.5 581,-86.5 681,-86.5 681,-56.5 581,-56.5"/>
<text text-anchor="start" x="589" y="-74.5" font-family="Helvetica,sans-Serif" font-size="10.00">engine/ArrayObject</text>
<text text-anchor="middle" x="631" y="-63.5" font-family="Helvetica,sans-Serif" font-size="10.00">/ArrayObject.cpp</text>
</a>
</g>
</g>
<!-- Node9&#45;&gt;Node10 -->
<g id="edge9" class="edge"><title>Node9&#45;&gt;Node10</title>
<path fill="none" stroke="midnightblue" d="M582.031,-116.646C592.348,-107.346 605.408,-95.572 615.445,-86.523"/>
<polygon fill="midnightblue" stroke="midnightblue" points="579.54,-114.18 574.456,-123.475 584.227,-119.379 579.54,-114.18"/>
</g>
<!-- Node11 -->
<g id="node11" class="node"><title>Node11</title>
<g id="a_node11"><a xlink:href="../../db/d2b/BufferObject_8cpp.html" target="_top" xlink:title="engine/BufferObject\l/BufferObject.cpp">
<polygon fill="none" stroke="black" points="699.5,-56.5 699.5,-86.5 802.5,-86.5 802.5,-56.5 699.5,-56.5"/>
<text text-anchor="start" x="707.5" y="-74.5" font-family="Helvetica,sans-Serif" font-size="10.00">engine/BufferObject</text>
<text text-anchor="middle" x="751" y="-63.5" font-family="Helvetica,sans-Serif" font-size="10.00">/BufferObject.cpp</text>
</a>
</g>
</g>
<!-- Node9&#45;&gt;Node11 -->
<g id="edge10" class="edge"><title>Node9&#45;&gt;Node11</title>
<path fill="none" stroke="midnightblue" d="M601.397,-120.357C631.704,-110.662 674.955,-96.8263 707.163,-86.523"/>
<polygon fill="midnightblue" stroke="midnightblue" points="600.107,-117.095 591.649,-123.475 602.24,-123.762 600.107,-117.095"/>
</g>
<!-- Node9&#45;&gt;Node12 -->
<g id="edge12" class="edge"><title>Node9&#45;&gt;Node12</title>
<path fill="none" stroke="midnightblue" d="M502.841,-121.831C447.897,-112.805 365.591,-99.1972 294,-87 282.752,-85.0837 270.653,-82.989 259.266,-81.0026"/>
<polygon fill="midnightblue" stroke="midnightblue" points="502.338,-125.295 512.773,-123.461 503.472,-118.387 502.338,-125.295"/>
</g>
<!-- Node13 -->
<g id="node13" class="node"><title>Node13</title>
<g id="a_node13"><a xlink:href="../../dd/d84/Shader_8cpp.html" target="_top" xlink:title="engine/Shader/Shader.cpp">
<polygon fill="none" stroke="black" points="820.5,-62 820.5,-81 951.5,-81 951.5,-62 820.5,-62"/>
<text text-anchor="middle" x="886" y="-69" font-family="Helvetica,sans-Serif" font-size="10.00">engine/Shader/Shader.cpp</text>
</a>
</g>
</g>
<!-- Node9&#45;&gt;Node13 -->
<g id="edge13" class="edge"><title>Node9&#45;&gt;Node13</title>
<path fill="none" stroke="midnightblue" d="M622.842,-121.686C672.924,-112.702 747.289,-99.2341 812,-87 822.034,-85.1031 832.823,-83.016 842.976,-81.0307"/>
<polygon fill="midnightblue" stroke="midnightblue" points="622.073,-118.268 612.848,-123.477 623.308,-125.158 622.073,-118.268"/>
</g>
<!-- Node14 -->
<g id="node14" class="node"><title>Node14</title>
<g id="a_node14"><a xlink:href="../../de/d34/ShaderProgram_8cpp.html" target="_top" xlink:title="engine/ShaderProgram\l/ShaderProgram.cpp">
<polygon fill="none" stroke="black" points="303,-56.5 303,-86.5 419,-86.5 419,-56.5 303,-56.5"/>
<text text-anchor="start" x="311" y="-74.5" font-family="Helvetica,sans-Serif" font-size="10.00">engine/ShaderProgram</text>
<text text-anchor="middle" x="361" y="-63.5" font-family="Helvetica,sans-Serif" font-size="10.00">/ShaderProgram.cpp</text>
</a>
</g>
</g>
<!-- Node9&#45;&gt;Node14 -->
<g id="edge14" class="edge"><title>Node9&#45;&gt;Node14</title>
<path fill="none" stroke="midnightblue" d="M525.945,-120.609C492.667,-110.903 444.712,-96.9159 409.079,-86.523"/>
<polygon fill="midnightblue" stroke="midnightblue" points="525.192,-124.035 535.772,-123.475 527.152,-117.315 525.192,-124.035"/>
</g>
<!-- Node9&#45;&gt;Node15 -->
<g id="edge15" class="edge"><title>Node9&#45;&gt;Node15</title>
<path fill="none" stroke="midnightblue" d="M631.167,-123.461C632.455,-123.305 633.734,-123.151 635,-123 779.74,-105.705 817.204,-110.905 961,-87 970.809,-85.3694 981.363,-83.198 991.054,-81.0331"/>
<polygon fill="midnightblue" stroke="midnightblue" points="630.652,-119.998 621.153,-124.691 631.505,-126.946 630.652,-119.998"/>
</g>
<!-- Node16 -->
<g id="node16" class="node"><title>Node16</title>
<g id="a_node16"><a xlink:href="../../df/d50/mainwindow_8hpp.html" target="_top" xlink:title="window/mainwindow.hpp">
<polygon fill="none" stroke="black" points="437.5,-62 437.5,-81 562.5,-81 562.5,-62 437.5,-62"/>
<text text-anchor="middle" x="500" y="-69" font-family="Helvetica,sans-Serif" font-size="10.00">window/mainwindow.hpp</text>
</a>
</g>
</g>
<!-- Node9&#45;&gt;Node16 -->
<g id="edge16" class="edge"><title>Node9&#45;&gt;Node16</title>
<path fill="none" stroke="midnightblue" d="M548.231,-116.65C535.838,-105.306 519.425,-90.2811 509.296,-81.0091"/>
<polygon fill="midnightblue" stroke="midnightblue" points="545.948,-119.305 555.687,-123.475 550.674,-114.141 545.948,-119.305"/>
</g>
<!-- Node17 -->
<g id="node17" class="node"><title>Node17</title>
<g id="a_node17"><a xlink:href="../../df/d0a/main_8cpp.html" target="_top" xlink:title="TODO. ">
<polygon fill="none" stroke="black" points="418,-0.5 418,-19.5 474,-19.5 474,-0.5 418,-0.5"/>
<text text-anchor="middle" x="446" y="-7.5" font-family="Helvetica,sans-Serif" font-size="10.00">main.cpp</text>
</a>
</g>
</g>
<!-- Node16&#45;&gt;Node17 -->
<g id="edge17" class="edge"><title>Node16&#45;&gt;Node17</title>
<path fill="none" stroke="midnightblue" d="M485.477,-54.4975C475.256,-43.2356 461.977,-28.6044 453.723,-19.5091"/>
<polygon fill="midnightblue" stroke="midnightblue" points="482.951,-56.9222 492.263,-61.9751 488.134,-52.2178 482.951,-56.9222"/>
</g>
<!-- Node18 -->
<g id="node18" class="node"><title>Node18</title>
<g id="a_node18"><a xlink:href="../../d8/dd9/mainwindow_8cpp.html" target="_top" xlink:title="window/mainwindow.cpp">
<polygon fill="none" stroke="black" points="491.5,-0.5 491.5,-19.5 616.5,-19.5 616.5,-0.5 491.5,-0.5"/>
<text text-anchor="middle" x="554" y="-7.5" font-family="Helvetica,sans-Serif" font-size="10.00">window/mainwindow.cpp</text>
</a>
</g>
</g>
<!-- Node16&#45;&gt;Node18 -->
<g id="edge18" class="edge"><title>Node16&#45;&gt;Node18</title>
<path fill="none" stroke="midnightblue" d="M514.523,-54.4975C524.744,-43.2356 538.023,-28.6044 546.277,-19.5091"/>
<polygon fill="midnightblue" stroke="midnightblue" points="511.866,-52.2178 507.737,-61.9751 517.049,-56.9222 511.866,-52.2178"/>
</g>
</g>
</svg>
        <g id="navigator" transform="translate(0 0)" fill="#404254">
                <rect fill="#f2f5e9" fill-opacity="0.5" stroke="#606060" stroke-width=".5" x="0" y="0" width="60" height="60"/>
                <use id="zoomplus" xlink:href="#zoomPlus" x="17" y="9" onmousedown="handleZoom(evt,'in')"/>
                <use id="zoomminus" xlink:href="#zoomMin" x="42" y="9" onmousedown="handleZoom(evt,'out')"/>
                <use id="reset" xlink:href="#resetDef" x="30" y="36" onmousedown="handleReset()"/>
                <g id="arrowUp" xlink:href="#dirArrow" transform="translate(30 24)" onmousedown="handlePan(0,-1)">
                  <use xlink:href="#rim" fill="#404040">
                        <set attributeName="fill" to="#808080" begin="arrowUp.mouseover" end="arrowUp.mouseout"/>
                  </use>
                  <path fill="none" stroke="white" stroke-width="1.5" d="M0,-3.0v7 M-2.5,-0.5L0,-3.0L2.5,-0.5"/>
                </g>
                <g id="arrowRight" xlink:href="#dirArrow" transform="rotate(90) translate(36 -43)" onmousedown="handlePan(1,0)">
                  <use xlink:href="#rim" fill="#404040">
                        <set attributeName="fill" to="#808080" begin="arrowRight.mouseover" end="arrowRight.mouseout"/>
                  </use>
                  <path fill="none" stroke="white" stroke-width="1.5" d="M0,-3.0v7 M-2.5,-0.5L0,-3.0L2.5,-0.5"/>
                </g>
                <g id="arrowDown" xlink:href="#dirArrow" transform="rotate(180) translate(-30 -48)" onmousedown="handlePan(0,1)">
                  <use xlink:href="#rim" fill="#404040">
                        <set attributeName="fill" to="#808080" begin="arrowDown.mouseover" end="arrowDown.mouseout"/>
                  </use>
                  <path fill="none" stroke="white" stroke-width="1.5" d="M0,-3.0v7 M-2.5,-0.5L0,-3.0L2.5,-0.5"/>
                </g>
                <g id="arrowLeft" xlink:href="#dirArrow" transform="rotate(270) translate(-36 17)" onmousedown="handlePan(-1,0)">
                  <use xlink:href="#rim" fill="#404040">
                        <set attributeName="fill" to="#808080" begin="arrowLeft.mouseover" end="arrowLeft.mouseout"/>
                  </use>
                  <path fill="none" stroke="white" stroke-width="1.5" d="M0,-3.0v7 M-2.5,-0.5L0,-3.0L2.5,-0.5"/>
                </g>
        </g>
        <svg viewBox="0 0 15 15" width="100%" height="30px" preserveAspectRatio="xMaxYMin meet">
         <g id="arrow_out" transform="scale(0.3 0.3)">
          <a xlink:href="Mesh_8hpp__dep__incl_org.svg" target="_base">
           <rect id="button" ry="5" rx="5" y="6" x="6" height="38" width="38"
                fill="#f2f5e9" fill-opacity="0.5" stroke="#606060" stroke-width="1.0"/>
           <path id="arrow"
             d="M 11.500037,31.436501 C 11.940474,20.09759 22.043105,11.32322 32.158766,21.979434 L 37.068811,17.246167 C 37.068811,17.246167 37.088388,32 37.088388,32 L 22.160133,31.978069 C 22.160133,31.978069 26.997745,27.140456 26.997745,27.140456 C 18.528582,18.264221 13.291696,25.230495 11.500037,31.436501 z"
             style="fill:#404040;"/>
          </a>
         </g>
        </svg>
</svg>
