<?xml version="1.0" encoding="UTF-8" standalone="no"?>
<!DOCTYPE svg PUBLIC "-//W3C//DTD SVG 1.1//EN"
 "http://www.w3.org/Graphics/SVG/1.1/DTD/svg11.dtd">
<!-- Generated by graphviz version 2.38.0 (20140413.2041)
 -->
<!-- Title: Core/Renderer.cpp Pages: 1 -->
<svg width="1050pt" height="84pt"
 viewBox="0.00 0.00 1049.50 84.00" xmlns="http://www.w3.org/2000/svg" xmlns:xlink="http://www.w3.org/1999/xlink">
<g id="graph0" class="graph" transform="scale(1 1) rotate(0) translate(4 80)">
<title>Core/Renderer.cpp</title>
<!-- Node1 -->
<g id="node1" class="node"><title>Node1</title>
<polygon fill="#bfbfbf" stroke="black" points="437,-56.5 437,-75.5 536,-75.5 536,-56.5 437,-56.5"/>
<text text-anchor="middle" x="486.5" y="-63.5" font-family="Helvetica,sans-Serif" font-size="10.00">Core/Renderer.cpp</text>
</g>
<!-- Node2 -->
<g id="node2" class="node"><title>Node2</title>
<polygon fill="none" stroke="#bfbfbf" points="0,-0.5 0,-19.5 61,-19.5 61,-0.5 0,-0.5"/>
<text text-anchor="middle" x="30.5" y="-7.5" font-family="Helvetica,sans-Serif" font-size="10.00">GL/glew.h</text>
</g>
<!-- Node1&#45;&gt;Node2 -->
<g id="edge1" class="edge"><title>Node1&#45;&gt;Node2</title>
<path fill="none" stroke="midnightblue" d="M436.81,-61.5656C360.219,-55.8494 208.577,-42.8579 70.9698,-20.0789"/>
<polygon fill="midnightblue" stroke="midnightblue" points="71.5287,-16.6238 61.0875,-18.4219 70.371,-23.5274 71.5287,-16.6238"/>
</g>
<!-- Node3 -->
<g id="node3" class="node"><title>Node3</title>
<polygon fill="none" stroke="#bfbfbf" points="79,-0.5 79,-19.5 186,-19.5 186,-0.5 79,-0.5"/>
<text text-anchor="middle" x="132.5" y="-7.5" font-family="Helvetica,sans-Serif" font-size="10.00">log4cpp/Category.hh</text>
</g>
<!-- Node1&#45;&gt;Node3 -->
<g id="edge2" class="edge"><title>Node1&#45;&gt;Node3</title>
<path fill="none" stroke="midnightblue" d="M436.905,-57.4347C374.01,-47.8405 265.457,-31.2816 196.409,-20.7489"/>
<polygon fill="midnightblue" stroke="midnightblue" points="196.513,-17.2243 186.099,-19.1762 195.457,-24.1442 196.513,-17.2243"/>
</g>
<!-- Node4 -->
<g id="node4" class="node"><title>Node4</title>
<polygon fill="none" stroke="#bfbfbf" points="204.5,-0.5 204.5,-19.5 336.5,-19.5 336.5,-0.5 204.5,-0.5"/>
<text text-anchor="middle" x="270.5" y="-7.5" font-family="Helvetica,sans-Serif" font-size="10.00">Engine/Core/Renderer.hpp</text>
</g>
<!-- Node1&#45;&gt;Node4 -->
<g id="edge3" class="edge"><title>Node1&#45;&gt;Node4</title>
<path fill="none" stroke="midnightblue" d="M452.274,-56.4435C414.988,-47.1221 355.231,-32.1828 314.489,-21.9972"/>
<polygon fill="midnightblue" stroke="midnightblue" points="315.116,-18.5464 304.566,-19.5164 313.418,-25.3374 315.116,-18.5464"/>
</g>
<!-- Node5 -->
<g id="node5" class="node"><title>Node5</title>
<polygon fill="none" stroke="#bfbfbf" points="355,-0.5 355,-19.5 476,-19.5 476,-0.5 355,-0.5"/>
<text text-anchor="middle" x="415.5" y="-7.5" font-family="Helvetica,sans-Serif" font-size="10.00">Engine/Core/Object.hpp</text>
</g>
<!-- Node1&#45;&gt;Node5 -->
<g id="edge4" class="edge"><title>Node1&#45;&gt;Node5</title>
<path fill="none" stroke="midnightblue" d="M475.093,-56.324C464.391,-48.1849 448.159,-35.8395 435.337,-26.0874"/>
<polygon fill="midnightblue" stroke="midnightblue" points="437.193,-23.1018 427.115,-19.8339 432.956,-28.6734 437.193,-23.1018"/>
</g>
<!-- Node6 -->
<g id="node6" class="node"><title>Node6</title>
<polygon fill="none" stroke="#bfbfbf" points="494,-0.5 494,-19.5 621,-19.5 621,-0.5 494,-0.5"/>
<text text-anchor="middle" x="557.5" y="-7.5" font-family="Helvetica,sans-Serif" font-size="10.00">Engine/Core/Camera.hpp</text>
</g>
<!-- Node1&#45;&gt;Node6 -->
<g id="edge5" class="edge"><title>Node1&#45;&gt;Node6</title>
<path fill="none" stroke="midnightblue" d="M497.907,-56.324C508.609,-48.1849 524.841,-35.8395 537.663,-26.0874"/>
<polygon fill="midnightblue" stroke="midnightblue" points="540.044,-28.6734 545.885,-19.8339 535.807,-23.1018 540.044,-28.6734"/>
</g>
<!-- Node7 -->
<g id="node7" class="node"><title>Node7</title>
<polygon fill="none" stroke="#bfbfbf" points="639,-0.5 639,-19.5 752,-19.5 752,-0.5 639,-0.5"/>
<text text-anchor="middle" x="695.5" y="-7.5" font-family="Helvetica,sans-Serif" font-size="10.00">Engine/Core/Light.hpp</text>
</g>
<!-- Node1&#45;&gt;Node7 -->
<g id="edge6" class="edge"><title>Node1&#45;&gt;Node7</title>
<path fill="none" stroke="midnightblue" d="M519.617,-56.4435C555.618,-47.1419 613.27,-32.246 652.686,-22.062"/>
<polygon fill="midnightblue" stroke="midnightblue" points="653.732,-25.4068 662.538,-19.5164 651.981,-18.6294 653.732,-25.4068"/>
</g>
<!-- Node8 -->
<g id="node8" class="node"><title>Node8</title>
<polygon fill="none" stroke="#bfbfbf" points="770,-0.5 770,-19.5 907,-19.5 907,-0.5 770,-0.5"/>
<text text-anchor="middle" x="838.5" y="-7.5" font-family="Helvetica,sans-Serif" font-size="10.00">Engine/Core/Transform.hpp</text>
</g>
<!-- Node1&#45;&gt;Node8 -->
<g id="edge7" class="edge"><title>Node1&#45;&gt;Node8</title>
<path fill="none" stroke="midnightblue" d="M536.186,-57.3776C598.105,-47.8789 704.107,-31.6172 772.715,-21.092"/>
<polygon fill="midnightblue" stroke="midnightblue" points="773.621,-24.4941 782.974,-19.5182 772.559,-17.5751 773.621,-24.4941"/>
</g>
<!-- Node9 -->
<g id="node9" class="node"><title>Node9</title>
<polygon fill="none" stroke="#bfbfbf" points="925.5,-0.5 925.5,-19.5 1041.5,-19.5 1041.5,-0.5 925.5,-0.5"/>
<text text-anchor="middle" x="983.5" y="-7.5" font-family="Helvetica,sans-Serif" font-size="10.00">Engine/Core/Mesh.hpp</text>
</g>
<!-- Node1&#45;&gt;Node9 -->
<g id="edge8" class="edge"><title>Node1&#45;&gt;Node9</title>
<path fill="none" stroke="midnightblue" d="M536.212,-60.2742C614.463,-52.7308 771.412,-37.1785 915.088,-20.1385"/>
<polygon fill="midnightblue" stroke="midnightblue" points="915.893,-23.5675 925.409,-18.9091 915.065,-16.6166 915.893,-23.5675"/>
</g>
</g>
</svg>
