<?xml version="1.0" encoding="UTF-8" standalone="no"?>
<!DOCTYPE svg PUBLIC "-//W3C//DTD SVG 1.1//EN"
 "http://www.w3.org/Graphics/SVG/1.1/DTD/svg11.dtd">
<!-- Generated by graphviz version 2.38.0 (20140413.2041)
 -->
<!-- Title: engine/Renderer/Renderer.cpp Pages: 1 -->
<svg width="2328pt" height="431pt"
 viewBox="0.00 0.00 2328.47 431.00" xmlns="http://www.w3.org/2000/svg" xmlns:xlink="http://www.w3.org/1999/xlink">
<g id="graph0" class="graph" transform="scale(1 1) rotate(0) translate(4 427)">
<title>engine/Renderer/Renderer.cpp</title>
<!-- Node1 -->
<g id="node1" class="node"><title>Node1</title>
<polygon fill="#bfbfbf" stroke="black" points="1517.97,-403.5 1517.97,-422.5 1666.97,-422.5 1666.97,-403.5 1517.97,-403.5"/>
<text text-anchor="middle" x="1592.47" y="-410.5" font-family="Helvetica,sans-Serif" font-size="10.00">engine/Renderer/Renderer.cpp</text>
</g>
<!-- Node2 -->
<g id="node2" class="node"><title>Node2</title>
<polygon fill="none" stroke="#bfbfbf" points="862.969,-347.5 862.969,-366.5 969.969,-366.5 969.969,-347.5 862.969,-347.5"/>
<text text-anchor="middle" x="916.469" y="-354.5" font-family="Helvetica,sans-Serif" font-size="10.00">log4cpp/Category.hh</text>
</g>
<!-- Node1&#45;&gt;Node2 -->
<g id="edge1" class="edge"><title>Node1&#45;&gt;Node2</title>
<path fill="none" stroke="midnightblue" d="M1517.77,-408.173C1404.1,-401.982 1180.66,-388.373 980.187,-366.999"/>
<polygon fill="midnightblue" stroke="midnightblue" points="980.371,-363.499 970.054,-365.91 979.623,-370.459 980.371,-363.499"/>
</g>
<!-- Node3 -->
<g id="node3" class="node"><title>Node3</title>
<g id="a_node3"><a xlink:href="../../d0/d5e/glwindow_8hpp.html" target="_top" xlink:title="glwindow.hpp">
<polygon fill="none" stroke="black" points="988.469,-347.5 988.469,-366.5 1064.47,-366.5 1064.47,-347.5 988.469,-347.5"/>
<text text-anchor="middle" x="1026.47" y="-354.5" font-family="Helvetica,sans-Serif" font-size="10.00">glwindow.hpp</text>
</a>
</g>
</g>
<!-- Node1&#45;&gt;Node3 -->
<g id="edge2" class="edge"><title>Node1&#45;&gt;Node3</title>
<path fill="none" stroke="midnightblue" d="M1517.89,-404.885C1399.89,-393.627 1173.42,-372.02 1074.58,-362.59"/>
<polygon fill="midnightblue" stroke="midnightblue" points="1074.87,-359.102 1064.58,-361.636 1074.2,-366.07 1074.87,-359.102"/>
</g>
<!-- Node14 -->
<g id="node14" class="node"><title>Node14</title>
<g id="a_node14"><a xlink:href="../../dd/db8/Renderer_8hpp.html" target="_top" xlink:title="Renderer.hpp">
<polygon fill="none" stroke="black" points="786.969,-168.5 786.969,-187.5 861.969,-187.5 861.969,-168.5 786.969,-168.5"/>
<text text-anchor="middle" x="824.469" y="-175.5" font-family="Helvetica,sans-Serif" font-size="10.00">Renderer.hpp</text>
</a>
</g>
</g>
<!-- Node1&#45;&gt;Node14 -->
<g id="edge58" class="edge"><title>Node1&#45;&gt;Node14</title>
<path fill="none" stroke="midnightblue" d="M1573.62,-403.405C1523.32,-380.722 1381.38,-318.358 1258.47,-280 1185.9,-257.351 968.942,-209.946 872.081,-189.148"/>
<polygon fill="midnightblue" stroke="midnightblue" points="872.772,-185.717 862.26,-187.042 871.304,-192.561 872.772,-185.717"/>
</g>
<!-- Node26 -->
<g id="node26" class="node"><title>Node26</title>
<g id="a_node26"><a xlink:href="../../d1/d62/Mesh_8hpp.html" target="_top" xlink:title="Mesh.hpp">
<polygon fill="none" stroke="black" points="960.969,-112.5 960.969,-131.5 1019.97,-131.5 1019.97,-112.5 960.969,-112.5"/>
<text text-anchor="middle" x="990.469" y="-119.5" font-family="Helvetica,sans-Serif" font-size="10.00">Mesh.hpp</text>
</a>
</g>
</g>
<!-- Node1&#45;&gt;Node26 -->
<g id="edge77" class="edge"><title>Node1&#45;&gt;Node26</title>
<path fill="none" stroke="midnightblue" d="M1589.18,-403.455C1582.18,-384.507 1566.47,-337.402 1566.47,-296.5 1566.47,-296.5 1566.47,-296.5 1566.47,-233 1566.47,-202.775 1570.04,-186.924 1546.47,-168 1506.43,-135.85 1151.08,-126.084 1030.38,-123.68"/>
<polygon fill="midnightblue" stroke="midnightblue" points="1030.18,-120.175 1020.11,-123.482 1030.04,-127.174 1030.18,-120.175"/>
</g>
<!-- Node42 -->
<g id="node42" class="node"><title>Node42</title>
<g id="a_node42"><a xlink:href="../../d7/d3f/Object_8hpp.html" target="_top" xlink:title="Object.hpp">
<polygon fill="none" stroke="black" points="1602.47,-224.5 1602.47,-243.5 1666.47,-243.5 1666.47,-224.5 1602.47,-224.5"/>
<text text-anchor="middle" x="1634.47" y="-231.5" font-family="Helvetica,sans-Serif" font-size="10.00">Object.hpp</text>
</a>
</g>
</g>
<!-- Node1&#45;&gt;Node42 -->
<g id="edge59" class="edge"><title>Node1&#45;&gt;Node42</title>
<path fill="none" stroke="midnightblue" d="M1594.49,-403.463C1600.94,-376.311 1621.06,-291.512 1630.05,-253.618"/>
<polygon fill="midnightblue" stroke="midnightblue" points="1633.46,-254.406 1632.36,-243.868 1626.65,-252.79 1633.46,-254.406"/>
</g>
<!-- Node44 -->
<g id="node44" class="node"><title>Node44</title>
<g id="a_node44"><a xlink:href="../../d6/d80/Camera_8hpp.html" target="_top" xlink:title="Camera.hpp">
<polygon fill="none" stroke="black" points="1895.47,-224.5 1895.47,-243.5 1965.47,-243.5 1965.47,-224.5 1895.47,-224.5"/>
<text text-anchor="middle" x="1930.47" y="-231.5" font-family="Helvetica,sans-Serif" font-size="10.00">Camera.hpp</text>
</a>
</g>
</g>
<!-- Node1&#45;&gt;Node44 -->
<g id="edge64" class="edge"><title>Node1&#45;&gt;Node44</title>
<path fill="none" stroke="midnightblue" d="M1608.77,-403.463C1663.19,-374.964 1838.9,-282.953 1905,-248.335"/>
<polygon fill="midnightblue" stroke="midnightblue" points="1906.7,-251.399 1913.93,-243.659 1903.45,-245.197 1906.7,-251.399"/>
</g>
<!-- Node46 -->
<g id="node46" class="node"><title>Node46</title>
<g id="a_node46"><a xlink:href="../../d5/dd5/Light_8hpp.html" target="_top" xlink:title="Light.hpp">
<polygon fill="none" stroke="black" points="1708.47,-224.5 1708.47,-243.5 1764.47,-243.5 1764.47,-224.5 1708.47,-224.5"/>
<text text-anchor="middle" x="1736.47" y="-231.5" font-family="Helvetica,sans-Serif" font-size="10.00">Light.hpp</text>
</a>
</g>
</g>
<!-- Node1&#45;&gt;Node46 -->
<g id="edge69" class="edge"><title>Node1&#45;&gt;Node46</title>
<path fill="none" stroke="midnightblue" d="M1599.41,-403.463C1621.88,-375.845 1692.88,-288.584 1722.88,-251.709"/>
<polygon fill="midnightblue" stroke="midnightblue" points="1725.66,-253.834 1729.25,-243.868 1720.23,-249.417 1725.66,-253.834"/>
</g>
<!-- Node48 -->
<g id="node48" class="node"><title>Node48</title>
<g id="a_node48"><a xlink:href="../../da/d83/Transform_8hpp.html" target="_top" xlink:title="Transform.hpp">
<polygon fill="none" stroke="black" points="2077.47,-347.5 2077.47,-366.5 2157.47,-366.5 2157.47,-347.5 2077.47,-347.5"/>
<text text-anchor="middle" x="2117.47" y="-354.5" font-family="Helvetica,sans-Serif" font-size="10.00">Transform.hpp</text>
</a>
</g>
</g>
<!-- Node1&#45;&gt;Node48 -->
<g id="edge73" class="edge"><title>Node1&#45;&gt;Node48</title>
<path fill="none" stroke="midnightblue" d="M1667.13,-404.32C1775.73,-393.15 1974.41,-372.715 2067.21,-363.169"/>
<polygon fill="midnightblue" stroke="midnightblue" points="2067.6,-366.648 2077.19,-362.143 2066.89,-359.685 2067.6,-366.648"/>
</g>
<!-- Node4 -->
<g id="node4" class="node"><title>Node4</title>
<polygon fill="none" stroke="#bfbfbf" points="996.969,-286 996.969,-305 1055.97,-305 1055.97,-286 996.969,-286"/>
<text text-anchor="middle" x="1026.47" y="-293" font-family="Helvetica,sans-Serif" font-size="10.00">QWindow</text>
</g>
<!-- Node3&#45;&gt;Node4 -->
<g id="edge3" class="edge"><title>Node3&#45;&gt;Node4</title>
<path fill="none" stroke="midnightblue" d="M1026.47,-347.475C1026.47,-339.08 1026.47,-325.981 1026.47,-315.163"/>
<polygon fill="midnightblue" stroke="midnightblue" points="1029.97,-315.009 1026.47,-305.009 1022.97,-315.009 1029.97,-315.009"/>
</g>
<!-- Node5 -->
<g id="node5" class="node"><title>Node5</title>
<polygon fill="none" stroke="#bfbfbf" points="1073.97,-286 1073.97,-305 1168.97,-305 1168.97,-286 1073.97,-286"/>
<text text-anchor="middle" x="1121.47" y="-293" font-family="Helvetica,sans-Serif" font-size="10.00">QOpenGLContext</text>
</g>
<!-- Node3&#45;&gt;Node5 -->
<g id="edge4" class="edge"><title>Node3&#45;&gt;Node5</title>
<path fill="none" stroke="midnightblue" d="M1040.08,-347.475C1055.53,-337.799 1080.96,-321.872 1099.29,-310.394"/>
<polygon fill="midnightblue" stroke="midnightblue" points="1101.27,-313.283 1107.88,-305.009 1097.55,-307.351 1101.27,-313.283"/>
</g>
<!-- Node6 -->
<g id="node6" class="node"><title>Node6</title>
<polygon fill="none" stroke="#bfbfbf" points="605.969,-280.5 605.969,-310.5 718.969,-310.5 718.969,-280.5 605.969,-280.5"/>
<text text-anchor="start" x="613.969" y="-298.5" font-family="Helvetica,sans-Serif" font-size="10.00">QOpenGLFunctions_4</text>
<text text-anchor="middle" x="662.469" y="-287.5" font-family="Helvetica,sans-Serif" font-size="10.00">_2_Core</text>
</g>
<!-- Node3&#45;&gt;Node6 -->
<g id="edge5" class="edge"><title>Node3&#45;&gt;Node6</title>
<path fill="none" stroke="midnightblue" d="M988.243,-348.68C984.94,-348.094 981.648,-347.526 978.469,-347 870.431,-329.132 840.032,-331.149 729.05,-311.211"/>
<polygon fill="midnightblue" stroke="midnightblue" points="729.601,-307.754 719.137,-309.411 728.351,-314.642 729.601,-307.754"/>
</g>
<!-- Node7 -->
<g id="node7" class="node"><title>Node7</title>
<polygon fill="none" stroke="#bfbfbf" points="736.969,-286 736.969,-305 803.969,-305 803.969,-286 736.969,-286"/>
<text text-anchor="middle" x="770.469" y="-293" font-family="Helvetica,sans-Serif" font-size="10.00">QKeyEvent</text>
</g>
<!-- Node3&#45;&gt;Node7 -->
<g id="edge6" class="edge"><title>Node3&#45;&gt;Node7</title>
<path fill="none" stroke="midnightblue" d="M988.234,-348.482C936.219,-338.158 845.918,-319.866 813.469,-311 810.451,-310.175 807.334,-309.257 804.221,-308.295"/>
<polygon fill="midnightblue" stroke="midnightblue" points="805.015,-304.873 794.423,-305.13 802.863,-311.535 805.015,-304.873"/>
</g>
<!-- Node8 -->
<g id="node8" class="node"><title>Node8</title>
<polygon fill="none" stroke="#bfbfbf" points="822.469,-286 822.469,-305 868.469,-305 868.469,-286 822.469,-286"/>
<text text-anchor="middle" x="845.469" y="-293" font-family="Helvetica,sans-Serif" font-size="10.00">QTime</text>
</g>
<!-- Node3&#45;&gt;Node8 -->
<g id="edge7" class="edge"><title>Node3&#45;&gt;Node8</title>
<path fill="none" stroke="midnightblue" d="M993.795,-347.472C963.328,-339.206 916.804,-325.778 877.469,-311 875.86,-310.395 874.217,-309.748 872.567,-309.075"/>
<polygon fill="midnightblue" stroke="midnightblue" points="873.803,-305.796 863.234,-305.052 871.032,-312.225 873.803,-305.796"/>
</g>
<!-- Node9 -->
<g id="node9" class="node"><title>Node9</title>
<g id="a_node9"><a xlink:href="../../d4/d1c/GameEngine_8hpp.html" target="_top" xlink:title="GameEngine.hpp">
<polygon fill="none" stroke="black" points="886.469,-286 886.469,-305 978.469,-305 978.469,-286 886.469,-286"/>
<text text-anchor="middle" x="932.469" y="-293" font-family="Helvetica,sans-Serif" font-size="10.00">GameEngine.hpp</text>
</a>
</g>
</g>
<!-- Node3&#45;&gt;Node9 -->
<g id="edge8" class="edge"><title>Node3&#45;&gt;Node9</title>
<path fill="none" stroke="midnightblue" d="M1013,-347.475C997.784,-337.843 972.782,-322.017 954.668,-310.552"/>
<polygon fill="midnightblue" stroke="midnightblue" points="956.234,-307.4 945.912,-305.009 952.49,-313.315 956.234,-307.4"/>
</g>
<!-- Node34 -->
<g id="node34" class="node"><title>Node34</title>
<g id="a_node34"><a xlink:href="../../dc/ddc/model_8hpp.html" target="_top" xlink:title="model.hpp">
<polygon fill="none" stroke="black" points="1187.47,-286 1187.47,-305 1249.47,-305 1249.47,-286 1187.47,-286"/>
<text text-anchor="middle" x="1218.47" y="-293" font-family="Helvetica,sans-Serif" font-size="10.00">model.hpp</text>
</a>
</g>
</g>
<!-- Node3&#45;&gt;Node34 -->
<g id="edge50" class="edge"><title>Node3&#45;&gt;Node34</title>
<path fill="none" stroke="midnightblue" d="M1056.69,-347.478C1087.27,-338.741 1135.85,-324.551 1177.47,-311 1179.92,-310.202 1182.44,-309.36 1184.98,-308.498"/>
<polygon fill="midnightblue" stroke="midnightblue" points="1186.38,-311.716 1194.69,-305.137 1184.1,-305.101 1186.38,-311.716"/>
</g>
<!-- Node10 -->
<g id="node10" class="node"><title>Node10</title>
<g id="a_node10"><a xlink:href="../../de/df7/worldparticles_8hpp.html" target="_top" xlink:title="wordparticles configuration file ">
<polygon fill="none" stroke="black" points="433.969,-224.5 433.969,-243.5 528.969,-243.5 528.969,-224.5 433.969,-224.5"/>
<text text-anchor="middle" x="481.469" y="-231.5" font-family="Helvetica,sans-Serif" font-size="10.00">worldparticles.hpp</text>
</a>
</g>
</g>
<!-- Node9&#45;&gt;Node10 -->
<g id="edge9" class="edge"><title>Node9&#45;&gt;Node10</title>
<path fill="none" stroke="midnightblue" d="M903.541,-285.99C895.186,-283.774 886.016,-281.57 877.469,-280 731.224,-253.141 689.86,-263.587 539.187,-244.158"/>
<polygon fill="midnightblue" stroke="midnightblue" points="539.473,-240.665 529.102,-242.834 538.562,-247.606 539.473,-240.665"/>
</g>
<!-- Node11 -->
<g id="node11" class="node"><title>Node11</title>
<g id="a_node11"><a xlink:href="../../db/de8/Scene_8hpp.html" target="_top" xlink:title="Scene.hpp">
<polygon fill="none" stroke="black" points="546.969,-224.5 546.969,-243.5 609.969,-243.5 609.969,-224.5 546.969,-224.5"/>
<text text-anchor="middle" x="578.469" y="-231.5" font-family="Helvetica,sans-Serif" font-size="10.00">Scene.hpp</text>
</a>
</g>
</g>
<!-- Node9&#45;&gt;Node11 -->
<g id="edge10" class="edge"><title>Node9&#45;&gt;Node11</title>
<path fill="none" stroke="midnightblue" d="M902.349,-285.93C894.307,-283.815 885.593,-281.677 877.469,-280 786.481,-261.217 678.392,-246.897 620.335,-239.846"/>
<polygon fill="midnightblue" stroke="midnightblue" points="620.439,-236.334 610.093,-238.615 619.603,-243.284 620.439,-236.334"/>
</g>
<!-- Node31 -->
<g id="node31" class="node"><title>Node31</title>
<g id="a_node31"><a xlink:href="../../d0/dbd/AssimpImporter_8hpp.html" target="_top" xlink:title="AssimpImporter.hpp">
<polygon fill="none" stroke="black" points="880.469,-168.5 880.469,-187.5 984.469,-187.5 984.469,-168.5 880.469,-168.5"/>
<text text-anchor="middle" x="932.469" y="-175.5" font-family="Helvetica,sans-Serif" font-size="10.00">AssimpImporter.hpp</text>
</a>
</g>
</g>
<!-- Node9&#45;&gt;Node31 -->
<g id="edge45" class="edge"><title>Node9&#45;&gt;Node31</title>
<path fill="none" stroke="midnightblue" d="M932.469,-285.819C932.469,-267.257 932.469,-223.339 932.469,-197.973"/>
<polygon fill="midnightblue" stroke="midnightblue" points="935.969,-197.782 932.469,-187.782 928.969,-197.782 935.969,-197.782"/>
</g>
<!-- Node12 -->
<g id="node12" class="node"><title>Node12</title>
<polygon fill="none" stroke="#bfbfbf" points="198.469,-56.5 198.469,-75.5 250.469,-75.5 250.469,-56.5 198.469,-56.5"/>
<text text-anchor="middle" x="224.469" y="-63.5" font-family="Helvetica,sans-Serif" font-size="10.00">memory</text>
</g>
<!-- Node11&#45;&gt;Node12 -->
<g id="edge11" class="edge"><title>Node11&#45;&gt;Node12</title>
<path fill="none" stroke="midnightblue" d="M546.769,-225.557C543.638,-224.968 540.499,-224.434 537.469,-224 479.59,-215.709 52.3746,-230.736 12.4691,-188 -44.9192,-126.542 114.007,-87.6638 188.406,-73.2834"/>
<polygon fill="midnightblue" stroke="midnightblue" points="189.132,-76.7082 198.311,-71.4171 187.836,-69.8292 189.132,-76.7082"/>
</g>
<!-- Node13 -->
<g id="node13" class="node"><title>Node13</title>
<polygon fill="none" stroke="#bfbfbf" points="751.969,-112.5 751.969,-131.5 780.969,-131.5 780.969,-112.5 751.969,-112.5"/>
<text text-anchor="middle" x="766.469" y="-119.5" font-family="Helvetica,sans-Serif" font-size="10.00">list</text>
</g>
<!-- Node11&#45;&gt;Node13 -->
<g id="edge12" class="edge"><title>Node11&#45;&gt;Node13</title>
<path fill="none" stroke="midnightblue" d="M571.792,-224.45C562.168,-211.019 546.957,-184.782 560.469,-168 582.986,-140.033 691.951,-128.504 741.658,-124.642"/>
<polygon fill="midnightblue" stroke="midnightblue" points="742.139,-128.117 751.856,-123.894 741.627,-121.135 742.139,-128.117"/>
</g>
<!-- Node11&#45;&gt;Node14 -->
<g id="edge13" class="edge"><title>Node11&#45;&gt;Node14</title>
<path fill="none" stroke="midnightblue" d="M610.126,-226.051C652.407,-216.77 727.678,-200.247 776.828,-189.458"/>
<polygon fill="midnightblue" stroke="midnightblue" points="777.882,-192.81 786.899,-187.247 776.381,-185.973 777.882,-192.81"/>
</g>
<!-- Node15 -->
<g id="node15" class="node"><title>Node15</title>
<g id="a_node15"><a xlink:href="../../de/dbe/SpatialGraph_8hpp.html" target="_top" xlink:title="SpatialGraph.hpp">
<polygon fill="none" stroke="black" points="569.469,-168.5 569.469,-187.5 661.469,-187.5 661.469,-168.5 569.469,-168.5"/>
<text text-anchor="middle" x="615.469" y="-175.5" font-family="Helvetica,sans-Serif" font-size="10.00">SpatialGraph.hpp</text>
</a>
</g>
</g>
<!-- Node11&#45;&gt;Node15 -->
<g id="edge15" class="edge"><title>Node11&#45;&gt;Node15</title>
<path fill="none" stroke="midnightblue" d="M584.579,-224.083C589.751,-216.534 597.315,-205.495 603.664,-196.23"/>
<polygon fill="midnightblue" stroke="midnightblue" points="606.708,-197.979 609.473,-187.751 600.933,-194.022 606.708,-197.979"/>
</g>
<!-- Node16 -->
<g id="node16" class="node"><title>Node16</title>
<g id="a_node16"><a xlink:href="../../d8/d58/SceneGraph_8hpp.html" target="_top" xlink:title="SceneGraph.hpp">
<polygon fill="none" stroke="black" points="1002.97,-168.5 1002.97,-187.5 1091.97,-187.5 1091.97,-168.5 1002.97,-168.5"/>
<text text-anchor="middle" x="1047.47" y="-175.5" font-family="Helvetica,sans-Serif" font-size="10.00">SceneGraph.hpp</text>
</a>
</g>
</g>
<!-- Node11&#45;&gt;Node16 -->
<g id="edge17" class="edge"><title>Node11&#45;&gt;Node16</title>
<path fill="none" stroke="midnightblue" d="M610.041,-230.197C677.947,-224.037 843.132,-208.338 992.444,-188.067"/>
<polygon fill="midnightblue" stroke="midnightblue" points="993.277,-191.485 1002.71,-186.662 992.328,-184.55 993.277,-191.485"/>
</g>
<!-- Node18 -->
<g id="node18" class="node"><title>Node18</title>
<g id="a_node18"><a xlink:href="../../d1/d93/ShaderProgramLibrary_8hpp.html" target="_top" xlink:title="ShaderProgramLibrary.hpp">
<polygon fill="none" stroke="red" points="21.4691,-168.5 21.4691,-187.5 153.469,-187.5 153.469,-168.5 21.4691,-168.5"/>
<text text-anchor="middle" x="87.4691" y="-175.5" font-family="Helvetica,sans-Serif" font-size="10.00">ShaderProgramLibrary.hpp</text>
</a>
</g>
</g>
<!-- Node11&#45;&gt;Node18 -->
<g id="edge19" class="edge"><title>Node11&#45;&gt;Node18</title>
<path fill="none" stroke="midnightblue" d="M546.756,-225.644C543.628,-225.037 540.493,-224.475 537.469,-224 375.297,-198.511 330.666,-205.677 163.83,-188.115"/>
<polygon fill="midnightblue" stroke="midnightblue" points="164.028,-184.616 153.713,-187.036 163.285,-191.577 164.028,-184.616"/>
</g>
<!-- Node23 -->
<g id="node23" class="node"><title>Node23</title>
<g id="a_node23"><a xlink:href="../../d2/d26/MaterialLibrary_8hpp.html" target="_top" xlink:title="MaterialLibrary.hpp">
<polygon fill="none" stroke="red" points="171.969,-168.5 171.969,-187.5 270.969,-187.5 270.969,-168.5 171.969,-168.5"/>
<text text-anchor="middle" x="221.469" y="-175.5" font-family="Helvetica,sans-Serif" font-size="10.00">MaterialLibrary.hpp</text>
</a>
</g>
</g>
<!-- Node11&#45;&gt;Node23 -->
<g id="edge28" class="edge"><title>Node11&#45;&gt;Node23</title>
<path fill="none" stroke="midnightblue" d="M546.733,-225.781C543.609,-225.146 540.482,-224.541 537.469,-224 427.051,-204.178 396.26,-204.654 280.965,-188.048"/>
<polygon fill="midnightblue" stroke="midnightblue" points="281.436,-184.58 271.037,-186.606 280.43,-191.507 281.436,-184.58"/>
</g>
<!-- Node24 -->
<g id="node24" class="node"><title>Node24</title>
<g id="a_node24"><a xlink:href="../../d1/da3/AnimationLibrary_8hpp.html" target="_top" xlink:title="AnimationLibrary.hpp">
<polygon fill="none" stroke="red" points="289.469,-168.5 289.469,-187.5 397.469,-187.5 397.469,-168.5 289.469,-168.5"/>
<text text-anchor="middle" x="343.469" y="-175.5" font-family="Helvetica,sans-Serif" font-size="10.00">AnimationLibrary.hpp</text>
</a>
</g>
</g>
<!-- Node11&#45;&gt;Node24 -->
<g id="edge30" class="edge"><title>Node11&#45;&gt;Node24</title>
<path fill="none" stroke="midnightblue" d="M546.776,-225.717C506.625,-216.491 437.081,-200.511 390.673,-189.847"/>
<polygon fill="midnightblue" stroke="midnightblue" points="391.381,-186.419 380.852,-187.59 389.814,-193.241 391.381,-186.419"/>
</g>
<!-- Node25 -->
<g id="node25" class="node"><title>Node25</title>
<g id="a_node25"><a xlink:href="../../dd/de2/MeshLibrary_8hpp.html" target="_top" xlink:title="MeshLibrary.hpp">
<polygon fill="none" stroke="black" points="679.969,-168.5 679.969,-187.5 768.969,-187.5 768.969,-168.5 679.969,-168.5"/>
<text text-anchor="middle" x="724.469" y="-175.5" font-family="Helvetica,sans-Serif" font-size="10.00">MeshLibrary.hpp</text>
</a>
</g>
</g>
<!-- Node11&#45;&gt;Node25 -->
<g id="edge32" class="edge"><title>Node11&#45;&gt;Node25</title>
<path fill="none" stroke="midnightblue" d="M601.603,-224.444C625.951,-215.438 664.476,-201.189 691.892,-191.049"/>
<polygon fill="midnightblue" stroke="midnightblue" points="693.278,-194.268 701.443,-187.516 690.85,-187.703 693.278,-194.268"/>
</g>
<!-- Node30 -->
<g id="node30" class="node"><title>Node30</title>
<g id="a_node30"><a xlink:href="../../dc/d23/TextureLibrary_8hpp.html" target="_top" xlink:title="TextureLibrary.hpp">
<polygon fill="none" stroke="red" points="415.469,-168.5 415.469,-187.5 513.469,-187.5 513.469,-168.5 415.469,-168.5"/>
<text text-anchor="middle" x="464.469" y="-175.5" font-family="Helvetica,sans-Serif" font-size="10.00">TextureLibrary.hpp</text>
</a>
</g>
</g>
<!-- Node11&#45;&gt;Node30 -->
<g id="edge43" class="edge"><title>Node11&#45;&gt;Node30</title>
<path fill="none" stroke="midnightblue" d="M560.405,-224.444C541.894,-215.675 512.888,-201.935 491.614,-191.858"/>
<polygon fill="midnightblue" stroke="midnightblue" points="492.984,-188.634 482.448,-187.516 489.987,-194.96 492.984,-188.634"/>
</g>
<!-- Node14&#45;&gt;Node13 -->
<g id="edge14" class="edge"><title>Node14&#45;&gt;Node13</title>
<path fill="none" stroke="midnightblue" d="M815.15,-168.324C806.576,-160.341 793.657,-148.313 783.281,-138.653"/>
<polygon fill="midnightblue" stroke="midnightblue" points="785.661,-136.086 775.957,-131.834 780.891,-141.21 785.661,-136.086"/>
</g>
<!-- Node15&#45;&gt;Node13 -->
<g id="edge16" class="edge"><title>Node15&#45;&gt;Node13</title>
<path fill="none" stroke="midnightblue" d="M639.395,-168.444C667.54,-158.379 714,-141.764 742.264,-131.656"/>
<polygon fill="midnightblue" stroke="midnightblue" points="743.549,-134.914 751.787,-128.251 741.192,-128.322 743.549,-134.914"/>
</g>
<!-- Node17 -->
<g id="node17" class="node"><title>Node17</title>
<polygon fill="none" stroke="#bfbfbf" points="1336.47,-112.5 1336.47,-131.5 1422.47,-131.5 1422.47,-112.5 1336.47,-112.5"/>
<text text-anchor="middle" x="1379.47" y="-119.5" font-family="Helvetica,sans-Serif" font-size="10.00">assimp/scene.h</text>
</g>
<!-- Node16&#45;&gt;Node17 -->
<g id="edge18" class="edge"><title>Node16&#45;&gt;Node17</title>
<path fill="none" stroke="midnightblue" d="M1092.26,-169.519C1095.37,-169.003 1098.47,-168.493 1101.47,-168 1179.59,-155.167 1270.1,-140.565 1326.08,-131.566"/>
<polygon fill="midnightblue" stroke="midnightblue" points="1326.8,-134.995 1336.12,-129.953 1325.69,-128.084 1326.8,-134.995"/>
</g>
<!-- Node18&#45;&gt;Node12 -->
<g id="edge20" class="edge"><title>Node18&#45;&gt;Node12</title>
<path fill="none" stroke="midnightblue" d="M98.2192,-168.368C121.428,-149.733 176.479,-105.532 205.621,-82.1338"/>
<polygon fill="midnightblue" stroke="midnightblue" points="208.163,-84.5814 213.769,-75.5914 203.78,-79.1231 208.163,-84.5814"/>
</g>
<!-- Node19 -->
<g id="node19" class="node"><title>Node19</title>
<g id="a_node19"><a xlink:href="../../df/d67/Library_8hpp.html" target="_top" xlink:title="Library.hpp">
<polygon fill="none" stroke="red" points="370.969,-112.5 370.969,-131.5 435.969,-131.5 435.969,-112.5 370.969,-112.5"/>
<text text-anchor="middle" x="403.469" y="-119.5" font-family="Helvetica,sans-Serif" font-size="10.00">Library.hpp</text>
</a>
</g>
</g>
<!-- Node18&#45;&gt;Node19 -->
<g id="edge21" class="edge"><title>Node18&#45;&gt;Node19</title>
<path fill="none" stroke="midnightblue" d="M137.54,-168.444C199.105,-157.923 302.548,-140.246 360.608,-130.324"/>
<polygon fill="midnightblue" stroke="midnightblue" points="361.289,-133.759 370.556,-128.624 360.11,-126.859 361.289,-133.759"/>
</g>
<!-- Node21 -->
<g id="node21" class="node"><title>Node21</title>
<g id="a_node21"><a xlink:href="../../dc/ddb/ShaderProgram_8hpp.html" target="_top" xlink:title="ShaderProgram.hpp">
<polygon fill="none" stroke="red" points="231.969,-112.5 231.969,-131.5 334.969,-131.5 334.969,-112.5 231.969,-112.5"/>
<text text-anchor="middle" x="283.469" y="-119.5" font-family="Helvetica,sans-Serif" font-size="10.00">ShaderProgram.hpp</text>
</a>
</g>
</g>
<!-- Node18&#45;&gt;Node21 -->
<g id="edge24" class="edge"><title>Node18&#45;&gt;Node21</title>
<path fill="none" stroke="midnightblue" d="M118.526,-168.444C152.072,-159.201 205.666,-144.436 242.61,-134.257"/>
<polygon fill="midnightblue" stroke="midnightblue" points="243.846,-137.547 252.558,-131.516 241.987,-130.798 243.846,-137.547"/>
</g>
<!-- Node19&#45;&gt;Node19 -->
<g id="edge23" class="edge"><title>Node19&#45;&gt;Node19</title>
<path fill="none" stroke="midnightblue" d="M425.007,-131.525C439.642,-134.308 453.969,-131.133 453.969,-122 453.969,-115.008 445.571,-111.508 435.066,-111.5"/>
<polygon fill="midnightblue" stroke="midnightblue" points="434.623,-108.026 425.007,-112.475 435.298,-114.994 434.623,-108.026"/>
</g>
<!-- Node20 -->
<g id="node20" class="node"><title>Node20</title>
<polygon fill="none" stroke="#bfbfbf" points="728.469,-0.5 728.469,-19.5 772.469,-19.5 772.469,-0.5 728.469,-0.5"/>
<text text-anchor="middle" x="750.469" y="-7.5" font-family="Helvetica,sans-Serif" font-size="10.00">vector</text>
</g>
<!-- Node19&#45;&gt;Node20 -->
<g id="edge22" class="edge"><title>Node19&#45;&gt;Node20</title>
<path fill="none" stroke="midnightblue" d="M430.409,-112.46C493.568,-92.4383 650.95,-42.5477 718.665,-21.082"/>
<polygon fill="midnightblue" stroke="midnightblue" points="719.885,-24.3671 728.36,-18.0088 717.769,-17.6943 719.885,-24.3671"/>
</g>
<!-- Node21&#45;&gt;Node12 -->
<g id="edge27" class="edge"><title>Node21&#45;&gt;Node12</title>
<path fill="none" stroke="midnightblue" d="M273.99,-112.324C265.268,-104.341 252.126,-92.3128 241.571,-82.6529"/>
<polygon fill="midnightblue" stroke="midnightblue" points="243.861,-80.0036 234.121,-75.8339 239.135,-85.1674 243.861,-80.0036"/>
</g>
<!-- Node21&#45;&gt;Node20 -->
<g id="edge26" class="edge"><title>Node21&#45;&gt;Node20</title>
<path fill="none" stroke="midnightblue" d="M316.094,-112.447C365.119,-99.6768 460.758,-75.0869 542.469,-56 604.526,-41.5042 677.384,-26.1136 718.316,-17.6145"/>
<polygon fill="midnightblue" stroke="midnightblue" points="719.169,-21.0122 728.251,-15.5569 717.749,-14.1577 719.169,-21.0122"/>
</g>
<!-- Node22 -->
<g id="node22" class="node"><title>Node22</title>
<polygon fill="none" stroke="#bfbfbf" points="1134.47,-0.5 1134.47,-19.5 1204.47,-19.5 1204.47,-0.5 1134.47,-0.5"/>
<text text-anchor="middle" x="1169.47" y="-7.5" font-family="Helvetica,sans-Serif" font-size="10.00">glm/glm.hpp</text>
</g>
<!-- Node21&#45;&gt;Node22 -->
<g id="edge25" class="edge"><title>Node21&#45;&gt;Node22</title>
<path fill="none" stroke="midnightblue" d="M335.155,-114.347C427.656,-102.465 627.633,-76.8806 796.469,-56 914.534,-41.3985 1053.7,-24.7613 1123.97,-16.4006"/>
<polygon fill="midnightblue" stroke="midnightblue" points="1124.72,-19.8364 1134.23,-15.1799 1123.89,-12.8854 1124.72,-19.8364"/>
</g>
<!-- Node23&#45;&gt;Node19 -->
<g id="edge29" class="edge"><title>Node23&#45;&gt;Node19</title>
<path fill="none" stroke="midnightblue" d="M250.308,-168.444C281.325,-159.241 330.798,-144.562 365.087,-134.388"/>
<polygon fill="midnightblue" stroke="midnightblue" points="366.174,-137.716 374.766,-131.516 364.183,-131.006 366.174,-137.716"/>
</g>
<!-- Node24&#45;&gt;Node19 -->
<g id="edge31" class="edge"><title>Node24&#45;&gt;Node19</title>
<path fill="none" stroke="midnightblue" d="M353.109,-168.324C361.979,-160.341 375.344,-148.313 386.077,-138.653"/>
<polygon fill="midnightblue" stroke="midnightblue" points="388.562,-141.125 393.654,-131.834 383.879,-135.922 388.562,-141.125"/>
</g>
<!-- Node25&#45;&gt;Node19 -->
<g id="edge33" class="edge"><title>Node25&#45;&gt;Node19</title>
<path fill="none" stroke="midnightblue" d="M679.835,-169.492C617.953,-159.081 506.865,-140.394 446.078,-130.168"/>
<polygon fill="midnightblue" stroke="midnightblue" points="446.494,-126.689 436.052,-128.481 445.333,-133.592 446.494,-126.689"/>
</g>
<!-- Node25&#45;&gt;Node26 -->
<g id="edge34" class="edge"><title>Node25&#45;&gt;Node26</title>
<path fill="none" stroke="midnightblue" d="M766.618,-168.444C817.221,-158.171 901.435,-141.075 950.875,-131.038"/>
<polygon fill="midnightblue" stroke="midnightblue" points="951.768,-134.428 960.872,-129.008 950.376,-127.568 951.768,-134.428"/>
</g>
<!-- Node26&#45;&gt;Node12 -->
<g id="edge36" class="edge"><title>Node26&#45;&gt;Node12</title>
<path fill="none" stroke="midnightblue" d="M960.888,-117.184C946.583,-115.43 929.151,-113.428 913.469,-112 664.135,-89.3013 363.031,-73.6874 260.591,-68.7067"/>
<polygon fill="midnightblue" stroke="midnightblue" points="260.63,-65.2046 250.473,-68.218 260.292,-72.1964 260.63,-65.2046"/>
</g>
<!-- Node26&#45;&gt;Node20 -->
<g id="edge35" class="edge"><title>Node26&#45;&gt;Node20</title>
<path fill="none" stroke="midnightblue" d="M980.536,-112.459C964.207,-98.8018 930.227,-71.967 897.469,-56 859.912,-37.6938 813.32,-24.9492 782.786,-17.8096"/>
<polygon fill="midnightblue" stroke="midnightblue" points="783.223,-14.3199 772.696,-15.5181 781.673,-21.1461 783.223,-14.3199"/>
</g>
<!-- Node26&#45;&gt;Node22 -->
<g id="edge37" class="edge"><title>Node26&#45;&gt;Node22</title>
<path fill="none" stroke="midnightblue" d="M1020.12,-120.736C1055.58,-118.801 1114.49,-110.193 1149.47,-76 1161.73,-64.0171 1166.51,-44.7191 1168.36,-30.2576"/>
<polygon fill="midnightblue" stroke="midnightblue" points="1171.88,-30.2045 1169.3,-19.9289 1164.91,-29.5713 1171.88,-30.2045"/>
</g>
<!-- Node27 -->
<g id="node27" class="node"><title>Node27</title>
<polygon fill="none" stroke="#bfbfbf" points="805.969,-56.5 805.969,-75.5 888.969,-75.5 888.969,-56.5 805.969,-56.5"/>
<text text-anchor="middle" x="847.469" y="-63.5" font-family="Helvetica,sans-Serif" font-size="10.00">assimp/mesh.h</text>
</g>
<!-- Node26&#45;&gt;Node27 -->
<g id="edge38" class="edge"><title>Node26&#45;&gt;Node27</title>
<path fill="none" stroke="midnightblue" d="M967.81,-112.444C944.067,-103.478 906.56,-89.314 879.731,-79.1827"/>
<polygon fill="midnightblue" stroke="midnightblue" points="880.614,-75.7749 870.022,-75.5164 878.141,-82.3235 880.614,-75.7749"/>
</g>
<!-- Node28 -->
<g id="node28" class="node"><title>Node28</title>
<g id="a_node28"><a xlink:href="../../da/d04/BufferObject_8hpp.html" target="_top" xlink:title="BufferObject.hpp">
<polygon fill="none" stroke="black" points="945.469,-56.5 945.469,-75.5 1035.47,-75.5 1035.47,-56.5 945.469,-56.5"/>
<text text-anchor="middle" x="990.469" y="-63.5" font-family="Helvetica,sans-Serif" font-size="10.00">BufferObject.hpp</text>
</a>
</g>
</g>
<!-- Node26&#45;&gt;Node28 -->
<g id="edge39" class="edge"><title>Node26&#45;&gt;Node28</title>
<path fill="none" stroke="midnightblue" d="M990.469,-112.083C990.469,-105.006 990.469,-94.8611 990.469,-85.9865"/>
<polygon fill="midnightblue" stroke="midnightblue" points="993.969,-85.751 990.469,-75.7511 986.969,-85.7511 993.969,-85.751"/>
</g>
<!-- Node29 -->
<g id="node29" class="node"><title>Node29</title>
<g id="a_node29"><a xlink:href="../../df/d20/ArrayObject_8hpp.html" target="_top" xlink:title="ArrayObject.hpp">
<polygon fill="none" stroke="black" points="1053.97,-56.5 1053.97,-75.5 1140.97,-75.5 1140.97,-56.5 1053.97,-56.5"/>
<text text-anchor="middle" x="1097.47" y="-63.5" font-family="Helvetica,sans-Serif" font-size="10.00">ArrayObject.hpp</text>
</a>
</g>
</g>
<!-- Node26&#45;&gt;Node29 -->
<g id="edge42" class="edge"><title>Node26&#45;&gt;Node29</title>
<path fill="none" stroke="midnightblue" d="M1007.66,-112.324C1024.82,-103.664 1051.41,-90.2424 1071.22,-80.249"/>
<polygon fill="midnightblue" stroke="midnightblue" points="1072.97,-83.2847 1080.32,-75.6545 1069.82,-77.0354 1072.97,-83.2847"/>
</g>
<!-- Node28&#45;&gt;Node20 -->
<g id="edge40" class="edge"><title>Node28&#45;&gt;Node20</title>
<path fill="none" stroke="midnightblue" d="M952.44,-56.4435C905.452,-45.8712 826.344,-28.0719 782.374,-18.1785"/>
<polygon fill="midnightblue" stroke="midnightblue" points="783.035,-14.7399 772.511,-15.9593 781.498,-21.5692 783.035,-14.7399"/>
</g>
<!-- Node28&#45;&gt;Node22 -->
<g id="edge41" class="edge"><title>Node28&#45;&gt;Node22</title>
<path fill="none" stroke="midnightblue" d="M1018.83,-56.4435C1049.21,-47.2801 1097.58,-32.6876 1131.29,-22.5192"/>
<polygon fill="midnightblue" stroke="midnightblue" points="1132.68,-25.7555 1141.24,-19.5164 1130.65,-19.0538 1132.68,-25.7555"/>
</g>
<!-- Node30&#45;&gt;Node19 -->
<g id="edge44" class="edge"><title>Node30&#45;&gt;Node19</title>
<path fill="none" stroke="midnightblue" d="M454.668,-168.324C445.651,-160.341 432.063,-148.313 421.151,-138.653"/>
<polygon fill="midnightblue" stroke="midnightblue" points="423.256,-135.842 413.448,-131.834 418.616,-141.083 423.256,-135.842"/>
</g>
<!-- Node31&#45;&gt;Node13 -->
<g id="edge47" class="edge"><title>Node31&#45;&gt;Node13</title>
<path fill="none" stroke="midnightblue" d="M903.246,-168.44C876.137,-160.36 834.495,-147.598 790.445,-132.191"/>
<polygon fill="midnightblue" stroke="midnightblue" points="791.609,-128.89 781.014,-128.864 789.28,-135.491 791.609,-128.89"/>
</g>
<!-- Node31&#45;&gt;Node27 -->
<g id="edge49" class="edge"><title>Node31&#45;&gt;Node27</title>
<path fill="none" stroke="midnightblue" d="M931.777,-168.185C930.344,-154.861 926.047,-129.31 913.469,-112 903.732,-98.6001 888.715,-87.9085 875.463,-80.3149"/>
<polygon fill="midnightblue" stroke="midnightblue" points="877.119,-77.2317 866.658,-75.5575 873.792,-83.3903 877.119,-77.2317"/>
</g>
<!-- Node32 -->
<g id="node32" class="node"><title>Node32</title>
<polygon fill="none" stroke="#bfbfbf" points="1709.97,-112.5 1709.97,-131.5 1750.97,-131.5 1750.97,-112.5 1709.97,-112.5"/>
<text text-anchor="middle" x="1730.47" y="-119.5" font-family="Helvetica,sans-Serif" font-size="10.00">string</text>
</g>
<!-- Node31&#45;&gt;Node32 -->
<g id="edge46" class="edge"><title>Node31&#45;&gt;Node32</title>
<path fill="none" stroke="midnightblue" d="M984.675,-168.998C987.647,-168.636 990.594,-168.299 993.469,-168 1266.57,-139.568 1598.61,-127.211 1699.78,-123.934"/>
<polygon fill="midnightblue" stroke="midnightblue" points="1700.02,-127.428 1709.9,-123.611 1699.79,-120.431 1700.02,-127.428"/>
</g>
<!-- Node33 -->
<g id="node33" class="node"><title>Node33</title>
<polygon fill="none" stroke="#bfbfbf" points="798.469,-112.5 798.469,-131.5 904.469,-131.5 904.469,-112.5 798.469,-112.5"/>
<text text-anchor="middle" x="851.469" y="-119.5" font-family="Helvetica,sans-Serif" font-size="10.00">assimp/Importer.hpp</text>
</g>
<!-- Node31&#45;&gt;Node33 -->
<g id="edge48" class="edge"><title>Node31&#45;&gt;Node33</title>
<path fill="none" stroke="midnightblue" d="M919.455,-168.324C906.938,-159.979 887.787,-147.212 872.998,-137.352"/>
<polygon fill="midnightblue" stroke="midnightblue" points="874.713,-134.289 864.451,-131.655 870.83,-140.114 874.713,-134.289"/>
</g>
<!-- Node35 -->
<g id="node35" class="node"><title>Node35</title>
<g id="a_node35"><a xlink:href="../../de/d71/tools_8hpp.html" target="_top" xlink:title="tools.hpp">
<polygon fill="none" stroke="black" points="1305.47,-224.5 1305.47,-243.5 1361.47,-243.5 1361.47,-224.5 1305.47,-224.5"/>
<text text-anchor="middle" x="1333.47" y="-231.5" font-family="Helvetica,sans-Serif" font-size="10.00">tools.hpp</text>
</a>
</g>
</g>
<!-- Node34&#45;&gt;Node35 -->
<g id="edge51" class="edge"><title>Node34&#45;&gt;Node35</title>
<path fill="none" stroke="midnightblue" d="M1234.95,-285.975C1254.07,-276.078 1285.84,-259.642 1308.12,-248.115"/>
<polygon fill="midnightblue" stroke="midnightblue" points="1309.75,-251.213 1317.02,-243.509 1306.53,-244.996 1309.75,-251.213"/>
</g>
<!-- Node36 -->
<g id="node36" class="node"><title>Node36</title>
<polygon fill="none" stroke="#bfbfbf" points="1404.47,-168.5 1404.47,-187.5 1454.47,-187.5 1454.47,-168.5 1404.47,-168.5"/>
<text text-anchor="middle" x="1429.47" y="-175.5" font-family="Helvetica,sans-Serif" font-size="10.00">QString</text>
</g>
<!-- Node35&#45;&gt;Node36 -->
<g id="edge52" class="edge"><title>Node35&#45;&gt;Node36</title>
<path fill="none" stroke="midnightblue" d="M1348.89,-224.324C1364.01,-215.822 1387.28,-202.729 1404.94,-192.797"/>
<polygon fill="midnightblue" stroke="midnightblue" points="1407.08,-195.608 1414.08,-187.655 1403.65,-189.507 1407.08,-195.608"/>
</g>
<!-- Node37 -->
<g id="node37" class="node"><title>Node37</title>
<polygon fill="none" stroke="#bfbfbf" points="1472.97,-168.5 1472.97,-187.5 1537.97,-187.5 1537.97,-168.5 1472.97,-168.5"/>
<text text-anchor="middle" x="1505.47" y="-175.5" font-family="Helvetica,sans-Serif" font-size="10.00">QVector3D</text>
</g>
<!-- Node35&#45;&gt;Node37 -->
<g id="edge53" class="edge"><title>Node35&#45;&gt;Node37</title>
<path fill="none" stroke="midnightblue" d="M1360.72,-224.444C1389.91,-215.28 1436.39,-200.688 1468.78,-190.519"/>
<polygon fill="midnightblue" stroke="midnightblue" points="1469.85,-193.851 1478.34,-187.516 1467.75,-187.173 1469.85,-193.851"/>
</g>
<!-- Node38 -->
<g id="node38" class="node"><title>Node38</title>
<polygon fill="none" stroke="#bfbfbf" points="1110.47,-168.5 1110.47,-187.5 1150.47,-187.5 1150.47,-168.5 1110.47,-168.5"/>
<text text-anchor="middle" x="1130.47" y="-175.5" font-family="Helvetica,sans-Serif" font-size="10.00">QList</text>
</g>
<!-- Node35&#45;&gt;Node38 -->
<g id="edge54" class="edge"><title>Node35&#45;&gt;Node38</title>
<path fill="none" stroke="midnightblue" d="M1305.33,-226.163C1272.72,-218.143 1217.15,-204.184 1160.54,-188.21"/>
<polygon fill="midnightblue" stroke="midnightblue" points="1161.29,-184.783 1150.71,-185.418 1159.38,-191.517 1161.29,-184.783"/>
</g>
<!-- Node39 -->
<g id="node39" class="node"><title>Node39</title>
<polygon fill="none" stroke="#bfbfbf" points="1168.97,-168.5 1168.97,-187.5 1211.97,-187.5 1211.97,-168.5 1168.97,-168.5"/>
<text text-anchor="middle" x="1190.47" y="-175.5" font-family="Helvetica,sans-Serif" font-size="10.00">QMap</text>
</g>
<!-- Node35&#45;&gt;Node39 -->
<g id="edge55" class="edge"><title>Node35&#45;&gt;Node39</title>
<path fill="none" stroke="midnightblue" d="M1310.81,-224.444C1286.79,-215.372 1248.68,-200.98 1221.79,-190.827"/>
<polygon fill="midnightblue" stroke="midnightblue" points="1222.68,-187.421 1212.09,-187.163 1220.2,-193.97 1222.68,-187.421"/>
</g>
<!-- Node40 -->
<g id="node40" class="node"><title>Node40</title>
<polygon fill="none" stroke="#bfbfbf" points="1229.97,-168.5 1229.97,-187.5 1320.97,-187.5 1320.97,-168.5 1229.97,-168.5"/>
<text text-anchor="middle" x="1275.47" y="-175.5" font-family="Helvetica,sans-Serif" font-size="10.00">QGraphicsScene</text>
</g>
<!-- Node35&#45;&gt;Node40 -->
<g id="edge56" class="edge"><title>Node35&#45;&gt;Node40</title>
<path fill="none" stroke="midnightblue" d="M1324.15,-224.324C1315.58,-216.341 1302.66,-204.313 1292.28,-194.653"/>
<polygon fill="midnightblue" stroke="midnightblue" points="1294.66,-192.086 1284.96,-187.834 1289.89,-197.21 1294.66,-192.086"/>
</g>
<!-- Node41 -->
<g id="node41" class="node"><title>Node41</title>
<polygon fill="none" stroke="#bfbfbf" points="1338.97,-168.5 1338.97,-187.5 1385.97,-187.5 1385.97,-168.5 1338.97,-168.5"/>
<text text-anchor="middle" x="1362.47" y="-175.5" font-family="Helvetica,sans-Serif" font-size="10.00">math.h</text>
</g>
<!-- Node35&#45;&gt;Node41 -->
<g id="edge57" class="edge"><title>Node35&#45;&gt;Node41</title>
<path fill="none" stroke="midnightblue" d="M1338.26,-224.083C1342.23,-216.691 1347.99,-205.953 1352.9,-196.811"/>
<polygon fill="midnightblue" stroke="midnightblue" points="1356.12,-198.217 1357.77,-187.751 1349.95,-194.905 1356.12,-198.217"/>
</g>
<!-- Node42&#45;&gt;Node13 -->
<g id="edge60" class="edge"><title>Node42&#45;&gt;Node13</title>
<path fill="none" stroke="midnightblue" d="M1626.26,-224.212C1611.8,-209.414 1580.11,-179.971 1546.47,-168 1390.75,-112.59 970.17,-165.124 791.233,-131.621"/>
<polygon fill="midnightblue" stroke="midnightblue" points="791.841,-128.173 781.346,-129.627 790.457,-135.035 791.841,-128.173"/>
</g>
<!-- Node42&#45;&gt;Node17 -->
<g id="edge61" class="edge"><title>Node42&#45;&gt;Node17</title>
<path fill="none" stroke="midnightblue" d="M1635.06,-224.41C1635.5,-210.438 1634.17,-182.857 1618.47,-168 1592.29,-143.225 1494.71,-131.48 1432.62,-126.405"/>
<polygon fill="midnightblue" stroke="midnightblue" points="1432.85,-122.912 1422.6,-125.619 1432.3,-129.891 1432.85,-122.912"/>
</g>
<!-- Node43 -->
<g id="node43" class="node"><title>Node43</title>
<g id="a_node43"><a xlink:href="../../de/da6/Entity_8hpp.html" target="_top" xlink:title="Entity.hpp">
<polygon fill="none" stroke="black" points="1670.97,-168.5 1670.97,-187.5 1731.97,-187.5 1731.97,-168.5 1670.97,-168.5"/>
<text text-anchor="middle" x="1701.47" y="-175.5" font-family="Helvetica,sans-Serif" font-size="10.00">Entity.hpp</text>
</a>
</g>
</g>
<!-- Node42&#45;&gt;Node43 -->
<g id="edge62" class="edge"><title>Node42&#45;&gt;Node43</title>
<path fill="none" stroke="midnightblue" d="M1645.23,-224.324C1655.24,-216.263 1670.36,-204.077 1682.4,-194.369"/>
<polygon fill="midnightblue" stroke="midnightblue" points="1684.92,-196.834 1690.51,-187.834 1680.53,-191.384 1684.92,-196.834"/>
</g>
<!-- Node43&#45;&gt;Node32 -->
<g id="edge63" class="edge"><title>Node43&#45;&gt;Node32</title>
<path fill="none" stroke="midnightblue" d="M1706.26,-168.083C1710.23,-160.691 1715.99,-149.953 1720.9,-140.811"/>
<polygon fill="midnightblue" stroke="midnightblue" points="1724.12,-142.217 1725.77,-131.751 1717.95,-138.905 1724.12,-142.217"/>
</g>
<!-- Node44&#45;&gt;Node22 -->
<g id="edge66" class="edge"><title>Node44&#45;&gt;Node22</title>
<path fill="none" stroke="midnightblue" d="M1952.76,-224.474C1979.8,-212.866 2019.66,-190.901 2001.47,-168 1902.38,-43.2456 1374.56,-17.196 1215.12,-12.1417"/>
<polygon fill="midnightblue" stroke="midnightblue" points="1214.82,-8.63122 1204.72,-11.8257 1214.61,-15.628 1214.82,-8.63122"/>
</g>
<!-- Node44&#45;&gt;Node32 -->
<g id="edge65" class="edge"><title>Node44&#45;&gt;Node32</title>
<path fill="none" stroke="midnightblue" d="M1947.02,-224.398C1968.81,-211.973 2002.48,-188.271 1985.47,-168 1957.19,-134.293 1823.07,-125.823 1761.5,-123.703"/>
<polygon fill="midnightblue" stroke="midnightblue" points="1761.33,-120.197 1751.23,-123.386 1761.12,-127.193 1761.33,-120.197"/>
</g>
<!-- Node44&#45;&gt;Node43 -->
<g id="edge68" class="edge"><title>Node44&#45;&gt;Node43</title>
<path fill="none" stroke="midnightblue" d="M1895.19,-224.681C1853.84,-214.93 1785.45,-198.804 1741.97,-188.551"/>
<polygon fill="midnightblue" stroke="midnightblue" points="1742.56,-185.093 1732.02,-186.205 1740.95,-191.907 1742.56,-185.093"/>
</g>
<!-- Node45 -->
<g id="node45" class="node"><title>Node45</title>
<polygon fill="none" stroke="#bfbfbf" points="1884.47,-168.5 1884.47,-187.5 1976.47,-187.5 1976.47,-168.5 1884.47,-168.5"/>
<text text-anchor="middle" x="1930.47" y="-175.5" font-family="Helvetica,sans-Serif" font-size="10.00">assimp/camera.h</text>
</g>
<!-- Node44&#45;&gt;Node45 -->
<g id="edge67" class="edge"><title>Node44&#45;&gt;Node45</title>
<path fill="none" stroke="midnightblue" d="M1930.47,-224.083C1930.47,-217.006 1930.47,-206.861 1930.47,-197.986"/>
<polygon fill="midnightblue" stroke="midnightblue" points="1933.97,-197.751 1930.47,-187.751 1926.97,-197.751 1933.97,-197.751"/>
</g>
<!-- Node46&#45;&gt;Node32 -->
<g id="edge70" class="edge"><title>Node46&#45;&gt;Node32</title>
<path fill="none" stroke="midnightblue" d="M1738.25,-224.145C1740.52,-211.613 1743.88,-188.002 1741.47,-168 1740.4,-159.107 1738.18,-149.434 1736.01,-141.344"/>
<polygon fill="midnightblue" stroke="midnightblue" points="1739.31,-140.167 1733.2,-131.514 1732.58,-142.091 1739.31,-140.167"/>
</g>
<!-- Node46&#45;&gt;Node43 -->
<g id="edge72" class="edge"><title>Node46&#45;&gt;Node43</title>
<path fill="none" stroke="midnightblue" d="M1730.69,-224.083C1725.8,-216.534 1718.64,-205.495 1712.64,-196.23"/>
<polygon fill="midnightblue" stroke="midnightblue" points="1715.52,-194.239 1707.14,-187.751 1709.64,-198.046 1715.52,-194.239"/>
</g>
<!-- Node47 -->
<g id="node47" class="node"><title>Node47</title>
<polygon fill="none" stroke="#bfbfbf" points="1788.97,-168.5 1788.97,-187.5 1865.97,-187.5 1865.97,-168.5 1788.97,-168.5"/>
<text text-anchor="middle" x="1827.47" y="-175.5" font-family="Helvetica,sans-Serif" font-size="10.00">assimp/light.h</text>
</g>
<!-- Node46&#45;&gt;Node47 -->
<g id="edge71" class="edge"><title>Node46&#45;&gt;Node47</title>
<path fill="none" stroke="midnightblue" d="M1751.09,-224.324C1765.42,-215.822 1787.48,-202.729 1804.22,-192.797"/>
<polygon fill="midnightblue" stroke="midnightblue" points="1806.07,-195.768 1812.88,-187.655 1802.5,-189.748 1806.07,-195.768"/>
</g>
<!-- Node48&#45;&gt;Node22 -->
<g id="edge74" class="edge"><title>Node48&#45;&gt;Node22</title>
<path fill="none" stroke="midnightblue" d="M2112.93,-347.47C2103.05,-328.074 2080.47,-278.934 2080.47,-235 2080.47,-235 2080.47,-235 2080.47,-121 2080.47,-32.8024 1398.77,-14.8813 1214.77,-11.6505"/>
<polygon fill="midnightblue" stroke="midnightblue" points="1214.68,-8.14865 1204.62,-11.4786 1214.56,-15.1476 1214.68,-8.14865"/>
</g>
<!-- Node49 -->
<g id="node49" class="node"><title>Node49</title>
<polygon fill="none" stroke="#bfbfbf" points="2108.47,-286 2108.47,-305 2200.47,-305 2200.47,-286 2108.47,-286"/>
<text text-anchor="middle" x="2154.47" y="-293" font-family="Helvetica,sans-Serif" font-size="10.00">assimp/vector3.h</text>
</g>
<!-- Node48&#45;&gt;Node49 -->
<g id="edge75" class="edge"><title>Node48&#45;&gt;Node49</title>
<path fill="none" stroke="midnightblue" d="M2122.77,-347.475C2128.21,-338.727 2136.83,-324.869 2143.71,-313.809"/>
<polygon fill="midnightblue" stroke="midnightblue" points="2146.87,-315.349 2149.18,-305.009 2140.92,-311.653 2146.87,-315.349"/>
</g>
<!-- Node50 -->
<g id="node50" class="node"><title>Node50</title>
<polygon fill="none" stroke="#bfbfbf" points="2218.47,-286 2218.47,-305 2320.47,-305 2320.47,-286 2218.47,-286"/>
<text text-anchor="middle" x="2269.47" y="-293" font-family="Helvetica,sans-Serif" font-size="10.00">assimp/matrix4x4.h</text>
</g>
<!-- Node48&#45;&gt;Node50 -->
<g id="edge76" class="edge"><title>Node48&#45;&gt;Node50</title>
<path fill="none" stroke="midnightblue" d="M2139.25,-347.475C2165.21,-337.313 2208.78,-320.256 2238.3,-308.7"/>
<polygon fill="midnightblue" stroke="midnightblue" points="2239.7,-311.913 2247.73,-305.009 2237.14,-305.395 2239.7,-311.913"/>
</g>
</g>
</svg>
