<?xml version="1.0" encoding="UTF-8" standalone="no"?>
<!DOCTYPE svg PUBLIC "-//W3C//DTD SVG 1.1//EN"
 "http://www.w3.org/Graphics/SVG/1.1/DTD/svg11.dtd">
<!-- Generated by graphviz version 2.38.0 (20140413.2041)
 -->
<!-- Title: engine/Library/Library.hpp Pages: 1 -->
<!--zoomable 475 -->
<svg id="main" version="1.1" xmlns="http://www.w3.org/2000/svg" xmlns:xlink="http://www.w3.org/1999/xlink" xml:space="preserve" onload="init(evt)">
<style type="text/css"><![CDATA[
.edge:hover path { stroke: red; }
.edge:hover polygon { stroke: red; fill: red; }
]]></style>
<script type="text/javascript"><![CDATA[
var edges = document.getElementsByTagName('g');
if (edges && edges.length) {
  for (var i=0;i<edges.length;i++) {
    if (edges[i].id.substr(0,4)=='edge') {
      edges[i].setAttribute('class','edge');
    }
  }
}
]]></script>
        <defs>
                <circle id="rim" cx="0" cy="0" r="7"/>
                <circle id="rim2" cx="0" cy="0" r="3.5"/>
                <g id="zoomPlus">
                        <use xlink:href="#rim" fill="#404040">
                                <set attributeName="fill" to="#808080" begin="zoomplus.mouseover" end="zoomplus.mouseout"/>
                        </use>
                        <path d="M-4,0h8M0,-4v8" fill="none" stroke="white" stroke-width="1.5" pointer-events="none"/>
                </g>
                <g id="zoomMin">
                        <use xlink:href="#rim" fill="#404040">
                                <set attributeName="fill" to="#808080" begin="zoomminus.mouseover" end="zoomminus.mouseout"/>
                        </use>
                        <path d="M-4,0h8" fill="none" stroke="white" stroke-width="1.5" pointer-events="none"/>
                </g>
                <g id="dirArrow">
                        <path fill="none" stroke="white" stroke-width="1.5" d="M0,-3.0v7 M-2.5,-0.5L0,-3.0L2.5,-0.5"/>
                </g>
               <g id="resetDef">
                       <use xlink:href="#rim2" fill="#404040">
                               <set attributeName="fill" to="#808080" begin="reset.mouseover" end="reset.mouseout"/>
                       </use>
               </g>
        </defs>

<script type="text/javascript">
var viewWidth = 1380;
var viewHeight = 475;
var sectionId = 'dynsection-1';
</script>
<script xlink:href="../../svgpan.js"/>
<svg id="graph" class="graph">
<g id="viewport">
<title>engine/Library/Library.hpp</title>
<!-- Node1 -->
<g id="node1" class="node"><title>Node1</title>
<polygon fill="#bfbfbf" stroke="black" points="830.5,-447.5 830.5,-466.5 958.5,-466.5 958.5,-447.5 830.5,-447.5"/>
<text text-anchor="middle" x="894.5" y="-454.5" font-family="Helvetica,sans-Serif" font-size="10.00">engine/Library/Library.hpp</text>
</g>
<!-- Node2 -->
<g id="node2" class="node"><title>Node2</title>
<g id="a_node2"><a xlink:href="../../d1/da3/AnimationLibrary_8hpp.html" target="_top" xlink:title="engine/AnimationLibrary\l/AnimationLibrary.hpp">
<polygon fill="none" stroke="black" points="767,-380.5 767,-410.5 888,-410.5 888,-380.5 767,-380.5"/>
<text text-anchor="start" x="775" y="-398.5" font-family="Helvetica,sans-Serif" font-size="10.00">engine/AnimationLibrary</text>
<text text-anchor="middle" x="827.5" y="-387.5" font-family="Helvetica,sans-Serif" font-size="10.00">/AnimationLibrary.hpp</text>
</a>
</g>
</g>
<!-- Node1&#45;&gt;Node2 -->
<g id="edge1" class="edge"><title>Node1&#45;&gt;Node2</title>
<path fill="none" stroke="midnightblue" d="M877.211,-440.646C866.738,-431.346 853.48,-419.572 843.291,-410.523"/>
<polygon fill="midnightblue" stroke="midnightblue" points="875.099,-443.452 884.901,-447.475 879.747,-438.218 875.099,-443.452"/>
</g>
<!-- Node23 -->
<g id="node23" class="node"><title>Node23</title>
<g id="a_node23"><a xlink:href="../../d2/d26/MaterialLibrary_8hpp.html" target="_top" xlink:title="engine/MaterialLibrary\l/MaterialLibrary.hpp">
<polygon fill="none" stroke="black" points="598.5,-313.5 598.5,-343.5 710.5,-343.5 710.5,-313.5 598.5,-313.5"/>
<text text-anchor="start" x="606.5" y="-331.5" font-family="Helvetica,sans-Serif" font-size="10.00">engine/MaterialLibrary</text>
<text text-anchor="middle" x="654.5" y="-320.5" font-family="Helvetica,sans-Serif" font-size="10.00">/MaterialLibrary.hpp</text>
</a>
</g>
</g>
<!-- Node1&#45;&gt;Node23 -->
<g id="edge23" class="edge"><title>Node1&#45;&gt;Node23</title>
<path fill="none" stroke="midnightblue" d="M847.043,-444.848C819.869,-437.392 785.68,-426.153 757.5,-411 722.756,-392.317 687.933,-361.666 669.004,-343.754"/>
<polygon fill="midnightblue" stroke="midnightblue" points="846.149,-448.232 856.713,-447.424 847.951,-441.468 846.149,-448.232"/>
</g>
<!-- Node26 -->
<g id="node26" class="node"><title>Node26</title>
<g id="a_node26"><a xlink:href="../../dd/de2/MeshLibrary_8hpp.html" target="_top" xlink:title="engine/MeshLibrary\l/MeshLibrary.hpp">
<polygon fill="none" stroke="black" points="479,-313.5 479,-343.5 580,-343.5 580,-313.5 479,-313.5"/>
<text text-anchor="start" x="487" y="-331.5" font-family="Helvetica,sans-Serif" font-size="10.00">engine/MeshLibrary</text>
<text text-anchor="middle" x="529.5" y="-320.5" font-family="Helvetica,sans-Serif" font-size="10.00">/MeshLibrary.hpp</text>
</a>
</g>
</g>
<!-- Node1&#45;&gt;Node26 -->
<g id="edge27" class="edge"><title>Node1&#45;&gt;Node26</title>
<path fill="none" stroke="midnightblue" d="M839.21,-445.374C802.032,-437.545 752.205,-425.718 709.5,-411 653.393,-391.664 590.915,-361.242 556.301,-343.548"/>
<polygon fill="midnightblue" stroke="midnightblue" points="838.841,-448.872 849.344,-447.475 840.263,-442.018 838.841,-448.872"/>
</g>
<!-- Node27 -->
<g id="node27" class="node"><title>Node27</title>
<g id="a_node27"><a xlink:href="../../d2/db1/ShaderLibrary_8hpp.html" target="_top" xlink:title="engine/ShaderLibrary\l/ShaderLibrary.hpp">
<polygon fill="none" stroke="black" points="1146.5,-380.5 1146.5,-410.5 1254.5,-410.5 1254.5,-380.5 1146.5,-380.5"/>
<text text-anchor="start" x="1154.5" y="-398.5" font-family="Helvetica,sans-Serif" font-size="10.00">engine/ShaderLibrary</text>
<text text-anchor="middle" x="1200.5" y="-387.5" font-family="Helvetica,sans-Serif" font-size="10.00">/ShaderLibrary.hpp</text>
</a>
</g>
</g>
<!-- Node1&#45;&gt;Node27 -->
<g id="edge30" class="edge"><title>Node1&#45;&gt;Node27</title>
<path fill="none" stroke="midnightblue" d="M948.374,-445.524C1004.1,-434.689 1090.62,-417.865 1146.42,-407.015"/>
<polygon fill="midnightblue" stroke="midnightblue" points="947.49,-442.131 938.342,-447.475 948.827,-449.002 947.49,-442.131"/>
</g>
<!-- Node30 -->
<g id="node30" class="node"><title>Node30</title>
<g id="a_node30"><a xlink:href="../../d1/d93/ShaderProgramLibrary_8hpp.html" target="_top" xlink:title="engine/ShaderProgramLibrary\l/ShaderProgramLibrary.hpp">
<polygon fill="none" stroke="black" points="1073,-313.5 1073,-343.5 1218,-343.5 1218,-313.5 1073,-313.5"/>
<text text-anchor="start" x="1081" y="-331.5" font-family="Helvetica,sans-Serif" font-size="10.00">engine/ShaderProgramLibrary</text>
<text text-anchor="middle" x="1145.5" y="-320.5" font-family="Helvetica,sans-Serif" font-size="10.00">/ShaderProgramLibrary.hpp</text>
</a>
</g>
</g>
<!-- Node1&#45;&gt;Node30 -->
<g id="edge37" class="edge"><title>Node1&#45;&gt;Node30</title>
<path fill="none" stroke="midnightblue" d="M936.612,-444.648C962.878,-436.817 996.988,-425.259 1025.5,-411 1064.47,-391.512 1105.57,-361.144 1128.13,-343.5"/>
<polygon fill="midnightblue" stroke="midnightblue" points="935.577,-441.304 926.958,-447.465 937.538,-448.024 935.577,-441.304"/>
</g>
<!-- Node31 -->
<g id="node31" class="node"><title>Node31</title>
<g id="a_node31"><a xlink:href="../../dc/d23/TextureLibrary_8hpp.html" target="_top" xlink:title="engine/TextureLibrary\l/TextureLibrary.hpp">
<polygon fill="none" stroke="black" points="906.5,-380.5 906.5,-410.5 1016.5,-410.5 1016.5,-380.5 906.5,-380.5"/>
<text text-anchor="start" x="914.5" y="-398.5" font-family="Helvetica,sans-Serif" font-size="10.00">engine/TextureLibrary</text>
<text text-anchor="middle" x="961.5" y="-387.5" font-family="Helvetica,sans-Serif" font-size="10.00">/TextureLibrary.hpp</text>
</a>
</g>
</g>
<!-- Node1&#45;&gt;Node31 -->
<g id="edge38" class="edge"><title>Node1&#45;&gt;Node31</title>
<path fill="none" stroke="midnightblue" d="M911.789,-440.646C922.262,-431.346 935.52,-419.572 945.709,-410.523"/>
<polygon fill="midnightblue" stroke="midnightblue" points="909.253,-438.218 904.099,-447.475 913.901,-443.452 909.253,-438.218"/>
</g>
<!-- Node3 -->
<g id="node3" class="node"><title>Node3</title>
<g id="a_node3"><a xlink:href="../../d7/d38/AnimationLibrary_8cpp.html" target="_top" xlink:title="engine/AnimationLibrary\l/AnimationLibrary.cpp">
<polygon fill="none" stroke="black" points="729,-313.5 729,-343.5 850,-343.5 850,-313.5 729,-313.5"/>
<text text-anchor="start" x="737" y="-331.5" font-family="Helvetica,sans-Serif" font-size="10.00">engine/AnimationLibrary</text>
<text text-anchor="middle" x="789.5" y="-320.5" font-family="Helvetica,sans-Serif" font-size="10.00">/AnimationLibrary.cpp</text>
</a>
</g>
</g>
<!-- Node2&#45;&gt;Node3 -->
<g id="edge2" class="edge"><title>Node2&#45;&gt;Node3</title>
<path fill="none" stroke="midnightblue" d="M814.098,-371.576C808.641,-362.241 802.507,-351.748 797.729,-343.577"/>
<polygon fill="midnightblue" stroke="midnightblue" points="811.186,-373.529 819.255,-380.396 817.229,-369.997 811.186,-373.529"/>
</g>
<!-- Node4 -->
<g id="node4" class="node"><title>Node4</title>
<g id="a_node4"><a xlink:href="../../db/de8/Scene_8hpp.html" target="_top" xlink:title="engine/Scene/Scene.hpp">
<polygon fill="none" stroke="black" points="816,-252 816,-271 941,-271 941,-252 816,-252"/>
<text text-anchor="middle" x="878.5" y="-259" font-family="Helvetica,sans-Serif" font-size="10.00">engine/Scene/Scene.hpp</text>
</a>
</g>
</g>
<!-- Node2&#45;&gt;Node4 -->
<g id="edge3" class="edge"><title>Node2&#45;&gt;Node4</title>
<path fill="none" stroke="midnightblue" d="M843.609,-371.641C848.952,-363.251 854.541,-353.481 858.5,-344 869.055,-318.725 874.893,-286.619 877.25,-271.346"/>
<polygon fill="midnightblue" stroke="midnightblue" points="840.594,-369.853 837.995,-380.124 846.432,-373.716 840.594,-369.853"/>
</g>
<!-- Node5 -->
<g id="node5" class="node"><title>Node5</title>
<g id="a_node5"><a xlink:href="../../d4/d7f/AssimpImporter_8cpp.html" target="_top" xlink:title="engine/AssimpImporter\l/AssimpImporter.cpp">
<polygon fill="none" stroke="black" points="418,-179.5 418,-209.5 535,-209.5 535,-179.5 418,-179.5"/>
<text text-anchor="start" x="426" y="-197.5" font-family="Helvetica,sans-Serif" font-size="10.00">engine/AssimpImporter</text>
<text text-anchor="middle" x="476.5" y="-186.5" font-family="Helvetica,sans-Serif" font-size="10.00">/AssimpImporter.cpp</text>
</a>
</g>
</g>
<!-- Node4&#45;&gt;Node5 -->
<g id="edge4" class="edge"><title>Node4&#45;&gt;Node5</title>
<path fill="none" stroke="midnightblue" d="M805.682,-250.774C737.881,-241.413 634.091,-226.31 544.5,-210 541.412,-209.438 538.25,-208.84 535.061,-208.22"/>
<polygon fill="midnightblue" stroke="midnightblue" points="805.449,-254.274 815.833,-252.169 806.403,-247.34 805.449,-254.274"/>
</g>
<!-- Node6 -->
<g id="node6" class="node"><title>Node6</title>
<g id="a_node6"><a xlink:href="../../d4/d1c/GameEngine_8hpp.html" target="_top" xlink:title="engine/GameEngine/GameEngine.hpp">
<polygon fill="none" stroke="black" points="553.5,-185 553.5,-204 735.5,-204 735.5,-185 553.5,-185"/>
<text text-anchor="middle" x="644.5" y="-192" font-family="Helvetica,sans-Serif" font-size="10.00">engine/GameEngine/GameEngine.hpp</text>
</a>
</g>
</g>
<!-- Node4&#45;&gt;Node6 -->
<g id="edge5" class="edge"><title>Node4&#45;&gt;Node6</title>
<path fill="none" stroke="midnightblue" d="M837.72,-249.172C791.447,-236.319 717.014,-215.643 675.329,-204.064"/>
<polygon fill="midnightblue" stroke="midnightblue" points="836.855,-252.564 847.427,-251.869 838.728,-245.82 836.855,-252.564"/>
</g>
<!-- Node19 -->
<g id="node19" class="node"><title>Node19</title>
<g id="a_node19"><a xlink:href="../../d2/d41/Light_8cpp.html" target="_top" xlink:title="engine/Light/Light.cpp">
<polygon fill="none" stroke="black" points="753.5,-185 753.5,-204 865.5,-204 865.5,-185 753.5,-185"/>
<text text-anchor="middle" x="809.5" y="-192" font-family="Helvetica,sans-Serif" font-size="10.00">engine/Light/Light.cpp</text>
</a>
</g>
</g>
<!-- Node4&#45;&gt;Node19 -->
<g id="edge19" class="edge"><title>Node4&#45;&gt;Node19</title>
<path fill="none" stroke="midnightblue" d="M861.894,-244.856C848.329,-232.078 829.66,-214.492 818.658,-204.127"/>
<polygon fill="midnightblue" stroke="midnightblue" points="859.515,-247.424 869.194,-251.734 864.315,-242.329 859.515,-247.424"/>
</g>
<!-- Node20 -->
<g id="node20" class="node"><title>Node20</title>
<g id="a_node20"><a xlink:href="../../de/d4f/Object_8cpp.html" target="_top" xlink:title="engine/Object/Object.cpp">
<polygon fill="none" stroke="black" points="884,-185 884,-204 1011,-204 1011,-185 884,-185"/>
<text text-anchor="middle" x="947.5" y="-192" font-family="Helvetica,sans-Serif" font-size="10.00">engine/Object/Object.cpp</text>
</a>
</g>
</g>
<!-- Node4&#45;&gt;Node20 -->
<g id="edge20" class="edge"><title>Node4&#45;&gt;Node20</title>
<path fill="none" stroke="midnightblue" d="M895.106,-244.856C908.671,-232.078 927.34,-214.492 938.342,-204.127"/>
<polygon fill="midnightblue" stroke="midnightblue" points="892.685,-242.329 887.806,-251.734 897.485,-247.424 892.685,-242.329"/>
</g>
<!-- Node21 -->
<g id="node21" class="node"><title>Node21</title>
<g id="a_node21"><a xlink:href="../../da/daf/PerspectiveCamera_8cpp.html" target="_top" xlink:title="engine/PerspectiveCamera\l/PerspectiveCamera.cpp">
<polygon fill="none" stroke="black" points="1029.5,-179.5 1029.5,-209.5 1163.5,-209.5 1163.5,-179.5 1029.5,-179.5"/>
<text text-anchor="start" x="1037.5" y="-197.5" font-family="Helvetica,sans-Serif" font-size="10.00">engine/PerspectiveCamera</text>
<text text-anchor="middle" x="1096.5" y="-186.5" font-family="Helvetica,sans-Serif" font-size="10.00">/PerspectiveCamera.cpp</text>
</a>
</g>
</g>
<!-- Node4&#45;&gt;Node21 -->
<g id="edge21" class="edge"><title>Node4&#45;&gt;Node21</title>
<path fill="none" stroke="midnightblue" d="M917.349,-248.917C954.313,-237.895 1009.99,-221.294 1049.45,-209.528"/>
<polygon fill="midnightblue" stroke="midnightblue" points="916.032,-245.657 907.449,-251.869 918.032,-252.365 916.032,-245.657"/>
</g>
<!-- Node22 -->
<g id="node22" class="node"><title>Node22</title>
<g id="a_node22"><a xlink:href="../../de/d15/Scene_8cpp.html" target="_top" xlink:title="engine/Scene/Scene.cpp">
<polygon fill="none" stroke="black" points="1182,-185 1182,-204 1307,-204 1307,-185 1182,-185"/>
<text text-anchor="middle" x="1244.5" y="-192" font-family="Helvetica,sans-Serif" font-size="10.00">engine/Scene/Scene.cpp</text>
</a>
</g>
</g>
<!-- Node4&#45;&gt;Node22 -->
<g id="edge22" class="edge"><title>Node4&#45;&gt;Node22</title>
<path fill="none" stroke="midnightblue" d="M940.895,-250.314C1000.47,-240.463 1092.73,-224.88 1172.5,-210 1182.4,-208.153 1193.05,-206.065 1203.04,-204.061"/>
<polygon fill="midnightblue" stroke="midnightblue" points="940.189,-246.884 930.892,-251.965 941.329,-253.79 940.189,-246.884"/>
</g>
<!-- Node7 -->
<g id="node7" class="node"><title>Node7</title>
<g id="a_node7"><a xlink:href="../../dd/d98/GameEngine_8cpp.html" target="_top" xlink:title="engine/GameEngine/GameEngine.cpp">
<polygon fill="none" stroke="black" points="388.5,-123.5 388.5,-142.5 570.5,-142.5 570.5,-123.5 388.5,-123.5"/>
<text text-anchor="middle" x="479.5" y="-130.5" font-family="Helvetica,sans-Serif" font-size="10.00">engine/GameEngine/GameEngine.cpp</text>
</a>
</g>
</g>
<!-- Node6&#45;&gt;Node7 -->
<g id="edge6" class="edge"><title>Node6&#45;&gt;Node7</title>
<path fill="none" stroke="midnightblue" d="M611.452,-181.583C579.379,-170.017 531.502,-152.752 503.097,-142.509"/>
<polygon fill="midnightblue" stroke="midnightblue" points="610.265,-184.875 620.86,-184.975 612.64,-178.29 610.265,-184.875"/>
</g>
<!-- Node8 -->
<g id="node8" class="node"><title>Node8</title>
<g id="a_node8"><a xlink:href="../../d0/d5e/glwindow_8hpp.html" target="_top" xlink:title="window/glwindow.hpp">
<polygon fill="none" stroke="black" points="588.5,-123.5 588.5,-142.5 700.5,-142.5 700.5,-123.5 588.5,-123.5"/>
<text text-anchor="middle" x="644.5" y="-130.5" font-family="Helvetica,sans-Serif" font-size="10.00">window/glwindow.hpp</text>
</a>
</g>
</g>
<!-- Node6&#45;&gt;Node8 -->
<g id="edge7" class="edge"><title>Node6&#45;&gt;Node8</title>
<path fill="none" stroke="midnightblue" d="M644.5,-174.817C644.5,-163.996 644.5,-150.898 644.5,-142.509"/>
<polygon fill="midnightblue" stroke="midnightblue" points="641,-174.975 644.5,-184.975 648,-174.975 641,-174.975"/>
</g>
<!-- Node15 -->
<g id="node15" class="node"><title>Node15</title>
<g id="a_node15"><a xlink:href="../../d3/d1f/glwindow_8cpp.html" target="_top" xlink:title="window/glwindow.cpp">
<polygon fill="none" stroke="black" points="970.5,-62 970.5,-81 1082.5,-81 1082.5,-62 970.5,-62"/>
<text text-anchor="middle" x="1026.5" y="-69" font-family="Helvetica,sans-Serif" font-size="10.00">window/glwindow.cpp</text>
</a>
</g>
</g>
<!-- Node6&#45;&gt;Node15 -->
<g id="edge18" class="edge"><title>Node6&#45;&gt;Node15</title>
<path fill="none" stroke="midnightblue" d="M681.025,-181.931C757.328,-157.761 932.129,-102.392 999.413,-81.0799"/>
<polygon fill="midnightblue" stroke="midnightblue" points="679.838,-178.635 671.361,-184.992 681.952,-185.308 679.838,-178.635"/>
</g>
<!-- Node9 -->
<g id="node9" class="node"><title>Node9</title>
<g id="a_node9"><a xlink:href="../../d8/d49/ArrayObject_8cpp.html" target="_top" xlink:title="engine/ArrayObject\l/ArrayObject.cpp">
<polygon fill="none" stroke="black" points="594.5,-56.5 594.5,-86.5 694.5,-86.5 694.5,-56.5 594.5,-56.5"/>
<text text-anchor="start" x="602.5" y="-74.5" font-family="Helvetica,sans-Serif" font-size="10.00">engine/ArrayObject</text>
<text text-anchor="middle" x="644.5" y="-63.5" font-family="Helvetica,sans-Serif" font-size="10.00">/ArrayObject.cpp</text>
</a>
</g>
</g>
<!-- Node8&#45;&gt;Node9 -->
<g id="edge8" class="edge"><title>Node8&#45;&gt;Node9</title>
<path fill="none" stroke="midnightblue" d="M644.5,-113.235C644.5,-104.586 644.5,-94.4969 644.5,-86.523"/>
<polygon fill="midnightblue" stroke="midnightblue" points="641,-113.475 644.5,-123.475 648,-113.475 641,-113.475"/>
</g>
<!-- Node10 -->
<g id="node10" class="node"><title>Node10</title>
<g id="a_node10"><a xlink:href="../../db/d2b/BufferObject_8cpp.html" target="_top" xlink:title="engine/BufferObject\l/BufferObject.cpp">
<polygon fill="none" stroke="black" points="713,-56.5 713,-86.5 816,-86.5 816,-56.5 713,-56.5"/>
<text text-anchor="start" x="721" y="-74.5" font-family="Helvetica,sans-Serif" font-size="10.00">engine/BufferObject</text>
<text text-anchor="middle" x="764.5" y="-63.5" font-family="Helvetica,sans-Serif" font-size="10.00">/BufferObject.cpp</text>
</a>
</g>
</g>
<!-- Node8&#45;&gt;Node10 -->
<g id="edge9" class="edge"><title>Node8&#45;&gt;Node10</title>
<path fill="none" stroke="midnightblue" d="M670.843,-118.938C690.188,-109.347 716.432,-96.3336 736.218,-86.523"/>
<polygon fill="midnightblue" stroke="midnightblue" points="669.097,-115.897 661.693,-123.475 672.207,-122.169 669.097,-115.897"/>
</g>
<!-- Node11 -->
<g id="node11" class="node"><title>Node11</title>
<g id="a_node11"><a xlink:href="../../d2/dcc/Mesh_8cpp.html" target="_top" xlink:title="engine/Mesh/Mesh.cpp">
<polygon fill="none" stroke="black" points="834.5,-62 834.5,-81 952.5,-81 952.5,-62 834.5,-62"/>
<text text-anchor="middle" x="893.5" y="-69" font-family="Helvetica,sans-Serif" font-size="10.00">engine/Mesh/Mesh.cpp</text>
</a>
</g>
</g>
<!-- Node8&#45;&gt;Node11 -->
<g id="edge10" class="edge"><title>Node8&#45;&gt;Node11</title>
<path fill="none" stroke="midnightblue" d="M690.058,-121.114C738.387,-109.565 813.73,-91.5615 857.891,-81.0091"/>
<polygon fill="midnightblue" stroke="midnightblue" points="689.088,-117.747 680.176,-123.475 690.715,-124.555 689.088,-117.747"/>
</g>
<!-- Node12 -->
<g id="node12" class="node"><title>Node12</title>
<g id="a_node12"><a xlink:href="../../d3/d28/Renderer_8cpp.html" target="_top" xlink:title="engine/Renderer/Renderer.cpp">
<polygon fill="none" stroke="black" points="0,-62 0,-81 149,-81 149,-62 0,-62"/>
<text text-anchor="middle" x="74.5" y="-69" font-family="Helvetica,sans-Serif" font-size="10.00">engine/Renderer/Renderer.cpp</text>
</a>
</g>
</g>
<!-- Node8&#45;&gt;Node12 -->
<g id="edge11" class="edge"><title>Node8&#45;&gt;Node12</title>
<path fill="none" stroke="midnightblue" d="M577.966,-122.886C390.69,-102.395 340.891,-110.795 157.5,-87 145.025,-85.3813 131.564,-83.2138 119.188,-81.0489"/>
<polygon fill="midnightblue" stroke="midnightblue" points="577.828,-126.392 588.152,-124.014 578.598,-119.434 577.828,-126.392"/>
</g>
<!-- Node13 -->
<g id="node13" class="node"><title>Node13</title>
<g id="a_node13"><a xlink:href="../../dd/d84/Shader_8cpp.html" target="_top" xlink:title="engine/Shader/Shader.cpp">
<polygon fill="none" stroke="black" points="167,-62 167,-81 298,-81 298,-62 167,-62"/>
<text text-anchor="middle" x="232.5" y="-69" font-family="Helvetica,sans-Serif" font-size="10.00">engine/Shader/Shader.cpp</text>
</a>
</g>
</g>
<!-- Node8&#45;&gt;Node13 -->
<g id="edge12" class="edge"><title>Node8&#45;&gt;Node13</title>
<path fill="none" stroke="midnightblue" d="M578.417,-122.867C456.973,-106.621 424.687,-106.066 307.5,-87 296.766,-85.2537 285.214,-83.1384 274.469,-81.0697"/>
<polygon fill="midnightblue" stroke="midnightblue" points="578.106,-126.357 588.483,-124.222 579.039,-119.419 578.106,-126.357"/>
</g>
<!-- Node14 -->
<g id="node14" class="node"><title>Node14</title>
<g id="a_node14"><a xlink:href="../../de/d34/ShaderProgram_8cpp.html" target="_top" xlink:title="engine/ShaderProgram\l/ShaderProgram.cpp">
<polygon fill="none" stroke="black" points="316.5,-56.5 316.5,-86.5 432.5,-86.5 432.5,-56.5 316.5,-56.5"/>
<text text-anchor="start" x="324.5" y="-74.5" font-family="Helvetica,sans-Serif" font-size="10.00">engine/ShaderProgram</text>
<text text-anchor="middle" x="374.5" y="-63.5" font-family="Helvetica,sans-Serif" font-size="10.00">/ShaderProgram.cpp</text>
</a>
</g>
</g>
<!-- Node8&#45;&gt;Node14 -->
<g id="edge13" class="edge"><title>Node8&#45;&gt;Node14</title>
<path fill="none" stroke="midnightblue" d="M595.836,-121.276C550.046,-111.185 481.425,-96.063 432.744,-85.3354"/>
<polygon fill="midnightblue" stroke="midnightblue" points="595.297,-124.741 605.816,-123.475 596.803,-117.905 595.297,-124.741"/>
</g>
<!-- Node8&#45;&gt;Node15 -->
<g id="edge14" class="edge"><title>Node8&#45;&gt;Node15</title>
<path fill="none" stroke="midnightblue" d="M710.546,-124.158C774.84,-116.163 875.201,-102.726 961.5,-87 970.941,-85.2796 981.093,-83.1505 990.502,-81.0587"/>
<polygon fill="midnightblue" stroke="midnightblue" points="710.04,-120.694 700.545,-125.394 710.899,-127.641 710.04,-120.694"/>
</g>
<!-- Node16 -->
<g id="node16" class="node"><title>Node16</title>
<g id="a_node16"><a xlink:href="../../df/d50/mainwindow_8hpp.html" target="_top" xlink:title="window/mainwindow.hpp">
<polygon fill="none" stroke="black" points="451,-62 451,-81 576,-81 576,-62 451,-62"/>
<text text-anchor="middle" x="513.5" y="-69" font-family="Helvetica,sans-Serif" font-size="10.00">window/mainwindow.hpp</text>
</a>
</g>
</g>
<!-- Node8&#45;&gt;Node16 -->
<g id="edge15" class="edge"><title>Node8&#45;&gt;Node16</title>
<path fill="none" stroke="midnightblue" d="M616.598,-119.327C591.167,-107.776 554.301,-91.0316 532.234,-81.0091"/>
<polygon fill="midnightblue" stroke="midnightblue" points="615.179,-122.526 625.731,-123.475 618.073,-116.153 615.179,-122.526"/>
</g>
<!-- Node17 -->
<g id="node17" class="node"><title>Node17</title>
<g id="a_node17"><a xlink:href="../../df/d0a/main_8cpp.html" target="_top" xlink:title="TODO. ">
<polygon fill="none" stroke="black" points="431.5,-0.5 431.5,-19.5 487.5,-19.5 487.5,-0.5 431.5,-0.5"/>
<text text-anchor="middle" x="459.5" y="-7.5" font-family="Helvetica,sans-Serif" font-size="10.00">main.cpp</text>
</a>
</g>
</g>
<!-- Node16&#45;&gt;Node17 -->
<g id="edge16" class="edge"><title>Node16&#45;&gt;Node17</title>
<path fill="none" stroke="midnightblue" d="M498.977,-54.4975C488.756,-43.2356 475.477,-28.6044 467.223,-19.5091"/>
<polygon fill="midnightblue" stroke="midnightblue" points="496.451,-56.9222 505.763,-61.9751 501.634,-52.2178 496.451,-56.9222"/>
</g>
<!-- Node18 -->
<g id="node18" class="node"><title>Node18</title>
<g id="a_node18"><a xlink:href="../../d8/dd9/mainwindow_8cpp.html" target="_top" xlink:title="window/mainwindow.cpp">
<polygon fill="none" stroke="black" points="505,-0.5 505,-19.5 630,-19.5 630,-0.5 505,-0.5"/>
<text text-anchor="middle" x="567.5" y="-7.5" font-family="Helvetica,sans-Serif" font-size="10.00">window/mainwindow.cpp</text>
</a>
</g>
</g>
<!-- Node16&#45;&gt;Node18 -->
<g id="edge17" class="edge"><title>Node16&#45;&gt;Node18</title>
<path fill="none" stroke="midnightblue" d="M528.023,-54.4975C538.244,-43.2356 551.523,-28.6044 559.777,-19.5091"/>
<polygon fill="midnightblue" stroke="midnightblue" points="525.366,-52.2178 521.237,-61.9751 530.549,-56.9222 525.366,-52.2178"/>
</g>
<!-- Node23&#45;&gt;Node4 -->
<g id="edge26" class="edge"><title>Node23&#45;&gt;Node4</title>
<path fill="none" stroke="midnightblue" d="M712.497,-310.671C756.275,-297.967 814.526,-281.064 849.109,-271.029"/>
<polygon fill="midnightblue" stroke="midnightblue" points="711.457,-307.328 702.829,-313.476 713.408,-314.05 711.457,-307.328"/>
</g>
<!-- Node24 -->
<g id="node24" class="node"><title>Node24</title>
<g id="a_node24"><a xlink:href="../../d2/d3b/MaterialLibrary_8cpp.html" target="_top" xlink:title="engine/MaterialLibrary\l/MaterialLibrary.cpp">
<polygon fill="none" stroke="black" points="1024.5,-246.5 1024.5,-276.5 1136.5,-276.5 1136.5,-246.5 1024.5,-246.5"/>
<text text-anchor="start" x="1032.5" y="-264.5" font-family="Helvetica,sans-Serif" font-size="10.00">engine/MaterialLibrary</text>
<text text-anchor="middle" x="1080.5" y="-253.5" font-family="Helvetica,sans-Serif" font-size="10.00">/MaterialLibrary.cpp</text>
</a>
</g>
</g>
<!-- Node23&#45;&gt;Node24 -->
<g id="edge24" class="edge"><title>Node23&#45;&gt;Node24</title>
<path fill="none" stroke="midnightblue" d="M720.688,-312.868C833.873,-292.658 955.132,-277.182 1024.31,-268.938"/>
<polygon fill="midnightblue" stroke="midnightblue" points="720.035,-309.429 710.814,-314.647 721.276,-316.318 720.035,-309.429"/>
</g>
<!-- Node25 -->
<g id="node25" class="node"><title>Node25</title>
<g id="a_node25"><a xlink:href="../../d6/d92/MeshLibrary_8cpp.html" target="_top" xlink:title="engine/MeshLibrary\l/MeshLibrary.cpp">
<polygon fill="none" stroke="black" points="542,-246.5 542,-276.5 643,-276.5 643,-246.5 542,-246.5"/>
<text text-anchor="start" x="550" y="-264.5" font-family="Helvetica,sans-Serif" font-size="10.00">engine/MeshLibrary</text>
<text text-anchor="middle" x="592.5" y="-253.5" font-family="Helvetica,sans-Serif" font-size="10.00">/MeshLibrary.cpp</text>
</a>
</g>
</g>
<!-- Node23&#45;&gt;Node25 -->
<g id="edge25" class="edge"><title>Node23&#45;&gt;Node25</title>
<path fill="none" stroke="midnightblue" d="M634.015,-306.024C624.778,-296.34 614.127,-285.174 605.927,-276.577"/>
<polygon fill="midnightblue" stroke="midnightblue" points="631.612,-308.576 641.047,-313.396 636.677,-303.744 631.612,-308.576"/>
</g>
<!-- Node26&#45;&gt;Node4 -->
<g id="edge29" class="edge"><title>Node26&#45;&gt;Node4</title>
<path fill="none" stroke="midnightblue" d="M590.009,-312.973C677.459,-294.985 767.535,-279.957 823.704,-271.001"/>
<polygon fill="midnightblue" stroke="midnightblue" points="589.269,-309.552 580.187,-315.009 590.69,-316.407 589.269,-309.552"/>
</g>
<!-- Node26&#45;&gt;Node25 -->
<g id="edge28" class="edge"><title>Node26&#45;&gt;Node25</title>
<path fill="none" stroke="midnightblue" d="M550.315,-306.024C559.701,-296.34 570.524,-285.174 578.857,-276.577"/>
<polygon fill="midnightblue" stroke="midnightblue" points="547.617,-303.779 543.17,-313.396 552.643,-308.651 547.617,-303.779"/>
</g>
<!-- Node28 -->
<g id="node28" class="node"><title>Node28</title>
<g id="a_node28"><a xlink:href="../../d8/df3/ShaderLibrary_8cpp.html" target="_top" xlink:title="engine/ShaderLibrary\l/ShaderLibrary.cpp">
<polygon fill="none" stroke="black" points="1236.5,-313.5 1236.5,-343.5 1344.5,-343.5 1344.5,-313.5 1236.5,-313.5"/>
<text text-anchor="start" x="1244.5" y="-331.5" font-family="Helvetica,sans-Serif" font-size="10.00">engine/ShaderLibrary</text>
<text text-anchor="middle" x="1290.5" y="-320.5" font-family="Helvetica,sans-Serif" font-size="10.00">/ShaderLibrary.cpp</text>
</a>
</g>
</g>
<!-- Node27&#45;&gt;Node28 -->
<g id="edge31" class="edge"><title>Node27&#45;&gt;Node28</title>
<path fill="none" stroke="midnightblue" d="M1228.26,-374.451C1242.11,-364.452 1258.52,-352.6 1271.01,-343.577"/>
<polygon fill="midnightblue" stroke="midnightblue" points="1226.09,-371.704 1220.03,-380.396 1230.18,-377.378 1226.09,-371.704"/>
</g>
<!-- Node29 -->
<g id="node29" class="node"><title>Node29</title>
<g id="a_node29"><a xlink:href="../../d8/d9e/ShaderProgramLibrary_8cpp.html" target="_top" xlink:title="engine/ShaderProgramLibrary\l/ShaderProgramLibrary.cpp">
<polygon fill="none" stroke="black" points="1227,-246.5 1227,-276.5 1372,-276.5 1372,-246.5 1227,-246.5"/>
<text text-anchor="start" x="1235" y="-264.5" font-family="Helvetica,sans-Serif" font-size="10.00">engine/ShaderProgramLibrary</text>
<text text-anchor="middle" x="1299.5" y="-253.5" font-family="Helvetica,sans-Serif" font-size="10.00">/ShaderProgramLibrary.cpp</text>
</a>
</g>
</g>
<!-- Node27&#45;&gt;Node29 -->
<g id="edge32" class="edge"><title>Node27&#45;&gt;Node29</title>
<path fill="none" stroke="midnightblue" d="M1265.02,-390.372C1297.13,-384.664 1333.31,-371.92 1353.5,-344 1370.21,-320.892 1341.73,-293.014 1320.18,-276.579"/>
<polygon fill="midnightblue" stroke="midnightblue" points="1264.1,-386.974 1254.77,-391.988 1265.19,-393.889 1264.1,-386.974"/>
</g>
<!-- Node27&#45;&gt;Node30 -->
<g id="edge33" class="edge"><title>Node27&#45;&gt;Node30</title>
<path fill="none" stroke="midnightblue" d="M1182.08,-372.736C1173.95,-363.119 1164.61,-352.089 1157.41,-343.577"/>
<polygon fill="midnightblue" stroke="midnightblue" points="1179.43,-375.023 1188.57,-380.396 1184.78,-370.501 1179.43,-375.023"/>
</g>
<!-- Node30&#45;&gt;Node4 -->
<g id="edge35" class="edge"><title>Node30&#45;&gt;Node4</title>
<path fill="none" stroke="midnightblue" d="M1078.01,-311.069C1025.65,-298.323 955.188,-281.169 913.533,-271.029"/>
<polygon fill="midnightblue" stroke="midnightblue" points="1077.35,-314.511 1087.89,-313.476 1079.01,-307.71 1077.35,-314.511"/>
</g>
<!-- Node30&#45;&gt;Node24 -->
<g id="edge34" class="edge"><title>Node30&#45;&gt;Node24</title>
<path fill="none" stroke="midnightblue" d="M1124.31,-306.311C1114.56,-296.561 1103.26,-285.259 1094.58,-276.577"/>
<polygon fill="midnightblue" stroke="midnightblue" points="1121.85,-308.8 1131.4,-313.396 1126.8,-303.85 1121.85,-308.8"/>
</g>
<!-- Node30&#45;&gt;Node29 -->
<g id="edge36" class="edge"><title>Node30&#45;&gt;Node29</title>
<path fill="none" stroke="midnightblue" d="M1188.37,-309.407C1212.95,-299.029 1243.36,-286.195 1266.15,-276.577"/>
<polygon fill="midnightblue" stroke="midnightblue" points="1186.77,-306.283 1178.92,-313.396 1189.49,-312.732 1186.77,-306.283"/>
</g>
<!-- Node31&#45;&gt;Node4 -->
<g id="edge39" class="edge"><title>Node31&#45;&gt;Node4</title>
<path fill="none" stroke="midnightblue" d="M947.273,-371.875C928.564,-342.12 896.583,-291.259 883.906,-271.097"/>
<polygon fill="midnightblue" stroke="midnightblue" points="944.332,-373.771 952.618,-380.374 950.257,-370.045 944.332,-373.771"/>
</g>
<!-- Node32 -->
<g id="node32" class="node"><title>Node32</title>
<g id="a_node32"><a xlink:href="../../d3/da5/TextureLibrary_8cpp.html" target="_top" xlink:title="engine/TextureLibrary\l/TextureLibrary.cpp">
<polygon fill="none" stroke="black" points="944.5,-313.5 944.5,-343.5 1054.5,-343.5 1054.5,-313.5 944.5,-313.5"/>
<text text-anchor="start" x="952.5" y="-331.5" font-family="Helvetica,sans-Serif" font-size="10.00">engine/TextureLibrary</text>
<text text-anchor="middle" x="999.5" y="-320.5" font-family="Helvetica,sans-Serif" font-size="10.00">/TextureLibrary.cpp</text>
</a>
</g>
</g>
<!-- Node31&#45;&gt;Node32 -->
<g id="edge40" class="edge"><title>Node31&#45;&gt;Node32</title>
<path fill="none" stroke="midnightblue" d="M974.902,-371.576C980.359,-362.241 986.493,-351.748 991.271,-343.577"/>
<polygon fill="midnightblue" stroke="midnightblue" points="971.771,-369.997 969.745,-380.396 977.814,-373.529 971.771,-369.997"/>
</g>
</g>
</svg>
        <g id="navigator" transform="translate(0 0)" fill="#404254">
                <rect fill="#f2f5e9" fill-opacity="0.5" stroke="#606060" stroke-width=".5" x="0" y="0" width="60" height="60"/>
                <use id="zoomplus" xlink:href="#zoomPlus" x="17" y="9" onmousedown="handleZoom(evt,'in')"/>
                <use id="zoomminus" xlink:href="#zoomMin" x="42" y="9" onmousedown="handleZoom(evt,'out')"/>
                <use id="reset" xlink:href="#resetDef" x="30" y="36" onmousedown="handleReset()"/>
                <g id="arrowUp" xlink:href="#dirArrow" transform="translate(30 24)" onmousedown="handlePan(0,-1)">
                  <use xlink:href="#rim" fill="#404040">
                        <set attributeName="fill" to="#808080" begin="arrowUp.mouseover" end="arrowUp.mouseout"/>
                  </use>
                  <path fill="none" stroke="white" stroke-width="1.5" d="M0,-3.0v7 M-2.5,-0.5L0,-3.0L2.5,-0.5"/>
                </g>
                <g id="arrowRight" xlink:href="#dirArrow" transform="rotate(90) translate(36 -43)" onmousedown="handlePan(1,0)">
                  <use xlink:href="#rim" fill="#404040">
                        <set attributeName="fill" to="#808080" begin="arrowRight.mouseover" end="arrowRight.mouseout"/>
                  </use>
                  <path fill="none" stroke="white" stroke-width="1.5" d="M0,-3.0v7 M-2.5,-0.5L0,-3.0L2.5,-0.5"/>
                </g>
                <g id="arrowDown" xlink:href="#dirArrow" transform="rotate(180) translate(-30 -48)" onmousedown="handlePan(0,1)">
                  <use xlink:href="#rim" fill="#404040">
                        <set attributeName="fill" to="#808080" begin="arrowDown.mouseover" end="arrowDown.mouseout"/>
                  </use>
                  <path fill="none" stroke="white" stroke-width="1.5" d="M0,-3.0v7 M-2.5,-0.5L0,-3.0L2.5,-0.5"/>
                </g>
                <g id="arrowLeft" xlink:href="#dirArrow" transform="rotate(270) translate(-36 17)" onmousedown="handlePan(-1,0)">
                  <use xlink:href="#rim" fill="#404040">
                        <set attributeName="fill" to="#808080" begin="arrowLeft.mouseover" end="arrowLeft.mouseout"/>
                  </use>
                  <path fill="none" stroke="white" stroke-width="1.5" d="M0,-3.0v7 M-2.5,-0.5L0,-3.0L2.5,-0.5"/>
                </g>
        </g>
        <svg viewBox="0 0 15 15" width="100%" height="30px" preserveAspectRatio="xMaxYMin meet">
         <g id="arrow_out" transform="scale(0.3 0.3)">
          <a xlink:href="Library_8hpp__dep__incl_org.svg" target="_base">
           <rect id="button" ry="5" rx="5" y="6" x="6" height="38" width="38"
                fill="#f2f5e9" fill-opacity="0.5" stroke="#606060" stroke-width="1.0"/>
           <path id="arrow"
             d="M 11.500037,31.436501 C 11.940474,20.09759 22.043105,11.32322 32.158766,21.979434 L 37.068811,17.246167 C 37.068811,17.246167 37.088388,32 37.088388,32 L 22.160133,31.978069 C 22.160133,31.978069 26.997745,27.140456 26.997745,27.140456 C 18.528582,18.264221 13.291696,25.230495 11.500037,31.436501 z"
             style="fill:#404040;"/>
          </a>
         </g>
        </svg>
</svg>
