<?xml version="1.0" encoding="UTF-8" standalone="no"?>
<!DOCTYPE svg PUBLIC "-//W3C//DTD SVG 1.1//EN"
 "http://www.w3.org/Graphics/SVG/1.1/DTD/svg11.dtd">
<!-- Generated by graphviz version 2.38.0 (20140413.2041)
 -->
<!-- Title: model/model.hpp Pages: 1 -->
<svg width="1225pt" height="207pt"
 viewBox="0.00 0.00 1225.00 207.00" xmlns="http://www.w3.org/2000/svg" xmlns:xlink="http://www.w3.org/1999/xlink">
<g id="graph0" class="graph" transform="scale(1 1) rotate(0) translate(4 203)">
<title>model/model.hpp</title>
<!-- Node1 -->
<g id="node1" class="node"><title>Node1</title>
<polygon fill="#bfbfbf" stroke="black" points="725.5,-179.5 725.5,-198.5 816.5,-198.5 816.5,-179.5 725.5,-179.5"/>
<text text-anchor="middle" x="771" y="-186.5" font-family="Helvetica,sans-Serif" font-size="10.00">model/model.hpp</text>
</g>
<!-- Node2 -->
<g id="node2" class="node"><title>Node2</title>
<g id="a_node2"><a xlink:href="../../d6/db4/model_8cpp.html" target="_top" xlink:title="model/model.cpp">
<polygon fill="none" stroke="black" points="503.5,-123.5 503.5,-142.5 594.5,-142.5 594.5,-123.5 503.5,-123.5"/>
<text text-anchor="middle" x="549" y="-130.5" font-family="Helvetica,sans-Serif" font-size="10.00">model/model.cpp</text>
</a>
</g>
</g>
<!-- Node1&#45;&gt;Node2 -->
<g id="edge1" class="edge"><title>Node1&#45;&gt;Node2</title>
<path fill="none" stroke="midnightblue" d="M725.875,-177.024C683.94,-166.823 622.348,-151.841 584.012,-142.516"/>
<polygon fill="midnightblue" stroke="midnightblue" points="725.28,-180.481 735.823,-179.444 726.934,-173.679 725.28,-180.481"/>
</g>
<!-- Node3 -->
<g id="node3" class="node"><title>Node3</title>
<g id="a_node3"><a xlink:href="../../d0/d5e/glwindow_8hpp.html" target="_top" xlink:title="window/glwindow.hpp">
<polygon fill="none" stroke="black" points="613,-123.5 613,-142.5 725,-142.5 725,-123.5 613,-123.5"/>
<text text-anchor="middle" x="669" y="-130.5" font-family="Helvetica,sans-Serif" font-size="10.00">window/glwindow.hpp</text>
</a>
</g>
</g>
<!-- Node1&#45;&gt;Node3 -->
<g id="edge2" class="edge"><title>Node1&#45;&gt;Node3</title>
<path fill="none" stroke="midnightblue" d="M745.669,-174.59C726.81,-164.605 701.616,-151.267 685.347,-142.655"/>
<polygon fill="midnightblue" stroke="midnightblue" points="744.136,-177.738 754.612,-179.324 747.412,-171.552 744.136,-177.738"/>
</g>
<!-- Node11 -->
<g id="node11" class="node"><title>Node11</title>
<g id="a_node11"><a xlink:href="../../df/d50/mainwindow_8hpp.html" target="_top" xlink:title="window/mainwindow.hpp">
<polygon fill="none" stroke="black" points="957.5,-62 957.5,-81 1082.5,-81 1082.5,-62 957.5,-62"/>
<text text-anchor="middle" x="1020" y="-69" font-family="Helvetica,sans-Serif" font-size="10.00">window/mainwindow.hpp</text>
</a>
</g>
</g>
<!-- Node1&#45;&gt;Node11 -->
<g id="edge16" class="edge"><title>Node1&#45;&gt;Node11</title>
<path fill="none" stroke="midnightblue" d="M798.889,-175.064C850.153,-151.285 958.071,-101.226 1001.41,-81.1245"/>
<polygon fill="midnightblue" stroke="midnightblue" points="797.314,-171.936 789.715,-179.319 800.26,-178.286 797.314,-171.936"/>
</g>
<!-- Node14 -->
<g id="node14" class="node"><title>Node14</title>
<g id="a_node14"><a xlink:href="../../dd/da8/toolwidget_8hpp.html" target="_top" xlink:title="window/toolwidget.hpp">
<polygon fill="none" stroke="black" points="962,-123.5 962,-142.5 1078,-142.5 1078,-123.5 962,-123.5"/>
<text text-anchor="middle" x="1020" y="-130.5" font-family="Helvetica,sans-Serif" font-size="10.00">window/toolwidget.hpp</text>
</a>
</g>
</g>
<!-- Node1&#45;&gt;Node14 -->
<g id="edge13" class="edge"><title>Node1&#45;&gt;Node14</title>
<path fill="none" stroke="midnightblue" d="M820.424,-177.281C867.479,-167.077 937.367,-151.92 980.73,-142.516"/>
<polygon fill="midnightblue" stroke="midnightblue" points="819.486,-173.904 810.455,-179.444 820.969,-180.745 819.486,-173.904"/>
</g>
<!-- Node4 -->
<g id="node4" class="node"><title>Node4</title>
<g id="a_node4"><a xlink:href="../../d8/d49/ArrayObject_8cpp.html" target="_top" xlink:title="engine/ArrayObject\l/ArrayObject.cpp">
<polygon fill="none" stroke="black" points="0,-56.5 0,-86.5 100,-86.5 100,-56.5 0,-56.5"/>
<text text-anchor="start" x="8" y="-74.5" font-family="Helvetica,sans-Serif" font-size="10.00">engine/ArrayObject</text>
<text text-anchor="middle" x="50" y="-63.5" font-family="Helvetica,sans-Serif" font-size="10.00">/ArrayObject.cpp</text>
</a>
</g>
</g>
<!-- Node3&#45;&gt;Node4 -->
<g id="edge3" class="edge"><title>Node3&#45;&gt;Node4</title>
<path fill="none" stroke="midnightblue" d="M602.586,-123.042C382.274,-100.748 323.144,-120.87 109,-87 106.083,-86.5386 103.098,-86.0047 100.095,-85.4196"/>
<polygon fill="midnightblue" stroke="midnightblue" points="602.553,-126.557 612.86,-124.1 603.271,-119.594 602.553,-126.557"/>
</g>
<!-- Node5 -->
<g id="node5" class="node"><title>Node5</title>
<g id="a_node5"><a xlink:href="../../db/d2b/BufferObject_8cpp.html" target="_top" xlink:title="engine/BufferObject\l/BufferObject.cpp">
<polygon fill="none" stroke="black" points="118.5,-56.5 118.5,-86.5 221.5,-86.5 221.5,-56.5 118.5,-56.5"/>
<text text-anchor="start" x="126.5" y="-74.5" font-family="Helvetica,sans-Serif" font-size="10.00">engine/BufferObject</text>
<text text-anchor="middle" x="170" y="-63.5" font-family="Helvetica,sans-Serif" font-size="10.00">/BufferObject.cpp</text>
</a>
</g>
</g>
<!-- Node3&#45;&gt;Node5 -->
<g id="edge4" class="edge"><title>Node3&#45;&gt;Node5</title>
<path fill="none" stroke="midnightblue" d="M602.754,-123.03C436.279,-104.17 391.652,-113.738 231,-87 227.993,-86.4996 224.915,-85.9352 221.816,-85.3268"/>
<polygon fill="midnightblue" stroke="midnightblue" points="602.515,-126.525 612.849,-124.191 603.315,-119.571 602.515,-126.525"/>
</g>
<!-- Node6 -->
<g id="node6" class="node"><title>Node6</title>
<g id="a_node6"><a xlink:href="../../d2/dcc/Mesh_8cpp.html" target="_top" xlink:title="engine/Mesh/Mesh.cpp">
<polygon fill="none" stroke="black" points="240,-62 240,-81 358,-81 358,-62 240,-62"/>
<text text-anchor="middle" x="299" y="-69" font-family="Helvetica,sans-Serif" font-size="10.00">engine/Mesh/Mesh.cpp</text>
</a>
</g>
</g>
<!-- Node3&#45;&gt;Node6 -->
<g id="edge5" class="edge"><title>Node3&#45;&gt;Node6</title>
<path fill="none" stroke="midnightblue" d="M602.454,-122.577C527.645,-111.897 410.903,-94.9438 367,-87 357.26,-85.2376 346.783,-83.1166 337.04,-81.0474"/>
<polygon fill="midnightblue" stroke="midnightblue" points="602.325,-126.094 612.719,-124.041 603.313,-119.164 602.325,-126.094"/>
</g>
<!-- Node7 -->
<g id="node7" class="node"><title>Node7</title>
<g id="a_node7"><a xlink:href="../../d3/d28/Renderer_8cpp.html" target="_top" xlink:title="engine/Renderer/Renderer.cpp">
<polygon fill="none" stroke="black" points="376.5,-62 376.5,-81 525.5,-81 525.5,-62 376.5,-62"/>
<text text-anchor="middle" x="451" y="-69" font-family="Helvetica,sans-Serif" font-size="10.00">engine/Renderer/Renderer.cpp</text>
</a>
</g>
</g>
<!-- Node3&#45;&gt;Node7 -->
<g id="edge6" class="edge"><title>Node3&#45;&gt;Node7</title>
<path fill="none" stroke="midnightblue" d="M628.047,-120.822C585.7,-109.264 520.515,-91.4732 482.176,-81.0091"/>
<polygon fill="midnightblue" stroke="midnightblue" points="627.197,-124.218 637.766,-123.475 629.04,-117.465 627.197,-124.218"/>
</g>
<!-- Node8 -->
<g id="node8" class="node"><title>Node8</title>
<g id="a_node8"><a xlink:href="../../dd/d84/Shader_8cpp.html" target="_top" xlink:title="engine/Shader/Shader.cpp">
<polygon fill="none" stroke="black" points="543.5,-62 543.5,-81 674.5,-81 674.5,-62 543.5,-62"/>
<text text-anchor="middle" x="609" y="-69" font-family="Helvetica,sans-Serif" font-size="10.00">engine/Shader/Shader.cpp</text>
</a>
</g>
</g>
<!-- Node3&#45;&gt;Node8 -->
<g id="edge7" class="edge"><title>Node3&#45;&gt;Node8</title>
<path fill="none" stroke="midnightblue" d="M653.193,-116.325C641.793,-105.02 626.841,-90.1928 617.581,-81.0091"/>
<polygon fill="midnightblue" stroke="midnightblue" points="650.838,-118.919 660.403,-123.475 655.767,-113.948 650.838,-118.919"/>
</g>
<!-- Node9 -->
<g id="node9" class="node"><title>Node9</title>
<g id="a_node9"><a xlink:href="../../de/d34/ShaderProgram_8cpp.html" target="_top" xlink:title="engine/ShaderProgram\l/ShaderProgram.cpp">
<polygon fill="none" stroke="black" points="693,-56.5 693,-86.5 809,-86.5 809,-56.5 693,-56.5"/>
<text text-anchor="start" x="701" y="-74.5" font-family="Helvetica,sans-Serif" font-size="10.00">engine/ShaderProgram</text>
<text text-anchor="middle" x="751" y="-63.5" font-family="Helvetica,sans-Serif" font-size="10.00">/ShaderProgram.cpp</text>
</a>
</g>
</g>
<!-- Node3&#45;&gt;Node9 -->
<g id="edge8" class="edge"><title>Node3&#45;&gt;Node9</title>
<path fill="none" stroke="midnightblue" d="M689.027,-117.468C702.01,-108.047 718.833,-95.8408 731.674,-86.523"/>
<polygon fill="midnightblue" stroke="midnightblue" points="686.787,-114.769 680.749,-123.475 690.898,-120.435 686.787,-114.769"/>
</g>
<!-- Node10 -->
<g id="node10" class="node"><title>Node10</title>
<g id="a_node10"><a xlink:href="../../d3/d1f/glwindow_8cpp.html" target="_top" xlink:title="window/glwindow.cpp">
<polygon fill="none" stroke="black" points="827,-62 827,-81 939,-81 939,-62 827,-62"/>
<text text-anchor="middle" x="883" y="-69" font-family="Helvetica,sans-Serif" font-size="10.00">window/glwindow.cpp</text>
</a>
</g>
</g>
<!-- Node3&#45;&gt;Node10 -->
<g id="edge9" class="edge"><title>Node3&#45;&gt;Node10</title>
<path fill="none" stroke="midnightblue" d="M709.465,-120.749C751.041,-109.189 814.84,-91.4511 852.396,-81.0091"/>
<polygon fill="midnightblue" stroke="midnightblue" points="708.358,-117.424 699.661,-123.475 710.233,-124.168 708.358,-117.424"/>
</g>
<!-- Node3&#45;&gt;Node11 -->
<g id="edge10" class="edge"><title>Node3&#45;&gt;Node11</title>
<path fill="none" stroke="midnightblue" d="M735.117,-122.076C791.726,-113.402 875.36,-100.167 948,-87 958.037,-85.1806 968.832,-83.0823 978.932,-81.0571"/>
<polygon fill="midnightblue" stroke="midnightblue" points="734.577,-118.618 725.22,-123.588 735.634,-125.537 734.577,-118.618"/>
</g>
<!-- Node12 -->
<g id="node12" class="node"><title>Node12</title>
<g id="a_node12"><a xlink:href="../../df/d0a/main_8cpp.html" target="_top" xlink:title="TODO. ">
<polygon fill="none" stroke="black" points="938,-0.5 938,-19.5 994,-19.5 994,-0.5 938,-0.5"/>
<text text-anchor="middle" x="966" y="-7.5" font-family="Helvetica,sans-Serif" font-size="10.00">main.cpp</text>
</a>
</g>
</g>
<!-- Node11&#45;&gt;Node12 -->
<g id="edge11" class="edge"><title>Node11&#45;&gt;Node12</title>
<path fill="none" stroke="midnightblue" d="M1005.48,-54.4975C995.256,-43.2356 981.977,-28.6044 973.723,-19.5091"/>
<polygon fill="midnightblue" stroke="midnightblue" points="1002.95,-56.9222 1012.26,-61.9751 1008.13,-52.2178 1002.95,-56.9222"/>
</g>
<!-- Node13 -->
<g id="node13" class="node"><title>Node13</title>
<g id="a_node13"><a xlink:href="../../d8/dd9/mainwindow_8cpp.html" target="_top" xlink:title="window/mainwindow.cpp">
<polygon fill="none" stroke="black" points="1011.5,-0.5 1011.5,-19.5 1136.5,-19.5 1136.5,-0.5 1011.5,-0.5"/>
<text text-anchor="middle" x="1074" y="-7.5" font-family="Helvetica,sans-Serif" font-size="10.00">window/mainwindow.cpp</text>
</a>
</g>
</g>
<!-- Node11&#45;&gt;Node13 -->
<g id="edge12" class="edge"><title>Node11&#45;&gt;Node13</title>
<path fill="none" stroke="midnightblue" d="M1034.52,-54.4975C1044.74,-43.2356 1058.02,-28.6044 1066.28,-19.5091"/>
<polygon fill="midnightblue" stroke="midnightblue" points="1031.87,-52.2178 1027.74,-61.9751 1037.05,-56.9222 1031.87,-52.2178"/>
</g>
<!-- Node14&#45;&gt;Node11 -->
<g id="edge14" class="edge"><title>Node14&#45;&gt;Node11</title>
<path fill="none" stroke="midnightblue" d="M1020,-113.317C1020,-102.496 1020,-89.398 1020,-81.0091"/>
<polygon fill="midnightblue" stroke="midnightblue" points="1016.5,-113.475 1020,-123.475 1023.5,-113.475 1016.5,-113.475"/>
</g>
<!-- Node15 -->
<g id="node15" class="node"><title>Node15</title>
<g id="a_node15"><a xlink:href="../../df/d91/toolwidget_8cpp.html" target="_top" xlink:title="window/toolwidget.cpp">
<polygon fill="none" stroke="black" points="1101,-62 1101,-81 1217,-81 1217,-62 1101,-62"/>
<text text-anchor="middle" x="1159" y="-69" font-family="Helvetica,sans-Serif" font-size="10.00">window/toolwidget.cpp</text>
</a>
</g>
</g>
<!-- Node14&#45;&gt;Node15 -->
<g id="edge15" class="edge"><title>Node14&#45;&gt;Node15</title>
<path fill="none" stroke="midnightblue" d="M1049.25,-119.48C1076.25,-107.924 1115.6,-91.0758 1139.12,-81.0091"/>
<polygon fill="midnightblue" stroke="midnightblue" points="1047.73,-116.322 1039.92,-123.475 1050.49,-122.757 1047.73,-116.322"/>
</g>
</g>
</svg>
