<?xml version="1.0" encoding="UTF-8" standalone="no"?>
<!DOCTYPE svg PUBLIC "-//W3C//DTD SVG 1.1//EN"
 "http://www.w3.org/Graphics/SVG/1.1/DTD/svg11.dtd">
<!-- Generated by graphviz version 2.38.0 (20140413.2041)
 -->
<!-- Title: window/toolwidget.hpp Pages: 1 -->
<svg width="287pt" height="140pt"
 viewBox="0.00 0.00 287.00 140.00" xmlns="http://www.w3.org/2000/svg" xmlns:xlink="http://www.w3.org/1999/xlink">
<g id="graph0" class="graph" transform="scale(1 1) rotate(0) translate(4 136)">
<title>window/toolwidget.hpp</title>
<!-- Node1 -->
<g id="node1" class="node"><title>Node1</title>
<polygon fill="#bfbfbf" stroke="black" points="93,-112.5 93,-131.5 209,-131.5 209,-112.5 93,-112.5"/>
<text text-anchor="middle" x="151" y="-119.5" font-family="Helvetica,sans-Serif" font-size="10.00">window/toolwidget.hpp</text>
</g>
<!-- Node2 -->
<g id="node2" class="node"><title>Node2</title>
<g id="a_node2"><a xlink:href="../../df/d50/mainwindow_8hpp.html" target="_top" xlink:title="window/mainwindow.hpp">
<polygon fill="none" stroke="black" points="19.5,-56.5 19.5,-75.5 144.5,-75.5 144.5,-56.5 19.5,-56.5"/>
<text text-anchor="middle" x="82" y="-63.5" font-family="Helvetica,sans-Serif" font-size="10.00">window/mainwindow.hpp</text>
</a>
</g>
</g>
<!-- Node1&#45;&gt;Node2 -->
<g id="edge1" class="edge"><title>Node1&#45;&gt;Node2</title>
<path fill="none" stroke="midnightblue" d="M131.962,-106.101C119.544,-96.3824 103.757,-84.0269 93.2878,-75.8339"/>
<polygon fill="midnightblue" stroke="midnightblue" points="129.882,-108.917 139.914,-112.324 134.196,-103.405 129.882,-108.917"/>
</g>
<!-- Node5 -->
<g id="node5" class="node"><title>Node5</title>
<g id="a_node5"><a xlink:href="../../df/d91/toolwidget_8cpp.html" target="_top" xlink:title="window/toolwidget.cpp">
<polygon fill="none" stroke="black" points="163,-56.5 163,-75.5 279,-75.5 279,-56.5 163,-56.5"/>
<text text-anchor="middle" x="221" y="-63.5" font-family="Helvetica,sans-Serif" font-size="10.00">window/toolwidget.cpp</text>
</a>
</g>
</g>
<!-- Node1&#45;&gt;Node5 -->
<g id="edge4" class="edge"><title>Node1&#45;&gt;Node5</title>
<path fill="none" stroke="midnightblue" d="M170.314,-106.101C182.912,-96.3824 198.928,-84.0269 209.549,-75.8339"/>
<polygon fill="midnightblue" stroke="midnightblue" points="168.027,-103.445 162.247,-112.324 172.302,-108.987 168.027,-103.445"/>
</g>
<!-- Node3 -->
<g id="node3" class="node"><title>Node3</title>
<g id="a_node3"><a xlink:href="../../df/d0a/main_8cpp.html" target="_top" xlink:title="TODO. ">
<polygon fill="none" stroke="black" points="0,-0.5 0,-19.5 56,-19.5 56,-0.5 0,-0.5"/>
<text text-anchor="middle" x="28" y="-7.5" font-family="Helvetica,sans-Serif" font-size="10.00">main.cpp</text>
</a>
</g>
</g>
<!-- Node2&#45;&gt;Node3 -->
<g id="edge2" class="edge"><title>Node2&#45;&gt;Node3</title>
<path fill="none" stroke="midnightblue" d="M66.0024,-49.0024C56.4329,-39.4329 44.6389,-27.6389 36.7511,-19.7511"/>
<polygon fill="midnightblue" stroke="midnightblue" points="63.537,-51.4868 73.083,-56.083 68.4868,-46.537 63.537,-51.4868"/>
</g>
<!-- Node4 -->
<g id="node4" class="node"><title>Node4</title>
<g id="a_node4"><a xlink:href="../../d8/dd9/mainwindow_8cpp.html" target="_top" xlink:title="window/mainwindow.cpp">
<polygon fill="none" stroke="black" points="73.5,-0.5 73.5,-19.5 198.5,-19.5 198.5,-0.5 73.5,-0.5"/>
<text text-anchor="middle" x="136" y="-7.5" font-family="Helvetica,sans-Serif" font-size="10.00">window/mainwindow.cpp</text>
</a>
</g>
</g>
<!-- Node2&#45;&gt;Node4 -->
<g id="edge3" class="edge"><title>Node2&#45;&gt;Node4</title>
<path fill="none" stroke="midnightblue" d="M97.9976,-49.0024C107.567,-39.4329 119.361,-27.6389 127.249,-19.7511"/>
<polygon fill="midnightblue" stroke="midnightblue" points="95.5132,-46.537 90.917,-56.083 100.463,-51.4868 95.5132,-46.537"/>
</g>
</g>
</svg>
