<?xml version="1.0" encoding="UTF-8" standalone="no"?>
<!DOCTYPE svg PUBLIC "-//W3C//DTD SVG 1.1//EN"
 "http://www.w3.org/Graphics/SVG/1.1/DTD/svg11.dtd">
<!-- Generated by graphviz version 2.38.0 (20140413.2041)
 -->
<!-- Title: model/model.h Pages: 1 -->
<!--zoomable 207 -->
<svg id="main" version="1.1" xmlns="http://www.w3.org/2000/svg" xmlns:xlink="http://www.w3.org/1999/xlink" xml:space="preserve" onload="init(evt)">
<style type="text/css"><![CDATA[
.edge:hover path { stroke: red; }
.edge:hover polygon { stroke: red; fill: red; }
]]></style>
<script type="text/javascript"><![CDATA[
var edges = document.getElementsByTagName('g');
if (edges && edges.length) {
  for (var i=0;i<edges.length;i++) {
    if (edges[i].id.substr(0,4)=='edge') {
      edges[i].setAttribute('class','edge');
    }
  }
}
]]></script>
        <defs>
                <circle id="rim" cx="0" cy="0" r="7"/>
                <circle id="rim2" cx="0" cy="0" r="3.5"/>
                <g id="zoomPlus">
                        <use xlink:href="#rim" fill="#404040">
                                <set attributeName="fill" to="#808080" begin="zoomplus.mouseover" end="zoomplus.mouseout"/>
                        </use>
                        <path d="M-4,0h8M0,-4v8" fill="none" stroke="white" stroke-width="1.5" pointer-events="none"/>
                </g>
                <g id="zoomMin">
                        <use xlink:href="#rim" fill="#404040">
                                <set attributeName="fill" to="#808080" begin="zoomminus.mouseover" end="zoomminus.mouseout"/>
                        </use>
                        <path d="M-4,0h8" fill="none" stroke="white" stroke-width="1.5" pointer-events="none"/>
                </g>
                <g id="dirArrow">
                        <path fill="none" stroke="white" stroke-width="1.5" d="M0,-3.0v7 M-2.5,-0.5L0,-3.0L2.5,-0.5"/>
                </g>
               <g id="resetDef">
                       <use xlink:href="#rim2" fill="#404040">
                               <set attributeName="fill" to="#808080" begin="reset.mouseover" end="reset.mouseout"/>
                       </use>
               </g>
        </defs>

<script type="text/javascript">
var viewWidth = 1487;
var viewHeight = 207;
var sectionId = 'dynsection-1';
</script>
<script xlink:href="../../svgpan.js"/>
<svg id="graph" class="graph">
<g id="viewport">
<title>model/model.h</title>
<!-- Node1 -->
<g id="node1" class="node"><title>Node1</title>
<polygon fill="#bfbfbf" stroke="black" points="916.5,-179.5 916.5,-198.5 996.5,-198.5 996.5,-179.5 916.5,-179.5"/>
<text text-anchor="middle" x="956.5" y="-186.5" font-family="Helvetica,sans-Serif" font-size="10.00">model/model.h</text>
</g>
<!-- Node2 -->
<g id="node2" class="node"><title>Node2</title>
<g id="a_node2"><a xlink:href="../../d6/db4/model_8cpp.html" target="_top" xlink:title="model/model.cpp">
<polygon fill="none" stroke="black" points="688,-123.5 688,-142.5 779,-142.5 779,-123.5 688,-123.5"/>
<text text-anchor="middle" x="733.5" y="-130.5" font-family="Helvetica,sans-Serif" font-size="10.00">model/model.cpp</text>
</a>
</g>
</g>
<!-- Node1&#45;&gt;Node2 -->
<g id="edge1" class="edge"><title>Node1&#45;&gt;Node2</title>
<path fill="none" stroke="midnightblue" d="M911.439,-177.088C869.309,-166.887 807.26,-151.861 768.67,-142.516"/>
<polygon fill="midnightblue" stroke="midnightblue" points="910.622,-180.492 921.165,-179.444 912.27,-173.688 910.622,-180.492"/>
</g>
<!-- Node3 -->
<g id="node3" class="node"><title>Node3</title>
<g id="a_node3"><a xlink:href="../../d1/d2a/glwindow_8h.html" target="_top" xlink:title="window/glwindow.h">
<polygon fill="none" stroke="black" points="797,-123.5 797,-142.5 898,-142.5 898,-123.5 797,-123.5"/>
<text text-anchor="middle" x="847.5" y="-130.5" font-family="Helvetica,sans-Serif" font-size="10.00">window/glwindow.h</text>
</a>
</g>
</g>
<!-- Node1&#45;&gt;Node3 -->
<g id="edge2" class="edge"><title>Node1&#45;&gt;Node3</title>
<path fill="none" stroke="midnightblue" d="M929.981,-174.862C909.77,-164.849 882.513,-151.346 864.969,-142.655"/>
<polygon fill="midnightblue" stroke="midnightblue" points="928.473,-178.021 938.987,-179.324 931.58,-171.748 928.473,-178.021"/>
</g>
<!-- Node12 -->
<g id="node12" class="node"><title>Node12</title>
<g id="a_node12"><a xlink:href="../../d9/d53/mainwindow_8h.html" target="_top" xlink:title="window/mainwindow.h">
<polygon fill="none" stroke="black" points="1229,-62 1229,-81 1344,-81 1344,-62 1229,-62"/>
<text text-anchor="middle" x="1286.5" y="-69" font-family="Helvetica,sans-Serif" font-size="10.00">window/mainwindow.h</text>
</a>
</g>
</g>
<!-- Node1&#45;&gt;Node12 -->
<g id="edge17" class="edge"><title>Node1&#45;&gt;Node12</title>
<path fill="none" stroke="midnightblue" d="M990.657,-176.045C1057.37,-152.697 1203.53,-101.539 1261.8,-81.1434"/>
<polygon fill="midnightblue" stroke="midnightblue" points="989.316,-172.806 981.034,-179.413 991.629,-179.413 989.316,-172.806"/>
</g>
<!-- Node15 -->
<g id="node15" class="node"><title>Node15</title>
<g id="a_node15"><a xlink:href="../../d7/d42/toolwidget_8h.html" target="_top" xlink:title="window/toolwidget.h">
<polygon fill="none" stroke="black" points="1234,-123.5 1234,-142.5 1339,-142.5 1339,-123.5 1234,-123.5"/>
<text text-anchor="middle" x="1286.5" y="-130.5" font-family="Helvetica,sans-Serif" font-size="10.00">window/toolwidget.h</text>
</a>
</g>
</g>
<!-- Node1&#45;&gt;Node15 -->
<g id="edge14" class="edge"><title>Node1&#45;&gt;Node15</title>
<path fill="none" stroke="midnightblue" d="M1006.88,-179.756C1068.46,-169.68 1172.12,-152.716 1234.45,-142.518"/>
<polygon fill="midnightblue" stroke="midnightblue" points="1005.94,-176.363 996.635,-181.433 1007.07,-183.272 1005.94,-176.363"/>
</g>
<!-- Node4 -->
<g id="node4" class="node"><title>Node4</title>
<g id="a_node4"><a xlink:href="../../db/d2b/BufferObject_8cpp.html" target="_top" xlink:title="engine/BufferObject\l/BufferObject.cpp">
<polygon fill="none" stroke="black" points="0,-56.5 0,-86.5 103,-86.5 103,-56.5 0,-56.5"/>
<text text-anchor="start" x="8" y="-74.5" font-family="Helvetica,sans-Serif" font-size="10.00">engine/BufferObject</text>
<text text-anchor="middle" x="51.5" y="-63.5" font-family="Helvetica,sans-Serif" font-size="10.00">/BufferObject.cpp</text>
</a>
</g>
</g>
<!-- Node3&#45;&gt;Node4 -->
<g id="edge3" class="edge"><title>Node3&#45;&gt;Node4</title>
<path fill="none" stroke="midnightblue" d="M786.492,-123.015C486.363,-93.49 405.862,-130.033 111.5,-87 108.743,-86.597 105.927,-86.1262 103.093,-85.6057"/>
<polygon fill="midnightblue" stroke="midnightblue" points="786.505,-126.534 796.804,-124.047 787.202,-119.569 786.505,-126.534"/>
</g>
<!-- Node5 -->
<g id="node5" class="node"><title>Node5</title>
<g id="a_node5"><a xlink:href="../../da/d8c/Camera_8cpp.html" target="_top" xlink:title="engine/Camera/Camera.cpp">
<polygon fill="none" stroke="black" points="121,-62 121,-81 260,-81 260,-62 121,-62"/>
<text text-anchor="middle" x="190.5" y="-69" font-family="Helvetica,sans-Serif" font-size="10.00">engine/Camera/Camera.cpp</text>
</a>
</g>
</g>
<!-- Node3&#45;&gt;Node5 -->
<g id="edge4" class="edge"><title>Node3&#45;&gt;Node5</title>
<path fill="none" stroke="midnightblue" d="M786.764,-123.017C556.373,-98.3641 495.222,-115.467 269.5,-87 257.325,-85.4646 244.186,-83.2714 232.183,-81.054"/>
<polygon fill="midnightblue" stroke="midnightblue" points="786.479,-126.506 796.798,-124.105 787.234,-119.547 786.479,-126.506"/>
</g>
<!-- Node6 -->
<g id="node6" class="node"><title>Node6</title>
<g id="a_node6"><a xlink:href="../../dd/d98/GameEngine_8cpp.html" target="_top" xlink:title="engine/GameEngine/GameEngine.cpp">
<polygon fill="none" stroke="black" points="278.5,-62 278.5,-81 460.5,-81 460.5,-62 278.5,-62"/>
<text text-anchor="middle" x="369.5" y="-69" font-family="Helvetica,sans-Serif" font-size="10.00">engine/GameEngine/GameEngine.cpp</text>
</a>
</g>
</g>
<!-- Node3&#45;&gt;Node6 -->
<g id="edge5" class="edge"><title>Node3&#45;&gt;Node6</title>
<path fill="none" stroke="midnightblue" d="M786.822,-122.956C644.813,-104.472 607.397,-104.799 469.5,-87 455.407,-85.181 440.221,-83.0615 426.045,-81.0137"/>
<polygon fill="midnightblue" stroke="midnightblue" points="786.409,-126.432 796.779,-124.26 787.319,-119.491 786.409,-126.432"/>
</g>
<!-- Node7 -->
<g id="node7" class="node"><title>Node7</title>
<g id="a_node7"><a xlink:href="../../d2/dcc/Mesh_8cpp.html" target="_top" xlink:title="engine/Mesh/Mesh.cpp">
<polygon fill="none" stroke="black" points="478.5,-62 478.5,-81 596.5,-81 596.5,-62 478.5,-62"/>
<text text-anchor="middle" x="537.5" y="-69" font-family="Helvetica,sans-Serif" font-size="10.00">engine/Mesh/Mesh.cpp</text>
</a>
</g>
</g>
<!-- Node3&#45;&gt;Node7 -->
<g id="edge6" class="edge"><title>Node3&#45;&gt;Node7</title>
<path fill="none" stroke="midnightblue" d="M789.565,-121.668C740.489,-112.81 668.295,-99.5313 605.5,-87 596.148,-85.1338 586.093,-83.0386 576.658,-81.0334"/>
<polygon fill="midnightblue" stroke="midnightblue" points="789.213,-125.161 799.675,-123.489 790.454,-118.271 789.213,-125.161"/>
</g>
<!-- Node8 -->
<g id="node8" class="node"><title>Node8</title>
<g id="a_node8"><a xlink:href="../../da/d3d/BasicRenderer_8cpp.html" target="_top" xlink:title="engine/Renderer/BasicRenderer\l/BasicRenderer.cpp">
<polygon fill="none" stroke="black" points="615,-56.5 615,-86.5 770,-86.5 770,-56.5 615,-56.5"/>
<text text-anchor="start" x="623" y="-74.5" font-family="Helvetica,sans-Serif" font-size="10.00">engine/Renderer/BasicRenderer</text>
<text text-anchor="middle" x="692.5" y="-63.5" font-family="Helvetica,sans-Serif" font-size="10.00">/BasicRenderer.cpp</text>
</a>
</g>
</g>
<!-- Node3&#45;&gt;Node8 -->
<g id="edge7" class="edge"><title>Node3&#45;&gt;Node8</title>
<path fill="none" stroke="midnightblue" d="M815.842,-119.847C790.663,-110.182 755.404,-96.6471 729.03,-86.523"/>
<polygon fill="midnightblue" stroke="midnightblue" points="814.702,-123.159 825.292,-123.475 817.211,-116.624 814.702,-123.159"/>
</g>
<!-- Node9 -->
<g id="node9" class="node"><title>Node9</title>
<g id="a_node9"><a xlink:href="../../dd/d84/Shader_8cpp.html" target="_top" xlink:title="engine/Shaders/Shader\l/Shader.cpp">
<polygon fill="none" stroke="black" points="788.5,-56.5 788.5,-86.5 906.5,-86.5 906.5,-56.5 788.5,-56.5"/>
<text text-anchor="start" x="796.5" y="-74.5" font-family="Helvetica,sans-Serif" font-size="10.00">engine/Shaders/Shader</text>
<text text-anchor="middle" x="847.5" y="-63.5" font-family="Helvetica,sans-Serif" font-size="10.00">/Shader.cpp</text>
</a>
</g>
</g>
<!-- Node3&#45;&gt;Node9 -->
<g id="edge8" class="edge"><title>Node3&#45;&gt;Node9</title>
<path fill="none" stroke="midnightblue" d="M847.5,-113.235C847.5,-104.586 847.5,-94.4969 847.5,-86.523"/>
<polygon fill="midnightblue" stroke="midnightblue" points="844,-113.475 847.5,-123.475 851,-113.475 844,-113.475"/>
</g>
<!-- Node10 -->
<g id="node10" class="node"><title>Node10</title>
<g id="a_node10"><a xlink:href="../../de/d34/ShaderProgram_8cpp.html" target="_top" xlink:title="engine/Shaders/ShaderProgram\l/ShaderProgram.cpp">
<polygon fill="none" stroke="black" points="925,-56.5 925,-86.5 1080,-86.5 1080,-56.5 925,-56.5"/>
<text text-anchor="start" x="933" y="-74.5" font-family="Helvetica,sans-Serif" font-size="10.00">engine/Shaders/ShaderProgram</text>
<text text-anchor="middle" x="1002.5" y="-63.5" font-family="Helvetica,sans-Serif" font-size="10.00">/ShaderProgram.cpp</text>
</a>
</g>
</g>
<!-- Node3&#45;&gt;Node10 -->
<g id="edge9" class="edge"><title>Node3&#45;&gt;Node10</title>
<path fill="none" stroke="midnightblue" d="M879.158,-119.847C904.337,-110.182 939.596,-96.6471 965.97,-86.523"/>
<polygon fill="midnightblue" stroke="midnightblue" points="877.789,-116.624 869.708,-123.475 880.298,-123.159 877.789,-116.624"/>
</g>
<!-- Node11 -->
<g id="node11" class="node"><title>Node11</title>
<g id="a_node11"><a xlink:href="../../d3/d1f/glwindow_8cpp.html" target="_top" xlink:title="window/glwindow.cpp">
<polygon fill="none" stroke="black" points="1098.5,-62 1098.5,-81 1210.5,-81 1210.5,-62 1098.5,-62"/>
<text text-anchor="middle" x="1154.5" y="-69" font-family="Helvetica,sans-Serif" font-size="10.00">window/glwindow.cpp</text>
</a>
</g>
</g>
<!-- Node3&#45;&gt;Node11 -->
<g id="edge10" class="edge"><title>Node3&#45;&gt;Node11</title>
<path fill="none" stroke="midnightblue" d="M905.671,-121.671C954.546,-112.865 1026.19,-99.6579 1088.5,-87 1097.58,-85.1548 1107.34,-83.0677 1116.5,-81.0635"/>
<polygon fill="midnightblue" stroke="midnightblue" points="904.822,-118.268 895.599,-123.482 906.06,-125.157 904.822,-118.268"/>
</g>
<!-- Node3&#45;&gt;Node12 -->
<g id="edge11" class="edge"><title>Node3&#45;&gt;Node12</title>
<path fill="none" stroke="midnightblue" d="M908.311,-126.392C982.177,-119.178 1110.44,-105.357 1219.5,-87 1229.48,-85.3209 1240.21,-83.1583 1250.11,-81.0183"/>
<polygon fill="midnightblue" stroke="midnightblue" points="907.872,-122.918 898.257,-127.366 908.547,-129.885 907.872,-122.918"/>
</g>
<!-- Node13 -->
<g id="node13" class="node"><title>Node13</title>
<g id="a_node13"><a xlink:href="../../df/d0a/main_8cpp.html" target="_top" xlink:title="TODO. ">
<polygon fill="none" stroke="black" points="1204.5,-0.5 1204.5,-19.5 1260.5,-19.5 1260.5,-0.5 1204.5,-0.5"/>
<text text-anchor="middle" x="1232.5" y="-7.5" font-family="Helvetica,sans-Serif" font-size="10.00">main.cpp</text>
</a>
</g>
</g>
<!-- Node12&#45;&gt;Node13 -->
<g id="edge12" class="edge"><title>Node12&#45;&gt;Node13</title>
<path fill="none" stroke="midnightblue" d="M1271.98,-54.4975C1261.76,-43.2356 1248.48,-28.6044 1240.22,-19.5091"/>
<polygon fill="midnightblue" stroke="midnightblue" points="1269.45,-56.9222 1278.76,-61.9751 1274.63,-52.2178 1269.45,-56.9222"/>
</g>
<!-- Node14 -->
<g id="node14" class="node"><title>Node14</title>
<g id="a_node14"><a xlink:href="../../d8/dd9/mainwindow_8cpp.html" target="_top" xlink:title="window/mainwindow.cpp">
<polygon fill="none" stroke="black" points="1278,-0.5 1278,-19.5 1403,-19.5 1403,-0.5 1278,-0.5"/>
<text text-anchor="middle" x="1340.5" y="-7.5" font-family="Helvetica,sans-Serif" font-size="10.00">window/mainwindow.cpp</text>
</a>
</g>
</g>
<!-- Node12&#45;&gt;Node14 -->
<g id="edge13" class="edge"><title>Node12&#45;&gt;Node14</title>
<path fill="none" stroke="midnightblue" d="M1301.02,-54.4975C1311.24,-43.2356 1324.52,-28.6044 1332.78,-19.5091"/>
<polygon fill="midnightblue" stroke="midnightblue" points="1298.37,-52.2178 1294.24,-61.9751 1303.55,-56.9222 1298.37,-52.2178"/>
</g>
<!-- Node15&#45;&gt;Node12 -->
<g id="edge15" class="edge"><title>Node15&#45;&gt;Node12</title>
<path fill="none" stroke="midnightblue" d="M1286.5,-113.317C1286.5,-102.496 1286.5,-89.398 1286.5,-81.0091"/>
<polygon fill="midnightblue" stroke="midnightblue" points="1283,-113.475 1286.5,-123.475 1290,-113.475 1283,-113.475"/>
</g>
<!-- Node16 -->
<g id="node16" class="node"><title>Node16</title>
<g id="a_node16"><a xlink:href="../../df/d91/toolwidget_8cpp.html" target="_top" xlink:title="window/toolwidget.cpp">
<polygon fill="none" stroke="black" points="1362.5,-62 1362.5,-81 1478.5,-81 1478.5,-62 1362.5,-62"/>
<text text-anchor="middle" x="1420.5" y="-69" font-family="Helvetica,sans-Serif" font-size="10.00">window/toolwidget.cpp</text>
</a>
</g>
</g>
<!-- Node15&#45;&gt;Node16 -->
<g id="edge16" class="edge"><title>Node15&#45;&gt;Node16</title>
<path fill="none" stroke="midnightblue" d="M1315.04,-119.327C1341.05,-107.776 1378.76,-91.0316 1401.34,-81.0091"/>
<polygon fill="midnightblue" stroke="midnightblue" points="1313.42,-116.218 1305.7,-123.475 1316.26,-122.616 1313.42,-116.218"/>
</g>
</g>
</svg>
        <g id="navigator" transform="translate(0 0)" fill="#404254">
                <rect fill="#f2f5e9" fill-opacity="0.5" stroke="#606060" stroke-width=".5" x="0" y="0" width="60" height="60"/>
                <use id="zoomplus" xlink:href="#zoomPlus" x="17" y="9" onmousedown="handleZoom(evt,'in')"/>
                <use id="zoomminus" xlink:href="#zoomMin" x="42" y="9" onmousedown="handleZoom(evt,'out')"/>
                <use id="reset" xlink:href="#resetDef" x="30" y="36" onmousedown="handleReset()"/>
                <g id="arrowUp" xlink:href="#dirArrow" transform="translate(30 24)" onmousedown="handlePan(0,-1)">
                  <use xlink:href="#rim" fill="#404040">
                        <set attributeName="fill" to="#808080" begin="arrowUp.mouseover" end="arrowUp.mouseout"/>
                  </use>
                  <path fill="none" stroke="white" stroke-width="1.5" d="M0,-3.0v7 M-2.5,-0.5L0,-3.0L2.5,-0.5"/>
                </g>
                <g id="arrowRight" xlink:href="#dirArrow" transform="rotate(90) translate(36 -43)" onmousedown="handlePan(1,0)">
                  <use xlink:href="#rim" fill="#404040">
                        <set attributeName="fill" to="#808080" begin="arrowRight.mouseover" end="arrowRight.mouseout"/>
                  </use>
                  <path fill="none" stroke="white" stroke-width="1.5" d="M0,-3.0v7 M-2.5,-0.5L0,-3.0L2.5,-0.5"/>
                </g>
                <g id="arrowDown" xlink:href="#dirArrow" transform="rotate(180) translate(-30 -48)" onmousedown="handlePan(0,1)">
                  <use xlink:href="#rim" fill="#404040">
                        <set attributeName="fill" to="#808080" begin="arrowDown.mouseover" end="arrowDown.mouseout"/>
                  </use>
                  <path fill="none" stroke="white" stroke-width="1.5" d="M0,-3.0v7 M-2.5,-0.5L0,-3.0L2.5,-0.5"/>
                </g>
                <g id="arrowLeft" xlink:href="#dirArrow" transform="rotate(270) translate(-36 17)" onmousedown="handlePan(-1,0)">
                  <use xlink:href="#rim" fill="#404040">
                        <set attributeName="fill" to="#808080" begin="arrowLeft.mouseover" end="arrowLeft.mouseout"/>
                  </use>
                  <path fill="none" stroke="white" stroke-width="1.5" d="M0,-3.0v7 M-2.5,-0.5L0,-3.0L2.5,-0.5"/>
                </g>
        </g>
        <svg viewBox="0 0 15 15" width="100%" height="30px" preserveAspectRatio="xMaxYMin meet">
         <g id="arrow_out" transform="scale(0.3 0.3)">
          <a xlink:href="model_8h__dep__incl_org.svg" target="_base">
           <rect id="button" ry="5" rx="5" y="6" x="6" height="38" width="38"
                fill="#f2f5e9" fill-opacity="0.5" stroke="#606060" stroke-width="1.0"/>
           <path id="arrow"
             d="M 11.500037,31.436501 C 11.940474,20.09759 22.043105,11.32322 32.158766,21.979434 L 37.068811,17.246167 C 37.068811,17.246167 37.088388,32 37.088388,32 L 22.160133,31.978069 C 22.160133,31.978069 26.997745,27.140456 26.997745,27.140456 C 18.528582,18.264221 13.291696,25.230495 11.500037,31.436501 z"
             style="fill:#404040;"/>
          </a>
         </g>
        </svg>
</svg>
