<?xml version="1.0" encoding="UTF-8" standalone="no"?>
<!DOCTYPE svg PUBLIC "-//W3C//DTD SVG 1.1//EN"
 "http://www.w3.org/Graphics/SVG/1.1/DTD/svg11.dtd">
<!-- Generated by graphviz version 2.38.0 (20140413.2041)
 -->
<!-- Title: engine/Transform/Transform.hpp Pages: 1 -->
<svg width="628pt" height="162pt"
 viewBox="0.00 0.00 628.00 162.00" xmlns="http://www.w3.org/2000/svg" xmlns:xlink="http://www.w3.org/1999/xlink">
<g id="graph0" class="graph" transform="scale(1 1) rotate(0) translate(4 158)">
<title>engine/Transform/Transform.hpp</title>
<!-- Node1 -->
<g id="node1" class="node"><title>Node1</title>
<polygon fill="#bfbfbf" stroke="black" points="225,-134.5 225,-153.5 383,-153.5 383,-134.5 225,-134.5"/>
<text text-anchor="middle" x="304" y="-141.5" font-family="Helvetica,sans-Serif" font-size="10.00">engine/Transform/Transform.hpp</text>
</g>
<!-- Node2 -->
<g id="node2" class="node"><title>Node2</title>
<g id="a_node2"><a xlink:href="../../da/daf/PerspectiveCamera_8cpp.html" target="_top" xlink:title="engine/PerspectiveCamera\l/PerspectiveCamera.cpp">
<polygon fill="none" stroke="black" points="0,-67.5 0,-97.5 134,-97.5 134,-67.5 0,-67.5"/>
<text text-anchor="start" x="8" y="-85.5" font-family="Helvetica,sans-Serif" font-size="10.00">engine/PerspectiveCamera</text>
<text text-anchor="middle" x="67" y="-74.5" font-family="Helvetica,sans-Serif" font-size="10.00">/PerspectiveCamera.cpp</text>
</a>
</g>
</g>
<!-- Node1&#45;&gt;Node2 -->
<g id="edge1" class="edge"><title>Node1&#45;&gt;Node2</title>
<path fill="none" stroke="midnightblue" d="M260.119,-131.983C221.409,-122.265 164.789,-108.05 122.856,-97.523"/>
<polygon fill="midnightblue" stroke="midnightblue" points="259.492,-135.435 270.044,-134.475 261.197,-128.645 259.492,-135.435"/>
</g>
<!-- Node3 -->
<g id="node3" class="node"><title>Node3</title>
<g id="a_node3"><a xlink:href="../../d3/d28/Renderer_8cpp.html" target="_top" xlink:title="engine/Renderer/Renderer.cpp">
<polygon fill="none" stroke="black" points="152.5,-73 152.5,-92 301.5,-92 301.5,-73 152.5,-73"/>
<text text-anchor="middle" x="227" y="-80" font-family="Helvetica,sans-Serif" font-size="10.00">engine/Renderer/Renderer.cpp</text>
</a>
</g>
</g>
<!-- Node1&#45;&gt;Node3 -->
<g id="edge2" class="edge"><title>Node1&#45;&gt;Node3</title>
<path fill="none" stroke="midnightblue" d="M284.968,-128.294C270.198,-116.88 250.239,-101.458 238.012,-92.0091"/>
<polygon fill="midnightblue" stroke="midnightblue" points="282.915,-131.13 292.968,-134.475 287.195,-125.591 282.915,-131.13"/>
</g>
<!-- Node4 -->
<g id="node4" class="node"><title>Node4</title>
<g id="a_node4"><a xlink:href="../../d1/d2f/SceneGraphNode_8hpp.html" target="_top" xlink:title="engine/SceneGraphNode\l/SceneGraphNode.hpp">
<polygon fill="none" stroke="black" points="319.5,-67.5 319.5,-97.5 444.5,-97.5 444.5,-67.5 319.5,-67.5"/>
<text text-anchor="start" x="327.5" y="-85.5" font-family="Helvetica,sans-Serif" font-size="10.00">engine/SceneGraphNode</text>
<text text-anchor="middle" x="382" y="-74.5" font-family="Helvetica,sans-Serif" font-size="10.00">/SceneGraphNode.hpp</text>
</a>
</g>
</g>
<!-- Node1&#45;&gt;Node4 -->
<g id="edge3" class="edge"><title>Node1&#45;&gt;Node4</title>
<path fill="none" stroke="midnightblue" d="M323.408,-128.195C335.707,-118.813 351.519,-106.751 363.617,-97.523"/>
<polygon fill="midnightblue" stroke="midnightblue" points="321.004,-125.627 315.175,-134.475 325.249,-131.193 321.004,-125.627"/>
</g>
<!-- Node8 -->
<g id="node8" class="node"><title>Node8</title>
<g id="a_node8"><a xlink:href="../../d0/d59/Transform_8cpp.html" target="_top" xlink:title="engine/Transform/Transform.cpp">
<polygon fill="none" stroke="black" points="462,-73 462,-92 620,-92 620,-73 462,-73"/>
<text text-anchor="middle" x="541" y="-80" font-family="Helvetica,sans-Serif" font-size="10.00">engine/Transform/Transform.cpp</text>
</a>
</g>
</g>
<!-- Node1&#45;&gt;Node8 -->
<g id="edge7" class="edge"><title>Node1&#45;&gt;Node8</title>
<path fill="none" stroke="midnightblue" d="M347.941,-131.968C393.962,-120.415 465.25,-102.517 507.107,-92.0091"/>
<polygon fill="midnightblue" stroke="midnightblue" points="346.803,-128.645 337.956,-134.475 348.508,-135.435 346.803,-128.645"/>
</g>
<!-- Node5 -->
<g id="node5" class="node"><title>Node5</title>
<g id="a_node5"><a xlink:href="../../df/de9/Entity_8cpp.html" target="_top" xlink:title="engine/Entity/Entity.cpp">
<polygon fill="none" stroke="black" points="154.5,-6 154.5,-25 275.5,-25 275.5,-6 154.5,-6"/>
<text text-anchor="middle" x="215" y="-13" font-family="Helvetica,sans-Serif" font-size="10.00">engine/Entity/Entity.cpp</text>
</a>
</g>
</g>
<!-- Node4&#45;&gt;Node5 -->
<g id="edge4" class="edge"><title>Node4&#45;&gt;Node5</title>
<path fill="none" stroke="midnightblue" d="M336.066,-63.6214C303.742,-51.0403 261.93,-34.7661 236.856,-25.007"/>
<polygon fill="midnightblue" stroke="midnightblue" points="335.175,-67.0304 345.763,-67.396 337.714,-60.5071 335.175,-67.0304"/>
</g>
<!-- Node6 -->
<g id="node6" class="node"><title>Node6</title>
<g id="a_node6"><a xlink:href="../../d1/d20/SceneGraph_8cpp.html" target="_top" xlink:title="engine/SceneGraph/SceneGraph.cpp">
<polygon fill="none" stroke="black" points="293,-6 293,-25 471,-25 471,-6 293,-6"/>
<text text-anchor="middle" x="382" y="-13" font-family="Helvetica,sans-Serif" font-size="10.00">engine/SceneGraph/SceneGraph.cpp</text>
</a>
</g>
</g>
<!-- Node4&#45;&gt;Node6 -->
<g id="edge5" class="edge"><title>Node4&#45;&gt;Node6</title>
<path fill="none" stroke="midnightblue" d="M382,-57.2495C382,-46.017 382,-33.3767 382,-25.1945"/>
<polygon fill="midnightblue" stroke="midnightblue" points="378.5,-57.3959 382,-67.396 385.5,-57.396 378.5,-57.3959"/>
</g>
<!-- Node7 -->
<g id="node7" class="node"><title>Node7</title>
<g id="a_node7"><a xlink:href="../../d2/d22/SceneGraphNode_8cpp.html" target="_top" xlink:title="engine/SceneGraphNode\l/SceneGraphNode.cpp">
<polygon fill="none" stroke="black" points="488.5,-0.5 488.5,-30.5 613.5,-30.5 613.5,-0.5 488.5,-0.5"/>
<text text-anchor="start" x="496.5" y="-18.5" font-family="Helvetica,sans-Serif" font-size="10.00">engine/SceneGraphNode</text>
<text text-anchor="middle" x="551" y="-7.5" font-family="Helvetica,sans-Serif" font-size="10.00">/SceneGraphNode.cpp</text>
</a>
</g>
</g>
<!-- Node4&#45;&gt;Node7 -->
<g id="edge6" class="edge"><title>Node4&#45;&gt;Node7</title>
<path fill="none" stroke="midnightblue" d="M428.328,-63.6815C455.432,-53.2568 489.171,-40.2805 514.401,-30.5765"/>
<polygon fill="midnightblue" stroke="midnightblue" points="426.747,-60.5394 418.67,-67.396 429.26,-67.0728 426.747,-60.5394"/>
</g>
</g>
</svg>
