<?xml version="1.0" encoding="UTF-8" standalone="no"?>
<!DOCTYPE svg PUBLIC "-//W3C//DTD SVG 1.1//EN"
 "http://www.w3.org/Graphics/SVG/1.1/DTD/svg11.dtd">
<!-- Generated by graphviz version 2.38.0 (20140413.2041)
 -->
<!-- Title: engine/Transform/Transform.hpp Pages: 1 -->
<!--zoomable 475 -->
<svg id="main" version="1.1" xmlns="http://www.w3.org/2000/svg" xmlns:xlink="http://www.w3.org/1999/xlink" xml:space="preserve" onload="init(evt)">
<style type="text/css"><![CDATA[
.edge:hover path { stroke: red; }
.edge:hover polygon { stroke: red; fill: red; }
]]></style>
<script type="text/javascript"><![CDATA[
var edges = document.getElementsByTagName('g');
if (edges && edges.length) {
  for (var i=0;i<edges.length;i++) {
    if (edges[i].id.substr(0,4)=='edge') {
      edges[i].setAttribute('class','edge');
    }
  }
}
]]></script>
        <defs>
                <circle id="rim" cx="0" cy="0" r="7"/>
                <circle id="rim2" cx="0" cy="0" r="3.5"/>
                <g id="zoomPlus">
                        <use xlink:href="#rim" fill="#404040">
                                <set attributeName="fill" to="#808080" begin="zoomplus.mouseover" end="zoomplus.mouseout"/>
                        </use>
                        <path d="M-4,0h8M0,-4v8" fill="none" stroke="white" stroke-width="1.5" pointer-events="none"/>
                </g>
                <g id="zoomMin">
                        <use xlink:href="#rim" fill="#404040">
                                <set attributeName="fill" to="#808080" begin="zoomminus.mouseover" end="zoomminus.mouseout"/>
                        </use>
                        <path d="M-4,0h8" fill="none" stroke="white" stroke-width="1.5" pointer-events="none"/>
                </g>
                <g id="dirArrow">
                        <path fill="none" stroke="white" stroke-width="1.5" d="M0,-3.0v7 M-2.5,-0.5L0,-3.0L2.5,-0.5"/>
                </g>
               <g id="resetDef">
                       <use xlink:href="#rim2" fill="#404040">
                               <set attributeName="fill" to="#808080" begin="reset.mouseover" end="reset.mouseout"/>
                       </use>
               </g>
        </defs>

<script type="text/javascript">
var viewWidth = 1395;
var viewHeight = 475;
var sectionId = 'dynsection-1';
</script>
<script xlink:href="../../svgpan.js"/>
<svg id="graph" class="graph">
<g id="viewport">
<title>engine/Transform/Transform.hpp</title>
<!-- Node1 -->
<g id="node1" class="node"><title>Node1</title>
<polygon fill="#bfbfbf" stroke="black" points="870.5,-447.5 870.5,-466.5 1028.5,-466.5 1028.5,-447.5 870.5,-447.5"/>
<text text-anchor="middle" x="949.5" y="-454.5" font-family="Helvetica,sans-Serif" font-size="10.00">engine/Transform/Transform.hpp</text>
</g>
<!-- Node2 -->
<g id="node2" class="node"><title>Node2</title>
<g id="a_node2"><a xlink:href="../../d6/d80/Camera_8hpp.html" target="_top" xlink:title="engine/Camera/Camera.hpp">
<polygon fill="none" stroke="black" points="644,-330 644,-349 783,-349 783,-330 644,-330"/>
<text text-anchor="middle" x="713.5" y="-337" font-family="Helvetica,sans-Serif" font-size="10.00">engine/Camera/Camera.hpp</text>
</a>
</g>
</g>
<!-- Node1&#45;&gt;Node2 -->
<g id="edge1" class="edge"><title>Node1&#45;&gt;Node2</title>
<path fill="none" stroke="midnightblue" d="M920.934,-443.263C901.306,-434.418 874.703,-422.248 851.5,-411 807.197,-389.524 755.715,-362.726 729.957,-349.19"/>
<polygon fill="midnightblue" stroke="midnightblue" points="919.679,-446.536 930.235,-447.44 922.547,-440.15 919.679,-446.536"/>
</g>
<!-- Node20 -->
<g id="node20" class="node"><title>Node20</title>
<g id="a_node20"><a xlink:href="../../d4/db5/GameObject_8hpp.html" target="_top" xlink:title="engine/GameObject/GameObject.hpp">
<polygon fill="none" stroke="black" points="860,-391.5 860,-410.5 1039,-410.5 1039,-391.5 860,-391.5"/>
<text text-anchor="middle" x="949.5" y="-398.5" font-family="Helvetica,sans-Serif" font-size="10.00">engine/GameObject/GameObject.hpp</text>
</a>
</g>
</g>
<!-- Node1&#45;&gt;Node20 -->
<g id="edge23" class="edge"><title>Node1&#45;&gt;Node20</title>
<path fill="none" stroke="midnightblue" d="M949.5,-436.805C949.5,-427.91 949.5,-417.78 949.5,-410.751"/>
<polygon fill="midnightblue" stroke="midnightblue" points="946,-437.083 949.5,-447.083 953,-437.083 946,-437.083"/>
</g>
<!-- Node26 -->
<g id="node26" class="node"><title>Node26</title>
<g id="a_node26"><a xlink:href="../../d0/d59/Transform_8cpp.html" target="_top" xlink:title="engine/Transform/Transform.cpp">
<polygon fill="none" stroke="black" points="1057.5,-391.5 1057.5,-410.5 1215.5,-410.5 1215.5,-391.5 1057.5,-391.5"/>
<text text-anchor="middle" x="1136.5" y="-398.5" font-family="Helvetica,sans-Serif" font-size="10.00">engine/Transform/Transform.cpp</text>
</a>
</g>
</g>
<!-- Node1&#45;&gt;Node26 -->
<g id="edge34" class="edge"><title>Node1&#45;&gt;Node26</title>
<path fill="none" stroke="midnightblue" d="M989.09,-444.568C1024.37,-434.381 1075.19,-419.703 1107.01,-410.516"/>
<polygon fill="midnightblue" stroke="midnightblue" points="987.767,-441.307 979.131,-447.444 989.709,-448.032 987.767,-441.307"/>
</g>
<!-- Node3 -->
<g id="node3" class="node"><title>Node3</title>
<g id="a_node3"><a xlink:href="../../da/d8c/Camera_8cpp.html" target="_top" xlink:title="engine/Camera/Camera.cpp">
<polygon fill="none" stroke="black" points="0,-62 0,-81 139,-81 139,-62 0,-62"/>
<text text-anchor="middle" x="69.5" y="-69" font-family="Helvetica,sans-Serif" font-size="10.00">engine/Camera/Camera.cpp</text>
</a>
</g>
</g>
<!-- Node2&#45;&gt;Node3 -->
<g id="edge2" class="edge"><title>Node2&#45;&gt;Node3</title>
<path fill="none" stroke="midnightblue" d="M683.49,-326.105C572.123,-280.105 184.109,-119.838 90.1207,-81.0172"/>
<polygon fill="midnightblue" stroke="midnightblue" points="682.224,-329.368 692.802,-329.951 684.896,-322.898 682.224,-329.368"/>
</g>
<!-- Node4 -->
<g id="node4" class="node"><title>Node4</title>
<g id="a_node4"><a xlink:href="../../db/de8/Scene_8hpp.html" target="_top" xlink:title="engine/Scene/Scene.hpp">
<polygon fill="none" stroke="black" points="850,-263 850,-282 975,-282 975,-263 850,-263"/>
<text text-anchor="middle" x="912.5" y="-270" font-family="Helvetica,sans-Serif" font-size="10.00">engine/Scene/Scene.hpp</text>
</a>
</g>
</g>
<!-- Node2&#45;&gt;Node4 -->
<g id="edge3" class="edge"><title>Node2&#45;&gt;Node4</title>
<path fill="none" stroke="midnightblue" d="M749.677,-326.683C789.12,-313.8 851.278,-293.497 886.282,-282.064"/>
<polygon fill="midnightblue" stroke="midnightblue" points="748.345,-323.437 739.926,-329.869 750.518,-330.091 748.345,-323.437"/>
</g>
<!-- Node5 -->
<g id="node5" class="node"><title>Node5</title>
<g id="a_node5"><a xlink:href="../../d0/dbd/AssimpImporter_8hpp.html" target="_top" xlink:title="engine/AssimpImporter\l/AssimpImporter.hpp">
<polygon fill="none" stroke="black" points="865,-190.5 865,-220.5 982,-220.5 982,-190.5 865,-190.5"/>
<text text-anchor="start" x="873" y="-208.5" font-family="Helvetica,sans-Serif" font-size="10.00">engine/AssimpImporter</text>
<text text-anchor="middle" x="923.5" y="-197.5" font-family="Helvetica,sans-Serif" font-size="10.00">/AssimpImporter.hpp</text>
</a>
</g>
</g>
<!-- Node4&#45;&gt;Node5 -->
<g id="edge4" class="edge"><title>Node4&#45;&gt;Node5</title>
<path fill="none" stroke="midnightblue" d="M915.675,-252.739C917.41,-242.487 919.523,-230.001 921.116,-220.589"/>
<polygon fill="midnightblue" stroke="midnightblue" points="912.201,-252.29 913.984,-262.734 919.103,-253.458 912.201,-252.29"/>
</g>
<!-- Node8 -->
<g id="node8" class="node"><title>Node8</title>
<g id="a_node8"><a xlink:href="../../d4/d1c/GameEngine_8hpp.html" target="_top" xlink:title="engine/GameEngine/GameEngine.hpp">
<polygon fill="none" stroke="black" points="653.5,-196 653.5,-215 835.5,-215 835.5,-196 653.5,-196"/>
<text text-anchor="middle" x="744.5" y="-203" font-family="Helvetica,sans-Serif" font-size="10.00">engine/GameEngine/GameEngine.hpp</text>
</a>
</g>
</g>
<!-- Node4&#45;&gt;Node8 -->
<g id="edge7" class="edge"><title>Node4&#45;&gt;Node8</title>
<path fill="none" stroke="midnightblue" d="M880.461,-259.104C847.105,-246.198 795.746,-226.327 766.634,-215.064"/>
<polygon fill="midnightblue" stroke="midnightblue" points="879.602,-262.524 890.191,-262.869 882.128,-255.996 879.602,-262.524"/>
</g>
<!-- Node19 -->
<g id="node19" class="node"><title>Node19</title>
<g id="a_node19"><a xlink:href="../../de/d15/Scene_8cpp.html" target="_top" xlink:title="engine/Scene/Scene.cpp">
<polygon fill="none" stroke="black" points="1000,-196 1000,-215 1125,-215 1125,-196 1000,-196"/>
<text text-anchor="middle" x="1062.5" y="-203" font-family="Helvetica,sans-Serif" font-size="10.00">engine/Scene/Scene.cpp</text>
</a>
</g>
</g>
<!-- Node4&#45;&gt;Node19 -->
<g id="edge22" class="edge"><title>Node4&#45;&gt;Node19</title>
<path fill="none" stroke="midnightblue" d="M941.852,-258.781C971.557,-245.909 1016.68,-226.355 1042.5,-215.167"/>
<polygon fill="midnightblue" stroke="midnightblue" points="940.203,-255.681 932.419,-262.869 942.986,-262.104 940.203,-255.681"/>
</g>
<!-- Node6 -->
<g id="node6" class="node"><title>Node6</title>
<g id="a_node6"><a xlink:href="../../d4/d7f/AssimpImporter_8cpp.html" target="_top" xlink:title="engine/AssimpImporter\l/AssimpImporter.cpp">
<polygon fill="none" stroke="black" points="1060,-123.5 1060,-153.5 1177,-153.5 1177,-123.5 1060,-123.5"/>
<text text-anchor="start" x="1068" y="-141.5" font-family="Helvetica,sans-Serif" font-size="10.00">engine/AssimpImporter</text>
<text text-anchor="middle" x="1118.5" y="-130.5" font-family="Helvetica,sans-Serif" font-size="10.00">/AssimpImporter.cpp</text>
</a>
</g>
</g>
<!-- Node5&#45;&gt;Node6 -->
<g id="edge5" class="edge"><title>Node5&#45;&gt;Node6</title>
<path fill="none" stroke="midnightblue" d="M975.317,-187.228C1006.86,-176.713 1046.65,-163.451 1076.27,-153.577"/>
<polygon fill="midnightblue" stroke="midnightblue" points="974.192,-183.913 965.812,-190.396 976.406,-190.554 974.192,-183.913"/>
</g>
<!-- Node7 -->
<g id="node7" class="node"><title>Node7</title>
<g id="a_node7"><a xlink:href="../../dd/d98/GameEngine_8cpp.html" target="_top" xlink:title="engine/GameEngine/GameEngine.cpp">
<polygon fill="none" stroke="black" points="1161.5,-62 1161.5,-81 1343.5,-81 1343.5,-62 1161.5,-62"/>
<text text-anchor="middle" x="1252.5" y="-69" font-family="Helvetica,sans-Serif" font-size="10.00">engine/GameEngine/GameEngine.cpp</text>
</a>
</g>
</g>
<!-- Node5&#45;&gt;Node7 -->
<g id="edge6" class="edge"><title>Node5&#45;&gt;Node7</title>
<path fill="none" stroke="midnightblue" d="M949.724,-184.223C974.656,-165.841 1013.84,-139.216 1051.5,-123 1099.58,-102.297 1157.94,-88.8146 1199.36,-81.0324"/>
<polygon fill="midnightblue" stroke="midnightblue" points="947.44,-181.56 941.526,-190.351 951.631,-187.167 947.44,-181.56"/>
</g>
<!-- Node8&#45;&gt;Node7 -->
<g id="edge8" class="edge"><title>Node8&#45;&gt;Node7</title>
<path fill="none" stroke="midnightblue" d="M777.103,-192.327C824.149,-175.096 914.047,-143.424 992.5,-123 1062.7,-104.726 1145.11,-89.7972 1198.03,-81.0304"/>
<polygon fill="midnightblue" stroke="midnightblue" points="775.636,-189.137 767.461,-195.876 778.054,-195.706 775.636,-189.137"/>
</g>
<!-- Node9 -->
<g id="node9" class="node"><title>Node9</title>
<g id="a_node9"><a xlink:href="../../d1/d2a/glwindow_8h.html" target="_top" xlink:title="window/glwindow.h">
<polygon fill="none" stroke="black" points="648,-129 648,-148 749,-148 749,-129 648,-129"/>
<text text-anchor="middle" x="698.5" y="-136" font-family="Helvetica,sans-Serif" font-size="10.00">window/glwindow.h</text>
</a>
</g>
</g>
<!-- Node8&#45;&gt;Node9 -->
<g id="edge9" class="edge"><title>Node8&#45;&gt;Node9</title>
<path fill="none" stroke="midnightblue" d="M732.401,-187.404C723.462,-174.773 711.666,-158.104 704.605,-148.127"/>
<polygon fill="midnightblue" stroke="midnightblue" points="729.663,-189.593 738.296,-195.734 735.376,-185.549 729.663,-189.593"/>
</g>
<!-- Node15 -->
<g id="node15" class="node"><title>Node15</title>
<g id="a_node15"><a xlink:href="../../d3/d1f/glwindow_8cpp.html" target="_top" xlink:title="window/glwindow.cpp">
<polygon fill="none" stroke="black" points="157.5,-62 157.5,-81 269.5,-81 269.5,-62 157.5,-62"/>
<text text-anchor="middle" x="213.5" y="-69" font-family="Helvetica,sans-Serif" font-size="10.00">window/glwindow.cpp</text>
</a>
</g>
</g>
<!-- Node8&#45;&gt;Node15 -->
<g id="edge21" class="edge"><title>Node8&#45;&gt;Node15</title>
<path fill="none" stroke="midnightblue" d="M700.25,-193.5C596.772,-167.777 340.73,-104.128 247.853,-81.0398"/>
<polygon fill="midnightblue" stroke="midnightblue" points="699.52,-196.925 710.069,-195.941 701.208,-190.132 699.52,-196.925"/>
</g>
<!-- Node9&#45;&gt;Node3 -->
<g id="edge11" class="edge"><title>Node9&#45;&gt;Node3</title>
<path fill="none" stroke="midnightblue" d="M637.828,-133.721C536.261,-126.994 325.524,-111.323 148.5,-87 136.619,-85.3676 123.806,-83.1956 112.026,-81.0308"/>
<polygon fill="midnightblue" stroke="midnightblue" points="637.692,-137.22 647.9,-134.382 638.151,-130.235 637.692,-137.22"/>
</g>
<!-- Node9&#45;&gt;Node7 -->
<g id="edge12" class="edge"><title>Node9&#45;&gt;Node7</title>
<path fill="none" stroke="midnightblue" d="M759.06,-128.394C772.369,-126.508 786.4,-124.608 799.5,-123 956.028,-103.791 995.985,-106.319 1152.5,-87 1166.86,-85.227 1182.36,-83.0909 1196.76,-81.0098"/>
<polygon fill="midnightblue" stroke="midnightblue" points="758.453,-124.945 749.051,-129.829 759.446,-131.874 758.453,-124.945"/>
</g>
<!-- Node10 -->
<g id="node10" class="node"><title>Node10</title>
<g id="a_node10"><a xlink:href="../../db/d2b/BufferObject_8cpp.html" target="_top" xlink:title="engine/BufferObject\l/BufferObject.cpp">
<polygon fill="none" stroke="black" points="904,-56.5 904,-86.5 1007,-86.5 1007,-56.5 904,-56.5"/>
<text text-anchor="start" x="912" y="-74.5" font-family="Helvetica,sans-Serif" font-size="10.00">engine/BufferObject</text>
<text text-anchor="middle" x="955.5" y="-63.5" font-family="Helvetica,sans-Serif" font-size="10.00">/BufferObject.cpp</text>
</a>
</g>
</g>
<!-- Node9&#45;&gt;Node10 -->
<g id="edge10" class="edge"><title>Node9&#45;&gt;Node10</title>
<path fill="none" stroke="midnightblue" d="M742.059,-126.483C786.761,-115.177 856.305,-97.5882 903.777,-85.5818"/>
<polygon fill="midnightblue" stroke="midnightblue" points="741.199,-123.09 732.363,-128.936 742.915,-129.877 741.199,-123.09"/>
</g>
<!-- Node11 -->
<g id="node11" class="node"><title>Node11</title>
<g id="a_node11"><a xlink:href="../../d2/dcc/Mesh_8cpp.html" target="_top" xlink:title="engine/Mesh/Mesh.cpp">
<polygon fill="none" stroke="black" points="1025.5,-62 1025.5,-81 1143.5,-81 1143.5,-62 1025.5,-62"/>
<text text-anchor="middle" x="1084.5" y="-69" font-family="Helvetica,sans-Serif" font-size="10.00">engine/Mesh/Mesh.cpp</text>
</a>
</g>
</g>
<!-- Node9&#45;&gt;Node11 -->
<g id="edge13" class="edge"><title>Node9&#45;&gt;Node11</title>
<path fill="none" stroke="midnightblue" d="M758.97,-128.864C823.064,-119.485 927.163,-103.607 1016.5,-87 1026.11,-85.2131 1036.45,-83.1053 1046.09,-81.0586"/>
<polygon fill="midnightblue" stroke="midnightblue" points="758.425,-125.406 749.035,-130.313 759.436,-132.333 758.425,-125.406"/>
</g>
<!-- Node12 -->
<g id="node12" class="node"><title>Node12</title>
<g id="a_node12"><a xlink:href="../../da/d3d/BasicRenderer_8cpp.html" target="_top" xlink:title="engine/Renderer/BasicRenderer\l/BasicRenderer.cpp">
<polygon fill="none" stroke="black" points="288,-56.5 288,-86.5 443,-86.5 443,-56.5 288,-56.5"/>
<text text-anchor="start" x="296" y="-74.5" font-family="Helvetica,sans-Serif" font-size="10.00">engine/Renderer/BasicRenderer</text>
<text text-anchor="middle" x="365.5" y="-63.5" font-family="Helvetica,sans-Serif" font-size="10.00">/BasicRenderer.cpp</text>
</a>
</g>
</g>
<!-- Node9&#45;&gt;Node12 -->
<g id="edge14" class="edge"><title>Node9&#45;&gt;Node12</title>
<path fill="none" stroke="midnightblue" d="M644.504,-126.96C588.227,-115.975 499.73,-98.701 437.526,-86.5592"/>
<polygon fill="midnightblue" stroke="midnightblue" points="644.138,-130.455 654.624,-128.936 645.479,-123.584 644.138,-130.455"/>
</g>
<!-- Node13 -->
<g id="node13" class="node"><title>Node13</title>
<g id="a_node13"><a xlink:href="../../dd/d84/Shader_8cpp.html" target="_top" xlink:title="engine/Shaders/Shader\l/Shader.cpp">
<polygon fill="none" stroke="black" points="461.5,-56.5 461.5,-86.5 579.5,-86.5 579.5,-56.5 461.5,-56.5"/>
<text text-anchor="start" x="469.5" y="-74.5" font-family="Helvetica,sans-Serif" font-size="10.00">engine/Shaders/Shader</text>
<text text-anchor="middle" x="520.5" y="-63.5" font-family="Helvetica,sans-Serif" font-size="10.00">/Shader.cpp</text>
</a>
</g>
</g>
<!-- Node9&#45;&gt;Node13 -->
<g id="edge15" class="edge"><title>Node9&#45;&gt;Node13</title>
<path fill="none" stroke="midnightblue" d="M665.218,-125.346C635.047,-114.329 590.585,-98.0927 558.915,-86.5281"/>
<polygon fill="midnightblue" stroke="midnightblue" points="664.269,-128.726 674.863,-128.869 666.67,-122.151 664.269,-128.726"/>
</g>
<!-- Node14 -->
<g id="node14" class="node"><title>Node14</title>
<g id="a_node14"><a xlink:href="../../de/d34/ShaderProgram_8cpp.html" target="_top" xlink:title="engine/Shaders/ShaderProgram\l/ShaderProgram.cpp">
<polygon fill="none" stroke="black" points="598,-56.5 598,-86.5 753,-86.5 753,-56.5 598,-56.5"/>
<text text-anchor="start" x="606" y="-74.5" font-family="Helvetica,sans-Serif" font-size="10.00">engine/Shaders/ShaderProgram</text>
<text text-anchor="middle" x="675.5" y="-63.5" font-family="Helvetica,sans-Serif" font-size="10.00">/ShaderProgram.cpp</text>
</a>
</g>
</g>
<!-- Node9&#45;&gt;Node14 -->
<g id="edge16" class="edge"><title>Node9&#45;&gt;Node14</title>
<path fill="none" stroke="midnightblue" d="M691.977,-119.065C688.328,-108.753 683.851,-96.1012 680.485,-86.589"/>
<polygon fill="midnightblue" stroke="midnightblue" points="688.763,-120.474 695.398,-128.734 695.362,-118.139 688.763,-120.474"/>
</g>
<!-- Node9&#45;&gt;Node15 -->
<g id="edge17" class="edge"><title>Node9&#45;&gt;Node15</title>
<path fill="none" stroke="midnightblue" d="M637.706,-132.112C555.777,-124.413 405.538,-108.751 278.5,-87 268.813,-85.3414 258.393,-83.1857 248.795,-81.0458"/>
<polygon fill="midnightblue" stroke="midnightblue" points="637.555,-135.613 647.837,-133.056 638.205,-128.643 637.555,-135.613"/>
</g>
<!-- Node16 -->
<g id="node16" class="node"><title>Node16</title>
<g id="a_node16"><a xlink:href="../../d9/d53/mainwindow_8h.html" target="_top" xlink:title="window/mainwindow.h">
<polygon fill="none" stroke="black" points="771,-62 771,-81 886,-81 886,-62 771,-62"/>
<text text-anchor="middle" x="828.5" y="-69" font-family="Helvetica,sans-Serif" font-size="10.00">window/mainwindow.h</text>
</a>
</g>
</g>
<!-- Node9&#45;&gt;Node16 -->
<g id="edge18" class="edge"><title>Node9&#45;&gt;Node16</title>
<path fill="none" stroke="midnightblue" d="M724.952,-124.274C750.7,-111.4 789.083,-92.2086 811.166,-81.1672"/>
<polygon fill="midnightblue" stroke="midnightblue" points="723.142,-121.266 715.763,-128.869 726.273,-127.527 723.142,-121.266"/>
</g>
<!-- Node17 -->
<g id="node17" class="node"><title>Node17</title>
<g id="a_node17"><a xlink:href="../../df/d0a/main_8cpp.html" target="_top" xlink:title="TODO. ">
<polygon fill="none" stroke="black" points="746.5,-0.5 746.5,-19.5 802.5,-19.5 802.5,-0.5 746.5,-0.5"/>
<text text-anchor="middle" x="774.5" y="-7.5" font-family="Helvetica,sans-Serif" font-size="10.00">main.cpp</text>
</a>
</g>
</g>
<!-- Node16&#45;&gt;Node17 -->
<g id="edge19" class="edge"><title>Node16&#45;&gt;Node17</title>
<path fill="none" stroke="midnightblue" d="M813.977,-54.4975C803.756,-43.2356 790.477,-28.6044 782.223,-19.5091"/>
<polygon fill="midnightblue" stroke="midnightblue" points="811.451,-56.9222 820.763,-61.9751 816.634,-52.2178 811.451,-56.9222"/>
</g>
<!-- Node18 -->
<g id="node18" class="node"><title>Node18</title>
<g id="a_node18"><a xlink:href="../../d8/dd9/mainwindow_8cpp.html" target="_top" xlink:title="window/mainwindow.cpp">
<polygon fill="none" stroke="black" points="820,-0.5 820,-19.5 945,-19.5 945,-0.5 820,-0.5"/>
<text text-anchor="middle" x="882.5" y="-7.5" font-family="Helvetica,sans-Serif" font-size="10.00">window/mainwindow.cpp</text>
</a>
</g>
</g>
<!-- Node16&#45;&gt;Node18 -->
<g id="edge20" class="edge"><title>Node16&#45;&gt;Node18</title>
<path fill="none" stroke="midnightblue" d="M843.023,-54.4975C853.244,-43.2356 866.523,-28.6044 874.777,-19.5091"/>
<polygon fill="midnightblue" stroke="midnightblue" points="840.366,-52.2178 836.237,-61.9751 845.549,-56.9222 840.366,-52.2178"/>
</g>
<!-- Node20&#45;&gt;Node2 -->
<g id="edge24" class="edge"><title>Node20&#45;&gt;Node2</title>
<path fill="none" stroke="midnightblue" d="M905.745,-388.968C859.918,-377.415 788.93,-359.517 747.25,-349.009"/>
<polygon fill="midnightblue" stroke="midnightblue" points="905.135,-392.424 915.687,-391.475 906.846,-385.637 905.135,-392.424"/>
</g>
<!-- Node20&#45;&gt;Node4 -->
<g id="edge33" class="edge"><title>Node20&#45;&gt;Node4</title>
<path fill="none" stroke="midnightblue" d="M968.29,-384.657C976.469,-376.761 985.165,-366.402 989.5,-355 994.396,-342.122 996.047,-336.123 989.5,-324 978.409,-303.463 954.924,-289.926 936.789,-282.084"/>
<polygon fill="midnightblue" stroke="midnightblue" points="965.858,-382.137 960.766,-391.427 970.541,-387.34 965.858,-382.137"/>
</g>
<!-- Node21 -->
<g id="node21" class="node"><title>Node21</title>
<g id="a_node21"><a xlink:href="../../d4/d2b/GameObject_8cpp.html" target="_top" xlink:title="engine/GameObject/GameObject.cpp">
<polygon fill="none" stroke="black" points="801,-330 801,-349 980,-349 980,-330 801,-330"/>
<text text-anchor="middle" x="890.5" y="-337" font-family="Helvetica,sans-Serif" font-size="10.00">engine/GameObject/GameObject.cpp</text>
</a>
</g>
</g>
<!-- Node20&#45;&gt;Node21 -->
<g id="edge25" class="edge"><title>Node20&#45;&gt;Node21</title>
<path fill="none" stroke="midnightblue" d="M933.956,-384.325C922.747,-373.02 908.044,-358.193 898.938,-349.009"/>
<polygon fill="midnightblue" stroke="midnightblue" points="931.52,-386.839 941.047,-391.475 936.491,-381.91 931.52,-386.839"/>
</g>
<!-- Node22 -->
<g id="node22" class="node"><title>Node22</title>
<g id="a_node22"><a xlink:href="../../df/d6e/Model_8hpp.html" target="_top" xlink:title="engine/GameObject/Model\l/Model.hpp">
<polygon fill="none" stroke="black" points="1036.5,-324.5 1036.5,-354.5 1168.5,-354.5 1168.5,-324.5 1036.5,-324.5"/>
<text text-anchor="start" x="1044.5" y="-342.5" font-family="Helvetica,sans-Serif" font-size="10.00">engine/GameObject/Model</text>
<text text-anchor="middle" x="1102.5" y="-331.5" font-family="Helvetica,sans-Serif" font-size="10.00">/Model.hpp</text>
</a>
</g>
</g>
<!-- Node20&#45;&gt;Node22 -->
<g id="edge26" class="edge"><title>Node20&#45;&gt;Node22</title>
<path fill="none" stroke="midnightblue" d="M980.749,-387.847C1005.6,-378.182 1040.41,-364.647 1066.44,-354.523"/>
<polygon fill="midnightblue" stroke="midnightblue" points="979.473,-384.589 971.421,-391.475 982.01,-391.113 979.473,-384.589"/>
</g>
<!-- Node24 -->
<g id="node24" class="node"><title>Node24</title>
<g id="a_node24"><a xlink:href="../../d4/dd0/Cube_8hpp.html" target="_top" xlink:title="engine/Primitives/Cube\l/Cube.hpp">
<polygon fill="none" stroke="black" points="1181.5,-257.5 1181.5,-287.5 1299.5,-287.5 1299.5,-257.5 1181.5,-257.5"/>
<text text-anchor="start" x="1189.5" y="-275.5" font-family="Helvetica,sans-Serif" font-size="10.00">engine/Primitives/Cube</text>
<text text-anchor="middle" x="1240.5" y="-264.5" font-family="Helvetica,sans-Serif" font-size="10.00">/Cube.hpp</text>
</a>
</g>
</g>
<!-- Node20&#45;&gt;Node24 -->
<g id="edge29" class="edge"><title>Node20&#45;&gt;Node24</title>
<path fill="none" stroke="midnightblue" d="M1031.02,-390.047C1086.18,-382.168 1153.23,-370.007 1177.5,-355 1204.27,-338.446 1224.01,-306.132 1233.73,-287.553"/>
<polygon fill="midnightblue" stroke="midnightblue" points="1030.3,-386.615 1020.88,-391.468 1031.27,-393.547 1030.3,-386.615"/>
</g>
<!-- Node22&#45;&gt;Node6 -->
<g id="edge27" class="edge"><title>Node22&#45;&gt;Node6</title>
<path fill="none" stroke="midnightblue" d="M1120.71,-315.801C1126.27,-307.539 1131.65,-297.809 1134.5,-288 1146.64,-246.17 1141.16,-233.044 1134.5,-190 1132.56,-177.457 1128.06,-163.763 1124.33,-153.802"/>
<polygon fill="midnightblue" stroke="midnightblue" points="1117.73,-313.961 1114.74,-324.125 1123.41,-318.045 1117.73,-313.961"/>
</g>
<!-- Node23 -->
<g id="node23" class="node"><title>Node23</title>
<g id="a_node23"><a xlink:href="../../dd/d2e/Model_8cpp.html" target="_top" xlink:title="engine/GameObject/Model\l/Model.cpp">
<polygon fill="none" stroke="black" points="993.5,-257.5 993.5,-287.5 1125.5,-287.5 1125.5,-257.5 993.5,-257.5"/>
<text text-anchor="start" x="1001.5" y="-275.5" font-family="Helvetica,sans-Serif" font-size="10.00">engine/GameObject/Model</text>
<text text-anchor="middle" x="1059.5" y="-264.5" font-family="Helvetica,sans-Serif" font-size="10.00">/Model.cpp</text>
</a>
</g>
</g>
<!-- Node22&#45;&gt;Node23 -->
<g id="edge28" class="edge"><title>Node22&#45;&gt;Node23</title>
<path fill="none" stroke="midnightblue" d="M1087.53,-315.867C1081.3,-306.459 1074.27,-295.833 1068.81,-287.577"/>
<polygon fill="midnightblue" stroke="midnightblue" points="1084.73,-317.987 1093.17,-324.396 1090.57,-314.125 1084.73,-317.987"/>
</g>
<!-- Node24&#45;&gt;Node7 -->
<g id="edge30" class="edge"><title>Node24&#45;&gt;Node7</title>
<path fill="none" stroke="midnightblue" d="M1241.98,-246.962C1244.66,-202.433 1250.22,-110.253 1251.97,-81.3601"/>
<polygon fill="midnightblue" stroke="midnightblue" points="1238.47,-246.996 1241.36,-257.188 1245.46,-247.417 1238.47,-246.996"/>
</g>
<!-- Node24&#45;&gt;Node19 -->
<g id="edge32" class="edge"><title>Node24&#45;&gt;Node19</title>
<path fill="none" stroke="midnightblue" d="M1192.43,-253.946C1157.86,-241.321 1112.75,-224.85 1085.8,-215.007"/>
<polygon fill="midnightblue" stroke="midnightblue" points="1191.28,-257.253 1201.88,-257.396 1193.68,-250.678 1191.28,-257.253"/>
</g>
<!-- Node25 -->
<g id="node25" class="node"><title>Node25</title>
<g id="a_node25"><a xlink:href="../../d6/d05/Cube_8cpp.html" target="_top" xlink:title="engine/Primitives/Cube\l/Cube.cpp">
<polygon fill="none" stroke="black" points="1268.5,-190.5 1268.5,-220.5 1386.5,-220.5 1386.5,-190.5 1268.5,-190.5"/>
<text text-anchor="start" x="1276.5" y="-208.5" font-family="Helvetica,sans-Serif" font-size="10.00">engine/Primitives/Cube</text>
<text text-anchor="middle" x="1327.5" y="-197.5" font-family="Helvetica,sans-Serif" font-size="10.00">/Cube.cpp</text>
</a>
</g>
</g>
<!-- Node24&#45;&gt;Node25 -->
<g id="edge31" class="edge"><title>Node24&#45;&gt;Node25</title>
<path fill="none" stroke="midnightblue" d="M1267.71,-251.168C1281.02,-241.228 1296.7,-229.514 1308.66,-220.577"/>
<polygon fill="midnightblue" stroke="midnightblue" points="1265.29,-248.607 1259.38,-257.396 1269.48,-254.215 1265.29,-248.607"/>
</g>
</g>
</svg>
        <g id="navigator" transform="translate(0 0)" fill="#404254">
                <rect fill="#f2f5e9" fill-opacity="0.5" stroke="#606060" stroke-width=".5" x="0" y="0" width="60" height="60"/>
                <use id="zoomplus" xlink:href="#zoomPlus" x="17" y="9" onmousedown="handleZoom(evt,'in')"/>
                <use id="zoomminus" xlink:href="#zoomMin" x="42" y="9" onmousedown="handleZoom(evt,'out')"/>
                <use id="reset" xlink:href="#resetDef" x="30" y="36" onmousedown="handleReset()"/>
                <g id="arrowUp" xlink:href="#dirArrow" transform="translate(30 24)" onmousedown="handlePan(0,-1)">
                  <use xlink:href="#rim" fill="#404040">
                        <set attributeName="fill" to="#808080" begin="arrowUp.mouseover" end="arrowUp.mouseout"/>
                  </use>
                  <path fill="none" stroke="white" stroke-width="1.5" d="M0,-3.0v7 M-2.5,-0.5L0,-3.0L2.5,-0.5"/>
                </g>
                <g id="arrowRight" xlink:href="#dirArrow" transform="rotate(90) translate(36 -43)" onmousedown="handlePan(1,0)">
                  <use xlink:href="#rim" fill="#404040">
                        <set attributeName="fill" to="#808080" begin="arrowRight.mouseover" end="arrowRight.mouseout"/>
                  </use>
                  <path fill="none" stroke="white" stroke-width="1.5" d="M0,-3.0v7 M-2.5,-0.5L0,-3.0L2.5,-0.5"/>
                </g>
                <g id="arrowDown" xlink:href="#dirArrow" transform="rotate(180) translate(-30 -48)" onmousedown="handlePan(0,1)">
                  <use xlink:href="#rim" fill="#404040">
                        <set attributeName="fill" to="#808080" begin="arrowDown.mouseover" end="arrowDown.mouseout"/>
                  </use>
                  <path fill="none" stroke="white" stroke-width="1.5" d="M0,-3.0v7 M-2.5,-0.5L0,-3.0L2.5,-0.5"/>
                </g>
                <g id="arrowLeft" xlink:href="#dirArrow" transform="rotate(270) translate(-36 17)" onmousedown="handlePan(-1,0)">
                  <use xlink:href="#rim" fill="#404040">
                        <set attributeName="fill" to="#808080" begin="arrowLeft.mouseover" end="arrowLeft.mouseout"/>
                  </use>
                  <path fill="none" stroke="white" stroke-width="1.5" d="M0,-3.0v7 M-2.5,-0.5L0,-3.0L2.5,-0.5"/>
                </g>
        </g>
        <svg viewBox="0 0 15 15" width="100%" height="30px" preserveAspectRatio="xMaxYMin meet">
         <g id="arrow_out" transform="scale(0.3 0.3)">
          <a xlink:href="Transform_8hpp__dep__incl_org.svg" target="_base">
           <rect id="button" ry="5" rx="5" y="6" x="6" height="38" width="38"
                fill="#f2f5e9" fill-opacity="0.5" stroke="#606060" stroke-width="1.0"/>
           <path id="arrow"
             d="M 11.500037,31.436501 C 11.940474,20.09759 22.043105,11.32322 32.158766,21.979434 L 37.068811,17.246167 C 37.068811,17.246167 37.088388,32 37.088388,32 L 22.160133,31.978069 C 22.160133,31.978069 26.997745,27.140456 26.997745,27.140456 C 18.528582,18.264221 13.291696,25.230495 11.500037,31.436501 z"
             style="fill:#404040;"/>
          </a>
         </g>
        </svg>
</svg>
