<?xml version="1.0" encoding="UTF-8" standalone="no"?>
<!DOCTYPE svg PUBLIC "-//W3C//DTD SVG 1.1//EN"
 "http://www.w3.org/Graphics/SVG/1.1/DTD/svg11.dtd">
<!-- Generated by graphviz version 2.38.0 (20140413.2041)
 -->
<!-- Title: WorldParticles::Engine::ShaderProgramManager Pages: 1 -->
<svg width="172pt" height="204pt"
 viewBox="0.00 0.00 172.00 204.00" xmlns="http://www.w3.org/2000/svg" xmlns:xlink="http://www.w3.org/1999/xlink">
<g id="graph0" class="graph" transform="scale(1 1) rotate(0) translate(4 200)">
<title>WorldParticles::Engine::ShaderProgramManager</title>
<!-- Node1 -->
<g id="node1" class="node"><title>Node1</title>
<polygon fill="#bfbfbf" stroke="black" points="15,-0.5 15,-68.5 143,-68.5 143,-0.5 15,-0.5"/>
<text text-anchor="start" x="23" y="-56.5" font-family="Helvetica,sans-Serif" font-size="10.00">WorldParticles::Engine</text>
<text text-anchor="middle" x="79" y="-45.5" font-family="Helvetica,sans-Serif" font-size="10.00">::ShaderProgramManager</text>
<polyline fill="none" stroke="black" points="15,-38.5 143,-38.5 "/>
<text text-anchor="middle" x="79" y="-26.5" font-family="Helvetica,sans-Serif" font-size="10.00"> </text>
<polyline fill="none" stroke="black" points="15,-19.5 143,-19.5 "/>
<text text-anchor="start" x="23" y="-7.5" font-family="Helvetica,sans-Serif" font-size="10.00">+ Get()</text>
</g>
<!-- Node2 -->
<g id="node2" class="node"><title>Node2</title>
<polygon fill="none" stroke="#bfbfbf" points="-1.42109e-14,-116.5 -1.42109e-14,-195.5 158,-195.5 158,-116.5 -1.42109e-14,-116.5"/>
<text text-anchor="start" x="8" y="-183.5" font-family="Helvetica,sans-Serif" font-size="10.00">map&lt; ShaderProgramName,</text>
<text text-anchor="start" x="8" y="-172.5" font-family="Helvetica,sans-Serif" font-size="10.00"> std::shared_ptr&lt; WorldParticles</text>
<text text-anchor="middle" x="79" y="-161.5" font-family="Helvetica,sans-Serif" font-size="10.00">::Engine::ShaderProgram &gt; &gt;</text>
<polyline fill="none" stroke="#bfbfbf" points="-1.42109e-14,-154.5 158,-154.5 "/>
<text text-anchor="middle" x="79" y="-142.5" font-family="Helvetica,sans-Serif" font-size="10.00"> </text>
<polyline fill="none" stroke="#bfbfbf" points="-1.42109e-14,-135.5 158,-135.5 "/>
<text text-anchor="middle" x="79" y="-123.5" font-family="Helvetica,sans-Serif" font-size="10.00"> </text>
</g>
<!-- Node2&#45;&gt;Node1 -->
<g id="edge1" class="edge"><title>Node2&#45;&gt;Node1</title>
<path fill="none" stroke="#404040" d="M79,-116.202C79,-104.991 79,-92.6534 79,-81.0704"/>
<polygon fill="none" stroke="#404040" points="79.0001,-80.8867 75,-74.8867 79,-68.8867 83,-74.8867 79.0001,-80.8867"/>
<text text-anchor="middle" x="121.5" y="-90" font-family="Helvetica,sans-Serif" font-size="10.00"> #_shaderPrograms</text>
</g>
</g>
</svg>
