<?xml version="1.0" encoding="UTF-8" standalone="no"?>
<!DOCTYPE svg PUBLIC "-//W3C//DTD SVG 1.1//EN"
 "http://www.w3.org/Graphics/SVG/1.1/DTD/svg11.dtd">
<!-- Generated by graphviz version 2.38.0 (20140413.2041)
 -->
<!-- Title: Core/MeshLibrary.cpp Pages: 1 -->
<svg width="454pt" height="84pt"
 viewBox="0.00 0.00 453.50 84.00" xmlns="http://www.w3.org/2000/svg" xmlns:xlink="http://www.w3.org/1999/xlink">
<g id="graph0" class="graph" transform="scale(1 1) rotate(0) translate(4 80)">
<title>Core/MeshLibrary.cpp</title>
<!-- Node1 -->
<g id="node1" class="node"><title>Node1</title>
<polygon fill="#bfbfbf" stroke="black" points="142,-56.5 142,-75.5 255,-75.5 255,-56.5 142,-56.5"/>
<text text-anchor="middle" x="198.5" y="-63.5" font-family="Helvetica,sans-Serif" font-size="10.00">Core/MeshLibrary.cpp</text>
</g>
<!-- Node2 -->
<g id="node2" class="node"><title>Node2</title>
<polygon fill="none" stroke="#bfbfbf" points="0,-0.5 0,-19.5 107,-19.5 107,-0.5 0,-0.5"/>
<text text-anchor="middle" x="53.5" y="-7.5" font-family="Helvetica,sans-Serif" font-size="10.00">log4cpp/Category.hh</text>
</g>
<!-- Node1&#45;&gt;Node2 -->
<g id="edge1" class="edge"><title>Node1&#45;&gt;Node2</title>
<path fill="none" stroke="midnightblue" d="M175.524,-56.4435C151.343,-47.4381 113.082,-33.1891 85.8539,-23.049"/>
<polygon fill="midnightblue" stroke="midnightblue" points="86.9609,-19.7265 76.3682,-19.5164 84.5179,-26.2864 86.9609,-19.7265"/>
</g>
<!-- Node3 -->
<g id="node3" class="node"><title>Node3</title>
<polygon fill="none" stroke="#bfbfbf" points="125.5,-0.5 125.5,-19.5 271.5,-19.5 271.5,-0.5 125.5,-0.5"/>
<text text-anchor="middle" x="198.5" y="-7.5" font-family="Helvetica,sans-Serif" font-size="10.00">Engine/Core/MeshLibrary.hpp</text>
</g>
<!-- Node1&#45;&gt;Node3 -->
<g id="edge2" class="edge"><title>Node1&#45;&gt;Node3</title>
<path fill="none" stroke="midnightblue" d="M198.5,-56.083C198.5,-49.0059 198.5,-38.8611 198.5,-29.9865"/>
<polygon fill="midnightblue" stroke="midnightblue" points="202,-29.751 198.5,-19.7511 195,-29.7511 202,-29.751"/>
</g>
<!-- Node4 -->
<g id="node4" class="node"><title>Node4</title>
<polygon fill="none" stroke="#bfbfbf" points="289.5,-0.5 289.5,-19.5 445.5,-19.5 445.5,-0.5 289.5,-0.5"/>
<text text-anchor="middle" x="367.5" y="-7.5" font-family="Helvetica,sans-Serif" font-size="10.00">Engine/Core/MaterialLibrary.hpp</text>
</g>
<!-- Node1&#45;&gt;Node4 -->
<g id="edge3" class="edge"><title>Node1&#45;&gt;Node4</title>
<path fill="none" stroke="midnightblue" d="M225.279,-56.4435C253.833,-47.3196 299.233,-32.8133 331.037,-22.6509"/>
<polygon fill="midnightblue" stroke="midnightblue" points="332.386,-25.8941 340.847,-19.5164 330.256,-19.2262 332.386,-25.8941"/>
</g>
</g>
</svg>
