<?xml version="1.0" encoding="UTF-8" standalone="no"?>
<!DOCTYPE svg PUBLIC "-//W3C//DTD SVG 1.1//EN"
 "http://www.w3.org/Graphics/SVG/1.1/DTD/svg11.dtd">
<!-- Generated by graphviz version 2.38.0 (20140413.2041)
 -->
<!-- Title: engine/MeshLibrary/MeshLibrary.cpp Pages: 1 -->
<svg width="672pt" height="263pt"
 viewBox="0.00 0.00 672.10 263.00" xmlns="http://www.w3.org/2000/svg" xmlns:xlink="http://www.w3.org/1999/xlink">
<g id="graph0" class="graph" transform="scale(1 1) rotate(0) translate(4 259)">
<title>engine/MeshLibrary/MeshLibrary.cpp</title>
<!-- Node1 -->
<g id="node1" class="node"><title>Node1</title>
<polygon fill="#bfbfbf" stroke="black" points="191.439,-224.5 191.439,-254.5 292.439,-254.5 292.439,-224.5 191.439,-224.5"/>
<text text-anchor="start" x="199.439" y="-242.5" font-family="Helvetica,sans-Serif" font-size="10.00">engine/MeshLibrary</text>
<text text-anchor="middle" x="241.939" y="-231.5" font-family="Helvetica,sans-Serif" font-size="10.00">/MeshLibrary.cpp</text>
</g>
<!-- Node2 -->
<g id="node2" class="node"><title>Node2</title>
<polygon fill="none" stroke="#bfbfbf" points="72.4385,-168.5 72.4385,-187.5 179.439,-187.5 179.439,-168.5 72.4385,-168.5"/>
<text text-anchor="middle" x="125.939" y="-175.5" font-family="Helvetica,sans-Serif" font-size="10.00">log4cpp/Category.hh</text>
</g>
<!-- Node1&#45;&gt;Node2 -->
<g id="edge1" class="edge"><title>Node1&#45;&gt;Node2</title>
<path fill="none" stroke="midnightblue" d="M214.448,-224.399C195.507,-214.684 170.496,-201.855 151.895,-192.314"/>
<polygon fill="midnightblue" stroke="midnightblue" points="153.313,-189.108 142.818,-187.658 150.118,-195.336 153.313,-189.108"/>
</g>
<!-- Node3 -->
<g id="node3" class="node"><title>Node3</title>
<g id="a_node3"><a xlink:href="../../dd/de2/MeshLibrary_8hpp.html" target="_top" xlink:title="MeshLibrary.hpp">
<polygon fill="none" stroke="black" points="197.439,-168.5 197.439,-187.5 286.439,-187.5 286.439,-168.5 197.439,-168.5"/>
<text text-anchor="middle" x="241.939" y="-175.5" font-family="Helvetica,sans-Serif" font-size="10.00">MeshLibrary.hpp</text>
</a>
</g>
</g>
<!-- Node1&#45;&gt;Node3 -->
<g id="edge2" class="edge"><title>Node1&#45;&gt;Node3</title>
<path fill="none" stroke="midnightblue" d="M241.939,-224.399C241.939,-216.466 241.939,-206.458 241.939,-197.858"/>
<polygon fill="midnightblue" stroke="midnightblue" points="245.439,-197.658 241.939,-187.658 238.439,-197.658 245.439,-197.658"/>
</g>
<!-- Node13 -->
<g id="node13" class="node"><title>Node13</title>
<g id="a_node13"><a xlink:href="../../d2/d26/MaterialLibrary_8hpp.html" target="_top" xlink:title="MaterialLibrary.hpp">
<polygon fill="none" stroke="black" points="365.439,-168.5 365.439,-187.5 464.439,-187.5 464.439,-168.5 365.439,-168.5"/>
<text text-anchor="middle" x="414.939" y="-175.5" font-family="Helvetica,sans-Serif" font-size="10.00">MaterialLibrary.hpp</text>
</a>
</g>
</g>
<!-- Node1&#45;&gt;Node13 -->
<g id="edge16" class="edge"><title>Node1&#45;&gt;Node13</title>
<path fill="none" stroke="midnightblue" d="M282.937,-224.399C312.571,-214.207 352.165,-200.59 380.237,-190.935"/>
<polygon fill="midnightblue" stroke="midnightblue" points="381.7,-194.133 390.018,-187.571 379.423,-187.514 381.7,-194.133"/>
</g>
<!-- Node4 -->
<g id="node4" class="node"><title>Node4</title>
<g id="a_node4"><a xlink:href="../../df/d67/Library_8hpp.html" target="_top" xlink:title="Library.hpp">
<polygon fill="none" stroke="black" points="45.4385,-112.5 45.4385,-131.5 110.439,-131.5 110.439,-112.5 45.4385,-112.5"/>
<text text-anchor="middle" x="77.9385" y="-119.5" font-family="Helvetica,sans-Serif" font-size="10.00">Library.hpp</text>
</a>
</g>
</g>
<!-- Node3&#45;&gt;Node4 -->
<g id="edge3" class="edge"><title>Node3&#45;&gt;Node4</title>
<path fill="none" stroke="midnightblue" d="M215.952,-168.444C188.243,-159.32 144.186,-144.813 113.323,-134.651"/>
<polygon fill="midnightblue" stroke="midnightblue" points="114.396,-131.32 103.803,-131.516 112.207,-137.968 114.396,-131.32"/>
</g>
<!-- Node7 -->
<g id="node7" class="node"><title>Node7</title>
<g id="a_node7"><a xlink:href="../../d1/d62/Mesh_8hpp.html" target="_top" xlink:title="Mesh.hpp">
<polygon fill="none" stroke="black" points="212.439,-112.5 212.439,-131.5 271.439,-131.5 271.439,-112.5 212.439,-112.5"/>
<text text-anchor="middle" x="241.939" y="-119.5" font-family="Helvetica,sans-Serif" font-size="10.00">Mesh.hpp</text>
</a>
</g>
</g>
<!-- Node3&#45;&gt;Node7 -->
<g id="edge7" class="edge"><title>Node3&#45;&gt;Node7</title>
<path fill="none" stroke="midnightblue" d="M241.939,-168.083C241.939,-161.006 241.939,-150.861 241.939,-141.986"/>
<polygon fill="midnightblue" stroke="midnightblue" points="245.439,-141.751 241.939,-131.751 238.439,-141.751 245.439,-141.751"/>
</g>
<!-- Node4&#45;&gt;Node4 -->
<g id="edge6" class="edge"><title>Node4&#45;&gt;Node4</title>
<path fill="none" stroke="midnightblue" d="M99.4769,-131.525C114.112,-134.308 128.439,-131.133 128.439,-122 128.439,-115.008 120.04,-111.508 109.536,-111.5"/>
<polygon fill="midnightblue" stroke="midnightblue" points="109.093,-108.026 99.4769,-112.475 109.768,-114.994 109.093,-108.026"/>
</g>
<!-- Node5 -->
<g id="node5" class="node"><title>Node5</title>
<polygon fill="none" stroke="#bfbfbf" points="80.9385,-0.5 80.9385,-19.5 124.939,-19.5 124.939,-0.5 80.9385,-0.5"/>
<text text-anchor="middle" x="102.939" y="-7.5" font-family="Helvetica,sans-Serif" font-size="10.00">vector</text>
</g>
<!-- Node4&#45;&gt;Node5 -->
<g id="edge4" class="edge"><title>Node4&#45;&gt;Node5</title>
<path fill="none" stroke="midnightblue" d="M53.6461,-112.392C26.4437,-101.327 -11.8918,-80.5845 3.93852,-56 18.5637,-33.2871 47.7678,-21.9059 70.6847,-16.2847"/>
<polygon fill="midnightblue" stroke="midnightblue" points="71.6795,-19.6498 80.6967,-14.0874 70.1789,-12.8125 71.6795,-19.6498"/>
</g>
<!-- Node6 -->
<g id="node6" class="node"><title>Node6</title>
<polygon fill="none" stroke="#bfbfbf" points="12.9385,-56.5 12.9385,-75.5 74.9385,-75.5 74.9385,-56.5 12.9385,-56.5"/>
<text text-anchor="middle" x="43.9385" y="-63.5" font-family="Helvetica,sans-Serif" font-size="10.00">Library.tpp</text>
</g>
<!-- Node4&#45;&gt;Node6 -->
<g id="edge5" class="edge"><title>Node4&#45;&gt;Node6</title>
<path fill="none" stroke="midnightblue" d="M72.3241,-112.083C67.5711,-104.534 60.6204,-93.4948 54.7869,-84.2298"/>
<polygon fill="midnightblue" stroke="midnightblue" points="57.7385,-82.3486 49.4485,-75.7511 51.8148,-86.0783 57.7385,-82.3486"/>
</g>
<!-- Node7&#45;&gt;Node5 -->
<g id="edge8" class="edge"><title>Node7&#45;&gt;Node5</title>
<path fill="none" stroke="midnightblue" d="M217.618,-112.409C198.42,-104.829 171.674,-92.4301 151.939,-76 135.701,-62.4827 121.718,-42.5857 112.893,-28.3702"/>
<polygon fill="midnightblue" stroke="midnightblue" points="115.778,-26.3738 107.644,-19.5847 109.769,-29.9643 115.778,-26.3738"/>
</g>
<!-- Node8 -->
<g id="node8" class="node"><title>Node8</title>
<polygon fill="none" stroke="#bfbfbf" points="484.939,-56.5 484.939,-75.5 536.939,-75.5 536.939,-56.5 484.939,-56.5"/>
<text text-anchor="middle" x="510.939" y="-63.5" font-family="Helvetica,sans-Serif" font-size="10.00">memory</text>
</g>
<!-- Node7&#45;&gt;Node8 -->
<g id="edge9" class="edge"><title>Node7&#45;&gt;Node8</title>
<path fill="none" stroke="midnightblue" d="M271.611,-115.899C314.328,-108.425 395.835,-93.6769 474.529,-76.2119"/>
<polygon fill="midnightblue" stroke="midnightblue" points="475.613,-79.5559 484.607,-73.9564 474.084,-72.7249 475.613,-79.5559"/>
</g>
<!-- Node9 -->
<g id="node9" class="node"><title>Node9</title>
<polygon fill="none" stroke="#bfbfbf" points="280.939,-0.5 280.939,-19.5 350.939,-19.5 350.939,-0.5 280.939,-0.5"/>
<text text-anchor="middle" x="315.939" y="-7.5" font-family="Helvetica,sans-Serif" font-size="10.00">glm/glm.hpp</text>
</g>
<!-- Node7&#45;&gt;Node9 -->
<g id="edge10" class="edge"><title>Node7&#45;&gt;Node9</title>
<path fill="none" stroke="midnightblue" d="M214.645,-112.471C184.124,-101.486 141.263,-80.8238 159.939,-56 173.334,-38.1938 229.684,-25.2178 270.823,-17.8973"/>
<polygon fill="midnightblue" stroke="midnightblue" points="271.658,-21.3051 280.919,-16.1586 270.47,-14.4067 271.658,-21.3051"/>
</g>
<!-- Node10 -->
<g id="node10" class="node"><title>Node10</title>
<polygon fill="none" stroke="#bfbfbf" points="169.439,-56.5 169.439,-75.5 252.439,-75.5 252.439,-56.5 169.439,-56.5"/>
<text text-anchor="middle" x="210.939" y="-63.5" font-family="Helvetica,sans-Serif" font-size="10.00">assimp/mesh.h</text>
</g>
<!-- Node7&#45;&gt;Node10 -->
<g id="edge11" class="edge"><title>Node7&#45;&gt;Node10</title>
<path fill="none" stroke="midnightblue" d="M236.819,-112.083C232.531,-104.613 226.28,-93.7244 220.996,-84.5199"/>
<polygon fill="midnightblue" stroke="midnightblue" points="223.976,-82.6811 215.962,-75.7511 217.906,-86.1662 223.976,-82.6811"/>
</g>
<!-- Node11 -->
<g id="node11" class="node"><title>Node11</title>
<g id="a_node11"><a xlink:href="../../da/d04/BufferObject_8hpp.html" target="_top" xlink:title="BufferObject.hpp">
<polygon fill="none" stroke="black" points="270.939,-56.5 270.939,-75.5 360.939,-75.5 360.939,-56.5 270.939,-56.5"/>
<text text-anchor="middle" x="315.939" y="-63.5" font-family="Helvetica,sans-Serif" font-size="10.00">BufferObject.hpp</text>
</a>
</g>
</g>
<!-- Node7&#45;&gt;Node11 -->
<g id="edge12" class="edge"><title>Node7&#45;&gt;Node11</title>
<path fill="none" stroke="midnightblue" d="M253.828,-112.324C265.089,-104.107 282.225,-91.6017 295.648,-81.8069"/>
<polygon fill="midnightblue" stroke="midnightblue" points="297.818,-84.5559 303.833,-75.8339 293.692,-78.9014 297.818,-84.5559"/>
</g>
<!-- Node12 -->
<g id="node12" class="node"><title>Node12</title>
<g id="a_node12"><a xlink:href="../../df/d20/ArrayObject_8hpp.html" target="_top" xlink:title="ArrayObject.hpp">
<polygon fill="none" stroke="black" points="379.439,-56.5 379.439,-75.5 466.439,-75.5 466.439,-56.5 379.439,-56.5"/>
<text text-anchor="middle" x="422.939" y="-63.5" font-family="Helvetica,sans-Serif" font-size="10.00">ArrayObject.hpp</text>
</a>
</g>
</g>
<!-- Node7&#45;&gt;Node12 -->
<g id="edge15" class="edge"><title>Node7&#45;&gt;Node12</title>
<path fill="none" stroke="midnightblue" d="M270.619,-112.444C301.465,-103.241 350.667,-88.5617 384.768,-78.3879"/>
<polygon fill="midnightblue" stroke="midnightblue" points="385.811,-81.7293 394.393,-75.5164 383.809,-75.0215 385.811,-81.7293"/>
</g>
<!-- Node11&#45;&gt;Node5 -->
<g id="edge13" class="edge"><title>Node11&#45;&gt;Node5</title>
<path fill="none" stroke="midnightblue" d="M282.188,-56.4435C241.807,-46.2061 174.697,-29.1924 135.054,-19.1421"/>
<polygon fill="midnightblue" stroke="midnightblue" points="135.677,-15.6892 125.123,-16.6243 133.957,-22.4746 135.677,-15.6892"/>
</g>
<!-- Node11&#45;&gt;Node9 -->
<g id="edge14" class="edge"><title>Node11&#45;&gt;Node9</title>
<path fill="none" stroke="midnightblue" d="M315.939,-56.083C315.939,-49.0059 315.939,-38.8611 315.939,-29.9865"/>
<polygon fill="midnightblue" stroke="midnightblue" points="319.439,-29.751 315.939,-19.7511 312.439,-29.7511 319.439,-29.751"/>
</g>
<!-- Node13&#45;&gt;Node4 -->
<g id="edge18" class="edge"><title>Node13&#45;&gt;Node4</title>
<path fill="none" stroke="midnightblue" d="M365.213,-169.032C298.961,-158.416 182.864,-139.813 120.47,-129.815"/>
<polygon fill="midnightblue" stroke="midnightblue" points="120.995,-126.355 110.567,-128.228 119.888,-133.267 120.995,-126.355"/>
</g>
<!-- Node14 -->
<g id="node14" class="node"><title>Node14</title>
<polygon fill="none" stroke="#bfbfbf" points="554.939,-56.5 554.939,-75.5 648.939,-75.5 648.939,-56.5 554.939,-56.5"/>
<text text-anchor="middle" x="601.939" y="-63.5" font-family="Helvetica,sans-Serif" font-size="10.00">assimp/material.h</text>
</g>
<!-- Node13&#45;&gt;Node14 -->
<g id="edge17" class="edge"><title>Node13&#45;&gt;Node14</title>
<path fill="none" stroke="midnightblue" d="M426.574,-168.498C444.476,-155.581 480.05,-130.556 511.939,-112 532.067,-100.287 555.638,-88.5698 573.608,-80.0293"/>
<polygon fill="midnightblue" stroke="midnightblue" points="575.398,-83.0551 582.957,-75.6315 572.419,-76.7209 575.398,-83.0551"/>
</g>
<!-- Node15 -->
<g id="node15" class="node"><title>Node15</title>
<g id="a_node15"><a xlink:href="../../d0/d70/Material_8hpp.html" target="_top" xlink:title="Material.hpp">
<polygon fill="none" stroke="black" points="520.939,-112.5 520.939,-131.5 590.939,-131.5 590.939,-112.5 520.939,-112.5"/>
<text text-anchor="middle" x="555.939" y="-119.5" font-family="Helvetica,sans-Serif" font-size="10.00">Material.hpp</text>
</a>
</g>
</g>
<!-- Node13&#45;&gt;Node15 -->
<g id="edge19" class="edge"><title>Node13&#45;&gt;Node15</title>
<path fill="none" stroke="midnightblue" d="M437.28,-168.444C460.691,-159.478 497.674,-145.314 524.128,-135.183"/>
<polygon fill="midnightblue" stroke="midnightblue" points="525.614,-138.361 533.701,-131.516 523.111,-131.824 525.614,-138.361"/>
</g>
<!-- Node15&#45;&gt;Node8 -->
<g id="edge20" class="edge"><title>Node15&#45;&gt;Node8</title>
<path fill="none" stroke="midnightblue" d="M548.508,-112.083C542.086,-104.377 532.633,-93.0333 524.816,-83.6531"/>
<polygon fill="midnightblue" stroke="midnightblue" points="527.322,-81.1927 518.231,-75.7511 521.944,-85.674 527.322,-81.1927"/>
</g>
<!-- Node15&#45;&gt;Node9 -->
<g id="edge21" class="edge"><title>Node15&#45;&gt;Node9</title>
<path fill="none" stroke="midnightblue" d="M591.043,-112.917C629.082,-102.578 681.407,-82.7588 657.939,-56 638.638,-33.9936 449.346,-19.3539 360.967,-13.6641"/>
<polygon fill="midnightblue" stroke="midnightblue" points="361.162,-10.1695 350.961,-13.0304 360.72,-17.1555 361.162,-10.1695"/>
</g>
<!-- Node15&#45;&gt;Node14 -->
<g id="edge22" class="edge"><title>Node15&#45;&gt;Node14</title>
<path fill="none" stroke="midnightblue" d="M563.534,-112.083C570.166,-104.298 579.959,-92.8015 587.997,-83.3665"/>
<polygon fill="midnightblue" stroke="midnightblue" points="590.664,-85.6332 594.484,-75.7511 585.335,-81.0939 590.664,-85.6332"/>
</g>
</g>
</svg>
