<?xml version="1.0" encoding="UTF-8" standalone="no"?>
<!DOCTYPE svg PUBLIC "-//W3C//DTD SVG 1.1//EN"
 "http://www.w3.org/Graphics/SVG/1.1/DTD/svg11.dtd">
<!-- Generated by graphviz version 2.38.0 (20140413.2041)
 -->
<!-- Title: engine/AnimationLibrary/AnimationLibrary.hpp Pages: 1 -->
<svg width="293pt" height="151pt"
 viewBox="0.00 0.00 292.50 151.00" xmlns="http://www.w3.org/2000/svg" xmlns:xlink="http://www.w3.org/1999/xlink">
<g id="graph0" class="graph" transform="scale(1 1) rotate(0) translate(4 147)">
<title>engine/AnimationLibrary/AnimationLibrary.hpp</title>
<!-- Node1 -->
<g id="node1" class="node"><title>Node1</title>
<polygon fill="#bfbfbf" stroke="black" points="116.5,-112.5 116.5,-142.5 237.5,-142.5 237.5,-112.5 116.5,-112.5"/>
<text text-anchor="start" x="124.5" y="-130.5" font-family="Helvetica,sans-Serif" font-size="10.00">engine/AnimationLibrary</text>
<text text-anchor="middle" x="177" y="-119.5" font-family="Helvetica,sans-Serif" font-size="10.00">/AnimationLibrary.hpp</text>
</g>
<!-- Node2 -->
<g id="node2" class="node"><title>Node2</title>
<polygon fill="none" stroke="#bfbfbf" points="142,-0.5 142,-19.5 222,-19.5 222,-0.5 142,-0.5"/>
<text text-anchor="middle" x="182" y="-7.5" font-family="Helvetica,sans-Serif" font-size="10.00">assimp/anim.h</text>
</g>
<!-- Node1&#45;&gt;Node2 -->
<g id="edge1" class="edge"><title>Node1&#45;&gt;Node2</title>
<path fill="none" stroke="midnightblue" d="M177.613,-112.337C178.51,-91.6217 180.181,-53.0162 181.182,-29.8991"/>
<polygon fill="midnightblue" stroke="midnightblue" points="184.689,-29.8115 181.625,-19.6695 177.695,-29.5087 184.689,-29.8115"/>
</g>
<!-- Node3 -->
<g id="node3" class="node"><title>Node3</title>
<g id="a_node3"><a xlink:href="../../df/d67/Library_8hpp.html" target="_top" xlink:title="Library.hpp">
<polygon fill="none" stroke="black" points="60.5,-56.5 60.5,-75.5 125.5,-75.5 125.5,-56.5 60.5,-56.5"/>
<text text-anchor="middle" x="93" y="-63.5" font-family="Helvetica,sans-Serif" font-size="10.00">Library.hpp</text>
</a>
</g>
</g>
<!-- Node1&#45;&gt;Node3 -->
<g id="edge2" class="edge"><title>Node1&#45;&gt;Node3</title>
<path fill="none" stroke="midnightblue" d="M157.093,-112.399C144.006,-103.129 126.918,-91.0254 113.678,-81.6469"/>
<polygon fill="midnightblue" stroke="midnightblue" points="115.406,-78.5819 105.223,-75.6578 111.36,-84.2941 115.406,-78.5819"/>
</g>
<!-- Node6 -->
<g id="node6" class="node"><title>Node6</title>
<g id="a_node6"><a xlink:href="../../d0/d36/Animation_8hpp.html" target="_top" xlink:title="Animation.hpp">
<polygon fill="none" stroke="black" points="205.5,-56.5 205.5,-75.5 284.5,-75.5 284.5,-56.5 205.5,-56.5"/>
<text text-anchor="middle" x="245" y="-63.5" font-family="Helvetica,sans-Serif" font-size="10.00">Animation.hpp</text>
</a>
</g>
</g>
<!-- Node1&#45;&gt;Node6 -->
<g id="edge6" class="edge"><title>Node1&#45;&gt;Node6</title>
<path fill="none" stroke="midnightblue" d="M193.115,-112.399C203.404,-103.397 216.747,-91.7214 227.326,-82.4652"/>
<polygon fill="midnightblue" stroke="midnightblue" points="229.884,-84.8769 235.105,-75.6578 225.275,-79.6088 229.884,-84.8769"/>
</g>
<!-- Node3&#45;&gt;Node3 -->
<g id="edge5" class="edge"><title>Node3&#45;&gt;Node3</title>
<path fill="none" stroke="midnightblue" d="M114.538,-75.5252C129.173,-78.3079 143.5,-75.1328 143.5,-66 143.5,-59.0077 135.102,-55.5077 124.597,-55.5"/>
<polygon fill="midnightblue" stroke="midnightblue" points="124.154,-52.0265 114.538,-56.4748 124.829,-58.9938 124.154,-52.0265"/>
</g>
<!-- Node4 -->
<g id="node4" class="node"><title>Node4</title>
<polygon fill="none" stroke="#bfbfbf" points="0,-0.5 0,-19.5 44,-19.5 44,-0.5 0,-0.5"/>
<text text-anchor="middle" x="22" y="-7.5" font-family="Helvetica,sans-Serif" font-size="10.00">vector</text>
</g>
<!-- Node3&#45;&gt;Node4 -->
<g id="edge3" class="edge"><title>Node3&#45;&gt;Node4</title>
<path fill="none" stroke="midnightblue" d="M81.5926,-56.324C70.8912,-48.1849 54.6593,-35.8395 41.8372,-26.0874"/>
<polygon fill="midnightblue" stroke="midnightblue" points="43.6932,-23.1018 33.6149,-19.8339 39.4556,-28.6734 43.6932,-23.1018"/>
</g>
<!-- Node5 -->
<g id="node5" class="node"><title>Node5</title>
<polygon fill="none" stroke="#bfbfbf" points="62,-0.5 62,-19.5 124,-19.5 124,-0.5 62,-0.5"/>
<text text-anchor="middle" x="93" y="-7.5" font-family="Helvetica,sans-Serif" font-size="10.00">Library.tpp</text>
</g>
<!-- Node3&#45;&gt;Node5 -->
<g id="edge4" class="edge"><title>Node3&#45;&gt;Node5</title>
<path fill="none" stroke="midnightblue" d="M93,-56.083C93,-49.0059 93,-38.8611 93,-29.9865"/>
<polygon fill="midnightblue" stroke="midnightblue" points="96.5001,-29.751 93,-19.7511 89.5001,-29.7511 96.5001,-29.751"/>
</g>
<!-- Node6&#45;&gt;Node2 -->
<g id="edge7" class="edge"><title>Node6&#45;&gt;Node2</title>
<path fill="none" stroke="midnightblue" d="M234.878,-56.324C225.474,-48.2631 211.256,-36.0765 199.931,-26.3695"/>
<polygon fill="midnightblue" stroke="midnightblue" points="202.177,-23.6844 192.306,-19.8339 197.621,-28.9993 202.177,-23.6844"/>
</g>
<!-- Node7 -->
<g id="node7" class="node"><title>Node7</title>
<polygon fill="none" stroke="#bfbfbf" points="240.5,-0.5 240.5,-19.5 281.5,-19.5 281.5,-0.5 240.5,-0.5"/>
<text text-anchor="middle" x="261" y="-7.5" font-family="Helvetica,sans-Serif" font-size="10.00">string</text>
</g>
<!-- Node6&#45;&gt;Node7 -->
<g id="edge8" class="edge"><title>Node6&#45;&gt;Node7</title>
<path fill="none" stroke="midnightblue" d="M247.642,-56.083C249.786,-48.8486 252.879,-38.4087 255.549,-29.3968"/>
<polygon fill="midnightblue" stroke="midnightblue" points="258.922,-30.3334 258.407,-19.7511 252.21,-28.3447 258.922,-30.3334"/>
</g>
</g>
</svg>
