<?xml version="1.0" encoding="UTF-8" standalone="no"?>
<!DOCTYPE svg PUBLIC "-//W3C//DTD SVG 1.1//EN"
 "http://www.w3.org/Graphics/SVG/1.1/DTD/svg11.dtd">
<!-- Generated by graphviz version 2.38.0 (20140413.2041)
 -->
<!-- Title: engine/AssimpScene/AssimpScene.hpp Pages: 1 -->
<svg width="148pt" height="95pt"
 viewBox="0.00 0.00 147.50 95.00" xmlns="http://www.w3.org/2000/svg" xmlns:xlink="http://www.w3.org/1999/xlink">
<g id="graph0" class="graph" transform="scale(1 1) rotate(0) translate(4 91)">
<title>engine/AssimpScene/AssimpScene.hpp</title>
<!-- Node1 -->
<g id="node1" class="node"><title>Node1</title>
<polygon fill="#bfbfbf" stroke="black" points="27.5,-56.5 27.5,-86.5 136.5,-86.5 136.5,-56.5 27.5,-56.5"/>
<text text-anchor="start" x="35.5" y="-74.5" font-family="Helvetica,sans-Serif" font-size="10.00">engine/AssimpScene</text>
<text text-anchor="middle" x="82" y="-63.5" font-family="Helvetica,sans-Serif" font-size="10.00">/AssimpScene.hpp</text>
</g>
<!-- Node2 -->
<g id="node2" class="node"><title>Node2</title>
<polygon fill="none" stroke="#bfbfbf" points="0,-0.5 0,-19.5 86,-19.5 86,-0.5 0,-0.5"/>
<text text-anchor="middle" x="43" y="-7.5" font-family="Helvetica,sans-Serif" font-size="10.00">assimp/scene.h</text>
</g>
<!-- Node1&#45;&gt;Node2 -->
<g id="edge1" class="edge"><title>Node1&#45;&gt;Node2</title>
<path fill="none" stroke="midnightblue" d="M72.7575,-56.3993C67.2072,-47.9315 60.107,-37.0991 54.2342,-28.1393"/>
<polygon fill="midnightblue" stroke="midnightblue" points="57.0841,-26.1026 48.6748,-19.6578 51.2296,-29.94 57.0841,-26.1026"/>
</g>
<!-- Node3 -->
<g id="node3" class="node"><title>Node3</title>
<polygon fill="none" stroke="#bfbfbf" points="104.5,-0.5 104.5,-19.5 139.5,-19.5 139.5,-0.5 104.5,-0.5"/>
<text text-anchor="middle" x="122" y="-7.5" font-family="Helvetica,sans-Serif" font-size="10.00">map</text>
</g>
<!-- Node1&#45;&gt;Node3 -->
<g id="edge2" class="edge"><title>Node1&#45;&gt;Node3</title>
<path fill="none" stroke="midnightblue" d="M91.4794,-56.3993C97.1721,-47.9315 104.454,-37.0991 110.478,-28.1393"/>
<polygon fill="midnightblue" stroke="midnightblue" points="113.505,-29.9095 116.18,-19.6578 107.696,-26.0041 113.505,-29.9095"/>
</g>
</g>
</svg>
