<?xml version="1.0" encoding="UTF-8" standalone="no"?>
<!DOCTYPE svg PUBLIC "-//W3C//DTD SVG 1.1//EN"
 "http://www.w3.org/Graphics/SVG/1.1/DTD/svg11.dtd">
<!-- Generated by graphviz version 2.38.0 (20140413.2041)
 -->
<!-- Title: engine/Material/Material.hpp Pages: 1 -->
<!--zoomable 475 -->
<svg id="main" version="1.1" xmlns="http://www.w3.org/2000/svg" xmlns:xlink="http://www.w3.org/1999/xlink" xml:space="preserve" onload="init(evt)">
<style type="text/css"><![CDATA[
.edge:hover path { stroke: red; }
.edge:hover polygon { stroke: red; fill: red; }
]]></style>
<script type="text/javascript"><![CDATA[
var edges = document.getElementsByTagName('g');
if (edges && edges.length) {
  for (var i=0;i<edges.length;i++) {
    if (edges[i].id.substr(0,4)=='edge') {
      edges[i].setAttribute('class','edge');
    }
  }
}
]]></script>
        <defs>
                <circle id="rim" cx="0" cy="0" r="7"/>
                <circle id="rim2" cx="0" cy="0" r="3.5"/>
                <g id="zoomPlus">
                        <use xlink:href="#rim" fill="#404040">
                                <set attributeName="fill" to="#808080" begin="zoomplus.mouseover" end="zoomplus.mouseout"/>
                        </use>
                        <path d="M-4,0h8M0,-4v8" fill="none" stroke="white" stroke-width="1.5" pointer-events="none"/>
                </g>
                <g id="zoomMin">
                        <use xlink:href="#rim" fill="#404040">
                                <set attributeName="fill" to="#808080" begin="zoomminus.mouseover" end="zoomminus.mouseout"/>
                        </use>
                        <path d="M-4,0h8" fill="none" stroke="white" stroke-width="1.5" pointer-events="none"/>
                </g>
                <g id="dirArrow">
                        <path fill="none" stroke="white" stroke-width="1.5" d="M0,-3.0v7 M-2.5,-0.5L0,-3.0L2.5,-0.5"/>
                </g>
               <g id="resetDef">
                       <use xlink:href="#rim2" fill="#404040">
                               <set attributeName="fill" to="#808080" begin="reset.mouseover" end="reset.mouseout"/>
                       </use>
               </g>
        </defs>

<script type="text/javascript">
var viewWidth = 1370;
var viewHeight = 475;
var sectionId = 'dynsection-1';
</script>
<script xlink:href="../../svgpan.js"/>
<svg id="graph" class="graph">
<g id="viewport">
<title>engine/Material/Material.hpp</title>
<!-- Node1 -->
<g id="node1" class="node"><title>Node1</title>
<polygon fill="#bfbfbf" stroke="black" points="1065,-447.5 1065,-466.5 1204,-466.5 1204,-447.5 1065,-447.5"/>
<text text-anchor="middle" x="1134.5" y="-454.5" font-family="Helvetica,sans-Serif" font-size="10.00">engine/Material/Material.hpp</text>
</g>
<!-- Node2 -->
<g id="node2" class="node"><title>Node2</title>
<g id="a_node2"><a xlink:href="../../d4/db5/GameObject_8hpp.html" target="_top" xlink:title="engine/GameObject/GameObject.hpp">
<polygon fill="none" stroke="black" points="957,-391.5 957,-410.5 1136,-410.5 1136,-391.5 957,-391.5"/>
<text text-anchor="middle" x="1046.5" y="-398.5" font-family="Helvetica,sans-Serif" font-size="10.00">engine/GameObject/GameObject.hpp</text>
</a>
</g>
</g>
<!-- Node1&#45;&gt;Node2 -->
<g id="edge1" class="edge"><title>Node1&#45;&gt;Node2</title>
<path fill="none" stroke="midnightblue" d="M1111.52,-441.901C1095.39,-431.999 1074.32,-419.071 1060.6,-410.655"/>
<polygon fill="midnightblue" stroke="midnightblue" points="1110.01,-445.077 1120.36,-447.324 1113.67,-439.111 1110.01,-445.077"/>
</g>
<!-- Node26 -->
<g id="node26" class="node"><title>Node26</title>
<g id="a_node26"><a xlink:href="../../d4/d0f/Material_8cpp.html" target="_top" xlink:title="engine/Material/Material.cpp">
<polygon fill="none" stroke="black" points="1154,-391.5 1154,-410.5 1293,-410.5 1293,-391.5 1154,-391.5"/>
<text text-anchor="middle" x="1223.5" y="-398.5" font-family="Helvetica,sans-Serif" font-size="10.00">engine/Material/Material.cpp</text>
</a>
</g>
</g>
<!-- Node1&#45;&gt;Node26 -->
<g id="edge33" class="edge"><title>Node1&#45;&gt;Node26</title>
<path fill="none" stroke="midnightblue" d="M1157.74,-441.901C1174.06,-431.999 1195.37,-419.071 1209.24,-410.655"/>
<polygon fill="midnightblue" stroke="midnightblue" points="1155.53,-439.144 1148.8,-447.324 1159.16,-445.129 1155.53,-439.144"/>
</g>
<!-- Node3 -->
<g id="node3" class="node"><title>Node3</title>
<g id="a_node3"><a xlink:href="../../d6/d80/Camera_8hpp.html" target="_top" xlink:title="engine/Camera/Camera.hpp">
<polygon fill="none" stroke="black" points="761,-330 761,-349 900,-349 900,-330 761,-330"/>
<text text-anchor="middle" x="830.5" y="-337" font-family="Helvetica,sans-Serif" font-size="10.00">engine/Camera/Camera.hpp</text>
</a>
</g>
</g>
<!-- Node2&#45;&gt;Node3 -->
<g id="edge2" class="edge"><title>Node2&#45;&gt;Node3</title>
<path fill="none" stroke="midnightblue" d="M1005.66,-388.749C963.692,-377.189 899.297,-359.451 861.39,-349.009"/>
<polygon fill="midnightblue" stroke="midnightblue" points="1004.98,-392.194 1015.55,-391.475 1006.84,-385.445 1004.98,-392.194"/>
</g>
<!-- Node5 -->
<g id="node5" class="node"><title>Node5</title>
<g id="a_node5"><a xlink:href="../../db/de8/Scene_8hpp.html" target="_top" xlink:title="engine/Scene/Scene.hpp">
<polygon fill="none" stroke="black" points="866,-263 866,-282 991,-282 991,-263 866,-263"/>
<text text-anchor="middle" x="928.5" y="-270" font-family="Helvetica,sans-Serif" font-size="10.00">engine/Scene/Scene.hpp</text>
</a>
</g>
</g>
<!-- Node2&#45;&gt;Node5 -->
<g id="edge32" class="edge"><title>Node2&#45;&gt;Node5</title>
<path fill="none" stroke="midnightblue" d="M999.274,-387.994C981.012,-381.129 961.438,-370.66 948.5,-355 930.684,-333.435 928.342,-298.374 928.284,-282.191"/>
<polygon fill="midnightblue" stroke="midnightblue" points="998.352,-391.379 1008.95,-391.356 1000.65,-384.767 998.352,-391.379"/>
</g>
<!-- Node21 -->
<g id="node21" class="node"><title>Node21</title>
<g id="a_node21"><a xlink:href="../../d4/d2b/GameObject_8cpp.html" target="_top" xlink:title="engine/GameObject/GameObject.cpp">
<polygon fill="none" stroke="black" points="957,-330 957,-349 1136,-349 1136,-330 957,-330"/>
<text text-anchor="middle" x="1046.5" y="-337" font-family="Helvetica,sans-Serif" font-size="10.00">engine/GameObject/GameObject.cpp</text>
</a>
</g>
</g>
<!-- Node2&#45;&gt;Node21 -->
<g id="edge24" class="edge"><title>Node2&#45;&gt;Node21</title>
<path fill="none" stroke="midnightblue" d="M1046.5,-381.317C1046.5,-370.496 1046.5,-357.398 1046.5,-349.009"/>
<polygon fill="midnightblue" stroke="midnightblue" points="1043,-381.475 1046.5,-391.475 1050,-381.475 1043,-381.475"/>
</g>
<!-- Node22 -->
<g id="node22" class="node"><title>Node22</title>
<g id="a_node22"><a xlink:href="../../df/d6e/Model_8hpp.html" target="_top" xlink:title="engine/GameObject/Model\l/Model.hpp">
<polygon fill="none" stroke="black" points="1216.5,-324.5 1216.5,-354.5 1348.5,-354.5 1348.5,-324.5 1216.5,-324.5"/>
<text text-anchor="start" x="1224.5" y="-342.5" font-family="Helvetica,sans-Serif" font-size="10.00">engine/GameObject/Model</text>
<text text-anchor="middle" x="1282.5" y="-331.5" font-family="Helvetica,sans-Serif" font-size="10.00">/Model.hpp</text>
</a>
</g>
</g>
<!-- Node2&#45;&gt;Node22 -->
<g id="edge25" class="edge"><title>Node2&#45;&gt;Node22</title>
<path fill="none" stroke="midnightblue" d="M1090.2,-388.983C1128.74,-379.265 1185.12,-365.05 1226.88,-354.523"/>
<polygon fill="midnightblue" stroke="midnightblue" points="1089.15,-385.637 1080.31,-391.475 1090.87,-392.424 1089.15,-385.637"/>
</g>
<!-- Node24 -->
<g id="node24" class="node"><title>Node24</title>
<g id="a_node24"><a xlink:href="../../d4/dd0/Cube_8hpp.html" target="_top" xlink:title="engine/Primitives/Cube\l/Cube.hpp">
<polygon fill="none" stroke="black" points="1080.5,-257.5 1080.5,-287.5 1198.5,-287.5 1198.5,-257.5 1080.5,-257.5"/>
<text text-anchor="start" x="1088.5" y="-275.5" font-family="Helvetica,sans-Serif" font-size="10.00">engine/Primitives/Cube</text>
<text text-anchor="middle" x="1139.5" y="-264.5" font-family="Helvetica,sans-Serif" font-size="10.00">/Cube.hpp</text>
</a>
</g>
</g>
<!-- Node2&#45;&gt;Node24 -->
<g id="edge28" class="edge"><title>Node2&#45;&gt;Node24</title>
<path fill="none" stroke="midnightblue" d="M1100.17,-388.084C1117.65,-381.383 1135.19,-371.005 1145.5,-355 1158.63,-334.602 1151.54,-305.091 1145.39,-287.742"/>
<polygon fill="midnightblue" stroke="midnightblue" points="1098.8,-384.853 1090.51,-391.441 1101.1,-391.465 1098.8,-384.853"/>
</g>
<!-- Node4 -->
<g id="node4" class="node"><title>Node4</title>
<g id="a_node4"><a xlink:href="../../da/d8c/Camera_8cpp.html" target="_top" xlink:title="engine/Camera/Camera.cpp">
<polygon fill="none" stroke="black" points="0,-62 0,-81 139,-81 139,-62 0,-62"/>
<text text-anchor="middle" x="69.5" y="-69" font-family="Helvetica,sans-Serif" font-size="10.00">engine/Camera/Camera.cpp</text>
</a>
</g>
</g>
<!-- Node3&#45;&gt;Node4 -->
<g id="edge3" class="edge"><title>Node3&#45;&gt;Node4</title>
<path fill="none" stroke="midnightblue" d="M796.221,-326.518C666.209,-281.074 205.266,-119.956 93.867,-81.0172"/>
<polygon fill="midnightblue" stroke="midnightblue" points="795.447,-329.955 806.042,-329.951 797.757,-323.347 795.447,-329.955"/>
</g>
<!-- Node3&#45;&gt;Node5 -->
<g id="edge4" class="edge"><title>Node3&#45;&gt;Node5</title>
<path fill="none" stroke="midnightblue" d="M852.219,-324.095C871.606,-311.236 899.355,-292.831 915.493,-282.127"/>
<polygon fill="midnightblue" stroke="midnightblue" points="850.116,-321.29 843.717,-329.734 853.985,-327.123 850.116,-321.29"/>
</g>
<!-- Node6 -->
<g id="node6" class="node"><title>Node6</title>
<g id="a_node6"><a xlink:href="../../d0/dbd/AssimpImporter_8hpp.html" target="_top" xlink:title="engine/AssimpImporter\l/AssimpImporter.hpp">
<polygon fill="none" stroke="black" points="904,-190.5 904,-220.5 1021,-220.5 1021,-190.5 904,-190.5"/>
<text text-anchor="start" x="912" y="-208.5" font-family="Helvetica,sans-Serif" font-size="10.00">engine/AssimpImporter</text>
<text text-anchor="middle" x="962.5" y="-197.5" font-family="Helvetica,sans-Serif" font-size="10.00">/AssimpImporter.hpp</text>
</a>
</g>
</g>
<!-- Node5&#45;&gt;Node6 -->
<g id="edge5" class="edge"><title>Node5&#45;&gt;Node6</title>
<path fill="none" stroke="midnightblue" d="M937.804,-253.713C943.257,-243.287 950.05,-230.301 955.13,-220.589"/>
<polygon fill="midnightblue" stroke="midnightblue" points="934.619,-252.251 933.085,-262.734 940.822,-255.495 934.619,-252.251"/>
</g>
<!-- Node9 -->
<g id="node9" class="node"><title>Node9</title>
<g id="a_node9"><a xlink:href="../../d4/d1c/GameEngine_8hpp.html" target="_top" xlink:title="engine/GameEngine/GameEngine.hpp">
<polygon fill="none" stroke="black" points="643.5,-196 643.5,-215 825.5,-215 825.5,-196 643.5,-196"/>
<text text-anchor="middle" x="734.5" y="-203" font-family="Helvetica,sans-Serif" font-size="10.00">engine/GameEngine/GameEngine.hpp</text>
</a>
</g>
</g>
<!-- Node5&#45;&gt;Node9 -->
<g id="edge8" class="edge"><title>Node5&#45;&gt;Node9</title>
<path fill="none" stroke="midnightblue" d="M892.987,-259.601C854.523,-246.714 794.111,-226.473 760.059,-215.064"/>
<polygon fill="midnightblue" stroke="midnightblue" points="892.144,-263.01 902.738,-262.869 894.368,-256.373 892.144,-263.01"/>
</g>
<!-- Node20 -->
<g id="node20" class="node"><title>Node20</title>
<g id="a_node20"><a xlink:href="../../de/d15/Scene_8cpp.html" target="_top" xlink:title="engine/Scene/Scene.cpp">
<polygon fill="none" stroke="black" points="1039,-196 1039,-215 1164,-215 1164,-196 1039,-196"/>
<text text-anchor="middle" x="1101.5" y="-203" font-family="Helvetica,sans-Serif" font-size="10.00">engine/Scene/Scene.cpp</text>
</a>
</g>
</g>
<!-- Node5&#45;&gt;Node20 -->
<g id="edge23" class="edge"><title>Node5&#45;&gt;Node20</title>
<path fill="none" stroke="midnightblue" d="M961.049,-259.271C995.385,-246.37 1048.6,-226.376 1078.71,-215.064"/>
<polygon fill="midnightblue" stroke="midnightblue" points="959.603,-256.075 951.473,-262.869 962.065,-262.628 959.603,-256.075"/>
</g>
<!-- Node7 -->
<g id="node7" class="node"><title>Node7</title>
<g id="a_node7"><a xlink:href="../../d4/d7f/AssimpImporter_8cpp.html" target="_top" xlink:title="engine/AssimpImporter\l/AssimpImporter.cpp">
<polygon fill="none" stroke="black" points="1034,-123.5 1034,-153.5 1151,-153.5 1151,-123.5 1034,-123.5"/>
<text text-anchor="start" x="1042" y="-141.5" font-family="Helvetica,sans-Serif" font-size="10.00">engine/AssimpImporter</text>
<text text-anchor="middle" x="1092.5" y="-130.5" font-family="Helvetica,sans-Serif" font-size="10.00">/AssimpImporter.cpp</text>
</a>
</g>
</g>
<!-- Node6&#45;&gt;Node7 -->
<g id="edge6" class="edge"><title>Node6&#45;&gt;Node7</title>
<path fill="none" stroke="midnightblue" d="M999.793,-185.853C1020.35,-175.576 1045.45,-163.025 1064.35,-153.577"/>
<polygon fill="midnightblue" stroke="midnightblue" points="998.087,-182.793 990.708,-190.396 1001.22,-189.054 998.087,-182.793"/>
</g>
<!-- Node8 -->
<g id="node8" class="node"><title>Node8</title>
<g id="a_node8"><a xlink:href="../../dd/d98/GameEngine_8cpp.html" target="_top" xlink:title="engine/GameEngine/GameEngine.cpp">
<polygon fill="none" stroke="black" points="1161.5,-62 1161.5,-81 1343.5,-81 1343.5,-62 1161.5,-62"/>
<text text-anchor="middle" x="1252.5" y="-69" font-family="Helvetica,sans-Serif" font-size="10.00">engine/GameEngine/GameEngine.cpp</text>
</a>
</g>
</g>
<!-- Node6&#45;&gt;Node8 -->
<g id="edge7" class="edge"><title>Node6&#45;&gt;Node8</title>
<path fill="none" stroke="midnightblue" d="M974.375,-181.44C985.187,-162.791 1002.9,-137.353 1025.5,-123 1052.94,-105.576 1135.65,-90.0945 1193.25,-81.0034"/>
<polygon fill="midnightblue" stroke="midnightblue" points="971.292,-179.783 969.495,-190.225 977.411,-183.182 971.292,-179.783"/>
</g>
<!-- Node9&#45;&gt;Node8 -->
<g id="edge9" class="edge"><title>Node9&#45;&gt;Node8</title>
<path fill="none" stroke="midnightblue" d="M767.611,-192.449C815.739,-175.26 908.062,-143.518 988.5,-123 1059.94,-104.777 1143.76,-89.8116 1197.47,-81.0241"/>
<polygon fill="midnightblue" stroke="midnightblue" points="766.262,-189.214 758.033,-195.886 768.627,-195.803 766.262,-189.214"/>
</g>
<!-- Node10 -->
<g id="node10" class="node"><title>Node10</title>
<g id="a_node10"><a xlink:href="../../d1/d2a/glwindow_8h.html" target="_top" xlink:title="window/glwindow.h">
<polygon fill="none" stroke="black" points="683,-129 683,-148 784,-148 784,-129 683,-129"/>
<text text-anchor="middle" x="733.5" y="-136" font-family="Helvetica,sans-Serif" font-size="10.00">window/glwindow.h</text>
</a>
</g>
</g>
<!-- Node9&#45;&gt;Node10 -->
<g id="edge10" class="edge"><title>Node9&#45;&gt;Node10</title>
<path fill="none" stroke="midnightblue" d="M734.208,-185.537C734.018,-173.17 733.779,-157.62 733.633,-148.127"/>
<polygon fill="midnightblue" stroke="midnightblue" points="730.712,-185.789 734.365,-195.734 737.711,-185.681 730.712,-185.789"/>
</g>
<!-- Node16 -->
<g id="node16" class="node"><title>Node16</title>
<g id="a_node16"><a xlink:href="../../d3/d1f/glwindow_8cpp.html" target="_top" xlink:title="window/glwindow.cpp">
<polygon fill="none" stroke="black" points="157.5,-62 157.5,-81 269.5,-81 269.5,-62 157.5,-62"/>
<text text-anchor="middle" x="213.5" y="-69" font-family="Helvetica,sans-Serif" font-size="10.00">window/glwindow.cpp</text>
</a>
</g>
</g>
<!-- Node9&#45;&gt;Node16 -->
<g id="edge22" class="edge"><title>Node9&#45;&gt;Node16</title>
<path fill="none" stroke="midnightblue" d="M690.776,-193.422C589.047,-167.648 338.242,-104.104 247.206,-81.0398"/>
<polygon fill="midnightblue" stroke="midnightblue" points="690.164,-196.878 700.717,-195.941 691.883,-190.092 690.164,-196.878"/>
</g>
<!-- Node10&#45;&gt;Node4 -->
<g id="edge12" class="edge"><title>Node10&#45;&gt;Node4</title>
<path fill="none" stroke="midnightblue" d="M672.61,-134.163C566.039,-127.896 338.913,-112.634 148.5,-87 136.615,-85.4 123.8,-83.2386 112.021,-81.0736"/>
<polygon fill="midnightblue" stroke="midnightblue" points="672.663,-137.672 682.85,-134.76 673.07,-130.684 672.663,-137.672"/>
</g>
<!-- Node10&#45;&gt;Node8 -->
<g id="edge13" class="edge"><title>Node10&#45;&gt;Node8</title>
<path fill="none" stroke="midnightblue" d="M794.266,-130.64C875.833,-121.326 1025.21,-103.897 1152.5,-87 1166.41,-85.1533 1181.39,-83.0447 1195.42,-81.0184"/>
<polygon fill="midnightblue" stroke="midnightblue" points="793.719,-127.18 784.18,-131.79 794.512,-134.135 793.719,-127.18"/>
</g>
<!-- Node11 -->
<g id="node11" class="node"><title>Node11</title>
<g id="a_node11"><a xlink:href="../../db/d2b/BufferObject_8cpp.html" target="_top" xlink:title="engine/BufferObject\l/BufferObject.cpp">
<polygon fill="none" stroke="black" points="1040,-56.5 1040,-86.5 1143,-86.5 1143,-56.5 1040,-56.5"/>
<text text-anchor="start" x="1048" y="-74.5" font-family="Helvetica,sans-Serif" font-size="10.00">engine/BufferObject</text>
<text text-anchor="middle" x="1091.5" y="-63.5" font-family="Helvetica,sans-Serif" font-size="10.00">/BufferObject.cpp</text>
</a>
</g>
</g>
<!-- Node10&#45;&gt;Node11 -->
<g id="edge11" class="edge"><title>Node10&#45;&gt;Node11</title>
<path fill="none" stroke="midnightblue" d="M794.173,-128.479C854.551,-119.206 949.746,-103.785 1031.5,-87 1034.23,-86.4396 1037.02,-85.8435 1039.84,-85.2247"/>
<polygon fill="midnightblue" stroke="midnightblue" points="793.409,-125.055 784.053,-130.026 794.467,-131.975 793.409,-125.055"/>
</g>
<!-- Node12 -->
<g id="node12" class="node"><title>Node12</title>
<g id="a_node12"><a xlink:href="../../d2/dcc/Mesh_8cpp.html" target="_top" xlink:title="engine/Mesh/Mesh.cpp">
<polygon fill="none" stroke="black" points="287.5,-62 287.5,-81 405.5,-81 405.5,-62 287.5,-62"/>
<text text-anchor="middle" x="346.5" y="-69" font-family="Helvetica,sans-Serif" font-size="10.00">engine/Mesh/Mesh.cpp</text>
</a>
</g>
</g>
<!-- Node10&#45;&gt;Node12 -->
<g id="edge14" class="edge"><title>Node10&#45;&gt;Node12</title>
<path fill="none" stroke="midnightblue" d="M672.839,-128.876C608.543,-119.506 504.115,-103.636 414.5,-87 404.887,-85.2154 394.549,-83.1085 384.908,-81.0619"/>
<polygon fill="midnightblue" stroke="midnightblue" points="672.406,-132.35 682.805,-130.323 673.412,-125.422 672.406,-132.35"/>
</g>
<!-- Node13 -->
<g id="node13" class="node"><title>Node13</title>
<g id="a_node13"><a xlink:href="../../da/d3d/BasicRenderer_8cpp.html" target="_top" xlink:title="engine/Renderer/BasicRenderer\l/BasicRenderer.cpp">
<polygon fill="none" stroke="black" points="424,-56.5 424,-86.5 579,-86.5 579,-56.5 424,-56.5"/>
<text text-anchor="start" x="432" y="-74.5" font-family="Helvetica,sans-Serif" font-size="10.00">engine/Renderer/BasicRenderer</text>
<text text-anchor="middle" x="501.5" y="-63.5" font-family="Helvetica,sans-Serif" font-size="10.00">/BasicRenderer.cpp</text>
</a>
</g>
</g>
<!-- Node10&#45;&gt;Node13 -->
<g id="edge15" class="edge"><title>Node10&#45;&gt;Node13</title>
<path fill="none" stroke="midnightblue" d="M692.91,-126.128C653.578,-115.108 593.833,-98.3692 551.569,-86.5281"/>
<polygon fill="midnightblue" stroke="midnightblue" points="692.119,-129.541 702.692,-128.869 694.007,-122.8 692.119,-129.541"/>
</g>
<!-- Node14 -->
<g id="node14" class="node"><title>Node14</title>
<g id="a_node14"><a xlink:href="../../dd/d84/Shader_8cpp.html" target="_top" xlink:title="engine/Shaders/Shader\l/Shader.cpp">
<polygon fill="none" stroke="black" points="597.5,-56.5 597.5,-86.5 715.5,-86.5 715.5,-56.5 597.5,-56.5"/>
<text text-anchor="start" x="605.5" y="-74.5" font-family="Helvetica,sans-Serif" font-size="10.00">engine/Shaders/Shader</text>
<text text-anchor="middle" x="656.5" y="-63.5" font-family="Helvetica,sans-Serif" font-size="10.00">/Shader.cpp</text>
</a>
</g>
</g>
<!-- Node10&#45;&gt;Node14 -->
<g id="edge16" class="edge"><title>Node10&#45;&gt;Node14</title>
<path fill="none" stroke="midnightblue" d="M715.419,-122.237C702.643,-111.452 685.644,-97.1025 673.19,-86.589"/>
<polygon fill="midnightblue" stroke="midnightblue" points="713.216,-124.958 723.115,-128.734 717.732,-119.609 713.216,-124.958"/>
</g>
<!-- Node15 -->
<g id="node15" class="node"><title>Node15</title>
<g id="a_node15"><a xlink:href="../../de/d34/ShaderProgram_8cpp.html" target="_top" xlink:title="engine/Shaders/ShaderProgram\l/ShaderProgram.cpp">
<polygon fill="none" stroke="black" points="734,-56.5 734,-86.5 889,-86.5 889,-56.5 734,-56.5"/>
<text text-anchor="start" x="742" y="-74.5" font-family="Helvetica,sans-Serif" font-size="10.00">engine/Shaders/ShaderProgram</text>
<text text-anchor="middle" x="811.5" y="-63.5" font-family="Helvetica,sans-Serif" font-size="10.00">/ShaderProgram.cpp</text>
</a>
</g>
</g>
<!-- Node10&#45;&gt;Node15 -->
<g id="edge17" class="edge"><title>Node10&#45;&gt;Node15</title>
<path fill="none" stroke="midnightblue" d="M751.815,-122.237C764.758,-111.452 781.977,-97.1025 794.593,-86.589"/>
<polygon fill="midnightblue" stroke="midnightblue" points="749.461,-119.643 744.019,-128.734 753.942,-125.021 749.461,-119.643"/>
</g>
<!-- Node10&#45;&gt;Node16 -->
<g id="edge18" class="edge"><title>Node10&#45;&gt;Node16</title>
<path fill="none" stroke="midnightblue" d="M672.736,-132.875C585.216,-125.733 418.768,-110.358 278.5,-87 268.692,-85.3667 258.138,-83.1944 248.446,-81.0295"/>
<polygon fill="midnightblue" stroke="midnightblue" points="672.505,-136.367 682.754,-133.684 673.069,-129.39 672.505,-136.367"/>
</g>
<!-- Node17 -->
<g id="node17" class="node"><title>Node17</title>
<g id="a_node17"><a xlink:href="../../d9/d53/mainwindow_8h.html" target="_top" xlink:title="window/mainwindow.h">
<polygon fill="none" stroke="black" points="907,-62 907,-81 1022,-81 1022,-62 907,-62"/>
<text text-anchor="middle" x="964.5" y="-69" font-family="Helvetica,sans-Serif" font-size="10.00">window/mainwindow.h</text>
</a>
</g>
</g>
<!-- Node10&#45;&gt;Node17 -->
<g id="edge19" class="edge"><title>Node10&#45;&gt;Node17</title>
<path fill="none" stroke="midnightblue" d="M774.045,-126.091C819.745,-113.232 893.002,-92.6185 934.066,-81.0637"/>
<polygon fill="midnightblue" stroke="midnightblue" points="772.853,-122.791 764.175,-128.869 774.749,-129.529 772.853,-122.791"/>
</g>
<!-- Node18 -->
<g id="node18" class="node"><title>Node18</title>
<g id="a_node18"><a xlink:href="../../df/d0a/main_8cpp.html" target="_top" xlink:title="TODO. ">
<polygon fill="none" stroke="black" points="882.5,-0.5 882.5,-19.5 938.5,-19.5 938.5,-0.5 882.5,-0.5"/>
<text text-anchor="middle" x="910.5" y="-7.5" font-family="Helvetica,sans-Serif" font-size="10.00">main.cpp</text>
</a>
</g>
</g>
<!-- Node17&#45;&gt;Node18 -->
<g id="edge20" class="edge"><title>Node17&#45;&gt;Node18</title>
<path fill="none" stroke="midnightblue" d="M949.977,-54.4975C939.756,-43.2356 926.477,-28.6044 918.223,-19.5091"/>
<polygon fill="midnightblue" stroke="midnightblue" points="947.451,-56.9222 956.763,-61.9751 952.634,-52.2178 947.451,-56.9222"/>
</g>
<!-- Node19 -->
<g id="node19" class="node"><title>Node19</title>
<g id="a_node19"><a xlink:href="../../d8/dd9/mainwindow_8cpp.html" target="_top" xlink:title="window/mainwindow.cpp">
<polygon fill="none" stroke="black" points="956,-0.5 956,-19.5 1081,-19.5 1081,-0.5 956,-0.5"/>
<text text-anchor="middle" x="1018.5" y="-7.5" font-family="Helvetica,sans-Serif" font-size="10.00">window/mainwindow.cpp</text>
</a>
</g>
</g>
<!-- Node17&#45;&gt;Node19 -->
<g id="edge21" class="edge"><title>Node17&#45;&gt;Node19</title>
<path fill="none" stroke="midnightblue" d="M979.023,-54.4975C989.244,-43.2356 1002.52,-28.6044 1010.78,-19.5091"/>
<polygon fill="midnightblue" stroke="midnightblue" points="976.366,-52.2178 972.237,-61.9751 981.549,-56.9222 976.366,-52.2178"/>
</g>
<!-- Node22&#45;&gt;Node7 -->
<g id="edge26" class="edge"><title>Node22&#45;&gt;Node7</title>
<path fill="none" stroke="midnightblue" d="M1326.2,-319.111C1338.58,-311.327 1350.56,-301.046 1357.5,-288 1368.33,-267.655 1355.79,-198.697 1347.5,-190 1321.1,-162.322 1217.87,-149.157 1151.12,-143.42"/>
<polygon fill="midnightblue" stroke="midnightblue" points="1324.08,-316.295 1317.19,-324.342 1327.6,-322.35 1324.08,-316.295"/>
</g>
<!-- Node23 -->
<g id="node23" class="node"><title>Node23</title>
<g id="a_node23"><a xlink:href="../../dd/d2e/Model_8cpp.html" target="_top" xlink:title="engine/GameObject/Model\l/Model.cpp">
<polygon fill="none" stroke="black" points="1216.5,-257.5 1216.5,-287.5 1348.5,-287.5 1348.5,-257.5 1216.5,-257.5"/>
<text text-anchor="start" x="1224.5" y="-275.5" font-family="Helvetica,sans-Serif" font-size="10.00">engine/GameObject/Model</text>
<text text-anchor="middle" x="1282.5" y="-264.5" font-family="Helvetica,sans-Serif" font-size="10.00">/Model.cpp</text>
</a>
</g>
</g>
<!-- Node22&#45;&gt;Node23 -->
<g id="edge27" class="edge"><title>Node22&#45;&gt;Node23</title>
<path fill="none" stroke="midnightblue" d="M1282.5,-314.108C1282.5,-305.154 1282.5,-295.323 1282.5,-287.577"/>
<polygon fill="midnightblue" stroke="midnightblue" points="1279,-314.396 1282.5,-324.396 1286,-314.396 1279,-314.396"/>
</g>
<!-- Node24&#45;&gt;Node8 -->
<g id="edge29" class="edge"><title>Node24&#45;&gt;Node8</title>
<path fill="none" stroke="midnightblue" d="M1155.51,-248.803C1161.37,-240.219 1167.93,-230.281 1173.5,-221 1204.62,-169.175 1237.06,-104.068 1248.35,-81.0428"/>
<polygon fill="midnightblue" stroke="midnightblue" points="1152.53,-246.957 1149.73,-257.173 1158.29,-250.937 1152.53,-246.957"/>
</g>
<!-- Node24&#45;&gt;Node20 -->
<g id="edge31" class="edge"><title>Node24&#45;&gt;Node20</title>
<path fill="none" stroke="midnightblue" d="M1126.13,-248.632C1119.37,-237.067 1111.56,-223.714 1106.58,-215.195"/>
<polygon fill="midnightblue" stroke="midnightblue" points="1123.19,-250.529 1131.25,-257.396 1129.23,-246.997 1123.19,-250.529"/>
</g>
<!-- Node25 -->
<g id="node25" class="node"><title>Node25</title>
<g id="a_node25"><a xlink:href="../../d6/d05/Cube_8cpp.html" target="_top" xlink:title="engine/Primitives/Cube\l/Cube.cpp">
<polygon fill="none" stroke="black" points="1220.5,-190.5 1220.5,-220.5 1338.5,-220.5 1338.5,-190.5 1220.5,-190.5"/>
<text text-anchor="start" x="1228.5" y="-208.5" font-family="Helvetica,sans-Serif" font-size="10.00">engine/Primitives/Cube</text>
<text text-anchor="middle" x="1279.5" y="-197.5" font-family="Helvetica,sans-Serif" font-size="10.00">/Cube.cpp</text>
</a>
</g>
</g>
<!-- Node24&#45;&gt;Node25 -->
<g id="edge30" class="edge"><title>Node24&#45;&gt;Node25</title>
<path fill="none" stroke="midnightblue" d="M1179.07,-253.131C1201.31,-242.802 1228.65,-230.11 1249.18,-220.577"/>
<polygon fill="midnightblue" stroke="midnightblue" points="1177.47,-250.01 1169.88,-257.396 1180.42,-256.359 1177.47,-250.01"/>
</g>
</g>
</svg>
        <g id="navigator" transform="translate(0 0)" fill="#404254">
                <rect fill="#f2f5e9" fill-opacity="0.5" stroke="#606060" stroke-width=".5" x="0" y="0" width="60" height="60"/>
                <use id="zoomplus" xlink:href="#zoomPlus" x="17" y="9" onmousedown="handleZoom(evt,'in')"/>
                <use id="zoomminus" xlink:href="#zoomMin" x="42" y="9" onmousedown="handleZoom(evt,'out')"/>
                <use id="reset" xlink:href="#resetDef" x="30" y="36" onmousedown="handleReset()"/>
                <g id="arrowUp" xlink:href="#dirArrow" transform="translate(30 24)" onmousedown="handlePan(0,-1)">
                  <use xlink:href="#rim" fill="#404040">
                        <set attributeName="fill" to="#808080" begin="arrowUp.mouseover" end="arrowUp.mouseout"/>
                  </use>
                  <path fill="none" stroke="white" stroke-width="1.5" d="M0,-3.0v7 M-2.5,-0.5L0,-3.0L2.5,-0.5"/>
                </g>
                <g id="arrowRight" xlink:href="#dirArrow" transform="rotate(90) translate(36 -43)" onmousedown="handlePan(1,0)">
                  <use xlink:href="#rim" fill="#404040">
                        <set attributeName="fill" to="#808080" begin="arrowRight.mouseover" end="arrowRight.mouseout"/>
                  </use>
                  <path fill="none" stroke="white" stroke-width="1.5" d="M0,-3.0v7 M-2.5,-0.5L0,-3.0L2.5,-0.5"/>
                </g>
                <g id="arrowDown" xlink:href="#dirArrow" transform="rotate(180) translate(-30 -48)" onmousedown="handlePan(0,1)">
                  <use xlink:href="#rim" fill="#404040">
                        <set attributeName="fill" to="#808080" begin="arrowDown.mouseover" end="arrowDown.mouseout"/>
                  </use>
                  <path fill="none" stroke="white" stroke-width="1.5" d="M0,-3.0v7 M-2.5,-0.5L0,-3.0L2.5,-0.5"/>
                </g>
                <g id="arrowLeft" xlink:href="#dirArrow" transform="rotate(270) translate(-36 17)" onmousedown="handlePan(-1,0)">
                  <use xlink:href="#rim" fill="#404040">
                        <set attributeName="fill" to="#808080" begin="arrowLeft.mouseover" end="arrowLeft.mouseout"/>
                  </use>
                  <path fill="none" stroke="white" stroke-width="1.5" d="M0,-3.0v7 M-2.5,-0.5L0,-3.0L2.5,-0.5"/>
                </g>
        </g>
        <svg viewBox="0 0 15 15" width="100%" height="30px" preserveAspectRatio="xMaxYMin meet">
         <g id="arrow_out" transform="scale(0.3 0.3)">
          <a xlink:href="Material_8hpp__dep__incl_org.svg" target="_base">
           <rect id="button" ry="5" rx="5" y="6" x="6" height="38" width="38"
                fill="#f2f5e9" fill-opacity="0.5" stroke="#606060" stroke-width="1.0"/>
           <path id="arrow"
             d="M 11.500037,31.436501 C 11.940474,20.09759 22.043105,11.32322 32.158766,21.979434 L 37.068811,17.246167 C 37.068811,17.246167 37.088388,32 37.088388,32 L 22.160133,31.978069 C 22.160133,31.978069 26.997745,27.140456 26.997745,27.140456 C 18.528582,18.264221 13.291696,25.230495 11.500037,31.436501 z"
             style="fill:#404040;"/>
          </a>
         </g>
        </svg>
</svg>
