<?xml version="1.0" encoding="UTF-8" standalone="no"?>
<!DOCTYPE svg PUBLIC "-//W3C//DTD SVG 1.1//EN"
 "http://www.w3.org/Graphics/SVG/1.1/DTD/svg11.dtd">
<!-- Generated by graphviz version 2.38.0 (20140413.2041)
 -->
<!-- Title: engine/Entity/Entity.cpp Pages: 1 -->
<svg width="435pt" height="196pt"
 viewBox="0.00 0.00 434.50 196.00" xmlns="http://www.w3.org/2000/svg" xmlns:xlink="http://www.w3.org/1999/xlink">
<g id="graph0" class="graph" transform="scale(1 1) rotate(0) translate(4 192)">
<title>engine/Entity/Entity.cpp</title>
<!-- Node1 -->
<g id="node1" class="node"><title>Node1</title>
<polygon fill="#bfbfbf" stroke="black" points="22,-168.5 22,-187.5 143,-187.5 143,-168.5 22,-168.5"/>
<text text-anchor="middle" x="82.5" y="-175.5" font-family="Helvetica,sans-Serif" font-size="10.00">engine/Entity/Entity.cpp</text>
</g>
<!-- Node2 -->
<g id="node2" class="node"><title>Node2</title>
<g id="a_node2"><a xlink:href="../../de/da6/Entity_8hpp.html" target="_top" xlink:title="Entity.hpp">
<polygon fill="none" stroke="black" points="0,-112.5 0,-131.5 61,-131.5 61,-112.5 0,-112.5"/>
<text text-anchor="middle" x="30.5" y="-119.5" font-family="Helvetica,sans-Serif" font-size="10.00">Entity.hpp</text>
</a>
</g>
</g>
<!-- Node1&#45;&gt;Node2 -->
<g id="edge1" class="edge"><title>Node1&#45;&gt;Node2</title>
<path fill="none" stroke="midnightblue" d="M73.9133,-168.083C66.341,-160.22 55.1218,-148.569 45.9856,-139.081"/>
<polygon fill="midnightblue" stroke="midnightblue" points="48.3845,-136.527 38.927,-131.751 43.3423,-141.382 48.3845,-136.527"/>
</g>
<!-- Node4 -->
<g id="node4" class="node"><title>Node4</title>
<g id="a_node4"><a xlink:href="../../d1/d2f/SceneGraphNode_8hpp.html" target="_top" xlink:title="SceneGraphNode.hpp">
<polygon fill="none" stroke="black" points="79,-112.5 79,-131.5 192,-131.5 192,-112.5 79,-112.5"/>
<text text-anchor="middle" x="135.5" y="-119.5" font-family="Helvetica,sans-Serif" font-size="10.00">SceneGraphNode.hpp</text>
</a>
</g>
</g>
<!-- Node1&#45;&gt;Node4 -->
<g id="edge3" class="edge"><title>Node1&#45;&gt;Node4</title>
<path fill="none" stroke="midnightblue" d="M91.2519,-168.083C98.9697,-160.22 110.405,-148.569 119.717,-139.081"/>
<polygon fill="midnightblue" stroke="midnightblue" points="122.404,-141.34 126.911,-131.751 117.408,-136.436 122.404,-141.34"/>
</g>
<!-- Node3 -->
<g id="node3" class="node"><title>Node3</title>
<polygon fill="none" stroke="#bfbfbf" points="10,-56.5 10,-75.5 51,-75.5 51,-56.5 10,-56.5"/>
<text text-anchor="middle" x="30.5" y="-63.5" font-family="Helvetica,sans-Serif" font-size="10.00">string</text>
</g>
<!-- Node2&#45;&gt;Node3 -->
<g id="edge2" class="edge"><title>Node2&#45;&gt;Node3</title>
<path fill="none" stroke="midnightblue" d="M30.5,-112.083C30.5,-105.006 30.5,-94.8611 30.5,-85.9865"/>
<polygon fill="midnightblue" stroke="midnightblue" points="34.0001,-85.751 30.5,-75.7511 27.0001,-85.7511 34.0001,-85.751"/>
</g>
<!-- Node4&#45;&gt;Node3 -->
<g id="edge4" class="edge"><title>Node4&#45;&gt;Node3</title>
<path fill="none" stroke="midnightblue" d="M118.63,-112.324C101.791,-103.664 75.6935,-90.2424 56.262,-80.249"/>
<polygon fill="midnightblue" stroke="midnightblue" points="57.8218,-77.1155 47.3282,-75.6545 54.6204,-83.3405 57.8218,-77.1155"/>
</g>
<!-- Node5 -->
<g id="node5" class="node"><title>Node5</title>
<polygon fill="none" stroke="#bfbfbf" points="69,-56.5 69,-75.5 98,-75.5 98,-56.5 69,-56.5"/>
<text text-anchor="middle" x="83.5" y="-63.5" font-family="Helvetica,sans-Serif" font-size="10.00">list</text>
</g>
<!-- Node4&#45;&gt;Node5 -->
<g id="edge5" class="edge"><title>Node4&#45;&gt;Node5</title>
<path fill="none" stroke="midnightblue" d="M126.913,-112.083C119.341,-104.22 108.122,-92.5688 98.9856,-83.0813"/>
<polygon fill="midnightblue" stroke="midnightblue" points="101.385,-80.5266 91.927,-75.7511 96.3423,-85.3821 101.385,-80.5266"/>
</g>
<!-- Node6 -->
<g id="node6" class="node"><title>Node6</title>
<polygon fill="none" stroke="#bfbfbf" points="116.5,-56.5 116.5,-75.5 202.5,-75.5 202.5,-56.5 116.5,-56.5"/>
<text text-anchor="middle" x="159.5" y="-63.5" font-family="Helvetica,sans-Serif" font-size="10.00">assimp/scene.h</text>
</g>
<!-- Node4&#45;&gt;Node6 -->
<g id="edge6" class="edge"><title>Node4&#45;&gt;Node6</title>
<path fill="none" stroke="midnightblue" d="M139.463,-112.083C142.713,-104.77 147.419,-94.1814 151.454,-85.1034"/>
<polygon fill="midnightblue" stroke="midnightblue" points="154.748,-86.3107 155.611,-75.7511 148.351,-83.4677 154.748,-86.3107"/>
</g>
<!-- Node7 -->
<g id="node7" class="node"><title>Node7</title>
<g id="a_node7"><a xlink:href="../../da/d83/Transform_8hpp.html" target="_top" xlink:title="Transform.hpp">
<polygon fill="none" stroke="black" points="220.5,-56.5 220.5,-75.5 300.5,-75.5 300.5,-56.5 220.5,-56.5"/>
<text text-anchor="middle" x="260.5" y="-63.5" font-family="Helvetica,sans-Serif" font-size="10.00">Transform.hpp</text>
</a>
</g>
</g>
<!-- Node4&#45;&gt;Node7 -->
<g id="edge7" class="edge"><title>Node4&#45;&gt;Node7</title>
<path fill="none" stroke="midnightblue" d="M155.307,-112.444C175.787,-103.596 207.983,-89.6875 231.365,-79.5865"/>
<polygon fill="midnightblue" stroke="midnightblue" points="232.994,-82.6953 240.786,-75.5164 230.218,-76.2692 232.994,-82.6953"/>
</g>
<!-- Node8 -->
<g id="node8" class="node"><title>Node8</title>
<polygon fill="none" stroke="#bfbfbf" points="126.5,-0.5 126.5,-19.5 196.5,-19.5 196.5,-0.5 126.5,-0.5"/>
<text text-anchor="middle" x="161.5" y="-7.5" font-family="Helvetica,sans-Serif" font-size="10.00">glm/glm.hpp</text>
</g>
<!-- Node7&#45;&gt;Node8 -->
<g id="edge8" class="edge"><title>Node7&#45;&gt;Node8</title>
<path fill="none" stroke="midnightblue" d="M244.594,-56.324C228.862,-47.7428 204.558,-34.486 186.291,-24.5224"/>
<polygon fill="midnightblue" stroke="midnightblue" points="187.822,-21.3704 177.367,-19.6545 184.47,-27.5157 187.822,-21.3704"/>
</g>
<!-- Node9 -->
<g id="node9" class="node"><title>Node9</title>
<polygon fill="none" stroke="#bfbfbf" points="214.5,-0.5 214.5,-19.5 306.5,-19.5 306.5,-0.5 214.5,-0.5"/>
<text text-anchor="middle" x="260.5" y="-7.5" font-family="Helvetica,sans-Serif" font-size="10.00">assimp/vector3.h</text>
</g>
<!-- Node7&#45;&gt;Node9 -->
<g id="edge9" class="edge"><title>Node7&#45;&gt;Node9</title>
<path fill="none" stroke="midnightblue" d="M260.5,-56.083C260.5,-49.0059 260.5,-38.8611 260.5,-29.9865"/>
<polygon fill="midnightblue" stroke="midnightblue" points="264,-29.751 260.5,-19.7511 257,-29.7511 264,-29.751"/>
</g>
<!-- Node10 -->
<g id="node10" class="node"><title>Node10</title>
<polygon fill="none" stroke="#bfbfbf" points="324.5,-0.5 324.5,-19.5 426.5,-19.5 426.5,-0.5 324.5,-0.5"/>
<text text-anchor="middle" x="375.5" y="-7.5" font-family="Helvetica,sans-Serif" font-size="10.00">assimp/matrix4x4.h</text>
</g>
<!-- Node7&#45;&gt;Node10 -->
<g id="edge10" class="edge"><title>Node7&#45;&gt;Node10</title>
<path fill="none" stroke="midnightblue" d="M278.722,-56.4435C297.396,-47.6751 326.656,-33.9355 348.117,-23.8579"/>
<polygon fill="midnightblue" stroke="midnightblue" points="349.799,-26.935 357.363,-19.5164 346.824,-20.5988 349.799,-26.935"/>
</g>
</g>
</svg>
