<?xml version="1.0" encoding="UTF-8" standalone="no"?>
<!DOCTYPE svg PUBLIC "-//W3C//DTD SVG 1.1//EN"
 "http://www.w3.org/Graphics/SVG/1.1/DTD/svg11.dtd">
<!-- Generated by graphviz version 2.38.0 (20140413.2041)
 -->
<!-- Title: Core/AssimpImporter.cpp Pages: 1 -->
<svg width="840pt" height="84pt"
 viewBox="0.00 0.00 839.50 84.00" xmlns="http://www.w3.org/2000/svg" xmlns:xlink="http://www.w3.org/1999/xlink">
<g id="graph0" class="graph" transform="scale(1 1) rotate(0) translate(4 80)">
<title>Core/AssimpImporter.cpp</title>
<!-- Node1 -->
<g id="node1" class="node"><title>Node1</title>
<polygon fill="#bfbfbf" stroke="black" points="301.5,-56.5 301.5,-75.5 429.5,-75.5 429.5,-56.5 301.5,-56.5"/>
<text text-anchor="middle" x="365.5" y="-63.5" font-family="Helvetica,sans-Serif" font-size="10.00">Core/AssimpImporter.cpp</text>
</g>
<!-- Node2 -->
<g id="node2" class="node"><title>Node2</title>
<polygon fill="none" stroke="#bfbfbf" points="0,-0.5 0,-19.5 113,-19.5 113,-0.5 0,-0.5"/>
<text text-anchor="middle" x="56.5" y="-7.5" font-family="Helvetica,sans-Serif" font-size="10.00">assimp/postprocess.h</text>
</g>
<!-- Node1&#45;&gt;Node2 -->
<g id="edge1" class="edge"><title>Node1&#45;&gt;Node2</title>
<path fill="none" stroke="midnightblue" d="M316.538,-56.4435C261.956,-46.9049 173.71,-31.4834 115.399,-21.293"/>
<polygon fill="midnightblue" stroke="midnightblue" points="115.686,-17.7902 105.233,-19.5164 114.481,-24.6857 115.686,-17.7902"/>
</g>
<!-- Node3 -->
<g id="node3" class="node"><title>Node3</title>
<polygon fill="none" stroke="#bfbfbf" points="131.5,-0.5 131.5,-19.5 217.5,-19.5 217.5,-0.5 131.5,-0.5"/>
<text text-anchor="middle" x="174.5" y="-7.5" font-family="Helvetica,sans-Serif" font-size="10.00">assimp/scene.h</text>
</g>
<!-- Node1&#45;&gt;Node3 -->
<g id="edge2" class="edge"><title>Node1&#45;&gt;Node3</title>
<path fill="none" stroke="midnightblue" d="M335.235,-56.4435C302.545,-47.2011 250.318,-32.4356 214.317,-22.2572"/>
<polygon fill="midnightblue" stroke="midnightblue" points="215.198,-18.8691 204.623,-19.5164 213.294,-25.6051 215.198,-18.8691"/>
</g>
<!-- Node4 -->
<g id="node4" class="node"><title>Node4</title>
<polygon fill="none" stroke="#bfbfbf" points="236,-0.5 236,-19.5 343,-19.5 343,-0.5 236,-0.5"/>
<text text-anchor="middle" x="289.5" y="-7.5" font-family="Helvetica,sans-Serif" font-size="10.00">log4cpp/Category.hh</text>
</g>
<!-- Node1&#45;&gt;Node4 -->
<g id="edge3" class="edge"><title>Node1&#45;&gt;Node4</title>
<path fill="none" stroke="midnightblue" d="M353.289,-56.324C341.724,-48.1066 324.125,-35.6017 310.339,-25.8069"/>
<polygon fill="midnightblue" stroke="midnightblue" points="312.112,-22.7729 301.933,-19.8339 308.057,-28.4791 312.112,-22.7729"/>
</g>
<!-- Node5 -->
<g id="node5" class="node"><title>Node5</title>
<polygon fill="none" stroke="#bfbfbf" points="361,-0.5 361,-19.5 522,-19.5 522,-0.5 361,-0.5"/>
<text text-anchor="middle" x="441.5" y="-7.5" font-family="Helvetica,sans-Serif" font-size="10.00">Engine/Core/AssimpImporter.hpp</text>
</g>
<!-- Node1&#45;&gt;Node5 -->
<g id="edge4" class="edge"><title>Node1&#45;&gt;Node5</title>
<path fill="none" stroke="midnightblue" d="M377.711,-56.324C389.276,-48.1066 406.875,-35.6017 420.661,-25.8069"/>
<polygon fill="midnightblue" stroke="midnightblue" points="422.943,-28.4791 429.067,-19.8339 418.888,-22.7729 422.943,-28.4791"/>
</g>
<!-- Node6 -->
<g id="node6" class="node"><title>Node6</title>
<polygon fill="none" stroke="#bfbfbf" points="540,-0.5 540,-19.5 693,-19.5 693,-0.5 540,-0.5"/>
<text text-anchor="middle" x="616.5" y="-7.5" font-family="Helvetica,sans-Serif" font-size="10.00">Engine/Core/AssimpScene.hpp</text>
</g>
<!-- Node1&#45;&gt;Node6 -->
<g id="edge5" class="edge"><title>Node1&#45;&gt;Node6</title>
<path fill="none" stroke="midnightblue" d="M405.272,-56.4435C449.058,-47.0234 519.514,-31.8656 566.88,-21.6752"/>
<polygon fill="midnightblue" stroke="midnightblue" points="567.874,-25.0415 576.914,-19.5164 566.402,-18.1981 567.874,-25.0415"/>
</g>
<!-- Node7 -->
<g id="node7" class="node"><title>Node7</title>
<polygon fill="none" stroke="#bfbfbf" points="711.5,-0.5 711.5,-19.5 831.5,-19.5 831.5,-0.5 711.5,-0.5"/>
<text text-anchor="middle" x="771.5" y="-7.5" font-family="Helvetica,sans-Serif" font-size="10.00">Engine/Core/Scene.hpp</text>
</g>
<!-- Node1&#45;&gt;Node7 -->
<g id="edge6" class="edge"><title>Node1&#45;&gt;Node7</title>
<path fill="none" stroke="midnightblue" d="M429.832,-56.4435C503.872,-46.5959 625.054,-30.478 701.431,-20.3195"/>
<polygon fill="midnightblue" stroke="midnightblue" points="701.989,-23.7763 711.44,-18.9883 701.066,-16.8374 701.989,-23.7763"/>
</g>
</g>
</svg>
