<?xml version="1.0" encoding="UTF-8" standalone="no"?>
<!DOCTYPE svg PUBLIC "-//W3C//DTD SVG 1.1//EN"
 "http://www.w3.org/Graphics/SVG/1.1/DTD/svg11.dtd">
<!-- Generated by graphviz version 2.38.0 (20140413.2041)
 -->
<!-- Title: engine/AssimpImporter/AssimpImporter.cpp Pages: 1 -->
<svg width="1605pt" height="319pt"
 viewBox="0.00 0.00 1605.00 319.00" xmlns="http://www.w3.org/2000/svg" xmlns:xlink="http://www.w3.org/1999/xlink">
<g id="graph0" class="graph" transform="scale(1 1) rotate(0) translate(4 315)">
<title>engine/AssimpImporter/AssimpImporter.cpp</title>
<!-- Node1 -->
<g id="node1" class="node"><title>Node1</title>
<polygon fill="#bfbfbf" stroke="black" points="250,-280.5 250,-310.5 367,-310.5 367,-280.5 250,-280.5"/>
<text text-anchor="start" x="258" y="-298.5" font-family="Helvetica,sans-Serif" font-size="10.00">engine/AssimpImporter</text>
<text text-anchor="middle" x="308.5" y="-287.5" font-family="Helvetica,sans-Serif" font-size="10.00">/AssimpImporter.cpp</text>
</g>
<!-- Node2 -->
<g id="node2" class="node"><title>Node2</title>
<polygon fill="none" stroke="#bfbfbf" points="0,-224.5 0,-243.5 113,-243.5 113,-224.5 0,-224.5"/>
<text text-anchor="middle" x="56.5" y="-231.5" font-family="Helvetica,sans-Serif" font-size="10.00">assimp/postprocess.h</text>
</g>
<!-- Node1&#45;&gt;Node2 -->
<g id="edge1" class="edge"><title>Node1&#45;&gt;Node2</title>
<path fill="none" stroke="midnightblue" d="M249.735,-280.625C204.859,-270.029 143.891,-255.634 102.526,-245.867"/>
<polygon fill="midnightblue" stroke="midnightblue" points="103.25,-242.442 92.7133,-243.55 101.641,-249.255 103.25,-242.442"/>
</g>
<!-- Node3 -->
<g id="node3" class="node"><title>Node3</title>
<polygon fill="none" stroke="#bfbfbf" points="57.5,-112.5 57.5,-131.5 143.5,-131.5 143.5,-112.5 57.5,-112.5"/>
<text text-anchor="middle" x="100.5" y="-119.5" font-family="Helvetica,sans-Serif" font-size="10.00">assimp/scene.h</text>
</g>
<!-- Node1&#45;&gt;Node3 -->
<g id="edge2" class="edge"><title>Node1&#45;&gt;Node3</title>
<path fill="none" stroke="midnightblue" d="M249.684,-280.888C225.157,-273.078 197.545,-261.288 176.5,-244 141.962,-215.629 118.394,-167.256 107.463,-141.09"/>
<polygon fill="midnightblue" stroke="midnightblue" points="110.645,-139.623 103.668,-131.65 104.15,-142.234 110.645,-139.623"/>
</g>
<!-- Node4 -->
<g id="node4" class="node"><title>Node4</title>
<polygon fill="none" stroke="#bfbfbf" points="1019,-224.5 1019,-243.5 1126,-243.5 1126,-224.5 1019,-224.5"/>
<text text-anchor="middle" x="1072.5" y="-231.5" font-family="Helvetica,sans-Serif" font-size="10.00">log4cpp/Category.hh</text>
</g>
<!-- Node1&#45;&gt;Node4 -->
<g id="edge3" class="edge"><title>Node1&#45;&gt;Node4</title>
<path fill="none" stroke="midnightblue" d="M367.246,-291.66C486.201,-285.607 764.276,-269.922 1008.77,-243.999"/>
<polygon fill="midnightblue" stroke="midnightblue" points="1009.34,-247.457 1018.92,-242.915 1008.6,-240.497 1009.34,-247.457"/>
</g>
<!-- Node5 -->
<g id="node5" class="node"><title>Node5</title>
<g id="a_node5"><a xlink:href="../../d0/dbd/AssimpImporter_8hpp.html" target="_top" xlink:title="AssimpImporter.hpp">
<polygon fill="none" stroke="black" points="407.5,-168.5 407.5,-187.5 511.5,-187.5 511.5,-168.5 407.5,-168.5"/>
<text text-anchor="middle" x="459.5" y="-175.5" font-family="Helvetica,sans-Serif" font-size="10.00">AssimpImporter.hpp</text>
</a>
</g>
</g>
<!-- Node1&#45;&gt;Node5 -->
<g id="edge4" class="edge"><title>Node1&#45;&gt;Node5</title>
<path fill="none" stroke="midnightblue" d="M327.016,-280.337C355.706,-258.392 410.644,-216.37 439.951,-193.953"/>
<polygon fill="midnightblue" stroke="midnightblue" points="442.349,-196.525 448.166,-187.669 438.097,-190.965 442.349,-196.525"/>
</g>
<!-- Node10 -->
<g id="node10" class="node"><title>Node10</title>
<g id="a_node10"><a xlink:href="../../d0/d06/AssimpScene_8hpp.html" target="_top" xlink:title="AssimpScene.hpp">
<polygon fill="none" stroke="black" points="185.5,-224.5 185.5,-243.5 281.5,-243.5 281.5,-224.5 185.5,-224.5"/>
<text text-anchor="middle" x="233.5" y="-231.5" font-family="Helvetica,sans-Serif" font-size="10.00">AssimpScene.hpp</text>
</a>
</g>
</g>
<!-- Node1&#45;&gt;Node10 -->
<g id="edge9" class="edge"><title>Node1&#45;&gt;Node10</title>
<path fill="none" stroke="midnightblue" d="M290.726,-280.399C279.154,-271.218 264.077,-259.258 252.304,-249.918"/>
<polygon fill="midnightblue" stroke="midnightblue" points="254.423,-247.131 244.413,-243.658 250.072,-252.615 254.423,-247.131"/>
</g>
<!-- Node12 -->
<g id="node12" class="node"><title>Node12</title>
<g id="a_node12"><a xlink:href="../../db/de8/Scene_8hpp.html" target="_top" xlink:title="Scene.hpp">
<polygon fill="none" stroke="black" points="938,-224.5 938,-243.5 1001,-243.5 1001,-224.5 938,-224.5"/>
<text text-anchor="middle" x="969.5" y="-231.5" font-family="Helvetica,sans-Serif" font-size="10.00">Scene.hpp</text>
</a>
</g>
</g>
<!-- Node1&#45;&gt;Node12 -->
<g id="edge12" class="edge"><title>Node1&#45;&gt;Node12</title>
<path fill="none" stroke="midnightblue" d="M367.159,-289.22C498.603,-277.388 814.107,-248.988 927.786,-238.755"/>
<polygon fill="midnightblue" stroke="midnightblue" points="928.185,-242.233 937.831,-237.851 927.557,-235.261 928.185,-242.233"/>
</g>
<!-- Node6 -->
<g id="node6" class="node"><title>Node6</title>
<polygon fill="none" stroke="#bfbfbf" points="401,-0.5 401,-19.5 442,-19.5 442,-0.5 401,-0.5"/>
<text text-anchor="middle" x="421.5" y="-7.5" font-family="Helvetica,sans-Serif" font-size="10.00">string</text>
</g>
<!-- Node5&#45;&gt;Node6 -->
<g id="edge5" class="edge"><title>Node5&#45;&gt;Node6</title>
<path fill="none" stroke="midnightblue" d="M457.457,-168.075C451.475,-141.945 433.91,-65.2106 425.753,-29.577"/>
<polygon fill="midnightblue" stroke="midnightblue" points="429.105,-28.5349 423.461,-19.5681 422.281,-30.097 429.105,-28.5349"/>
</g>
<!-- Node7 -->
<g id="node7" class="node"><title>Node7</title>
<polygon fill="none" stroke="#bfbfbf" points="1407,-112.5 1407,-131.5 1436,-131.5 1436,-112.5 1407,-112.5"/>
<text text-anchor="middle" x="1421.5" y="-119.5" font-family="Helvetica,sans-Serif" font-size="10.00">list</text>
</g>
<!-- Node5&#45;&gt;Node7 -->
<g id="edge6" class="edge"><title>Node5&#45;&gt;Node7</title>
<path fill="none" stroke="midnightblue" d="M511.762,-175.398C696.139,-169.62 1309.8,-149.283 1396.5,-132 1396.71,-131.957 1396.93,-131.913 1397.15,-131.867"/>
<polygon fill="midnightblue" stroke="midnightblue" points="1398.25,-135.192 1406.9,-129.075 1396.32,-128.462 1398.25,-135.192"/>
</g>
<!-- Node8 -->
<g id="node8" class="node"><title>Node8</title>
<polygon fill="none" stroke="#bfbfbf" points="287.5,-112.5 287.5,-131.5 393.5,-131.5 393.5,-112.5 287.5,-112.5"/>
<text text-anchor="middle" x="340.5" y="-119.5" font-family="Helvetica,sans-Serif" font-size="10.00">assimp/Importer.hpp</text>
</g>
<!-- Node5&#45;&gt;Node8 -->
<g id="edge7" class="edge"><title>Node5&#45;&gt;Node8</title>
<path fill="none" stroke="midnightblue" d="M440.644,-168.444C421.234,-159.636 390.77,-145.812 368.535,-135.722"/>
<polygon fill="midnightblue" stroke="midnightblue" points="369.82,-132.462 359.268,-131.516 366.928,-138.836 369.82,-132.462"/>
</g>
<!-- Node9 -->
<g id="node9" class="node"><title>Node9</title>
<polygon fill="none" stroke="#bfbfbf" points="820,-56.5 820,-75.5 903,-75.5 903,-56.5 820,-56.5"/>
<text text-anchor="middle" x="861.5" y="-63.5" font-family="Helvetica,sans-Serif" font-size="10.00">assimp/mesh.h</text>
</g>
<!-- Node5&#45;&gt;Node9 -->
<g id="edge8" class="edge"><title>Node5&#45;&gt;Node9</title>
<path fill="none" stroke="midnightblue" d="M464.149,-168.47C472.507,-154.062 491.555,-125.189 516.5,-112 630.036,-51.971 677.945,-93.3129 809.727,-75.9625"/>
<polygon fill="midnightblue" stroke="midnightblue" points="810.366,-79.4072 819.781,-74.5472 809.39,-72.4755 810.366,-79.4072"/>
</g>
<!-- Node10&#45;&gt;Node3 -->
<g id="edge10" class="edge"><title>Node10&#45;&gt;Node3</title>
<path fill="none" stroke="midnightblue" d="M233.14,-224.256C232.118,-210.561 228.231,-183.967 213.5,-168 197.668,-150.84 174.433,-140.109 153.143,-133.454"/>
<polygon fill="midnightblue" stroke="midnightblue" points="154.11,-130.09 143.532,-130.675 152.166,-136.815 154.11,-130.09"/>
</g>
<!-- Node11 -->
<g id="node11" class="node"><title>Node11</title>
<polygon fill="none" stroke="#bfbfbf" points="170,-168.5 170,-187.5 205,-187.5 205,-168.5 170,-168.5"/>
<text text-anchor="middle" x="187.5" y="-175.5" font-family="Helvetica,sans-Serif" font-size="10.00">map</text>
</g>
<!-- Node10&#45;&gt;Node11 -->
<g id="edge11" class="edge"><title>Node10&#45;&gt;Node11</title>
<path fill="none" stroke="midnightblue" d="M225.904,-224.083C219.273,-216.298 209.479,-204.801 201.442,-195.367"/>
<polygon fill="midnightblue" stroke="midnightblue" points="204.104,-193.094 194.955,-187.751 198.775,-197.633 204.104,-193.094"/>
</g>
<!-- Node12&#45;&gt;Node7 -->
<g id="edge14" class="edge"><title>Node12&#45;&gt;Node7</title>
<path fill="none" stroke="midnightblue" d="M1001.3,-225.452C1004.07,-224.915 1006.83,-224.421 1009.5,-224 1096.35,-210.321 1336.02,-244.362 1403.5,-188 1416.82,-176.874 1420.75,-156.842 1421.7,-141.947"/>
<polygon fill="midnightblue" stroke="midnightblue" points="1425.2,-141.873 1421.95,-131.79 1418.2,-141.701 1425.2,-141.873"/>
</g>
<!-- Node13 -->
<g id="node13" class="node"><title>Node13</title>
<polygon fill="none" stroke="#bfbfbf" points="997.5,-56.5 997.5,-75.5 1049.5,-75.5 1049.5,-56.5 997.5,-56.5"/>
<text text-anchor="middle" x="1023.5" y="-63.5" font-family="Helvetica,sans-Serif" font-size="10.00">memory</text>
</g>
<!-- Node12&#45;&gt;Node13 -->
<g id="edge13" class="edge"><title>Node12&#45;&gt;Node13</title>
<path fill="none" stroke="midnightblue" d="M963.14,-224.295C954.358,-211.114 940.852,-185.748 952.5,-168 974.562,-134.383 1013.44,-165.617 1035.5,-132 1044.72,-117.949 1039.46,-98.702 1033.28,-84.8021"/>
<polygon fill="midnightblue" stroke="midnightblue" points="1036.38,-83.1804 1028.8,-75.7768 1030.11,-86.2906 1036.38,-83.1804"/>
</g>
<!-- Node14 -->
<g id="node14" class="node"><title>Node14</title>
<g id="a_node14"><a xlink:href="../../dd/db8/Renderer_8hpp.html" target="_top" xlink:title="Renderer.hpp">
<polygon fill="none" stroke="black" points="1451,-168.5 1451,-187.5 1526,-187.5 1526,-168.5 1451,-168.5"/>
<text text-anchor="middle" x="1488.5" y="-175.5" font-family="Helvetica,sans-Serif" font-size="10.00">Renderer.hpp</text>
</a>
</g>
</g>
<!-- Node12&#45;&gt;Node14 -->
<g id="edge15" class="edge"><title>Node12&#45;&gt;Node14</title>
<path fill="none" stroke="midnightblue" d="M1001.3,-225.431C1004.07,-224.899 1006.83,-224.411 1009.5,-224 1197.73,-195.029 1247.6,-212.263 1436.5,-188 1437.8,-187.833 1439.12,-187.656 1440.46,-187.471"/>
<polygon fill="midnightblue" stroke="midnightblue" points="1441.41,-190.867 1450.78,-185.926 1440.38,-183.944 1441.41,-190.867"/>
</g>
<!-- Node15 -->
<g id="node15" class="node"><title>Node15</title>
<g id="a_node15"><a xlink:href="../../de/dbe/SpatialGraph_8hpp.html" target="_top" xlink:title="SpatialGraph.hpp">
<polygon fill="none" stroke="black" points="1302.5,-168.5 1302.5,-187.5 1394.5,-187.5 1394.5,-168.5 1302.5,-168.5"/>
<text text-anchor="middle" x="1348.5" y="-175.5" font-family="Helvetica,sans-Serif" font-size="10.00">SpatialGraph.hpp</text>
</a>
</g>
</g>
<!-- Node12&#45;&gt;Node15 -->
<g id="edge17" class="edge"><title>Node12&#45;&gt;Node15</title>
<path fill="none" stroke="midnightblue" d="M1001.32,-225.553C1004.08,-224.994 1006.84,-224.467 1009.5,-224 1131.64,-202.569 1165.86,-206.077 1292.24,-188.13"/>
<polygon fill="midnightblue" stroke="midnightblue" points="1292.9,-191.571 1302.31,-186.683 1291.91,-184.642 1292.9,-191.571"/>
</g>
<!-- Node16 -->
<g id="node16" class="node"><title>Node16</title>
<g id="a_node16"><a xlink:href="../../d8/d58/SceneGraph_8hpp.html" target="_top" xlink:title="SceneGraph.hpp">
<polygon fill="none" stroke="black" points="262,-168.5 262,-187.5 351,-187.5 351,-168.5 262,-168.5"/>
<text text-anchor="middle" x="306.5" y="-175.5" font-family="Helvetica,sans-Serif" font-size="10.00">SceneGraph.hpp</text>
</a>
</g>
</g>
<!-- Node12&#45;&gt;Node16 -->
<g id="edge19" class="edge"><title>Node12&#45;&gt;Node16</title>
<path fill="none" stroke="midnightblue" d="M937.98,-231.51C848.26,-227.082 583.869,-212.753 365.5,-188 364.197,-187.852 362.879,-187.697 361.549,-187.536"/>
<polygon fill="midnightblue" stroke="midnightblue" points="361.598,-184.013 351.23,-186.193 360.694,-190.954 361.598,-184.013"/>
</g>
<!-- Node17 -->
<g id="node17" class="node"><title>Node17</title>
<g id="a_node17"><a xlink:href="../../d1/d93/ShaderProgramLibrary_8hpp.html" target="_top" xlink:title="ShaderProgramLibrary.hpp">
<polygon fill="none" stroke="black" points="773.5,-168.5 773.5,-187.5 905.5,-187.5 905.5,-168.5 773.5,-168.5"/>
<text text-anchor="middle" x="839.5" y="-175.5" font-family="Helvetica,sans-Serif" font-size="10.00">ShaderProgramLibrary.hpp</text>
</a>
</g>
</g>
<!-- Node12&#45;&gt;Node17 -->
<g id="edge21" class="edge"><title>Node12&#45;&gt;Node17</title>
<path fill="none" stroke="midnightblue" d="M948.901,-224.444C927.507,-215.557 893.819,-201.563 869.476,-191.451"/>
<polygon fill="midnightblue" stroke="midnightblue" points="870.58,-188.12 860.003,-187.516 867.895,-194.585 870.58,-188.12"/>
</g>
<!-- Node27 -->
<g id="node27" class="node"><title>Node27</title>
<g id="a_node27"><a xlink:href="../../d2/d26/MaterialLibrary_8hpp.html" target="_top" xlink:title="MaterialLibrary.hpp">
<polygon fill="none" stroke="black" points="1069,-168.5 1069,-187.5 1168,-187.5 1168,-168.5 1069,-168.5"/>
<text text-anchor="middle" x="1118.5" y="-175.5" font-family="Helvetica,sans-Serif" font-size="10.00">MaterialLibrary.hpp</text>
</a>
</g>
</g>
<!-- Node12&#45;&gt;Node27 -->
<g id="edge39" class="edge"><title>Node12&#45;&gt;Node27</title>
<path fill="none" stroke="midnightblue" d="M993.109,-224.444C1017.96,-215.438 1057.27,-201.189 1085.25,-191.049"/>
<polygon fill="midnightblue" stroke="midnightblue" points="1086.79,-194.214 1095,-187.516 1084.41,-187.633 1086.79,-194.214"/>
</g>
<!-- Node30 -->
<g id="node30" class="node"><title>Node30</title>
<g id="a_node30"><a xlink:href="../../d1/da3/AnimationLibrary_8hpp.html" target="_top" xlink:title="AnimationLibrary.hpp">
<polygon fill="none" stroke="black" points="161.5,-112.5 161.5,-131.5 269.5,-131.5 269.5,-112.5 161.5,-112.5"/>
<text text-anchor="middle" x="215.5" y="-119.5" font-family="Helvetica,sans-Serif" font-size="10.00">AnimationLibrary.hpp</text>
</a>
</g>
</g>
<!-- Node12&#45;&gt;Node30 -->
<g id="edge46" class="edge"><title>Node12&#45;&gt;Node30</title>
<path fill="none" stroke="midnightblue" d="M937.803,-232.14C833.416,-229.051 501.225,-217.122 398.5,-188 379.759,-182.687 377.529,-175.377 359.5,-168 326.214,-154.381 287.207,-142.425 258.193,-134.267"/>
<polygon fill="midnightblue" stroke="midnightblue" points="258.945,-130.843 248.373,-131.543 257.073,-137.589 258.945,-130.843"/>
</g>
<!-- Node33 -->
<g id="node33" class="node"><title>Node33</title>
<g id="a_node33"><a xlink:href="../../dd/de2/MeshLibrary_8hpp.html" target="_top" xlink:title="MeshLibrary.hpp">
<polygon fill="none" stroke="black" points="962,-168.5 962,-187.5 1051,-187.5 1051,-168.5 962,-168.5"/>
<text text-anchor="middle" x="1006.5" y="-175.5" font-family="Helvetica,sans-Serif" font-size="10.00">MeshLibrary.hpp</text>
</a>
</g>
</g>
<!-- Node12&#45;&gt;Node33 -->
<g id="edge52" class="edge"><title>Node12&#45;&gt;Node33</title>
<path fill="none" stroke="midnightblue" d="M975.61,-224.083C980.782,-216.534 988.346,-205.495 994.694,-196.23"/>
<polygon fill="midnightblue" stroke="midnightblue" points="997.739,-197.979 1000.5,-187.751 991.964,-194.022 997.739,-197.979"/>
</g>
<!-- Node37 -->
<g id="node37" class="node"><title>Node37</title>
<g id="a_node37"><a xlink:href="../../dc/d23/TextureLibrary_8hpp.html" target="_top" xlink:title="TextureLibrary.hpp">
<polygon fill="none" stroke="black" points="1186.5,-168.5 1186.5,-187.5 1284.5,-187.5 1284.5,-168.5 1186.5,-168.5"/>
<text text-anchor="middle" x="1235.5" y="-175.5" font-family="Helvetica,sans-Serif" font-size="10.00">TextureLibrary.hpp</text>
</a>
</g>
</g>
<!-- Node12&#45;&gt;Node37 -->
<g id="edge63" class="edge"><title>Node12&#45;&gt;Node37</title>
<path fill="none" stroke="midnightblue" d="M1001.36,-225.757C1004.11,-225.154 1006.85,-224.561 1009.5,-224 1067.9,-211.618 1135,-198.382 1180.82,-189.494"/>
<polygon fill="midnightblue" stroke="midnightblue" points="1181.68,-192.892 1190.84,-187.555 1180.35,-186.02 1181.68,-192.892"/>
</g>
<!-- Node14&#45;&gt;Node7 -->
<g id="edge16" class="edge"><title>Node14&#45;&gt;Node7</title>
<path fill="none" stroke="midnightblue" d="M1477.74,-168.324C1467.73,-160.263 1452.61,-148.077 1440.57,-138.369"/>
<polygon fill="midnightblue" stroke="midnightblue" points="1442.44,-135.384 1432.46,-131.834 1438.05,-140.834 1442.44,-135.384"/>
</g>
<!-- Node15&#45;&gt;Node7 -->
<g id="edge18" class="edge"><title>Node15&#45;&gt;Node7</title>
<path fill="none" stroke="midnightblue" d="M1360.23,-168.324C1371.34,-160.107 1388.24,-147.602 1401.48,-137.807"/>
<polygon fill="midnightblue" stroke="midnightblue" points="1403.6,-140.595 1409.56,-131.834 1399.44,-134.967 1403.6,-140.595"/>
</g>
<!-- Node16&#45;&gt;Node3 -->
<g id="edge20" class="edge"><title>Node16&#45;&gt;Node3</title>
<path fill="none" stroke="midnightblue" d="M273.859,-168.444C238.45,-159.162 181.791,-144.309 142.947,-134.127"/>
<polygon fill="midnightblue" stroke="midnightblue" points="143.549,-130.667 132.989,-131.516 141.774,-137.438 143.549,-130.667"/>
</g>
<!-- Node17&#45;&gt;Node13 -->
<g id="edge22" class="edge"><title>Node17&#45;&gt;Node13</title>
<path fill="none" stroke="midnightblue" d="M903.831,-168.447C948.157,-161.159 1001.64,-149.125 1016.5,-132 1027.3,-119.552 1028.1,-100.317 1026.77,-85.9963"/>
<polygon fill="midnightblue" stroke="midnightblue" points="1030.2,-85.2334 1025.4,-75.7891 1023.26,-86.1664 1030.2,-85.2334"/>
</g>
<!-- Node18 -->
<g id="node18" class="node"><title>Node18</title>
<g id="a_node18"><a xlink:href="../../df/d67/Library_8hpp.html" target="_top" xlink:title="Library.hpp">
<polygon fill="none" stroke="black" points="518,-56.5 518,-75.5 583,-75.5 583,-56.5 518,-56.5"/>
<text text-anchor="middle" x="550.5" y="-63.5" font-family="Helvetica,sans-Serif" font-size="10.00">Library.hpp</text>
</a>
</g>
</g>
<!-- Node17&#45;&gt;Node18 -->
<g id="edge23" class="edge"><title>Node17&#45;&gt;Node18</title>
<path fill="none" stroke="midnightblue" d="M773.446,-177.567C688.815,-176.718 549.117,-169.476 516.5,-132 503.661,-117.248 518.459,-96.8056 532.358,-82.8076"/>
<polygon fill="midnightblue" stroke="midnightblue" points="534.94,-85.1828 539.805,-75.7711 530.133,-80.0946 534.94,-85.1828"/>
</g>
<!-- Node21 -->
<g id="node21" class="node"><title>Node21</title>
<g id="a_node21"><a xlink:href="../../dc/ddb/ShaderProgram_8hpp.html" target="_top" xlink:title="ShaderProgram.hpp">
<polygon fill="none" stroke="black" points="905,-112.5 905,-131.5 1008,-131.5 1008,-112.5 905,-112.5"/>
<text text-anchor="middle" x="956.5" y="-119.5" font-family="Helvetica,sans-Serif" font-size="10.00">ShaderProgram.hpp</text>
</a>
</g>
</g>
<!-- Node17&#45;&gt;Node21 -->
<g id="edge27" class="edge"><title>Node17&#45;&gt;Node21</title>
<path fill="none" stroke="midnightblue" d="M858.039,-168.444C877.123,-159.636 907.075,-145.812 928.936,-135.722"/>
<polygon fill="midnightblue" stroke="midnightblue" points="930.435,-138.885 938.048,-131.516 927.501,-132.529 930.435,-138.885"/>
</g>
<!-- Node24 -->
<g id="node24" class="node"><title>Node24</title>
<g id="a_node24"><a xlink:href="../../d9/db7/ShaderProgramNames_8hpp.html" target="_top" xlink:title="ShaderProgramNames.hpp">
<polygon fill="none" stroke="black" points="525.5,-112.5 525.5,-131.5 659.5,-131.5 659.5,-112.5 525.5,-112.5"/>
<text text-anchor="middle" x="592.5" y="-119.5" font-family="Helvetica,sans-Serif" font-size="10.00">ShaderProgramNames.hpp</text>
</a>
</g>
</g>
<!-- Node17&#45;&gt;Node24 -->
<g id="edge33" class="edge"><title>Node17&#45;&gt;Node24</title>
<path fill="none" stroke="midnightblue" d="M800.362,-168.444C757.274,-159.023 687.941,-143.866 641.329,-133.675"/>
<polygon fill="midnightblue" stroke="midnightblue" points="641.972,-130.233 631.455,-131.516 640.476,-137.072 641.972,-130.233"/>
</g>
<!-- Node25 -->
<g id="node25" class="node"><title>Node25</title>
<g id="a_node25"><a xlink:href="../../d2/db1/ShaderLibrary_8hpp.html" target="_top" xlink:title="ShaderLibrary.hpp">
<polygon fill="none" stroke="black" points="792,-112.5 792,-131.5 887,-131.5 887,-112.5 792,-112.5"/>
<text text-anchor="middle" x="839.5" y="-119.5" font-family="Helvetica,sans-Serif" font-size="10.00">ShaderLibrary.hpp</text>
</a>
</g>
</g>
<!-- Node17&#45;&gt;Node25 -->
<g id="edge34" class="edge"><title>Node17&#45;&gt;Node25</title>
<path fill="none" stroke="midnightblue" d="M839.5,-168.083C839.5,-161.006 839.5,-150.861 839.5,-141.986"/>
<polygon fill="midnightblue" stroke="midnightblue" points="843,-141.751 839.5,-131.751 836,-141.751 843,-141.751"/>
</g>
<!-- Node18&#45;&gt;Node18 -->
<g id="edge26" class="edge"><title>Node18&#45;&gt;Node18</title>
<path fill="none" stroke="midnightblue" d="M572.038,-75.5252C586.673,-78.3079 601,-75.1328 601,-66 601,-59.0077 592.602,-55.5077 582.097,-55.5"/>
<polygon fill="midnightblue" stroke="midnightblue" points="581.654,-52.0265 572.038,-56.4748 582.329,-58.9938 581.654,-52.0265"/>
</g>
<!-- Node19 -->
<g id="node19" class="node"><title>Node19</title>
<polygon fill="none" stroke="#bfbfbf" points="982.5,-0.5 982.5,-19.5 1026.5,-19.5 1026.5,-0.5 982.5,-0.5"/>
<text text-anchor="middle" x="1004.5" y="-7.5" font-family="Helvetica,sans-Serif" font-size="10.00">vector</text>
</g>
<!-- Node18&#45;&gt;Node19 -->
<g id="edge24" class="edge"><title>Node18&#45;&gt;Node19</title>
<path fill="none" stroke="midnightblue" d="M583.167,-59.8868C592.027,-58.5582 601.624,-57.1722 610.5,-56 744.613,-38.2884 904.961,-21.2555 972.266,-14.2934"/>
<polygon fill="midnightblue" stroke="midnightblue" points="972.662,-17.7712 982.25,-13.264 971.944,-10.8081 972.662,-17.7712"/>
</g>
<!-- Node20 -->
<g id="node20" class="node"><title>Node20</title>
<polygon fill="none" stroke="#bfbfbf" points="519.5,-0.5 519.5,-19.5 581.5,-19.5 581.5,-0.5 519.5,-0.5"/>
<text text-anchor="middle" x="550.5" y="-7.5" font-family="Helvetica,sans-Serif" font-size="10.00">Library.tpp</text>
</g>
<!-- Node18&#45;&gt;Node20 -->
<g id="edge25" class="edge"><title>Node18&#45;&gt;Node20</title>
<path fill="none" stroke="midnightblue" d="M550.5,-56.083C550.5,-49.0059 550.5,-38.8611 550.5,-29.9865"/>
<polygon fill="midnightblue" stroke="midnightblue" points="554,-29.751 550.5,-19.7511 547,-29.7511 554,-29.751"/>
</g>
<!-- Node21&#45;&gt;Node13 -->
<g id="edge30" class="edge"><title>Node21&#45;&gt;Node13</title>
<path fill="none" stroke="midnightblue" d="M967.265,-112.324C977.266,-104.263 992.387,-92.0765 1004.43,-82.3695"/>
<polygon fill="midnightblue" stroke="midnightblue" points="1006.95,-84.8343 1012.54,-75.8339 1002.56,-79.3841 1006.95,-84.8343"/>
</g>
<!-- Node21&#45;&gt;Node19 -->
<g id="edge29" class="edge"><title>Node21&#45;&gt;Node19</title>
<path fill="none" stroke="midnightblue" d="M954.127,-112.133C951.143,-99.1782 947.329,-74.599 955.5,-56 960.89,-43.732 971.458,-33.3414 981.404,-25.6461"/>
<polygon fill="midnightblue" stroke="midnightblue" points="983.752,-28.2697 989.839,-19.598 979.672,-22.5811 983.752,-28.2697"/>
</g>
<!-- Node22 -->
<g id="node22" class="node"><title>Node22</title>
<polygon fill="none" stroke="#bfbfbf" points="1151.5,-0.5 1151.5,-19.5 1221.5,-19.5 1221.5,-0.5 1151.5,-0.5"/>
<text text-anchor="middle" x="1186.5" y="-7.5" font-family="Helvetica,sans-Serif" font-size="10.00">glm/glm.hpp</text>
</g>
<!-- Node21&#45;&gt;Node22 -->
<g id="edge28" class="edge"><title>Node21&#45;&gt;Node22</title>
<path fill="none" stroke="midnightblue" d="M958.251,-112.33C961.566,-98.2421 970.139,-70.4988 988.5,-56 1032.3,-21.4151 1097.64,-12.3959 1141.14,-10.5487"/>
<polygon fill="midnightblue" stroke="midnightblue" points="1141.27,-14.0463 1151.16,-10.2332 1141.05,-7.04981 1141.27,-14.0463"/>
</g>
<!-- Node23 -->
<g id="node23" class="node"><title>Node23</title>
<g id="a_node23"><a xlink:href="../../d4/d6e/Shader_8hpp.html" target="_top" xlink:title="Shader.hpp">
<polygon fill="none" stroke="black" points="735.5,-56.5 735.5,-75.5 801.5,-75.5 801.5,-56.5 735.5,-56.5"/>
<text text-anchor="middle" x="768.5" y="-63.5" font-family="Helvetica,sans-Serif" font-size="10.00">Shader.hpp</text>
</a>
</g>
</g>
<!-- Node21&#45;&gt;Node23 -->
<g id="edge31" class="edge"><title>Node21&#45;&gt;Node23</title>
<path fill="none" stroke="midnightblue" d="M926.711,-112.444C894.671,-103.241 843.567,-88.5617 808.147,-78.3879"/>
<polygon fill="midnightblue" stroke="midnightblue" points="808.727,-74.9132 798.15,-75.5164 806.795,-81.6412 808.727,-74.9132"/>
</g>
<!-- Node23&#45;&gt;Node6 -->
<g id="edge32" class="edge"><title>Node23&#45;&gt;Node6</title>
<path fill="none" stroke="midnightblue" d="M735.068,-57.6324C732.175,-57.0566 729.289,-56.5039 726.5,-56 626.753,-37.974 507.678,-21.9922 452.454,-14.8945"/>
<polygon fill="midnightblue" stroke="midnightblue" points="452.648,-11.391 442.285,-13.5955 451.761,-18.3345 452.648,-11.391"/>
</g>
<!-- Node25&#45;&gt;Node13 -->
<g id="edge35" class="edge"><title>Node25&#45;&gt;Node13</title>
<path fill="none" stroke="midnightblue" d="M868.655,-112.444C900.936,-102.97 952.989,-87.6935 987.715,-77.5022"/>
<polygon fill="midnightblue" stroke="midnightblue" points="988.846,-80.8178 997.456,-74.6433 986.875,-74.1011 988.846,-80.8178"/>
</g>
<!-- Node25&#45;&gt;Node18 -->
<g id="edge36" class="edge"><title>Node25&#45;&gt;Node18</title>
<path fill="none" stroke="midnightblue" d="M793.707,-112.444C738.533,-102.134 646.581,-84.9529 592.946,-74.9311"/>
<polygon fill="midnightblue" stroke="midnightblue" points="593.547,-71.4828 583.074,-73.0865 592.261,-78.3637 593.547,-71.4828"/>
</g>
<!-- Node25&#45;&gt;Node23 -->
<g id="edge37" class="edge"><title>Node25&#45;&gt;Node23</title>
<path fill="none" stroke="midnightblue" d="M828.093,-112.324C817.391,-104.185 801.159,-91.8395 788.337,-82.0874"/>
<polygon fill="midnightblue" stroke="midnightblue" points="790.193,-79.1018 780.115,-75.8339 785.956,-84.6734 790.193,-79.1018"/>
</g>
<!-- Node26 -->
<g id="node26" class="node"><title>Node26</title>
<g id="a_node26"><a xlink:href="../../d2/dba/ShaderNames_8hpp.html" target="_top" xlink:title="ShaderNames.hpp">
<polygon fill="none" stroke="black" points="619.5,-56.5 619.5,-75.5 717.5,-75.5 717.5,-56.5 619.5,-56.5"/>
<text text-anchor="middle" x="668.5" y="-63.5" font-family="Helvetica,sans-Serif" font-size="10.00">ShaderNames.hpp</text>
</a>
</g>
</g>
<!-- Node25&#45;&gt;Node26 -->
<g id="edge38" class="edge"><title>Node25&#45;&gt;Node26</title>
<path fill="none" stroke="midnightblue" d="M812.405,-112.444C783.512,-103.32 737.575,-88.8133 705.395,-78.6509"/>
<polygon fill="midnightblue" stroke="midnightblue" points="706.059,-75.1903 695.469,-75.5164 703.951,-81.8654 706.059,-75.1903"/>
</g>
<!-- Node27&#45;&gt;Node18 -->
<g id="edge41" class="edge"><title>Node27&#45;&gt;Node18</title>
<path fill="none" stroke="midnightblue" d="M1068.94,-169.309C1065.75,-168.854 1062.58,-168.414 1059.5,-168 922.03,-149.539 883.292,-168.584 749.5,-132 728.389,-126.227 725.05,-119.531 704.5,-112 667.331,-98.3792 623.969,-86.0129 592.745,-77.7061"/>
<polygon fill="midnightblue" stroke="midnightblue" points="593.619,-74.3169 583.058,-75.1552 591.837,-81.0862 593.619,-74.3169"/>
</g>
<!-- Node28 -->
<g id="node28" class="node"><title>Node28</title>
<polygon fill="none" stroke="#bfbfbf" points="1395.5,-56.5 1395.5,-75.5 1489.5,-75.5 1489.5,-56.5 1395.5,-56.5"/>
<text text-anchor="middle" x="1442.5" y="-63.5" font-family="Helvetica,sans-Serif" font-size="10.00">assimp/material.h</text>
</g>
<!-- Node27&#45;&gt;Node28 -->
<g id="edge40" class="edge"><title>Node27&#45;&gt;Node28</title>
<path fill="none" stroke="midnightblue" d="M1150.95,-168.457C1181.22,-160.182 1227.43,-146.746 1266.5,-132 1286.6,-124.415 1290.53,-119.92 1310.5,-112 1342.03,-99.4939 1378.59,-87.1985 1405.22,-78.6288"/>
<polygon fill="midnightblue" stroke="midnightblue" points="1406.45,-81.9103 1414.91,-75.5342 1404.32,-75.242 1406.45,-81.9103"/>
</g>
<!-- Node29 -->
<g id="node29" class="node"><title>Node29</title>
<g id="a_node29"><a xlink:href="../../d0/d70/Material_8hpp.html" target="_top" xlink:title="Material.hpp">
<polygon fill="none" stroke="black" points="1187.5,-112.5 1187.5,-131.5 1257.5,-131.5 1257.5,-112.5 1187.5,-112.5"/>
<text text-anchor="middle" x="1222.5" y="-119.5" font-family="Helvetica,sans-Serif" font-size="10.00">Material.hpp</text>
</a>
</g>
</g>
<!-- Node27&#45;&gt;Node29 -->
<g id="edge42" class="edge"><title>Node27&#45;&gt;Node29</title>
<path fill="none" stroke="midnightblue" d="M1135.21,-168.324C1151.81,-159.703 1177.5,-146.364 1196.72,-136.386"/>
<polygon fill="midnightblue" stroke="midnightblue" points="1198.57,-139.369 1205.83,-131.655 1195.34,-133.156 1198.57,-139.369"/>
</g>
<!-- Node29&#45;&gt;Node13 -->
<g id="edge43" class="edge"><title>Node29&#45;&gt;Node13</title>
<path fill="none" stroke="midnightblue" d="M1190.97,-112.444C1155.3,-102.766 1097.33,-87.0336 1059.81,-76.8518"/>
<polygon fill="midnightblue" stroke="midnightblue" points="1060.37,-73.3779 1049.8,-74.1368 1058.53,-80.1336 1060.37,-73.3779"/>
</g>
<!-- Node29&#45;&gt;Node22 -->
<g id="edge44" class="edge"><title>Node29&#45;&gt;Node22</title>
<path fill="none" stroke="midnightblue" d="M1257.54,-113.247C1290.96,-105.057 1337.76,-91.2372 1348.5,-76 1353.62,-68.7341 1353.88,-63.0767 1348.5,-56 1334.35,-37.3902 1274.5,-24.4526 1231.67,-17.3739"/>
<polygon fill="midnightblue" stroke="midnightblue" points="1232.15,-13.9072 1221.73,-15.7845 1231.05,-20.8194 1232.15,-13.9072"/>
</g>
<!-- Node29&#45;&gt;Node28 -->
<g id="edge45" class="edge"><title>Node29&#45;&gt;Node28</title>
<path fill="none" stroke="midnightblue" d="M1257.36,-112.444C1295.42,-103.102 1356.46,-88.1194 1397.96,-77.9326"/>
<polygon fill="midnightblue" stroke="midnightblue" points="1398.93,-81.2994 1407.8,-75.5164 1397.26,-74.5012 1398.93,-81.2994"/>
</g>
<!-- Node30&#45;&gt;Node18 -->
<g id="edge48" class="edge"><title>Node30&#45;&gt;Node18</title>
<path fill="none" stroke="midnightblue" d="M268.582,-112.444C334.855,-101.761 446.906,-83.6988 507.876,-73.8707"/>
<polygon fill="midnightblue" stroke="midnightblue" points="508.611,-77.2975 517.927,-72.2506 507.497,-70.3867 508.611,-77.2975"/>
</g>
<!-- Node31 -->
<g id="node31" class="node"><title>Node31</title>
<polygon fill="none" stroke="#bfbfbf" points="209.5,-0.5 209.5,-19.5 289.5,-19.5 289.5,-0.5 209.5,-0.5"/>
<text text-anchor="middle" x="249.5" y="-7.5" font-family="Helvetica,sans-Serif" font-size="10.00">assimp/anim.h</text>
</g>
<!-- Node30&#45;&gt;Node31 -->
<g id="edge47" class="edge"><title>Node30&#45;&gt;Node31</title>
<path fill="none" stroke="midnightblue" d="M217.977,-112.137C221.508,-99.5963 228.254,-75.9736 234.5,-56 237.268,-47.1467 240.505,-37.3722 243.261,-29.2013"/>
<polygon fill="midnightblue" stroke="midnightblue" points="246.622,-30.1902 246.528,-19.5958 239.994,-27.9359 246.622,-30.1902"/>
</g>
<!-- Node32 -->
<g id="node32" class="node"><title>Node32</title>
<g id="a_node32"><a xlink:href="../../d0/d36/Animation_8hpp.html" target="_top" xlink:title="Animation.hpp">
<polygon fill="none" stroke="black" points="244,-56.5 244,-75.5 323,-75.5 323,-56.5 244,-56.5"/>
<text text-anchor="middle" x="283.5" y="-63.5" font-family="Helvetica,sans-Serif" font-size="10.00">Animation.hpp</text>
</a>
</g>
</g>
<!-- Node30&#45;&gt;Node32 -->
<g id="edge49" class="edge"><title>Node30&#45;&gt;Node32</title>
<path fill="none" stroke="midnightblue" d="M226.425,-112.324C236.675,-104.185 252.221,-91.8395 264.501,-82.0874"/>
<polygon fill="midnightblue" stroke="midnightblue" points="266.721,-84.7937 272.376,-75.8339 262.368,-79.3119 266.721,-84.7937"/>
</g>
<!-- Node32&#45;&gt;Node6 -->
<g id="edge51" class="edge"><title>Node32&#45;&gt;Node6</title>
<path fill="none" stroke="midnightblue" d="M305.367,-56.4435C328.549,-47.3721 365.329,-32.98 391.276,-22.8268"/>
<polygon fill="midnightblue" stroke="midnightblue" points="392.602,-26.0664 400.639,-19.1629 390.051,-19.5477 392.602,-26.0664"/>
</g>
<!-- Node32&#45;&gt;Node31 -->
<g id="edge50" class="edge"><title>Node32&#45;&gt;Node31</title>
<path fill="none" stroke="midnightblue" d="M277.886,-56.083C273.133,-48.5341 266.182,-37.4948 260.348,-28.2298"/>
<polygon fill="midnightblue" stroke="midnightblue" points="263.3,-26.3486 255.01,-19.7511 257.376,-30.0783 263.3,-26.3486"/>
</g>
<!-- Node33&#45;&gt;Node18 -->
<g id="edge53" class="edge"><title>Node33&#45;&gt;Node18</title>
<path fill="none" stroke="midnightblue" d="M961.885,-171.768C891.366,-163.234 757.437,-145.877 711.5,-132 691.323,-125.905 687.915,-120.205 668.5,-112 640.403,-100.126 607.994,-87.8673 584.258,-79.1492"/>
<polygon fill="midnightblue" stroke="midnightblue" points="585.249,-75.7848 574.655,-75.641 582.847,-82.3598 585.249,-75.7848"/>
</g>
<!-- Node34 -->
<g id="node34" class="node"><title>Node34</title>
<g id="a_node34"><a xlink:href="../../d1/d62/Mesh_8hpp.html" target="_top" xlink:title="Mesh.hpp">
<polygon fill="none" stroke="black" points="1103,-112.5 1103,-131.5 1162,-131.5 1162,-112.5 1103,-112.5"/>
<text text-anchor="middle" x="1132.5" y="-119.5" font-family="Helvetica,sans-Serif" font-size="10.00">Mesh.hpp</text>
</a>
</g>
</g>
<!-- Node33&#45;&gt;Node34 -->
<g id="edge54" class="edge"><title>Node33&#45;&gt;Node34</title>
<path fill="none" stroke="midnightblue" d="M1026.47,-168.444C1047.11,-159.596 1079.56,-145.687 1103.13,-135.586"/>
<polygon fill="midnightblue" stroke="midnightblue" points="1104.82,-138.673 1112.63,-131.516 1102.06,-132.239 1104.82,-138.673"/>
</g>
<!-- Node34&#45;&gt;Node9 -->
<g id="edge58" class="edge"><title>Node34&#45;&gt;Node9</title>
<path fill="none" stroke="midnightblue" d="M1102.98,-115.118C1057.52,-106.06 969.754,-88.5709 913.484,-77.3584"/>
<polygon fill="midnightblue" stroke="midnightblue" points="913.852,-73.8631 903.361,-75.3413 912.484,-80.7281 913.852,-73.8631"/>
</g>
<!-- Node34&#45;&gt;Node13 -->
<g id="edge56" class="edge"><title>Node34&#45;&gt;Node13</title>
<path fill="none" stroke="midnightblue" d="M1114.99,-112.324C1097.43,-103.625 1070.17,-90.1202 1049.97,-80.113"/>
<polygon fill="midnightblue" stroke="midnightblue" points="1051.48,-76.9575 1040.97,-75.6545 1048.38,-83.23 1051.48,-76.9575"/>
</g>
<!-- Node34&#45;&gt;Node19 -->
<g id="edge55" class="edge"><title>Node34&#45;&gt;Node19</title>
<path fill="none" stroke="midnightblue" d="M1122.52,-112.085C1108.37,-99.4831 1081.63,-75.7878 1058.5,-56 1046.65,-45.8585 1033.17,-34.625 1022.64,-25.9187"/>
<polygon fill="midnightblue" stroke="midnightblue" points="1024.86,-23.2123 1014.92,-19.5474 1020.4,-28.6115 1024.86,-23.2123"/>
</g>
<!-- Node34&#45;&gt;Node22 -->
<g id="edge57" class="edge"><title>Node34&#45;&gt;Node22</title>
<path fill="none" stroke="midnightblue" d="M1158,-112.472C1174.49,-105.478 1194.64,-93.792 1204.5,-76 1212.72,-61.1657 1205.88,-42.3097 1198.38,-28.7317"/>
<polygon fill="midnightblue" stroke="midnightblue" points="1201.21,-26.6356 1193.02,-19.9106 1195.23,-30.2732 1201.21,-26.6356"/>
</g>
<!-- Node35 -->
<g id="node35" class="node"><title>Node35</title>
<g id="a_node35"><a xlink:href="../../da/d04/BufferObject_8hpp.html" target="_top" xlink:title="BufferObject.hpp">
<polygon fill="none" stroke="black" points="1105.5,-56.5 1105.5,-75.5 1195.5,-75.5 1195.5,-56.5 1105.5,-56.5"/>
<text text-anchor="middle" x="1150.5" y="-63.5" font-family="Helvetica,sans-Serif" font-size="10.00">BufferObject.hpp</text>
</a>
</g>
</g>
<!-- Node34&#45;&gt;Node35 -->
<g id="edge59" class="edge"><title>Node34&#45;&gt;Node35</title>
<path fill="none" stroke="midnightblue" d="M1135.47,-112.083C1137.88,-104.849 1141.36,-94.4087 1144.37,-85.3968"/>
<polygon fill="midnightblue" stroke="midnightblue" points="1147.74,-86.3447 1147.58,-75.7511 1141.1,-84.1311 1147.74,-86.3447"/>
</g>
<!-- Node36 -->
<g id="node36" class="node"><title>Node36</title>
<g id="a_node36"><a xlink:href="../../df/d20/ArrayObject_8hpp.html" target="_top" xlink:title="ArrayObject.hpp">
<polygon fill="none" stroke="black" points="1252,-56.5 1252,-75.5 1339,-75.5 1339,-56.5 1252,-56.5"/>
<text text-anchor="middle" x="1295.5" y="-63.5" font-family="Helvetica,sans-Serif" font-size="10.00">ArrayObject.hpp</text>
</a>
</g>
</g>
<!-- Node34&#45;&gt;Node36 -->
<g id="edge62" class="edge"><title>Node34&#45;&gt;Node36</title>
<path fill="none" stroke="midnightblue" d="M1158.33,-112.444C1185.75,-103.359 1229.28,-88.9388 1259.93,-78.7831"/>
<polygon fill="midnightblue" stroke="midnightblue" points="1261.4,-81.9837 1269.79,-75.5164 1259.2,-75.3389 1261.4,-81.9837"/>
</g>
<!-- Node35&#45;&gt;Node19 -->
<g id="edge60" class="edge"><title>Node35&#45;&gt;Node19</title>
<path fill="none" stroke="midnightblue" d="M1127.37,-56.4435C1102.73,-47.3322 1063.58,-32.8531 1036.11,-22.6929"/>
<polygon fill="midnightblue" stroke="midnightblue" points="1037.16,-19.3493 1026.57,-19.1629 1034.74,-25.9146 1037.16,-19.3493"/>
</g>
<!-- Node35&#45;&gt;Node22 -->
<g id="edge61" class="edge"><title>Node35&#45;&gt;Node22</title>
<path fill="none" stroke="midnightblue" d="M1156.44,-56.083C1161.48,-48.5341 1168.84,-37.4948 1175.01,-28.2298"/>
<polygon fill="midnightblue" stroke="midnightblue" points="1178.03,-30.0131 1180.67,-19.7511 1172.21,-26.1301 1178.03,-30.0131"/>
</g>
<!-- Node37&#45;&gt;Node18 -->
<g id="edge64" class="edge"><title>Node37&#45;&gt;Node18</title>
<path fill="none" stroke="midnightblue" d="M1186.28,-169.264C1182.97,-168.815 1179.69,-168.388 1176.5,-168 1001.95,-146.732 951.853,-179.322 782.5,-132 762.973,-126.544 760.596,-118.811 741.5,-112 691.868,-94.2971 632.484,-81.5586 593.251,-74.2482"/>
<polygon fill="midnightblue" stroke="midnightblue" points="593.704,-70.7731 583.238,-72.4188 592.446,-77.6591 593.704,-70.7731"/>
</g>
<!-- Node38 -->
<g id="node38" class="node"><title>Node38</title>
<g id="a_node38"><a xlink:href="../../d0/ddc/Texture_8hpp.html" target="_top" xlink:title="Texture.hpp">
<polygon fill="none" stroke="black" points="1319.5,-112.5 1319.5,-131.5 1387.5,-131.5 1387.5,-112.5 1319.5,-112.5"/>
<text text-anchor="middle" x="1353.5" y="-119.5" font-family="Helvetica,sans-Serif" font-size="10.00">Texture.hpp</text>
</a>
</g>
</g>
<!-- Node37&#45;&gt;Node38 -->
<g id="edge65" class="edge"><title>Node37&#45;&gt;Node38</title>
<path fill="none" stroke="midnightblue" d="M1254.2,-168.444C1273.44,-159.636 1303.65,-145.812 1325.7,-135.722"/>
<polygon fill="midnightblue" stroke="midnightblue" points="1327.25,-138.86 1334.89,-131.516 1324.34,-132.495 1327.25,-138.86"/>
</g>
<!-- Node39 -->
<g id="node39" class="node"><title>Node39</title>
<polygon fill="none" stroke="#bfbfbf" points="1508,-56.5 1508,-75.5 1597,-75.5 1597,-56.5 1508,-56.5"/>
<text text-anchor="middle" x="1552.5" y="-63.5" font-family="Helvetica,sans-Serif" font-size="10.00">assimp/texture.h</text>
</g>
<!-- Node38&#45;&gt;Node39 -->
<g id="edge66" class="edge"><title>Node38&#45;&gt;Node39</title>
<path fill="none" stroke="midnightblue" d="M1385.03,-112.444C1419.09,-103.201 1473.51,-88.4356 1511.02,-78.2572"/>
<polygon fill="midnightblue" stroke="midnightblue" points="1512.38,-81.5132 1521.12,-75.5164 1510.55,-74.7575 1512.38,-81.5132"/>
</g>
</g>
</svg>
