<?xml version="1.0" encoding="UTF-8" standalone="no"?>
<!DOCTYPE svg PUBLIC "-//W3C//DTD SVG 1.1//EN"
 "http://www.w3.org/Graphics/SVG/1.1/DTD/svg11.dtd">
<!-- Generated by graphviz version 2.38.0 (20140413.2041)
 -->
<!-- Title: engine/AssimpImporter/AssimpImporter.cpp Pages: 1 -->
<svg width="972pt" height="487pt"
 viewBox="0.00 0.00 972.00 487.00" xmlns="http://www.w3.org/2000/svg" xmlns:xlink="http://www.w3.org/1999/xlink">
<g id="graph0" class="graph" transform="scale(1 1) rotate(0) translate(4 483)">
<title>engine/AssimpImporter/AssimpImporter.cpp</title>
<!-- Node1 -->
<g id="node1" class="node"><title>Node1</title>
<polygon fill="#bfbfbf" stroke="black" points="278.5,-448.5 278.5,-478.5 395.5,-478.5 395.5,-448.5 278.5,-448.5"/>
<text text-anchor="start" x="286.5" y="-466.5" font-family="Helvetica,sans-Serif" font-size="10.00">engine/AssimpImporter</text>
<text text-anchor="middle" x="337" y="-455.5" font-family="Helvetica,sans-Serif" font-size="10.00">/AssimpImporter.cpp</text>
</g>
<!-- Node2 -->
<g id="node2" class="node"><title>Node2</title>
<polygon fill="none" stroke="#bfbfbf" points="47.5,-392.5 47.5,-411.5 160.5,-411.5 160.5,-392.5 47.5,-392.5"/>
<text text-anchor="middle" x="104" y="-399.5" font-family="Helvetica,sans-Serif" font-size="10.00">assimp/postprocess.h</text>
</g>
<!-- Node1&#45;&gt;Node2 -->
<g id="edge1" class="edge"><title>Node1&#45;&gt;Node2</title>
<path fill="none" stroke="midnightblue" d="M282.077,-448.475C240.827,-437.941 185.122,-423.716 147.067,-413.998"/>
<polygon fill="midnightblue" stroke="midnightblue" points="147.866,-410.59 137.311,-411.506 146.134,-417.372 147.866,-410.59"/>
</g>
<!-- Node3 -->
<g id="node3" class="node"><title>Node3</title>
<polygon fill="none" stroke="#bfbfbf" points="179,-392.5 179,-411.5 265,-411.5 265,-392.5 179,-392.5"/>
<text text-anchor="middle" x="222" y="-399.5" font-family="Helvetica,sans-Serif" font-size="10.00">assimp/scene.h</text>
</g>
<!-- Node1&#45;&gt;Node3 -->
<g id="edge2" class="edge"><title>Node1&#45;&gt;Node3</title>
<path fill="none" stroke="midnightblue" d="M309.747,-448.399C290.968,-438.684 266.174,-425.855 247.732,-416.314"/>
<polygon fill="midnightblue" stroke="midnightblue" points="249.224,-413.145 238.734,-411.658 246.007,-419.362 249.224,-413.145"/>
</g>
<!-- Node4 -->
<g id="node4" class="node"><title>Node4</title>
<polygon fill="none" stroke="#bfbfbf" points="283.5,-392.5 283.5,-411.5 390.5,-411.5 390.5,-392.5 283.5,-392.5"/>
<text text-anchor="middle" x="337" y="-399.5" font-family="Helvetica,sans-Serif" font-size="10.00">log4cpp/Category.hh</text>
</g>
<!-- Node1&#45;&gt;Node4 -->
<g id="edge3" class="edge"><title>Node1&#45;&gt;Node4</title>
<path fill="none" stroke="midnightblue" d="M337,-448.399C337,-440.466 337,-430.458 337,-421.858"/>
<polygon fill="midnightblue" stroke="midnightblue" points="340.5,-421.658 337,-411.658 333.5,-421.658 340.5,-421.658"/>
</g>
<!-- Node5 -->
<g id="node5" class="node"><title>Node5</title>
<g id="a_node5"><a xlink:href="../../d0/dbd/AssimpImporter_8hpp.html" target="_top" xlink:title="AssimpImporter.hpp">
<polygon fill="none" stroke="black" points="591,-392.5 591,-411.5 695,-411.5 695,-392.5 591,-392.5"/>
<text text-anchor="middle" x="643" y="-399.5" font-family="Helvetica,sans-Serif" font-size="10.00">AssimpImporter.hpp</text>
</a>
</g>
</g>
<!-- Node1&#45;&gt;Node5 -->
<g id="edge4" class="edge"><title>Node1&#45;&gt;Node5</title>
<path fill="none" stroke="midnightblue" d="M395.638,-451.098C451.395,-440.257 534.582,-424.081 588.817,-413.536"/>
<polygon fill="midnightblue" stroke="midnightblue" points="589.779,-416.914 598.927,-411.57 588.443,-410.043 589.779,-416.914"/>
</g>
<!-- Node25 -->
<g id="node25" class="node"><title>Node25</title>
<g id="a_node25"><a xlink:href="../../df/d6e/Model_8hpp.html" target="_top" xlink:title="Model.hpp">
<polygon fill="none" stroke="black" points="305,-336.5 305,-355.5 367,-355.5 367,-336.5 305,-336.5"/>
<text text-anchor="middle" x="336" y="-343.5" font-family="Helvetica,sans-Serif" font-size="10.00">Model.hpp</text>
</a>
</g>
</g>
<!-- Node1&#45;&gt;Node25 -->
<g id="edge44" class="edge"><title>Node1&#45;&gt;Node25</title>
<path fill="none" stroke="midnightblue" d="M365.01,-448.27C386.811,-435.117 411.575,-414.288 400,-392 392.847,-378.226 379.329,-367.783 366.553,-360.441"/>
<polygon fill="midnightblue" stroke="midnightblue" points="367.958,-357.225 357.483,-355.64 364.683,-363.412 367.958,-357.225"/>
</g>
<!-- Node6 -->
<g id="node6" class="node"><title>Node6</title>
<polygon fill="none" stroke="#bfbfbf" points="838.5,-0.5 838.5,-19.5 879.5,-19.5 879.5,-0.5 838.5,-0.5"/>
<text text-anchor="middle" x="859" y="-7.5" font-family="Helvetica,sans-Serif" font-size="10.00">string</text>
</g>
<!-- Node5&#45;&gt;Node6 -->
<g id="edge5" class="edge"><title>Node5&#45;&gt;Node6</title>
<path fill="none" stroke="midnightblue" d="M695.289,-394.102C786.248,-380.626 964,-347.112 964,-291 964,-291 964,-291 964,-121 964,-76.0195 917.493,-42.1886 886.382,-24.5896"/>
<polygon fill="midnightblue" stroke="midnightblue" points="887.748,-21.3489 877.29,-19.6546 884.409,-27.5011 887.748,-21.3489"/>
</g>
<!-- Node7 -->
<g id="node7" class="node"><title>Node7</title>
<polygon fill="none" stroke="#bfbfbf" points="906.5,-280.5 906.5,-299.5 935.5,-299.5 935.5,-280.5 906.5,-280.5"/>
<text text-anchor="middle" x="921" y="-287.5" font-family="Helvetica,sans-Serif" font-size="10.00">list</text>
</g>
<!-- Node5&#45;&gt;Node7 -->
<g id="edge6" class="edge"><title>Node5&#45;&gt;Node7</title>
<path fill="none" stroke="midnightblue" d="M664.814,-392.368C716.041,-372.099 843.71,-321.583 897.019,-300.489"/>
<polygon fill="midnightblue" stroke="midnightblue" points="898.349,-303.727 906.36,-296.793 895.773,-297.218 898.349,-303.727"/>
</g>
<!-- Node8 -->
<g id="node8" class="node"><title>Node8</title>
<polygon fill="none" stroke="#bfbfbf" points="641,-336.5 641,-355.5 747,-355.5 747,-336.5 641,-336.5"/>
<text text-anchor="middle" x="694" y="-343.5" font-family="Helvetica,sans-Serif" font-size="10.00">assimp/Importer.hpp</text>
</g>
<!-- Node5&#45;&gt;Node8 -->
<g id="edge7" class="edge"><title>Node5&#45;&gt;Node8</title>
<path fill="none" stroke="midnightblue" d="M651.422,-392.083C658.848,-384.22 669.852,-372.569 678.812,-363.081"/>
<polygon fill="midnightblue" stroke="midnightblue" points="681.413,-365.424 685.735,-355.751 676.324,-360.618 681.413,-365.424"/>
</g>
<!-- Node9 -->
<g id="node9" class="node"><title>Node9</title>
<polygon fill="none" stroke="#bfbfbf" points="318.5,-112.5 318.5,-131.5 401.5,-131.5 401.5,-112.5 318.5,-112.5"/>
<text text-anchor="middle" x="360" y="-119.5" font-family="Helvetica,sans-Serif" font-size="10.00">assimp/mesh.h</text>
</g>
<!-- Node5&#45;&gt;Node9 -->
<g id="edge8" class="edge"><title>Node5&#45;&gt;Node9</title>
<path fill="none" stroke="midnightblue" d="M590.989,-399.122C521.225,-393.505 406,-371.971 406,-291 406,-291 406,-291 406,-233 406,-197.817 385.722,-160.863 372.093,-139.999"/>
<polygon fill="midnightblue" stroke="midnightblue" points="374.91,-137.916 366.396,-131.609 369.119,-141.848 374.91,-137.916"/>
</g>
<!-- Node10 -->
<g id="node10" class="node"><title>Node10</title>
<g id="a_node10"><a xlink:href="../../db/de8/Scene_8hpp.html" target="_top" xlink:title="Scene.hpp">
<polygon fill="none" stroke="black" points="559.5,-336.5 559.5,-355.5 622.5,-355.5 622.5,-336.5 559.5,-336.5"/>
<text text-anchor="middle" x="591" y="-343.5" font-family="Helvetica,sans-Serif" font-size="10.00">Scene.hpp</text>
</a>
</g>
</g>
<!-- Node5&#45;&gt;Node10 -->
<g id="edge9" class="edge"><title>Node5&#45;&gt;Node10</title>
<path fill="none" stroke="midnightblue" d="M634.413,-392.083C626.841,-384.22 615.622,-372.569 606.486,-363.081"/>
<polygon fill="midnightblue" stroke="midnightblue" points="608.885,-360.527 599.427,-355.751 603.842,-365.382 608.885,-360.527"/>
</g>
<!-- Node10&#45;&gt;Node7 -->
<g id="edge11" class="edge"><title>Node10&#45;&gt;Node7</title>
<path fill="none" stroke="midnightblue" d="M622.735,-337.776C625.859,-337.142 628.987,-336.538 632,-336 746.839,-315.478 778.135,-325.373 892,-300 893.479,-299.67 894.992,-299.301 896.512,-298.906"/>
<polygon fill="midnightblue" stroke="midnightblue" points="897.741,-302.194 906.372,-296.05 895.793,-295.47 897.741,-302.194"/>
</g>
<!-- Node11 -->
<g id="node11" class="node"><title>Node11</title>
<polygon fill="none" stroke="#bfbfbf" points="805,-56.5 805,-75.5 857,-75.5 857,-56.5 805,-56.5"/>
<text text-anchor="middle" x="831" y="-63.5" font-family="Helvetica,sans-Serif" font-size="10.00">memory</text>
</g>
<!-- Node10&#45;&gt;Node11 -->
<g id="edge10" class="edge"><title>Node10&#45;&gt;Node11</title>
<path fill="none" stroke="midnightblue" d="M611.661,-336.44C664.944,-313.074 806.566,-242.468 860,-132 867.857,-115.757 857.316,-96.8973 846.81,-83.6898"/>
<polygon fill="midnightblue" stroke="midnightblue" points="849.284,-81.1997 840.103,-75.9111 843.982,-85.7704 849.284,-81.1997"/>
</g>
<!-- Node12 -->
<g id="node12" class="node"><title>Node12</title>
<g id="a_node12"><a xlink:href="../../d4/db5/GameObject_8hpp.html" target="_top" xlink:title="GameObject.hpp">
<polygon fill="none" stroke="black" points="273,-224.5 273,-243.5 363,-243.5 363,-224.5 273,-224.5"/>
<text text-anchor="middle" x="318" y="-231.5" font-family="Helvetica,sans-Serif" font-size="10.00">GameObject.hpp</text>
</a>
</g>
</g>
<!-- Node10&#45;&gt;Node12 -->
<g id="edge12" class="edge"><title>Node10&#45;&gt;Node12</title>
<path fill="none" stroke="midnightblue" d="M569.578,-336.368C521.435,-316.97 404.54,-269.87 348.693,-247.367"/>
<polygon fill="midnightblue" stroke="midnightblue" points="349.906,-244.082 339.322,-243.591 347.29,-250.575 349.906,-244.082"/>
</g>
<!-- Node23 -->
<g id="node23" class="node"><title>Node23</title>
<g id="a_node23"><a xlink:href="../../d6/d80/Camera_8hpp.html" target="_top" xlink:title="Camera.hpp">
<polygon fill="none" stroke="black" points="166,-280.5 166,-299.5 236,-299.5 236,-280.5 166,-280.5"/>
<text text-anchor="middle" x="201" y="-287.5" font-family="Helvetica,sans-Serif" font-size="10.00">Camera.hpp</text>
</a>
</g>
</g>
<!-- Node10&#45;&gt;Node23 -->
<g id="edge39" class="edge"><title>Node10&#45;&gt;Node23</title>
<path fill="none" stroke="midnightblue" d="M559.415,-340.627C490.517,-331.087 326.504,-308.378 246.481,-297.297"/>
<polygon fill="midnightblue" stroke="midnightblue" points="246.613,-293.782 236.227,-295.878 245.652,-300.716 246.613,-293.782"/>
</g>
<!-- Node24 -->
<g id="node24" class="node"><title>Node24</title>
<g id="a_node24"><a xlink:href="../../d5/dd5/Light_8hpp.html" target="_top" xlink:title="Light.hpp">
<polygon fill="none" stroke="black" points="563,-280.5 563,-299.5 619,-299.5 619,-280.5 563,-280.5"/>
<text text-anchor="middle" x="591" y="-287.5" font-family="Helvetica,sans-Serif" font-size="10.00">Light.hpp</text>
</a>
</g>
</g>
<!-- Node10&#45;&gt;Node24 -->
<g id="edge43" class="edge"><title>Node10&#45;&gt;Node24</title>
<path fill="none" stroke="midnightblue" d="M591,-336.083C591,-329.006 591,-318.861 591,-309.986"/>
<polygon fill="midnightblue" stroke="midnightblue" points="594.5,-309.751 591,-299.751 587.5,-309.751 594.5,-309.751"/>
</g>
<!-- Node12&#45;&gt;Node11 -->
<g id="edge14" class="edge"><title>Node12&#45;&gt;Node11</title>
<path fill="none" stroke="midnightblue" d="M363.106,-231.277C434.938,-227.729 579.327,-217.301 698,-188 765.472,-171.341 804.628,-189.27 844,-132 853.548,-118.111 847.917,-98.8405 841.349,-84.891"/>
<polygon fill="midnightblue" stroke="midnightblue" points="844.343,-83.0639 836.605,-75.8272 838.142,-86.31 844.343,-83.0639"/>
</g>
<!-- Node13 -->
<g id="node13" class="node"><title>Node13</title>
<polygon fill="none" stroke="#bfbfbf" points="325,-56.5 325,-75.5 395,-75.5 395,-56.5 325,-56.5"/>
<text text-anchor="middle" x="360" y="-63.5" font-family="Helvetica,sans-Serif" font-size="10.00">glm/glm.hpp</text>
</g>
<!-- Node12&#45;&gt;Node13 -->
<g id="edge13" class="edge"><title>Node12&#45;&gt;Node13</title>
<path fill="none" stroke="midnightblue" d="M314.773,-224.305C307.682,-203.726 292.699,-150.848 310,-112 315.568,-99.4981 326.516,-89.0124 336.751,-81.3167"/>
<polygon fill="midnightblue" stroke="midnightblue" points="338.851,-84.1193 345.048,-75.5256 334.844,-78.3794 338.851,-84.1193"/>
</g>
<!-- Node14 -->
<g id="node14" class="node"><title>Node14</title>
<g id="a_node14"><a xlink:href="../../de/df7/worldparticles_8hpp.html" target="_top" xlink:title="wordparticles configuration file ">
<polygon fill="none" stroke="black" points="128.5,-112.5 128.5,-131.5 223.5,-131.5 223.5,-112.5 128.5,-112.5"/>
<text text-anchor="middle" x="176" y="-119.5" font-family="Helvetica,sans-Serif" font-size="10.00">worldparticles.hpp</text>
</a>
</g>
</g>
<!-- Node12&#45;&gt;Node14 -->
<g id="edge15" class="edge"><title>Node12&#45;&gt;Node14</title>
<path fill="none" stroke="midnightblue" d="M272.92,-226.781C246.842,-220.937 215.275,-209.667 195,-188 183.337,-175.536 178.792,-156.303 177.042,-141.987"/>
<polygon fill="midnightblue" stroke="midnightblue" points="180.508,-141.444 176.156,-131.784 173.534,-142.05 180.508,-141.444"/>
</g>
<!-- Node15 -->
<g id="node15" class="node"><title>Node15</title>
<g id="a_node15"><a xlink:href="../../da/d83/Transform_8hpp.html" target="_top" xlink:title="Transform.hpp">
<polygon fill="none" stroke="black" points="0,-168.5 0,-187.5 80,-187.5 80,-168.5 0,-168.5"/>
<text text-anchor="middle" x="40" y="-175.5" font-family="Helvetica,sans-Serif" font-size="10.00">Transform.hpp</text>
</a>
</g>
</g>
<!-- Node12&#45;&gt;Node15 -->
<g id="edge16" class="edge"><title>Node12&#45;&gt;Node15</title>
<path fill="none" stroke="midnightblue" d="M273.95,-224.444C224,-214.741 142.716,-198.952 90.3113,-188.773"/>
<polygon fill="midnightblue" stroke="midnightblue" points="90.7172,-185.286 80.2333,-186.815 89.3824,-192.158 90.7172,-185.286"/>
</g>
<!-- Node16 -->
<g id="node16" class="node"><title>Node16</title>
<g id="a_node16"><a xlink:href="../../d1/dca/IRenderer_8hpp.html" target="_top" xlink:title="IRenderer.hpp">
<polygon fill="none" stroke="black" points="204,-168.5 204,-187.5 282,-187.5 282,-168.5 204,-168.5"/>
<text text-anchor="middle" x="243" y="-175.5" font-family="Helvetica,sans-Serif" font-size="10.00">IRenderer.hpp</text>
</a>
</g>
</g>
<!-- Node12&#45;&gt;Node16 -->
<g id="edge18" class="edge"><title>Node12&#45;&gt;Node16</title>
<path fill="none" stroke="midnightblue" d="M305.95,-224.324C294.537,-216.107 277.169,-203.602 263.565,-193.807"/>
<polygon fill="midnightblue" stroke="midnightblue" points="265.43,-190.837 255.269,-187.834 261.34,-196.517 265.43,-190.837"/>
</g>
<!-- Node17 -->
<g id="node17" class="node"><title>Node17</title>
<g id="a_node17"><a xlink:href="../../d0/d70/Material_8hpp.html" target="_top" xlink:title="Material.hpp">
<polygon fill="none" stroke="black" points="619,-168.5 619,-187.5 689,-187.5 689,-168.5 619,-168.5"/>
<text text-anchor="middle" x="654" y="-175.5" font-family="Helvetica,sans-Serif" font-size="10.00">Material.hpp</text>
</a>
</g>
</g>
<!-- Node12&#45;&gt;Node17 -->
<g id="edge22" class="edge"><title>Node12&#45;&gt;Node17</title>
<path fill="none" stroke="midnightblue" d="M363.314,-225.717C427.454,-215.409 544.053,-196.67 608.366,-186.334"/>
<polygon fill="midnightblue" stroke="midnightblue" points="609.285,-189.731 618.603,-184.689 608.174,-182.82 609.285,-189.731"/>
</g>
<!-- Node21 -->
<g id="node21" class="node"><title>Node21</title>
<g id="a_node21"><a xlink:href="../../d1/d62/Mesh_8hpp.html" target="_top" xlink:title="Mesh.hpp">
<polygon fill="none" stroke="black" points="442.5,-168.5 442.5,-187.5 501.5,-187.5 501.5,-168.5 442.5,-168.5"/>
<text text-anchor="middle" x="472" y="-175.5" font-family="Helvetica,sans-Serif" font-size="10.00">Mesh.hpp</text>
</a>
</g>
</g>
<!-- Node12&#45;&gt;Node21 -->
<g id="edge31" class="edge"><title>Node12&#45;&gt;Node21</title>
<path fill="none" stroke="midnightblue" d="M342.402,-224.444C368.197,-215.399 409.077,-201.064 438.018,-190.916"/>
<polygon fill="midnightblue" stroke="midnightblue" points="439.434,-194.128 447.712,-187.516 437.118,-187.523 439.434,-194.128"/>
</g>
<!-- Node15&#45;&gt;Node13 -->
<g id="edge17" class="edge"><title>Node15&#45;&gt;Node13</title>
<path fill="none" stroke="midnightblue" d="M43.5468,-168.136C49.794,-153.769 64.1981,-125.634 86,-112 123.294,-88.6782 246.649,-75.7395 314.42,-70.2316"/>
<polygon fill="midnightblue" stroke="midnightblue" points="315.104,-73.6885 324.797,-69.411 314.553,-66.7103 315.104,-73.6885"/>
</g>
<!-- Node16&#45;&gt;Node11 -->
<g id="edge20" class="edge"><title>Node16&#45;&gt;Node11</title>
<path fill="none" stroke="midnightblue" d="M282.068,-174.942C394.192,-168.844 711.756,-150.161 755,-132 780.392,-121.336 803.496,-98.9314 817.399,-83.4301"/>
<polygon fill="midnightblue" stroke="midnightblue" points="820.236,-85.4996 824.132,-75.6469 814.942,-80.9199 820.236,-85.4996"/>
</g>
<!-- Node16&#45;&gt;Node13 -->
<g id="edge19" class="edge"><title>Node16&#45;&gt;Node13</title>
<path fill="none" stroke="midnightblue" d="M245.499,-168.418C249.793,-154.943 259.716,-128.646 276,-112 289.926,-97.7637 309.328,-86.9661 325.978,-79.5209"/>
<polygon fill="midnightblue" stroke="midnightblue" points="327.561,-82.6513 335.4,-75.5241 324.827,-76.207 327.561,-82.6513"/>
</g>
<!-- Node16&#45;&gt;Node14 -->
<g id="edge21" class="edge"><title>Node16&#45;&gt;Node14</title>
<path fill="none" stroke="midnightblue" d="M232.235,-168.324C222.234,-160.263 207.113,-148.077 195.07,-138.369"/>
<polygon fill="midnightblue" stroke="midnightblue" points="196.943,-135.384 186.961,-131.834 192.55,-140.834 196.943,-135.384"/>
</g>
<!-- Node17&#45;&gt;Node11 -->
<g id="edge24" class="edge"><title>Node17&#45;&gt;Node11</title>
<path fill="none" stroke="midnightblue" d="M689.176,-172.616C734.245,-166.223 808.638,-152.788 826,-132 836.534,-119.388 836.727,-100.174 834.922,-85.9039"/>
<polygon fill="midnightblue" stroke="midnightblue" points="838.321,-85.0166 833.204,-75.7396 831.419,-86.1831 838.321,-85.0166"/>
</g>
<!-- Node17&#45;&gt;Node13 -->
<g id="edge23" class="edge"><title>Node17&#45;&gt;Node13</title>
<path fill="none" stroke="midnightblue" d="M643.974,-168.43C627.137,-154.485 591.618,-126.942 557,-112 507.263,-90.532 445.853,-78.59 404.948,-72.4928"/>
<polygon fill="midnightblue" stroke="midnightblue" points="405.405,-69.0226 395.009,-71.0663 404.41,-75.9516 405.405,-69.0226"/>
</g>
<!-- Node18 -->
<g id="node18" class="node"><title>Node18</title>
<g id="a_node18"><a xlink:href="../../dc/ddb/ShaderProgram_8hpp.html" target="_top" xlink:title="ShaderProgram.hpp">
<polygon fill="none" stroke="black" points="642.5,-112.5 642.5,-131.5 745.5,-131.5 745.5,-112.5 642.5,-112.5"/>
<text text-anchor="middle" x="694" y="-119.5" font-family="Helvetica,sans-Serif" font-size="10.00">ShaderProgram.hpp</text>
</a>
</g>
</g>
<!-- Node17&#45;&gt;Node18 -->
<g id="edge25" class="edge"><title>Node17&#45;&gt;Node18</title>
<path fill="none" stroke="midnightblue" d="M660.605,-168.083C666.255,-160.455 674.545,-149.264 681.451,-139.941"/>
<polygon fill="midnightblue" stroke="midnightblue" points="684.378,-141.87 687.518,-131.751 678.753,-137.703 684.378,-141.87"/>
</g>
<!-- Node18&#45;&gt;Node11 -->
<g id="edge28" class="edge"><title>Node18&#45;&gt;Node11</title>
<path fill="none" stroke="midnightblue" d="M715.708,-112.444C738.355,-103.517 774.072,-89.4387 799.752,-79.3168"/>
<polygon fill="midnightblue" stroke="midnightblue" points="801.374,-82.4397 809.394,-75.5164 798.807,-75.9273 801.374,-82.4397"/>
</g>
<!-- Node18&#45;&gt;Node13 -->
<g id="edge26" class="edge"><title>Node18&#45;&gt;Node13</title>
<path fill="none" stroke="midnightblue" d="M642.179,-112.622C577.225,-102.12 466.946,-84.2907 405.243,-74.3147"/>
<polygon fill="midnightblue" stroke="midnightblue" points="405.47,-70.8061 395.04,-72.6651 404.353,-77.7163 405.47,-70.8061"/>
</g>
<!-- Node19 -->
<g id="node19" class="node"><title>Node19</title>
<polygon fill="none" stroke="#bfbfbf" points="554,-56.5 554,-75.5 598,-75.5 598,-56.5 554,-56.5"/>
<text text-anchor="middle" x="576" y="-63.5" font-family="Helvetica,sans-Serif" font-size="10.00">vector</text>
</g>
<!-- Node18&#45;&gt;Node19 -->
<g id="edge27" class="edge"><title>Node18&#45;&gt;Node19</title>
<path fill="none" stroke="midnightblue" d="M675.303,-112.444C656.056,-103.636 625.848,-89.8116 603.8,-79.722"/>
<polygon fill="midnightblue" stroke="midnightblue" points="605.16,-76.4951 594.61,-75.5164 602.247,-82.8603 605.16,-76.4951"/>
</g>
<!-- Node20 -->
<g id="node20" class="node"><title>Node20</title>
<g id="a_node20"><a xlink:href="../../d4/d6e/Shader_8hpp.html" target="_top" xlink:title="Shader.hpp">
<polygon fill="none" stroke="black" points="691,-56.5 691,-75.5 757,-75.5 757,-56.5 691,-56.5"/>
<text text-anchor="middle" x="724" y="-63.5" font-family="Helvetica,sans-Serif" font-size="10.00">Shader.hpp</text>
</a>
</g>
</g>
<!-- Node18&#45;&gt;Node20 -->
<g id="edge29" class="edge"><title>Node18&#45;&gt;Node20</title>
<path fill="none" stroke="midnightblue" d="M698.954,-112.083C703.104,-104.613 709.153,-93.7244 714.267,-84.5199"/>
<polygon fill="midnightblue" stroke="midnightblue" points="717.341,-86.1924 719.138,-75.7511 711.222,-82.7929 717.341,-86.1924"/>
</g>
<!-- Node20&#45;&gt;Node6 -->
<g id="edge30" class="edge"><title>Node20&#45;&gt;Node6</title>
<path fill="none" stroke="midnightblue" d="M745.391,-56.4435C767.839,-47.4646 803.318,-33.2729 828.653,-23.1386"/>
<polygon fill="midnightblue" stroke="midnightblue" points="830.168,-26.3026 838.153,-19.339 827.568,-19.8033 830.168,-26.3026"/>
</g>
<!-- Node21&#45;&gt;Node9 -->
<g id="edge35" class="edge"><title>Node21&#45;&gt;Node9</title>
<path fill="none" stroke="midnightblue" d="M454.005,-168.324C435.962,-159.625 407.953,-146.12 387.197,-136.113"/>
<polygon fill="midnightblue" stroke="midnightblue" points="388.478,-132.845 377.95,-131.655 385.438,-139.15 388.478,-132.845"/>
</g>
<!-- Node21&#45;&gt;Node11 -->
<g id="edge33" class="edge"><title>Node21&#45;&gt;Node11</title>
<path fill="none" stroke="midnightblue" d="M501.769,-174.161C575.801,-166.904 763.997,-147.179 788,-132 805.282,-121.071 817.145,-100.393 823.964,-85.2858"/>
<polygon fill="midnightblue" stroke="midnightblue" points="827.258,-86.4811 827.884,-75.9048 820.799,-83.7823 827.258,-86.4811"/>
</g>
<!-- Node21&#45;&gt;Node13 -->
<g id="edge34" class="edge"><title>Node21&#45;&gt;Node13</title>
<path fill="none" stroke="midnightblue" d="M464.351,-168.343C453.031,-155.65 430.997,-131.393 411,-112 400.404,-101.724 387.996,-90.7547 378.073,-82.2186"/>
<polygon fill="midnightblue" stroke="midnightblue" points="380.295,-79.5143 370.415,-75.6894 375.754,-84.8409 380.295,-79.5143"/>
</g>
<!-- Node21&#45;&gt;Node19 -->
<g id="edge32" class="edge"><title>Node21&#45;&gt;Node19</title>
<path fill="none" stroke="midnightblue" d="M500.653,-168.361C519.216,-161.369 542.543,-149.728 557,-132 567.788,-118.772 572.451,-99.6409 574.466,-85.5576"/>
<polygon fill="midnightblue" stroke="midnightblue" points="577.952,-85.8805 575.581,-75.5543 570.995,-85.105 577.952,-85.8805"/>
</g>
<!-- Node22 -->
<g id="node22" class="node"><title>Node22</title>
<g id="a_node22"><a xlink:href="../../da/d04/BufferObject_8hpp.html" target="_top" xlink:title="BufferObject.hpp">
<polygon fill="none" stroke="black" points="458,-112.5 458,-131.5 548,-131.5 548,-112.5 458,-112.5"/>
<text text-anchor="middle" x="503" y="-119.5" font-family="Helvetica,sans-Serif" font-size="10.00">BufferObject.hpp</text>
</a>
</g>
</g>
<!-- Node21&#45;&gt;Node22 -->
<g id="edge36" class="edge"><title>Node21&#45;&gt;Node22</title>
<path fill="none" stroke="midnightblue" d="M477.119,-168.083C481.408,-160.613 487.658,-149.724 492.942,-140.52"/>
<polygon fill="midnightblue" stroke="midnightblue" points="496.033,-142.166 497.976,-131.751 489.962,-138.681 496.033,-142.166"/>
</g>
<!-- Node22&#45;&gt;Node13 -->
<g id="edge38" class="edge"><title>Node22&#45;&gt;Node13</title>
<path fill="none" stroke="midnightblue" d="M480.341,-112.444C456.598,-103.478 419.091,-89.314 392.262,-79.1827"/>
<polygon fill="midnightblue" stroke="midnightblue" points="393.144,-75.7749 382.553,-75.5164 390.671,-82.3235 393.144,-75.7749"/>
</g>
<!-- Node22&#45;&gt;Node19 -->
<g id="edge37" class="edge"><title>Node22&#45;&gt;Node19</title>
<path fill="none" stroke="midnightblue" d="M514.729,-112.324C525.837,-104.107 542.742,-91.6017 555.983,-81.8069"/>
<polygon fill="midnightblue" stroke="midnightblue" points="558.1,-84.5948 564.058,-75.8339 553.937,-78.9671 558.1,-84.5948"/>
</g>
<!-- Node23&#45;&gt;Node12 -->
<g id="edge42" class="edge"><title>Node23&#45;&gt;Node12</title>
<path fill="none" stroke="midnightblue" d="M219.539,-280.444C238.623,-271.636 268.575,-257.812 290.436,-247.722"/>
<polygon fill="midnightblue" stroke="midnightblue" points="291.935,-250.885 299.548,-243.516 289.001,-244.529 291.935,-250.885"/>
</g>
<!-- Node23&#45;&gt;Node13 -->
<g id="edge40" class="edge"><title>Node23&#45;&gt;Node13</title>
<path fill="none" stroke="midnightblue" d="M190.936,-280.393C160.283,-253.175 72.9106,-167.492 119,-112 143.408,-82.6123 252.081,-72.3122 314.845,-68.7807"/>
<polygon fill="midnightblue" stroke="midnightblue" points="315.076,-72.2735 324.878,-68.2517 314.708,-65.2832 315.076,-72.2735"/>
</g>
<!-- Node23&#45;&gt;Node15 -->
<g id="edge41" class="edge"><title>Node23&#45;&gt;Node15</title>
<path fill="none" stroke="midnightblue" d="M170.394,-280.467C147.826,-273.19 117.152,-261.16 94,-244 76.2099,-230.814 60.626,-210.581 50.8311,-196.195"/>
<polygon fill="midnightblue" stroke="midnightblue" points="53.6796,-194.156 45.2653,-187.718 47.8282,-197.998 53.6796,-194.156"/>
</g>
<!-- Node25&#45;&gt;Node12 -->
<g id="edge45" class="edge"><title>Node25&#45;&gt;Node12</title>
<path fill="none" stroke="midnightblue" d="M334.588,-336.368C331.683,-318.617 324.982,-277.666 321.043,-253.597"/>
<polygon fill="midnightblue" stroke="midnightblue" points="324.475,-252.895 319.406,-243.591 317.567,-254.025 324.475,-252.895"/>
</g>
</g>
</svg>
