<?xml version="1.0" encoding="UTF-8" standalone="no"?>
<!DOCTYPE svg PUBLIC "-//W3C//DTD SVG 1.1//EN"
 "http://www.w3.org/Graphics/SVG/1.1/DTD/svg11.dtd">
<!-- Generated by graphviz version 2.38.0 (20140413.2041)
 -->
<!-- Title: engine/Mesh/Mesh.hpp Pages: 1 -->
<svg width="430pt" height="140pt"
 viewBox="0.00 0.00 429.50 140.00" xmlns="http://www.w3.org/2000/svg" xmlns:xlink="http://www.w3.org/1999/xlink">
<g id="graph0" class="graph" transform="scale(1 1) rotate(0) translate(4 136)">
<title>engine/Mesh/Mesh.hpp</title>
<!-- Node1 -->
<g id="node1" class="node"><title>Node1</title>
<polygon fill="#bfbfbf" stroke="black" points="124,-112.5 124,-131.5 242,-131.5 242,-112.5 124,-112.5"/>
<text text-anchor="middle" x="183" y="-119.5" font-family="Helvetica,sans-Serif" font-size="10.00">engine/Mesh/Mesh.hpp</text>
</g>
<!-- Node2 -->
<g id="node2" class="node"><title>Node2</title>
<polygon fill="none" stroke="#bfbfbf" points="0,-0.5 0,-19.5 44,-19.5 44,-0.5 0,-0.5"/>
<text text-anchor="middle" x="22" y="-7.5" font-family="Helvetica,sans-Serif" font-size="10.00">vector</text>
</g>
<!-- Node1&#45;&gt;Node2 -->
<g id="edge1" class="edge"><title>Node1&#45;&gt;Node2</title>
<path fill="none" stroke="midnightblue" d="M123.557,-113.644C78.2842,-106.676 21.362,-94.4961 7,-76 -3.6188,-62.3246 3.28039,-42.4542 10.8585,-28.2882"/>
<polygon fill="midnightblue" stroke="midnightblue" points="13.952,-29.9323 16.0064,-19.5385 7.9188,-26.3825 13.952,-29.9323"/>
</g>
<!-- Node3 -->
<g id="node3" class="node"><title>Node3</title>
<polygon fill="none" stroke="#bfbfbf" points="16,-56.5 16,-75.5 68,-75.5 68,-56.5 16,-56.5"/>
<text text-anchor="middle" x="42" y="-63.5" font-family="Helvetica,sans-Serif" font-size="10.00">memory</text>
</g>
<!-- Node1&#45;&gt;Node3 -->
<g id="edge2" class="edge"><title>Node1&#45;&gt;Node3</title>
<path fill="none" stroke="midnightblue" d="M160.658,-112.444C137.247,-103.478 100.264,-89.314 73.8104,-79.1827"/>
<polygon fill="midnightblue" stroke="midnightblue" points="74.8277,-75.8245 64.2373,-75.5164 72.3241,-82.3615 74.8277,-75.8245"/>
</g>
<!-- Node4 -->
<g id="node4" class="node"><title>Node4</title>
<polygon fill="none" stroke="#bfbfbf" points="183,-0.5 183,-19.5 253,-19.5 253,-0.5 183,-0.5"/>
<text text-anchor="middle" x="218" y="-7.5" font-family="Helvetica,sans-Serif" font-size="10.00">glm/glm.hpp</text>
</g>
<!-- Node1&#45;&gt;Node4 -->
<g id="edge3" class="edge"><title>Node1&#45;&gt;Node4</title>
<path fill="none" stroke="midnightblue" d="M231.049,-112.458C251.942,-106.101 274.47,-95.0737 287,-76 300.8,-54.9924 273.576,-35.916 249.365,-23.9434"/>
<polygon fill="midnightblue" stroke="midnightblue" points="250.527,-20.6235 239.986,-19.5632 247.565,-26.9659 250.527,-20.6235"/>
</g>
<!-- Node5 -->
<g id="node5" class="node"><title>Node5</title>
<polygon fill="none" stroke="#bfbfbf" points="194.5,-56.5 194.5,-75.5 277.5,-75.5 277.5,-56.5 194.5,-56.5"/>
<text text-anchor="middle" x="236" y="-63.5" font-family="Helvetica,sans-Serif" font-size="10.00">assimp/mesh.h</text>
</g>
<!-- Node1&#45;&gt;Node5 -->
<g id="edge4" class="edge"><title>Node1&#45;&gt;Node5</title>
<path fill="none" stroke="midnightblue" d="M191.752,-112.083C199.47,-104.22 210.905,-92.5688 220.217,-83.0813"/>
<polygon fill="midnightblue" stroke="midnightblue" points="222.904,-85.3396 227.411,-75.7511 217.908,-80.4363 222.904,-85.3396"/>
</g>
<!-- Node6 -->
<g id="node6" class="node"><title>Node6</title>
<g id="a_node6"><a xlink:href="../../da/d04/BufferObject_8hpp.html" target="_top" xlink:title="BufferObject.hpp">
<polygon fill="none" stroke="black" points="86,-56.5 86,-75.5 176,-75.5 176,-56.5 86,-56.5"/>
<text text-anchor="middle" x="131" y="-63.5" font-family="Helvetica,sans-Serif" font-size="10.00">BufferObject.hpp</text>
</a>
</g>
</g>
<!-- Node1&#45;&gt;Node6 -->
<g id="edge5" class="edge"><title>Node1&#45;&gt;Node6</title>
<path fill="none" stroke="midnightblue" d="M174.413,-112.083C166.841,-104.22 155.622,-92.5688 146.486,-83.0813"/>
<polygon fill="midnightblue" stroke="midnightblue" points="148.885,-80.5266 139.427,-75.7511 143.842,-85.3821 148.885,-80.5266"/>
</g>
<!-- Node7 -->
<g id="node7" class="node"><title>Node7</title>
<g id="a_node7"><a xlink:href="../../df/d20/ArrayObject_8hpp.html" target="_top" xlink:title="ArrayObject.hpp">
<polygon fill="none" stroke="black" points="334.5,-56.5 334.5,-75.5 421.5,-75.5 421.5,-56.5 334.5,-56.5"/>
<text text-anchor="middle" x="378" y="-63.5" font-family="Helvetica,sans-Serif" font-size="10.00">ArrayObject.hpp</text>
</a>
</g>
</g>
<!-- Node1&#45;&gt;Node7 -->
<g id="edge8" class="edge"><title>Node1&#45;&gt;Node7</title>
<path fill="none" stroke="midnightblue" d="M213.898,-112.444C247.274,-103.201 300.594,-88.4356 337.349,-78.2572"/>
<polygon fill="midnightblue" stroke="midnightblue" points="338.543,-81.5583 347.246,-75.5164 336.675,-74.8122 338.543,-81.5583"/>
</g>
<!-- Node6&#45;&gt;Node2 -->
<g id="edge6" class="edge"><title>Node6&#45;&gt;Node2</title>
<path fill="none" stroke="midnightblue" d="M113.487,-56.324C95.9276,-47.6247 68.6686,-34.1202 48.4688,-24.113"/>
<polygon fill="midnightblue" stroke="midnightblue" points="49.9837,-20.9575 39.4693,-19.6545 46.8762,-27.23 49.9837,-20.9575"/>
</g>
<!-- Node6&#45;&gt;Node4 -->
<g id="edge7" class="edge"><title>Node6&#45;&gt;Node4</title>
<path fill="none" stroke="midnightblue" d="M144.978,-56.324C158.55,-47.9002 179.38,-34.9709 195.325,-25.0741"/>
<polygon fill="midnightblue" stroke="midnightblue" points="197.406,-27.9019 204.057,-19.6545 193.714,-21.9544 197.406,-27.9019"/>
</g>
</g>
</svg>
