<?xml version="1.0" encoding="UTF-8" standalone="no"?>
<!DOCTYPE svg PUBLIC "-//W3C//DTD SVG 1.1//EN"
 "http://www.w3.org/Graphics/SVG/1.1/DTD/svg11.dtd">
<!-- Generated by graphviz version 2.38.0 (20140413.2041)
 -->
<!-- Title: engine/Mesh/Mesh.hpp Pages: 1 -->
<svg width="299pt" height="140pt"
 viewBox="0.00 0.00 299.47 140.00" xmlns="http://www.w3.org/2000/svg" xmlns:xlink="http://www.w3.org/1999/xlink">
<g id="graph0" class="graph" transform="scale(1 1) rotate(0) translate(4 136)">
<title>engine/Mesh/Mesh.hpp</title>
<!-- Node1 -->
<g id="node1" class="node"><title>Node1</title>
<polygon fill="#bfbfbf" stroke="black" points="72,-112.5 72,-131.5 190,-131.5 190,-112.5 72,-112.5"/>
<text text-anchor="middle" x="131" y="-119.5" font-family="Helvetica,sans-Serif" font-size="10.00">engine/Mesh/Mesh.hpp</text>
</g>
<!-- Node2 -->
<g id="node2" class="node"><title>Node2</title>
<polygon fill="none" stroke="#bfbfbf" points="0,-0.5 0,-19.5 44,-19.5 44,-0.5 0,-0.5"/>
<text text-anchor="middle" x="22" y="-7.5" font-family="Helvetica,sans-Serif" font-size="10.00">vector</text>
</g>
<!-- Node1&#45;&gt;Node2 -->
<g id="edge1" class="edge"><title>Node1&#45;&gt;Node2</title>
<path fill="none" stroke="midnightblue" d="M71.7328,-114.321C47.5252,-108.343 21.7877,-97.0979 7,-76 -2.73508,-62.1108 3.57755,-42.84 10.7627,-28.8907"/>
<polygon fill="midnightblue" stroke="midnightblue" points="14.0181,-30.2476 15.9319,-19.827 7.93746,-26.7797 14.0181,-30.2476"/>
</g>
<!-- Node3 -->
<g id="node3" class="node"><title>Node3</title>
<polygon fill="none" stroke="#bfbfbf" points="16,-56.5 16,-75.5 68,-75.5 68,-56.5 16,-56.5"/>
<text text-anchor="middle" x="42" y="-63.5" font-family="Helvetica,sans-Serif" font-size="10.00">memory</text>
</g>
<!-- Node1&#45;&gt;Node3 -->
<g id="edge2" class="edge"><title>Node1&#45;&gt;Node3</title>
<path fill="none" stroke="midnightblue" d="M116.701,-112.324C102.817,-103.9 81.5076,-90.9709 65.1963,-81.0741"/>
<polygon fill="midnightblue" stroke="midnightblue" points="66.6289,-77.8495 56.2639,-75.6545 62.9978,-83.8341 66.6289,-77.8495"/>
</g>
<!-- Node4 -->
<g id="node4" class="node"><title>Node4</title>
<polygon fill="none" stroke="#bfbfbf" points="183,-0.5 183,-19.5 253,-19.5 253,-0.5 183,-0.5"/>
<text text-anchor="middle" x="218" y="-7.5" font-family="Helvetica,sans-Serif" font-size="10.00">glm/glm.hpp</text>
</g>
<!-- Node1&#45;&gt;Node4 -->
<g id="edge3" class="edge"><title>Node1&#45;&gt;Node4</title>
<path fill="none" stroke="midnightblue" d="M184.986,-112.477C224.956,-104.936 274.545,-92.5559 287,-76 302.265,-55.709 274.067,-36.266 249.25,-24.0193"/>
<polygon fill="midnightblue" stroke="midnightblue" points="250.543,-20.76 240.002,-19.6912 247.575,-27.1001 250.543,-20.76"/>
</g>
<!-- Node5 -->
<g id="node5" class="node"><title>Node5</title>
<polygon fill="none" stroke="#bfbfbf" points="194.5,-56.5 194.5,-75.5 277.5,-75.5 277.5,-56.5 194.5,-56.5"/>
<text text-anchor="middle" x="236" y="-63.5" font-family="Helvetica,sans-Serif" font-size="10.00">assimp/mesh.h</text>
</g>
<!-- Node1&#45;&gt;Node5 -->
<g id="edge4" class="edge"><title>Node1&#45;&gt;Node5</title>
<path fill="none" stroke="midnightblue" d="M147.87,-112.324C164.709,-103.664 190.807,-90.2424 210.238,-80.249"/>
<polygon fill="midnightblue" stroke="midnightblue" points="211.88,-83.3405 219.172,-75.6545 208.678,-77.1155 211.88,-83.3405"/>
</g>
<!-- Node6 -->
<g id="node6" class="node"><title>Node6</title>
<g id="a_node6"><a xlink:href="../../da/d04/BufferObject_8hpp.html" target="_top" xlink:title="BufferObject.hpp">
<polygon fill="none" stroke="black" points="86,-56.5 86,-75.5 176,-75.5 176,-56.5 86,-56.5"/>
<text text-anchor="middle" x="131" y="-63.5" font-family="Helvetica,sans-Serif" font-size="10.00">BufferObject.hpp</text>
</a>
</g>
</g>
<!-- Node1&#45;&gt;Node6 -->
<g id="edge5" class="edge"><title>Node1&#45;&gt;Node6</title>
<path fill="none" stroke="midnightblue" d="M131,-112.083C131,-105.006 131,-94.8611 131,-85.9865"/>
<polygon fill="midnightblue" stroke="midnightblue" points="134.5,-85.751 131,-75.7511 127.5,-85.7511 134.5,-85.751"/>
</g>
<!-- Node6&#45;&gt;Node2 -->
<g id="edge6" class="edge"><title>Node6&#45;&gt;Node2</title>
<path fill="none" stroke="midnightblue" d="M113.487,-56.324C95.9276,-47.6247 68.6686,-34.1202 48.4688,-24.113"/>
<polygon fill="midnightblue" stroke="midnightblue" points="49.9837,-20.9575 39.4693,-19.6545 46.8762,-27.23 49.9837,-20.9575"/>
</g>
<!-- Node6&#45;&gt;Node4 -->
<g id="edge7" class="edge"><title>Node6&#45;&gt;Node4</title>
<path fill="none" stroke="midnightblue" d="M144.978,-56.324C158.55,-47.9002 179.38,-34.9709 195.325,-25.0741"/>
<polygon fill="midnightblue" stroke="midnightblue" points="197.406,-27.9019 204.057,-19.6545 193.714,-21.9544 197.406,-27.9019"/>
</g>
</g>
</svg>
