<?xml version="1.0" encoding="UTF-8" standalone="no"?>
<!DOCTYPE svg PUBLIC "-//W3C//DTD SVG 1.1//EN"
 "http://www.w3.org/Graphics/SVG/1.1/DTD/svg11.dtd">
<!-- Generated by graphviz version 2.38.0 (20140413.2041)
 -->
<!-- Title: WorldParticles::Engine::Transform Pages: 1 -->
<svg width="127pt" height="292pt"
 viewBox="0.00 0.00 127.00 292.00" xmlns="http://www.w3.org/2000/svg" xmlns:xlink="http://www.w3.org/1999/xlink">
<g id="graph0" class="graph" transform="scale(1 1) rotate(0) translate(4 288)">
<title>WorldParticles::Engine::Transform</title>
<!-- Node1 -->
<g id="node1" class="node"><title>Node1</title>
<polygon fill="#bfbfbf" stroke="black" points="-7.10543e-15,-0.5 -7.10543e-15,-156.5 116,-156.5 116,-0.5 -7.10543e-15,-0.5"/>
<text text-anchor="start" x="8" y="-144.5" font-family="Helvetica,sans-Serif" font-size="10.00">WorldParticles::Engine</text>
<text text-anchor="middle" x="58" y="-133.5" font-family="Helvetica,sans-Serif" font-size="10.00">::Transform</text>
<polyline fill="none" stroke="black" points="-7.10543e-15,-126.5 116,-126.5 "/>
<text text-anchor="middle" x="58" y="-114.5" font-family="Helvetica,sans-Serif" font-size="10.00"> </text>
<polyline fill="none" stroke="black" points="-7.10543e-15,-107.5 116,-107.5 "/>
<text text-anchor="start" x="8" y="-95.5" font-family="Helvetica,sans-Serif" font-size="10.00">+ Transform()</text>
<text text-anchor="start" x="8" y="-84.5" font-family="Helvetica,sans-Serif" font-size="10.00">+ ~Transform()</text>
<text text-anchor="start" x="8" y="-73.5" font-family="Helvetica,sans-Serif" font-size="10.00">+ getMatrix()</text>
<text text-anchor="start" x="8" y="-62.5" font-family="Helvetica,sans-Serif" font-size="10.00">+ setPosition()</text>
<text text-anchor="start" x="8" y="-51.5" font-family="Helvetica,sans-Serif" font-size="10.00">+ setRotation()</text>
<text text-anchor="start" x="8" y="-40.5" font-family="Helvetica,sans-Serif" font-size="10.00">+ setScale()</text>
<text text-anchor="start" x="8" y="-29.5" font-family="Helvetica,sans-Serif" font-size="10.00">+ getPosition()</text>
<text text-anchor="start" x="8" y="-18.5" font-family="Helvetica,sans-Serif" font-size="10.00">+ getRotation()</text>
<text text-anchor="start" x="8" y="-7.5" font-family="Helvetica,sans-Serif" font-size="10.00">+ getScale()</text>
</g>
<!-- Node2 -->
<g id="node2" class="node"><title>Node2</title>
<polygon fill="none" stroke="#bfbfbf" points="10,-226.5 10,-283.5 48,-283.5 48,-226.5 10,-226.5"/>
<text text-anchor="middle" x="29" y="-271.5" font-family="Helvetica,sans-Serif" font-size="10.00">mat4</text>
<polyline fill="none" stroke="#bfbfbf" points="10,-264.5 48,-264.5 "/>
<text text-anchor="middle" x="29" y="-252.5" font-family="Helvetica,sans-Serif" font-size="10.00"> </text>
<polyline fill="none" stroke="#bfbfbf" points="10,-245.5 48,-245.5 "/>
<text text-anchor="middle" x="29" y="-233.5" font-family="Helvetica,sans-Serif" font-size="10.00"> </text>
</g>
<!-- Node2&#45;&gt;Node1 -->
<g id="edge1" class="edge"><title>Node2&#45;&gt;Node1</title>
<path fill="none" stroke="#404040" d="M27.5191,-226.431C27.1579,-211.188 27.456,-191.956 30,-175 30.3084,-172.944 30.6497,-170.871 31.0201,-168.786"/>
<polygon fill="none" stroke="#404040" points="31.0718,-168.528 28.3307,-161.858 33.4331,-156.762 36.1743,-163.432 31.0718,-168.528"/>
<text text-anchor="middle" x="48" y="-189" font-family="Helvetica,sans-Serif" font-size="10.00"> #matrix</text>
</g>
<!-- Node3 -->
<g id="node3" class="node"><title>Node3</title>
<polygon fill="none" stroke="#bfbfbf" points="69,-226.5 69,-283.5 107,-283.5 107,-226.5 69,-226.5"/>
<text text-anchor="middle" x="88" y="-271.5" font-family="Helvetica,sans-Serif" font-size="10.00">vec3</text>
<polyline fill="none" stroke="#bfbfbf" points="69,-264.5 107,-264.5 "/>
<text text-anchor="middle" x="88" y="-252.5" font-family="Helvetica,sans-Serif" font-size="10.00"> </text>
<polyline fill="none" stroke="#bfbfbf" points="69,-245.5 107,-245.5 "/>
<text text-anchor="middle" x="88" y="-233.5" font-family="Helvetica,sans-Serif" font-size="10.00"> </text>
</g>
<!-- Node3&#45;&gt;Node1 -->
<g id="edge2" class="edge"><title>Node3&#45;&gt;Node1</title>
<path fill="none" stroke="#404040" d="M83.2464,-226.35C80.5268,-210.531 76.9463,-189.704 73.3396,-168.725"/>
<polygon fill="none" stroke="#404040" points="73.3125,-168.567 68.3537,-163.332 71.2792,-156.741 76.238,-161.976 73.3125,-168.567"/>
<text text-anchor="middle" x="99" y="-200" font-family="Helvetica,sans-Serif" font-size="10.00"> #scale</text>
<text text-anchor="middle" x="99" y="-189" font-family="Helvetica,sans-Serif" font-size="10.00">#rotation</text>
<text text-anchor="middle" x="99" y="-178" font-family="Helvetica,sans-Serif" font-size="10.00">#position</text>
</g>
</g>
</svg>
