<?xml version="1.0" encoding="UTF-8" standalone="no"?>
<!DOCTYPE svg PUBLIC "-//W3C//DTD SVG 1.1//EN"
 "http://www.w3.org/Graphics/SVG/1.1/DTD/svg11.dtd">
<!-- Generated by graphviz version 2.38.0 (20140413.2041)
 -->
<!-- Title: engine/Shaders/ShaderProgram/ShaderProgram.cpp Pages: 1 -->
<svg width="1519pt" height="554pt"
 viewBox="0.00 0.00 1518.50 554.00" xmlns="http://www.w3.org/2000/svg" xmlns:xlink="http://www.w3.org/1999/xlink">
<g id="graph0" class="graph" transform="scale(1 1) rotate(0) translate(4 550)">
<title>engine/Shaders/ShaderProgram/ShaderProgram.cpp</title>
<!-- Node1 -->
<g id="node1" class="node"><title>Node1</title>
<polygon fill="#bfbfbf" stroke="black" points="140.5,-515.5 140.5,-545.5 295.5,-545.5 295.5,-515.5 140.5,-515.5"/>
<text text-anchor="start" x="148.5" y="-533.5" font-family="Helvetica,sans-Serif" font-size="10.00">engine/Shaders/ShaderProgram</text>
<text text-anchor="middle" x="218" y="-522.5" font-family="Helvetica,sans-Serif" font-size="10.00">/ShaderProgram.cpp</text>
</g>
<!-- Node2 -->
<g id="node2" class="node"><title>Node2</title>
<polygon fill="none" stroke="#bfbfbf" points="0,-459.5 0,-478.5 106,-478.5 106,-459.5 0,-459.5"/>
<text text-anchor="middle" x="53" y="-466.5" font-family="Helvetica,sans-Serif" font-size="10.00">glm/gtc/type_ptr.hpp</text>
</g>
<!-- Node1&#45;&gt;Node2 -->
<g id="edge1" class="edge"><title>Node1&#45;&gt;Node2</title>
<path fill="none" stroke="midnightblue" d="M178.897,-515.399C150.842,-505.283 113.427,-491.791 86.6912,-482.149"/>
<polygon fill="midnightblue" stroke="midnightblue" points="87.6033,-478.758 77.009,-478.658 85.2287,-485.343 87.6033,-478.758"/>
</g>
<!-- Node3 -->
<g id="node3" class="node"><title>Node3</title>
<polygon fill="none" stroke="#bfbfbf" points="123.5,-459.5 123.5,-478.5 230.5,-478.5 230.5,-459.5 123.5,-459.5"/>
<text text-anchor="middle" x="177" y="-466.5" font-family="Helvetica,sans-Serif" font-size="10.00">log4cpp/Category.hh</text>
</g>
<!-- Node1&#45;&gt;Node3 -->
<g id="edge2" class="edge"><title>Node1&#45;&gt;Node3</title>
<path fill="none" stroke="midnightblue" d="M208.284,-515.399C202.449,-506.932 194.984,-496.099 188.81,-487.139"/>
<polygon fill="midnightblue" stroke="midnightblue" points="191.522,-484.906 182.966,-478.658 185.758,-488.878 191.522,-484.906"/>
</g>
<!-- Node4 -->
<g id="node4" class="node"><title>Node4</title>
<g id="a_node4"><a xlink:href="../../dc/ddb/ShaderProgram_8hpp.html" target="_top" xlink:title="ShaderProgram.hpp">
<polygon fill="none" stroke="black" points="465.5,-112.5 465.5,-131.5 568.5,-131.5 568.5,-112.5 465.5,-112.5"/>
<text text-anchor="middle" x="517" y="-119.5" font-family="Helvetica,sans-Serif" font-size="10.00">ShaderProgram.hpp</text>
</a>
</g>
</g>
<!-- Node1&#45;&gt;Node4 -->
<g id="edge3" class="edge"><title>Node1&#45;&gt;Node4</title>
<path fill="none" stroke="midnightblue" d="M226.1,-515.496C238.049,-493.48 259,-449.09 259,-408.5 259,-408.5 259,-408.5 259,-233 259,-147.954 379.093,-127.752 455.41,-123.501"/>
<polygon fill="midnightblue" stroke="midnightblue" points="455.59,-126.996 465.41,-123.02 455.253,-120.004 455.59,-126.996"/>
</g>
<!-- Node10 -->
<g id="node10" class="node"><title>Node10</title>
<g id="a_node10"><a xlink:href="../../d1/d2a/glwindow_8h.html" target="_top" xlink:title="glwindow.h">
<polygon fill="none" stroke="black" points="901.5,-459.5 901.5,-478.5 966.5,-478.5 966.5,-459.5 901.5,-459.5"/>
<text text-anchor="middle" x="934" y="-466.5" font-family="Helvetica,sans-Serif" font-size="10.00">glwindow.h</text>
</a>
</g>
</g>
<!-- Node1&#45;&gt;Node10 -->
<g id="edge9" class="edge"><title>Node1&#45;&gt;Node10</title>
<path fill="none" stroke="midnightblue" d="M295.646,-523.048C446.405,-510.519 774.215,-483.278 891.338,-473.545"/>
<polygon fill="midnightblue" stroke="midnightblue" points="891.681,-477.029 901.356,-472.713 891.101,-470.053 891.681,-477.029"/>
</g>
<!-- Node5 -->
<g id="node5" class="node"><title>Node5</title>
<polygon fill="none" stroke="#bfbfbf" points="765,-56.5 765,-75.5 835,-75.5 835,-56.5 765,-56.5"/>
<text text-anchor="middle" x="800" y="-63.5" font-family="Helvetica,sans-Serif" font-size="10.00">glm/glm.hpp</text>
</g>
<!-- Node4&#45;&gt;Node5 -->
<g id="edge4" class="edge"><title>Node4&#45;&gt;Node5</title>
<path fill="none" stroke="midnightblue" d="M561.842,-112.444C614.59,-102.379 701.663,-85.7639 754.636,-75.656"/>
<polygon fill="midnightblue" stroke="midnightblue" points="755.589,-79.0374 764.756,-73.7251 754.277,-72.1615 755.589,-79.0374"/>
</g>
<!-- Node6 -->
<g id="node6" class="node"><title>Node6</title>
<polygon fill="none" stroke="#bfbfbf" points="575,-56.5 575,-75.5 619,-75.5 619,-56.5 575,-56.5"/>
<text text-anchor="middle" x="597" y="-63.5" font-family="Helvetica,sans-Serif" font-size="10.00">vector</text>
</g>
<!-- Node4&#45;&gt;Node6 -->
<g id="edge5" class="edge"><title>Node4&#45;&gt;Node6</title>
<path fill="none" stroke="midnightblue" d="M529.853,-112.324C542.216,-103.979 561.13,-91.2122 575.737,-81.3524"/>
<polygon fill="midnightblue" stroke="midnightblue" points="577.848,-84.1503 584.179,-75.6545 573.932,-78.3483 577.848,-84.1503"/>
</g>
<!-- Node7 -->
<g id="node7" class="node"><title>Node7</title>
<polygon fill="none" stroke="#bfbfbf" points="303,-56.5 303,-75.5 355,-75.5 355,-56.5 303,-56.5"/>
<text text-anchor="middle" x="329" y="-63.5" font-family="Helvetica,sans-Serif" font-size="10.00">memory</text>
</g>
<!-- Node4&#45;&gt;Node7 -->
<g id="edge6" class="edge"><title>Node4&#45;&gt;Node7</title>
<path fill="none" stroke="midnightblue" d="M487.211,-112.444C454.04,-102.916 400.435,-87.5187 364.957,-77.328"/>
<polygon fill="midnightblue" stroke="midnightblue" points="365.595,-73.8698 355.017,-74.473 363.662,-80.5978 365.595,-73.8698"/>
</g>
<!-- Node8 -->
<g id="node8" class="node"><title>Node8</title>
<g id="a_node8"><a xlink:href="../../d4/d6e/Shader_8hpp.html" target="_top" xlink:title="Shader.hpp">
<polygon fill="none" stroke="black" points="484,-56.5 484,-75.5 550,-75.5 550,-56.5 484,-56.5"/>
<text text-anchor="middle" x="517" y="-63.5" font-family="Helvetica,sans-Serif" font-size="10.00">Shader.hpp</text>
</a>
</g>
</g>
<!-- Node4&#45;&gt;Node8 -->
<g id="edge7" class="edge"><title>Node4&#45;&gt;Node8</title>
<path fill="none" stroke="midnightblue" d="M517,-112.083C517,-105.006 517,-94.8611 517,-85.9865"/>
<polygon fill="midnightblue" stroke="midnightblue" points="520.5,-85.751 517,-75.7511 513.5,-85.7511 520.5,-85.751"/>
</g>
<!-- Node9 -->
<g id="node9" class="node"><title>Node9</title>
<polygon fill="none" stroke="#bfbfbf" points="496.5,-0.5 496.5,-19.5 537.5,-19.5 537.5,-0.5 496.5,-0.5"/>
<text text-anchor="middle" x="517" y="-7.5" font-family="Helvetica,sans-Serif" font-size="10.00">string</text>
</g>
<!-- Node8&#45;&gt;Node9 -->
<g id="edge8" class="edge"><title>Node8&#45;&gt;Node9</title>
<path fill="none" stroke="midnightblue" d="M517,-56.083C517,-49.0059 517,-38.8611 517,-29.9865"/>
<polygon fill="midnightblue" stroke="midnightblue" points="520.5,-29.751 517,-19.7511 513.5,-29.7511 520.5,-29.751"/>
</g>
<!-- Node11 -->
<g id="node11" class="node"><title>Node11</title>
<polygon fill="none" stroke="#bfbfbf" points="857.5,-398 857.5,-417 916.5,-417 916.5,-398 857.5,-398"/>
<text text-anchor="middle" x="887" y="-405" font-family="Helvetica,sans-Serif" font-size="10.00">QWindow</text>
</g>
<!-- Node10&#45;&gt;Node11 -->
<g id="edge10" class="edge"><title>Node10&#45;&gt;Node11</title>
<path fill="none" stroke="midnightblue" d="M927.266,-459.475C920.216,-450.55 908.965,-436.307 900.146,-425.143"/>
<polygon fill="midnightblue" stroke="midnightblue" points="902.667,-422.687 893.721,-417.009 897.174,-427.026 902.667,-422.687"/>
</g>
<!-- Node12 -->
<g id="node12" class="node"><title>Node12</title>
<polygon fill="none" stroke="#bfbfbf" points="1045.5,-398 1045.5,-417 1140.5,-417 1140.5,-398 1045.5,-398"/>
<text text-anchor="middle" x="1093" y="-405" font-family="Helvetica,sans-Serif" font-size="10.00">QOpenGLContext</text>
</g>
<!-- Node10&#45;&gt;Node12 -->
<g id="edge11" class="edge"><title>Node10&#45;&gt;Node12</title>
<path fill="none" stroke="midnightblue" d="M956.781,-459.475C984.055,-449.269 1029.91,-432.108 1060.8,-420.549"/>
<polygon fill="midnightblue" stroke="midnightblue" points="1062.12,-423.792 1070.26,-417.009 1059.67,-417.236 1062.12,-423.792"/>
</g>
<!-- Node13 -->
<g id="node13" class="node"><title>Node13</title>
<polygon fill="none" stroke="#bfbfbf" points="1257.5,-392.5 1257.5,-422.5 1370.5,-422.5 1370.5,-392.5 1257.5,-392.5"/>
<text text-anchor="start" x="1265.5" y="-410.5" font-family="Helvetica,sans-Serif" font-size="10.00">QOpenGLFunctions_4</text>
<text text-anchor="middle" x="1314" y="-399.5" font-family="Helvetica,sans-Serif" font-size="10.00">_2_Core</text>
</g>
<!-- Node10&#45;&gt;Node13 -->
<g id="edge12" class="edge"><title>Node10&#45;&gt;Node13</title>
<path fill="none" stroke="midnightblue" d="M966.674,-464.126C1022.16,-457.372 1138.53,-442.453 1247.04,-423.091"/>
<polygon fill="midnightblue" stroke="midnightblue" points="1247.95,-426.482 1257.17,-421.264 1246.71,-419.593 1247.95,-426.482"/>
</g>
<!-- Node14 -->
<g id="node14" class="node"><title>Node14</title>
<polygon fill="none" stroke="#bfbfbf" points="707.5,-398 707.5,-417 774.5,-417 774.5,-398 707.5,-398"/>
<text text-anchor="middle" x="741" y="-405" font-family="Helvetica,sans-Serif" font-size="10.00">QKeyEvent</text>
</g>
<!-- Node10&#45;&gt;Node14 -->
<g id="edge13" class="edge"><title>Node10&#45;&gt;Node14</title>
<path fill="none" stroke="midnightblue" d="M904.592,-459.497C874.284,-450.658 825.709,-436.284 784,-423 781.255,-422.126 778.418,-421.206 775.569,-420.27"/>
<polygon fill="midnightblue" stroke="midnightblue" points="776.558,-416.911 765.965,-417.077 774.35,-423.553 776.558,-416.911"/>
</g>
<!-- Node15 -->
<g id="node15" class="node"><title>Node15</title>
<polygon fill="none" stroke="#bfbfbf" points="793,-398 793,-417 839,-417 839,-398 793,-398"/>
<text text-anchor="middle" x="816" y="-405" font-family="Helvetica,sans-Serif" font-size="10.00">QTime</text>
</g>
<!-- Node10&#45;&gt;Node15 -->
<g id="edge14" class="edge"><title>Node10&#45;&gt;Node15</title>
<path fill="none" stroke="midnightblue" d="M917.093,-459.475C897.466,-449.578 864.869,-433.142 842.01,-421.615"/>
<polygon fill="midnightblue" stroke="midnightblue" points="843.38,-418.386 832.875,-417.009 840.228,-424.637 843.38,-418.386"/>
</g>
<!-- Node16 -->
<g id="node16" class="node"><title>Node16</title>
<g id="a_node16"><a xlink:href="../../d4/d1c/GameEngine_8hpp.html" target="_top" xlink:title="GameEngine.hpp">
<polygon fill="none" stroke="black" points="935,-398 935,-417 1027,-417 1027,-398 935,-398"/>
<text text-anchor="middle" x="981" y="-405" font-family="Helvetica,sans-Serif" font-size="10.00">GameEngine.hpp</text>
</a>
</g>
</g>
<!-- Node10&#45;&gt;Node16 -->
<g id="edge15" class="edge"><title>Node10&#45;&gt;Node16</title>
<path fill="none" stroke="midnightblue" d="M940.734,-459.475C947.784,-450.55 959.035,-436.307 967.854,-425.143"/>
<polygon fill="midnightblue" stroke="midnightblue" points="970.826,-427.026 974.279,-417.009 965.333,-422.687 970.826,-427.026"/>
</g>
<!-- Node29 -->
<g id="node29" class="node"><title>Node29</title>
<g id="a_node29"><a xlink:href="../../dc/d51/model_8h.html" target="_top" xlink:title="model/model.h">
<polygon fill="none" stroke="black" points="1159,-398 1159,-417 1239,-417 1239,-398 1159,-398"/>
<text text-anchor="middle" x="1199" y="-405" font-family="Helvetica,sans-Serif" font-size="10.00">model/model.h</text>
</a>
</g>
</g>
<!-- Node10&#45;&gt;Node29 -->
<g id="edge47" class="edge"><title>Node10&#45;&gt;Node29</title>
<path fill="none" stroke="midnightblue" d="M966.759,-462.045C1009.25,-454.124 1085.55,-439.22 1150,-423 1153.86,-422.029 1157.87,-420.953 1161.86,-419.839"/>
<polygon fill="midnightblue" stroke="midnightblue" points="1162.99,-423.155 1171.64,-417.029 1161.06,-416.427 1162.99,-423.155"/>
</g>
<!-- Node17 -->
<g id="node17" class="node"><title>Node17</title>
<g id="a_node17"><a xlink:href="../../de/df7/worldparticles_8hpp.html" target="_top" xlink:title="wordparticles configuration file ">
<polygon fill="none" stroke="black" points="847.5,-112.5 847.5,-131.5 942.5,-131.5 942.5,-112.5 847.5,-112.5"/>
<text text-anchor="middle" x="895" y="-119.5" font-family="Helvetica,sans-Serif" font-size="10.00">worldparticles.hpp</text>
</a>
</g>
</g>
<!-- Node16&#45;&gt;Node17 -->
<g id="edge16" class="edge"><title>Node16&#45;&gt;Node17</title>
<path fill="none" stroke="midnightblue" d="M991.459,-397.831C1011.64,-380.059 1054,-337.257 1054,-291 1054,-291 1054,-291 1054,-233 1054,-202.902 1056,-189.564 1035,-168 1013.51,-145.926 981.166,-134.664 952.981,-128.925"/>
<polygon fill="midnightblue" stroke="midnightblue" points="953.282,-125.422 942.813,-127.051 952.013,-132.306 953.282,-125.422"/>
</g>
<!-- Node18 -->
<g id="node18" class="node"><title>Node18</title>
<g id="a_node18"><a xlink:href="../../db/de8/Scene_8hpp.html" target="_top" xlink:title="Scene.hpp">
<polygon fill="none" stroke="black" points="856.5,-336.5 856.5,-355.5 919.5,-355.5 919.5,-336.5 856.5,-336.5"/>
<text text-anchor="middle" x="888" y="-343.5" font-family="Helvetica,sans-Serif" font-size="10.00">Scene.hpp</text>
</a>
</g>
</g>
<!-- Node16&#45;&gt;Node18 -->
<g id="edge17" class="edge"><title>Node16&#45;&gt;Node18</title>
<path fill="none" stroke="midnightblue" d="M967.675,-397.975C952.62,-388.343 927.884,-372.517 909.963,-361.052"/>
<polygon fill="midnightblue" stroke="midnightblue" points="911.61,-357.95 901.3,-355.509 907.837,-363.847 911.61,-357.95"/>
</g>
<!-- Node18&#45;&gt;Node7 -->
<g id="edge18" class="edge"><title>Node18&#45;&gt;Node7</title>
<path fill="none" stroke="midnightblue" d="M856.422,-341.079C768.102,-329.111 512.859,-287.617 327,-188 287.825,-167.003 241.095,-151.223 262,-112 269.55,-97.8339 283.761,-87.3348 297.158,-80.0576"/>
<polygon fill="midnightblue" stroke="midnightblue" points="298.834,-83.1329 306.212,-75.5289 295.702,-76.8724 298.834,-83.1329"/>
</g>
<!-- Node19 -->
<g id="node19" class="node"><title>Node19</title>
<polygon fill="none" stroke="#bfbfbf" points="895.5,-280.5 895.5,-299.5 924.5,-299.5 924.5,-280.5 895.5,-280.5"/>
<text text-anchor="middle" x="910" y="-287.5" font-family="Helvetica,sans-Serif" font-size="10.00">list</text>
</g>
<!-- Node18&#45;&gt;Node19 -->
<g id="edge19" class="edge"><title>Node18&#45;&gt;Node19</title>
<path fill="none" stroke="midnightblue" d="M891.633,-336.083C894.612,-328.77 898.926,-318.181 902.625,-309.103"/>
<polygon fill="midnightblue" stroke="midnightblue" points="905.903,-310.333 906.435,-299.751 899.42,-307.691 905.903,-310.333"/>
</g>
<!-- Node20 -->
<g id="node20" class="node"><title>Node20</title>
<g id="a_node20"><a xlink:href="../../d4/db5/GameObject_8hpp.html" target="_top" xlink:title="GameObject.hpp">
<polygon fill="none" stroke="black" points="822,-224.5 822,-243.5 912,-243.5 912,-224.5 822,-224.5"/>
<text text-anchor="middle" x="867" y="-231.5" font-family="Helvetica,sans-Serif" font-size="10.00">GameObject.hpp</text>
</a>
</g>
</g>
<!-- Node18&#45;&gt;Node20 -->
<g id="edge20" class="edge"><title>Node18&#45;&gt;Node20</title>
<path fill="none" stroke="midnightblue" d="M886.352,-336.368C882.963,-318.617 875.145,-277.666 870.55,-253.597"/>
<polygon fill="midnightblue" stroke="midnightblue" points="873.953,-252.758 868.64,-243.591 867.078,-254.07 873.953,-252.758"/>
</g>
<!-- Node27 -->
<g id="node27" class="node"><title>Node27</title>
<g id="a_node27"><a xlink:href="../../d6/d80/Camera_8hpp.html" target="_top" xlink:title="Camera.hpp">
<polygon fill="none" stroke="black" points="943,-280.5 943,-299.5 1013,-299.5 1013,-280.5 943,-280.5"/>
<text text-anchor="middle" x="978" y="-287.5" font-family="Helvetica,sans-Serif" font-size="10.00">Camera.hpp</text>
</a>
</g>
</g>
<!-- Node18&#45;&gt;Node27 -->
<g id="edge42" class="edge"><title>Node18&#45;&gt;Node27</title>
<path fill="none" stroke="midnightblue" d="M902.46,-336.324C916.5,-327.9 938.048,-314.971 954.543,-305.074"/>
<polygon fill="midnightblue" stroke="midnightblue" points="956.802,-307.801 963.576,-299.655 953.2,-301.798 956.802,-307.801"/>
</g>
<!-- Node28 -->
<g id="node28" class="node"><title>Node28</title>
<g id="a_node28"><a xlink:href="../../d5/dd5/Light_8hpp.html" target="_top" xlink:title="Light.hpp">
<polygon fill="none" stroke="black" points="783,-280.5 783,-299.5 839,-299.5 839,-280.5 783,-280.5"/>
<text text-anchor="middle" x="811" y="-287.5" font-family="Helvetica,sans-Serif" font-size="10.00">Light.hpp</text>
</a>
</g>
</g>
<!-- Node18&#45;&gt;Node28 -->
<g id="edge46" class="edge"><title>Node18&#45;&gt;Node28</title>
<path fill="none" stroke="midnightblue" d="M875.629,-336.324C863.842,-328.058 845.868,-315.453 831.864,-305.632"/>
<polygon fill="midnightblue" stroke="midnightblue" points="833.538,-302.531 823.341,-299.655 829.518,-308.262 833.538,-302.531"/>
</g>
<!-- Node20&#45;&gt;Node5 -->
<g id="edge21" class="edge"><title>Node20&#45;&gt;Node5</title>
<path fill="none" stroke="midnightblue" d="M878.06,-224.479C897.484,-208.728 937.077,-172.907 952,-132 955.046,-123.649 957.319,-119.122 952,-112 927.644,-79.3878 880.696,-69.438 845.39,-66.8501"/>
<polygon fill="midnightblue" stroke="midnightblue" points="845.489,-63.3502 835.308,-66.2843 845.096,-70.3392 845.489,-63.3502"/>
</g>
<!-- Node20&#45;&gt;Node7 -->
<g id="edge22" class="edge"><title>Node20&#45;&gt;Node7</title>
<path fill="none" stroke="midnightblue" d="M821.558,-232.603C694.473,-230.427 340.116,-216.732 270,-132 254.8,-113.631 280.212,-93.4382 302.275,-80.5107"/>
<polygon fill="midnightblue" stroke="midnightblue" points="304.054,-83.5266 311.089,-75.6049 300.649,-77.4101 304.054,-83.5266"/>
</g>
<!-- Node20&#45;&gt;Node17 -->
<g id="edge23" class="edge"><title>Node20&#45;&gt;Node17</title>
<path fill="none" stroke="midnightblue" d="M869.197,-224.368C873.716,-206.617 884.139,-165.666 890.266,-141.597"/>
<polygon fill="midnightblue" stroke="midnightblue" points="893.738,-142.146 892.813,-131.591 886.954,-140.419 893.738,-142.146"/>
</g>
<!-- Node21 -->
<g id="node21" class="node"><title>Node21</title>
<g id="a_node21"><a xlink:href="../../da/d83/Transform_8hpp.html" target="_top" xlink:title="Transform.hpp">
<polygon fill="none" stroke="black" points="946,-168.5 946,-187.5 1026,-187.5 1026,-168.5 946,-168.5"/>
<text text-anchor="middle" x="986" y="-175.5" font-family="Helvetica,sans-Serif" font-size="10.00">Transform.hpp</text>
</a>
</g>
</g>
<!-- Node20&#45;&gt;Node21 -->
<g id="edge24" class="edge"><title>Node20&#45;&gt;Node21</title>
<path fill="none" stroke="midnightblue" d="M885.856,-224.444C905.266,-215.636 935.73,-201.812 957.965,-191.722"/>
<polygon fill="midnightblue" stroke="midnightblue" points="959.572,-194.836 967.232,-187.516 956.68,-188.462 959.572,-194.836"/>
</g>
<!-- Node22 -->
<g id="node22" class="node"><title>Node22</title>
<g id="a_node22"><a xlink:href="../../d1/dca/IRenderer_8hpp.html" target="_top" xlink:title="IRenderer.hpp">
<polygon fill="none" stroke="black" points="774,-168.5 774,-187.5 852,-187.5 852,-168.5 774,-168.5"/>
<text text-anchor="middle" x="813" y="-175.5" font-family="Helvetica,sans-Serif" font-size="10.00">IRenderer.hpp</text>
</a>
</g>
</g>
<!-- Node20&#45;&gt;Node22 -->
<g id="edge26" class="edge"><title>Node20&#45;&gt;Node22</title>
<path fill="none" stroke="midnightblue" d="M858.083,-224.083C850.22,-216.22 838.569,-204.569 829.081,-195.081"/>
<polygon fill="midnightblue" stroke="midnightblue" points="831.297,-192.347 821.751,-187.751 826.347,-197.297 831.297,-192.347"/>
</g>
<!-- Node23 -->
<g id="node23" class="node"><title>Node23</title>
<g id="a_node23"><a xlink:href="../../d0/d70/Material_8hpp.html" target="_top" xlink:title="Material.hpp">
<polygon fill="none" stroke="black" points="674,-168.5 674,-187.5 744,-187.5 744,-168.5 674,-168.5"/>
<text text-anchor="middle" x="709" y="-175.5" font-family="Helvetica,sans-Serif" font-size="10.00">Material.hpp</text>
</a>
</g>
</g>
<!-- Node20&#45;&gt;Node23 -->
<g id="edge30" class="edge"><title>Node20&#45;&gt;Node23</title>
<path fill="none" stroke="midnightblue" d="M841.964,-224.444C815.384,-215.359 773.191,-200.939 743.477,-190.783"/>
<polygon fill="midnightblue" stroke="midnightblue" points="744.513,-187.439 733.918,-187.516 742.249,-194.062 744.513,-187.439"/>
</g>
<!-- Node24 -->
<g id="node24" class="node"><title>Node24</title>
<g id="a_node24"><a xlink:href="../../d1/d62/Mesh_8hpp.html" target="_top" xlink:title="Mesh.hpp">
<polygon fill="none" stroke="black" points="573.5,-168.5 573.5,-187.5 632.5,-187.5 632.5,-168.5 573.5,-168.5"/>
<text text-anchor="middle" x="603" y="-175.5" font-family="Helvetica,sans-Serif" font-size="10.00">Mesh.hpp</text>
</a>
</g>
</g>
<!-- Node20&#45;&gt;Node24 -->
<g id="edge34" class="edge"><title>Node20&#45;&gt;Node24</title>
<path fill="none" stroke="midnightblue" d="M825.168,-224.444C775.081,-214.198 691.816,-197.167 642.695,-187.119"/>
<polygon fill="midnightblue" stroke="midnightblue" points="643.255,-183.661 632.756,-185.086 641.852,-190.519 643.255,-183.661"/>
</g>
<!-- Node21&#45;&gt;Node5 -->
<g id="edge25" class="edge"><title>Node21&#45;&gt;Node5</title>
<path fill="none" stroke="midnightblue" d="M988.882,-168.318C992.805,-154.707 997.957,-128.228 985,-112 967.767,-90.4165 894.199,-77.836 845.189,-71.7018"/>
<polygon fill="midnightblue" stroke="midnightblue" points="845.479,-68.2115 835.132,-70.4897 844.642,-75.1612 845.479,-68.2115"/>
</g>
<!-- Node22&#45;&gt;Node5 -->
<g id="edge27" class="edge"><title>Node22&#45;&gt;Node5</title>
<path fill="none" stroke="midnightblue" d="M811.98,-168.368C809.882,-150.617 805.042,-109.666 802.198,-85.5974"/>
<polygon fill="midnightblue" stroke="midnightblue" points="805.665,-85.1115 801.015,-75.5914 798.713,-85.9331 805.665,-85.1115"/>
</g>
<!-- Node22&#45;&gt;Node7 -->
<g id="edge28" class="edge"><title>Node22&#45;&gt;Node7</title>
<path fill="none" stroke="midnightblue" d="M773.97,-170.982C766.992,-169.953 759.785,-168.92 753,-168 621.239,-150.136 582.471,-173.051 456,-132 438.591,-126.349 436.208,-120.504 420,-112 398.799,-100.877 374.474,-88.8874 356.311,-80.0831"/>
<polygon fill="midnightblue" stroke="midnightblue" points="357.44,-76.7417 346.913,-75.5453 354.396,-83.0453 357.44,-76.7417"/>
</g>
<!-- Node22&#45;&gt;Node17 -->
<g id="edge29" class="edge"><title>Node22&#45;&gt;Node17</title>
<path fill="none" stroke="midnightblue" d="M826.175,-168.324C838.847,-159.979 858.233,-147.212 873.206,-137.352"/>
<polygon fill="midnightblue" stroke="midnightblue" points="875.431,-140.078 881.858,-131.655 871.581,-134.231 875.431,-140.078"/>
</g>
<!-- Node23&#45;&gt;Node4 -->
<g id="edge33" class="edge"><title>Node23&#45;&gt;Node4</title>
<path fill="none" stroke="midnightblue" d="M678.577,-168.444C645.715,-159.201 593.215,-144.436 557.026,-134.257"/>
<polygon fill="midnightblue" stroke="midnightblue" points="557.855,-130.855 547.281,-131.516 555.96,-137.593 557.855,-130.855"/>
</g>
<!-- Node23&#45;&gt;Node5 -->
<g id="edge31" class="edge"><title>Node23&#45;&gt;Node5</title>
<path fill="none" stroke="midnightblue" d="M719.599,-168.329C729.803,-159.701 745.359,-145.792 757,-132 769.641,-117.024 781.743,-98.1863 789.869,-84.6513"/>
<polygon fill="midnightblue" stroke="midnightblue" points="792.984,-86.2585 795.034,-75.8639 786.95,-82.7113 792.984,-86.2585"/>
</g>
<!-- Node23&#45;&gt;Node7 -->
<g id="edge32" class="edge"><title>Node23&#45;&gt;Node7</title>
<path fill="none" stroke="midnightblue" d="M673.82,-172.36C602.559,-162.831 445.955,-141.183 423,-132 393.396,-120.157 363.917,-97.5689 346.073,-82.3926"/>
<polygon fill="midnightblue" stroke="midnightblue" points="348.136,-79.5484 338.297,-75.6174 343.537,-84.8258 348.136,-79.5484"/>
</g>
<!-- Node24&#45;&gt;Node5 -->
<g id="edge37" class="edge"><title>Node24&#45;&gt;Node5</title>
<path fill="none" stroke="midnightblue" d="M632.648,-169.16C657.974,-161.734 694.831,-149.161 724,-132 747.232,-118.332 770.237,-97.3362 784.746,-82.9274"/>
<polygon fill="midnightblue" stroke="midnightblue" points="787.354,-85.2677 791.88,-75.6885 782.368,-80.3542 787.354,-85.2677"/>
</g>
<!-- Node24&#45;&gt;Node6 -->
<g id="edge35" class="edge"><title>Node24&#45;&gt;Node6</title>
<path fill="none" stroke="midnightblue" d="M602.529,-168.368C601.561,-150.617 599.327,-109.666 598.014,-85.5974"/>
<polygon fill="midnightblue" stroke="midnightblue" points="601.508,-85.3859 597.469,-75.5914 594.519,-85.7672 601.508,-85.3859"/>
</g>
<!-- Node24&#45;&gt;Node7 -->
<g id="edge36" class="edge"><title>Node24&#45;&gt;Node7</title>
<path fill="none" stroke="midnightblue" d="M573.478,-177.601C500.783,-178.386 316.256,-175.918 278,-132 263.228,-115.041 285.683,-94.4724 305.305,-81.0776"/>
<polygon fill="midnightblue" stroke="midnightblue" points="307.212,-84.0128 313.7,-75.6373 303.405,-78.1384 307.212,-84.0128"/>
</g>
<!-- Node25 -->
<g id="node25" class="node"><title>Node25</title>
<polygon fill="none" stroke="#bfbfbf" points="287.5,-112.5 287.5,-131.5 370.5,-131.5 370.5,-112.5 287.5,-112.5"/>
<text text-anchor="middle" x="329" y="-119.5" font-family="Helvetica,sans-Serif" font-size="10.00">assimp/mesh.h</text>
</g>
<!-- Node24&#45;&gt;Node25 -->
<g id="edge38" class="edge"><title>Node24&#45;&gt;Node25</title>
<path fill="none" stroke="midnightblue" d="M573.417,-171.17C527.336,-162.088 437.803,-144.443 380.834,-133.216"/>
<polygon fill="midnightblue" stroke="midnightblue" points="381.43,-129.766 370.942,-131.266 380.076,-136.633 381.43,-129.766"/>
</g>
<!-- Node26 -->
<g id="node26" class="node"><title>Node26</title>
<g id="a_node26"><a xlink:href="../../da/d04/BufferObject_8hpp.html" target="_top" xlink:title="BufferObject.hpp">
<polygon fill="none" stroke="black" points="625,-112.5 625,-131.5 715,-131.5 715,-112.5 625,-112.5"/>
<text text-anchor="middle" x="670" y="-119.5" font-family="Helvetica,sans-Serif" font-size="10.00">BufferObject.hpp</text>
</a>
</g>
</g>
<!-- Node24&#45;&gt;Node26 -->
<g id="edge39" class="edge"><title>Node24&#45;&gt;Node26</title>
<path fill="none" stroke="midnightblue" d="M613.765,-168.324C623.766,-160.263 638.887,-148.077 650.93,-138.369"/>
<polygon fill="midnightblue" stroke="midnightblue" points="653.45,-140.834 659.039,-131.834 649.057,-135.384 653.45,-140.834"/>
</g>
<!-- Node26&#45;&gt;Node5 -->
<g id="edge41" class="edge"><title>Node26&#45;&gt;Node5</title>
<path fill="none" stroke="midnightblue" d="M690.599,-112.444C711.993,-103.557 745.681,-89.5632 770.024,-79.4514"/>
<polygon fill="midnightblue" stroke="midnightblue" points="771.605,-82.5848 779.497,-75.5164 768.92,-76.1203 771.605,-82.5848"/>
</g>
<!-- Node26&#45;&gt;Node6 -->
<g id="edge40" class="edge"><title>Node26&#45;&gt;Node6</title>
<path fill="none" stroke="midnightblue" d="M658.271,-112.324C647.163,-104.107 630.258,-91.6017 617.017,-81.8069"/>
<polygon fill="midnightblue" stroke="midnightblue" points="619.063,-78.9671 608.942,-75.8339 614.9,-84.5948 619.063,-78.9671"/>
</g>
<!-- Node27&#45;&gt;Node5 -->
<g id="edge43" class="edge"><title>Node27&#45;&gt;Node5</title>
<path fill="none" stroke="midnightblue" d="M984.863,-280.489C997.743,-263.904 1025.13,-225.584 1035,-188 1044.36,-152.384 1031.78,-133.658 1002,-112 955.864,-78.4501 889.256,-69.2064 845.316,-67.0243"/>
<polygon fill="midnightblue" stroke="midnightblue" points="845.337,-63.5225 835.207,-66.6268 845.062,-70.5171 845.337,-63.5225"/>
</g>
<!-- Node27&#45;&gt;Node20 -->
<g id="edge45" class="edge"><title>Node27&#45;&gt;Node20</title>
<path fill="none" stroke="midnightblue" d="M960.166,-280.324C942.284,-271.625 914.525,-258.12 893.954,-248.113"/>
<polygon fill="midnightblue" stroke="midnightblue" points="895.313,-244.882 884.79,-243.655 892.251,-251.177 895.313,-244.882"/>
</g>
<!-- Node27&#45;&gt;Node21 -->
<g id="edge44" class="edge"><title>Node27&#45;&gt;Node21</title>
<path fill="none" stroke="midnightblue" d="M978.628,-280.368C979.919,-262.617 982.897,-221.666 984.647,-197.597"/>
<polygon fill="midnightblue" stroke="midnightblue" points="988.141,-197.819 985.375,-187.591 981.159,-197.311 988.141,-197.819"/>
</g>
<!-- Node30 -->
<g id="node30" class="node"><title>Node30</title>
<g id="a_node30"><a xlink:href="../../d5/da5/tools_8h.html" target="_top" xlink:title="tools.h">
<polygon fill="none" stroke="black" points="1259,-336.5 1259,-355.5 1305,-355.5 1305,-336.5 1259,-336.5"/>
<text text-anchor="middle" x="1282" y="-343.5" font-family="Helvetica,sans-Serif" font-size="10.00">tools.h</text>
</a>
</g>
</g>
<!-- Node29&#45;&gt;Node30 -->
<g id="edge48" class="edge"><title>Node29&#45;&gt;Node30</title>
<path fill="none" stroke="midnightblue" d="M1210.89,-397.975C1224.2,-388.431 1246,-372.807 1261.96,-361.368"/>
<polygon fill="midnightblue" stroke="midnightblue" points="1264.04,-364.18 1270.13,-355.509 1259.96,-358.491 1264.04,-364.18"/>
</g>
<!-- Node31 -->
<g id="node31" class="node"><title>Node31</title>
<polygon fill="none" stroke="#bfbfbf" points="1257,-280.5 1257,-299.5 1307,-299.5 1307,-280.5 1257,-280.5"/>
<text text-anchor="middle" x="1282" y="-287.5" font-family="Helvetica,sans-Serif" font-size="10.00">QString</text>
</g>
<!-- Node30&#45;&gt;Node31 -->
<g id="edge49" class="edge"><title>Node30&#45;&gt;Node31</title>
<path fill="none" stroke="midnightblue" d="M1282,-336.083C1282,-329.006 1282,-318.861 1282,-309.986"/>
<polygon fill="midnightblue" stroke="midnightblue" points="1285.5,-309.751 1282,-299.751 1278.5,-309.751 1285.5,-309.751"/>
</g>
<!-- Node32 -->
<g id="node32" class="node"><title>Node32</title>
<polygon fill="none" stroke="#bfbfbf" points="1325.5,-280.5 1325.5,-299.5 1390.5,-299.5 1390.5,-280.5 1325.5,-280.5"/>
<text text-anchor="middle" x="1358" y="-287.5" font-family="Helvetica,sans-Serif" font-size="10.00">QVector3D</text>
</g>
<!-- Node30&#45;&gt;Node32 -->
<g id="edge50" class="edge"><title>Node30&#45;&gt;Node32</title>
<path fill="none" stroke="midnightblue" d="M1294.21,-336.324C1305.78,-328.107 1323.38,-315.602 1337.16,-305.807"/>
<polygon fill="midnightblue" stroke="midnightblue" points="1339.44,-308.479 1345.57,-299.834 1335.39,-302.773 1339.44,-308.479"/>
</g>
<!-- Node33 -->
<g id="node33" class="node"><title>Node33</title>
<polygon fill="none" stroke="#bfbfbf" points="1409,-280.5 1409,-299.5 1449,-299.5 1449,-280.5 1409,-280.5"/>
<text text-anchor="middle" x="1429" y="-287.5" font-family="Helvetica,sans-Serif" font-size="10.00">QList</text>
</g>
<!-- Node30&#45;&gt;Node33 -->
<g id="edge51" class="edge"><title>Node30&#45;&gt;Node33</title>
<path fill="none" stroke="midnightblue" d="M1305.29,-336.444C1330.67,-327.12 1371.35,-312.177 1399.08,-301.991"/>
<polygon fill="midnightblue" stroke="midnightblue" points="1400.48,-305.207 1408.66,-298.473 1398.06,-298.636 1400.48,-305.207"/>
</g>
<!-- Node34 -->
<g id="node34" class="node"><title>Node34</title>
<polygon fill="none" stroke="#bfbfbf" points="1467.5,-280.5 1467.5,-299.5 1510.5,-299.5 1510.5,-280.5 1467.5,-280.5"/>
<text text-anchor="middle" x="1489" y="-287.5" font-family="Helvetica,sans-Serif" font-size="10.00">QMap</text>
</g>
<!-- Node30&#45;&gt;Node34 -->
<g id="edge52" class="edge"><title>Node30&#45;&gt;Node34</title>
<path fill="none" stroke="midnightblue" d="M1305.13,-339.34C1337.12,-331.454 1396.91,-316.523 1457.6,-300.041"/>
<polygon fill="midnightblue" stroke="midnightblue" points="1458.62,-303.392 1467.34,-297.383 1456.78,-296.638 1458.62,-303.392"/>
</g>
<!-- Node35 -->
<g id="node35" class="node"><title>Node35</title>
<polygon fill="none" stroke="#bfbfbf" points="1082.5,-280.5 1082.5,-299.5 1173.5,-299.5 1173.5,-280.5 1082.5,-280.5"/>
<text text-anchor="middle" x="1128" y="-287.5" font-family="Helvetica,sans-Serif" font-size="10.00">QGraphicsScene</text>
</g>
<!-- Node30&#45;&gt;Node35 -->
<g id="edge53" class="edge"><title>Node30&#45;&gt;Node35</title>
<path fill="none" stroke="midnightblue" d="M1258.94,-336.916C1233.24,-327.902 1191.41,-313.235 1161.96,-302.908"/>
<polygon fill="midnightblue" stroke="midnightblue" points="1163.08,-299.593 1152.49,-299.587 1160.77,-306.198 1163.08,-299.593"/>
</g>
<!-- Node36 -->
<g id="node36" class="node"><title>Node36</title>
<polygon fill="none" stroke="#bfbfbf" points="1191.5,-280.5 1191.5,-299.5 1238.5,-299.5 1238.5,-280.5 1191.5,-280.5"/>
<text text-anchor="middle" x="1215" y="-287.5" font-family="Helvetica,sans-Serif" font-size="10.00">math.h</text>
</g>
<!-- Node30&#45;&gt;Node36 -->
<g id="edge54" class="edge"><title>Node30&#45;&gt;Node36</title>
<path fill="none" stroke="midnightblue" d="M1271.24,-336.324C1261.23,-328.263 1246.11,-316.077 1234.07,-306.369"/>
<polygon fill="midnightblue" stroke="midnightblue" points="1235.94,-303.384 1225.96,-299.834 1231.55,-308.834 1235.94,-303.384"/>
</g>
</g>
</svg>
