<?xml version="1.0" encoding="UTF-8" standalone="no"?>
<!DOCTYPE svg PUBLIC "-//W3C//DTD SVG 1.1//EN"
 "http://www.w3.org/Graphics/SVG/1.1/DTD/svg11.dtd">
<!-- Generated by graphviz version 2.38.0 (20140413.2041)
 -->
<!-- Title: Core/ShaderProgram.cpp Pages: 1 -->
<svg width="497pt" height="84pt"
 viewBox="0.00 0.00 496.50 84.00" xmlns="http://www.w3.org/2000/svg" xmlns:xlink="http://www.w3.org/1999/xlink">
<g id="graph0" class="graph" transform="scale(1 1) rotate(0) translate(4 80)">
<title>Core/ShaderProgram.cpp</title>
<!-- Node1 -->
<g id="node1" class="node"><title>Node1</title>
<polygon fill="#bfbfbf" stroke="black" points="131,-56.5 131,-75.5 258,-75.5 258,-56.5 131,-56.5"/>
<text text-anchor="middle" x="194.5" y="-63.5" font-family="Helvetica,sans-Serif" font-size="10.00">Core/ShaderProgram.cpp</text>
</g>
<!-- Node2 -->
<g id="node2" class="node"><title>Node2</title>
<polygon fill="none" stroke="#bfbfbf" points="0,-0.5 0,-19.5 61,-19.5 61,-0.5 0,-0.5"/>
<text text-anchor="middle" x="30.5" y="-7.5" font-family="Helvetica,sans-Serif" font-size="10.00">GL/glew.h</text>
</g>
<!-- Node1&#45;&gt;Node2 -->
<g id="edge1" class="edge"><title>Node1&#45;&gt;Node2</title>
<path fill="none" stroke="midnightblue" d="M168.514,-56.4435C140.804,-47.3196 96.7477,-32.8133 65.8843,-22.6509"/>
<polygon fill="midnightblue" stroke="midnightblue" points="66.9577,-19.3196 56.3647,-19.5164 64.7684,-25.9684 66.9577,-19.3196"/>
</g>
<!-- Node3 -->
<g id="node3" class="node"><title>Node3</title>
<polygon fill="none" stroke="#bfbfbf" points="79.5,-0.5 79.5,-19.5 185.5,-19.5 185.5,-0.5 79.5,-0.5"/>
<text text-anchor="middle" x="132.5" y="-7.5" font-family="Helvetica,sans-Serif" font-size="10.00">glm/gtc/type_ptr.hpp</text>
</g>
<!-- Node1&#45;&gt;Node3 -->
<g id="edge2" class="edge"><title>Node1&#45;&gt;Node3</title>
<path fill="none" stroke="midnightblue" d="M184.539,-56.324C175.373,-48.3414 161.563,-36.3128 150.472,-26.6529"/>
<polygon fill="midnightblue" stroke="midnightblue" points="152.482,-23.7624 142.643,-19.8339 147.885,-29.041 152.482,-23.7624"/>
</g>
<!-- Node4 -->
<g id="node4" class="node"><title>Node4</title>
<polygon fill="none" stroke="#bfbfbf" points="203,-0.5 203,-19.5 310,-19.5 310,-0.5 203,-0.5"/>
<text text-anchor="middle" x="256.5" y="-7.5" font-family="Helvetica,sans-Serif" font-size="10.00">log4cpp/Category.hh</text>
</g>
<!-- Node1&#45;&gt;Node4 -->
<g id="edge3" class="edge"><title>Node1&#45;&gt;Node4</title>
<path fill="none" stroke="midnightblue" d="M204.461,-56.324C213.627,-48.3414 227.437,-36.3128 238.528,-26.6529"/>
<polygon fill="midnightblue" stroke="midnightblue" points="241.115,-29.041 246.357,-19.8339 236.518,-23.7624 241.115,-29.041"/>
</g>
<!-- Node5 -->
<g id="node5" class="node"><title>Node5</title>
<polygon fill="none" stroke="#bfbfbf" points="328.5,-0.5 328.5,-19.5 488.5,-19.5 488.5,-0.5 328.5,-0.5"/>
<text text-anchor="middle" x="408.5" y="-7.5" font-family="Helvetica,sans-Serif" font-size="10.00">Engine/Core/ShaderProgram.hpp</text>
</g>
<!-- Node1&#45;&gt;Node5 -->
<g id="edge4" class="edge"><title>Node1&#45;&gt;Node5</title>
<path fill="none" stroke="midnightblue" d="M228.409,-56.4435C265.349,-47.1221 324.554,-32.1828 364.918,-21.9972"/>
<polygon fill="midnightblue" stroke="midnightblue" points="365.91,-25.3568 374.75,-19.5164 364.197,-18.5695 365.91,-25.3568"/>
</g>
</g>
</svg>
