<?xml version="1.0" encoding="UTF-8" standalone="no"?>
<!DOCTYPE svg PUBLIC "-//W3C//DTD SVG 1.1//EN"
 "http://www.w3.org/Graphics/SVG/1.1/DTD/svg11.dtd">
<!-- Generated by graphviz version 2.38.0 (20140413.2041)
 -->
<!-- Title: engine/Renderer/BasicRenderer/BasicRenderer.cpp Pages: 1 -->
<svg width="1320pt" height="554pt"
 viewBox="0.00 0.00 1319.50 554.00" xmlns="http://www.w3.org/2000/svg" xmlns:xlink="http://www.w3.org/1999/xlink">
<g id="graph0" class="graph" transform="scale(1 1) rotate(0) translate(4 550)">
<title>engine/Renderer/BasicRenderer/BasicRenderer.cpp</title>
<!-- Node1 -->
<g id="node1" class="node"><title>Node1</title>
<polygon fill="#bfbfbf" stroke="black" points="692,-515.5 692,-545.5 847,-545.5 847,-515.5 692,-515.5"/>
<text text-anchor="start" x="700" y="-533.5" font-family="Helvetica,sans-Serif" font-size="10.00">engine/Renderer/BasicRenderer</text>
<text text-anchor="middle" x="769.5" y="-522.5" font-family="Helvetica,sans-Serif" font-size="10.00">/BasicRenderer.cpp</text>
</g>
<!-- Node2 -->
<g id="node2" class="node"><title>Node2</title>
<g id="a_node2"><a xlink:href="../../de/db3/BasicRenderer_8hpp.html" target="_top" xlink:title="BasicRenderer.hpp">
<polygon fill="none" stroke="black" points="574.5,-224.5 574.5,-243.5 674.5,-243.5 674.5,-224.5 574.5,-224.5"/>
<text text-anchor="middle" x="624.5" y="-231.5" font-family="Helvetica,sans-Serif" font-size="10.00">BasicRenderer.hpp</text>
</a>
</g>
</g>
<!-- Node1&#45;&gt;Node2 -->
<g id="edge1" class="edge"><title>Node1&#45;&gt;Node2</title>
<path fill="none" stroke="midnightblue" d="M745.751,-515.432C732.668,-506.535 717.168,-493.91 707.5,-479 689.845,-451.772 688.5,-440.951 688.5,-408.5 688.5,-408.5 688.5,-408.5 688.5,-345 688.5,-307.327 660.108,-271.04 641.146,-251.005"/>
<polygon fill="midnightblue" stroke="midnightblue" points="643.453,-248.36 633.943,-243.689 638.464,-253.27 643.453,-248.36"/>
</g>
<!-- Node7 -->
<g id="node7" class="node"><title>Node7</title>
<g id="a_node7"><a xlink:href="../../d1/d2a/glwindow_8h.html" target="_top" xlink:title="glwindow.h">
<polygon fill="none" stroke="black" points="359,-459.5 359,-478.5 424,-478.5 424,-459.5 359,-459.5"/>
<text text-anchor="middle" x="391.5" y="-466.5" font-family="Helvetica,sans-Serif" font-size="10.00">glwindow.h</text>
</a>
</g>
</g>
<!-- Node1&#45;&gt;Node7 -->
<g id="edge6" class="edge"><title>Node1&#45;&gt;Node7</title>
<path fill="none" stroke="midnightblue" d="M691.636,-517.244C613.636,-504.966 496.468,-486.523 434.108,-476.707"/>
<polygon fill="midnightblue" stroke="midnightblue" points="434.641,-473.248 424.219,-475.15 433.553,-480.163 434.641,-473.248"/>
</g>
<!-- Node36 -->
<g id="node36" class="node"><title>Node36</title>
<polygon fill="none" stroke="#bfbfbf" points="716.5,-459.5 716.5,-478.5 822.5,-478.5 822.5,-459.5 716.5,-459.5"/>
<text text-anchor="middle" x="769.5" y="-466.5" font-family="Helvetica,sans-Serif" font-size="10.00">glm/gtc/type_ptr.hpp</text>
</g>
<!-- Node1&#45;&gt;Node36 -->
<g id="edge54" class="edge"><title>Node1&#45;&gt;Node36</title>
<path fill="none" stroke="midnightblue" d="M769.5,-515.399C769.5,-507.466 769.5,-497.458 769.5,-488.858"/>
<polygon fill="midnightblue" stroke="midnightblue" points="773,-488.658 769.5,-478.658 766,-488.658 773,-488.658"/>
</g>
<!-- Node37 -->
<g id="node37" class="node"><title>Node37</title>
<polygon fill="none" stroke="#bfbfbf" points="840.5,-459.5 840.5,-478.5 968.5,-478.5 968.5,-459.5 840.5,-459.5"/>
<text text-anchor="middle" x="904.5" y="-466.5" font-family="Helvetica,sans-Serif" font-size="10.00">QOpenGLShaderProgram</text>
</g>
<!-- Node1&#45;&gt;Node37 -->
<g id="edge55" class="edge"><title>Node1&#45;&gt;Node37</title>
<path fill="none" stroke="midnightblue" d="M801.493,-515.399C823.942,-505.505 853.715,-492.383 875.476,-482.792"/>
<polygon fill="midnightblue" stroke="midnightblue" points="877.117,-485.894 884.856,-478.658 874.294,-479.488 877.117,-485.894"/>
</g>
<!-- Node38 -->
<g id="node38" class="node"><title>Node38</title>
<polygon fill="none" stroke="#bfbfbf" points="987,-459.5 987,-478.5 1094,-478.5 1094,-459.5 987,-459.5"/>
<text text-anchor="middle" x="1040.5" y="-466.5" font-family="Helvetica,sans-Serif" font-size="10.00">log4cpp/Category.hh</text>
</g>
<!-- Node1&#45;&gt;Node38 -->
<g id="edge56" class="edge"><title>Node1&#45;&gt;Node38</title>
<path fill="none" stroke="midnightblue" d="M833.38,-515.475C881.868,-504.829 947.528,-490.413 991.815,-480.689"/>
<polygon fill="midnightblue" stroke="midnightblue" points="992.74,-484.07 1001.76,-478.506 991.239,-477.232 992.74,-484.07"/>
</g>
<!-- Node3 -->
<g id="node3" class="node"><title>Node3</title>
<g id="a_node3"><a xlink:href="../../d1/dca/IRenderer_8hpp.html" target="_top" xlink:title="IRenderer.hpp">
<polygon fill="none" stroke="black" points="585.5,-168.5 585.5,-187.5 663.5,-187.5 663.5,-168.5 585.5,-168.5"/>
<text text-anchor="middle" x="624.5" y="-175.5" font-family="Helvetica,sans-Serif" font-size="10.00">IRenderer.hpp</text>
</a>
</g>
</g>
<!-- Node2&#45;&gt;Node3 -->
<g id="edge2" class="edge"><title>Node2&#45;&gt;Node3</title>
<path fill="none" stroke="midnightblue" d="M624.5,-224.083C624.5,-217.006 624.5,-206.861 624.5,-197.986"/>
<polygon fill="midnightblue" stroke="midnightblue" points="628,-197.751 624.5,-187.751 621,-197.751 628,-197.751"/>
</g>
<!-- Node4 -->
<g id="node4" class="node"><title>Node4</title>
<polygon fill="none" stroke="#bfbfbf" points="1055.5,-56.5 1055.5,-75.5 1125.5,-75.5 1125.5,-56.5 1055.5,-56.5"/>
<text text-anchor="middle" x="1090.5" y="-63.5" font-family="Helvetica,sans-Serif" font-size="10.00">glm/glm.hpp</text>
</g>
<!-- Node3&#45;&gt;Node4 -->
<g id="edge3" class="edge"><title>Node3&#45;&gt;Node4</title>
<path fill="none" stroke="midnightblue" d="M657.829,-168.464C690.358,-159.937 741.144,-146.101 784.5,-132 808.838,-124.085 813.805,-118.721 838.5,-112 909.71,-92.6206 994.572,-79.4481 1045.41,-72.5844"/>
<polygon fill="midnightblue" stroke="midnightblue" points="1045.97,-76.0415 1055.42,-71.2556 1045.04,-69.1024 1045.97,-76.0415"/>
</g>
<!-- Node5 -->
<g id="node5" class="node"><title>Node5</title>
<polygon fill="none" stroke="#bfbfbf" points="560.5,-56.5 560.5,-75.5 612.5,-75.5 612.5,-56.5 560.5,-56.5"/>
<text text-anchor="middle" x="586.5" y="-63.5" font-family="Helvetica,sans-Serif" font-size="10.00">memory</text>
</g>
<!-- Node3&#45;&gt;Node5 -->
<g id="edge4" class="edge"><title>Node3&#45;&gt;Node5</title>
<path fill="none" stroke="midnightblue" d="M615.731,-168.253C607.856,-159.782 596.75,-146.172 591.5,-132 586.027,-117.224 585.028,-99.296 585.255,-86.0138"/>
<polygon fill="midnightblue" stroke="midnightblue" points="588.764,-85.8725 585.689,-75.7337 581.77,-85.5771 588.764,-85.8725"/>
</g>
<!-- Node6 -->
<g id="node6" class="node"><title>Node6</title>
<g id="a_node6"><a xlink:href="../../de/df7/worldparticles_8hpp.html" target="_top" xlink:title="wordparticles configuration file ">
<polygon fill="none" stroke="black" points="444,-112.5 444,-131.5 539,-131.5 539,-112.5 444,-112.5"/>
<text text-anchor="middle" x="491.5" y="-119.5" font-family="Helvetica,sans-Serif" font-size="10.00">worldparticles.hpp</text>
</a>
</g>
</g>
<!-- Node3&#45;&gt;Node6 -->
<g id="edge5" class="edge"><title>Node3&#45;&gt;Node6</title>
<path fill="none" stroke="midnightblue" d="M603.426,-168.444C581.44,-159.517 546.766,-145.439 521.836,-135.317"/>
<polygon fill="midnightblue" stroke="midnightblue" points="523.058,-132.035 512.476,-131.516 520.424,-138.521 523.058,-132.035"/>
</g>
<!-- Node8 -->
<g id="node8" class="node"><title>Node8</title>
<polygon fill="none" stroke="#bfbfbf" points="0,-398 0,-417 59,-417 59,-398 0,-398"/>
<text text-anchor="middle" x="29.5" y="-405" font-family="Helvetica,sans-Serif" font-size="10.00">QWindow</text>
</g>
<!-- Node7&#45;&gt;Node8 -->
<g id="edge7" class="edge"><title>Node7&#45;&gt;Node8</title>
<path fill="none" stroke="midnightblue" d="M358.838,-465.919C299.862,-461.621 172.013,-449.827 67.5,-423 64.6787,-422.276 61.78,-421.409 58.9021,-420.463"/>
<polygon fill="midnightblue" stroke="midnightblue" points="59.9348,-417.115 49.3402,-417.042 57.5765,-423.706 59.9348,-417.115"/>
</g>
<!-- Node9 -->
<g id="node9" class="node"><title>Node9</title>
<polygon fill="none" stroke="#bfbfbf" points="77,-398 77,-417 172,-417 172,-398 77,-398"/>
<text text-anchor="middle" x="124.5" y="-405" font-family="Helvetica,sans-Serif" font-size="10.00">QOpenGLContext</text>
</g>
<!-- Node7&#45;&gt;Node9 -->
<g id="edge8" class="edge"><title>Node7&#45;&gt;Node9</title>
<path fill="none" stroke="midnightblue" d="M358.87,-461.497C317.325,-453.112 243.384,-437.84 180.5,-423 175.857,-421.904 171.009,-420.716 166.192,-419.507"/>
<polygon fill="midnightblue" stroke="midnightblue" points="166.978,-416.096 156.424,-417.02 165.251,-422.879 166.978,-416.096"/>
</g>
<!-- Node10 -->
<g id="node10" class="node"><title>Node10</title>
<polygon fill="none" stroke="#bfbfbf" points="190,-392.5 190,-422.5 303,-422.5 303,-392.5 190,-392.5"/>
<text text-anchor="start" x="198" y="-410.5" font-family="Helvetica,sans-Serif" font-size="10.00">QOpenGLFunctions_4</text>
<text text-anchor="middle" x="246.5" y="-399.5" font-family="Helvetica,sans-Serif" font-size="10.00">_2_Core</text>
</g>
<!-- Node7&#45;&gt;Node10 -->
<g id="edge9" class="edge"><title>Node7&#45;&gt;Node10</title>
<path fill="none" stroke="midnightblue" d="M370.725,-459.475C349.802,-450.889 316.886,-437.383 290.193,-426.429"/>
<polygon fill="midnightblue" stroke="midnightblue" points="291.254,-423.081 280.674,-422.523 288.596,-429.557 291.254,-423.081"/>
</g>
<!-- Node11 -->
<g id="node11" class="node"><title>Node11</title>
<polygon fill="none" stroke="#bfbfbf" points="321,-398 321,-417 388,-417 388,-398 321,-398"/>
<text text-anchor="middle" x="354.5" y="-405" font-family="Helvetica,sans-Serif" font-size="10.00">QKeyEvent</text>
</g>
<!-- Node7&#45;&gt;Node11 -->
<g id="edge10" class="edge"><title>Node7&#45;&gt;Node11</title>
<path fill="none" stroke="midnightblue" d="M386.199,-459.475C380.759,-450.727 372.141,-436.869 365.264,-425.809"/>
<polygon fill="midnightblue" stroke="midnightblue" points="368.044,-423.653 359.791,-417.009 362.1,-427.349 368.044,-423.653"/>
</g>
<!-- Node12 -->
<g id="node12" class="node"><title>Node12</title>
<polygon fill="none" stroke="#bfbfbf" points="406.5,-398 406.5,-417 452.5,-417 452.5,-398 406.5,-398"/>
<text text-anchor="middle" x="429.5" y="-405" font-family="Helvetica,sans-Serif" font-size="10.00">QTime</text>
</g>
<!-- Node7&#45;&gt;Node12 -->
<g id="edge11" class="edge"><title>Node7&#45;&gt;Node12</title>
<path fill="none" stroke="midnightblue" d="M396.944,-459.475C402.588,-450.638 411.561,-436.589 418.659,-425.475"/>
<polygon fill="midnightblue" stroke="midnightblue" points="421.633,-427.321 424.066,-417.009 415.733,-423.553 421.633,-427.321"/>
</g>
<!-- Node13 -->
<g id="node13" class="node"><title>Node13</title>
<g id="a_node13"><a xlink:href="../../d4/d1c/GameEngine_8hpp.html" target="_top" xlink:title="GameEngine.hpp">
<polygon fill="none" stroke="black" points="470.5,-398 470.5,-417 562.5,-417 562.5,-398 470.5,-398"/>
<text text-anchor="middle" x="516.5" y="-405" font-family="Helvetica,sans-Serif" font-size="10.00">GameEngine.hpp</text>
</a>
</g>
</g>
<!-- Node7&#45;&gt;Node13 -->
<g id="edge12" class="edge"><title>Node7&#45;&gt;Node13</title>
<path fill="none" stroke="midnightblue" d="M409.409,-459.475C430.387,-449.49 465.35,-432.848 489.593,-421.307"/>
<polygon fill="midnightblue" stroke="midnightblue" points="491.099,-424.467 498.624,-417.009 488.09,-418.147 491.099,-424.467"/>
</g>
<!-- Node28 -->
<g id="node28" class="node"><title>Node28</title>
<g id="a_node28"><a xlink:href="../../dc/d51/model_8h.html" target="_top" xlink:title="model/model.h">
<polygon fill="none" stroke="black" points="580.5,-398 580.5,-417 660.5,-417 660.5,-398 580.5,-398"/>
<text text-anchor="middle" x="620.5" y="-405" font-family="Helvetica,sans-Serif" font-size="10.00">model/model.h</text>
</a>
</g>
</g>
<!-- Node7&#45;&gt;Node28 -->
<g id="edge46" class="edge"><title>Node7&#45;&gt;Node28</title>
<path fill="none" stroke="midnightblue" d="M424.126,-460.287C460.271,-451.639 520.225,-436.989 571.5,-423 575.092,-422.02 578.823,-420.972 582.551,-419.904"/>
<polygon fill="midnightblue" stroke="midnightblue" points="583.691,-423.217 592.316,-417.064 581.736,-416.496 583.691,-423.217"/>
</g>
<!-- Node13&#45;&gt;Node6 -->
<g id="edge13" class="edge"><title>Node13&#45;&gt;Node6</title>
<path fill="none" stroke="midnightblue" d="M513.334,-397.944C506.607,-378.973 491.5,-331.828 491.5,-291 491.5,-291 491.5,-291 491.5,-233 491.5,-200.948 491.5,-163.643 491.5,-141.749"/>
<polygon fill="midnightblue" stroke="midnightblue" points="495,-141.558 491.5,-131.558 488,-141.558 495,-141.558"/>
</g>
<!-- Node14 -->
<g id="node14" class="node"><title>Node14</title>
<g id="a_node14"><a xlink:href="../../db/de8/Scene_8hpp.html" target="_top" xlink:title="Scene.hpp">
<polygon fill="none" stroke="black" points="548,-336.5 548,-355.5 611,-355.5 611,-336.5 548,-336.5"/>
<text text-anchor="middle" x="579.5" y="-343.5" font-family="Helvetica,sans-Serif" font-size="10.00">Scene.hpp</text>
</a>
</g>
</g>
<!-- Node13&#45;&gt;Node14 -->
<g id="edge14" class="edge"><title>Node13&#45;&gt;Node14</title>
<path fill="none" stroke="midnightblue" d="M525.526,-397.975C535.257,-388.785 550.958,-373.956 562.923,-362.656"/>
<polygon fill="midnightblue" stroke="midnightblue" points="565.623,-364.92 570.49,-355.509 560.817,-359.831 565.623,-364.92"/>
</g>
<!-- Node14&#45;&gt;Node5 -->
<g id="edge15" class="edge"><title>Node14&#45;&gt;Node5</title>
<path fill="none" stroke="midnightblue" d="M547.938,-342.188C491.125,-335.21 377.5,-311.67 377.5,-235 377.5,-235 377.5,-235 377.5,-177 377.5,-99.8314 490.455,-76.6747 550.286,-69.8217"/>
<polygon fill="midnightblue" stroke="midnightblue" points="550.872,-73.2795 560.453,-68.7555 550.142,-66.3177 550.872,-73.2795"/>
</g>
<!-- Node15 -->
<g id="node15" class="node"><title>Node15</title>
<polygon fill="none" stroke="#bfbfbf" points="593,-280.5 593,-299.5 622,-299.5 622,-280.5 593,-280.5"/>
<text text-anchor="middle" x="607.5" y="-287.5" font-family="Helvetica,sans-Serif" font-size="10.00">list</text>
</g>
<!-- Node14&#45;&gt;Node15 -->
<g id="edge16" class="edge"><title>Node14&#45;&gt;Node15</title>
<path fill="none" stroke="midnightblue" d="M584.124,-336.083C587.956,-328.691 593.524,-317.953 598.265,-308.811"/>
<polygon fill="midnightblue" stroke="midnightblue" points="601.466,-310.24 602.962,-299.751 595.252,-307.018 601.466,-310.24"/>
</g>
<!-- Node16 -->
<g id="node16" class="node"><title>Node16</title>
<g id="a_node16"><a xlink:href="../../d4/db5/GameObject_8hpp.html" target="_top" xlink:title="GameObject.hpp">
<polygon fill="none" stroke="black" points="692.5,-224.5 692.5,-243.5 782.5,-243.5 782.5,-224.5 692.5,-224.5"/>
<text text-anchor="middle" x="737.5" y="-231.5" font-family="Helvetica,sans-Serif" font-size="10.00">GameObject.hpp</text>
</a>
</g>
</g>
<!-- Node14&#45;&gt;Node16 -->
<g id="edge17" class="edge"><title>Node14&#45;&gt;Node16</title>
<path fill="none" stroke="midnightblue" d="M591.898,-336.368C618.895,-317.573 683.251,-272.768 716.625,-249.533"/>
<polygon fill="midnightblue" stroke="midnightblue" points="718.952,-252.178 725.16,-243.591 714.953,-246.433 718.952,-252.178"/>
</g>
<!-- Node26 -->
<g id="node26" class="node"><title>Node26</title>
<g id="a_node26"><a xlink:href="../../d6/d80/Camera_8hpp.html" target="_top" xlink:title="Camera.hpp">
<polygon fill="none" stroke="black" points="716.5,-280.5 716.5,-299.5 786.5,-299.5 786.5,-280.5 716.5,-280.5"/>
<text text-anchor="middle" x="751.5" y="-287.5" font-family="Helvetica,sans-Serif" font-size="10.00">Camera.hpp</text>
</a>
</g>
</g>
<!-- Node14&#45;&gt;Node26 -->
<g id="edge41" class="edge"><title>Node14&#45;&gt;Node26</title>
<path fill="none" stroke="midnightblue" d="M606.754,-336.444C635.941,-327.28 682.421,-312.688 714.809,-302.519"/>
<polygon fill="midnightblue" stroke="midnightblue" points="715.881,-305.851 724.374,-299.516 713.784,-299.173 715.881,-305.851"/>
</g>
<!-- Node27 -->
<g id="node27" class="node"><title>Node27</title>
<g id="a_node27"><a xlink:href="../../d5/dd5/Light_8hpp.html" target="_top" xlink:title="Light.hpp">
<polygon fill="none" stroke="black" points="519.5,-280.5 519.5,-299.5 575.5,-299.5 575.5,-280.5 519.5,-280.5"/>
<text text-anchor="middle" x="547.5" y="-287.5" font-family="Helvetica,sans-Serif" font-size="10.00">Light.hpp</text>
</a>
</g>
</g>
<!-- Node14&#45;&gt;Node27 -->
<g id="edge45" class="edge"><title>Node14&#45;&gt;Node27</title>
<path fill="none" stroke="midnightblue" d="M574.216,-336.083C569.789,-328.613 563.337,-317.724 557.882,-308.52"/>
<polygon fill="midnightblue" stroke="midnightblue" points="560.795,-306.57 552.686,-299.751 554.773,-310.138 560.795,-306.57"/>
</g>
<!-- Node16&#45;&gt;Node3 -->
<g id="edge23" class="edge"><title>Node16&#45;&gt;Node3</title>
<path fill="none" stroke="midnightblue" d="M719.595,-224.444C701.246,-215.675 672.495,-201.935 651.406,-191.858"/>
<polygon fill="midnightblue" stroke="midnightblue" points="652.853,-188.67 642.321,-187.516 649.835,-194.986 652.853,-188.67"/>
</g>
<!-- Node16&#45;&gt;Node4 -->
<g id="edge18" class="edge"><title>Node16&#45;&gt;Node4</title>
<path fill="none" stroke="midnightblue" d="M782.587,-228.286C875.771,-217.489 1084.26,-187.521 1124.5,-132 1135.75,-116.484 1122.03,-96.752 1108.8,-83.1204"/>
<polygon fill="midnightblue" stroke="midnightblue" points="1110.9,-80.2838 1101.27,-75.8772 1106.05,-85.3305 1110.9,-80.2838"/>
</g>
<!-- Node16&#45;&gt;Node5 -->
<g id="edge19" class="edge"><title>Node16&#45;&gt;Node5</title>
<path fill="none" stroke="midnightblue" d="M692.39,-225.199C614.935,-210.707 462.361,-176.971 435.5,-132 408.676,-87.0908 497.659,-73.1691 550.377,-68.8837"/>
<polygon fill="midnightblue" stroke="midnightblue" points="550.675,-72.3713 560.392,-68.1487 550.162,-65.3901 550.675,-72.3713"/>
</g>
<!-- Node16&#45;&gt;Node6 -->
<g id="edge20" class="edge"><title>Node16&#45;&gt;Node6</title>
<path fill="none" stroke="midnightblue" d="M692.444,-225.193C659.202,-218.312 613.509,-206.46 576.5,-188 550.453,-175.007 524.448,-153.569 508.191,-138.891"/>
<polygon fill="midnightblue" stroke="midnightblue" points="510.352,-136.123 500.63,-131.912 505.605,-141.266 510.352,-136.123"/>
</g>
<!-- Node17 -->
<g id="node17" class="node"><title>Node17</title>
<g id="a_node17"><a xlink:href="../../da/d83/Transform_8hpp.html" target="_top" xlink:title="Transform.hpp">
<polygon fill="none" stroke="black" points="1231.5,-168.5 1231.5,-187.5 1311.5,-187.5 1311.5,-168.5 1231.5,-168.5"/>
<text text-anchor="middle" x="1271.5" y="-175.5" font-family="Helvetica,sans-Serif" font-size="10.00">Transform.hpp</text>
</a>
</g>
</g>
<!-- Node16&#45;&gt;Node17 -->
<g id="edge21" class="edge"><title>Node16&#45;&gt;Node17</title>
<path fill="none" stroke="midnightblue" d="M782.568,-228.443C881.509,-218.437 1117.15,-194.608 1220.94,-184.113"/>
<polygon fill="midnightblue" stroke="midnightblue" points="1221.56,-187.568 1231.16,-183.08 1220.86,-180.604 1221.56,-187.568"/>
</g>
<!-- Node18 -->
<g id="node18" class="node"><title>Node18</title>
<g id="a_node18"><a xlink:href="../../d0/d70/Material_8hpp.html" target="_top" xlink:title="Material.hpp">
<polygon fill="none" stroke="black" points="695.5,-168.5 695.5,-187.5 765.5,-187.5 765.5,-168.5 695.5,-168.5"/>
<text text-anchor="middle" x="730.5" y="-175.5" font-family="Helvetica,sans-Serif" font-size="10.00">Material.hpp</text>
</a>
</g>
</g>
<!-- Node16&#45;&gt;Node18 -->
<g id="edge24" class="edge"><title>Node16&#45;&gt;Node18</title>
<path fill="none" stroke="midnightblue" d="M736.344,-224.083C735.416,-216.927 734.082,-206.635 732.923,-197.691"/>
<polygon fill="midnightblue" stroke="midnightblue" points="736.391,-197.218 731.634,-187.751 729.449,-198.118 736.391,-197.218"/>
</g>
<!-- Node23 -->
<g id="node23" class="node"><title>Node23</title>
<g id="a_node23"><a xlink:href="../../d1/d62/Mesh_8hpp.html" target="_top" xlink:title="Mesh.hpp">
<polygon fill="none" stroke="black" points="885,-168.5 885,-187.5 944,-187.5 944,-168.5 885,-168.5"/>
<text text-anchor="middle" x="914.5" y="-175.5" font-family="Helvetica,sans-Serif" font-size="10.00">Mesh.hpp</text>
</a>
</g>
</g>
<!-- Node16&#45;&gt;Node23 -->
<g id="edge33" class="edge"><title>Node16&#45;&gt;Node23</title>
<path fill="none" stroke="midnightblue" d="M765.546,-224.444C795.582,-215.28 843.413,-200.688 876.743,-190.519"/>
<polygon fill="midnightblue" stroke="midnightblue" points="878.042,-193.782 886.585,-187.516 875.999,-187.087 878.042,-193.782"/>
</g>
<!-- Node17&#45;&gt;Node4 -->
<g id="edge22" class="edge"><title>Node17&#45;&gt;Node4</title>
<path fill="none" stroke="midnightblue" d="M1266.34,-168.132C1257.85,-154.266 1239.64,-127.443 1217.5,-112 1192.94,-94.8698 1161.19,-83.6194 1135.58,-76.6518"/>
<polygon fill="midnightblue" stroke="midnightblue" points="1136.29,-73.2215 1125.73,-74.0998 1134.54,-79.9975 1136.29,-73.2215"/>
</g>
<!-- Node18&#45;&gt;Node4 -->
<g id="edge25" class="edge"><title>Node18&#45;&gt;Node4</title>
<path fill="none" stroke="midnightblue" d="M750.224,-168.405C781.448,-155.03 844.38,-129.007 899.5,-112 948.657,-96.8327 1006.28,-83.9014 1045.28,-75.8455"/>
<polygon fill="midnightblue" stroke="midnightblue" points="1046.17,-79.2356 1055.26,-73.8045 1044.77,-72.3773 1046.17,-79.2356"/>
</g>
<!-- Node18&#45;&gt;Node5 -->
<g id="edge26" class="edge"><title>Node18&#45;&gt;Node5</title>
<path fill="none" stroke="midnightblue" d="M699.713,-168.354C678.291,-161.2 650.007,-149.37 629.5,-132 614.213,-119.052 602.225,-99.3382 594.834,-85.0161"/>
<polygon fill="midnightblue" stroke="midnightblue" points="597.821,-83.1585 590.283,-75.7142 591.534,-86.235 597.821,-83.1585"/>
</g>
<!-- Node19 -->
<g id="node19" class="node"><title>Node19</title>
<g id="a_node19"><a xlink:href="../../dc/ddb/ShaderProgram_8hpp.html" target="_top" xlink:title="ShaderProgram.hpp">
<polygon fill="none" stroke="black" points="672,-112.5 672,-131.5 775,-131.5 775,-112.5 672,-112.5"/>
<text text-anchor="middle" x="723.5" y="-119.5" font-family="Helvetica,sans-Serif" font-size="10.00">ShaderProgram.hpp</text>
</a>
</g>
</g>
<!-- Node18&#45;&gt;Node19 -->
<g id="edge27" class="edge"><title>Node18&#45;&gt;Node19</title>
<path fill="none" stroke="midnightblue" d="M729.344,-168.083C728.416,-160.927 727.082,-150.635 725.923,-141.691"/>
<polygon fill="midnightblue" stroke="midnightblue" points="729.391,-141.218 724.634,-131.751 722.449,-142.118 729.391,-141.218"/>
</g>
<!-- Node19&#45;&gt;Node4 -->
<g id="edge28" class="edge"><title>Node19&#45;&gt;Node4</title>
<path fill="none" stroke="midnightblue" d="M775.304,-113.378C847.472,-102.759 977.08,-83.6885 1045.45,-73.6289"/>
<polygon fill="midnightblue" stroke="midnightblue" points="1046.09,-77.0718 1055.48,-72.1533 1045.07,-70.1464 1046.09,-77.0718"/>
</g>
<!-- Node19&#45;&gt;Node5 -->
<g id="edge30" class="edge"><title>Node19&#45;&gt;Node5</title>
<path fill="none" stroke="midnightblue" d="M701.792,-112.444C679.145,-103.517 643.428,-89.4387 617.748,-79.3168"/>
<polygon fill="midnightblue" stroke="midnightblue" points="618.693,-75.9273 608.106,-75.5164 616.126,-82.4397 618.693,-75.9273"/>
</g>
<!-- Node20 -->
<g id="node20" class="node"><title>Node20</title>
<polygon fill="none" stroke="#bfbfbf" points="857.5,-56.5 857.5,-75.5 901.5,-75.5 901.5,-56.5 857.5,-56.5"/>
<text text-anchor="middle" x="879.5" y="-63.5" font-family="Helvetica,sans-Serif" font-size="10.00">vector</text>
</g>
<!-- Node19&#45;&gt;Node20 -->
<g id="edge29" class="edge"><title>Node19&#45;&gt;Node20</title>
<path fill="none" stroke="midnightblue" d="M748.219,-112.444C775.117,-103.133 818.209,-88.2163 847.631,-78.0315"/>
<polygon fill="midnightblue" stroke="midnightblue" points="849.114,-81.222 857.419,-74.6433 846.824,-74.607 849.114,-81.222"/>
</g>
<!-- Node21 -->
<g id="node21" class="node"><title>Node21</title>
<g id="a_node21"><a xlink:href="../../d4/d6e/Shader_8hpp.html" target="_top" xlink:title="Shader.hpp">
<polygon fill="none" stroke="black" points="690.5,-56.5 690.5,-75.5 756.5,-75.5 756.5,-56.5 690.5,-56.5"/>
<text text-anchor="middle" x="723.5" y="-63.5" font-family="Helvetica,sans-Serif" font-size="10.00">Shader.hpp</text>
</a>
</g>
</g>
<!-- Node19&#45;&gt;Node21 -->
<g id="edge31" class="edge"><title>Node19&#45;&gt;Node21</title>
<path fill="none" stroke="midnightblue" d="M723.5,-112.083C723.5,-105.006 723.5,-94.8611 723.5,-85.9865"/>
<polygon fill="midnightblue" stroke="midnightblue" points="727,-85.751 723.5,-75.7511 720,-85.7511 727,-85.751"/>
</g>
<!-- Node22 -->
<g id="node22" class="node"><title>Node22</title>
<polygon fill="none" stroke="#bfbfbf" points="703,-0.5 703,-19.5 744,-19.5 744,-0.5 703,-0.5"/>
<text text-anchor="middle" x="723.5" y="-7.5" font-family="Helvetica,sans-Serif" font-size="10.00">string</text>
</g>
<!-- Node21&#45;&gt;Node22 -->
<g id="edge32" class="edge"><title>Node21&#45;&gt;Node22</title>
<path fill="none" stroke="midnightblue" d="M723.5,-56.083C723.5,-49.0059 723.5,-38.8611 723.5,-29.9865"/>
<polygon fill="midnightblue" stroke="midnightblue" points="727,-29.751 723.5,-19.7511 720,-29.7511 727,-29.751"/>
</g>
<!-- Node23&#45;&gt;Node4 -->
<g id="edge36" class="edge"><title>Node23&#45;&gt;Node4</title>
<path fill="none" stroke="midnightblue" d="M944.013,-174.548C993.133,-169.787 1088.28,-157.445 1108.5,-132 1119.39,-118.294 1111.42,-98.429 1102.91,-84.2725"/>
<polygon fill="midnightblue" stroke="midnightblue" points="1105.57,-81.9568 1097.15,-75.5297 1099.73,-85.8065 1105.57,-81.9568"/>
</g>
<!-- Node23&#45;&gt;Node5 -->
<g id="edge35" class="edge"><title>Node23&#45;&gt;Node5</title>
<path fill="none" stroke="midnightblue" d="M884.788,-176.587C836.228,-174.863 737.827,-166.923 663.5,-132 638.651,-120.325 615.331,-98.5361 601.004,-83.4218"/>
<polygon fill="midnightblue" stroke="midnightblue" points="603.36,-80.8134 594.017,-75.8182 598.206,-85.5497 603.36,-80.8134"/>
</g>
<!-- Node23&#45;&gt;Node20 -->
<g id="edge34" class="edge"><title>Node23&#45;&gt;Node20</title>
<path fill="none" stroke="midnightblue" d="M911.565,-168.393C908.497,-159.35 903.571,-144.704 899.5,-132 894.489,-116.364 889.021,-98.5355 885.07,-85.5099"/>
<polygon fill="midnightblue" stroke="midnightblue" points="888.395,-84.4122 882.152,-75.8518 881.694,-86.4367 888.395,-84.4122"/>
</g>
<!-- Node24 -->
<g id="node24" class="node"><title>Node24</title>
<polygon fill="none" stroke="#bfbfbf" points="908,-112.5 908,-131.5 991,-131.5 991,-112.5 908,-112.5"/>
<text text-anchor="middle" x="949.5" y="-119.5" font-family="Helvetica,sans-Serif" font-size="10.00">assimp/mesh.h</text>
</g>
<!-- Node23&#45;&gt;Node24 -->
<g id="edge37" class="edge"><title>Node23&#45;&gt;Node24</title>
<path fill="none" stroke="midnightblue" d="M920.28,-168.083C925.172,-160.534 932.327,-149.495 938.333,-140.23"/>
<polygon fill="midnightblue" stroke="midnightblue" points="941.326,-142.046 943.828,-131.751 935.452,-138.239 941.326,-142.046"/>
</g>
<!-- Node25 -->
<g id="node25" class="node"><title>Node25</title>
<g id="a_node25"><a xlink:href="../../da/d04/BufferObject_8hpp.html" target="_top" xlink:title="BufferObject.hpp">
<polygon fill="none" stroke="black" points="1009.5,-112.5 1009.5,-131.5 1099.5,-131.5 1099.5,-112.5 1009.5,-112.5"/>
<text text-anchor="middle" x="1054.5" y="-119.5" font-family="Helvetica,sans-Serif" font-size="10.00">BufferObject.hpp</text>
</a>
</g>
</g>
<!-- Node23&#45;&gt;Node25 -->
<g id="edge38" class="edge"><title>Node23&#45;&gt;Node25</title>
<path fill="none" stroke="midnightblue" d="M936.683,-168.444C959.928,-159.478 996.649,-145.314 1022.92,-135.183"/>
<polygon fill="midnightblue" stroke="midnightblue" points="1024.35,-138.381 1032.42,-131.516 1021.83,-131.85 1024.35,-138.381"/>
</g>
<!-- Node25&#45;&gt;Node4 -->
<g id="edge40" class="edge"><title>Node25&#45;&gt;Node4</title>
<path fill="none" stroke="midnightblue" d="M1060.44,-112.083C1065.48,-104.534 1072.84,-93.4948 1079.01,-84.2298"/>
<polygon fill="midnightblue" stroke="midnightblue" points="1082.03,-86.0131 1084.67,-75.7511 1076.21,-82.1301 1082.03,-86.0131"/>
</g>
<!-- Node25&#45;&gt;Node20 -->
<g id="edge39" class="edge"><title>Node25&#45;&gt;Node20</title>
<path fill="none" stroke="midnightblue" d="M1026.77,-112.444C995.328,-102.741 944.159,-86.952 911.171,-76.7727"/>
<polygon fill="midnightblue" stroke="midnightblue" points="912.146,-73.4109 901.559,-73.8067 910.082,-80.0997 912.146,-73.4109"/>
</g>
<!-- Node26&#45;&gt;Node4 -->
<g id="edge42" class="edge"><title>Node26&#45;&gt;Node4</title>
<path fill="none" stroke="midnightblue" d="M786.698,-280.718C875.498,-258.976 1104.16,-197.414 1140.5,-132 1150.96,-113.176 1131.6,-93.9059 1114.02,-81.2875"/>
<polygon fill="midnightblue" stroke="midnightblue" points="1115.91,-78.3437 1105.66,-75.6585 1112,-84.1489 1115.91,-78.3437"/>
</g>
<!-- Node26&#45;&gt;Node16 -->
<g id="edge44" class="edge"><title>Node26&#45;&gt;Node16</title>
<path fill="none" stroke="midnightblue" d="M749.188,-280.083C747.333,-272.927 744.665,-262.635 742.346,-253.691"/>
<polygon fill="midnightblue" stroke="midnightblue" points="745.666,-252.553 739.769,-243.751 738.891,-254.309 745.666,-252.553"/>
</g>
<!-- Node26&#45;&gt;Node17 -->
<g id="edge43" class="edge"><title>Node26&#45;&gt;Node17</title>
<path fill="none" stroke="midnightblue" d="M786.979,-281.373C789.855,-280.868 792.722,-280.401 795.5,-280 888.652,-266.547 1134.08,-287.574 1217.5,-244 1237.55,-233.525 1253.04,-212.082 1262.19,-196.687"/>
<polygon fill="midnightblue" stroke="midnightblue" points="1265.44,-198.054 1267.27,-187.619 1259.33,-194.634 1265.44,-198.054"/>
</g>
<!-- Node29 -->
<g id="node29" class="node"><title>Node29</title>
<g id="a_node29"><a xlink:href="../../d5/da5/tools_8h.html" target="_top" xlink:title="tools.h">
<polygon fill="none" stroke="black" points="946.5,-336.5 946.5,-355.5 992.5,-355.5 992.5,-336.5 946.5,-336.5"/>
<text text-anchor="middle" x="969.5" y="-343.5" font-family="Helvetica,sans-Serif" font-size="10.00">tools.h</text>
</a>
</g>
</g>
<!-- Node28&#45;&gt;Node29 -->
<g id="edge47" class="edge"><title>Node28&#45;&gt;Node29</title>
<path fill="none" stroke="midnightblue" d="M660.535,-399.675C730.072,-387.819 871.893,-363.641 936.324,-352.656"/>
<polygon fill="midnightblue" stroke="midnightblue" points="937.07,-356.08 946.339,-350.949 935.893,-349.179 937.07,-356.08"/>
</g>
<!-- Node30 -->
<g id="node30" class="node"><title>Node30</title>
<polygon fill="none" stroke="#bfbfbf" points="1098.5,-280.5 1098.5,-299.5 1148.5,-299.5 1148.5,-280.5 1098.5,-280.5"/>
<text text-anchor="middle" x="1123.5" y="-287.5" font-family="Helvetica,sans-Serif" font-size="10.00">QString</text>
</g>
<!-- Node29&#45;&gt;Node30 -->
<g id="edge48" class="edge"><title>Node29&#45;&gt;Node30</title>
<path fill="none" stroke="midnightblue" d="M992.555,-336.916C1018.26,-327.902 1060.09,-313.235 1089.54,-302.908"/>
<polygon fill="midnightblue" stroke="midnightblue" points="1090.73,-306.198 1099.01,-299.587 1088.42,-299.593 1090.73,-306.198"/>
</g>
<!-- Node31 -->
<g id="node31" class="node"><title>Node31</title>
<polygon fill="none" stroke="#bfbfbf" points="1167,-280.5 1167,-299.5 1232,-299.5 1232,-280.5 1167,-280.5"/>
<text text-anchor="middle" x="1199.5" y="-287.5" font-family="Helvetica,sans-Serif" font-size="10.00">QVector3D</text>
</g>
<!-- Node29&#45;&gt;Node31 -->
<g id="edge49" class="edge"><title>Node29&#45;&gt;Node31</title>
<path fill="none" stroke="midnightblue" d="M992.819,-339.525C1031.31,-330.488 1108.68,-312.323 1157.07,-300.962"/>
<polygon fill="midnightblue" stroke="midnightblue" points="1158,-304.34 1166.93,-298.647 1156.4,-297.525 1158,-304.34"/>
</g>
<!-- Node32 -->
<g id="node32" class="node"><title>Node32</title>
<polygon fill="none" stroke="#bfbfbf" points="804.5,-280.5 804.5,-299.5 844.5,-299.5 844.5,-280.5 804.5,-280.5"/>
<text text-anchor="middle" x="824.5" y="-287.5" font-family="Helvetica,sans-Serif" font-size="10.00">QList</text>
</g>
<!-- Node29&#45;&gt;Node32 -->
<g id="edge50" class="edge"><title>Node29&#45;&gt;Node32</title>
<path fill="none" stroke="midnightblue" d="M946.524,-336.444C921.49,-327.12 881.364,-312.177 854.013,-301.991"/>
<polygon fill="midnightblue" stroke="midnightblue" points="855.159,-298.683 844.566,-298.473 852.716,-305.243 855.159,-298.683"/>
</g>
<!-- Node33 -->
<g id="node33" class="node"><title>Node33</title>
<polygon fill="none" stroke="#bfbfbf" points="863,-280.5 863,-299.5 906,-299.5 906,-280.5 863,-280.5"/>
<text text-anchor="middle" x="884.5" y="-287.5" font-family="Helvetica,sans-Serif" font-size="10.00">QMap</text>
</g>
<!-- Node29&#45;&gt;Node33 -->
<g id="edge51" class="edge"><title>Node29&#45;&gt;Node33</title>
<path fill="none" stroke="midnightblue" d="M955.843,-336.324C942.584,-327.9 922.232,-314.971 906.654,-305.074"/>
<polygon fill="midnightblue" stroke="midnightblue" points="908.44,-302.063 898.123,-299.655 904.687,-307.971 908.44,-302.063"/>
</g>
<!-- Node34 -->
<g id="node34" class="node"><title>Node34</title>
<polygon fill="none" stroke="#bfbfbf" points="924,-280.5 924,-299.5 1015,-299.5 1015,-280.5 924,-280.5"/>
<text text-anchor="middle" x="969.5" y="-287.5" font-family="Helvetica,sans-Serif" font-size="10.00">QGraphicsScene</text>
</g>
<!-- Node29&#45;&gt;Node34 -->
<g id="edge52" class="edge"><title>Node29&#45;&gt;Node34</title>
<path fill="none" stroke="midnightblue" d="M969.5,-336.083C969.5,-329.006 969.5,-318.861 969.5,-309.986"/>
<polygon fill="midnightblue" stroke="midnightblue" points="973,-309.751 969.5,-299.751 966,-309.751 973,-309.751"/>
</g>
<!-- Node35 -->
<g id="node35" class="node"><title>Node35</title>
<polygon fill="none" stroke="#bfbfbf" points="1033,-280.5 1033,-299.5 1080,-299.5 1080,-280.5 1033,-280.5"/>
<text text-anchor="middle" x="1056.5" y="-287.5" font-family="Helvetica,sans-Serif" font-size="10.00">math.h</text>
</g>
<!-- Node29&#45;&gt;Node35 -->
<g id="edge53" class="edge"><title>Node29&#45;&gt;Node35</title>
<path fill="none" stroke="midnightblue" d="M983.478,-336.324C997.05,-327.9 1017.88,-314.971 1033.82,-305.074"/>
<polygon fill="midnightblue" stroke="midnightblue" points="1035.91,-307.902 1042.56,-299.655 1032.21,-301.954 1035.91,-307.902"/>
</g>
</g>
</svg>
