<?xml version="1.0" encoding="UTF-8" standalone="no"?>
<!DOCTYPE svg PUBLIC "-//W3C//DTD SVG 1.1//EN"
 "http://www.w3.org/Graphics/SVG/1.1/DTD/svg11.dtd">
<!-- Generated by graphviz version 2.38.0 (20140413.2041)
 -->
<!-- Title: engine/GameEngine/GameEngine.hpp Pages: 1 -->
<!--zoomable 420 -->
<svg id="main" version="1.1" xmlns="http://www.w3.org/2000/svg" xmlns:xlink="http://www.w3.org/1999/xlink" xml:space="preserve" onload="init(evt)">
<style type="text/css"><![CDATA[
.edge:hover path { stroke: red; }
.edge:hover polygon { stroke: red; fill: red; }
]]></style>
<script type="text/javascript"><![CDATA[
var edges = document.getElementsByTagName('g');
if (edges && edges.length) {
  for (var i=0;i<edges.length;i++) {
    if (edges[i].id.substr(0,4)=='edge') {
      edges[i].setAttribute('class','edge');
    }
  }
}
]]></script>
        <defs>
                <circle id="rim" cx="0" cy="0" r="7"/>
                <circle id="rim2" cx="0" cy="0" r="3.5"/>
                <g id="zoomPlus">
                        <use xlink:href="#rim" fill="#404040">
                                <set attributeName="fill" to="#808080" begin="zoomplus.mouseover" end="zoomplus.mouseout"/>
                        </use>
                        <path d="M-4,0h8M0,-4v8" fill="none" stroke="white" stroke-width="1.5" pointer-events="none"/>
                </g>
                <g id="zoomMin">
                        <use xlink:href="#rim" fill="#404040">
                                <set attributeName="fill" to="#808080" begin="zoomminus.mouseover" end="zoomminus.mouseout"/>
                        </use>
                        <path d="M-4,0h8" fill="none" stroke="white" stroke-width="1.5" pointer-events="none"/>
                </g>
                <g id="dirArrow">
                        <path fill="none" stroke="white" stroke-width="1.5" d="M0,-3.0v7 M-2.5,-0.5L0,-3.0L2.5,-0.5"/>
                </g>
               <g id="resetDef">
                       <use xlink:href="#rim2" fill="#404040">
                               <set attributeName="fill" to="#808080" begin="reset.mouseover" end="reset.mouseout"/>
                       </use>
               </g>
        </defs>

<script type="text/javascript">
var viewWidth = 915;
var viewHeight = 420;
var sectionId = 'dynsection-0';
</script>
<script xlink:href="../../svgpan.js"/>
<svg id="graph" class="graph">
<g id="viewport">
<title>engine/GameEngine/GameEngine.hpp</title>
<!-- Node1 -->
<g id="node1" class="node"><title>Node1</title>
<polygon fill="#bfbfbf" stroke="black" points="25,-392.5 25,-411.5 207,-411.5 207,-392.5 25,-392.5"/>
<text text-anchor="middle" x="116" y="-399.5" font-family="Helvetica,sans-Serif" font-size="10.00">engine/GameEngine/GameEngine.hpp</text>
</g>
<!-- Node2 -->
<g id="node2" class="node"><title>Node2</title>
<g id="a_node2"><a xlink:href="../../de/df7/worldparticles_8hpp.html" target="_top" xlink:title="wordparticles configuration file ">
<polygon fill="none" stroke="black" points="66.5,-112.5 66.5,-131.5 161.5,-131.5 161.5,-112.5 66.5,-112.5"/>
<text text-anchor="middle" x="114" y="-119.5" font-family="Helvetica,sans-Serif" font-size="10.00">worldparticles.hpp</text>
</a>
</g>
</g>
<!-- Node1&#45;&gt;Node2 -->
<g id="edge1" class="edge"><title>Node1&#45;&gt;Node2</title>
<path fill="none" stroke="midnightblue" d="M94.7238,-392.403C61.2356,-377.299 0,-342.622 0,-291 0,-291 0,-291 0,-233 0,-186.115 50.5515,-152.894 84.3292,-135.93"/>
<polygon fill="midnightblue" stroke="midnightblue" points="85.8676,-139.074 93.3555,-131.579 82.8277,-132.769 85.8676,-139.074"/>
</g>
<!-- Node3 -->
<g id="node3" class="node"><title>Node3</title>
<g id="a_node3"><a xlink:href="../../db/de8/Scene_8hpp.html" target="_top" xlink:title="Scene.hpp">
<polygon fill="none" stroke="black" points="200.5,-336.5 200.5,-355.5 263.5,-355.5 263.5,-336.5 200.5,-336.5"/>
<text text-anchor="middle" x="232" y="-343.5" font-family="Helvetica,sans-Serif" font-size="10.00">Scene.hpp</text>
</a>
</g>
</g>
<!-- Node1&#45;&gt;Node3 -->
<g id="edge2" class="edge"><title>Node1&#45;&gt;Node3</title>
<path fill="none" stroke="midnightblue" d="M134.381,-392.444C153.216,-383.675 182.731,-369.935 204.379,-359.858"/>
<polygon fill="midnightblue" stroke="midnightblue" points="206.117,-362.91 213.705,-355.516 203.162,-356.564 206.117,-362.91"/>
</g>
<!-- Node4 -->
<g id="node4" class="node"><title>Node4</title>
<polygon fill="none" stroke="#bfbfbf" points="221,-56.5 221,-75.5 273,-75.5 273,-56.5 221,-56.5"/>
<text text-anchor="middle" x="247" y="-63.5" font-family="Helvetica,sans-Serif" font-size="10.00">memory</text>
</g>
<!-- Node3&#45;&gt;Node4 -->
<g id="edge3" class="edge"><title>Node3&#45;&gt;Node4</title>
<path fill="none" stroke="midnightblue" d="M200.399,-341.567C145.427,-333.655 38,-308.758 38,-235 38,-235 38,-235 38,-177 38,-146.902 35.1734,-132.724 57,-112 78.8147,-91.2876 161.701,-77.6657 210.496,-71.2579"/>
<polygon fill="midnightblue" stroke="midnightblue" points="211.172,-74.7002 220.649,-69.964 210.287,-67.7564 211.172,-74.7002"/>
</g>
<!-- Node5 -->
<g id="node5" class="node"><title>Node5</title>
<polygon fill="none" stroke="#bfbfbf" points="196.5,-280.5 196.5,-299.5 225.5,-299.5 225.5,-280.5 196.5,-280.5"/>
<text text-anchor="middle" x="211" y="-287.5" font-family="Helvetica,sans-Serif" font-size="10.00">list</text>
</g>
<!-- Node3&#45;&gt;Node5 -->
<g id="edge4" class="edge"><title>Node3&#45;&gt;Node5</title>
<path fill="none" stroke="midnightblue" d="M228.532,-336.083C225.688,-328.77 221.571,-318.181 218.04,-309.103"/>
<polygon fill="midnightblue" stroke="midnightblue" points="221.29,-307.803 214.403,-299.751 214.766,-310.34 221.29,-307.803"/>
</g>
<!-- Node6 -->
<g id="node6" class="node"><title>Node6</title>
<g id="a_node6"><a xlink:href="../../d4/db5/GameObject_8hpp.html" target="_top" xlink:title="GameObject.hpp">
<polygon fill="none" stroke="black" points="339,-224.5 339,-243.5 429,-243.5 429,-224.5 339,-224.5"/>
<text text-anchor="middle" x="384" y="-231.5" font-family="Helvetica,sans-Serif" font-size="10.00">GameObject.hpp</text>
</a>
</g>
</g>
<!-- Node3&#45;&gt;Node6 -->
<g id="edge5" class="edge"><title>Node3&#45;&gt;Node6</title>
<path fill="none" stroke="midnightblue" d="M235.437,-336.205C241.227,-322.439 254.17,-295.751 273,-280 291.741,-264.323 316.664,-253.556 338.145,-246.496"/>
<polygon fill="midnightblue" stroke="midnightblue" points="339.23,-249.824 347.737,-243.508 337.149,-243.14 339.23,-249.824"/>
</g>
<!-- Node18 -->
<g id="node18" class="node"><title>Node18</title>
<g id="a_node18"><a xlink:href="../../d6/d80/Camera_8hpp.html" target="_top" xlink:title="Camera.hpp">
<polygon fill="none" stroke="black" points="581,-280.5 581,-299.5 651,-299.5 651,-280.5 581,-280.5"/>
<text text-anchor="middle" x="616" y="-287.5" font-family="Helvetica,sans-Serif" font-size="10.00">Camera.hpp</text>
</a>
</g>
</g>
<!-- Node3&#45;&gt;Node18 -->
<g id="edge32" class="edge"><title>Node3&#45;&gt;Node18</title>
<path fill="none" stroke="midnightblue" d="M263.751,-340.535C331.851,-330.958 492.133,-308.419 570.818,-297.354"/>
<polygon fill="midnightblue" stroke="midnightblue" points="571.492,-300.793 580.907,-295.935 570.517,-293.862 571.492,-300.793"/>
</g>
<!-- Node19 -->
<g id="node19" class="node"><title>Node19</title>
<g id="a_node19"><a xlink:href="../../d5/dd5/Light_8hpp.html" target="_top" xlink:title="Light.hpp">
<polygon fill="none" stroke="black" points="282,-280.5 282,-299.5 338,-299.5 338,-280.5 282,-280.5"/>
<text text-anchor="middle" x="310" y="-287.5" font-family="Helvetica,sans-Serif" font-size="10.00">Light.hpp</text>
</a>
</g>
</g>
<!-- Node3&#45;&gt;Node19 -->
<g id="edge36" class="edge"><title>Node3&#45;&gt;Node19</title>
<path fill="none" stroke="midnightblue" d="M244.532,-336.324C256.586,-327.979 275.027,-315.212 289.269,-305.352"/>
<polygon fill="midnightblue" stroke="midnightblue" points="291.269,-308.224 297.499,-299.655 287.285,-302.469 291.269,-308.224"/>
</g>
<!-- Node6&#45;&gt;Node2 -->
<g id="edge8" class="edge"><title>Node6&#45;&gt;Node2</title>
<path fill="none" stroke="midnightblue" d="M338.696,-230.853C294.641,-227.066 227.078,-216.641 176,-188 155.048,-176.252 136.863,-155.109 125.701,-140.131"/>
<polygon fill="midnightblue" stroke="midnightblue" points="128.363,-137.835 119.697,-131.74 122.67,-141.909 128.363,-137.835"/>
</g>
<!-- Node6&#45;&gt;Node4 -->
<g id="edge7" class="edge"><title>Node6&#45;&gt;Node4</title>
<path fill="none" stroke="midnightblue" d="M338.912,-226.199C297.485,-218.919 240.524,-205.945 227,-188 203.921,-157.377 223.212,-109.957 236.681,-84.5287"/>
<polygon fill="midnightblue" stroke="midnightblue" points="239.815,-86.0947 241.624,-75.6555 233.7,-82.688 239.815,-86.0947"/>
</g>
<!-- Node7 -->
<g id="node7" class="node"><title>Node7</title>
<polygon fill="none" stroke="#bfbfbf" points="665,-56.5 665,-75.5 735,-75.5 735,-56.5 665,-56.5"/>
<text text-anchor="middle" x="700" y="-63.5" font-family="Helvetica,sans-Serif" font-size="10.00">glm/glm.hpp</text>
</g>
<!-- Node6&#45;&gt;Node7 -->
<g id="edge6" class="edge"><title>Node6&#45;&gt;Node7</title>
<path fill="none" stroke="midnightblue" d="M429.151,-228.644C524.756,-218.372 742.369,-189.094 785,-132 802.05,-109.166 768.147,-90.3581 738.232,-78.9502"/>
<polygon fill="midnightblue" stroke="midnightblue" points="739.324,-75.6231 728.73,-75.5106 736.942,-82.2052 739.324,-75.6231"/>
</g>
<!-- Node8 -->
<g id="node8" class="node"><title>Node8</title>
<g id="a_node8"><a xlink:href="../../da/d83/Transform_8hpp.html" target="_top" xlink:title="Transform.hpp">
<polygon fill="none" stroke="black" points="809,-168.5 809,-187.5 889,-187.5 889,-168.5 809,-168.5"/>
<text text-anchor="middle" x="849" y="-175.5" font-family="Helvetica,sans-Serif" font-size="10.00">Transform.hpp</text>
</a>
</g>
</g>
<!-- Node6&#45;&gt;Node8 -->
<g id="edge9" class="edge"><title>Node6&#45;&gt;Node8</title>
<path fill="none" stroke="midnightblue" d="M429.106,-228.896C504.862,-221.817 662.385,-206.296 795,-188 796.271,-187.825 797.558,-187.643 798.856,-187.455"/>
<polygon fill="midnightblue" stroke="midnightblue" points="799.568,-190.888 808.934,-185.935 798.523,-183.966 799.568,-190.888"/>
</g>
<!-- Node9 -->
<g id="node9" class="node"><title>Node9</title>
<g id="a_node9"><a xlink:href="../../d1/dca/IRenderer_8hpp.html" target="_top" xlink:title="IRenderer.hpp">
<polygon fill="none" stroke="black" points="236,-168.5 236,-187.5 314,-187.5 314,-168.5 236,-168.5"/>
<text text-anchor="middle" x="275" y="-175.5" font-family="Helvetica,sans-Serif" font-size="10.00">IRenderer.hpp</text>
</a>
</g>
</g>
<!-- Node6&#45;&gt;Node9 -->
<g id="edge11" class="edge"><title>Node6&#45;&gt;Node9</title>
<path fill="none" stroke="midnightblue" d="M366.487,-224.324C348.928,-215.625 321.669,-202.12 301.469,-192.113"/>
<polygon fill="midnightblue" stroke="midnightblue" points="302.984,-188.958 292.469,-187.655 299.876,-195.23 302.984,-188.958"/>
</g>
<!-- Node10 -->
<g id="node10" class="node"><title>Node10</title>
<g id="a_node10"><a xlink:href="../../d0/d70/Material_8hpp.html" target="_top" xlink:title="Material.hpp">
<polygon fill="none" stroke="black" points="349,-168.5 349,-187.5 419,-187.5 419,-168.5 349,-168.5"/>
<text text-anchor="middle" x="384" y="-175.5" font-family="Helvetica,sans-Serif" font-size="10.00">Material.hpp</text>
</a>
</g>
</g>
<!-- Node6&#45;&gt;Node10 -->
<g id="edge15" class="edge"><title>Node6&#45;&gt;Node10</title>
<path fill="none" stroke="midnightblue" d="M384,-224.083C384,-217.006 384,-206.861 384,-197.986"/>
<polygon fill="midnightblue" stroke="midnightblue" points="387.5,-197.751 384,-187.751 380.5,-197.751 387.5,-197.751"/>
</g>
<!-- Node15 -->
<g id="node15" class="node"><title>Node15</title>
<g id="a_node15"><a xlink:href="../../d1/d62/Mesh_8hpp.html" target="_top" xlink:title="Mesh.hpp">
<polygon fill="none" stroke="black" points="528.5,-168.5 528.5,-187.5 587.5,-187.5 587.5,-168.5 528.5,-168.5"/>
<text text-anchor="middle" x="558" y="-175.5" font-family="Helvetica,sans-Serif" font-size="10.00">Mesh.hpp</text>
</a>
</g>
</g>
<!-- Node6&#45;&gt;Node15 -->
<g id="edge24" class="edge"><title>Node6&#45;&gt;Node15</title>
<path fill="none" stroke="midnightblue" d="M411.571,-224.444C441.097,-215.28 488.118,-200.688 520.883,-190.519"/>
<polygon fill="midnightblue" stroke="midnightblue" points="522.045,-193.823 530.558,-187.516 519.97,-187.138 522.045,-193.823"/>
</g>
<!-- Node8&#45;&gt;Node7 -->
<g id="edge10" class="edge"><title>Node8&#45;&gt;Node7</title>
<path fill="none" stroke="midnightblue" d="M850.464,-168.276C852.234,-154.607 853.483,-128.05 840,-112 816.837,-84.4265 776.696,-73.5769 745.319,-69.3928"/>
<polygon fill="midnightblue" stroke="midnightblue" points="745.385,-65.8775 735.051,-68.2149 744.587,-72.8319 745.385,-65.8775"/>
</g>
<!-- Node9&#45;&gt;Node2 -->
<g id="edge14" class="edge"><title>Node9&#45;&gt;Node2</title>
<path fill="none" stroke="midnightblue" d="M249.489,-168.444C222.404,-159.359 179.41,-144.939 149.131,-134.783"/>
<polygon fill="midnightblue" stroke="midnightblue" points="149.986,-131.378 139.392,-131.516 147.76,-138.015 149.986,-131.378"/>
</g>
<!-- Node9&#45;&gt;Node4 -->
<g id="edge13" class="edge"><title>Node9&#45;&gt;Node4</title>
<path fill="none" stroke="midnightblue" d="M269.329,-168.462C263.84,-159.712 255.807,-145.512 252,-132 247.727,-116.834 246.623,-98.9396 246.504,-85.7699"/>
<polygon fill="midnightblue" stroke="midnightblue" points="250.006,-85.6324 246.6,-75.6001 243.006,-85.5669 250.006,-85.6324"/>
</g>
<!-- Node9&#45;&gt;Node7 -->
<g id="edge12" class="edge"><title>Node9&#45;&gt;Node7</title>
<path fill="none" stroke="midnightblue" d="M310.164,-168.42C344.494,-159.86 398.115,-146 444,-132 470.08,-124.042 475.778,-119.477 502,-112 553.878,-97.2075 614.486,-84.02 654.849,-75.8046"/>
<polygon fill="midnightblue" stroke="midnightblue" points="655.547,-79.2344 664.657,-73.8251 654.162,-72.3727 655.547,-79.2344"/>
</g>
<!-- Node10&#45;&gt;Node4 -->
<g id="edge17" class="edge"><title>Node10&#45;&gt;Node4</title>
<path fill="none" stroke="midnightblue" d="M356.629,-168.368C336.556,-161.041 309.513,-148.991 290,-132 274.891,-118.844 262.875,-99.163 255.429,-84.9053"/>
<polygon fill="midnightblue" stroke="midnightblue" points="258.417,-83.0534 250.835,-75.653 252.147,-86.1663 258.417,-83.0534"/>
</g>
<!-- Node10&#45;&gt;Node7 -->
<g id="edge16" class="edge"><title>Node10&#45;&gt;Node7</title>
<path fill="none" stroke="midnightblue" d="M405.981,-168.459C439.027,-155.705 503.547,-131.136 559,-112 593.765,-100.003 633.73,-87.3551 662.214,-78.5337"/>
<polygon fill="midnightblue" stroke="midnightblue" points="663.259,-81.8739 671.783,-75.5805 661.195,-75.1853 663.259,-81.8739"/>
</g>
<!-- Node11 -->
<g id="node11" class="node"><title>Node11</title>
<g id="a_node11"><a xlink:href="../../dc/ddb/ShaderProgram_8hpp.html" target="_top" xlink:title="ShaderProgram.hpp">
<polygon fill="none" stroke="black" points="332.5,-112.5 332.5,-131.5 435.5,-131.5 435.5,-112.5 332.5,-112.5"/>
<text text-anchor="middle" x="384" y="-119.5" font-family="Helvetica,sans-Serif" font-size="10.00">ShaderProgram.hpp</text>
</a>
</g>
</g>
<!-- Node10&#45;&gt;Node11 -->
<g id="edge18" class="edge"><title>Node10&#45;&gt;Node11</title>
<path fill="none" stroke="midnightblue" d="M384,-168.083C384,-161.006 384,-150.861 384,-141.986"/>
<polygon fill="midnightblue" stroke="midnightblue" points="387.5,-141.751 384,-131.751 380.5,-141.751 387.5,-141.751"/>
</g>
<!-- Node11&#45;&gt;Node4 -->
<g id="edge21" class="edge"><title>Node11&#45;&gt;Node4</title>
<path fill="none" stroke="midnightblue" d="M362.292,-112.444C339.645,-103.517 303.928,-89.4387 278.248,-79.3168"/>
<polygon fill="midnightblue" stroke="midnightblue" points="279.193,-75.9273 268.606,-75.5164 276.626,-82.4397 279.193,-75.9273"/>
</g>
<!-- Node11&#45;&gt;Node7 -->
<g id="edge19" class="edge"><title>Node11&#45;&gt;Node7</title>
<path fill="none" stroke="midnightblue" d="M434.071,-112.444C494.815,-102.063 596.328,-84.7161 654.792,-74.7253"/>
<polygon fill="midnightblue" stroke="midnightblue" points="655.572,-78.1429 664.84,-73.0084 654.393,-71.243 655.572,-78.1429"/>
</g>
<!-- Node12 -->
<g id="node12" class="node"><title>Node12</title>
<polygon fill="none" stroke="#bfbfbf" points="480,-56.5 480,-75.5 524,-75.5 524,-56.5 480,-56.5"/>
<text text-anchor="middle" x="502" y="-63.5" font-family="Helvetica,sans-Serif" font-size="10.00">vector</text>
</g>
<!-- Node11&#45;&gt;Node12 -->
<g id="edge20" class="edge"><title>Node11&#45;&gt;Node12</title>
<path fill="none" stroke="midnightblue" d="M402.697,-112.444C421.944,-103.636 452.152,-89.8116 474.2,-79.722"/>
<polygon fill="midnightblue" stroke="midnightblue" points="475.753,-82.8603 483.39,-75.5164 472.84,-76.4951 475.753,-82.8603"/>
</g>
<!-- Node13 -->
<g id="node13" class="node"><title>Node13</title>
<g id="a_node13"><a xlink:href="../../d4/d6e/Shader_8hpp.html" target="_top" xlink:title="Shader.hpp">
<polygon fill="none" stroke="black" points="351,-56.5 351,-75.5 417,-75.5 417,-56.5 351,-56.5"/>
<text text-anchor="middle" x="384" y="-63.5" font-family="Helvetica,sans-Serif" font-size="10.00">Shader.hpp</text>
</a>
</g>
</g>
<!-- Node11&#45;&gt;Node13 -->
<g id="edge22" class="edge"><title>Node11&#45;&gt;Node13</title>
<path fill="none" stroke="midnightblue" d="M384,-112.083C384,-105.006 384,-94.8611 384,-85.9865"/>
<polygon fill="midnightblue" stroke="midnightblue" points="387.5,-85.751 384,-75.7511 380.5,-85.7511 387.5,-85.751"/>
</g>
<!-- Node14 -->
<g id="node14" class="node"><title>Node14</title>
<polygon fill="none" stroke="#bfbfbf" points="363.5,-0.5 363.5,-19.5 404.5,-19.5 404.5,-0.5 363.5,-0.5"/>
<text text-anchor="middle" x="384" y="-7.5" font-family="Helvetica,sans-Serif" font-size="10.00">string</text>
</g>
<!-- Node13&#45;&gt;Node14 -->
<g id="edge23" class="edge"><title>Node13&#45;&gt;Node14</title>
<path fill="none" stroke="midnightblue" d="M384,-56.083C384,-49.0059 384,-38.8611 384,-29.9865"/>
<polygon fill="midnightblue" stroke="midnightblue" points="387.5,-29.751 384,-19.7511 380.5,-29.7511 387.5,-29.751"/>
</g>
<!-- Node15&#45;&gt;Node4 -->
<g id="edge26" class="edge"><title>Node15&#45;&gt;Node4</title>
<path fill="none" stroke="midnightblue" d="M528.283,-176.148C482.154,-173.789 391.504,-164.954 323,-132 298.446,-120.188 275.435,-98.4307 261.303,-83.3606"/>
<polygon fill="midnightblue" stroke="midnightblue" points="263.729,-80.8261 254.412,-75.782 258.55,-85.5353 263.729,-80.8261"/>
</g>
<!-- Node15&#45;&gt;Node7 -->
<g id="edge27" class="edge"><title>Node15&#45;&gt;Node7</title>
<path fill="none" stroke="midnightblue" d="M587.823,-175.094C640.288,-171.052 745.673,-159.619 768,-132 784.023,-112.179 755.239,-92.3685 730.324,-79.9216"/>
<polygon fill="midnightblue" stroke="midnightblue" points="731.6,-76.6533 721.066,-75.527 728.599,-82.9771 731.6,-76.6533"/>
</g>
<!-- Node15&#45;&gt;Node12 -->
<g id="edge25" class="edge"><title>Node15&#45;&gt;Node12</title>
<path fill="none" stroke="midnightblue" d="M553.606,-168.368C544.446,-150.376 523.153,-108.55 510.974,-84.6267"/>
<polygon fill="midnightblue" stroke="midnightblue" points="514.03,-82.9152 506.374,-75.5914 507.792,-86.091 514.03,-82.9152"/>
</g>
<!-- Node16 -->
<g id="node16" class="node"><title>Node16</title>
<polygon fill="none" stroke="#bfbfbf" points="676.5,-112.5 676.5,-131.5 759.5,-131.5 759.5,-112.5 676.5,-112.5"/>
<text text-anchor="middle" x="718" y="-119.5" font-family="Helvetica,sans-Serif" font-size="10.00">assimp/mesh.h</text>
</g>
<!-- Node15&#45;&gt;Node16 -->
<g id="edge28" class="edge"><title>Node15&#45;&gt;Node16</title>
<path fill="none" stroke="midnightblue" d="M583.352,-168.444C610.269,-159.359 652.996,-144.939 683.087,-134.783"/>
<polygon fill="midnightblue" stroke="midnightblue" points="684.41,-138.031 692.766,-131.516 682.172,-131.398 684.41,-138.031"/>
</g>
<!-- Node17 -->
<g id="node17" class="node"><title>Node17</title>
<g id="a_node17"><a xlink:href="../../da/d04/BufferObject_8hpp.html" target="_top" xlink:title="BufferObject.hpp">
<polygon fill="none" stroke="black" points="568,-112.5 568,-131.5 658,-131.5 658,-112.5 568,-112.5"/>
<text text-anchor="middle" x="613" y="-119.5" font-family="Helvetica,sans-Serif" font-size="10.00">BufferObject.hpp</text>
</a>
</g>
</g>
<!-- Node15&#45;&gt;Node17 -->
<g id="edge29" class="edge"><title>Node15&#45;&gt;Node17</title>
<path fill="none" stroke="midnightblue" d="M567.082,-168.083C575.171,-160.141 587.195,-148.335 596.91,-138.797"/>
<polygon fill="midnightblue" stroke="midnightblue" points="599.403,-141.254 604.087,-131.751 594.499,-136.26 599.403,-141.254"/>
</g>
<!-- Node17&#45;&gt;Node7 -->
<g id="edge31" class="edge"><title>Node17&#45;&gt;Node7</title>
<path fill="none" stroke="midnightblue" d="M626.978,-112.324C640.55,-103.9 661.38,-90.9709 677.325,-81.0741"/>
<polygon fill="midnightblue" stroke="midnightblue" points="679.406,-83.9019 686.057,-75.6545 675.714,-77.9544 679.406,-83.9019"/>
</g>
<!-- Node17&#45;&gt;Node12 -->
<g id="edge30" class="edge"><title>Node17&#45;&gt;Node12</title>
<path fill="none" stroke="midnightblue" d="M595.166,-112.324C577.284,-103.625 549.525,-90.1202 528.954,-80.113"/>
<polygon fill="midnightblue" stroke="midnightblue" points="530.313,-76.8819 519.79,-75.6545 527.251,-83.1765 530.313,-76.8819"/>
</g>
<!-- Node18&#45;&gt;Node6 -->
<g id="edge35" class="edge"><title>Node18&#45;&gt;Node6</title>
<path fill="none" stroke="midnightblue" d="M580.764,-280.799C540.663,-271.465 474.996,-256.18 430.667,-245.862"/>
<polygon fill="midnightblue" stroke="midnightblue" points="431.252,-242.405 420.719,-243.547 429.665,-249.223 431.252,-242.405"/>
</g>
<!-- Node18&#45;&gt;Node7 -->
<g id="edge33" class="edge"><title>Node18&#45;&gt;Node7</title>
<path fill="none" stroke="midnightblue" d="M651.315,-288.495C713.567,-285.457 841.573,-269.11 898,-188 940.924,-126.3 816.113,-90.2644 745.259,-75.2571"/>
<polygon fill="midnightblue" stroke="midnightblue" points="745.723,-71.7794 735.223,-73.1949 744.314,-78.6361 745.723,-71.7794"/>
</g>
<!-- Node18&#45;&gt;Node8 -->
<g id="edge34" class="edge"><title>Node18&#45;&gt;Node8</title>
<path fill="none" stroke="midnightblue" d="M634.283,-280.368C675.032,-261.131 773.491,-214.648 821.609,-191.931"/>
<polygon fill="midnightblue" stroke="midnightblue" points="823.253,-195.026 830.802,-187.591 820.265,-188.696 823.253,-195.026"/>
</g>
</g>
</svg>
        <g id="navigator" transform="translate(0 0)" fill="#404254">
                <rect fill="#f2f5e9" fill-opacity="0.5" stroke="#606060" stroke-width=".5" x="0" y="0" width="60" height="60"/>
                <use id="zoomplus" xlink:href="#zoomPlus" x="17" y="9" onmousedown="handleZoom(evt,'in')"/>
                <use id="zoomminus" xlink:href="#zoomMin" x="42" y="9" onmousedown="handleZoom(evt,'out')"/>
                <use id="reset" xlink:href="#resetDef" x="30" y="36" onmousedown="handleReset()"/>
                <g id="arrowUp" xlink:href="#dirArrow" transform="translate(30 24)" onmousedown="handlePan(0,-1)">
                  <use xlink:href="#rim" fill="#404040">
                        <set attributeName="fill" to="#808080" begin="arrowUp.mouseover" end="arrowUp.mouseout"/>
                  </use>
                  <path fill="none" stroke="white" stroke-width="1.5" d="M0,-3.0v7 M-2.5,-0.5L0,-3.0L2.5,-0.5"/>
                </g>
                <g id="arrowRight" xlink:href="#dirArrow" transform="rotate(90) translate(36 -43)" onmousedown="handlePan(1,0)">
                  <use xlink:href="#rim" fill="#404040">
                        <set attributeName="fill" to="#808080" begin="arrowRight.mouseover" end="arrowRight.mouseout"/>
                  </use>
                  <path fill="none" stroke="white" stroke-width="1.5" d="M0,-3.0v7 M-2.5,-0.5L0,-3.0L2.5,-0.5"/>
                </g>
                <g id="arrowDown" xlink:href="#dirArrow" transform="rotate(180) translate(-30 -48)" onmousedown="handlePan(0,1)">
                  <use xlink:href="#rim" fill="#404040">
                        <set attributeName="fill" to="#808080" begin="arrowDown.mouseover" end="arrowDown.mouseout"/>
                  </use>
                  <path fill="none" stroke="white" stroke-width="1.5" d="M0,-3.0v7 M-2.5,-0.5L0,-3.0L2.5,-0.5"/>
                </g>
                <g id="arrowLeft" xlink:href="#dirArrow" transform="rotate(270) translate(-36 17)" onmousedown="handlePan(-1,0)">
                  <use xlink:href="#rim" fill="#404040">
                        <set attributeName="fill" to="#808080" begin="arrowLeft.mouseover" end="arrowLeft.mouseout"/>
                  </use>
                  <path fill="none" stroke="white" stroke-width="1.5" d="M0,-3.0v7 M-2.5,-0.5L0,-3.0L2.5,-0.5"/>
                </g>
        </g>
        <svg viewBox="0 0 15 15" width="100%" height="30px" preserveAspectRatio="xMaxYMin meet">
         <g id="arrow_out" transform="scale(0.3 0.3)">
          <a xlink:href="GameEngine_8hpp__incl_org.svg" target="_base">
           <rect id="button" ry="5" rx="5" y="6" x="6" height="38" width="38"
                fill="#f2f5e9" fill-opacity="0.5" stroke="#606060" stroke-width="1.0"/>
           <path id="arrow"
             d="M 11.500037,31.436501 C 11.940474,20.09759 22.043105,11.32322 32.158766,21.979434 L 37.068811,17.246167 C 37.068811,17.246167 37.088388,32 37.088388,32 L 22.160133,31.978069 C 22.160133,31.978069 26.997745,27.140456 26.997745,27.140456 C 18.528582,18.264221 13.291696,25.230495 11.500037,31.436501 z"
             style="fill:#404040;"/>
          </a>
         </g>
        </svg>
</svg>
