<?xml version="1.0" encoding="UTF-8" standalone="no"?>
<!DOCTYPE svg PUBLIC "-//W3C//DTD SVG 1.1//EN"
 "http://www.w3.org/Graphics/SVG/1.1/DTD/svg11.dtd">
<!-- Generated by graphviz version 2.38.0 (20140413.2041)
 -->
<!-- Title: GLWindow Pages: 1 -->
<svg width="119pt" height="270pt"
 viewBox="0.00 0.00 119.00 270.00" xmlns="http://www.w3.org/2000/svg" xmlns:xlink="http://www.w3.org/1999/xlink">
<g id="graph0" class="graph" transform="scale(1 1) rotate(0) translate(4 266)">
<title>GLWindow</title>
<!-- Node1 -->
<g id="node1" class="node"><title>Node1</title>
<polygon fill="#bfbfbf" stroke="black" points="-7.10543e-15,-0.5 -7.10543e-15,-167.5 111,-167.5 111,-0.5 -7.10543e-15,-0.5"/>
<text text-anchor="middle" x="55.5" y="-155.5" font-family="Helvetica,sans-Serif" font-size="10.00">GLWindow</text>
<polyline fill="none" stroke="black" points="-7.10543e-15,-148.5 111,-148.5 "/>
<text text-anchor="start" x="8" y="-136.5" font-family="Helvetica,sans-Serif" font-size="10.00">+ context</text>
<text text-anchor="start" x="8" y="-125.5" font-family="Helvetica,sans-Serif" font-size="10.00">+ surface</text>
<text text-anchor="start" x="8" y="-114.5" font-family="Helvetica,sans-Serif" font-size="10.00">+ m_funcs</text>
<polyline fill="none" stroke="black" points="-7.10543e-15,-107.5 111,-107.5 "/>
<text text-anchor="start" x="8" y="-95.5" font-family="Helvetica,sans-Serif" font-size="10.00">+ GLWindow()</text>
<text text-anchor="start" x="8" y="-84.5" font-family="Helvetica,sans-Serif" font-size="10.00">+ ~GLWindow()</text>
<text text-anchor="start" x="8" y="-73.5" font-family="Helvetica,sans-Serif" font-size="10.00">+ start()</text>
<text text-anchor="start" x="8" y="-62.5" font-family="Helvetica,sans-Serif" font-size="10.00"># keyPressEvent()</text>
<text text-anchor="start" x="8" y="-51.5" font-family="Helvetica,sans-Serif" font-size="10.00"># resizeEvent()</text>
<text text-anchor="start" x="8" y="-40.5" font-family="Helvetica,sans-Serif" font-size="10.00"># mousePressEvent()</text>
<text text-anchor="start" x="8" y="-29.5" font-family="Helvetica,sans-Serif" font-size="10.00"># keyReleaseEvent()</text>
<text text-anchor="start" x="8" y="-18.5" font-family="Helvetica,sans-Serif" font-size="10.00"># mouseMoveEvent()</text>
<text text-anchor="start" x="8" y="-7.5" font-family="Helvetica,sans-Serif" font-size="10.00"># resizeWindow()</text>
</g>
<!-- Node2 -->
<g id="node2" class="node"><title>Node2</title>
<g id="a_node2"><a xlink:href="../../de/d30/classQWindow.html" target="_top" xlink:title="{QWindow\n||}">
<polygon fill="none" stroke="black" points="26,-204.5 26,-261.5 85,-261.5 85,-204.5 26,-204.5"/>
<text text-anchor="middle" x="55.5" y="-249.5" font-family="Helvetica,sans-Serif" font-size="10.00">QWindow</text>
<polyline fill="none" stroke="black" points="26,-242.5 85,-242.5 "/>
<text text-anchor="middle" x="55.5" y="-230.5" font-family="Helvetica,sans-Serif" font-size="10.00"> </text>
<polyline fill="none" stroke="black" points="26,-223.5 85,-223.5 "/>
<text text-anchor="middle" x="55.5" y="-211.5" font-family="Helvetica,sans-Serif" font-size="10.00"> </text>
</a>
</g>
</g>
<!-- Node2&#45;&gt;Node1 -->
<g id="edge1" class="edge"><title>Node2&#45;&gt;Node1</title>
<path fill="none" stroke="midnightblue" d="M55.5,-194.35C55.5,-186.08 55.5,-177.008 55.5,-167.738"/>
<polygon fill="none" stroke="midnightblue" points="52.0001,-194.35 55.5,-204.35 59.0001,-194.35 52.0001,-194.35"/>
</g>
</g>
</svg>
