<?xml version="1.0" encoding="UTF-8" standalone="no"?>
<!DOCTYPE svg PUBLIC "-//W3C//DTD SVG 1.1//EN"
 "http://www.w3.org/Graphics/SVG/1.1/DTD/svg11.dtd">
<!-- Generated by graphviz version 2.38.0 (20140413.2041)
 -->
<!-- Title: engine/AssimpImporter/AssimpImporter.hpp Pages: 1 -->
<svg width="968pt" height="431pt"
 viewBox="0.00 0.00 967.50 431.00" xmlns="http://www.w3.org/2000/svg" xmlns:xlink="http://www.w3.org/1999/xlink">
<g id="graph0" class="graph" transform="scale(1 1) rotate(0) translate(4 427)">
<title>engine/AssimpImporter/AssimpImporter.hpp</title>
<!-- Node1 -->
<g id="node1" class="node"><title>Node1</title>
<polygon fill="#bfbfbf" stroke="black" points="408.5,-392.5 408.5,-422.5 525.5,-422.5 525.5,-392.5 408.5,-392.5"/>
<text text-anchor="start" x="416.5" y="-410.5" font-family="Helvetica,sans-Serif" font-size="10.00">engine/AssimpImporter</text>
<text text-anchor="middle" x="467" y="-399.5" font-family="Helvetica,sans-Serif" font-size="10.00">/AssimpImporter.hpp</text>
</g>
<!-- Node2 -->
<g id="node2" class="node"><title>Node2</title>
<polygon fill="none" stroke="#bfbfbf" points="238.5,-0.5 238.5,-19.5 279.5,-19.5 279.5,-0.5 238.5,-0.5"/>
<text text-anchor="middle" x="259" y="-7.5" font-family="Helvetica,sans-Serif" font-size="10.00">string</text>
</g>
<!-- Node1&#45;&gt;Node2 -->
<g id="edge1" class="edge"><title>Node1&#45;&gt;Node2</title>
<path fill="none" stroke="midnightblue" d="M408.327,-404.256C282.9,-397.858 0,-374.206 0,-291 0,-291 0,-291 0,-121 0,-22.9236 159.284,-11.024 228.026,-10.4552"/>
<polygon fill="midnightblue" stroke="midnightblue" points="228.245,-13.9551 238.243,-10.4497 228.241,-6.95514 228.245,-13.9551"/>
</g>
<!-- Node3 -->
<g id="node3" class="node"><title>Node3</title>
<polygon fill="none" stroke="#bfbfbf" points="930.5,-280.5 930.5,-299.5 959.5,-299.5 959.5,-280.5 930.5,-280.5"/>
<text text-anchor="middle" x="945" y="-287.5" font-family="Helvetica,sans-Serif" font-size="10.00">list</text>
</g>
<!-- Node1&#45;&gt;Node3 -->
<g id="edge2" class="edge"><title>Node1&#45;&gt;Node3</title>
<path fill="none" stroke="midnightblue" d="M478.065,-392.221C491.93,-375.512 517.375,-348.537 546,-336 697.343,-269.718 754.038,-332.655 916,-300 917.486,-299.7 919.003,-299.355 920.527,-298.977"/>
<polygon fill="midnightblue" stroke="midnightblue" points="921.737,-302.272 930.397,-296.168 919.821,-295.539 921.737,-302.272"/>
</g>
<!-- Node4 -->
<g id="node4" class="node"><title>Node4</title>
<polygon fill="none" stroke="#bfbfbf" points="555,-336.5 555,-355.5 661,-355.5 661,-336.5 555,-336.5"/>
<text text-anchor="middle" x="608" y="-343.5" font-family="Helvetica,sans-Serif" font-size="10.00">assimp/Importer.hpp</text>
</g>
<!-- Node1&#45;&gt;Node4 -->
<g id="edge3" class="edge"><title>Node1&#45;&gt;Node4</title>
<path fill="none" stroke="midnightblue" d="M500.415,-392.399C523.967,-382.461 555.238,-369.265 577.993,-359.662"/>
<polygon fill="midnightblue" stroke="midnightblue" points="579.631,-362.77 587.483,-355.658 576.909,-356.321 579.631,-362.77"/>
</g>
<!-- Node5 -->
<g id="node5" class="node"><title>Node5</title>
<polygon fill="none" stroke="#bfbfbf" points="142.5,-112.5 142.5,-131.5 225.5,-131.5 225.5,-112.5 142.5,-112.5"/>
<text text-anchor="middle" x="184" y="-119.5" font-family="Helvetica,sans-Serif" font-size="10.00">assimp/mesh.h</text>
</g>
<!-- Node1&#45;&gt;Node5 -->
<g id="edge4" class="edge"><title>Node1&#45;&gt;Node5</title>
<path fill="none" stroke="midnightblue" d="M408.233,-398.439C312.635,-383.659 134,-348.367 134,-291 134,-291 134,-291 134,-233 134,-202.902 140.077,-195.182 153,-168 157.727,-158.059 164.537,-147.885 170.571,-139.731"/>
<polygon fill="midnightblue" stroke="midnightblue" points="173.361,-141.845 176.679,-131.783 167.81,-137.58 173.361,-141.845"/>
</g>
<!-- Node6 -->
<g id="node6" class="node"><title>Node6</title>
<g id="a_node6"><a xlink:href="../../db/de8/Scene_8hpp.html" target="_top" xlink:title="Scene.hpp">
<polygon fill="none" stroke="black" points="435.5,-336.5 435.5,-355.5 498.5,-355.5 498.5,-336.5 435.5,-336.5"/>
<text text-anchor="middle" x="467" y="-343.5" font-family="Helvetica,sans-Serif" font-size="10.00">Scene.hpp</text>
</a>
</g>
</g>
<!-- Node1&#45;&gt;Node6 -->
<g id="edge5" class="edge"><title>Node1&#45;&gt;Node6</title>
<path fill="none" stroke="midnightblue" d="M467,-392.399C467,-384.466 467,-374.458 467,-365.858"/>
<polygon fill="midnightblue" stroke="midnightblue" points="470.5,-365.658 467,-355.658 463.5,-365.658 470.5,-365.658"/>
</g>
<!-- Node6&#45;&gt;Node3 -->
<g id="edge7" class="edge"><title>Node6&#45;&gt;Node3</title>
<path fill="none" stroke="midnightblue" d="M498.6,-338.368C503.411,-337.489 508.327,-336.664 513,-336 691.036,-310.702 739.584,-334.845 916,-300 917.487,-299.706 919.006,-299.365 920.53,-298.991"/>
<polygon fill="midnightblue" stroke="midnightblue" points="921.736,-302.287 930.402,-296.191 919.827,-295.552 921.736,-302.287"/>
</g>
<!-- Node7 -->
<g id="node7" class="node"><title>Node7</title>
<polygon fill="none" stroke="#bfbfbf" points="667,-56.5 667,-75.5 719,-75.5 719,-56.5 667,-56.5"/>
<text text-anchor="middle" x="693" y="-63.5" font-family="Helvetica,sans-Serif" font-size="10.00">memory</text>
</g>
<!-- Node6&#45;&gt;Node7 -->
<g id="edge6" class="edge"><title>Node6&#45;&gt;Node7</title>
<path fill="none" stroke="midnightblue" d="M498.635,-337.851C598.736,-315.123 902,-245.407 902,-235 902,-235 902,-235 902,-177 902,-99.8314 789.045,-76.6747 729.214,-69.8217"/>
<polygon fill="midnightblue" stroke="midnightblue" points="729.358,-66.3177 719.047,-68.7555 728.628,-73.2795 729.358,-66.3177"/>
</g>
<!-- Node8 -->
<g id="node8" class="node"><title>Node8</title>
<g id="a_node8"><a xlink:href="../../d4/db5/GameObject_8hpp.html" target="_top" xlink:title="GameObject.hpp">
<polygon fill="none" stroke="black" points="394,-224.5 394,-243.5 484,-243.5 484,-224.5 394,-224.5"/>
<text text-anchor="middle" x="439" y="-231.5" font-family="Helvetica,sans-Serif" font-size="10.00">GameObject.hpp</text>
</a>
</g>
</g>
<!-- Node6&#45;&gt;Node8 -->
<g id="edge8" class="edge"><title>Node6&#45;&gt;Node8</title>
<path fill="none" stroke="midnightblue" d="M464.803,-336.368C460.284,-318.617 449.861,-277.666 443.734,-253.597"/>
<polygon fill="midnightblue" stroke="midnightblue" points="447.046,-252.419 441.187,-243.591 440.262,-254.146 447.046,-252.419"/>
</g>
<!-- Node19 -->
<g id="node19" class="node"><title>Node19</title>
<g id="a_node19"><a xlink:href="../../d6/d80/Camera_8hpp.html" target="_top" xlink:title="Camera.hpp">
<polygon fill="none" stroke="black" points="321,-280.5 321,-299.5 391,-299.5 391,-280.5 321,-280.5"/>
<text text-anchor="middle" x="356" y="-287.5" font-family="Helvetica,sans-Serif" font-size="10.00">Camera.hpp</text>
</a>
</g>
</g>
<!-- Node6&#45;&gt;Node19 -->
<g id="edge35" class="edge"><title>Node6&#45;&gt;Node19</title>
<path fill="none" stroke="midnightblue" d="M449.166,-336.324C431.284,-327.625 403.525,-314.12 382.954,-304.113"/>
<polygon fill="midnightblue" stroke="midnightblue" points="384.313,-300.882 373.79,-299.655 381.251,-307.177 384.313,-300.882"/>
</g>
<!-- Node20 -->
<g id="node20" class="node"><title>Node20</title>
<g id="a_node20"><a xlink:href="../../d5/dd5/Light_8hpp.html" target="_top" xlink:title="Light.hpp">
<polygon fill="none" stroke="black" points="467,-280.5 467,-299.5 523,-299.5 523,-280.5 467,-280.5"/>
<text text-anchor="middle" x="495" y="-287.5" font-family="Helvetica,sans-Serif" font-size="10.00">Light.hpp</text>
</a>
</g>
</g>
<!-- Node6&#45;&gt;Node20 -->
<g id="edge39" class="edge"><title>Node6&#45;&gt;Node20</title>
<path fill="none" stroke="midnightblue" d="M471.624,-336.083C475.456,-328.691 481.024,-317.953 485.765,-308.811"/>
<polygon fill="midnightblue" stroke="midnightblue" points="488.966,-310.24 490.462,-299.751 482.752,-307.018 488.966,-310.24"/>
</g>
<!-- Node8&#45;&gt;Node7 -->
<g id="edge10" class="edge"><title>Node8&#45;&gt;Node7</title>
<path fill="none" stroke="midnightblue" d="M484.157,-229.23C581.454,-220.009 805.306,-192.504 845,-132 873.928,-87.9052 783.019,-73.6226 729.4,-69.073"/>
<polygon fill="midnightblue" stroke="midnightblue" points="729.46,-65.5673 719.22,-68.2869 728.921,-72.5465 729.46,-65.5673"/>
</g>
<!-- Node9 -->
<g id="node9" class="node"><title>Node9</title>
<polygon fill="none" stroke="#bfbfbf" points="238,-56.5 238,-75.5 308,-75.5 308,-56.5 238,-56.5"/>
<text text-anchor="middle" x="273" y="-63.5" font-family="Helvetica,sans-Serif" font-size="10.00">glm/glm.hpp</text>
</g>
<!-- Node8&#45;&gt;Node9 -->
<g id="edge9" class="edge"><title>Node8&#45;&gt;Node9</title>
<path fill="none" stroke="midnightblue" d="M415.057,-224.405C379.426,-211.688 310.278,-187.283 251,-168 198.859,-151.039 165.628,-176.067 133,-132 105.774,-95.2289 177.138,-78.5934 227.695,-71.5912"/>
<polygon fill="midnightblue" stroke="midnightblue" points="228.343,-75.0366 237.809,-70.2777 227.441,-68.0948 228.343,-75.0366"/>
</g>
<!-- Node10 -->
<g id="node10" class="node"><title>Node10</title>
<g id="a_node10"><a xlink:href="../../de/df7/worldparticles_8hpp.html" target="_top" xlink:title="wordparticles configuration file ">
<polygon fill="none" stroke="black" points="740.5,-112.5 740.5,-131.5 835.5,-131.5 835.5,-112.5 740.5,-112.5"/>
<text text-anchor="middle" x="788" y="-119.5" font-family="Helvetica,sans-Serif" font-size="10.00">worldparticles.hpp</text>
</a>
</g>
</g>
<!-- Node8&#45;&gt;Node10 -->
<g id="edge11" class="edge"><title>Node8&#45;&gt;Node10</title>
<path fill="none" stroke="midnightblue" d="M484.027,-229.522C533.639,-224.582 615.131,-213.161 681,-188 713.898,-175.434 748.014,-152.737 768.629,-137.767"/>
<polygon fill="midnightblue" stroke="midnightblue" points="770.889,-140.448 776.846,-131.686 766.725,-134.821 770.889,-140.448"/>
</g>
<!-- Node11 -->
<g id="node11" class="node"><title>Node11</title>
<g id="a_node11"><a xlink:href="../../da/d83/Transform_8hpp.html" target="_top" xlink:title="Transform.hpp">
<polygon fill="none" stroke="black" points="162,-168.5 162,-187.5 242,-187.5 242,-168.5 162,-168.5"/>
<text text-anchor="middle" x="202" y="-175.5" font-family="Helvetica,sans-Serif" font-size="10.00">Transform.hpp</text>
</a>
</g>
</g>
<!-- Node8&#45;&gt;Node11 -->
<g id="edge12" class="edge"><title>Node8&#45;&gt;Node11</title>
<path fill="none" stroke="midnightblue" d="M401.447,-224.444C360.189,-215.043 293.856,-199.929 249.134,-189.739"/>
<polygon fill="midnightblue" stroke="midnightblue" points="249.905,-186.326 239.378,-187.516 248.35,-193.151 249.905,-186.326"/>
</g>
<!-- Node12 -->
<g id="node12" class="node"><title>Node12</title>
<g id="a_node12"><a xlink:href="../../d1/dca/IRenderer_8hpp.html" target="_top" xlink:title="IRenderer.hpp">
<polygon fill="none" stroke="black" points="594,-168.5 594,-187.5 672,-187.5 672,-168.5 594,-168.5"/>
<text text-anchor="middle" x="633" y="-175.5" font-family="Helvetica,sans-Serif" font-size="10.00">IRenderer.hpp</text>
</a>
</g>
</g>
<!-- Node8&#45;&gt;Node12 -->
<g id="edge14" class="edge"><title>Node8&#45;&gt;Node12</title>
<path fill="none" stroke="midnightblue" d="M469.74,-224.444C502.944,-215.201 555.991,-200.436 592.557,-190.257"/>
<polygon fill="midnightblue" stroke="midnightblue" points="593.709,-193.57 602.404,-187.516 591.832,-186.826 593.709,-193.57"/>
</g>
<!-- Node13 -->
<g id="node13" class="node"><title>Node13</title>
<g id="a_node13"><a xlink:href="../../d0/d70/Material_8hpp.html" target="_top" xlink:title="Material.hpp">
<polygon fill="none" stroke="black" points="363,-168.5 363,-187.5 433,-187.5 433,-168.5 363,-168.5"/>
<text text-anchor="middle" x="398" y="-175.5" font-family="Helvetica,sans-Serif" font-size="10.00">Material.hpp</text>
</a>
</g>
</g>
<!-- Node8&#45;&gt;Node13 -->
<g id="edge18" class="edge"><title>Node8&#45;&gt;Node13</title>
<path fill="none" stroke="midnightblue" d="M432.23,-224.083C426.438,-216.455 417.942,-205.264 410.862,-195.941"/>
<polygon fill="midnightblue" stroke="midnightblue" points="413.479,-193.599 404.644,-187.751 407.904,-197.832 413.479,-193.599"/>
</g>
<!-- Node17 -->
<g id="node17" class="node"><title>Node17</title>
<g id="a_node17"><a xlink:href="../../d1/d62/Mesh_8hpp.html" target="_top" xlink:title="Mesh.hpp">
<polygon fill="none" stroke="black" points="451.5,-168.5 451.5,-187.5 510.5,-187.5 510.5,-168.5 451.5,-168.5"/>
<text text-anchor="middle" x="481" y="-175.5" font-family="Helvetica,sans-Serif" font-size="10.00">Mesh.hpp</text>
</a>
</g>
</g>
<!-- Node8&#45;&gt;Node17 -->
<g id="edge27" class="edge"><title>Node8&#45;&gt;Node17</title>
<path fill="none" stroke="midnightblue" d="M445.935,-224.083C451.929,-216.377 460.752,-205.033 468.048,-195.653"/>
<polygon fill="midnightblue" stroke="midnightblue" points="470.817,-197.793 474.194,-187.751 465.291,-193.496 470.817,-197.793"/>
</g>
<!-- Node11&#45;&gt;Node9 -->
<g id="edge13" class="edge"><title>Node11&#45;&gt;Node9</title>
<path fill="none" stroke="midnightblue" d="M164.126,-168.498C127.013,-158.373 78.8718,-139.327 100,-112 115.53,-91.9136 181.883,-79.1204 227.746,-72.5032"/>
<polygon fill="midnightblue" stroke="midnightblue" points="228.348,-75.9532 237.769,-71.1073 227.382,-69.0201 228.348,-75.9532"/>
</g>
<!-- Node12&#45;&gt;Node7 -->
<g id="edge16" class="edge"><title>Node12&#45;&gt;Node7</title>
<path fill="none" stroke="midnightblue" d="M649.597,-168.374C662.491,-160.699 679.553,-148.188 688,-132 695.444,-117.733 696.162,-99.262 695.328,-85.6587"/>
<polygon fill="midnightblue" stroke="midnightblue" points="698.801,-85.2028 694.377,-75.5759 691.832,-85.8605 698.801,-85.2028"/>
</g>
<!-- Node12&#45;&gt;Node9 -->
<g id="edge15" class="edge"><title>Node12&#45;&gt;Node9</title>
<path fill="none" stroke="midnightblue" d="M593.735,-169.713C557.519,-162.352 502.622,-149.559 457,-132 439.188,-125.145 436.64,-119.287 419,-112 385.558,-98.1859 346.299,-86.3161 316.919,-78.2412"/>
<polygon fill="midnightblue" stroke="midnightblue" points="317.532,-74.7811 306.965,-75.5462 315.702,-81.5379 317.532,-74.7811"/>
</g>
<!-- Node12&#45;&gt;Node10 -->
<g id="edge17" class="edge"><title>Node12&#45;&gt;Node10</title>
<path fill="none" stroke="midnightblue" d="M657.56,-168.444C683.523,-159.399 724.668,-145.064 753.797,-134.916"/>
<polygon fill="midnightblue" stroke="midnightblue" points="755.263,-138.112 763.555,-131.516 752.96,-131.501 755.263,-138.112"/>
</g>
<!-- Node13&#45;&gt;Node7 -->
<g id="edge20" class="edge"><title>Node13&#45;&gt;Node7</title>
<path fill="none" stroke="midnightblue" d="M433.205,-169.457C477.804,-159.685 551.988,-142.642 578,-132 594.226,-125.361 596.781,-120.702 612,-112 630.912,-101.186 652.482,-89.221 668.605,-80.3484"/>
<polygon fill="midnightblue" stroke="midnightblue" points="670.328,-83.3955 677.408,-75.5137 666.958,-77.26 670.328,-83.3955"/>
</g>
<!-- Node13&#45;&gt;Node9 -->
<g id="edge19" class="edge"><title>Node13&#45;&gt;Node9</title>
<path fill="none" stroke="midnightblue" d="M362.791,-173.833C335.048,-169.327 297.848,-158.415 278,-132 268.129,-118.863 267.846,-99.7199 269.451,-85.6089"/>
<polygon fill="midnightblue" stroke="midnightblue" points="272.932,-85.9981 270.995,-75.5818 266.014,-84.9323 272.932,-85.9981"/>
</g>
<!-- Node14 -->
<g id="node14" class="node"><title>Node14</title>
<g id="a_node14"><a xlink:href="../../dc/ddb/ShaderProgram_8hpp.html" target="_top" xlink:title="ShaderProgram.hpp">
<polygon fill="none" stroke="black" points="466.5,-112.5 466.5,-131.5 569.5,-131.5 569.5,-112.5 466.5,-112.5"/>
<text text-anchor="middle" x="518" y="-119.5" font-family="Helvetica,sans-Serif" font-size="10.00">ShaderProgram.hpp</text>
</a>
</g>
</g>
<!-- Node13&#45;&gt;Node14 -->
<g id="edge21" class="edge"><title>Node13&#45;&gt;Node14</title>
<path fill="none" stroke="midnightblue" d="M417.014,-168.444C436.588,-159.636 467.308,-145.812 489.729,-135.722"/>
<polygon fill="midnightblue" stroke="midnightblue" points="491.392,-138.812 499.075,-131.516 488.519,-132.428 491.392,-138.812"/>
</g>
<!-- Node14&#45;&gt;Node7 -->
<g id="edge24" class="edge"><title>Node14&#45;&gt;Node7</title>
<path fill="none" stroke="midnightblue" d="M545.729,-112.444C575.862,-103.145 624.111,-88.2572 657.114,-78.0735"/>
<polygon fill="midnightblue" stroke="midnightblue" points="658.306,-81.3685 666.83,-75.0755 656.242,-74.6797 658.306,-81.3685"/>
</g>
<!-- Node14&#45;&gt;Node9 -->
<g id="edge22" class="edge"><title>Node14&#45;&gt;Node9</title>
<path fill="none" stroke="midnightblue" d="M479.179,-112.444C435.4,-102.794 364.308,-87.125 318.101,-76.9407"/>
<polygon fill="midnightblue" stroke="midnightblue" points="318.586,-73.4636 308.067,-74.729 317.079,-80.2995 318.586,-73.4636"/>
</g>
<!-- Node15 -->
<g id="node15" class="node"><title>Node15</title>
<polygon fill="none" stroke="#bfbfbf" points="423,-56.5 423,-75.5 467,-75.5 467,-56.5 423,-56.5"/>
<text text-anchor="middle" x="445" y="-63.5" font-family="Helvetica,sans-Serif" font-size="10.00">vector</text>
</g>
<!-- Node14&#45;&gt;Node15 -->
<g id="edge23" class="edge"><title>Node14&#45;&gt;Node15</title>
<path fill="none" stroke="midnightblue" d="M506.271,-112.324C495.163,-104.107 478.258,-91.6017 465.017,-81.8069"/>
<polygon fill="midnightblue" stroke="midnightblue" points="467.063,-78.9671 456.942,-75.8339 462.9,-84.5948 467.063,-78.9671"/>
</g>
<!-- Node16 -->
<g id="node16" class="node"><title>Node16</title>
<g id="a_node16"><a xlink:href="../../d4/d6e/Shader_8hpp.html" target="_top" xlink:title="Shader.hpp">
<polygon fill="none" stroke="black" points="485,-56.5 485,-75.5 551,-75.5 551,-56.5 485,-56.5"/>
<text text-anchor="middle" x="518" y="-63.5" font-family="Helvetica,sans-Serif" font-size="10.00">Shader.hpp</text>
</a>
</g>
</g>
<!-- Node14&#45;&gt;Node16 -->
<g id="edge25" class="edge"><title>Node14&#45;&gt;Node16</title>
<path fill="none" stroke="midnightblue" d="M518,-112.083C518,-105.006 518,-94.8611 518,-85.9865"/>
<polygon fill="midnightblue" stroke="midnightblue" points="521.5,-85.751 518,-75.7511 514.5,-85.7511 521.5,-85.751"/>
</g>
<!-- Node16&#45;&gt;Node2 -->
<g id="edge26" class="edge"><title>Node16&#45;&gt;Node2</title>
<path fill="none" stroke="midnightblue" d="M484.989,-57.9047C481.951,-57.2581 478.919,-56.6153 476,-56 409.537,-41.9879 331.545,-25.9014 289.532,-17.2651"/>
<polygon fill="midnightblue" stroke="midnightblue" points="290.154,-13.82 279.654,-15.2358 288.745,-20.6768 290.154,-13.82"/>
</g>
<!-- Node17&#45;&gt;Node5 -->
<g id="edge31" class="edge"><title>Node17&#45;&gt;Node5</title>
<path fill="none" stroke="midnightblue" d="M451.226,-169.954C448.115,-169.271 444.997,-168.607 442,-168 370.767,-153.58 287.904,-139.623 235.705,-131.174"/>
<polygon fill="midnightblue" stroke="midnightblue" points="236.116,-127.695 225.687,-129.558 235.002,-134.605 236.116,-127.695"/>
</g>
<!-- Node17&#45;&gt;Node7 -->
<g id="edge29" class="edge"><title>Node17&#45;&gt;Node7</title>
<path fill="none" stroke="midnightblue" d="M507.035,-168.479C530.595,-160.361 565.947,-147.155 595,-132 623.597,-117.083 654.22,-95.8232 673.478,-81.7298"/>
<polygon fill="midnightblue" stroke="midnightblue" points="675.766,-84.3907 681.719,-75.6267 671.6,-78.7653 675.766,-84.3907"/>
</g>
<!-- Node17&#45;&gt;Node9 -->
<g id="edge30" class="edge"><title>Node17&#45;&gt;Node9</title>
<path fill="none" stroke="midnightblue" d="M451.467,-169.804C404.301,-158.223 316.665,-136.309 311,-132 295.428,-120.156 285.075,-99.9425 279.162,-85.1951"/>
<polygon fill="midnightblue" stroke="midnightblue" points="282.374,-83.7907 275.629,-75.6204 275.807,-86.2138 282.374,-83.7907"/>
</g>
<!-- Node17&#45;&gt;Node15 -->
<g id="edge28" class="edge"><title>Node17&#45;&gt;Node15</title>
<path fill="none" stroke="midnightblue" d="M510.503,-170.171C546.059,-160.503 598.619,-140.743 578,-112 574.927,-107.716 515.244,-88.6638 476.883,-76.7652"/>
<polygon fill="midnightblue" stroke="midnightblue" points="477.753,-73.3708 467.165,-73.7624 475.686,-80.0588 477.753,-73.3708"/>
</g>
<!-- Node18 -->
<g id="node18" class="node"><title>Node18</title>
<g id="a_node18"><a xlink:href="../../da/d04/BufferObject_8hpp.html" target="_top" xlink:title="BufferObject.hpp">
<polygon fill="none" stroke="black" points="320,-112.5 320,-131.5 410,-131.5 410,-112.5 320,-112.5"/>
<text text-anchor="middle" x="365" y="-119.5" font-family="Helvetica,sans-Serif" font-size="10.00">BufferObject.hpp</text>
</a>
</g>
</g>
<!-- Node17&#45;&gt;Node18 -->
<g id="edge32" class="edge"><title>Node17&#45;&gt;Node18</title>
<path fill="none" stroke="midnightblue" d="M462.619,-168.444C443.784,-159.675 414.269,-145.935 392.621,-135.858"/>
<polygon fill="midnightblue" stroke="midnightblue" points="393.838,-132.564 383.295,-131.516 390.883,-138.91 393.838,-132.564"/>
</g>
<!-- Node18&#45;&gt;Node9 -->
<g id="edge34" class="edge"><title>Node18&#45;&gt;Node9</title>
<path fill="none" stroke="midnightblue" d="M350.219,-112.324C335.733,-103.822 313.427,-90.7288 296.507,-80.7975"/>
<polygon fill="midnightblue" stroke="midnightblue" points="298.141,-77.6981 287.745,-75.6545 294.597,-83.735 298.141,-77.6981"/>
</g>
<!-- Node18&#45;&gt;Node15 -->
<g id="edge33" class="edge"><title>Node18&#45;&gt;Node15</title>
<path fill="none" stroke="midnightblue" d="M377.853,-112.324C390.216,-103.979 409.13,-91.2122 423.737,-81.3524"/>
<polygon fill="midnightblue" stroke="midnightblue" points="425.848,-84.1503 432.179,-75.6545 421.932,-78.3483 425.848,-84.1503"/>
</g>
<!-- Node19&#45;&gt;Node8 -->
<g id="edge38" class="edge"><title>Node19&#45;&gt;Node8</title>
<path fill="none" stroke="midnightblue" d="M369.335,-280.324C382.162,-271.979 401.785,-259.212 416.94,-249.352"/>
<polygon fill="midnightblue" stroke="midnightblue" points="419.224,-252.042 425.698,-243.655 415.407,-246.174 419.224,-252.042"/>
</g>
<!-- Node19&#45;&gt;Node9 -->
<g id="edge36" class="edge"><title>Node19&#45;&gt;Node9</title>
<path fill="none" stroke="midnightblue" d="M320.957,-281.709C258.908,-266.576 132.362,-225.095 91,-132 66.5319,-76.9286 165.985,-67.1376 227.518,-66.198"/>
<polygon fill="midnightblue" stroke="midnightblue" points="227.813,-69.6959 237.785,-66.1168 227.758,-62.6961 227.813,-69.6959"/>
</g>
<!-- Node19&#45;&gt;Node11 -->
<g id="edge37" class="edge"><title>Node19&#45;&gt;Node11</title>
<path fill="none" stroke="midnightblue" d="M343.916,-280.368C317.602,-261.573 254.876,-216.768 222.347,-193.533"/>
<polygon fill="midnightblue" stroke="midnightblue" points="224.2,-190.556 214.028,-187.591 220.131,-196.252 224.2,-190.556"/>
</g>
</g>
</svg>
