<?xml version="1.0" encoding="UTF-8" standalone="no"?>
<!DOCTYPE svg PUBLIC "-//W3C//DTD SVG 1.1//EN"
 "http://www.w3.org/Graphics/SVG/1.1/DTD/svg11.dtd">
<!-- Generated by graphviz version 2.38.0 (20140413.2041)
 -->
<!-- Title: engine/AssimpImporter/AssimpImporter.hpp Pages: 1 -->
<svg width="321pt" height="95pt"
 viewBox="0.00 0.00 321.00 95.00" xmlns="http://www.w3.org/2000/svg" xmlns:xlink="http://www.w3.org/1999/xlink">
<g id="graph0" class="graph" transform="scale(1 1) rotate(0) translate(4 91)">
<title>engine/AssimpImporter/AssimpImporter.hpp</title>
<!-- Node1 -->
<g id="node1" class="node"><title>Node1</title>
<polygon fill="#bfbfbf" stroke="black" points="57,-56.5 57,-86.5 174,-86.5 174,-56.5 57,-56.5"/>
<text text-anchor="start" x="65" y="-74.5" font-family="Helvetica,sans-Serif" font-size="10.00">engine/AssimpImporter</text>
<text text-anchor="middle" x="115.5" y="-63.5" font-family="Helvetica,sans-Serif" font-size="10.00">/AssimpImporter.hpp</text>
</g>
<!-- Node2 -->
<g id="node2" class="node"><title>Node2</title>
<polygon fill="none" stroke="#bfbfbf" points="0,-0.5 0,-19.5 41,-19.5 41,-0.5 0,-0.5"/>
<text text-anchor="middle" x="20.5" y="-7.5" font-family="Helvetica,sans-Serif" font-size="10.00">string</text>
</g>
<!-- Node1&#45;&gt;Node2 -->
<g id="edge1" class="edge"><title>Node1&#45;&gt;Node2</title>
<path fill="none" stroke="midnightblue" d="M92.9863,-56.3993C77.9009,-46.9511 58.115,-34.5589 43.0268,-25.1089"/>
<polygon fill="midnightblue" stroke="midnightblue" points="44.6561,-21.9996 34.3233,-19.6578 40.9405,-27.9321 44.6561,-21.9996"/>
</g>
<!-- Node3 -->
<g id="node3" class="node"><title>Node3</title>
<polygon fill="none" stroke="#bfbfbf" points="59,-0.5 59,-19.5 88,-19.5 88,-0.5 59,-0.5"/>
<text text-anchor="middle" x="73.5" y="-7.5" font-family="Helvetica,sans-Serif" font-size="10.00">list</text>
</g>
<!-- Node1&#45;&gt;Node3 -->
<g id="edge2" class="edge"><title>Node1&#45;&gt;Node3</title>
<path fill="none" stroke="midnightblue" d="M105.547,-56.3993C99.5064,-47.8424 91.7617,-36.8708 85.3991,-27.857"/>
<polygon fill="midnightblue" stroke="midnightblue" points="88.2376,-25.8091 79.6114,-19.6578 82.5189,-29.8459 88.2376,-25.8091"/>
</g>
<!-- Node4 -->
<g id="node4" class="node"><title>Node4</title>
<polygon fill="none" stroke="#bfbfbf" points="105.5,-0.5 105.5,-19.5 211.5,-19.5 211.5,-0.5 105.5,-0.5"/>
<text text-anchor="middle" x="158.5" y="-7.5" font-family="Helvetica,sans-Serif" font-size="10.00">assimp/Importer.hpp</text>
</g>
<!-- Node1&#45;&gt;Node4 -->
<g id="edge3" class="edge"><title>Node1&#45;&gt;Node4</title>
<path fill="none" stroke="midnightblue" d="M125.69,-56.3993C131.874,-47.8424 139.803,-36.8708 146.318,-27.857"/>
<polygon fill="midnightblue" stroke="midnightblue" points="149.222,-29.8129 152.243,-19.6578 143.549,-25.7127 149.222,-29.8129"/>
</g>
<!-- Node5 -->
<g id="node5" class="node"><title>Node5</title>
<polygon fill="none" stroke="#bfbfbf" points="230,-0.5 230,-19.5 313,-19.5 313,-0.5 230,-0.5"/>
<text text-anchor="middle" x="271.5" y="-7.5" font-family="Helvetica,sans-Serif" font-size="10.00">assimp/mesh.h</text>
</g>
<!-- Node1&#45;&gt;Node5 -->
<g id="edge4" class="edge"><title>Node1&#45;&gt;Node5</title>
<path fill="none" stroke="midnightblue" d="M152.47,-56.3993C178.878,-46.3271 214.057,-32.9093 239.312,-23.2769"/>
<polygon fill="midnightblue" stroke="midnightblue" points="240.704,-26.4917 248.801,-19.6578 238.21,-19.9513 240.704,-26.4917"/>
</g>
</g>
</svg>
