<?xml version="1.0" encoding="UTF-8" standalone="no"?>
<!DOCTYPE svg PUBLIC "-//W3C//DTD SVG 1.1//EN"
 "http://www.w3.org/Graphics/SVG/1.1/DTD/svg11.dtd">
<!-- Generated by graphviz version 2.38.0 (20140413.2041)
 -->
<!-- Title: engine/SceneGraphNode/SceneGraphNode.hpp Pages: 1 -->
<svg width="467pt" height="106pt"
 viewBox="0.00 0.00 467.00 106.00" xmlns="http://www.w3.org/2000/svg" xmlns:xlink="http://www.w3.org/1999/xlink">
<g id="graph0" class="graph" transform="scale(1 1) rotate(0) translate(4 102)">
<title>engine/SceneGraphNode/SceneGraphNode.hpp</title>
<!-- Node1 -->
<g id="node1" class="node"><title>Node1</title>
<polygon fill="#bfbfbf" stroke="black" points="165,-67.5 165,-97.5 290,-97.5 290,-67.5 165,-67.5"/>
<text text-anchor="start" x="173" y="-85.5" font-family="Helvetica,sans-Serif" font-size="10.00">engine/SceneGraphNode</text>
<text text-anchor="middle" x="227.5" y="-74.5" font-family="Helvetica,sans-Serif" font-size="10.00">/SceneGraphNode.hpp</text>
</g>
<!-- Node2 -->
<g id="node2" class="node"><title>Node2</title>
<g id="a_node2"><a xlink:href="../../df/de9/Entity_8cpp.html" target="_top" xlink:title="engine/Entity/Entity.cpp">
<polygon fill="none" stroke="black" points="0,-6 0,-25 121,-25 121,-6 0,-6"/>
<text text-anchor="middle" x="60.5" y="-13" font-family="Helvetica,sans-Serif" font-size="10.00">engine/Entity/Entity.cpp</text>
</a>
</g>
</g>
<!-- Node1&#45;&gt;Node2 -->
<g id="edge1" class="edge"><title>Node1&#45;&gt;Node2</title>
<path fill="none" stroke="midnightblue" d="M181.566,-63.6214C149.242,-51.0403 107.43,-34.7661 82.3565,-25.007"/>
<polygon fill="midnightblue" stroke="midnightblue" points="180.675,-67.0304 191.263,-67.396 183.214,-60.5071 180.675,-67.0304"/>
</g>
<!-- Node3 -->
<g id="node3" class="node"><title>Node3</title>
<g id="a_node3"><a xlink:href="../../d1/d20/SceneGraph_8cpp.html" target="_top" xlink:title="engine/SceneGraph/SceneGraph.cpp">
<polygon fill="none" stroke="black" points="138.5,-6 138.5,-25 316.5,-25 316.5,-6 138.5,-6"/>
<text text-anchor="middle" x="227.5" y="-13" font-family="Helvetica,sans-Serif" font-size="10.00">engine/SceneGraph/SceneGraph.cpp</text>
</a>
</g>
</g>
<!-- Node1&#45;&gt;Node3 -->
<g id="edge2" class="edge"><title>Node1&#45;&gt;Node3</title>
<path fill="none" stroke="midnightblue" d="M227.5,-57.2495C227.5,-46.017 227.5,-33.3767 227.5,-25.1945"/>
<polygon fill="midnightblue" stroke="midnightblue" points="224,-57.3959 227.5,-67.396 231,-57.396 224,-57.3959"/>
</g>
<!-- Node4 -->
<g id="node4" class="node"><title>Node4</title>
<g id="a_node4"><a xlink:href="../../d2/d22/SceneGraphNode_8cpp.html" target="_top" xlink:title="engine/SceneGraphNode\l/SceneGraphNode.cpp">
<polygon fill="none" stroke="black" points="334,-0.5 334,-30.5 459,-30.5 459,-0.5 334,-0.5"/>
<text text-anchor="start" x="342" y="-18.5" font-family="Helvetica,sans-Serif" font-size="10.00">engine/SceneGraphNode</text>
<text text-anchor="middle" x="396.5" y="-7.5" font-family="Helvetica,sans-Serif" font-size="10.00">/SceneGraphNode.cpp</text>
</a>
</g>
</g>
<!-- Node1&#45;&gt;Node4 -->
<g id="edge3" class="edge"><title>Node1&#45;&gt;Node4</title>
<path fill="none" stroke="midnightblue" d="M273.828,-63.6815C300.932,-53.2568 334.671,-40.2805 359.901,-30.5765"/>
<polygon fill="midnightblue" stroke="midnightblue" points="272.247,-60.5394 264.17,-67.396 274.76,-67.0728 272.247,-60.5394"/>
</g>
</g>
</svg>
