<?xml version="1.0" encoding="UTF-8" standalone="no"?>
<!DOCTYPE svg PUBLIC "-//W3C//DTD SVG 1.1//EN"
 "http://www.w3.org/Graphics/SVG/1.1/DTD/svg11.dtd">
<!-- Generated by graphviz version 2.38.0 (20140413.2041)
 -->
<!-- Title: window/glwindow.h Pages: 1 -->
<svg width="1615pt" height="487pt"
 viewBox="0.00 0.00 1615.00 487.00" xmlns="http://www.w3.org/2000/svg" xmlns:xlink="http://www.w3.org/1999/xlink">
<g id="graph0" class="graph" transform="scale(1 1) rotate(0) translate(4 483)">
<title>window/glwindow.h</title>
<!-- Node1 -->
<g id="node1" class="node"><title>Node1</title>
<polygon fill="#bfbfbf" stroke="black" points="304,-459.5 304,-478.5 405,-478.5 405,-459.5 304,-459.5"/>
<text text-anchor="middle" x="354.5" y="-466.5" font-family="Helvetica,sans-Serif" font-size="10.00">window/glwindow.h</text>
</g>
<!-- Node2 -->
<g id="node2" class="node"><title>Node2</title>
<polygon fill="none" stroke="#bfbfbf" points="0,-398 0,-417 59,-417 59,-398 0,-398"/>
<text text-anchor="middle" x="29.5" y="-405" font-family="Helvetica,sans-Serif" font-size="10.00">QWindow</text>
</g>
<!-- Node1&#45;&gt;Node2 -->
<g id="edge1" class="edge"><title>Node1&#45;&gt;Node2</title>
<path fill="none" stroke="midnightblue" d="M303.808,-463.29C245.937,-457.169 148.773,-444.623 67.5,-423 64.8408,-422.293 62.1107,-421.464 59.3929,-420.569"/>
<polygon fill="midnightblue" stroke="midnightblue" points="60.3469,-417.193 49.7523,-417.125 57.9919,-423.785 60.3469,-417.193"/>
</g>
<!-- Node3 -->
<g id="node3" class="node"><title>Node3</title>
<polygon fill="none" stroke="#bfbfbf" points="77,-398 77,-417 172,-417 172,-398 77,-398"/>
<text text-anchor="middle" x="124.5" y="-405" font-family="Helvetica,sans-Serif" font-size="10.00">QOpenGLContext</text>
</g>
<!-- Node1&#45;&gt;Node3 -->
<g id="edge2" class="edge"><title>Node1&#45;&gt;Node3</title>
<path fill="none" stroke="midnightblue" d="M321.466,-459.46C286.466,-450.41 229.587,-435.702 180.5,-423 176.172,-421.88 171.656,-420.711 167.148,-419.544"/>
<polygon fill="midnightblue" stroke="midnightblue" points="167.926,-416.13 157.368,-417.012 166.172,-422.907 167.926,-416.13"/>
</g>
<!-- Node4 -->
<g id="node4" class="node"><title>Node4</title>
<polygon fill="none" stroke="#bfbfbf" points="190,-392.5 190,-422.5 303,-422.5 303,-392.5 190,-392.5"/>
<text text-anchor="start" x="198" y="-410.5" font-family="Helvetica,sans-Serif" font-size="10.00">QOpenGLFunctions_4</text>
<text text-anchor="middle" x="246.5" y="-399.5" font-family="Helvetica,sans-Serif" font-size="10.00">_2_Core</text>
</g>
<!-- Node1&#45;&gt;Node4 -->
<g id="edge3" class="edge"><title>Node1&#45;&gt;Node4</title>
<path fill="none" stroke="midnightblue" d="M339.026,-459.475C323.921,-451.153 300.423,-438.207 280.888,-427.445"/>
<polygon fill="midnightblue" stroke="midnightblue" points="282.401,-424.283 271.953,-422.523 279.023,-430.414 282.401,-424.283"/>
</g>
<!-- Node5 -->
<g id="node5" class="node"><title>Node5</title>
<polygon fill="none" stroke="#bfbfbf" points="321,-398 321,-417 388,-417 388,-398 321,-398"/>
<text text-anchor="middle" x="354.5" y="-405" font-family="Helvetica,sans-Serif" font-size="10.00">QKeyEvent</text>
</g>
<!-- Node1&#45;&gt;Node5 -->
<g id="edge4" class="edge"><title>Node1&#45;&gt;Node5</title>
<path fill="none" stroke="midnightblue" d="M354.5,-459.475C354.5,-451.08 354.5,-437.981 354.5,-427.163"/>
<polygon fill="midnightblue" stroke="midnightblue" points="358,-427.009 354.5,-417.009 351,-427.009 358,-427.009"/>
</g>
<!-- Node6 -->
<g id="node6" class="node"><title>Node6</title>
<polygon fill="none" stroke="#bfbfbf" points="406.5,-398 406.5,-417 452.5,-417 452.5,-398 406.5,-398"/>
<text text-anchor="middle" x="429.5" y="-405" font-family="Helvetica,sans-Serif" font-size="10.00">QTime</text>
</g>
<!-- Node1&#45;&gt;Node6 -->
<g id="edge5" class="edge"><title>Node1&#45;&gt;Node6</title>
<path fill="none" stroke="midnightblue" d="M365.246,-459.475C377.053,-450.108 396.243,-434.884 410.582,-423.508"/>
<polygon fill="midnightblue" stroke="midnightblue" points="413.115,-425.966 418.774,-417.009 408.765,-420.482 413.115,-425.966"/>
</g>
<!-- Node7 -->
<g id="node7" class="node"><title>Node7</title>
<g id="a_node7"><a xlink:href="../../d4/d1c/GameEngine_8hpp.html" target="_top" xlink:title="GameEngine.hpp">
<polygon fill="none" stroke="black" points="470.5,-398 470.5,-417 562.5,-417 562.5,-398 470.5,-398"/>
<text text-anchor="middle" x="516.5" y="-405" font-family="Helvetica,sans-Serif" font-size="10.00">GameEngine.hpp</text>
</a>
</g>
</g>
<!-- Node1&#45;&gt;Node7 -->
<g id="edge6" class="edge"><title>Node1&#45;&gt;Node7</title>
<path fill="none" stroke="midnightblue" d="M377.711,-459.475C405.499,-449.269 452.223,-432.108 483.694,-420.549"/>
<polygon fill="midnightblue" stroke="midnightblue" points="485.152,-423.742 493.332,-417.009 482.739,-417.171 485.152,-423.742"/>
</g>
<!-- Node26 -->
<g id="node26" class="node"><title>Node26</title>
<g id="a_node26"><a xlink:href="../../dc/d51/model_8h.html" target="_top" xlink:title="model/model.h">
<polygon fill="none" stroke="black" points="946.5,-398 946.5,-417 1026.5,-417 1026.5,-398 946.5,-398"/>
<text text-anchor="middle" x="986.5" y="-405" font-family="Helvetica,sans-Serif" font-size="10.00">model/model.h</text>
</a>
</g>
</g>
<!-- Node1&#45;&gt;Node26 -->
<g id="edge43" class="edge"><title>Node1&#45;&gt;Node26</title>
<path fill="none" stroke="midnightblue" d="M405.151,-463.231C523.717,-452.069 818.172,-424.347 936.296,-413.227"/>
<polygon fill="midnightblue" stroke="midnightblue" points="936.871,-416.688 946.499,-412.266 936.215,-409.719 936.871,-416.688"/>
</g>
<!-- Node8 -->
<g id="node8" class="node"><title>Node8</title>
<g id="a_node8"><a xlink:href="../../de/df7/worldparticles_8hpp.html" target="_top" xlink:title="wordparticles configuration file ">
<polygon fill="none" stroke="black" points="354,-112.5 354,-131.5 449,-131.5 449,-112.5 354,-112.5"/>
<text text-anchor="middle" x="401.5" y="-119.5" font-family="Helvetica,sans-Serif" font-size="10.00">worldparticles.hpp</text>
</a>
</g>
</g>
<!-- Node7&#45;&gt;Node8 -->
<g id="edge7" class="edge"><title>Node7&#45;&gt;Node8</title>
<path fill="none" stroke="midnightblue" d="M493.08,-397.9C442.077,-378.449 325.5,-329.751 325.5,-291 325.5,-291 325.5,-291 325.5,-233 325.5,-193.276 359.464,-157.504 381.982,-138.154"/>
<polygon fill="midnightblue" stroke="midnightblue" points="384.476,-140.634 389.957,-131.567 380.018,-135.236 384.476,-140.634"/>
</g>
<!-- Node9 -->
<g id="node9" class="node"><title>Node9</title>
<g id="a_node9"><a xlink:href="../../db/de8/Scene_8hpp.html" target="_top" xlink:title="Scene.hpp">
<polygon fill="none" stroke="black" points="485,-336.5 485,-355.5 548,-355.5 548,-336.5 485,-336.5"/>
<text text-anchor="middle" x="516.5" y="-343.5" font-family="Helvetica,sans-Serif" font-size="10.00">Scene.hpp</text>
</a>
</g>
</g>
<!-- Node7&#45;&gt;Node9 -->
<g id="edge8" class="edge"><title>Node7&#45;&gt;Node9</title>
<path fill="none" stroke="midnightblue" d="M516.5,-397.975C516.5,-389.58 516.5,-376.481 516.5,-365.663"/>
<polygon fill="midnightblue" stroke="midnightblue" points="520,-365.509 516.5,-355.509 513,-365.509 520,-365.509"/>
</g>
<!-- Node10 -->
<g id="node10" class="node"><title>Node10</title>
<polygon fill="none" stroke="#bfbfbf" points="979.5,-56.5 979.5,-75.5 1031.5,-75.5 1031.5,-56.5 979.5,-56.5"/>
<text text-anchor="middle" x="1005.5" y="-63.5" font-family="Helvetica,sans-Serif" font-size="10.00">memory</text>
</g>
<!-- Node9&#45;&gt;Node10 -->
<g id="edge9" class="edge"><title>Node9&#45;&gt;Node10</title>
<path fill="none" stroke="midnightblue" d="M548.425,-342.891C677.192,-333.965 1151.5,-296.886 1151.5,-235 1151.5,-235 1151.5,-235 1151.5,-177 1151.5,-121.942 1084.45,-90.9899 1041.23,-76.7569"/>
<polygon fill="midnightblue" stroke="midnightblue" points="1042.19,-73.3916 1031.6,-73.7317 1040.09,-80.0694 1042.19,-73.3916"/>
</g>
<!-- Node11 -->
<g id="node11" class="node"><title>Node11</title>
<polygon fill="none" stroke="#bfbfbf" points="442,-280.5 442,-299.5 471,-299.5 471,-280.5 442,-280.5"/>
<text text-anchor="middle" x="456.5" y="-287.5" font-family="Helvetica,sans-Serif" font-size="10.00">list</text>
</g>
<!-- Node9&#45;&gt;Node11 -->
<g id="edge10" class="edge"><title>Node9&#45;&gt;Node11</title>
<path fill="none" stroke="midnightblue" d="M506.86,-336.324C497.99,-328.341 484.625,-316.313 473.892,-306.653"/>
<polygon fill="midnightblue" stroke="midnightblue" points="476.09,-303.922 466.315,-299.834 471.407,-309.125 476.09,-303.922"/>
</g>
<!-- Node12 -->
<g id="node12" class="node"><title>Node12</title>
<g id="a_node12"><a xlink:href="../../d4/db5/GameObject_8hpp.html" target="_top" xlink:title="GameObject.hpp">
<polygon fill="none" stroke="black" points="490.5,-224.5 490.5,-243.5 580.5,-243.5 580.5,-224.5 490.5,-224.5"/>
<text text-anchor="middle" x="535.5" y="-231.5" font-family="Helvetica,sans-Serif" font-size="10.00">GameObject.hpp</text>
</a>
</g>
</g>
<!-- Node9&#45;&gt;Node12 -->
<g id="edge11" class="edge"><title>Node9&#45;&gt;Node12</title>
<path fill="none" stroke="midnightblue" d="M526.938,-336.245C535.924,-327.969 548.246,-314.663 553.5,-300 559.166,-284.189 552.831,-265.69 546.166,-252.478"/>
<polygon fill="midnightblue" stroke="midnightblue" points="549.114,-250.579 541.197,-243.539 542.996,-253.98 549.114,-250.579"/>
</g>
<!-- Node24 -->
<g id="node24" class="node"><title>Node24</title>
<g id="a_node24"><a xlink:href="../../d6/d80/Camera_8hpp.html" target="_top" xlink:title="Camera.hpp">
<polygon fill="none" stroke="black" points="353.5,-280.5 353.5,-299.5 423.5,-299.5 423.5,-280.5 353.5,-280.5"/>
<text text-anchor="middle" x="388.5" y="-287.5" font-family="Helvetica,sans-Serif" font-size="10.00">Camera.hpp</text>
</a>
</g>
</g>
<!-- Node9&#45;&gt;Node24 -->
<g id="edge38" class="edge"><title>Node9&#45;&gt;Node24</title>
<path fill="none" stroke="midnightblue" d="M496.218,-336.444C475.153,-327.557 441.983,-313.563 418.014,-303.451"/>
<polygon fill="midnightblue" stroke="midnightblue" points="419.261,-300.179 408.687,-299.516 416.54,-306.628 419.261,-300.179"/>
</g>
<!-- Node25 -->
<g id="node25" class="node"><title>Node25</title>
<g id="a_node25"><a xlink:href="../../d5/dd5/Light_8hpp.html" target="_top" xlink:title="Light.hpp">
<polygon fill="none" stroke="black" points="488.5,-280.5 488.5,-299.5 544.5,-299.5 544.5,-280.5 488.5,-280.5"/>
<text text-anchor="middle" x="516.5" y="-287.5" font-family="Helvetica,sans-Serif" font-size="10.00">Light.hpp</text>
</a>
</g>
</g>
<!-- Node9&#45;&gt;Node25 -->
<g id="edge42" class="edge"><title>Node9&#45;&gt;Node25</title>
<path fill="none" stroke="midnightblue" d="M516.5,-336.083C516.5,-329.006 516.5,-318.861 516.5,-309.986"/>
<polygon fill="midnightblue" stroke="midnightblue" points="520,-309.751 516.5,-299.751 513,-309.751 520,-309.751"/>
</g>
<!-- Node12&#45;&gt;Node8 -->
<g id="edge14" class="edge"><title>Node12&#45;&gt;Node8</title>
<path fill="none" stroke="midnightblue" d="M490.476,-225.315C466.657,-219.052 438.664,-207.85 420.5,-188 408.976,-175.407 404.412,-156.191 402.621,-141.915"/>
<polygon fill="midnightblue" stroke="midnightblue" points="406.087,-141.388 401.698,-131.745 399.116,-142.021 406.087,-141.388"/>
</g>
<!-- Node12&#45;&gt;Node10 -->
<g id="edge13" class="edge"><title>Node12&#45;&gt;Node10</title>
<path fill="none" stroke="midnightblue" d="M580.526,-231.605C698.155,-226.919 1009.89,-207.48 1072.5,-132 1088.65,-112.533 1060.21,-92.6446 1035.54,-80.0832"/>
<polygon fill="midnightblue" stroke="midnightblue" points="1036.9,-76.8521 1026.37,-75.6438 1033.85,-83.1523 1036.9,-76.8521"/>
</g>
<!-- Node13 -->
<g id="node13" class="node"><title>Node13</title>
<polygon fill="none" stroke="#bfbfbf" points="499.5,-56.5 499.5,-75.5 569.5,-75.5 569.5,-56.5 499.5,-56.5"/>
<text text-anchor="middle" x="534.5" y="-63.5" font-family="Helvetica,sans-Serif" font-size="10.00">glm/glm.hpp</text>
</g>
<!-- Node12&#45;&gt;Node13 -->
<g id="edge12" class="edge"><title>Node12&#45;&gt;Node13</title>
<path fill="none" stroke="midnightblue" d="M535.446,-224.075C535.289,-197.945 534.827,-121.211 534.612,-85.577"/>
<polygon fill="midnightblue" stroke="midnightblue" points="538.112,-85.5468 534.552,-75.5681 531.112,-85.589 538.112,-85.5468"/>
</g>
<!-- Node14 -->
<g id="node14" class="node"><title>Node14</title>
<g id="a_node14"><a xlink:href="../../da/d83/Transform_8hpp.html" target="_top" xlink:title="Transform.hpp">
<polygon fill="none" stroke="black" points="217.5,-168.5 217.5,-187.5 297.5,-187.5 297.5,-168.5 217.5,-168.5"/>
<text text-anchor="middle" x="257.5" y="-175.5" font-family="Helvetica,sans-Serif" font-size="10.00">Transform.hpp</text>
</a>
</g>
</g>
<!-- Node12&#45;&gt;Node14 -->
<g id="edge15" class="edge"><title>Node12&#45;&gt;Node14</title>
<path fill="none" stroke="midnightblue" d="M491.45,-224.444C441.5,-214.741 360.216,-198.952 307.811,-188.773"/>
<polygon fill="midnightblue" stroke="midnightblue" points="308.217,-185.286 297.733,-186.815 306.882,-192.158 308.217,-185.286"/>
</g>
<!-- Node15 -->
<g id="node15" class="node"><title>Node15</title>
<g id="a_node15"><a xlink:href="../../d1/dca/IRenderer_8hpp.html" target="_top" xlink:title="IRenderer.hpp">
<polygon fill="none" stroke="black" points="429.5,-168.5 429.5,-187.5 507.5,-187.5 507.5,-168.5 429.5,-168.5"/>
<text text-anchor="middle" x="468.5" y="-175.5" font-family="Helvetica,sans-Serif" font-size="10.00">IRenderer.hpp</text>
</a>
</g>
</g>
<!-- Node12&#45;&gt;Node15 -->
<g id="edge17" class="edge"><title>Node12&#45;&gt;Node15</title>
<path fill="none" stroke="midnightblue" d="M524.735,-224.324C514.734,-216.263 499.613,-204.077 487.57,-194.369"/>
<polygon fill="midnightblue" stroke="midnightblue" points="489.443,-191.384 479.461,-187.834 485.05,-196.834 489.443,-191.384"/>
</g>
<!-- Node16 -->
<g id="node16" class="node"><title>Node16</title>
<g id="a_node16"><a xlink:href="../../d0/d70/Material_8hpp.html" target="_top" xlink:title="Material.hpp">
<polygon fill="none" stroke="black" points="577.5,-168.5 577.5,-187.5 647.5,-187.5 647.5,-168.5 577.5,-168.5"/>
<text text-anchor="middle" x="612.5" y="-175.5" font-family="Helvetica,sans-Serif" font-size="10.00">Material.hpp</text>
</a>
</g>
</g>
<!-- Node12&#45;&gt;Node16 -->
<g id="edge21" class="edge"><title>Node12&#45;&gt;Node16</title>
<path fill="none" stroke="midnightblue" d="M547.871,-224.324C559.658,-216.058 577.632,-203.453 591.636,-193.632"/>
<polygon fill="midnightblue" stroke="midnightblue" points="593.982,-196.262 600.159,-187.655 589.962,-190.531 593.982,-196.262"/>
</g>
<!-- Node21 -->
<g id="node21" class="node"><title>Node21</title>
<g id="a_node21"><a xlink:href="../../d1/d62/Mesh_8hpp.html" target="_top" xlink:title="Mesh.hpp">
<polygon fill="none" stroke="black" points="680,-168.5 680,-187.5 739,-187.5 739,-168.5 680,-168.5"/>
<text text-anchor="middle" x="709.5" y="-175.5" font-family="Helvetica,sans-Serif" font-size="10.00">Mesh.hpp</text>
</a>
</g>
</g>
<!-- Node12&#45;&gt;Node21 -->
<g id="edge30" class="edge"><title>Node12&#45;&gt;Node21</title>
<path fill="none" stroke="midnightblue" d="M563.071,-224.444C592.597,-215.28 639.618,-200.688 672.383,-190.519"/>
<polygon fill="midnightblue" stroke="midnightblue" points="673.545,-193.823 682.058,-187.516 671.47,-187.138 673.545,-193.823"/>
</g>
<!-- Node14&#45;&gt;Node13 -->
<g id="edge16" class="edge"><title>Node14&#45;&gt;Node13</title>
<path fill="none" stroke="midnightblue" d="M262.149,-168.216C270.181,-153.964 288.072,-125.991 311.5,-112 366.669,-79.054 441.784,-69.8089 489.21,-67.4463"/>
<polygon fill="midnightblue" stroke="midnightblue" points="489.628,-70.9321 499.475,-67.0211 489.338,-63.9381 489.628,-70.9321"/>
</g>
<!-- Node15&#45;&gt;Node8 -->
<g id="edge20" class="edge"><title>Node15&#45;&gt;Node8</title>
<path fill="none" stroke="midnightblue" d="M457.735,-168.324C447.734,-160.263 432.613,-148.077 420.57,-138.369"/>
<polygon fill="midnightblue" stroke="midnightblue" points="422.443,-135.384 412.461,-131.834 418.05,-140.834 422.443,-135.384"/>
</g>
<!-- Node15&#45;&gt;Node10 -->
<g id="edge19" class="edge"><title>Node15&#45;&gt;Node10</title>
<path fill="none" stroke="midnightblue" d="M507.674,-173.163C606.813,-163.391 861.06,-137.917 878.5,-132 894.741,-126.49 896.414,-120.157 911.5,-112 933.049,-100.348 958.099,-88.4337 976.918,-79.7936"/>
<polygon fill="midnightblue" stroke="midnightblue" points="978.491,-82.9234 986.14,-75.5927 975.589,-76.5533 978.491,-82.9234"/>
</g>
<!-- Node15&#45;&gt;Node13 -->
<g id="edge18" class="edge"><title>Node15&#45;&gt;Node13</title>
<path fill="none" stroke="midnightblue" d="M472.344,-168.346C478.101,-155.657 489.568,-131.406 501.5,-112 507.462,-102.303 514.903,-92.0274 521.21,-83.7473"/>
<polygon fill="midnightblue" stroke="midnightblue" points="524.115,-85.7126 527.484,-75.6676 518.586,-81.4194 524.115,-85.7126"/>
</g>
<!-- Node16&#45;&gt;Node10 -->
<g id="edge23" class="edge"><title>Node16&#45;&gt;Node10</title>
<path fill="none" stroke="midnightblue" d="M647.768,-171.495C655.27,-170.333 663.146,-169.12 670.5,-168 777.565,-151.697 810.791,-171.832 911.5,-132 941.15,-120.273 970.617,-97.6547 988.447,-82.4405"/>
<polygon fill="midnightblue" stroke="midnightblue" points="990.991,-84.8647 996.214,-75.6466 986.383,-79.5957 990.991,-84.8647"/>
</g>
<!-- Node16&#45;&gt;Node13 -->
<g id="edge22" class="edge"><title>Node16&#45;&gt;Node13</title>
<path fill="none" stroke="midnightblue" d="M605.322,-168.188C598.099,-159.225 586.736,-144.863 577.5,-132 566.069,-116.081 553.808,-97.3675 545.315,-84.118"/>
<polygon fill="midnightblue" stroke="midnightblue" points="548.186,-82.11 539.863,-75.5541 542.281,-85.8693 548.186,-82.11"/>
</g>
<!-- Node17 -->
<g id="node17" class="node"><title>Node17</title>
<g id="a_node17"><a xlink:href="../../dc/ddb/ShaderProgram_8hpp.html" target="_top" xlink:title="ShaderProgram.hpp">
<polygon fill="none" stroke="black" points="766,-112.5 766,-131.5 869,-131.5 869,-112.5 766,-112.5"/>
<text text-anchor="middle" x="817.5" y="-119.5" font-family="Helvetica,sans-Serif" font-size="10.00">ShaderProgram.hpp</text>
</a>
</g>
</g>
<!-- Node16&#45;&gt;Node17 -->
<g id="edge24" class="edge"><title>Node16&#45;&gt;Node17</title>
<path fill="none" stroke="midnightblue" d="M644.983,-168.444C680.22,-159.162 736.604,-144.309 775.259,-134.127"/>
<polygon fill="midnightblue" stroke="midnightblue" points="776.391,-137.448 785.169,-131.516 774.607,-130.679 776.391,-137.448"/>
</g>
<!-- Node17&#45;&gt;Node10 -->
<g id="edge27" class="edge"><title>Node17&#45;&gt;Node10</title>
<path fill="none" stroke="midnightblue" d="M847.289,-112.444C880.46,-102.916 934.065,-87.5187 969.543,-77.328"/>
<polygon fill="midnightblue" stroke="midnightblue" points="970.838,-80.5978 979.483,-74.473 968.905,-73.8698 970.838,-80.5978"/>
</g>
<!-- Node17&#45;&gt;Node13 -->
<g id="edge25" class="edge"><title>Node17&#45;&gt;Node13</title>
<path fill="none" stroke="midnightblue" d="M772.658,-112.444C719.91,-102.379 632.837,-85.7639 579.864,-75.656"/>
<polygon fill="midnightblue" stroke="midnightblue" points="580.223,-72.1615 569.744,-73.7251 578.911,-79.0374 580.223,-72.1615"/>
</g>
<!-- Node18 -->
<g id="node18" class="node"><title>Node18</title>
<polygon fill="none" stroke="#bfbfbf" points="715.5,-56.5 715.5,-75.5 759.5,-75.5 759.5,-56.5 715.5,-56.5"/>
<text text-anchor="middle" x="737.5" y="-63.5" font-family="Helvetica,sans-Serif" font-size="10.00">vector</text>
</g>
<!-- Node17&#45;&gt;Node18 -->
<g id="edge26" class="edge"><title>Node17&#45;&gt;Node18</title>
<path fill="none" stroke="midnightblue" d="M804.647,-112.324C792.284,-103.979 773.37,-91.2122 758.763,-81.3524"/>
<polygon fill="midnightblue" stroke="midnightblue" points="760.568,-78.3483 750.321,-75.6545 756.652,-84.1503 760.568,-78.3483"/>
</g>
<!-- Node19 -->
<g id="node19" class="node"><title>Node19</title>
<g id="a_node19"><a xlink:href="../../d4/d6e/Shader_8hpp.html" target="_top" xlink:title="Shader.hpp">
<polygon fill="none" stroke="black" points="784.5,-56.5 784.5,-75.5 850.5,-75.5 850.5,-56.5 784.5,-56.5"/>
<text text-anchor="middle" x="817.5" y="-63.5" font-family="Helvetica,sans-Serif" font-size="10.00">Shader.hpp</text>
</a>
</g>
</g>
<!-- Node17&#45;&gt;Node19 -->
<g id="edge28" class="edge"><title>Node17&#45;&gt;Node19</title>
<path fill="none" stroke="midnightblue" d="M817.5,-112.083C817.5,-105.006 817.5,-94.8611 817.5,-85.9865"/>
<polygon fill="midnightblue" stroke="midnightblue" points="821,-85.751 817.5,-75.7511 814,-85.7511 821,-85.751"/>
</g>
<!-- Node20 -->
<g id="node20" class="node"><title>Node20</title>
<polygon fill="none" stroke="#bfbfbf" points="797,-0.5 797,-19.5 838,-19.5 838,-0.5 797,-0.5"/>
<text text-anchor="middle" x="817.5" y="-7.5" font-family="Helvetica,sans-Serif" font-size="10.00">string</text>
</g>
<!-- Node19&#45;&gt;Node20 -->
<g id="edge29" class="edge"><title>Node19&#45;&gt;Node20</title>
<path fill="none" stroke="midnightblue" d="M817.5,-56.083C817.5,-49.0059 817.5,-38.8611 817.5,-29.9865"/>
<polygon fill="midnightblue" stroke="midnightblue" points="821,-29.751 817.5,-19.7511 814,-29.7511 821,-29.751"/>
</g>
<!-- Node21&#45;&gt;Node10 -->
<g id="edge32" class="edge"><title>Node21&#45;&gt;Node10</title>
<path fill="none" stroke="midnightblue" d="M739.035,-175.367C819.087,-170.641 1035.62,-155.758 1056.5,-132 1071.35,-115.105 1048.87,-94.5219 1029.23,-81.1064"/>
<polygon fill="midnightblue" stroke="midnightblue" points="1031.12,-78.1599 1020.82,-75.6567 1027.31,-84.0335 1031.12,-78.1599"/>
</g>
<!-- Node21&#45;&gt;Node13 -->
<g id="edge33" class="edge"><title>Node21&#45;&gt;Node13</title>
<path fill="none" stroke="midnightblue" d="M685.743,-168.386C665.068,-160.389 634.705,-147.415 610.5,-132 588.012,-117.678 565.156,-97.1497 550.466,-83.0142"/>
<polygon fill="midnightblue" stroke="midnightblue" points="552.793,-80.394 543.199,-75.8988 547.895,-85.3958 552.793,-80.394"/>
</g>
<!-- Node21&#45;&gt;Node18 -->
<g id="edge31" class="edge"><title>Node21&#45;&gt;Node18</title>
<path fill="none" stroke="midnightblue" d="M711.697,-168.368C716.216,-150.617 726.639,-109.666 732.766,-85.5974"/>
<polygon fill="midnightblue" stroke="midnightblue" points="736.238,-86.1458 735.313,-75.5914 729.454,-84.419 736.238,-86.1458"/>
</g>
<!-- Node22 -->
<g id="node22" class="node"><title>Node22</title>
<polygon fill="none" stroke="#bfbfbf" points="964,-112.5 964,-131.5 1047,-131.5 1047,-112.5 964,-112.5"/>
<text text-anchor="middle" x="1005.5" y="-119.5" font-family="Helvetica,sans-Serif" font-size="10.00">assimp/mesh.h</text>
</g>
<!-- Node21&#45;&gt;Node22 -->
<g id="edge34" class="edge"><title>Node21&#45;&gt;Node22</title>
<path fill="none" stroke="midnightblue" d="M739.237,-171.575C789.509,-162.404 891.877,-143.729 954.009,-132.394"/>
<polygon fill="midnightblue" stroke="midnightblue" points="954.786,-135.81 963.995,-130.572 953.53,-128.923 954.786,-135.81"/>
</g>
<!-- Node23 -->
<g id="node23" class="node"><title>Node23</title>
<g id="a_node23"><a xlink:href="../../da/d04/BufferObject_8hpp.html" target="_top" xlink:title="BufferObject.hpp">
<polygon fill="none" stroke="black" points="619.5,-112.5 619.5,-131.5 709.5,-131.5 709.5,-112.5 619.5,-112.5"/>
<text text-anchor="middle" x="664.5" y="-119.5" font-family="Helvetica,sans-Serif" font-size="10.00">BufferObject.hpp</text>
</a>
</g>
</g>
<!-- Node21&#45;&gt;Node23 -->
<g id="edge35" class="edge"><title>Node21&#45;&gt;Node23</title>
<path fill="none" stroke="midnightblue" d="M702.069,-168.083C695.647,-160.377 686.194,-149.033 678.378,-139.653"/>
<polygon fill="midnightblue" stroke="midnightblue" points="680.883,-137.193 671.793,-131.751 675.506,-141.674 680.883,-137.193"/>
</g>
<!-- Node23&#45;&gt;Node13 -->
<g id="edge37" class="edge"><title>Node23&#45;&gt;Node13</title>
<path fill="none" stroke="midnightblue" d="M643.901,-112.444C622.507,-103.557 588.819,-89.5632 564.476,-79.4514"/>
<polygon fill="midnightblue" stroke="midnightblue" points="565.58,-76.1203 555.003,-75.5164 562.895,-82.5848 565.58,-76.1203"/>
</g>
<!-- Node23&#45;&gt;Node18 -->
<g id="edge36" class="edge"><title>Node23&#45;&gt;Node18</title>
<path fill="none" stroke="midnightblue" d="M676.229,-112.324C687.337,-104.107 704.242,-91.6017 717.483,-81.8069"/>
<polygon fill="midnightblue" stroke="midnightblue" points="719.6,-84.5948 725.558,-75.8339 715.437,-78.9671 719.6,-84.5948"/>
</g>
<!-- Node24&#45;&gt;Node12 -->
<g id="edge41" class="edge"><title>Node24&#45;&gt;Node12</title>
<path fill="none" stroke="midnightblue" d="M411.793,-280.444C436.307,-271.438 475.096,-257.189 502.7,-247.049"/>
<polygon fill="midnightblue" stroke="midnightblue" points="504.137,-250.25 512.316,-243.516 501.723,-243.679 504.137,-250.25"/>
</g>
<!-- Node24&#45;&gt;Node13 -->
<g id="edge39" class="edge"><title>Node24&#45;&gt;Node13</title>
<path fill="none" stroke="midnightblue" d="M381.652,-280.174C360.906,-252.305 302.664,-164.902 344.5,-112 362.205,-89.6123 438.832,-77.2062 489.201,-71.3372"/>
<polygon fill="midnightblue" stroke="midnightblue" points="489.661,-74.8076 499.21,-70.2161 488.882,-67.8511 489.661,-74.8076"/>
</g>
<!-- Node24&#45;&gt;Node14 -->
<g id="edge40" class="edge"><title>Node24&#45;&gt;Node14</title>
<path fill="none" stroke="midnightblue" d="M378.221,-280.368C356.028,-261.733 303.389,-217.532 275.523,-194.134"/>
<polygon fill="midnightblue" stroke="midnightblue" points="277.641,-191.342 267.732,-187.591 273.139,-196.702 277.641,-191.342"/>
</g>
<!-- Node27 -->
<g id="node27" class="node"><title>Node27</title>
<g id="a_node27"><a xlink:href="../../d5/da5/tools_8h.html" target="_top" xlink:title="tools.h">
<polygon fill="none" stroke="black" points="1328.5,-336.5 1328.5,-355.5 1374.5,-355.5 1374.5,-336.5 1328.5,-336.5"/>
<text text-anchor="middle" x="1351.5" y="-343.5" font-family="Helvetica,sans-Serif" font-size="10.00">tools.h</text>
</a>
</g>
</g>
<!-- Node26&#45;&gt;Node27 -->
<g id="edge44" class="edge"><title>Node26&#45;&gt;Node27</title>
<path fill="none" stroke="midnightblue" d="M1026.61,-399.962C1099.2,-388.128 1251.1,-363.366 1318.3,-352.412"/>
<polygon fill="midnightblue" stroke="midnightblue" points="1319.03,-355.84 1328.33,-350.776 1317.9,-348.931 1319.03,-355.84"/>
</g>
<!-- Node28 -->
<g id="node28" class="node"><title>Node28</title>
<polygon fill="none" stroke="#bfbfbf" points="1179.5,-280.5 1179.5,-299.5 1229.5,-299.5 1229.5,-280.5 1179.5,-280.5"/>
<text text-anchor="middle" x="1204.5" y="-287.5" font-family="Helvetica,sans-Serif" font-size="10.00">QString</text>
</g>
<!-- Node27&#45;&gt;Node28 -->
<g id="edge45" class="edge"><title>Node27&#45;&gt;Node28</title>
<path fill="none" stroke="midnightblue" d="M1328.21,-336.444C1303.69,-327.438 1264.9,-313.189 1237.3,-303.049"/>
<polygon fill="midnightblue" stroke="midnightblue" points="1238.28,-299.679 1227.68,-299.516 1235.86,-306.25 1238.28,-299.679"/>
</g>
<!-- Node29 -->
<g id="node29" class="node"><title>Node29</title>
<polygon fill="none" stroke="#bfbfbf" points="1248,-280.5 1248,-299.5 1313,-299.5 1313,-280.5 1248,-280.5"/>
<text text-anchor="middle" x="1280.5" y="-287.5" font-family="Helvetica,sans-Serif" font-size="10.00">QVector3D</text>
</g>
<!-- Node27&#45;&gt;Node29 -->
<g id="edge46" class="edge"><title>Node27&#45;&gt;Node29</title>
<path fill="none" stroke="midnightblue" d="M1340.09,-336.324C1329.39,-328.185 1313.16,-315.839 1300.34,-306.087"/>
<polygon fill="midnightblue" stroke="midnightblue" points="1302.19,-303.102 1292.11,-299.834 1297.96,-308.673 1302.19,-303.102"/>
</g>
<!-- Node30 -->
<g id="node30" class="node"><title>Node30</title>
<polygon fill="none" stroke="#bfbfbf" points="1331.5,-280.5 1331.5,-299.5 1371.5,-299.5 1371.5,-280.5 1331.5,-280.5"/>
<text text-anchor="middle" x="1351.5" y="-287.5" font-family="Helvetica,sans-Serif" font-size="10.00">QList</text>
</g>
<!-- Node27&#45;&gt;Node30 -->
<g id="edge47" class="edge"><title>Node27&#45;&gt;Node30</title>
<path fill="none" stroke="midnightblue" d="M1351.5,-336.083C1351.5,-329.006 1351.5,-318.861 1351.5,-309.986"/>
<polygon fill="midnightblue" stroke="midnightblue" points="1355,-309.751 1351.5,-299.751 1348,-309.751 1355,-309.751"/>
</g>
<!-- Node31 -->
<g id="node31" class="node"><title>Node31</title>
<polygon fill="none" stroke="#bfbfbf" points="1390,-280.5 1390,-299.5 1433,-299.5 1433,-280.5 1390,-280.5"/>
<text text-anchor="middle" x="1411.5" y="-287.5" font-family="Helvetica,sans-Serif" font-size="10.00">QMap</text>
</g>
<!-- Node27&#45;&gt;Node31 -->
<g id="edge48" class="edge"><title>Node27&#45;&gt;Node31</title>
<path fill="none" stroke="midnightblue" d="M1361.14,-336.324C1370.01,-328.341 1383.37,-316.313 1394.11,-306.653"/>
<polygon fill="midnightblue" stroke="midnightblue" points="1396.59,-309.125 1401.68,-299.834 1391.91,-303.922 1396.59,-309.125"/>
</g>
<!-- Node32 -->
<g id="node32" class="node"><title>Node32</title>
<polygon fill="none" stroke="#bfbfbf" points="1451,-280.5 1451,-299.5 1542,-299.5 1542,-280.5 1451,-280.5"/>
<text text-anchor="middle" x="1496.5" y="-287.5" font-family="Helvetica,sans-Serif" font-size="10.00">QGraphicsScene</text>
</g>
<!-- Node27&#45;&gt;Node32 -->
<g id="edge49" class="edge"><title>Node27&#45;&gt;Node32</title>
<path fill="none" stroke="midnightblue" d="M1374.48,-336.444C1398.66,-327.438 1436.92,-313.189 1464.15,-303.049"/>
<polygon fill="midnightblue" stroke="midnightblue" points="1465.48,-306.286 1473.63,-299.516 1463.04,-299.727 1465.48,-306.286"/>
</g>
<!-- Node33 -->
<g id="node33" class="node"><title>Node33</title>
<polygon fill="none" stroke="#bfbfbf" points="1560,-280.5 1560,-299.5 1607,-299.5 1607,-280.5 1560,-280.5"/>
<text text-anchor="middle" x="1583.5" y="-287.5" font-family="Helvetica,sans-Serif" font-size="10.00">math.h</text>
</g>
<!-- Node27&#45;&gt;Node33 -->
<g id="edge50" class="edge"><title>Node27&#45;&gt;Node33</title>
<path fill="none" stroke="midnightblue" d="M1374.69,-340.198C1410.38,-332.72 1481.11,-317.546 1550.06,-300.275"/>
<polygon fill="midnightblue" stroke="midnightblue" points="1550.93,-303.664 1559.77,-297.824 1549.22,-296.877 1550.93,-303.664"/>
</g>
</g>
</svg>
