<?xml version="1.0" encoding="UTF-8" standalone="no"?>
<!DOCTYPE svg PUBLIC "-//W3C//DTD SVG 1.1//EN"
 "http://www.w3.org/Graphics/SVG/1.1/DTD/svg11.dtd">
<!-- Generated by graphviz version 2.38.0 (20140413.2041)
 -->
<!-- Title: Core/SceneGraph.cpp Pages: 1 -->
<svg width="814pt" height="84pt"
 viewBox="0.00 0.00 814.00 84.00" xmlns="http://www.w3.org/2000/svg" xmlns:xlink="http://www.w3.org/1999/xlink">
<g id="graph0" class="graph" transform="scale(1 1) rotate(0) translate(4 80)">
<title>Core/SceneGraph.cpp</title>
<!-- Node1 -->
<g id="node1" class="node"><title>Node1</title>
<polygon fill="#bfbfbf" stroke="black" points="318,-56.5 318,-75.5 431,-75.5 431,-56.5 318,-56.5"/>
<text text-anchor="middle" x="374.5" y="-63.5" font-family="Helvetica,sans-Serif" font-size="10.00">Core/SceneGraph.cpp</text>
</g>
<!-- Node2 -->
<g id="node2" class="node"><title>Node2</title>
<polygon fill="none" stroke="#bfbfbf" points="0,-0.5 0,-19.5 107,-19.5 107,-0.5 0,-0.5"/>
<text text-anchor="middle" x="53.5" y="-7.5" font-family="Helvetica,sans-Serif" font-size="10.00">log4cpp/Category.hh</text>
</g>
<!-- Node1&#45;&gt;Node2 -->
<g id="edge1" class="edge"><title>Node1&#45;&gt;Node2</title>
<path fill="none" stroke="midnightblue" d="M323.637,-56.4435C266.817,-46.8851 174.883,-31.4195 114.31,-21.2298"/>
<polygon fill="midnightblue" stroke="midnightblue" points="114.568,-17.7239 104.125,-19.5164 113.406,-24.6269 114.568,-17.7239"/>
</g>
<!-- Node3 -->
<g id="node3" class="node"><title>Node3</title>
<polygon fill="none" stroke="#bfbfbf" points="125.5,-0.5 125.5,-19.5 271.5,-19.5 271.5,-0.5 125.5,-0.5"/>
<text text-anchor="middle" x="198.5" y="-7.5" font-family="Helvetica,sans-Serif" font-size="10.00">Engine/Core/SceneGraph.hpp</text>
</g>
<!-- Node1&#45;&gt;Node3 -->
<g id="edge2" class="edge"><title>Node1&#45;&gt;Node3</title>
<path fill="none" stroke="midnightblue" d="M346.612,-56.4435C316.746,-47.2801 269.185,-32.6876 236.044,-22.5192"/>
<polygon fill="midnightblue" stroke="midnightblue" points="236.844,-19.1037 226.257,-19.5164 234.791,-25.7958 236.844,-19.1037"/>
</g>
<!-- Node4 -->
<g id="node4" class="node"><title>Node4</title>
<polygon fill="none" stroke="#bfbfbf" points="289.5,-0.5 289.5,-19.5 459.5,-19.5 459.5,-0.5 289.5,-0.5"/>
<text text-anchor="middle" x="374.5" y="-7.5" font-family="Helvetica,sans-Serif" font-size="10.00">Engine/Core/SceneGraphNode.hpp</text>
</g>
<!-- Node1&#45;&gt;Node4 -->
<g id="edge3" class="edge"><title>Node1&#45;&gt;Node4</title>
<path fill="none" stroke="midnightblue" d="M374.5,-56.083C374.5,-49.0059 374.5,-38.8611 374.5,-29.9865"/>
<polygon fill="midnightblue" stroke="midnightblue" points="378,-29.751 374.5,-19.7511 371,-29.7511 378,-29.751"/>
</g>
<!-- Node5 -->
<g id="node5" class="node"><title>Node5</title>
<polygon fill="none" stroke="#bfbfbf" points="478,-0.5 478,-19.5 631,-19.5 631,-0.5 478,-0.5"/>
<text text-anchor="middle" x="554.5" y="-7.5" font-family="Helvetica,sans-Serif" font-size="10.00">Engine/Core/AssimpScene.hpp</text>
</g>
<!-- Node1&#45;&gt;Node5 -->
<g id="edge4" class="edge"><title>Node1&#45;&gt;Node5</title>
<path fill="none" stroke="midnightblue" d="M403.022,-56.4435C433.566,-47.2801 482.208,-32.6876 516.103,-22.5192"/>
<polygon fill="midnightblue" stroke="midnightblue" points="517.539,-25.7424 526.112,-19.5164 515.528,-19.0376 517.539,-25.7424"/>
</g>
<!-- Node6 -->
<g id="node6" class="node"><title>Node6</title>
<polygon fill="none" stroke="#bfbfbf" points="649,-0.5 649,-19.5 806,-19.5 806,-0.5 649,-0.5"/>
<text text-anchor="middle" x="727.5" y="-7.5" font-family="Helvetica,sans-Serif" font-size="10.00">Engine/Core/FreeflyCamera.hpp</text>
</g>
<!-- Node1&#45;&gt;Node6 -->
<g id="edge5" class="edge"><title>Node1&#45;&gt;Node6</title>
<path fill="none" stroke="midnightblue" d="M430.434,-56.4435C493.305,-46.8259 595.272,-31.2275 661.862,-21.0409"/>
<polygon fill="midnightblue" stroke="midnightblue" points="662.472,-24.4884 671.828,-19.5164 661.413,-17.5689 662.472,-24.4884"/>
</g>
</g>
</svg>
