<?xml version="1.0" encoding="UTF-8" standalone="no"?>
<!DOCTYPE svg PUBLIC "-//W3C//DTD SVG 1.1//EN"
 "http://www.w3.org/Graphics/SVG/1.1/DTD/svg11.dtd">
<!-- Generated by graphviz version 2.38.0 (20140413.2041)
 -->
<!-- Title: engine/SceneGraph/SceneGraph.cpp Pages: 1 -->
<svg width="468pt" height="196pt"
 viewBox="0.00 0.00 467.50 196.00" xmlns="http://www.w3.org/2000/svg" xmlns:xlink="http://www.w3.org/1999/xlink">
<g id="graph0" class="graph" transform="scale(1 1) rotate(0) translate(4 192)">
<title>engine/SceneGraph/SceneGraph.cpp</title>
<!-- Node1 -->
<g id="node1" class="node"><title>Node1</title>
<polygon fill="#bfbfbf" stroke="black" points="151.5,-168.5 151.5,-187.5 329.5,-187.5 329.5,-168.5 151.5,-168.5"/>
<text text-anchor="middle" x="240.5" y="-175.5" font-family="Helvetica,sans-Serif" font-size="10.00">engine/SceneGraph/SceneGraph.cpp</text>
</g>
<!-- Node2 -->
<g id="node2" class="node"><title>Node2</title>
<polygon fill="none" stroke="#bfbfbf" points="0,-112.5 0,-131.5 107,-131.5 107,-112.5 0,-112.5"/>
<text text-anchor="middle" x="53.5" y="-119.5" font-family="Helvetica,sans-Serif" font-size="10.00">log4cpp/Category.hh</text>
</g>
<!-- Node1&#45;&gt;Node2 -->
<g id="edge1" class="edge"><title>Node1&#45;&gt;Node2</title>
<path fill="none" stroke="midnightblue" d="M210.869,-168.444C179,-159.241 128.167,-144.562 92.936,-134.388"/>
<polygon fill="midnightblue" stroke="midnightblue" points="93.5706,-130.928 82.9921,-131.516 91.6285,-137.653 93.5706,-130.928"/>
</g>
<!-- Node3 -->
<g id="node3" class="node"><title>Node3</title>
<g id="a_node3"><a xlink:href="../../d8/d58/SceneGraph_8hpp.html" target="_top" xlink:title="SceneGraph.hpp">
<polygon fill="none" stroke="black" points="256,-112.5 256,-131.5 345,-131.5 345,-112.5 256,-112.5"/>
<text text-anchor="middle" x="300.5" y="-119.5" font-family="Helvetica,sans-Serif" font-size="10.00">SceneGraph.hpp</text>
</a>
</g>
</g>
<!-- Node1&#45;&gt;Node3 -->
<g id="edge2" class="edge"><title>Node1&#45;&gt;Node3</title>
<path fill="none" stroke="midnightblue" d="M250.14,-168.324C259.01,-160.341 272.375,-148.313 283.108,-138.653"/>
<polygon fill="midnightblue" stroke="midnightblue" points="285.593,-141.125 290.685,-131.834 280.91,-135.922 285.593,-141.125"/>
</g>
<!-- Node5 -->
<g id="node5" class="node"><title>Node5</title>
<g id="a_node5"><a xlink:href="../../d1/d2f/SceneGraphNode_8hpp.html" target="_top" xlink:title="SceneGraphNode.hpp">
<polygon fill="none" stroke="black" points="125,-112.5 125,-131.5 238,-131.5 238,-112.5 125,-112.5"/>
<text text-anchor="middle" x="181.5" y="-119.5" font-family="Helvetica,sans-Serif" font-size="10.00">SceneGraphNode.hpp</text>
</a>
</g>
</g>
<!-- Node1&#45;&gt;Node5 -->
<g id="edge4" class="edge"><title>Node1&#45;&gt;Node5</title>
<path fill="none" stroke="midnightblue" d="M231.021,-168.324C222.299,-160.341 209.157,-148.313 198.602,-138.653"/>
<polygon fill="midnightblue" stroke="midnightblue" points="200.892,-136.004 191.152,-131.834 196.166,-141.167 200.892,-136.004"/>
</g>
<!-- Node12 -->
<g id="node12" class="node"><title>Node12</title>
<g id="a_node12"><a xlink:href="../../d0/d06/AssimpScene_8hpp.html" target="_top" xlink:title="AssimpScene.hpp">
<polygon fill="none" stroke="black" points="363.5,-112.5 363.5,-131.5 459.5,-131.5 459.5,-112.5 363.5,-112.5"/>
<text text-anchor="middle" x="411.5" y="-119.5" font-family="Helvetica,sans-Serif" font-size="10.00">AssimpScene.hpp</text>
</a>
</g>
</g>
<!-- Node1&#45;&gt;Node12 -->
<g id="edge12" class="edge"><title>Node1&#45;&gt;Node12</title>
<path fill="none" stroke="midnightblue" d="M267.595,-168.444C296.488,-159.32 342.425,-144.813 374.605,-134.651"/>
<polygon fill="midnightblue" stroke="midnightblue" points="376.049,-137.865 384.531,-131.516 373.941,-131.19 376.049,-137.865"/>
</g>
<!-- Node4 -->
<g id="node4" class="node"><title>Node4</title>
<polygon fill="none" stroke="#bfbfbf" points="273.5,-56.5 273.5,-75.5 359.5,-75.5 359.5,-56.5 273.5,-56.5"/>
<text text-anchor="middle" x="316.5" y="-63.5" font-family="Helvetica,sans-Serif" font-size="10.00">assimp/scene.h</text>
</g>
<!-- Node3&#45;&gt;Node4 -->
<g id="edge3" class="edge"><title>Node3&#45;&gt;Node4</title>
<path fill="none" stroke="midnightblue" d="M303.142,-112.083C305.286,-104.849 308.379,-94.4087 311.049,-85.3968"/>
<polygon fill="midnightblue" stroke="midnightblue" points="314.422,-86.3334 313.907,-75.7511 307.71,-84.3447 314.422,-86.3334"/>
</g>
<!-- Node5&#45;&gt;Node4 -->
<g id="edge7" class="edge"><title>Node5&#45;&gt;Node4</title>
<path fill="none" stroke="midnightblue" d="M202.891,-112.444C225.207,-103.517 260.403,-89.4387 285.708,-79.3168"/>
<polygon fill="midnightblue" stroke="midnightblue" points="287.224,-82.4801 295.209,-75.5164 284.624,-75.9807 287.224,-82.4801"/>
</g>
<!-- Node6 -->
<g id="node6" class="node"><title>Node6</title>
<polygon fill="none" stroke="#bfbfbf" points="69,-56.5 69,-75.5 110,-75.5 110,-56.5 69,-56.5"/>
<text text-anchor="middle" x="89.5" y="-63.5" font-family="Helvetica,sans-Serif" font-size="10.00">string</text>
</g>
<!-- Node5&#45;&gt;Node6 -->
<g id="edge5" class="edge"><title>Node5&#45;&gt;Node6</title>
<path fill="none" stroke="midnightblue" d="M166.719,-112.324C152.233,-103.822 129.927,-90.7288 113.007,-80.7975"/>
<polygon fill="midnightblue" stroke="midnightblue" points="114.641,-77.6981 104.245,-75.6545 111.097,-83.735 114.641,-77.6981"/>
</g>
<!-- Node7 -->
<g id="node7" class="node"><title>Node7</title>
<polygon fill="none" stroke="#bfbfbf" points="128,-56.5 128,-75.5 157,-75.5 157,-56.5 128,-56.5"/>
<text text-anchor="middle" x="142.5" y="-63.5" font-family="Helvetica,sans-Serif" font-size="10.00">list</text>
</g>
<!-- Node5&#45;&gt;Node7 -->
<g id="edge6" class="edge"><title>Node5&#45;&gt;Node7</title>
<path fill="none" stroke="midnightblue" d="M175.06,-112.083C169.551,-104.455 161.469,-93.2645 154.735,-83.9408"/>
<polygon fill="midnightblue" stroke="midnightblue" points="157.513,-81.8087 148.82,-75.7511 151.838,-85.9071 157.513,-81.8087"/>
</g>
<!-- Node8 -->
<g id="node8" class="node"><title>Node8</title>
<g id="a_node8"><a xlink:href="../../da/d83/Transform_8hpp.html" target="_top" xlink:title="Transform.hpp">
<polygon fill="none" stroke="black" points="175.5,-56.5 175.5,-75.5 255.5,-75.5 255.5,-56.5 175.5,-56.5"/>
<text text-anchor="middle" x="215.5" y="-63.5" font-family="Helvetica,sans-Serif" font-size="10.00">Transform.hpp</text>
</a>
</g>
</g>
<!-- Node5&#45;&gt;Node8 -->
<g id="edge8" class="edge"><title>Node5&#45;&gt;Node8</title>
<path fill="none" stroke="midnightblue" d="M187.114,-112.083C191.867,-104.534 198.818,-93.4948 204.652,-84.2298"/>
<polygon fill="midnightblue" stroke="midnightblue" points="207.624,-86.0783 209.99,-75.7511 201.7,-82.3486 207.624,-86.0783"/>
</g>
<!-- Node9 -->
<g id="node9" class="node"><title>Node9</title>
<polygon fill="none" stroke="#bfbfbf" points="81.5,-0.5 81.5,-19.5 151.5,-19.5 151.5,-0.5 81.5,-0.5"/>
<text text-anchor="middle" x="116.5" y="-7.5" font-family="Helvetica,sans-Serif" font-size="10.00">glm/glm.hpp</text>
</g>
<!-- Node8&#45;&gt;Node9 -->
<g id="edge9" class="edge"><title>Node8&#45;&gt;Node9</title>
<path fill="none" stroke="midnightblue" d="M199.594,-56.324C183.862,-47.7428 159.558,-34.486 141.291,-24.5224"/>
<polygon fill="midnightblue" stroke="midnightblue" points="142.822,-21.3704 132.367,-19.6545 139.47,-27.5157 142.822,-21.3704"/>
</g>
<!-- Node10 -->
<g id="node10" class="node"><title>Node10</title>
<polygon fill="none" stroke="#bfbfbf" points="169.5,-0.5 169.5,-19.5 261.5,-19.5 261.5,-0.5 169.5,-0.5"/>
<text text-anchor="middle" x="215.5" y="-7.5" font-family="Helvetica,sans-Serif" font-size="10.00">assimp/vector3.h</text>
</g>
<!-- Node8&#45;&gt;Node10 -->
<g id="edge10" class="edge"><title>Node8&#45;&gt;Node10</title>
<path fill="none" stroke="midnightblue" d="M215.5,-56.083C215.5,-49.0059 215.5,-38.8611 215.5,-29.9865"/>
<polygon fill="midnightblue" stroke="midnightblue" points="219,-29.751 215.5,-19.7511 212,-29.7511 219,-29.751"/>
</g>
<!-- Node11 -->
<g id="node11" class="node"><title>Node11</title>
<polygon fill="none" stroke="#bfbfbf" points="279.5,-0.5 279.5,-19.5 381.5,-19.5 381.5,-0.5 279.5,-0.5"/>
<text text-anchor="middle" x="330.5" y="-7.5" font-family="Helvetica,sans-Serif" font-size="10.00">assimp/matrix4x4.h</text>
</g>
<!-- Node8&#45;&gt;Node11 -->
<g id="edge11" class="edge"><title>Node8&#45;&gt;Node11</title>
<path fill="none" stroke="midnightblue" d="M233.722,-56.4435C252.396,-47.6751 281.656,-33.9355 303.117,-23.8579"/>
<polygon fill="midnightblue" stroke="midnightblue" points="304.799,-26.935 312.363,-19.5164 301.824,-20.5988 304.799,-26.935"/>
</g>
<!-- Node12&#45;&gt;Node4 -->
<g id="edge13" class="edge"><title>Node12&#45;&gt;Node4</title>
<path fill="none" stroke="midnightblue" d="M396.237,-112.324C381.279,-103.822 358.245,-90.7288 340.773,-80.7975"/>
<polygon fill="midnightblue" stroke="midnightblue" points="342.149,-77.5534 331.726,-75.6545 338.69,-83.639 342.149,-77.5534"/>
</g>
<!-- Node13 -->
<g id="node13" class="node"><title>Node13</title>
<polygon fill="none" stroke="#bfbfbf" points="394,-56.5 394,-75.5 429,-75.5 429,-56.5 394,-56.5"/>
<text text-anchor="middle" x="411.5" y="-63.5" font-family="Helvetica,sans-Serif" font-size="10.00">map</text>
</g>
<!-- Node12&#45;&gt;Node13 -->
<g id="edge14" class="edge"><title>Node12&#45;&gt;Node13</title>
<path fill="none" stroke="midnightblue" d="M411.5,-112.083C411.5,-105.006 411.5,-94.8611 411.5,-85.9865"/>
<polygon fill="midnightblue" stroke="midnightblue" points="415,-85.751 411.5,-75.7511 408,-85.7511 415,-85.751"/>
</g>
</g>
</svg>
