<?xml version="1.0" encoding="UTF-8" standalone="no"?>
<!DOCTYPE svg PUBLIC "-//W3C//DTD SVG 1.1//EN"
 "http://www.w3.org/Graphics/SVG/1.1/DTD/svg11.dtd">
<!-- Generated by graphviz version 2.38.0 (20140413.2041)
 -->
<!-- Title: window/glwidget.cpp Pages: 1 -->
<svg width="436pt" height="196pt"
 viewBox="0.00 0.00 435.50 196.00" xmlns="http://www.w3.org/2000/svg" xmlns:xlink="http://www.w3.org/1999/xlink">
<g id="graph0" class="graph" transform="scale(1 1) rotate(0) translate(4 192)">
<title>window/glwidget.cpp</title>
<!-- Node1 -->
<g id="node1" class="node"><title>Node1</title>
<polygon fill="#bfbfbf" stroke="black" points="68.5,-168.5 68.5,-187.5 175.5,-187.5 175.5,-168.5 68.5,-168.5"/>
<text text-anchor="middle" x="122" y="-175.5" font-family="Helvetica,sans-Serif" font-size="10.00">window/glwidget.cpp</text>
</g>
<!-- Node2 -->
<g id="node2" class="node"><title>Node2</title>
<g id="a_node2"><a xlink:href="../../dd/d31/glwidget_8h.html" target="_top" xlink:title="glwidget.h">
<polygon fill="none" stroke="black" points="91.5,-112.5 91.5,-131.5 152.5,-131.5 152.5,-112.5 91.5,-112.5"/>
<text text-anchor="middle" x="122" y="-119.5" font-family="Helvetica,sans-Serif" font-size="10.00">glwidget.h</text>
</a>
</g>
</g>
<!-- Node1&#45;&gt;Node2 -->
<g id="edge1" class="edge"><title>Node1&#45;&gt;Node2</title>
<path fill="none" stroke="midnightblue" d="M122,-168.083C122,-161.006 122,-150.861 122,-141.986"/>
<polygon fill="midnightblue" stroke="midnightblue" points="125.5,-141.751 122,-131.751 118.5,-141.751 125.5,-141.751"/>
</g>
<!-- Node3 -->
<g id="node3" class="node"><title>Node3</title>
<polygon fill="none" stroke="#bfbfbf" points="11,-56.5 11,-75.5 79,-75.5 79,-56.5 11,-56.5"/>
<text text-anchor="middle" x="45" y="-63.5" font-family="Helvetica,sans-Serif" font-size="10.00">QGLWidget</text>
</g>
<!-- Node2&#45;&gt;Node3 -->
<g id="edge2" class="edge"><title>Node2&#45;&gt;Node3</title>
<path fill="none" stroke="midnightblue" d="M109.629,-112.324C97.8415,-104.058 79.8677,-91.4527 65.8645,-81.6322"/>
<polygon fill="midnightblue" stroke="midnightblue" points="67.5376,-78.5307 57.3407,-75.6545 63.5184,-84.2619 67.5376,-78.5307"/>
</g>
<!-- Node4 -->
<g id="node4" class="node"><title>Node4</title>
<polygon fill="none" stroke="#bfbfbf" points="97.5,-56.5 97.5,-75.5 146.5,-75.5 146.5,-56.5 97.5,-56.5"/>
<text text-anchor="middle" x="122" y="-63.5" font-family="Helvetica,sans-Serif" font-size="10.00">QTimer</text>
</g>
<!-- Node2&#45;&gt;Node4 -->
<g id="edge3" class="edge"><title>Node2&#45;&gt;Node4</title>
<path fill="none" stroke="midnightblue" d="M122,-112.083C122,-105.006 122,-94.8611 122,-85.9865"/>
<polygon fill="midnightblue" stroke="midnightblue" points="125.5,-85.751 122,-75.7511 118.5,-85.7511 125.5,-85.751"/>
</g>
<!-- Node5 -->
<g id="node5" class="node"><title>Node5</title>
<g id="a_node5"><a xlink:href="../../d5/da5/tools_8h.html" target="_top" xlink:title="model/tools.h">
<polygon fill="none" stroke="black" points="164.5,-56.5 164.5,-75.5 239.5,-75.5 239.5,-56.5 164.5,-56.5"/>
<text text-anchor="middle" x="202" y="-63.5" font-family="Helvetica,sans-Serif" font-size="10.00">model/tools.h</text>
</a>
</g>
</g>
<!-- Node2&#45;&gt;Node5 -->
<g id="edge4" class="edge"><title>Node2&#45;&gt;Node5</title>
<path fill="none" stroke="midnightblue" d="M134.853,-112.324C147.216,-103.979 166.13,-91.2122 180.737,-81.3524"/>
<polygon fill="midnightblue" stroke="midnightblue" points="182.848,-84.1503 189.179,-75.6545 178.932,-78.3483 182.848,-84.1503"/>
</g>
<!-- Node6 -->
<g id="node6" class="node"><title>Node6</title>
<polygon fill="none" stroke="#bfbfbf" points="0,-0.5 0,-19.5 50,-19.5 50,-0.5 0,-0.5"/>
<text text-anchor="middle" x="25" y="-7.5" font-family="Helvetica,sans-Serif" font-size="10.00">QString</text>
</g>
<!-- Node5&#45;&gt;Node6 -->
<g id="edge5" class="edge"><title>Node5&#45;&gt;Node6</title>
<path fill="none" stroke="midnightblue" d="M173.954,-56.4435C143.035,-47.0106 93.258,-31.8245 59.8549,-21.6337"/>
<polygon fill="midnightblue" stroke="midnightblue" points="60.6393,-18.2138 50.0531,-18.6433 58.5966,-24.9091 60.6393,-18.2138"/>
</g>
<!-- Node7 -->
<g id="node7" class="node"><title>Node7</title>
<polygon fill="none" stroke="#bfbfbf" points="68.5,-0.5 68.5,-19.5 133.5,-19.5 133.5,-0.5 68.5,-0.5"/>
<text text-anchor="middle" x="101" y="-7.5" font-family="Helvetica,sans-Serif" font-size="10.00">QVector3D</text>
</g>
<!-- Node5&#45;&gt;Node7 -->
<g id="edge6" class="edge"><title>Node5&#45;&gt;Node7</title>
<path fill="none" stroke="midnightblue" d="M185.773,-56.324C169.649,-47.7034 144.7,-34.3643 126.036,-24.3855"/>
<polygon fill="midnightblue" stroke="midnightblue" points="127.656,-21.283 117.187,-19.6545 124.356,-27.456 127.656,-21.283"/>
</g>
<!-- Node8 -->
<g id="node8" class="node"><title>Node8</title>
<polygon fill="none" stroke="#bfbfbf" points="152,-0.5 152,-19.5 192,-19.5 192,-0.5 152,-0.5"/>
<text text-anchor="middle" x="172" y="-7.5" font-family="Helvetica,sans-Serif" font-size="10.00">QList</text>
</g>
<!-- Node5&#45;&gt;Node8 -->
<g id="edge7" class="edge"><title>Node5&#45;&gt;Node8</title>
<path fill="none" stroke="midnightblue" d="M197.046,-56.083C192.896,-48.6127 186.847,-37.7244 181.733,-28.5199"/>
<polygon fill="midnightblue" stroke="midnightblue" points="184.778,-26.7929 176.862,-19.7511 178.659,-30.1924 184.778,-26.7929"/>
</g>
<!-- Node9 -->
<g id="node9" class="node"><title>Node9</title>
<polygon fill="none" stroke="#bfbfbf" points="210.5,-0.5 210.5,-19.5 253.5,-19.5 253.5,-0.5 210.5,-0.5"/>
<text text-anchor="middle" x="232" y="-7.5" font-family="Helvetica,sans-Serif" font-size="10.00">QMap</text>
</g>
<!-- Node5&#45;&gt;Node9 -->
<g id="edge8" class="edge"><title>Node5&#45;&gt;Node9</title>
<path fill="none" stroke="midnightblue" d="M206.954,-56.083C211.104,-48.6127 217.153,-37.7244 222.267,-28.5199"/>
<polygon fill="midnightblue" stroke="midnightblue" points="225.341,-30.1924 227.138,-19.7511 219.222,-26.7929 225.341,-30.1924"/>
</g>
<!-- Node10 -->
<g id="node10" class="node"><title>Node10</title>
<polygon fill="none" stroke="#bfbfbf" points="271.5,-0.5 271.5,-19.5 362.5,-19.5 362.5,-0.5 271.5,-0.5"/>
<text text-anchor="middle" x="317" y="-7.5" font-family="Helvetica,sans-Serif" font-size="10.00">QGraphicsScene</text>
</g>
<!-- Node5&#45;&gt;Node10 -->
<g id="edge9" class="edge"><title>Node5&#45;&gt;Node10</title>
<path fill="none" stroke="midnightblue" d="M220.222,-56.4435C238.896,-47.6751 268.156,-33.9355 289.617,-23.8579"/>
<polygon fill="midnightblue" stroke="midnightblue" points="291.299,-26.935 298.863,-19.5164 288.324,-20.5988 291.299,-26.935"/>
</g>
<!-- Node11 -->
<g id="node11" class="node"><title>Node11</title>
<polygon fill="none" stroke="#bfbfbf" points="380.5,-0.5 380.5,-19.5 427.5,-19.5 427.5,-0.5 380.5,-0.5"/>
<text text-anchor="middle" x="404" y="-7.5" font-family="Helvetica,sans-Serif" font-size="10.00">math.h</text>
</g>
<!-- Node5&#45;&gt;Node11 -->
<g id="edge10" class="edge"><title>Node5&#45;&gt;Node11</title>
<path fill="none" stroke="midnightblue" d="M234.948,-56.439C267.217,-48.019 318.036,-34.6652 370.445,-20.3984"/>
<polygon fill="midnightblue" stroke="midnightblue" points="371.519,-23.7333 380.246,-17.7248 369.677,-16.9801 371.519,-23.7333"/>
</g>
</g>
</svg>
