<?xml version="1.0" encoding="UTF-8" standalone="no"?>
<!DOCTYPE svg PUBLIC "-//W3C//DTD SVG 1.1//EN"
 "http://www.w3.org/Graphics/SVG/1.1/DTD/svg11.dtd">
<!-- Generated by graphviz version 2.38.0 (20140413.2041)
 -->
<!-- Title: engine/Scene/Scene.cpp Pages: 1 -->
<svg width="911pt" height="420pt"
 viewBox="0.00 0.00 910.71 420.00" xmlns="http://www.w3.org/2000/svg" xmlns:xlink="http://www.w3.org/1999/xlink">
<g id="graph0" class="graph" transform="scale(1 1) rotate(0) translate(4 416)">
<title>engine/Scene/Scene.cpp</title>
<!-- Node1 -->
<g id="node1" class="node"><title>Node1</title>
<polygon fill="#bfbfbf" stroke="black" points="123.5,-392.5 123.5,-411.5 248.5,-411.5 248.5,-392.5 123.5,-392.5"/>
<text text-anchor="middle" x="186" y="-399.5" font-family="Helvetica,sans-Serif" font-size="10.00">engine/Scene/Scene.cpp</text>
</g>
<!-- Node2 -->
<g id="node2" class="node"><title>Node2</title>
<polygon fill="none" stroke="#bfbfbf" points="117,-56.5 117,-75.5 187,-75.5 187,-56.5 117,-56.5"/>
<text text-anchor="middle" x="152" y="-63.5" font-family="Helvetica,sans-Serif" font-size="10.00">glm/glm.hpp</text>
</g>
<!-- Node1&#45;&gt;Node2 -->
<g id="edge1" class="edge"><title>Node1&#45;&gt;Node2</title>
<path fill="none" stroke="midnightblue" d="M131.451,-392.485C76.5674,-380.451 0,-352.62 0,-291 0,-291 0,-291 0,-177 0,-123.437 62.7119,-93.2997 107.573,-78.5935"/>
<polygon fill="midnightblue" stroke="midnightblue" points="108.63,-81.9301 117.128,-75.6023 106.539,-75.2497 108.63,-81.9301"/>
</g>
<!-- Node3 -->
<g id="node3" class="node"><title>Node3</title>
<polygon fill="none" stroke="#bfbfbf" points="119,-336.5 119,-355.5 175,-355.5 175,-336.5 119,-336.5"/>
<text text-anchor="middle" x="147" y="-343.5" font-family="Helvetica,sans-Serif" font-size="10.00">algorithm</text>
</g>
<!-- Node1&#45;&gt;Node3 -->
<g id="edge2" class="edge"><title>Node1&#45;&gt;Node3</title>
<path fill="none" stroke="midnightblue" d="M179.56,-392.083C174.051,-384.455 165.969,-373.264 159.235,-363.941"/>
<polygon fill="midnightblue" stroke="midnightblue" points="162.013,-361.809 153.32,-355.751 156.338,-365.907 162.013,-361.809"/>
</g>
<!-- Node4 -->
<g id="node4" class="node"><title>Node4</title>
<g id="a_node4"><a xlink:href="../../db/de8/Scene_8hpp.html" target="_top" xlink:title="Scene.hpp">
<polygon fill="none" stroke="black" points="193.5,-336.5 193.5,-355.5 256.5,-355.5 256.5,-336.5 193.5,-336.5"/>
<text text-anchor="middle" x="225" y="-343.5" font-family="Helvetica,sans-Serif" font-size="10.00">Scene.hpp</text>
</a>
</g>
</g>
<!-- Node1&#45;&gt;Node4 -->
<g id="edge3" class="edge"><title>Node1&#45;&gt;Node4</title>
<path fill="none" stroke="midnightblue" d="M192.44,-392.083C197.949,-384.455 206.031,-373.264 212.765,-363.941"/>
<polygon fill="midnightblue" stroke="midnightblue" points="215.662,-365.907 218.68,-355.751 209.987,-361.809 215.662,-365.907"/>
</g>
<!-- Node21 -->
<g id="node21" class="node"><title>Node21</title>
<g id="a_node21"><a xlink:href="../../d4/dd0/Cube_8hpp.html" target="_top" xlink:title="Cube.hpp">
<polygon fill="none" stroke="black" points="286.5,-336.5 286.5,-355.5 345.5,-355.5 345.5,-336.5 286.5,-336.5"/>
<text text-anchor="middle" x="316" y="-343.5" font-family="Helvetica,sans-Serif" font-size="10.00">Cube.hpp</text>
</a>
</g>
</g>
<!-- Node1&#45;&gt;Node21 -->
<g id="edge38" class="edge"><title>Node1&#45;&gt;Node21</title>
<path fill="none" stroke="midnightblue" d="M206.599,-392.444C227.993,-383.557 261.681,-369.563 286.024,-359.451"/>
<polygon fill="midnightblue" stroke="midnightblue" points="287.605,-362.585 295.497,-355.516 284.92,-356.12 287.605,-362.585"/>
</g>
<!-- Node5 -->
<g id="node5" class="node"><title>Node5</title>
<polygon fill="none" stroke="#bfbfbf" points="667,-56.5 667,-75.5 719,-75.5 719,-56.5 667,-56.5"/>
<text text-anchor="middle" x="693" y="-63.5" font-family="Helvetica,sans-Serif" font-size="10.00">memory</text>
</g>
<!-- Node4&#45;&gt;Node5 -->
<g id="edge4" class="edge"><title>Node4&#45;&gt;Node5</title>
<path fill="none" stroke="midnightblue" d="M256.614,-339.47C263.341,-338.31 270.403,-337.104 277,-336 415.761,-312.781 902,-375.691 902,-235 902,-235 902,-235 902,-177 902,-146.902 904.827,-132.724 883,-112 861.185,-91.2876 778.299,-77.6657 729.504,-71.2579"/>
<polygon fill="midnightblue" stroke="midnightblue" points="729.713,-67.7564 719.351,-69.964 728.828,-74.7002 729.713,-67.7564"/>
</g>
<!-- Node6 -->
<g id="node6" class="node"><title>Node6</title>
<polygon fill="none" stroke="#bfbfbf" points="270.5,-280.5 270.5,-299.5 299.5,-299.5 299.5,-280.5 270.5,-280.5"/>
<text text-anchor="middle" x="285" y="-287.5" font-family="Helvetica,sans-Serif" font-size="10.00">list</text>
</g>
<!-- Node4&#45;&gt;Node6 -->
<g id="edge5" class="edge"><title>Node4&#45;&gt;Node6</title>
<path fill="none" stroke="midnightblue" d="M234.64,-336.324C243.51,-328.341 256.875,-316.313 267.608,-306.653"/>
<polygon fill="midnightblue" stroke="midnightblue" points="270.093,-309.125 275.185,-299.834 265.41,-303.922 270.093,-309.125"/>
</g>
<!-- Node7 -->
<g id="node7" class="node"><title>Node7</title>
<g id="a_node7"><a xlink:href="../../d4/db5/GameObject_8hpp.html" target="_top" xlink:title="GameObject.hpp">
<polygon fill="none" stroke="black" points="282,-224.5 282,-243.5 372,-243.5 372,-224.5 282,-224.5"/>
<text text-anchor="middle" x="327" y="-231.5" font-family="Helvetica,sans-Serif" font-size="10.00">GameObject.hpp</text>
</a>
</g>
</g>
<!-- Node4&#45;&gt;Node7 -->
<g id="edge6" class="edge"><title>Node4&#45;&gt;Node7</title>
<path fill="none" stroke="midnightblue" d="M213.774,-336.426C198.396,-323.63 174.175,-299.007 188,-280 207.102,-253.738 241.863,-242.489 271.843,-237.805"/>
<polygon fill="midnightblue" stroke="midnightblue" points="272.357,-241.267 281.797,-236.456 271.417,-234.33 272.357,-241.267"/>
</g>
<!-- Node19 -->
<g id="node19" class="node"><title>Node19</title>
<g id="a_node19"><a xlink:href="../../d6/d80/Camera_8hpp.html" target="_top" xlink:title="Camera.hpp">
<polygon fill="none" stroke="black" points="71,-280.5 71,-299.5 141,-299.5 141,-280.5 71,-280.5"/>
<text text-anchor="middle" x="106" y="-287.5" font-family="Helvetica,sans-Serif" font-size="10.00">Camera.hpp</text>
</a>
</g>
</g>
<!-- Node4&#45;&gt;Node19 -->
<g id="edge33" class="edge"><title>Node4&#45;&gt;Node19</title>
<path fill="none" stroke="midnightblue" d="M206.144,-336.444C186.734,-327.636 156.27,-313.812 134.035,-303.722"/>
<polygon fill="midnightblue" stroke="midnightblue" points="135.32,-300.462 124.768,-299.516 132.428,-306.836 135.32,-300.462"/>
</g>
<!-- Node20 -->
<g id="node20" class="node"><title>Node20</title>
<g id="a_node20"><a xlink:href="../../d5/dd5/Light_8hpp.html" target="_top" xlink:title="Light.hpp">
<polygon fill="none" stroke="black" points="197,-280.5 197,-299.5 253,-299.5 253,-280.5 197,-280.5"/>
<text text-anchor="middle" x="225" y="-287.5" font-family="Helvetica,sans-Serif" font-size="10.00">Light.hpp</text>
</a>
</g>
</g>
<!-- Node4&#45;&gt;Node20 -->
<g id="edge37" class="edge"><title>Node4&#45;&gt;Node20</title>
<path fill="none" stroke="midnightblue" d="M225,-336.083C225,-329.006 225,-318.861 225,-309.986"/>
<polygon fill="midnightblue" stroke="midnightblue" points="228.5,-309.751 225,-299.751 221.5,-309.751 228.5,-309.751"/>
</g>
<!-- Node7&#45;&gt;Node2 -->
<g id="edge7" class="edge"><title>Node7&#45;&gt;Node2</title>
<path fill="none" stroke="midnightblue" d="M294.946,-224.43C254.404,-211.708 186.133,-183.588 155,-132 146.701,-118.248 146.695,-99.72 148.331,-85.9642"/>
<polygon fill="midnightblue" stroke="midnightblue" points="151.842,-86.1646 149.944,-75.7412 144.928,-85.0731 151.842,-86.1646"/>
</g>
<!-- Node7&#45;&gt;Node5 -->
<g id="edge8" class="edge"><title>Node7&#45;&gt;Node5</title>
<path fill="none" stroke="midnightblue" d="M372.073,-233.874C446.521,-232.69 594.718,-218.767 673,-132 684.483,-119.272 689.374,-100.074 691.457,-85.839"/>
<polygon fill="midnightblue" stroke="midnightblue" points="694.957,-86.0336 692.597,-75.7049 688.001,-85.2507 694.957,-86.0336"/>
</g>
<!-- Node8 -->
<g id="node8" class="node"><title>Node8</title>
<g id="a_node8"><a xlink:href="../../de/df7/worldparticles_8hpp.html" target="_top" xlink:title="wordparticles configuration file ">
<polygon fill="none" stroke="black" points="778.5,-112.5 778.5,-131.5 873.5,-131.5 873.5,-112.5 778.5,-112.5"/>
<text text-anchor="middle" x="826" y="-119.5" font-family="Helvetica,sans-Serif" font-size="10.00">worldparticles.hpp</text>
</a>
</g>
</g>
<!-- Node7&#45;&gt;Node8 -->
<g id="edge9" class="edge"><title>Node7&#45;&gt;Node8</title>
<path fill="none" stroke="midnightblue" d="M372.207,-231.619C485.315,-227.765 773.875,-215.336 807,-188 820.44,-176.908 824.686,-156.871 825.879,-141.965"/>
<polygon fill="midnightblue" stroke="midnightblue" points="829.384,-141.936 826.298,-131.8 822.389,-141.647 829.384,-141.936"/>
</g>
<!-- Node9 -->
<g id="node9" class="node"><title>Node9</title>
<g id="a_node9"><a xlink:href="../../da/d83/Transform_8hpp.html" target="_top" xlink:title="Transform.hpp">
<polygon fill="none" stroke="black" points="66,-168.5 66,-187.5 146,-187.5 146,-168.5 66,-168.5"/>
<text text-anchor="middle" x="106" y="-175.5" font-family="Helvetica,sans-Serif" font-size="10.00">Transform.hpp</text>
</a>
</g>
</g>
<!-- Node7&#45;&gt;Node9 -->
<g id="edge10" class="edge"><title>Node7&#45;&gt;Node9</title>
<path fill="none" stroke="midnightblue" d="M291.982,-224.444C253.752,-215.102 192.433,-200.119 150.743,-189.933"/>
<polygon fill="midnightblue" stroke="midnightblue" points="151.399,-186.49 140.854,-187.516 149.738,-193.29 151.399,-186.49"/>
</g>
<!-- Node10 -->
<g id="node10" class="node"><title>Node10</title>
<g id="a_node10"><a xlink:href="../../d1/dca/IRenderer_8hpp.html" target="_top" xlink:title="IRenderer.hpp">
<polygon fill="none" stroke="black" points="720,-168.5 720,-187.5 798,-187.5 798,-168.5 720,-168.5"/>
<text text-anchor="middle" x="759" y="-175.5" font-family="Helvetica,sans-Serif" font-size="10.00">IRenderer.hpp</text>
</a>
</g>
</g>
<!-- Node7&#45;&gt;Node10 -->
<g id="edge12" class="edge"><title>Node7&#45;&gt;Node10</title>
<path fill="none" stroke="midnightblue" d="M372.018,-228.392C443.107,-220.949 585.656,-205.351 706,-188 707.273,-187.816 708.563,-187.627 709.863,-187.432"/>
<polygon fill="midnightblue" stroke="midnightblue" points="710.619,-190.856 719.96,-185.857 709.54,-183.94 710.619,-190.856"/>
</g>
<!-- Node11 -->
<g id="node11" class="node"><title>Node11</title>
<g id="a_node11"><a xlink:href="../../d0/d70/Material_8hpp.html" target="_top" xlink:title="Material.hpp">
<polygon fill="none" stroke="black" points="462,-168.5 462,-187.5 532,-187.5 532,-168.5 462,-168.5"/>
<text text-anchor="middle" x="497" y="-175.5" font-family="Helvetica,sans-Serif" font-size="10.00">Material.hpp</text>
</a>
</g>
</g>
<!-- Node7&#45;&gt;Node11 -->
<g id="edge16" class="edge"><title>Node7&#45;&gt;Node11</title>
<path fill="none" stroke="midnightblue" d="M353.937,-224.444C382.66,-215.32 428.329,-200.813 460.321,-190.651"/>
<polygon fill="midnightblue" stroke="midnightblue" points="461.718,-193.88 470.189,-187.516 459.599,-187.208 461.718,-193.88"/>
</g>
<!-- Node16 -->
<g id="node16" class="node"><title>Node16</title>
<g id="a_node16"><a xlink:href="../../d1/d62/Mesh_8hpp.html" target="_top" xlink:title="Mesh.hpp">
<polygon fill="none" stroke="black" points="297.5,-168.5 297.5,-187.5 356.5,-187.5 356.5,-168.5 297.5,-168.5"/>
<text text-anchor="middle" x="327" y="-175.5" font-family="Helvetica,sans-Serif" font-size="10.00">Mesh.hpp</text>
</a>
</g>
</g>
<!-- Node7&#45;&gt;Node16 -->
<g id="edge25" class="edge"><title>Node7&#45;&gt;Node16</title>
<path fill="none" stroke="midnightblue" d="M327,-224.083C327,-217.006 327,-206.861 327,-197.986"/>
<polygon fill="midnightblue" stroke="midnightblue" points="330.5,-197.751 327,-187.751 323.5,-197.751 330.5,-197.751"/>
</g>
<!-- Node9&#45;&gt;Node2 -->
<g id="edge11" class="edge"><title>Node9&#45;&gt;Node2</title>
<path fill="none" stroke="midnightblue" d="M102.485,-168.121C97.9314,-155.151 91.5201,-130.553 100,-112 105.777,-99.3602 117.052,-88.911 127.631,-81.2737"/>
<polygon fill="midnightblue" stroke="midnightblue" points="129.849,-84.0009 136.217,-75.5333 125.958,-78.1817 129.849,-84.0009"/>
</g>
<!-- Node10&#45;&gt;Node2 -->
<g id="edge13" class="edge"><title>Node10&#45;&gt;Node2</title>
<path fill="none" stroke="midnightblue" d="M719.893,-171.362C668.188,-163.673 574.352,-148.906 495,-132 459.997,-124.543 452.005,-119.447 417,-112 340.403,-95.7056 250.356,-81.4371 197.407,-73.5402"/>
<polygon fill="midnightblue" stroke="midnightblue" points="197.731,-70.0502 187.326,-72.0471 196.705,-76.9746 197.731,-70.0502"/>
</g>
<!-- Node10&#45;&gt;Node5 -->
<g id="edge14" class="edge"><title>Node10&#45;&gt;Node5</title>
<path fill="none" stroke="midnightblue" d="M755.156,-168.346C749.399,-155.657 737.932,-131.406 726,-112 720.038,-102.303 712.597,-92.0274 706.29,-83.7473"/>
<polygon fill="midnightblue" stroke="midnightblue" points="708.914,-81.4194 700.016,-75.6676 703.385,-85.7126 708.914,-81.4194"/>
</g>
<!-- Node10&#45;&gt;Node8 -->
<g id="edge15" class="edge"><title>Node10&#45;&gt;Node8</title>
<path fill="none" stroke="midnightblue" d="M769.765,-168.324C779.766,-160.263 794.887,-148.077 806.93,-138.369"/>
<polygon fill="midnightblue" stroke="midnightblue" points="809.45,-140.834 815.039,-131.834 805.057,-135.384 809.45,-140.834"/>
</g>
<!-- Node11&#45;&gt;Node2 -->
<g id="edge17" class="edge"><title>Node11&#45;&gt;Node2</title>
<path fill="none" stroke="midnightblue" d="M484.763,-168.402C464.274,-154.418 421.3,-126.82 381,-112 319.485,-89.3782 244.274,-77.3775 197.238,-71.6077"/>
<polygon fill="midnightblue" stroke="midnightblue" points="197.41,-68.1037 187.068,-70.4036 196.587,-75.0552 197.41,-68.1037"/>
</g>
<!-- Node11&#45;&gt;Node5 -->
<g id="edge18" class="edge"><title>Node11&#45;&gt;Node5</title>
<path fill="none" stroke="midnightblue" d="M532.26,-173.603C565.411,-168.901 615.035,-157.827 650,-132 666.289,-119.968 678.23,-99.7865 685.338,-85.0978"/>
<polygon fill="midnightblue" stroke="midnightblue" points="688.717,-86.1214 689.654,-75.568 682.34,-83.2338 688.717,-86.1214"/>
</g>
<!-- Node12 -->
<g id="node12" class="node"><title>Node12</title>
<g id="a_node12"><a xlink:href="../../dc/ddb/ShaderProgram_8hpp.html" target="_top" xlink:title="ShaderProgram.hpp">
<polygon fill="none" stroke="black" points="504.5,-112.5 504.5,-131.5 607.5,-131.5 607.5,-112.5 504.5,-112.5"/>
<text text-anchor="middle" x="556" y="-119.5" font-family="Helvetica,sans-Serif" font-size="10.00">ShaderProgram.hpp</text>
</a>
</g>
</g>
<!-- Node11&#45;&gt;Node12 -->
<g id="edge19" class="edge"><title>Node11&#45;&gt;Node12</title>
<path fill="none" stroke="midnightblue" d="M506.479,-168.324C515.201,-160.341 528.343,-148.313 538.898,-138.653"/>
<polygon fill="midnightblue" stroke="midnightblue" points="541.334,-141.167 546.348,-131.834 536.608,-136.004 541.334,-141.167"/>
</g>
<!-- Node12&#45;&gt;Node2 -->
<g id="edge20" class="edge"><title>Node12&#45;&gt;Node2</title>
<path fill="none" stroke="midnightblue" d="M504.479,-113.958C499.586,-113.294 494.699,-112.633 490,-112 385.242,-97.884 262.183,-81.5671 197.318,-72.987"/>
<polygon fill="midnightblue" stroke="midnightblue" points="197.411,-69.469 187.039,-71.6277 196.494,-76.4086 197.411,-69.469"/>
</g>
<!-- Node12&#45;&gt;Node5 -->
<g id="edge22" class="edge"><title>Node12&#45;&gt;Node5</title>
<path fill="none" stroke="midnightblue" d="M577.708,-112.444C600.355,-103.517 636.072,-89.4387 661.752,-79.3168"/>
<polygon fill="midnightblue" stroke="midnightblue" points="663.374,-82.4397 671.394,-75.5164 660.807,-75.9273 663.374,-82.4397"/>
</g>
<!-- Node13 -->
<g id="node13" class="node"><title>Node13</title>
<polygon fill="none" stroke="#bfbfbf" points="378,-56.5 378,-75.5 422,-75.5 422,-56.5 378,-56.5"/>
<text text-anchor="middle" x="400" y="-63.5" font-family="Helvetica,sans-Serif" font-size="10.00">vector</text>
</g>
<!-- Node12&#45;&gt;Node13 -->
<g id="edge21" class="edge"><title>Node12&#45;&gt;Node13</title>
<path fill="none" stroke="midnightblue" d="M531.281,-112.444C504.383,-103.133 461.291,-88.2163 431.869,-78.0315"/>
<polygon fill="midnightblue" stroke="midnightblue" points="432.676,-74.607 422.081,-74.6433 430.386,-81.222 432.676,-74.607"/>
</g>
<!-- Node14 -->
<g id="node14" class="node"><title>Node14</title>
<g id="a_node14"><a xlink:href="../../d4/d6e/Shader_8hpp.html" target="_top" xlink:title="Shader.hpp">
<polygon fill="none" stroke="black" points="523,-56.5 523,-75.5 589,-75.5 589,-56.5 523,-56.5"/>
<text text-anchor="middle" x="556" y="-63.5" font-family="Helvetica,sans-Serif" font-size="10.00">Shader.hpp</text>
</a>
</g>
</g>
<!-- Node12&#45;&gt;Node14 -->
<g id="edge23" class="edge"><title>Node12&#45;&gt;Node14</title>
<path fill="none" stroke="midnightblue" d="M556,-112.083C556,-105.006 556,-94.8611 556,-85.9865"/>
<polygon fill="midnightblue" stroke="midnightblue" points="559.5,-85.751 556,-75.7511 552.5,-85.7511 559.5,-85.751"/>
</g>
<!-- Node15 -->
<g id="node15" class="node"><title>Node15</title>
<polygon fill="none" stroke="#bfbfbf" points="535.5,-0.5 535.5,-19.5 576.5,-19.5 576.5,-0.5 535.5,-0.5"/>
<text text-anchor="middle" x="556" y="-7.5" font-family="Helvetica,sans-Serif" font-size="10.00">string</text>
</g>
<!-- Node14&#45;&gt;Node15 -->
<g id="edge24" class="edge"><title>Node14&#45;&gt;Node15</title>
<path fill="none" stroke="midnightblue" d="M556,-56.083C556,-49.0059 556,-38.8611 556,-29.9865"/>
<polygon fill="midnightblue" stroke="midnightblue" points="559.5,-29.751 556,-19.7511 552.5,-29.7511 559.5,-29.751"/>
</g>
<!-- Node16&#45;&gt;Node2 -->
<g id="edge28" class="edge"><title>Node16&#45;&gt;Node2</title>
<path fill="none" stroke="midnightblue" d="M297.196,-176.61C262.26,-174.518 204.844,-165.724 171,-132 158.909,-119.951 154.421,-100.662 152.801,-86.2207"/>
<polygon fill="midnightblue" stroke="midnightblue" points="156.266,-85.6189 152.027,-75.9091 149.286,-86.1432 156.266,-85.6189"/>
</g>
<!-- Node16&#45;&gt;Node5 -->
<g id="edge27" class="edge"><title>Node16&#45;&gt;Node5</title>
<path fill="none" stroke="midnightblue" d="M356.765,-174.418C420.896,-168.526 570.028,-152.96 616,-132 640.981,-120.61 664.271,-98.7572 678.555,-83.5501"/>
<polygon fill="midnightblue" stroke="midnightblue" points="681.379,-85.6471 685.518,-75.8941 676.201,-80.9374 681.379,-85.6471"/>
</g>
<!-- Node16&#45;&gt;Node13 -->
<g id="edge26" class="edge"><title>Node16&#45;&gt;Node13</title>
<path fill="none" stroke="midnightblue" d="M341.46,-168.435C353.701,-160.469 370.831,-147.514 381,-132 390.164,-118.019 395.01,-99.5167 397.507,-85.8286"/>
<polygon fill="midnightblue" stroke="midnightblue" points="401.009,-86.0884 399.096,-75.6678 394.093,-85.0071 401.009,-86.0884"/>
</g>
<!-- Node17 -->
<g id="node17" class="node"><title>Node17</title>
<polygon fill="none" stroke="#bfbfbf" points="180.5,-112.5 180.5,-131.5 263.5,-131.5 263.5,-112.5 180.5,-112.5"/>
<text text-anchor="middle" x="222" y="-119.5" font-family="Helvetica,sans-Serif" font-size="10.00">assimp/mesh.h</text>
</g>
<!-- Node16&#45;&gt;Node17 -->
<g id="edge29" class="edge"><title>Node16&#45;&gt;Node17</title>
<path fill="none" stroke="midnightblue" d="M310.13,-168.324C293.291,-159.664 267.193,-146.242 247.762,-136.249"/>
<polygon fill="midnightblue" stroke="midnightblue" points="249.322,-133.116 238.828,-131.655 246.12,-139.341 249.322,-133.116"/>
</g>
<!-- Node18 -->
<g id="node18" class="node"><title>Node18</title>
<g id="a_node18"><a xlink:href="../../da/d04/BufferObject_8hpp.html" target="_top" xlink:title="BufferObject.hpp">
<polygon fill="none" stroke="black" points="282,-112.5 282,-131.5 372,-131.5 372,-112.5 282,-112.5"/>
<text text-anchor="middle" x="327" y="-119.5" font-family="Helvetica,sans-Serif" font-size="10.00">BufferObject.hpp</text>
</a>
</g>
</g>
<!-- Node16&#45;&gt;Node18 -->
<g id="edge30" class="edge"><title>Node16&#45;&gt;Node18</title>
<path fill="none" stroke="midnightblue" d="M327,-168.083C327,-161.006 327,-150.861 327,-141.986"/>
<polygon fill="midnightblue" stroke="midnightblue" points="330.5,-141.751 327,-131.751 323.5,-141.751 330.5,-141.751"/>
</g>
<!-- Node18&#45;&gt;Node2 -->
<g id="edge32" class="edge"><title>Node18&#45;&gt;Node2</title>
<path fill="none" stroke="midnightblue" d="M299.271,-112.444C269.574,-103.28 222.284,-88.6876 189.331,-78.5192"/>
<polygon fill="midnightblue" stroke="midnightblue" points="190.187,-75.1206 179.6,-75.5164 188.123,-81.8094 190.187,-75.1206"/>
</g>
<!-- Node18&#45;&gt;Node13 -->
<g id="edge31" class="edge"><title>Node18&#45;&gt;Node13</title>
<path fill="none" stroke="midnightblue" d="M338.729,-112.324C349.837,-104.107 366.742,-91.6017 379.983,-81.8069"/>
<polygon fill="midnightblue" stroke="midnightblue" points="382.1,-84.5948 388.058,-75.8339 377.937,-78.9671 382.1,-84.5948"/>
</g>
<!-- Node19&#45;&gt;Node2 -->
<g id="edge34" class="edge"><title>Node19&#45;&gt;Node2</title>
<path fill="none" stroke="midnightblue" d="M98.1978,-280.418C81.4402,-260.915 44.5038,-211.572 57,-168 65.0913,-139.787 72.1457,-133.616 92,-112 102.879,-100.155 117.228,-89.2649 129.165,-81.1651"/>
<polygon fill="midnightblue" stroke="midnightblue" points="131.287,-83.959 137.727,-75.5456 127.446,-78.107 131.287,-83.959"/>
</g>
<!-- Node19&#45;&gt;Node7 -->
<g id="edge36" class="edge"><title>Node19&#45;&gt;Node7</title>
<path fill="none" stroke="midnightblue" d="M141.018,-280.444C179.248,-271.102 240.567,-256.119 282.257,-245.933"/>
<polygon fill="midnightblue" stroke="midnightblue" points="283.262,-249.29 292.146,-243.516 281.601,-242.49 283.262,-249.29"/>
</g>
<!-- Node19&#45;&gt;Node9 -->
<g id="edge35" class="edge"><title>Node19&#45;&gt;Node9</title>
<path fill="none" stroke="midnightblue" d="M106,-280.368C106,-262.617 106,-221.666 106,-197.597"/>
<polygon fill="midnightblue" stroke="midnightblue" points="109.5,-197.591 106,-187.591 102.5,-197.591 109.5,-197.591"/>
</g>
<!-- Node21&#45;&gt;Node7 -->
<g id="edge39" class="edge"><title>Node21&#45;&gt;Node7</title>
<path fill="none" stroke="midnightblue" d="M316.863,-336.368C318.638,-318.617 322.733,-277.666 325.14,-253.597"/>
<polygon fill="midnightblue" stroke="midnightblue" points="328.628,-253.89 326.141,-243.591 321.663,-253.193 328.628,-253.89"/>
</g>
</g>
</svg>
