<?xml version="1.0" encoding="UTF-8" standalone="no"?>
<!DOCTYPE svg PUBLIC "-//W3C//DTD SVG 1.1//EN"
 "http://www.w3.org/Graphics/SVG/1.1/DTD/svg11.dtd">
<!-- Generated by graphviz version 2.38.0 (20140413.2041)
 -->
<!-- Title: Core/Scene.cpp Pages: 1 -->
<svg width="587pt" height="84pt"
 viewBox="0.00 0.00 586.50 84.00" xmlns="http://www.w3.org/2000/svg" xmlns:xlink="http://www.w3.org/1999/xlink">
<g id="graph0" class="graph" transform="scale(1 1) rotate(0) translate(4 80)">
<title>Core/Scene.cpp</title>
<!-- Node1 -->
<g id="node1" class="node"><title>Node1</title>
<polygon fill="#bfbfbf" stroke="black" points="171.5,-56.5 171.5,-75.5 258.5,-75.5 258.5,-56.5 171.5,-56.5"/>
<text text-anchor="middle" x="215" y="-63.5" font-family="Helvetica,sans-Serif" font-size="10.00">Core/Scene.cpp</text>
</g>
<!-- Node2 -->
<g id="node2" class="node"><title>Node2</title>
<polygon fill="none" stroke="#bfbfbf" points="0,-0.5 0,-19.5 70,-19.5 70,-0.5 0,-0.5"/>
<text text-anchor="middle" x="35" y="-7.5" font-family="Helvetica,sans-Serif" font-size="10.00">glm/glm.hpp</text>
</g>
<!-- Node1&#45;&gt;Node2 -->
<g id="edge1" class="edge"><title>Node1&#45;&gt;Node2</title>
<path fill="none" stroke="midnightblue" d="M186.478,-56.4435C155.934,-47.2801 107.292,-32.6876 73.3973,-22.5192"/>
<polygon fill="midnightblue" stroke="midnightblue" points="73.9721,-19.0376 63.3881,-19.5164 71.9606,-25.7424 73.9721,-19.0376"/>
</g>
<!-- Node3 -->
<g id="node3" class="node"><title>Node3</title>
<polygon fill="none" stroke="#bfbfbf" points="88,-0.5 88,-19.5 144,-19.5 144,-0.5 88,-0.5"/>
<text text-anchor="middle" x="116" y="-7.5" font-family="Helvetica,sans-Serif" font-size="10.00">algorithm</text>
</g>
<!-- Node1&#45;&gt;Node3 -->
<g id="edge2" class="edge"><title>Node1&#45;&gt;Node3</title>
<path fill="none" stroke="midnightblue" d="M199.094,-56.324C183.362,-47.7428 159.058,-34.486 140.791,-24.5224"/>
<polygon fill="midnightblue" stroke="midnightblue" points="142.322,-21.3704 131.867,-19.6545 138.97,-27.5157 142.322,-21.3704"/>
</g>
<!-- Node4 -->
<g id="node4" class="node"><title>Node4</title>
<polygon fill="none" stroke="#bfbfbf" points="161.5,-0.5 161.5,-19.5 268.5,-19.5 268.5,-0.5 161.5,-0.5"/>
<text text-anchor="middle" x="215" y="-7.5" font-family="Helvetica,sans-Serif" font-size="10.00">log4cpp/Category.hh</text>
</g>
<!-- Node1&#45;&gt;Node4 -->
<g id="edge3" class="edge"><title>Node1&#45;&gt;Node4</title>
<path fill="none" stroke="midnightblue" d="M215,-56.083C215,-49.0059 215,-38.8611 215,-29.9865"/>
<polygon fill="midnightblue" stroke="midnightblue" points="218.5,-29.751 215,-19.7511 211.5,-29.7511 218.5,-29.751"/>
</g>
<!-- Node5 -->
<g id="node5" class="node"><title>Node5</title>
<polygon fill="none" stroke="#bfbfbf" points="287,-0.5 287,-19.5 407,-19.5 407,-0.5 287,-0.5"/>
<text text-anchor="middle" x="347" y="-7.5" font-family="Helvetica,sans-Serif" font-size="10.00">Engine/Core/Scene.hpp</text>
</g>
<!-- Node1&#45;&gt;Node5 -->
<g id="edge4" class="edge"><title>Node1&#45;&gt;Node5</title>
<path fill="none" stroke="midnightblue" d="M235.916,-56.4435C257.736,-47.5171 292.15,-33.4387 316.892,-23.3168"/>
<polygon fill="midnightblue" stroke="midnightblue" points="318.252,-26.5422 326.182,-19.5164 315.601,-20.0634 318.252,-26.5422"/>
</g>
<!-- Node6 -->
<g id="node6" class="node"><title>Node6</title>
<polygon fill="none" stroke="#bfbfbf" points="425.5,-0.5 425.5,-19.5 578.5,-19.5 578.5,-0.5 425.5,-0.5"/>
<text text-anchor="middle" x="502" y="-7.5" font-family="Helvetica,sans-Serif" font-size="10.00">Engine/Core/AssimpScene.hpp</text>
</g>
<!-- Node1&#45;&gt;Node6 -->
<g id="edge5" class="edge"><title>Node1&#45;&gt;Node6</title>
<path fill="none" stroke="midnightblue" d="M258.589,-56.7986C308.929,-47.327 391.832,-31.7284 446.676,-21.4094"/>
<polygon fill="midnightblue" stroke="midnightblue" points="447.396,-24.8355 456.576,-19.5467 446.101,-17.9562 447.396,-24.8355"/>
</g>
</g>
</svg>
