<?xml version="1.0" encoding="UTF-8" standalone="no"?>
<!DOCTYPE svg PUBLIC "-//W3C//DTD SVG 1.1//EN"
 "http://www.w3.org/Graphics/SVG/1.1/DTD/svg11.dtd">
<!-- Generated by graphviz version 2.38.0 (20140413.2041)
 -->
<!-- Title: engine/Scene/Scene.cpp Pages: 1 -->
<!--zoomable 308 -->
<svg id="main" version="1.1" xmlns="http://www.w3.org/2000/svg" xmlns:xlink="http://www.w3.org/1999/xlink" xml:space="preserve" onload="init(evt)">
<style type="text/css"><![CDATA[
.edge:hover path { stroke: red; }
.edge:hover polygon { stroke: red; fill: red; }
]]></style>
<script type="text/javascript"><![CDATA[
var edges = document.getElementsByTagName('g');
if (edges && edges.length) {
  for (var i=0;i<edges.length;i++) {
    if (edges[i].id.substr(0,4)=='edge') {
      edges[i].setAttribute('class','edge');
    }
  }
}
]]></script>
        <defs>
                <circle id="rim" cx="0" cy="0" r="7"/>
                <circle id="rim2" cx="0" cy="0" r="3.5"/>
                <g id="zoomPlus">
                        <use xlink:href="#rim" fill="#404040">
                                <set attributeName="fill" to="#808080" begin="zoomplus.mouseover" end="zoomplus.mouseout"/>
                        </use>
                        <path d="M-4,0h8M0,-4v8" fill="none" stroke="white" stroke-width="1.5" pointer-events="none"/>
                </g>
                <g id="zoomMin">
                        <use xlink:href="#rim" fill="#404040">
                                <set attributeName="fill" to="#808080" begin="zoomminus.mouseover" end="zoomminus.mouseout"/>
                        </use>
                        <path d="M-4,0h8" fill="none" stroke="white" stroke-width="1.5" pointer-events="none"/>
                </g>
                <g id="dirArrow">
                        <path fill="none" stroke="white" stroke-width="1.5" d="M0,-3.0v7 M-2.5,-0.5L0,-3.0L2.5,-0.5"/>
                </g>
               <g id="resetDef">
                       <use xlink:href="#rim2" fill="#404040">
                               <set attributeName="fill" to="#808080" begin="reset.mouseover" end="reset.mouseout"/>
                       </use>
               </g>
        </defs>

<script type="text/javascript">
var viewWidth = 1387;
var viewHeight = 308;
var sectionId = 'dynsection-0';
</script>
<script xlink:href="../../svgpan.js"/>
<svg id="graph" class="graph">
<g id="viewport">
<title>engine/Scene/Scene.cpp</title>
<!-- Node1 -->
<g id="node1" class="node"><title>Node1</title>
<polygon fill="#bfbfbf" stroke="black" points="747.513,-280.5 747.513,-299.5 872.513,-299.5 872.513,-280.5 747.513,-280.5"/>
<text text-anchor="middle" x="810.013" y="-287.5" font-family="Helvetica,sans-Serif" font-size="10.00">engine/Scene/Scene.cpp</text>
</g>
<!-- Node2 -->
<g id="node2" class="node"><title>Node2</title>
<polygon fill="none" stroke="#bfbfbf" points="391.013,-0.5 391.013,-19.5 461.013,-19.5 461.013,-0.5 391.013,-0.5"/>
<text text-anchor="middle" x="426.013" y="-7.5" font-family="Helvetica,sans-Serif" font-size="10.00">glm/glm.hpp</text>
</g>
<!-- Node1&#45;&gt;Node2 -->
<g id="edge1" class="edge"><title>Node1&#45;&gt;Node2</title>
<path fill="none" stroke="midnightblue" d="M747.205,-287.05C557.127,-280.323 1.01277,-254.213 1.01277,-179 1.01277,-179 1.01277,-179 1.01277,-121 1.01277,-90.9022 -3.0383,-75.3526 20.0128,-56 47.2251,-33.1537 280.646,-18.4996 380.74,-13.2125"/>
<polygon fill="midnightblue" stroke="midnightblue" points="381.047,-16.7014 390.851,-12.6864 380.683,-9.71083 381.047,-16.7014"/>
</g>
<!-- Node3 -->
<g id="node3" class="node"><title>Node3</title>
<polygon fill="none" stroke="#bfbfbf" points="876.013,-224.5 876.013,-243.5 932.013,-243.5 932.013,-224.5 876.013,-224.5"/>
<text text-anchor="middle" x="904.013" y="-231.5" font-family="Helvetica,sans-Serif" font-size="10.00">algorithm</text>
</g>
<!-- Node1&#45;&gt;Node3 -->
<g id="edge2" class="edge"><title>Node1&#45;&gt;Node3</title>
<path fill="none" stroke="midnightblue" d="M825.115,-280.324C839.916,-271.822 862.707,-258.729 879.995,-248.797"/>
<polygon fill="midnightblue" stroke="midnightblue" points="882.02,-251.671 888.948,-243.655 878.533,-245.601 882.02,-251.671"/>
</g>
<!-- Node4 -->
<g id="node4" class="node"><title>Node4</title>
<polygon fill="none" stroke="#bfbfbf" points="949.513,-224.5 949.513,-243.5 1056.51,-243.5 1056.51,-224.5 949.513,-224.5"/>
<text text-anchor="middle" x="1003.01" y="-231.5" font-family="Helvetica,sans-Serif" font-size="10.00">log4cpp/Category.hh</text>
</g>
<!-- Node1&#45;&gt;Node4 -->
<g id="edge3" class="edge"><title>Node1&#45;&gt;Node4</title>
<path fill="none" stroke="midnightblue" d="M840.594,-280.444C873.627,-271.201 926.4,-256.436 962.779,-246.257"/>
<polygon fill="midnightblue" stroke="midnightblue" points="963.887,-249.582 972.574,-243.516 962.001,-242.84 963.887,-249.582"/>
</g>
<!-- Node5 -->
<g id="node5" class="node"><title>Node5</title>
<g id="a_node5"><a xlink:href="../../db/de8/Scene_8hpp.html" target="_top" xlink:title="Scene.hpp">
<polygon fill="none" stroke="black" points="503.513,-224.5 503.513,-243.5 566.513,-243.5 566.513,-224.5 503.513,-224.5"/>
<text text-anchor="middle" x="535.013" y="-231.5" font-family="Helvetica,sans-Serif" font-size="10.00">Scene.hpp</text>
</a>
</g>
</g>
<!-- Node1&#45;&gt;Node5 -->
<g id="edge4" class="edge"><title>Node1&#45;&gt;Node5</title>
<path fill="none" stroke="midnightblue" d="M766.438,-280.444C714.438,-270.233 628.108,-253.281 576.876,-243.22"/>
<polygon fill="midnightblue" stroke="midnightblue" points="577.297,-239.736 566.81,-241.244 575.948,-246.605 577.297,-239.736"/>
</g>
<!-- Node36 -->
<g id="node36" class="node"><title>Node36</title>
<g id="a_node36"><a xlink:href="../../d0/d06/AssimpScene_8hpp.html" target="_top" xlink:title="AssimpScene.hpp">
<polygon fill="none" stroke="black" points="762.013,-224.5 762.013,-243.5 858.013,-243.5 858.013,-224.5 762.013,-224.5"/>
<text text-anchor="middle" x="810.013" y="-231.5" font-family="Helvetica,sans-Serif" font-size="10.00">AssimpScene.hpp</text>
</a>
</g>
</g>
<!-- Node1&#45;&gt;Node36 -->
<g id="edge59" class="edge"><title>Node1&#45;&gt;Node36</title>
<path fill="none" stroke="midnightblue" d="M810.013,-280.083C810.013,-273.006 810.013,-262.861 810.013,-253.986"/>
<polygon fill="midnightblue" stroke="midnightblue" points="813.513,-253.751 810.013,-243.751 806.513,-253.751 813.513,-253.751"/>
</g>
<!-- Node6 -->
<g id="node6" class="node"><title>Node6</title>
<polygon fill="none" stroke="#bfbfbf" points="527.013,-56.5 527.013,-75.5 579.013,-75.5 579.013,-56.5 527.013,-56.5"/>
<text text-anchor="middle" x="553.013" y="-63.5" font-family="Helvetica,sans-Serif" font-size="10.00">memory</text>
</g>
<!-- Node5&#45;&gt;Node6 -->
<g id="edge5" class="edge"><title>Node5&#45;&gt;Node6</title>
<path fill="none" stroke="midnightblue" d="M533.488,-224.134C531.002,-211.18 525.289,-186.603 515.013,-168 501.257,-143.099 470.463,-137.014 484.013,-112 491.761,-97.6958 506.247,-87.2188 519.953,-79.992"/>
<polygon fill="midnightblue" stroke="midnightblue" points="521.75,-83.0103 529.224,-75.501 518.699,-76.7104 521.75,-83.0103"/>
</g>
<!-- Node7 -->
<g id="node7" class="node"><title>Node7</title>
<polygon fill="none" stroke="#bfbfbf" points="121.513,-112.5 121.513,-131.5 150.513,-131.5 150.513,-112.5 121.513,-112.5"/>
<text text-anchor="middle" x="136.013" y="-119.5" font-family="Helvetica,sans-Serif" font-size="10.00">list</text>
</g>
<!-- Node5&#45;&gt;Node7 -->
<g id="edge6" class="edge"><title>Node5&#45;&gt;Node7</title>
<path fill="none" stroke="midnightblue" d="M503.501,-232.21C406.424,-229.454 116.774,-218.703 89.0128,-188 74.4852,-171.933 94.9633,-151.394 113.271,-137.749"/>
<polygon fill="midnightblue" stroke="midnightblue" points="115.763,-140.275 121.921,-131.654 111.731,-134.553 115.763,-140.275"/>
</g>
<!-- Node8 -->
<g id="node8" class="node"><title>Node8</title>
<g id="a_node8"><a xlink:href="../../dd/db8/Renderer_8hpp.html" target="_top" xlink:title="Renderer.hpp">
<polygon fill="none" stroke="black" points="98.5128,-168.5 98.5128,-187.5 173.513,-187.5 173.513,-168.5 98.5128,-168.5"/>
<text text-anchor="middle" x="136.013" y="-175.5" font-family="Helvetica,sans-Serif" font-size="10.00">Renderer.hpp</text>
</a>
</g>
</g>
<!-- Node5&#45;&gt;Node8 -->
<g id="edge7" class="edge"><title>Node5&#45;&gt;Node8</title>
<path fill="none" stroke="midnightblue" d="M503.366,-229.621C443.23,-223.056 308.11,-207.62 183.764,-188.028"/>
<polygon fill="midnightblue" stroke="midnightblue" points="184.112,-184.54 173.687,-186.427 183.014,-191.453 184.112,-184.54"/>
</g>
<!-- Node9 -->
<g id="node9" class="node"><title>Node9</title>
<g id="a_node9"><a xlink:href="../../de/dbe/SpatialGraph_8hpp.html" target="_top" xlink:title="SpatialGraph.hpp">
<polygon fill="none" stroke="black" points="192.013,-168.5 192.013,-187.5 284.013,-187.5 284.013,-168.5 192.013,-168.5"/>
<text text-anchor="middle" x="238.013" y="-175.5" font-family="Helvetica,sans-Serif" font-size="10.00">SpatialGraph.hpp</text>
</a>
</g>
</g>
<!-- Node5&#45;&gt;Node9 -->
<g id="edge9" class="edge"><title>Node5&#45;&gt;Node9</title>
<path fill="none" stroke="midnightblue" d="M503.51,-227.272C453.731,-218.221 356.186,-200.486 294.202,-189.216"/>
<polygon fill="midnightblue" stroke="midnightblue" points="294.66,-185.742 284.195,-187.397 293.407,-192.629 294.66,-185.742"/>
</g>
<!-- Node10 -->
<g id="node10" class="node"><title>Node10</title>
<g id="a_node10"><a xlink:href="../../d8/d58/SceneGraph_8hpp.html" target="_top" xlink:title="SceneGraph.hpp">
<polygon fill="none" stroke="black" points="869.513,-168.5 869.513,-187.5 958.513,-187.5 958.513,-168.5 869.513,-168.5"/>
<text text-anchor="middle" x="914.013" y="-175.5" font-family="Helvetica,sans-Serif" font-size="10.00">SceneGraph.hpp</text>
</a>
</g>
</g>
<!-- Node5&#45;&gt;Node10 -->
<g id="edge11" class="edge"><title>Node5&#45;&gt;Node10</title>
<path fill="none" stroke="midnightblue" d="M566.824,-228.652C624.362,-220.759 749.546,-203.459 855.013,-188 856.31,-187.81 857.624,-187.616 858.948,-187.421"/>
<polygon fill="midnightblue" stroke="midnightblue" points="859.869,-190.822 869.243,-185.885 858.836,-183.899 859.869,-190.822"/>
</g>
<!-- Node12 -->
<g id="node12" class="node"><title>Node12</title>
<g id="a_node12"><a xlink:href="../../d1/d93/ShaderProgramLibrary_8hpp.html" target="_top" xlink:title="ShaderProgramLibrary.hpp">
<polygon fill="none" stroke="black" points="563.013,-168.5 563.013,-187.5 695.013,-187.5 695.013,-168.5 563.013,-168.5"/>
<text text-anchor="middle" x="629.013" y="-175.5" font-family="Helvetica,sans-Serif" font-size="10.00">ShaderProgramLibrary.hpp</text>
</a>
</g>
</g>
<!-- Node5&#45;&gt;Node12 -->
<g id="edge13" class="edge"><title>Node5&#45;&gt;Node12</title>
<path fill="none" stroke="midnightblue" d="M550.115,-224.324C564.916,-215.822 587.707,-202.729 604.995,-192.797"/>
<polygon fill="midnightblue" stroke="midnightblue" points="607.02,-195.671 613.948,-187.655 603.533,-189.601 607.02,-195.671"/>
</g>
<!-- Node22 -->
<g id="node22" class="node"><title>Node22</title>
<g id="a_node22"><a xlink:href="../../d2/d26/MaterialLibrary_8hpp.html" target="_top" xlink:title="MaterialLibrary.hpp">
<polygon fill="none" stroke="black" points="713.513,-168.5 713.513,-187.5 812.513,-187.5 812.513,-168.5 713.513,-168.5"/>
<text text-anchor="middle" x="763.013" y="-175.5" font-family="Helvetica,sans-Serif" font-size="10.00">MaterialLibrary.hpp</text>
</a>
</g>
</g>
<!-- Node5&#45;&gt;Node22 -->
<g id="edge31" class="edge"><title>Node5&#45;&gt;Node22</title>
<path fill="none" stroke="midnightblue" d="M566.715,-225.492C605.847,-216.223 672.682,-200.394 717.343,-189.817"/>
<polygon fill="midnightblue" stroke="midnightblue" points="718.15,-193.222 727.074,-187.512 716.537,-186.411 718.15,-193.222"/>
</g>
<!-- Node25 -->
<g id="node25" class="node"><title>Node25</title>
<g id="a_node25"><a xlink:href="../../d1/da3/AnimationLibrary_8hpp.html" target="_top" xlink:title="AnimationLibrary.hpp">
<polygon fill="none" stroke="black" points="1167.01,-112.5 1167.01,-131.5 1275.01,-131.5 1275.01,-112.5 1167.01,-112.5"/>
<text text-anchor="middle" x="1221.01" y="-119.5" font-family="Helvetica,sans-Serif" font-size="10.00">AnimationLibrary.hpp</text>
</a>
</g>
</g>
<!-- Node5&#45;&gt;Node25 -->
<g id="edge38" class="edge"><title>Node5&#45;&gt;Node25</title>
<path fill="none" stroke="midnightblue" d="M566.667,-231.301C620.232,-227.707 731.643,-217.117 821.013,-188 839.534,-181.966 841.397,-173.737 860.013,-168 913.862,-151.405 1068.03,-136.082 1156.5,-128.32"/>
<polygon fill="midnightblue" stroke="midnightblue" points="1157.04,-131.787 1166.69,-127.434 1156.43,-124.813 1157.04,-131.787"/>
</g>
<!-- Node28 -->
<g id="node28" class="node"><title>Node28</title>
<g id="a_node28"><a xlink:href="../../dd/de2/MeshLibrary_8hpp.html" target="_top" xlink:title="MeshLibrary.hpp">
<polygon fill="none" stroke="black" points="417.513,-168.5 417.513,-187.5 506.513,-187.5 506.513,-168.5 417.513,-168.5"/>
<text text-anchor="middle" x="462.013" y="-175.5" font-family="Helvetica,sans-Serif" font-size="10.00">MeshLibrary.hpp</text>
</a>
</g>
</g>
<!-- Node5&#45;&gt;Node28 -->
<g id="edge44" class="edge"><title>Node5&#45;&gt;Node28</title>
<path fill="none" stroke="midnightblue" d="M523.284,-224.324C512.175,-216.107 495.271,-203.602 482.029,-193.807"/>
<polygon fill="midnightblue" stroke="midnightblue" points="484.076,-190.967 473.955,-187.834 479.913,-196.595 484.076,-190.967"/>
</g>
<!-- Node33 -->
<g id="node33" class="node"><title>Node33</title>
<g id="a_node33"><a xlink:href="../../dc/d23/TextureLibrary_8hpp.html" target="_top" xlink:title="TextureLibrary.hpp">
<polygon fill="none" stroke="black" points="302.013,-168.5 302.013,-187.5 400.013,-187.5 400.013,-168.5 302.013,-168.5"/>
<text text-anchor="middle" x="351.013" y="-175.5" font-family="Helvetica,sans-Serif" font-size="10.00">TextureLibrary.hpp</text>
</a>
</g>
</g>
<!-- Node5&#45;&gt;Node33 -->
<g id="edge55" class="edge"><title>Node5&#45;&gt;Node33</title>
<path fill="none" stroke="midnightblue" d="M505.857,-224.444C474.499,-215.241 424.482,-200.562 389.816,-190.388"/>
<polygon fill="midnightblue" stroke="midnightblue" points="390.613,-186.974 380.032,-187.516 388.641,-193.691 390.613,-186.974"/>
</g>
<!-- Node8&#45;&gt;Node7 -->
<g id="edge8" class="edge"><title>Node8&#45;&gt;Node7</title>
<path fill="none" stroke="midnightblue" d="M136.013,-168.083C136.013,-161.006 136.013,-150.861 136.013,-141.986"/>
<polygon fill="midnightblue" stroke="midnightblue" points="139.513,-141.751 136.013,-131.751 132.513,-141.751 139.513,-141.751"/>
</g>
<!-- Node9&#45;&gt;Node7 -->
<g id="edge10" class="edge"><title>Node9&#45;&gt;Node7</title>
<path fill="none" stroke="midnightblue" d="M221.625,-168.324C204.86,-159.448 178.647,-145.571 159.641,-135.509"/>
<polygon fill="midnightblue" stroke="midnightblue" points="161.18,-132.364 150.705,-130.778 157.905,-138.55 161.18,-132.364"/>
</g>
<!-- Node11 -->
<g id="node11" class="node"><title>Node11</title>
<polygon fill="none" stroke="#bfbfbf" points="1293.01,-112.5 1293.01,-131.5 1379.01,-131.5 1379.01,-112.5 1293.01,-112.5"/>
<text text-anchor="middle" x="1336.01" y="-119.5" font-family="Helvetica,sans-Serif" font-size="10.00">assimp/scene.h</text>
</g>
<!-- Node10&#45;&gt;Node11 -->
<g id="edge12" class="edge"><title>Node10&#45;&gt;Node11</title>
<path fill="none" stroke="midnightblue" d="M958.766,-170C963.572,-169.3 968.391,-168.62 973.013,-168 1107.69,-149.939 1144.58,-151.773 1282.78,-132.105"/>
<polygon fill="midnightblue" stroke="midnightblue" points="1283.51,-135.537 1292.91,-130.652 1282.52,-128.608 1283.51,-135.537"/>
</g>
<!-- Node12&#45;&gt;Node6 -->
<g id="edge14" class="edge"><title>Node12&#45;&gt;Node6</title>
<path fill="none" stroke="midnightblue" d="M585.43,-168.463C549.682,-160.471 503.208,-147.461 492.013,-132 477.973,-112.61 503.172,-92.9205 525.316,-80.3727"/>
<polygon fill="midnightblue" stroke="midnightblue" points="527.029,-83.4258 534.185,-75.6125 523.719,-77.2581 527.029,-83.4258"/>
</g>
<!-- Node13 -->
<g id="node13" class="node"><title>Node13</title>
<g id="a_node13"><a xlink:href="../../df/d67/Library_8hpp.html" target="_top" xlink:title="Library.hpp">
<polygon fill="none" stroke="black" points="1023.51,-56.5 1023.51,-75.5 1088.51,-75.5 1088.51,-56.5 1023.51,-56.5"/>
<text text-anchor="middle" x="1056.01" y="-63.5" font-family="Helvetica,sans-Serif" font-size="10.00">Library.hpp</text>
</a>
</g>
</g>
<!-- Node12&#45;&gt;Node13 -->
<g id="edge15" class="edge"><title>Node12&#45;&gt;Node13</title>
<path fill="none" stroke="midnightblue" d="M695.26,-169C698.218,-168.658 701.146,-168.324 704.013,-168 779.511,-159.474 988.258,-183.615 1044.01,-132 1056.49,-120.445 1058.55,-100.481 1058.06,-85.719"/>
<polygon fill="midnightblue" stroke="midnightblue" points="1061.55,-85.3877 1057.33,-75.6696 1054.56,-85.8982 1061.55,-85.3877"/>
</g>
<!-- Node16 -->
<g id="node16" class="node"><title>Node16</title>
<g id="a_node16"><a xlink:href="../../dc/ddb/ShaderProgram_8hpp.html" target="_top" xlink:title="ShaderProgram.hpp">
<polygon fill="none" stroke="black" points="501.513,-112.5 501.513,-131.5 604.513,-131.5 604.513,-112.5 501.513,-112.5"/>
<text text-anchor="middle" x="553.013" y="-119.5" font-family="Helvetica,sans-Serif" font-size="10.00">ShaderProgram.hpp</text>
</a>
</g>
</g>
<!-- Node12&#45;&gt;Node16 -->
<g id="edge19" class="edge"><title>Node12&#45;&gt;Node16</title>
<path fill="none" stroke="midnightblue" d="M616.802,-168.324C605.237,-160.107 587.637,-147.602 573.852,-137.807"/>
<polygon fill="midnightblue" stroke="midnightblue" points="575.625,-134.773 565.446,-131.834 571.57,-140.479 575.625,-134.773"/>
</g>
<!-- Node19 -->
<g id="node19" class="node"><title>Node19</title>
<g id="a_node19"><a xlink:href="../../d9/db7/ShaderProgramNames_8hpp.html" target="_top" xlink:title="ShaderProgramNames.hpp">
<polygon fill="none" stroke="black" points="901.013,-112.5 901.013,-131.5 1035.01,-131.5 1035.01,-112.5 901.013,-112.5"/>
<text text-anchor="middle" x="968.013" y="-119.5" font-family="Helvetica,sans-Serif" font-size="10.00">ShaderProgramNames.hpp</text>
</a>
</g>
</g>
<!-- Node12&#45;&gt;Node19 -->
<g id="edge25" class="edge"><title>Node12&#45;&gt;Node19</title>
<path fill="none" stroke="midnightblue" d="M682.728,-168.444C742.982,-158.846 840.627,-143.292 904.584,-133.104"/>
<polygon fill="midnightblue" stroke="midnightblue" points="905.224,-136.546 914.549,-131.516 904.122,-129.633 905.224,-136.546"/>
</g>
<!-- Node20 -->
<g id="node20" class="node"><title>Node20</title>
<g id="a_node20"><a xlink:href="../../d2/db1/ShaderLibrary_8hpp.html" target="_top" xlink:title="ShaderLibrary.hpp">
<polygon fill="none" stroke="black" points="711.513,-112.5 711.513,-131.5 806.513,-131.5 806.513,-112.5 711.513,-112.5"/>
<text text-anchor="middle" x="759.013" y="-119.5" font-family="Helvetica,sans-Serif" font-size="10.00">ShaderLibrary.hpp</text>
</a>
</g>
</g>
<!-- Node12&#45;&gt;Node20 -->
<g id="edge26" class="edge"><title>Node12&#45;&gt;Node20</title>
<path fill="none" stroke="midnightblue" d="M649.612,-168.444C671.006,-159.557 704.694,-145.563 729.037,-135.451"/>
<polygon fill="midnightblue" stroke="midnightblue" points="730.618,-138.585 738.51,-131.516 727.933,-132.12 730.618,-138.585"/>
</g>
<!-- Node13&#45;&gt;Node13 -->
<g id="edge18" class="edge"><title>Node13&#45;&gt;Node13</title>
<path fill="none" stroke="midnightblue" d="M1077.55,-75.5252C1092.19,-78.3079 1106.51,-75.1328 1106.51,-66 1106.51,-59.0077 1098.11,-55.5077 1087.61,-55.5"/>
<polygon fill="midnightblue" stroke="midnightblue" points="1087.17,-52.0265 1077.55,-56.4748 1087.84,-58.9938 1087.17,-52.0265"/>
</g>
<!-- Node14 -->
<g id="node14" class="node"><title>Node14</title>
<polygon fill="none" stroke="#bfbfbf" points="570.013,-0.5 570.013,-19.5 614.013,-19.5 614.013,-0.5 570.013,-0.5"/>
<text text-anchor="middle" x="592.013" y="-7.5" font-family="Helvetica,sans-Serif" font-size="10.00">vector</text>
</g>
<!-- Node13&#45;&gt;Node14 -->
<g id="edge16" class="edge"><title>Node13&#45;&gt;Node14</title>
<path fill="none" stroke="midnightblue" d="M1023.06,-57.5971C1020.01,-57.015 1016.96,-56.4713 1014.01,-56 869.382,-32.8578 694.901,-18.5216 624.145,-13.2701"/>
<polygon fill="midnightblue" stroke="midnightblue" points="624.316,-9.77327 614.087,-12.5332 623.804,-16.7546 624.316,-9.77327"/>
</g>
<!-- Node15 -->
<g id="node15" class="node"><title>Node15</title>
<polygon fill="none" stroke="#bfbfbf" points="1025.01,-0.5 1025.01,-19.5 1087.01,-19.5 1087.01,-0.5 1025.01,-0.5"/>
<text text-anchor="middle" x="1056.01" y="-7.5" font-family="Helvetica,sans-Serif" font-size="10.00">Library.tpp</text>
</g>
<!-- Node13&#45;&gt;Node15 -->
<g id="edge17" class="edge"><title>Node13&#45;&gt;Node15</title>
<path fill="none" stroke="midnightblue" d="M1056.01,-56.083C1056.01,-49.0059 1056.01,-38.8611 1056.01,-29.9865"/>
<polygon fill="midnightblue" stroke="midnightblue" points="1059.51,-29.751 1056.01,-19.7511 1052.51,-29.7511 1059.51,-29.751"/>
</g>
<!-- Node16&#45;&gt;Node2 -->
<g id="edge20" class="edge"><title>Node16&#45;&gt;Node2</title>
<path fill="none" stroke="midnightblue" d="M564.127,-112.071C578.998,-99.0403 601.973,-74.3667 588.013,-56 573.868,-37.3902 514.014,-24.4526 471.181,-17.3739"/>
<polygon fill="midnightblue" stroke="midnightblue" points="471.667,-13.9072 461.239,-15.7845 470.561,-20.8194 471.667,-13.9072"/>
</g>
<!-- Node16&#45;&gt;Node6 -->
<g id="edge22" class="edge"><title>Node16&#45;&gt;Node6</title>
<path fill="none" stroke="midnightblue" d="M553.013,-112.083C553.013,-105.006 553.013,-94.8611 553.013,-85.9865"/>
<polygon fill="midnightblue" stroke="midnightblue" points="556.513,-85.751 553.013,-75.7511 549.513,-85.7511 556.513,-85.751"/>
</g>
<!-- Node16&#45;&gt;Node14 -->
<g id="edge21" class="edge"><title>Node16&#45;&gt;Node14</title>
<path fill="none" stroke="midnightblue" d="M576.467,-112.408C592.174,-105.28 611.631,-93.4581 621.013,-76 629.65,-59.9278 618.676,-40.7719 607.84,-27.4364"/>
<polygon fill="midnightblue" stroke="midnightblue" points="610.181,-24.7987 600.947,-19.6044 604.926,-29.4235 610.181,-24.7987"/>
</g>
<!-- Node17 -->
<g id="node17" class="node"><title>Node17</title>
<g id="a_node17"><a xlink:href="../../d4/d6e/Shader_8hpp.html" target="_top" xlink:title="Shader.hpp">
<polygon fill="none" stroke="black" points="711.013,-56.5 711.013,-75.5 777.013,-75.5 777.013,-56.5 711.013,-56.5"/>
<text text-anchor="middle" x="744.013" y="-63.5" font-family="Helvetica,sans-Serif" font-size="10.00">Shader.hpp</text>
</a>
</g>
</g>
<!-- Node16&#45;&gt;Node17 -->
<g id="edge23" class="edge"><title>Node16&#45;&gt;Node17</title>
<path fill="none" stroke="midnightblue" d="M583.277,-112.444C615.968,-103.201 668.194,-88.4356 704.196,-78.2572"/>
<polygon fill="midnightblue" stroke="midnightblue" points="705.219,-81.6051 713.89,-75.5164 703.315,-74.8691 705.219,-81.6051"/>
</g>
<!-- Node18 -->
<g id="node18" class="node"><title>Node18</title>
<polygon fill="none" stroke="#bfbfbf" points="1118.51,-0.5 1118.51,-19.5 1159.51,-19.5 1159.51,-0.5 1118.51,-0.5"/>
<text text-anchor="middle" x="1139.01" y="-7.5" font-family="Helvetica,sans-Serif" font-size="10.00">string</text>
</g>
<!-- Node17&#45;&gt;Node18 -->
<g id="edge24" class="edge"><title>Node17&#45;&gt;Node18</title>
<path fill="none" stroke="midnightblue" d="M777.429,-57.5386C780.325,-56.9832 783.217,-56.4608 786.013,-56 922.87,-33.4431 959.102,-42.2305 1096.01,-20 1099.97,-19.3582 1104.1,-18.6012 1108.19,-17.8031"/>
<polygon fill="midnightblue" stroke="midnightblue" points="1108.99,-21.2113 1118.09,-15.7771 1107.59,-14.3534 1108.99,-21.2113"/>
</g>
<!-- Node20&#45;&gt;Node6 -->
<g id="edge27" class="edge"><title>Node20&#45;&gt;Node6</title>
<path fill="none" stroke="midnightblue" d="M726.371,-112.444C688.984,-102.643 627.905,-86.6319 589.122,-76.4655"/>
<polygon fill="midnightblue" stroke="midnightblue" points="589.852,-73.0388 579.292,-73.8886 588.077,-79.81 589.852,-73.0388"/>
</g>
<!-- Node20&#45;&gt;Node13 -->
<g id="edge28" class="edge"><title>Node20&#45;&gt;Node13</title>
<path fill="none" stroke="midnightblue" d="M806.576,-113.139C855.763,-104.89 935.038,-91.2647 1013.43,-76.0542"/>
<polygon fill="midnightblue" stroke="midnightblue" points="1014.33,-79.4436 1023.48,-74.0941 1012.99,-72.573 1014.33,-79.4436"/>
</g>
<!-- Node20&#45;&gt;Node17 -->
<g id="edge29" class="edge"><title>Node20&#45;&gt;Node17</title>
<path fill="none" stroke="midnightblue" d="M756.536,-112.083C754.526,-104.849 751.626,-94.4087 749.123,-85.3968"/>
<polygon fill="midnightblue" stroke="midnightblue" points="752.492,-84.4495 746.444,-75.7511 745.748,-86.323 752.492,-84.4495"/>
</g>
<!-- Node21 -->
<g id="node21" class="node"><title>Node21</title>
<g id="a_node21"><a xlink:href="../../d2/dba/ShaderNames_8hpp.html" target="_top" xlink:title="ShaderNames.hpp">
<polygon fill="none" stroke="black" points="907.013,-56.5 907.013,-75.5 1005.01,-75.5 1005.01,-56.5 907.013,-56.5"/>
<text text-anchor="middle" x="956.013" y="-63.5" font-family="Helvetica,sans-Serif" font-size="10.00">ShaderNames.hpp</text>
</a>
</g>
</g>
<!-- Node20&#45;&gt;Node21 -->
<g id="edge30" class="edge"><title>Node20&#45;&gt;Node21</title>
<path fill="none" stroke="midnightblue" d="M790.228,-112.444C823.946,-103.201 877.813,-88.4356 914.945,-78.2572"/>
<polygon fill="midnightblue" stroke="midnightblue" points="916.225,-81.5356 924.944,-75.5164 914.374,-74.7846 916.225,-81.5356"/>
</g>
<!-- Node22&#45;&gt;Node13 -->
<g id="edge33" class="edge"><title>Node22&#45;&gt;Node13</title>
<path fill="none" stroke="midnightblue" d="M812.649,-169.894C896.653,-157.812 1058,-134.339 1060.01,-132 1070.82,-119.431 1067.94,-99.9364 1063.5,-85.5733"/>
<polygon fill="midnightblue" stroke="midnightblue" points="1066.66,-84.029 1060,-75.7895 1060.07,-86.3842 1066.66,-84.029"/>
</g>
<!-- Node23 -->
<g id="node23" class="node"><title>Node23</title>
<polygon fill="none" stroke="#bfbfbf" points="795.013,-56.5 795.013,-75.5 889.013,-75.5 889.013,-56.5 795.013,-56.5"/>
<text text-anchor="middle" x="842.013" y="-63.5" font-family="Helvetica,sans-Serif" font-size="10.00">assimp/material.h</text>
</g>
<!-- Node22&#45;&gt;Node23 -->
<g id="edge32" class="edge"><title>Node22&#45;&gt;Node23</title>
<path fill="none" stroke="midnightblue" d="M812.753,-169.866C892.452,-158.321 1040.27,-136.388 1044.01,-132 1049.78,-125.236 1049.57,-118.935 1044.01,-112 1039.33,-106.154 954.943,-88.8131 896.739,-77.4443"/>
<polygon fill="midnightblue" stroke="midnightblue" points="897.405,-74.0084 886.921,-75.5346 896.069,-80.8796 897.405,-74.0084"/>
</g>
<!-- Node24 -->
<g id="node24" class="node"><title>Node24</title>
<g id="a_node24"><a xlink:href="../../d0/d70/Material_8hpp.html" target="_top" xlink:title="Material.hpp">
<polygon fill="none" stroke="black" points="623.013,-112.5 623.013,-131.5 693.013,-131.5 693.013,-112.5 623.013,-112.5"/>
<text text-anchor="middle" x="658.013" y="-119.5" font-family="Helvetica,sans-Serif" font-size="10.00">Material.hpp</text>
</a>
</g>
</g>
<!-- Node22&#45;&gt;Node24 -->
<g id="edge34" class="edge"><title>Node22&#45;&gt;Node24</title>
<path fill="none" stroke="midnightblue" d="M746.143,-168.324C729.304,-159.664 703.206,-146.242 683.775,-136.249"/>
<polygon fill="midnightblue" stroke="midnightblue" points="685.335,-133.116 674.841,-131.655 682.133,-139.341 685.335,-133.116"/>
</g>
<!-- Node24&#45;&gt;Node2 -->
<g id="edge36" class="edge"><title>Node24&#45;&gt;Node2</title>
<path fill="none" stroke="midnightblue" d="M653.417,-112.338C645.488,-98.262 627.864,-70.5352 605.013,-56 564.358,-30.1411 509.709,-19.1346 471.529,-14.4541"/>
<polygon fill="midnightblue" stroke="midnightblue" points="471.551,-10.9346 461.223,-13.2946 470.769,-17.8907 471.551,-10.9346"/>
</g>
<!-- Node24&#45;&gt;Node6 -->
<g id="edge35" class="edge"><title>Node24&#45;&gt;Node6</title>
<path fill="none" stroke="midnightblue" d="M641.143,-112.324C624.304,-103.664 598.206,-90.2424 578.775,-80.249"/>
<polygon fill="midnightblue" stroke="midnightblue" points="580.335,-77.1155 569.841,-75.6545 577.133,-83.3405 580.335,-77.1155"/>
</g>
<!-- Node24&#45;&gt;Node23 -->
<g id="edge37" class="edge"><title>Node24&#45;&gt;Node23</title>
<path fill="none" stroke="midnightblue" d="M687.168,-112.444C718.526,-103.241 768.543,-88.5617 803.209,-78.3879"/>
<polygon fill="midnightblue" stroke="midnightblue" points="804.384,-81.6909 812.994,-75.5164 802.413,-74.9742 804.384,-81.6909"/>
</g>
<!-- Node25&#45;&gt;Node13 -->
<g id="edge40" class="edge"><title>Node25&#45;&gt;Node13</title>
<path fill="none" stroke="midnightblue" d="M1194.87,-112.444C1166.99,-103.32 1122.66,-88.8133 1091.61,-78.6509"/>
<polygon fill="midnightblue" stroke="midnightblue" points="1092.63,-75.3005 1082.04,-75.5164 1090.45,-81.9533 1092.63,-75.3005"/>
</g>
<!-- Node26 -->
<g id="node26" class="node"><title>Node26</title>
<polygon fill="none" stroke="#bfbfbf" points="1185.01,-0.5 1185.01,-19.5 1265.01,-19.5 1265.01,-0.5 1185.01,-0.5"/>
<text text-anchor="middle" x="1225.01" y="-7.5" font-family="Helvetica,sans-Serif" font-size="10.00">assimp/anim.h</text>
</g>
<!-- Node25&#45;&gt;Node26 -->
<g id="edge39" class="edge"><title>Node25&#45;&gt;Node26</title>
<path fill="none" stroke="midnightblue" d="M1221.33,-112.368C1221.97,-94.617 1223.46,-53.6664 1224.34,-29.5974"/>
<polygon fill="midnightblue" stroke="midnightblue" points="1227.83,-29.712 1224.7,-19.5914 1220.84,-29.4576 1227.83,-29.712"/>
</g>
<!-- Node27 -->
<g id="node27" class="node"><title>Node27</title>
<g id="a_node27"><a xlink:href="../../d0/d36/Animation_8hpp.html" target="_top" xlink:title="Animation.hpp">
<polygon fill="none" stroke="black" points="1124.51,-56.5 1124.51,-75.5 1203.51,-75.5 1203.51,-56.5 1124.51,-56.5"/>
<text text-anchor="middle" x="1164.01" y="-63.5" font-family="Helvetica,sans-Serif" font-size="10.00">Animation.hpp</text>
</a>
</g>
</g>
<!-- Node25&#45;&gt;Node27 -->
<g id="edge41" class="edge"><title>Node25&#45;&gt;Node27</title>
<path fill="none" stroke="midnightblue" d="M1211.85,-112.324C1203.51,-104.42 1190.98,-92.5482 1180.84,-82.9377"/>
<polygon fill="midnightblue" stroke="midnightblue" points="1183,-80.1705 1173.34,-75.8339 1178.19,-85.2522 1183,-80.1705"/>
</g>
<!-- Node27&#45;&gt;Node18 -->
<g id="edge43" class="edge"><title>Node27&#45;&gt;Node18</title>
<path fill="none" stroke="midnightblue" d="M1159.88,-56.083C1156.5,-48.77 1151.6,-38.1814 1147.39,-29.1034"/>
<polygon fill="midnightblue" stroke="midnightblue" points="1150.44,-27.3553 1143.06,-19.7511 1144.09,-30.2962 1150.44,-27.3553"/>
</g>
<!-- Node27&#45;&gt;Node26 -->
<g id="edge42" class="edge"><title>Node27&#45;&gt;Node26</title>
<path fill="none" stroke="midnightblue" d="M1173.81,-56.324C1182.83,-48.3414 1196.42,-36.3128 1207.33,-26.6529"/>
<polygon fill="midnightblue" stroke="midnightblue" points="1209.87,-29.083 1215.03,-19.8339 1205.23,-23.8416 1209.87,-29.083"/>
</g>
<!-- Node28&#45;&gt;Node13 -->
<g id="edge45" class="edge"><title>Node28&#45;&gt;Node13</title>
<path fill="none" stroke="midnightblue" d="M506.567,-172.627C601.285,-163.214 816.672,-141.144 849.013,-132 869.295,-126.265 872.225,-119.259 892.013,-112 932.456,-97.1648 980.072,-84.6224 1013.55,-76.5783"/>
<polygon fill="midnightblue" stroke="midnightblue" points="1014.53,-79.9411 1023.46,-74.2287 1012.92,-73.1299 1014.53,-79.9411"/>
</g>
<!-- Node29 -->
<g id="node29" class="node"><title>Node29</title>
<g id="a_node29"><a xlink:href="../../d1/d62/Mesh_8hpp.html" target="_top" xlink:title="Mesh.hpp">
<polygon fill="none" stroke="black" points="347.513,-112.5 347.513,-131.5 406.513,-131.5 406.513,-112.5 347.513,-112.5"/>
<text text-anchor="middle" x="377.013" y="-119.5" font-family="Helvetica,sans-Serif" font-size="10.00">Mesh.hpp</text>
</a>
</g>
</g>
<!-- Node28&#45;&gt;Node29 -->
<g id="edge46" class="edge"><title>Node28&#45;&gt;Node29</title>
<path fill="none" stroke="midnightblue" d="M448.356,-168.324C435.096,-159.9 414.745,-146.971 399.167,-137.074"/>
<polygon fill="midnightblue" stroke="midnightblue" points="400.953,-134.063 390.636,-131.655 397.199,-139.971 400.953,-134.063"/>
</g>
<!-- Node29&#45;&gt;Node2 -->
<g id="edge49" class="edge"><title>Node29&#45;&gt;Node2</title>
<path fill="none" stroke="midnightblue" d="M373.668,-112.093C369.354,-99.0892 363.372,-74.4491 372.013,-56 378.058,-43.0941 389.825,-32.5985 400.835,-24.9999"/>
<polygon fill="midnightblue" stroke="midnightblue" points="402.84,-27.8723 409.38,-19.5364 399.069,-21.9748 402.84,-27.8723"/>
</g>
<!-- Node29&#45;&gt;Node6 -->
<g id="edge48" class="edge"><title>Node29&#45;&gt;Node6</title>
<path fill="none" stroke="midnightblue" d="M404.9,-112.444C435.294,-103.118 484.012,-88.1708 517.21,-77.985"/>
<polygon fill="midnightblue" stroke="midnightblue" points="518.443,-81.2677 526.977,-74.9883 516.39,-74.5756 518.443,-81.2677"/>
</g>
<!-- Node29&#45;&gt;Node14 -->
<g id="edge47" class="edge"><title>Node29&#45;&gt;Node14</title>
<path fill="none" stroke="midnightblue" d="M398.647,-112.391C419.72,-103.809 452.508,-89.9326 480.013,-76 511.951,-59.8215 547.494,-38.6182 569.798,-24.9023"/>
<polygon fill="midnightblue" stroke="midnightblue" points="571.836,-27.7574 578.498,-19.5189 568.152,-21.805 571.836,-27.7574"/>
</g>
<!-- Node30 -->
<g id="node30" class="node"><title>Node30</title>
<polygon fill="none" stroke="#bfbfbf" points="136.513,-56.5 136.513,-75.5 219.513,-75.5 219.513,-56.5 136.513,-56.5"/>
<text text-anchor="middle" x="178.013" y="-63.5" font-family="Helvetica,sans-Serif" font-size="10.00">assimp/mesh.h</text>
</g>
<!-- Node29&#45;&gt;Node30 -->
<g id="edge50" class="edge"><title>Node29&#45;&gt;Node30</title>
<path fill="none" stroke="midnightblue" d="M347.22,-112.916C313.28,-103.706 257.593,-88.5946 219.437,-78.2407"/>
<polygon fill="midnightblue" stroke="midnightblue" points="220.223,-74.8276 209.656,-75.5865 218.39,-81.5833 220.223,-74.8276"/>
</g>
<!-- Node31 -->
<g id="node31" class="node"><title>Node31</title>
<g id="a_node31"><a xlink:href="../../da/d04/BufferObject_8hpp.html" target="_top" xlink:title="BufferObject.hpp">
<polygon fill="none" stroke="black" points="381.013,-56.5 381.013,-75.5 471.013,-75.5 471.013,-56.5 381.013,-56.5"/>
<text text-anchor="middle" x="426.013" y="-63.5" font-family="Helvetica,sans-Serif" font-size="10.00">BufferObject.hpp</text>
</a>
</g>
</g>
<!-- Node29&#45;&gt;Node31 -->
<g id="edge51" class="edge"><title>Node29&#45;&gt;Node31</title>
<path fill="none" stroke="midnightblue" d="M385.104,-112.083C392.168,-104.298 402.6,-92.8015 411.162,-83.3665"/>
<polygon fill="midnightblue" stroke="midnightblue" points="413.944,-85.5087 418.072,-75.7511 408.76,-80.8047 413.944,-85.5087"/>
</g>
<!-- Node32 -->
<g id="node32" class="node"><title>Node32</title>
<g id="a_node32"><a xlink:href="../../df/d20/ArrayObject_8hpp.html" target="_top" xlink:title="ArrayObject.hpp">
<polygon fill="none" stroke="black" points="237.513,-56.5 237.513,-75.5 324.513,-75.5 324.513,-56.5 237.513,-56.5"/>
<text text-anchor="middle" x="281.013" y="-63.5" font-family="Helvetica,sans-Serif" font-size="10.00">ArrayObject.hpp</text>
</a>
</g>
</g>
<!-- Node29&#45;&gt;Node32 -->
<g id="edge54" class="edge"><title>Node29&#45;&gt;Node32</title>
<path fill="none" stroke="midnightblue" d="M361.589,-112.324C346.473,-103.822 323.197,-90.7288 305.542,-80.7975"/>
<polygon fill="midnightblue" stroke="midnightblue" points="306.83,-77.5066 296.399,-75.6545 303.398,-83.6077 306.83,-77.5066"/>
</g>
<!-- Node31&#45;&gt;Node2 -->
<g id="edge53" class="edge"><title>Node31&#45;&gt;Node2</title>
<path fill="none" stroke="midnightblue" d="M426.013,-56.083C426.013,-49.0059 426.013,-38.8611 426.013,-29.9865"/>
<polygon fill="midnightblue" stroke="midnightblue" points="429.513,-29.751 426.013,-19.7511 422.513,-29.7511 429.513,-29.751"/>
</g>
<!-- Node31&#45;&gt;Node14 -->
<g id="edge52" class="edge"><title>Node31&#45;&gt;Node14</title>
<path fill="none" stroke="midnightblue" d="M452.316,-56.4435C481.601,-46.9171 528.924,-31.5228 560.251,-21.3321"/>
<polygon fill="midnightblue" stroke="midnightblue" points="561.39,-24.6422 569.817,-18.2203 559.225,-17.9855 561.39,-24.6422"/>
</g>
<!-- Node33&#45;&gt;Node13 -->
<g id="edge56" class="edge"><title>Node33&#45;&gt;Node13</title>
<path fill="none" stroke="midnightblue" d="M400.108,-169.03C402.779,-168.664 405.427,-168.318 408.013,-168 588.249,-145.826 642.072,-187.393 815.013,-132 831.709,-126.652 832.686,-118.387 849.013,-112 850.945,-111.244 953.121,-89.1698 1013.18,-76.2245"/>
<polygon fill="midnightblue" stroke="midnightblue" points="1014.11,-79.6036 1023.15,-74.0754 1012.64,-72.7607 1014.11,-79.6036"/>
</g>
<!-- Node34 -->
<g id="node34" class="node"><title>Node34</title>
<g id="a_node34"><a xlink:href="../../d0/ddc/Texture_8hpp.html" target="_top" xlink:title="Texture.hpp">
<polygon fill="none" stroke="black" points="200.013,-112.5 200.013,-131.5 268.013,-131.5 268.013,-112.5 200.013,-112.5"/>
<text text-anchor="middle" x="234.013" y="-119.5" font-family="Helvetica,sans-Serif" font-size="10.00">Texture.hpp</text>
</a>
</g>
</g>
<!-- Node33&#45;&gt;Node34 -->
<g id="edge57" class="edge"><title>Node33&#45;&gt;Node34</title>
<path fill="none" stroke="midnightblue" d="M332.474,-168.444C313.39,-159.636 283.438,-145.812 261.577,-135.722"/>
<polygon fill="midnightblue" stroke="midnightblue" points="263.011,-132.529 252.465,-131.516 260.078,-138.885 263.011,-132.529"/>
</g>
<!-- Node35 -->
<g id="node35" class="node"><title>Node35</title>
<polygon fill="none" stroke="#bfbfbf" points="29.5128,-56.5 29.5128,-75.5 118.513,-75.5 118.513,-56.5 29.5128,-56.5"/>
<text text-anchor="middle" x="74.0128" y="-63.5" font-family="Helvetica,sans-Serif" font-size="10.00">assimp/texture.h</text>
</g>
<!-- Node34&#45;&gt;Node35 -->
<g id="edge58" class="edge"><title>Node34&#45;&gt;Node35</title>
<path fill="none" stroke="midnightblue" d="M208.66,-112.444C181.743,-103.359 139.016,-88.9388 108.926,-78.7831"/>
<polygon fill="midnightblue" stroke="midnightblue" points="109.841,-75.3981 99.2466,-75.5164 107.602,-82.0305 109.841,-75.3981"/>
</g>
<!-- Node36&#45;&gt;Node11 -->
<g id="edge60" class="edge"><title>Node36&#45;&gt;Node11</title>
<path fill="none" stroke="midnightblue" d="M847.488,-224.444C879.728,-216.569 927.196,-203.742 967.013,-188 985.128,-180.838 987.411,-173.781 1006.01,-168 1121.85,-132 1158.88,-149.633 1282.66,-132.109"/>
<polygon fill="midnightblue" stroke="midnightblue" points="1283.52,-135.52 1292.91,-130.606 1282.5,-128.594 1283.52,-135.52"/>
</g>
<!-- Node37 -->
<g id="node37" class="node"><title>Node37</title>
<polygon fill="none" stroke="#bfbfbf" points="1015.51,-168.5 1015.51,-187.5 1050.51,-187.5 1050.51,-168.5 1015.51,-168.5"/>
<text text-anchor="middle" x="1033.01" y="-175.5" font-family="Helvetica,sans-Serif" font-size="10.00">map</text>
</g>
<!-- Node36&#45;&gt;Node37 -->
<g id="edge61" class="edge"><title>Node36&#45;&gt;Node37</title>
<path fill="none" stroke="midnightblue" d="M848.544,-224.431C887.205,-215.714 948.402,-201.589 1001.01,-188 1002.48,-187.621 1003.98,-187.225 1005.5,-186.82"/>
<polygon fill="midnightblue" stroke="midnightblue" points="1006.73,-190.111 1015.44,-184.087 1004.87,-183.362 1006.73,-190.111"/>
</g>
</g>
</svg>
        <g id="navigator" transform="translate(0 0)" fill="#404254">
                <rect fill="#f2f5e9" fill-opacity="0.5" stroke="#606060" stroke-width=".5" x="0" y="0" width="60" height="60"/>
                <use id="zoomplus" xlink:href="#zoomPlus" x="17" y="9" onmousedown="handleZoom(evt,'in')"/>
                <use id="zoomminus" xlink:href="#zoomMin" x="42" y="9" onmousedown="handleZoom(evt,'out')"/>
                <use id="reset" xlink:href="#resetDef" x="30" y="36" onmousedown="handleReset()"/>
                <g id="arrowUp" xlink:href="#dirArrow" transform="translate(30 24)" onmousedown="handlePan(0,-1)">
                  <use xlink:href="#rim" fill="#404040">
                        <set attributeName="fill" to="#808080" begin="arrowUp.mouseover" end="arrowUp.mouseout"/>
                  </use>
                  <path fill="none" stroke="white" stroke-width="1.5" d="M0,-3.0v7 M-2.5,-0.5L0,-3.0L2.5,-0.5"/>
                </g>
                <g id="arrowRight" xlink:href="#dirArrow" transform="rotate(90) translate(36 -43)" onmousedown="handlePan(1,0)">
                  <use xlink:href="#rim" fill="#404040">
                        <set attributeName="fill" to="#808080" begin="arrowRight.mouseover" end="arrowRight.mouseout"/>
                  </use>
                  <path fill="none" stroke="white" stroke-width="1.5" d="M0,-3.0v7 M-2.5,-0.5L0,-3.0L2.5,-0.5"/>
                </g>
                <g id="arrowDown" xlink:href="#dirArrow" transform="rotate(180) translate(-30 -48)" onmousedown="handlePan(0,1)">
                  <use xlink:href="#rim" fill="#404040">
                        <set attributeName="fill" to="#808080" begin="arrowDown.mouseover" end="arrowDown.mouseout"/>
                  </use>
                  <path fill="none" stroke="white" stroke-width="1.5" d="M0,-3.0v7 M-2.5,-0.5L0,-3.0L2.5,-0.5"/>
                </g>
                <g id="arrowLeft" xlink:href="#dirArrow" transform="rotate(270) translate(-36 17)" onmousedown="handlePan(-1,0)">
                  <use xlink:href="#rim" fill="#404040">
                        <set attributeName="fill" to="#808080" begin="arrowLeft.mouseover" end="arrowLeft.mouseout"/>
                  </use>
                  <path fill="none" stroke="white" stroke-width="1.5" d="M0,-3.0v7 M-2.5,-0.5L0,-3.0L2.5,-0.5"/>
                </g>
        </g>
        <svg viewBox="0 0 15 15" width="100%" height="30px" preserveAspectRatio="xMaxYMin meet">
         <g id="arrow_out" transform="scale(0.3 0.3)">
          <a xlink:href="Scene_8cpp__incl_org.svg" target="_base">
           <rect id="button" ry="5" rx="5" y="6" x="6" height="38" width="38"
                fill="#f2f5e9" fill-opacity="0.5" stroke="#606060" stroke-width="1.0"/>
           <path id="arrow"
             d="M 11.500037,31.436501 C 11.940474,20.09759 22.043105,11.32322 32.158766,21.979434 L 37.068811,17.246167 C 37.068811,17.246167 37.088388,32 37.088388,32 L 22.160133,31.978069 C 22.160133,31.978069 26.997745,27.140456 26.997745,27.140456 C 18.528582,18.264221 13.291696,25.230495 11.500037,31.436501 z"
             style="fill:#404040;"/>
          </a>
         </g>
        </svg>
</svg>
