<?xml version="1.0" encoding="UTF-8" standalone="no"?>
<!DOCTYPE svg PUBLIC "-//W3C//DTD SVG 1.1//EN"
 "http://www.w3.org/Graphics/SVG/1.1/DTD/svg11.dtd">
<!-- Generated by graphviz version 2.38.0 (20140413.2041)
 -->
<!-- Title: engine/SceneGraphNode/SceneGraphNode.hpp Pages: 1 -->
<svg width="425pt" height="151pt"
 viewBox="0.00 0.00 424.50 151.00" xmlns="http://www.w3.org/2000/svg" xmlns:xlink="http://www.w3.org/1999/xlink">
<g id="graph0" class="graph" transform="scale(1 1) rotate(0) translate(4 147)">
<title>engine/SceneGraphNode/SceneGraphNode.hpp</title>
<!-- Node1 -->
<g id="node1" class="node"><title>Node1</title>
<polygon fill="#bfbfbf" stroke="black" points="49,-112.5 49,-142.5 174,-142.5 174,-112.5 49,-112.5"/>
<text text-anchor="start" x="57" y="-130.5" font-family="Helvetica,sans-Serif" font-size="10.00">engine/SceneGraphNode</text>
<text text-anchor="middle" x="111.5" y="-119.5" font-family="Helvetica,sans-Serif" font-size="10.00">/SceneGraphNode.hpp</text>
</g>
<!-- Node2 -->
<g id="node2" class="node"><title>Node2</title>
<polygon fill="none" stroke="#bfbfbf" points="0,-56.5 0,-75.5 41,-75.5 41,-56.5 0,-56.5"/>
<text text-anchor="middle" x="20.5" y="-63.5" font-family="Helvetica,sans-Serif" font-size="10.00">string</text>
</g>
<!-- Node1&#45;&gt;Node2 -->
<g id="edge1" class="edge"><title>Node1&#45;&gt;Node2</title>
<path fill="none" stroke="midnightblue" d="M89.9343,-112.399C75.6203,-103.04 56.8884,-90.7924 42.4885,-81.3771"/>
<polygon fill="midnightblue" stroke="midnightblue" points="44.0264,-78.2009 33.7413,-75.6578 40.1956,-84.0597 44.0264,-78.2009"/>
</g>
<!-- Node3 -->
<g id="node3" class="node"><title>Node3</title>
<polygon fill="none" stroke="#bfbfbf" points="59,-56.5 59,-75.5 88,-75.5 88,-56.5 59,-56.5"/>
<text text-anchor="middle" x="73.5" y="-63.5" font-family="Helvetica,sans-Serif" font-size="10.00">list</text>
</g>
<!-- Node1&#45;&gt;Node3 -->
<g id="edge2" class="edge"><title>Node1&#45;&gt;Node3</title>
<path fill="none" stroke="midnightblue" d="M102.495,-112.399C97.0865,-103.932 90.1683,-93.0991 84.4461,-84.1393"/>
<polygon fill="midnightblue" stroke="midnightblue" points="87.3616,-82.2018 79.0293,-75.6578 81.4621,-85.9695 87.3616,-82.2018"/>
</g>
<!-- Node4 -->
<g id="node4" class="node"><title>Node4</title>
<polygon fill="none" stroke="#bfbfbf" points="106.5,-56.5 106.5,-75.5 192.5,-75.5 192.5,-56.5 106.5,-56.5"/>
<text text-anchor="middle" x="149.5" y="-63.5" font-family="Helvetica,sans-Serif" font-size="10.00">assimp/scene.h</text>
</g>
<!-- Node1&#45;&gt;Node4 -->
<g id="edge3" class="edge"><title>Node1&#45;&gt;Node4</title>
<path fill="none" stroke="midnightblue" d="M120.505,-112.399C125.913,-103.932 132.832,-93.0991 138.554,-84.1393"/>
<polygon fill="midnightblue" stroke="midnightblue" points="141.538,-85.9695 143.971,-75.6578 135.638,-82.2018 141.538,-85.9695"/>
</g>
<!-- Node5 -->
<g id="node5" class="node"><title>Node5</title>
<g id="a_node5"><a xlink:href="../../da/d83/Transform_8hpp.html" target="_top" xlink:title="Transform.hpp">
<polygon fill="none" stroke="black" points="210.5,-56.5 210.5,-75.5 290.5,-75.5 290.5,-56.5 210.5,-56.5"/>
<text text-anchor="middle" x="250.5" y="-63.5" font-family="Helvetica,sans-Serif" font-size="10.00">Transform.hpp</text>
</a>
</g>
</g>
<!-- Node1&#45;&gt;Node5 -->
<g id="edge4" class="edge"><title>Node1&#45;&gt;Node5</title>
<path fill="none" stroke="midnightblue" d="M144.441,-112.399C167.659,-102.461 198.486,-89.2649 220.919,-79.6625"/>
<polygon fill="midnightblue" stroke="midnightblue" points="222.458,-82.8106 230.274,-75.6578 219.704,-76.3754 222.458,-82.8106"/>
</g>
<!-- Node6 -->
<g id="node6" class="node"><title>Node6</title>
<polygon fill="none" stroke="#bfbfbf" points="116.5,-0.5 116.5,-19.5 186.5,-19.5 186.5,-0.5 116.5,-0.5"/>
<text text-anchor="middle" x="151.5" y="-7.5" font-family="Helvetica,sans-Serif" font-size="10.00">glm/glm.hpp</text>
</g>
<!-- Node5&#45;&gt;Node6 -->
<g id="edge5" class="edge"><title>Node5&#45;&gt;Node6</title>
<path fill="none" stroke="midnightblue" d="M234.594,-56.324C218.862,-47.7428 194.558,-34.486 176.291,-24.5224"/>
<polygon fill="midnightblue" stroke="midnightblue" points="177.822,-21.3704 167.367,-19.6545 174.47,-27.5157 177.822,-21.3704"/>
</g>
<!-- Node7 -->
<g id="node7" class="node"><title>Node7</title>
<polygon fill="none" stroke="#bfbfbf" points="204.5,-0.5 204.5,-19.5 296.5,-19.5 296.5,-0.5 204.5,-0.5"/>
<text text-anchor="middle" x="250.5" y="-7.5" font-family="Helvetica,sans-Serif" font-size="10.00">assimp/vector3.h</text>
</g>
<!-- Node5&#45;&gt;Node7 -->
<g id="edge6" class="edge"><title>Node5&#45;&gt;Node7</title>
<path fill="none" stroke="midnightblue" d="M250.5,-56.083C250.5,-49.0059 250.5,-38.8611 250.5,-29.9865"/>
<polygon fill="midnightblue" stroke="midnightblue" points="254,-29.751 250.5,-19.7511 247,-29.7511 254,-29.751"/>
</g>
<!-- Node8 -->
<g id="node8" class="node"><title>Node8</title>
<polygon fill="none" stroke="#bfbfbf" points="314.5,-0.5 314.5,-19.5 416.5,-19.5 416.5,-0.5 314.5,-0.5"/>
<text text-anchor="middle" x="365.5" y="-7.5" font-family="Helvetica,sans-Serif" font-size="10.00">assimp/matrix4x4.h</text>
</g>
<!-- Node5&#45;&gt;Node8 -->
<g id="edge7" class="edge"><title>Node5&#45;&gt;Node8</title>
<path fill="none" stroke="midnightblue" d="M268.722,-56.4435C287.396,-47.6751 316.656,-33.9355 338.117,-23.8579"/>
<polygon fill="midnightblue" stroke="midnightblue" points="339.799,-26.935 347.363,-19.5164 336.824,-20.5988 339.799,-26.935"/>
</g>
</g>
</svg>
