<?xml version="1.0" encoding="UTF-8" standalone="no"?>
<!DOCTYPE svg PUBLIC "-//W3C//DTD SVG 1.1//EN"
 "http://www.w3.org/Graphics/SVG/1.1/DTD/svg11.dtd">
<!-- Generated by graphviz version 2.38.0 (20140413.2041)
 -->
<!-- Title: engine/Shaders/ShaderProgram/ShaderProgram.hpp Pages: 1 -->
<svg width="294pt" height="151pt"
 viewBox="0.00 0.00 294.00 151.00" xmlns="http://www.w3.org/2000/svg" xmlns:xlink="http://www.w3.org/1999/xlink">
<g id="graph0" class="graph" transform="scale(1 1) rotate(0) translate(4 147)">
<title>engine/Shaders/ShaderProgram/ShaderProgram.hpp</title>
<!-- Node1 -->
<g id="node1" class="node"><title>Node1</title>
<polygon fill="#bfbfbf" stroke="black" points="65.5,-112.5 65.5,-142.5 220.5,-142.5 220.5,-112.5 65.5,-112.5"/>
<text text-anchor="start" x="73.5" y="-130.5" font-family="Helvetica,sans-Serif" font-size="10.00">engine/Shaders/ShaderProgram</text>
<text text-anchor="middle" x="143" y="-119.5" font-family="Helvetica,sans-Serif" font-size="10.00">/ShaderProgram.hpp</text>
</g>
<!-- Node2 -->
<g id="node2" class="node"><title>Node2</title>
<polygon fill="none" stroke="#bfbfbf" points="0,-56.5 0,-75.5 70,-75.5 70,-56.5 0,-56.5"/>
<text text-anchor="middle" x="35" y="-63.5" font-family="Helvetica,sans-Serif" font-size="10.00">glm/glm.hpp</text>
</g>
<!-- Node1&#45;&gt;Node2 -->
<g id="edge1" class="edge"><title>Node1&#45;&gt;Node2</title>
<path fill="none" stroke="midnightblue" d="M117.406,-112.399C99.9321,-102.773 76.9116,-90.0902 59.6443,-80.5772"/>
<polygon fill="midnightblue" stroke="midnightblue" points="61.1626,-77.4177 50.715,-75.6578 57.7848,-83.5488 61.1626,-77.4177"/>
</g>
<!-- Node3 -->
<g id="node3" class="node"><title>Node3</title>
<polygon fill="none" stroke="#bfbfbf" points="88,-56.5 88,-75.5 132,-75.5 132,-56.5 88,-56.5"/>
<text text-anchor="middle" x="110" y="-63.5" font-family="Helvetica,sans-Serif" font-size="10.00">vector</text>
</g>
<!-- Node1&#45;&gt;Node3 -->
<g id="edge2" class="edge"><title>Node1&#45;&gt;Node3</title>
<path fill="none" stroke="midnightblue" d="M135.179,-112.399C130.532,-104.021 124.601,-93.3269 119.663,-84.4229"/>
<polygon fill="midnightblue" stroke="midnightblue" points="122.713,-82.7052 114.802,-75.6578 116.591,-86.1004 122.713,-82.7052"/>
</g>
<!-- Node4 -->
<g id="node4" class="node"><title>Node4</title>
<polygon fill="none" stroke="#bfbfbf" points="150,-56.5 150,-75.5 202,-75.5 202,-56.5 150,-56.5"/>
<text text-anchor="middle" x="176" y="-63.5" font-family="Helvetica,sans-Serif" font-size="10.00">memory</text>
</g>
<!-- Node1&#45;&gt;Node4 -->
<g id="edge3" class="edge"><title>Node1&#45;&gt;Node4</title>
<path fill="none" stroke="midnightblue" d="M150.821,-112.399C155.468,-104.021 161.399,-93.3269 166.337,-84.4229"/>
<polygon fill="midnightblue" stroke="midnightblue" points="169.409,-86.1004 171.198,-75.6578 163.287,-82.7052 169.409,-86.1004"/>
</g>
<!-- Node5 -->
<g id="node5" class="node"><title>Node5</title>
<g id="a_node5"><a xlink:href="../../d4/d6e/Shader_8hpp.html" target="_top" xlink:title="Shader.hpp">
<polygon fill="none" stroke="black" points="220,-56.5 220,-75.5 286,-75.5 286,-56.5 220,-56.5"/>
<text text-anchor="middle" x="253" y="-63.5" font-family="Helvetica,sans-Serif" font-size="10.00">Shader.hpp</text>
</a>
</g>
</g>
<!-- Node1&#45;&gt;Node5 -->
<g id="edge4" class="edge"><title>Node1&#45;&gt;Node5</title>
<path fill="none" stroke="midnightblue" d="M169.068,-112.399C186.865,-102.773 210.312,-90.0902 227.899,-80.5772"/>
<polygon fill="midnightblue" stroke="midnightblue" points="229.864,-83.494 236.994,-75.6578 226.533,-77.337 229.864,-83.494"/>
</g>
<!-- Node6 -->
<g id="node6" class="node"><title>Node6</title>
<polygon fill="none" stroke="#bfbfbf" points="232.5,-0.5 232.5,-19.5 273.5,-19.5 273.5,-0.5 232.5,-0.5"/>
<text text-anchor="middle" x="253" y="-7.5" font-family="Helvetica,sans-Serif" font-size="10.00">string</text>
</g>
<!-- Node5&#45;&gt;Node6 -->
<g id="edge5" class="edge"><title>Node5&#45;&gt;Node6</title>
<path fill="none" stroke="midnightblue" d="M253,-56.083C253,-49.0059 253,-38.8611 253,-29.9865"/>
<polygon fill="midnightblue" stroke="midnightblue" points="256.5,-29.751 253,-19.7511 249.5,-29.7511 256.5,-29.751"/>
</g>
</g>
</svg>
