<?xml version="1.0" encoding="UTF-8" standalone="no"?>
<!DOCTYPE svg PUBLIC "-//W3C//DTD SVG 1.1//EN"
 "http://www.w3.org/Graphics/SVG/1.1/DTD/svg11.dtd">
<!-- Generated by graphviz version 2.38.0 (20140413.2041)
 -->
<!-- Title: WorldParticles::Engine::ShaderProgramLibrary Pages: 1 -->
<svg width="270pt" height="613pt"
 viewBox="0.00 0.00 270.00 613.00" xmlns="http://www.w3.org/2000/svg" xmlns:xlink="http://www.w3.org/1999/xlink">
<g id="graph0" class="graph" transform="scale(1 1) rotate(0) translate(4 609)">
<title>WorldParticles::Engine::ShaderProgramLibrary</title>
<!-- Node1 -->
<g id="node1" class="node"><title>Node1</title>
<polygon fill="#bfbfbf" stroke="black" points="50,-0.5 50,-123.5 184,-123.5 184,-0.5 50,-0.5"/>
<text text-anchor="start" x="58" y="-111.5" font-family="Helvetica,sans-Serif" font-size="10.00">WorldParticles::Engine</text>
<text text-anchor="middle" x="117" y="-100.5" font-family="Helvetica,sans-Serif" font-size="10.00">::ShaderProgramLibrary</text>
<polyline fill="none" stroke="black" points="50,-93.5 184,-93.5 "/>
<text text-anchor="middle" x="117" y="-81.5" font-family="Helvetica,sans-Serif" font-size="10.00"> </text>
<polyline fill="none" stroke="black" points="50,-74.5 184,-74.5 "/>
<text text-anchor="start" x="58" y="-62.5" font-family="Helvetica,sans-Serif" font-size="10.00">+ ShaderProgramLibrary()</text>
<text text-anchor="start" x="58" y="-51.5" font-family="Helvetica,sans-Serif" font-size="10.00">+ ShaderProgramLibrary()</text>
<text text-anchor="start" x="58" y="-40.5" font-family="Helvetica,sans-Serif" font-size="10.00">+ ShaderProgramLibrary()</text>
<text text-anchor="start" x="58" y="-29.5" font-family="Helvetica,sans-Serif" font-size="10.00">+ ~ShaderProgramLibrary()</text>
<text text-anchor="start" x="58" y="-18.5" font-family="Helvetica,sans-Serif" font-size="10.00">+ operator=()</text>
<text text-anchor="start" x="58" y="-7.5" font-family="Helvetica,sans-Serif" font-size="10.00">+ operator=()</text>
</g>
<!-- Node2 -->
<g id="node2" class="node"><title>Node2</title>
<g id="a_node2"><a xlink:href="../../d6/da4/classWorldParticles_1_1Engine_1_1Library.html" target="_top" xlink:title="{WorldParticles::Engine\l::Library\&lt; std::shared\l_ptr\&lt; ShaderProgram \&gt; \&gt;\n||+ Library()\l+ Library()\l+ Library()\l+ ~Library()\l+ operator=()\l+ operator=()\l+ get()\l}">
<polygon fill="none" stroke="black" points="53,-161.5 53,-306.5 181,-306.5 181,-161.5 53,-161.5"/>
<text text-anchor="start" x="61" y="-294.5" font-family="Helvetica,sans-Serif" font-size="10.00">WorldParticles::Engine</text>
<text text-anchor="start" x="61" y="-283.5" font-family="Helvetica,sans-Serif" font-size="10.00">::Library&lt; std::shared</text>
<text text-anchor="middle" x="117" y="-272.5" font-family="Helvetica,sans-Serif" font-size="10.00">_ptr&lt; ShaderProgram &gt; &gt;</text>
<polyline fill="none" stroke="black" points="53,-265.5 181,-265.5 "/>
<text text-anchor="middle" x="117" y="-253.5" font-family="Helvetica,sans-Serif" font-size="10.00"> </text>
<polyline fill="none" stroke="black" points="53,-246.5 181,-246.5 "/>
<text text-anchor="start" x="61" y="-234.5" font-family="Helvetica,sans-Serif" font-size="10.00">+ Library()</text>
<text text-anchor="start" x="61" y="-223.5" font-family="Helvetica,sans-Serif" font-size="10.00">+ Library()</text>
<text text-anchor="start" x="61" y="-212.5" font-family="Helvetica,sans-Serif" font-size="10.00">+ Library()</text>
<text text-anchor="start" x="61" y="-201.5" font-family="Helvetica,sans-Serif" font-size="10.00">+ ~Library()</text>
<text text-anchor="start" x="61" y="-190.5" font-family="Helvetica,sans-Serif" font-size="10.00">+ operator=()</text>
<text text-anchor="start" x="61" y="-179.5" font-family="Helvetica,sans-Serif" font-size="10.00">+ operator=()</text>
<text text-anchor="start" x="61" y="-168.5" font-family="Helvetica,sans-Serif" font-size="10.00">+ get()</text>
</a>
</g>
</g>
<!-- Node2&#45;&gt;Node1 -->
<g id="edge1" class="edge"><title>Node2&#45;&gt;Node1</title>
<path fill="none" stroke="midnightblue" d="M117,-151.355C117,-142.062 117,-132.716 117,-123.761"/>
<polygon fill="none" stroke="midnightblue" points="113.5,-151.397 117,-161.397 120.5,-151.397 113.5,-151.397"/>
</g>
<!-- Node3 -->
<g id="node3" class="node"><title>Node3</title>
<g id="a_node3"><a xlink:href="../../d6/d3e/classstd_1_1vector_3_01std_1_1shared__ptr_3_01ShaderProgram_01_4_01_4.html" target="_top" xlink:title="{vector\&lt; std::shared\l_ptr\&lt; ShaderProgram \&gt; \&gt;\n||}">
<polygon fill="none" stroke="black" points="0,-398.5 0,-466.5 128,-466.5 128,-398.5 0,-398.5"/>
<text text-anchor="start" x="8" y="-454.5" font-family="Helvetica,sans-Serif" font-size="10.00">vector&lt; std::shared</text>
<text text-anchor="middle" x="64" y="-443.5" font-family="Helvetica,sans-Serif" font-size="10.00">_ptr&lt; ShaderProgram &gt; &gt;</text>
<polyline fill="none" stroke="black" points="0,-436.5 128,-436.5 "/>
<text text-anchor="middle" x="64" y="-424.5" font-family="Helvetica,sans-Serif" font-size="10.00"> </text>
<polyline fill="none" stroke="black" points="0,-417.5 128,-417.5 "/>
<text text-anchor="middle" x="64" y="-405.5" font-family="Helvetica,sans-Serif" font-size="10.00"> </text>
</a>
</g>
</g>
<!-- Node3&#45;&gt;Node2 -->
<g id="edge2" class="edge"><title>Node3&#45;&gt;Node2</title>
<path fill="none" stroke="#404040" d="M72.9907,-398.166C78.8827,-376.322 86.8648,-346.728 94.4136,-318.74"/>
<polygon fill="none" stroke="#404040" points="94.49,-318.457 92.1905,-311.622 97.615,-306.871 99.9145,-313.705 94.49,-318.457"/>
<text text-anchor="middle" x="118" y="-333.5" font-family="Helvetica,sans-Serif" font-size="10.00"> #resources</text>
</g>
<!-- Node4 -->
<g id="node4" class="node"><title>Node4</title>
<g id="a_node4"><a xlink:href="../../d6/da4/classWorldParticles_1_1Engine_1_1Library.html" target="_top" xlink:title="{WorldParticles::Engine\l::Library\&lt; T \&gt;\n||+ Library()\l+ Library()\l+ Library()\l+ ~Library()\l+ operator=()\l+ operator=()\l+ get()\l}">
<polygon fill="none" stroke="black" points="146,-365.5 146,-499.5 262,-499.5 262,-365.5 146,-365.5"/>
<text text-anchor="start" x="154" y="-487.5" font-family="Helvetica,sans-Serif" font-size="10.00">WorldParticles::Engine</text>
<text text-anchor="middle" x="204" y="-476.5" font-family="Helvetica,sans-Serif" font-size="10.00">::Library&lt; T &gt;</text>
<polyline fill="none" stroke="black" points="146,-469.5 262,-469.5 "/>
<text text-anchor="middle" x="204" y="-457.5" font-family="Helvetica,sans-Serif" font-size="10.00"> </text>
<polyline fill="none" stroke="black" points="146,-450.5 262,-450.5 "/>
<text text-anchor="start" x="154" y="-438.5" font-family="Helvetica,sans-Serif" font-size="10.00">+ Library()</text>
<text text-anchor="start" x="154" y="-427.5" font-family="Helvetica,sans-Serif" font-size="10.00">+ Library()</text>
<text text-anchor="start" x="154" y="-416.5" font-family="Helvetica,sans-Serif" font-size="10.00">+ Library()</text>
<text text-anchor="start" x="154" y="-405.5" font-family="Helvetica,sans-Serif" font-size="10.00">+ ~Library()</text>
<text text-anchor="start" x="154" y="-394.5" font-family="Helvetica,sans-Serif" font-size="10.00">+ operator=()</text>
<text text-anchor="start" x="154" y="-383.5" font-family="Helvetica,sans-Serif" font-size="10.00">+ operator=()</text>
<text text-anchor="start" x="154" y="-372.5" font-family="Helvetica,sans-Serif" font-size="10.00">+ get()</text>
</a>
</g>
</g>
<!-- Node4&#45;&gt;Node2 -->
<g id="edge3" class="edge"><title>Node4&#45;&gt;Node2</title>
<path fill="none" stroke="orange" d="M170.507,-355.852C163.356,-339.701 155.824,-322.689 148.741,-306.692"/>
<polygon fill="orange" stroke="orange" points="167.418,-357.521 174.667,-365.248 173.819,-354.687 167.418,-357.521"/>
<text text-anchor="start" x="165" y="-339" font-family="Helvetica,sans-Serif" font-size="10.00"> &lt; std::shared_ptr&lt;</text>
<text text-anchor="middle" x="209.5" y="-328" font-family="Helvetica,sans-Serif" font-size="10.00"> ShaderProgram &gt; &gt;</text>
</g>
<!-- Node5 -->
<g id="node5" class="node"><title>Node5</title>
<polygon fill="none" stroke="#bfbfbf" points="170,-547.5 170,-604.5 238,-604.5 238,-547.5 170,-547.5"/>
<text text-anchor="middle" x="204" y="-592.5" font-family="Helvetica,sans-Serif" font-size="10.00">vector&lt; T &gt;</text>
<polyline fill="none" stroke="#bfbfbf" points="170,-585.5 238,-585.5 "/>
<text text-anchor="middle" x="204" y="-573.5" font-family="Helvetica,sans-Serif" font-size="10.00"> </text>
<polyline fill="none" stroke="#bfbfbf" points="170,-566.5 238,-566.5 "/>
<text text-anchor="middle" x="204" y="-554.5" font-family="Helvetica,sans-Serif" font-size="10.00"> </text>
</g>
<!-- Node5&#45;&gt;Node4 -->
<g id="edge4" class="edge"><title>Node5&#45;&gt;Node4</title>
<path fill="none" stroke="#404040" d="M204,-547.381C204,-537.02 204,-524.663 204,-511.97"/>
<polygon fill="none" stroke="#404040" points="204,-511.753 200,-505.753 204,-499.753 208,-505.753 204,-511.753"/>
<text text-anchor="middle" x="230" y="-521" font-family="Helvetica,sans-Serif" font-size="10.00"> #resources</text>
</g>
</g>
</svg>
