<?xml version="1.0" encoding="UTF-8" standalone="no"?>
<!DOCTYPE svg PUBLIC "-//W3C//DTD SVG 1.1//EN"
 "http://www.w3.org/Graphics/SVG/1.1/DTD/svg11.dtd">
<!-- Generated by graphviz version 2.38.0 (20140413.2041)
 -->
<!-- Title: model/tools.hpp Pages: 1 -->
<svg width="1225pt" height="263pt"
 viewBox="0.00 0.00 1225.00 263.00" xmlns="http://www.w3.org/2000/svg" xmlns:xlink="http://www.w3.org/1999/xlink">
<g id="graph0" class="graph" transform="scale(1 1) rotate(0) translate(4 259)">
<title>model/tools.hpp</title>
<!-- Node1 -->
<g id="node1" class="node"><title>Node1</title>
<polygon fill="#bfbfbf" stroke="black" points="993,-235.5 993,-254.5 1079,-254.5 1079,-235.5 993,-235.5"/>
<text text-anchor="middle" x="1036" y="-242.5" font-family="Helvetica,sans-Serif" font-size="10.00">model/tools.hpp</text>
</g>
<!-- Node2 -->
<g id="node2" class="node"><title>Node2</title>
<g id="a_node2"><a xlink:href="../../dc/ddc/model_8hpp.html" target="_top" xlink:title="model/model.hpp">
<polygon fill="none" stroke="black" points="883.5,-179.5 883.5,-198.5 974.5,-198.5 974.5,-179.5 883.5,-179.5"/>
<text text-anchor="middle" x="929" y="-186.5" font-family="Helvetica,sans-Serif" font-size="10.00">model/model.hpp</text>
</a>
</g>
</g>
<!-- Node1&#45;&gt;Node2 -->
<g id="edge1" class="edge"><title>Node1&#45;&gt;Node2</title>
<path fill="none" stroke="midnightblue" d="M1009.7,-230.726C989.885,-220.727 963.293,-207.307 946.149,-198.655"/>
<polygon fill="midnightblue" stroke="midnightblue" points="1008.3,-233.943 1018.81,-235.324 1011.46,-227.694 1008.3,-233.943"/>
</g>
<!-- Node17 -->
<g id="node17" class="node"><title>Node17</title>
<g id="a_node17"><a xlink:href="../../d3/d62/tools_8cpp.html" target="_top" xlink:title="model/tools.cpp">
<polygon fill="none" stroke="black" points="993,-179.5 993,-198.5 1079,-198.5 1079,-179.5 993,-179.5"/>
<text text-anchor="middle" x="1036" y="-186.5" font-family="Helvetica,sans-Serif" font-size="10.00">model/tools.cpp</text>
</a>
</g>
</g>
<!-- Node1&#45;&gt;Node17 -->
<g id="edge18" class="edge"><title>Node1&#45;&gt;Node17</title>
<path fill="none" stroke="midnightblue" d="M1036,-224.805C1036,-215.91 1036,-205.78 1036,-198.751"/>
<polygon fill="midnightblue" stroke="midnightblue" points="1032.5,-225.083 1036,-235.083 1039.5,-225.083 1032.5,-225.083"/>
</g>
<!-- Node18 -->
<g id="node18" class="node"><title>Node18</title>
<g id="a_node18"><a xlink:href="../../d5/d6d/glwidget_8hpp.html" target="_top" xlink:title="window/glwidget.hpp">
<polygon fill="none" stroke="black" points="1097.5,-179.5 1097.5,-198.5 1204.5,-198.5 1204.5,-179.5 1097.5,-179.5"/>
<text text-anchor="middle" x="1151" y="-186.5" font-family="Helvetica,sans-Serif" font-size="10.00">window/glwidget.hpp</text>
</a>
</g>
</g>
<!-- Node1&#45;&gt;Node18 -->
<g id="edge19" class="edge"><title>Node1&#45;&gt;Node18</title>
<path fill="none" stroke="midnightblue" d="M1063.48,-231.096C1084.97,-221.007 1114.22,-207.27 1132.86,-198.516"/>
<polygon fill="midnightblue" stroke="midnightblue" points="1061.79,-228.025 1054.22,-235.444 1064.76,-234.361 1061.79,-228.025"/>
</g>
<!-- Node3 -->
<g id="node3" class="node"><title>Node3</title>
<g id="a_node3"><a xlink:href="../../d6/db4/model_8cpp.html" target="_top" xlink:title="model/model.cpp">
<polygon fill="none" stroke="black" points="514.5,-123.5 514.5,-142.5 605.5,-142.5 605.5,-123.5 514.5,-123.5"/>
<text text-anchor="middle" x="560" y="-130.5" font-family="Helvetica,sans-Serif" font-size="10.00">model/model.cpp</text>
</a>
</g>
</g>
<!-- Node2&#45;&gt;Node3 -->
<g id="edge2" class="edge"><title>Node2&#45;&gt;Node3</title>
<path fill="none" stroke="midnightblue" d="M873.374,-180.368C810.573,-171.673 705.364,-156.867 615,-143 611.94,-142.53 608.785,-142.038 605.607,-141.535"/>
<polygon fill="midnightblue" stroke="midnightblue" points="873.073,-183.86 883.458,-181.762 874.032,-176.926 873.073,-183.86"/>
</g>
<!-- Node4 -->
<g id="node4" class="node"><title>Node4</title>
<g id="a_node4"><a xlink:href="../../d0/d5e/glwindow_8hpp.html" target="_top" xlink:title="window/glwindow.hpp">
<polygon fill="none" stroke="black" points="624,-123.5 624,-142.5 736,-142.5 736,-123.5 624,-123.5"/>
<text text-anchor="middle" x="680" y="-130.5" font-family="Helvetica,sans-Serif" font-size="10.00">window/glwindow.hpp</text>
</a>
</g>
</g>
<!-- Node2&#45;&gt;Node4 -->
<g id="edge3" class="edge"><title>Node2&#45;&gt;Node4</title>
<path fill="none" stroke="midnightblue" d="M879.576,-177.281C832.521,-167.077 762.633,-151.92 719.27,-142.516"/>
<polygon fill="midnightblue" stroke="midnightblue" points="879.031,-180.745 889.545,-179.444 880.514,-173.904 879.031,-180.745"/>
</g>
<!-- Node12 -->
<g id="node12" class="node"><title>Node12</title>
<g id="a_node12"><a xlink:href="../../df/d50/mainwindow_8hpp.html" target="_top" xlink:title="window/mainwindow.hpp">
<polygon fill="none" stroke="black" points="957.5,-62 957.5,-81 1082.5,-81 1082.5,-62 957.5,-62"/>
<text text-anchor="middle" x="1020" y="-69" font-family="Helvetica,sans-Serif" font-size="10.00">window/mainwindow.hpp</text>
</a>
</g>
</g>
<!-- Node2&#45;&gt;Node12 -->
<g id="edge17" class="edge"><title>Node2&#45;&gt;Node12</title>
<path fill="none" stroke="midnightblue" d="M932.856,-169.432C936.397,-155.628 942.693,-136.864 953,-123 966.644,-104.648 988.753,-89.8119 1003.81,-81.0819"/>
<polygon fill="midnightblue" stroke="midnightblue" points="929.429,-168.719 930.582,-179.251 936.248,-170.298 929.429,-168.719"/>
</g>
<!-- Node15 -->
<g id="node15" class="node"><title>Node15</title>
<g id="a_node15"><a xlink:href="../../dd/da8/toolwidget_8hpp.html" target="_top" xlink:title="window/toolwidget.hpp">
<polygon fill="none" stroke="black" points="962,-123.5 962,-142.5 1078,-142.5 1078,-123.5 962,-123.5"/>
<text text-anchor="middle" x="1020" y="-130.5" font-family="Helvetica,sans-Serif" font-size="10.00">window/toolwidget.hpp</text>
</a>
</g>
</g>
<!-- Node2&#45;&gt;Node15 -->
<g id="edge14" class="edge"><title>Node2&#45;&gt;Node15</title>
<path fill="none" stroke="midnightblue" d="M952.294,-174.177C969.039,-164.241 991.1,-151.149 1005.42,-142.655"/>
<polygon fill="midnightblue" stroke="midnightblue" points="950.434,-171.211 943.621,-179.324 954.007,-177.231 950.434,-171.211"/>
</g>
<!-- Node5 -->
<g id="node5" class="node"><title>Node5</title>
<g id="a_node5"><a xlink:href="../../d8/d49/ArrayObject_8cpp.html" target="_top" xlink:title="engine/ArrayObject\l/ArrayObject.cpp">
<polygon fill="none" stroke="black" points="0,-56.5 0,-86.5 100,-86.5 100,-56.5 0,-56.5"/>
<text text-anchor="start" x="8" y="-74.5" font-family="Helvetica,sans-Serif" font-size="10.00">engine/ArrayObject</text>
<text text-anchor="middle" x="50" y="-63.5" font-family="Helvetica,sans-Serif" font-size="10.00">/ArrayObject.cpp</text>
</a>
</g>
</g>
<!-- Node4&#45;&gt;Node5 -->
<g id="edge4" class="edge"><title>Node4&#45;&gt;Node5</title>
<path fill="none" stroke="midnightblue" d="M613.703,-123.056C388.426,-100.425 328.023,-121.465 109,-87 106.082,-86.5409 103.097,-86.0088 100.094,-85.4251"/>
<polygon fill="midnightblue" stroke="midnightblue" points="613.556,-126.559 623.86,-124.094 614.268,-119.595 613.556,-126.559"/>
</g>
<!-- Node6 -->
<g id="node6" class="node"><title>Node6</title>
<g id="a_node6"><a xlink:href="../../db/d2b/BufferObject_8cpp.html" target="_top" xlink:title="engine/BufferObject\l/BufferObject.cpp">
<polygon fill="none" stroke="black" points="118.5,-56.5 118.5,-86.5 221.5,-86.5 221.5,-56.5 118.5,-56.5"/>
<text text-anchor="start" x="126.5" y="-74.5" font-family="Helvetica,sans-Serif" font-size="10.00">engine/BufferObject</text>
<text text-anchor="middle" x="170" y="-63.5" font-family="Helvetica,sans-Serif" font-size="10.00">/BufferObject.cpp</text>
</a>
</g>
</g>
<!-- Node4&#45;&gt;Node6 -->
<g id="edge5" class="edge"><title>Node4&#45;&gt;Node6</title>
<path fill="none" stroke="midnightblue" d="M613.73,-123.031C442.411,-103.865 396.479,-114.307 231,-87 227.993,-86.5037 224.914,-85.9426 221.814,-85.3367"/>
<polygon fill="midnightblue" stroke="midnightblue" points="613.519,-126.529 623.851,-124.181 614.31,-119.574 613.519,-126.529"/>
</g>
<!-- Node7 -->
<g id="node7" class="node"><title>Node7</title>
<g id="a_node7"><a xlink:href="../../d2/dcc/Mesh_8cpp.html" target="_top" xlink:title="engine/Mesh/Mesh.cpp">
<polygon fill="none" stroke="black" points="240,-62 240,-81 358,-81 358,-62 240,-62"/>
<text text-anchor="middle" x="299" y="-69" font-family="Helvetica,sans-Serif" font-size="10.00">engine/Mesh/Mesh.cpp</text>
</a>
</g>
</g>
<!-- Node4&#45;&gt;Node7 -->
<g id="edge6" class="edge"><title>Node4&#45;&gt;Node7</title>
<path fill="none" stroke="midnightblue" d="M613.811,-122.726C529.191,-110.833 390.728,-91.2306 367,-87 357.137,-85.2414 346.521,-83.099 336.678,-81.0064"/>
<polygon fill="midnightblue" stroke="midnightblue" points="613.462,-126.212 623.852,-124.137 614.436,-119.28 613.462,-126.212"/>
</g>
<!-- Node8 -->
<g id="node8" class="node"><title>Node8</title>
<g id="a_node8"><a xlink:href="../../d3/d28/Renderer_8cpp.html" target="_top" xlink:title="engine/Renderer/Renderer.cpp">
<polygon fill="none" stroke="black" points="376.5,-62 376.5,-81 525.5,-81 525.5,-62 376.5,-62"/>
<text text-anchor="middle" x="451" y="-69" font-family="Helvetica,sans-Serif" font-size="10.00">engine/Renderer/Renderer.cpp</text>
</a>
</g>
</g>
<!-- Node4&#45;&gt;Node8 -->
<g id="edge7" class="edge"><title>Node4&#45;&gt;Node8</title>
<path fill="none" stroke="midnightblue" d="M637.262,-120.896C592.786,-109.34 524.108,-91.4952 483.749,-81.0091"/>
<polygon fill="midnightblue" stroke="midnightblue" points="636.631,-124.348 647.19,-123.475 638.391,-117.573 636.631,-124.348"/>
</g>
<!-- Node9 -->
<g id="node9" class="node"><title>Node9</title>
<g id="a_node9"><a xlink:href="../../dd/d84/Shader_8cpp.html" target="_top" xlink:title="engine/Shader/Shader.cpp">
<polygon fill="none" stroke="black" points="543.5,-62 543.5,-81 674.5,-81 674.5,-62 543.5,-62"/>
<text text-anchor="middle" x="609" y="-69" font-family="Helvetica,sans-Serif" font-size="10.00">engine/Shader/Shader.cpp</text>
</a>
</g>
</g>
<!-- Node4&#45;&gt;Node9 -->
<g id="edge8" class="edge"><title>Node4&#45;&gt;Node9</title>
<path fill="none" stroke="midnightblue" d="M662.068,-116.973C648.489,-105.593 630.323,-90.3694 619.154,-81.0091"/>
<polygon fill="midnightblue" stroke="midnightblue" points="659.915,-119.735 669.827,-123.475 664.411,-114.369 659.915,-119.735"/>
</g>
<!-- Node10 -->
<g id="node10" class="node"><title>Node10</title>
<g id="a_node10"><a xlink:href="../../de/d34/ShaderProgram_8cpp.html" target="_top" xlink:title="engine/ShaderProgram\l/ShaderProgram.cpp">
<polygon fill="none" stroke="black" points="693,-56.5 693,-86.5 809,-86.5 809,-56.5 693,-56.5"/>
<text text-anchor="start" x="701" y="-74.5" font-family="Helvetica,sans-Serif" font-size="10.00">engine/ShaderProgram</text>
<text text-anchor="middle" x="751" y="-63.5" font-family="Helvetica,sans-Serif" font-size="10.00">/ShaderProgram.cpp</text>
</a>
</g>
</g>
<!-- Node4&#45;&gt;Node10 -->
<g id="edge9" class="edge"><title>Node4&#45;&gt;Node10</title>
<path fill="none" stroke="midnightblue" d="M697.993,-116.921C709.141,-107.579 723.362,-95.6616 734.267,-86.523"/>
<polygon fill="midnightblue" stroke="midnightblue" points="695.589,-114.369 690.173,-123.475 700.085,-119.735 695.589,-114.369"/>
</g>
<!-- Node11 -->
<g id="node11" class="node"><title>Node11</title>
<g id="a_node11"><a xlink:href="../../d3/d1f/glwindow_8cpp.html" target="_top" xlink:title="window/glwindow.cpp">
<polygon fill="none" stroke="black" points="827,-62 827,-81 939,-81 939,-62 827,-62"/>
<text text-anchor="middle" x="883" y="-69" font-family="Helvetica,sans-Serif" font-size="10.00">window/glwindow.cpp</text>
</a>
</g>
</g>
<!-- Node4&#45;&gt;Node11 -->
<g id="edge10" class="edge"><title>Node4&#45;&gt;Node11</title>
<path fill="none" stroke="midnightblue" d="M718.886,-120.602C758.336,-109.04 818.494,-91.4069 853.969,-81.0091"/>
<polygon fill="midnightblue" stroke="midnightblue" points="717.697,-117.304 709.085,-123.475 719.666,-124.021 717.697,-117.304"/>
</g>
<!-- Node4&#45;&gt;Node12 -->
<g id="edge11" class="edge"><title>Node4&#45;&gt;Node12</title>
<path fill="none" stroke="midnightblue" d="M744.17,-121.824C798.526,-113.061 878.48,-99.8334 948,-87 958.031,-85.1482 968.824,-83.0378 978.923,-81.0112"/>
<polygon fill="midnightblue" stroke="midnightblue" points="743.306,-118.418 733.989,-123.461 744.418,-125.329 743.306,-118.418"/>
</g>
<!-- Node13 -->
<g id="node13" class="node"><title>Node13</title>
<g id="a_node13"><a xlink:href="../../df/d0a/main_8cpp.html" target="_top" xlink:title="TODO. ">
<polygon fill="none" stroke="black" points="938,-0.5 938,-19.5 994,-19.5 994,-0.5 938,-0.5"/>
<text text-anchor="middle" x="966" y="-7.5" font-family="Helvetica,sans-Serif" font-size="10.00">main.cpp</text>
</a>
</g>
</g>
<!-- Node12&#45;&gt;Node13 -->
<g id="edge12" class="edge"><title>Node12&#45;&gt;Node13</title>
<path fill="none" stroke="midnightblue" d="M1005.48,-54.4975C995.256,-43.2356 981.977,-28.6044 973.723,-19.5091"/>
<polygon fill="midnightblue" stroke="midnightblue" points="1002.95,-56.9222 1012.26,-61.9751 1008.13,-52.2178 1002.95,-56.9222"/>
</g>
<!-- Node14 -->
<g id="node14" class="node"><title>Node14</title>
<g id="a_node14"><a xlink:href="../../d8/dd9/mainwindow_8cpp.html" target="_top" xlink:title="window/mainwindow.cpp">
<polygon fill="none" stroke="black" points="1011.5,-0.5 1011.5,-19.5 1136.5,-19.5 1136.5,-0.5 1011.5,-0.5"/>
<text text-anchor="middle" x="1074" y="-7.5" font-family="Helvetica,sans-Serif" font-size="10.00">window/mainwindow.cpp</text>
</a>
</g>
</g>
<!-- Node12&#45;&gt;Node14 -->
<g id="edge13" class="edge"><title>Node12&#45;&gt;Node14</title>
<path fill="none" stroke="midnightblue" d="M1034.52,-54.4975C1044.74,-43.2356 1058.02,-28.6044 1066.28,-19.5091"/>
<polygon fill="midnightblue" stroke="midnightblue" points="1031.87,-52.2178 1027.74,-61.9751 1037.05,-56.9222 1031.87,-52.2178"/>
</g>
<!-- Node15&#45;&gt;Node12 -->
<g id="edge15" class="edge"><title>Node15&#45;&gt;Node12</title>
<path fill="none" stroke="midnightblue" d="M1020,-113.317C1020,-102.496 1020,-89.398 1020,-81.0091"/>
<polygon fill="midnightblue" stroke="midnightblue" points="1016.5,-113.475 1020,-123.475 1023.5,-113.475 1016.5,-113.475"/>
</g>
<!-- Node16 -->
<g id="node16" class="node"><title>Node16</title>
<g id="a_node16"><a xlink:href="../../df/d91/toolwidget_8cpp.html" target="_top" xlink:title="window/toolwidget.cpp">
<polygon fill="none" stroke="black" points="1101,-62 1101,-81 1217,-81 1217,-62 1101,-62"/>
<text text-anchor="middle" x="1159" y="-69" font-family="Helvetica,sans-Serif" font-size="10.00">window/toolwidget.cpp</text>
</a>
</g>
</g>
<!-- Node15&#45;&gt;Node16 -->
<g id="edge16" class="edge"><title>Node15&#45;&gt;Node16</title>
<path fill="none" stroke="midnightblue" d="M1049.25,-119.48C1076.25,-107.924 1115.6,-91.0758 1139.12,-81.0091"/>
<polygon fill="midnightblue" stroke="midnightblue" points="1047.73,-116.322 1039.92,-123.475 1050.49,-122.757 1047.73,-116.322"/>
</g>
<!-- Node19 -->
<g id="node19" class="node"><title>Node19</title>
<g id="a_node19"><a xlink:href="../../d8/d16/glwidget_8cpp.html" target="_top" xlink:title="window/glwidget.cpp">
<polygon fill="none" stroke="black" points="1097.5,-123.5 1097.5,-142.5 1204.5,-142.5 1204.5,-123.5 1097.5,-123.5"/>
<text text-anchor="middle" x="1151" y="-130.5" font-family="Helvetica,sans-Serif" font-size="10.00">window/glwidget.cpp</text>
</a>
</g>
</g>
<!-- Node18&#45;&gt;Node19 -->
<g id="edge20" class="edge"><title>Node18&#45;&gt;Node19</title>
<path fill="none" stroke="midnightblue" d="M1151,-168.805C1151,-159.91 1151,-149.78 1151,-142.751"/>
<polygon fill="midnightblue" stroke="midnightblue" points="1147.5,-169.083 1151,-179.083 1154.5,-169.083 1147.5,-169.083"/>
</g>
</g>
</svg>
