<?xml version="1.0" encoding="UTF-8" standalone="no"?>
<!DOCTYPE svg PUBLIC "-//W3C//DTD SVG 1.1//EN"
 "http://www.w3.org/Graphics/SVG/1.1/DTD/svg11.dtd">
<!-- Generated by graphviz version 2.38.0 (20140413.2041)
 -->
<!-- Title: engine/GameObject/GameObject.cpp Pages: 1 -->
<!--zoomable 308 -->
<svg id="main" version="1.1" xmlns="http://www.w3.org/2000/svg" xmlns:xlink="http://www.w3.org/1999/xlink" xml:space="preserve" onload="init(evt)">
<style type="text/css"><![CDATA[
.edge:hover path { stroke: red; }
.edge:hover polygon { stroke: red; fill: red; }
]]></style>
<script type="text/javascript"><![CDATA[
var edges = document.getElementsByTagName('g');
if (edges && edges.length) {
  for (var i=0;i<edges.length;i++) {
    if (edges[i].id.substr(0,4)=='edge') {
      edges[i].setAttribute('class','edge');
    }
  }
}
]]></script>
        <defs>
                <circle id="rim" cx="0" cy="0" r="7"/>
                <circle id="rim2" cx="0" cy="0" r="3.5"/>
                <g id="zoomPlus">
                        <use xlink:href="#rim" fill="#404040">
                                <set attributeName="fill" to="#808080" begin="zoomplus.mouseover" end="zoomplus.mouseout"/>
                        </use>
                        <path d="M-4,0h8M0,-4v8" fill="none" stroke="white" stroke-width="1.5" pointer-events="none"/>
                </g>
                <g id="zoomMin">
                        <use xlink:href="#rim" fill="#404040">
                                <set attributeName="fill" to="#808080" begin="zoomminus.mouseover" end="zoomminus.mouseout"/>
                        </use>
                        <path d="M-4,0h8" fill="none" stroke="white" stroke-width="1.5" pointer-events="none"/>
                </g>
                <g id="dirArrow">
                        <path fill="none" stroke="white" stroke-width="1.5" d="M0,-3.0v7 M-2.5,-0.5L0,-3.0L2.5,-0.5"/>
                </g>
               <g id="resetDef">
                       <use xlink:href="#rim2" fill="#404040">
                               <set attributeName="fill" to="#808080" begin="reset.mouseover" end="reset.mouseout"/>
                       </use>
               </g>
        </defs>

<script type="text/javascript">
var viewWidth = 790;
var viewHeight = 308;
var sectionId = 'dynsection-0';
</script>
<script xlink:href="../../svgpan.js"/>
<svg id="graph" class="graph">
<g id="viewport">
<title>engine/GameObject/GameObject.cpp</title>
<!-- Node1 -->
<g id="node1" class="node"><title>Node1</title>
<polygon fill="#bfbfbf" stroke="black" points="97.77,-280.5 97.77,-299.5 276.77,-299.5 276.77,-280.5 97.77,-280.5"/>
<text text-anchor="middle" x="187.27" y="-287.5" font-family="Helvetica,sans-Serif" font-size="10.00">engine/GameObject/GameObject.cpp</text>
</g>
<!-- Node2 -->
<g id="node2" class="node"><title>Node2</title>
<g id="a_node2"><a xlink:href="../../d4/db5/GameObject_8hpp.html" target="_top" xlink:title="GameObject.hpp">
<polygon fill="none" stroke="black" points="142.27,-224.5 142.27,-243.5 232.27,-243.5 232.27,-224.5 142.27,-224.5"/>
<text text-anchor="middle" x="187.27" y="-231.5" font-family="Helvetica,sans-Serif" font-size="10.00">GameObject.hpp</text>
</a>
</g>
</g>
<!-- Node1&#45;&gt;Node2 -->
<g id="edge1" class="edge"><title>Node1&#45;&gt;Node2</title>
<path fill="none" stroke="midnightblue" d="M187.27,-280.083C187.27,-273.006 187.27,-262.861 187.27,-253.986"/>
<polygon fill="midnightblue" stroke="midnightblue" points="190.77,-253.751 187.27,-243.751 183.77,-253.751 190.77,-253.751"/>
</g>
<!-- Node3 -->
<g id="node3" class="node"><title>Node3</title>
<polygon fill="none" stroke="#bfbfbf" points="177.27,-56.5 177.27,-75.5 247.27,-75.5 247.27,-56.5 177.27,-56.5"/>
<text text-anchor="middle" x="212.27" y="-63.5" font-family="Helvetica,sans-Serif" font-size="10.00">glm/glm.hpp</text>
</g>
<!-- Node2&#45;&gt;Node3 -->
<g id="edge2" class="edge"><title>Node2&#45;&gt;Node3</title>
<path fill="none" stroke="midnightblue" d="M142.163,-228.297C93.3603,-222.169 20.2244,-209.601 3.27001,-188 -2.21824,-181.008 1.16647,-176.636 3.27001,-168 9.90286,-140.768 10.283,-129.383 32.27,-112 70.8913,-81.4667 127.558,-71.352 166.955,-68.1583"/>
<polygon fill="midnightblue" stroke="midnightblue" points="167.343,-71.6399 177.078,-67.4583 166.86,-64.6566 167.343,-71.6399"/>
</g>
<!-- Node4 -->
<g id="node4" class="node"><title>Node4</title>
<polygon fill="none" stroke="#bfbfbf" points="422.27,-56.5 422.27,-75.5 474.27,-75.5 474.27,-56.5 422.27,-56.5"/>
<text text-anchor="middle" x="448.27" y="-63.5" font-family="Helvetica,sans-Serif" font-size="10.00">memory</text>
</g>
<!-- Node2&#45;&gt;Node4 -->
<g id="edge3" class="edge"><title>Node2&#45;&gt;Node4</title>
<path fill="none" stroke="midnightblue" d="M232.308,-226.529C269.885,-220.035 324.212,-208.057 368.27,-188 407.771,-170.018 428.227,-170.496 448.27,-132 455.68,-117.768 454.859,-99.2936 452.664,-85.6798"/>
<polygon fill="midnightblue" stroke="midnightblue" points="456.039,-84.7078 450.648,-75.5873 449.174,-86.0792 456.039,-84.7078"/>
</g>
<!-- Node5 -->
<g id="node5" class="node"><title>Node5</title>
<g id="a_node5"><a xlink:href="../../de/df7/worldparticles_8hpp.html" target="_top" xlink:title="wordparticles configuration file ">
<polygon fill="none" stroke="black" points="50.77,-112.5 50.77,-131.5 145.77,-131.5 145.77,-112.5 50.77,-112.5"/>
<text text-anchor="middle" x="98.27" y="-119.5" font-family="Helvetica,sans-Serif" font-size="10.00">worldparticles.hpp</text>
</a>
</g>
</g>
<!-- Node2&#45;&gt;Node5 -->
<g id="edge4" class="edge"><title>Node2&#45;&gt;Node5</title>
<path fill="none" stroke="midnightblue" d="M176.605,-224.384C166.352,-215.797 150.761,-201.917 139.27,-188 126.966,-173.098 115.46,-154.251 107.788,-140.693"/>
<polygon fill="midnightblue" stroke="midnightblue" points="110.822,-138.948 102.922,-131.888 104.695,-142.334 110.822,-138.948"/>
</g>
<!-- Node6 -->
<g id="node6" class="node"><title>Node6</title>
<g id="a_node6"><a xlink:href="../../da/d83/Transform_8hpp.html" target="_top" xlink:title="Transform.hpp">
<polygon fill="none" stroke="black" points="12.27,-168.5 12.27,-187.5 92.27,-187.5 92.27,-168.5 12.27,-168.5"/>
<text text-anchor="middle" x="52.27" y="-175.5" font-family="Helvetica,sans-Serif" font-size="10.00">Transform.hpp</text>
</a>
</g>
</g>
<!-- Node2&#45;&gt;Node6 -->
<g id="edge5" class="edge"><title>Node2&#45;&gt;Node6</title>
<path fill="none" stroke="midnightblue" d="M165.879,-224.444C143.563,-215.517 108.367,-201.439 83.0621,-191.317"/>
<polygon fill="midnightblue" stroke="midnightblue" points="84.1457,-187.981 73.5611,-187.516 81.546,-194.48 84.1457,-187.981"/>
</g>
<!-- Node7 -->
<g id="node7" class="node"><title>Node7</title>
<g id="a_node7"><a xlink:href="../../d1/dca/IRenderer_8hpp.html" target="_top" xlink:title="IRenderer.hpp">
<polygon fill="none" stroke="black" points="148.27,-168.5 148.27,-187.5 226.27,-187.5 226.27,-168.5 148.27,-168.5"/>
<text text-anchor="middle" x="187.27" y="-175.5" font-family="Helvetica,sans-Serif" font-size="10.00">IRenderer.hpp</text>
</a>
</g>
</g>
<!-- Node2&#45;&gt;Node7 -->
<g id="edge7" class="edge"><title>Node2&#45;&gt;Node7</title>
<path fill="none" stroke="midnightblue" d="M187.27,-224.083C187.27,-217.006 187.27,-206.861 187.27,-197.986"/>
<polygon fill="midnightblue" stroke="midnightblue" points="190.77,-197.751 187.27,-187.751 183.77,-197.751 190.77,-197.751"/>
</g>
<!-- Node8 -->
<g id="node8" class="node"><title>Node8</title>
<g id="a_node8"><a xlink:href="../../d0/d70/Material_8hpp.html" target="_top" xlink:title="Material.hpp">
<polygon fill="none" stroke="black" points="289.27,-168.5 289.27,-187.5 359.27,-187.5 359.27,-168.5 289.27,-168.5"/>
<text text-anchor="middle" x="324.27" y="-175.5" font-family="Helvetica,sans-Serif" font-size="10.00">Material.hpp</text>
</a>
</g>
</g>
<!-- Node2&#45;&gt;Node8 -->
<g id="edge11" class="edge"><title>Node2&#45;&gt;Node8</title>
<path fill="none" stroke="midnightblue" d="M208.978,-224.444C231.625,-215.517 267.342,-201.439 293.022,-191.317"/>
<polygon fill="midnightblue" stroke="midnightblue" points="294.644,-194.44 302.664,-187.516 292.077,-187.927 294.644,-194.44"/>
</g>
<!-- Node13 -->
<g id="node13" class="node"><title>Node13</title>
<g id="a_node13"><a xlink:href="../../d1/d62/Mesh_8hpp.html" target="_top" xlink:title="Mesh.hpp">
<polygon fill="none" stroke="black" points="565.77,-168.5 565.77,-187.5 624.77,-187.5 624.77,-168.5 565.77,-168.5"/>
<text text-anchor="middle" x="595.27" y="-175.5" font-family="Helvetica,sans-Serif" font-size="10.00">Mesh.hpp</text>
</a>
</g>
</g>
<!-- Node2&#45;&gt;Node13 -->
<g id="edge20" class="edge"><title>Node2&#45;&gt;Node13</title>
<path fill="none" stroke="midnightblue" d="M232.492,-227.015C312.844,-216.38 479.205,-194.361 555.484,-184.266"/>
<polygon fill="midnightblue" stroke="midnightblue" points="556.177,-187.705 565.631,-182.923 555.258,-180.765 556.177,-187.705"/>
</g>
<!-- Node6&#45;&gt;Node3 -->
<g id="edge6" class="edge"><title>Node6&#45;&gt;Node3</title>
<path fill="none" stroke="midnightblue" d="M47.098,-168.425C39.7204,-154.961 28.4127,-128.679 41.27,-112 56.5601,-92.1657 121.822,-79.3346 167.146,-72.6367"/>
<polygon fill="midnightblue" stroke="midnightblue" points="167.652,-76.1 177.057,-71.2218 166.663,-69.1702 167.652,-76.1"/>
</g>
<!-- Node7&#45;&gt;Node3 -->
<g id="edge8" class="edge"><title>Node7&#45;&gt;Node3</title>
<path fill="none" stroke="midnightblue" d="M188.392,-168.093C190.066,-155.499 193.534,-131.814 198.27,-112 200.413,-103.036 203.38,-93.2487 206.032,-85.0975"/>
<polygon fill="midnightblue" stroke="midnightblue" points="209.379,-86.1256 209.24,-75.5317 202.742,-83.8998 209.379,-86.1256"/>
</g>
<!-- Node7&#45;&gt;Node4 -->
<g id="edge9" class="edge"><title>Node7&#45;&gt;Node4</title>
<path fill="none" stroke="midnightblue" d="M201.247,-168.303C223.2,-154.906 267.379,-128.992 307.27,-112 342.057,-97.1825 383.439,-84.5312 412.341,-76.4517"/>
<polygon fill="midnightblue" stroke="midnightblue" points="413.3,-79.8179 422.012,-73.7884 411.442,-73.0691 413.3,-79.8179"/>
</g>
<!-- Node7&#45;&gt;Node5 -->
<g id="edge10" class="edge"><title>Node7&#45;&gt;Node5</title>
<path fill="none" stroke="midnightblue" d="M172.971,-168.324C159.087,-159.9 137.778,-146.971 121.466,-137.074"/>
<polygon fill="midnightblue" stroke="midnightblue" points="122.899,-133.85 112.534,-131.655 119.268,-139.834 122.899,-133.85"/>
</g>
<!-- Node8&#45;&gt;Node3 -->
<g id="edge12" class="edge"><title>Node8&#45;&gt;Node3</title>
<path fill="none" stroke="midnightblue" d="M295.435,-168.42C276.333,-161.403 251.989,-149.71 236.27,-132 224.676,-118.938 218.514,-99.7847 215.351,-85.651"/>
<polygon fill="midnightblue" stroke="midnightblue" points="218.743,-84.7593 213.411,-75.6043 211.87,-86.0865 218.743,-84.7593"/>
</g>
<!-- Node8&#45;&gt;Node4 -->
<g id="edge13" class="edge"><title>Node8&#45;&gt;Node4</title>
<path fill="none" stroke="midnightblue" d="M359.31,-170.119C382.235,-163.876 411.183,-152.409 429.27,-132 440.591,-119.225 445.182,-100.033 447.036,-85.8124"/>
<polygon fill="midnightblue" stroke="midnightblue" points="450.536,-85.9804 448.011,-75.6907 443.568,-85.3087 450.536,-85.9804"/>
</g>
<!-- Node9 -->
<g id="node9" class="node"><title>Node9</title>
<g id="a_node9"><a xlink:href="../../dc/ddb/ShaderProgram_8hpp.html" target="_top" xlink:title="ShaderProgram.hpp">
<polygon fill="none" stroke="black" points="316.77,-112.5 316.77,-131.5 419.77,-131.5 419.77,-112.5 316.77,-112.5"/>
<text text-anchor="middle" x="368.27" y="-119.5" font-family="Helvetica,sans-Serif" font-size="10.00">ShaderProgram.hpp</text>
</a>
</g>
</g>
<!-- Node8&#45;&gt;Node9 -->
<g id="edge14" class="edge"><title>Node8&#45;&gt;Node9</title>
<path fill="none" stroke="midnightblue" d="M331.536,-168.083C337.815,-160.377 347.058,-149.033 354.701,-139.653"/>
<polygon fill="midnightblue" stroke="midnightblue" points="357.536,-141.714 361.14,-131.751 352.109,-137.293 357.536,-141.714"/>
</g>
<!-- Node9&#45;&gt;Node3 -->
<g id="edge15" class="edge"><title>Node9&#45;&gt;Node3</title>
<path fill="none" stroke="midnightblue" d="M343.551,-112.444C317.422,-103.399 276.011,-89.064 246.694,-78.9158"/>
<polygon fill="midnightblue" stroke="midnightblue" points="247.468,-75.4801 236.873,-75.5164 245.178,-82.0951 247.468,-75.4801"/>
</g>
<!-- Node9&#45;&gt;Node4 -->
<g id="edge17" class="edge"><title>Node9&#45;&gt;Node4</title>
<path fill="none" stroke="midnightblue" d="M381.123,-112.324C393.486,-103.979 412.4,-91.2122 427.007,-81.3524"/>
<polygon fill="midnightblue" stroke="midnightblue" points="429.118,-84.1503 435.449,-75.6545 425.202,-78.3483 429.118,-84.1503"/>
</g>
<!-- Node10 -->
<g id="node10" class="node"><title>Node10</title>
<polygon fill="none" stroke="#bfbfbf" points="537.27,-56.5 537.27,-75.5 581.27,-75.5 581.27,-56.5 537.27,-56.5"/>
<text text-anchor="middle" x="559.27" y="-63.5" font-family="Helvetica,sans-Serif" font-size="10.00">vector</text>
</g>
<!-- Node9&#45;&gt;Node10 -->
<g id="edge16" class="edge"><title>Node9&#45;&gt;Node10</title>
<path fill="none" stroke="midnightblue" d="M398.535,-112.444C433.671,-102.51 491.374,-86.1958 527.244,-76.0544"/>
<polygon fill="midnightblue" stroke="midnightblue" points="528.515,-79.3324 537.186,-73.2437 526.611,-72.5964 528.515,-79.3324"/>
</g>
<!-- Node11 -->
<g id="node11" class="node"><title>Node11</title>
<g id="a_node11"><a xlink:href="../../d4/d6e/Shader_8hpp.html" target="_top" xlink:title="Shader.hpp">
<polygon fill="none" stroke="black" points="335.27,-56.5 335.27,-75.5 401.27,-75.5 401.27,-56.5 335.27,-56.5"/>
<text text-anchor="middle" x="368.27" y="-63.5" font-family="Helvetica,sans-Serif" font-size="10.00">Shader.hpp</text>
</a>
</g>
</g>
<!-- Node9&#45;&gt;Node11 -->
<g id="edge18" class="edge"><title>Node9&#45;&gt;Node11</title>
<path fill="none" stroke="midnightblue" d="M368.27,-112.083C368.27,-105.006 368.27,-94.8611 368.27,-85.9865"/>
<polygon fill="midnightblue" stroke="midnightblue" points="371.77,-85.751 368.27,-75.7511 364.77,-85.7511 371.77,-85.751"/>
</g>
<!-- Node12 -->
<g id="node12" class="node"><title>Node12</title>
<polygon fill="none" stroke="#bfbfbf" points="347.77,-0.5 347.77,-19.5 388.77,-19.5 388.77,-0.5 347.77,-0.5"/>
<text text-anchor="middle" x="368.27" y="-7.5" font-family="Helvetica,sans-Serif" font-size="10.00">string</text>
</g>
<!-- Node11&#45;&gt;Node12 -->
<g id="edge19" class="edge"><title>Node11&#45;&gt;Node12</title>
<path fill="none" stroke="midnightblue" d="M368.27,-56.083C368.27,-49.0059 368.27,-38.8611 368.27,-29.9865"/>
<polygon fill="midnightblue" stroke="midnightblue" points="371.77,-29.751 368.27,-19.7511 364.77,-29.7511 371.77,-29.751"/>
</g>
<!-- Node13&#45;&gt;Node3 -->
<g id="edge23" class="edge"><title>Node13&#45;&gt;Node3</title>
<path fill="none" stroke="midnightblue" d="M565.536,-176.637C512,-175.064 396.652,-167.444 307.27,-132 277.416,-120.162 247.608,-97.5721 229.552,-82.3943"/>
<polygon fill="midnightblue" stroke="midnightblue" points="231.545,-79.4917 221.683,-75.6185 226.977,-84.796 231.545,-79.4917"/>
</g>
<!-- Node13&#45;&gt;Node4 -->
<g id="edge22" class="edge"><title>Node13&#45;&gt;Node4</title>
<path fill="none" stroke="midnightblue" d="M602.155,-168.092C611.651,-154.644 626.206,-128.936 613.27,-112 597.711,-91.6294 528.085,-78.267 484.399,-71.7257"/>
<polygon fill="midnightblue" stroke="midnightblue" points="484.832,-68.252 474.434,-70.2839 483.83,-75.1798 484.832,-68.252"/>
</g>
<!-- Node13&#45;&gt;Node10 -->
<g id="edge21" class="edge"><title>Node13&#45;&gt;Node10</title>
<path fill="none" stroke="midnightblue" d="M610.614,-168.446C630.036,-156.458 659.469,-133.688 646.27,-112 634.375,-92.4554 610.952,-81.0248 591.404,-74.578"/>
<polygon fill="midnightblue" stroke="midnightblue" points="592.2,-71.1629 581.616,-71.6444 590.19,-77.8682 592.2,-71.1629"/>
</g>
<!-- Node14 -->
<g id="node14" class="node"><title>Node14</title>
<polygon fill="none" stroke="#bfbfbf" points="698.77,-112.5 698.77,-131.5 781.77,-131.5 781.77,-112.5 698.77,-112.5"/>
<text text-anchor="middle" x="740.27" y="-119.5" font-family="Helvetica,sans-Serif" font-size="10.00">assimp/mesh.h</text>
</g>
<!-- Node13&#45;&gt;Node14 -->
<g id="edge24" class="edge"><title>Node13&#45;&gt;Node14</title>
<path fill="none" stroke="midnightblue" d="M618.246,-168.444C642.427,-159.438 680.688,-145.189 707.916,-135.049"/>
<polygon fill="midnightblue" stroke="midnightblue" points="709.252,-138.286 717.402,-131.516 706.809,-131.727 709.252,-138.286"/>
</g>
<!-- Node15 -->
<g id="node15" class="node"><title>Node15</title>
<g id="a_node15"><a xlink:href="../../da/d04/BufferObject_8hpp.html" target="_top" xlink:title="BufferObject.hpp">
<polygon fill="none" stroke="black" points="514.27,-112.5 514.27,-131.5 604.27,-131.5 604.27,-112.5 514.27,-112.5"/>
<text text-anchor="middle" x="559.27" y="-119.5" font-family="Helvetica,sans-Serif" font-size="10.00">BufferObject.hpp</text>
</a>
</g>
</g>
<!-- Node13&#45;&gt;Node15 -->
<g id="edge25" class="edge"><title>Node13&#45;&gt;Node15</title>
<path fill="none" stroke="midnightblue" d="M589.325,-168.083C584.293,-160.534 576.933,-149.495 570.757,-140.23"/>
<polygon fill="midnightblue" stroke="midnightblue" points="573.563,-138.13 565.104,-131.751 567.739,-142.013 573.563,-138.13"/>
</g>
<!-- Node15&#45;&gt;Node3 -->
<g id="edge27" class="edge"><title>Node15&#45;&gt;Node3</title>
<path fill="none" stroke="midnightblue" d="M514.262,-113.996C447.942,-103.675 324.639,-84.4868 257.942,-74.1075"/>
<polygon fill="midnightblue" stroke="midnightblue" points="258.16,-70.5994 247.741,-72.52 257.084,-77.5161 258.16,-70.5994"/>
</g>
<!-- Node15&#45;&gt;Node10 -->
<g id="edge26" class="edge"><title>Node15&#45;&gt;Node10</title>
<path fill="none" stroke="midnightblue" d="M559.27,-112.083C559.27,-105.006 559.27,-94.8611 559.27,-85.9865"/>
<polygon fill="midnightblue" stroke="midnightblue" points="562.77,-85.751 559.27,-75.7511 555.77,-85.7511 562.77,-85.751"/>
</g>
</g>
</svg>
        <g id="navigator" transform="translate(0 0)" fill="#404254">
                <rect fill="#f2f5e9" fill-opacity="0.5" stroke="#606060" stroke-width=".5" x="0" y="0" width="60" height="60"/>
                <use id="zoomplus" xlink:href="#zoomPlus" x="17" y="9" onmousedown="handleZoom(evt,'in')"/>
                <use id="zoomminus" xlink:href="#zoomMin" x="42" y="9" onmousedown="handleZoom(evt,'out')"/>
                <use id="reset" xlink:href="#resetDef" x="30" y="36" onmousedown="handleReset()"/>
                <g id="arrowUp" xlink:href="#dirArrow" transform="translate(30 24)" onmousedown="handlePan(0,-1)">
                  <use xlink:href="#rim" fill="#404040">
                        <set attributeName="fill" to="#808080" begin="arrowUp.mouseover" end="arrowUp.mouseout"/>
                  </use>
                  <path fill="none" stroke="white" stroke-width="1.5" d="M0,-3.0v7 M-2.5,-0.5L0,-3.0L2.5,-0.5"/>
                </g>
                <g id="arrowRight" xlink:href="#dirArrow" transform="rotate(90) translate(36 -43)" onmousedown="handlePan(1,0)">
                  <use xlink:href="#rim" fill="#404040">
                        <set attributeName="fill" to="#808080" begin="arrowRight.mouseover" end="arrowRight.mouseout"/>
                  </use>
                  <path fill="none" stroke="white" stroke-width="1.5" d="M0,-3.0v7 M-2.5,-0.5L0,-3.0L2.5,-0.5"/>
                </g>
                <g id="arrowDown" xlink:href="#dirArrow" transform="rotate(180) translate(-30 -48)" onmousedown="handlePan(0,1)">
                  <use xlink:href="#rim" fill="#404040">
                        <set attributeName="fill" to="#808080" begin="arrowDown.mouseover" end="arrowDown.mouseout"/>
                  </use>
                  <path fill="none" stroke="white" stroke-width="1.5" d="M0,-3.0v7 M-2.5,-0.5L0,-3.0L2.5,-0.5"/>
                </g>
                <g id="arrowLeft" xlink:href="#dirArrow" transform="rotate(270) translate(-36 17)" onmousedown="handlePan(-1,0)">
                  <use xlink:href="#rim" fill="#404040">
                        <set attributeName="fill" to="#808080" begin="arrowLeft.mouseover" end="arrowLeft.mouseout"/>
                  </use>
                  <path fill="none" stroke="white" stroke-width="1.5" d="M0,-3.0v7 M-2.5,-0.5L0,-3.0L2.5,-0.5"/>
                </g>
        </g>
        <svg viewBox="0 0 15 15" width="100%" height="30px" preserveAspectRatio="xMaxYMin meet">
         <g id="arrow_out" transform="scale(0.3 0.3)">
          <a xlink:href="GameObject_8cpp__incl_org.svg" target="_base">
           <rect id="button" ry="5" rx="5" y="6" x="6" height="38" width="38"
                fill="#f2f5e9" fill-opacity="0.5" stroke="#606060" stroke-width="1.0"/>
           <path id="arrow"
             d="M 11.500037,31.436501 C 11.940474,20.09759 22.043105,11.32322 32.158766,21.979434 L 37.068811,17.246167 C 37.068811,17.246167 37.088388,32 37.088388,32 L 22.160133,31.978069 C 22.160133,31.978069 26.997745,27.140456 26.997745,27.140456 C 18.528582,18.264221 13.291696,25.230495 11.500037,31.436501 z"
             style="fill:#404040;"/>
          </a>
         </g>
        </svg>
</svg>
