<?xml version="1.0" encoding="UTF-8" standalone="no"?>
<!DOCTYPE svg PUBLIC "-//W3C//DTD SVG 1.1//EN"
 "http://www.w3.org/Graphics/SVG/1.1/DTD/svg11.dtd">
<!-- Generated by graphviz version 2.38.0 (20140413.2041)
 -->
<!-- Title: Core/Mesh.cpp Pages: 1 -->
<svg width="653pt" height="84pt"
 viewBox="0.00 0.00 652.50 84.00" xmlns="http://www.w3.org/2000/svg" xmlns:xlink="http://www.w3.org/1999/xlink">
<g id="graph0" class="graph" transform="scale(1 1) rotate(0) translate(4 80)">
<title>Core/Mesh.cpp</title>
<!-- Node1 -->
<g id="node1" class="node"><title>Node1</title>
<polygon fill="#bfbfbf" stroke="black" points="221,-56.5 221,-75.5 304,-75.5 304,-56.5 221,-56.5"/>
<text text-anchor="middle" x="262.5" y="-63.5" font-family="Helvetica,sans-Serif" font-size="10.00">Core/Mesh.cpp</text>
</g>
<!-- Node2 -->
<g id="node2" class="node"><title>Node2</title>
<polygon fill="none" stroke="#bfbfbf" points="0,-0.5 0,-19.5 61,-19.5 61,-0.5 0,-0.5"/>
<text text-anchor="middle" x="30.5" y="-7.5" font-family="Helvetica,sans-Serif" font-size="10.00">GL/glew.h</text>
</g>
<!-- Node1&#45;&gt;Node2 -->
<g id="edge1" class="edge"><title>Node1&#45;&gt;Node2</title>
<path fill="none" stroke="midnightblue" d="M225.739,-56.4435C183.629,-46.6421 114.833,-30.6292 71.1556,-20.4629"/>
<polygon fill="midnightblue" stroke="midnightblue" points="71.695,-16.995 61.1619,-18.1368 70.1081,-23.8128 71.695,-16.995"/>
</g>
<!-- Node3 -->
<g id="node3" class="node"><title>Node3</title>
<polygon fill="none" stroke="#bfbfbf" points="79,-0.5 79,-19.5 186,-19.5 186,-0.5 79,-0.5"/>
<text text-anchor="middle" x="132.5" y="-7.5" font-family="Helvetica,sans-Serif" font-size="10.00">log4cpp/Category.hh</text>
</g>
<!-- Node1&#45;&gt;Node3 -->
<g id="edge2" class="edge"><title>Node1&#45;&gt;Node3</title>
<path fill="none" stroke="midnightblue" d="M241.901,-56.4435C220.507,-47.5566 186.819,-33.5632 162.476,-23.4514"/>
<polygon fill="midnightblue" stroke="midnightblue" points="163.58,-20.1203 153.003,-19.5164 160.895,-26.5848 163.58,-20.1203"/>
</g>
<!-- Node4 -->
<g id="node4" class="node"><title>Node4</title>
<polygon fill="none" stroke="#bfbfbf" points="204.5,-0.5 204.5,-19.5 320.5,-19.5 320.5,-0.5 204.5,-0.5"/>
<text text-anchor="middle" x="262.5" y="-7.5" font-family="Helvetica,sans-Serif" font-size="10.00">Engine/Core/Mesh.hpp</text>
</g>
<!-- Node1&#45;&gt;Node4 -->
<g id="edge3" class="edge"><title>Node1&#45;&gt;Node4</title>
<path fill="none" stroke="midnightblue" d="M262.5,-56.083C262.5,-49.0059 262.5,-38.8611 262.5,-29.9865"/>
<polygon fill="midnightblue" stroke="midnightblue" points="266,-29.751 262.5,-19.7511 259,-29.7511 266,-29.751"/>
</g>
<!-- Node5 -->
<g id="node5" class="node"><title>Node5</title>
<polygon fill="none" stroke="#bfbfbf" points="339,-0.5 339,-19.5 466,-19.5 466,-0.5 339,-0.5"/>
<text text-anchor="middle" x="402.5" y="-7.5" font-family="Helvetica,sans-Serif" font-size="10.00">Engine/Core/Material.hpp</text>
</g>
<!-- Node1&#45;&gt;Node5 -->
<g id="edge4" class="edge"><title>Node1&#45;&gt;Node5</title>
<path fill="none" stroke="midnightblue" d="M284.683,-56.4435C307.928,-47.4776 344.649,-33.314 370.915,-23.1827"/>
<polygon fill="midnightblue" stroke="midnightblue" points="372.35,-26.3807 380.42,-19.5164 369.831,-19.8497 372.35,-26.3807"/>
</g>
<!-- Node6 -->
<g id="node6" class="node"><title>Node6</title>
<polygon fill="none" stroke="#bfbfbf" points="484.5,-0.5 484.5,-19.5 644.5,-19.5 644.5,-0.5 484.5,-0.5"/>
<text text-anchor="middle" x="564.5" y="-7.5" font-family="Helvetica,sans-Serif" font-size="10.00">Engine/Core/ShaderProgram.hpp</text>
</g>
<!-- Node1&#45;&gt;Node6 -->
<g id="edge5" class="edge"><title>Node1&#45;&gt;Node6</title>
<path fill="none" stroke="midnightblue" d="M304.175,-57.5482C356.793,-48.1396 447.586,-31.9052 506.835,-21.311"/>
<polygon fill="midnightblue" stroke="midnightblue" points="507.56,-24.7369 516.788,-19.5313 506.328,-17.8462 507.56,-24.7369"/>
</g>
</g>
</svg>
