<?xml version="1.0" encoding="UTF-8" standalone="no"?>
<!DOCTYPE svg PUBLIC "-//W3C//DTD SVG 1.1//EN"
 "http://www.w3.org/Graphics/SVG/1.1/DTD/svg11.dtd">
<!-- Generated by graphviz version 2.38.0 (20140413.2041)
 -->
<!-- Title: engine/Mesh/Mesh.cpp Pages: 1 -->
<svg width="1848pt" height="431pt"
 viewBox="0.00 0.00 1847.50 431.00" xmlns="http://www.w3.org/2000/svg" xmlns:xlink="http://www.w3.org/1999/xlink">
<g id="graph0" class="graph" transform="scale(1 1) rotate(0) translate(4 427)">
<title>engine/Mesh/Mesh.cpp</title>
<!-- Node1 -->
<g id="node1" class="node"><title>Node1</title>
<polygon fill="#bfbfbf" stroke="black" points="603.5,-403.5 603.5,-422.5 721.5,-422.5 721.5,-403.5 603.5,-403.5"/>
<text text-anchor="middle" x="662.5" y="-410.5" font-family="Helvetica,sans-Serif" font-size="10.00">engine/Mesh/Mesh.cpp</text>
</g>
<!-- Node2 -->
<g id="node2" class="node"><title>Node2</title>
<polygon fill="none" stroke="#bfbfbf" points="499,-347.5 499,-366.5 606,-366.5 606,-347.5 499,-347.5"/>
<text text-anchor="middle" x="552.5" y="-354.5" font-family="Helvetica,sans-Serif" font-size="10.00">log4cpp/Category.hh</text>
</g>
<!-- Node1&#45;&gt;Node2 -->
<g id="edge1" class="edge"><title>Node1&#45;&gt;Node2</title>
<path fill="none" stroke="midnightblue" d="M644.827,-403.324C627.106,-394.625 599.597,-381.12 579.212,-371.113"/>
<polygon fill="midnightblue" stroke="midnightblue" points="580.649,-367.919 570.13,-366.655 577.564,-374.203 580.649,-367.919"/>
</g>
<!-- Node3 -->
<g id="node3" class="node"><title>Node3</title>
<g id="a_node3"><a xlink:href="../../d1/d62/Mesh_8hpp.html" target="_top" xlink:title="Mesh.hpp">
<polygon fill="none" stroke="black" points="1496,-112.5 1496,-131.5 1555,-131.5 1555,-112.5 1496,-112.5"/>
<text text-anchor="middle" x="1525.5" y="-119.5" font-family="Helvetica,sans-Serif" font-size="10.00">Mesh.hpp</text>
</a>
</g>
</g>
<!-- Node1&#45;&gt;Node3 -->
<g id="edge2" class="edge"><title>Node1&#45;&gt;Node3</title>
<path fill="none" stroke="midnightblue" d="M721.804,-410.219C915.245,-403.633 1515.5,-376.732 1515.5,-296.5 1515.5,-296.5 1515.5,-296.5 1515.5,-233 1515.5,-200.816 1519.8,-163.552 1522.76,-141.702"/>
<polygon fill="midnightblue" stroke="midnightblue" points="1526.26,-141.925 1524.19,-131.534 1519.33,-140.947 1526.26,-141.925"/>
</g>
<!-- Node10 -->
<g id="node10" class="node"><title>Node10</title>
<g id="a_node10"><a xlink:href="../../d0/d5e/glwindow_8hpp.html" target="_top" xlink:title="glwindow.hpp">
<polygon fill="none" stroke="black" points="624.5,-347.5 624.5,-366.5 700.5,-366.5 700.5,-347.5 624.5,-347.5"/>
<text text-anchor="middle" x="662.5" y="-354.5" font-family="Helvetica,sans-Serif" font-size="10.00">glwindow.hpp</text>
</a>
</g>
</g>
<!-- Node1&#45;&gt;Node10 -->
<g id="edge11" class="edge"><title>Node1&#45;&gt;Node10</title>
<path fill="none" stroke="midnightblue" d="M662.5,-403.083C662.5,-396.006 662.5,-385.861 662.5,-376.986"/>
<polygon fill="midnightblue" stroke="midnightblue" points="666,-376.751 662.5,-366.751 659,-376.751 666,-376.751"/>
</g>
<!-- Node4 -->
<g id="node4" class="node"><title>Node4</title>
<polygon fill="none" stroke="#bfbfbf" points="1281.5,-0.5 1281.5,-19.5 1325.5,-19.5 1325.5,-0.5 1281.5,-0.5"/>
<text text-anchor="middle" x="1303.5" y="-7.5" font-family="Helvetica,sans-Serif" font-size="10.00">vector</text>
</g>
<!-- Node3&#45;&gt;Node4 -->
<g id="edge3" class="edge"><title>Node3&#45;&gt;Node4</title>
<path fill="none" stroke="midnightblue" d="M1510.56,-112.447C1483.75,-97.1449 1428.42,-65.7719 1408.5,-56 1384.06,-44.0123 1355.64,-31.9428 1334.54,-23.3255"/>
<polygon fill="midnightblue" stroke="midnightblue" points="1335.69,-20.0156 1325.11,-19.5051 1333.06,-26.5035 1335.69,-20.0156"/>
</g>
<!-- Node5 -->
<g id="node5" class="node"><title>Node5</title>
<polygon fill="none" stroke="#bfbfbf" points="1347.5,-56.5 1347.5,-75.5 1399.5,-75.5 1399.5,-56.5 1347.5,-56.5"/>
<text text-anchor="middle" x="1373.5" y="-63.5" font-family="Helvetica,sans-Serif" font-size="10.00">memory</text>
</g>
<!-- Node3&#45;&gt;Node5 -->
<g id="edge4" class="edge"><title>Node3&#45;&gt;Node5</title>
<path fill="none" stroke="midnightblue" d="M1501.42,-112.444C1475.96,-103.399 1435.61,-89.064 1407.04,-78.9158"/>
<polygon fill="midnightblue" stroke="midnightblue" points="1408.07,-75.5661 1397.47,-75.5164 1405.72,-82.1622 1408.07,-75.5661"/>
</g>
<!-- Node6 -->
<g id="node6" class="node"><title>Node6</title>
<polygon fill="none" stroke="#bfbfbf" points="1554.5,-0.5 1554.5,-19.5 1624.5,-19.5 1624.5,-0.5 1554.5,-0.5"/>
<text text-anchor="middle" x="1589.5" y="-7.5" font-family="Helvetica,sans-Serif" font-size="10.00">glm/glm.hpp</text>
</g>
<!-- Node3&#45;&gt;Node6 -->
<g id="edge5" class="edge"><title>Node3&#45;&gt;Node6</title>
<path fill="none" stroke="midnightblue" d="M1555.22,-120.541C1587.17,-118.259 1636.59,-109.169 1660.5,-76 1675.49,-55.2027 1647.02,-35.9903 1621.79,-23.931"/>
<polygon fill="midnightblue" stroke="midnightblue" points="1622.94,-20.6058 1612.38,-19.6711 1620.05,-26.983 1622.94,-20.6058"/>
</g>
<!-- Node7 -->
<g id="node7" class="node"><title>Node7</title>
<polygon fill="none" stroke="#bfbfbf" points="1208,-56.5 1208,-75.5 1291,-75.5 1291,-56.5 1208,-56.5"/>
<text text-anchor="middle" x="1249.5" y="-63.5" font-family="Helvetica,sans-Serif" font-size="10.00">assimp/mesh.h</text>
</g>
<!-- Node3&#45;&gt;Node7 -->
<g id="edge6" class="edge"><title>Node3&#45;&gt;Node7</title>
<path fill="none" stroke="midnightblue" d="M1495.96,-115.221C1449.52,-106.135 1358.81,-88.3872 1301.34,-77.1423"/>
<polygon fill="midnightblue" stroke="midnightblue" points="1301.85,-73.6758 1291.36,-75.1904 1300.5,-80.5455 1301.85,-73.6758"/>
</g>
<!-- Node8 -->
<g id="node8" class="node"><title>Node8</title>
<g id="a_node8"><a xlink:href="../../da/d04/BufferObject_8hpp.html" target="_top" xlink:title="BufferObject.hpp">
<polygon fill="none" stroke="black" points="1455.5,-56.5 1455.5,-75.5 1545.5,-75.5 1545.5,-56.5 1455.5,-56.5"/>
<text text-anchor="middle" x="1500.5" y="-63.5" font-family="Helvetica,sans-Serif" font-size="10.00">BufferObject.hpp</text>
</a>
</g>
</g>
<!-- Node3&#45;&gt;Node8 -->
<g id="edge7" class="edge"><title>Node3&#45;&gt;Node8</title>
<path fill="none" stroke="midnightblue" d="M1521.37,-112.083C1517.99,-104.77 1513.08,-94.1814 1508.88,-85.1034"/>
<polygon fill="midnightblue" stroke="midnightblue" points="1511.93,-83.3553 1504.55,-75.7511 1505.58,-86.2962 1511.93,-83.3553"/>
</g>
<!-- Node9 -->
<g id="node9" class="node"><title>Node9</title>
<g id="a_node9"><a xlink:href="../../df/d20/ArrayObject_8hpp.html" target="_top" xlink:title="ArrayObject.hpp">
<polygon fill="none" stroke="black" points="1564,-56.5 1564,-75.5 1651,-75.5 1651,-56.5 1564,-56.5"/>
<text text-anchor="middle" x="1607.5" y="-63.5" font-family="Helvetica,sans-Serif" font-size="10.00">ArrayObject.hpp</text>
</a>
</g>
</g>
<!-- Node3&#45;&gt;Node9 -->
<g id="edge10" class="edge"><title>Node3&#45;&gt;Node9</title>
<path fill="none" stroke="midnightblue" d="M1538.67,-112.324C1551.35,-103.979 1570.73,-91.2122 1585.71,-81.3524"/>
<polygon fill="midnightblue" stroke="midnightblue" points="1587.93,-84.0776 1594.36,-75.6545 1584.08,-78.2313 1587.93,-84.0776"/>
</g>
<!-- Node8&#45;&gt;Node4 -->
<g id="edge8" class="edge"><title>Node8&#45;&gt;Node4</title>
<path fill="none" stroke="midnightblue" d="M1469.28,-56.4435C1432.69,-46.4128 1372.36,-29.8766 1335.45,-19.7591"/>
<polygon fill="midnightblue" stroke="midnightblue" points="1336.27,-16.3546 1325.7,-17.0865 1334.42,-23.1056 1336.27,-16.3546"/>
</g>
<!-- Node8&#45;&gt;Node6 -->
<g id="edge9" class="edge"><title>Node8&#45;&gt;Node6</title>
<path fill="none" stroke="midnightblue" d="M1514.8,-56.324C1528.68,-47.9002 1549.99,-34.9709 1566.3,-25.0741"/>
<polygon fill="midnightblue" stroke="midnightblue" points="1568.5,-27.8341 1575.24,-19.6545 1564.87,-21.8495 1568.5,-27.8341"/>
</g>
<!-- Node11 -->
<g id="node11" class="node"><title>Node11</title>
<polygon fill="none" stroke="#bfbfbf" points="851,-286 851,-305 910,-305 910,-286 851,-286"/>
<text text-anchor="middle" x="880.5" y="-293" font-family="Helvetica,sans-Serif" font-size="10.00">QWindow</text>
</g>
<!-- Node10&#45;&gt;Node11 -->
<g id="edge12" class="edge"><title>Node10&#45;&gt;Node11</title>
<path fill="none" stroke="midnightblue" d="M700.549,-347.71C737.016,-339.466 793.456,-325.921 841.5,-311 844.063,-310.204 846.704,-309.333 849.346,-308.427"/>
<polygon fill="midnightblue" stroke="midnightblue" points="850.542,-311.716 858.781,-305.055 848.186,-305.125 850.542,-311.716"/>
</g>
<!-- Node12 -->
<g id="node12" class="node"><title>Node12</title>
<polygon fill="none" stroke="#bfbfbf" points="347,-286 347,-305 442,-305 442,-286 347,-286"/>
<text text-anchor="middle" x="394.5" y="-293" font-family="Helvetica,sans-Serif" font-size="10.00">QOpenGLContext</text>
</g>
<!-- Node10&#45;&gt;Node12 -->
<g id="edge13" class="edge"><title>Node10&#45;&gt;Node12</title>
<path fill="none" stroke="midnightblue" d="M624.474,-348.456C581.959,-339.899 511.113,-325.273 450.5,-311 445.857,-309.907 441.008,-308.72 436.191,-307.512"/>
<polygon fill="midnightblue" stroke="midnightblue" points="436.977,-304.1 426.423,-305.026 435.251,-310.884 436.977,-304.1"/>
</g>
<!-- Node13 -->
<g id="node13" class="node"><title>Node13</title>
<polygon fill="none" stroke="#bfbfbf" points="460,-280.5 460,-310.5 573,-310.5 573,-280.5 460,-280.5"/>
<text text-anchor="start" x="468" y="-298.5" font-family="Helvetica,sans-Serif" font-size="10.00">QOpenGLFunctions_4</text>
<text text-anchor="middle" x="516.5" y="-287.5" font-family="Helvetica,sans-Serif" font-size="10.00">_2_Core</text>
</g>
<!-- Node10&#45;&gt;Node13 -->
<g id="edge14" class="edge"><title>Node10&#45;&gt;Node13</title>
<path fill="none" stroke="midnightblue" d="M641.582,-347.475C620.514,-338.889 587.372,-325.383 560.494,-314.429"/>
<polygon fill="midnightblue" stroke="midnightblue" points="561.491,-311.056 550.909,-310.523 558.849,-317.538 561.491,-311.056"/>
</g>
<!-- Node14 -->
<g id="node14" class="node"><title>Node14</title>
<polygon fill="none" stroke="#bfbfbf" points="591,-286 591,-305 658,-305 658,-286 591,-286"/>
<text text-anchor="middle" x="624.5" y="-293" font-family="Helvetica,sans-Serif" font-size="10.00">QKeyEvent</text>
</g>
<!-- Node10&#45;&gt;Node14 -->
<g id="edge15" class="edge"><title>Node10&#45;&gt;Node14</title>
<path fill="none" stroke="midnightblue" d="M657.056,-347.475C651.412,-338.638 642.439,-324.589 635.341,-313.475"/>
<polygon fill="midnightblue" stroke="midnightblue" points="638.267,-311.553 629.934,-305.009 632.367,-315.321 638.267,-311.553"/>
</g>
<!-- Node15 -->
<g id="node15" class="node"><title>Node15</title>
<polygon fill="none" stroke="#bfbfbf" points="676.5,-286 676.5,-305 722.5,-305 722.5,-286 676.5,-286"/>
<text text-anchor="middle" x="699.5" y="-293" font-family="Helvetica,sans-Serif" font-size="10.00">QTime</text>
</g>
<!-- Node10&#45;&gt;Node15 -->
<g id="edge16" class="edge"><title>Node10&#45;&gt;Node15</title>
<path fill="none" stroke="midnightblue" d="M667.801,-347.475C673.241,-338.727 681.859,-324.869 688.736,-313.809"/>
<polygon fill="midnightblue" stroke="midnightblue" points="691.9,-315.349 694.209,-305.009 685.956,-311.653 691.9,-315.349"/>
</g>
<!-- Node16 -->
<g id="node16" class="node"><title>Node16</title>
<g id="a_node16"><a xlink:href="../../d4/d1c/GameEngine_8hpp.html" target="_top" xlink:title="GameEngine.hpp">
<polygon fill="none" stroke="black" points="740.5,-286 740.5,-305 832.5,-305 832.5,-286 740.5,-286"/>
<text text-anchor="middle" x="786.5" y="-293" font-family="Helvetica,sans-Serif" font-size="10.00">GameEngine.hpp</text>
</a>
</g>
</g>
<!-- Node10&#45;&gt;Node16 -->
<g id="edge17" class="edge"><title>Node10&#45;&gt;Node16</title>
<path fill="none" stroke="midnightblue" d="M680.266,-347.475C700.984,-337.534 735.452,-320.995 759.489,-309.461"/>
<polygon fill="midnightblue" stroke="midnightblue" points="761.265,-312.491 768.767,-305.009 758.237,-306.18 761.265,-312.491"/>
</g>
<!-- Node43 -->
<g id="node43" class="node"><title>Node43</title>
<g id="a_node43"><a xlink:href="../../dc/ddc/model_8hpp.html" target="_top" xlink:title="model.hpp">
<polygon fill="none" stroke="black" points="234.5,-286 234.5,-305 296.5,-305 296.5,-286 234.5,-286"/>
<text text-anchor="middle" x="265.5" y="-293" font-family="Helvetica,sans-Serif" font-size="10.00">model.hpp</text>
</a>
</g>
</g>
<!-- Node10&#45;&gt;Node43 -->
<g id="edge69" class="edge"><title>Node10&#45;&gt;Node43</title>
<path fill="none" stroke="midnightblue" d="M624.314,-348.488C621.336,-347.963 618.371,-347.46 615.5,-347 492.484,-327.275 460.42,-331.311 337.5,-311 327.404,-309.332 316.563,-307.285 306.435,-305.26"/>
<polygon fill="midnightblue" stroke="midnightblue" points="307.097,-301.823 296.6,-303.258 305.701,-308.682 307.097,-301.823"/>
</g>
<!-- Node17 -->
<g id="node17" class="node"><title>Node17</title>
<g id="a_node17"><a xlink:href="../../de/df7/worldparticles_8hpp.html" target="_top" xlink:title="wordparticles configuration file ">
<polygon fill="none" stroke="black" points="739,-224.5 739,-243.5 834,-243.5 834,-224.5 739,-224.5"/>
<text text-anchor="middle" x="786.5" y="-231.5" font-family="Helvetica,sans-Serif" font-size="10.00">worldparticles.hpp</text>
</a>
</g>
</g>
<!-- Node16&#45;&gt;Node17 -->
<g id="edge18" class="edge"><title>Node16&#45;&gt;Node17</title>
<path fill="none" stroke="midnightblue" d="M786.5,-285.975C786.5,-277.58 786.5,-264.481 786.5,-253.663"/>
<polygon fill="midnightblue" stroke="midnightblue" points="790,-253.509 786.5,-243.509 783,-253.509 790,-253.509"/>
</g>
<!-- Node18 -->
<g id="node18" class="node"><title>Node18</title>
<g id="a_node18"><a xlink:href="../../db/de8/Scene_8hpp.html" target="_top" xlink:title="Scene.hpp">
<polygon fill="none" stroke="black" points="868,-224.5 868,-243.5 931,-243.5 931,-224.5 868,-224.5"/>
<text text-anchor="middle" x="899.5" y="-231.5" font-family="Helvetica,sans-Serif" font-size="10.00">Scene.hpp</text>
</a>
</g>
</g>
<!-- Node16&#45;&gt;Node18 -->
<g id="edge19" class="edge"><title>Node16&#45;&gt;Node18</title>
<path fill="none" stroke="midnightblue" d="M802.69,-285.975C821.402,-276.122 852.423,-259.788 874.299,-248.27"/>
<polygon fill="midnightblue" stroke="midnightblue" points="876.122,-251.265 883.34,-243.509 872.861,-245.071 876.122,-251.265"/>
</g>
<!-- Node41 -->
<g id="node41" class="node"><title>Node41</title>
<g id="a_node41"><a xlink:href="../../d0/dbd/AssimpImporter_8hpp.html" target="_top" xlink:title="AssimpImporter.hpp">
<polygon fill="none" stroke="black" points="445.5,-168.5 445.5,-187.5 549.5,-187.5 549.5,-168.5 445.5,-168.5"/>
<text text-anchor="middle" x="497.5" y="-175.5" font-family="Helvetica,sans-Serif" font-size="10.00">AssimpImporter.hpp</text>
</a>
</g>
</g>
<!-- Node16&#45;&gt;Node41 -->
<g id="edge64" class="edge"><title>Node16&#45;&gt;Node41</title>
<path fill="none" stroke="midnightblue" d="M764.778,-285.819C714.025,-265.535 587.511,-214.973 528.598,-191.428"/>
<polygon fill="midnightblue" stroke="midnightblue" points="529.665,-188.086 519.08,-187.624 527.067,-194.586 529.665,-188.086"/>
</g>
<!-- Node18&#45;&gt;Node5 -->
<g id="edge20" class="edge"><title>Node18&#45;&gt;Node5</title>
<path fill="none" stroke="midnightblue" d="M931.118,-233.594C1002.19,-234.079 1179.32,-230.512 1319.5,-188 1370.86,-172.423 1398.71,-177.918 1426.5,-132 1437.96,-113.074 1417.14,-93.7173 1398.33,-81.1077"/>
<polygon fill="midnightblue" stroke="midnightblue" points="1400.01,-78.0257 1389.68,-75.6529 1396.27,-83.947 1400.01,-78.0257"/>
</g>
<!-- Node19 -->
<g id="node19" class="node"><title>Node19</title>
<polygon fill="none" stroke="#bfbfbf" points="746,-112.5 746,-131.5 775,-131.5 775,-112.5 746,-112.5"/>
<text text-anchor="middle" x="760.5" y="-119.5" font-family="Helvetica,sans-Serif" font-size="10.00">list</text>
</g>
<!-- Node18&#45;&gt;Node19 -->
<g id="edge21" class="edge"><title>Node18&#45;&gt;Node19</title>
<path fill="none" stroke="midnightblue" d="M888.593,-224.368C864.943,-205.653 808.709,-161.151 779.243,-137.832"/>
<polygon fill="midnightblue" stroke="midnightblue" points="781.37,-135.052 771.356,-131.591 777.026,-140.542 781.37,-135.052"/>
</g>
<!-- Node20 -->
<g id="node20" class="node"><title>Node20</title>
<g id="a_node20"><a xlink:href="../../dd/db8/Renderer_8hpp.html" target="_top" xlink:title="Renderer.hpp">
<polygon fill="none" stroke="black" points="862,-168.5 862,-187.5 937,-187.5 937,-168.5 862,-168.5"/>
<text text-anchor="middle" x="899.5" y="-175.5" font-family="Helvetica,sans-Serif" font-size="10.00">Renderer.hpp</text>
</a>
</g>
</g>
<!-- Node18&#45;&gt;Node20 -->
<g id="edge22" class="edge"><title>Node18&#45;&gt;Node20</title>
<path fill="none" stroke="midnightblue" d="M899.5,-224.083C899.5,-217.006 899.5,-206.861 899.5,-197.986"/>
<polygon fill="midnightblue" stroke="midnightblue" points="903,-197.751 899.5,-187.751 896,-197.751 903,-197.751"/>
</g>
<!-- Node21 -->
<g id="node21" class="node"><title>Node21</title>
<g id="a_node21"><a xlink:href="../../de/dbe/SpatialGraph_8hpp.html" target="_top" xlink:title="SpatialGraph.hpp">
<polygon fill="none" stroke="black" points="713.5,-168.5 713.5,-187.5 805.5,-187.5 805.5,-168.5 713.5,-168.5"/>
<text text-anchor="middle" x="759.5" y="-175.5" font-family="Helvetica,sans-Serif" font-size="10.00">SpatialGraph.hpp</text>
</a>
</g>
</g>
<!-- Node18&#45;&gt;Node21 -->
<g id="edge24" class="edge"><title>Node18&#45;&gt;Node21</title>
<path fill="none" stroke="midnightblue" d="M877.317,-224.444C854.072,-215.478 817.351,-201.314 791.085,-191.183"/>
<polygon fill="midnightblue" stroke="midnightblue" points="792.169,-187.85 781.58,-187.516 789.65,-194.381 792.169,-187.85"/>
</g>
<!-- Node22 -->
<g id="node22" class="node"><title>Node22</title>
<g id="a_node22"><a xlink:href="../../d8/d58/SceneGraph_8hpp.html" target="_top" xlink:title="SceneGraph.hpp">
<polygon fill="none" stroke="black" points="606,-168.5 606,-187.5 695,-187.5 695,-168.5 606,-168.5"/>
<text text-anchor="middle" x="650.5" y="-175.5" font-family="Helvetica,sans-Serif" font-size="10.00">SceneGraph.hpp</text>
</a>
</g>
</g>
<!-- Node18&#45;&gt;Node22 -->
<g id="edge26" class="edge"><title>Node18&#45;&gt;Node22</title>
<path fill="none" stroke="midnightblue" d="M867.964,-226.161C825.603,-216.974 749.883,-200.553 699.917,-189.717"/>
<polygon fill="midnightblue" stroke="midnightblue" points="700.491,-186.26 689.976,-187.561 699.007,-193.101 700.491,-186.26"/>
</g>
<!-- Node24 -->
<g id="node24" class="node"><title>Node24</title>
<g id="a_node24"><a xlink:href="../../d1/d93/ShaderProgramLibrary_8hpp.html" target="_top" xlink:title="ShaderProgramLibrary.hpp">
<polygon fill="none" stroke="black" points="1070.5,-168.5 1070.5,-187.5 1202.5,-187.5 1202.5,-168.5 1070.5,-168.5"/>
<text text-anchor="middle" x="1136.5" y="-175.5" font-family="Helvetica,sans-Serif" font-size="10.00">ShaderProgramLibrary.hpp</text>
</a>
</g>
</g>
<!-- Node18&#45;&gt;Node24 -->
<g id="edge28" class="edge"><title>Node18&#45;&gt;Node24</title>
<path fill="none" stroke="midnightblue" d="M931.463,-225.717C971.956,-216.491 1042.09,-200.511 1088.89,-189.847"/>
<polygon fill="midnightblue" stroke="midnightblue" points="1089.83,-193.224 1098.8,-187.59 1088.27,-186.399 1089.83,-193.224"/>
</g>
<!-- Node32 -->
<g id="node32" class="node"><title>Node32</title>
<g id="a_node32"><a xlink:href="../../d2/d26/MaterialLibrary_8hpp.html" target="_top" xlink:title="MaterialLibrary.hpp">
<polygon fill="none" stroke="black" points="1594,-168.5 1594,-187.5 1693,-187.5 1693,-168.5 1594,-168.5"/>
<text text-anchor="middle" x="1643.5" y="-175.5" font-family="Helvetica,sans-Serif" font-size="10.00">MaterialLibrary.hpp</text>
</a>
</g>
</g>
<!-- Node18&#45;&gt;Node32 -->
<g id="edge45" class="edge"><title>Node18&#45;&gt;Node32</title>
<path fill="none" stroke="midnightblue" d="M931.469,-230.68C1045.48,-222.405 1433.33,-194.254 1583.46,-183.358"/>
<polygon fill="midnightblue" stroke="midnightblue" points="1584.13,-186.818 1593.85,-182.603 1583.63,-179.836 1584.13,-186.818"/>
</g>
<!-- Node35 -->
<g id="node35" class="node"><title>Node35</title>
<g id="a_node35"><a xlink:href="../../d1/da3/AnimationLibrary_8hpp.html" target="_top" xlink:title="AnimationLibrary.hpp">
<polygon fill="none" stroke="black" points="477.5,-112.5 477.5,-131.5 585.5,-131.5 585.5,-112.5 477.5,-112.5"/>
<text text-anchor="middle" x="531.5" y="-119.5" font-family="Helvetica,sans-Serif" font-size="10.00">AnimationLibrary.hpp</text>
</a>
</g>
</g>
<!-- Node18&#45;&gt;Node35 -->
<g id="edge52" class="edge"><title>Node18&#45;&gt;Node35</title>
<path fill="none" stroke="midnightblue" d="M867.823,-227.83C859.885,-226.556 851.384,-225.21 843.5,-224 734.282,-207.233 696.436,-237.207 597.5,-188 575.111,-176.864 555.572,-155.278 543.68,-140.043"/>
<polygon fill="midnightblue" stroke="midnightblue" points="546.398,-137.834 537.598,-131.934 540.798,-142.034 546.398,-137.834"/>
</g>
<!-- Node38 -->
<g id="node38" class="node"><title>Node38</title>
<g id="a_node38"><a xlink:href="../../dd/de2/MeshLibrary_8hpp.html" target="_top" xlink:title="MeshLibrary.hpp">
<polygon fill="none" stroke="black" points="1221,-168.5 1221,-187.5 1310,-187.5 1310,-168.5 1221,-168.5"/>
<text text-anchor="middle" x="1265.5" y="-175.5" font-family="Helvetica,sans-Serif" font-size="10.00">MeshLibrary.hpp</text>
</a>
</g>
</g>
<!-- Node18&#45;&gt;Node38 -->
<g id="edge58" class="edge"><title>Node18&#45;&gt;Node38</title>
<path fill="none" stroke="midnightblue" d="M931.424,-228.631C986.231,-221.079 1102,-204.904 1210.58,-188.114"/>
<polygon fill="midnightblue" stroke="midnightblue" points="1211.38,-191.532 1220.72,-186.54 1210.3,-184.615 1211.38,-191.532"/>
</g>
<!-- Node39 -->
<g id="node39" class="node"><title>Node39</title>
<g id="a_node39"><a xlink:href="../../dc/d23/TextureLibrary_8hpp.html" target="_top" xlink:title="TextureLibrary.hpp">
<polygon fill="none" stroke="black" points="954.5,-168.5 954.5,-187.5 1052.5,-187.5 1052.5,-168.5 954.5,-168.5"/>
<text text-anchor="middle" x="1003.5" y="-175.5" font-family="Helvetica,sans-Serif" font-size="10.00">TextureLibrary.hpp</text>
</a>
</g>
</g>
<!-- Node18&#45;&gt;Node39 -->
<g id="edge61" class="edge"><title>Node18&#45;&gt;Node39</title>
<path fill="none" stroke="midnightblue" d="M916.209,-224.324C932.812,-215.703 958.502,-202.364 977.72,-192.386"/>
<polygon fill="midnightblue" stroke="midnightblue" points="979.57,-195.369 986.832,-187.655 976.344,-189.156 979.57,-195.369"/>
</g>
<!-- Node20&#45;&gt;Node19 -->
<g id="edge23" class="edge"><title>Node20&#45;&gt;Node19</title>
<path fill="none" stroke="midnightblue" d="M877.475,-168.444C852.2,-158.624 810.879,-142.572 784.717,-132.408"/>
<polygon fill="midnightblue" stroke="midnightblue" points="785.762,-129.059 775.173,-128.7 783.227,-135.584 785.762,-129.059"/>
</g>
<!-- Node21&#45;&gt;Node19 -->
<g id="edge25" class="edge"><title>Node21&#45;&gt;Node19</title>
<path fill="none" stroke="midnightblue" d="M759.665,-168.083C759.796,-161.006 759.984,-150.861 760.148,-141.986"/>
<polygon fill="midnightblue" stroke="midnightblue" points="763.652,-141.814 760.338,-131.751 756.653,-141.685 763.652,-141.814"/>
</g>
<!-- Node23 -->
<g id="node23" class="node"><title>Node23</title>
<polygon fill="none" stroke="#bfbfbf" points="641.5,-112.5 641.5,-131.5 727.5,-131.5 727.5,-112.5 641.5,-112.5"/>
<text text-anchor="middle" x="684.5" y="-119.5" font-family="Helvetica,sans-Serif" font-size="10.00">assimp/scene.h</text>
</g>
<!-- Node22&#45;&gt;Node23 -->
<g id="edge27" class="edge"><title>Node22&#45;&gt;Node23</title>
<path fill="none" stroke="midnightblue" d="M656.114,-168.083C660.867,-160.534 667.818,-149.495 673.652,-140.23"/>
<polygon fill="midnightblue" stroke="midnightblue" points="676.624,-142.078 678.99,-131.751 670.7,-138.349 676.624,-142.078"/>
</g>
<!-- Node24&#45;&gt;Node5 -->
<g id="edge29" class="edge"><title>Node24&#45;&gt;Node5</title>
<path fill="none" stroke="midnightblue" d="M1201.42,-168.475C1280.28,-157.806 1403.73,-139.969 1410.5,-132 1423.41,-116.801 1407.52,-96.4475 1392.73,-82.5927"/>
<polygon fill="midnightblue" stroke="midnightblue" points="1394.64,-79.6128 1384.82,-75.6381 1390.02,-84.8698 1394.64,-79.6128"/>
</g>
<!-- Node25 -->
<g id="node25" class="node"><title>Node25</title>
<g id="a_node25"><a xlink:href="../../df/d67/Library_8hpp.html" target="_top" xlink:title="Library.hpp">
<polygon fill="none" stroke="black" points="933,-56.5 933,-75.5 998,-75.5 998,-56.5 933,-56.5"/>
<text text-anchor="middle" x="965.5" y="-63.5" font-family="Helvetica,sans-Serif" font-size="10.00">Library.hpp</text>
</a>
</g>
</g>
<!-- Node24&#45;&gt;Node25 -->
<g id="edge30" class="edge"><title>Node24&#45;&gt;Node25</title>
<path fill="none" stroke="midnightblue" d="M1087.02,-168.472C1034,-158.834 956.229,-143.051 947.5,-132 936.65,-118.263 944.611,-98.4027 953.113,-84.2561"/>
<polygon fill="midnightblue" stroke="midnightblue" points="956.288,-85.7982 958.86,-75.5204 950.44,-81.9505 956.288,-85.7982"/>
</g>
<!-- Node27 -->
<g id="node27" class="node"><title>Node27</title>
<g id="a_node27"><a xlink:href="../../dc/ddb/ShaderProgram_8hpp.html" target="_top" xlink:title="ShaderProgram.hpp">
<polygon fill="none" stroke="black" points="1298,-112.5 1298,-131.5 1401,-131.5 1401,-112.5 1298,-112.5"/>
<text text-anchor="middle" x="1349.5" y="-119.5" font-family="Helvetica,sans-Serif" font-size="10.00">ShaderProgram.hpp</text>
</a>
</g>
</g>
<!-- Node24&#45;&gt;Node27 -->
<g id="edge34" class="edge"><title>Node24&#45;&gt;Node27</title>
<path fill="none" stroke="midnightblue" d="M1170.25,-168.444C1207.02,-159.122 1265.95,-144.183 1306.12,-133.997"/>
<polygon fill="midnightblue" stroke="midnightblue" points="1307.07,-137.367 1315.91,-131.516 1305.35,-130.581 1307.07,-137.367"/>
</g>
<!-- Node30 -->
<g id="node30" class="node"><title>Node30</title>
<g id="a_node30"><a xlink:href="../../d9/db7/ShaderProgramNames_8hpp.html" target="_top" xlink:title="ShaderProgramNames.hpp">
<polygon fill="none" stroke="black" points="1069.5,-112.5 1069.5,-131.5 1203.5,-131.5 1203.5,-112.5 1069.5,-112.5"/>
<text text-anchor="middle" x="1136.5" y="-119.5" font-family="Helvetica,sans-Serif" font-size="10.00">ShaderProgramNames.hpp</text>
</a>
</g>
</g>
<!-- Node24&#45;&gt;Node30 -->
<g id="edge40" class="edge"><title>Node24&#45;&gt;Node30</title>
<path fill="none" stroke="midnightblue" d="M1136.5,-168.083C1136.5,-161.006 1136.5,-150.861 1136.5,-141.986"/>
<polygon fill="midnightblue" stroke="midnightblue" points="1140,-141.751 1136.5,-131.751 1133,-141.751 1140,-141.751"/>
</g>
<!-- Node31 -->
<g id="node31" class="node"><title>Node31</title>
<g id="a_node31"><a xlink:href="../../d2/db1/ShaderLibrary_8hpp.html" target="_top" xlink:title="ShaderLibrary.hpp">
<polygon fill="none" stroke="red" points="956,-112.5 956,-131.5 1051,-131.5 1051,-112.5 956,-112.5"/>
<text text-anchor="middle" x="1003.5" y="-119.5" font-family="Helvetica,sans-Serif" font-size="10.00">ShaderLibrary.hpp</text>
</a>
</g>
</g>
<!-- Node24&#45;&gt;Node31 -->
<g id="edge41" class="edge"><title>Node24&#45;&gt;Node31</title>
<path fill="none" stroke="midnightblue" d="M1115.43,-168.444C1093.44,-159.517 1058.77,-145.439 1033.84,-135.317"/>
<polygon fill="midnightblue" stroke="midnightblue" points="1035.06,-132.035 1024.48,-131.516 1032.42,-138.521 1035.06,-132.035"/>
</g>
<!-- Node25&#45;&gt;Node4 -->
<g id="edge31" class="edge"><title>Node25&#45;&gt;Node4</title>
<path fill="none" stroke="midnightblue" d="M998.216,-59.7732C1063.03,-49.4181 1207.04,-26.4113 1271.37,-16.1331"/>
<polygon fill="midnightblue" stroke="midnightblue" points="1272.02,-19.5731 1281.35,-14.5393 1270.92,-12.6608 1272.02,-19.5731"/>
</g>
<!-- Node25&#45;&gt;Node25 -->
<g id="edge33" class="edge"><title>Node25&#45;&gt;Node25</title>
<path fill="none" stroke="midnightblue" d="M987.038,-75.5252C1001.67,-78.3079 1016,-75.1328 1016,-66 1016,-59.0077 1007.6,-55.5077 997.097,-55.5"/>
<polygon fill="midnightblue" stroke="midnightblue" points="996.654,-52.0265 987.038,-56.4748 997.329,-58.9938 996.654,-52.0265"/>
</g>
<!-- Node26 -->
<g id="node26" class="node"><title>Node26</title>
<polygon fill="none" stroke="#bfbfbf" points="934.5,-0.5 934.5,-19.5 996.5,-19.5 996.5,-0.5 934.5,-0.5"/>
<text text-anchor="middle" x="965.5" y="-7.5" font-family="Helvetica,sans-Serif" font-size="10.00">Library.tpp</text>
</g>
<!-- Node25&#45;&gt;Node26 -->
<g id="edge32" class="edge"><title>Node25&#45;&gt;Node26</title>
<path fill="none" stroke="midnightblue" d="M965.5,-56.083C965.5,-49.0059 965.5,-38.8611 965.5,-29.9865"/>
<polygon fill="midnightblue" stroke="midnightblue" points="969,-29.751 965.5,-19.7511 962,-29.7511 969,-29.751"/>
</g>
<!-- Node27&#45;&gt;Node4 -->
<g id="edge36" class="edge"><title>Node27&#45;&gt;Node4</title>
<path fill="none" stroke="midnightblue" d="M1298.74,-112.427C1260.09,-104.744 1211.55,-92.1961 1199.5,-76 1177.48,-46.4108 1232.87,-27.1049 1271,-17.7129"/>
<polygon fill="midnightblue" stroke="midnightblue" points="1272.28,-21.0094 1281.22,-15.3265 1270.68,-14.1928 1272.28,-21.0094"/>
</g>
<!-- Node27&#45;&gt;Node5 -->
<g id="edge37" class="edge"><title>Node27&#45;&gt;Node5</title>
<path fill="none" stroke="midnightblue" d="M1353.46,-112.083C1356.71,-104.77 1361.42,-94.1814 1365.45,-85.1034"/>
<polygon fill="midnightblue" stroke="midnightblue" points="1368.75,-86.3107 1369.61,-75.7511 1362.35,-83.4677 1368.75,-86.3107"/>
</g>
<!-- Node27&#45;&gt;Node6 -->
<g id="edge35" class="edge"><title>Node27&#45;&gt;Node6</title>
<path fill="none" stroke="midnightblue" d="M1344.17,-112.3C1336.58,-98.6644 1324.99,-72.1516 1338.5,-56 1364.2,-25.2835 1478.95,-15.5075 1544.03,-12.4153"/>
<polygon fill="midnightblue" stroke="midnightblue" points="1544.58,-15.8947 1554.42,-11.9586 1544.28,-8.90144 1544.58,-15.8947"/>
</g>
<!-- Node28 -->
<g id="node28" class="node"><title>Node28</title>
<g id="a_node28"><a xlink:href="../../d4/d6e/Shader_8hpp.html" target="_top" xlink:title="Shader.hpp">
<polygon fill="none" stroke="black" points="1034.5,-56.5 1034.5,-75.5 1100.5,-75.5 1100.5,-56.5 1034.5,-56.5"/>
<text text-anchor="middle" x="1067.5" y="-63.5" font-family="Helvetica,sans-Serif" font-size="10.00">Shader.hpp</text>
</a>
</g>
</g>
<!-- Node27&#45;&gt;Node28 -->
<g id="edge38" class="edge"><title>Node27&#45;&gt;Node28</title>
<path fill="none" stroke="midnightblue" d="M1304.82,-112.444C1251.53,-102.239 1163.08,-85.3024 1110.53,-75.2398"/>
<polygon fill="midnightblue" stroke="midnightblue" points="1111,-71.7662 1100.52,-73.323 1109.68,-78.6413 1111,-71.7662"/>
</g>
<!-- Node29 -->
<g id="node29" class="node"><title>Node29</title>
<polygon fill="none" stroke="#bfbfbf" points="466,-0.5 466,-19.5 507,-19.5 507,-0.5 466,-0.5"/>
<text text-anchor="middle" x="486.5" y="-7.5" font-family="Helvetica,sans-Serif" font-size="10.00">string</text>
</g>
<!-- Node28&#45;&gt;Node29 -->
<g id="edge39" class="edge"><title>Node28&#45;&gt;Node29</title>
<path fill="none" stroke="midnightblue" d="M1034.11,-57.4015C1031.2,-56.8758 1028.31,-56.3978 1025.5,-56 804.248,-24.6286 741.414,-59.7725 517.122,-19.6444"/>
<polygon fill="midnightblue" stroke="midnightblue" points="517.476,-16.1514 507.011,-17.8044 516.222,-23.0383 517.476,-16.1514"/>
</g>
<!-- Node31&#45;&gt;Node5 -->
<g id="edge42" class="edge"><title>Node31&#45;&gt;Node5</title>
<path fill="none" stroke="midnightblue" d="M1051.08,-113.437C1054.27,-112.946 1057.43,-112.463 1060.5,-112 1160.41,-96.9312 1278.44,-80.2707 1336.9,-72.0955"/>
<polygon fill="midnightblue" stroke="midnightblue" points="1337.68,-75.5199 1347.1,-70.67 1336.71,-68.5872 1337.68,-75.5199"/>
</g>
<!-- Node31&#45;&gt;Node25 -->
<g id="edge43" class="edge"><title>Node31&#45;&gt;Node25</title>
<path fill="none" stroke="midnightblue" d="M997.225,-112.083C991.858,-104.455 983.982,-93.2645 977.421,-83.9408"/>
<polygon fill="midnightblue" stroke="midnightblue" points="980.275,-81.9149 971.658,-75.7511 974.551,-85.9434 980.275,-81.9149"/>
</g>
<!-- Node31&#45;&gt;Node28 -->
<g id="edge44" class="edge"><title>Node31&#45;&gt;Node28</title>
<path fill="none" stroke="midnightblue" d="M1013.78,-112.324C1023.34,-104.263 1037.78,-92.0765 1049.28,-82.3695"/>
<polygon fill="midnightblue" stroke="midnightblue" points="1051.64,-84.9577 1057.03,-75.8339 1047.13,-79.6076 1051.64,-84.9577"/>
</g>
<!-- Node32&#45;&gt;Node25 -->
<g id="edge47" class="edge"><title>Node32&#45;&gt;Node25</title>
<path fill="none" stroke="midnightblue" d="M1593.84,-174.461C1524.72,-170.078 1395.98,-158.828 1289.5,-132 1265.49,-125.951 1261.39,-118.499 1237.5,-112 1215.76,-106.088 1078.92,-84.5392 1008.01,-73.5462"/>
<polygon fill="midnightblue" stroke="midnightblue" points="1008.46,-70.075 998.047,-72.004 1007.39,-76.9926 1008.46,-70.075"/>
</g>
<!-- Node33 -->
<g id="node33" class="node"><title>Node33</title>
<polygon fill="none" stroke="#bfbfbf" points="1745.5,-56.5 1745.5,-75.5 1839.5,-75.5 1839.5,-56.5 1745.5,-56.5"/>
<text text-anchor="middle" x="1792.5" y="-63.5" font-family="Helvetica,sans-Serif" font-size="10.00">assimp/material.h</text>
</g>
<!-- Node32&#45;&gt;Node33 -->
<g id="edge46" class="edge"><title>Node32&#45;&gt;Node33</title>
<path fill="none" stroke="midnightblue" d="M1667.95,-168.366C1687.66,-160.687 1715.45,-148.174 1736.5,-132 1754.33,-118.302 1770.6,-98.1608 1780.95,-83.9361"/>
<polygon fill="midnightblue" stroke="midnightblue" points="1783.95,-85.758 1786.86,-75.57 1778.23,-81.7209 1783.95,-85.758"/>
</g>
<!-- Node34 -->
<g id="node34" class="node"><title>Node34</title>
<g id="a_node34"><a xlink:href="../../d0/d70/Material_8hpp.html" target="_top" xlink:title="Material.hpp">
<polygon fill="none" stroke="black" points="1657.5,-112.5 1657.5,-131.5 1727.5,-131.5 1727.5,-112.5 1657.5,-112.5"/>
<text text-anchor="middle" x="1692.5" y="-119.5" font-family="Helvetica,sans-Serif" font-size="10.00">Material.hpp</text>
</a>
</g>
</g>
<!-- Node32&#45;&gt;Node34 -->
<g id="edge48" class="edge"><title>Node32&#45;&gt;Node34</title>
<path fill="none" stroke="midnightblue" d="M1651.59,-168.083C1658.66,-160.298 1669.09,-148.801 1677.65,-139.367"/>
<polygon fill="midnightblue" stroke="midnightblue" points="1680.43,-141.509 1684.56,-131.751 1675.25,-136.805 1680.43,-141.509"/>
</g>
<!-- Node34&#45;&gt;Node5 -->
<g id="edge49" class="edge"><title>Node34&#45;&gt;Node5</title>
<path fill="none" stroke="midnightblue" d="M1657.45,-115.067C1596.56,-104.759 1471.83,-83.6449 1409.96,-73.1724"/>
<polygon fill="midnightblue" stroke="midnightblue" points="1410.33,-69.6841 1399.88,-71.4659 1409.16,-76.5859 1410.33,-69.6841"/>
</g>
<!-- Node34&#45;&gt;Node6 -->
<g id="edge50" class="edge"><title>Node34&#45;&gt;Node6</title>
<path fill="none" stroke="midnightblue" d="M1692.56,-112.453C1692.21,-99.0265 1689.74,-72.7954 1676.5,-56 1664.62,-40.9272 1646.31,-30.3986 1629.54,-23.3369"/>
<polygon fill="midnightblue" stroke="midnightblue" points="1630.5,-19.9527 1619.91,-19.5716 1627.95,-26.4722 1630.5,-19.9527"/>
</g>
<!-- Node34&#45;&gt;Node33 -->
<g id="edge51" class="edge"><title>Node34&#45;&gt;Node33</title>
<path fill="none" stroke="midnightblue" d="M1708.57,-112.324C1724.46,-103.743 1749.01,-90.486 1767.46,-80.5224"/>
<polygon fill="midnightblue" stroke="midnightblue" points="1769.34,-83.4857 1776.47,-75.6545 1766.01,-77.3264 1769.34,-83.4857"/>
</g>
<!-- Node35&#45;&gt;Node25 -->
<g id="edge54" class="edge"><title>Node35&#45;&gt;Node25</title>
<path fill="none" stroke="midnightblue" d="M585.685,-113.783C590.357,-113.174 595.011,-112.573 599.5,-112 716.382,-97.0801 854.381,-80.3535 922.718,-72.13"/>
<polygon fill="midnightblue" stroke="midnightblue" points="923.169,-75.6011 932.679,-70.9321 922.333,-68.6512 923.169,-75.6011"/>
</g>
<!-- Node36 -->
<g id="node36" class="node"><title>Node36</title>
<polygon fill="none" stroke="#bfbfbf" points="525.5,-0.5 525.5,-19.5 605.5,-19.5 605.5,-0.5 525.5,-0.5"/>
<text text-anchor="middle" x="565.5" y="-7.5" font-family="Helvetica,sans-Serif" font-size="10.00">assimp/anim.h</text>
</g>
<!-- Node35&#45;&gt;Node36 -->
<g id="edge53" class="edge"><title>Node35&#45;&gt;Node36</title>
<path fill="none" stroke="midnightblue" d="M534.192,-112.376C537.017,-103.319 541.582,-88.6624 545.5,-76 550.353,-60.3147 555.835,-42.4901 559.831,-29.4788"/>
<polygon fill="midnightblue" stroke="midnightblue" points="563.203,-30.4209 562.791,-19.8341 556.511,-28.3668 563.203,-30.4209"/>
</g>
<!-- Node37 -->
<g id="node37" class="node"><title>Node37</title>
<g id="a_node37"><a xlink:href="../../d0/d36/Animation_8hpp.html" target="_top" xlink:title="Animation.hpp">
<polygon fill="none" stroke="black" points="458,-56.5 458,-75.5 537,-75.5 537,-56.5 458,-56.5"/>
<text text-anchor="middle" x="497.5" y="-63.5" font-family="Helvetica,sans-Serif" font-size="10.00">Animation.hpp</text>
</a>
</g>
</g>
<!-- Node35&#45;&gt;Node37 -->
<g id="edge55" class="edge"><title>Node35&#45;&gt;Node37</title>
<path fill="none" stroke="midnightblue" d="M525.886,-112.083C521.133,-104.534 514.182,-93.4948 508.348,-84.2298"/>
<polygon fill="midnightblue" stroke="midnightblue" points="511.3,-82.3486 503.01,-75.7511 505.376,-86.0783 511.3,-82.3486"/>
</g>
<!-- Node37&#45;&gt;Node29 -->
<g id="edge57" class="edge"><title>Node37&#45;&gt;Node29</title>
<path fill="none" stroke="midnightblue" d="M495.684,-56.083C494.226,-48.9272 492.129,-38.6353 490.307,-29.6911"/>
<polygon fill="midnightblue" stroke="midnightblue" points="493.708,-28.8512 488.283,-19.7511 486.849,-30.2485 493.708,-28.8512"/>
</g>
<!-- Node37&#45;&gt;Node36 -->
<g id="edge56" class="edge"><title>Node37&#45;&gt;Node36</title>
<path fill="none" stroke="midnightblue" d="M508.425,-56.324C518.675,-48.1849 534.221,-35.8395 546.501,-26.0874"/>
<polygon fill="midnightblue" stroke="midnightblue" points="548.721,-28.7937 554.376,-19.8339 544.368,-23.3119 548.721,-28.7937"/>
</g>
<!-- Node38&#45;&gt;Node3 -->
<g id="edge60" class="edge"><title>Node38&#45;&gt;Node3</title>
<path fill="none" stroke="midnightblue" d="M1306.7,-168.444C1355.89,-158.226 1437.59,-141.259 1486.01,-131.201"/>
<polygon fill="midnightblue" stroke="midnightblue" points="1486.74,-134.625 1495.82,-129.165 1485.31,-127.772 1486.74,-134.625"/>
</g>
<!-- Node38&#45;&gt;Node25 -->
<g id="edge59" class="edge"><title>Node38&#45;&gt;Node25</title>
<path fill="none" stroke="midnightblue" d="M1261.01,-168.167C1253.23,-153.845 1235.82,-125.772 1212.5,-112 1203.75,-106.835 1076.75,-85.3274 1008.37,-74.0194"/>
<polygon fill="midnightblue" stroke="midnightblue" points="1008.77,-70.537 998.329,-72.3621 1007.63,-77.4436 1008.77,-70.537"/>
</g>
<!-- Node39&#45;&gt;Node25 -->
<g id="edge62" class="edge"><title>Node39&#45;&gt;Node25</title>
<path fill="none" stroke="midnightblue" d="M956.556,-168.414C905.761,-158.65 830.851,-142.682 822.5,-132 793.132,-94.4365 870.584,-77.8632 922.643,-71.1303"/>
<polygon fill="midnightblue" stroke="midnightblue" points="923.172,-74.5918 932.677,-69.9116 922.328,-67.6429 923.172,-74.5918"/>
</g>
<!-- Node40 -->
<g id="node40" class="node"><title>Node40</title>
<g id="a_node40"><a xlink:href="../../d0/ddc/Texture_8hpp.html" target="_top" xlink:title="Texture.hpp">
<polygon fill="none" stroke="red" points="831.5,-112.5 831.5,-131.5 899.5,-131.5 899.5,-112.5 831.5,-112.5"/>
<text text-anchor="middle" x="865.5" y="-119.5" font-family="Helvetica,sans-Serif" font-size="10.00">Texture.hpp</text>
</a>
</g>
</g>
<!-- Node39&#45;&gt;Node40 -->
<g id="edge63" class="edge"><title>Node39&#45;&gt;Node40</title>
<path fill="none" stroke="midnightblue" d="M981.633,-168.444C958.721,-159.478 922.525,-145.314 896.634,-135.183"/>
<polygon fill="midnightblue" stroke="midnightblue" points="897.852,-131.901 887.264,-131.516 895.301,-138.42 897.852,-131.901"/>
</g>
<!-- Node41&#45;&gt;Node7 -->
<g id="edge68" class="edge"><title>Node41&#45;&gt;Node7</title>
<path fill="none" stroke="midnightblue" d="M516.592,-168.484C536.252,-159.635 567.711,-145.253 594.5,-132 611.606,-123.537 614.151,-117.249 632.5,-112 646.035,-108.128 1051.46,-80.4005 1197.62,-70.5011"/>
<polygon fill="midnightblue" stroke="midnightblue" points="1197.94,-73.9872 1207.68,-69.8197 1197.47,-67.0032 1197.94,-73.9872"/>
</g>
<!-- Node41&#45;&gt;Node19 -->
<g id="edge66" class="edge"><title>Node41&#45;&gt;Node19</title>
<path fill="none" stroke="midnightblue" d="M549.845,-169.808C596.476,-162.804 666.616,-150.806 736.111,-131.676"/>
<polygon fill="midnightblue" stroke="midnightblue" points="737.226,-134.998 745.91,-128.929 735.336,-128.258 737.226,-134.998"/>
</g>
<!-- Node41&#45;&gt;Node29 -->
<g id="edge65" class="edge"><title>Node41&#45;&gt;Node29</title>
<path fill="none" stroke="midnightblue" d="M445.338,-168.49C405.994,-160.882 356.775,-148.405 344.5,-132 307.571,-82.6459 404.026,-39.801 455.956,-21.0631"/>
<polygon fill="midnightblue" stroke="midnightblue" points="457.421,-24.2583 465.696,-17.6421 455.101,-17.6539 457.421,-24.2583"/>
</g>
<!-- Node42 -->
<g id="node42" class="node"><title>Node42</title>
<polygon fill="none" stroke="#bfbfbf" points="353.5,-112.5 353.5,-131.5 459.5,-131.5 459.5,-112.5 353.5,-112.5"/>
<text text-anchor="middle" x="406.5" y="-119.5" font-family="Helvetica,sans-Serif" font-size="10.00">assimp/Importer.hpp</text>
</g>
<!-- Node41&#45;&gt;Node42 -->
<g id="edge67" class="edge"><title>Node41&#45;&gt;Node42</title>
<path fill="none" stroke="midnightblue" d="M482.879,-168.324C468.551,-159.822 446.487,-146.729 429.751,-136.797"/>
<polygon fill="midnightblue" stroke="midnightblue" points="431.47,-133.748 421.084,-131.655 427.898,-139.768 431.47,-133.748"/>
</g>
<!-- Node44 -->
<g id="node44" class="node"><title>Node44</title>
<g id="a_node44"><a xlink:href="../../de/d71/tools_8hpp.html" target="_top" xlink:title="tools.hpp">
<polygon fill="none" stroke="black" points="220.5,-224.5 220.5,-243.5 276.5,-243.5 276.5,-224.5 220.5,-224.5"/>
<text text-anchor="middle" x="248.5" y="-231.5" font-family="Helvetica,sans-Serif" font-size="10.00">tools.hpp</text>
</a>
</g>
</g>
<!-- Node43&#45;&gt;Node44 -->
<g id="edge70" class="edge"><title>Node43&#45;&gt;Node44</title>
<path fill="none" stroke="midnightblue" d="M263.064,-285.975C260.641,-277.492 256.844,-264.204 253.735,-253.322"/>
<polygon fill="midnightblue" stroke="midnightblue" points="257.044,-252.163 250.931,-243.509 250.313,-254.086 257.044,-252.163"/>
</g>
<!-- Node45 -->
<g id="node45" class="node"><title>Node45</title>
<polygon fill="none" stroke="#bfbfbf" points="377.5,-168.5 377.5,-187.5 427.5,-187.5 427.5,-168.5 377.5,-168.5"/>
<text text-anchor="middle" x="402.5" y="-175.5" font-family="Helvetica,sans-Serif" font-size="10.00">QString</text>
</g>
<!-- Node44&#45;&gt;Node45 -->
<g id="edge71" class="edge"><title>Node44&#45;&gt;Node45</title>
<path fill="none" stroke="midnightblue" d="M272.902,-224.444C298.697,-215.399 339.577,-201.064 368.518,-190.916"/>
<polygon fill="midnightblue" stroke="midnightblue" points="369.934,-194.128 378.212,-187.516 367.618,-187.523 369.934,-194.128"/>
</g>
<!-- Node46 -->
<g id="node46" class="node"><title>Node46</title>
<polygon fill="none" stroke="#bfbfbf" points="0,-168.5 0,-187.5 65,-187.5 65,-168.5 0,-168.5"/>
<text text-anchor="middle" x="32.5" y="-175.5" font-family="Helvetica,sans-Serif" font-size="10.00">QVector3D</text>
</g>
<!-- Node44&#45;&gt;Node46 -->
<g id="edge72" class="edge"><title>Node44&#45;&gt;Node46</title>
<path fill="none" stroke="midnightblue" d="M220.262,-225.94C183.314,-216.704 118.227,-200.432 75.2284,-189.682"/>
<polygon fill="midnightblue" stroke="midnightblue" points="75.8891,-186.24 65.3388,-187.21 74.1913,-193.031 75.8891,-186.24"/>
</g>
<!-- Node47 -->
<g id="node47" class="node"><title>Node47</title>
<polygon fill="none" stroke="#bfbfbf" points="83.5,-168.5 83.5,-187.5 123.5,-187.5 123.5,-168.5 83.5,-168.5"/>
<text text-anchor="middle" x="103.5" y="-175.5" font-family="Helvetica,sans-Serif" font-size="10.00">QList</text>
</g>
<!-- Node44&#45;&gt;Node47 -->
<g id="edge73" class="edge"><title>Node44&#45;&gt;Node47</title>
<path fill="none" stroke="midnightblue" d="M225.524,-224.444C200.49,-215.12 160.364,-200.177 133.013,-189.991"/>
<polygon fill="midnightblue" stroke="midnightblue" points="134.159,-186.683 123.566,-186.473 131.716,-193.243 134.159,-186.683"/>
</g>
<!-- Node48 -->
<g id="node48" class="node"><title>Node48</title>
<polygon fill="none" stroke="#bfbfbf" points="142,-168.5 142,-187.5 185,-187.5 185,-168.5 142,-168.5"/>
<text text-anchor="middle" x="163.5" y="-175.5" font-family="Helvetica,sans-Serif" font-size="10.00">QMap</text>
</g>
<!-- Node44&#45;&gt;Node48 -->
<g id="edge74" class="edge"><title>Node44&#45;&gt;Node48</title>
<path fill="none" stroke="midnightblue" d="M234.843,-224.324C221.584,-215.9 201.232,-202.971 185.654,-193.074"/>
<polygon fill="midnightblue" stroke="midnightblue" points="187.44,-190.063 177.123,-187.655 183.687,-195.971 187.44,-190.063"/>
</g>
<!-- Node49 -->
<g id="node49" class="node"><title>Node49</title>
<polygon fill="none" stroke="#bfbfbf" points="203,-168.5 203,-187.5 294,-187.5 294,-168.5 203,-168.5"/>
<text text-anchor="middle" x="248.5" y="-175.5" font-family="Helvetica,sans-Serif" font-size="10.00">QGraphicsScene</text>
</g>
<!-- Node44&#45;&gt;Node49 -->
<g id="edge75" class="edge"><title>Node44&#45;&gt;Node49</title>
<path fill="none" stroke="midnightblue" d="M248.5,-224.083C248.5,-217.006 248.5,-206.861 248.5,-197.986"/>
<polygon fill="midnightblue" stroke="midnightblue" points="252,-197.751 248.5,-187.751 245,-197.751 252,-197.751"/>
</g>
<!-- Node50 -->
<g id="node50" class="node"><title>Node50</title>
<polygon fill="none" stroke="#bfbfbf" points="312,-168.5 312,-187.5 359,-187.5 359,-168.5 312,-168.5"/>
<text text-anchor="middle" x="335.5" y="-175.5" font-family="Helvetica,sans-Serif" font-size="10.00">math.h</text>
</g>
<!-- Node44&#45;&gt;Node50 -->
<g id="edge76" class="edge"><title>Node44&#45;&gt;Node50</title>
<path fill="none" stroke="midnightblue" d="M262.478,-224.324C276.05,-215.9 296.88,-202.971 312.825,-193.074"/>
<polygon fill="midnightblue" stroke="midnightblue" points="314.906,-195.902 321.557,-187.655 311.214,-189.954 314.906,-195.902"/>
</g>
</g>
</svg>
