<?xml version="1.0" encoding="UTF-8" standalone="no"?>
<!DOCTYPE svg PUBLIC "-//W3C//DTD SVG 1.1//EN"
 "http://www.w3.org/Graphics/SVG/1.1/DTD/svg11.dtd">
<!-- Generated by graphviz version 2.38.0 (20140413.2041)
 -->
<!-- Title: engine/Mesh/Mesh.cpp Pages: 1 -->
<svg width="844pt" height="543pt"
 viewBox="0.00 0.00 844.06 543.00" xmlns="http://www.w3.org/2000/svg" xmlns:xlink="http://www.w3.org/1999/xlink">
<g id="graph0" class="graph" transform="scale(1 1) rotate(0) translate(4 539)">
<title>engine/Mesh/Mesh.cpp</title>
<!-- Node1 -->
<g id="node1" class="node"><title>Node1</title>
<polygon fill="#bfbfbf" stroke="black" points="270,-515.5 270,-534.5 388,-534.5 388,-515.5 270,-515.5"/>
<text text-anchor="middle" x="329" y="-522.5" font-family="Helvetica,sans-Serif" font-size="10.00">engine/Mesh/Mesh.cpp</text>
</g>
<!-- Node2 -->
<g id="node2" class="node"><title>Node2</title>
<g id="a_node2"><a xlink:href="../../d1/d62/Mesh_8hpp.html" target="_top" xlink:title="Mesh.hpp">
<polygon fill="none" stroke="black" points="196.5,-168.5 196.5,-187.5 255.5,-187.5 255.5,-168.5 196.5,-168.5"/>
<text text-anchor="middle" x="226" y="-175.5" font-family="Helvetica,sans-Serif" font-size="10.00">Mesh.hpp</text>
</a>
</g>
</g>
<!-- Node1&#45;&gt;Node2 -->
<g id="edge1" class="edge"><title>Node1&#45;&gt;Node2</title>
<path fill="none" stroke="midnightblue" d="M269.801,-515.626C175.08,-500.545 0,-465.025 0,-408.5 0,-408.5 0,-408.5 0,-289 0,-207.155 121.312,-186.192 186.177,-180.833"/>
<polygon fill="midnightblue" stroke="midnightblue" points="186.739,-184.301 196.454,-180.076 186.224,-177.32 186.739,-184.301"/>
</g>
<!-- Node8 -->
<g id="node8" class="node"><title>Node8</title>
<g id="a_node8"><a xlink:href="../../d1/d2a/glwindow_8h.html" target="_top" xlink:title="glwindow.h">
<polygon fill="none" stroke="black" points="296.5,-459.5 296.5,-478.5 361.5,-478.5 361.5,-459.5 296.5,-459.5"/>
<text text-anchor="middle" x="329" y="-466.5" font-family="Helvetica,sans-Serif" font-size="10.00">glwindow.h</text>
</a>
</g>
</g>
<!-- Node1&#45;&gt;Node8 -->
<g id="edge9" class="edge"><title>Node1&#45;&gt;Node8</title>
<path fill="none" stroke="midnightblue" d="M329,-515.083C329,-508.006 329,-497.861 329,-488.986"/>
<polygon fill="midnightblue" stroke="midnightblue" points="332.5,-488.751 329,-478.751 325.5,-488.751 332.5,-488.751"/>
</g>
<!-- Node35 -->
<g id="node35" class="node"><title>Node35</title>
<polygon fill="none" stroke="#bfbfbf" points="379.5,-459.5 379.5,-478.5 486.5,-478.5 486.5,-459.5 379.5,-459.5"/>
<text text-anchor="middle" x="433" y="-466.5" font-family="Helvetica,sans-Serif" font-size="10.00">log4cpp/Category.hh</text>
</g>
<!-- Node1&#45;&gt;Node35 -->
<g id="edge53" class="edge"><title>Node1&#45;&gt;Node35</title>
<path fill="none" stroke="midnightblue" d="M345.709,-515.324C362.312,-506.703 388.002,-493.364 407.22,-483.386"/>
<polygon fill="midnightblue" stroke="midnightblue" points="409.07,-486.369 416.332,-478.655 405.844,-480.156 409.07,-486.369"/>
</g>
<!-- Node3 -->
<g id="node3" class="node"><title>Node3</title>
<polygon fill="none" stroke="#bfbfbf" points="61,-56.5 61,-75.5 105,-75.5 105,-56.5 61,-56.5"/>
<text text-anchor="middle" x="83" y="-63.5" font-family="Helvetica,sans-Serif" font-size="10.00">vector</text>
</g>
<!-- Node2&#45;&gt;Node3 -->
<g id="edge2" class="edge"><title>Node2&#45;&gt;Node3</title>
<path fill="none" stroke="midnightblue" d="M196.434,-174.656C146.68,-170.032 49.6135,-157.853 29,-132 14.7388,-114.114 37.8833,-93.902 58.1577,-80.8331"/>
<polygon fill="midnightblue" stroke="midnightblue" points="60.1292,-83.7303 66.8394,-75.5312 56.4808,-77.7562 60.1292,-83.7303"/>
</g>
<!-- Node4 -->
<g id="node4" class="node"><title>Node4</title>
<polygon fill="none" stroke="#bfbfbf" points="639,-56.5 639,-75.5 691,-75.5 691,-56.5 639,-56.5"/>
<text text-anchor="middle" x="665" y="-63.5" font-family="Helvetica,sans-Serif" font-size="10.00">memory</text>
</g>
<!-- Node2&#45;&gt;Node4 -->
<g id="edge3" class="edge"><title>Node2&#45;&gt;Node4</title>
<path fill="none" stroke="midnightblue" d="M255.757,-171.281C262.098,-170.134 268.763,-168.98 275,-168 396.77,-148.86 433.082,-171.045 550,-132 585.752,-120.06 622.998,-96.6598 645.084,-81.4357"/>
<polygon fill="midnightblue" stroke="midnightblue" points="647.135,-84.2723 653.306,-75.6601 643.111,-78.5444 647.135,-84.2723"/>
</g>
<!-- Node5 -->
<g id="node5" class="node"><title>Node5</title>
<polygon fill="none" stroke="#bfbfbf" points="318,-56.5 318,-75.5 388,-75.5 388,-56.5 318,-56.5"/>
<text text-anchor="middle" x="353" y="-63.5" font-family="Helvetica,sans-Serif" font-size="10.00">glm/glm.hpp</text>
</g>
<!-- Node2&#45;&gt;Node5 -->
<g id="edge4" class="edge"><title>Node2&#45;&gt;Node5</title>
<path fill="none" stroke="midnightblue" d="M235.965,-168.368C257.388,-149.814 308.073,-105.913 335.177,-82.4376"/>
<polygon fill="midnightblue" stroke="midnightblue" points="337.813,-84.7841 343.081,-75.5914 333.23,-79.4929 337.813,-84.7841"/>
</g>
<!-- Node6 -->
<g id="node6" class="node"><title>Node6</title>
<polygon fill="none" stroke="#bfbfbf" points="184.5,-112.5 184.5,-131.5 267.5,-131.5 267.5,-112.5 184.5,-112.5"/>
<text text-anchor="middle" x="226" y="-119.5" font-family="Helvetica,sans-Serif" font-size="10.00">assimp/mesh.h</text>
</g>
<!-- Node2&#45;&gt;Node6 -->
<g id="edge5" class="edge"><title>Node2&#45;&gt;Node6</title>
<path fill="none" stroke="midnightblue" d="M226,-168.083C226,-161.006 226,-150.861 226,-141.986"/>
<polygon fill="midnightblue" stroke="midnightblue" points="229.5,-141.751 226,-131.751 222.5,-141.751 229.5,-141.751"/>
</g>
<!-- Node7 -->
<g id="node7" class="node"><title>Node7</title>
<g id="a_node7"><a xlink:href="../../da/d04/BufferObject_8hpp.html" target="_top" xlink:title="BufferObject.hpp">
<polygon fill="none" stroke="black" points="38,-112.5 38,-131.5 128,-131.5 128,-112.5 38,-112.5"/>
<text text-anchor="middle" x="83" y="-119.5" font-family="Helvetica,sans-Serif" font-size="10.00">BufferObject.hpp</text>
</a>
</g>
</g>
<!-- Node2&#45;&gt;Node7 -->
<g id="edge6" class="edge"><title>Node2&#45;&gt;Node7</title>
<path fill="none" stroke="midnightblue" d="M203.341,-168.444C179.598,-159.478 142.091,-145.314 115.262,-135.183"/>
<polygon fill="midnightblue" stroke="midnightblue" points="116.144,-131.775 105.553,-131.516 113.671,-138.324 116.144,-131.775"/>
</g>
<!-- Node7&#45;&gt;Node3 -->
<g id="edge7" class="edge"><title>Node7&#45;&gt;Node3</title>
<path fill="none" stroke="midnightblue" d="M83,-112.083C83,-105.006 83,-94.8611 83,-85.9865"/>
<polygon fill="midnightblue" stroke="midnightblue" points="86.5001,-85.751 83,-75.7511 79.5001,-85.7511 86.5001,-85.751"/>
</g>
<!-- Node7&#45;&gt;Node5 -->
<g id="edge8" class="edge"><title>Node7&#45;&gt;Node5</title>
<path fill="none" stroke="midnightblue" d="M125.782,-112.444C175.446,-102.511 257.003,-86.1994 307.711,-76.0578"/>
<polygon fill="midnightblue" stroke="midnightblue" points="308.612,-79.447 317.731,-74.0537 307.239,-72.5829 308.612,-79.447"/>
</g>
<!-- Node9 -->
<g id="node9" class="node"><title>Node9</title>
<polygon fill="none" stroke="#bfbfbf" points="28.5,-398 28.5,-417 87.5,-417 87.5,-398 28.5,-398"/>
<text text-anchor="middle" x="58" y="-405" font-family="Helvetica,sans-Serif" font-size="10.00">QWindow</text>
</g>
<!-- Node8&#45;&gt;Node9 -->
<g id="edge10" class="edge"><title>Node8&#45;&gt;Node9</title>
<path fill="none" stroke="midnightblue" d="M296.164,-463.499C250.667,-456.848 166.129,-442.988 96,-423 93.4153,-422.263 90.7591,-421.425 88.1099,-420.532"/>
<polygon fill="midnightblue" stroke="midnightblue" points="89.2805,-417.234 78.686,-417.139 86.9093,-423.82 89.2805,-417.234"/>
</g>
<!-- Node10 -->
<g id="node10" class="node"><title>Node10</title>
<polygon fill="none" stroke="#bfbfbf" points="105.5,-398 105.5,-417 200.5,-417 200.5,-398 105.5,-398"/>
<text text-anchor="middle" x="153" y="-405" font-family="Helvetica,sans-Serif" font-size="10.00">QOpenGLContext</text>
</g>
<!-- Node8&#45;&gt;Node10 -->
<g id="edge11" class="edge"><title>Node8&#45;&gt;Node10</title>
<path fill="none" stroke="midnightblue" d="M303.783,-459.475C273.332,-449.18 221.951,-431.81 187.757,-420.25"/>
<polygon fill="midnightblue" stroke="midnightblue" points="188.764,-416.896 178.17,-417.009 186.522,-423.527 188.764,-416.896"/>
</g>
<!-- Node11 -->
<g id="node11" class="node"><title>Node11</title>
<polygon fill="none" stroke="#bfbfbf" points="218.5,-392.5 218.5,-422.5 331.5,-422.5 331.5,-392.5 218.5,-392.5"/>
<text text-anchor="start" x="226.5" y="-410.5" font-family="Helvetica,sans-Serif" font-size="10.00">QOpenGLFunctions_4</text>
<text text-anchor="middle" x="275" y="-399.5" font-family="Helvetica,sans-Serif" font-size="10.00">_2_Core</text>
</g>
<!-- Node8&#45;&gt;Node11 -->
<g id="edge12" class="edge"><title>Node8&#45;&gt;Node11</title>
<path fill="none" stroke="midnightblue" d="M321.263,-459.475C314.291,-451.793 303.744,-440.172 294.48,-429.964"/>
<polygon fill="midnightblue" stroke="midnightblue" points="297.039,-427.576 287.727,-422.523 291.856,-432.28 297.039,-427.576"/>
</g>
<!-- Node12 -->
<g id="node12" class="node"><title>Node12</title>
<polygon fill="none" stroke="#bfbfbf" points="349.5,-398 349.5,-417 416.5,-417 416.5,-398 349.5,-398"/>
<text text-anchor="middle" x="383" y="-405" font-family="Helvetica,sans-Serif" font-size="10.00">QKeyEvent</text>
</g>
<!-- Node8&#45;&gt;Node12 -->
<g id="edge13" class="edge"><title>Node8&#45;&gt;Node12</title>
<path fill="none" stroke="midnightblue" d="M336.737,-459.475C344.997,-450.373 358.277,-435.741 368.494,-424.483"/>
<polygon fill="midnightblue" stroke="midnightblue" points="371.149,-426.766 375.277,-417.009 365.965,-422.062 371.149,-426.766"/>
</g>
<!-- Node13 -->
<g id="node13" class="node"><title>Node13</title>
<polygon fill="none" stroke="#bfbfbf" points="435,-398 435,-417 481,-417 481,-398 435,-398"/>
<text text-anchor="middle" x="458" y="-405" font-family="Helvetica,sans-Serif" font-size="10.00">QTime</text>
</g>
<!-- Node8&#45;&gt;Node13 -->
<g id="edge14" class="edge"><title>Node8&#45;&gt;Node13</title>
<path fill="none" stroke="midnightblue" d="M347.483,-459.475C369.132,-449.49 405.213,-432.848 430.232,-421.307"/>
<polygon fill="midnightblue" stroke="midnightblue" points="431.937,-424.376 439.552,-417.009 429.005,-418.019 431.937,-424.376"/>
</g>
<!-- Node14 -->
<g id="node14" class="node"><title>Node14</title>
<g id="a_node14"><a xlink:href="../../d4/d1c/GameEngine_8hpp.html" target="_top" xlink:title="GameEngine.hpp">
<polygon fill="none" stroke="black" points="597,-398 597,-417 689,-417 689,-398 597,-398"/>
<text text-anchor="middle" x="643" y="-405" font-family="Helvetica,sans-Serif" font-size="10.00">GameEngine.hpp</text>
</a>
</g>
</g>
<!-- Node8&#45;&gt;Node14 -->
<g id="edge15" class="edge"><title>Node8&#45;&gt;Node14</title>
<path fill="none" stroke="midnightblue" d="M361.642,-460.673C364.465,-460.088 367.281,-459.523 370,-459 466.436,-440.466 491.971,-443.54 588,-423 592.759,-421.982 597.724,-420.819 602.639,-419.604"/>
<polygon fill="midnightblue" stroke="midnightblue" points="603.753,-422.932 612.576,-417.067 602.021,-416.149 603.753,-422.932"/>
</g>
<!-- Node27 -->
<g id="node27" class="node"><title>Node27</title>
<g id="a_node27"><a xlink:href="../../dc/d51/model_8h.html" target="_top" xlink:title="model/model.h">
<polygon fill="none" stroke="black" points="499,-398 499,-417 579,-417 579,-398 499,-398"/>
<text text-anchor="middle" x="539" y="-405" font-family="Helvetica,sans-Serif" font-size="10.00">model/model.h</text>
</a>
</g>
</g>
<!-- Node8&#45;&gt;Node27 -->
<g id="edge45" class="edge"><title>Node8&#45;&gt;Node27</title>
<path fill="none" stroke="midnightblue" d="M360.205,-459.429C392.669,-450.477 444.955,-435.959 490,-423 493.533,-421.984 497.206,-420.916 500.881,-419.841"/>
<polygon fill="midnightblue" stroke="midnightblue" points="501.913,-423.186 510.52,-417.007 499.939,-416.47 501.913,-423.186"/>
</g>
<!-- Node15 -->
<g id="node15" class="node"><title>Node15</title>
<g id="a_node15"><a xlink:href="../../de/df7/worldparticles_8hpp.html" target="_top" xlink:title="wordparticles configuration file ">
<polygon fill="none" stroke="black" points="712.5,-112.5 712.5,-131.5 807.5,-131.5 807.5,-112.5 712.5,-112.5"/>
<text text-anchor="middle" x="760" y="-119.5" font-family="Helvetica,sans-Serif" font-size="10.00">worldparticles.hpp</text>
</a>
</g>
</g>
<!-- Node14&#45;&gt;Node15 -->
<g id="edge16" class="edge"><title>Node14&#45;&gt;Node15</title>
<path fill="none" stroke="midnightblue" d="M675.872,-397.977C721.37,-383.968 798,-351.407 798,-291 798,-291 798,-291 798,-233 798,-198.813 781.4,-161.764 770.143,-140.571"/>
<polygon fill="midnightblue" stroke="midnightblue" points="773.181,-138.832 765.284,-131.769 767.053,-142.215 773.181,-138.832"/>
</g>
<!-- Node16 -->
<g id="node16" class="node"><title>Node16</title>
<g id="a_node16"><a xlink:href="../../db/de8/Scene_8hpp.html" target="_top" xlink:title="Scene.hpp">
<polygon fill="none" stroke="black" points="607.5,-336.5 607.5,-355.5 670.5,-355.5 670.5,-336.5 607.5,-336.5"/>
<text text-anchor="middle" x="639" y="-343.5" font-family="Helvetica,sans-Serif" font-size="10.00">Scene.hpp</text>
</a>
</g>
</g>
<!-- Node14&#45;&gt;Node16 -->
<g id="edge17" class="edge"><title>Node14&#45;&gt;Node16</title>
<path fill="none" stroke="midnightblue" d="M642.427,-397.975C641.863,-389.58 640.982,-376.481 640.255,-365.663"/>
<polygon fill="midnightblue" stroke="midnightblue" points="643.735,-365.252 639.572,-355.509 636.751,-365.721 643.735,-365.252"/>
</g>
<!-- Node16&#45;&gt;Node4 -->
<g id="edge18" class="edge"><title>Node16&#45;&gt;Node4</title>
<path fill="none" stroke="midnightblue" d="M652.111,-336.419C689.73,-310.869 797.591,-230.891 833,-132 852.461,-77.6472 756.497,-67.883 701.455,-66.6644"/>
<polygon fill="midnightblue" stroke="midnightblue" points="701.412,-63.1636 691.365,-66.5256 701.315,-70.1629 701.412,-63.1636"/>
</g>
<!-- Node17 -->
<g id="node17" class="node"><title>Node17</title>
<polygon fill="none" stroke="#bfbfbf" points="480.5,-280.5 480.5,-299.5 509.5,-299.5 509.5,-280.5 480.5,-280.5"/>
<text text-anchor="middle" x="495" y="-287.5" font-family="Helvetica,sans-Serif" font-size="10.00">list</text>
</g>
<!-- Node16&#45;&gt;Node17 -->
<g id="edge19" class="edge"><title>Node16&#45;&gt;Node17</title>
<path fill="none" stroke="midnightblue" d="M615.76,-336.49C593.177,-328.191 557.695,-315.078 518.96,-300.328"/>
<polygon fill="midnightblue" stroke="midnightblue" points="520.177,-297.046 509.586,-296.751 517.681,-303.586 520.177,-297.046"/>
</g>
<!-- Node18 -->
<g id="node18" class="node"><title>Node18</title>
<g id="a_node18"><a xlink:href="../../d4/db5/GameObject_8hpp.html" target="_top" xlink:title="GameObject.hpp">
<polygon fill="none" stroke="black" points="591,-224.5 591,-243.5 681,-243.5 681,-224.5 591,-224.5"/>
<text text-anchor="middle" x="636" y="-231.5" font-family="Helvetica,sans-Serif" font-size="10.00">GameObject.hpp</text>
</a>
</g>
</g>
<!-- Node16&#45;&gt;Node18 -->
<g id="edge20" class="edge"><title>Node16&#45;&gt;Node18</title>
<path fill="none" stroke="midnightblue" d="M650.85,-336.498C665.902,-324.57 688.915,-301.868 680,-280 675.2,-268.225 665.671,-257.856 656.705,-250.049"/>
<polygon fill="midnightblue" stroke="midnightblue" points="658.755,-247.205 648.781,-243.631 654.35,-252.645 658.755,-247.205"/>
</g>
<!-- Node25 -->
<g id="node25" class="node"><title>Node25</title>
<g id="a_node25"><a xlink:href="../../d6/d80/Camera_8hpp.html" target="_top" xlink:title="Camera.hpp">
<polygon fill="none" stroke="black" points="601,-280.5 601,-299.5 671,-299.5 671,-280.5 601,-280.5"/>
<text text-anchor="middle" x="636" y="-287.5" font-family="Helvetica,sans-Serif" font-size="10.00">Camera.hpp</text>
</a>
</g>
</g>
<!-- Node16&#45;&gt;Node25 -->
<g id="edge40" class="edge"><title>Node16&#45;&gt;Node25</title>
<path fill="none" stroke="midnightblue" d="M638.505,-336.083C638.111,-329.006 637.548,-318.861 637.055,-309.986"/>
<polygon fill="midnightblue" stroke="midnightblue" points="640.536,-309.542 636.486,-299.751 633.546,-309.93 640.536,-309.542"/>
</g>
<!-- Node26 -->
<g id="node26" class="node"><title>Node26</title>
<g id="a_node26"><a xlink:href="../../d5/dd5/Light_8hpp.html" target="_top" xlink:title="Light.hpp">
<polygon fill="none" stroke="black" points="527,-280.5 527,-299.5 583,-299.5 583,-280.5 527,-280.5"/>
<text text-anchor="middle" x="555" y="-287.5" font-family="Helvetica,sans-Serif" font-size="10.00">Light.hpp</text>
</a>
</g>
</g>
<!-- Node16&#45;&gt;Node26 -->
<g id="edge44" class="edge"><title>Node16&#45;&gt;Node26</title>
<path fill="none" stroke="midnightblue" d="M625.504,-336.324C612.4,-327.9 592.288,-314.971 576.893,-305.074"/>
<polygon fill="midnightblue" stroke="midnightblue" points="578.767,-302.118 568.463,-299.655 574.982,-308.006 578.767,-302.118"/>
</g>
<!-- Node18&#45;&gt;Node2 -->
<g id="edge39" class="edge"><title>Node18&#45;&gt;Node2</title>
<path fill="none" stroke="midnightblue" d="M590.86,-228.219C522.402,-220.777 388.297,-205.451 275,-188 271.977,-187.534 268.855,-187.026 265.718,-186.495"/>
<polygon fill="midnightblue" stroke="midnightblue" points="266.207,-183.027 255.753,-184.748 264.998,-189.922 266.207,-183.027"/>
</g>
<!-- Node18&#45;&gt;Node4 -->
<g id="edge22" class="edge"><title>Node18&#45;&gt;Node4</title>
<path fill="none" stroke="midnightblue" d="M672.144,-224.496C715.187,-212.213 785.129,-184.93 816,-132 842.355,-86.8137 753.574,-73.0117 701.01,-68.8166"/>
<polygon fill="midnightblue" stroke="midnightblue" points="701.25,-65.3249 691.025,-68.0992 700.748,-72.3069 701.25,-65.3249"/>
</g>
<!-- Node18&#45;&gt;Node5 -->
<g id="edge21" class="edge"><title>Node18&#45;&gt;Node5</title>
<path fill="none" stroke="midnightblue" d="M595.461,-224.445C564.144,-217.026 520.186,-204.824 484,-188 442.977,-168.928 431.518,-163.452 399,-132 384.447,-117.924 371.49,-98.6801 363.066,-84.7881"/>
<polygon fill="midnightblue" stroke="midnightblue" points="365.854,-82.6233 357.775,-75.7688 359.816,-86.1652 365.854,-82.6233"/>
</g>
<!-- Node18&#45;&gt;Node15 -->
<g id="edge23" class="edge"><title>Node18&#45;&gt;Node15</title>
<path fill="none" stroke="midnightblue" d="M647.389,-224.312C658.872,-215.446 676.996,-201.157 692,-188 710.477,-171.799 730.725,-152.187 744.28,-138.771"/>
<polygon fill="midnightblue" stroke="midnightblue" points="746.805,-141.196 751.423,-131.66 741.867,-136.235 746.805,-141.196"/>
</g>
<!-- Node19 -->
<g id="node19" class="node"><title>Node19</title>
<g id="a_node19"><a xlink:href="../../da/d83/Transform_8hpp.html" target="_top" xlink:title="Transform.hpp">
<polygon fill="none" stroke="black" points="284,-168.5 284,-187.5 364,-187.5 364,-168.5 284,-168.5"/>
<text text-anchor="middle" x="324" y="-175.5" font-family="Helvetica,sans-Serif" font-size="10.00">Transform.hpp</text>
</a>
</g>
</g>
<!-- Node18&#45;&gt;Node19 -->
<g id="edge24" class="edge"><title>Node18&#45;&gt;Node19</title>
<path fill="none" stroke="midnightblue" d="M590.966,-225.206C533.377,-215.238 433.957,-198.031 374.053,-187.663"/>
<polygon fill="midnightblue" stroke="midnightblue" points="374.519,-184.192 364.068,-185.935 373.325,-191.089 374.519,-184.192"/>
</g>
<!-- Node20 -->
<g id="node20" class="node"><title>Node20</title>
<g id="a_node20"><a xlink:href="../../d1/dca/IRenderer_8hpp.html" target="_top" xlink:title="IRenderer.hpp">
<polygon fill="none" stroke="black" points="605,-168.5 605,-187.5 683,-187.5 683,-168.5 605,-168.5"/>
<text text-anchor="middle" x="644" y="-175.5" font-family="Helvetica,sans-Serif" font-size="10.00">IRenderer.hpp</text>
</a>
</g>
</g>
<!-- Node18&#45;&gt;Node20 -->
<g id="edge26" class="edge"><title>Node18&#45;&gt;Node20</title>
<path fill="none" stroke="midnightblue" d="M637.321,-224.083C638.381,-216.927 639.906,-206.635 641.231,-197.691"/>
<polygon fill="midnightblue" stroke="midnightblue" points="644.7,-198.156 642.704,-187.751 637.776,-197.13 644.7,-198.156"/>
</g>
<!-- Node21 -->
<g id="node21" class="node"><title>Node21</title>
<g id="a_node21"><a xlink:href="../../d0/d70/Material_8hpp.html" target="_top" xlink:title="Material.hpp">
<polygon fill="none" stroke="black" points="493,-168.5 493,-187.5 563,-187.5 563,-168.5 493,-168.5"/>
<text text-anchor="middle" x="528" y="-175.5" font-family="Helvetica,sans-Serif" font-size="10.00">Material.hpp</text>
</a>
</g>
</g>
<!-- Node18&#45;&gt;Node21 -->
<g id="edge30" class="edge"><title>Node18&#45;&gt;Node21</title>
<path fill="none" stroke="midnightblue" d="M618.648,-224.324C601.328,-215.664 574.485,-202.242 554.498,-192.249"/>
<polygon fill="midnightblue" stroke="midnightblue" points="555.819,-188.996 545.309,-187.655 552.688,-195.257 555.819,-188.996"/>
</g>
<!-- Node19&#45;&gt;Node5 -->
<g id="edge25" class="edge"><title>Node19&#45;&gt;Node5</title>
<path fill="none" stroke="midnightblue" d="M326.276,-168.368C330.977,-150.537 341.849,-109.295 348.183,-85.2717"/>
<polygon fill="midnightblue" stroke="midnightblue" points="351.57,-86.1533 350.735,-75.5914 344.801,-84.3688 351.57,-86.1533"/>
</g>
<!-- Node20&#45;&gt;Node4 -->
<g id="edge28" class="edge"><title>Node20&#45;&gt;Node4</title>
<path fill="none" stroke="midnightblue" d="M647.9,-168.237C651.684,-159.311 657.245,-144.977 660,-132 663.272,-116.587 664.464,-98.7142 664.871,-85.6158"/>
<polygon fill="midnightblue" stroke="midnightblue" points="668.372,-85.579 665.058,-75.5157 661.373,-85.4489 668.372,-85.579"/>
</g>
<!-- Node20&#45;&gt;Node5 -->
<g id="edge27" class="edge"><title>Node20&#45;&gt;Node5</title>
<path fill="none" stroke="midnightblue" d="M634.335,-168.414C618.093,-154.446 583.775,-126.872 550,-112 500.422,-90.1692 438.979,-78.302 398.022,-72.3214"/>
<polygon fill="midnightblue" stroke="midnightblue" points="398.46,-68.8486 388.071,-70.9252 397.487,-75.7807 398.46,-68.8486"/>
</g>
<!-- Node20&#45;&gt;Node15 -->
<g id="edge29" class="edge"><title>Node20&#45;&gt;Node15</title>
<path fill="none" stroke="midnightblue" d="M662.381,-168.444C681.216,-159.675 710.731,-145.935 732.379,-135.858"/>
<polygon fill="midnightblue" stroke="midnightblue" points="734.117,-138.91 741.705,-131.516 731.162,-132.564 734.117,-138.91"/>
</g>
<!-- Node21&#45;&gt;Node4 -->
<g id="edge32" class="edge"><title>Node21&#45;&gt;Node4</title>
<path fill="none" stroke="midnightblue" d="M555.371,-168.368C575.444,-161.041 602.487,-148.991 622,-132 637.109,-118.844 649.125,-99.163 656.571,-84.9053"/>
<polygon fill="midnightblue" stroke="midnightblue" points="659.853,-86.1663 661.165,-75.653 653.583,-83.0534 659.853,-86.1663"/>
</g>
<!-- Node21&#45;&gt;Node5 -->
<g id="edge31" class="edge"><title>Node21&#45;&gt;Node5</title>
<path fill="none" stroke="midnightblue" d="M504.243,-168.386C483.568,-160.389 453.205,-147.415 429,-132 406.512,-117.678 383.656,-97.1497 368.966,-83.0142"/>
<polygon fill="midnightblue" stroke="midnightblue" points="371.293,-80.394 361.699,-75.8988 366.395,-85.3958 371.293,-80.394"/>
</g>
<!-- Node22 -->
<g id="node22" class="node"><title>Node22</title>
<g id="a_node22"><a xlink:href="../../dc/ddb/ShaderProgram_8hpp.html" target="_top" xlink:title="ShaderProgram.hpp">
<polygon fill="none" stroke="black" points="438.5,-112.5 438.5,-131.5 541.5,-131.5 541.5,-112.5 438.5,-112.5"/>
<text text-anchor="middle" x="490" y="-119.5" font-family="Helvetica,sans-Serif" font-size="10.00">ShaderProgram.hpp</text>
</a>
</g>
</g>
<!-- Node21&#45;&gt;Node22 -->
<g id="edge33" class="edge"><title>Node21&#45;&gt;Node22</title>
<path fill="none" stroke="midnightblue" d="M521.725,-168.083C516.358,-160.455 508.482,-149.264 501.921,-139.941"/>
<polygon fill="midnightblue" stroke="midnightblue" points="504.775,-137.915 496.158,-131.751 499.051,-141.943 504.775,-137.915"/>
</g>
<!-- Node22&#45;&gt;Node3 -->
<g id="edge35" class="edge"><title>Node22&#45;&gt;Node3</title>
<path fill="none" stroke="midnightblue" d="M438.453,-114.161C353.204,-102.85 185.299,-80.5729 115.07,-71.255"/>
<polygon fill="midnightblue" stroke="midnightblue" points="115.425,-67.7715 105.051,-69.9257 114.504,-74.7107 115.425,-67.7715"/>
</g>
<!-- Node22&#45;&gt;Node4 -->
<g id="edge36" class="edge"><title>Node22&#45;&gt;Node4</title>
<path fill="none" stroke="midnightblue" d="M517.729,-112.444C547.862,-103.145 596.111,-88.2572 629.114,-78.0735"/>
<polygon fill="midnightblue" stroke="midnightblue" points="630.306,-81.3685 638.83,-75.0755 628.242,-74.6797 630.306,-81.3685"/>
</g>
<!-- Node22&#45;&gt;Node5 -->
<g id="edge34" class="edge"><title>Node22&#45;&gt;Node5</title>
<path fill="none" stroke="midnightblue" d="M468.292,-112.444C445.645,-103.517 409.928,-89.4387 384.248,-79.3168"/>
<polygon fill="midnightblue" stroke="midnightblue" points="385.193,-75.9273 374.606,-75.5164 382.626,-82.4397 385.193,-75.9273"/>
</g>
<!-- Node23 -->
<g id="node23" class="node"><title>Node23</title>
<g id="a_node23"><a xlink:href="../../d4/d6e/Shader_8hpp.html" target="_top" xlink:title="Shader.hpp">
<polygon fill="none" stroke="black" points="457,-56.5 457,-75.5 523,-75.5 523,-56.5 457,-56.5"/>
<text text-anchor="middle" x="490" y="-63.5" font-family="Helvetica,sans-Serif" font-size="10.00">Shader.hpp</text>
</a>
</g>
</g>
<!-- Node22&#45;&gt;Node23 -->
<g id="edge37" class="edge"><title>Node22&#45;&gt;Node23</title>
<path fill="none" stroke="midnightblue" d="M490,-112.083C490,-105.006 490,-94.8611 490,-85.9865"/>
<polygon fill="midnightblue" stroke="midnightblue" points="493.5,-85.751 490,-75.7511 486.5,-85.7511 493.5,-85.751"/>
</g>
<!-- Node24 -->
<g id="node24" class="node"><title>Node24</title>
<polygon fill="none" stroke="#bfbfbf" points="469.5,-0.5 469.5,-19.5 510.5,-19.5 510.5,-0.5 469.5,-0.5"/>
<text text-anchor="middle" x="490" y="-7.5" font-family="Helvetica,sans-Serif" font-size="10.00">string</text>
</g>
<!-- Node23&#45;&gt;Node24 -->
<g id="edge38" class="edge"><title>Node23&#45;&gt;Node24</title>
<path fill="none" stroke="midnightblue" d="M490,-56.083C490,-49.0059 490,-38.8611 490,-29.9865"/>
<polygon fill="midnightblue" stroke="midnightblue" points="493.5,-29.751 490,-19.7511 486.5,-29.7511 493.5,-29.751"/>
</g>
<!-- Node25&#45;&gt;Node5 -->
<g id="edge41" class="edge"><title>Node25&#45;&gt;Node5</title>
<path fill="none" stroke="midnightblue" d="M600.689,-281.586C496.053,-259.548 194.43,-195.506 187,-188 162.943,-163.697 153.991,-138.981 175,-112 191.192,-91.2052 260.739,-78.4987 307.953,-72.108"/>
<polygon fill="midnightblue" stroke="midnightblue" points="308.493,-75.5674 317.956,-70.8026 307.587,-68.6262 308.493,-75.5674"/>
</g>
<!-- Node25&#45;&gt;Node18 -->
<g id="edge43" class="edge"><title>Node25&#45;&gt;Node18</title>
<path fill="none" stroke="midnightblue" d="M636,-280.083C636,-273.006 636,-262.861 636,-253.986"/>
<polygon fill="midnightblue" stroke="midnightblue" points="639.5,-253.751 636,-243.751 632.5,-253.751 639.5,-253.751"/>
</g>
<!-- Node25&#45;&gt;Node19 -->
<g id="edge42" class="edge"><title>Node25&#45;&gt;Node19</title>
<path fill="none" stroke="midnightblue" d="M611.778,-280.46C556.6,-261.006 421.444,-213.355 357.971,-190.977"/>
<polygon fill="midnightblue" stroke="midnightblue" points="359.017,-187.635 348.422,-187.61 356.689,-194.236 359.017,-187.635"/>
</g>
<!-- Node28 -->
<g id="node28" class="node"><title>Node28</title>
<g id="a_node28"><a xlink:href="../../d5/da5/tools_8h.html" target="_top" xlink:title="tools.h">
<polygon fill="none" stroke="black" points="260,-336.5 260,-355.5 306,-355.5 306,-336.5 260,-336.5"/>
<text text-anchor="middle" x="283" y="-343.5" font-family="Helvetica,sans-Serif" font-size="10.00">tools.h</text>
</a>
</g>
</g>
<!-- Node27&#45;&gt;Node28 -->
<g id="edge46" class="edge"><title>Node27&#45;&gt;Node28</title>
<path fill="none" stroke="midnightblue" d="M511.371,-397.937C504.423,-395.891 496.961,-393.784 490,-392 429.043,-376.378 357.097,-361.536 316.084,-353.41"/>
<polygon fill="midnightblue" stroke="midnightblue" points="316.592,-349.943 306.104,-351.444 315.239,-356.811 316.592,-349.943"/>
</g>
<!-- Node29 -->
<g id="node29" class="node"><title>Node29</title>
<polygon fill="none" stroke="#bfbfbf" points="412,-280.5 412,-299.5 462,-299.5 462,-280.5 412,-280.5"/>
<text text-anchor="middle" x="437" y="-287.5" font-family="Helvetica,sans-Serif" font-size="10.00">QString</text>
</g>
<!-- Node28&#45;&gt;Node29 -->
<g id="edge47" class="edge"><title>Node28&#45;&gt;Node29</title>
<path fill="none" stroke="midnightblue" d="M306.055,-336.916C331.762,-327.902 373.589,-313.235 403.04,-302.908"/>
<polygon fill="midnightblue" stroke="midnightblue" points="404.234,-306.198 412.512,-299.587 401.918,-299.593 404.234,-306.198"/>
</g>
<!-- Node30 -->
<g id="node30" class="node"><title>Node30</title>
<polygon fill="none" stroke="#bfbfbf" points="34.5,-280.5 34.5,-299.5 99.5,-299.5 99.5,-280.5 34.5,-280.5"/>
<text text-anchor="middle" x="67" y="-287.5" font-family="Helvetica,sans-Serif" font-size="10.00">QVector3D</text>
</g>
<!-- Node28&#45;&gt;Node30 -->
<g id="edge48" class="edge"><title>Node28&#45;&gt;Node30</title>
<path fill="none" stroke="midnightblue" d="M259.884,-339.221C224.067,-330.267 154.599,-312.9 109.541,-301.635"/>
<polygon fill="midnightblue" stroke="midnightblue" points="110.312,-298.22 99.7617,-299.19 108.614,-305.011 110.312,-298.22"/>
</g>
<!-- Node31 -->
<g id="node31" class="node"><title>Node31</title>
<polygon fill="none" stroke="#bfbfbf" points="118,-280.5 118,-299.5 158,-299.5 158,-280.5 118,-280.5"/>
<text text-anchor="middle" x="138" y="-287.5" font-family="Helvetica,sans-Serif" font-size="10.00">QList</text>
</g>
<!-- Node28&#45;&gt;Node31 -->
<g id="edge49" class="edge"><title>Node28&#45;&gt;Node31</title>
<path fill="none" stroke="midnightblue" d="M260.024,-336.444C234.99,-327.12 194.864,-312.177 167.513,-301.991"/>
<polygon fill="midnightblue" stroke="midnightblue" points="168.659,-298.683 158.066,-298.473 166.216,-305.243 168.659,-298.683"/>
</g>
<!-- Node32 -->
<g id="node32" class="node"><title>Node32</title>
<polygon fill="none" stroke="#bfbfbf" points="176.5,-280.5 176.5,-299.5 219.5,-299.5 219.5,-280.5 176.5,-280.5"/>
<text text-anchor="middle" x="198" y="-287.5" font-family="Helvetica,sans-Serif" font-size="10.00">QMap</text>
</g>
<!-- Node28&#45;&gt;Node32 -->
<g id="edge50" class="edge"><title>Node28&#45;&gt;Node32</title>
<path fill="none" stroke="midnightblue" d="M269.343,-336.324C256.084,-327.9 235.732,-314.971 220.154,-305.074"/>
<polygon fill="midnightblue" stroke="midnightblue" points="221.94,-302.063 211.623,-299.655 218.187,-307.971 221.94,-302.063"/>
</g>
<!-- Node33 -->
<g id="node33" class="node"><title>Node33</title>
<polygon fill="none" stroke="#bfbfbf" points="237.5,-280.5 237.5,-299.5 328.5,-299.5 328.5,-280.5 237.5,-280.5"/>
<text text-anchor="middle" x="283" y="-287.5" font-family="Helvetica,sans-Serif" font-size="10.00">QGraphicsScene</text>
</g>
<!-- Node28&#45;&gt;Node33 -->
<g id="edge51" class="edge"><title>Node28&#45;&gt;Node33</title>
<path fill="none" stroke="midnightblue" d="M283,-336.083C283,-329.006 283,-318.861 283,-309.986"/>
<polygon fill="midnightblue" stroke="midnightblue" points="286.5,-309.751 283,-299.751 279.5,-309.751 286.5,-309.751"/>
</g>
<!-- Node34 -->
<g id="node34" class="node"><title>Node34</title>
<polygon fill="none" stroke="#bfbfbf" points="346.5,-280.5 346.5,-299.5 393.5,-299.5 393.5,-280.5 346.5,-280.5"/>
<text text-anchor="middle" x="370" y="-287.5" font-family="Helvetica,sans-Serif" font-size="10.00">math.h</text>
</g>
<!-- Node28&#45;&gt;Node34 -->
<g id="edge52" class="edge"><title>Node28&#45;&gt;Node34</title>
<path fill="none" stroke="midnightblue" d="M296.978,-336.324C310.55,-327.9 331.38,-314.971 347.325,-305.074"/>
<polygon fill="midnightblue" stroke="midnightblue" points="349.406,-307.902 356.057,-299.655 345.714,-301.954 349.406,-307.902"/>
</g>
</g>
</svg>
