<?xml version="1.0" encoding="UTF-8" standalone="no"?>
<!DOCTYPE svg PUBLIC "-//W3C//DTD SVG 1.1//EN"
 "http://www.w3.org/Graphics/SVG/1.1/DTD/svg11.dtd">
<!-- Generated by graphviz version 2.38.0 (20140413.2041)
 -->
<!-- Title: engine/Light/Light.hpp Pages: 1 -->
<svg width="182pt" height="140pt"
 viewBox="0.00 0.00 181.50 140.00" xmlns="http://www.w3.org/2000/svg" xmlns:xlink="http://www.w3.org/1999/xlink">
<g id="graph0" class="graph" transform="scale(1 1) rotate(0) translate(4 136)">
<title>engine/Light/Light.hpp</title>
<!-- Node1 -->
<g id="node1" class="node"><title>Node1</title>
<polygon fill="#bfbfbf" stroke="black" points="0,-112.5 0,-131.5 112,-131.5 112,-112.5 0,-112.5"/>
<text text-anchor="middle" x="56" y="-119.5" font-family="Helvetica,sans-Serif" font-size="10.00">engine/Light/Light.hpp</text>
</g>
<!-- Node2 -->
<g id="node2" class="node"><title>Node2</title>
<polygon fill="none" stroke="#bfbfbf" points="45.5,-0.5 45.5,-19.5 86.5,-19.5 86.5,-0.5 45.5,-0.5"/>
<text text-anchor="middle" x="66" y="-7.5" font-family="Helvetica,sans-Serif" font-size="10.00">string</text>
</g>
<!-- Node1&#45;&gt;Node2 -->
<g id="edge1" class="edge"><title>Node1&#45;&gt;Node2</title>
<path fill="none" stroke="midnightblue" d="M41.6854,-112.42C23.8996,-100.58 -2.86065,-78.1725 8,-56 14.5225,-42.6839 27.0959,-32.177 38.8731,-24.6761"/>
<polygon fill="midnightblue" stroke="midnightblue" points="40.7706,-27.6205 47.6106,-19.5294 37.2178,-21.5891 40.7706,-27.6205"/>
</g>
<!-- Node3 -->
<g id="node3" class="node"><title>Node3</title>
<polygon fill="none" stroke="#bfbfbf" points="17.5,-56.5 17.5,-75.5 94.5,-75.5 94.5,-56.5 17.5,-56.5"/>
<text text-anchor="middle" x="56" y="-63.5" font-family="Helvetica,sans-Serif" font-size="10.00">assimp/light.h</text>
</g>
<!-- Node1&#45;&gt;Node3 -->
<g id="edge2" class="edge"><title>Node1&#45;&gt;Node3</title>
<path fill="none" stroke="midnightblue" d="M56,-112.083C56,-105.006 56,-94.8611 56,-85.9865"/>
<polygon fill="midnightblue" stroke="midnightblue" points="59.5001,-85.751 56,-75.7511 52.5001,-85.7511 59.5001,-85.751"/>
</g>
<!-- Node4 -->
<g id="node4" class="node"><title>Node4</title>
<g id="a_node4"><a xlink:href="../../de/da6/Entity_8hpp.html" target="_top" xlink:title="Entity.hpp">
<polygon fill="none" stroke="black" points="112.5,-56.5 112.5,-75.5 173.5,-75.5 173.5,-56.5 112.5,-56.5"/>
<text text-anchor="middle" x="143" y="-63.5" font-family="Helvetica,sans-Serif" font-size="10.00">Entity.hpp</text>
</a>
</g>
</g>
<!-- Node1&#45;&gt;Node4 -->
<g id="edge3" class="edge"><title>Node1&#45;&gt;Node4</title>
<path fill="none" stroke="midnightblue" d="M69.9781,-112.324C83.5496,-103.9 104.38,-90.9709 120.325,-81.0741"/>
<polygon fill="midnightblue" stroke="midnightblue" points="122.406,-83.9019 129.057,-75.6545 118.714,-77.9544 122.406,-83.9019"/>
</g>
<!-- Node4&#45;&gt;Node2 -->
<g id="edge4" class="edge"><title>Node4&#45;&gt;Node2</title>
<path fill="none" stroke="midnightblue" d="M130.629,-56.324C118.842,-48.0577 100.868,-35.4527 86.8645,-25.6322"/>
<polygon fill="midnightblue" stroke="midnightblue" points="88.5376,-22.5307 78.3407,-19.6545 84.5184,-28.2619 88.5376,-22.5307"/>
</g>
</g>
</svg>
