<?xml version="1.0" encoding="UTF-8" standalone="no"?>
<!DOCTYPE svg PUBLIC "-//W3C//DTD SVG 1.1//EN"
 "http://www.w3.org/Graphics/SVG/1.1/DTD/svg11.dtd">
<!-- Generated by graphviz version 2.38.0 (20140413.2041)
 -->
<!-- Title: engine/Camera/Camera.cpp Pages: 1 -->
<svg width="380pt" height="196pt"
 viewBox="0.00 0.00 379.50 196.00" xmlns="http://www.w3.org/2000/svg" xmlns:xlink="http://www.w3.org/1999/xlink">
<g id="graph0" class="graph" transform="scale(1 1) rotate(0) translate(4 192)">
<title>engine/Camera/Camera.cpp</title>
<!-- Node1 -->
<g id="node1" class="node"><title>Node1</title>
<polygon fill="#bfbfbf" stroke="black" points="64.5,-168.5 64.5,-187.5 203.5,-187.5 203.5,-168.5 64.5,-168.5"/>
<text text-anchor="middle" x="134" y="-175.5" font-family="Helvetica,sans-Serif" font-size="10.00">engine/Camera/Camera.cpp</text>
</g>
<!-- Node2 -->
<g id="node2" class="node"><title>Node2</title>
<polygon fill="none" stroke="#bfbfbf" points="0,-112.5 0,-131.5 144,-131.5 144,-112.5 0,-112.5"/>
<text text-anchor="middle" x="72" y="-119.5" font-family="Helvetica,sans-Serif" font-size="10.00">glm/gtc/matrix_transform.hpp</text>
</g>
<!-- Node1&#45;&gt;Node2 -->
<g id="edge1" class="edge"><title>Node1&#45;&gt;Node2</title>
<path fill="none" stroke="midnightblue" d="M124.039,-168.324C114.873,-160.341 101.063,-148.313 89.9718,-138.653"/>
<polygon fill="midnightblue" stroke="midnightblue" points="91.9822,-135.762 82.1426,-131.834 87.3847,-141.041 91.9822,-135.762"/>
</g>
<!-- Node3 -->
<g id="node3" class="node"><title>Node3</title>
<g id="a_node3"><a xlink:href="../../d6/d80/Camera_8hpp.html" target="_top" xlink:title="Camera.hpp">
<polygon fill="none" stroke="black" points="162,-112.5 162,-131.5 232,-131.5 232,-112.5 162,-112.5"/>
<text text-anchor="middle" x="197" y="-119.5" font-family="Helvetica,sans-Serif" font-size="10.00">Camera.hpp</text>
</a>
</g>
</g>
<!-- Node1&#45;&gt;Node3 -->
<g id="edge2" class="edge"><title>Node1&#45;&gt;Node3</title>
<path fill="none" stroke="midnightblue" d="M144.122,-168.324C153.526,-160.263 167.744,-148.077 179.069,-138.369"/>
<polygon fill="midnightblue" stroke="midnightblue" points="181.379,-140.999 186.694,-131.834 176.823,-135.684 181.379,-140.999"/>
</g>
<!-- Node4 -->
<g id="node4" class="node"><title>Node4</title>
<polygon fill="none" stroke="#bfbfbf" points="191.5,-0.5 191.5,-19.5 232.5,-19.5 232.5,-0.5 191.5,-0.5"/>
<text text-anchor="middle" x="212" y="-7.5" font-family="Helvetica,sans-Serif" font-size="10.00">string</text>
</g>
<!-- Node3&#45;&gt;Node4 -->
<g id="edge3" class="edge"><title>Node3&#45;&gt;Node4</title>
<path fill="none" stroke="midnightblue" d="M162.603,-112.421C128.84,-102.231 84.8511,-83.1274 103,-56 120.31,-30.1272 155.51,-19.1137 181.242,-14.4355"/>
<polygon fill="midnightblue" stroke="midnightblue" points="181.941,-17.8684 191.267,-12.8404 180.841,-10.9553 181.941,-17.8684"/>
</g>
<!-- Node5 -->
<g id="node5" class="node"><title>Node5</title>
<polygon fill="none" stroke="#bfbfbf" points="112,-56.5 112,-75.5 182,-75.5 182,-56.5 112,-56.5"/>
<text text-anchor="middle" x="147" y="-63.5" font-family="Helvetica,sans-Serif" font-size="10.00">glm/glm.hpp</text>
</g>
<!-- Node3&#45;&gt;Node5 -->
<g id="edge4" class="edge"><title>Node3&#45;&gt;Node5</title>
<path fill="none" stroke="midnightblue" d="M188.744,-112.083C181.535,-104.298 170.89,-92.8015 162.154,-83.3665"/>
<polygon fill="midnightblue" stroke="midnightblue" points="164.465,-80.7108 155.103,-75.7511 159.329,-85.4666 164.465,-80.7108"/>
</g>
<!-- Node6 -->
<g id="node6" class="node"><title>Node6</title>
<polygon fill="none" stroke="#bfbfbf" points="200,-56.5 200,-75.5 292,-75.5 292,-56.5 200,-56.5"/>
<text text-anchor="middle" x="246" y="-63.5" font-family="Helvetica,sans-Serif" font-size="10.00">assimp/camera.h</text>
</g>
<!-- Node3&#45;&gt;Node6 -->
<g id="edge5" class="edge"><title>Node3&#45;&gt;Node6</title>
<path fill="none" stroke="midnightblue" d="M205.091,-112.083C212.155,-104.298 222.588,-92.8015 231.149,-83.3665"/>
<polygon fill="midnightblue" stroke="midnightblue" points="233.931,-85.5087 238.059,-75.7511 228.747,-80.8047 233.931,-85.5087"/>
</g>
<!-- Node7 -->
<g id="node7" class="node"><title>Node7</title>
<g id="a_node7"><a xlink:href="../../de/da6/Entity_8hpp.html" target="_top" xlink:title="Entity.hpp">
<polygon fill="none" stroke="black" points="310.5,-56.5 310.5,-75.5 371.5,-75.5 371.5,-56.5 310.5,-56.5"/>
<text text-anchor="middle" x="341" y="-63.5" font-family="Helvetica,sans-Serif" font-size="10.00">Entity.hpp</text>
</a>
</g>
</g>
<!-- Node3&#45;&gt;Node7 -->
<g id="edge6" class="edge"><title>Node3&#45;&gt;Node7</title>
<path fill="none" stroke="midnightblue" d="M219.817,-112.444C243.832,-103.438 281.829,-89.1891 308.869,-79.049"/>
<polygon fill="midnightblue" stroke="midnightblue" points="310.155,-82.3049 318.29,-75.5164 307.697,-75.7506 310.155,-82.3049"/>
</g>
<!-- Node7&#45;&gt;Node4 -->
<g id="edge7" class="edge"><title>Node7&#45;&gt;Node4</title>
<path fill="none" stroke="midnightblue" d="M320.56,-56.4435C299.33,-47.5566 265.901,-33.5632 241.745,-23.4514"/>
<polygon fill="midnightblue" stroke="midnightblue" points="242.921,-20.1493 232.345,-19.5164 240.218,-26.6064 242.921,-20.1493"/>
</g>
</g>
</svg>
