<?xml version="1.0" encoding="UTF-8" standalone="no"?>
<!DOCTYPE svg PUBLIC "-//W3C//DTD SVG 1.1//EN"
 "http://www.w3.org/Graphics/SVG/1.1/DTD/svg11.dtd">
<!-- Generated by graphviz version 2.38.0 (20140413.2041)
 -->
<!-- Title: Core/Camera.cpp Pages: 1 -->
<svg width="486pt" height="84pt"
 viewBox="0.00 0.00 486.00 84.00" xmlns="http://www.w3.org/2000/svg" xmlns:xlink="http://www.w3.org/1999/xlink">
<g id="graph0" class="graph" transform="scale(1 1) rotate(0) translate(4 80)">
<title>Core/Camera.cpp</title>
<!-- Node1 -->
<g id="node1" class="node"><title>Node1</title>
<polygon fill="#bfbfbf" stroke="black" points="179,-56.5 179,-75.5 273,-75.5 273,-56.5 179,-56.5"/>
<text text-anchor="middle" x="226" y="-63.5" font-family="Helvetica,sans-Serif" font-size="10.00">Core/Camera.cpp</text>
</g>
<!-- Node2 -->
<g id="node2" class="node"><title>Node2</title>
<polygon fill="none" stroke="#bfbfbf" points="0,-0.5 0,-19.5 144,-19.5 144,-0.5 0,-0.5"/>
<text text-anchor="middle" x="72" y="-7.5" font-family="Helvetica,sans-Serif" font-size="10.00">glm/gtc/matrix_transform.hpp</text>
</g>
<!-- Node1&#45;&gt;Node2 -->
<g id="edge1" class="edge"><title>Node1&#45;&gt;Node2</title>
<path fill="none" stroke="midnightblue" d="M201.598,-56.4435C175.803,-47.3986 134.923,-33.064 105.982,-22.9158"/>
<polygon fill="midnightblue" stroke="midnightblue" points="106.882,-19.5226 96.2876,-19.5164 104.566,-26.1283 106.882,-19.5226"/>
</g>
<!-- Node3 -->
<g id="node3" class="node"><title>Node3</title>
<polygon fill="none" stroke="#bfbfbf" points="162.5,-0.5 162.5,-19.5 289.5,-19.5 289.5,-0.5 162.5,-0.5"/>
<text text-anchor="middle" x="226" y="-7.5" font-family="Helvetica,sans-Serif" font-size="10.00">Engine/Core/Camera.hpp</text>
</g>
<!-- Node1&#45;&gt;Node3 -->
<g id="edge2" class="edge"><title>Node1&#45;&gt;Node3</title>
<path fill="none" stroke="midnightblue" d="M226,-56.083C226,-49.0059 226,-38.8611 226,-29.9865"/>
<polygon fill="midnightblue" stroke="midnightblue" points="229.5,-29.751 226,-19.7511 222.5,-29.7511 229.5,-29.751"/>
</g>
<!-- Node4 -->
<g id="node4" class="node"><title>Node4</title>
<polygon fill="none" stroke="#bfbfbf" points="308,-0.5 308,-19.5 478,-19.5 478,-0.5 308,-0.5"/>
<text text-anchor="middle" x="393" y="-7.5" font-family="Helvetica,sans-Serif" font-size="10.00">Engine/Core/SceneGraphNode.hpp</text>
</g>
<!-- Node1&#45;&gt;Node4 -->
<g id="edge3" class="edge"><title>Node1&#45;&gt;Node4</title>
<path fill="none" stroke="midnightblue" d="M252.462,-56.4435C280.678,-47.3196 325.54,-32.8133 356.968,-22.6509"/>
<polygon fill="midnightblue" stroke="midnightblue" points="358.224,-25.9234 366.662,-19.5164 356.07,-19.263 358.224,-25.9234"/>
</g>
</g>
</svg>
