<?xml version="1.0" encoding="UTF-8" standalone="no"?>
<!DOCTYPE svg PUBLIC "-//W3C//DTD SVG 1.1//EN"
 "http://www.w3.org/Graphics/SVG/1.1/DTD/svg11.dtd">
<!-- Generated by graphviz version 2.38.0 (20140413.2041)
 -->
<!-- Title: engine/Camera/Camera.cpp Pages: 1 -->
<!--zoomable 543 -->
<svg id="main" version="1.1" xmlns="http://www.w3.org/2000/svg" xmlns:xlink="http://www.w3.org/1999/xlink" xml:space="preserve" onload="init(evt)">
<style type="text/css"><![CDATA[
.edge:hover path { stroke: red; }
.edge:hover polygon { stroke: red; fill: red; }
]]></style>
<script type="text/javascript"><![CDATA[
var edges = document.getElementsByTagName('g');
if (edges && edges.length) {
  for (var i=0;i<edges.length;i++) {
    if (edges[i].id.substr(0,4)=='edge') {
      edges[i].setAttribute('class','edge');
    }
  }
}
]]></script>
        <defs>
                <circle id="rim" cx="0" cy="0" r="7"/>
                <circle id="rim2" cx="0" cy="0" r="3.5"/>
                <g id="zoomPlus">
                        <use xlink:href="#rim" fill="#404040">
                                <set attributeName="fill" to="#808080" begin="zoomplus.mouseover" end="zoomplus.mouseout"/>
                        </use>
                        <path d="M-4,0h8M0,-4v8" fill="none" stroke="white" stroke-width="1.5" pointer-events="none"/>
                </g>
                <g id="zoomMin">
                        <use xlink:href="#rim" fill="#404040">
                                <set attributeName="fill" to="#808080" begin="zoomminus.mouseover" end="zoomminus.mouseout"/>
                        </use>
                        <path d="M-4,0h8" fill="none" stroke="white" stroke-width="1.5" pointer-events="none"/>
                </g>
                <g id="dirArrow">
                        <path fill="none" stroke="white" stroke-width="1.5" d="M0,-3.0v7 M-2.5,-0.5L0,-3.0L2.5,-0.5"/>
                </g>
               <g id="resetDef">
                       <use xlink:href="#rim2" fill="#404040">
                               <set attributeName="fill" to="#808080" begin="reset.mouseover" end="reset.mouseout"/>
                       </use>
               </g>
        </defs>

<script type="text/javascript">
var viewWidth = 1454;
var viewHeight = 543;
var sectionId = 'dynsection-0';
</script>
<script xlink:href="../../svgpan.js"/>
<svg id="graph" class="graph">
<g id="viewport">
<title>engine/Camera/Camera.cpp</title>
<!-- Node1 -->
<g id="node1" class="node"><title>Node1</title>
<polygon fill="#bfbfbf" stroke="black" points="491.183,-515.5 491.183,-534.5 630.183,-534.5 630.183,-515.5 491.183,-515.5"/>
<text text-anchor="middle" x="560.683" y="-522.5" font-family="Helvetica,sans-Serif" font-size="10.00">engine/Camera/Camera.cpp</text>
</g>
<!-- Node2 -->
<g id="node2" class="node"><title>Node2</title>
<g id="a_node2"><a xlink:href="../../d6/d80/Camera_8hpp.html" target="_top" xlink:title="Camera.hpp">
<polygon fill="none" stroke="black" points="384.683,-280.5 384.683,-299.5 454.683,-299.5 454.683,-280.5 384.683,-280.5"/>
<text text-anchor="middle" x="419.683" y="-287.5" font-family="Helvetica,sans-Serif" font-size="10.00">Camera.hpp</text>
</a>
</g>
</g>
<!-- Node1&#45;&gt;Node2 -->
<g id="edge1" class="edge"><title>Node1&#45;&gt;Node2</title>
<path fill="none" stroke="midnightblue" d="M539.829,-515.455C522.477,-507.67 497.778,-494.965 479.683,-479 456.553,-458.592 450.339,-451.56 438.683,-423 423.138,-384.907 420.019,-336.095 419.566,-309.8"/>
<polygon fill="midnightblue" stroke="midnightblue" points="423.065,-309.693 419.508,-299.713 416.065,-309.733 423.065,-309.693"/>
</g>
<!-- Node17 -->
<g id="node17" class="node"><title>Node17</title>
<polygon fill="none" stroke="#bfbfbf" points="488.683,-459.5 488.683,-478.5 632.683,-478.5 632.683,-459.5 488.683,-459.5"/>
<text text-anchor="middle" x="560.683" y="-466.5" font-family="Helvetica,sans-Serif" font-size="10.00">glm/gtc/matrix_transform.hpp</text>
</g>
<!-- Node1&#45;&gt;Node17 -->
<g id="edge31" class="edge"><title>Node1&#45;&gt;Node17</title>
<path fill="none" stroke="midnightblue" d="M560.683,-515.083C560.683,-508.006 560.683,-497.861 560.683,-488.986"/>
<polygon fill="midnightblue" stroke="midnightblue" points="564.184,-488.751 560.683,-478.751 557.184,-488.751 564.184,-488.751"/>
</g>
<!-- Node18 -->
<g id="node18" class="node"><title>Node18</title>
<g id="a_node18"><a xlink:href="../../d1/d2a/glwindow_8h.html" target="_top" xlink:title="glwindow.h">
<polygon fill="none" stroke="black" points="730.183,-459.5 730.183,-478.5 795.183,-478.5 795.183,-459.5 730.183,-459.5"/>
<text text-anchor="middle" x="762.683" y="-466.5" font-family="Helvetica,sans-Serif" font-size="10.00">glwindow.h</text>
</a>
</g>
</g>
<!-- Node1&#45;&gt;Node18 -->
<g id="edge32" class="edge"><title>Node1&#45;&gt;Node18</title>
<path fill="none" stroke="midnightblue" d="M592.691,-515.444C627.412,-506.162 682.971,-491.309 721.06,-481.127"/>
<polygon fill="midnightblue" stroke="midnightblue" points="722.069,-484.48 730.826,-478.516 720.261,-477.718 722.069,-484.48"/>
</g>
<!-- Node3 -->
<g id="node3" class="node"><title>Node3</title>
<polygon fill="none" stroke="#bfbfbf" points="170.683,-56.5 170.683,-75.5 240.683,-75.5 240.683,-56.5 170.683,-56.5"/>
<text text-anchor="middle" x="205.683" y="-63.5" font-family="Helvetica,sans-Serif" font-size="10.00">glm/glm.hpp</text>
</g>
<!-- Node2&#45;&gt;Node3 -->
<g id="edge2" class="edge"><title>Node2&#45;&gt;Node3</title>
<path fill="none" stroke="midnightblue" d="M384.398,-285.884C293.475,-277.041 55.1269,-248.417 9.68345,-188 -35.2229,-128.298 89.7833,-91.2948 160.633,-75.6547"/>
<polygon fill="midnightblue" stroke="midnightblue" points="161.623,-79.022 170.666,-73.502 160.154,-72.1777 161.623,-79.022"/>
</g>
<!-- Node4 -->
<g id="node4" class="node"><title>Node4</title>
<g id="a_node4"><a xlink:href="../../da/d83/Transform_8hpp.html" target="_top" xlink:title="Transform.hpp">
<polygon fill="none" stroke="black" points="18.6835,-168.5 18.6835,-187.5 98.6835,-187.5 98.6835,-168.5 18.6835,-168.5"/>
<text text-anchor="middle" x="58.6835" y="-175.5" font-family="Helvetica,sans-Serif" font-size="10.00">Transform.hpp</text>
</a>
</g>
</g>
<!-- Node2&#45;&gt;Node4 -->
<g id="edge3" class="edge"><title>Node2&#45;&gt;Node4</title>
<path fill="none" stroke="midnightblue" d="M391.657,-280.46C327.42,-260.886 169.497,-212.766 96.6387,-190.565"/>
<polygon fill="midnightblue" stroke="midnightblue" points="97.5271,-187.177 86.9412,-187.61 95.4867,-193.873 97.5271,-187.177"/>
</g>
<!-- Node5 -->
<g id="node5" class="node"><title>Node5</title>
<g id="a_node5"><a xlink:href="../../d4/db5/GameObject_8hpp.html" target="_top" xlink:title="GameObject.hpp">
<polygon fill="none" stroke="black" points="478.683,-224.5 478.683,-243.5 568.683,-243.5 568.683,-224.5 478.683,-224.5"/>
<text text-anchor="middle" x="523.683" y="-231.5" font-family="Helvetica,sans-Serif" font-size="10.00">GameObject.hpp</text>
</a>
</g>
</g>
<!-- Node2&#45;&gt;Node5 -->
<g id="edge5" class="edge"><title>Node2&#45;&gt;Node5</title>
<path fill="none" stroke="midnightblue" d="M436.393,-280.324C452.995,-271.703 478.686,-258.364 497.904,-248.386"/>
<polygon fill="midnightblue" stroke="midnightblue" points="499.753,-251.369 507.016,-243.655 496.528,-245.156 499.753,-251.369"/>
</g>
<!-- Node4&#45;&gt;Node3 -->
<g id="edge4" class="edge"><title>Node4&#45;&gt;Node3</title>
<path fill="none" stroke="midnightblue" d="M57.2272,-168.283C55.4688,-154.623 54.2342,-128.079 67.6835,-112 90.3444,-84.9088 129.556,-73.9933 160.404,-69.662"/>
<polygon fill="midnightblue" stroke="midnightblue" points="161.005,-73.1147 170.509,-68.4317 160.159,-66.1661 161.005,-73.1147"/>
</g>
<!-- Node5&#45;&gt;Node3 -->
<g id="edge6" class="edge"><title>Node5&#45;&gt;Node3</title>
<path fill="none" stroke="midnightblue" d="M478.528,-228.549C384.089,-218.175 171.094,-188.841 130.683,-132 115.389,-110.488 145.254,-91.4463 171.709,-79.6216"/>
<polygon fill="midnightblue" stroke="midnightblue" points="173.366,-82.721 181.211,-75.6005 170.638,-76.2745 173.366,-82.721"/>
</g>
<!-- Node5&#45;&gt;Node4 -->
<g id="edge9" class="edge"><title>Node5&#45;&gt;Node4</title>
<path fill="none" stroke="midnightblue" d="M478.577,-228.896C402.821,-221.817 245.298,-206.296 112.683,-188 111.412,-187.825 110.125,-187.643 108.827,-187.455"/>
<polygon fill="midnightblue" stroke="midnightblue" points="109.16,-183.966 98.7498,-185.935 108.115,-190.888 109.16,-183.966"/>
</g>
<!-- Node6 -->
<g id="node6" class="node"><title>Node6</title>
<polygon fill="none" stroke="#bfbfbf" points="634.683,-56.5 634.683,-75.5 686.683,-75.5 686.683,-56.5 634.683,-56.5"/>
<text text-anchor="middle" x="660.683" y="-63.5" font-family="Helvetica,sans-Serif" font-size="10.00">memory</text>
</g>
<!-- Node5&#45;&gt;Node6 -->
<g id="edge7" class="edge"><title>Node5&#45;&gt;Node6</title>
<path fill="none" stroke="midnightblue" d="M538.224,-224.347C562.929,-208.908 613.097,-174.237 640.683,-132 649.864,-117.945 655.016,-99.4505 657.783,-85.7844"/>
<polygon fill="midnightblue" stroke="midnightblue" points="661.281,-86.1016 659.582,-75.6439 654.389,-84.8787 661.281,-86.1016"/>
</g>
<!-- Node7 -->
<g id="node7" class="node"><title>Node7</title>
<g id="a_node7"><a xlink:href="../../de/df7/worldparticles_8hpp.html" target="_top" xlink:title="wordparticles configuration file ">
<polygon fill="none" stroke="black" points="746.183,-112.5 746.183,-131.5 841.183,-131.5 841.183,-112.5 746.183,-112.5"/>
<text text-anchor="middle" x="793.683" y="-119.5" font-family="Helvetica,sans-Serif" font-size="10.00">worldparticles.hpp</text>
</a>
</g>
</g>
<!-- Node5&#45;&gt;Node7 -->
<g id="edge8" class="edge"><title>Node5&#45;&gt;Node7</title>
<path fill="none" stroke="midnightblue" d="M568.693,-230.141C631.448,-225.283 740.901,-213.365 770.683,-188 784.191,-176.496 789.767,-156.524 792.069,-141.746"/>
<polygon fill="midnightblue" stroke="midnightblue" points="795.56,-142.028 793.267,-131.684 788.609,-141.2 795.56,-142.028"/>
</g>
<!-- Node8 -->
<g id="node8" class="node"><title>Node8</title>
<g id="a_node8"><a xlink:href="../../d1/dca/IRenderer_8hpp.html" target="_top" xlink:title="IRenderer.hpp">
<polygon fill="none" stroke="black" points="683.683,-168.5 683.683,-187.5 761.683,-187.5 761.683,-168.5 683.683,-168.5"/>
<text text-anchor="middle" x="722.683" y="-175.5" font-family="Helvetica,sans-Serif" font-size="10.00">IRenderer.hpp</text>
</a>
</g>
</g>
<!-- Node5&#45;&gt;Node8 -->
<g id="edge10" class="edge"><title>Node5&#45;&gt;Node8</title>
<path fill="none" stroke="midnightblue" d="M555.216,-224.444C589.276,-215.201 643.689,-200.436 681.199,-190.257"/>
<polygon fill="midnightblue" stroke="midnightblue" points="682.564,-193.513 691.299,-187.516 680.731,-186.758 682.564,-193.513"/>
</g>
<!-- Node9 -->
<g id="node9" class="node"><title>Node9</title>
<g id="a_node9"><a xlink:href="../../d0/d70/Material_8hpp.html" target="_top" xlink:title="Material.hpp">
<polygon fill="none" stroke="black" points="488.683,-168.5 488.683,-187.5 558.683,-187.5 558.683,-168.5 488.683,-168.5"/>
<text text-anchor="middle" x="523.683" y="-175.5" font-family="Helvetica,sans-Serif" font-size="10.00">Material.hpp</text>
</a>
</g>
</g>
<!-- Node5&#45;&gt;Node9 -->
<g id="edge14" class="edge"><title>Node5&#45;&gt;Node9</title>
<path fill="none" stroke="midnightblue" d="M523.683,-224.083C523.683,-217.006 523.683,-206.861 523.683,-197.986"/>
<polygon fill="midnightblue" stroke="midnightblue" points="527.184,-197.751 523.683,-187.751 520.184,-197.751 527.184,-197.751"/>
</g>
<!-- Node14 -->
<g id="node14" class="node"><title>Node14</title>
<g id="a_node14"><a xlink:href="../../d1/d62/Mesh_8hpp.html" target="_top" xlink:title="Mesh.hpp">
<polygon fill="none" stroke="black" points="301.183,-168.5 301.183,-187.5 360.183,-187.5 360.183,-168.5 301.183,-168.5"/>
<text text-anchor="middle" x="330.683" y="-175.5" font-family="Helvetica,sans-Serif" font-size="10.00">Mesh.hpp</text>
</a>
</g>
</g>
<!-- Node5&#45;&gt;Node14 -->
<g id="edge23" class="edge"><title>Node5&#45;&gt;Node14</title>
<path fill="none" stroke="midnightblue" d="M493.102,-224.444C459.875,-215.147 406.674,-200.262 370.277,-190.078"/>
<polygon fill="midnightblue" stroke="midnightblue" points="371.061,-186.663 360.488,-187.339 369.175,-193.404 371.061,-186.663"/>
</g>
<!-- Node8&#45;&gt;Node3 -->
<g id="edge11" class="edge"><title>Node8&#45;&gt;Node3</title>
<path fill="none" stroke="midnightblue" d="M683.25,-171.381C632.107,-163.819 540.259,-149.298 462.683,-132 429.85,-124.679 422.247,-120.441 389.683,-112 342.399,-99.7431 288.041,-86.5603 250.737,-77.6522"/>
<polygon fill="midnightblue" stroke="midnightblue" points="251.226,-74.1709 240.687,-75.2574 249.603,-80.9802 251.226,-74.1709"/>
</g>
<!-- Node8&#45;&gt;Node6 -->
<g id="edge12" class="edge"><title>Node8&#45;&gt;Node6</title>
<path fill="none" stroke="midnightblue" d="M719.487,-168.301C714.654,-155.555 704.855,-131.234 693.683,-112 687.966,-102.156 680.545,-91.869 674.189,-83.6188"/>
<polygon fill="midnightblue" stroke="midnightblue" points="676.786,-81.2603 667.84,-75.5835 671.293,-85.5999 676.786,-81.2603"/>
</g>
<!-- Node8&#45;&gt;Node7 -->
<g id="edge13" class="edge"><title>Node8&#45;&gt;Node7</title>
<path fill="none" stroke="midnightblue" d="M734.091,-168.324C744.792,-160.185 761.024,-147.839 773.846,-138.087"/>
<polygon fill="midnightblue" stroke="midnightblue" points="776.228,-140.673 782.069,-131.834 771.99,-135.102 776.228,-140.673"/>
</g>
<!-- Node9&#45;&gt;Node3 -->
<g id="edge15" class="edge"><title>Node9&#45;&gt;Node3</title>
<path fill="none" stroke="midnightblue" d="M501.712,-168.43C468.68,-155.639 404.175,-131.023 348.683,-112 313.446,-99.9202 272.912,-87.2818 244.018,-78.4853"/>
<polygon fill="midnightblue" stroke="midnightblue" points="244.896,-75.0943 234.311,-75.5413 242.865,-81.793 244.896,-75.0943"/>
</g>
<!-- Node9&#45;&gt;Node6 -->
<g id="edge16" class="edge"><title>Node9&#45;&gt;Node6</title>
<path fill="none" stroke="midnightblue" d="M551.054,-168.368C571.127,-161.041 598.171,-148.991 617.683,-132 632.792,-118.844 644.808,-99.163 652.255,-84.9053"/>
<polygon fill="midnightblue" stroke="midnightblue" points="655.536,-86.1663 656.848,-75.653 649.266,-83.0534 655.536,-86.1663"/>
</g>
<!-- Node10 -->
<g id="node10" class="node"><title>Node10</title>
<g id="a_node10"><a xlink:href="../../dc/ddb/ShaderProgram_8hpp.html" target="_top" xlink:title="ShaderProgram.hpp">
<polygon fill="none" stroke="black" points="472.183,-112.5 472.183,-131.5 575.183,-131.5 575.183,-112.5 472.183,-112.5"/>
<text text-anchor="middle" x="523.683" y="-119.5" font-family="Helvetica,sans-Serif" font-size="10.00">ShaderProgram.hpp</text>
</a>
</g>
</g>
<!-- Node9&#45;&gt;Node10 -->
<g id="edge17" class="edge"><title>Node9&#45;&gt;Node10</title>
<path fill="none" stroke="midnightblue" d="M523.683,-168.083C523.683,-161.006 523.683,-150.861 523.683,-141.986"/>
<polygon fill="midnightblue" stroke="midnightblue" points="527.184,-141.751 523.683,-131.751 520.184,-141.751 527.184,-141.751"/>
</g>
<!-- Node10&#45;&gt;Node3 -->
<g id="edge18" class="edge"><title>Node10&#45;&gt;Node3</title>
<path fill="none" stroke="midnightblue" d="M473.295,-112.444C412.167,-102.063 310.012,-84.7161 251.177,-74.7253"/>
<polygon fill="midnightblue" stroke="midnightblue" points="251.511,-71.232 241.066,-73.0084 250.339,-78.1332 251.511,-71.232"/>
</g>
<!-- Node10&#45;&gt;Node6 -->
<g id="edge20" class="edge"><title>Node10&#45;&gt;Node6</title>
<path fill="none" stroke="midnightblue" d="M545.392,-112.444C568.038,-103.517 603.756,-89.4387 629.435,-79.3168"/>
<polygon fill="midnightblue" stroke="midnightblue" points="631.057,-82.4397 639.077,-75.5164 628.49,-75.9273 631.057,-82.4397"/>
</g>
<!-- Node11 -->
<g id="node11" class="node"><title>Node11</title>
<polygon fill="none" stroke="#bfbfbf" points="345.683,-56.5 345.683,-75.5 389.683,-75.5 389.683,-56.5 345.683,-56.5"/>
<text text-anchor="middle" x="367.683" y="-63.5" font-family="Helvetica,sans-Serif" font-size="10.00">vector</text>
</g>
<!-- Node10&#45;&gt;Node11 -->
<g id="edge19" class="edge"><title>Node10&#45;&gt;Node11</title>
<path fill="none" stroke="midnightblue" d="M498.965,-112.444C472.066,-103.133 428.975,-88.2163 399.552,-78.0315"/>
<polygon fill="midnightblue" stroke="midnightblue" points="400.359,-74.607 389.764,-74.6433 398.069,-81.222 400.359,-74.607"/>
</g>
<!-- Node12 -->
<g id="node12" class="node"><title>Node12</title>
<g id="a_node12"><a xlink:href="../../d4/d6e/Shader_8hpp.html" target="_top" xlink:title="Shader.hpp">
<polygon fill="none" stroke="black" points="490.683,-56.5 490.683,-75.5 556.683,-75.5 556.683,-56.5 490.683,-56.5"/>
<text text-anchor="middle" x="523.683" y="-63.5" font-family="Helvetica,sans-Serif" font-size="10.00">Shader.hpp</text>
</a>
</g>
</g>
<!-- Node10&#45;&gt;Node12 -->
<g id="edge21" class="edge"><title>Node10&#45;&gt;Node12</title>
<path fill="none" stroke="midnightblue" d="M523.683,-112.083C523.683,-105.006 523.683,-94.8611 523.683,-85.9865"/>
<polygon fill="midnightblue" stroke="midnightblue" points="527.184,-85.751 523.683,-75.7511 520.184,-85.7511 527.184,-85.751"/>
</g>
<!-- Node13 -->
<g id="node13" class="node"><title>Node13</title>
<polygon fill="none" stroke="#bfbfbf" points="503.183,-0.5 503.183,-19.5 544.183,-19.5 544.183,-0.5 503.183,-0.5"/>
<text text-anchor="middle" x="523.683" y="-7.5" font-family="Helvetica,sans-Serif" font-size="10.00">string</text>
</g>
<!-- Node12&#45;&gt;Node13 -->
<g id="edge22" class="edge"><title>Node12&#45;&gt;Node13</title>
<path fill="none" stroke="midnightblue" d="M523.683,-56.083C523.683,-49.0059 523.683,-38.8611 523.683,-29.9865"/>
<polygon fill="midnightblue" stroke="midnightblue" points="527.184,-29.751 523.683,-19.7511 520.184,-29.7511 527.184,-29.751"/>
</g>
<!-- Node14&#45;&gt;Node3 -->
<g id="edge26" class="edge"><title>Node14&#45;&gt;Node3</title>
<path fill="none" stroke="midnightblue" d="M301.082,-174.461C252.351,-169.6 158.622,-157.152 138.683,-132 122.972,-112.18 151.316,-92.369 175.84,-79.9219"/>
<polygon fill="midnightblue" stroke="midnightblue" points="177.466,-83.0237 184.953,-75.5272 174.425,-76.7187 177.466,-83.0237"/>
</g>
<!-- Node14&#45;&gt;Node6 -->
<g id="edge25" class="edge"><title>Node14&#45;&gt;Node6</title>
<path fill="none" stroke="midnightblue" d="M360.236,-176.65C409.041,-175.025 508.556,-167.236 583.683,-132 608.54,-120.342 631.859,-98.5493 646.183,-83.4295"/>
<polygon fill="midnightblue" stroke="midnightblue" points="648.982,-85.5556 653.168,-75.8227 643.827,-80.8208 648.982,-85.5556"/>
</g>
<!-- Node14&#45;&gt;Node11 -->
<g id="edge24" class="edge"><title>Node14&#45;&gt;Node11</title>
<path fill="none" stroke="midnightblue" d="M334.382,-168.466C338.208,-159.483 344.235,-144.885 348.683,-132 354.019,-116.546 359.165,-98.7011 362.752,-85.6234"/>
<polygon fill="midnightblue" stroke="midnightblue" points="366.145,-86.4827 365.369,-75.9164 359.386,-84.6606 366.145,-86.4827"/>
</g>
<!-- Node15 -->
<g id="node15" class="node"><title>Node15</title>
<polygon fill="none" stroke="#bfbfbf" points="148.183,-112.5 148.183,-131.5 231.183,-131.5 231.183,-112.5 148.183,-112.5"/>
<text text-anchor="middle" x="189.683" y="-119.5" font-family="Helvetica,sans-Serif" font-size="10.00">assimp/mesh.h</text>
</g>
<!-- Node14&#45;&gt;Node15 -->
<g id="edge27" class="edge"><title>Node14&#45;&gt;Node15</title>
<path fill="none" stroke="midnightblue" d="M308.342,-168.444C284.931,-159.478 247.948,-145.314 221.494,-135.183"/>
<polygon fill="midnightblue" stroke="midnightblue" points="222.511,-131.824 211.921,-131.516 220.008,-138.361 222.511,-131.824"/>
</g>
<!-- Node16 -->
<g id="node16" class="node"><title>Node16</title>
<g id="a_node16"><a xlink:href="../../da/d04/BufferObject_8hpp.html" target="_top" xlink:title="BufferObject.hpp">
<polygon fill="none" stroke="black" points="249.683,-112.5 249.683,-131.5 339.683,-131.5 339.683,-112.5 249.683,-112.5"/>
<text text-anchor="middle" x="294.683" y="-119.5" font-family="Helvetica,sans-Serif" font-size="10.00">BufferObject.hpp</text>
</a>
</g>
</g>
<!-- Node14&#45;&gt;Node16 -->
<g id="edge28" class="edge"><title>Node14&#45;&gt;Node16</title>
<path fill="none" stroke="midnightblue" d="M324.739,-168.083C319.706,-160.534 312.347,-149.495 306.17,-140.23"/>
<polygon fill="midnightblue" stroke="midnightblue" points="308.977,-138.13 300.518,-131.751 303.152,-142.013 308.977,-138.13"/>
</g>
<!-- Node16&#45;&gt;Node3 -->
<g id="edge30" class="edge"><title>Node16&#45;&gt;Node3</title>
<path fill="none" stroke="midnightblue" d="M280.384,-112.324C266.501,-103.9 245.191,-90.9709 228.88,-81.0741"/>
<polygon fill="midnightblue" stroke="midnightblue" points="230.312,-77.8495 219.947,-75.6545 226.681,-83.8341 230.312,-77.8495"/>
</g>
<!-- Node16&#45;&gt;Node11 -->
<g id="edge29" class="edge"><title>Node16&#45;&gt;Node11</title>
<path fill="none" stroke="midnightblue" d="M306.412,-112.324C317.521,-104.107 334.426,-91.6017 347.667,-81.8069"/>
<polygon fill="midnightblue" stroke="midnightblue" points="349.783,-84.5948 355.741,-75.8339 345.62,-78.9671 349.783,-84.5948"/>
</g>
<!-- Node19 -->
<g id="node19" class="node"><title>Node19</title>
<polygon fill="none" stroke="#bfbfbf" points="1050.18,-398 1050.18,-417 1109.18,-417 1109.18,-398 1050.18,-398"/>
<text text-anchor="middle" x="1079.68" y="-405" font-family="Helvetica,sans-Serif" font-size="10.00">QWindow</text>
</g>
<!-- Node18&#45;&gt;Node19 -->
<g id="edge33" class="edge"><title>Node18&#45;&gt;Node19</title>
<path fill="none" stroke="midnightblue" d="M795.217,-464.821C847.569,-459.241 953.468,-446.035 1040.68,-423 1043.5,-422.256 1046.39,-421.387 1049.28,-420.451"/>
<polygon fill="midnightblue" stroke="midnightblue" points="1050.59,-423.698 1058.88,-417.092 1048.28,-417.091 1050.59,-423.698"/>
</g>
<!-- Node20 -->
<g id="node20" class="node"><title>Node20</title>
<polygon fill="none" stroke="#bfbfbf" points="448.183,-398 448.183,-417 543.183,-417 543.183,-398 448.183,-398"/>
<text text-anchor="middle" x="495.683" y="-405" font-family="Helvetica,sans-Serif" font-size="10.00">QOpenGLContext</text>
</g>
<!-- Node18&#45;&gt;Node20 -->
<g id="edge34" class="edge"><title>Node18&#45;&gt;Node20</title>
<path fill="none" stroke="midnightblue" d="M730.054,-461.497C688.509,-453.112 614.567,-437.84 551.683,-423 547.041,-421.904 542.193,-420.716 537.376,-419.507"/>
<polygon fill="midnightblue" stroke="midnightblue" points="538.162,-416.096 527.607,-417.02 536.435,-422.879 538.162,-416.096"/>
</g>
<!-- Node21 -->
<g id="node21" class="node"><title>Node21</title>
<polygon fill="none" stroke="#bfbfbf" points="561.183,-392.5 561.183,-422.5 674.183,-422.5 674.183,-392.5 561.183,-392.5"/>
<text text-anchor="start" x="569.183" y="-410.5" font-family="Helvetica,sans-Serif" font-size="10.00">QOpenGLFunctions_4</text>
<text text-anchor="middle" x="617.683" y="-399.5" font-family="Helvetica,sans-Serif" font-size="10.00">_2_Core</text>
</g>
<!-- Node18&#45;&gt;Node21 -->
<g id="edge35" class="edge"><title>Node18&#45;&gt;Node21</title>
<path fill="none" stroke="midnightblue" d="M741.908,-459.475C720.986,-450.889 688.07,-437.383 661.376,-426.429"/>
<polygon fill="midnightblue" stroke="midnightblue" points="662.437,-423.081 651.857,-422.523 659.78,-429.557 662.437,-423.081"/>
</g>
<!-- Node22 -->
<g id="node22" class="node"><title>Node22</title>
<polygon fill="none" stroke="#bfbfbf" points="692.183,-398 692.183,-417 759.183,-417 759.183,-398 692.183,-398"/>
<text text-anchor="middle" x="725.683" y="-405" font-family="Helvetica,sans-Serif" font-size="10.00">QKeyEvent</text>
</g>
<!-- Node18&#45;&gt;Node22 -->
<g id="edge36" class="edge"><title>Node18&#45;&gt;Node22</title>
<path fill="none" stroke="midnightblue" d="M757.382,-459.475C751.942,-450.727 743.325,-436.869 736.447,-425.809"/>
<polygon fill="midnightblue" stroke="midnightblue" points="739.228,-423.653 730.975,-417.009 733.283,-427.349 739.228,-423.653"/>
</g>
<!-- Node23 -->
<g id="node23" class="node"><title>Node23</title>
<polygon fill="none" stroke="#bfbfbf" points="777.683,-398 777.683,-417 823.683,-417 823.683,-398 777.683,-398"/>
<text text-anchor="middle" x="800.683" y="-405" font-family="Helvetica,sans-Serif" font-size="10.00">QTime</text>
</g>
<!-- Node18&#45;&gt;Node23 -->
<g id="edge37" class="edge"><title>Node18&#45;&gt;Node23</title>
<path fill="none" stroke="midnightblue" d="M768.128,-459.475C773.772,-450.638 782.744,-436.589 789.842,-425.475"/>
<polygon fill="midnightblue" stroke="midnightblue" points="792.816,-427.321 795.249,-417.009 786.917,-423.553 792.816,-427.321"/>
</g>
<!-- Node24 -->
<g id="node24" class="node"><title>Node24</title>
<g id="a_node24"><a xlink:href="../../d4/d1c/GameEngine_8hpp.html" target="_top" xlink:title="GameEngine.hpp">
<polygon fill="none" stroke="black" points="841.683,-398 841.683,-417 933.683,-417 933.683,-398 841.683,-398"/>
<text text-anchor="middle" x="887.683" y="-405" font-family="Helvetica,sans-Serif" font-size="10.00">GameEngine.hpp</text>
</a>
</g>
</g>
<!-- Node18&#45;&gt;Node24 -->
<g id="edge38" class="edge"><title>Node18&#45;&gt;Node24</title>
<path fill="none" stroke="midnightblue" d="M780.593,-459.475C801.571,-449.49 836.533,-432.848 860.777,-421.307"/>
<polygon fill="midnightblue" stroke="midnightblue" points="862.282,-424.467 869.807,-417.009 859.274,-418.147 862.282,-424.467"/>
</g>
<!-- Node28 -->
<g id="node28" class="node"><title>Node28</title>
<g id="a_node28"><a xlink:href="../../dc/d51/model_8h.html" target="_top" xlink:title="model/model.h">
<polygon fill="none" stroke="black" points="951.683,-398 951.683,-417 1031.68,-417 1031.68,-398 951.683,-398"/>
<text text-anchor="middle" x="991.683" y="-405" font-family="Helvetica,sans-Serif" font-size="10.00">model/model.h</text>
</a>
</g>
</g>
<!-- Node18&#45;&gt;Node28 -->
<g id="edge46" class="edge"><title>Node18&#45;&gt;Node28</title>
<path fill="none" stroke="midnightblue" d="M795.31,-460.287C831.454,-451.639 891.408,-436.989 942.683,-423 946.275,-422.02 950.007,-420.972 953.735,-419.904"/>
<polygon fill="midnightblue" stroke="midnightblue" points="954.874,-423.217 963.499,-417.064 952.919,-416.496 954.874,-423.217"/>
</g>
<!-- Node24&#45;&gt;Node7 -->
<g id="edge39" class="edge"><title>Node24&#45;&gt;Node7</title>
<path fill="none" stroke="midnightblue" d="M878.938,-397.976C869.694,-388.513 855.288,-372.401 846.683,-356 832.701,-329.348 827.683,-321.098 827.683,-291 827.683,-291 827.683,-291 827.683,-233 827.683,-199.16 812.814,-161.97 802.742,-140.661"/>
<polygon fill="midnightblue" stroke="midnightblue" points="805.821,-138.991 798.269,-131.56 799.539,-142.079 805.821,-138.991"/>
</g>
<!-- Node25 -->
<g id="node25" class="node"><title>Node25</title>
<g id="a_node25"><a xlink:href="../../db/de8/Scene_8hpp.html" target="_top" xlink:title="Scene.hpp">
<polygon fill="none" stroke="black" points="856.183,-336.5 856.183,-355.5 919.183,-355.5 919.183,-336.5 856.183,-336.5"/>
<text text-anchor="middle" x="887.683" y="-343.5" font-family="Helvetica,sans-Serif" font-size="10.00">Scene.hpp</text>
</a>
</g>
</g>
<!-- Node24&#45;&gt;Node25 -->
<g id="edge40" class="edge"><title>Node24&#45;&gt;Node25</title>
<path fill="none" stroke="midnightblue" d="M887.683,-397.975C887.683,-389.58 887.683,-376.481 887.683,-365.663"/>
<polygon fill="midnightblue" stroke="midnightblue" points="891.184,-365.509 887.683,-355.509 884.184,-365.509 891.184,-365.509"/>
</g>
<!-- Node25&#45;&gt;Node2 -->
<g id="edge44" class="edge"><title>Node25&#45;&gt;Node2</title>
<path fill="none" stroke="midnightblue" d="M855.884,-341.331C774.681,-331.961 559.446,-307.126 465.089,-296.239"/>
<polygon fill="midnightblue" stroke="midnightblue" points="465.336,-292.744 455.001,-295.075 464.534,-299.698 465.336,-292.744"/>
</g>
<!-- Node25&#45;&gt;Node5 -->
<g id="edge43" class="edge"><title>Node25&#45;&gt;Node5</title>
<path fill="none" stroke="midnightblue" d="M859.424,-336.46C794.573,-316.862 635.026,-268.647 561.683,-246.483"/>
<polygon fill="midnightblue" stroke="midnightblue" points="562.51,-243.077 551.925,-243.535 560.485,-249.778 562.51,-243.077"/>
</g>
<!-- Node25&#45;&gt;Node6 -->
<g id="edge41" class="edge"><title>Node25&#45;&gt;Node6</title>
<path fill="none" stroke="midnightblue" d="M885.256,-336.24C880.343,-317.711 869.683,-273.122 869.683,-235 869.683,-235 869.683,-235 869.683,-177 869.683,-146.775 871.737,-132.67 849.683,-112 827.845,-91.5316 745.448,-77.8154 696.956,-71.3268"/>
<polygon fill="midnightblue" stroke="midnightblue" points="697.234,-67.8336 686.867,-70.0154 696.332,-74.7752 697.234,-67.8336"/>
</g>
<!-- Node26 -->
<g id="node26" class="node"><title>Node26</title>
<polygon fill="none" stroke="#bfbfbf" points="898.183,-280.5 898.183,-299.5 927.183,-299.5 927.183,-280.5 898.183,-280.5"/>
<text text-anchor="middle" x="912.683" y="-287.5" font-family="Helvetica,sans-Serif" font-size="10.00">list</text>
</g>
<!-- Node25&#45;&gt;Node26 -->
<g id="edge42" class="edge"><title>Node25&#45;&gt;Node26</title>
<path fill="none" stroke="midnightblue" d="M891.812,-336.083C895.197,-328.77 900.099,-318.181 904.302,-309.103"/>
<polygon fill="midnightblue" stroke="midnightblue" points="907.607,-310.296 908.632,-299.751 901.255,-307.355 907.607,-310.296"/>
</g>
<!-- Node27 -->
<g id="node27" class="node"><title>Node27</title>
<g id="a_node27"><a xlink:href="../../d5/dd5/Light_8hpp.html" target="_top" xlink:title="Light.hpp">
<polygon fill="none" stroke="black" points="944.683,-280.5 944.683,-299.5 1000.68,-299.5 1000.68,-280.5 944.683,-280.5"/>
<text text-anchor="middle" x="972.683" y="-287.5" font-family="Helvetica,sans-Serif" font-size="10.00">Light.hpp</text>
</a>
</g>
</g>
<!-- Node25&#45;&gt;Node27 -->
<g id="edge45" class="edge"><title>Node25&#45;&gt;Node27</title>
<path fill="none" stroke="midnightblue" d="M901.34,-336.324C914.6,-327.9 934.951,-314.971 950.53,-305.074"/>
<polygon fill="midnightblue" stroke="midnightblue" points="952.497,-307.971 959.061,-299.655 948.743,-302.063 952.497,-307.971"/>
</g>
<!-- Node29 -->
<g id="node29" class="node"><title>Node29</title>
<g id="a_node29"><a xlink:href="../../d5/da5/tools_8h.html" target="_top" xlink:title="tools.h">
<polygon fill="none" stroke="black" points="1167.68,-336.5 1167.68,-355.5 1213.68,-355.5 1213.68,-336.5 1167.68,-336.5"/>
<text text-anchor="middle" x="1190.68" y="-343.5" font-family="Helvetica,sans-Serif" font-size="10.00">tools.h</text>
</a>
</g>
</g>
<!-- Node28&#45;&gt;Node29 -->
<g id="edge47" class="edge"><title>Node28&#45;&gt;Node29</title>
<path fill="none" stroke="midnightblue" d="M1020.2,-397.975C1056.6,-387.091 1119.46,-368.297 1157.83,-356.823"/>
<polygon fill="midnightblue" stroke="midnightblue" points="1158.92,-360.151 1167.5,-353.933 1156.91,-353.445 1158.92,-360.151"/>
</g>
<!-- Node30 -->
<g id="node30" class="node"><title>Node30</title>
<polygon fill="none" stroke="#bfbfbf" points="1018.68,-280.5 1018.68,-299.5 1068.68,-299.5 1068.68,-280.5 1018.68,-280.5"/>
<text text-anchor="middle" x="1043.68" y="-287.5" font-family="Helvetica,sans-Serif" font-size="10.00">QString</text>
</g>
<!-- Node29&#45;&gt;Node30 -->
<g id="edge48" class="edge"><title>Node29&#45;&gt;Node30</title>
<path fill="none" stroke="midnightblue" d="M1167.39,-336.444C1142.88,-327.438 1104.09,-313.189 1076.48,-303.049"/>
<polygon fill="midnightblue" stroke="midnightblue" points="1077.46,-299.679 1066.87,-299.516 1075.05,-306.25 1077.46,-299.679"/>
</g>
<!-- Node31 -->
<g id="node31" class="node"><title>Node31</title>
<polygon fill="none" stroke="#bfbfbf" points="1087.18,-280.5 1087.18,-299.5 1152.18,-299.5 1152.18,-280.5 1087.18,-280.5"/>
<text text-anchor="middle" x="1119.68" y="-287.5" font-family="Helvetica,sans-Serif" font-size="10.00">QVector3D</text>
</g>
<!-- Node29&#45;&gt;Node31 -->
<g id="edge49" class="edge"><title>Node29&#45;&gt;Node31</title>
<path fill="none" stroke="midnightblue" d="M1179.28,-336.324C1168.57,-328.185 1152.34,-315.839 1139.52,-306.087"/>
<polygon fill="midnightblue" stroke="midnightblue" points="1141.38,-303.102 1131.3,-299.834 1137.14,-308.673 1141.38,-303.102"/>
</g>
<!-- Node32 -->
<g id="node32" class="node"><title>Node32</title>
<polygon fill="none" stroke="#bfbfbf" points="1170.68,-280.5 1170.68,-299.5 1210.68,-299.5 1210.68,-280.5 1170.68,-280.5"/>
<text text-anchor="middle" x="1190.68" y="-287.5" font-family="Helvetica,sans-Serif" font-size="10.00">QList</text>
</g>
<!-- Node29&#45;&gt;Node32 -->
<g id="edge50" class="edge"><title>Node29&#45;&gt;Node32</title>
<path fill="none" stroke="midnightblue" d="M1190.68,-336.083C1190.68,-329.006 1190.68,-318.861 1190.68,-309.986"/>
<polygon fill="midnightblue" stroke="midnightblue" points="1194.18,-309.751 1190.68,-299.751 1187.18,-309.751 1194.18,-309.751"/>
</g>
<!-- Node33 -->
<g id="node33" class="node"><title>Node33</title>
<polygon fill="none" stroke="#bfbfbf" points="1229.18,-280.5 1229.18,-299.5 1272.18,-299.5 1272.18,-280.5 1229.18,-280.5"/>
<text text-anchor="middle" x="1250.68" y="-287.5" font-family="Helvetica,sans-Serif" font-size="10.00">QMap</text>
</g>
<!-- Node29&#45;&gt;Node33 -->
<g id="edge51" class="edge"><title>Node29&#45;&gt;Node33</title>
<path fill="none" stroke="midnightblue" d="M1200.32,-336.324C1209.19,-328.341 1222.56,-316.313 1233.29,-306.653"/>
<polygon fill="midnightblue" stroke="midnightblue" points="1235.78,-309.125 1240.87,-299.834 1231.09,-303.922 1235.78,-309.125"/>
</g>
<!-- Node34 -->
<g id="node34" class="node"><title>Node34</title>
<polygon fill="none" stroke="#bfbfbf" points="1290.18,-280.5 1290.18,-299.5 1381.18,-299.5 1381.18,-280.5 1290.18,-280.5"/>
<text text-anchor="middle" x="1335.68" y="-287.5" font-family="Helvetica,sans-Serif" font-size="10.00">QGraphicsScene</text>
</g>
<!-- Node29&#45;&gt;Node34 -->
<g id="edge52" class="edge"><title>Node29&#45;&gt;Node34</title>
<path fill="none" stroke="midnightblue" d="M1213.66,-336.444C1237.84,-327.438 1276.1,-313.189 1303.33,-303.049"/>
<polygon fill="midnightblue" stroke="midnightblue" points="1304.67,-306.286 1312.82,-299.516 1302.22,-299.727 1304.67,-306.286"/>
</g>
<!-- Node35 -->
<g id="node35" class="node"><title>Node35</title>
<polygon fill="none" stroke="#bfbfbf" points="1399.18,-280.5 1399.18,-299.5 1446.18,-299.5 1446.18,-280.5 1399.18,-280.5"/>
<text text-anchor="middle" x="1422.68" y="-287.5" font-family="Helvetica,sans-Serif" font-size="10.00">math.h</text>
</g>
<!-- Node29&#45;&gt;Node35 -->
<g id="edge53" class="edge"><title>Node29&#45;&gt;Node35</title>
<path fill="none" stroke="midnightblue" d="M1213.88,-340.198C1249.56,-332.72 1320.29,-317.546 1389.24,-300.275"/>
<polygon fill="midnightblue" stroke="midnightblue" points="1390.12,-303.664 1398.96,-297.824 1388.4,-296.877 1390.12,-303.664"/>
</g>
</g>
</svg>
        <g id="navigator" transform="translate(0 0)" fill="#404254">
                <rect fill="#f2f5e9" fill-opacity="0.5" stroke="#606060" stroke-width=".5" x="0" y="0" width="60" height="60"/>
                <use id="zoomplus" xlink:href="#zoomPlus" x="17" y="9" onmousedown="handleZoom(evt,'in')"/>
                <use id="zoomminus" xlink:href="#zoomMin" x="42" y="9" onmousedown="handleZoom(evt,'out')"/>
                <use id="reset" xlink:href="#resetDef" x="30" y="36" onmousedown="handleReset()"/>
                <g id="arrowUp" xlink:href="#dirArrow" transform="translate(30 24)" onmousedown="handlePan(0,-1)">
                  <use xlink:href="#rim" fill="#404040">
                        <set attributeName="fill" to="#808080" begin="arrowUp.mouseover" end="arrowUp.mouseout"/>
                  </use>
                  <path fill="none" stroke="white" stroke-width="1.5" d="M0,-3.0v7 M-2.5,-0.5L0,-3.0L2.5,-0.5"/>
                </g>
                <g id="arrowRight" xlink:href="#dirArrow" transform="rotate(90) translate(36 -43)" onmousedown="handlePan(1,0)">
                  <use xlink:href="#rim" fill="#404040">
                        <set attributeName="fill" to="#808080" begin="arrowRight.mouseover" end="arrowRight.mouseout"/>
                  </use>
                  <path fill="none" stroke="white" stroke-width="1.5" d="M0,-3.0v7 M-2.5,-0.5L0,-3.0L2.5,-0.5"/>
                </g>
                <g id="arrowDown" xlink:href="#dirArrow" transform="rotate(180) translate(-30 -48)" onmousedown="handlePan(0,1)">
                  <use xlink:href="#rim" fill="#404040">
                        <set attributeName="fill" to="#808080" begin="arrowDown.mouseover" end="arrowDown.mouseout"/>
                  </use>
                  <path fill="none" stroke="white" stroke-width="1.5" d="M0,-3.0v7 M-2.5,-0.5L0,-3.0L2.5,-0.5"/>
                </g>
                <g id="arrowLeft" xlink:href="#dirArrow" transform="rotate(270) translate(-36 17)" onmousedown="handlePan(-1,0)">
                  <use xlink:href="#rim" fill="#404040">
                        <set attributeName="fill" to="#808080" begin="arrowLeft.mouseover" end="arrowLeft.mouseout"/>
                  </use>
                  <path fill="none" stroke="white" stroke-width="1.5" d="M0,-3.0v7 M-2.5,-0.5L0,-3.0L2.5,-0.5"/>
                </g>
        </g>
        <svg viewBox="0 0 15 15" width="100%" height="30px" preserveAspectRatio="xMaxYMin meet">
         <g id="arrow_out" transform="scale(0.3 0.3)">
          <a xlink:href="Camera_8cpp__incl_org.svg" target="_base">
           <rect id="button" ry="5" rx="5" y="6" x="6" height="38" width="38"
                fill="#f2f5e9" fill-opacity="0.5" stroke="#606060" stroke-width="1.0"/>
           <path id="arrow"
             d="M 11.500037,31.436501 C 11.940474,20.09759 22.043105,11.32322 32.158766,21.979434 L 37.068811,17.246167 C 37.068811,17.246167 37.088388,32 37.088388,32 L 22.160133,31.978069 C 22.160133,31.978069 26.997745,27.140456 26.997745,27.140456 C 18.528582,18.264221 13.291696,25.230495 11.500037,31.436501 z"
             style="fill:#404040;"/>
          </a>
         </g>
        </svg>
</svg>
