<?xml version="1.0" encoding="UTF-8" standalone="no"?>
<!DOCTYPE svg PUBLIC "-//W3C//DTD SVG 1.1//EN"
 "http://www.w3.org/Graphics/SVG/1.1/DTD/svg11.dtd">
<!-- Generated by graphviz version 2.38.0 (20140413.2041)
 -->
<!-- Title: WorldParticles::Engine::Library&lt; T &gt; Pages: 1 -->
<svg width="124pt" height="248pt"
 viewBox="0.00 0.00 124.00 248.00" xmlns="http://www.w3.org/2000/svg" xmlns:xlink="http://www.w3.org/1999/xlink">
<g id="graph0" class="graph" transform="scale(1 1) rotate(0) translate(4 244)">
<title>WorldParticles::Engine::Library&lt; T &gt;</title>
<!-- Node1 -->
<g id="node1" class="node"><title>Node1</title>
<polygon fill="#bfbfbf" stroke="black" points="-7.10543e-15,-0.5 -7.10543e-15,-134.5 116,-134.5 116,-0.5 -7.10543e-15,-0.5"/>
<text text-anchor="start" x="8" y="-122.5" font-family="Helvetica,sans-Serif" font-size="10.00">WorldParticles::Engine</text>
<text text-anchor="middle" x="58" y="-111.5" font-family="Helvetica,sans-Serif" font-size="10.00">::Library&lt; T &gt;</text>
<polyline fill="none" stroke="black" points="-7.10543e-15,-104.5 116,-104.5 "/>
<text text-anchor="middle" x="58" y="-92.5" font-family="Helvetica,sans-Serif" font-size="10.00"> </text>
<polyline fill="none" stroke="black" points="-7.10543e-15,-85.5 116,-85.5 "/>
<text text-anchor="start" x="8" y="-73.5" font-family="Helvetica,sans-Serif" font-size="10.00">+ Library()</text>
<text text-anchor="start" x="8" y="-62.5" font-family="Helvetica,sans-Serif" font-size="10.00">+ Library()</text>
<text text-anchor="start" x="8" y="-51.5" font-family="Helvetica,sans-Serif" font-size="10.00">+ Library()</text>
<text text-anchor="start" x="8" y="-40.5" font-family="Helvetica,sans-Serif" font-size="10.00">+ ~Library()</text>
<text text-anchor="start" x="8" y="-29.5" font-family="Helvetica,sans-Serif" font-size="10.00">+ operator=()</text>
<text text-anchor="start" x="8" y="-18.5" font-family="Helvetica,sans-Serif" font-size="10.00">+ operator=()</text>
<text text-anchor="start" x="8" y="-7.5" font-family="Helvetica,sans-Serif" font-size="10.00">+ get()</text>
</g>
<!-- Node2 -->
<g id="node2" class="node"><title>Node2</title>
<polygon fill="none" stroke="#bfbfbf" points="24,-182.5 24,-239.5 92,-239.5 92,-182.5 24,-182.5"/>
<text text-anchor="middle" x="58" y="-227.5" font-family="Helvetica,sans-Serif" font-size="10.00">vector&lt; T &gt;</text>
<polyline fill="none" stroke="#bfbfbf" points="24,-220.5 92,-220.5 "/>
<text text-anchor="middle" x="58" y="-208.5" font-family="Helvetica,sans-Serif" font-size="10.00"> </text>
<polyline fill="none" stroke="#bfbfbf" points="24,-201.5 92,-201.5 "/>
<text text-anchor="middle" x="58" y="-189.5" font-family="Helvetica,sans-Serif" font-size="10.00"> </text>
</g>
<!-- Node2&#45;&gt;Node1 -->
<g id="edge1" class="edge"><title>Node2&#45;&gt;Node1</title>
<path fill="none" stroke="#404040" d="M58,-182.381C58,-172.02 58,-159.663 58,-146.97"/>
<polygon fill="none" stroke="#404040" points="58.0001,-146.753 54,-140.753 58,-134.753 62,-140.753 58.0001,-146.753"/>
<text text-anchor="middle" x="84" y="-156" font-family="Helvetica,sans-Serif" font-size="10.00"> #resources</text>
</g>
</g>
</svg>
