<?xml version="1.0" encoding="UTF-8" standalone="no"?>
<!DOCTYPE svg PUBLIC "-//W3C//DTD SVG 1.1//EN"
 "http://www.w3.org/Graphics/SVG/1.1/DTD/svg11.dtd">
<!-- Generated by graphviz version 2.38.0 (20140413.2041)
 -->
<!-- Title: WorldParticles::Engine::MaterialLibrary Pages: 1 -->
<svg width="129pt" height="497pt"
 viewBox="0.00 0.00 129.00 497.00" xmlns="http://www.w3.org/2000/svg" xmlns:xlink="http://www.w3.org/1999/xlink">
<g id="graph0" class="graph" transform="scale(1 1) rotate(0) translate(4 493)">
<title>WorldParticles::Engine::MaterialLibrary</title>
<!-- Node1 -->
<g id="node1" class="node"><title>Node1</title>
<polygon fill="#bfbfbf" stroke="black" points="-7.10543e-15,-0.5 -7.10543e-15,-134.5 116,-134.5 116,-0.5 -7.10543e-15,-0.5"/>
<text text-anchor="start" x="8" y="-122.5" font-family="Helvetica,sans-Serif" font-size="10.00">WorldParticles::Engine</text>
<text text-anchor="middle" x="58" y="-111.5" font-family="Helvetica,sans-Serif" font-size="10.00">::MaterialLibrary</text>
<polyline fill="none" stroke="black" points="-7.10543e-15,-104.5 116,-104.5 "/>
<text text-anchor="middle" x="58" y="-92.5" font-family="Helvetica,sans-Serif" font-size="10.00"> </text>
<polyline fill="none" stroke="black" points="-7.10543e-15,-85.5 116,-85.5 "/>
<text text-anchor="start" x="8" y="-73.5" font-family="Helvetica,sans-Serif" font-size="10.00">+ MaterialLibrary()</text>
<text text-anchor="start" x="8" y="-62.5" font-family="Helvetica,sans-Serif" font-size="10.00">+ MaterialLibrary()</text>
<text text-anchor="start" x="8" y="-51.5" font-family="Helvetica,sans-Serif" font-size="10.00">+ MaterialLibrary()</text>
<text text-anchor="start" x="8" y="-40.5" font-family="Helvetica,sans-Serif" font-size="10.00">+ MaterialLibrary()</text>
<text text-anchor="start" x="8" y="-29.5" font-family="Helvetica,sans-Serif" font-size="10.00">+ ~MaterialLibrary()</text>
<text text-anchor="start" x="8" y="-18.5" font-family="Helvetica,sans-Serif" font-size="10.00">+ operator=()</text>
<text text-anchor="start" x="8" y="-7.5" font-family="Helvetica,sans-Serif" font-size="10.00">+ operator=()</text>
</g>
<!-- Node2 -->
<g id="node2" class="node"><title>Node2</title>
<g id="a_node2"><a xlink:href="../../d6/da4/classWorldParticles_1_1Engine_1_1Library.html" target="_top" xlink:title="{WorldParticles::Engine\l::Library\&lt; Material * \&gt;\n|# resources\l|+ Library()\l+ Library()\l+ Library()\l+ ~Library()\l+ operator=()\l+ operator=()\l+ get()\l}">
<polygon fill="none" stroke="black" points="-7.10543e-15,-172.5 -7.10543e-15,-306.5 116,-306.5 116,-172.5 -7.10543e-15,-172.5"/>
<text text-anchor="start" x="8" y="-294.5" font-family="Helvetica,sans-Serif" font-size="10.00">WorldParticles::Engine</text>
<text text-anchor="middle" x="58" y="-283.5" font-family="Helvetica,sans-Serif" font-size="10.00">::Library&lt; Material * &gt;</text>
<polyline fill="none" stroke="black" points="-7.10543e-15,-276.5 116,-276.5 "/>
<text text-anchor="start" x="8" y="-264.5" font-family="Helvetica,sans-Serif" font-size="10.00"># resources</text>
<polyline fill="none" stroke="black" points="-7.10543e-15,-257.5 116,-257.5 "/>
<text text-anchor="start" x="8" y="-245.5" font-family="Helvetica,sans-Serif" font-size="10.00">+ Library()</text>
<text text-anchor="start" x="8" y="-234.5" font-family="Helvetica,sans-Serif" font-size="10.00">+ Library()</text>
<text text-anchor="start" x="8" y="-223.5" font-family="Helvetica,sans-Serif" font-size="10.00">+ Library()</text>
<text text-anchor="start" x="8" y="-212.5" font-family="Helvetica,sans-Serif" font-size="10.00">+ ~Library()</text>
<text text-anchor="start" x="8" y="-201.5" font-family="Helvetica,sans-Serif" font-size="10.00">+ operator=()</text>
<text text-anchor="start" x="8" y="-190.5" font-family="Helvetica,sans-Serif" font-size="10.00">+ operator=()</text>
<text text-anchor="start" x="8" y="-179.5" font-family="Helvetica,sans-Serif" font-size="10.00">+ get()</text>
</a>
</g>
</g>
<!-- Node2&#45;&gt;Node1 -->
<g id="edge1" class="edge"><title>Node2&#45;&gt;Node1</title>
<path fill="none" stroke="midnightblue" d="M58,-162.013C58,-152.842 58,-143.537 58,-134.533"/>
<polygon fill="none" stroke="midnightblue" points="54.5001,-162.287 58,-172.287 61.5001,-162.287 54.5001,-162.287"/>
</g>
<!-- Node3 -->
<g id="node3" class="node"><title>Node3</title>
<g id="a_node3"><a xlink:href="../../d6/da4/classWorldParticles_1_1Engine_1_1Library.html" target="_top" xlink:title="{WorldParticles::Engine\l::Library\&lt; T \&gt;\n|# resources\l|+ Library()\l+ Library()\l+ Library()\l+ ~Library()\l+ operator=()\l+ operator=()\l+ get()\l}">
<polygon fill="none" stroke="black" points="-7.10543e-15,-354.5 -7.10543e-15,-488.5 116,-488.5 116,-354.5 -7.10543e-15,-354.5"/>
<text text-anchor="start" x="8" y="-476.5" font-family="Helvetica,sans-Serif" font-size="10.00">WorldParticles::Engine</text>
<text text-anchor="middle" x="58" y="-465.5" font-family="Helvetica,sans-Serif" font-size="10.00">::Library&lt; T &gt;</text>
<polyline fill="none" stroke="black" points="-7.10543e-15,-458.5 116,-458.5 "/>
<text text-anchor="start" x="8" y="-446.5" font-family="Helvetica,sans-Serif" font-size="10.00"># resources</text>
<polyline fill="none" stroke="black" points="-7.10543e-15,-439.5 116,-439.5 "/>
<text text-anchor="start" x="8" y="-427.5" font-family="Helvetica,sans-Serif" font-size="10.00">+ Library()</text>
<text text-anchor="start" x="8" y="-416.5" font-family="Helvetica,sans-Serif" font-size="10.00">+ Library()</text>
<text text-anchor="start" x="8" y="-405.5" font-family="Helvetica,sans-Serif" font-size="10.00">+ Library()</text>
<text text-anchor="start" x="8" y="-394.5" font-family="Helvetica,sans-Serif" font-size="10.00">+ ~Library()</text>
<text text-anchor="start" x="8" y="-383.5" font-family="Helvetica,sans-Serif" font-size="10.00">+ operator=()</text>
<text text-anchor="start" x="8" y="-372.5" font-family="Helvetica,sans-Serif" font-size="10.00">+ operator=()</text>
<text text-anchor="start" x="8" y="-361.5" font-family="Helvetica,sans-Serif" font-size="10.00">+ get()</text>
</a>
</g>
</g>
<!-- Node3&#45;&gt;Node2 -->
<g id="edge2" class="edge"><title>Node3&#45;&gt;Node2</title>
<path fill="none" stroke="orange" d="M58,-344.164C58,-331.738 58,-318.957 58,-306.796"/>
<polygon fill="orange" stroke="orange" points="54.5001,-344.497 58,-354.497 61.5001,-344.497 54.5001,-344.497"/>
<text text-anchor="middle" x="89.5" y="-328" font-family="Helvetica,sans-Serif" font-size="10.00"> &lt; Material * &gt;</text>
</g>
</g>
</svg>
