<?xml version="1.0" encoding="UTF-8" standalone="no"?>
<!DOCTYPE svg PUBLIC "-//W3C//DTD SVG 1.1//EN"
 "http://www.w3.org/Graphics/SVG/1.1/DTD/svg11.dtd">
<!-- Generated by graphviz version 2.38.0 (20140413.2041)
 -->
<!-- Title: Core/PerspectiveCamera.cpp Pages: 1 -->
<svg width="1191pt" height="84pt"
 viewBox="0.00 0.00 1190.50 84.00" xmlns="http://www.w3.org/2000/svg" xmlns:xlink="http://www.w3.org/1999/xlink">
<g id="graph0" class="graph" transform="scale(1 1) rotate(0) translate(4 80)">
<title>Core/PerspectiveCamera.cpp</title>
<!-- Node1 -->
<g id="node1" class="node"><title>Node1</title>
<polygon fill="#bfbfbf" stroke="black" points="459.5,-56.5 459.5,-75.5 605.5,-75.5 605.5,-56.5 459.5,-56.5"/>
<text text-anchor="middle" x="532.5" y="-63.5" font-family="Helvetica,sans-Serif" font-size="10.00">Core/PerspectiveCamera.cpp</text>
</g>
<!-- Node2 -->
<g id="node2" class="node"><title>Node2</title>
<polygon fill="none" stroke="#bfbfbf" points="0,-0.5 0,-19.5 107,-19.5 107,-0.5 0,-0.5"/>
<text text-anchor="middle" x="53.5" y="-7.5" font-family="Helvetica,sans-Serif" font-size="10.00">log4cpp/Category.hh</text>
</g>
<!-- Node1&#45;&gt;Node2 -->
<g id="edge1" class="edge"><title>Node1&#45;&gt;Node2</title>
<path fill="none" stroke="midnightblue" d="M459.144,-57.8295C378.158,-49.7402 243.655,-35.7956 117.342,-20.0658"/>
<polygon fill="midnightblue" stroke="midnightblue" points="117.457,-16.5529 107.1,-18.784 116.587,-23.4987 117.457,-16.5529"/>
</g>
<!-- Node3 -->
<g id="node3" class="node"><title>Node3</title>
<polygon fill="none" stroke="#bfbfbf" points="125.5,-0.5 125.5,-19.5 195.5,-19.5 195.5,-0.5 125.5,-0.5"/>
<text text-anchor="middle" x="160.5" y="-7.5" font-family="Helvetica,sans-Serif" font-size="10.00">glm/glm.hpp</text>
</g>
<!-- Node1&#45;&gt;Node3 -->
<g id="edge2" class="edge"><title>Node1&#45;&gt;Node3</title>
<path fill="none" stroke="midnightblue" d="M460.308,-56.4734C395.986,-48.5612 299.079,-35.8695 205.452,-20.0686"/>
<polygon fill="midnightblue" stroke="midnightblue" points="205.971,-16.6068 195.526,-18.3795 204.797,-23.5076 205.971,-16.6068"/>
</g>
<!-- Node4 -->
<g id="node4" class="node"><title>Node4</title>
<polygon fill="none" stroke="#bfbfbf" points="213.5,-0.5 213.5,-19.5 357.5,-19.5 357.5,-0.5 213.5,-0.5"/>
<text text-anchor="middle" x="285.5" y="-7.5" font-family="Helvetica,sans-Serif" font-size="10.00">glm/gtc/matrix_transform.hpp</text>
</g>
<!-- Node1&#45;&gt;Node4 -->
<g id="edge3" class="edge"><title>Node1&#45;&gt;Node4</title>
<path fill="none" stroke="midnightblue" d="M493.362,-56.4435C450.274,-47.0234 380.941,-31.8656 334.329,-21.6752"/>
<polygon fill="midnightblue" stroke="midnightblue" points="334.972,-18.2331 324.455,-19.5164 333.476,-25.0715 334.972,-18.2331"/>
</g>
<!-- Node5 -->
<g id="node5" class="node"><title>Node5</title>
<polygon fill="none" stroke="#bfbfbf" points="376,-0.5 376,-19.5 513,-19.5 513,-0.5 376,-0.5"/>
<text text-anchor="middle" x="444.5" y="-7.5" font-family="Helvetica,sans-Serif" font-size="10.00">Engine/Core/Transform.hpp</text>
</g>
<!-- Node1&#45;&gt;Node5 -->
<g id="edge4" class="edge"><title>Node1&#45;&gt;Node5</title>
<path fill="none" stroke="midnightblue" d="M518.361,-56.324C504.634,-47.9002 483.564,-34.9709 467.436,-25.0741"/>
<polygon fill="midnightblue" stroke="midnightblue" points="468.957,-21.9016 458.604,-19.6545 465.296,-27.8678 468.957,-21.9016"/>
</g>
<!-- Node6 -->
<g id="node6" class="node"><title>Node6</title>
<polygon fill="none" stroke="#bfbfbf" points="531,-0.5 531,-19.5 710,-19.5 710,-0.5 531,-0.5"/>
<text text-anchor="middle" x="620.5" y="-7.5" font-family="Helvetica,sans-Serif" font-size="10.00">Engine/Core/PerspectiveCamera.hpp</text>
</g>
<!-- Node1&#45;&gt;Node6 -->
<g id="edge5" class="edge"><title>Node1&#45;&gt;Node6</title>
<path fill="none" stroke="midnightblue" d="M546.639,-56.324C560.366,-47.9002 581.436,-34.9709 597.564,-25.0741"/>
<polygon fill="midnightblue" stroke="midnightblue" points="599.704,-27.8678 606.396,-19.6545 596.043,-21.9016 599.704,-27.8678"/>
</g>
<!-- Node7 -->
<g id="node7" class="node"><title>Node7</title>
<polygon fill="none" stroke="#bfbfbf" points="728.5,-0.5 728.5,-19.5 848.5,-19.5 848.5,-0.5 728.5,-0.5"/>
<text text-anchor="middle" x="788.5" y="-7.5" font-family="Helvetica,sans-Serif" font-size="10.00">Engine/Core/Scene.hpp</text>
</g>
<!-- Node1&#45;&gt;Node7 -->
<g id="edge6" class="edge"><title>Node1&#45;&gt;Node7</title>
<path fill="none" stroke="midnightblue" d="M573.064,-56.4435C617.816,-47.0036 689.883,-31.802 738.195,-21.6111"/>
<polygon fill="midnightblue" stroke="midnightblue" points="739.064,-25.0051 748.126,-19.5164 737.619,-18.1558 739.064,-25.0051"/>
</g>
<!-- Node8 -->
<g id="node8" class="node"><title>Node8</title>
<polygon fill="none" stroke="#bfbfbf" points="866.5,-0.5 866.5,-19.5 1036.5,-19.5 1036.5,-0.5 866.5,-0.5"/>
<text text-anchor="middle" x="951.5" y="-7.5" font-family="Helvetica,sans-Serif" font-size="10.00">Engine/Core/SceneGraphNode.hpp</text>
</g>
<!-- Node1&#45;&gt;Node8 -->
<g id="edge7" class="edge"><title>Node1&#45;&gt;Node8</title>
<path fill="none" stroke="midnightblue" d="M598.892,-56.4435C673.977,-46.7666 796.042,-31.0351 875.046,-20.8533"/>
<polygon fill="midnightblue" stroke="midnightblue" points="875.948,-24.266 885.419,-19.5164 875.053,-17.3234 875.948,-24.266"/>
</g>
<!-- Node9 -->
<g id="node9" class="node"><title>Node9</title>
<polygon fill="none" stroke="#bfbfbf" points="1054.5,-0.5 1054.5,-19.5 1182.5,-19.5 1182.5,-0.5 1054.5,-0.5"/>
<text text-anchor="middle" x="1118.5" y="-7.5" font-family="Helvetica,sans-Serif" font-size="10.00">Engine/Event/Resize.hpp</text>
</g>
<!-- Node1&#45;&gt;Node9 -->
<g id="edge8" class="edge"><title>Node1&#45;&gt;Node9</title>
<path fill="none" stroke="midnightblue" d="M605.637,-59.3983C703.183,-51.745 881.513,-37.1199 1044.22,-20.1016"/>
<polygon fill="midnightblue" stroke="midnightblue" points="1044.84,-23.5559 1054.42,-19.0295 1044.11,-16.5942 1044.84,-23.5559"/>
</g>
</g>
</svg>
