<?xml version="1.0" encoding="UTF-8" standalone="no"?>
<!DOCTYPE svg PUBLIC "-//W3C//DTD SVG 1.1//EN"
 "http://www.w3.org/Graphics/SVG/1.1/DTD/svg11.dtd">
<!-- Generated by graphviz version 2.38.0 (20140413.2041)
 -->
<!-- Title: engine/PerspectiveCamera/PerspectiveCamera.cpp Pages: 1 -->
<svg width="1827pt" height="319pt"
 viewBox="0.00 0.00 1827.36 319.00" xmlns="http://www.w3.org/2000/svg" xmlns:xlink="http://www.w3.org/1999/xlink">
<g id="graph0" class="graph" transform="scale(1 1) rotate(0) translate(4 315)">
<title>engine/PerspectiveCamera/PerspectiveCamera.cpp</title>
<!-- Node1 -->
<g id="node1" class="node"><title>Node1</title>
<polygon fill="#bfbfbf" stroke="black" points="474.357,-280.5 474.357,-310.5 608.357,-310.5 608.357,-280.5 474.357,-280.5"/>
<text text-anchor="start" x="482.357" y="-298.5" font-family="Helvetica,sans-Serif" font-size="10.00">engine/PerspectiveCamera</text>
<text text-anchor="middle" x="541.357" y="-287.5" font-family="Helvetica,sans-Serif" font-size="10.00">/PerspectiveCamera.cpp</text>
</g>
<!-- Node2 -->
<g id="node2" class="node"><title>Node2</title>
<polygon fill="none" stroke="#bfbfbf" points="21.8572,-224.5 21.8572,-243.5 128.857,-243.5 128.857,-224.5 21.8572,-224.5"/>
<text text-anchor="middle" x="75.3572" y="-231.5" font-family="Helvetica,sans-Serif" font-size="10.00">log4cpp/Category.hh</text>
</g>
<!-- Node1&#45;&gt;Node2 -->
<g id="edge1" class="edge"><title>Node1&#45;&gt;Node2</title>
<path fill="none" stroke="midnightblue" d="M474.283,-286.454C396.374,-277.027 263.693,-260.723 139.07,-244.075"/>
<polygon fill="midnightblue" stroke="midnightblue" points="139.341,-240.581 128.965,-242.722 138.412,-247.519 139.341,-240.581"/>
</g>
<!-- Node3 -->
<g id="node3" class="node"><title>Node3</title>
<polygon fill="none" stroke="#bfbfbf" points="1071.36,-0.5 1071.36,-19.5 1141.36,-19.5 1141.36,-0.5 1071.36,-0.5"/>
<text text-anchor="middle" x="1106.36" y="-7.5" font-family="Helvetica,sans-Serif" font-size="10.00">glm/glm.hpp</text>
</g>
<!-- Node1&#45;&gt;Node3 -->
<g id="edge2" class="edge"><title>Node1&#45;&gt;Node3</title>
<path fill="none" stroke="midnightblue" d="M608.464,-294.573C848.089,-293.958 1647.36,-284.036 1647.36,-179 1647.36,-179 1647.36,-179 1647.36,-121 1647.36,-82.5768 1624.58,-73.4628 1590.36,-56 1551.81,-36.3342 1264.37,-19.2957 1151.58,-13.2974"/>
<polygon fill="midnightblue" stroke="midnightblue" points="1151.71,-9.79952 1141.54,-12.7681 1151.35,-16.7898 1151.71,-9.79952"/>
</g>
<!-- Node4 -->
<g id="node4" class="node"><title>Node4</title>
<polygon fill="none" stroke="#bfbfbf" points="1675.36,-224.5 1675.36,-243.5 1819.36,-243.5 1819.36,-224.5 1675.36,-224.5"/>
<text text-anchor="middle" x="1747.36" y="-231.5" font-family="Helvetica,sans-Serif" font-size="10.00">glm/gtc/matrix_transform.hpp</text>
</g>
<!-- Node1&#45;&gt;Node4 -->
<g id="edge3" class="edge"><title>Node1&#45;&gt;Node4</title>
<path fill="none" stroke="midnightblue" d="M608.665,-292.855C782.864,-288.296 1262.72,-273.819 1661.36,-244 1662.48,-243.916 1663.61,-243.829 1664.75,-243.74"/>
<polygon fill="midnightblue" stroke="midnightblue" points="1665.45,-247.193 1675.12,-242.873 1664.87,-240.218 1665.45,-247.193"/>
</g>
<!-- Node5 -->
<g id="node5" class="node"><title>Node5</title>
<g id="a_node5"><a xlink:href="../../da/d83/Transform_8hpp.html" target="_top" xlink:title="Transform.hpp">
<polygon fill="none" stroke="black" points="287.357,-224.5 287.357,-243.5 367.357,-243.5 367.357,-224.5 287.357,-224.5"/>
<text text-anchor="middle" x="327.357" y="-231.5" font-family="Helvetica,sans-Serif" font-size="10.00">Transform.hpp</text>
</a>
</g>
</g>
<!-- Node1&#45;&gt;Node5 -->
<g id="edge4" class="edge"><title>Node1&#45;&gt;Node5</title>
<path fill="none" stroke="midnightblue" d="M490.913,-280.475C453.349,-270.03 402.734,-255.958 367.808,-246.247"/>
<polygon fill="midnightblue" stroke="midnightblue" points="368.524,-242.813 357.951,-243.506 366.648,-249.557 368.524,-242.813"/>
</g>
<!-- Node8 -->
<g id="node8" class="node"><title>Node8</title>
<g id="a_node8"><a xlink:href="../../d4/d3e/PerspectiveCamera_8hpp.html" target="_top" xlink:title="PerspectiveCamera.hpp">
<polygon fill="none" stroke="black" points="147.357,-224.5 147.357,-243.5 269.357,-243.5 269.357,-224.5 147.357,-224.5"/>
<text text-anchor="middle" x="208.357" y="-231.5" font-family="Helvetica,sans-Serif" font-size="10.00">PerspectiveCamera.hpp</text>
</a>
</g>
</g>
<!-- Node1&#45;&gt;Node8 -->
<g id="edge8" class="edge"><title>Node1&#45;&gt;Node8</title>
<path fill="none" stroke="midnightblue" d="M473.97,-282.459C412.924,-271.552 323.931,-255.651 266.085,-245.315"/>
<polygon fill="midnightblue" stroke="midnightblue" points="266.475,-241.829 256.015,-243.516 265.244,-248.72 266.475,-241.829"/>
</g>
<!-- Node13 -->
<g id="node13" class="node"><title>Node13</title>
<g id="a_node13"><a xlink:href="../../db/de8/Scene_8hpp.html" target="_top" xlink:title="Scene.hpp">
<polygon fill="none" stroke="black" points="723.857,-224.5 723.857,-243.5 786.857,-243.5 786.857,-224.5 723.857,-224.5"/>
<text text-anchor="middle" x="755.357" y="-231.5" font-family="Helvetica,sans-Serif" font-size="10.00">Scene.hpp</text>
</a>
</g>
</g>
<!-- Node1&#45;&gt;Node13 -->
<g id="edge15" class="edge"><title>Node1&#45;&gt;Node13</title>
<path fill="none" stroke="midnightblue" d="M591.801,-280.475C629.365,-270.03 679.98,-255.958 714.906,-246.247"/>
<polygon fill="midnightblue" stroke="midnightblue" points="716.066,-249.557 724.763,-243.506 714.191,-242.813 716.066,-249.557"/>
</g>
<!-- Node5&#45;&gt;Node3 -->
<g id="edge5" class="edge"><title>Node5&#45;&gt;Node3</title>
<path fill="none" stroke="midnightblue" d="M287.045,-225.005C239.353,-215.141 165.365,-198.403 157.357,-188 145.442,-172.52 153.1,-133.566 169.357,-112 177.317,-101.442 261.621,-59.5522 274.357,-56 350.198,-34.8473 898.82,-17.1257 1061.2,-12.2988"/>
<polygon fill="midnightblue" stroke="midnightblue" points="1061.43,-15.7934 1071.33,-11.9996 1061.23,-8.79647 1061.43,-15.7934"/>
</g>
<!-- Node6 -->
<g id="node6" class="node"><title>Node6</title>
<polygon fill="none" stroke="#bfbfbf" points="166.357,-168.5 166.357,-187.5 258.357,-187.5 258.357,-168.5 166.357,-168.5"/>
<text text-anchor="middle" x="212.357" y="-175.5" font-family="Helvetica,sans-Serif" font-size="10.00">assimp/vector3.h</text>
</g>
<!-- Node5&#45;&gt;Node6 -->
<g id="edge6" class="edge"><title>Node5&#45;&gt;Node6</title>
<path fill="none" stroke="midnightblue" d="M309.135,-224.444C290.462,-215.675 261.201,-201.935 239.74,-191.858"/>
<polygon fill="midnightblue" stroke="midnightblue" points="241.033,-188.599 230.494,-187.516 238.058,-194.935 241.033,-188.599"/>
</g>
<!-- Node7 -->
<g id="node7" class="node"><title>Node7</title>
<polygon fill="none" stroke="#bfbfbf" points="276.357,-168.5 276.357,-187.5 378.357,-187.5 378.357,-168.5 276.357,-168.5"/>
<text text-anchor="middle" x="327.357" y="-175.5" font-family="Helvetica,sans-Serif" font-size="10.00">assimp/matrix4x4.h</text>
</g>
<!-- Node5&#45;&gt;Node7 -->
<g id="edge7" class="edge"><title>Node5&#45;&gt;Node7</title>
<path fill="none" stroke="midnightblue" d="M327.357,-224.083C327.357,-217.006 327.357,-206.861 327.357,-197.986"/>
<polygon fill="midnightblue" stroke="midnightblue" points="330.857,-197.751 327.357,-187.751 323.857,-197.751 330.857,-197.751"/>
</g>
<!-- Node9 -->
<g id="node9" class="node"><title>Node9</title>
<g id="a_node9"><a xlink:href="../../d6/d80/Camera_8hpp.html" target="_top" xlink:title="Camera.hpp">
<polygon fill="none" stroke="black" points="52.3572,-112.5 52.3572,-131.5 122.357,-131.5 122.357,-112.5 52.3572,-112.5"/>
<text text-anchor="middle" x="87.3572" y="-119.5" font-family="Helvetica,sans-Serif" font-size="10.00">Camera.hpp</text>
</a>
</g>
</g>
<!-- Node8&#45;&gt;Node9 -->
<g id="edge9" class="edge"><title>Node8&#45;&gt;Node9</title>
<path fill="none" stroke="midnightblue" d="M184.364,-224.4C166.203,-216.957 141.536,-204.744 124.357,-188 110.723,-174.711 100.569,-155.322 94.3814,-141.179"/>
<polygon fill="midnightblue" stroke="midnightblue" points="97.4719,-139.492 90.4309,-131.575 90.9982,-142.155 97.4719,-139.492"/>
</g>
<!-- Node9&#45;&gt;Node3 -->
<g id="edge11" class="edge"><title>Node9&#45;&gt;Node3</title>
<path fill="none" stroke="midnightblue" d="M108.346,-112.38C129.974,-103.449 164.632,-89.0034 194.357,-76 214.037,-67.3909 217.488,-61.0896 238.357,-56 396.712,-17.3802 905.946,-11.8954 1061.08,-11.1241"/>
<polygon fill="midnightblue" stroke="midnightblue" points="1061.22,-14.6236 1071.2,-11.078 1061.19,-7.62363 1061.22,-14.6236"/>
</g>
<!-- Node10 -->
<g id="node10" class="node"><title>Node10</title>
<polygon fill="none" stroke="#bfbfbf" points="243.857,-0.5 243.857,-19.5 284.857,-19.5 284.857,-0.5 243.857,-0.5"/>
<text text-anchor="middle" x="264.357" y="-7.5" font-family="Helvetica,sans-Serif" font-size="10.00">string</text>
</g>
<!-- Node9&#45;&gt;Node10 -->
<g id="edge10" class="edge"><title>Node9&#45;&gt;Node10</title>
<path fill="none" stroke="midnightblue" d="M60.4381,-112.419C29.4291,-101.156 -14.8158,-79.9801 5.35715,-56 34.1816,-21.7356 170.979,-13.56 233.298,-11.6102"/>
<polygon fill="midnightblue" stroke="midnightblue" points="233.779,-15.0983 243.678,-11.322 233.585,-8.101 233.779,-15.0983"/>
</g>
<!-- Node11 -->
<g id="node11" class="node"><title>Node11</title>
<polygon fill="none" stroke="#bfbfbf" points="14.3572,-56.5 14.3572,-75.5 106.357,-75.5 106.357,-56.5 14.3572,-56.5"/>
<text text-anchor="middle" x="60.3572" y="-63.5" font-family="Helvetica,sans-Serif" font-size="10.00">assimp/camera.h</text>
</g>
<!-- Node9&#45;&gt;Node11 -->
<g id="edge12" class="edge"><title>Node9&#45;&gt;Node11</title>
<path fill="none" stroke="midnightblue" d="M82.8987,-112.083C79.2028,-104.691 73.8338,-93.9533 69.2627,-84.8111"/>
<polygon fill="midnightblue" stroke="midnightblue" points="72.3354,-83.1301 64.7327,-75.7511 66.0744,-86.2606 72.3354,-83.1301"/>
</g>
<!-- Node12 -->
<g id="node12" class="node"><title>Node12</title>
<g id="a_node12"><a xlink:href="../../de/da6/Entity_8hpp.html" target="_top" xlink:title="Entity.hpp">
<polygon fill="none" stroke="black" points="124.857,-56.5 124.857,-75.5 185.857,-75.5 185.857,-56.5 124.857,-56.5"/>
<text text-anchor="middle" x="155.357" y="-63.5" font-family="Helvetica,sans-Serif" font-size="10.00">Entity.hpp</text>
</a>
</g>
</g>
<!-- Node9&#45;&gt;Node12 -->
<g id="edge13" class="edge"><title>Node9&#45;&gt;Node12</title>
<path fill="none" stroke="midnightblue" d="M98.2825,-112.324C108.532,-104.185 124.078,-91.8395 136.358,-82.0874"/>
<polygon fill="midnightblue" stroke="midnightblue" points="138.578,-84.7937 144.233,-75.8339 134.225,-79.3119 138.578,-84.7937"/>
</g>
<!-- Node12&#45;&gt;Node10 -->
<g id="edge14" class="edge"><title>Node12&#45;&gt;Node10</title>
<path fill="none" stroke="midnightblue" d="M172.87,-56.324C190.43,-47.6247 217.689,-34.1202 237.888,-24.113"/>
<polygon fill="midnightblue" stroke="midnightblue" points="239.481,-27.23 246.888,-19.6545 236.373,-20.9575 239.481,-27.23"/>
</g>
<!-- Node14 -->
<g id="node14" class="node"><title>Node14</title>
<polygon fill="none" stroke="#bfbfbf" points="1026.36,-56.5 1026.36,-75.5 1078.36,-75.5 1078.36,-56.5 1026.36,-56.5"/>
<text text-anchor="middle" x="1052.36" y="-63.5" font-family="Helvetica,sans-Serif" font-size="10.00">memory</text>
</g>
<!-- Node13&#45;&gt;Node14 -->
<g id="edge16" class="edge"><title>Node13&#45;&gt;Node14</title>
<path fill="none" stroke="midnightblue" d="M786.91,-230.73C851.674,-225.637 997.158,-211.841 1040.36,-188 1069.31,-172.02 1077.73,-162.958 1089.36,-132 1096.01,-114.284 1083.1,-95.6712 1070.74,-82.9255"/>
<polygon fill="midnightblue" stroke="midnightblue" points="1072.94,-80.1892 1063.29,-75.8082 1068.1,-85.2487 1072.94,-80.1892"/>
</g>
<!-- Node15 -->
<g id="node15" class="node"><title>Node15</title>
<polygon fill="none" stroke="#bfbfbf" points="178.857,-112.5 178.857,-131.5 207.857,-131.5 207.857,-112.5 178.857,-112.5"/>
<text text-anchor="middle" x="193.357" y="-119.5" font-family="Helvetica,sans-Serif" font-size="10.00">list</text>
</g>
<!-- Node13&#45;&gt;Node15 -->
<g id="edge17" class="edge"><title>Node13&#45;&gt;Node15</title>
<path fill="none" stroke="midnightblue" d="M723.632,-229.374C680.179,-223.768 600.155,-211.149 535.357,-188 517.384,-181.579 515.555,-173.753 497.357,-168 380.761,-131.142 341.142,-160.646 217.729,-131.47"/>
<polygon fill="midnightblue" stroke="midnightblue" points="218.456,-128.045 207.91,-129.068 216.792,-134.844 218.456,-128.045"/>
</g>
<!-- Node16 -->
<g id="node16" class="node"><title>Node16</title>
<g id="a_node16"><a xlink:href="../../dd/db8/Renderer_8hpp.html" target="_top" xlink:title="Renderer.hpp">
<polygon fill="none" stroke="black" points="544.857,-168.5 544.857,-187.5 619.857,-187.5 619.857,-168.5 544.857,-168.5"/>
<text text-anchor="middle" x="582.357" y="-175.5" font-family="Helvetica,sans-Serif" font-size="10.00">Renderer.hpp</text>
</a>
</g>
</g>
<!-- Node13&#45;&gt;Node16 -->
<g id="edge18" class="edge"><title>Node13&#45;&gt;Node16</title>
<path fill="none" stroke="midnightblue" d="M727.945,-224.444C698.588,-215.28 651.838,-200.688 619.261,-190.519"/>
<polygon fill="midnightblue" stroke="midnightblue" points="620.23,-187.155 609.641,-187.516 618.144,-193.837 620.23,-187.155"/>
</g>
<!-- Node17 -->
<g id="node17" class="node"><title>Node17</title>
<g id="a_node17"><a xlink:href="../../de/dbe/SpatialGraph_8hpp.html" target="_top" xlink:title="SpatialGraph.hpp">
<polygon fill="none" stroke="black" points="396.357,-168.5 396.357,-187.5 488.357,-187.5 488.357,-168.5 396.357,-168.5"/>
<text text-anchor="middle" x="442.357" y="-175.5" font-family="Helvetica,sans-Serif" font-size="10.00">SpatialGraph.hpp</text>
</a>
</g>
</g>
<!-- Node13&#45;&gt;Node17 -->
<g id="edge20" class="edge"><title>Node13&#45;&gt;Node17</title>
<path fill="none" stroke="midnightblue" d="M723.623,-227.525C670.882,-218.426 564.498,-200.072 498.746,-188.728"/>
<polygon fill="midnightblue" stroke="midnightblue" points="499.006,-185.222 488.557,-186.97 497.816,-192.12 499.006,-185.222"/>
</g>
<!-- Node18 -->
<g id="node18" class="node"><title>Node18</title>
<g id="a_node18"><a xlink:href="../../d8/d58/SceneGraph_8hpp.html" target="_top" xlink:title="SceneGraph.hpp">
<polygon fill="none" stroke="black" points="637.857,-168.5 637.857,-187.5 726.857,-187.5 726.857,-168.5 637.857,-168.5"/>
<text text-anchor="middle" x="682.357" y="-175.5" font-family="Helvetica,sans-Serif" font-size="10.00">SceneGraph.hpp</text>
</a>
</g>
</g>
<!-- Node13&#45;&gt;Node18 -->
<g id="edge22" class="edge"><title>Node13&#45;&gt;Node18</title>
<path fill="none" stroke="midnightblue" d="M743.628,-224.324C732.52,-216.107 715.615,-203.602 702.374,-193.807"/>
<polygon fill="midnightblue" stroke="midnightblue" points="704.42,-190.967 694.299,-187.834 700.257,-196.595 704.42,-190.967"/>
</g>
<!-- Node20 -->
<g id="node20" class="node"><title>Node20</title>
<g id="a_node20"><a xlink:href="../../d1/d93/ShaderProgramLibrary_8hpp.html" target="_top" xlink:title="ShaderProgramLibrary.hpp">
<polygon fill="none" stroke="black" points="899.357,-168.5 899.357,-187.5 1031.36,-187.5 1031.36,-168.5 899.357,-168.5"/>
<text text-anchor="middle" x="965.357" y="-175.5" font-family="Helvetica,sans-Serif" font-size="10.00">ShaderProgramLibrary.hpp</text>
</a>
</g>
</g>
<!-- Node13&#45;&gt;Node20 -->
<g id="edge24" class="edge"><title>Node13&#45;&gt;Node20</title>
<path fill="none" stroke="midnightblue" d="M787.252,-224.799C823.321,-215.524 882.24,-200.373 922.353,-190.058"/>
<polygon fill="midnightblue" stroke="midnightblue" points="923.307,-193.427 932.12,-187.547 921.563,-186.647 923.307,-193.427"/>
</g>
<!-- Node29 -->
<g id="node29" class="node"><title>Node29</title>
<g id="a_node29"><a xlink:href="../../d2/d26/MaterialLibrary_8hpp.html" target="_top" xlink:title="MaterialLibrary.hpp">
<polygon fill="none" stroke="black" points="1147.86,-168.5 1147.86,-187.5 1246.86,-187.5 1246.86,-168.5 1147.86,-168.5"/>
<text text-anchor="middle" x="1197.36" y="-175.5" font-family="Helvetica,sans-Serif" font-size="10.00">MaterialLibrary.hpp</text>
</a>
</g>
</g>
<!-- Node13&#45;&gt;Node29 -->
<g id="edge42" class="edge"><title>Node13&#45;&gt;Node29</title>
<path fill="none" stroke="midnightblue" d="M786.996,-229.463C851.958,-222.15 1005.07,-204.655 1133.36,-188 1134.82,-187.81 1136.3,-187.617 1137.79,-187.419"/>
<polygon fill="midnightblue" stroke="midnightblue" points="1138.31,-190.881 1147.76,-186.081 1137.38,-183.943 1138.31,-190.881"/>
</g>
<!-- Node32 -->
<g id="node32" class="node"><title>Node32</title>
<g id="a_node32"><a xlink:href="../../d1/da3/AnimationLibrary_8hpp.html" target="_top" xlink:title="AnimationLibrary.hpp">
<polygon fill="none" stroke="black" points="416.357,-112.5 416.357,-131.5 524.357,-131.5 524.357,-112.5 416.357,-112.5"/>
<text text-anchor="middle" x="470.357" y="-119.5" font-family="Helvetica,sans-Serif" font-size="10.00">AnimationLibrary.hpp</text>
</a>
</g>
</g>
<!-- Node13&#45;&gt;Node32 -->
<g id="edge49" class="edge"><title>Node13&#45;&gt;Node32</title>
<path fill="none" stroke="midnightblue" d="M755.391,-224.327C754.942,-210.234 751.864,-182.485 735.357,-168 720.429,-154.9 608.162,-139.323 534.621,-130.356"/>
<polygon fill="midnightblue" stroke="midnightblue" points="534.863,-126.86 524.515,-129.136 534.023,-133.809 534.863,-126.86"/>
</g>
<!-- Node35 -->
<g id="node35" class="node"><title>Node35</title>
<g id="a_node35"><a xlink:href="../../dd/de2/MeshLibrary_8hpp.html" target="_top" xlink:title="MeshLibrary.hpp">
<polygon fill="none" stroke="black" points="1264.86,-168.5 1264.86,-187.5 1353.86,-187.5 1353.86,-168.5 1264.86,-168.5"/>
<text text-anchor="middle" x="1309.36" y="-175.5" font-family="Helvetica,sans-Serif" font-size="10.00">MeshLibrary.hpp</text>
</a>
</g>
</g>
<!-- Node13&#45;&gt;Node35 -->
<g id="edge55" class="edge"><title>Node13&#45;&gt;Node35</title>
<path fill="none" stroke="midnightblue" d="M787.104,-231.019C865.01,-225.971 1072.02,-211.437 1254.53,-188.153"/>
<polygon fill="midnightblue" stroke="midnightblue" points="1255.1,-191.608 1264.57,-186.859 1254.21,-184.665 1255.1,-191.608"/>
</g>
<!-- Node40 -->
<g id="node40" class="node"><title>Node40</title>
<g id="a_node40"><a xlink:href="../../dc/d23/TextureLibrary_8hpp.html" target="_top" xlink:title="TextureLibrary.hpp">
<polygon fill="none" stroke="black" points="783.357,-168.5 783.357,-187.5 881.357,-187.5 881.357,-168.5 783.357,-168.5"/>
<text text-anchor="middle" x="832.357" y="-175.5" font-family="Helvetica,sans-Serif" font-size="10.00">TextureLibrary.hpp</text>
</a>
</g>
</g>
<!-- Node13&#45;&gt;Node40 -->
<g id="edge66" class="edge"><title>Node13&#45;&gt;Node40</title>
<path fill="none" stroke="midnightblue" d="M767.729,-224.324C779.516,-216.058 797.489,-203.453 811.493,-193.632"/>
<polygon fill="midnightblue" stroke="midnightblue" points="813.839,-196.262 820.016,-187.655 809.82,-190.531 813.839,-196.262"/>
</g>
<!-- Node16&#45;&gt;Node15 -->
<g id="edge19" class="edge"><title>Node16&#45;&gt;Node15</title>
<path fill="none" stroke="midnightblue" d="M544.623,-170.21C539.828,-169.423 534.982,-168.666 530.357,-168 395.006,-148.519 355.332,-164.062 217.964,-131.527"/>
<polygon fill="midnightblue" stroke="midnightblue" points="218.444,-128.043 207.903,-129.101 216.803,-134.848 218.444,-128.043"/>
</g>
<!-- Node17&#45;&gt;Node15 -->
<g id="edge21" class="edge"><title>Node17&#45;&gt;Node15</title>
<path fill="none" stroke="midnightblue" d="M396.221,-168.682C344.568,-159.222 263.163,-143.837 217.855,-131.68"/>
<polygon fill="midnightblue" stroke="midnightblue" points="218.529,-128.234 207.955,-128.902 216.637,-134.973 218.529,-128.234"/>
</g>
<!-- Node19 -->
<g id="node19" class="node"><title>Node19</title>
<polygon fill="none" stroke="#bfbfbf" points="226.357,-112.5 226.357,-131.5 312.357,-131.5 312.357,-112.5 226.357,-112.5"/>
<text text-anchor="middle" x="269.357" y="-119.5" font-family="Helvetica,sans-Serif" font-size="10.00">assimp/scene.h</text>
</g>
<!-- Node18&#45;&gt;Node19 -->
<g id="edge23" class="edge"><title>Node18&#45;&gt;Node19</title>
<path fill="none" stroke="midnightblue" d="M637.594,-169.368C634.471,-168.888 631.368,-168.427 628.357,-168 495.528,-149.154 459.011,-151.592 322.465,-132.089"/>
<polygon fill="midnightblue" stroke="midnightblue" points="322.856,-128.609 312.458,-130.647 321.857,-135.538 322.856,-128.609"/>
</g>
<!-- Node20&#45;&gt;Node14 -->
<g id="edge25" class="edge"><title>Node20&#45;&gt;Node14</title>
<path fill="none" stroke="midnightblue" d="M1016.89,-168.44C1038.09,-162.104 1060.63,-151.098 1073.36,-132 1083.08,-117.409 1074.57,-97.9862 1065.64,-84.1824"/>
<polygon fill="midnightblue" stroke="midnightblue" points="1068.24,-81.7981 1059.61,-75.652 1062.52,-85.8384 1068.24,-81.7981"/>
</g>
<!-- Node21 -->
<g id="node21" class="node"><title>Node21</title>
<g id="a_node21"><a xlink:href="../../df/d67/Library_8hpp.html" target="_top" xlink:title="Library.hpp">
<polygon fill="none" stroke="black" points="557.857,-56.5 557.857,-75.5 622.857,-75.5 622.857,-56.5 557.857,-56.5"/>
<text text-anchor="middle" x="590.357" y="-63.5" font-family="Helvetica,sans-Serif" font-size="10.00">Library.hpp</text>
</a>
</g>
</g>
<!-- Node20&#45;&gt;Node21 -->
<g id="edge26" class="edge"><title>Node20&#45;&gt;Node21</title>
<path fill="none" stroke="midnightblue" d="M899.128,-168.857C796.533,-156.211 610.729,-133.17 609.357,-132 596.097,-120.693 591.823,-100.69 590.574,-85.8508"/>
<polygon fill="midnightblue" stroke="midnightblue" points="594.065,-85.5683 590.11,-75.7393 587.072,-85.8893 594.065,-85.5683"/>
</g>
<!-- Node24 -->
<g id="node24" class="node"><title>Node24</title>
<g id="a_node24"><a xlink:href="../../dc/ddb/ShaderProgram_8hpp.html" target="_top" xlink:title="ShaderProgram.hpp">
<polygon fill="none" stroke="black" points="960.857,-112.5 960.857,-131.5 1063.86,-131.5 1063.86,-112.5 960.857,-112.5"/>
<text text-anchor="middle" x="1012.36" y="-119.5" font-family="Helvetica,sans-Serif" font-size="10.00">ShaderProgram.hpp</text>
</a>
</g>
</g>
<!-- Node20&#45;&gt;Node24 -->
<g id="edge30" class="edge"><title>Node20&#45;&gt;Node24</title>
<path fill="none" stroke="midnightblue" d="M973.118,-168.083C979.894,-160.298 989.9,-148.801 998.112,-139.367"/>
<polygon fill="midnightblue" stroke="midnightblue" points="1000.82,-141.592 1004.74,-131.751 995.535,-136.996 1000.82,-141.592"/>
</g>
<!-- Node26 -->
<g id="node26" class="node"><title>Node26</title>
<g id="a_node26"><a xlink:href="../../d9/db7/ShaderProgramNames_8hpp.html" target="_top" xlink:title="ShaderProgramNames.hpp">
<polygon fill="none" stroke="black" points="732.357,-112.5 732.357,-131.5 866.357,-131.5 866.357,-112.5 732.357,-112.5"/>
<text text-anchor="middle" x="799.357" y="-119.5" font-family="Helvetica,sans-Serif" font-size="10.00">ShaderProgramNames.hpp</text>
</a>
</g>
</g>
<!-- Node20&#45;&gt;Node26 -->
<g id="edge36" class="edge"><title>Node20&#45;&gt;Node26</title>
<path fill="none" stroke="midnightblue" d="M939.054,-168.444C911.006,-159.32 866.413,-144.813 835.173,-134.651"/>
<polygon fill="midnightblue" stroke="midnightblue" points="836.13,-131.282 825.537,-131.516 833.964,-137.938 836.13,-131.282"/>
</g>
<!-- Node27 -->
<g id="node27" class="node"><title>Node27</title>
<g id="a_node27"><a xlink:href="../../d2/db1/ShaderLibrary_8hpp.html" target="_top" xlink:title="ShaderLibrary.hpp">
<polygon fill="none" stroke="black" points="618.857,-112.5 618.857,-131.5 713.857,-131.5 713.857,-112.5 618.857,-112.5"/>
<text text-anchor="middle" x="666.357" y="-119.5" font-family="Helvetica,sans-Serif" font-size="10.00">ShaderLibrary.hpp</text>
</a>
</g>
</g>
<!-- Node20&#45;&gt;Node27 -->
<g id="edge37" class="edge"><title>Node20&#45;&gt;Node27</title>
<path fill="none" stroke="midnightblue" d="M917.98,-168.444C865.273,-158.925 780.128,-143.547 723.701,-133.356"/>
<polygon fill="midnightblue" stroke="midnightblue" points="723.976,-129.849 713.513,-131.516 722.732,-136.738 723.976,-129.849"/>
</g>
<!-- Node21&#45;&gt;Node21 -->
<g id="edge29" class="edge"><title>Node21&#45;&gt;Node21</title>
<path fill="none" stroke="midnightblue" d="M611.895,-75.5252C626.53,-78.3079 640.857,-75.1328 640.857,-66 640.857,-59.0077 632.459,-55.5077 621.954,-55.5"/>
<polygon fill="midnightblue" stroke="midnightblue" points="621.511,-52.0265 611.895,-56.4748 622.186,-58.9938 621.511,-52.0265"/>
</g>
<!-- Node22 -->
<g id="node22" class="node"><title>Node22</title>
<polygon fill="none" stroke="#bfbfbf" points="1336.36,-0.5 1336.36,-19.5 1380.36,-19.5 1380.36,-0.5 1336.36,-0.5"/>
<text text-anchor="middle" x="1358.36" y="-7.5" font-family="Helvetica,sans-Serif" font-size="10.00">vector</text>
</g>
<!-- Node21&#45;&gt;Node22 -->
<g id="edge27" class="edge"><title>Node21&#45;&gt;Node22</title>
<path fill="none" stroke="midnightblue" d="M622.989,-59.5879C631.849,-58.2599 641.454,-56.9489 650.357,-56 784.249,-41.7294 1205.91,-19.0087 1326.09,-12.6828"/>
<polygon fill="midnightblue" stroke="midnightblue" points="1326.33,-16.1751 1336.14,-12.1555 1325.97,-9.18475 1326.33,-16.1751"/>
</g>
<!-- Node23 -->
<g id="node23" class="node"><title>Node23</title>
<polygon fill="none" stroke="#bfbfbf" points="559.357,-0.5 559.357,-19.5 621.357,-19.5 621.357,-0.5 559.357,-0.5"/>
<text text-anchor="middle" x="590.357" y="-7.5" font-family="Helvetica,sans-Serif" font-size="10.00">Library.tpp</text>
</g>
<!-- Node21&#45;&gt;Node23 -->
<g id="edge28" class="edge"><title>Node21&#45;&gt;Node23</title>
<path fill="none" stroke="midnightblue" d="M590.357,-56.083C590.357,-49.0059 590.357,-38.8611 590.357,-29.9865"/>
<polygon fill="midnightblue" stroke="midnightblue" points="593.857,-29.751 590.357,-19.7511 586.857,-29.7511 593.857,-29.751"/>
</g>
<!-- Node24&#45;&gt;Node3 -->
<g id="edge31" class="edge"><title>Node24&#45;&gt;Node3</title>
<path fill="none" stroke="midnightblue" d="M1003.49,-112.445C991.117,-99.4594 971.57,-74.346 984.357,-56 1001.58,-31.2841 1034,-20.1081 1061.09,-15.0719"/>
<polygon fill="midnightblue" stroke="midnightblue" points="1061.87,-18.492 1071.17,-13.4269 1060.74,-11.5834 1061.87,-18.492"/>
</g>
<!-- Node24&#45;&gt;Node14 -->
<g id="edge33" class="edge"><title>Node24&#45;&gt;Node14</title>
<path fill="none" stroke="midnightblue" d="M1018.96,-112.083C1024.61,-104.455 1032.9,-93.2645 1039.81,-83.9408"/>
<polygon fill="midnightblue" stroke="midnightblue" points="1042.74,-85.87 1045.87,-75.7511 1037.11,-81.7034 1042.74,-85.87"/>
</g>
<!-- Node24&#45;&gt;Node22 -->
<g id="edge32" class="edge"><title>Node24&#45;&gt;Node22</title>
<path fill="none" stroke="midnightblue" d="M1009.92,-112.056C1006.72,-98.0846 1003.04,-71.121 1017.36,-56 1038.43,-33.7483 1244.98,-18.2473 1325.99,-12.9787"/>
<polygon fill="midnightblue" stroke="midnightblue" points="1326.36,-16.4624 1336.11,-12.3313 1325.91,-9.47666 1326.36,-16.4624"/>
</g>
<!-- Node25 -->
<g id="node25" class="node"><title>Node25</title>
<g id="a_node25"><a xlink:href="../../d4/d6e/Shader_8hpp.html" target="_top" xlink:title="Shader.hpp">
<polygon fill="none" stroke="black" points="775.357,-56.5 775.357,-75.5 841.357,-75.5 841.357,-56.5 775.357,-56.5"/>
<text text-anchor="middle" x="808.357" y="-63.5" font-family="Helvetica,sans-Serif" font-size="10.00">Shader.hpp</text>
</a>
</g>
</g>
<!-- Node24&#45;&gt;Node25 -->
<g id="edge34" class="edge"><title>Node24&#45;&gt;Node25</title>
<path fill="none" stroke="midnightblue" d="M980.033,-112.444C944.968,-103.162 888.859,-88.3093 850.392,-78.127"/>
<polygon fill="midnightblue" stroke="midnightblue" points="851.093,-74.692 840.53,-75.5164 849.302,-81.4589 851.093,-74.692"/>
</g>
<!-- Node25&#45;&gt;Node10 -->
<g id="edge35" class="edge"><title>Node25&#45;&gt;Node10</title>
<path fill="none" stroke="midnightblue" d="M774.954,-57.4588C772.054,-56.9207 769.159,-56.4242 766.357,-56 674.408,-42.08 389.069,-20.2524 294.875,-13.2452"/>
<polygon fill="midnightblue" stroke="midnightblue" points="295.09,-9.75158 284.858,-12.5024 294.572,-16.7324 295.09,-9.75158"/>
</g>
<!-- Node27&#45;&gt;Node14 -->
<g id="edge38" class="edge"><title>Node27&#45;&gt;Node14</title>
<path fill="none" stroke="midnightblue" d="M713.932,-113.413C717.12,-112.928 720.285,-112.453 723.357,-112 829.62,-96.3454 955.472,-79.6419 1016.12,-71.7081"/>
<polygon fill="midnightblue" stroke="midnightblue" points="1016.85,-75.1416 1026.31,-70.376 1015.95,-68.2006 1016.85,-75.1416"/>
</g>
<!-- Node27&#45;&gt;Node21 -->
<g id="edge39" class="edge"><title>Node27&#45;&gt;Node21</title>
<path fill="none" stroke="midnightblue" d="M654.146,-112.324C642.581,-104.107 624.982,-91.6017 611.196,-81.8069"/>
<polygon fill="midnightblue" stroke="midnightblue" points="612.969,-78.7729 602.79,-75.8339 608.915,-84.4791 612.969,-78.7729"/>
</g>
<!-- Node27&#45;&gt;Node25 -->
<g id="edge40" class="edge"><title>Node27&#45;&gt;Node25</title>
<path fill="none" stroke="midnightblue" d="M688.857,-112.444C712.435,-103.478 749.68,-89.314 776.321,-79.1827"/>
<polygon fill="midnightblue" stroke="midnightblue" points="777.859,-82.3424 785.962,-75.5164 775.371,-75.7995 777.859,-82.3424"/>
</g>
<!-- Node28 -->
<g id="node28" class="node"><title>Node28</title>
<g id="a_node28"><a xlink:href="../../d2/dba/ShaderNames_8hpp.html" target="_top" xlink:title="ShaderNames.hpp">
<polygon fill="none" stroke="black" points="659.357,-56.5 659.357,-75.5 757.357,-75.5 757.357,-56.5 659.357,-56.5"/>
<text text-anchor="middle" x="708.357" y="-63.5" font-family="Helvetica,sans-Serif" font-size="10.00">ShaderNames.hpp</text>
</a>
</g>
</g>
<!-- Node27&#45;&gt;Node28 -->
<g id="edge41" class="edge"><title>Node27&#45;&gt;Node28</title>
<path fill="none" stroke="midnightblue" d="M673.293,-112.083C679.286,-104.377 688.109,-93.0333 695.405,-83.6531"/>
<polygon fill="midnightblue" stroke="midnightblue" points="698.174,-85.7934 701.551,-75.7511 692.649,-81.4958 698.174,-85.7934"/>
</g>
<!-- Node29&#45;&gt;Node21 -->
<g id="edge44" class="edge"><title>Node29&#45;&gt;Node21</title>
<path fill="none" stroke="midnightblue" d="M1147.79,-173.154C1091.27,-167.822 996.573,-155.992 918.357,-132 898.207,-125.819 895.518,-118.148 875.357,-112 863.888,-108.503 710.11,-85.0585 633.34,-73.4656"/>
<polygon fill="midnightblue" stroke="midnightblue" points="633.452,-69.9429 623.042,-71.9117 632.407,-76.8645 633.452,-69.9429"/>
</g>
<!-- Node30 -->
<g id="node30" class="node"><title>Node30</title>
<polygon fill="none" stroke="#bfbfbf" points="1134.36,-56.5 1134.36,-75.5 1228.36,-75.5 1228.36,-56.5 1134.36,-56.5"/>
<text text-anchor="middle" x="1181.36" y="-63.5" font-family="Helvetica,sans-Serif" font-size="10.00">assimp/material.h</text>
</g>
<!-- Node29&#45;&gt;Node30 -->
<g id="edge43" class="edge"><title>Node29&#45;&gt;Node30</title>
<path fill="none" stroke="midnightblue" d="M1209.07,-168.498C1224.23,-156.386 1247.55,-133.269 1237.36,-112 1231.1,-98.9542 1219.02,-88.4921 1207.68,-80.9506"/>
<polygon fill="midnightblue" stroke="midnightblue" points="1209.21,-77.7869 1198.86,-75.5351 1205.55,-83.7515 1209.21,-77.7869"/>
</g>
<!-- Node31 -->
<g id="node31" class="node"><title>Node31</title>
<g id="a_node31"><a xlink:href="../../d0/d70/Material_8hpp.html" target="_top" xlink:title="Material.hpp">
<polygon fill="none" stroke="black" points="1158.36,-112.5 1158.36,-131.5 1228.36,-131.5 1228.36,-112.5 1158.36,-112.5"/>
<text text-anchor="middle" x="1193.36" y="-119.5" font-family="Helvetica,sans-Serif" font-size="10.00">Material.hpp</text>
</a>
</g>
</g>
<!-- Node29&#45;&gt;Node31 -->
<g id="edge45" class="edge"><title>Node29&#45;&gt;Node31</title>
<path fill="none" stroke="midnightblue" d="M1196.7,-168.083C1196.17,-161.006 1195.42,-150.861 1194.76,-141.986"/>
<polygon fill="midnightblue" stroke="midnightblue" points="1198.23,-141.465 1194.01,-131.751 1191.25,-141.982 1198.23,-141.465"/>
</g>
<!-- Node31&#45;&gt;Node3 -->
<g id="edge47" class="edge"><title>Node31&#45;&gt;Node3</title>
<path fill="none" stroke="midnightblue" d="M1173.28,-112.429C1158.01,-104.933 1137.62,-92.6361 1125.36,-76 1115.44,-62.5446 1110.68,-43.984 1108.4,-30.1402"/>
<polygon fill="midnightblue" stroke="midnightblue" points="1111.82,-29.282 1107.02,-19.8364 1104.88,-30.2131 1111.82,-29.282"/>
</g>
<!-- Node31&#45;&gt;Node14 -->
<g id="edge46" class="edge"><title>Node31&#45;&gt;Node14</title>
<path fill="none" stroke="midnightblue" d="M1171.02,-112.444C1147.6,-103.478 1110.62,-89.314 1084.17,-79.1827"/>
<polygon fill="midnightblue" stroke="midnightblue" points="1085.18,-75.8245 1074.59,-75.5164 1082.68,-82.3615 1085.18,-75.8245"/>
</g>
<!-- Node31&#45;&gt;Node30 -->
<g id="edge48" class="edge"><title>Node31&#45;&gt;Node30</title>
<path fill="none" stroke="midnightblue" d="M1191.38,-112.083C1189.79,-104.927 1187.5,-94.6353 1185.51,-85.6911"/>
<polygon fill="midnightblue" stroke="midnightblue" points="1188.89,-84.7537 1183.3,-75.7511 1182.05,-86.2722 1188.89,-84.7537"/>
</g>
<!-- Node32&#45;&gt;Node21 -->
<g id="edge51" class="edge"><title>Node32&#45;&gt;Node21</title>
<path fill="none" stroke="midnightblue" d="M489.372,-112.444C508.945,-103.636 539.665,-89.8116 562.086,-79.722"/>
<polygon fill="midnightblue" stroke="midnightblue" points="563.749,-82.8119 571.432,-75.5164 560.876,-76.4284 563.749,-82.8119"/>
</g>
<!-- Node33 -->
<g id="node33" class="node"><title>Node33</title>
<polygon fill="none" stroke="#bfbfbf" points="412.357,-0.5 412.357,-19.5 492.357,-19.5 492.357,-0.5 412.357,-0.5"/>
<text text-anchor="middle" x="452.357" y="-7.5" font-family="Helvetica,sans-Serif" font-size="10.00">assimp/anim.h</text>
</g>
<!-- Node32&#45;&gt;Node33 -->
<g id="edge50" class="edge"><title>Node32&#45;&gt;Node33</title>
<path fill="none" stroke="midnightblue" d="M473.455,-112.442C477.549,-99.872 483.657,-75.7676 478.357,-56 475.704,-46.1031 470.288,-36.1315 465.083,-28.099"/>
<polygon fill="midnightblue" stroke="midnightblue" points="467.821,-25.9055 459.247,-19.6811 462.068,-29.8935 467.821,-25.9055"/>
</g>
<!-- Node34 -->
<g id="node34" class="node"><title>Node34</title>
<g id="a_node34"><a xlink:href="../../d0/d36/Animation_8hpp.html" target="_top" xlink:title="Animation.hpp">
<polygon fill="none" stroke="black" points="390.857,-56.5 390.857,-75.5 469.857,-75.5 469.857,-56.5 390.857,-56.5"/>
<text text-anchor="middle" x="430.357" y="-63.5" font-family="Helvetica,sans-Serif" font-size="10.00">Animation.hpp</text>
</a>
</g>
</g>
<!-- Node32&#45;&gt;Node34 -->
<g id="edge52" class="edge"><title>Node32&#45;&gt;Node34</title>
<path fill="none" stroke="midnightblue" d="M463.752,-112.083C458.102,-104.455 449.812,-93.2645 442.906,-83.9408"/>
<polygon fill="midnightblue" stroke="midnightblue" points="445.604,-81.7034 436.839,-75.7511 439.979,-85.87 445.604,-81.7034"/>
</g>
<!-- Node34&#45;&gt;Node10 -->
<g id="edge54" class="edge"><title>Node34&#45;&gt;Node10</title>
<path fill="none" stroke="midnightblue" d="M404.054,-56.4435C374.356,-46.7829 326.109,-31.088 294.805,-20.9046"/>
<polygon fill="midnightblue" stroke="midnightblue" points="295.874,-17.5718 285.281,-17.8067 293.708,-24.2285 295.874,-17.5718"/>
</g>
<!-- Node34&#45;&gt;Node33 -->
<g id="edge53" class="edge"><title>Node34&#45;&gt;Node33</title>
<path fill="none" stroke="midnightblue" d="M433.99,-56.083C436.969,-48.77 441.283,-38.1814 444.982,-29.1034"/>
<polygon fill="midnightblue" stroke="midnightblue" points="448.26,-30.3326 448.792,-19.7511 441.778,-27.6914 448.26,-30.3326"/>
</g>
<!-- Node35&#45;&gt;Node21 -->
<g id="edge56" class="edge"><title>Node35&#45;&gt;Node21</title>
<path fill="none" stroke="midnightblue" d="M1264.85,-169.275C1261.98,-168.828 1259.13,-168.399 1256.36,-168 1121.69,-148.605 1082.89,-170.365 952.357,-132 932.905,-126.283 930.753,-117.903 911.357,-112 799.333,-77.9039 766.261,-92.6855 650.357,-76 644.818,-75.2027 638.995,-74.3487 633.243,-73.4959"/>
<polygon fill="midnightblue" stroke="midnightblue" points="633.451,-69.9882 623.044,-71.9746 632.418,-76.9116 633.451,-69.9882"/>
</g>
<!-- Node36 -->
<g id="node36" class="node"><title>Node36</title>
<g id="a_node36"><a xlink:href="../../d1/d62/Mesh_8hpp.html" target="_top" xlink:title="Mesh.hpp">
<polygon fill="none" stroke="black" points="1296.86,-112.5 1296.86,-131.5 1355.86,-131.5 1355.86,-112.5 1296.86,-112.5"/>
<text text-anchor="middle" x="1326.36" y="-119.5" font-family="Helvetica,sans-Serif" font-size="10.00">Mesh.hpp</text>
</a>
</g>
</g>
<!-- Node35&#45;&gt;Node36 -->
<g id="edge57" class="edge"><title>Node35&#45;&gt;Node36</title>
<path fill="none" stroke="midnightblue" d="M1312.16,-168.083C1314.44,-160.849 1317.73,-150.409 1320.57,-141.397"/>
<polygon fill="midnightblue" stroke="midnightblue" points="1323.94,-142.341 1323.6,-131.751 1317.26,-140.239 1323.94,-142.341"/>
</g>
<!-- Node36&#45;&gt;Node3 -->
<g id="edge60" class="edge"><title>Node36&#45;&gt;Node3</title>
<path fill="none" stroke="midnightblue" d="M1316.6,-112.331C1300.89,-98.7385 1268.57,-72.2835 1237.36,-56 1209.47,-41.4527 1175.89,-30.024 1149.7,-22.3243"/>
<polygon fill="midnightblue" stroke="midnightblue" points="1150.64,-18.9507 1140.06,-19.5573 1148.71,-25.6793 1150.64,-18.9507"/>
</g>
<!-- Node36&#45;&gt;Node14 -->
<g id="edge59" class="edge"><title>Node36&#45;&gt;Node14</title>
<path fill="none" stroke="midnightblue" d="M1296.77,-115.17C1246.2,-105.203 1143.3,-84.9237 1088.54,-74.1308"/>
<polygon fill="midnightblue" stroke="midnightblue" points="1089.07,-70.6673 1078.58,-72.1675 1087.71,-77.5352 1089.07,-70.6673"/>
</g>
<!-- Node36&#45;&gt;Node22 -->
<g id="edge58" class="edge"><title>Node36&#45;&gt;Node22</title>
<path fill="none" stroke="midnightblue" d="M1356.3,-120.534C1418.98,-118.858 1560.67,-111.176 1590.36,-76 1596.09,-69.207 1596.01,-62.8578 1590.36,-56 1565.41,-25.7544 1448.42,-15.5886 1390.71,-12.3783"/>
<polygon fill="midnightblue" stroke="midnightblue" points="1390.83,-8.87977 1380.66,-11.8565 1390.47,-15.8704 1390.83,-8.87977"/>
</g>
<!-- Node37 -->
<g id="node37" class="node"><title>Node37</title>
<polygon fill="none" stroke="#bfbfbf" points="1284.86,-56.5 1284.86,-75.5 1367.86,-75.5 1367.86,-56.5 1284.86,-56.5"/>
<text text-anchor="middle" x="1326.36" y="-63.5" font-family="Helvetica,sans-Serif" font-size="10.00">assimp/mesh.h</text>
</g>
<!-- Node36&#45;&gt;Node37 -->
<g id="edge61" class="edge"><title>Node36&#45;&gt;Node37</title>
<path fill="none" stroke="midnightblue" d="M1326.36,-112.083C1326.36,-105.006 1326.36,-94.8611 1326.36,-85.9865"/>
<polygon fill="midnightblue" stroke="midnightblue" points="1329.86,-85.751 1326.36,-75.7511 1322.86,-85.7511 1329.86,-85.751"/>
</g>
<!-- Node38 -->
<g id="node38" class="node"><title>Node38</title>
<g id="a_node38"><a xlink:href="../../da/d04/BufferObject_8hpp.html" target="_top" xlink:title="BufferObject.hpp">
<polygon fill="none" stroke="black" points="1491.36,-56.5 1491.36,-75.5 1581.36,-75.5 1581.36,-56.5 1491.36,-56.5"/>
<text text-anchor="middle" x="1536.36" y="-63.5" font-family="Helvetica,sans-Serif" font-size="10.00">BufferObject.hpp</text>
</a>
</g>
</g>
<!-- Node36&#45;&gt;Node38 -->
<g id="edge62" class="edge"><title>Node36&#45;&gt;Node38</title>
<path fill="none" stroke="midnightblue" d="M1356,-113.378C1391.83,-104.165 1452.39,-88.592 1493.35,-78.0597"/>
<polygon fill="midnightblue" stroke="midnightblue" points="1494.24,-81.4439 1503.05,-75.5637 1492.5,-74.6644 1494.24,-81.4439"/>
</g>
<!-- Node39 -->
<g id="node39" class="node"><title>Node39</title>
<g id="a_node39"><a xlink:href="../../df/d20/ArrayObject_8hpp.html" target="_top" xlink:title="ArrayObject.hpp">
<polygon fill="none" stroke="black" points="1385.86,-56.5 1385.86,-75.5 1472.86,-75.5 1472.86,-56.5 1385.86,-56.5"/>
<text text-anchor="middle" x="1429.36" y="-63.5" font-family="Helvetica,sans-Serif" font-size="10.00">ArrayObject.hpp</text>
</a>
</g>
</g>
<!-- Node36&#45;&gt;Node39 -->
<g id="edge65" class="edge"><title>Node36&#45;&gt;Node39</title>
<path fill="none" stroke="midnightblue" d="M1342.91,-112.324C1359.35,-103.703 1384.79,-90.3643 1403.83,-80.3855"/>
<polygon fill="midnightblue" stroke="midnightblue" points="1405.62,-83.3977 1412.85,-75.6545 1402.37,-77.198 1405.62,-83.3977"/>
</g>
<!-- Node38&#45;&gt;Node3 -->
<g id="edge64" class="edge"><title>Node38&#45;&gt;Node3</title>
<path fill="none" stroke="midnightblue" d="M1491.3,-57.3312C1488.28,-56.8656 1485.27,-56.4174 1482.36,-56 1363.35,-38.9703 1222.51,-23.3089 1151.75,-15.7502"/>
<polygon fill="midnightblue" stroke="midnightblue" points="1151.73,-12.2287 1141.42,-14.6511 1150.99,-19.1895 1151.73,-12.2287"/>
</g>
<!-- Node38&#45;&gt;Node22 -->
<g id="edge63" class="edge"><title>Node38&#45;&gt;Node22</title>
<path fill="none" stroke="midnightblue" d="M1508.15,-56.4435C1476.08,-46.7141 1423.84,-30.8642 1390.29,-20.688"/>
<polygon fill="midnightblue" stroke="midnightblue" points="1391.11,-17.2789 1380.52,-17.7251 1389.08,-23.9775 1391.11,-17.2789"/>
</g>
<!-- Node40&#45;&gt;Node21 -->
<g id="edge67" class="edge"><title>Node40&#45;&gt;Node21</title>
<path fill="none" stroke="midnightblue" d="M783.102,-169.995C710.609,-159.45 582.985,-139.895 576.357,-132 565.261,-118.783 571.899,-98.8355 579.343,-84.5261"/>
<polygon fill="midnightblue" stroke="midnightblue" points="582.481,-86.0889 584.417,-75.6724 576.408,-82.6083 582.481,-86.0889"/>
</g>
<!-- Node41 -->
<g id="node41" class="node"><title>Node41</title>
<g id="a_node41"><a xlink:href="../../d0/ddc/Texture_8hpp.html" target="_top" xlink:title="Texture.hpp">
<polygon fill="none" stroke="black" points="330.357,-112.5 330.357,-131.5 398.357,-131.5 398.357,-112.5 330.357,-112.5"/>
<text text-anchor="middle" x="364.357" y="-119.5" font-family="Helvetica,sans-Serif" font-size="10.00">Texture.hpp</text>
</a>
</g>
</g>
<!-- Node40&#45;&gt;Node41 -->
<g id="edge68" class="edge"><title>Node40&#45;&gt;Node41</title>
<path fill="none" stroke="midnightblue" d="M783.27,-172.431C691.212,-163.763 494.866,-144.779 408.536,-132.01"/>
<polygon fill="midnightblue" stroke="midnightblue" points="408.982,-128.538 398.567,-130.485 407.923,-135.457 408.982,-128.538"/>
</g>
<!-- Node42 -->
<g id="node42" class="node"><title>Node42</title>
<polygon fill="none" stroke="#bfbfbf" points="283.857,-56.5 283.857,-75.5 372.857,-75.5 372.857,-56.5 283.857,-56.5"/>
<text text-anchor="middle" x="328.357" y="-63.5" font-family="Helvetica,sans-Serif" font-size="10.00">assimp/texture.h</text>
</g>
<!-- Node41&#45;&gt;Node42 -->
<g id="edge69" class="edge"><title>Node41&#45;&gt;Node42</title>
<path fill="none" stroke="midnightblue" d="M358.412,-112.083C353.38,-104.534 346.02,-93.4948 339.844,-84.2298"/>
<polygon fill="midnightblue" stroke="midnightblue" points="342.65,-82.1301 334.191,-75.7511 336.826,-86.0131 342.65,-82.1301"/>
</g>
</g>
</svg>
