<?xml version="1.0" encoding="UTF-8" standalone="no"?>
<!DOCTYPE svg PUBLIC "-//W3C//DTD SVG 1.1//EN"
 "http://www.w3.org/Graphics/SVG/1.1/DTD/svg11.dtd">
<!-- Generated by graphviz version 2.38.0 (20140413.2041)
 -->
<!-- Title: engine/Camera/Camera.hpp Pages: 1 -->
<!--zoomable 308 -->
<svg id="main" version="1.1" xmlns="http://www.w3.org/2000/svg" xmlns:xlink="http://www.w3.org/1999/xlink" xml:space="preserve" onload="init(evt)">
<style type="text/css"><![CDATA[
.edge:hover path { stroke: red; }
.edge:hover polygon { stroke: red; fill: red; }
]]></style>
<script type="text/javascript"><![CDATA[
var edges = document.getElementsByTagName('g');
if (edges && edges.length) {
  for (var i=0;i<edges.length;i++) {
    if (edges[i].id.substr(0,4)=='edge') {
      edges[i].setAttribute('class','edge');
    }
  }
}
]]></script>
        <defs>
                <circle id="rim" cx="0" cy="0" r="7"/>
                <circle id="rim2" cx="0" cy="0" r="3.5"/>
                <g id="zoomPlus">
                        <use xlink:href="#rim" fill="#404040">
                                <set attributeName="fill" to="#808080" begin="zoomplus.mouseover" end="zoomplus.mouseout"/>
                        </use>
                        <path d="M-4,0h8M0,-4v8" fill="none" stroke="white" stroke-width="1.5" pointer-events="none"/>
                </g>
                <g id="zoomMin">
                        <use xlink:href="#rim" fill="#404040">
                                <set attributeName="fill" to="#808080" begin="zoomminus.mouseover" end="zoomminus.mouseout"/>
                        </use>
                        <path d="M-4,0h8" fill="none" stroke="white" stroke-width="1.5" pointer-events="none"/>
                </g>
                <g id="dirArrow">
                        <path fill="none" stroke="white" stroke-width="1.5" d="M0,-3.0v7 M-2.5,-0.5L0,-3.0L2.5,-0.5"/>
                </g>
               <g id="resetDef">
                       <use xlink:href="#rim2" fill="#404040">
                               <set attributeName="fill" to="#808080" begin="reset.mouseover" end="reset.mouseout"/>
                       </use>
               </g>
        </defs>

<script type="text/javascript">
var viewWidth = 828;
var viewHeight = 308;
var sectionId = 'dynsection-0';
</script>
<script xlink:href="../../svgpan.js"/>
<svg id="graph" class="graph">
<g id="viewport">
<title>engine/Camera/Camera.hpp</title>
<!-- Node1 -->
<g id="node1" class="node"><title>Node1</title>
<polygon fill="#bfbfbf" stroke="black" points="0,-280.5 0,-299.5 139,-299.5 139,-280.5 0,-280.5"/>
<text text-anchor="middle" x="69.5" y="-287.5" font-family="Helvetica,sans-Serif" font-size="10.00">engine/Camera/Camera.hpp</text>
</g>
<!-- Node2 -->
<g id="node2" class="node"><title>Node2</title>
<polygon fill="none" stroke="#bfbfbf" points="243.5,-56.5 243.5,-75.5 313.5,-75.5 313.5,-56.5 243.5,-56.5"/>
<text text-anchor="middle" x="278.5" y="-63.5" font-family="Helvetica,sans-Serif" font-size="10.00">glm/glm.hpp</text>
</g>
<!-- Node1&#45;&gt;Node2 -->
<g id="edge1" class="edge"><title>Node1&#45;&gt;Node2</title>
<path fill="none" stroke="midnightblue" d="M61.2726,-280.473C43.2163,-260.677 3.06694,-210.087 20.5,-168 53.7174,-87.8061 168.301,-70.4843 233.035,-67.2445"/>
<polygon fill="midnightblue" stroke="midnightblue" points="233.51,-70.7282 243.36,-66.826 233.227,-63.734 233.51,-70.7282"/>
</g>
<!-- Node3 -->
<g id="node3" class="node"><title>Node3</title>
<g id="a_node3"><a xlink:href="../../da/d83/Transform_8hpp.html" target="_top" xlink:title="Transform.hpp">
<polygon fill="none" stroke="black" points="29.5,-168.5 29.5,-187.5 109.5,-187.5 109.5,-168.5 29.5,-168.5"/>
<text text-anchor="middle" x="69.5" y="-175.5" font-family="Helvetica,sans-Serif" font-size="10.00">Transform.hpp</text>
</a>
</g>
</g>
<!-- Node1&#45;&gt;Node3 -->
<g id="edge2" class="edge"><title>Node1&#45;&gt;Node3</title>
<path fill="none" stroke="midnightblue" d="M69.5,-280.368C69.5,-262.617 69.5,-221.666 69.5,-197.597"/>
<polygon fill="midnightblue" stroke="midnightblue" points="73.0001,-197.591 69.5,-187.591 66.0001,-197.591 73.0001,-197.591"/>
</g>
<!-- Node4 -->
<g id="node4" class="node"><title>Node4</title>
<g id="a_node4"><a xlink:href="../../d4/db5/GameObject_8hpp.html" target="_top" xlink:title="GameObject.hpp">
<polygon fill="none" stroke="black" points="176.5,-224.5 176.5,-243.5 266.5,-243.5 266.5,-224.5 176.5,-224.5"/>
<text text-anchor="middle" x="221.5" y="-231.5" font-family="Helvetica,sans-Serif" font-size="10.00">GameObject.hpp</text>
</a>
</g>
</g>
<!-- Node1&#45;&gt;Node4 -->
<g id="edge4" class="edge"><title>Node1&#45;&gt;Node4</title>
<path fill="none" stroke="midnightblue" d="M93.5849,-280.444C119.045,-271.399 159.394,-257.064 187.959,-246.916"/>
<polygon fill="midnightblue" stroke="midnightblue" points="189.277,-250.162 197.528,-243.516 186.933,-243.566 189.277,-250.162"/>
</g>
<!-- Node3&#45;&gt;Node2 -->
<g id="edge3" class="edge"><title>Node3&#45;&gt;Node2</title>
<path fill="none" stroke="midnightblue" d="M70.155,-168.417C71.695,-154.453 76.795,-126.885 93.5,-112 131.949,-77.7401 192.118,-68.5134 233.33,-66.5392"/>
<polygon fill="midnightblue" stroke="midnightblue" points="233.505,-70.0353 243.374,-66.1828 233.256,-63.0397 233.505,-70.0353"/>
</g>
<!-- Node4&#45;&gt;Node2 -->
<g id="edge5" class="edge"><title>Node4&#45;&gt;Node2</title>
<path fill="none" stroke="midnightblue" d="M205.523,-224.454C170.88,-204.825 94.4569,-154.904 126.5,-112 150.856,-79.3878 197.804,-69.438 233.11,-66.8501"/>
<polygon fill="midnightblue" stroke="midnightblue" points="233.404,-70.3392 243.192,-66.2843 233.011,-63.3502 233.404,-70.3392"/>
</g>
<!-- Node4&#45;&gt;Node3 -->
<g id="edge8" class="edge"><title>Node4&#45;&gt;Node3</title>
<path fill="none" stroke="midnightblue" d="M197.415,-224.444C171.955,-215.399 131.606,-201.064 103.041,-190.916"/>
<polygon fill="midnightblue" stroke="midnightblue" points="104.067,-187.566 93.4722,-187.516 101.723,-194.162 104.067,-187.566"/>
</g>
<!-- Node5 -->
<g id="node5" class="node"><title>Node5</title>
<polygon fill="none" stroke="#bfbfbf" points="615.5,-56.5 615.5,-75.5 667.5,-75.5 667.5,-56.5 615.5,-56.5"/>
<text text-anchor="middle" x="641.5" y="-63.5" font-family="Helvetica,sans-Serif" font-size="10.00">memory</text>
</g>
<!-- Node4&#45;&gt;Node5 -->
<g id="edge6" class="edge"><title>Node4&#45;&gt;Node5</title>
<path fill="none" stroke="midnightblue" d="M266.745,-233.03C394.072,-232 750.304,-221.074 813.5,-132 848.351,-82.8788 738.406,-70.8563 678.165,-67.9301"/>
<polygon fill="midnightblue" stroke="midnightblue" points="678.033,-64.4214 667.894,-67.4953 677.737,-71.4152 678.033,-64.4214"/>
</g>
<!-- Node6 -->
<g id="node6" class="node"><title>Node6</title>
<g id="a_node6"><a xlink:href="../../de/df7/worldparticles_8hpp.html" target="_top" xlink:title="wordparticles configuration file ">
<polygon fill="none" stroke="black" points="136,-112.5 136,-131.5 231,-131.5 231,-112.5 136,-112.5"/>
<text text-anchor="middle" x="183.5" y="-119.5" font-family="Helvetica,sans-Serif" font-size="10.00">worldparticles.hpp</text>
</a>
</g>
</g>
<!-- Node4&#45;&gt;Node6 -->
<g id="edge7" class="edge"><title>Node4&#45;&gt;Node6</title>
<path fill="none" stroke="midnightblue" d="M218.518,-224.368C212.358,-206.537 198.111,-165.295 189.812,-141.272"/>
<polygon fill="midnightblue" stroke="midnightblue" points="193.041,-139.9 186.468,-131.591 186.425,-142.186 193.041,-139.9"/>
</g>
<!-- Node7 -->
<g id="node7" class="node"><title>Node7</title>
<g id="a_node7"><a xlink:href="../../d1/dca/IRenderer_8hpp.html" target="_top" xlink:title="IRenderer.hpp">
<polygon fill="none" stroke="black" points="217.5,-168.5 217.5,-187.5 295.5,-187.5 295.5,-168.5 217.5,-168.5"/>
<text text-anchor="middle" x="256.5" y="-175.5" font-family="Helvetica,sans-Serif" font-size="10.00">IRenderer.hpp</text>
</a>
</g>
</g>
<!-- Node4&#45;&gt;Node7 -->
<g id="edge9" class="edge"><title>Node4&#45;&gt;Node7</title>
<path fill="none" stroke="midnightblue" d="M227.28,-224.083C232.172,-216.534 239.327,-205.495 245.333,-196.23"/>
<polygon fill="midnightblue" stroke="midnightblue" points="248.326,-198.046 250.828,-187.751 242.452,-194.239 248.326,-198.046"/>
</g>
<!-- Node8 -->
<g id="node8" class="node"><title>Node8</title>
<g id="a_node8"><a xlink:href="../../d0/d70/Material_8hpp.html" target="_top" xlink:title="Material.hpp">
<polygon fill="none" stroke="black" points="401.5,-168.5 401.5,-187.5 471.5,-187.5 471.5,-168.5 401.5,-168.5"/>
<text text-anchor="middle" x="436.5" y="-175.5" font-family="Helvetica,sans-Serif" font-size="10.00">Material.hpp</text>
</a>
</g>
</g>
<!-- Node4&#45;&gt;Node8 -->
<g id="edge13" class="edge"><title>Node4&#45;&gt;Node8</title>
<path fill="none" stroke="midnightblue" d="M255.567,-224.444C292.68,-215.122 352.161,-200.183 392.715,-189.997"/>
<polygon fill="midnightblue" stroke="midnightblue" points="393.746,-193.347 402.592,-187.516 392.041,-186.558 393.746,-193.347"/>
</g>
<!-- Node13 -->
<g id="node13" class="node"><title>Node13</title>
<g id="a_node13"><a xlink:href="../../d1/d62/Mesh_8hpp.html" target="_top" xlink:title="Mesh.hpp">
<polygon fill="none" stroke="black" points="586,-168.5 586,-187.5 645,-187.5 645,-168.5 586,-168.5"/>
<text text-anchor="middle" x="615.5" y="-175.5" font-family="Helvetica,sans-Serif" font-size="10.00">Mesh.hpp</text>
</a>
</g>
</g>
<!-- Node4&#45;&gt;Node13 -->
<g id="edge22" class="edge"><title>Node4&#45;&gt;Node13</title>
<path fill="none" stroke="midnightblue" d="M266.697,-226.806C344.337,-216.164 501.797,-194.584 575.616,-184.466"/>
<polygon fill="midnightblue" stroke="midnightblue" points="576.449,-187.885 585.881,-183.059 575.498,-180.95 576.449,-187.885"/>
</g>
<!-- Node7&#45;&gt;Node2 -->
<g id="edge10" class="edge"><title>Node7&#45;&gt;Node2</title>
<path fill="none" stroke="midnightblue" d="M258.226,-168.368C261.777,-150.617 269.967,-109.666 274.781,-85.5974"/>
<polygon fill="midnightblue" stroke="midnightblue" points="278.253,-86.0837 276.782,-75.5914 271.388,-84.7108 278.253,-86.0837"/>
</g>
<!-- Node7&#45;&gt;Node5 -->
<g id="edge11" class="edge"><title>Node7&#45;&gt;Node5</title>
<path fill="none" stroke="midnightblue" d="M295.533,-174.993C371.109,-170.566 534.315,-158.203 583.5,-132 604.06,-121.047 620.876,-99.7426 631.011,-84.509"/>
<polygon fill="midnightblue" stroke="midnightblue" points="634.035,-86.2755 636.431,-75.9552 628.122,-82.5287 634.035,-86.2755"/>
</g>
<!-- Node7&#45;&gt;Node6 -->
<g id="edge12" class="edge"><title>Node7&#45;&gt;Node6</title>
<path fill="none" stroke="midnightblue" d="M244.771,-168.324C233.663,-160.107 216.758,-147.602 203.517,-137.807"/>
<polygon fill="midnightblue" stroke="midnightblue" points="205.563,-134.967 195.442,-131.834 201.4,-140.595 205.563,-134.967"/>
</g>
<!-- Node8&#45;&gt;Node2 -->
<g id="edge14" class="edge"><title>Node8&#45;&gt;Node2</title>
<path fill="none" stroke="midnightblue" d="M401.442,-169.275C377.05,-162.555 344.845,-150.866 321.5,-132 305.918,-119.408 293.977,-99.6385 286.677,-85.2061"/>
<polygon fill="midnightblue" stroke="midnightblue" points="289.662,-83.336 282.196,-75.8193 283.345,-86.3516 289.662,-83.336"/>
</g>
<!-- Node8&#45;&gt;Node5 -->
<g id="edge15" class="edge"><title>Node8&#45;&gt;Node5</title>
<path fill="none" stroke="midnightblue" d="M471.594,-177.569C511.691,-176.331 576.977,-168.293 617.5,-132 630.782,-120.105 636.729,-100.195 639.383,-85.5379"/>
<polygon fill="midnightblue" stroke="midnightblue" points="642.856,-85.9743 640.837,-75.5737 635.929,-84.9635 642.856,-85.9743"/>
</g>
<!-- Node9 -->
<g id="node9" class="node"><title>Node9</title>
<g id="a_node9"><a xlink:href="../../dc/ddb/ShaderProgram_8hpp.html" target="_top" xlink:title="ShaderProgram.hpp">
<polygon fill="none" stroke="black" points="472,-112.5 472,-131.5 575,-131.5 575,-112.5 472,-112.5"/>
<text text-anchor="middle" x="523.5" y="-119.5" font-family="Helvetica,sans-Serif" font-size="10.00">ShaderProgram.hpp</text>
</a>
</g>
</g>
<!-- Node8&#45;&gt;Node9 -->
<g id="edge16" class="edge"><title>Node8&#45;&gt;Node9</title>
<path fill="none" stroke="midnightblue" d="M450.478,-168.324C464.05,-159.9 484.88,-146.971 500.825,-137.074"/>
<polygon fill="midnightblue" stroke="midnightblue" points="502.906,-139.902 509.557,-131.655 499.214,-133.954 502.906,-139.902"/>
</g>
<!-- Node9&#45;&gt;Node2 -->
<g id="edge17" class="edge"><title>Node9&#45;&gt;Node2</title>
<path fill="none" stroke="midnightblue" d="M484.679,-112.444C440.9,-102.794 369.808,-87.125 323.601,-76.9407"/>
<polygon fill="midnightblue" stroke="midnightblue" points="324.086,-73.4636 313.567,-74.729 322.579,-80.2995 324.086,-73.4636"/>
</g>
<!-- Node9&#45;&gt;Node5 -->
<g id="edge19" class="edge"><title>Node9&#45;&gt;Node5</title>
<path fill="none" stroke="midnightblue" d="M542.197,-112.444C561.444,-103.636 591.652,-89.8116 613.7,-79.722"/>
<polygon fill="midnightblue" stroke="midnightblue" points="615.253,-82.8603 622.89,-75.5164 612.34,-76.4951 615.253,-82.8603"/>
</g>
<!-- Node10 -->
<g id="node10" class="node"><title>Node10</title>
<polygon fill="none" stroke="#bfbfbf" points="527.5,-56.5 527.5,-75.5 571.5,-75.5 571.5,-56.5 527.5,-56.5"/>
<text text-anchor="middle" x="549.5" y="-63.5" font-family="Helvetica,sans-Serif" font-size="10.00">vector</text>
</g>
<!-- Node9&#45;&gt;Node10 -->
<g id="edge18" class="edge"><title>Node9&#45;&gt;Node10</title>
<path fill="none" stroke="midnightblue" d="M527.793,-112.083C531.352,-104.691 536.522,-93.9533 540.924,-84.8111"/>
<polygon fill="midnightblue" stroke="midnightblue" points="544.102,-86.2795 545.287,-75.7511 537.795,-83.2427 544.102,-86.2795"/>
</g>
<!-- Node11 -->
<g id="node11" class="node"><title>Node11</title>
<g id="a_node11"><a xlink:href="../../d4/d6e/Shader_8hpp.html" target="_top" xlink:title="Shader.hpp">
<polygon fill="none" stroke="black" points="443.5,-56.5 443.5,-75.5 509.5,-75.5 509.5,-56.5 443.5,-56.5"/>
<text text-anchor="middle" x="476.5" y="-63.5" font-family="Helvetica,sans-Serif" font-size="10.00">Shader.hpp</text>
</a>
</g>
</g>
<!-- Node9&#45;&gt;Node11 -->
<g id="edge20" class="edge"><title>Node9&#45;&gt;Node11</title>
<path fill="none" stroke="midnightblue" d="M515.739,-112.083C508.963,-104.298 498.957,-92.8015 490.745,-83.3665"/>
<polygon fill="midnightblue" stroke="midnightblue" points="493.322,-80.9963 484.117,-75.7511 488.042,-85.592 493.322,-80.9963"/>
</g>
<!-- Node12 -->
<g id="node12" class="node"><title>Node12</title>
<polygon fill="none" stroke="#bfbfbf" points="456,-0.5 456,-19.5 497,-19.5 497,-0.5 456,-0.5"/>
<text text-anchor="middle" x="476.5" y="-7.5" font-family="Helvetica,sans-Serif" font-size="10.00">string</text>
</g>
<!-- Node11&#45;&gt;Node12 -->
<g id="edge21" class="edge"><title>Node11&#45;&gt;Node12</title>
<path fill="none" stroke="midnightblue" d="M476.5,-56.083C476.5,-49.0059 476.5,-38.8611 476.5,-29.9865"/>
<polygon fill="midnightblue" stroke="midnightblue" points="480,-29.751 476.5,-19.7511 473,-29.7511 480,-29.751"/>
</g>
<!-- Node13&#45;&gt;Node2 -->
<g id="edge25" class="edge"><title>Node13&#45;&gt;Node2</title>
<path fill="none" stroke="midnightblue" d="M585.8,-176.922C535.719,-175.718 432.326,-168.557 354.5,-132 329.838,-120.415 306.851,-98.6065 292.755,-83.4626"/>
<polygon fill="midnightblue" stroke="midnightblue" points="295.179,-80.9252 285.883,-75.8423 289.981,-85.6129 295.179,-80.9252"/>
</g>
<!-- Node13&#45;&gt;Node5 -->
<g id="edge24" class="edge"><title>Node13&#45;&gt;Node5</title>
<path fill="none" stroke="midnightblue" d="M645.125,-173.955C691.327,-168.527 777.163,-155.485 795.5,-132 828.553,-89.667 733.329,-74.5707 678.026,-69.4551"/>
<polygon fill="midnightblue" stroke="midnightblue" points="678.138,-65.952 667.875,-68.5858 677.54,-72.9264 678.138,-65.952"/>
</g>
<!-- Node13&#45;&gt;Node10 -->
<g id="edge23" class="edge"><title>Node13&#45;&gt;Node10</title>
<path fill="none" stroke="midnightblue" d="M645.003,-174.563C696.655,-169.177 794.944,-153.288 761.5,-112 755.829,-104.999 639.921,-83.2752 581.943,-72.785"/>
<polygon fill="midnightblue" stroke="midnightblue" points="582.293,-69.2918 571.831,-70.9631 581.052,-76.1809 582.293,-69.2918"/>
</g>
<!-- Node14 -->
<g id="node14" class="node"><title>Node14</title>
<polygon fill="none" stroke="#bfbfbf" points="670,-112.5 670,-131.5 753,-131.5 753,-112.5 670,-112.5"/>
<text text-anchor="middle" x="711.5" y="-119.5" font-family="Helvetica,sans-Serif" font-size="10.00">assimp/mesh.h</text>
</g>
<!-- Node13&#45;&gt;Node14 -->
<g id="edge26" class="edge"><title>Node13&#45;&gt;Node14</title>
<path fill="none" stroke="midnightblue" d="M630.924,-168.324C646.04,-159.822 669.315,-146.729 686.971,-136.797"/>
<polygon fill="midnightblue" stroke="midnightblue" points="689.114,-139.608 696.114,-131.655 685.683,-133.507 689.114,-139.608"/>
</g>
<!-- Node15 -->
<g id="node15" class="node"><title>Node15</title>
<g id="a_node15"><a xlink:href="../../da/d04/BufferObject_8hpp.html" target="_top" xlink:title="BufferObject.hpp">
<polygon fill="none" stroke="black" points="363.5,-112.5 363.5,-131.5 453.5,-131.5 453.5,-112.5 363.5,-112.5"/>
<text text-anchor="middle" x="408.5" y="-119.5" font-family="Helvetica,sans-Serif" font-size="10.00">BufferObject.hpp</text>
</a>
</g>
</g>
<!-- Node13&#45;&gt;Node15 -->
<g id="edge27" class="edge"><title>Node13&#45;&gt;Node15</title>
<path fill="none" stroke="midnightblue" d="M585.842,-169.263C550.493,-160.042 491.166,-144.565 450.96,-134.077"/>
<polygon fill="midnightblue" stroke="midnightblue" points="451.736,-130.662 441.177,-131.524 449.969,-137.435 451.736,-130.662"/>
</g>
<!-- Node15&#45;&gt;Node2 -->
<g id="edge29" class="edge"><title>Node15&#45;&gt;Node2</title>
<path fill="none" stroke="midnightblue" d="M387.901,-112.444C366.507,-103.557 332.819,-89.5632 308.476,-79.4514"/>
<polygon fill="midnightblue" stroke="midnightblue" points="309.58,-76.1203 299.003,-75.5164 306.895,-82.5848 309.58,-76.1203"/>
</g>
<!-- Node15&#45;&gt;Node10 -->
<g id="edge28" class="edge"><title>Node15&#45;&gt;Node10</title>
<path fill="none" stroke="midnightblue" d="M430.842,-112.444C454.253,-103.478 491.236,-89.314 517.69,-79.1827"/>
<polygon fill="midnightblue" stroke="midnightblue" points="519.176,-82.3615 527.263,-75.5164 516.672,-75.8245 519.176,-82.3615"/>
</g>
</g>
</svg>
        <g id="navigator" transform="translate(0 0)" fill="#404254">
                <rect fill="#f2f5e9" fill-opacity="0.5" stroke="#606060" stroke-width=".5" x="0" y="0" width="60" height="60"/>
                <use id="zoomplus" xlink:href="#zoomPlus" x="17" y="9" onmousedown="handleZoom(evt,'in')"/>
                <use id="zoomminus" xlink:href="#zoomMin" x="42" y="9" onmousedown="handleZoom(evt,'out')"/>
                <use id="reset" xlink:href="#resetDef" x="30" y="36" onmousedown="handleReset()"/>
                <g id="arrowUp" xlink:href="#dirArrow" transform="translate(30 24)" onmousedown="handlePan(0,-1)">
                  <use xlink:href="#rim" fill="#404040">
                        <set attributeName="fill" to="#808080" begin="arrowUp.mouseover" end="arrowUp.mouseout"/>
                  </use>
                  <path fill="none" stroke="white" stroke-width="1.5" d="M0,-3.0v7 M-2.5,-0.5L0,-3.0L2.5,-0.5"/>
                </g>
                <g id="arrowRight" xlink:href="#dirArrow" transform="rotate(90) translate(36 -43)" onmousedown="handlePan(1,0)">
                  <use xlink:href="#rim" fill="#404040">
                        <set attributeName="fill" to="#808080" begin="arrowRight.mouseover" end="arrowRight.mouseout"/>
                  </use>
                  <path fill="none" stroke="white" stroke-width="1.5" d="M0,-3.0v7 M-2.5,-0.5L0,-3.0L2.5,-0.5"/>
                </g>
                <g id="arrowDown" xlink:href="#dirArrow" transform="rotate(180) translate(-30 -48)" onmousedown="handlePan(0,1)">
                  <use xlink:href="#rim" fill="#404040">
                        <set attributeName="fill" to="#808080" begin="arrowDown.mouseover" end="arrowDown.mouseout"/>
                  </use>
                  <path fill="none" stroke="white" stroke-width="1.5" d="M0,-3.0v7 M-2.5,-0.5L0,-3.0L2.5,-0.5"/>
                </g>
                <g id="arrowLeft" xlink:href="#dirArrow" transform="rotate(270) translate(-36 17)" onmousedown="handlePan(-1,0)">
                  <use xlink:href="#rim" fill="#404040">
                        <set attributeName="fill" to="#808080" begin="arrowLeft.mouseover" end="arrowLeft.mouseout"/>
                  </use>
                  <path fill="none" stroke="white" stroke-width="1.5" d="M0,-3.0v7 M-2.5,-0.5L0,-3.0L2.5,-0.5"/>
                </g>
        </g>
        <svg viewBox="0 0 15 15" width="100%" height="30px" preserveAspectRatio="xMaxYMin meet">
         <g id="arrow_out" transform="scale(0.3 0.3)">
          <a xlink:href="Camera_8hpp__incl_org.svg" target="_base">
           <rect id="button" ry="5" rx="5" y="6" x="6" height="38" width="38"
                fill="#f2f5e9" fill-opacity="0.5" stroke="#606060" stroke-width="1.0"/>
           <path id="arrow"
             d="M 11.500037,31.436501 C 11.940474,20.09759 22.043105,11.32322 32.158766,21.979434 L 37.068811,17.246167 C 37.068811,17.246167 37.088388,32 37.088388,32 L 22.160133,31.978069 C 22.160133,31.978069 26.997745,27.140456 26.997745,27.140456 C 18.528582,18.264221 13.291696,25.230495 11.500037,31.436501 z"
             style="fill:#404040;"/>
          </a>
         </g>
        </svg>
</svg>
