<?xml version="1.0" encoding="UTF-8" standalone="no"?>
<!DOCTYPE svg PUBLIC "-//W3C//DTD SVG 1.1//EN"
 "http://www.w3.org/Graphics/SVG/1.1/DTD/svg11.dtd">
<!-- Generated by graphviz version 2.38.0 (20140413.2041)
 -->
<!-- Title: Event/EventRegister.cpp Pages: 1 -->
<svg width="308pt" height="84pt"
 viewBox="0.00 0.00 307.50 84.00" xmlns="http://www.w3.org/2000/svg" xmlns:xlink="http://www.w3.org/1999/xlink">
<g id="graph0" class="graph" transform="scale(1 1) rotate(0) translate(4 80)">
<title>Event/EventRegister.cpp</title>
<!-- Node1 -->
<g id="node1" class="node"><title>Node1</title>
<polygon fill="#bfbfbf" stroke="black" points="95.5,-56.5 95.5,-75.5 221.5,-75.5 221.5,-56.5 95.5,-56.5"/>
<text text-anchor="middle" x="158.5" y="-63.5" font-family="Helvetica,sans-Serif" font-size="10.00">Event/EventRegister.cpp</text>
</g>
<!-- Node2 -->
<g id="node2" class="node"><title>Node2</title>
<polygon fill="none" stroke="#bfbfbf" points="0,-0.5 0,-19.5 159,-19.5 159,-0.5 0,-0.5"/>
<text text-anchor="middle" x="79.5" y="-7.5" font-family="Helvetica,sans-Serif" font-size="10.00">Engine/Event/EventRegister.hpp</text>
</g>
<!-- Node1&#45;&gt;Node2 -->
<g id="edge1" class="edge"><title>Node1&#45;&gt;Node2</title>
<path fill="none" stroke="midnightblue" d="M145.807,-56.324C133.599,-47.979 114.922,-35.2122 100.497,-25.3524"/>
<polygon fill="midnightblue" stroke="midnightblue" points="102.392,-22.4082 92.1612,-19.6545 98.4418,-28.1871 102.392,-22.4082"/>
</g>
<!-- Node3 -->
<g id="node3" class="node"><title>Node3</title>
<polygon fill="none" stroke="#bfbfbf" points="177.5,-0.5 177.5,-19.5 299.5,-19.5 299.5,-0.5 177.5,-0.5"/>
<text text-anchor="middle" x="238.5" y="-7.5" font-family="Helvetica,sans-Serif" font-size="10.00">Engine/Event/Event.hpp</text>
</g>
<!-- Node1&#45;&gt;Node3 -->
<g id="edge2" class="edge"><title>Node1&#45;&gt;Node3</title>
<path fill="none" stroke="midnightblue" d="M171.353,-56.324C183.716,-47.979 202.63,-35.2122 217.237,-25.3524"/>
<polygon fill="midnightblue" stroke="midnightblue" points="219.348,-28.1503 225.679,-19.6545 215.432,-22.3483 219.348,-28.1503"/>
</g>
</g>
</svg>
