<?xml version="1.0" encoding="UTF-8" standalone="no"?>
<!DOCTYPE svg PUBLIC "-//W3C//DTD SVG 1.1//EN"
 "http://www.w3.org/Graphics/SVG/1.1/DTD/svg11.dtd">
<!-- Generated by graphviz version 2.38.0 (20140413.2041)
 -->
<!-- Title: engine/Scene/Scene.hpp Pages: 1 -->
<!--zoomable 252 -->
<svg id="main" version="1.1" xmlns="http://www.w3.org/2000/svg" xmlns:xlink="http://www.w3.org/1999/xlink" xml:space="preserve" onload="init(evt)">
<style type="text/css"><![CDATA[
.edge:hover path { stroke: red; }
.edge:hover polygon { stroke: red; fill: red; }
]]></style>
<script type="text/javascript"><![CDATA[
var edges = document.getElementsByTagName('g');
if (edges && edges.length) {
  for (var i=0;i<edges.length;i++) {
    if (edges[i].id.substr(0,4)=='edge') {
      edges[i].setAttribute('class','edge');
    }
  }
}
]]></script>
        <defs>
                <circle id="rim" cx="0" cy="0" r="7"/>
                <circle id="rim2" cx="0" cy="0" r="3.5"/>
                <g id="zoomPlus">
                        <use xlink:href="#rim" fill="#404040">
                                <set attributeName="fill" to="#808080" begin="zoomplus.mouseover" end="zoomplus.mouseout"/>
                        </use>
                        <path d="M-4,0h8M0,-4v8" fill="none" stroke="white" stroke-width="1.5" pointer-events="none"/>
                </g>
                <g id="zoomMin">
                        <use xlink:href="#rim" fill="#404040">
                                <set attributeName="fill" to="#808080" begin="zoomminus.mouseover" end="zoomminus.mouseout"/>
                        </use>
                        <path d="M-4,0h8" fill="none" stroke="white" stroke-width="1.5" pointer-events="none"/>
                </g>
                <g id="dirArrow">
                        <path fill="none" stroke="white" stroke-width="1.5" d="M0,-3.0v7 M-2.5,-0.5L0,-3.0L2.5,-0.5"/>
                </g>
               <g id="resetDef">
                       <use xlink:href="#rim2" fill="#404040">
                               <set attributeName="fill" to="#808080" begin="reset.mouseover" end="reset.mouseout"/>
                       </use>
               </g>
        </defs>

<script type="text/javascript">
var viewWidth = 1384;
var viewHeight = 252;
var sectionId = 'dynsection-0';
</script>
<script xlink:href="../../svgpan.js"/>
<svg id="graph" class="graph">
<g id="viewport">
<title>engine/Scene/Scene.hpp</title>
<!-- Node1 -->
<g id="node1" class="node"><title>Node1</title>
<polygon fill="#bfbfbf" stroke="black" points="914.5,-224.5 914.5,-243.5 1039.5,-243.5 1039.5,-224.5 914.5,-224.5"/>
<text text-anchor="middle" x="977" y="-231.5" font-family="Helvetica,sans-Serif" font-size="10.00">engine/Scene/Scene.hpp</text>
</g>
<!-- Node2 -->
<g id="node2" class="node"><title>Node2</title>
<polygon fill="none" stroke="#bfbfbf" points="150,-56.5 150,-75.5 202,-75.5 202,-56.5 150,-56.5"/>
<text text-anchor="middle" x="176" y="-63.5" font-family="Helvetica,sans-Serif" font-size="10.00">memory</text>
</g>
<!-- Node1&#45;&gt;Node2 -->
<g id="edge1" class="edge"><title>Node1&#45;&gt;Node2</title>
<path fill="none" stroke="midnightblue" d="M914.212,-231.15C754.534,-225.429 337.443,-203.826 222,-132 204.261,-120.963 191.435,-100.305 183.903,-85.2315"/>
<polygon fill="midnightblue" stroke="midnightblue" points="186.939,-83.4586 179.54,-75.875 180.595,-86.4173 186.939,-83.4586"/>
</g>
<!-- Node3 -->
<g id="node3" class="node"><title>Node3</title>
<polygon fill="none" stroke="#bfbfbf" points="1179.5,-112.5 1179.5,-131.5 1208.5,-131.5 1208.5,-112.5 1179.5,-112.5"/>
<text text-anchor="middle" x="1194" y="-119.5" font-family="Helvetica,sans-Serif" font-size="10.00">list</text>
</g>
<!-- Node1&#45;&gt;Node3 -->
<g id="edge2" class="edge"><title>Node1&#45;&gt;Node3</title>
<path fill="none" stroke="midnightblue" d="M1039.74,-231.212C1108.99,-227.759 1214.01,-217.643 1239,-188 1252.76,-171.676 1233.18,-151.192 1215.7,-137.63"/>
<polygon fill="midnightblue" stroke="midnightblue" points="1217.58,-134.666 1207.45,-131.577 1213.44,-140.312 1217.58,-134.666"/>
</g>
<!-- Node4 -->
<g id="node4" class="node"><title>Node4</title>
<g id="a_node4"><a xlink:href="../../dd/db8/Renderer_8hpp.html" target="_top" xlink:title="Renderer.hpp">
<polygon fill="none" stroke="black" points="1044.5,-168.5 1044.5,-187.5 1119.5,-187.5 1119.5,-168.5 1044.5,-168.5"/>
<text text-anchor="middle" x="1082" y="-175.5" font-family="Helvetica,sans-Serif" font-size="10.00">Renderer.hpp</text>
</a>
</g>
</g>
<!-- Node1&#45;&gt;Node4 -->
<g id="edge3" class="edge"><title>Node1&#45;&gt;Node4</title>
<path fill="none" stroke="midnightblue" d="M993.87,-224.324C1010.71,-215.664 1036.81,-202.242 1056.24,-192.249"/>
<polygon fill="midnightblue" stroke="midnightblue" points="1057.88,-195.341 1065.17,-187.655 1054.68,-189.116 1057.88,-195.341"/>
</g>
<!-- Node5 -->
<g id="node5" class="node"><title>Node5</title>
<g id="a_node5"><a xlink:href="../../de/dbe/SpatialGraph_8hpp.html" target="_top" xlink:title="SpatialGraph.hpp">
<polygon fill="none" stroke="black" points="1138,-168.5 1138,-187.5 1230,-187.5 1230,-168.5 1138,-168.5"/>
<text text-anchor="middle" x="1184" y="-175.5" font-family="Helvetica,sans-Serif" font-size="10.00">SpatialGraph.hpp</text>
</a>
</g>
</g>
<!-- Node1&#45;&gt;Node5 -->
<g id="edge5" class="edge"><title>Node1&#45;&gt;Node5</title>
<path fill="none" stroke="midnightblue" d="M1009.8,-224.444C1045.38,-215.162 1102.31,-200.309 1141.35,-190.127"/>
<polygon fill="midnightblue" stroke="midnightblue" points="1142.56,-193.427 1151.35,-187.516 1140.79,-186.654 1142.56,-193.427"/>
</g>
<!-- Node6 -->
<g id="node6" class="node"><title>Node6</title>
<g id="a_node6"><a xlink:href="../../d8/d58/SceneGraph_8hpp.html" target="_top" xlink:title="SceneGraph.hpp">
<polygon fill="none" stroke="black" points="1286.5,-168.5 1286.5,-187.5 1375.5,-187.5 1375.5,-168.5 1286.5,-168.5"/>
<text text-anchor="middle" x="1331" y="-175.5" font-family="Helvetica,sans-Serif" font-size="10.00">SceneGraph.hpp</text>
</a>
</g>
</g>
<!-- Node1&#45;&gt;Node6 -->
<g id="edge7" class="edge"><title>Node1&#45;&gt;Node6</title>
<path fill="none" stroke="midnightblue" d="M1033.09,-224.444C1099.71,-214.281 1210.11,-197.441 1276.17,-187.364"/>
<polygon fill="midnightblue" stroke="midnightblue" points="1277.02,-190.775 1286.38,-185.807 1275.97,-183.855 1277.02,-190.775"/>
</g>
<!-- Node8 -->
<g id="node8" class="node"><title>Node8</title>
<g id="a_node8"><a xlink:href="../../d1/d93/ShaderProgramLibrary_8hpp.html" target="_top" xlink:title="ShaderProgramLibrary.hpp">
<polygon fill="none" stroke="black" points="582,-168.5 582,-187.5 714,-187.5 714,-168.5 582,-168.5"/>
<text text-anchor="middle" x="648" y="-175.5" font-family="Helvetica,sans-Serif" font-size="10.00">ShaderProgramLibrary.hpp</text>
</a>
</g>
</g>
<!-- Node1&#45;&gt;Node8 -->
<g id="edge9" class="edge"><title>Node1&#45;&gt;Node8</title>
<path fill="none" stroke="midnightblue" d="M924.869,-224.444C866.513,-214.865 772.018,-199.356 709.941,-189.167"/>
<polygon fill="midnightblue" stroke="midnightblue" points="710.322,-185.682 699.887,-187.516 709.188,-192.59 710.322,-185.682"/>
</g>
<!-- Node19 -->
<g id="node19" class="node"><title>Node19</title>
<g id="a_node19"><a xlink:href="../../d2/d26/MaterialLibrary_8hpp.html" target="_top" xlink:title="MaterialLibrary.hpp">
<polygon fill="none" stroke="black" points="72.5,-168.5 72.5,-187.5 171.5,-187.5 171.5,-168.5 72.5,-168.5"/>
<text text-anchor="middle" x="122" y="-175.5" font-family="Helvetica,sans-Serif" font-size="10.00">MaterialLibrary.hpp</text>
</a>
</g>
</g>
<!-- Node1&#45;&gt;Node19 -->
<g id="edge27" class="edge"><title>Node1&#45;&gt;Node19</title>
<path fill="none" stroke="midnightblue" d="M914.313,-231.2C780.351,-226.965 456.348,-214.653 186,-188 184.534,-187.856 183.051,-187.702 181.555,-187.541"/>
<polygon fill="midnightblue" stroke="midnightblue" points="181.902,-184.058 171.566,-186.383 181.096,-191.012 181.902,-184.058"/>
</g>
<!-- Node22 -->
<g id="node22" class="node"><title>Node22</title>
<g id="a_node22"><a xlink:href="../../d1/da3/AnimationLibrary_8hpp.html" target="_top" xlink:title="AnimationLibrary.hpp">
<polygon fill="none" stroke="black" points="1053,-112.5 1053,-131.5 1161,-131.5 1161,-112.5 1053,-112.5"/>
<text text-anchor="middle" x="1107" y="-119.5" font-family="Helvetica,sans-Serif" font-size="10.00">AnimationLibrary.hpp</text>
</a>
</g>
</g>
<!-- Node1&#45;&gt;Node22 -->
<g id="edge34" class="edge"><title>Node1&#45;&gt;Node22</title>
<path fill="none" stroke="midnightblue" d="M983.462,-224.294C993.518,-211.11 1013.95,-185.742 1035,-168 1049.33,-155.92 1067.19,-144.739 1081.53,-136.543"/>
<polygon fill="midnightblue" stroke="midnightblue" points="1083.35,-139.537 1090.38,-131.61 1079.94,-133.423 1083.35,-139.537"/>
</g>
<!-- Node25 -->
<g id="node25" class="node"><title>Node25</title>
<g id="a_node25"><a xlink:href="../../dd/de2/MeshLibrary_8hpp.html" target="_top" xlink:title="MeshLibrary.hpp">
<polygon fill="none" stroke="black" points="783.5,-168.5 783.5,-187.5 872.5,-187.5 872.5,-168.5 783.5,-168.5"/>
<text text-anchor="middle" x="828" y="-175.5" font-family="Helvetica,sans-Serif" font-size="10.00">MeshLibrary.hpp</text>
</a>
</g>
</g>
<!-- Node1&#45;&gt;Node25 -->
<g id="edge40" class="edge"><title>Node1&#45;&gt;Node25</title>
<path fill="none" stroke="midnightblue" d="M953.391,-224.444C928.542,-215.438 889.226,-201.189 861.246,-191.049"/>
<polygon fill="midnightblue" stroke="midnightblue" points="862.093,-187.633 851.499,-187.516 859.708,-194.214 862.093,-187.633"/>
</g>
<!-- Node30 -->
<g id="node30" class="node"><title>Node30</title>
<g id="a_node30"><a xlink:href="../../dc/d23/TextureLibrary_8hpp.html" target="_top" xlink:title="TextureLibrary.hpp">
<polygon fill="none" stroke="black" points="890,-168.5 890,-187.5 988,-187.5 988,-168.5 890,-168.5"/>
<text text-anchor="middle" x="939" y="-175.5" font-family="Helvetica,sans-Serif" font-size="10.00">TextureLibrary.hpp</text>
</a>
</g>
</g>
<!-- Node1&#45;&gt;Node30 -->
<g id="edge51" class="edge"><title>Node1&#45;&gt;Node30</title>
<path fill="none" stroke="midnightblue" d="M970.725,-224.083C965.358,-216.455 957.482,-205.264 950.921,-195.941"/>
<polygon fill="midnightblue" stroke="midnightblue" points="953.775,-193.915 945.158,-187.751 948.051,-197.943 953.775,-193.915"/>
</g>
<!-- Node4&#45;&gt;Node3 -->
<g id="edge4" class="edge"><title>Node4&#45;&gt;Node3</title>
<path fill="none" stroke="midnightblue" d="M1099.99,-168.324C1119,-159.161 1149.06,-144.668 1170.05,-134.545"/>
<polygon fill="midnightblue" stroke="midnightblue" points="1171.78,-137.599 1179.27,-130.103 1168.74,-131.293 1171.78,-137.599"/>
</g>
<!-- Node5&#45;&gt;Node3 -->
<g id="edge6" class="edge"><title>Node5&#45;&gt;Node3</title>
<path fill="none" stroke="midnightblue" d="M1185.65,-168.083C1186.98,-160.927 1188.88,-150.635 1190.54,-141.691"/>
<polygon fill="midnightblue" stroke="midnightblue" points="1194,-142.221 1192.38,-131.751 1187.12,-140.947 1194,-142.221"/>
</g>
<!-- Node7 -->
<g id="node7" class="node"><title>Node7</title>
<polygon fill="none" stroke="#bfbfbf" points="1288,-112.5 1288,-131.5 1374,-131.5 1374,-112.5 1288,-112.5"/>
<text text-anchor="middle" x="1331" y="-119.5" font-family="Helvetica,sans-Serif" font-size="10.00">assimp/scene.h</text>
</g>
<!-- Node6&#45;&gt;Node7 -->
<g id="edge8" class="edge"><title>Node6&#45;&gt;Node7</title>
<path fill="none" stroke="midnightblue" d="M1331,-168.083C1331,-161.006 1331,-150.861 1331,-141.986"/>
<polygon fill="midnightblue" stroke="midnightblue" points="1334.5,-141.751 1331,-131.751 1327.5,-141.751 1334.5,-141.751"/>
</g>
<!-- Node8&#45;&gt;Node2 -->
<g id="edge10" class="edge"><title>Node8&#45;&gt;Node2</title>
<path fill="none" stroke="midnightblue" d="M581.679,-173.809C485.896,-168.452 314.067,-155.82 257,-132 230.362,-120.881 205.363,-98.2486 190.371,-82.8513"/>
<polygon fill="midnightblue" stroke="midnightblue" points="192.897,-80.4284 183.488,-75.5584 187.806,-85.2331 192.897,-80.4284"/>
</g>
<!-- Node9 -->
<g id="node9" class="node"><title>Node9</title>
<g id="a_node9"><a xlink:href="../../df/d67/Library_8hpp.html" target="_top" xlink:title="Library.hpp">
<polygon fill="none" stroke="black" points="887.5,-56.5 887.5,-75.5 952.5,-75.5 952.5,-56.5 887.5,-56.5"/>
<text text-anchor="middle" x="920" y="-63.5" font-family="Helvetica,sans-Serif" font-size="10.00">Library.hpp</text>
</a>
</g>
</g>
<!-- Node8&#45;&gt;Node9 -->
<g id="edge11" class="edge"><title>Node8&#45;&gt;Node9</title>
<path fill="none" stroke="midnightblue" d="M714.245,-169.866C753.555,-163.703 803.465,-152.418 844,-132 868.335,-119.742 891.395,-98.0856 905.598,-83.1603"/>
<polygon fill="midnightblue" stroke="midnightblue" points="908.311,-85.3821 912.53,-75.6634 903.171,-80.63 908.311,-85.3821"/>
</g>
<!-- Node12 -->
<g id="node12" class="node"><title>Node12</title>
<g id="a_node12"><a xlink:href="../../dc/ddb/ShaderProgram_8hpp.html" target="_top" xlink:title="ShaderProgram.hpp">
<polygon fill="none" stroke="black" points="266.5,-112.5 266.5,-131.5 369.5,-131.5 369.5,-112.5 266.5,-112.5"/>
<text text-anchor="middle" x="318" y="-119.5" font-family="Helvetica,sans-Serif" font-size="10.00">ShaderProgram.hpp</text>
</a>
</g>
</g>
<!-- Node8&#45;&gt;Node12 -->
<g id="edge15" class="edge"><title>Node8&#45;&gt;Node12</title>
<path fill="none" stroke="midnightblue" d="M595.711,-168.444C537.005,-158.837 441.837,-143.264 379.581,-133.077"/>
<polygon fill="midnightblue" stroke="midnightblue" points="379.936,-129.588 369.502,-131.428 378.805,-136.497 379.936,-129.588"/>
</g>
<!-- Node16 -->
<g id="node16" class="node"><title>Node16</title>
<g id="a_node16"><a xlink:href="../../d9/db7/ShaderProgramNames_8hpp.html" target="_top" xlink:title="ShaderProgramNames.hpp">
<polygon fill="none" stroke="black" points="701,-112.5 701,-131.5 835,-131.5 835,-112.5 701,-112.5"/>
<text text-anchor="middle" x="768" y="-119.5" font-family="Helvetica,sans-Serif" font-size="10.00">ShaderProgramNames.hpp</text>
</a>
</g>
</g>
<!-- Node8&#45;&gt;Node16 -->
<g id="edge21" class="edge"><title>Node8&#45;&gt;Node16</title>
<path fill="none" stroke="midnightblue" d="M667.014,-168.444C686.588,-159.636 717.308,-145.812 739.729,-135.722"/>
<polygon fill="midnightblue" stroke="midnightblue" points="741.392,-138.812 749.075,-131.516 738.519,-132.428 741.392,-138.812"/>
</g>
<!-- Node17 -->
<g id="node17" class="node"><title>Node17</title>
<g id="a_node17"><a xlink:href="../../d2/db1/ShaderLibrary_8hpp.html" target="_top" xlink:title="ShaderLibrary.hpp">
<polygon fill="none" stroke="black" points="549.5,-112.5 549.5,-131.5 644.5,-131.5 644.5,-112.5 549.5,-112.5"/>
<text text-anchor="middle" x="597" y="-119.5" font-family="Helvetica,sans-Serif" font-size="10.00">ShaderLibrary.hpp</text>
</a>
</g>
</g>
<!-- Node8&#45;&gt;Node17 -->
<g id="edge22" class="edge"><title>Node8&#45;&gt;Node17</title>
<path fill="none" stroke="midnightblue" d="M639.578,-168.083C632.152,-160.22 621.148,-148.569 612.188,-139.081"/>
<polygon fill="midnightblue" stroke="midnightblue" points="614.676,-136.618 605.265,-131.751 609.587,-141.424 614.676,-136.618"/>
</g>
<!-- Node9&#45;&gt;Node9 -->
<g id="edge14" class="edge"><title>Node9&#45;&gt;Node9</title>
<path fill="none" stroke="midnightblue" d="M941.538,-75.5252C956.173,-78.3079 970.5,-75.1328 970.5,-66 970.5,-59.0077 962.102,-55.5077 951.597,-55.5"/>
<polygon fill="midnightblue" stroke="midnightblue" points="951.154,-52.0265 941.538,-56.4748 951.829,-58.9938 951.154,-52.0265"/>
</g>
<!-- Node10 -->
<g id="node10" class="node"><title>Node10</title>
<polygon fill="none" stroke="#bfbfbf" points="393,-0.5 393,-19.5 437,-19.5 437,-0.5 393,-0.5"/>
<text text-anchor="middle" x="415" y="-7.5" font-family="Helvetica,sans-Serif" font-size="10.00">vector</text>
</g>
<!-- Node9&#45;&gt;Node10 -->
<g id="edge12" class="edge"><title>Node9&#45;&gt;Node10</title>
<path fill="none" stroke="midnightblue" d="M887.051,-57.5677C883.999,-56.9918 880.948,-56.4575 878,-56 717.505,-31.088 523.438,-17.5455 447.594,-12.8834"/>
<polygon fill="midnightblue" stroke="midnightblue" points="447.473,-9.36978 437.28,-12.2597 447.051,-16.357 447.473,-9.36978"/>
</g>
<!-- Node11 -->
<g id="node11" class="node"><title>Node11</title>
<polygon fill="none" stroke="#bfbfbf" points="889,-0.5 889,-19.5 951,-19.5 951,-0.5 889,-0.5"/>
<text text-anchor="middle" x="920" y="-7.5" font-family="Helvetica,sans-Serif" font-size="10.00">Library.tpp</text>
</g>
<!-- Node9&#45;&gt;Node11 -->
<g id="edge13" class="edge"><title>Node9&#45;&gt;Node11</title>
<path fill="none" stroke="midnightblue" d="M920,-56.083C920,-49.0059 920,-38.8611 920,-29.9865"/>
<polygon fill="midnightblue" stroke="midnightblue" points="923.5,-29.751 920,-19.7511 916.5,-29.7511 923.5,-29.751"/>
</g>
<!-- Node12&#45;&gt;Node2 -->
<g id="edge18" class="edge"><title>Node12&#45;&gt;Node2</title>
<path fill="none" stroke="midnightblue" d="M295.5,-112.444C271.923,-103.478 234.678,-89.314 208.036,-79.1827"/>
<polygon fill="midnightblue" stroke="midnightblue" points="208.986,-75.7995 198.395,-75.5164 206.498,-82.3424 208.986,-75.7995"/>
</g>
<!-- Node12&#45;&gt;Node10 -->
<g id="edge17" class="edge"><title>Node12&#45;&gt;Node10</title>
<path fill="none" stroke="midnightblue" d="M316.462,-112.099C314.648,-98.6606 313.214,-72.9643 325,-56 338.558,-36.486 363.116,-25.0047 383.158,-18.5292"/>
<polygon fill="midnightblue" stroke="midnightblue" points="384.258,-21.8538 392.854,-15.6611 382.272,-15.1413 384.258,-21.8538"/>
</g>
<!-- Node13 -->
<g id="node13" class="node"><title>Node13</title>
<polygon fill="none" stroke="#bfbfbf" points="214,-0.5 214,-19.5 284,-19.5 284,-0.5 214,-0.5"/>
<text text-anchor="middle" x="249" y="-7.5" font-family="Helvetica,sans-Serif" font-size="10.00">glm/glm.hpp</text>
</g>
<!-- Node12&#45;&gt;Node13 -->
<g id="edge16" class="edge"><title>Node12&#45;&gt;Node13</title>
<path fill="none" stroke="midnightblue" d="M297.524,-112.458C282.715,-105.113 263.674,-92.9993 254,-76 246.04,-62.0134 245.38,-43.5117 246.366,-29.8252"/>
<polygon fill="midnightblue" stroke="midnightblue" points="249.87,-29.9827 247.458,-19.666 242.91,-29.2348 249.87,-29.9827"/>
</g>
<!-- Node14 -->
<g id="node14" class="node"><title>Node14</title>
<g id="a_node14"><a xlink:href="../../d4/d6e/Shader_8hpp.html" target="_top" xlink:title="Shader.hpp">
<polygon fill="none" stroke="black" points="687,-56.5 687,-75.5 753,-75.5 753,-56.5 687,-56.5"/>
<text text-anchor="middle" x="720" y="-63.5" font-family="Helvetica,sans-Serif" font-size="10.00">Shader.hpp</text>
</a>
</g>
</g>
<!-- Node12&#45;&gt;Node14 -->
<g id="edge19" class="edge"><title>Node12&#45;&gt;Node14</title>
<path fill="none" stroke="midnightblue" d="M369.616,-115.868C437.551,-108.818 560.877,-94.9996 676.617,-75.9273"/>
<polygon fill="midnightblue" stroke="midnightblue" points="677.427,-79.3408 686.716,-74.2463 676.277,-72.4358 677.427,-79.3408"/>
</g>
<!-- Node15 -->
<g id="node15" class="node"><title>Node15</title>
<polygon fill="none" stroke="#bfbfbf" points="764.5,-0.5 764.5,-19.5 805.5,-19.5 805.5,-0.5 764.5,-0.5"/>
<text text-anchor="middle" x="785" y="-7.5" font-family="Helvetica,sans-Serif" font-size="10.00">string</text>
</g>
<!-- Node14&#45;&gt;Node15 -->
<g id="edge20" class="edge"><title>Node14&#45;&gt;Node15</title>
<path fill="none" stroke="midnightblue" d="M730.443,-56.324C740.146,-48.2631 754.815,-36.0765 766.5,-26.3695"/>
<polygon fill="midnightblue" stroke="midnightblue" points="768.911,-28.9163 774.367,-19.8339 764.438,-23.532 768.911,-28.9163"/>
</g>
<!-- Node17&#45;&gt;Node2 -->
<g id="edge23" class="edge"><title>Node17&#45;&gt;Node2</title>
<path fill="none" stroke="midnightblue" d="M549.116,-114.858C464.004,-103.941 288.202,-81.3917 212.254,-71.6502"/>
<polygon fill="midnightblue" stroke="midnightblue" points="212.584,-68.1639 202.22,-70.3632 211.694,-75.107 212.584,-68.1639"/>
</g>
<!-- Node17&#45;&gt;Node9 -->
<g id="edge24" class="edge"><title>Node17&#45;&gt;Node9</title>
<path fill="none" stroke="midnightblue" d="M644.753,-113.662C708.803,-103.771 820.184,-86.3818 877.437,-75.9991"/>
<polygon fill="midnightblue" stroke="midnightblue" points="878.276,-79.4034 887.474,-74.1453 877.005,-72.5198 878.276,-79.4034"/>
</g>
<!-- Node17&#45;&gt;Node14 -->
<g id="edge25" class="edge"><title>Node17&#45;&gt;Node14</title>
<path fill="none" stroke="midnightblue" d="M616.49,-112.444C636.642,-103.596 668.323,-89.6875 691.331,-79.5865"/>
<polygon fill="midnightblue" stroke="midnightblue" points="692.852,-82.7411 700.601,-75.5164 690.038,-76.3316 692.852,-82.7411"/>
</g>
<!-- Node18 -->
<g id="node18" class="node"><title>Node18</title>
<g id="a_node18"><a xlink:href="../../d2/dba/ShaderNames_8hpp.html" target="_top" xlink:title="ShaderNames.hpp">
<polygon fill="none" stroke="black" points="771,-56.5 771,-75.5 869,-75.5 869,-56.5 771,-56.5"/>
<text text-anchor="middle" x="820" y="-63.5" font-family="Helvetica,sans-Serif" font-size="10.00">ShaderNames.hpp</text>
</a>
</g>
</g>
<!-- Node17&#45;&gt;Node18 -->
<g id="edge26" class="edge"><title>Node17&#45;&gt;Node18</title>
<path fill="none" stroke="midnightblue" d="M632.335,-112.444C670.911,-103.102 732.785,-88.1194 774.853,-77.9326"/>
<polygon fill="midnightblue" stroke="midnightblue" points="775.935,-81.2717 784.83,-75.5164 774.287,-74.4683 775.935,-81.2717"/>
</g>
<!-- Node19&#45;&gt;Node9 -->
<g id="edge29" class="edge"><title>Node19&#45;&gt;Node9</title>
<path fill="none" stroke="midnightblue" d="M171.769,-175.243C285.873,-170.817 563.398,-157.688 653,-132 671.725,-126.632 673.587,-118.359 692,-112 768.635,-85.5348 793.646,-92.2548 877.491,-76.0231"/>
<polygon fill="midnightblue" stroke="midnightblue" points="878.329,-79.4251 887.454,-74.041 876.963,-72.5597 878.329,-79.4251"/>
</g>
<!-- Node20 -->
<g id="node20" class="node"><title>Node20</title>
<polygon fill="none" stroke="#bfbfbf" points="0,-56.5 0,-75.5 94,-75.5 94,-56.5 0,-56.5"/>
<text text-anchor="middle" x="47" y="-63.5" font-family="Helvetica,sans-Serif" font-size="10.00">assimp/material.h</text>
</g>
<!-- Node19&#45;&gt;Node20 -->
<g id="edge28" class="edge"><title>Node19&#45;&gt;Node20</title>
<path fill="none" stroke="midnightblue" d="M111.938,-168.488C102.328,-159.978 87.8841,-146.154 78,-132 67.8334,-117.441 59.4056,-99.0291 53.9167,-85.521"/>
<polygon fill="midnightblue" stroke="midnightblue" points="57.0614,-83.9516 50.1676,-75.9063 50.5397,-86.4946 57.0614,-83.9516"/>
</g>
<!-- Node21 -->
<g id="node21" class="node"><title>Node21</title>
<g id="a_node21"><a xlink:href="../../d0/d70/Material_8hpp.html" target="_top" xlink:title="Material.hpp">
<polygon fill="none" stroke="black" points="87,-112.5 87,-131.5 157,-131.5 157,-112.5 87,-112.5"/>
<text text-anchor="middle" x="122" y="-119.5" font-family="Helvetica,sans-Serif" font-size="10.00">Material.hpp</text>
</a>
</g>
</g>
<!-- Node19&#45;&gt;Node21 -->
<g id="edge30" class="edge"><title>Node19&#45;&gt;Node21</title>
<path fill="none" stroke="midnightblue" d="M122,-168.083C122,-161.006 122,-150.861 122,-141.986"/>
<polygon fill="midnightblue" stroke="midnightblue" points="125.5,-141.751 122,-131.751 118.5,-141.751 125.5,-141.751"/>
</g>
<!-- Node21&#45;&gt;Node2 -->
<g id="edge31" class="edge"><title>Node21&#45;&gt;Node2</title>
<path fill="none" stroke="midnightblue" d="M130.917,-112.083C138.78,-104.22 150.431,-92.5688 159.919,-83.0813"/>
<polygon fill="midnightblue" stroke="midnightblue" points="162.653,-85.2971 167.249,-75.7511 157.703,-80.3473 162.653,-85.2971"/>
</g>
<!-- Node21&#45;&gt;Node13 -->
<g id="edge32" class="edge"><title>Node21&#45;&gt;Node13</title>
<path fill="none" stroke="midnightblue" d="M122.239,-112.292C123.068,-98.6451 126.571,-72.1174 141,-56 157.332,-37.758 182.228,-26.7179 204.002,-20.142"/>
<polygon fill="midnightblue" stroke="midnightblue" points="205.053,-23.4827 213.745,-17.425 203.172,-16.74 205.053,-23.4827"/>
</g>
<!-- Node21&#45;&gt;Node20 -->
<g id="edge33" class="edge"><title>Node21&#45;&gt;Node20</title>
<path fill="none" stroke="midnightblue" d="M109.95,-112.324C98.5369,-104.107 81.169,-91.6017 67.5651,-81.8069"/>
<polygon fill="midnightblue" stroke="midnightblue" points="69.4297,-78.8366 59.2693,-75.8339 65.3396,-84.5174 69.4297,-78.8366"/>
</g>
<!-- Node22&#45;&gt;Node9 -->
<g id="edge36" class="edge"><title>Node22&#45;&gt;Node9</title>
<path fill="none" stroke="midnightblue" d="M1077.37,-112.444C1045.5,-103.241 994.667,-88.5617 959.436,-78.3879"/>
<polygon fill="midnightblue" stroke="midnightblue" points="960.071,-74.9282 949.492,-75.5164 958.128,-81.6534 960.071,-74.9282"/>
</g>
<!-- Node23 -->
<g id="node23" class="node"><title>Node23</title>
<polygon fill="none" stroke="#bfbfbf" points="1129,-0.5 1129,-19.5 1209,-19.5 1209,-0.5 1129,-0.5"/>
<text text-anchor="middle" x="1169" y="-7.5" font-family="Helvetica,sans-Serif" font-size="10.00">assimp/anim.h</text>
</g>
<!-- Node22&#45;&gt;Node23 -->
<g id="edge35" class="edge"><title>Node22&#45;&gt;Node23</title>
<path fill="none" stroke="midnightblue" d="M1135.02,-112.397C1152.17,-105.515 1172.75,-93.984 1183,-76 1191.37,-61.3129 1185.58,-42.1571 1179.1,-28.4524"/>
<polygon fill="midnightblue" stroke="midnightblue" points="1182.19,-26.8083 1174.44,-19.5785 1175.99,-30.06 1182.19,-26.8083"/>
</g>
<!-- Node24 -->
<g id="node24" class="node"><title>Node24</title>
<g id="a_node24"><a xlink:href="../../d0/d36/Animation_8hpp.html" target="_top" xlink:title="Animation.hpp">
<polygon fill="none" stroke="black" points="1095.5,-56.5 1095.5,-75.5 1174.5,-75.5 1174.5,-56.5 1095.5,-56.5"/>
<text text-anchor="middle" x="1135" y="-63.5" font-family="Helvetica,sans-Serif" font-size="10.00">Animation.hpp</text>
</a>
</g>
</g>
<!-- Node22&#45;&gt;Node24 -->
<g id="edge37" class="edge"><title>Node22&#45;&gt;Node24</title>
<path fill="none" stroke="midnightblue" d="M1111.62,-112.083C1115.46,-104.691 1121.02,-93.9533 1125.76,-84.8111"/>
<polygon fill="midnightblue" stroke="midnightblue" points="1128.97,-86.2398 1130.46,-75.7511 1122.75,-83.0175 1128.97,-86.2398"/>
</g>
<!-- Node24&#45;&gt;Node15 -->
<g id="edge39" class="edge"><title>Node24&#45;&gt;Node15</title>
<path fill="none" stroke="midnightblue" d="M1095.44,-57.6172C1092.25,-57.0571 1089.07,-56.5115 1086,-56 987.542,-39.6028 870.491,-22.9018 815.9,-15.2739"/>
<polygon fill="midnightblue" stroke="midnightblue" points="816.225,-11.7855 805.838,-13.872 815.259,-18.7186 816.225,-11.7855"/>
</g>
<!-- Node24&#45;&gt;Node23 -->
<g id="edge38" class="edge"><title>Node24&#45;&gt;Node23</title>
<path fill="none" stroke="midnightblue" d="M1140.61,-56.083C1145.37,-48.5341 1152.32,-37.4948 1158.15,-28.2298"/>
<polygon fill="midnightblue" stroke="midnightblue" points="1161.12,-30.0783 1163.49,-19.7511 1155.2,-26.3486 1161.12,-30.0783"/>
</g>
<!-- Node25&#45;&gt;Node9 -->
<g id="edge41" class="edge"><title>Node25&#45;&gt;Node9</title>
<path fill="none" stroke="midnightblue" d="M838.838,-168.37C849.268,-159.772 865.158,-145.885 877,-132 889.718,-117.089 901.81,-98.2429 909.913,-84.6882"/>
<polygon fill="midnightblue" stroke="midnightblue" points="913.034,-86.2846 915.06,-75.8853 906.991,-82.7513 913.034,-86.2846"/>
</g>
<!-- Node26 -->
<g id="node26" class="node"><title>Node26</title>
<g id="a_node26"><a xlink:href="../../d1/d62/Mesh_8hpp.html" target="_top" xlink:title="Mesh.hpp">
<polygon fill="none" stroke="black" points="422.5,-112.5 422.5,-131.5 481.5,-131.5 481.5,-112.5 422.5,-112.5"/>
<text text-anchor="middle" x="452" y="-119.5" font-family="Helvetica,sans-Serif" font-size="10.00">Mesh.hpp</text>
</a>
</g>
</g>
<!-- Node25&#45;&gt;Node26 -->
<g id="edge42" class="edge"><title>Node25&#45;&gt;Node26</title>
<path fill="none" stroke="midnightblue" d="M783.391,-170.593C709.564,-159.991 563.104,-138.956 492.252,-128.781"/>
<polygon fill="midnightblue" stroke="midnightblue" points="492.355,-125.26 481.959,-127.303 491.36,-132.189 492.355,-125.26"/>
</g>
<!-- Node26&#45;&gt;Node2 -->
<g id="edge44" class="edge"><title>Node26&#45;&gt;Node2</title>
<path fill="none" stroke="midnightblue" d="M422.463,-115.221C371.512,-105.252 267.273,-84.8577 212.102,-74.0635"/>
<polygon fill="midnightblue" stroke="midnightblue" points="212.56,-70.5868 202.074,-72.1015 211.216,-77.4565 212.56,-70.5868"/>
</g>
<!-- Node26&#45;&gt;Node10 -->
<g id="edge43" class="edge"><title>Node26&#45;&gt;Node10</title>
<path fill="none" stroke="midnightblue" d="M449.685,-112.084C446.348,-99.4792 439.83,-75.7815 433,-56 429.872,-46.9403 425.964,-37.0338 422.589,-28.8277"/>
<polygon fill="midnightblue" stroke="midnightblue" points="425.789,-27.4071 418.699,-19.5343 419.332,-30.1102 425.789,-27.4071"/>
</g>
<!-- Node26&#45;&gt;Node13 -->
<g id="edge45" class="edge"><title>Node26&#45;&gt;Node13</title>
<path fill="none" stroke="midnightblue" d="M422.436,-113.846C395.812,-106.648 356.189,-94.0253 325,-76 301.663,-62.5126 278.68,-41.4785 264.205,-27.0114"/>
<polygon fill="midnightblue" stroke="midnightblue" points="266.585,-24.4396 257.09,-19.7393 261.582,-29.335 266.585,-24.4396"/>
</g>
<!-- Node27 -->
<g id="node27" class="node"><title>Node27</title>
<polygon fill="none" stroke="#bfbfbf" points="480.5,-56.5 480.5,-75.5 563.5,-75.5 563.5,-56.5 480.5,-56.5"/>
<text text-anchor="middle" x="522" y="-63.5" font-family="Helvetica,sans-Serif" font-size="10.00">assimp/mesh.h</text>
</g>
<!-- Node26&#45;&gt;Node27 -->
<g id="edge46" class="edge"><title>Node26&#45;&gt;Node27</title>
<path fill="none" stroke="midnightblue" d="M463.247,-112.324C473.797,-104.185 489.801,-91.8395 502.442,-82.0874"/>
<polygon fill="midnightblue" stroke="midnightblue" points="504.769,-84.7132 510.549,-75.8339 500.493,-79.1707 504.769,-84.7132"/>
</g>
<!-- Node28 -->
<g id="node28" class="node"><title>Node28</title>
<g id="a_node28"><a xlink:href="../../da/d04/BufferObject_8hpp.html" target="_top" xlink:title="BufferObject.hpp">
<polygon fill="none" stroke="black" points="334,-56.5 334,-75.5 424,-75.5 424,-56.5 334,-56.5"/>
<text text-anchor="middle" x="379" y="-63.5" font-family="Helvetica,sans-Serif" font-size="10.00">BufferObject.hpp</text>
</a>
</g>
</g>
<!-- Node26&#45;&gt;Node28 -->
<g id="edge47" class="edge"><title>Node26&#45;&gt;Node28</title>
<path fill="none" stroke="midnightblue" d="M440.271,-112.324C429.163,-104.107 412.258,-91.6017 399.017,-81.8069"/>
<polygon fill="midnightblue" stroke="midnightblue" points="401.063,-78.9671 390.942,-75.8339 396.9,-84.5948 401.063,-78.9671"/>
</g>
<!-- Node29 -->
<g id="node29" class="node"><title>Node29</title>
<g id="a_node29"><a xlink:href="../../df/d20/ArrayObject_8hpp.html" target="_top" xlink:title="ArrayObject.hpp">
<polygon fill="none" stroke="black" points="581.5,-56.5 581.5,-75.5 668.5,-75.5 668.5,-56.5 581.5,-56.5"/>
<text text-anchor="middle" x="625" y="-63.5" font-family="Helvetica,sans-Serif" font-size="10.00">ArrayObject.hpp</text>
</a>
</g>
</g>
<!-- Node26&#45;&gt;Node29 -->
<g id="edge50" class="edge"><title>Node26&#45;&gt;Node29</title>
<path fill="none" stroke="midnightblue" d="M479.412,-112.444C508.769,-103.28 555.519,-88.6876 588.096,-78.5192"/>
<polygon fill="midnightblue" stroke="midnightblue" points="589.213,-81.8371 597.716,-75.5164 587.127,-75.1551 589.213,-81.8371"/>
</g>
<!-- Node28&#45;&gt;Node10 -->
<g id="edge48" class="edge"><title>Node28&#45;&gt;Node10</title>
<path fill="none" stroke="midnightblue" d="M384.945,-56.083C389.977,-48.5341 397.337,-37.4948 403.513,-28.2298"/>
<polygon fill="midnightblue" stroke="midnightblue" points="406.531,-30.0131 409.166,-19.7511 400.707,-26.1301 406.531,-30.0131"/>
</g>
<!-- Node28&#45;&gt;Node13 -->
<g id="edge49" class="edge"><title>Node28&#45;&gt;Node13</title>
<path fill="none" stroke="midnightblue" d="M358.401,-56.4435C337.007,-47.5566 303.319,-33.5632 278.976,-23.4514"/>
<polygon fill="midnightblue" stroke="midnightblue" points="280.08,-20.1203 269.503,-19.5164 277.395,-26.5848 280.08,-20.1203"/>
</g>
<!-- Node30&#45;&gt;Node9 -->
<g id="edge52" class="edge"><title>Node30&#45;&gt;Node9</title>
<path fill="none" stroke="midnightblue" d="M937.509,-168.368C934.443,-150.617 927.37,-109.666 923.212,-85.5974"/>
<polygon fill="midnightblue" stroke="midnightblue" points="926.635,-84.8498 921.484,-75.5914 919.737,-86.0413 926.635,-84.8498"/>
</g>
<!-- Node31 -->
<g id="node31" class="node"><title>Node31</title>
<g id="a_node31"><a xlink:href="../../d0/ddc/Texture_8hpp.html" target="_top" xlink:title="Texture.hpp">
<polygon fill="none" stroke="black" points="967,-112.5 967,-131.5 1035,-131.5 1035,-112.5 967,-112.5"/>
<text text-anchor="middle" x="1001" y="-119.5" font-family="Helvetica,sans-Serif" font-size="10.00">Texture.hpp</text>
</a>
</g>
</g>
<!-- Node30&#45;&gt;Node31 -->
<g id="edge53" class="edge"><title>Node30&#45;&gt;Node31</title>
<path fill="none" stroke="midnightblue" d="M948.961,-168.324C958.127,-160.341 971.937,-148.313 983.028,-138.653"/>
<polygon fill="midnightblue" stroke="midnightblue" points="985.615,-141.041 990.857,-131.834 981.018,-135.762 985.615,-141.041"/>
</g>
<!-- Node32 -->
<g id="node32" class="node"><title>Node32</title>
<polygon fill="none" stroke="#bfbfbf" points="988.5,-56.5 988.5,-75.5 1077.5,-75.5 1077.5,-56.5 988.5,-56.5"/>
<text text-anchor="middle" x="1033" y="-63.5" font-family="Helvetica,sans-Serif" font-size="10.00">assimp/texture.h</text>
</g>
<!-- Node31&#45;&gt;Node32 -->
<g id="edge54" class="edge"><title>Node31&#45;&gt;Node32</title>
<path fill="none" stroke="midnightblue" d="M1006.28,-112.083C1010.71,-104.613 1017.16,-93.7244 1022.62,-84.5199"/>
<polygon fill="midnightblue" stroke="midnightblue" points="1025.73,-86.1383 1027.81,-75.7511 1019.71,-82.5697 1025.73,-86.1383"/>
</g>
</g>
</svg>
        <g id="navigator" transform="translate(0 0)" fill="#404254">
                <rect fill="#f2f5e9" fill-opacity="0.5" stroke="#606060" stroke-width=".5" x="0" y="0" width="60" height="60"/>
                <use id="zoomplus" xlink:href="#zoomPlus" x="17" y="9" onmousedown="handleZoom(evt,'in')"/>
                <use id="zoomminus" xlink:href="#zoomMin" x="42" y="9" onmousedown="handleZoom(evt,'out')"/>
                <use id="reset" xlink:href="#resetDef" x="30" y="36" onmousedown="handleReset()"/>
                <g id="arrowUp" xlink:href="#dirArrow" transform="translate(30 24)" onmousedown="handlePan(0,-1)">
                  <use xlink:href="#rim" fill="#404040">
                        <set attributeName="fill" to="#808080" begin="arrowUp.mouseover" end="arrowUp.mouseout"/>
                  </use>
                  <path fill="none" stroke="white" stroke-width="1.5" d="M0,-3.0v7 M-2.5,-0.5L0,-3.0L2.5,-0.5"/>
                </g>
                <g id="arrowRight" xlink:href="#dirArrow" transform="rotate(90) translate(36 -43)" onmousedown="handlePan(1,0)">
                  <use xlink:href="#rim" fill="#404040">
                        <set attributeName="fill" to="#808080" begin="arrowRight.mouseover" end="arrowRight.mouseout"/>
                  </use>
                  <path fill="none" stroke="white" stroke-width="1.5" d="M0,-3.0v7 M-2.5,-0.5L0,-3.0L2.5,-0.5"/>
                </g>
                <g id="arrowDown" xlink:href="#dirArrow" transform="rotate(180) translate(-30 -48)" onmousedown="handlePan(0,1)">
                  <use xlink:href="#rim" fill="#404040">
                        <set attributeName="fill" to="#808080" begin="arrowDown.mouseover" end="arrowDown.mouseout"/>
                  </use>
                  <path fill="none" stroke="white" stroke-width="1.5" d="M0,-3.0v7 M-2.5,-0.5L0,-3.0L2.5,-0.5"/>
                </g>
                <g id="arrowLeft" xlink:href="#dirArrow" transform="rotate(270) translate(-36 17)" onmousedown="handlePan(-1,0)">
                  <use xlink:href="#rim" fill="#404040">
                        <set attributeName="fill" to="#808080" begin="arrowLeft.mouseover" end="arrowLeft.mouseout"/>
                  </use>
                  <path fill="none" stroke="white" stroke-width="1.5" d="M0,-3.0v7 M-2.5,-0.5L0,-3.0L2.5,-0.5"/>
                </g>
        </g>
        <svg viewBox="0 0 15 15" width="100%" height="30px" preserveAspectRatio="xMaxYMin meet">
         <g id="arrow_out" transform="scale(0.3 0.3)">
          <a xlink:href="Scene_8hpp__incl_org.svg" target="_base">
           <rect id="button" ry="5" rx="5" y="6" x="6" height="38" width="38"
                fill="#f2f5e9" fill-opacity="0.5" stroke="#606060" stroke-width="1.0"/>
           <path id="arrow"
             d="M 11.500037,31.436501 C 11.940474,20.09759 22.043105,11.32322 32.158766,21.979434 L 37.068811,17.246167 C 37.068811,17.246167 37.088388,32 37.088388,32 L 22.160133,31.978069 C 22.160133,31.978069 26.997745,27.140456 26.997745,27.140456 C 18.528582,18.264221 13.291696,25.230495 11.500037,31.436501 z"
             style="fill:#404040;"/>
          </a>
         </g>
        </svg>
</svg>
