<?xml version="1.0" encoding="UTF-8" standalone="no"?>
<!DOCTYPE svg PUBLIC "-//W3C//DTD SVG 1.1//EN"
 "http://www.w3.org/Graphics/SVG/1.1/DTD/svg11.dtd">
<!-- Generated by graphviz version 2.38.0 (20140413.2041)
 -->
<!-- Title: engine/Scene/Scene.hpp Pages: 1 -->
<svg width="882pt" height="364pt"
 viewBox="0.00 0.00 881.52 364.00" xmlns="http://www.w3.org/2000/svg" xmlns:xlink="http://www.w3.org/1999/xlink">
<g id="graph0" class="graph" transform="scale(1 1) rotate(0) translate(4 360)">
<title>engine/Scene/Scene.hpp</title>
<!-- Node1 -->
<g id="node1" class="node"><title>Node1</title>
<polygon fill="#bfbfbf" stroke="black" points="605.5,-336.5 605.5,-355.5 730.5,-355.5 730.5,-336.5 605.5,-336.5"/>
<text text-anchor="middle" x="668" y="-343.5" font-family="Helvetica,sans-Serif" font-size="10.00">engine/Scene/Scene.hpp</text>
</g>
<!-- Node2 -->
<g id="node2" class="node"><title>Node2</title>
<polygon fill="none" stroke="#bfbfbf" points="69,-56.5 69,-75.5 121,-75.5 121,-56.5 69,-56.5"/>
<text text-anchor="middle" x="95" y="-63.5" font-family="Helvetica,sans-Serif" font-size="10.00">memory</text>
</g>
<!-- Node1&#45;&gt;Node2 -->
<g id="edge1" class="edge"><title>Node1&#45;&gt;Node2</title>
<path fill="none" stroke="midnightblue" d="M605.456,-341.236C439.396,-330.412 0,-296.008 0,-235 0,-235 0,-235 0,-177 0,-133.739 42.6084,-99.0862 70.7548,-80.9149"/>
<polygon fill="midnightblue" stroke="midnightblue" points="72.6613,-83.851 79.3127,-75.6042 68.9703,-77.9032 72.6613,-83.851"/>
</g>
<!-- Node3 -->
<g id="node3" class="node"><title>Node3</title>
<polygon fill="none" stroke="#bfbfbf" points="610.5,-280.5 610.5,-299.5 639.5,-299.5 639.5,-280.5 610.5,-280.5"/>
<text text-anchor="middle" x="625" y="-287.5" font-family="Helvetica,sans-Serif" font-size="10.00">list</text>
</g>
<!-- Node1&#45;&gt;Node3 -->
<g id="edge2" class="edge"><title>Node1&#45;&gt;Node3</title>
<path fill="none" stroke="midnightblue" d="M660.899,-336.083C654.763,-328.377 645.73,-317.033 638.261,-307.653"/>
<polygon fill="midnightblue" stroke="midnightblue" points="640.936,-305.394 631.968,-299.751 635.46,-309.754 640.936,-305.394"/>
</g>
<!-- Node4 -->
<g id="node4" class="node"><title>Node4</title>
<g id="a_node4"><a xlink:href="../../d4/db5/GameObject_8hpp.html" target="_top" xlink:title="GameObject.hpp">
<polygon fill="none" stroke="black" points="623,-224.5 623,-243.5 713,-243.5 713,-224.5 623,-224.5"/>
<text text-anchor="middle" x="668" y="-231.5" font-family="Helvetica,sans-Serif" font-size="10.00">GameObject.hpp</text>
</a>
</g>
</g>
<!-- Node1&#45;&gt;Node4 -->
<g id="edge3" class="edge"><title>Node1&#45;&gt;Node4</title>
<path fill="none" stroke="midnightblue" d="M668,-336.368C668,-318.617 668,-277.666 668,-253.597"/>
<polygon fill="midnightblue" stroke="midnightblue" points="671.5,-253.591 668,-243.591 664.5,-253.591 671.5,-253.591"/>
</g>
<!-- Node17 -->
<g id="node17" class="node"><title>Node17</title>
<g id="a_node17"><a xlink:href="../../d6/d80/Camera_8hpp.html" target="_top" xlink:title="Camera.hpp">
<polygon fill="none" stroke="black" points="696,-280.5 696,-299.5 766,-299.5 766,-280.5 696,-280.5"/>
<text text-anchor="middle" x="731" y="-287.5" font-family="Helvetica,sans-Serif" font-size="10.00">Camera.hpp</text>
</a>
</g>
</g>
<!-- Node1&#45;&gt;Node17 -->
<g id="edge30" class="edge"><title>Node1&#45;&gt;Node17</title>
<path fill="none" stroke="midnightblue" d="M678.122,-336.324C687.526,-328.263 701.744,-316.077 713.069,-306.369"/>
<polygon fill="midnightblue" stroke="midnightblue" points="715.379,-308.999 720.694,-299.834 710.823,-303.684 715.379,-308.999"/>
</g>
<!-- Node18 -->
<g id="node18" class="node"><title>Node18</title>
<g id="a_node18"><a xlink:href="../../d5/dd5/Light_8hpp.html" target="_top" xlink:title="Light.hpp">
<polygon fill="none" stroke="black" points="784,-280.5 784,-299.5 840,-299.5 840,-280.5 784,-280.5"/>
<text text-anchor="middle" x="812" y="-287.5" font-family="Helvetica,sans-Serif" font-size="10.00">Light.hpp</text>
</a>
</g>
</g>
<!-- Node1&#45;&gt;Node18 -->
<g id="edge34" class="edge"><title>Node1&#45;&gt;Node18</title>
<path fill="none" stroke="midnightblue" d="M690.817,-336.444C714.832,-327.438 752.829,-313.189 779.869,-303.049"/>
<polygon fill="midnightblue" stroke="midnightblue" points="781.155,-306.305 789.29,-299.516 778.697,-299.751 781.155,-306.305"/>
</g>
<!-- Node4&#45;&gt;Node2 -->
<g id="edge5" class="edge"><title>Node4&#45;&gt;Node2</title>
<path fill="none" stroke="midnightblue" d="M622.887,-231.606C545.216,-228.447 381.605,-218.462 247,-188 173.926,-171.463 131.293,-193.147 88,-132 78.4882,-118.565 82.0004,-99.4909 86.8327,-85.4788"/>
<polygon fill="midnightblue" stroke="midnightblue" points="90.1862,-86.5147 90.5913,-75.9276 83.6724,-83.9513 90.1862,-86.5147"/>
</g>
<!-- Node5 -->
<g id="node5" class="node"><title>Node5</title>
<polygon fill="none" stroke="#bfbfbf" points="582,-56.5 582,-75.5 652,-75.5 652,-56.5 582,-56.5"/>
<text text-anchor="middle" x="617" y="-63.5" font-family="Helvetica,sans-Serif" font-size="10.00">glm/glm.hpp</text>
</g>
<!-- Node4&#45;&gt;Node5 -->
<g id="edge4" class="edge"><title>Node4&#45;&gt;Node5</title>
<path fill="none" stroke="midnightblue" d="M684.938,-224.436C721.217,-204.971 800.576,-155.699 768,-112 743.82,-79.5632 697.179,-69.5861 662.1,-66.944"/>
<polygon fill="midnightblue" stroke="midnightblue" points="662.269,-63.448 652.083,-66.3614 661.863,-70.4362 662.269,-63.448"/>
</g>
<!-- Node6 -->
<g id="node6" class="node"><title>Node6</title>
<g id="a_node6"><a xlink:href="../../de/df7/worldparticles_8hpp.html" target="_top" xlink:title="wordparticles configuration file ">
<polygon fill="none" stroke="black" points="664.5,-112.5 664.5,-131.5 759.5,-131.5 759.5,-112.5 664.5,-112.5"/>
<text text-anchor="middle" x="712" y="-119.5" font-family="Helvetica,sans-Serif" font-size="10.00">worldparticles.hpp</text>
</a>
</g>
</g>
<!-- Node4&#45;&gt;Node6 -->
<g id="edge6" class="edge"><title>Node4&#45;&gt;Node6</title>
<path fill="none" stroke="midnightblue" d="M671.453,-224.368C678.617,-206.456 695.231,-164.923 704.821,-140.948"/>
<polygon fill="midnightblue" stroke="midnightblue" points="708.099,-142.176 708.563,-131.591 701.6,-139.576 708.099,-142.176"/>
</g>
<!-- Node7 -->
<g id="node7" class="node"><title>Node7</title>
<g id="a_node7"><a xlink:href="../../da/d83/Transform_8hpp.html" target="_top" xlink:title="Transform.hpp">
<polygon fill="none" stroke="black" points="781,-168.5 781,-187.5 861,-187.5 861,-168.5 781,-168.5"/>
<text text-anchor="middle" x="821" y="-175.5" font-family="Helvetica,sans-Serif" font-size="10.00">Transform.hpp</text>
</a>
</g>
</g>
<!-- Node4&#45;&gt;Node7 -->
<g id="edge7" class="edge"><title>Node4&#45;&gt;Node7</title>
<path fill="none" stroke="midnightblue" d="M692.243,-224.444C717.871,-215.399 758.485,-201.064 787.238,-190.916"/>
<polygon fill="midnightblue" stroke="midnightblue" points="788.605,-194.145 796.87,-187.516 786.275,-187.544 788.605,-194.145"/>
</g>
<!-- Node8 -->
<g id="node8" class="node"><title>Node8</title>
<g id="a_node8"><a xlink:href="../../d1/dca/IRenderer_8hpp.html" target="_top" xlink:title="IRenderer.hpp">
<polygon fill="none" stroke="black" points="599,-168.5 599,-187.5 677,-187.5 677,-168.5 599,-168.5"/>
<text text-anchor="middle" x="638" y="-175.5" font-family="Helvetica,sans-Serif" font-size="10.00">IRenderer.hpp</text>
</a>
</g>
</g>
<!-- Node4&#45;&gt;Node8 -->
<g id="edge9" class="edge"><title>Node4&#45;&gt;Node8</title>
<path fill="none" stroke="midnightblue" d="M663.046,-224.083C658.896,-216.613 652.847,-205.724 647.733,-196.52"/>
<polygon fill="midnightblue" stroke="midnightblue" points="650.778,-194.793 642.862,-187.751 644.659,-198.192 650.778,-194.793"/>
</g>
<!-- Node9 -->
<g id="node9" class="node"><title>Node9</title>
<g id="a_node9"><a xlink:href="../../d0/d70/Material_8hpp.html" target="_top" xlink:title="Material.hpp">
<polygon fill="none" stroke="black" points="256,-168.5 256,-187.5 326,-187.5 326,-168.5 256,-168.5"/>
<text text-anchor="middle" x="291" y="-175.5" font-family="Helvetica,sans-Serif" font-size="10.00">Material.hpp</text>
</a>
</g>
</g>
<!-- Node4&#45;&gt;Node9 -->
<g id="edge13" class="edge"><title>Node4&#45;&gt;Node9</title>
<path fill="none" stroke="midnightblue" d="M622.899,-226.54C550.435,-216.16 408.875,-195.884 336.29,-185.487"/>
<polygon fill="midnightblue" stroke="midnightblue" points="336.493,-181.981 326.098,-184.027 335.5,-188.91 336.493,-181.981"/>
</g>
<!-- Node14 -->
<g id="node14" class="node"><title>Node14</title>
<g id="a_node14"><a xlink:href="../../d1/d62/Mesh_8hpp.html" target="_top" xlink:title="Mesh.hpp">
<polygon fill="none" stroke="black" points="451.5,-168.5 451.5,-187.5 510.5,-187.5 510.5,-168.5 451.5,-168.5"/>
<text text-anchor="middle" x="481" y="-175.5" font-family="Helvetica,sans-Serif" font-size="10.00">Mesh.hpp</text>
</a>
</g>
</g>
<!-- Node4&#45;&gt;Node14 -->
<g id="edge22" class="edge"><title>Node4&#45;&gt;Node14</title>
<path fill="none" stroke="midnightblue" d="M638.369,-224.444C606.5,-215.241 555.667,-200.562 520.436,-190.388"/>
<polygon fill="midnightblue" stroke="midnightblue" points="521.071,-186.928 510.492,-187.516 519.128,-193.653 521.071,-186.928"/>
</g>
<!-- Node7&#45;&gt;Node5 -->
<g id="edge8" class="edge"><title>Node7&#45;&gt;Node5</title>
<path fill="none" stroke="midnightblue" d="M821.062,-168.466C820.678,-154.574 817.813,-127.105 802,-112 782.181,-93.0686 710.409,-79.781 662.309,-72.7694"/>
<polygon fill="midnightblue" stroke="midnightblue" points="662.525,-69.2652 652.133,-71.3276 661.543,-76.196 662.525,-69.2652"/>
</g>
<!-- Node8&#45;&gt;Node2 -->
<g id="edge11" class="edge"><title>Node8&#45;&gt;Node2</title>
<path fill="none" stroke="midnightblue" d="M598.928,-173.88C490.171,-165.108 190.608,-140.332 171,-132 145.653,-121.23 122.538,-98.8504 108.621,-83.3839"/>
<polygon fill="midnightblue" stroke="midnightblue" points="111.079,-80.8762 101.879,-75.6202 105.793,-85.4657 111.079,-80.8762"/>
</g>
<!-- Node8&#45;&gt;Node5 -->
<g id="edge10" class="edge"><title>Node8&#45;&gt;Node5</title>
<path fill="none" stroke="midnightblue" d="M636.352,-168.368C632.963,-150.617 625.145,-109.666 620.55,-85.5974"/>
<polygon fill="midnightblue" stroke="midnightblue" points="623.953,-84.7577 618.64,-75.5914 617.078,-86.0704 623.953,-84.7577"/>
</g>
<!-- Node8&#45;&gt;Node6 -->
<g id="edge12" class="edge"><title>Node8&#45;&gt;Node6</title>
<path fill="none" stroke="midnightblue" d="M649.889,-168.324C661.15,-160.107 678.287,-147.602 691.709,-137.807"/>
<polygon fill="midnightblue" stroke="midnightblue" points="693.88,-140.556 699.894,-131.834 689.753,-134.901 693.88,-140.556"/>
</g>
<!-- Node9&#45;&gt;Node2 -->
<g id="edge15" class="edge"><title>Node9&#45;&gt;Node2</title>
<path fill="none" stroke="midnightblue" d="M255.766,-173.615C206.268,-168.076 119.941,-155.29 100,-132 89.3126,-119.518 89.1394,-100.287 90.992,-85.977"/>
<polygon fill="midnightblue" stroke="midnightblue" points="94.5003,-86.228 92.7499,-75.7787 87.602,-85.0389 94.5003,-86.228"/>
</g>
<!-- Node9&#45;&gt;Node5 -->
<g id="edge14" class="edge"><title>Node9&#45;&gt;Node5</title>
<path fill="none" stroke="midnightblue" d="M298.644,-168.191C311.58,-153.903 339.296,-125.88 369,-112 435.018,-81.1519 520.088,-71.3954 571.487,-68.3437"/>
<polygon fill="midnightblue" stroke="midnightblue" points="571.814,-71.8313 581.614,-67.8038 571.442,-64.8413 571.814,-71.8313"/>
</g>
<!-- Node10 -->
<g id="node10" class="node"><title>Node10</title>
<g id="a_node10"><a xlink:href="../../dc/ddb/ShaderProgram_8hpp.html" target="_top" xlink:title="ShaderProgram.hpp">
<polygon fill="none" stroke="black" points="180.5,-112.5 180.5,-131.5 283.5,-131.5 283.5,-112.5 180.5,-112.5"/>
<text text-anchor="middle" x="232" y="-119.5" font-family="Helvetica,sans-Serif" font-size="10.00">ShaderProgram.hpp</text>
</a>
</g>
</g>
<!-- Node9&#45;&gt;Node10 -->
<g id="edge16" class="edge"><title>Node9&#45;&gt;Node10</title>
<path fill="none" stroke="midnightblue" d="M281.521,-168.324C272.799,-160.341 259.657,-148.313 249.102,-138.653"/>
<polygon fill="midnightblue" stroke="midnightblue" points="251.392,-136.004 241.652,-131.834 246.666,-141.167 251.392,-136.004"/>
</g>
<!-- Node10&#45;&gt;Node2 -->
<g id="edge19" class="edge"><title>Node10&#45;&gt;Node2</title>
<path fill="none" stroke="midnightblue" d="M210.292,-112.444C187.645,-103.517 151.928,-89.4387 126.248,-79.3168"/>
<polygon fill="midnightblue" stroke="midnightblue" points="127.193,-75.9273 116.606,-75.5164 124.626,-82.4397 127.193,-75.9273"/>
</g>
<!-- Node10&#45;&gt;Node5 -->
<g id="edge17" class="edge"><title>Node10&#45;&gt;Node5</title>
<path fill="none" stroke="midnightblue" d="M283.523,-113.773C359.298,-103.145 499.586,-83.4685 571.661,-73.3593"/>
<polygon fill="midnightblue" stroke="midnightblue" points="572.367,-76.7946 581.784,-71.9394 571.395,-69.8624 572.367,-76.7946"/>
</g>
<!-- Node11 -->
<g id="node11" class="node"><title>Node11</title>
<polygon fill="none" stroke="#bfbfbf" points="290,-56.5 290,-75.5 334,-75.5 334,-56.5 290,-56.5"/>
<text text-anchor="middle" x="312" y="-63.5" font-family="Helvetica,sans-Serif" font-size="10.00">vector</text>
</g>
<!-- Node10&#45;&gt;Node11 -->
<g id="edge18" class="edge"><title>Node10&#45;&gt;Node11</title>
<path fill="none" stroke="midnightblue" d="M244.853,-112.324C257.216,-103.979 276.13,-91.2122 290.737,-81.3524"/>
<polygon fill="midnightblue" stroke="midnightblue" points="292.848,-84.1503 299.179,-75.6545 288.932,-78.3483 292.848,-84.1503"/>
</g>
<!-- Node12 -->
<g id="node12" class="node"><title>Node12</title>
<g id="a_node12"><a xlink:href="../../d4/d6e/Shader_8hpp.html" target="_top" xlink:title="Shader.hpp">
<polygon fill="none" stroke="black" points="199,-56.5 199,-75.5 265,-75.5 265,-56.5 199,-56.5"/>
<text text-anchor="middle" x="232" y="-63.5" font-family="Helvetica,sans-Serif" font-size="10.00">Shader.hpp</text>
</a>
</g>
</g>
<!-- Node10&#45;&gt;Node12 -->
<g id="edge20" class="edge"><title>Node10&#45;&gt;Node12</title>
<path fill="none" stroke="midnightblue" d="M232,-112.083C232,-105.006 232,-94.8611 232,-85.9865"/>
<polygon fill="midnightblue" stroke="midnightblue" points="235.5,-85.751 232,-75.7511 228.5,-85.7511 235.5,-85.751"/>
</g>
<!-- Node13 -->
<g id="node13" class="node"><title>Node13</title>
<polygon fill="none" stroke="#bfbfbf" points="211.5,-0.5 211.5,-19.5 252.5,-19.5 252.5,-0.5 211.5,-0.5"/>
<text text-anchor="middle" x="232" y="-7.5" font-family="Helvetica,sans-Serif" font-size="10.00">string</text>
</g>
<!-- Node12&#45;&gt;Node13 -->
<g id="edge21" class="edge"><title>Node12&#45;&gt;Node13</title>
<path fill="none" stroke="midnightblue" d="M232,-56.083C232,-49.0059 232,-38.8611 232,-29.9865"/>
<polygon fill="midnightblue" stroke="midnightblue" points="235.5,-29.751 232,-19.7511 228.5,-29.7511 235.5,-29.751"/>
</g>
<!-- Node14&#45;&gt;Node2 -->
<g id="edge24" class="edge"><title>Node14&#45;&gt;Node2</title>
<path fill="none" stroke="midnightblue" d="M451.293,-174.52C372.855,-167.773 164.391,-148.487 138,-132 120.658,-121.166 108.806,-100.471 102.006,-85.3337"/>
<polygon fill="midnightblue" stroke="midnightblue" points="105.168,-83.8231 98.0993,-75.9311 98.7037,-86.5087 105.168,-83.8231"/>
</g>
<!-- Node14&#45;&gt;Node5 -->
<g id="edge25" class="edge"><title>Node14&#45;&gt;Node5</title>
<path fill="none" stroke="midnightblue" d="M510.796,-168.359C531.476,-161.207 558.674,-149.378 578,-132 592.489,-118.971 603.264,-99.2704 609.774,-84.9732"/>
<polygon fill="midnightblue" stroke="midnightblue" points="613.03,-86.2607 613.753,-75.6905 606.597,-83.5028 613.03,-86.2607"/>
</g>
<!-- Node14&#45;&gt;Node11 -->
<g id="edge23" class="edge"><title>Node14&#45;&gt;Node11</title>
<path fill="none" stroke="midnightblue" d="M451.047,-169.159C427.333,-162.004 394.134,-149.809 369,-132 350.516,-118.902 334.013,-98.6536 323.581,-84.2395"/>
<polygon fill="midnightblue" stroke="midnightblue" points="326.241,-81.9348 317.643,-75.7437 320.503,-85.9451 326.241,-81.9348"/>
</g>
<!-- Node15 -->
<g id="node15" class="node"><title>Node15</title>
<polygon fill="none" stroke="#bfbfbf" points="486.5,-112.5 486.5,-131.5 569.5,-131.5 569.5,-112.5 486.5,-112.5"/>
<text text-anchor="middle" x="528" y="-119.5" font-family="Helvetica,sans-Serif" font-size="10.00">assimp/mesh.h</text>
</g>
<!-- Node14&#45;&gt;Node15 -->
<g id="edge26" class="edge"><title>Node14&#45;&gt;Node15</title>
<path fill="none" stroke="midnightblue" d="M488.761,-168.083C495.537,-160.298 505.543,-148.801 513.755,-139.367"/>
<polygon fill="midnightblue" stroke="midnightblue" points="516.458,-141.592 520.383,-131.751 511.178,-136.996 516.458,-141.592"/>
</g>
<!-- Node16 -->
<g id="node16" class="node"><title>Node16</title>
<g id="a_node16"><a xlink:href="../../da/d04/BufferObject_8hpp.html" target="_top" xlink:title="BufferObject.hpp">
<polygon fill="none" stroke="black" points="378,-112.5 378,-131.5 468,-131.5 468,-112.5 378,-112.5"/>
<text text-anchor="middle" x="423" y="-119.5" font-family="Helvetica,sans-Serif" font-size="10.00">BufferObject.hpp</text>
</a>
</g>
</g>
<!-- Node14&#45;&gt;Node16 -->
<g id="edge27" class="edge"><title>Node14&#45;&gt;Node16</title>
<path fill="none" stroke="midnightblue" d="M471.681,-168.324C463.107,-160.341 450.188,-148.313 439.812,-138.653"/>
<polygon fill="midnightblue" stroke="midnightblue" points="442.192,-136.086 432.488,-131.834 437.422,-141.21 442.192,-136.086"/>
</g>
<!-- Node16&#45;&gt;Node5 -->
<g id="edge29" class="edge"><title>Node16&#45;&gt;Node5</title>
<path fill="none" stroke="midnightblue" d="M453.74,-112.444C486.944,-103.201 539.991,-88.4356 576.557,-78.2572"/>
<polygon fill="midnightblue" stroke="midnightblue" points="577.709,-81.5699 586.404,-75.5164 575.832,-74.8262 577.709,-81.5699"/>
</g>
<!-- Node16&#45;&gt;Node11 -->
<g id="edge28" class="edge"><title>Node16&#45;&gt;Node11</title>
<path fill="none" stroke="midnightblue" d="M405.166,-112.324C387.284,-103.625 359.525,-90.1202 338.954,-80.113"/>
<polygon fill="midnightblue" stroke="midnightblue" points="340.313,-76.8819 329.79,-75.6545 337.251,-83.1765 340.313,-76.8819"/>
</g>
<!-- Node17&#45;&gt;Node4 -->
<g id="edge33" class="edge"><title>Node17&#45;&gt;Node4</title>
<path fill="none" stroke="midnightblue" d="M720.878,-280.324C711.474,-272.263 697.256,-260.077 685.931,-250.369"/>
<polygon fill="midnightblue" stroke="midnightblue" points="688.177,-247.684 678.306,-243.834 683.621,-252.999 688.177,-247.684"/>
</g>
<!-- Node17&#45;&gt;Node5 -->
<g id="edge31" class="edge"><title>Node17&#45;&gt;Node5</title>
<path fill="none" stroke="midnightblue" d="M758.099,-280.41C804.155,-264.106 890.794,-225.122 870,-168 840.806,-87.804 727.058,-70.483 662.467,-67.244"/>
<polygon fill="midnightblue" stroke="midnightblue" points="662.293,-63.7341 652.159,-66.8255 662.009,-70.7284 662.293,-63.7341"/>
</g>
<!-- Node17&#45;&gt;Node7 -->
<g id="edge32" class="edge"><title>Node17&#45;&gt;Node7</title>
<path fill="none" stroke="midnightblue" d="M738.062,-280.368C753.046,-262.055 788.233,-219.049 807.613,-195.362"/>
<polygon fill="midnightblue" stroke="midnightblue" points="810.347,-197.547 813.971,-187.591 804.929,-193.115 810.347,-197.547"/>
</g>
</g>
</svg>
