<?xml version="1.0" encoding="UTF-8" standalone="no"?>
<!DOCTYPE svg PUBLIC "-//W3C//DTD SVG 1.1//EN"
 "http://www.w3.org/Graphics/SVG/1.1/DTD/svg11.dtd">
<!-- Generated by graphviz version 2.38.0 (20140413.2041)
 -->
<!-- Title: WorldParticles::Engine::Shader Pages: 1 -->
<svg width="188pt" height="281pt"
 viewBox="0.00 0.00 187.50 281.00" xmlns="http://www.w3.org/2000/svg" xmlns:xlink="http://www.w3.org/1999/xlink">
<g id="graph0" class="graph" transform="scale(1 1) rotate(0) translate(4 277)">
<title>WorldParticles::Engine::Shader</title>
<!-- Node1 -->
<g id="node1" class="node"><title>Node1</title>
<polygon fill="#bfbfbf" stroke="black" points="16,-0.5 16,-167.5 132,-167.5 132,-0.5 16,-0.5"/>
<text text-anchor="start" x="24" y="-155.5" font-family="Helvetica,sans-Serif" font-size="10.00">WorldParticles::Engine</text>
<text text-anchor="middle" x="74" y="-144.5" font-family="Helvetica,sans-Serif" font-size="10.00">::Shader</text>
<polyline fill="none" stroke="black" points="16,-137.5 132,-137.5 "/>
<text text-anchor="middle" x="74" y="-125.5" font-family="Helvetica,sans-Serif" font-size="10.00"> </text>
<polyline fill="none" stroke="black" points="16,-118.5 132,-118.5 "/>
<text text-anchor="start" x="24" y="-106.5" font-family="Helvetica,sans-Serif" font-size="10.00">+ Shader()</text>
<text text-anchor="start" x="24" y="-95.5" font-family="Helvetica,sans-Serif" font-size="10.00">+ Shader()</text>
<text text-anchor="start" x="24" y="-84.5" font-family="Helvetica,sans-Serif" font-size="10.00">+ Shader()</text>
<text text-anchor="start" x="24" y="-73.5" font-family="Helvetica,sans-Serif" font-size="10.00">+ ~Shader()</text>
<text text-anchor="start" x="24" y="-62.5" font-family="Helvetica,sans-Serif" font-size="10.00">+ operator=()</text>
<text text-anchor="start" x="24" y="-51.5" font-family="Helvetica,sans-Serif" font-size="10.00">+ operator=()</text>
<text text-anchor="start" x="24" y="-40.5" font-family="Helvetica,sans-Serif" font-size="10.00">+ compile()</text>
<text text-anchor="start" x="24" y="-29.5" font-family="Helvetica,sans-Serif" font-size="10.00">+ getType()</text>
<text text-anchor="start" x="24" y="-18.5" font-family="Helvetica,sans-Serif" font-size="10.00">+ getId()</text>
<text text-anchor="start" x="24" y="-7.5" font-family="Helvetica,sans-Serif" font-size="10.00">+ isCompiled()</text>
</g>
<!-- Node2 -->
<g id="node2" class="node"><title>Node2</title>
<polygon fill="none" stroke="#bfbfbf" points="0,-215.5 0,-272.5 38,-272.5 38,-215.5 0,-215.5"/>
<text text-anchor="middle" x="19" y="-260.5" font-family="Helvetica,sans-Serif" font-size="10.00">Type</text>
<polyline fill="none" stroke="#bfbfbf" points="0,-253.5 38,-253.5 "/>
<text text-anchor="middle" x="19" y="-241.5" font-family="Helvetica,sans-Serif" font-size="10.00"> </text>
<polyline fill="none" stroke="#bfbfbf" points="0,-234.5 38,-234.5 "/>
<text text-anchor="middle" x="19" y="-222.5" font-family="Helvetica,sans-Serif" font-size="10.00"> </text>
</g>
<!-- Node2&#45;&gt;Node1 -->
<g id="edge1" class="edge"><title>Node2&#45;&gt;Node1</title>
<path fill="none" stroke="#404040" d="M28.5803,-215.479C32.2223,-205.016 36.6071,-192.42 41.1967,-179.235"/>
<polygon fill="none" stroke="#404040" points="41.3241,-178.869 39.519,-171.887 45.2692,-167.536 47.0743,-174.517 41.3241,-178.869"/>
<text text-anchor="middle" x="53" y="-189" font-family="Helvetica,sans-Serif" font-size="10.00"> #type</text>
</g>
<!-- Node3 -->
<g id="node3" class="node"><title>Node3</title>
<polygon fill="none" stroke="#bfbfbf" points="56.5,-215.5 56.5,-272.5 91.5,-272.5 91.5,-215.5 56.5,-215.5"/>
<text text-anchor="middle" x="74" y="-260.5" font-family="Helvetica,sans-Serif" font-size="10.00">bool</text>
<polyline fill="none" stroke="#bfbfbf" points="56.5,-253.5 91.5,-253.5 "/>
<text text-anchor="middle" x="74" y="-241.5" font-family="Helvetica,sans-Serif" font-size="10.00"> </text>
<polyline fill="none" stroke="#bfbfbf" points="56.5,-234.5 91.5,-234.5 "/>
<text text-anchor="middle" x="74" y="-222.5" font-family="Helvetica,sans-Serif" font-size="10.00"> </text>
</g>
<!-- Node3&#45;&gt;Node1 -->
<g id="edge2" class="edge"><title>Node3&#45;&gt;Node1</title>
<path fill="none" stroke="#404040" d="M74,-215.479C74,-205.122 74,-192.674 74,-179.634"/>
<polygon fill="none" stroke="#404040" points="74.0001,-179.536 70,-173.536 74,-167.536 78,-173.536 74.0001,-179.536"/>
<text text-anchor="middle" x="98" y="-189" font-family="Helvetica,sans-Serif" font-size="10.00"> #compiled</text>
</g>
<!-- Node4 -->
<g id="node4" class="node"><title>Node4</title>
<polygon fill="none" stroke="#bfbfbf" points="110.5,-215.5 110.5,-272.5 179.5,-272.5 179.5,-215.5 110.5,-215.5"/>
<text text-anchor="middle" x="145" y="-260.5" font-family="Helvetica,sans-Serif" font-size="10.00">unsigned int</text>
<polyline fill="none" stroke="#bfbfbf" points="110.5,-253.5 179.5,-253.5 "/>
<text text-anchor="middle" x="145" y="-241.5" font-family="Helvetica,sans-Serif" font-size="10.00"> </text>
<polyline fill="none" stroke="#bfbfbf" points="110.5,-234.5 179.5,-234.5 "/>
<text text-anchor="middle" x="145" y="-222.5" font-family="Helvetica,sans-Serif" font-size="10.00"> </text>
</g>
<!-- Node4&#45;&gt;Node1 -->
<g id="edge3" class="edge"><title>Node4&#45;&gt;Node1</title>
<path fill="none" stroke="#404040" d="M134.829,-215.269C131.253,-205.905 127.102,-195.436 123,-186 121.943,-183.567 120.859,-181.108 119.756,-178.632"/>
<polygon fill="none" stroke="#404040" points="119.753,-178.626 113.635,-174.81 114.804,-167.694 120.923,-171.511 119.753,-178.626"/>
<text text-anchor="middle" x="136" y="-189" font-family="Helvetica,sans-Serif" font-size="10.00"> #id</text>
</g>
</g>
</svg>
