<?xml version="1.0" encoding="UTF-8" standalone="no"?>
<!DOCTYPE svg PUBLIC "-//W3C//DTD SVG 1.1//EN"
 "http://www.w3.org/Graphics/SVG/1.1/DTD/svg11.dtd">
<!-- Generated by graphviz version 2.38.0 (20140413.2041)
 -->
<!-- Title: WorldParticles::Engine::Shader Pages: 1 -->
<svg width="232pt" height="237pt"
 viewBox="0.00 0.00 231.50 237.00" xmlns="http://www.w3.org/2000/svg" xmlns:xlink="http://www.w3.org/1999/xlink">
<g id="graph0" class="graph" transform="scale(1 1) rotate(0) translate(4 233)">
<title>WorldParticles::Engine::Shader</title>
<!-- Node1 -->
<g id="node1" class="node"><title>Node1</title>
<polygon fill="#bfbfbf" stroke="black" points="31.5,-0.5 31.5,-123.5 147.5,-123.5 147.5,-0.5 31.5,-0.5"/>
<text text-anchor="start" x="39.5" y="-111.5" font-family="Helvetica,sans-Serif" font-size="10.00">WorldParticles::Engine</text>
<text text-anchor="middle" x="89.5" y="-100.5" font-family="Helvetica,sans-Serif" font-size="10.00">::Shader</text>
<polyline fill="none" stroke="black" points="31.5,-93.5 147.5,-93.5 "/>
<text text-anchor="middle" x="89.5" y="-81.5" font-family="Helvetica,sans-Serif" font-size="10.00"> </text>
<polyline fill="none" stroke="black" points="31.5,-74.5 147.5,-74.5 "/>
<text text-anchor="start" x="39.5" y="-62.5" font-family="Helvetica,sans-Serif" font-size="10.00">+ Shader()</text>
<text text-anchor="start" x="39.5" y="-51.5" font-family="Helvetica,sans-Serif" font-size="10.00">+ ~Shader()</text>
<text text-anchor="start" x="39.5" y="-40.5" font-family="Helvetica,sans-Serif" font-size="10.00">+ Compile()</text>
<text text-anchor="start" x="39.5" y="-29.5" font-family="Helvetica,sans-Serif" font-size="10.00">+ GetShaderType()</text>
<text text-anchor="start" x="39.5" y="-18.5" font-family="Helvetica,sans-Serif" font-size="10.00">+ getId()</text>
<text text-anchor="start" x="39.5" y="-7.5" font-family="Helvetica,sans-Serif" font-size="10.00">+ IsCompiled()</text>
</g>
<!-- Node2 -->
<g id="node2" class="node"><title>Node2</title>
<polygon fill="none" stroke="#bfbfbf" points="0,-171.5 0,-228.5 29,-228.5 29,-171.5 0,-171.5"/>
<text text-anchor="middle" x="14.5" y="-216.5" font-family="Helvetica,sans-Serif" font-size="10.00">int</text>
<polyline fill="none" stroke="#bfbfbf" points="0,-209.5 29,-209.5 "/>
<text text-anchor="middle" x="14.5" y="-197.5" font-family="Helvetica,sans-Serif" font-size="10.00"> </text>
<polyline fill="none" stroke="#bfbfbf" points="0,-190.5 29,-190.5 "/>
<text text-anchor="middle" x="14.5" y="-178.5" font-family="Helvetica,sans-Serif" font-size="10.00"> </text>
</g>
<!-- Node2&#45;&gt;Node1 -->
<g id="edge1" class="edge"><title>Node2&#45;&gt;Node1</title>
<path fill="none" stroke="#404040" d="M21.9045,-171.373C24.9311,-161.822 28.8305,-151.211 33.5,-142 34.8636,-139.31 36.311,-136.61 37.8238,-133.913"/>
<polygon fill="none" stroke="#404040" points="37.8368,-133.891 37.4473,-126.69 43.9441,-123.561 44.3337,-130.762 37.8368,-133.891"/>
<text text-anchor="middle" x="59.5" y="-145" font-family="Helvetica,sans-Serif" font-size="10.00"> #_shaderId</text>
</g>
<!-- Node3 -->
<g id="node3" class="node"><title>Node3</title>
<polygon fill="none" stroke="#bfbfbf" points="72,-171.5 72,-228.5 107,-228.5 107,-171.5 72,-171.5"/>
<text text-anchor="middle" x="89.5" y="-216.5" font-family="Helvetica,sans-Serif" font-size="10.00">bool</text>
<polyline fill="none" stroke="#bfbfbf" points="72,-209.5 107,-209.5 "/>
<text text-anchor="middle" x="89.5" y="-197.5" font-family="Helvetica,sans-Serif" font-size="10.00"> </text>
<polyline fill="none" stroke="#bfbfbf" points="72,-190.5 107,-190.5 "/>
<text text-anchor="middle" x="89.5" y="-178.5" font-family="Helvetica,sans-Serif" font-size="10.00"> </text>
</g>
<!-- Node3&#45;&gt;Node1 -->
<g id="edge2" class="edge"><title>Node3&#45;&gt;Node1</title>
<path fill="none" stroke="#404040" d="M89.5,-171.478C89.5,-161.009 89.5,-148.526 89.5,-135.818"/>
<polygon fill="none" stroke="#404040" points="89.5001,-135.623 85.5,-129.623 89.5,-123.623 93.5,-129.623 89.5001,-135.623"/>
<text text-anchor="middle" x="121" y="-145" font-family="Helvetica,sans-Serif" font-size="10.00"> #_isCompiled</text>
</g>
<!-- Node4 -->
<g id="node4" class="node"><title>Node4</title>
<polygon fill="none" stroke="#bfbfbf" points="143,-171.5 143,-228.5 208,-228.5 208,-171.5 143,-171.5"/>
<text text-anchor="middle" x="175.5" y="-216.5" font-family="Helvetica,sans-Serif" font-size="10.00">const Type</text>
<polyline fill="none" stroke="#bfbfbf" points="143,-209.5 208,-209.5 "/>
<text text-anchor="middle" x="175.5" y="-197.5" font-family="Helvetica,sans-Serif" font-size="10.00"> </text>
<polyline fill="none" stroke="#bfbfbf" points="143,-190.5 208,-190.5 "/>
<text text-anchor="middle" x="175.5" y="-178.5" font-family="Helvetica,sans-Serif" font-size="10.00"> </text>
</g>
<!-- Node4&#45;&gt;Node1 -->
<g id="edge3" class="edge"><title>Node4&#45;&gt;Node1</title>
<path fill="none" stroke="#404040" d="M166.761,-171.236C163.242,-161.673 158.76,-151.089 153.5,-142 151.953,-139.326 150.318,-136.649 148.615,-133.981"/>
<polygon fill="none" stroke="#404040" points="148.442,-133.724 141.775,-130.976 141.748,-123.765 148.415,-126.513 148.442,-133.724"/>
<text text-anchor="middle" x="191" y="-145" font-family="Helvetica,sans-Serif" font-size="10.00"> #_shaderType</text>
</g>
</g>
</svg>
