<?xml version="1.0" encoding="UTF-8" standalone="no"?>
<!DOCTYPE svg PUBLIC "-//W3C//DTD SVG 1.1//EN"
 "http://www.w3.org/Graphics/SVG/1.1/DTD/svg11.dtd">
<!-- Generated by graphviz version 2.38.0 (20140413.2041)
 -->
<!-- Title: engine/Shaders/ShaderProgram/ShaderProgram.hpp Pages: 1 -->
<!--zoomable 586 -->
<svg id="main" version="1.1" xmlns="http://www.w3.org/2000/svg" xmlns:xlink="http://www.w3.org/1999/xlink" xml:space="preserve" onload="init(evt)">
<style type="text/css"><![CDATA[
.edge:hover path { stroke: red; }
.edge:hover polygon { stroke: red; fill: red; }
]]></style>
<script type="text/javascript"><![CDATA[
var edges = document.getElementsByTagName('g');
if (edges && edges.length) {
  for (var i=0;i<edges.length;i++) {
    if (edges[i].id.substr(0,4)=='edge') {
      edges[i].setAttribute('class','edge');
    }
  }
}
]]></script>
        <defs>
                <circle id="rim" cx="0" cy="0" r="7"/>
                <circle id="rim2" cx="0" cy="0" r="3.5"/>
                <g id="zoomPlus">
                        <use xlink:href="#rim" fill="#404040">
                                <set attributeName="fill" to="#808080" begin="zoomplus.mouseover" end="zoomplus.mouseout"/>
                        </use>
                        <path d="M-4,0h8M0,-4v8" fill="none" stroke="white" stroke-width="1.5" pointer-events="none"/>
                </g>
                <g id="zoomMin">
                        <use xlink:href="#rim" fill="#404040">
                                <set attributeName="fill" to="#808080" begin="zoomminus.mouseover" end="zoomminus.mouseout"/>
                        </use>
                        <path d="M-4,0h8" fill="none" stroke="white" stroke-width="1.5" pointer-events="none"/>
                </g>
                <g id="dirArrow">
                        <path fill="none" stroke="white" stroke-width="1.5" d="M0,-3.0v7 M-2.5,-0.5L0,-3.0L2.5,-0.5"/>
                </g>
               <g id="resetDef">
                       <use xlink:href="#rim2" fill="#404040">
                               <set attributeName="fill" to="#808080" begin="reset.mouseover" end="reset.mouseout"/>
                       </use>
               </g>
        </defs>

<script type="text/javascript">
var viewWidth = 1451;
var viewHeight = 586;
var sectionId = 'dynsection-1';
</script>
<script xlink:href="../../svgpan.js"/>
<svg id="graph" class="graph">
<g id="viewport">
<title>engine/Shaders/ShaderProgram/ShaderProgram.hpp</title>
<!-- Node1 -->
<g id="node1" class="node"><title>Node1</title>
<polygon fill="#bfbfbf" stroke="black" points="1141,-547.5 1141,-577.5 1296,-577.5 1296,-547.5 1141,-547.5"/>
<text text-anchor="start" x="1149" y="-565.5" font-family="Helvetica,sans-Serif" font-size="10.00">engine/Shaders/ShaderProgram</text>
<text text-anchor="middle" x="1218.5" y="-554.5" font-family="Helvetica,sans-Serif" font-size="10.00">/ShaderProgram.hpp</text>
</g>
<!-- Node2 -->
<g id="node2" class="node"><title>Node2</title>
<g id="a_node2"><a xlink:href="../../d0/d70/Material_8hpp.html" target="_top" xlink:title="engine/Material/Material.hpp">
<polygon fill="none" stroke="black" points="874,-480.5 874,-499.5 1013,-499.5 1013,-480.5 874,-480.5"/>
<text text-anchor="middle" x="943.5" y="-487.5" font-family="Helvetica,sans-Serif" font-size="10.00">engine/Material/Material.hpp</text>
</a>
</g>
</g>
<!-- Node1&#45;&gt;Node2 -->
<g id="edge1" class="edge"><title>Node1&#45;&gt;Node2</title>
<path fill="none" stroke="midnightblue" d="M1154.1,-544.99C1098.6,-530.762 1020.7,-510.792 976.87,-499.555"/>
<polygon fill="midnightblue" stroke="midnightblue" points="1153.28,-548.394 1163.84,-547.487 1155.02,-541.613 1153.28,-548.394"/>
</g>
<!-- Node16 -->
<g id="node16" class="node"><title>Node16</title>
<g id="a_node16"><a xlink:href="../../de/d34/ShaderProgram_8cpp.html" target="_top" xlink:title="engine/Shaders/ShaderProgram\l/ShaderProgram.cpp">
<polygon fill="none" stroke="black" points="1288,-56.5 1288,-86.5 1443,-86.5 1443,-56.5 1288,-56.5"/>
<text text-anchor="start" x="1296" y="-74.5" font-family="Helvetica,sans-Serif" font-size="10.00">engine/Shaders/ShaderProgram</text>
<text text-anchor="middle" x="1365.5" y="-63.5" font-family="Helvetica,sans-Serif" font-size="10.00">/ShaderProgram.cpp</text>
</a>
</g>
</g>
<!-- Node1&#45;&gt;Node16 -->
<g id="edge41" class="edge"><title>Node1&#45;&gt;Node16</title>
<path fill="none" stroke="midnightblue" d="M1306,-547.116C1347.68,-538.49 1391.47,-526.228 1405.5,-511 1435.5,-478.427 1423.5,-457.284 1423.5,-413 1423.5,-413 1423.5,-413 1423.5,-204.5 1423.5,-158.192 1393.21,-109.879 1376.41,-86.6422"/>
<polygon fill="midnightblue" stroke="midnightblue" points="1305.15,-543.718 1296.03,-549.12 1306.53,-550.58 1305.15,-543.718"/>
</g>
<!-- Node28 -->
<g id="node28" class="node"><title>Node28</title>
<g id="a_node28"><a xlink:href="../../dd/d4f/ShaderProgramMapping_8hpp.html" target="_top" xlink:title="engine/Shaders/Managers\l/ShaderProgramManager\l/internal/ShaderProgramMapping.hpp">
<polygon fill="none" stroke="black" points="1219,-469.5 1219,-510.5 1396,-510.5 1396,-469.5 1219,-469.5"/>
<text text-anchor="start" x="1227" y="-498.5" font-family="Helvetica,sans-Serif" font-size="10.00">engine/Shaders/Managers</text>
<text text-anchor="start" x="1227" y="-487.5" font-family="Helvetica,sans-Serif" font-size="10.00">/ShaderProgramManager</text>
<text text-anchor="middle" x="1307.5" y="-476.5" font-family="Helvetica,sans-Serif" font-size="10.00">/internal/ShaderProgramMapping.hpp</text>
</a>
</g>
</g>
<!-- Node1&#45;&gt;Node28 -->
<g id="edge35" class="edge"><title>Node1&#45;&gt;Node28</title>
<path fill="none" stroke="midnightblue" d="M1244.46,-540.933C1256.55,-531.363 1270.85,-520.034 1282.77,-510.588"/>
<polygon fill="midnightblue" stroke="midnightblue" points="1242.18,-538.28 1236.51,-547.233 1246.52,-543.767 1242.18,-538.28"/>
</g>
<!-- Node30 -->
<g id="node30" class="node"><title>Node30</title>
<g id="a_node30"><a xlink:href="../../df/dfd/ShaderProgramManager_8hpp.html" target="_top" xlink:title="engine/Shaders/Managers\l/ShaderProgramManager\l/ShaderProgramManager.hpp">
<polygon fill="none" stroke="black" points="1058,-469.5 1058,-510.5 1201,-510.5 1201,-469.5 1058,-469.5"/>
<text text-anchor="start" x="1066" y="-498.5" font-family="Helvetica,sans-Serif" font-size="10.00">engine/Shaders/Managers</text>
<text text-anchor="start" x="1066" y="-487.5" font-family="Helvetica,sans-Serif" font-size="10.00">/ShaderProgramManager</text>
<text text-anchor="middle" x="1129.5" y="-476.5" font-family="Helvetica,sans-Serif" font-size="10.00">/ShaderProgramManager.hpp</text>
</a>
</g>
</g>
<!-- Node1&#45;&gt;Node30 -->
<g id="edge37" class="edge"><title>Node1&#45;&gt;Node30</title>
<path fill="none" stroke="midnightblue" d="M1192.54,-540.933C1180.45,-531.363 1166.15,-520.034 1154.23,-510.588"/>
<polygon fill="midnightblue" stroke="midnightblue" points="1190.48,-543.767 1200.49,-547.233 1194.82,-538.28 1190.48,-543.767"/>
</g>
<!-- Node3 -->
<g id="node3" class="node"><title>Node3</title>
<g id="a_node3"><a xlink:href="../../d4/db5/GameObject_8hpp.html" target="_top" xlink:title="engine/GameObject/GameObject.hpp">
<polygon fill="none" stroke="black" points="677,-402.5 677,-421.5 856,-421.5 856,-402.5 677,-402.5"/>
<text text-anchor="middle" x="766.5" y="-409.5" font-family="Helvetica,sans-Serif" font-size="10.00">engine/GameObject/GameObject.hpp</text>
</a>
</g>
</g>
<!-- Node2&#45;&gt;Node3 -->
<g id="edge2" class="edge"><title>Node2&#45;&gt;Node3</title>
<path fill="none" stroke="midnightblue" d="M914.023,-476.343C877.849,-460.811 817.497,-434.897 786.387,-421.539"/>
<polygon fill="midnightblue" stroke="midnightblue" points="912.97,-479.7 923.54,-480.43 915.732,-473.268 912.97,-479.7"/>
</g>
<!-- Node27 -->
<g id="node27" class="node"><title>Node27</title>
<g id="a_node27"><a xlink:href="../../d4/d0f/Material_8cpp.html" target="_top" xlink:title="engine/Material/Material.cpp">
<polygon fill="none" stroke="black" points="874,-402.5 874,-421.5 1013,-421.5 1013,-402.5 874,-402.5"/>
<text text-anchor="middle" x="943.5" y="-409.5" font-family="Helvetica,sans-Serif" font-size="10.00">engine/Material/Material.cpp</text>
</a>
</g>
</g>
<!-- Node2&#45;&gt;Node27 -->
<g id="edge34" class="edge"><title>Node2&#45;&gt;Node27</title>
<path fill="none" stroke="midnightblue" d="M943.5,-470.224C943.5,-454.697 943.5,-433.358 943.5,-421.616"/>
<polygon fill="midnightblue" stroke="midnightblue" points="940,-470.282 943.5,-480.282 947,-470.282 940,-470.282"/>
</g>
<!-- Node4 -->
<g id="node4" class="node"><title>Node4</title>
<g id="a_node4"><a xlink:href="../../d6/d80/Camera_8hpp.html" target="_top" xlink:title="engine/Camera/Camera.hpp">
<polygon fill="none" stroke="black" points="433,-330 433,-349 572,-349 572,-330 433,-330"/>
<text text-anchor="middle" x="502.5" y="-337" font-family="Helvetica,sans-Serif" font-size="10.00">engine/Camera/Camera.hpp</text>
</a>
</g>
</g>
<!-- Node3&#45;&gt;Node4 -->
<g id="edge3" class="edge"><title>Node3&#45;&gt;Node4</title>
<path fill="none" stroke="midnightblue" d="M724.933,-399.9C672.144,-385.803 582.194,-361.782 534.458,-349.034"/>
<polygon fill="midnightblue" stroke="midnightblue" points="724.091,-403.297 734.655,-402.496 725.897,-396.534 724.091,-403.297"/>
</g>
<!-- Node6 -->
<g id="node6" class="node"><title>Node6</title>
<g id="a_node6"><a xlink:href="../../db/de8/Scene_8hpp.html" target="_top" xlink:title="engine/Scene/Scene.hpp">
<polygon fill="none" stroke="black" points="731,-263 731,-282 856,-282 856,-263 731,-263"/>
<text text-anchor="middle" x="793.5" y="-270" font-family="Helvetica,sans-Serif" font-size="10.00">engine/Scene/Scene.hpp</text>
</a>
</g>
</g>
<!-- Node3&#45;&gt;Node6 -->
<g id="edge33" class="edge"><title>Node3&#45;&gt;Node6</title>
<path fill="none" stroke="midnightblue" d="M770.655,-392.274C773.031,-381.407 776.021,-367.448 778.5,-355 783.782,-328.473 789.396,-296.954 792.005,-282.081"/>
<polygon fill="midnightblue" stroke="midnightblue" points="767.183,-391.767 768.449,-402.286 774.019,-393.274 767.183,-391.767"/>
</g>
<!-- Node22 -->
<g id="node22" class="node"><title>Node22</title>
<g id="a_node22"><a xlink:href="../../d4/d2b/GameObject_8cpp.html" target="_top" xlink:title="engine/GameObject/GameObject.cpp">
<polygon fill="none" stroke="black" points="590,-330 590,-349 769,-349 769,-330 590,-330"/>
<text text-anchor="middle" x="679.5" y="-337" font-family="Helvetica,sans-Serif" font-size="10.00">engine/GameObject/GameObject.cpp</text>
</a>
</g>
</g>
<!-- Node3&#45;&gt;Node22 -->
<g id="edge25" class="edge"><title>Node3&#45;&gt;Node22</title>
<path fill="none" stroke="midnightblue" d="M747.958,-395.975C730.403,-381.749 704.651,-360.881 690.255,-349.215"/>
<polygon fill="midnightblue" stroke="midnightblue" points="745.859,-398.779 755.832,-402.355 750.266,-393.34 745.859,-398.779"/>
</g>
<!-- Node23 -->
<g id="node23" class="node"><title>Node23</title>
<g id="a_node23"><a xlink:href="../../df/d6e/Model_8hpp.html" target="_top" xlink:title="engine/GameObject/Model\l/Model.hpp">
<polygon fill="none" stroke="black" points="855.5,-324.5 855.5,-354.5 987.5,-354.5 987.5,-324.5 855.5,-324.5"/>
<text text-anchor="start" x="863.5" y="-342.5" font-family="Helvetica,sans-Serif" font-size="10.00">engine/GameObject/Model</text>
<text text-anchor="middle" x="921.5" y="-331.5" font-family="Helvetica,sans-Serif" font-size="10.00">/Model.hpp</text>
</a>
</g>
</g>
<!-- Node3&#45;&gt;Node23 -->
<g id="edge26" class="edge"><title>Node3&#45;&gt;Node23</title>
<path fill="none" stroke="midnightblue" d="M794.512,-398.259C821.64,-385.92 862.675,-367.256 890.707,-354.506"/>
<polygon fill="midnightblue" stroke="midnightblue" points="792.85,-395.17 785.197,-402.496 795.748,-401.542 792.85,-395.17"/>
</g>
<!-- Node25 -->
<g id="node25" class="node"><title>Node25</title>
<g id="a_node25"><a xlink:href="../../d4/dd0/Cube_8hpp.html" target="_top" xlink:title="engine/Primitives/Cube\l/Cube.hpp">
<polygon fill="none" stroke="black" points="1069.5,-324.5 1069.5,-354.5 1187.5,-354.5 1187.5,-324.5 1069.5,-324.5"/>
<text text-anchor="start" x="1077.5" y="-342.5" font-family="Helvetica,sans-Serif" font-size="10.00">engine/Primitives/Cube</text>
<text text-anchor="middle" x="1128.5" y="-331.5" font-family="Helvetica,sans-Serif" font-size="10.00">/Cube.hpp</text>
</a>
</g>
</g>
<!-- Node3&#45;&gt;Node25 -->
<g id="edge29" class="edge"><title>Node3&#45;&gt;Node25</title>
<path fill="none" stroke="midnightblue" d="M818.599,-400.377C833.721,-397.32 850.264,-394.002 865.5,-391 935.522,-377.205 1016.13,-361.797 1069.45,-351.67"/>
<polygon fill="midnightblue" stroke="midnightblue" points="817.497,-397.029 808.391,-402.444 818.887,-403.89 817.497,-397.029"/>
</g>
<!-- Node5 -->
<g id="node5" class="node"><title>Node5</title>
<g id="a_node5"><a xlink:href="../../da/d8c/Camera_8cpp.html" target="_top" xlink:title="engine/Camera/Camera.cpp">
<polygon fill="none" stroke="black" points="0,-62 0,-81 139,-81 139,-62 0,-62"/>
<text text-anchor="middle" x="69.5" y="-69" font-family="Helvetica,sans-Serif" font-size="10.00">engine/Camera/Camera.cpp</text>
</a>
</g>
</g>
<!-- Node4&#45;&gt;Node5 -->
<g id="edge4" class="edge"><title>Node4&#45;&gt;Node5</title>
<path fill="none" stroke="midnightblue" d="M480.017,-324.688C402.328,-276.962 146.517,-119.813 83.5821,-81.1509"/>
<polygon fill="midnightblue" stroke="midnightblue" points="478.231,-327.699 488.584,-329.951 481.895,-321.734 478.231,-327.699"/>
</g>
<!-- Node4&#45;&gt;Node6 -->
<g id="edge5" class="edge"><title>Node4&#45;&gt;Node6</title>
<path fill="none" stroke="midnightblue" d="M550.745,-327.724C608.046,-314.924 702.469,-293.833 755.073,-282.083"/>
<polygon fill="midnightblue" stroke="midnightblue" points="549.839,-324.34 540.842,-329.936 551.365,-331.171 549.839,-324.34"/>
</g>
<!-- Node7 -->
<g id="node7" class="node"><title>Node7</title>
<g id="a_node7"><a xlink:href="../../d0/dbd/AssimpImporter_8hpp.html" target="_top" xlink:title="engine/AssimpImporter\l/AssimpImporter.hpp">
<polygon fill="none" stroke="black" points="735,-190.5 735,-220.5 852,-220.5 852,-190.5 735,-190.5"/>
<text text-anchor="start" x="743" y="-208.5" font-family="Helvetica,sans-Serif" font-size="10.00">engine/AssimpImporter</text>
<text text-anchor="middle" x="793.5" y="-197.5" font-family="Helvetica,sans-Serif" font-size="10.00">/AssimpImporter.hpp</text>
</a>
</g>
</g>
<!-- Node6&#45;&gt;Node7 -->
<g id="edge6" class="edge"><title>Node6&#45;&gt;Node7</title>
<path fill="none" stroke="midnightblue" d="M793.5,-252.411C793.5,-242.222 793.5,-229.901 793.5,-220.589"/>
<polygon fill="midnightblue" stroke="midnightblue" points="790,-252.734 793.5,-262.734 797,-252.734 790,-252.734"/>
</g>
<!-- Node10 -->
<g id="node10" class="node"><title>Node10</title>
<g id="a_node10"><a xlink:href="../../d4/d1c/GameEngine_8hpp.html" target="_top" xlink:title="engine/GameEngine/GameEngine.hpp">
<polygon fill="none" stroke="black" points="534.5,-196 534.5,-215 716.5,-215 716.5,-196 534.5,-196"/>
<text text-anchor="middle" x="625.5" y="-203" font-family="Helvetica,sans-Serif" font-size="10.00">engine/GameEngine/GameEngine.hpp</text>
</a>
</g>
</g>
<!-- Node6&#45;&gt;Node10 -->
<g id="edge9" class="edge"><title>Node6&#45;&gt;Node10</title>
<path fill="none" stroke="midnightblue" d="M761.461,-259.104C728.105,-246.198 676.746,-226.327 647.634,-215.064"/>
<polygon fill="midnightblue" stroke="midnightblue" points="760.602,-262.524 771.191,-262.869 763.128,-255.996 760.602,-262.524"/>
</g>
<!-- Node21 -->
<g id="node21" class="node"><title>Node21</title>
<g id="a_node21"><a xlink:href="../../de/d15/Scene_8cpp.html" target="_top" xlink:title="engine/Scene/Scene.cpp">
<polygon fill="none" stroke="black" points="870,-196 870,-215 995,-215 995,-196 870,-196"/>
<text text-anchor="middle" x="932.5" y="-203" font-family="Helvetica,sans-Serif" font-size="10.00">engine/Scene/Scene.cpp</text>
</a>
</g>
</g>
<!-- Node6&#45;&gt;Node21 -->
<g id="edge24" class="edge"><title>Node6&#45;&gt;Node21</title>
<path fill="none" stroke="midnightblue" d="M821.059,-258.613C848.59,-245.739 890.146,-226.306 913.966,-215.167"/>
<polygon fill="midnightblue" stroke="midnightblue" points="819.534,-255.462 811.958,-262.869 822.499,-261.803 819.534,-255.462"/>
</g>
<!-- Node8 -->
<g id="node8" class="node"><title>Node8</title>
<g id="a_node8"><a xlink:href="../../d4/d7f/AssimpImporter_8cpp.html" target="_top" xlink:title="engine/AssimpImporter\l/AssimpImporter.cpp">
<polygon fill="none" stroke="black" points="955,-123.5 955,-153.5 1072,-153.5 1072,-123.5 955,-123.5"/>
<text text-anchor="start" x="963" y="-141.5" font-family="Helvetica,sans-Serif" font-size="10.00">engine/AssimpImporter</text>
<text text-anchor="middle" x="1013.5" y="-130.5" font-family="Helvetica,sans-Serif" font-size="10.00">/AssimpImporter.cpp</text>
</a>
</g>
</g>
<!-- Node7&#45;&gt;Node8 -->
<g id="edge7" class="edge"><title>Node7&#45;&gt;Node8</title>
<path fill="none" stroke="midnightblue" d="M850.769,-187.58C886.501,-177.022 931.957,-163.592 965.74,-153.611"/>
<polygon fill="midnightblue" stroke="midnightblue" points="849.564,-184.286 840.966,-190.476 851.548,-190.999 849.564,-184.286"/>
</g>
<!-- Node9 -->
<g id="node9" class="node"><title>Node9</title>
<g id="a_node9"><a xlink:href="../../dd/d98/GameEngine_8cpp.html" target="_top" xlink:title="engine/GameEngine/GameEngine.cpp">
<polygon fill="none" stroke="black" points="987.5,-62 987.5,-81 1169.5,-81 1169.5,-62 987.5,-62"/>
<text text-anchor="middle" x="1078.5" y="-69" font-family="Helvetica,sans-Serif" font-size="10.00">engine/GameEngine/GameEngine.cpp</text>
</a>
</g>
</g>
<!-- Node7&#45;&gt;Node9 -->
<g id="edge8" class="edge"><title>Node7&#45;&gt;Node9</title>
<path fill="none" stroke="midnightblue" d="M826.617,-185.319C857.209,-167.974 904.181,-142.277 946.5,-123 982.896,-106.421 1026.46,-90.4812 1053.31,-81.0878"/>
<polygon fill="midnightblue" stroke="midnightblue" points="824.627,-182.425 817.673,-190.418 828.094,-188.506 824.627,-182.425"/>
</g>
<!-- Node10&#45;&gt;Node9 -->
<g id="edge10" class="edge"><title>Node10&#45;&gt;Node9</title>
<path fill="none" stroke="midnightblue" d="M661.955,-192.817C727.612,-171.794 860.943,-129.19 882.5,-123 938.227,-106.998 1003.54,-90.6446 1042.93,-81.0406"/>
<polygon fill="midnightblue" stroke="midnightblue" points="660.859,-189.493 652.403,-195.876 662.994,-196.159 660.859,-189.493"/>
</g>
<!-- Node11 -->
<g id="node11" class="node"><title>Node11</title>
<g id="a_node11"><a xlink:href="../../d1/d2a/glwindow_8h.html" target="_top" xlink:title="window/glwindow.h">
<polygon fill="none" stroke="black" points="575,-129 575,-148 676,-148 676,-129 575,-129"/>
<text text-anchor="middle" x="625.5" y="-136" font-family="Helvetica,sans-Serif" font-size="10.00">window/glwindow.h</text>
</a>
</g>
</g>
<!-- Node10&#45;&gt;Node11 -->
<g id="edge11" class="edge"><title>Node10&#45;&gt;Node11</title>
<path fill="none" stroke="midnightblue" d="M625.5,-185.537C625.5,-173.17 625.5,-157.62 625.5,-148.127"/>
<polygon fill="midnightblue" stroke="midnightblue" points="622,-185.734 625.5,-195.734 629,-185.734 622,-185.734"/>
</g>
<!-- Node17 -->
<g id="node17" class="node"><title>Node17</title>
<g id="a_node17"><a xlink:href="../../d3/d1f/glwindow_8cpp.html" target="_top" xlink:title="window/glwindow.cpp">
<polygon fill="none" stroke="black" points="857.5,-62 857.5,-81 969.5,-81 969.5,-62 857.5,-62"/>
<text text-anchor="middle" x="913.5" y="-69" font-family="Helvetica,sans-Serif" font-size="10.00">window/glwindow.cpp</text>
</a>
</g>
</g>
<!-- Node10&#45;&gt;Node17 -->
<g id="edge23" class="edge"><title>Node10&#45;&gt;Node17</title>
<path fill="none" stroke="midnightblue" d="M653.791,-191.533C712.421,-164.661 845.807,-103.526 894.908,-81.0212"/>
<polygon fill="midnightblue" stroke="midnightblue" points="652.029,-188.491 644.396,-195.839 654.945,-194.854 652.029,-188.491"/>
</g>
<!-- Node11&#45;&gt;Node5 -->
<g id="edge13" class="edge"><title>Node11&#45;&gt;Node5</title>
<path fill="none" stroke="midnightblue" d="M564.617,-132.61C473.602,-124.952 296.787,-108.728 147.5,-87 135.914,-85.3138 123.423,-83.1488 111.905,-81.0088"/>
<polygon fill="midnightblue" stroke="midnightblue" points="564.494,-136.112 574.751,-133.457 565.077,-129.136 564.494,-136.112"/>
</g>
<!-- Node11&#45;&gt;Node9 -->
<g id="edge14" class="edge"><title>Node11&#45;&gt;Node9</title>
<path fill="none" stroke="midnightblue" d="M686.08,-128.869C756.398,-118.843 875.855,-101.784 978.5,-87 991.87,-85.0743 1006.24,-82.9953 1019.81,-81.0293"/>
<polygon fill="midnightblue" stroke="midnightblue" points="685.475,-125.42 676.069,-130.296 686.463,-132.35 685.475,-125.42"/>
</g>
<!-- Node12 -->
<g id="node12" class="node"><title>Node12</title>
<g id="a_node12"><a xlink:href="../../db/d2b/BufferObject_8cpp.html" target="_top" xlink:title="engine/BufferObject\l/BufferObject.cpp">
<polygon fill="none" stroke="black" points="290,-56.5 290,-86.5 393,-86.5 393,-56.5 290,-56.5"/>
<text text-anchor="start" x="298" y="-74.5" font-family="Helvetica,sans-Serif" font-size="10.00">engine/BufferObject</text>
<text text-anchor="middle" x="341.5" y="-63.5" font-family="Helvetica,sans-Serif" font-size="10.00">/BufferObject.cpp</text>
</a>
</g>
</g>
<!-- Node11&#45;&gt;Node12 -->
<g id="edge12" class="edge"><title>Node11&#45;&gt;Node12</title>
<path fill="none" stroke="midnightblue" d="M577.374,-126.757C532.187,-116.634 462.715,-100.974 402.5,-87 399.425,-86.2864 396.264,-85.5483 393.076,-84.8006"/>
<polygon fill="midnightblue" stroke="midnightblue" points="576.673,-130.187 587.196,-128.956 578.202,-123.356 576.673,-130.187"/>
</g>
<!-- Node13 -->
<g id="node13" class="node"><title>Node13</title>
<g id="a_node13"><a xlink:href="../../d2/dcc/Mesh_8cpp.html" target="_top" xlink:title="engine/Mesh/Mesh.cpp">
<polygon fill="none" stroke="black" points="411.5,-62 411.5,-81 529.5,-81 529.5,-62 411.5,-62"/>
<text text-anchor="middle" x="470.5" y="-69" font-family="Helvetica,sans-Serif" font-size="10.00">engine/Mesh/Mesh.cpp</text>
</a>
</g>
</g>
<!-- Node11&#45;&gt;Node13 -->
<g id="edge15" class="edge"><title>Node11&#45;&gt;Node13</title>
<path fill="none" stroke="midnightblue" d="M595.569,-124.948C564.88,-112.079 517.961,-92.4032 491.168,-81.1672"/>
<polygon fill="midnightblue" stroke="midnightblue" points="594.342,-128.229 604.917,-128.869 597.049,-121.773 594.342,-128.229"/>
</g>
<!-- Node14 -->
<g id="node14" class="node"><title>Node14</title>
<g id="a_node14"><a xlink:href="../../da/d3d/BasicRenderer_8cpp.html" target="_top" xlink:title="engine/Renderer/BasicRenderer\l/BasicRenderer.cpp">
<polygon fill="none" stroke="black" points="548,-56.5 548,-86.5 703,-86.5 703,-56.5 548,-56.5"/>
<text text-anchor="start" x="556" y="-74.5" font-family="Helvetica,sans-Serif" font-size="10.00">engine/Renderer/BasicRenderer</text>
<text text-anchor="middle" x="625.5" y="-63.5" font-family="Helvetica,sans-Serif" font-size="10.00">/BasicRenderer.cpp</text>
</a>
</g>
</g>
<!-- Node11&#45;&gt;Node14 -->
<g id="edge16" class="edge"><title>Node11&#45;&gt;Node14</title>
<path fill="none" stroke="midnightblue" d="M625.5,-118.411C625.5,-108.222 625.5,-95.901 625.5,-86.589"/>
<polygon fill="midnightblue" stroke="midnightblue" points="622,-118.734 625.5,-128.734 629,-118.734 622,-118.734"/>
</g>
<!-- Node15 -->
<g id="node15" class="node"><title>Node15</title>
<g id="a_node15"><a xlink:href="../../dd/d84/Shader_8cpp.html" target="_top" xlink:title="engine/Shaders/Shader\l/Shader.cpp">
<polygon fill="none" stroke="black" points="721.5,-56.5 721.5,-86.5 839.5,-86.5 839.5,-56.5 721.5,-56.5"/>
<text text-anchor="start" x="729.5" y="-74.5" font-family="Helvetica,sans-Serif" font-size="10.00">engine/Shaders/Shader</text>
<text text-anchor="middle" x="780.5" y="-63.5" font-family="Helvetica,sans-Serif" font-size="10.00">/Shader.cpp</text>
</a>
</g>
</g>
<!-- Node11&#45;&gt;Node15 -->
<g id="edge17" class="edge"><title>Node11&#45;&gt;Node15</title>
<path fill="none" stroke="midnightblue" d="M655.516,-124.913C681.762,-113.906 719.831,-97.9418 747.048,-86.5281"/>
<polygon fill="midnightblue" stroke="midnightblue" points="653.951,-121.773 646.083,-128.869 656.658,-128.229 653.951,-121.773"/>
</g>
<!-- Node11&#45;&gt;Node16 -->
<g id="edge18" class="edge"><title>Node11&#45;&gt;Node16</title>
<path fill="none" stroke="midnightblue" d="M686.133,-132.174C819.801,-120.433 1139.67,-92.3366 1287.79,-79.326"/>
<polygon fill="midnightblue" stroke="midnightblue" points="685.727,-128.696 676.072,-133.058 686.34,-135.669 685.727,-128.696"/>
</g>
<!-- Node11&#45;&gt;Node17 -->
<g id="edge19" class="edge"><title>Node11&#45;&gt;Node17</title>
<path fill="none" stroke="midnightblue" d="M673.248,-126.724C729.958,-113.924 823.407,-92.8334 875.469,-81.0834"/>
<polygon fill="midnightblue" stroke="midnightblue" points="672.431,-123.32 663.447,-128.936 673.972,-130.148 672.431,-123.32"/>
</g>
<!-- Node18 -->
<g id="node18" class="node"><title>Node18</title>
<g id="a_node18"><a xlink:href="../../d9/d53/mainwindow_8h.html" target="_top" xlink:title="window/mainwindow.h">
<polygon fill="none" stroke="black" points="157,-62 157,-81 272,-81 272,-62 157,-62"/>
<text text-anchor="middle" x="214.5" y="-69" font-family="Helvetica,sans-Serif" font-size="10.00">window/mainwindow.h</text>
</a>
</g>
</g>
<!-- Node11&#45;&gt;Node18 -->
<g id="edge20" class="edge"><title>Node11&#45;&gt;Node18</title>
<path fill="none" stroke="midnightblue" d="M564.483,-129.899C495.368,-120.98 379.478,-105.093 280.5,-87 270.921,-85.2491 260.616,-83.1093 251.062,-81.0169"/>
<polygon fill="midnightblue" stroke="midnightblue" points="564.384,-133.415 574.748,-131.216 565.275,-126.472 564.384,-133.415"/>
</g>
<!-- Node19 -->
<g id="node19" class="node"><title>Node19</title>
<g id="a_node19"><a xlink:href="../../df/d0a/main_8cpp.html" target="_top" xlink:title="TODO. ">
<polygon fill="none" stroke="black" points="132.5,-0.5 132.5,-19.5 188.5,-19.5 188.5,-0.5 132.5,-0.5"/>
<text text-anchor="middle" x="160.5" y="-7.5" font-family="Helvetica,sans-Serif" font-size="10.00">main.cpp</text>
</a>
</g>
</g>
<!-- Node18&#45;&gt;Node19 -->
<g id="edge21" class="edge"><title>Node18&#45;&gt;Node19</title>
<path fill="none" stroke="midnightblue" d="M199.977,-54.4975C189.756,-43.2356 176.477,-28.6044 168.223,-19.5091"/>
<polygon fill="midnightblue" stroke="midnightblue" points="197.451,-56.9222 206.763,-61.9751 202.634,-52.2178 197.451,-56.9222"/>
</g>
<!-- Node20 -->
<g id="node20" class="node"><title>Node20</title>
<g id="a_node20"><a xlink:href="../../d8/dd9/mainwindow_8cpp.html" target="_top" xlink:title="window/mainwindow.cpp">
<polygon fill="none" stroke="black" points="206,-0.5 206,-19.5 331,-19.5 331,-0.5 206,-0.5"/>
<text text-anchor="middle" x="268.5" y="-7.5" font-family="Helvetica,sans-Serif" font-size="10.00">window/mainwindow.cpp</text>
</a>
</g>
</g>
<!-- Node18&#45;&gt;Node20 -->
<g id="edge22" class="edge"><title>Node18&#45;&gt;Node20</title>
<path fill="none" stroke="midnightblue" d="M229.023,-54.4975C239.244,-43.2356 252.523,-28.6044 260.777,-19.5091"/>
<polygon fill="midnightblue" stroke="midnightblue" points="226.366,-52.2178 222.237,-61.9751 231.549,-56.9222 226.366,-52.2178"/>
</g>
<!-- Node23&#45;&gt;Node8 -->
<g id="edge27" class="edge"><title>Node23&#45;&gt;Node8</title>
<path fill="none" stroke="midnightblue" d="M922.067,-314.387C923.599,-296.916 928.08,-273.553 940.5,-257 960.087,-230.896 986.501,-248.223 1004.5,-221 1017.93,-200.695 1017.43,-171.152 1015.62,-153.773"/>
<polygon fill="midnightblue" stroke="midnightblue" points="918.573,-314.194 921.45,-324.39 925.559,-314.625 918.573,-314.194"/>
</g>
<!-- Node24 -->
<g id="node24" class="node"><title>Node24</title>
<g id="a_node24"><a xlink:href="../../dd/d2e/Model_8cpp.html" target="_top" xlink:title="engine/GameObject/Model\l/Model.cpp">
<polygon fill="none" stroke="black" points="949.5,-257.5 949.5,-287.5 1081.5,-287.5 1081.5,-257.5 949.5,-257.5"/>
<text text-anchor="start" x="957.5" y="-275.5" font-family="Helvetica,sans-Serif" font-size="10.00">engine/GameObject/Model</text>
<text text-anchor="middle" x="1015.5" y="-264.5" font-family="Helvetica,sans-Serif" font-size="10.00">/Model.cpp</text>
</a>
</g>
</g>
<!-- Node23&#45;&gt;Node24 -->
<g id="edge28" class="edge"><title>Node23&#45;&gt;Node24</title>
<path fill="none" stroke="midnightblue" d="M950.494,-318.451C964.955,-308.452 982.095,-296.6 995.143,-287.577"/>
<polygon fill="midnightblue" stroke="midnightblue" points="948.131,-315.83 941.897,-324.396 952.112,-321.587 948.131,-315.83"/>
</g>
<!-- Node25&#45;&gt;Node9 -->
<g id="edge30" class="edge"><title>Node25&#45;&gt;Node9</title>
<path fill="none" stroke="midnightblue" d="M1124.46,-314.113C1121.74,-297.906 1118.01,-276.16 1114.5,-257 1102.08,-189.269 1085.68,-107.851 1080.29,-81.32"/>
<polygon fill="midnightblue" stroke="midnightblue" points="1121.07,-315.062 1126.17,-324.348 1127.97,-313.908 1121.07,-315.062"/>
</g>
<!-- Node25&#45;&gt;Node21 -->
<g id="edge32" class="edge"><title>Node25&#45;&gt;Node21</title>
<path fill="none" stroke="midnightblue" d="M1122.9,-314.428C1117.49,-296.27 1107.54,-272.006 1090.5,-257 1064.13,-233.783 1027.01,-221.225 995.377,-214.44"/>
<polygon fill="midnightblue" stroke="midnightblue" points="1119.58,-315.564 1125.58,-324.297 1126.33,-313.729 1119.58,-315.564"/>
</g>
<!-- Node26 -->
<g id="node26" class="node"><title>Node26</title>
<g id="a_node26"><a xlink:href="../../d6/d05/Cube_8cpp.html" target="_top" xlink:title="engine/Primitives/Cube\l/Cube.cpp">
<polygon fill="none" stroke="black" points="1175.5,-257.5 1175.5,-287.5 1293.5,-287.5 1293.5,-257.5 1175.5,-257.5"/>
<text text-anchor="start" x="1183.5" y="-275.5" font-family="Helvetica,sans-Serif" font-size="10.00">engine/Primitives/Cube</text>
<text text-anchor="middle" x="1234.5" y="-264.5" font-family="Helvetica,sans-Serif" font-size="10.00">/Cube.cpp</text>
</a>
</g>
</g>
<!-- Node25&#45;&gt;Node26 -->
<g id="edge31" class="edge"><title>Node25&#45;&gt;Node26</title>
<path fill="none" stroke="midnightblue" d="M1160.28,-319.015C1176.77,-308.9 1196.55,-296.77 1211.54,-287.577"/>
<polygon fill="midnightblue" stroke="midnightblue" points="1158.2,-316.185 1151.5,-324.396 1161.85,-322.152 1158.2,-316.185"/>
</g>
<!-- Node29 -->
<g id="node29" class="node"><title>Node29</title>
<g id="a_node29"><a xlink:href="../../d4/d46/ShaderProgramManager_8cpp.html" target="_top" xlink:title="engine/Shaders/Managers\l/ShaderProgramManager\l/ShaderProgramManager.cpp">
<polygon fill="none" stroke="black" points="1244,-391.5 1244,-432.5 1387,-432.5 1387,-391.5 1244,-391.5"/>
<text text-anchor="start" x="1252" y="-420.5" font-family="Helvetica,sans-Serif" font-size="10.00">engine/Shaders/Managers</text>
<text text-anchor="start" x="1252" y="-409.5" font-family="Helvetica,sans-Serif" font-size="10.00">/ShaderProgramManager</text>
<text text-anchor="middle" x="1315.5" y="-398.5" font-family="Helvetica,sans-Serif" font-size="10.00">/ShaderProgramManager.cpp</text>
</a>
</g>
</g>
<!-- Node28&#45;&gt;Node29 -->
<g id="edge36" class="edge"><title>Node28&#45;&gt;Node29</title>
<path fill="none" stroke="midnightblue" d="M1310.63,-459.297C1311.57,-450.301 1312.59,-440.653 1313.45,-432.506"/>
<polygon fill="midnightblue" stroke="midnightblue" points="1307.13,-459.117 1309.56,-469.428 1314.09,-459.849 1307.13,-459.117"/>
</g>
<!-- Node30&#45;&gt;Node24 -->
<g id="edge38" class="edge"><title>Node30&#45;&gt;Node24</title>
<path fill="none" stroke="midnightblue" d="M1114.42,-460.502C1089.7,-413.763 1041.43,-322.521 1022.95,-287.578"/>
<polygon fill="midnightblue" stroke="midnightblue" points="1111.41,-462.293 1119.18,-469.496 1117.6,-459.02 1111.41,-462.293"/>
</g>
<!-- Node30&#45;&gt;Node26 -->
<g id="edge39" class="edge"><title>Node30&#45;&gt;Node26</title>
<path fill="none" stroke="midnightblue" d="M1144.2,-460.176C1157.93,-433.115 1178.89,-391.454 1196.5,-355 1207.84,-331.524 1220.56,-303.994 1228.03,-287.69"/>
<polygon fill="midnightblue" stroke="midnightblue" points="1141.07,-458.605 1139.66,-469.106 1147.31,-461.776 1141.07,-458.605"/>
</g>
<!-- Node30&#45;&gt;Node29 -->
<g id="edge40" class="edge"><title>Node30&#45;&gt;Node29</title>
<path fill="none" stroke="midnightblue" d="M1186.75,-465.609C1212.71,-455.001 1243.05,-442.602 1267.76,-432.506"/>
<polygon fill="midnightblue" stroke="midnightblue" points="1185.33,-462.406 1177.4,-469.428 1187.98,-468.886 1185.33,-462.406"/>
</g>
</g>
</svg>
        <g id="navigator" transform="translate(0 0)" fill="#404254">
                <rect fill="#f2f5e9" fill-opacity="0.5" stroke="#606060" stroke-width=".5" x="0" y="0" width="60" height="60"/>
                <use id="zoomplus" xlink:href="#zoomPlus" x="17" y="9" onmousedown="handleZoom(evt,'in')"/>
                <use id="zoomminus" xlink:href="#zoomMin" x="42" y="9" onmousedown="handleZoom(evt,'out')"/>
                <use id="reset" xlink:href="#resetDef" x="30" y="36" onmousedown="handleReset()"/>
                <g id="arrowUp" xlink:href="#dirArrow" transform="translate(30 24)" onmousedown="handlePan(0,-1)">
                  <use xlink:href="#rim" fill="#404040">
                        <set attributeName="fill" to="#808080" begin="arrowUp.mouseover" end="arrowUp.mouseout"/>
                  </use>
                  <path fill="none" stroke="white" stroke-width="1.5" d="M0,-3.0v7 M-2.5,-0.5L0,-3.0L2.5,-0.5"/>
                </g>
                <g id="arrowRight" xlink:href="#dirArrow" transform="rotate(90) translate(36 -43)" onmousedown="handlePan(1,0)">
                  <use xlink:href="#rim" fill="#404040">
                        <set attributeName="fill" to="#808080" begin="arrowRight.mouseover" end="arrowRight.mouseout"/>
                  </use>
                  <path fill="none" stroke="white" stroke-width="1.5" d="M0,-3.0v7 M-2.5,-0.5L0,-3.0L2.5,-0.5"/>
                </g>
                <g id="arrowDown" xlink:href="#dirArrow" transform="rotate(180) translate(-30 -48)" onmousedown="handlePan(0,1)">
                  <use xlink:href="#rim" fill="#404040">
                        <set attributeName="fill" to="#808080" begin="arrowDown.mouseover" end="arrowDown.mouseout"/>
                  </use>
                  <path fill="none" stroke="white" stroke-width="1.5" d="M0,-3.0v7 M-2.5,-0.5L0,-3.0L2.5,-0.5"/>
                </g>
                <g id="arrowLeft" xlink:href="#dirArrow" transform="rotate(270) translate(-36 17)" onmousedown="handlePan(-1,0)">
                  <use xlink:href="#rim" fill="#404040">
                        <set attributeName="fill" to="#808080" begin="arrowLeft.mouseover" end="arrowLeft.mouseout"/>
                  </use>
                  <path fill="none" stroke="white" stroke-width="1.5" d="M0,-3.0v7 M-2.5,-0.5L0,-3.0L2.5,-0.5"/>
                </g>
        </g>
        <svg viewBox="0 0 15 15" width="100%" height="30px" preserveAspectRatio="xMaxYMin meet">
         <g id="arrow_out" transform="scale(0.3 0.3)">
          <a xlink:href="ShaderProgram_8hpp__dep__incl_org.svg" target="_base">
           <rect id="button" ry="5" rx="5" y="6" x="6" height="38" width="38"
                fill="#f2f5e9" fill-opacity="0.5" stroke="#606060" stroke-width="1.0"/>
           <path id="arrow"
             d="M 11.500037,31.436501 C 11.940474,20.09759 22.043105,11.32322 32.158766,21.979434 L 37.068811,17.246167 C 37.068811,17.246167 37.088388,32 37.088388,32 L 22.160133,31.978069 C 22.160133,31.978069 26.997745,27.140456 26.997745,27.140456 C 18.528582,18.264221 13.291696,25.230495 11.500037,31.436501 z"
             style="fill:#404040;"/>
          </a>
         </g>
        </svg>
</svg>
