<?xml version="1.0" encoding="UTF-8" standalone="no"?>
<!DOCTYPE svg PUBLIC "-//W3C//DTD SVG 1.1//EN"
 "http://www.w3.org/Graphics/SVG/1.1/DTD/svg11.dtd">
<!-- Generated by graphviz version 2.38.0 (20140413.2041)
 -->
<!-- Title: engine/ShaderProgram/ShaderProgram.hpp Pages: 1 -->
<svg width="1149pt" height="419pt"
 viewBox="0.00 0.00 1148.50 419.00" xmlns="http://www.w3.org/2000/svg" xmlns:xlink="http://www.w3.org/1999/xlink">
<g id="graph0" class="graph" transform="scale(1 1) rotate(0) translate(4 415)">
<title>engine/ShaderProgram/ShaderProgram.hpp</title>
<!-- Node1 -->
<g id="node1" class="node"><title>Node1</title>
<polygon fill="#bfbfbf" stroke="black" points="180,-380.5 180,-410.5 296,-410.5 296,-380.5 180,-380.5"/>
<text text-anchor="start" x="188" y="-398.5" font-family="Helvetica,sans-Serif" font-size="10.00">engine/ShaderProgram</text>
<text text-anchor="middle" x="238" y="-387.5" font-family="Helvetica,sans-Serif" font-size="10.00">/ShaderProgram.hpp</text>
</g>
<!-- Node2 -->
<g id="node2" class="node"><title>Node2</title>
<g id="a_node2"><a xlink:href="../../d4/d0f/Material_8cpp.html" target="_top" xlink:title="engine/Material/Material.cpp">
<polygon fill="none" stroke="black" points="12.5,-319 12.5,-338 151.5,-338 151.5,-319 12.5,-319"/>
<text text-anchor="middle" x="82" y="-326" font-family="Helvetica,sans-Serif" font-size="10.00">engine/Material/Material.cpp</text>
</a>
</g>
</g>
<!-- Node1&#45;&gt;Node2 -->
<g id="edge1" class="edge"><title>Node1&#45;&gt;Node2</title>
<path fill="none" stroke="midnightblue" d="M194.7,-376.458C164.56,-363.9 125.738,-347.724 102.417,-338.007"/>
<polygon fill="midnightblue" stroke="midnightblue" points="193.573,-379.781 204.15,-380.396 196.266,-373.319 193.573,-379.781"/>
</g>
<!-- Node3 -->
<g id="node3" class="node"><title>Node3</title>
<g id="a_node3"><a xlink:href="../../de/d34/ShaderProgram_8cpp.html" target="_top" xlink:title="engine/ShaderProgram\l/ShaderProgram.cpp">
<polygon fill="none" stroke="black" points="-7.10543e-15,-56.5 -7.10543e-15,-86.5 116,-86.5 116,-56.5 -7.10543e-15,-56.5"/>
<text text-anchor="start" x="8" y="-74.5" font-family="Helvetica,sans-Serif" font-size="10.00">engine/ShaderProgram</text>
<text text-anchor="middle" x="58" y="-63.5" font-family="Helvetica,sans-Serif" font-size="10.00">/ShaderProgram.cpp</text>
</a>
</g>
</g>
<!-- Node1&#45;&gt;Node3 -->
<g id="edge2" class="edge"><title>Node1&#45;&gt;Node3</title>
<path fill="none" stroke="midnightblue" d="M217.598,-372.37C210.812,-364 203.775,-354.057 199,-344 183.046,-310.402 180,-299.694 180,-262.5 180,-262.5 180,-262.5 180,-193.5 180,-142.339 125.247,-105.422 89.1014,-86.6244"/>
<polygon fill="midnightblue" stroke="midnightblue" points="215.07,-374.799 224.208,-380.16 220.407,-370.27 215.07,-374.799"/>
</g>
<!-- Node4 -->
<g id="node4" class="node"><title>Node4</title>
<g id="a_node4"><a xlink:href="../../dd/d4f/ShaderProgramMapping_8hpp.html" target="_top" xlink:title="engine/ShaderProgramLibrary\l/internal/ShaderProgramMapping.hpp">
<polygon fill="none" stroke="black" points="207.5,-313.5 207.5,-343.5 384.5,-343.5 384.5,-313.5 207.5,-313.5"/>
<text text-anchor="start" x="215.5" y="-331.5" font-family="Helvetica,sans-Serif" font-size="10.00">engine/ShaderProgramLibrary</text>
<text text-anchor="middle" x="296" y="-320.5" font-family="Helvetica,sans-Serif" font-size="10.00">/internal/ShaderProgramMapping.hpp</text>
</a>
</g>
</g>
<!-- Node1&#45;&gt;Node4 -->
<g id="edge3" class="edge"><title>Node1&#45;&gt;Node4</title>
<path fill="none" stroke="midnightblue" d="M257.42,-372.736C266.002,-363.119 275.844,-352.089 283.439,-343.577"/>
<polygon fill="midnightblue" stroke="midnightblue" points="254.632,-370.604 250.585,-380.396 259.855,-375.265 254.632,-370.604"/>
</g>
<!-- Node6 -->
<g id="node6" class="node"><title>Node6</title>
<g id="a_node6"><a xlink:href="../../d1/d93/ShaderProgramLibrary_8hpp.html" target="_top" xlink:title="engine/ShaderProgramLibrary\l/ShaderProgramLibrary.hpp">
<polygon fill="none" stroke="black" points="402.5,-313.5 402.5,-343.5 547.5,-343.5 547.5,-313.5 402.5,-313.5"/>
<text text-anchor="start" x="410.5" y="-331.5" font-family="Helvetica,sans-Serif" font-size="10.00">engine/ShaderProgramLibrary</text>
<text text-anchor="middle" x="475" y="-320.5" font-family="Helvetica,sans-Serif" font-size="10.00">/ShaderProgramLibrary.hpp</text>
</a>
</g>
</g>
<!-- Node1&#45;&gt;Node6 -->
<g id="edge5" class="edge"><title>Node1&#45;&gt;Node6</title>
<path fill="none" stroke="midnightblue" d="M299.201,-377.715C337.768,-367.137 387.001,-353.635 423.549,-343.611"/>
<polygon fill="midnightblue" stroke="midnightblue" points="297.852,-374.456 289.134,-380.476 299.703,-381.206 297.852,-374.456"/>
</g>
<!-- Node5 -->
<g id="node5" class="node"><title>Node5</title>
<g id="a_node5"><a xlink:href="../../d8/d9e/ShaderProgramLibrary_8cpp.html" target="_top" xlink:title="engine/ShaderProgramLibrary\l/ShaderProgramLibrary.cpp">
<polygon fill="none" stroke="black" points="239.5,-246.5 239.5,-276.5 384.5,-276.5 384.5,-246.5 239.5,-246.5"/>
<text text-anchor="start" x="247.5" y="-264.5" font-family="Helvetica,sans-Serif" font-size="10.00">engine/ShaderProgramLibrary</text>
<text text-anchor="middle" x="312" y="-253.5" font-family="Helvetica,sans-Serif" font-size="10.00">/ShaderProgramLibrary.cpp</text>
</a>
</g>
</g>
<!-- Node4&#45;&gt;Node5 -->
<g id="edge4" class="edge"><title>Node4&#45;&gt;Node5</title>
<path fill="none" stroke="midnightblue" d="M301.932,-303.403C304.155,-294.37 306.607,-284.408 308.535,-276.577"/>
<polygon fill="midnightblue" stroke="midnightblue" points="298.463,-302.849 299.472,-313.396 305.261,-304.522 298.463,-302.849"/>
</g>
<!-- Node6&#45;&gt;Node5 -->
<g id="edge27" class="edge"><title>Node6&#45;&gt;Node5</title>
<path fill="none" stroke="midnightblue" d="M430.317,-309.682C404.175,-299.257 371.634,-286.281 347.3,-276.577"/>
<polygon fill="midnightblue" stroke="midnightblue" points="429.046,-312.943 439.631,-313.396 431.639,-306.441 429.046,-312.943"/>
</g>
<!-- Node7 -->
<g id="node7" class="node"><title>Node7</title>
<g id="a_node7"><a xlink:href="../../d2/d3b/MaterialLibrary_8cpp.html" target="_top" xlink:title="engine/MaterialLibrary\l/MaterialLibrary.cpp">
<polygon fill="none" stroke="black" points="419,-246.5 419,-276.5 531,-276.5 531,-246.5 419,-246.5"/>
<text text-anchor="start" x="427" y="-264.5" font-family="Helvetica,sans-Serif" font-size="10.00">engine/MaterialLibrary</text>
<text text-anchor="middle" x="475" y="-253.5" font-family="Helvetica,sans-Serif" font-size="10.00">/MaterialLibrary.cpp</text>
</a>
</g>
</g>
<!-- Node6&#45;&gt;Node7 -->
<g id="edge6" class="edge"><title>Node6&#45;&gt;Node7</title>
<path fill="none" stroke="midnightblue" d="M475,-303.108C475,-294.154 475,-284.323 475,-276.577"/>
<polygon fill="midnightblue" stroke="midnightblue" points="471.5,-303.396 475,-313.396 478.5,-303.396 471.5,-303.396"/>
</g>
<!-- Node8 -->
<g id="node8" class="node"><title>Node8</title>
<g id="a_node8"><a xlink:href="../../db/de8/Scene_8hpp.html" target="_top" xlink:title="engine/Scene/Scene.hpp">
<polygon fill="none" stroke="black" points="580.5,-252 580.5,-271 705.5,-271 705.5,-252 580.5,-252"/>
<text text-anchor="middle" x="643" y="-259" font-family="Helvetica,sans-Serif" font-size="10.00">engine/Scene/Scene.hpp</text>
</a>
</g>
</g>
<!-- Node6&#45;&gt;Node8 -->
<g id="edge7" class="edge"><title>Node6&#45;&gt;Node8</title>
<path fill="none" stroke="midnightblue" d="M520.789,-309.784C553.364,-297.181 595.68,-280.808 621.013,-271.007"/>
<polygon fill="midnightblue" stroke="midnightblue" points="519.517,-306.523 511.453,-313.396 522.043,-313.052 519.517,-306.523"/>
</g>
<!-- Node9 -->
<g id="node9" class="node"><title>Node9</title>
<g id="a_node9"><a xlink:href="../../d4/d7f/AssimpImporter_8cpp.html" target="_top" xlink:title="engine/AssimpImporter\l/AssimpImporter.cpp">
<polygon fill="none" stroke="black" points="251.5,-179.5 251.5,-209.5 368.5,-209.5 368.5,-179.5 251.5,-179.5"/>
<text text-anchor="start" x="259.5" y="-197.5" font-family="Helvetica,sans-Serif" font-size="10.00">engine/AssimpImporter</text>
<text text-anchor="middle" x="310" y="-186.5" font-family="Helvetica,sans-Serif" font-size="10.00">/AssimpImporter.cpp</text>
</a>
</g>
</g>
<!-- Node8&#45;&gt;Node9 -->
<g id="edge8" class="edge"><title>Node8&#45;&gt;Node9</title>
<path fill="none" stroke="midnightblue" d="M586.499,-250.102C532.8,-240.132 449.81,-224.497 378,-210 374.924,-209.379 371.771,-208.734 368.589,-208.078"/>
<polygon fill="midnightblue" stroke="midnightblue" points="586.035,-253.575 596.506,-251.957 587.311,-246.692 586.035,-253.575"/>
</g>
<!-- Node10 -->
<g id="node10" class="node"><title>Node10</title>
<g id="a_node10"><a xlink:href="../../d4/d1c/GameEngine_8hpp.html" target="_top" xlink:title="engine/GameEngine/GameEngine.hpp">
<polygon fill="none" stroke="black" points="387,-185 387,-204 569,-204 569,-185 387,-185"/>
<text text-anchor="middle" x="478" y="-192" font-family="Helvetica,sans-Serif" font-size="10.00">engine/GameEngine/GameEngine.hpp</text>
</a>
</g>
</g>
<!-- Node8&#45;&gt;Node10 -->
<g id="edge9" class="edge"><title>Node8&#45;&gt;Node10</title>
<path fill="none" stroke="midnightblue" d="M611.534,-248.104C578.773,-235.198 528.33,-215.327 499.739,-204.064"/>
<polygon fill="midnightblue" stroke="midnightblue" points="610.502,-251.46 621.089,-251.869 613.068,-244.947 610.502,-251.46"/>
</g>
<!-- Node22 -->
<g id="node22" class="node"><title>Node22</title>
<g id="a_node22"><a xlink:href="../../d2/d41/Light_8cpp.html" target="_top" xlink:title="engine/Light/Light.cpp">
<polygon fill="none" stroke="black" points="587,-185 587,-204 699,-204 699,-185 587,-185"/>
<text text-anchor="middle" x="643" y="-192" font-family="Helvetica,sans-Serif" font-size="10.00">engine/Light/Light.cpp</text>
</a>
</g>
</g>
<!-- Node8&#45;&gt;Node22 -->
<g id="edge23" class="edge"><title>Node8&#45;&gt;Node22</title>
<path fill="none" stroke="midnightblue" d="M643,-241.537C643,-229.17 643,-213.62 643,-204.127"/>
<polygon fill="midnightblue" stroke="midnightblue" points="639.5,-241.734 643,-251.734 646.5,-241.734 639.5,-241.734"/>
</g>
<!-- Node23 -->
<g id="node23" class="node"><title>Node23</title>
<g id="a_node23"><a xlink:href="../../de/d4f/Object_8cpp.html" target="_top" xlink:title="engine/Object/Object.cpp">
<polygon fill="none" stroke="black" points="717.5,-185 717.5,-204 844.5,-204 844.5,-185 717.5,-185"/>
<text text-anchor="middle" x="781" y="-192" font-family="Helvetica,sans-Serif" font-size="10.00">engine/Object/Object.cpp</text>
</a>
</g>
</g>
<!-- Node8&#45;&gt;Node23 -->
<g id="edge24" class="edge"><title>Node8&#45;&gt;Node23</title>
<path fill="none" stroke="midnightblue" d="M670.72,-247.444C698.053,-234.569 739.054,-215.257 762.599,-204.167"/>
<polygon fill="midnightblue" stroke="midnightblue" points="668.881,-244.441 661.325,-251.869 671.863,-250.774 668.881,-244.441"/>
</g>
<!-- Node24 -->
<g id="node24" class="node"><title>Node24</title>
<g id="a_node24"><a xlink:href="../../da/daf/PerspectiveCamera_8cpp.html" target="_top" xlink:title="engine/PerspectiveCamera\l/PerspectiveCamera.cpp">
<polygon fill="none" stroke="black" points="863,-179.5 863,-209.5 997,-209.5 997,-179.5 863,-179.5"/>
<text text-anchor="start" x="871" y="-197.5" font-family="Helvetica,sans-Serif" font-size="10.00">engine/PerspectiveCamera</text>
<text text-anchor="middle" x="930" y="-186.5" font-family="Helvetica,sans-Serif" font-size="10.00">/PerspectiveCamera.cpp</text>
</a>
</g>
</g>
<!-- Node8&#45;&gt;Node24 -->
<g id="edge25" class="edge"><title>Node8&#45;&gt;Node24</title>
<path fill="none" stroke="midnightblue" d="M690.75,-249.685C739.305,-238.689 814.758,-221.6 867.923,-209.559"/>
<polygon fill="midnightblue" stroke="midnightblue" points="689.795,-246.313 680.815,-251.936 691.341,-253.14 689.795,-246.313"/>
</g>
<!-- Node25 -->
<g id="node25" class="node"><title>Node25</title>
<g id="a_node25"><a xlink:href="../../de/d15/Scene_8cpp.html" target="_top" xlink:title="engine/Scene/Scene.cpp">
<polygon fill="none" stroke="black" points="1015.5,-185 1015.5,-204 1140.5,-204 1140.5,-185 1015.5,-185"/>
<text text-anchor="middle" x="1078" y="-192" font-family="Helvetica,sans-Serif" font-size="10.00">engine/Scene/Scene.cpp</text>
</a>
</g>
</g>
<!-- Node8&#45;&gt;Node25 -->
<g id="edge26" class="edge"><title>Node8&#45;&gt;Node25</title>
<path fill="none" stroke="midnightblue" d="M715.877,-251.678C789.315,-242.479 905.802,-227.043 1006,-210 1016.31,-208.247 1027.4,-206.129 1037.71,-204.06"/>
<polygon fill="midnightblue" stroke="midnightblue" points="715.297,-248.223 705.807,-252.934 716.163,-255.169 715.297,-248.223"/>
</g>
<!-- Node11 -->
<g id="node11" class="node"><title>Node11</title>
<g id="a_node11"><a xlink:href="../../dd/d98/GameEngine_8cpp.html" target="_top" xlink:title="engine/GameEngine/GameEngine.cpp">
<polygon fill="none" stroke="black" points="253,-123.5 253,-142.5 435,-142.5 435,-123.5 253,-123.5"/>
<text text-anchor="middle" x="344" y="-130.5" font-family="Helvetica,sans-Serif" font-size="10.00">engine/GameEngine/GameEngine.cpp</text>
</a>
</g>
</g>
<!-- Node10&#45;&gt;Node11 -->
<g id="edge10" class="edge"><title>Node10&#45;&gt;Node11</title>
<path fill="none" stroke="midnightblue" d="M449.46,-180.827C423.445,-169.276 385.735,-152.532 363.163,-142.509"/>
<polygon fill="midnightblue" stroke="midnightblue" points="448.241,-184.116 458.801,-184.975 451.082,-177.718 448.241,-184.116"/>
</g>
<!-- Node12 -->
<g id="node12" class="node"><title>Node12</title>
<g id="a_node12"><a xlink:href="../../d0/d5e/glwindow_8hpp.html" target="_top" xlink:title="window/glwindow.hpp">
<polygon fill="none" stroke="black" points="453,-123.5 453,-142.5 565,-142.5 565,-123.5 453,-123.5"/>
<text text-anchor="middle" x="509" y="-130.5" font-family="Helvetica,sans-Serif" font-size="10.00">window/glwindow.hpp</text>
</a>
</g>
</g>
<!-- Node10&#45;&gt;Node12 -->
<g id="edge11" class="edge"><title>Node10&#45;&gt;Node12</title>
<path fill="none" stroke="midnightblue" d="M487.204,-175.835C492.938,-164.828 500.058,-151.163 504.567,-142.509"/>
<polygon fill="midnightblue" stroke="midnightblue" points="483.958,-174.489 482.442,-184.975 490.166,-177.724 483.958,-174.489"/>
</g>
<!-- Node18 -->
<g id="node18" class="node"><title>Node18</title>
<g id="a_node18"><a xlink:href="../../d3/d1f/glwindow_8cpp.html" target="_top" xlink:title="window/glwindow.cpp">
<polygon fill="none" stroke="black" points="970,-62 970,-81 1082,-81 1082,-62 970,-62"/>
<text text-anchor="middle" x="1026" y="-69" font-family="Helvetica,sans-Serif" font-size="10.00">window/glwindow.cpp</text>
</a>
</g>
</g>
<!-- Node10&#45;&gt;Node18 -->
<g id="edge22" class="edge"><title>Node10&#45;&gt;Node18</title>
<path fill="none" stroke="midnightblue" d="M526.689,-182.806C613.814,-163.66 802.142,-122.233 961,-87 969.692,-85.0723 979.035,-82.9925 987.852,-81.0263"/>
<polygon fill="midnightblue" stroke="midnightblue" points="525.839,-179.409 516.824,-184.973 527.342,-186.246 525.839,-179.409"/>
</g>
<!-- Node12&#45;&gt;Node3 -->
<g id="edge17" class="edge"><title>Node12&#45;&gt;Node3</title>
<path fill="none" stroke="midnightblue" d="M443.017,-122.913C300.737,-105.42 262.63,-109.6 125,-87 122.064,-86.5179 119.062,-85.9917 116.036,-85.4345"/>
<polygon fill="midnightblue" stroke="midnightblue" points="442.636,-126.393 452.992,-124.154 443.501,-119.446 442.636,-126.393"/>
</g>
<!-- Node13 -->
<g id="node13" class="node"><title>Node13</title>
<g id="a_node13"><a xlink:href="../../d8/d49/ArrayObject_8cpp.html" target="_top" xlink:title="engine/ArrayObject\l/ArrayObject.cpp">
<polygon fill="none" stroke="black" points="134,-56.5 134,-86.5 234,-86.5 234,-56.5 134,-56.5"/>
<text text-anchor="start" x="142" y="-74.5" font-family="Helvetica,sans-Serif" font-size="10.00">engine/ArrayObject</text>
<text text-anchor="middle" x="184" y="-63.5" font-family="Helvetica,sans-Serif" font-size="10.00">/ArrayObject.cpp</text>
</a>
</g>
</g>
<!-- Node12&#45;&gt;Node13 -->
<g id="edge12" class="edge"><title>Node12&#45;&gt;Node13</title>
<path fill="none" stroke="midnightblue" d="M442.871,-122.067C389.118,-113.682 311.42,-100.854 244,-87 240.746,-86.3313 237.4,-85.612 234.032,-84.864"/>
<polygon fill="midnightblue" stroke="midnightblue" points="442.538,-125.557 452.957,-123.632 443.612,-118.64 442.538,-125.557"/>
</g>
<!-- Node14 -->
<g id="node14" class="node"><title>Node14</title>
<g id="a_node14"><a xlink:href="../../db/d2b/BufferObject_8cpp.html" target="_top" xlink:title="engine/BufferObject\l/BufferObject.cpp">
<polygon fill="none" stroke="black" points="252.5,-56.5 252.5,-86.5 355.5,-86.5 355.5,-56.5 252.5,-56.5"/>
<text text-anchor="start" x="260.5" y="-74.5" font-family="Helvetica,sans-Serif" font-size="10.00">engine/BufferObject</text>
<text text-anchor="middle" x="304" y="-63.5" font-family="Helvetica,sans-Serif" font-size="10.00">/BufferObject.cpp</text>
</a>
</g>
</g>
<!-- Node12&#45;&gt;Node14 -->
<g id="edge13" class="edge"><title>Node12&#45;&gt;Node14</title>
<path fill="none" stroke="midnightblue" d="M469.754,-120.609C436.312,-110.903 388.122,-96.9159 352.314,-86.523"/>
<polygon fill="midnightblue" stroke="midnightblue" points="469.049,-124.049 479.628,-123.475 471,-117.326 469.049,-124.049"/>
</g>
<!-- Node15 -->
<g id="node15" class="node"><title>Node15</title>
<g id="a_node15"><a xlink:href="../../d2/dcc/Mesh_8cpp.html" target="_top" xlink:title="engine/Mesh/Mesh.cpp">
<polygon fill="none" stroke="black" points="374,-62 374,-81 492,-81 492,-62 374,-62"/>
<text text-anchor="middle" x="433" y="-69" font-family="Helvetica,sans-Serif" font-size="10.00">engine/Mesh/Mesh.cpp</text>
</a>
</g>
</g>
<!-- Node12&#45;&gt;Node15 -->
<g id="edge14" class="edge"><title>Node12&#45;&gt;Node15</title>
<path fill="none" stroke="midnightblue" d="M490.216,-117.294C475.637,-105.88 455.938,-90.4577 443.869,-81.0091"/>
<polygon fill="midnightblue" stroke="midnightblue" points="488.079,-120.066 498.111,-123.475 492.395,-114.555 488.079,-120.066"/>
</g>
<!-- Node16 -->
<g id="node16" class="node"><title>Node16</title>
<g id="a_node16"><a xlink:href="../../d3/d28/Renderer_8cpp.html" target="_top" xlink:title="engine/Renderer/Renderer.cpp">
<polygon fill="none" stroke="black" points="510.5,-62 510.5,-81 659.5,-81 659.5,-62 510.5,-62"/>
<text text-anchor="middle" x="585" y="-69" font-family="Helvetica,sans-Serif" font-size="10.00">engine/Renderer/Renderer.cpp</text>
</a>
</g>
</g>
<!-- Node12&#45;&gt;Node16 -->
<g id="edge15" class="edge"><title>Node12&#45;&gt;Node16</title>
<path fill="none" stroke="midnightblue" d="M527.784,-117.294C542.363,-105.88 562.062,-90.4577 574.131,-81.0091"/>
<polygon fill="midnightblue" stroke="midnightblue" points="525.605,-114.555 519.889,-123.475 529.921,-120.066 525.605,-114.555"/>
</g>
<!-- Node17 -->
<g id="node17" class="node"><title>Node17</title>
<g id="a_node17"><a xlink:href="../../dd/d84/Shader_8cpp.html" target="_top" xlink:title="engine/Shader/Shader.cpp">
<polygon fill="none" stroke="black" points="677.5,-62 677.5,-81 808.5,-81 808.5,-62 677.5,-62"/>
<text text-anchor="middle" x="743" y="-69" font-family="Helvetica,sans-Serif" font-size="10.00">engine/Shader/Shader.cpp</text>
</a>
</g>
</g>
<!-- Node12&#45;&gt;Node17 -->
<g id="edge16" class="edge"><title>Node12&#45;&gt;Node17</title>
<path fill="none" stroke="midnightblue" d="M552.385,-120.968C597.823,-109.415 668.209,-91.5173 709.536,-81.0091"/>
<polygon fill="midnightblue" stroke="midnightblue" points="551.356,-117.619 542.526,-123.475 553.081,-124.403 551.356,-117.619"/>
</g>
<!-- Node12&#45;&gt;Node18 -->
<g id="edge18" class="edge"><title>Node12&#45;&gt;Node18</title>
<path fill="none" stroke="midnightblue" d="M575.455,-127.895C663.872,-121.861 824.877,-108.878 961,-87 970.932,-85.4038 981.62,-83.2179 991.404,-81.0274"/>
<polygon fill="midnightblue" stroke="midnightblue" points="575.043,-124.415 565.301,-128.579 575.513,-131.399 575.043,-124.415"/>
</g>
<!-- Node19 -->
<g id="node19" class="node"><title>Node19</title>
<g id="a_node19"><a xlink:href="../../df/d50/mainwindow_8hpp.html" target="_top" xlink:title="window/mainwindow.hpp">
<polygon fill="none" stroke="black" points="826.5,-62 826.5,-81 951.5,-81 951.5,-62 826.5,-62"/>
<text text-anchor="middle" x="889" y="-69" font-family="Helvetica,sans-Serif" font-size="10.00">window/mainwindow.hpp</text>
</a>
</g>
</g>
<!-- Node12&#45;&gt;Node19 -->
<g id="edge19" class="edge"><title>Node12&#45;&gt;Node19</title>
<path fill="none" stroke="midnightblue" d="M575.403,-123.44C638.096,-115.096 734.66,-101.566 818,-87 828.162,-85.2238 839.099,-83.0978 849.271,-81.0283"/>
<polygon fill="midnightblue" stroke="midnightblue" points="574.71,-120.002 565.256,-124.785 575.629,-126.941 574.71,-120.002"/>
</g>
<!-- Node20 -->
<g id="node20" class="node"><title>Node20</title>
<g id="a_node20"><a xlink:href="../../df/d0a/main_8cpp.html" target="_top" xlink:title="TODO. ">
<polygon fill="none" stroke="black" points="807,-0.5 807,-19.5 863,-19.5 863,-0.5 807,-0.5"/>
<text text-anchor="middle" x="835" y="-7.5" font-family="Helvetica,sans-Serif" font-size="10.00">main.cpp</text>
</a>
</g>
</g>
<!-- Node19&#45;&gt;Node20 -->
<g id="edge20" class="edge"><title>Node19&#45;&gt;Node20</title>
<path fill="none" stroke="midnightblue" d="M874.477,-54.4975C864.256,-43.2356 850.977,-28.6044 842.723,-19.5091"/>
<polygon fill="midnightblue" stroke="midnightblue" points="871.951,-56.9222 881.263,-61.9751 877.134,-52.2178 871.951,-56.9222"/>
</g>
<!-- Node21 -->
<g id="node21" class="node"><title>Node21</title>
<g id="a_node21"><a xlink:href="../../d8/dd9/mainwindow_8cpp.html" target="_top" xlink:title="window/mainwindow.cpp">
<polygon fill="none" stroke="black" points="880.5,-0.5 880.5,-19.5 1005.5,-19.5 1005.5,-0.5 880.5,-0.5"/>
<text text-anchor="middle" x="943" y="-7.5" font-family="Helvetica,sans-Serif" font-size="10.00">window/mainwindow.cpp</text>
</a>
</g>
</g>
<!-- Node19&#45;&gt;Node21 -->
<g id="edge21" class="edge"><title>Node19&#45;&gt;Node21</title>
<path fill="none" stroke="midnightblue" d="M903.523,-54.4975C913.744,-43.2356 927.023,-28.6044 935.277,-19.5091"/>
<polygon fill="midnightblue" stroke="midnightblue" points="900.866,-52.2178 896.737,-61.9751 906.049,-56.9222 900.866,-52.2178"/>
</g>
</g>
</svg>
