<?xml version="1.0" encoding="UTF-8" standalone="no"?>
<!DOCTYPE svg PUBLIC "-//W3C//DTD SVG 1.1//EN"
 "http://www.w3.org/Graphics/SVG/1.1/DTD/svg11.dtd">
<!-- Generated by graphviz version 2.38.0 (20140413.2041)
 -->
<!-- Title: engine/Light/Light.hpp Pages: 1 -->
<svg width="552pt" height="95pt"
 viewBox="0.00 0.00 552.00 95.00" xmlns="http://www.w3.org/2000/svg" xmlns:xlink="http://www.w3.org/1999/xlink">
<g id="graph0" class="graph" transform="scale(1 1) rotate(0) translate(4 91)">
<title>engine/Light/Light.hpp</title>
<!-- Node1 -->
<g id="node1" class="node"><title>Node1</title>
<polygon fill="#bfbfbf" stroke="black" points="225,-67.5 225,-86.5 337,-86.5 337,-67.5 225,-67.5"/>
<text text-anchor="middle" x="281" y="-74.5" font-family="Helvetica,sans-Serif" font-size="10.00">engine/Light/Light.hpp</text>
</g>
<!-- Node2 -->
<g id="node2" class="node"><title>Node2</title>
<g id="a_node2"><a xlink:href="../../d2/d41/Light_8cpp.html" target="_top" xlink:title="engine/Light/Light.cpp">
<polygon fill="none" stroke="black" points="0,-6 0,-25 112,-25 112,-6 0,-6"/>
<text text-anchor="middle" x="56" y="-13" font-family="Helvetica,sans-Serif" font-size="10.00">engine/Light/Light.cpp</text>
</a>
</g>
</g>
<!-- Node1&#45;&gt;Node2 -->
<g id="edge1" class="edge"><title>Node1&#45;&gt;Node2</title>
<path fill="none" stroke="midnightblue" d="M239.008,-64.8956C195.309,-53.3396 127.831,-35.4952 88.1772,-25.0091"/>
<polygon fill="midnightblue" stroke="midnightblue" points="238.2,-68.3022 248.763,-67.4751 239.99,-61.5348 238.2,-68.3022"/>
</g>
<!-- Node3 -->
<g id="node3" class="node"><title>Node3</title>
<g id="a_node3"><a xlink:href="../../d3/d28/Renderer_8cpp.html" target="_top" xlink:title="engine/Renderer/Renderer.cpp">
<polygon fill="none" stroke="black" points="129.5,-6 129.5,-25 278.5,-25 278.5,-6 129.5,-6"/>
<text text-anchor="middle" x="204" y="-13" font-family="Helvetica,sans-Serif" font-size="10.00">engine/Renderer/Renderer.cpp</text>
</a>
</g>
</g>
<!-- Node1&#45;&gt;Node3 -->
<g id="edge2" class="edge"><title>Node1&#45;&gt;Node3</title>
<path fill="none" stroke="midnightblue" d="M261.968,-61.2938C247.198,-49.8803 227.239,-34.4577 215.012,-25.0091"/>
<polygon fill="midnightblue" stroke="midnightblue" points="259.915,-64.1301 269.968,-67.4751 264.195,-58.5911 259.915,-64.1301"/>
</g>
<!-- Node4 -->
<g id="node4" class="node"><title>Node4</title>
<g id="a_node4"><a xlink:href="../../d2/d22/SceneGraphNode_8cpp.html" target="_top" xlink:title="engine/SceneGraphNode\l/SceneGraphNode.cpp">
<polygon fill="none" stroke="black" points="296.5,-0.5 296.5,-30.5 421.5,-30.5 421.5,-0.5 296.5,-0.5"/>
<text text-anchor="start" x="304.5" y="-18.5" font-family="Helvetica,sans-Serif" font-size="10.00">engine/SceneGraphNode</text>
<text text-anchor="middle" x="359" y="-7.5" font-family="Helvetica,sans-Serif" font-size="10.00">/SceneGraphNode.cpp</text>
</a>
</g>
</g>
<!-- Node1&#45;&gt;Node4 -->
<g id="edge3" class="edge"><title>Node1&#45;&gt;Node4</title>
<path fill="none" stroke="midnightblue" d="M300.408,-61.1955C312.707,-51.8129 328.519,-39.7512 340.617,-30.523"/>
<polygon fill="midnightblue" stroke="midnightblue" points="298.004,-58.6272 292.175,-67.4751 302.249,-64.1928 298.004,-58.6272"/>
</g>
<!-- Node5 -->
<g id="node5" class="node"><title>Node5</title>
<g id="a_node5"><a xlink:href="../../d3/d35/SpatialGraph_8cpp.html" target="_top" xlink:title="engine/SpatialGraph\l/SpatialGraph.cpp">
<polygon fill="none" stroke="black" points="440,-0.5 440,-30.5 544,-30.5 544,-0.5 440,-0.5"/>
<text text-anchor="start" x="448" y="-18.5" font-family="Helvetica,sans-Serif" font-size="10.00">engine/SpatialGraph</text>
<text text-anchor="middle" x="492" y="-7.5" font-family="Helvetica,sans-Serif" font-size="10.00">/SpatialGraph.cpp</text>
</a>
</g>
</g>
<!-- Node1&#45;&gt;Node5 -->
<g id="edge4" class="edge"><title>Node1&#45;&gt;Node5</title>
<path fill="none" stroke="midnightblue" d="M320.951,-64.7343C355.387,-55.0234 405.257,-40.9607 442.271,-30.523"/>
<polygon fill="midnightblue" stroke="midnightblue" points="319.906,-61.3923 311.231,-67.4751 321.806,-68.1296 319.906,-61.3923"/>
</g>
</g>
</svg>
