<?xml version="1.0" encoding="UTF-8" standalone="no"?>
<!DOCTYPE svg PUBLIC "-//W3C//DTD SVG 1.1//EN"
 "http://www.w3.org/Graphics/SVG/1.1/DTD/svg11.dtd">
<!-- Generated by graphviz version 2.38.0 (20140413.2041)
 -->
<!-- Title: engine/BufferObject/BufferObject.hpp Pages: 1 -->
<!--zoomable 542 -->
<svg id="main" version="1.1" xmlns="http://www.w3.org/2000/svg" xmlns:xlink="http://www.w3.org/1999/xlink" xml:space="preserve" onload="init(evt)">
<style type="text/css"><![CDATA[
.edge:hover path { stroke: red; }
.edge:hover polygon { stroke: red; fill: red; }
]]></style>
<script type="text/javascript"><![CDATA[
var edges = document.getElementsByTagName('g');
if (edges && edges.length) {
  for (var i=0;i<edges.length;i++) {
    if (edges[i].id.substr(0,4)=='edge') {
      edges[i].setAttribute('class','edge');
    }
  }
}
]]></script>
        <defs>
                <circle id="rim" cx="0" cy="0" r="7"/>
                <circle id="rim2" cx="0" cy="0" r="3.5"/>
                <g id="zoomPlus">
                        <use xlink:href="#rim" fill="#404040">
                                <set attributeName="fill" to="#808080" begin="zoomplus.mouseover" end="zoomplus.mouseout"/>
                        </use>
                        <path d="M-4,0h8M0,-4v8" fill="none" stroke="white" stroke-width="1.5" pointer-events="none"/>
                </g>
                <g id="zoomMin">
                        <use xlink:href="#rim" fill="#404040">
                                <set attributeName="fill" to="#808080" begin="zoomminus.mouseover" end="zoomminus.mouseout"/>
                        </use>
                        <path d="M-4,0h8" fill="none" stroke="white" stroke-width="1.5" pointer-events="none"/>
                </g>
                <g id="dirArrow">
                        <path fill="none" stroke="white" stroke-width="1.5" d="M0,-3.0v7 M-2.5,-0.5L0,-3.0L2.5,-0.5"/>
                </g>
               <g id="resetDef">
                       <use xlink:href="#rim2" fill="#404040">
                               <set attributeName="fill" to="#808080" begin="reset.mouseover" end="reset.mouseout"/>
                       </use>
               </g>
        </defs>

<script type="text/javascript">
var viewWidth = 1351;
var viewHeight = 542;
var sectionId = 'dynsection-1';
</script>
<script xlink:href="../../svgpan.js"/>
<svg id="graph" class="graph">
<g id="viewport">
<title>engine/BufferObject/BufferObject.hpp</title>
<!-- Node1 -->
<g id="node1" class="node"><title>Node1</title>
<polygon fill="#bfbfbf" stroke="black" points="620,-503.5 620,-533.5 723,-533.5 723,-503.5 620,-503.5"/>
<text text-anchor="start" x="628" y="-521.5" font-family="Helvetica,sans-Serif" font-size="10.00">engine/BufferObject</text>
<text text-anchor="middle" x="671.5" y="-510.5" font-family="Helvetica,sans-Serif" font-size="10.00">/BufferObject.hpp</text>
</g>
<!-- Node2 -->
<g id="node2" class="node"><title>Node2</title>
<g id="a_node2"><a xlink:href="../../db/d2b/BufferObject_8cpp.html" target="_top" xlink:title="engine/BufferObject\l/BufferObject.cpp">
<polygon fill="none" stroke="black" points="0,-56.5 0,-86.5 103,-86.5 103,-56.5 0,-56.5"/>
<text text-anchor="start" x="8" y="-74.5" font-family="Helvetica,sans-Serif" font-size="10.00">engine/BufferObject</text>
<text text-anchor="middle" x="51.5" y="-63.5" font-family="Helvetica,sans-Serif" font-size="10.00">/BufferObject.cpp</text>
</a>
</g>
</g>
<!-- Node1&#45;&gt;Node2 -->
<g id="edge1" class="edge"><title>Node1&#45;&gt;Node2</title>
<path fill="none" stroke="midnightblue" d="M610.063,-510.579C546.833,-499.641 457.5,-471.83 457.5,-402 457.5,-402 457.5,-402 457.5,-204.5 457.5,-186.086 212.785,-116.702 103.333,-86.5893"/>
<polygon fill="midnightblue" stroke="midnightblue" points="609.537,-514.039 619.969,-512.194 610.663,-507.131 609.537,-514.039"/>
</g>
<!-- Node3 -->
<g id="node3" class="node"><title>Node3</title>
<g id="a_node3"><a xlink:href="../../d1/d62/Mesh_8hpp.html" target="_top" xlink:title="engine/Mesh/Mesh.hpp">
<polygon fill="none" stroke="black" points="827.5,-447.5 827.5,-466.5 945.5,-466.5 945.5,-447.5 827.5,-447.5"/>
<text text-anchor="middle" x="886.5" y="-454.5" font-family="Helvetica,sans-Serif" font-size="10.00">engine/Mesh/Mesh.hpp</text>
</a>
</g>
</g>
<!-- Node1&#45;&gt;Node3 -->
<g id="edge2" class="edge"><title>Node1&#45;&gt;Node3</title>
<path fill="none" stroke="midnightblue" d="M731.914,-500.781C772.243,-489.62 823.591,-475.41 855.763,-466.506"/>
<polygon fill="midnightblue" stroke="midnightblue" points="730.884,-497.434 722.18,-503.475 732.751,-504.181 730.884,-497.434"/>
</g>
<!-- Node4 -->
<g id="node4" class="node"><title>Node4</title>
<g id="a_node4"><a xlink:href="../../d4/db5/GameObject_8hpp.html" target="_top" xlink:title="engine/GameObject/GameObject.hpp">
<polygon fill="none" stroke="black" points="797,-391.5 797,-410.5 976,-410.5 976,-391.5 797,-391.5"/>
<text text-anchor="middle" x="886.5" y="-398.5" font-family="Helvetica,sans-Serif" font-size="10.00">engine/GameObject/GameObject.hpp</text>
</a>
</g>
</g>
<!-- Node3&#45;&gt;Node4 -->
<g id="edge3" class="edge"><title>Node3&#45;&gt;Node4</title>
<path fill="none" stroke="midnightblue" d="M886.5,-436.805C886.5,-427.91 886.5,-417.78 886.5,-410.751"/>
<polygon fill="midnightblue" stroke="midnightblue" points="883,-437.083 886.5,-447.083 890,-437.083 883,-437.083"/>
</g>
<!-- Node13 -->
<g id="node13" class="node"><title>Node13</title>
<g id="a_node13"><a xlink:href="../../d2/dcc/Mesh_8cpp.html" target="_top" xlink:title="engine/Mesh/Mesh.cpp">
<polygon fill="none" stroke="black" points="1224.5,-62 1224.5,-81 1342.5,-81 1342.5,-62 1224.5,-62"/>
<text text-anchor="middle" x="1283.5" y="-69" font-family="Helvetica,sans-Serif" font-size="10.00">engine/Mesh/Mesh.cpp</text>
</a>
</g>
</g>
<!-- Node3&#45;&gt;Node13 -->
<g id="edge35" class="edge"><title>Node3&#45;&gt;Node13</title>
<path fill="none" stroke="midnightblue" d="M955.784,-450.099C1069.32,-438.497 1282.5,-407.757 1282.5,-340.5 1282.5,-340.5 1282.5,-340.5 1282.5,-204.5 1282.5,-157.978 1283.13,-102.235 1283.39,-81.1486"/>
<polygon fill="midnightblue" stroke="midnightblue" points="955.388,-446.621 945.785,-451.098 956.084,-453.587 955.388,-446.621"/>
</g>
<!-- Node5 -->
<g id="node5" class="node"><title>Node5</title>
<g id="a_node5"><a xlink:href="../../d6/d80/Camera_8hpp.html" target="_top" xlink:title="engine/Camera/Camera.hpp">
<polygon fill="none" stroke="black" points="719,-330 719,-349 858,-349 858,-330 719,-330"/>
<text text-anchor="middle" x="788.5" y="-337" font-family="Helvetica,sans-Serif" font-size="10.00">engine/Camera/Camera.hpp</text>
</a>
</g>
</g>
<!-- Node4&#45;&gt;Node5 -->
<g id="edge4" class="edge"><title>Node4&#45;&gt;Node5</title>
<path fill="none" stroke="midnightblue" d="M863.843,-386.244C844.911,-374.75 818.514,-358.723 802.515,-349.009"/>
<polygon fill="midnightblue" stroke="midnightblue" points="862.095,-389.277 872.459,-391.475 865.728,-383.294 862.095,-389.277"/>
</g>
<!-- Node7 -->
<g id="node7" class="node"><title>Node7</title>
<g id="a_node7"><a xlink:href="../../db/de8/Scene_8hpp.html" target="_top" xlink:title="engine/Scene/Scene.hpp">
<polygon fill="none" stroke="black" points="770,-263 770,-282 895,-282 895,-263 770,-263"/>
<text text-anchor="middle" x="832.5" y="-270" font-family="Helvetica,sans-Serif" font-size="10.00">engine/Scene/Scene.hpp</text>
</a>
</g>
</g>
<!-- Node4&#45;&gt;Node7 -->
<g id="edge34" class="edge"><title>Node4&#45;&gt;Node7</title>
<path fill="none" stroke="midnightblue" d="M883.738,-381.154C880.975,-365.38 875.903,-342.541 867.5,-324 860.279,-308.066 847.946,-291.822 840.014,-282.205"/>
<polygon fill="midnightblue" stroke="midnightblue" points="880.315,-381.911 885.357,-391.229 887.226,-380.8 880.315,-381.911"/>
</g>
<!-- Node22 -->
<g id="node22" class="node"><title>Node22</title>
<g id="a_node22"><a xlink:href="../../d4/d2b/GameObject_8cpp.html" target="_top" xlink:title="engine/GameObject/GameObject.cpp">
<polygon fill="none" stroke="black" points="522,-330 522,-349 701,-349 701,-330 522,-330"/>
<text text-anchor="middle" x="611.5" y="-337" font-family="Helvetica,sans-Serif" font-size="10.00">engine/GameObject/GameObject.cpp</text>
</a>
</g>
</g>
<!-- Node4&#45;&gt;Node22 -->
<g id="edge26" class="edge"><title>Node4&#45;&gt;Node22</title>
<path fill="none" stroke="midnightblue" d="M837.187,-389.33C783.856,-377.792 699.905,-359.628 650.828,-349.009"/>
<polygon fill="midnightblue" stroke="midnightblue" points="836.585,-392.781 847.099,-391.475 838.066,-385.939 836.585,-392.781"/>
</g>
<!-- Node23 -->
<g id="node23" class="node"><title>Node23</title>
<g id="a_node23"><a xlink:href="../../df/d6e/Model_8hpp.html" target="_top" xlink:title="engine/GameObject/Model\l/Model.hpp">
<polygon fill="none" stroke="black" points="914.5,-324.5 914.5,-354.5 1046.5,-354.5 1046.5,-324.5 914.5,-324.5"/>
<text text-anchor="start" x="922.5" y="-342.5" font-family="Helvetica,sans-Serif" font-size="10.00">engine/GameObject/Model</text>
<text text-anchor="middle" x="980.5" y="-331.5" font-family="Helvetica,sans-Serif" font-size="10.00">/Model.hpp</text>
</a>
</g>
</g>
<!-- Node4&#45;&gt;Node23 -->
<g id="edge27" class="edge"><title>Node4&#45;&gt;Node23</title>
<path fill="none" stroke="midnightblue" d="M908.604,-386.008C923.598,-376.518 943.342,-364.02 958.346,-354.523"/>
<polygon fill="midnightblue" stroke="midnightblue" points="906.546,-383.169 899.968,-391.475 910.289,-389.084 906.546,-383.169"/>
</g>
<!-- Node25 -->
<g id="node25" class="node"><title>Node25</title>
<g id="a_node25"><a xlink:href="../../d4/dd0/Cube_8hpp.html" target="_top" xlink:title="engine/Primitives/Cube\l/Cube.hpp">
<polygon fill="none" stroke="black" points="1101.5,-257.5 1101.5,-287.5 1219.5,-287.5 1219.5,-257.5 1101.5,-257.5"/>
<text text-anchor="start" x="1109.5" y="-275.5" font-family="Helvetica,sans-Serif" font-size="10.00">engine/Primitives/Cube</text>
<text text-anchor="middle" x="1160.5" y="-264.5" font-family="Helvetica,sans-Serif" font-size="10.00">/Cube.hpp</text>
</a>
</g>
</g>
<!-- Node4&#45;&gt;Node25 -->
<g id="edge30" class="edge"><title>Node4&#45;&gt;Node25</title>
<path fill="none" stroke="midnightblue" d="M949.745,-389.421C982.444,-382.421 1022.34,-371.435 1055.5,-355 1091.48,-337.169 1127.05,-305.926 1146.16,-287.741"/>
<polygon fill="midnightblue" stroke="midnightblue" points="948.928,-386.016 939.843,-391.467 950.344,-392.871 948.928,-386.016"/>
</g>
<!-- Node6 -->
<g id="node6" class="node"><title>Node6</title>
<g id="a_node6"><a xlink:href="../../da/d8c/Camera_8cpp.html" target="_top" xlink:title="engine/Camera/Camera.cpp">
<polygon fill="none" stroke="black" points="121,-62 121,-81 260,-81 260,-62 121,-62"/>
<text text-anchor="middle" x="190.5" y="-69" font-family="Helvetica,sans-Serif" font-size="10.00">engine/Camera/Camera.cpp</text>
</a>
</g>
</g>
<!-- Node5&#45;&gt;Node6 -->
<g id="edge5" class="edge"><title>Node5&#45;&gt;Node6</title>
<path fill="none" stroke="midnightblue" d="M758.63,-326.012C714.702,-306.903 631.116,-267.673 568.5,-221 519.364,-184.375 525.772,-151.463 471.5,-123 390.353,-80.4419 358.655,-103.374 268.5,-87 258.065,-85.1048 246.851,-83.0379 236.27,-81.074"/>
<polygon fill="midnightblue" stroke="midnightblue" points="757.321,-329.259 767.89,-329.996 760.088,-322.829 757.321,-329.259"/>
</g>
<!-- Node5&#45;&gt;Node7 -->
<g id="edge6" class="edge"><title>Node5&#45;&gt;Node7</title>
<path fill="none" stroke="midnightblue" d="M800.073,-321.404C808.623,-308.773 819.906,-292.104 826.66,-282.127"/>
<polygon fill="midnightblue" stroke="midnightblue" points="797.141,-319.491 794.434,-329.734 802.938,-323.415 797.141,-319.491"/>
</g>
<!-- Node8 -->
<g id="node8" class="node"><title>Node8</title>
<g id="a_node8"><a xlink:href="../../d0/dbd/AssimpImporter_8hpp.html" target="_top" xlink:title="engine/AssimpImporter\l/AssimpImporter.hpp">
<polygon fill="none" stroke="black" points="778,-190.5 778,-220.5 895,-220.5 895,-190.5 778,-190.5"/>
<text text-anchor="start" x="786" y="-208.5" font-family="Helvetica,sans-Serif" font-size="10.00">engine/AssimpImporter</text>
<text text-anchor="middle" x="836.5" y="-197.5" font-family="Helvetica,sans-Serif" font-size="10.00">/AssimpImporter.hpp</text>
</a>
</g>
</g>
<!-- Node7&#45;&gt;Node8 -->
<g id="edge7" class="edge"><title>Node7&#45;&gt;Node8</title>
<path fill="none" stroke="midnightblue" d="M833.655,-252.739C834.285,-242.487 835.054,-230.001 835.633,-220.589"/>
<polygon fill="midnightblue" stroke="midnightblue" points="830.16,-252.538 833.039,-262.734 837.147,-252.968 830.16,-252.538"/>
</g>
<!-- Node11 -->
<g id="node11" class="node"><title>Node11</title>
<g id="a_node11"><a xlink:href="../../d4/d1c/GameEngine_8hpp.html" target="_top" xlink:title="engine/GameEngine/GameEngine.hpp">
<polygon fill="none" stroke="black" points="577.5,-196 577.5,-215 759.5,-215 759.5,-196 577.5,-196"/>
<text text-anchor="middle" x="668.5" y="-203" font-family="Helvetica,sans-Serif" font-size="10.00">engine/GameEngine/GameEngine.hpp</text>
</a>
</g>
</g>
<!-- Node7&#45;&gt;Node11 -->
<g id="edge10" class="edge"><title>Node7&#45;&gt;Node11</title>
<path fill="none" stroke="midnightblue" d="M801.224,-259.104C768.662,-246.198 718.525,-226.327 690.107,-215.064"/>
<polygon fill="midnightblue" stroke="midnightblue" points="800.136,-262.438 810.722,-262.869 802.715,-255.93 800.136,-262.438"/>
</g>
<!-- Node21 -->
<g id="node21" class="node"><title>Node21</title>
<g id="a_node21"><a xlink:href="../../de/d15/Scene_8cpp.html" target="_top" xlink:title="engine/Scene/Scene.cpp">
<polygon fill="none" stroke="black" points="952,-196 952,-215 1077,-215 1077,-196 952,-196"/>
<text text-anchor="middle" x="1014.5" y="-203" font-family="Helvetica,sans-Serif" font-size="10.00">engine/Scene/Scene.cpp</text>
</a>
</g>
</g>
<!-- Node7&#45;&gt;Node21 -->
<g id="edge25" class="edge"><title>Node7&#45;&gt;Node21</title>
<path fill="none" stroke="midnightblue" d="M866.278,-259.436C902.383,-246.542 958.712,-226.424 990.522,-215.064"/>
<polygon fill="midnightblue" stroke="midnightblue" points="864.908,-256.209 856.668,-262.869 867.263,-262.801 864.908,-256.209"/>
</g>
<!-- Node9 -->
<g id="node9" class="node"><title>Node9</title>
<g id="a_node9"><a xlink:href="../../d4/d7f/AssimpImporter_8cpp.html" target="_top" xlink:title="engine/AssimpImporter\l/AssimpImporter.cpp">
<polygon fill="none" stroke="black" points="865,-123.5 865,-153.5 982,-153.5 982,-123.5 865,-123.5"/>
<text text-anchor="start" x="873" y="-141.5" font-family="Helvetica,sans-Serif" font-size="10.00">engine/AssimpImporter</text>
<text text-anchor="middle" x="923.5" y="-130.5" font-family="Helvetica,sans-Serif" font-size="10.00">/AssimpImporter.cpp</text>
</a>
</g>
</g>
<!-- Node8&#45;&gt;Node9 -->
<g id="edge8" class="edge"><title>Node8&#45;&gt;Node9</title>
<path fill="none" stroke="midnightblue" d="M863.714,-184.168C877.018,-174.228 892.696,-162.514 904.659,-153.577"/>
<polygon fill="midnightblue" stroke="midnightblue" points="861.294,-181.607 855.378,-190.396 865.484,-187.215 861.294,-181.607"/>
</g>
<!-- Node10 -->
<g id="node10" class="node"><title>Node10</title>
<g id="a_node10"><a xlink:href="../../dd/d98/GameEngine_8cpp.html" target="_top" xlink:title="engine/GameEngine/GameEngine.cpp">
<polygon fill="none" stroke="black" points="1024.5,-62 1024.5,-81 1206.5,-81 1206.5,-62 1024.5,-62"/>
<text text-anchor="middle" x="1115.5" y="-69" font-family="Helvetica,sans-Serif" font-size="10.00">engine/GameEngine/GameEngine.cpp</text>
</a>
</g>
</g>
<!-- Node8&#45;&gt;Node10 -->
<g id="edge9" class="edge"><title>Node8&#45;&gt;Node10</title>
<path fill="none" stroke="midnightblue" d="M835.883,-180.269C836.786,-161.988 841.144,-137.635 856.5,-123 864.024,-115.829 991.068,-93.4422 1064.37,-81.0195"/>
<polygon fill="midnightblue" stroke="midnightblue" points="832.38,-180.406 835.697,-190.469 839.379,-180.534 832.38,-180.406"/>
</g>
<!-- Node11&#45;&gt;Node10 -->
<g id="edge11" class="edge"><title>Node11&#45;&gt;Node10</title>
<path fill="none" stroke="midnightblue" d="M694.918,-191.371C740.137,-168.933 828.234,-125.378 835.5,-123 875.815,-109.809 988.065,-91.587 1057.58,-81.0223"/>
<polygon fill="midnightblue" stroke="midnightblue" points="693.106,-188.363 685.706,-195.945 696.219,-194.633 693.106,-188.363"/>
</g>
<!-- Node12 -->
<g id="node12" class="node"><title>Node12</title>
<g id="a_node12"><a xlink:href="../../d1/d2a/glwindow_8h.html" target="_top" xlink:title="window/glwindow.h">
<polygon fill="none" stroke="black" points="616,-129 616,-148 717,-148 717,-129 616,-129"/>
<text text-anchor="middle" x="666.5" y="-136" font-family="Helvetica,sans-Serif" font-size="10.00">window/glwindow.h</text>
</a>
</g>
</g>
<!-- Node11&#45;&gt;Node12 -->
<g id="edge12" class="edge"><title>Node11&#45;&gt;Node12</title>
<path fill="none" stroke="midnightblue" d="M667.917,-185.537C667.536,-173.17 667.058,-157.62 666.765,-148.127"/>
<polygon fill="midnightblue" stroke="midnightblue" points="664.424,-185.846 668.23,-195.734 671.421,-185.631 664.424,-185.846"/>
</g>
<!-- Node17 -->
<g id="node17" class="node"><title>Node17</title>
<g id="a_node17"><a xlink:href="../../d3/d1f/glwindow_8cpp.html" target="_top" xlink:title="window/glwindow.cpp">
<polygon fill="none" stroke="black" points="894.5,-62 894.5,-81 1006.5,-81 1006.5,-62 894.5,-62"/>
<text text-anchor="middle" x="950.5" y="-69" font-family="Helvetica,sans-Serif" font-size="10.00">window/glwindow.cpp</text>
</a>
</g>
</g>
<!-- Node11&#45;&gt;Node17 -->
<g id="edge24" class="edge"><title>Node11&#45;&gt;Node17</title>
<path fill="none" stroke="midnightblue" d="M685.839,-189.119C707.049,-171.015 744.691,-141.127 781.5,-123 805.469,-111.196 875.285,-92.0202 917.308,-81.0069"/>
<polygon fill="midnightblue" stroke="midnightblue" points="683.316,-186.674 678.053,-195.869 687.902,-191.963 683.316,-186.674"/>
</g>
<!-- Node12&#45;&gt;Node2 -->
<g id="edge13" class="edge"><title>Node12&#45;&gt;Node2</title>
<path fill="none" stroke="midnightblue" d="M605.648,-133.095C482.022,-123.96 205.273,-102.512 111.5,-87 108.751,-86.5453 105.942,-86.0334 103.112,-85.4806"/>
<polygon fill="midnightblue" stroke="midnightblue" points="605.473,-136.591 615.704,-133.836 605.988,-129.61 605.473,-136.591"/>
</g>
<!-- Node12&#45;&gt;Node6 -->
<g id="edge14" class="edge"><title>Node12&#45;&gt;Node6</title>
<path fill="none" stroke="midnightblue" d="M605.639,-130.881C527.43,-122.122 387.541,-105.601 268.5,-87 257.341,-85.2563 245.328,-83.142 234.153,-81.0733"/>
<polygon fill="midnightblue" stroke="midnightblue" points="605.466,-134.383 615.793,-132.013 606.242,-127.426 605.466,-134.383"/>
</g>
<!-- Node12&#45;&gt;Node10 -->
<g id="edge15" class="edge"><title>Node12&#45;&gt;Node10</title>
<path fill="none" stroke="midnightblue" d="M726.983,-128.754C796.578,-118.688 914.295,-101.659 1015.5,-87 1028.87,-85.0636 1043.24,-82.9803 1056.81,-81.0136"/>
<polygon fill="midnightblue" stroke="midnightblue" points="726.468,-125.292 717.072,-130.187 727.47,-132.22 726.468,-125.292"/>
</g>
<!-- Node12&#45;&gt;Node13 -->
<g id="edge16" class="edge"><title>Node12&#45;&gt;Node13</title>
<path fill="none" stroke="midnightblue" d="M727.486,-132.807C850.116,-123.221 1122.75,-101.104 1215.5,-87 1225.88,-85.4212 1237.06,-83.2408 1247.3,-81.0501"/>
<polygon fill="midnightblue" stroke="midnightblue" points="726.851,-129.346 717.154,-133.613 727.396,-136.325 726.851,-129.346"/>
</g>
<!-- Node14 -->
<g id="node14" class="node"><title>Node14</title>
<g id="a_node14"><a xlink:href="../../da/d3d/BasicRenderer_8cpp.html" target="_top" xlink:title="engine/Renderer/BasicRenderer\l/BasicRenderer.cpp">
<polygon fill="none" stroke="black" points="278,-56.5 278,-86.5 433,-86.5 433,-56.5 278,-56.5"/>
<text text-anchor="start" x="286" y="-74.5" font-family="Helvetica,sans-Serif" font-size="10.00">engine/Renderer/BasicRenderer</text>
<text text-anchor="middle" x="355.5" y="-63.5" font-family="Helvetica,sans-Serif" font-size="10.00">/BasicRenderer.cpp</text>
</a>
</g>
</g>
<!-- Node12&#45;&gt;Node14 -->
<g id="edge17" class="edge"><title>Node12&#45;&gt;Node14</title>
<path fill="none" stroke="midnightblue" d="M615.416,-126.823C562.827,-115.832 480.621,-98.6506 422.768,-86.5592"/>
<polygon fill="midnightblue" stroke="midnightblue" points="615.018,-130.316 625.522,-128.936 616.45,-123.464 615.018,-130.316"/>
</g>
<!-- Node15 -->
<g id="node15" class="node"><title>Node15</title>
<g id="a_node15"><a xlink:href="../../dd/d84/Shader_8cpp.html" target="_top" xlink:title="engine/Shaders/Shader\l/Shader.cpp">
<polygon fill="none" stroke="black" points="451.5,-56.5 451.5,-86.5 569.5,-86.5 569.5,-56.5 451.5,-56.5"/>
<text text-anchor="start" x="459.5" y="-74.5" font-family="Helvetica,sans-Serif" font-size="10.00">engine/Shaders/Shader</text>
<text text-anchor="middle" x="510.5" y="-63.5" font-family="Helvetica,sans-Serif" font-size="10.00">/Shader.cpp</text>
</a>
</g>
</g>
<!-- Node12&#45;&gt;Node15 -->
<g id="edge18" class="edge"><title>Node12&#45;&gt;Node15</title>
<path fill="none" stroke="midnightblue" d="M636.291,-124.913C609.875,-113.906 571.56,-97.9418 544.167,-86.5281"/>
<polygon fill="midnightblue" stroke="midnightblue" points="635.207,-128.253 645.784,-128.869 637.9,-121.792 635.207,-128.253"/>
</g>
<!-- Node16 -->
<g id="node16" class="node"><title>Node16</title>
<g id="a_node16"><a xlink:href="../../de/d34/ShaderProgram_8cpp.html" target="_top" xlink:title="engine/Shaders/ShaderProgram\l/ShaderProgram.cpp">
<polygon fill="none" stroke="black" points="588,-56.5 588,-86.5 743,-86.5 743,-56.5 588,-56.5"/>
<text text-anchor="start" x="596" y="-74.5" font-family="Helvetica,sans-Serif" font-size="10.00">engine/Shaders/ShaderProgram</text>
<text text-anchor="middle" x="665.5" y="-63.5" font-family="Helvetica,sans-Serif" font-size="10.00">/ShaderProgram.cpp</text>
</a>
</g>
</g>
<!-- Node12&#45;&gt;Node16 -->
<g id="edge19" class="edge"><title>Node12&#45;&gt;Node16</title>
<path fill="none" stroke="midnightblue" d="M666.206,-118.411C666.05,-108.222 665.86,-95.901 665.717,-86.589"/>
<polygon fill="midnightblue" stroke="midnightblue" points="662.712,-118.789 666.365,-128.734 669.711,-118.681 662.712,-118.789"/>
</g>
<!-- Node12&#45;&gt;Node17 -->
<g id="edge20" class="edge"><title>Node12&#45;&gt;Node17</title>
<path fill="none" stroke="midnightblue" d="M713.932,-126.644C769.889,-113.837 861.765,-92.8091 912.997,-81.0834"/>
<polygon fill="midnightblue" stroke="midnightblue" points="712.887,-123.293 703.92,-128.936 714.449,-130.116 712.887,-123.293"/>
</g>
<!-- Node18 -->
<g id="node18" class="node"><title>Node18</title>
<g id="a_node18"><a xlink:href="../../d9/d53/mainwindow_8h.html" target="_top" xlink:title="window/mainwindow.h">
<polygon fill="none" stroke="black" points="761,-62 761,-81 876,-81 876,-62 761,-62"/>
<text text-anchor="middle" x="818.5" y="-69" font-family="Helvetica,sans-Serif" font-size="10.00">window/mainwindow.h</text>
</a>
</g>
</g>
<!-- Node12&#45;&gt;Node18 -->
<g id="edge21" class="edge"><title>Node12&#45;&gt;Node18</title>
<path fill="none" stroke="midnightblue" d="M696.243,-124.781C726.345,-111.909 772.071,-92.3545 798.232,-81.1672"/>
<polygon fill="midnightblue" stroke="midnightblue" points="694.503,-121.718 686.684,-128.869 697.255,-128.155 694.503,-121.718"/>
</g>
<!-- Node19 -->
<g id="node19" class="node"><title>Node19</title>
<g id="a_node19"><a xlink:href="../../df/d0a/main_8cpp.html" target="_top" xlink:title="TODO. ">
<polygon fill="none" stroke="black" points="736.5,-0.5 736.5,-19.5 792.5,-19.5 792.5,-0.5 736.5,-0.5"/>
<text text-anchor="middle" x="764.5" y="-7.5" font-family="Helvetica,sans-Serif" font-size="10.00">main.cpp</text>
</a>
</g>
</g>
<!-- Node18&#45;&gt;Node19 -->
<g id="edge22" class="edge"><title>Node18&#45;&gt;Node19</title>
<path fill="none" stroke="midnightblue" d="M803.977,-54.4975C793.756,-43.2356 780.477,-28.6044 772.223,-19.5091"/>
<polygon fill="midnightblue" stroke="midnightblue" points="801.451,-56.9222 810.763,-61.9751 806.634,-52.2178 801.451,-56.9222"/>
</g>
<!-- Node20 -->
<g id="node20" class="node"><title>Node20</title>
<g id="a_node20"><a xlink:href="../../d8/dd9/mainwindow_8cpp.html" target="_top" xlink:title="window/mainwindow.cpp">
<polygon fill="none" stroke="black" points="810,-0.5 810,-19.5 935,-19.5 935,-0.5 810,-0.5"/>
<text text-anchor="middle" x="872.5" y="-7.5" font-family="Helvetica,sans-Serif" font-size="10.00">window/mainwindow.cpp</text>
</a>
</g>
</g>
<!-- Node18&#45;&gt;Node20 -->
<g id="edge23" class="edge"><title>Node18&#45;&gt;Node20</title>
<path fill="none" stroke="midnightblue" d="M833.023,-54.4975C843.244,-43.2356 856.523,-28.6044 864.777,-19.5091"/>
<polygon fill="midnightblue" stroke="midnightblue" points="830.366,-52.2178 826.237,-61.9751 835.549,-56.9222 830.366,-52.2178"/>
</g>
<!-- Node23&#45;&gt;Node9 -->
<g id="edge28" class="edge"><title>Node23&#45;&gt;Node9</title>
<path fill="none" stroke="midnightblue" d="M960.068,-316.545C953.402,-308.193 946.653,-298.215 942.5,-288 923.606,-241.531 922.402,-180.725 922.953,-153.611"/>
<polygon fill="midnightblue" stroke="midnightblue" points="957.487,-318.913 966.608,-324.304 962.84,-314.402 957.487,-318.913"/>
</g>
<!-- Node24 -->
<g id="node24" class="node"><title>Node24</title>
<g id="a_node24"><a xlink:href="../../dd/d2e/Model_8cpp.html" target="_top" xlink:title="engine/GameObject/Model\l/Model.cpp">
<polygon fill="none" stroke="black" points="951.5,-257.5 951.5,-287.5 1083.5,-287.5 1083.5,-257.5 951.5,-257.5"/>
<text text-anchor="start" x="959.5" y="-275.5" font-family="Helvetica,sans-Serif" font-size="10.00">engine/GameObject/Model</text>
<text text-anchor="middle" x="1017.5" y="-264.5" font-family="Helvetica,sans-Serif" font-size="10.00">/Model.cpp</text>
</a>
</g>
</g>
<!-- Node23&#45;&gt;Node24 -->
<g id="edge29" class="edge"><title>Node23&#45;&gt;Node24</title>
<path fill="none" stroke="midnightblue" d="M993.549,-315.576C998.863,-306.241 1004.84,-295.748 1009.49,-287.577"/>
<polygon fill="midnightblue" stroke="midnightblue" points="990.434,-313.974 988.528,-324.396 996.517,-317.437 990.434,-313.974"/>
</g>
<!-- Node25&#45;&gt;Node10 -->
<g id="edge31" class="edge"><title>Node25&#45;&gt;Node10</title>
<path fill="none" stroke="midnightblue" d="M1195.58,-251.54C1206.24,-243.536 1216.67,-233.268 1222.5,-221 1228.41,-208.556 1227.47,-202.849 1222.5,-190 1203.18,-140.084 1151.69,-98.3443 1127.89,-81.0542"/>
<polygon fill="midnightblue" stroke="midnightblue" points="1193.27,-248.883 1187.06,-257.468 1197.27,-254.628 1193.27,-248.883"/>
</g>
<!-- Node25&#45;&gt;Node21 -->
<g id="edge33" class="edge"><title>Node25&#45;&gt;Node21</title>
<path fill="none" stroke="midnightblue" d="M1119.61,-253.295C1091.45,-240.76 1055.34,-224.682 1033.61,-215.007"/>
<polygon fill="midnightblue" stroke="midnightblue" points="1118.26,-256.526 1128.82,-257.396 1121.11,-250.131 1118.26,-256.526"/>
</g>
<!-- Node26 -->
<g id="node26" class="node"><title>Node26</title>
<g id="a_node26"><a xlink:href="../../d6/d05/Cube_8cpp.html" target="_top" xlink:title="engine/Primitives/Cube\l/Cube.cpp">
<polygon fill="none" stroke="black" points="1095.5,-190.5 1095.5,-220.5 1213.5,-220.5 1213.5,-190.5 1095.5,-190.5"/>
<text text-anchor="start" x="1103.5" y="-208.5" font-family="Helvetica,sans-Serif" font-size="10.00">engine/Primitives/Cube</text>
<text text-anchor="middle" x="1154.5" y="-197.5" font-family="Helvetica,sans-Serif" font-size="10.00">/Cube.cpp</text>
</a>
</g>
</g>
<!-- Node25&#45;&gt;Node26 -->
<g id="edge32" class="edge"><title>Node25&#45;&gt;Node26</title>
<path fill="none" stroke="midnightblue" d="M1158.28,-247.403C1157.44,-238.37 1156.52,-228.408 1155.8,-220.577"/>
<polygon fill="midnightblue" stroke="midnightblue" points="1154.79,-247.76 1159.2,-257.396 1161.76,-247.117 1154.79,-247.76"/>
</g>
</g>
</svg>
        <g id="navigator" transform="translate(0 0)" fill="#404254">
                <rect fill="#f2f5e9" fill-opacity="0.5" stroke="#606060" stroke-width=".5" x="0" y="0" width="60" height="60"/>
                <use id="zoomplus" xlink:href="#zoomPlus" x="17" y="9" onmousedown="handleZoom(evt,'in')"/>
                <use id="zoomminus" xlink:href="#zoomMin" x="42" y="9" onmousedown="handleZoom(evt,'out')"/>
                <use id="reset" xlink:href="#resetDef" x="30" y="36" onmousedown="handleReset()"/>
                <g id="arrowUp" xlink:href="#dirArrow" transform="translate(30 24)" onmousedown="handlePan(0,-1)">
                  <use xlink:href="#rim" fill="#404040">
                        <set attributeName="fill" to="#808080" begin="arrowUp.mouseover" end="arrowUp.mouseout"/>
                  </use>
                  <path fill="none" stroke="white" stroke-width="1.5" d="M0,-3.0v7 M-2.5,-0.5L0,-3.0L2.5,-0.5"/>
                </g>
                <g id="arrowRight" xlink:href="#dirArrow" transform="rotate(90) translate(36 -43)" onmousedown="handlePan(1,0)">
                  <use xlink:href="#rim" fill="#404040">
                        <set attributeName="fill" to="#808080" begin="arrowRight.mouseover" end="arrowRight.mouseout"/>
                  </use>
                  <path fill="none" stroke="white" stroke-width="1.5" d="M0,-3.0v7 M-2.5,-0.5L0,-3.0L2.5,-0.5"/>
                </g>
                <g id="arrowDown" xlink:href="#dirArrow" transform="rotate(180) translate(-30 -48)" onmousedown="handlePan(0,1)">
                  <use xlink:href="#rim" fill="#404040">
                        <set attributeName="fill" to="#808080" begin="arrowDown.mouseover" end="arrowDown.mouseout"/>
                  </use>
                  <path fill="none" stroke="white" stroke-width="1.5" d="M0,-3.0v7 M-2.5,-0.5L0,-3.0L2.5,-0.5"/>
                </g>
                <g id="arrowLeft" xlink:href="#dirArrow" transform="rotate(270) translate(-36 17)" onmousedown="handlePan(-1,0)">
                  <use xlink:href="#rim" fill="#404040">
                        <set attributeName="fill" to="#808080" begin="arrowLeft.mouseover" end="arrowLeft.mouseout"/>
                  </use>
                  <path fill="none" stroke="white" stroke-width="1.5" d="M0,-3.0v7 M-2.5,-0.5L0,-3.0L2.5,-0.5"/>
                </g>
        </g>
        <svg viewBox="0 0 15 15" width="100%" height="30px" preserveAspectRatio="xMaxYMin meet">
         <g id="arrow_out" transform="scale(0.3 0.3)">
          <a xlink:href="BufferObject_8hpp__dep__incl_org.svg" target="_base">
           <rect id="button" ry="5" rx="5" y="6" x="6" height="38" width="38"
                fill="#f2f5e9" fill-opacity="0.5" stroke="#606060" stroke-width="1.0"/>
           <path id="arrow"
             d="M 11.500037,31.436501 C 11.940474,20.09759 22.043105,11.32322 32.158766,21.979434 L 37.068811,17.246167 C 37.068811,17.246167 37.088388,32 37.088388,32 L 22.160133,31.978069 C 22.160133,31.978069 26.997745,27.140456 26.997745,27.140456 C 18.528582,18.264221 13.291696,25.230495 11.500037,31.436501 z"
             style="fill:#404040;"/>
          </a>
         </g>
        </svg>
</svg>
