<?xml version="1.0" encoding="UTF-8" standalone="no"?>
<!DOCTYPE svg PUBLIC "-//W3C//DTD SVG 1.1//EN"
 "http://www.w3.org/Graphics/SVG/1.1/DTD/svg11.dtd">
<!-- Generated by graphviz version 2.38.0 (20140413.2041)
 -->
<!-- Title: engine/BufferObject/BufferObject.hpp Pages: 1 -->
<svg width="1134pt" height="475pt"
 viewBox="0.00 0.00 1134.00 475.00" xmlns="http://www.w3.org/2000/svg" xmlns:xlink="http://www.w3.org/1999/xlink">
<g id="graph0" class="graph" transform="scale(1 1) rotate(0) translate(4 471)">
<title>engine/BufferObject/BufferObject.hpp</title>
<!-- Node1 -->
<g id="node1" class="node"><title>Node1</title>
<polygon fill="#bfbfbf" stroke="black" points="374.5,-436.5 374.5,-466.5 477.5,-466.5 477.5,-436.5 374.5,-436.5"/>
<text text-anchor="start" x="382.5" y="-454.5" font-family="Helvetica,sans-Serif" font-size="10.00">engine/BufferObject</text>
<text text-anchor="middle" x="426" y="-443.5" font-family="Helvetica,sans-Serif" font-size="10.00">/BufferObject.hpp</text>
</g>
<!-- Node2 -->
<g id="node2" class="node"><title>Node2</title>
<g id="a_node2"><a xlink:href="../../db/d2b/BufferObject_8cpp.html" target="_top" xlink:title="engine/BufferObject\l/BufferObject.cpp">
<polygon fill="none" stroke="black" points="11.5,-56.5 11.5,-86.5 114.5,-86.5 114.5,-56.5 11.5,-56.5"/>
<text text-anchor="start" x="19.5" y="-74.5" font-family="Helvetica,sans-Serif" font-size="10.00">engine/BufferObject</text>
<text text-anchor="middle" x="63" y="-63.5" font-family="Helvetica,sans-Serif" font-size="10.00">/BufferObject.cpp</text>
</a>
</g>
</g>
<!-- Node1&#45;&gt;Node2 -->
<g id="edge1" class="edge"><title>Node1&#45;&gt;Node2</title>
<path fill="none" stroke="midnightblue" d="M364.2,-445.864C246.105,-435.296 0,-404.3 0,-329.5 0,-329.5 0,-329.5 0,-193.5 0,-150.632 31.4933,-107.895 49.9464,-86.5332"/>
<polygon fill="midnightblue" stroke="midnightblue" points="363.923,-449.353 374.19,-446.736 364.532,-442.379 363.923,-449.353"/>
</g>
<!-- Node3 -->
<g id="node3" class="node"><title>Node3</title>
<g id="a_node3"><a xlink:href="../../d1/d62/Mesh_8hpp.html" target="_top" xlink:title="engine/Mesh/Mesh.hpp">
<polygon fill="none" stroke="black" points="793,-380.5 793,-399.5 911,-399.5 911,-380.5 793,-380.5"/>
<text text-anchor="middle" x="852" y="-387.5" font-family="Helvetica,sans-Serif" font-size="10.00">engine/Mesh/Mesh.hpp</text>
</a>
</g>
</g>
<!-- Node1&#45;&gt;Node3 -->
<g id="edge2" class="edge"><title>Node1&#45;&gt;Node3</title>
<path fill="none" stroke="midnightblue" d="M487.946,-441.848C569.627,-430.439 712.366,-410.503 792.702,-399.282"/>
<polygon fill="midnightblue" stroke="midnightblue" points="487.23,-438.414 477.81,-443.264 488.198,-445.347 487.23,-438.414"/>
</g>
<!-- Node4 -->
<g id="node4" class="node"><title>Node4</title>
<g id="a_node4"><a xlink:href="../../d2/dcc/Mesh_8cpp.html" target="_top" xlink:title="engine/Mesh/Mesh.cpp">
<polygon fill="none" stroke="black" points="1008,-62 1008,-81 1126,-81 1126,-62 1008,-62"/>
<text text-anchor="middle" x="1067" y="-69" font-family="Helvetica,sans-Serif" font-size="10.00">engine/Mesh/Mesh.cpp</text>
</a>
</g>
</g>
<!-- Node3&#45;&gt;Node4 -->
<g id="edge3" class="edge"><title>Node3&#45;&gt;Node4</title>
<path fill="none" stroke="midnightblue" d="M896.468,-377.493C947.726,-361.231 1025,-326.16 1025,-262.5 1025,-262.5 1025,-262.5 1025,-193.5 1025,-149.249 1050.38,-100.679 1061.68,-81.2435"/>
<polygon fill="midnightblue" stroke="midnightblue" points="895.141,-374.238 886.593,-380.497 897.179,-380.935 895.141,-374.238"/>
</g>
<!-- Node5 -->
<g id="node5" class="node"><title>Node5</title>
<g id="a_node5"><a xlink:href="../../dd/de2/MeshLibrary_8hpp.html" target="_top" xlink:title="engine/MeshLibrary\l/MeshLibrary.hpp">
<polygon fill="none" stroke="black" points="708.5,-313.5 708.5,-343.5 809.5,-343.5 809.5,-313.5 708.5,-313.5"/>
<text text-anchor="start" x="716.5" y="-331.5" font-family="Helvetica,sans-Serif" font-size="10.00">engine/MeshLibrary</text>
<text text-anchor="middle" x="759" y="-320.5" font-family="Helvetica,sans-Serif" font-size="10.00">/MeshLibrary.hpp</text>
</a>
</g>
</g>
<!-- Node3&#45;&gt;Node5 -->
<g id="edge4" class="edge"><title>Node3&#45;&gt;Node5</title>
<path fill="none" stroke="midnightblue" d="M830.131,-375.008C815.297,-365.518 795.762,-353.02 780.918,-343.523"/>
<polygon fill="midnightblue" stroke="midnightblue" points="828.366,-378.034 838.675,-380.475 832.138,-372.138 828.366,-378.034"/>
</g>
<!-- Node13 -->
<g id="node13" class="node"><title>Node13</title>
<g id="a_node13"><a xlink:href="../../d3/d28/Renderer_8cpp.html" target="_top" xlink:title="engine/Renderer/Renderer.cpp">
<polygon fill="none" stroke="black" points="840.5,-62 840.5,-81 989.5,-81 989.5,-62 840.5,-62"/>
<text text-anchor="middle" x="915" y="-69" font-family="Helvetica,sans-Serif" font-size="10.00">engine/Renderer/Renderer.cpp</text>
</a>
</g>
</g>
<!-- Node3&#45;&gt;Node13 -->
<g id="edge26" class="edge"><title>Node3&#45;&gt;Node13</title>
<path fill="none" stroke="midnightblue" d="M873.396,-374.08C901.135,-352.796 946,-310.891 946,-262.5 946,-262.5 946,-262.5 946,-193.5 946,-150.129 927.079,-100.673 918.801,-81.1109"/>
<polygon fill="midnightblue" stroke="midnightblue" points="871.022,-371.483 865.07,-380.248 875.189,-377.108 871.022,-371.483"/>
</g>
<!-- Node6 -->
<g id="node6" class="node"><title>Node6</title>
<g id="a_node6"><a xlink:href="../../d6/d92/MeshLibrary_8cpp.html" target="_top" xlink:title="engine/MeshLibrary\l/MeshLibrary.cpp">
<polygon fill="none" stroke="black" points="708.5,-246.5 708.5,-276.5 809.5,-276.5 809.5,-246.5 708.5,-246.5"/>
<text text-anchor="start" x="716.5" y="-264.5" font-family="Helvetica,sans-Serif" font-size="10.00">engine/MeshLibrary</text>
<text text-anchor="middle" x="759" y="-253.5" font-family="Helvetica,sans-Serif" font-size="10.00">/MeshLibrary.cpp</text>
</a>
</g>
</g>
<!-- Node5&#45;&gt;Node6 -->
<g id="edge5" class="edge"><title>Node5&#45;&gt;Node6</title>
<path fill="none" stroke="midnightblue" d="M759,-303.108C759,-294.154 759,-284.323 759,-276.577"/>
<polygon fill="midnightblue" stroke="midnightblue" points="755.5,-303.396 759,-313.396 762.5,-303.396 755.5,-303.396"/>
</g>
<!-- Node7 -->
<g id="node7" class="node"><title>Node7</title>
<g id="a_node7"><a xlink:href="../../db/de8/Scene_8hpp.html" target="_top" xlink:title="engine/Scene/Scene.hpp">
<polygon fill="none" stroke="black" points="456.5,-252 456.5,-271 581.5,-271 581.5,-252 456.5,-252"/>
<text text-anchor="middle" x="519" y="-259" font-family="Helvetica,sans-Serif" font-size="10.00">engine/Scene/Scene.hpp</text>
</a>
</g>
</g>
<!-- Node5&#45;&gt;Node7 -->
<g id="edge6" class="edge"><title>Node5&#45;&gt;Node7</title>
<path fill="none" stroke="midnightblue" d="M698.609,-311.144C651.505,-298.387 587.975,-281.181 550.463,-271.021"/>
<polygon fill="midnightblue" stroke="midnightblue" points="697.828,-314.559 708.395,-313.795 699.658,-307.802 697.828,-314.559"/>
</g>
<!-- Node8 -->
<g id="node8" class="node"><title>Node8</title>
<g id="a_node8"><a xlink:href="../../d4/d7f/AssimpImporter_8cpp.html" target="_top" xlink:title="engine/AssimpImporter\l/AssimpImporter.cpp">
<polygon fill="none" stroke="black" points="800.5,-179.5 800.5,-209.5 917.5,-209.5 917.5,-179.5 800.5,-179.5"/>
<text text-anchor="start" x="808.5" y="-197.5" font-family="Helvetica,sans-Serif" font-size="10.00">engine/AssimpImporter</text>
<text text-anchor="middle" x="859" y="-186.5" font-family="Helvetica,sans-Serif" font-size="10.00">/AssimpImporter.cpp</text>
</a>
</g>
</g>
<!-- Node7&#45;&gt;Node8 -->
<g id="edge7" class="edge"><title>Node7&#45;&gt;Node8</title>
<path fill="none" stroke="midnightblue" d="M577.161,-250.162C632.293,-240.254 717.392,-224.678 791,-210 794.078,-209.386 797.232,-208.748 800.415,-208.095"/>
<polygon fill="midnightblue" stroke="midnightblue" points="576.45,-246.734 567.225,-251.945 577.686,-253.624 576.45,-246.734"/>
</g>
<!-- Node9 -->
<g id="node9" class="node"><title>Node9</title>
<g id="a_node9"><a xlink:href="../../d4/d1c/GameEngine_8hpp.html" target="_top" xlink:title="engine/GameEngine/GameEngine.hpp">
<polygon fill="none" stroke="black" points="600,-185 600,-204 782,-204 782,-185 600,-185"/>
<text text-anchor="middle" x="691" y="-192" font-family="Helvetica,sans-Serif" font-size="10.00">engine/GameEngine/GameEngine.hpp</text>
</a>
</g>
</g>
<!-- Node7&#45;&gt;Node9 -->
<g id="edge8" class="edge"><title>Node7&#45;&gt;Node9</title>
<path fill="none" stroke="midnightblue" d="M551.361,-248.271C585.498,-235.37 638.406,-215.376 668.339,-204.064"/>
<polygon fill="midnightblue" stroke="midnightblue" points="549.957,-245.059 541.84,-251.869 552.432,-251.607 549.957,-245.059"/>
</g>
<!-- Node20 -->
<g id="node20" class="node"><title>Node20</title>
<g id="a_node20"><a xlink:href="../../d2/d41/Light_8cpp.html" target="_top" xlink:title="engine/Light/Light.cpp">
<polygon fill="none" stroke="black" points="28,-185 28,-204 140,-204 140,-185 28,-185"/>
<text text-anchor="middle" x="84" y="-192" font-family="Helvetica,sans-Serif" font-size="10.00">engine/Light/Light.cpp</text>
</a>
</g>
</g>
<!-- Node7&#45;&gt;Node20 -->
<g id="edge22" class="edge"><title>Node7&#45;&gt;Node20</title>
<path fill="none" stroke="midnightblue" d="M445.972,-252.365C371.136,-243.599 251.541,-228.402 149,-210 139.441,-208.285 129.156,-206.134 119.652,-204.018"/>
<polygon fill="midnightblue" stroke="midnightblue" points="445.891,-255.879 456.228,-253.559 446.7,-248.926 445.891,-255.879"/>
</g>
<!-- Node21 -->
<g id="node21" class="node"><title>Node21</title>
<g id="a_node21"><a xlink:href="../../de/d4f/Object_8cpp.html" target="_top" xlink:title="engine/Object/Object.cpp">
<polygon fill="none" stroke="black" points="158.5,-185 158.5,-204 285.5,-204 285.5,-185 158.5,-185"/>
<text text-anchor="middle" x="222" y="-192" font-family="Helvetica,sans-Serif" font-size="10.00">engine/Object/Object.cpp</text>
</a>
</g>
</g>
<!-- Node7&#45;&gt;Node21 -->
<g id="edge23" class="edge"><title>Node7&#45;&gt;Node21</title>
<path fill="none" stroke="midnightblue" d="M469.76,-249.724C411.277,-236.924 314.908,-215.833 261.22,-204.083"/>
<polygon fill="midnightblue" stroke="midnightblue" points="469.35,-253.217 479.867,-251.936 470.847,-246.378 469.35,-253.217"/>
</g>
<!-- Node22 -->
<g id="node22" class="node"><title>Node22</title>
<g id="a_node22"><a xlink:href="../../da/daf/PerspectiveCamera_8cpp.html" target="_top" xlink:title="engine/PerspectiveCamera\l/PerspectiveCamera.cpp">
<polygon fill="none" stroke="black" points="304,-179.5 304,-209.5 438,-209.5 438,-179.5 304,-179.5"/>
<text text-anchor="start" x="312" y="-197.5" font-family="Helvetica,sans-Serif" font-size="10.00">engine/PerspectiveCamera</text>
<text text-anchor="middle" x="371" y="-186.5" font-family="Helvetica,sans-Serif" font-size="10.00">/PerspectiveCamera.cpp</text>
</a>
</g>
</g>
<!-- Node7&#45;&gt;Node22 -->
<g id="edge24" class="edge"><title>Node7&#45;&gt;Node22</title>
<path fill="none" stroke="midnightblue" d="M490.008,-247.767C464.959,-236.766 428.815,-220.892 402.941,-209.528"/>
<polygon fill="midnightblue" stroke="midnightblue" points="488.783,-251.052 499.347,-251.869 491.598,-244.643 488.783,-251.052"/>
</g>
<!-- Node23 -->
<g id="node23" class="node"><title>Node23</title>
<g id="a_node23"><a xlink:href="../../de/d15/Scene_8cpp.html" target="_top" xlink:title="engine/Scene/Scene.cpp">
<polygon fill="none" stroke="black" points="456.5,-185 456.5,-204 581.5,-204 581.5,-185 456.5,-185"/>
<text text-anchor="middle" x="519" y="-192" font-family="Helvetica,sans-Serif" font-size="10.00">engine/Scene/Scene.cpp</text>
</a>
</g>
</g>
<!-- Node7&#45;&gt;Node23 -->
<g id="edge25" class="edge"><title>Node7&#45;&gt;Node23</title>
<path fill="none" stroke="midnightblue" d="M519,-241.537C519,-229.17 519,-213.62 519,-204.127"/>
<polygon fill="midnightblue" stroke="midnightblue" points="515.5,-241.734 519,-251.734 522.5,-241.734 515.5,-241.734"/>
</g>
<!-- Node10 -->
<g id="node10" class="node"><title>Node10</title>
<g id="a_node10"><a xlink:href="../../dd/d98/GameEngine_8cpp.html" target="_top" xlink:title="engine/GameEngine/GameEngine.cpp">
<polygon fill="none" stroke="black" points="648,-123.5 648,-142.5 830,-142.5 830,-123.5 648,-123.5"/>
<text text-anchor="middle" x="739" y="-130.5" font-family="Helvetica,sans-Serif" font-size="10.00">engine/GameEngine/GameEngine.cpp</text>
</a>
</g>
</g>
<!-- Node9&#45;&gt;Node10 -->
<g id="edge9" class="edge"><title>Node9&#45;&gt;Node10</title>
<path fill="none" stroke="midnightblue" d="M704.175,-177.169C713.224,-165.952 724.869,-151.516 732.136,-142.509"/>
<polygon fill="midnightblue" stroke="midnightblue" points="701.432,-174.994 697.877,-184.975 706.88,-179.39 701.432,-174.994"/>
</g>
<!-- Node11 -->
<g id="node11" class="node"><title>Node11</title>
<g id="a_node11"><a xlink:href="../../d0/d5e/glwindow_8hpp.html" target="_top" xlink:title="window/glwindow.hpp">
<polygon fill="none" stroke="black" points="518,-123.5 518,-142.5 630,-142.5 630,-123.5 518,-123.5"/>
<text text-anchor="middle" x="574" y="-130.5" font-family="Helvetica,sans-Serif" font-size="10.00">window/glwindow.hpp</text>
</a>
</g>
</g>
<!-- Node9&#45;&gt;Node11 -->
<g id="edge10" class="edge"><title>Node9&#45;&gt;Node11</title>
<path fill="none" stroke="midnightblue" d="M665.174,-180.367C642.499,-168.835 610.18,-152.399 590.732,-142.509"/>
<polygon fill="midnightblue" stroke="midnightblue" points="663.737,-183.562 674.237,-184.975 666.91,-177.322 663.737,-183.562"/>
</g>
<!-- Node16 -->
<g id="node16" class="node"><title>Node16</title>
<g id="a_node16"><a xlink:href="../../d3/d1f/glwindow_8cpp.html" target="_top" xlink:title="window/glwindow.cpp">
<polygon fill="none" stroke="black" points="165,-62 165,-81 277,-81 277,-62 165,-62"/>
<text text-anchor="middle" x="221" y="-69" font-family="Helvetica,sans-Serif" font-size="10.00">window/glwindow.cpp</text>
</a>
</g>
</g>
<!-- Node9&#45;&gt;Node16 -->
<g id="edge21" class="edge"><title>Node9&#45;&gt;Node16</title>
<path fill="none" stroke="midnightblue" d="M648.054,-182.444C555.259,-158.554 337.703,-102.545 254.327,-81.0799"/>
<polygon fill="midnightblue" stroke="midnightblue" points="647.394,-185.888 657.951,-184.992 649.139,-179.109 647.394,-185.888"/>
</g>
<!-- Node11&#45;&gt;Node2 -->
<g id="edge12" class="edge"><title>Node11&#45;&gt;Node2</title>
<path fill="none" stroke="midnightblue" d="M507.791,-125.851C425.275,-117.961 279.998,-103.332 156,-87 142.553,-85.2289 128.05,-83.0821 114.589,-80.9893"/>
<polygon fill="midnightblue" stroke="midnightblue" points="507.496,-129.338 517.783,-126.802 508.159,-122.37 507.496,-129.338"/>
</g>
<!-- Node11&#45;&gt;Node4 -->
<g id="edge13" class="edge"><title>Node11&#45;&gt;Node4</title>
<path fill="none" stroke="midnightblue" d="M640.221,-122.904C800.418,-104.277 843.385,-111.296 999,-87 1009.26,-85.3986 1020.3,-83.2368 1030.44,-81.0718"/>
<polygon fill="midnightblue" stroke="midnightblue" points="639.524,-119.462 630.002,-124.109 640.343,-126.414 639.524,-119.462"/>
</g>
<!-- Node12 -->
<g id="node12" class="node"><title>Node12</title>
<g id="a_node12"><a xlink:href="../../d8/d49/ArrayObject_8cpp.html" target="_top" xlink:title="engine/ArrayObject\l/ArrayObject.cpp">
<polygon fill="none" stroke="black" points="439,-56.5 439,-86.5 539,-86.5 539,-56.5 439,-56.5"/>
<text text-anchor="start" x="447" y="-74.5" font-family="Helvetica,sans-Serif" font-size="10.00">engine/ArrayObject</text>
<text text-anchor="middle" x="489" y="-63.5" font-family="Helvetica,sans-Serif" font-size="10.00">/ArrayObject.cpp</text>
</a>
</g>
</g>
<!-- Node11&#45;&gt;Node12 -->
<g id="edge11" class="edge"><title>Node11&#45;&gt;Node12</title>
<path fill="none" stroke="midnightblue" d="M553.627,-117.739C540.118,-108.282 522.472,-95.9304 509.033,-86.523"/>
<polygon fill="midnightblue" stroke="midnightblue" points="551.622,-120.608 561.822,-123.475 555.636,-114.873 551.622,-120.608"/>
</g>
<!-- Node11&#45;&gt;Node13 -->
<g id="edge14" class="edge"><title>Node11&#45;&gt;Node13</title>
<path fill="none" stroke="midnightblue" d="M633.081,-121.7C685.375,-112.582 763.764,-98.9111 832,-87 843.096,-85.0631 855.026,-82.9796 866.284,-81.0129"/>
<polygon fill="midnightblue" stroke="midnightblue" points="632.231,-118.295 622.981,-123.461 633.434,-125.191 632.231,-118.295"/>
</g>
<!-- Node14 -->
<g id="node14" class="node"><title>Node14</title>
<g id="a_node14"><a xlink:href="../../dd/d84/Shader_8cpp.html" target="_top" xlink:title="engine/Shader/Shader.cpp">
<polygon fill="none" stroke="black" points="557.5,-62 557.5,-81 688.5,-81 688.5,-62 557.5,-62"/>
<text text-anchor="middle" x="623" y="-69" font-family="Helvetica,sans-Serif" font-size="10.00">engine/Shader/Shader.cpp</text>
</a>
</g>
</g>
<!-- Node11&#45;&gt;Node14 -->
<g id="edge15" class="edge"><title>Node11&#45;&gt;Node14</title>
<path fill="none" stroke="midnightblue" d="M587.449,-115.669C596.687,-104.452 608.575,-90.0161 615.993,-81.0091"/>
<polygon fill="midnightblue" stroke="midnightblue" points="584.676,-113.531 581.021,-123.475 590.079,-117.981 584.676,-113.531"/>
</g>
<!-- Node15 -->
<g id="node15" class="node"><title>Node15</title>
<g id="a_node15"><a xlink:href="../../de/d34/ShaderProgram_8cpp.html" target="_top" xlink:title="engine/ShaderProgram\l/ShaderProgram.cpp">
<polygon fill="none" stroke="black" points="707,-56.5 707,-86.5 823,-86.5 823,-56.5 707,-56.5"/>
<text text-anchor="start" x="715" y="-74.5" font-family="Helvetica,sans-Serif" font-size="10.00">engine/ShaderProgram</text>
<text text-anchor="middle" x="765" y="-63.5" font-family="Helvetica,sans-Serif" font-size="10.00">/ShaderProgram.cpp</text>
</a>
</g>
</g>
<!-- Node11&#45;&gt;Node15 -->
<g id="edge16" class="edge"><title>Node11&#45;&gt;Node15</title>
<path fill="none" stroke="midnightblue" d="M610.97,-120.483C642.111,-110.782 686.767,-96.8711 719.985,-86.523"/>
<polygon fill="midnightblue" stroke="midnightblue" points="609.872,-117.159 601.366,-123.475 611.954,-123.842 609.872,-117.159"/>
</g>
<!-- Node11&#45;&gt;Node16 -->
<g id="edge17" class="edge"><title>Node11&#45;&gt;Node16</title>
<path fill="none" stroke="midnightblue" d="M507.58,-122.863C449.072,-114.519 361.636,-101.33 286,-87 276.685,-85.2351 266.668,-83.1132 257.355,-81.044"/>
<polygon fill="midnightblue" stroke="midnightblue" points="507.404,-126.373 517.797,-124.312 508.388,-119.442 507.404,-126.373"/>
</g>
<!-- Node17 -->
<g id="node17" class="node"><title>Node17</title>
<g id="a_node17"><a xlink:href="../../df/d50/mainwindow_8hpp.html" target="_top" xlink:title="window/mainwindow.hpp">
<polygon fill="none" stroke="black" points="295.5,-62 295.5,-81 420.5,-81 420.5,-62 295.5,-62"/>
<text text-anchor="middle" x="358" y="-69" font-family="Helvetica,sans-Serif" font-size="10.00">window/mainwindow.hpp</text>
</a>
</g>
</g>
<!-- Node11&#45;&gt;Node17 -->
<g id="edge18" class="edge"><title>Node11&#45;&gt;Node17</title>
<path fill="none" stroke="midnightblue" d="M533.157,-120.749C491.192,-109.189 426.797,-91.4511 388.89,-81.0091"/>
<polygon fill="midnightblue" stroke="midnightblue" points="532.482,-124.194 543.052,-123.475 534.341,-117.445 532.482,-124.194"/>
</g>
<!-- Node18 -->
<g id="node18" class="node"><title>Node18</title>
<g id="a_node18"><a xlink:href="../../df/d0a/main_8cpp.html" target="_top" xlink:title="TODO. ">
<polygon fill="none" stroke="black" points="276,-0.5 276,-19.5 332,-19.5 332,-0.5 276,-0.5"/>
<text text-anchor="middle" x="304" y="-7.5" font-family="Helvetica,sans-Serif" font-size="10.00">main.cpp</text>
</a>
</g>
</g>
<!-- Node17&#45;&gt;Node18 -->
<g id="edge19" class="edge"><title>Node17&#45;&gt;Node18</title>
<path fill="none" stroke="midnightblue" d="M343.477,-54.4975C333.256,-43.2356 319.977,-28.6044 311.723,-19.5091"/>
<polygon fill="midnightblue" stroke="midnightblue" points="340.951,-56.9222 350.263,-61.9751 346.134,-52.2178 340.951,-56.9222"/>
</g>
<!-- Node19 -->
<g id="node19" class="node"><title>Node19</title>
<g id="a_node19"><a xlink:href="../../d8/dd9/mainwindow_8cpp.html" target="_top" xlink:title="window/mainwindow.cpp">
<polygon fill="none" stroke="black" points="349.5,-0.5 349.5,-19.5 474.5,-19.5 474.5,-0.5 349.5,-0.5"/>
<text text-anchor="middle" x="412" y="-7.5" font-family="Helvetica,sans-Serif" font-size="10.00">window/mainwindow.cpp</text>
</a>
</g>
</g>
<!-- Node17&#45;&gt;Node19 -->
<g id="edge20" class="edge"><title>Node17&#45;&gt;Node19</title>
<path fill="none" stroke="midnightblue" d="M372.523,-54.4975C382.744,-43.2356 396.023,-28.6044 404.277,-19.5091"/>
<polygon fill="midnightblue" stroke="midnightblue" points="369.866,-52.2178 365.737,-61.9751 375.049,-56.9222 369.866,-52.2178"/>
</g>
</g>
</svg>
