<?xml version="1.0" encoding="UTF-8" standalone="no"?>
<!DOCTYPE svg PUBLIC "-//W3C//DTD SVG 1.1//EN"
 "http://www.w3.org/Graphics/SVG/1.1/DTD/svg11.dtd">
<!-- Generated by graphviz version 2.38.0 (20140413.2041)
 -->
<!-- Title: engine/Shaders/Shader/Shader.hpp Pages: 1 -->
<svg width="1562pt" height="664pt"
 viewBox="0.00 0.00 1562.13 664.00" xmlns="http://www.w3.org/2000/svg" xmlns:xlink="http://www.w3.org/1999/xlink">
<g id="graph0" class="graph" transform="scale(1 1) rotate(0) translate(4 660)">
<title>engine/Shaders/Shader/Shader.hpp</title>
<!-- Node1 -->
<g id="node1" class="node"><title>Node1</title>
<polygon fill="#bfbfbf" stroke="black" points="122.632,-625.5 122.632,-655.5 240.632,-655.5 240.632,-625.5 122.632,-625.5"/>
<text text-anchor="start" x="130.632" y="-643.5" font-family="Helvetica,sans-Serif" font-size="10.00">engine/Shaders/Shader</text>
<text text-anchor="middle" x="181.632" y="-632.5" font-family="Helvetica,sans-Serif" font-size="10.00">/Shader.hpp</text>
</g>
<!-- Node2 -->
<g id="node2" class="node"><title>Node2</title>
<g id="a_node2"><a xlink:href="../../d3/d1a/ShaderMapping_8hpp.html" target="_top" xlink:title="engine/Shaders/Managers\l/ShaderManager/internal\l/ShaderMapping.hpp">
<polygon fill="none" stroke="black" points="30.6325,-547.5 30.6325,-588.5 160.632,-588.5 160.632,-547.5 30.6325,-547.5"/>
<text text-anchor="start" x="38.6325" y="-576.5" font-family="Helvetica,sans-Serif" font-size="10.00">engine/Shaders/Managers</text>
<text text-anchor="start" x="38.6325" y="-565.5" font-family="Helvetica,sans-Serif" font-size="10.00">/ShaderManager/internal</text>
<text text-anchor="middle" x="95.6325" y="-554.5" font-family="Helvetica,sans-Serif" font-size="10.00">/ShaderMapping.hpp</text>
</a>
</g>
</g>
<!-- Node1&#45;&gt;Node2 -->
<g id="edge1" class="edge"><title>Node1&#45;&gt;Node2</title>
<path fill="none" stroke="midnightblue" d="M156.207,-618.657C144.604,-609.145 130.939,-597.943 119.528,-588.588"/>
<polygon fill="midnightblue" stroke="midnightblue" points="154.277,-621.6 164.229,-625.233 158.714,-616.187 154.277,-621.6"/>
</g>
<!-- Node4 -->
<g id="node4" class="node"><title>Node4</title>
<g id="a_node4"><a xlink:href="../../d2/d1f/ShaderManager_8hpp.html" target="_top" xlink:title="engine/Shaders/Managers\l/ShaderManager/ShaderManager.hpp">
<polygon fill="none" stroke="black" points="178.632,-553 178.632,-583 356.632,-583 356.632,-553 178.632,-553"/>
<text text-anchor="start" x="186.632" y="-571" font-family="Helvetica,sans-Serif" font-size="10.00">engine/Shaders/Managers</text>
<text text-anchor="middle" x="267.632" y="-560" font-family="Helvetica,sans-Serif" font-size="10.00">/ShaderManager/ShaderManager.hpp</text>
</a>
</g>
</g>
<!-- Node1&#45;&gt;Node4 -->
<g id="edge3" class="edge"><title>Node1&#45;&gt;Node4</title>
<path fill="none" stroke="midnightblue" d="M206.899,-618.788C220.953,-607.266 238.072,-593.233 250.548,-583.005"/>
<polygon fill="midnightblue" stroke="midnightblue" points="204.551,-616.187 199.036,-625.233 208.988,-621.6 204.551,-616.187"/>
</g>
<!-- Node6 -->
<g id="node6" class="node"><title>Node6</title>
<g id="a_node6"><a xlink:href="../../dd/d84/Shader_8cpp.html" target="_top" xlink:title="engine/Shaders/Shader\l/Shader.cpp">
<polygon fill="none" stroke="black" points="83.6325,-56.5 83.6325,-86.5 201.632,-86.5 201.632,-56.5 83.6325,-56.5"/>
<text text-anchor="start" x="91.6325" y="-74.5" font-family="Helvetica,sans-Serif" font-size="10.00">engine/Shaders/Shader</text>
<text text-anchor="middle" x="142.632" y="-63.5" font-family="Helvetica,sans-Serif" font-size="10.00">/Shader.cpp</text>
</a>
</g>
</g>
<!-- Node1&#45;&gt;Node6 -->
<g id="edge6" class="edge"><title>Node1&#45;&gt;Node6</title>
<path fill="none" stroke="midnightblue" d="M112.388,-633.693C80.417,-627.43 44.5501,-614.697 21.6325,-589 -7.89748,-555.888 2.63249,-535.367 2.63249,-491 2.63249,-491 2.63249,-491 2.63249,-204.5 2.63249,-146.374 67.309,-106.282 108.742,-86.5624"/>
<polygon fill="midnightblue" stroke="midnightblue" points="112.153,-637.205 122.61,-635.507 113.376,-630.313 112.153,-637.205"/>
</g>
<!-- Node7 -->
<g id="node7" class="node"><title>Node7</title>
<g id="a_node7"><a xlink:href="../../dc/ddb/ShaderProgram_8hpp.html" target="_top" xlink:title="engine/Shaders/ShaderProgram\l/ShaderProgram.hpp">
<polygon fill="none" stroke="black" points="453.132,-553 453.132,-583 608.132,-583 608.132,-553 453.132,-553"/>
<text text-anchor="start" x="461.132" y="-571" font-family="Helvetica,sans-Serif" font-size="10.00">engine/Shaders/ShaderProgram</text>
<text text-anchor="middle" x="530.632" y="-560" font-family="Helvetica,sans-Serif" font-size="10.00">/ShaderProgram.hpp</text>
</a>
</g>
</g>
<!-- Node1&#45;&gt;Node7 -->
<g id="edge7" class="edge"><title>Node1&#45;&gt;Node7</title>
<path fill="none" stroke="midnightblue" d="M250.755,-625.537C311.734,-613.219 400.159,-595.356 461.223,-583.021"/>
<polygon fill="midnightblue" stroke="midnightblue" points="249.945,-622.13 240.836,-627.541 251.331,-628.991 249.945,-622.13"/>
</g>
<!-- Node3 -->
<g id="node3" class="node"><title>Node3</title>
<g id="a_node3"><a xlink:href="../../d3/d73/ShaderManager_8cpp.html" target="_top" xlink:title="engine/Shaders/Managers\l/ShaderManager/ShaderManager.cpp">
<polygon fill="none" stroke="black" points="30.6325,-475 30.6325,-505 208.632,-505 208.632,-475 30.6325,-475"/>
<text text-anchor="start" x="38.6325" y="-493" font-family="Helvetica,sans-Serif" font-size="10.00">engine/Shaders/Managers</text>
<text text-anchor="middle" x="119.632" y="-482" font-family="Helvetica,sans-Serif" font-size="10.00">/ShaderManager/ShaderManager.cpp</text>
</a>
</g>
</g>
<!-- Node2&#45;&gt;Node3 -->
<g id="edge2" class="edge"><title>Node2&#45;&gt;Node3</title>
<path fill="none" stroke="midnightblue" d="M104.909,-537.624C108.422,-526.501 112.262,-514.339 115.14,-505.225"/>
<polygon fill="midnightblue" stroke="midnightblue" points="101.487,-536.838 101.813,-547.428 108.162,-538.946 101.487,-536.838"/>
</g>
<!-- Node4&#45;&gt;Node3 -->
<g id="edge4" class="edge"><title>Node4&#45;&gt;Node3</title>
<path fill="none" stroke="midnightblue" d="M230.971,-548.174C204.959,-534.817 170.607,-517.176 146.976,-505.041"/>
<polygon fill="midnightblue" stroke="midnightblue" points="229.647,-551.428 240.142,-552.883 232.845,-545.202 229.647,-551.428"/>
</g>
<!-- Node5 -->
<g id="node5" class="node"><title>Node5</title>
<g id="a_node5"><a xlink:href="../../d4/d46/ShaderProgramManager_8cpp.html" target="_top" xlink:title="engine/Shaders/Managers\l/ShaderProgramManager\l/ShaderProgramManager.cpp">
<polygon fill="none" stroke="black" points="185.132,-391.5 185.132,-432.5 328.132,-432.5 328.132,-391.5 185.132,-391.5"/>
<text text-anchor="start" x="193.132" y="-420.5" font-family="Helvetica,sans-Serif" font-size="10.00">engine/Shaders/Managers</text>
<text text-anchor="start" x="193.132" y="-409.5" font-family="Helvetica,sans-Serif" font-size="10.00">/ShaderProgramManager</text>
<text text-anchor="middle" x="256.632" y="-398.5" font-family="Helvetica,sans-Serif" font-size="10.00">/ShaderProgramManager.cpp</text>
</a>
</g>
</g>
<!-- Node4&#45;&gt;Node5 -->
<g id="edge5" class="edge"><title>Node4&#45;&gt;Node5</title>
<path fill="none" stroke="midnightblue" d="M260.797,-543.014C258.328,-533.181 255.85,-521.632 254.632,-511 251.534,-483.949 253.09,-452.431 254.692,-432.596"/>
<polygon fill="midnightblue" stroke="midnightblue" points="257.469,-544.116 263.413,-552.886 264.235,-542.323 257.469,-544.116"/>
</g>
<!-- Node8 -->
<g id="node8" class="node"><title>Node8</title>
<g id="a_node8"><a xlink:href="../../d0/d70/Material_8hpp.html" target="_top" xlink:title="engine/Material/Material.hpp">
<polygon fill="none" stroke="black" points="620.132,-480.5 620.132,-499.5 759.132,-499.5 759.132,-480.5 620.132,-480.5"/>
<text text-anchor="middle" x="689.632" y="-487.5" font-family="Helvetica,sans-Serif" font-size="10.00">engine/Material/Material.hpp</text>
</a>
</g>
</g>
<!-- Node7&#45;&gt;Node8 -->
<g id="edge8" class="edge"><title>Node7&#45;&gt;Node8</title>
<path fill="none" stroke="midnightblue" d="M569.405,-548.467C601.939,-532.917 646.939,-511.407 671.628,-499.606"/>
<polygon fill="midnightblue" stroke="midnightblue" points="567.679,-545.413 560.167,-552.883 570.698,-551.728 567.679,-545.413"/>
</g>
<!-- Node21 -->
<g id="node21" class="node"><title>Node21</title>
<g id="a_node21"><a xlink:href="../../de/d34/ShaderProgram_8cpp.html" target="_top" xlink:title="engine/Shaders/ShaderProgram\l/ShaderProgram.cpp">
<polygon fill="none" stroke="black" points="1399.13,-56.5 1399.13,-86.5 1554.13,-86.5 1554.13,-56.5 1399.13,-56.5"/>
<text text-anchor="start" x="1407.13" y="-74.5" font-family="Helvetica,sans-Serif" font-size="10.00">engine/Shaders/ShaderProgram</text>
<text text-anchor="middle" x="1476.63" y="-63.5" font-family="Helvetica,sans-Serif" font-size="10.00">/ShaderProgram.cpp</text>
</a>
</g>
</g>
<!-- Node7&#45;&gt;Node21 -->
<g id="edge48" class="edge"><title>Node7&#45;&gt;Node21</title>
<path fill="none" stroke="midnightblue" d="M618.442,-566.261C808.829,-562.284 1242.63,-539.358 1242.63,-413 1242.63,-413 1242.63,-413 1242.63,-204.5 1242.63,-160.889 1367.49,-110.558 1434.8,-86.5943"/>
<polygon fill="midnightblue" stroke="midnightblue" points="618.114,-562.767 608.184,-566.462 618.251,-569.766 618.114,-562.767"/>
</g>
<!-- Node33 -->
<g id="node33" class="node"><title>Node33</title>
<g id="a_node33"><a xlink:href="../../dd/d4f/ShaderProgramMapping_8hpp.html" target="_top" xlink:title="engine/Shaders/Managers\l/ShaderProgramManager\l/internal/ShaderProgramMapping.hpp">
<polygon fill="none" stroke="black" points="264.132,-469.5 264.132,-510.5 441.132,-510.5 441.132,-469.5 264.132,-469.5"/>
<text text-anchor="start" x="272.132" y="-498.5" font-family="Helvetica,sans-Serif" font-size="10.00">engine/Shaders/Managers</text>
<text text-anchor="start" x="272.132" y="-487.5" font-family="Helvetica,sans-Serif" font-size="10.00">/ShaderProgramManager</text>
<text text-anchor="middle" x="352.632" y="-476.5" font-family="Helvetica,sans-Serif" font-size="10.00">/internal/ShaderProgramMapping.hpp</text>
</a>
</g>
</g>
<!-- Node7&#45;&gt;Node33 -->
<g id="edge42" class="edge"><title>Node7&#45;&gt;Node33</title>
<path fill="none" stroke="midnightblue" d="M488.018,-548.805C461.049,-537.29 426.193,-522.408 398.603,-510.628"/>
<polygon fill="midnightblue" stroke="midnightblue" points="486.998,-552.175 497.569,-552.883 489.747,-545.737 486.998,-552.175"/>
</g>
<!-- Node34 -->
<g id="node34" class="node"><title>Node34</title>
<g id="a_node34"><a xlink:href="../../df/dfd/ShaderProgramManager_8hpp.html" target="_top" xlink:title="engine/Shaders/Managers\l/ShaderProgramManager\l/ShaderProgramManager.hpp">
<polygon fill="none" stroke="black" points="459.132,-469.5 459.132,-510.5 602.132,-510.5 602.132,-469.5 459.132,-469.5"/>
<text text-anchor="start" x="467.132" y="-498.5" font-family="Helvetica,sans-Serif" font-size="10.00">engine/Shaders/Managers</text>
<text text-anchor="start" x="467.132" y="-487.5" font-family="Helvetica,sans-Serif" font-size="10.00">/ShaderProgramManager</text>
<text text-anchor="middle" x="530.632" y="-476.5" font-family="Helvetica,sans-Serif" font-size="10.00">/ShaderProgramManager.hpp</text>
</a>
</g>
</g>
<!-- Node7&#45;&gt;Node34 -->
<g id="edge44" class="edge"><title>Node7&#45;&gt;Node34</title>
<path fill="none" stroke="midnightblue" d="M530.632,-542.656C530.632,-532.326 530.632,-520.443 530.632,-510.68"/>
<polygon fill="midnightblue" stroke="midnightblue" points="527.133,-542.705 530.632,-552.705 534.133,-542.705 527.133,-542.705"/>
</g>
<!-- Node9 -->
<g id="node9" class="node"><title>Node9</title>
<g id="a_node9"><a xlink:href="../../d4/db5/GameObject_8hpp.html" target="_top" xlink:title="engine/GameObject/GameObject.hpp">
<polygon fill="none" stroke="black" points="716.132,-402.5 716.132,-421.5 895.132,-421.5 895.132,-402.5 716.132,-402.5"/>
<text text-anchor="middle" x="805.632" y="-409.5" font-family="Helvetica,sans-Serif" font-size="10.00">engine/GameObject/GameObject.hpp</text>
</a>
</g>
</g>
<!-- Node8&#45;&gt;Node9 -->
<g id="edge9" class="edge"><title>Node8&#45;&gt;Node9</title>
<path fill="none" stroke="midnightblue" d="M711.345,-474.775C735.196,-459.148 772.733,-434.555 792.481,-421.616"/>
<polygon fill="midnightblue" stroke="midnightblue" points="709.386,-471.874 702.939,-480.282 713.222,-477.729 709.386,-471.874"/>
</g>
<!-- Node32 -->
<g id="node32" class="node"><title>Node32</title>
<g id="a_node32"><a xlink:href="../../d4/d0f/Material_8cpp.html" target="_top" xlink:title="engine/Material/Material.cpp">
<polygon fill="none" stroke="black" points="559.132,-402.5 559.132,-421.5 698.132,-421.5 698.132,-402.5 559.132,-402.5"/>
<text text-anchor="middle" x="628.632" y="-409.5" font-family="Helvetica,sans-Serif" font-size="10.00">engine/Material/Material.cpp</text>
</a>
</g>
</g>
<!-- Node8&#45;&gt;Node32 -->
<g id="edge41" class="edge"><title>Node8&#45;&gt;Node32</title>
<path fill="none" stroke="midnightblue" d="M676.343,-472.442C663.781,-456.792 645.43,-433.928 635.548,-421.616"/>
<polygon fill="midnightblue" stroke="midnightblue" points="673.646,-474.674 682.635,-480.282 679.105,-470.292 673.646,-474.674"/>
</g>
<!-- Node10 -->
<g id="node10" class="node"><title>Node10</title>
<g id="a_node10"><a xlink:href="../../d6/d80/Camera_8hpp.html" target="_top" xlink:title="engine/Camera/Camera.hpp">
<polygon fill="none" stroke="black" points="709.132,-330 709.132,-349 848.132,-349 848.132,-330 709.132,-330"/>
<text text-anchor="middle" x="778.632" y="-337" font-family="Helvetica,sans-Serif" font-size="10.00">engine/Camera/Camera.hpp</text>
</a>
</g>
</g>
<!-- Node9&#45;&gt;Node10 -->
<g id="edge10" class="edge"><title>Node9&#45;&gt;Node10</title>
<path fill="none" stroke="midnightblue" d="M798.651,-392.771C793.286,-378.762 786.113,-360.032 781.97,-349.215"/>
<polygon fill="midnightblue" stroke="midnightblue" points="795.477,-394.269 802.322,-402.355 802.014,-391.765 795.477,-394.269"/>
</g>
<!-- Node12 -->
<g id="node12" class="node"><title>Node12</title>
<g id="a_node12"><a xlink:href="../../db/de8/Scene_8hpp.html" target="_top" xlink:title="engine/Scene/Scene.hpp">
<polygon fill="none" stroke="black" points="679.132,-263 679.132,-282 804.132,-282 804.132,-263 679.132,-263"/>
<text text-anchor="middle" x="741.632" y="-270" font-family="Helvetica,sans-Serif" font-size="10.00">engine/Scene/Scene.hpp</text>
</a>
</g>
</g>
<!-- Node9&#45;&gt;Node12 -->
<g id="edge40" class="edge"><title>Node9&#45;&gt;Node12</title>
<path fill="none" stroke="midnightblue" d="M905.524,-406.918C993.867,-399.659 1101.94,-379.558 1054.63,-324 1023.14,-287.017 886.289,-277.025 804.329,-274.386"/>
<polygon fill="midnightblue" stroke="midnightblue" points="905.108,-403.44 895.408,-407.702 905.648,-410.419 905.108,-403.44"/>
</g>
<!-- Node27 -->
<g id="node27" class="node"><title>Node27</title>
<g id="a_node27"><a xlink:href="../../d4/d2b/GameObject_8cpp.html" target="_top" xlink:title="engine/GameObject/GameObject.cpp">
<polygon fill="none" stroke="black" points="866.132,-330 866.132,-349 1045.13,-349 1045.13,-330 866.132,-330"/>
<text text-anchor="middle" x="955.632" y="-337" font-family="Helvetica,sans-Serif" font-size="10.00">engine/GameObject/GameObject.cpp</text>
</a>
</g>
</g>
<!-- Node9&#45;&gt;Node27 -->
<g id="edge32" class="edge"><title>Node9&#45;&gt;Node27</title>
<path fill="none" stroke="midnightblue" d="M832.9,-398.184C863.244,-383.922 911.423,-361.278 937.475,-349.034"/>
<polygon fill="midnightblue" stroke="midnightblue" points="831.287,-395.075 823.726,-402.496 834.265,-401.41 831.287,-395.075"/>
</g>
<!-- Node28 -->
<g id="node28" class="node"><title>Node28</title>
<g id="a_node28"><a xlink:href="../../df/d6e/Model_8hpp.html" target="_top" xlink:title="engine/GameObject/Model\l/Model.hpp">
<polygon fill="none" stroke="black" points="558.632,-324.5 558.632,-354.5 690.632,-354.5 690.632,-324.5 558.632,-324.5"/>
<text text-anchor="start" x="566.632" y="-342.5" font-family="Helvetica,sans-Serif" font-size="10.00">engine/GameObject/Model</text>
<text text-anchor="middle" x="624.632" y="-331.5" font-family="Helvetica,sans-Serif" font-size="10.00">/Model.hpp</text>
</a>
</g>
</g>
<!-- Node9&#45;&gt;Node28 -->
<g id="edge33" class="edge"><title>Node9&#45;&gt;Node28</title>
<path fill="none" stroke="midnightblue" d="M774.164,-398.743C742.507,-386.412 693.756,-367.424 660.591,-354.506"/>
<polygon fill="midnightblue" stroke="midnightblue" points="773.211,-402.128 783.8,-402.496 775.752,-395.605 773.211,-402.128"/>
</g>
<!-- Node30 -->
<g id="node30" class="node"><title>Node30</title>
<g id="a_node30"><a xlink:href="../../d4/dd0/Cube_8hpp.html" target="_top" xlink:title="engine/Primitives/Cube\l/Cube.hpp">
<polygon fill="none" stroke="black" points="384.632,-324.5 384.632,-354.5 502.632,-354.5 502.632,-324.5 384.632,-324.5"/>
<text text-anchor="start" x="392.632" y="-342.5" font-family="Helvetica,sans-Serif" font-size="10.00">engine/Primitives/Cube</text>
<text text-anchor="middle" x="443.632" y="-331.5" font-family="Helvetica,sans-Serif" font-size="10.00">/Cube.hpp</text>
</a>
</g>
</g>
<!-- Node9&#45;&gt;Node30 -->
<g id="edge36" class="edge"><title>Node9&#45;&gt;Node30</title>
<path fill="none" stroke="midnightblue" d="M753.533,-400.377C738.411,-397.32 721.869,-394.002 706.632,-391 636.61,-377.205 556.003,-361.797 502.68,-351.67"/>
<polygon fill="midnightblue" stroke="midnightblue" points="753.246,-403.89 763.741,-402.444 754.635,-397.029 753.246,-403.89"/>
</g>
<!-- Node11 -->
<g id="node11" class="node"><title>Node11</title>
<g id="a_node11"><a xlink:href="../../da/d8c/Camera_8cpp.html" target="_top" xlink:title="engine/Camera/Camera.cpp">
<polygon fill="none" stroke="black" points="547.132,-62 547.132,-81 686.132,-81 686.132,-62 547.132,-62"/>
<text text-anchor="middle" x="616.632" y="-69" font-family="Helvetica,sans-Serif" font-size="10.00">engine/Camera/Camera.cpp</text>
</a>
</g>
</g>
<!-- Node10&#45;&gt;Node11 -->
<g id="edge11" class="edge"><title>Node10&#45;&gt;Node11</title>
<path fill="none" stroke="midnightblue" d="M793.596,-321.786C800.87,-312.531 808.844,-300.41 812.632,-288 819.3,-266.159 806.844,-194.69 804.632,-190 775.245,-127.686 695.04,-95.0677 649.45,-81.0832"/>
<polygon fill="midnightblue" stroke="midnightblue" points="790.715,-319.777 786.996,-329.698 796.09,-324.261 790.715,-319.777"/>
</g>
<!-- Node10&#45;&gt;Node12 -->
<g id="edge12" class="edge"><title>Node10&#45;&gt;Node12</title>
<path fill="none" stroke="midnightblue" d="M768.691,-321.035C761.527,-308.45 752.167,-292.007 746.543,-282.127"/>
<polygon fill="midnightblue" stroke="midnightblue" points="765.654,-322.775 773.643,-329.734 771.737,-319.312 765.654,-322.775"/>
</g>
<!-- Node13 -->
<g id="node13" class="node"><title>Node13</title>
<g id="a_node13"><a xlink:href="../../d0/dbd/AssimpImporter_8hpp.html" target="_top" xlink:title="engine/AssimpImporter\l/AssimpImporter.hpp">
<polygon fill="none" stroke="black" points="679.132,-190.5 679.132,-220.5 796.132,-220.5 796.132,-190.5 679.132,-190.5"/>
<text text-anchor="start" x="687.132" y="-208.5" font-family="Helvetica,sans-Serif" font-size="10.00">engine/AssimpImporter</text>
<text text-anchor="middle" x="737.632" y="-197.5" font-family="Helvetica,sans-Serif" font-size="10.00">/AssimpImporter.hpp</text>
</a>
</g>
</g>
<!-- Node12&#45;&gt;Node13 -->
<g id="edge13" class="edge"><title>Node12&#45;&gt;Node13</title>
<path fill="none" stroke="midnightblue" d="M740.478,-252.739C739.847,-242.487 739.079,-230.001 738.5,-220.589"/>
<polygon fill="midnightblue" stroke="midnightblue" points="736.985,-252.968 741.093,-262.734 743.972,-252.538 736.985,-252.968"/>
</g>
<!-- Node16 -->
<g id="node16" class="node"><title>Node16</title>
<g id="a_node16"><a xlink:href="../../d4/d1c/GameEngine_8hpp.html" target="_top" xlink:title="engine/GameEngine/GameEngine.hpp">
<polygon fill="none" stroke="black" points="860.632,-196 860.632,-215 1042.63,-215 1042.63,-196 860.632,-196"/>
<text text-anchor="middle" x="951.632" y="-203" font-family="Helvetica,sans-Serif" font-size="10.00">engine/GameEngine/GameEngine.hpp</text>
</a>
</g>
</g>
<!-- Node12&#45;&gt;Node16 -->
<g id="edge16" class="edge"><title>Node12&#45;&gt;Node16</title>
<path fill="none" stroke="midnightblue" d="M779.28,-259.847C820.875,-246.973 886.87,-226.546 923.965,-215.064"/>
<polygon fill="midnightblue" stroke="midnightblue" points="778.037,-256.568 769.519,-262.869 780.107,-263.255 778.037,-256.568"/>
</g>
<!-- Node26 -->
<g id="node26" class="node"><title>Node26</title>
<g id="a_node26"><a xlink:href="../../de/d15/Scene_8cpp.html" target="_top" xlink:title="engine/Scene/Scene.cpp">
<polygon fill="none" stroke="black" points="475.132,-196 475.132,-215 600.132,-215 600.132,-196 475.132,-196"/>
<text text-anchor="middle" x="537.632" y="-203" font-family="Helvetica,sans-Serif" font-size="10.00">engine/Scene/Scene.cpp</text>
</a>
</g>
</g>
<!-- Node12&#45;&gt;Node26 -->
<g id="edge31" class="edge"><title>Node12&#45;&gt;Node26</title>
<path fill="none" stroke="midnightblue" d="M704.804,-259.765C664.383,-246.886 600.469,-226.521 564.509,-215.064"/>
<polygon fill="midnightblue" stroke="midnightblue" points="703.952,-263.167 714.543,-262.869 706.077,-256.498 703.952,-263.167"/>
</g>
<!-- Node14 -->
<g id="node14" class="node"><title>Node14</title>
<g id="a_node14"><a xlink:href="../../d4/d7f/AssimpImporter_8cpp.html" target="_top" xlink:title="engine/AssimpImporter\l/AssimpImporter.cpp">
<polygon fill="none" stroke="black" points="592.132,-123.5 592.132,-153.5 709.132,-153.5 709.132,-123.5 592.132,-123.5"/>
<text text-anchor="start" x="600.132" y="-141.5" font-family="Helvetica,sans-Serif" font-size="10.00">engine/AssimpImporter</text>
<text text-anchor="middle" x="650.632" y="-130.5" font-family="Helvetica,sans-Serif" font-size="10.00">/AssimpImporter.cpp</text>
</a>
</g>
</g>
<!-- Node13&#45;&gt;Node14 -->
<g id="edge14" class="edge"><title>Node13&#45;&gt;Node14</title>
<path fill="none" stroke="midnightblue" d="M710.418,-184.168C697.115,-174.228 681.436,-162.514 669.473,-153.577"/>
<polygon fill="midnightblue" stroke="midnightblue" points="708.649,-187.215 718.755,-190.396 712.839,-181.607 708.649,-187.215"/>
</g>
<!-- Node15 -->
<g id="node15" class="node"><title>Node15</title>
<g id="a_node15"><a xlink:href="../../dd/d98/GameEngine_8cpp.html" target="_top" xlink:title="engine/GameEngine/GameEngine.cpp">
<polygon fill="none" stroke="black" points="346.632,-62 346.632,-81 528.632,-81 528.632,-62 346.632,-62"/>
<text text-anchor="middle" x="437.632" y="-69" font-family="Helvetica,sans-Serif" font-size="10.00">engine/GameEngine/GameEngine.cpp</text>
</a>
</g>
</g>
<!-- Node13&#45;&gt;Node15 -->
<g id="edge15" class="edge"><title>Node13&#45;&gt;Node15</title>
<path fill="none" stroke="midnightblue" d="M738.307,-180.208C737.436,-161.894 733.092,-137.526 717.632,-123 709.499,-115.358 573.267,-93.3323 493.881,-81.044"/>
<polygon fill="midnightblue" stroke="midnightblue" points="734.811,-180.487 738.473,-190.429 741.81,-180.374 734.811,-180.487"/>
</g>
<!-- Node16&#45;&gt;Node15 -->
<g id="edge17" class="edge"><title>Node16&#45;&gt;Node15</title>
<path fill="none" stroke="midnightblue" d="M923.84,-191.662C884.055,-173.774 808.203,-141.474 740.632,-123 717.162,-116.583 573.167,-93.6506 492.417,-81.0112"/>
<polygon fill="midnightblue" stroke="midnightblue" points="922.597,-194.941 933.15,-195.882 925.487,-188.566 922.597,-194.941"/>
</g>
<!-- Node17 -->
<g id="node17" class="node"><title>Node17</title>
<g id="a_node17"><a xlink:href="../../d1/d2a/glwindow_8h.html" target="_top" xlink:title="window/glwindow.h">
<polygon fill="none" stroke="black" points="881.132,-129 881.132,-148 982.132,-148 982.132,-129 881.132,-129"/>
<text text-anchor="middle" x="931.632" y="-136" font-family="Helvetica,sans-Serif" font-size="10.00">window/glwindow.h</text>
</a>
</g>
</g>
<!-- Node16&#45;&gt;Node17 -->
<g id="edge18" class="edge"><title>Node16&#45;&gt;Node17</title>
<path fill="none" stroke="midnightblue" d="M945.914,-185.915C942.09,-173.488 937.238,-157.717 934.287,-148.127"/>
<polygon fill="midnightblue" stroke="midnightblue" points="942.649,-187.205 948.935,-195.734 949.34,-185.147 942.649,-187.205"/>
</g>
<!-- Node22 -->
<g id="node22" class="node"><title>Node22</title>
<g id="a_node22"><a xlink:href="../../d3/d1f/glwindow_8cpp.html" target="_top" xlink:title="window/glwindow.cpp">
<polygon fill="none" stroke="black" points="1268.63,-62 1268.63,-81 1380.63,-81 1380.63,-62 1268.63,-62"/>
<text text-anchor="middle" x="1324.63" y="-69" font-family="Helvetica,sans-Serif" font-size="10.00">window/glwindow.cpp</text>
</a>
</g>
</g>
<!-- Node16&#45;&gt;Node22 -->
<g id="edge30" class="edge"><title>Node16&#45;&gt;Node22</title>
<path fill="none" stroke="midnightblue" d="M985.631,-192.468C1060.1,-166.114 1236.12,-103.825 1300.5,-81.0398"/>
<polygon fill="midnightblue" stroke="midnightblue" points="984.078,-189.305 975.819,-195.941 986.413,-195.904 984.078,-189.305"/>
</g>
<!-- Node17&#45;&gt;Node6 -->
<g id="edge24" class="edge"><title>Node17&#45;&gt;Node6</title>
<path fill="none" stroke="midnightblue" d="M870.853,-132.493C723.29,-120.336 347.537,-89.3806 201.728,-77.3684"/>
<polygon fill="midnightblue" stroke="midnightblue" points="870.823,-136.002 881.077,-133.335 871.398,-129.026 870.823,-136.002"/>
</g>
<!-- Node17&#45;&gt;Node11 -->
<g id="edge20" class="edge"><title>Node17&#45;&gt;Node11</title>
<path fill="none" stroke="midnightblue" d="M880.162,-126.879C818.122,-114.077 715.102,-92.8191 657.979,-81.0317"/>
<polygon fill="midnightblue" stroke="midnightblue" points="879.627,-130.342 890.128,-128.936 881.042,-123.487 879.627,-130.342"/>
</g>
<!-- Node17&#45;&gt;Node15 -->
<g id="edge21" class="edge"><title>Node17&#45;&gt;Node15</title>
<path fill="none" stroke="midnightblue" d="M870.851,-130.026C793.423,-120.431 655.502,-103.098 537.632,-87 523.901,-85.1246 509.122,-83.0259 495.249,-81.0202"/>
<polygon fill="midnightblue" stroke="midnightblue" points="870.553,-133.515 880.907,-131.27 871.413,-126.568 870.553,-133.515"/>
</g>
<!-- Node18 -->
<g id="node18" class="node"><title>Node18</title>
<g id="a_node18"><a xlink:href="../../db/d2b/BufferObject_8cpp.html" target="_top" xlink:title="engine/BufferObject\l/BufferObject.cpp">
<polygon fill="none" stroke="black" points="1147.13,-56.5 1147.13,-86.5 1250.13,-86.5 1250.13,-56.5 1147.13,-56.5"/>
<text text-anchor="start" x="1155.13" y="-74.5" font-family="Helvetica,sans-Serif" font-size="10.00">engine/BufferObject</text>
<text text-anchor="middle" x="1198.63" y="-63.5" font-family="Helvetica,sans-Serif" font-size="10.00">/BufferObject.cpp</text>
</a>
</g>
</g>
<!-- Node17&#45;&gt;Node18 -->
<g id="edge19" class="edge"><title>Node17&#45;&gt;Node18</title>
<path fill="none" stroke="midnightblue" d="M976.721,-126.523C1023.78,-115.068 1097.46,-97.1296 1146.87,-85.102"/>
<polygon fill="midnightblue" stroke="midnightblue" points="975.701,-123.169 966.813,-128.936 977.357,-129.971 975.701,-123.169"/>
</g>
<!-- Node19 -->
<g id="node19" class="node"><title>Node19</title>
<g id="a_node19"><a xlink:href="../../d2/dcc/Mesh_8cpp.html" target="_top" xlink:title="engine/Mesh/Mesh.cpp">
<polygon fill="none" stroke="black" points="704.632,-62 704.632,-81 822.632,-81 822.632,-62 704.632,-62"/>
<text text-anchor="middle" x="763.632" y="-69" font-family="Helvetica,sans-Serif" font-size="10.00">engine/Mesh/Mesh.cpp</text>
</a>
</g>
</g>
<!-- Node17&#45;&gt;Node19 -->
<g id="edge22" class="edge"><title>Node17&#45;&gt;Node19</title>
<path fill="none" stroke="midnightblue" d="M899.594,-125.104C866.238,-112.198 814.878,-92.3272 785.766,-81.0637"/>
<polygon fill="midnightblue" stroke="midnightblue" points="898.734,-128.524 909.323,-128.869 901.26,-121.996 898.734,-128.524"/>
</g>
<!-- Node20 -->
<g id="node20" class="node"><title>Node20</title>
<g id="a_node20"><a xlink:href="../../da/d3d/BasicRenderer_8cpp.html" target="_top" xlink:title="engine/Renderer/BasicRenderer\l/BasicRenderer.cpp">
<polygon fill="none" stroke="black" points="841.132,-56.5 841.132,-86.5 996.132,-86.5 996.132,-56.5 841.132,-56.5"/>
<text text-anchor="start" x="849.132" y="-74.5" font-family="Helvetica,sans-Serif" font-size="10.00">engine/Renderer/BasicRenderer</text>
<text text-anchor="middle" x="918.632" y="-63.5" font-family="Helvetica,sans-Serif" font-size="10.00">/BasicRenderer.cpp</text>
</a>
</g>
</g>
<!-- Node17&#45;&gt;Node20 -->
<g id="edge23" class="edge"><title>Node17&#45;&gt;Node20</title>
<path fill="none" stroke="midnightblue" d="M927.88,-118.739C925.83,-108.487 923.333,-96.0011 921.45,-86.589"/>
<polygon fill="midnightblue" stroke="midnightblue" points="924.486,-119.614 929.879,-128.734 931.35,-118.242 924.486,-119.614"/>
</g>
<!-- Node17&#45;&gt;Node21 -->
<g id="edge25" class="edge"><title>Node17&#45;&gt;Node21</title>
<path fill="none" stroke="midnightblue" d="M992.285,-131.89C1080.09,-123.525 1247.67,-106.642 1389.63,-87 1392.67,-86.5803 1395.76,-86.1376 1398.88,-85.6782"/>
<polygon fill="midnightblue" stroke="midnightblue" points="991.861,-128.415 982.236,-132.844 992.522,-135.384 991.861,-128.415"/>
</g>
<!-- Node17&#45;&gt;Node22 -->
<g id="edge26" class="edge"><title>Node17&#45;&gt;Node22</title>
<path fill="none" stroke="midnightblue" d="M992.605,-129.353C1058.62,-120.243 1166.92,-104.458 1259.63,-87 1268.95,-85.2455 1278.97,-83.1273 1288.28,-81.0584"/>
<polygon fill="midnightblue" stroke="midnightblue" points="991.813,-125.929 982.382,-130.757 992.765,-132.864 991.813,-125.929"/>
</g>
<!-- Node23 -->
<g id="node23" class="node"><title>Node23</title>
<g id="a_node23"><a xlink:href="../../d9/d53/mainwindow_8h.html" target="_top" xlink:title="window/mainwindow.h">
<polygon fill="none" stroke="black" points="1014.13,-62 1014.13,-81 1129.13,-81 1129.13,-62 1014.13,-62"/>
<text text-anchor="middle" x="1071.63" y="-69" font-family="Helvetica,sans-Serif" font-size="10.00">window/mainwindow.h</text>
</a>
</g>
</g>
<!-- Node17&#45;&gt;Node23 -->
<g id="edge27" class="edge"><title>Node17&#45;&gt;Node23</title>
<path fill="none" stroke="midnightblue" d="M959.39,-124.613C987.118,-111.739 1028.97,-92.3059 1052.96,-81.1672"/>
<polygon fill="midnightblue" stroke="midnightblue" points="957.82,-121.483 950.223,-128.869 960.767,-127.832 957.82,-121.483"/>
</g>
<!-- Node24 -->
<g id="node24" class="node"><title>Node24</title>
<g id="a_node24"><a xlink:href="../../df/d0a/main_8cpp.html" target="_top" xlink:title="TODO. ">
<polygon fill="none" stroke="black" points="989.632,-0.5 989.632,-19.5 1045.63,-19.5 1045.63,-0.5 989.632,-0.5"/>
<text text-anchor="middle" x="1017.63" y="-7.5" font-family="Helvetica,sans-Serif" font-size="10.00">main.cpp</text>
</a>
</g>
</g>
<!-- Node23&#45;&gt;Node24 -->
<g id="edge28" class="edge"><title>Node23&#45;&gt;Node24</title>
<path fill="none" stroke="midnightblue" d="M1057.11,-54.4975C1046.89,-43.2356 1033.61,-28.6044 1025.36,-19.5091"/>
<polygon fill="midnightblue" stroke="midnightblue" points="1054.58,-56.9222 1063.9,-61.9751 1059.77,-52.2178 1054.58,-56.9222"/>
</g>
<!-- Node25 -->
<g id="node25" class="node"><title>Node25</title>
<g id="a_node25"><a xlink:href="../../d8/dd9/mainwindow_8cpp.html" target="_top" xlink:title="window/mainwindow.cpp">
<polygon fill="none" stroke="black" points="1063.13,-0.5 1063.13,-19.5 1188.13,-19.5 1188.13,-0.5 1063.13,-0.5"/>
<text text-anchor="middle" x="1125.63" y="-7.5" font-family="Helvetica,sans-Serif" font-size="10.00">window/mainwindow.cpp</text>
</a>
</g>
</g>
<!-- Node23&#45;&gt;Node25 -->
<g id="edge29" class="edge"><title>Node23&#45;&gt;Node25</title>
<path fill="none" stroke="midnightblue" d="M1086.16,-54.4975C1096.38,-43.2356 1109.66,-28.6044 1117.91,-19.5091"/>
<polygon fill="midnightblue" stroke="midnightblue" points="1083.5,-52.2178 1079.37,-61.9751 1088.68,-56.9222 1083.5,-52.2178"/>
</g>
<!-- Node28&#45;&gt;Node14 -->
<g id="edge34" class="edge"><title>Node28&#45;&gt;Node14</title>
<path fill="none" stroke="midnightblue" d="M628.054,-314.193C629.21,-305.888 630.494,-296.541 631.632,-288 638.191,-238.792 645.539,-180.348 648.848,-153.842"/>
<polygon fill="midnightblue" stroke="midnightblue" points="624.552,-313.968 626.633,-324.356 631.484,-314.937 624.552,-313.968"/>
</g>
<!-- Node29 -->
<g id="node29" class="node"><title>Node29</title>
<g id="a_node29"><a xlink:href="../../dd/d2e/Model_8cpp.html" target="_top" xlink:title="engine/GameObject/Model\l/Model.cpp">
<polygon fill="none" stroke="black" points="490.632,-257.5 490.632,-287.5 622.632,-287.5 622.632,-257.5 490.632,-257.5"/>
<text text-anchor="start" x="498.632" y="-275.5" font-family="Helvetica,sans-Serif" font-size="10.00">engine/GameObject/Model</text>
<text text-anchor="middle" x="556.632" y="-264.5" font-family="Helvetica,sans-Serif" font-size="10.00">/Model.cpp</text>
</a>
</g>
</g>
<!-- Node28&#45;&gt;Node29 -->
<g id="edge35" class="edge"><title>Node28&#45;&gt;Node29</title>
<path fill="none" stroke="midnightblue" d="M602.466,-317.311C592.266,-307.561 580.442,-296.259 571.359,-287.577"/>
<polygon fill="midnightblue" stroke="midnightblue" points="600.23,-320.016 609.878,-324.396 605.067,-314.956 600.23,-320.016"/>
</g>
<!-- Node30&#45;&gt;Node15 -->
<g id="edge37" class="edge"><title>Node30&#45;&gt;Node15</title>
<path fill="none" stroke="midnightblue" d="M443.078,-313.922C441.789,-256.759 438.636,-117.008 437.825,-81.049"/>
<polygon fill="midnightblue" stroke="midnightblue" points="439.585,-314.28 443.31,-324.199 446.583,-314.122 439.585,-314.28"/>
</g>
<!-- Node30&#45;&gt;Node26 -->
<g id="edge39" class="edge"><title>Node30&#45;&gt;Node26</title>
<path fill="none" stroke="midnightblue" d="M451.856,-314.573C458.379,-297.555 468.566,-274.673 481.632,-257 494.241,-239.947 513.317,-224.254 525.626,-215.028"/>
<polygon fill="midnightblue" stroke="midnightblue" points="448.441,-313.718 448.275,-324.312 455.011,-316.134 448.441,-313.718"/>
</g>
<!-- Node31 -->
<g id="node31" class="node"><title>Node31</title>
<g id="a_node31"><a xlink:href="../../d6/d05/Cube_8cpp.html" target="_top" xlink:title="engine/Primitives/Cube\l/Cube.cpp">
<polygon fill="none" stroke="black" points="278.632,-257.5 278.632,-287.5 396.632,-287.5 396.632,-257.5 278.632,-257.5"/>
<text text-anchor="start" x="286.632" y="-275.5" font-family="Helvetica,sans-Serif" font-size="10.00">engine/Primitives/Cube</text>
<text text-anchor="middle" x="337.632" y="-264.5" font-family="Helvetica,sans-Serif" font-size="10.00">/Cube.cpp</text>
</a>
</g>
</g>
<!-- Node30&#45;&gt;Node31 -->
<g id="edge38" class="edge"><title>Node30&#45;&gt;Node31</title>
<path fill="none" stroke="midnightblue" d="M411.857,-319.015C395.362,-308.9 375.58,-296.77 360.588,-287.577"/>
<polygon fill="midnightblue" stroke="midnightblue" points="410.278,-322.152 420.632,-324.396 413.937,-316.185 410.278,-322.152"/>
</g>
<!-- Node33&#45;&gt;Node5 -->
<g id="edge43" class="edge"><title>Node33&#45;&gt;Node5</title>
<path fill="none" stroke="midnightblue" d="M319.872,-463.065C307.231,-453.057 293.017,-441.804 281.271,-432.506"/>
<polygon fill="midnightblue" stroke="midnightblue" points="317.897,-465.965 327.91,-469.428 322.242,-460.477 317.897,-465.965"/>
</g>
<!-- Node34&#45;&gt;Node5 -->
<g id="edge47" class="edge"><title>Node34&#45;&gt;Node5</title>
<path fill="none" stroke="midnightblue" d="M450.302,-466.718C411.204,-455.874 364.631,-442.956 326.955,-432.506"/>
<polygon fill="midnightblue" stroke="midnightblue" points="449.499,-470.128 460.071,-469.428 451.37,-463.383 449.499,-470.128"/>
</g>
<!-- Node34&#45;&gt;Node29 -->
<g id="edge45" class="edge"><title>Node34&#45;&gt;Node29</title>
<path fill="none" stroke="midnightblue" d="M533.867,-459.085C537.493,-426.009 543.649,-371.161 549.632,-324 551.192,-311.707 553.139,-297.756 554.584,-287.637"/>
<polygon fill="midnightblue" stroke="midnightblue" points="530.344,-459.104 532.739,-469.425 537.303,-459.864 530.344,-459.104"/>
</g>
<!-- Node34&#45;&gt;Node31 -->
<g id="edge46" class="edge"><title>Node34&#45;&gt;Node31</title>
<path fill="none" stroke="midnightblue" d="M493.034,-463.586C458.899,-439.006 408.945,-399.084 375.632,-355 359.632,-333.826 348.125,-304.834 342.199,-287.744"/>
<polygon fill="midnightblue" stroke="midnightblue" points="491.173,-466.557 501.352,-469.498 495.229,-460.851 491.173,-466.557"/>
</g>
</g>
</svg>
