<?xml version="1.0" encoding="UTF-8" standalone="no"?>
<!DOCTYPE svg PUBLIC "-//W3C//DTD SVG 1.1//EN"
 "http://www.w3.org/Graphics/SVG/1.1/DTD/svg11.dtd">
<!-- Generated by graphviz version 2.38.0 (20140413.2041)
 -->
<!-- Title: engine/Shader/Shader.hpp Pages: 1 -->
<!--zoomable 475 -->
<svg id="main" version="1.1" xmlns="http://www.w3.org/2000/svg" xmlns:xlink="http://www.w3.org/1999/xlink" xml:space="preserve" onload="init(evt)">
<style type="text/css"><![CDATA[
.edge:hover path { stroke: red; }
.edge:hover polygon { stroke: red; fill: red; }
]]></style>
<script type="text/javascript"><![CDATA[
var edges = document.getElementsByTagName('g');
if (edges && edges.length) {
  for (var i=0;i<edges.length;i++) {
    if (edges[i].id.substr(0,4)=='edge') {
      edges[i].setAttribute('class','edge');
    }
  }
}
]]></script>
        <defs>
                <circle id="rim" cx="0" cy="0" r="7"/>
                <circle id="rim2" cx="0" cy="0" r="3.5"/>
                <g id="zoomPlus">
                        <use xlink:href="#rim" fill="#404040">
                                <set attributeName="fill" to="#808080" begin="zoomplus.mouseover" end="zoomplus.mouseout"/>
                        </use>
                        <path d="M-4,0h8M0,-4v8" fill="none" stroke="white" stroke-width="1.5" pointer-events="none"/>
                </g>
                <g id="zoomMin">
                        <use xlink:href="#rim" fill="#404040">
                                <set attributeName="fill" to="#808080" begin="zoomminus.mouseover" end="zoomminus.mouseout"/>
                        </use>
                        <path d="M-4,0h8" fill="none" stroke="white" stroke-width="1.5" pointer-events="none"/>
                </g>
                <g id="dirArrow">
                        <path fill="none" stroke="white" stroke-width="1.5" d="M0,-3.0v7 M-2.5,-0.5L0,-3.0L2.5,-0.5"/>
                </g>
               <g id="resetDef">
                       <use xlink:href="#rim2" fill="#404040">
                               <set attributeName="fill" to="#808080" begin="reset.mouseover" end="reset.mouseout"/>
                       </use>
               </g>
        </defs>

<script type="text/javascript">
var viewWidth = 1096;
var viewHeight = 475;
var sectionId = 'dynsection-1';
</script>
<script xlink:href="../../svgpan.js"/>
<svg id="graph" class="graph">
<g id="viewport">
<title>engine/Shader/Shader.hpp</title>
<!-- Node1 -->
<g id="node1" class="node"><title>Node1</title>
<polygon fill="#bfbfbf" stroke="black" points="385,-447.5 385,-466.5 516,-466.5 516,-447.5 385,-447.5"/>
<text text-anchor="middle" x="450.5" y="-454.5" font-family="Helvetica,sans-Serif" font-size="10.00">engine/Shader/Shader.hpp</text>
</g>
<!-- Node2 -->
<g id="node2" class="node"><title>Node2</title>
<g id="a_node2"><a xlink:href="../../dd/d84/Shader_8cpp.html" target="_top" xlink:title="engine/Shader/Shader.cpp">
<polygon fill="none" stroke="black" points="0,-62 0,-81 131,-81 131,-62 0,-62"/>
<text text-anchor="middle" x="65.5" y="-69" font-family="Helvetica,sans-Serif" font-size="10.00">engine/Shader/Shader.cpp</text>
</a>
</g>
</g>
<!-- Node1&#45;&gt;Node2 -->
<g id="edge1" class="edge"><title>Node1&#45;&gt;Node2</title>
<path fill="none" stroke="midnightblue" d="M374.935,-446.055C265.669,-429.525 76.5,-391.898 76.5,-329.5 76.5,-329.5 76.5,-329.5 76.5,-193.5 76.5,-151.313 69.7861,-101.191 66.8488,-81.2808"/>
<polygon fill="midnightblue" stroke="midnightblue" points="374.52,-449.531 384.926,-447.541 375.55,-442.607 374.52,-449.531"/>
</g>
<!-- Node3 -->
<g id="node3" class="node"><title>Node3</title>
<g id="a_node3"><a xlink:href="../../d3/d1a/ShaderMapping_8hpp.html" target="_top" xlink:title="engine/ShaderLibrary\l/internal/ShaderMapping.hpp">
<polygon fill="none" stroke="black" points="309.5,-380.5 309.5,-410.5 449.5,-410.5 449.5,-380.5 309.5,-380.5"/>
<text text-anchor="start" x="317.5" y="-398.5" font-family="Helvetica,sans-Serif" font-size="10.00">engine/ShaderLibrary</text>
<text text-anchor="middle" x="379.5" y="-387.5" font-family="Helvetica,sans-Serif" font-size="10.00">/internal/ShaderMapping.hpp</text>
</a>
</g>
</g>
<!-- Node1&#45;&gt;Node3 -->
<g id="edge2" class="edge"><title>Node1&#45;&gt;Node3</title>
<path fill="none" stroke="midnightblue" d="M432.507,-440.921C421.359,-431.579 407.138,-419.662 396.233,-410.523"/>
<polygon fill="midnightblue" stroke="midnightblue" points="430.415,-443.735 440.327,-447.475 434.911,-438.369 430.415,-443.735"/>
</g>
<!-- Node5 -->
<g id="node5" class="node"><title>Node5</title>
<g id="a_node5"><a xlink:href="../../d2/db1/ShaderLibrary_8hpp.html" target="_top" xlink:title="engine/ShaderLibrary\l/ShaderLibrary.hpp">
<polygon fill="none" stroke="black" points="468.5,-380.5 468.5,-410.5 576.5,-410.5 576.5,-380.5 468.5,-380.5"/>
<text text-anchor="start" x="476.5" y="-398.5" font-family="Helvetica,sans-Serif" font-size="10.00">engine/ShaderLibrary</text>
<text text-anchor="middle" x="522.5" y="-387.5" font-family="Helvetica,sans-Serif" font-size="10.00">/ShaderLibrary.hpp</text>
</a>
</g>
</g>
<!-- Node1&#45;&gt;Node5 -->
<g id="edge4" class="edge"><title>Node1&#45;&gt;Node5</title>
<path fill="none" stroke="midnightblue" d="M468.746,-440.921C480.051,-431.579 494.473,-419.662 505.531,-410.523"/>
<polygon fill="midnightblue" stroke="midnightblue" points="466.295,-438.407 460.816,-447.475 470.754,-443.803 466.295,-438.407"/>
</g>
<!-- Node27 -->
<g id="node27" class="node"><title>Node27</title>
<g id="a_node27"><a xlink:href="../../dc/ddb/ShaderProgram_8hpp.html" target="_top" xlink:title="engine/ShaderProgram\l/ShaderProgram.hpp">
<polygon fill="none" stroke="black" points="682.5,-380.5 682.5,-410.5 798.5,-410.5 798.5,-380.5 682.5,-380.5"/>
<text text-anchor="start" x="690.5" y="-398.5" font-family="Helvetica,sans-Serif" font-size="10.00">engine/ShaderProgram</text>
<text text-anchor="middle" x="740.5" y="-387.5" font-family="Helvetica,sans-Serif" font-size="10.00">/ShaderProgram.hpp</text>
</a>
</g>
</g>
<!-- Node1&#45;&gt;Node27 -->
<g id="edge30" class="edge"><title>Node1&#45;&gt;Node27</title>
<path fill="none" stroke="midnightblue" d="M502.103,-445.412C552.641,-435.043 629.528,-419.268 682.238,-408.454"/>
<polygon fill="midnightblue" stroke="midnightblue" points="501.142,-442.037 492.05,-447.475 502.549,-448.894 501.142,-442.037"/>
</g>
<!-- Node4 -->
<g id="node4" class="node"><title>Node4</title>
<g id="a_node4"><a xlink:href="../../d8/df3/ShaderLibrary_8cpp.html" target="_top" xlink:title="engine/ShaderLibrary\l/ShaderLibrary.cpp">
<polygon fill="none" stroke="black" points="324.5,-313.5 324.5,-343.5 432.5,-343.5 432.5,-313.5 324.5,-313.5"/>
<text text-anchor="start" x="332.5" y="-331.5" font-family="Helvetica,sans-Serif" font-size="10.00">engine/ShaderLibrary</text>
<text text-anchor="middle" x="378.5" y="-320.5" font-family="Helvetica,sans-Serif" font-size="10.00">/ShaderLibrary.cpp</text>
</a>
</g>
</g>
<!-- Node3&#45;&gt;Node4 -->
<g id="edge3" class="edge"><title>Node3&#45;&gt;Node4</title>
<path fill="none" stroke="midnightblue" d="M379.125,-370.108C378.987,-361.154 378.836,-351.323 378.717,-343.577"/>
<polygon fill="midnightblue" stroke="midnightblue" points="375.63,-370.451 379.283,-380.396 382.629,-370.343 375.63,-370.451"/>
</g>
<!-- Node5&#45;&gt;Node4 -->
<g id="edge5" class="edge"><title>Node5&#45;&gt;Node4</title>
<path fill="none" stroke="midnightblue" d="M482.111,-376.269C459.175,-365.916 430.9,-353.153 409.685,-343.577"/>
<polygon fill="midnightblue" stroke="midnightblue" points="480.7,-379.472 491.254,-380.396 483.58,-373.092 480.7,-379.472"/>
</g>
<!-- Node6 -->
<g id="node6" class="node"><title>Node6</title>
<g id="a_node6"><a xlink:href="../../d8/d9e/ShaderProgramLibrary_8cpp.html" target="_top" xlink:title="engine/ShaderProgramLibrary\l/ShaderProgramLibrary.cpp">
<polygon fill="none" stroke="black" points="604,-246.5 604,-276.5 749,-276.5 749,-246.5 604,-246.5"/>
<text text-anchor="start" x="612" y="-264.5" font-family="Helvetica,sans-Serif" font-size="10.00">engine/ShaderProgramLibrary</text>
<text text-anchor="middle" x="676.5" y="-253.5" font-family="Helvetica,sans-Serif" font-size="10.00">/ShaderProgramLibrary.cpp</text>
</a>
</g>
</g>
<!-- Node5&#45;&gt;Node6 -->
<g id="edge6" class="edge"><title>Node5&#45;&gt;Node6</title>
<path fill="none" stroke="midnightblue" d="M559.481,-375.268C574.471,-366.66 591.509,-355.793 605.5,-344 630.035,-323.319 653.472,-293.902 666.33,-276.648"/>
<polygon fill="midnightblue" stroke="midnightblue" points="557.47,-372.382 550.457,-380.323 560.892,-378.489 557.47,-372.382"/>
</g>
<!-- Node7 -->
<g id="node7" class="node"><title>Node7</title>
<g id="a_node7"><a xlink:href="../../d1/d93/ShaderProgramLibrary_8hpp.html" target="_top" xlink:title="engine/ShaderProgramLibrary\l/ShaderProgramLibrary.hpp">
<polygon fill="none" stroke="black" points="451,-313.5 451,-343.5 596,-343.5 596,-313.5 451,-313.5"/>
<text text-anchor="start" x="459" y="-331.5" font-family="Helvetica,sans-Serif" font-size="10.00">engine/ShaderProgramLibrary</text>
<text text-anchor="middle" x="523.5" y="-320.5" font-family="Helvetica,sans-Serif" font-size="10.00">/ShaderProgramLibrary.hpp</text>
</a>
</g>
</g>
<!-- Node5&#45;&gt;Node7 -->
<g id="edge7" class="edge"><title>Node5&#45;&gt;Node7</title>
<path fill="none" stroke="midnightblue" d="M522.875,-370.108C523.013,-361.154 523.164,-351.323 523.283,-343.577"/>
<polygon fill="midnightblue" stroke="midnightblue" points="519.371,-370.343 522.717,-380.396 526.37,-370.451 519.371,-370.343"/>
</g>
<!-- Node7&#45;&gt;Node6 -->
<g id="edge29" class="edge"><title>Node7&#45;&gt;Node6</title>
<path fill="none" stroke="midnightblue" d="M566.089,-309.407C590.515,-299.029 620.725,-286.195 643.366,-276.577"/>
<polygon fill="midnightblue" stroke="midnightblue" points="564.534,-306.264 556.699,-313.396 567.271,-312.707 564.534,-306.264"/>
</g>
<!-- Node8 -->
<g id="node8" class="node"><title>Node8</title>
<g id="a_node8"><a xlink:href="../../d2/d3b/MaterialLibrary_8cpp.html" target="_top" xlink:title="engine/MaterialLibrary\l/MaterialLibrary.cpp">
<polygon fill="none" stroke="black" points="330.5,-246.5 330.5,-276.5 442.5,-276.5 442.5,-246.5 330.5,-246.5"/>
<text text-anchor="start" x="338.5" y="-264.5" font-family="Helvetica,sans-Serif" font-size="10.00">engine/MaterialLibrary</text>
<text text-anchor="middle" x="386.5" y="-253.5" font-family="Helvetica,sans-Serif" font-size="10.00">/MaterialLibrary.cpp</text>
</a>
</g>
</g>
<!-- Node7&#45;&gt;Node8 -->
<g id="edge8" class="edge"><title>Node7&#45;&gt;Node8</title>
<path fill="none" stroke="midnightblue" d="M484.491,-308.992C462.776,-298.689 436.173,-286.068 416.169,-276.577"/>
<polygon fill="midnightblue" stroke="midnightblue" points="483.238,-312.272 493.773,-313.396 486.239,-305.947 483.238,-312.272"/>
</g>
<!-- Node9 -->
<g id="node9" class="node"><title>Node9</title>
<g id="a_node9"><a xlink:href="../../db/de8/Scene_8hpp.html" target="_top" xlink:title="engine/Scene/Scene.hpp">
<polygon fill="none" stroke="black" points="461,-252 461,-271 586,-271 586,-252 461,-252"/>
<text text-anchor="middle" x="523.5" y="-259" font-family="Helvetica,sans-Serif" font-size="10.00">engine/Scene/Scene.hpp</text>
</a>
</g>
</g>
<!-- Node7&#45;&gt;Node9 -->
<g id="edge9" class="edge"><title>Node7&#45;&gt;Node9</title>
<path fill="none" stroke="midnightblue" d="M523.5,-303.25C523.5,-292.017 523.5,-279.377 523.5,-271.195"/>
<polygon fill="midnightblue" stroke="midnightblue" points="520,-303.396 523.5,-313.396 527,-303.396 520,-303.396"/>
</g>
<!-- Node10 -->
<g id="node10" class="node"><title>Node10</title>
<g id="a_node10"><a xlink:href="../../d4/d7f/AssimpImporter_8cpp.html" target="_top" xlink:title="engine/AssimpImporter\l/AssimpImporter.cpp">
<polygon fill="none" stroke="black" points="115,-179.5 115,-209.5 232,-209.5 232,-179.5 115,-179.5"/>
<text text-anchor="start" x="123" y="-197.5" font-family="Helvetica,sans-Serif" font-size="10.00">engine/AssimpImporter</text>
<text text-anchor="middle" x="173.5" y="-186.5" font-family="Helvetica,sans-Serif" font-size="10.00">/AssimpImporter.cpp</text>
</a>
</g>
</g>
<!-- Node9&#45;&gt;Node10 -->
<g id="edge10" class="edge"><title>Node9&#45;&gt;Node10</title>
<path fill="none" stroke="midnightblue" d="M472.043,-249.949C465.143,-248.589 458.153,-247.24 451.5,-246 358.408,-228.651 334.492,-227.878 241.5,-210 238.418,-209.407 235.261,-208.786 232.075,-208.147"/>
<polygon fill="midnightblue" stroke="midnightblue" points="471.549,-253.419 482.04,-251.937 472.915,-246.553 471.549,-253.419"/>
</g>
<!-- Node11 -->
<g id="node11" class="node"><title>Node11</title>
<g id="a_node11"><a xlink:href="../../d4/d1c/GameEngine_8hpp.html" target="_top" xlink:title="engine/GameEngine/GameEngine.hpp">
<polygon fill="none" stroke="black" points="250.5,-185 250.5,-204 432.5,-204 432.5,-185 250.5,-185"/>
<text text-anchor="middle" x="341.5" y="-192" font-family="Helvetica,sans-Serif" font-size="10.00">engine/GameEngine/GameEngine.hpp</text>
</a>
</g>
</g>
<!-- Node9&#45;&gt;Node11 -->
<g id="edge11" class="edge"><title>Node9&#45;&gt;Node11</title>
<path fill="none" stroke="midnightblue" d="M489.722,-248.436C453.617,-235.542 397.288,-215.424 365.478,-204.064"/>
<polygon fill="midnightblue" stroke="midnightblue" points="488.737,-251.801 499.332,-251.869 491.092,-245.209 488.737,-251.801"/>
</g>
<!-- Node23 -->
<g id="node23" class="node"><title>Node23</title>
<g id="a_node23"><a xlink:href="../../d2/d41/Light_8cpp.html" target="_top" xlink:title="engine/Light/Light.cpp">
<polygon fill="none" stroke="black" points="450.5,-185 450.5,-204 562.5,-204 562.5,-185 450.5,-185"/>
<text text-anchor="middle" x="506.5" y="-192" font-family="Helvetica,sans-Serif" font-size="10.00">engine/Light/Light.cpp</text>
</a>
</g>
</g>
<!-- Node9&#45;&gt;Node23 -->
<g id="edge25" class="edge"><title>Node9&#45;&gt;Node23</title>
<path fill="none" stroke="midnightblue" d="M518.639,-241.915C515.389,-229.488 511.264,-213.717 508.756,-204.127"/>
<polygon fill="midnightblue" stroke="midnightblue" points="515.291,-242.945 521.207,-251.734 522.063,-241.174 515.291,-242.945"/>
</g>
<!-- Node24 -->
<g id="node24" class="node"><title>Node24</title>
<g id="a_node24"><a xlink:href="../../de/d4f/Object_8cpp.html" target="_top" xlink:title="engine/Object/Object.cpp">
<polygon fill="none" stroke="black" points="581,-185 581,-204 708,-204 708,-185 581,-185"/>
<text text-anchor="middle" x="644.5" y="-192" font-family="Helvetica,sans-Serif" font-size="10.00">engine/Object/Object.cpp</text>
</a>
</g>
</g>
<!-- Node9&#45;&gt;Node24 -->
<g id="edge26" class="edge"><title>Node9&#45;&gt;Node24</title>
<path fill="none" stroke="midnightblue" d="M548.708,-246.959C572.696,-234.073 608.065,-215.073 628.44,-204.127"/>
<polygon fill="midnightblue" stroke="midnightblue" points="546.972,-243.918 539.819,-251.734 550.284,-250.085 546.972,-243.918"/>
</g>
<!-- Node25 -->
<g id="node25" class="node"><title>Node25</title>
<g id="a_node25"><a xlink:href="../../da/daf/PerspectiveCamera_8cpp.html" target="_top" xlink:title="engine/PerspectiveCamera\l/PerspectiveCamera.cpp">
<polygon fill="none" stroke="black" points="726.5,-179.5 726.5,-209.5 860.5,-209.5 860.5,-179.5 726.5,-179.5"/>
<text text-anchor="start" x="734.5" y="-197.5" font-family="Helvetica,sans-Serif" font-size="10.00">engine/PerspectiveCamera</text>
<text text-anchor="middle" x="793.5" y="-186.5" font-family="Helvetica,sans-Serif" font-size="10.00">/PerspectiveCamera.cpp</text>
</a>
</g>
</g>
<!-- Node9&#45;&gt;Node25 -->
<g id="edge27" class="edge"><title>Node9&#45;&gt;Node25</title>
<path fill="none" stroke="midnightblue" d="M568.997,-249.547C614.694,-238.546 685.293,-221.55 735.1,-209.559"/>
<polygon fill="midnightblue" stroke="midnightblue" points="567.978,-246.192 559.075,-251.936 569.617,-252.998 567.978,-246.192"/>
</g>
<!-- Node26 -->
<g id="node26" class="node"><title>Node26</title>
<g id="a_node26"><a xlink:href="../../de/d15/Scene_8cpp.html" target="_top" xlink:title="engine/Scene/Scene.cpp">
<polygon fill="none" stroke="black" points="879,-185 879,-204 1004,-204 1004,-185 879,-185"/>
<text text-anchor="middle" x="941.5" y="-192" font-family="Helvetica,sans-Serif" font-size="10.00">engine/Scene/Scene.cpp</text>
</a>
</g>
</g>
<!-- Node9&#45;&gt;Node26 -->
<g id="edge28" class="edge"><title>Node9&#45;&gt;Node26</title>
<path fill="none" stroke="midnightblue" d="M573.36,-250.001C580.767,-248.574 588.322,-247.193 595.5,-246 716.663,-225.864 748.337,-230.136 869.5,-210 879.94,-208.265 891.179,-206.131 901.601,-204.039"/>
<polygon fill="midnightblue" stroke="midnightblue" points="572.535,-246.596 563.399,-251.961 573.887,-253.464 572.535,-246.596"/>
</g>
<!-- Node12 -->
<g id="node12" class="node"><title>Node12</title>
<g id="a_node12"><a xlink:href="../../dd/d98/GameEngine_8cpp.html" target="_top" xlink:title="engine/GameEngine/GameEngine.cpp">
<polygon fill="none" stroke="black" points="250.5,-123.5 250.5,-142.5 432.5,-142.5 432.5,-123.5 250.5,-123.5"/>
<text text-anchor="middle" x="341.5" y="-130.5" font-family="Helvetica,sans-Serif" font-size="10.00">engine/GameEngine/GameEngine.cpp</text>
</a>
</g>
</g>
<!-- Node11&#45;&gt;Node12 -->
<g id="edge12" class="edge"><title>Node11&#45;&gt;Node12</title>
<path fill="none" stroke="midnightblue" d="M341.5,-174.817C341.5,-163.996 341.5,-150.898 341.5,-142.509"/>
<polygon fill="midnightblue" stroke="midnightblue" points="338,-174.975 341.5,-184.975 345,-174.975 338,-174.975"/>
</g>
<!-- Node13 -->
<g id="node13" class="node"><title>Node13</title>
<g id="a_node13"><a xlink:href="../../d0/d5e/glwindow_8hpp.html" target="_top" xlink:title="window/glwindow.hpp">
<polygon fill="none" stroke="black" points="453.5,-123.5 453.5,-142.5 565.5,-142.5 565.5,-123.5 453.5,-123.5"/>
<text text-anchor="middle" x="509.5" y="-130.5" font-family="Helvetica,sans-Serif" font-size="10.00">window/glwindow.hpp</text>
</a>
</g>
</g>
<!-- Node11&#45;&gt;Node13 -->
<g id="edge13" class="edge"><title>Node11&#45;&gt;Node13</title>
<path fill="none" stroke="midnightblue" d="M375.149,-181.583C407.805,-170.017 456.552,-152.752 485.474,-142.509"/>
<polygon fill="midnightblue" stroke="midnightblue" points="373.828,-178.337 365.57,-184.975 376.165,-184.936 373.828,-178.337"/>
</g>
<!-- Node19 -->
<g id="node19" class="node"><title>Node19</title>
<g id="a_node19"><a xlink:href="../../d3/d1f/glwindow_8cpp.html" target="_top" xlink:title="window/glwindow.cpp">
<polygon fill="none" stroke="black" points="835.5,-62 835.5,-81 947.5,-81 947.5,-62 835.5,-62"/>
<text text-anchor="middle" x="891.5" y="-69" font-family="Helvetica,sans-Serif" font-size="10.00">window/glwindow.cpp</text>
</a>
</g>
</g>
<!-- Node11&#45;&gt;Node19 -->
<g id="edge24" class="edge"><title>Node11&#45;&gt;Node19</title>
<path fill="none" stroke="midnightblue" d="M391.046,-182.84C438.225,-172.671 511.223,-156.888 574.5,-143 686.565,-118.404 714.51,-111.934 826.5,-87 835.19,-85.0652 844.533,-82.9825 853.35,-81.0159"/>
<polygon fill="midnightblue" stroke="midnightblue" points="390.13,-179.457 381.091,-184.985 391.604,-186.3 390.13,-179.457"/>
</g>
<!-- Node13&#45;&gt;Node2 -->
<g id="edge18" class="edge"><title>Node13&#45;&gt;Node2</title>
<path fill="none" stroke="midnightblue" d="M443.336,-123.232C442.722,-123.154 442.109,-123.077 441.5,-123 307.384,-106.132 273.03,-108.011 139.5,-87 128.637,-85.2907 116.935,-83.1419 106.115,-81.0262"/>
<polygon fill="midnightblue" stroke="midnightblue" points="443.112,-126.731 453.474,-124.526 443.999,-119.788 443.112,-126.731"/>
</g>
<!-- Node14 -->
<g id="node14" class="node"><title>Node14</title>
<g id="a_node14"><a xlink:href="../../d8/d49/ArrayObject_8cpp.html" target="_top" xlink:title="engine/ArrayObject\l/ArrayObject.cpp">
<polygon fill="none" stroke="black" points="459.5,-56.5 459.5,-86.5 559.5,-86.5 559.5,-56.5 459.5,-56.5"/>
<text text-anchor="start" x="467.5" y="-74.5" font-family="Helvetica,sans-Serif" font-size="10.00">engine/ArrayObject</text>
<text text-anchor="middle" x="509.5" y="-63.5" font-family="Helvetica,sans-Serif" font-size="10.00">/ArrayObject.cpp</text>
</a>
</g>
</g>
<!-- Node13&#45;&gt;Node14 -->
<g id="edge14" class="edge"><title>Node13&#45;&gt;Node14</title>
<path fill="none" stroke="midnightblue" d="M509.5,-113.235C509.5,-104.586 509.5,-94.4969 509.5,-86.523"/>
<polygon fill="midnightblue" stroke="midnightblue" points="506,-113.475 509.5,-123.475 513,-113.475 506,-113.475"/>
</g>
<!-- Node15 -->
<g id="node15" class="node"><title>Node15</title>
<g id="a_node15"><a xlink:href="../../db/d2b/BufferObject_8cpp.html" target="_top" xlink:title="engine/BufferObject\l/BufferObject.cpp">
<polygon fill="none" stroke="black" points="578,-56.5 578,-86.5 681,-86.5 681,-56.5 578,-56.5"/>
<text text-anchor="start" x="586" y="-74.5" font-family="Helvetica,sans-Serif" font-size="10.00">engine/BufferObject</text>
<text text-anchor="middle" x="629.5" y="-63.5" font-family="Helvetica,sans-Serif" font-size="10.00">/BufferObject.cpp</text>
</a>
</g>
</g>
<!-- Node13&#45;&gt;Node15 -->
<g id="edge15" class="edge"><title>Node13&#45;&gt;Node15</title>
<path fill="none" stroke="midnightblue" d="M535.843,-118.938C555.188,-109.347 581.432,-96.3336 601.218,-86.523"/>
<polygon fill="midnightblue" stroke="midnightblue" points="534.097,-115.897 526.693,-123.475 537.207,-122.169 534.097,-115.897"/>
</g>
<!-- Node16 -->
<g id="node16" class="node"><title>Node16</title>
<g id="a_node16"><a xlink:href="../../d2/dcc/Mesh_8cpp.html" target="_top" xlink:title="engine/Mesh/Mesh.cpp">
<polygon fill="none" stroke="black" points="699.5,-62 699.5,-81 817.5,-81 817.5,-62 699.5,-62"/>
<text text-anchor="middle" x="758.5" y="-69" font-family="Helvetica,sans-Serif" font-size="10.00">engine/Mesh/Mesh.cpp</text>
</a>
</g>
</g>
<!-- Node13&#45;&gt;Node16 -->
<g id="edge16" class="edge"><title>Node13&#45;&gt;Node16</title>
<path fill="none" stroke="midnightblue" d="M555.058,-121.114C603.387,-109.565 678.73,-91.5615 722.891,-81.0091"/>
<polygon fill="midnightblue" stroke="midnightblue" points="554.088,-117.747 545.176,-123.475 555.715,-124.555 554.088,-117.747"/>
</g>
<!-- Node17 -->
<g id="node17" class="node"><title>Node17</title>
<g id="a_node17"><a xlink:href="../../d3/d28/Renderer_8cpp.html" target="_top" xlink:title="engine/Renderer/Renderer.cpp">
<polygon fill="none" stroke="black" points="149,-62 149,-81 298,-81 298,-62 149,-62"/>
<text text-anchor="middle" x="223.5" y="-69" font-family="Helvetica,sans-Serif" font-size="10.00">engine/Renderer/Renderer.cpp</text>
</a>
</g>
</g>
<!-- Node13&#45;&gt;Node17 -->
<g id="edge17" class="edge"><title>Node13&#45;&gt;Node17</title>
<path fill="none" stroke="midnightblue" d="M458.56,-121.402C403.113,-109.867 315.548,-91.6498 264.401,-81.0091"/>
<polygon fill="midnightblue" stroke="midnightblue" points="458.02,-124.865 468.523,-123.475 459.446,-118.012 458.02,-124.865"/>
</g>
<!-- Node18 -->
<g id="node18" class="node"><title>Node18</title>
<g id="a_node18"><a xlink:href="../../de/d34/ShaderProgram_8cpp.html" target="_top" xlink:title="engine/ShaderProgram\l/ShaderProgram.cpp">
<polygon fill="none" stroke="black" points="971.5,-56.5 971.5,-86.5 1087.5,-86.5 1087.5,-56.5 971.5,-56.5"/>
<text text-anchor="start" x="979.5" y="-74.5" font-family="Helvetica,sans-Serif" font-size="10.00">engine/ShaderProgram</text>
<text text-anchor="middle" x="1029.5" y="-63.5" font-family="Helvetica,sans-Serif" font-size="10.00">/ShaderProgram.cpp</text>
</a>
</g>
</g>
<!-- Node13&#45;&gt;Node18 -->
<g id="edge19" class="edge"><title>Node13&#45;&gt;Node18</title>
<path fill="none" stroke="midnightblue" d="M575.868,-127.315C663.377,-120.681 822.006,-107.08 956.5,-87 961.356,-86.275 966.379,-85.4457 971.412,-84.5591"/>
<polygon fill="midnightblue" stroke="midnightblue" points="575.524,-123.831 565.814,-128.07 576.048,-130.811 575.524,-123.831"/>
</g>
<!-- Node13&#45;&gt;Node19 -->
<g id="edge20" class="edge"><title>Node13&#45;&gt;Node19</title>
<path fill="none" stroke="midnightblue" d="M575.546,-124.158C639.84,-116.163 740.201,-102.726 826.5,-87 835.941,-85.2796 846.093,-83.1505 855.502,-81.0587"/>
<polygon fill="midnightblue" stroke="midnightblue" points="575.04,-120.694 565.545,-125.394 575.899,-127.641 575.04,-120.694"/>
</g>
<!-- Node20 -->
<g id="node20" class="node"><title>Node20</title>
<g id="a_node20"><a xlink:href="../../df/d50/mainwindow_8hpp.html" target="_top" xlink:title="window/mainwindow.hpp">
<polygon fill="none" stroke="black" points="316,-62 316,-81 441,-81 441,-62 316,-62"/>
<text text-anchor="middle" x="378.5" y="-69" font-family="Helvetica,sans-Serif" font-size="10.00">window/mainwindow.hpp</text>
</a>
</g>
</g>
<!-- Node13&#45;&gt;Node20 -->
<g id="edge21" class="edge"><title>Node13&#45;&gt;Node20</title>
<path fill="none" stroke="midnightblue" d="M481.598,-119.327C456.167,-107.776 419.301,-91.0316 397.234,-81.0091"/>
<polygon fill="midnightblue" stroke="midnightblue" points="480.179,-122.526 490.731,-123.475 483.073,-116.153 480.179,-122.526"/>
</g>
<!-- Node21 -->
<g id="node21" class="node"><title>Node21</title>
<g id="a_node21"><a xlink:href="../../df/d0a/main_8cpp.html" target="_top" xlink:title="TODO. ">
<polygon fill="none" stroke="black" points="296.5,-0.5 296.5,-19.5 352.5,-19.5 352.5,-0.5 296.5,-0.5"/>
<text text-anchor="middle" x="324.5" y="-7.5" font-family="Helvetica,sans-Serif" font-size="10.00">main.cpp</text>
</a>
</g>
</g>
<!-- Node20&#45;&gt;Node21 -->
<g id="edge22" class="edge"><title>Node20&#45;&gt;Node21</title>
<path fill="none" stroke="midnightblue" d="M363.977,-54.4975C353.756,-43.2356 340.477,-28.6044 332.223,-19.5091"/>
<polygon fill="midnightblue" stroke="midnightblue" points="361.451,-56.9222 370.763,-61.9751 366.634,-52.2178 361.451,-56.9222"/>
</g>
<!-- Node22 -->
<g id="node22" class="node"><title>Node22</title>
<g id="a_node22"><a xlink:href="../../d8/dd9/mainwindow_8cpp.html" target="_top" xlink:title="window/mainwindow.cpp">
<polygon fill="none" stroke="black" points="370,-0.5 370,-19.5 495,-19.5 495,-0.5 370,-0.5"/>
<text text-anchor="middle" x="432.5" y="-7.5" font-family="Helvetica,sans-Serif" font-size="10.00">window/mainwindow.cpp</text>
</a>
</g>
</g>
<!-- Node20&#45;&gt;Node22 -->
<g id="edge23" class="edge"><title>Node20&#45;&gt;Node22</title>
<path fill="none" stroke="midnightblue" d="M393.023,-54.4975C403.244,-43.2356 416.523,-28.6044 424.777,-19.5091"/>
<polygon fill="midnightblue" stroke="midnightblue" points="390.366,-52.2178 386.237,-61.9751 395.549,-56.9222 390.366,-52.2178"/>
</g>
<!-- Node27&#45;&gt;Node7 -->
<g id="edge35" class="edge"><title>Node27&#45;&gt;Node7</title>
<path fill="none" stroke="midnightblue" d="M684.012,-377.58C648.767,-367.022 603.931,-353.592 570.609,-343.611"/>
<polygon fill="midnightblue" stroke="midnightblue" points="683.098,-380.959 693.681,-380.476 685.106,-374.254 683.098,-380.959"/>
</g>
<!-- Node27&#45;&gt;Node18 -->
<g id="edge32" class="edge"><title>Node27&#45;&gt;Node18</title>
<path fill="none" stroke="midnightblue" d="M809.024,-388.006C874.458,-380.575 967.17,-366.448 995.5,-344 1026.68,-319.295 1032.5,-302.28 1032.5,-262.5 1032.5,-262.5 1032.5,-262.5 1032.5,-193.5 1032.5,-154.835 1030.95,-109.242 1030.08,-86.6547"/>
<polygon fill="midnightblue" stroke="midnightblue" points="808.324,-384.562 798.77,-389.141 809.095,-391.52 808.324,-384.562"/>
</g>
<!-- Node28 -->
<g id="node28" class="node"><title>Node28</title>
<g id="a_node28"><a xlink:href="../../d4/d0f/Material_8cpp.html" target="_top" xlink:title="engine/Material/Material.cpp">
<polygon fill="none" stroke="black" points="847,-319 847,-338 986,-338 986,-319 847,-319"/>
<text text-anchor="middle" x="916.5" y="-326" font-family="Helvetica,sans-Serif" font-size="10.00">engine/Material/Material.cpp</text>
</a>
</g>
</g>
<!-- Node27&#45;&gt;Node28 -->
<g id="edge31" class="edge"><title>Node27&#45;&gt;Node28</title>
<path fill="none" stroke="midnightblue" d="M788.47,-376.784C822.595,-364.181 866.927,-347.808 893.466,-338.007"/>
<polygon fill="midnightblue" stroke="midnightblue" points="786.857,-373.648 778.689,-380.396 789.283,-380.215 786.857,-373.648"/>
</g>
<!-- Node29 -->
<g id="node29" class="node"><title>Node29</title>
<g id="a_node29"><a xlink:href="../../dd/d4f/ShaderProgramMapping_8hpp.html" target="_top" xlink:title="engine/ShaderProgramLibrary\l/internal/ShaderProgramMapping.hpp">
<polygon fill="none" stroke="black" points="652,-313.5 652,-343.5 829,-343.5 829,-313.5 652,-313.5"/>
<text text-anchor="start" x="660" y="-331.5" font-family="Helvetica,sans-Serif" font-size="10.00">engine/ShaderProgramLibrary</text>
<text text-anchor="middle" x="740.5" y="-320.5" font-family="Helvetica,sans-Serif" font-size="10.00">/internal/ShaderProgramMapping.hpp</text>
</a>
</g>
</g>
<!-- Node27&#45;&gt;Node29 -->
<g id="edge33" class="edge"><title>Node27&#45;&gt;Node29</title>
<path fill="none" stroke="midnightblue" d="M740.5,-370.108C740.5,-361.154 740.5,-351.323 740.5,-343.577"/>
<polygon fill="midnightblue" stroke="midnightblue" points="737,-370.396 740.5,-380.396 744,-370.396 737,-370.396"/>
</g>
<!-- Node29&#45;&gt;Node6 -->
<g id="edge34" class="edge"><title>Node29&#45;&gt;Node6</title>
<path fill="none" stroke="midnightblue" d="M719.355,-306.024C709.819,-296.34 698.825,-285.174 690.36,-276.577"/>
<polygon fill="midnightblue" stroke="midnightblue" points="717.103,-308.726 726.613,-313.396 722.091,-303.815 717.103,-308.726"/>
</g>
</g>
</svg>
        <g id="navigator" transform="translate(0 0)" fill="#404254">
                <rect fill="#f2f5e9" fill-opacity="0.5" stroke="#606060" stroke-width=".5" x="0" y="0" width="60" height="60"/>
                <use id="zoomplus" xlink:href="#zoomPlus" x="17" y="9" onmousedown="handleZoom(evt,'in')"/>
                <use id="zoomminus" xlink:href="#zoomMin" x="42" y="9" onmousedown="handleZoom(evt,'out')"/>
                <use id="reset" xlink:href="#resetDef" x="30" y="36" onmousedown="handleReset()"/>
                <g id="arrowUp" xlink:href="#dirArrow" transform="translate(30 24)" onmousedown="handlePan(0,-1)">
                  <use xlink:href="#rim" fill="#404040">
                        <set attributeName="fill" to="#808080" begin="arrowUp.mouseover" end="arrowUp.mouseout"/>
                  </use>
                  <path fill="none" stroke="white" stroke-width="1.5" d="M0,-3.0v7 M-2.5,-0.5L0,-3.0L2.5,-0.5"/>
                </g>
                <g id="arrowRight" xlink:href="#dirArrow" transform="rotate(90) translate(36 -43)" onmousedown="handlePan(1,0)">
                  <use xlink:href="#rim" fill="#404040">
                        <set attributeName="fill" to="#808080" begin="arrowRight.mouseover" end="arrowRight.mouseout"/>
                  </use>
                  <path fill="none" stroke="white" stroke-width="1.5" d="M0,-3.0v7 M-2.5,-0.5L0,-3.0L2.5,-0.5"/>
                </g>
                <g id="arrowDown" xlink:href="#dirArrow" transform="rotate(180) translate(-30 -48)" onmousedown="handlePan(0,1)">
                  <use xlink:href="#rim" fill="#404040">
                        <set attributeName="fill" to="#808080" begin="arrowDown.mouseover" end="arrowDown.mouseout"/>
                  </use>
                  <path fill="none" stroke="white" stroke-width="1.5" d="M0,-3.0v7 M-2.5,-0.5L0,-3.0L2.5,-0.5"/>
                </g>
                <g id="arrowLeft" xlink:href="#dirArrow" transform="rotate(270) translate(-36 17)" onmousedown="handlePan(-1,0)">
                  <use xlink:href="#rim" fill="#404040">
                        <set attributeName="fill" to="#808080" begin="arrowLeft.mouseover" end="arrowLeft.mouseout"/>
                  </use>
                  <path fill="none" stroke="white" stroke-width="1.5" d="M0,-3.0v7 M-2.5,-0.5L0,-3.0L2.5,-0.5"/>
                </g>
        </g>
        <svg viewBox="0 0 15 15" width="100%" height="30px" preserveAspectRatio="xMaxYMin meet">
         <g id="arrow_out" transform="scale(0.3 0.3)">
          <a xlink:href="Shader_8hpp__dep__incl_org.svg" target="_base">
           <rect id="button" ry="5" rx="5" y="6" x="6" height="38" width="38"
                fill="#f2f5e9" fill-opacity="0.5" stroke="#606060" stroke-width="1.0"/>
           <path id="arrow"
             d="M 11.500037,31.436501 C 11.940474,20.09759 22.043105,11.32322 32.158766,21.979434 L 37.068811,17.246167 C 37.068811,17.246167 37.088388,32 37.088388,32 L 22.160133,31.978069 C 22.160133,31.978069 26.997745,27.140456 26.997745,27.140456 C 18.528582,18.264221 13.291696,25.230495 11.500037,31.436501 z"
             style="fill:#404040;"/>
          </a>
         </g>
        </svg>
</svg>
