<?xml version="1.0" encoding="UTF-8" standalone="no"?>
<!DOCTYPE svg PUBLIC "-//W3C//DTD SVG 1.1//EN"
 "http://www.w3.org/Graphics/SVG/1.1/DTD/svg11.dtd">
<!-- Generated by graphviz version 2.38.0 (20140413.2041)
 -->
<!-- Title: WorldParticles::Engine::ShaderLibrary Pages: 1 -->
<svg width="244pt" height="613pt"
 viewBox="0.00 0.00 243.50 613.00" xmlns="http://www.w3.org/2000/svg" xmlns:xlink="http://www.w3.org/1999/xlink">
<g id="graph0" class="graph" transform="scale(1 1) rotate(0) translate(4 609)">
<title>WorldParticles::Engine::ShaderLibrary</title>
<!-- Node1 -->
<g id="node1" class="node"><title>Node1</title>
<polygon fill="#bfbfbf" stroke="black" points="42.5,-0.5 42.5,-123.5 158.5,-123.5 158.5,-0.5 42.5,-0.5"/>
<text text-anchor="start" x="50.5" y="-111.5" font-family="Helvetica,sans-Serif" font-size="10.00">WorldParticles::Engine</text>
<text text-anchor="middle" x="100.5" y="-100.5" font-family="Helvetica,sans-Serif" font-size="10.00">::ShaderLibrary</text>
<polyline fill="none" stroke="black" points="42.5,-93.5 158.5,-93.5 "/>
<text text-anchor="middle" x="100.5" y="-81.5" font-family="Helvetica,sans-Serif" font-size="10.00"> </text>
<polyline fill="none" stroke="black" points="42.5,-74.5 158.5,-74.5 "/>
<text text-anchor="start" x="50.5" y="-62.5" font-family="Helvetica,sans-Serif" font-size="10.00">+ ShaderLibrary()</text>
<text text-anchor="start" x="50.5" y="-51.5" font-family="Helvetica,sans-Serif" font-size="10.00">+ ShaderLibrary()</text>
<text text-anchor="start" x="50.5" y="-40.5" font-family="Helvetica,sans-Serif" font-size="10.00">+ ShaderLibrary()</text>
<text text-anchor="start" x="50.5" y="-29.5" font-family="Helvetica,sans-Serif" font-size="10.00">+ ~ShaderLibrary()</text>
<text text-anchor="start" x="50.5" y="-18.5" font-family="Helvetica,sans-Serif" font-size="10.00">+ operator=()</text>
<text text-anchor="start" x="50.5" y="-7.5" font-family="Helvetica,sans-Serif" font-size="10.00">+ operator=()</text>
</g>
<!-- Node2 -->
<g id="node2" class="node"><title>Node2</title>
<g id="a_node2"><a xlink:href="../../d6/da4/classWorldParticles_1_1Engine_1_1Library.html" target="_top" xlink:title="{WorldParticles::Engine\l::Library\&lt; std::shared\l_ptr\&lt; Shader \&gt; \&gt;\n||+ Library()\l+ Library()\l+ Library()\l+ ~Library()\l+ operator=()\l+ operator=()\l+ get()\l}">
<polygon fill="none" stroke="black" points="42.5,-161.5 42.5,-306.5 158.5,-306.5 158.5,-161.5 42.5,-161.5"/>
<text text-anchor="start" x="50.5" y="-294.5" font-family="Helvetica,sans-Serif" font-size="10.00">WorldParticles::Engine</text>
<text text-anchor="start" x="50.5" y="-283.5" font-family="Helvetica,sans-Serif" font-size="10.00">::Library&lt; std::shared</text>
<text text-anchor="middle" x="100.5" y="-272.5" font-family="Helvetica,sans-Serif" font-size="10.00">_ptr&lt; Shader &gt; &gt;</text>
<polyline fill="none" stroke="black" points="42.5,-265.5 158.5,-265.5 "/>
<text text-anchor="middle" x="100.5" y="-253.5" font-family="Helvetica,sans-Serif" font-size="10.00"> </text>
<polyline fill="none" stroke="black" points="42.5,-246.5 158.5,-246.5 "/>
<text text-anchor="start" x="50.5" y="-234.5" font-family="Helvetica,sans-Serif" font-size="10.00">+ Library()</text>
<text text-anchor="start" x="50.5" y="-223.5" font-family="Helvetica,sans-Serif" font-size="10.00">+ Library()</text>
<text text-anchor="start" x="50.5" y="-212.5" font-family="Helvetica,sans-Serif" font-size="10.00">+ Library()</text>
<text text-anchor="start" x="50.5" y="-201.5" font-family="Helvetica,sans-Serif" font-size="10.00">+ ~Library()</text>
<text text-anchor="start" x="50.5" y="-190.5" font-family="Helvetica,sans-Serif" font-size="10.00">+ operator=()</text>
<text text-anchor="start" x="50.5" y="-179.5" font-family="Helvetica,sans-Serif" font-size="10.00">+ operator=()</text>
<text text-anchor="start" x="50.5" y="-168.5" font-family="Helvetica,sans-Serif" font-size="10.00">+ get()</text>
</a>
</g>
</g>
<!-- Node2&#45;&gt;Node1 -->
<g id="edge1" class="edge"><title>Node2&#45;&gt;Node1</title>
<path fill="none" stroke="midnightblue" d="M100.5,-151.355C100.5,-142.062 100.5,-132.716 100.5,-123.761"/>
<polygon fill="none" stroke="midnightblue" points="97.0001,-151.397 100.5,-161.397 104,-151.397 97.0001,-151.397"/>
</g>
<!-- Node3 -->
<g id="node3" class="node"><title>Node3</title>
<g id="a_node3"><a xlink:href="../../d7/d12/classstd_1_1vector_3_01std_1_1shared__ptr_3_01Shader_01_4_01_4.html" target="_top" xlink:title="{vector\&lt; std::shared\l_ptr\&lt; Shader \&gt; \&gt;\n||}">
<polygon fill="none" stroke="black" points="0,-398.5 0,-466.5 101,-466.5 101,-398.5 0,-398.5"/>
<text text-anchor="start" x="8" y="-454.5" font-family="Helvetica,sans-Serif" font-size="10.00">vector&lt; std::shared</text>
<text text-anchor="middle" x="50.5" y="-443.5" font-family="Helvetica,sans-Serif" font-size="10.00">_ptr&lt; Shader &gt; &gt;</text>
<polyline fill="none" stroke="black" points="0,-436.5 101,-436.5 "/>
<text text-anchor="middle" x="50.5" y="-424.5" font-family="Helvetica,sans-Serif" font-size="10.00"> </text>
<polyline fill="none" stroke="black" points="0,-417.5 101,-417.5 "/>
<text text-anchor="middle" x="50.5" y="-405.5" font-family="Helvetica,sans-Serif" font-size="10.00"> </text>
</a>
</g>
</g>
<!-- Node3&#45;&gt;Node2 -->
<g id="edge2" class="edge"><title>Node3&#45;&gt;Node2</title>
<path fill="none" stroke="#404040" d="M58.8755,-398.395C64.1989,-377.371 71.2421,-349.585 77.5,-325 78.0433,-322.866 78.594,-320.703 79.1499,-318.521"/>
<polygon fill="none" stroke="#404040" points="79.194,-318.348 76.8002,-311.545 82.1585,-306.72 84.5523,-313.522 79.194,-318.348"/>
<text text-anchor="middle" x="103.5" y="-333.5" font-family="Helvetica,sans-Serif" font-size="10.00"> #resources</text>
</g>
<!-- Node4 -->
<g id="node4" class="node"><title>Node4</title>
<g id="a_node4"><a xlink:href="../../d6/da4/classWorldParticles_1_1Engine_1_1Library.html" target="_top" xlink:title="{WorldParticles::Engine\l::Library\&lt; T \&gt;\n||+ Library()\l+ Library()\l+ Library()\l+ ~Library()\l+ operator=()\l+ operator=()\l+ get()\l}">
<polygon fill="none" stroke="black" points="119.5,-365.5 119.5,-499.5 235.5,-499.5 235.5,-365.5 119.5,-365.5"/>
<text text-anchor="start" x="127.5" y="-487.5" font-family="Helvetica,sans-Serif" font-size="10.00">WorldParticles::Engine</text>
<text text-anchor="middle" x="177.5" y="-476.5" font-family="Helvetica,sans-Serif" font-size="10.00">::Library&lt; T &gt;</text>
<polyline fill="none" stroke="black" points="119.5,-469.5 235.5,-469.5 "/>
<text text-anchor="middle" x="177.5" y="-457.5" font-family="Helvetica,sans-Serif" font-size="10.00"> </text>
<polyline fill="none" stroke="black" points="119.5,-450.5 235.5,-450.5 "/>
<text text-anchor="start" x="127.5" y="-438.5" font-family="Helvetica,sans-Serif" font-size="10.00">+ Library()</text>
<text text-anchor="start" x="127.5" y="-427.5" font-family="Helvetica,sans-Serif" font-size="10.00">+ Library()</text>
<text text-anchor="start" x="127.5" y="-416.5" font-family="Helvetica,sans-Serif" font-size="10.00">+ Library()</text>
<text text-anchor="start" x="127.5" y="-405.5" font-family="Helvetica,sans-Serif" font-size="10.00">+ ~Library()</text>
<text text-anchor="start" x="127.5" y="-394.5" font-family="Helvetica,sans-Serif" font-size="10.00">+ operator=()</text>
<text text-anchor="start" x="127.5" y="-383.5" font-family="Helvetica,sans-Serif" font-size="10.00">+ operator=()</text>
<text text-anchor="start" x="127.5" y="-372.5" font-family="Helvetica,sans-Serif" font-size="10.00">+ get()</text>
</a>
</g>
</g>
<!-- Node4&#45;&gt;Node2 -->
<g id="edge3" class="edge"><title>Node4&#45;&gt;Node2</title>
<path fill="none" stroke="orange" d="M147.857,-355.852C141.528,-339.701 134.862,-322.689 128.593,-306.692"/>
<polygon fill="orange" stroke="orange" points="144.631,-357.214 151.539,-365.248 151.149,-354.66 144.631,-357.214"/>
<text text-anchor="start" x="143.5" y="-339" font-family="Helvetica,sans-Serif" font-size="10.00"> &lt; std::shared_ptr&lt;</text>
<text text-anchor="middle" x="185.5" y="-328" font-family="Helvetica,sans-Serif" font-size="10.00"> Shader &gt; &gt;</text>
</g>
<!-- Node5 -->
<g id="node5" class="node"><title>Node5</title>
<polygon fill="none" stroke="#bfbfbf" points="143.5,-547.5 143.5,-604.5 211.5,-604.5 211.5,-547.5 143.5,-547.5"/>
<text text-anchor="middle" x="177.5" y="-592.5" font-family="Helvetica,sans-Serif" font-size="10.00">vector&lt; T &gt;</text>
<polyline fill="none" stroke="#bfbfbf" points="143.5,-585.5 211.5,-585.5 "/>
<text text-anchor="middle" x="177.5" y="-573.5" font-family="Helvetica,sans-Serif" font-size="10.00"> </text>
<polyline fill="none" stroke="#bfbfbf" points="143.5,-566.5 211.5,-566.5 "/>
<text text-anchor="middle" x="177.5" y="-554.5" font-family="Helvetica,sans-Serif" font-size="10.00"> </text>
</g>
<!-- Node5&#45;&gt;Node4 -->
<g id="edge4" class="edge"><title>Node5&#45;&gt;Node4</title>
<path fill="none" stroke="#404040" d="M177.5,-547.381C177.5,-537.02 177.5,-524.663 177.5,-511.97"/>
<polygon fill="none" stroke="#404040" points="177.5,-511.753 173.5,-505.753 177.5,-499.753 181.5,-505.753 177.5,-511.753"/>
<text text-anchor="middle" x="203.5" y="-521" font-family="Helvetica,sans-Serif" font-size="10.00"> #resources</text>
</g>
</g>
</svg>
