<?xml version="1.0" encoding="UTF-8" standalone="no"?>
<!DOCTYPE svg PUBLIC "-//W3C//DTD SVG 1.1//EN"
 "http://www.w3.org/Graphics/SVG/1.1/DTD/svg11.dtd">
<!-- Generated by graphviz version 2.38.0 (20140413.2041)
 -->
<!-- Title: WorldParticles::Engine::GameEngine Pages: 1 -->
<svg width="244pt" height="347pt"
 viewBox="0.00 0.00 244.00 347.00" xmlns="http://www.w3.org/2000/svg" xmlns:xlink="http://www.w3.org/1999/xlink">
<g id="graph0" class="graph" transform="scale(1 1) rotate(0) translate(4 343)">
<title>WorldParticles::Engine::GameEngine</title>
<!-- Node1 -->
<g id="node1" class="node"><title>Node1</title>
<polygon fill="#bfbfbf" stroke="black" points="56,-0.5 56,-156.5 172,-156.5 172,-0.5 56,-0.5"/>
<text text-anchor="start" x="64" y="-144.5" font-family="Helvetica,sans-Serif" font-size="10.00">WorldParticles::Engine</text>
<text text-anchor="middle" x="114" y="-133.5" font-family="Helvetica,sans-Serif" font-size="10.00">::GameEngine</text>
<polyline fill="none" stroke="black" points="56,-126.5 172,-126.5 "/>
<text text-anchor="middle" x="114" y="-114.5" font-family="Helvetica,sans-Serif" font-size="10.00"> </text>
<polyline fill="none" stroke="black" points="56,-107.5 172,-107.5 "/>
<text text-anchor="start" x="64" y="-95.5" font-family="Helvetica,sans-Serif" font-size="10.00">+ GameEngine()</text>
<text text-anchor="start" x="64" y="-84.5" font-family="Helvetica,sans-Serif" font-size="10.00">+ GameEngine()</text>
<text text-anchor="start" x="64" y="-73.5" font-family="Helvetica,sans-Serif" font-size="10.00">+ GameEngine()</text>
<text text-anchor="start" x="64" y="-62.5" font-family="Helvetica,sans-Serif" font-size="10.00">+ ~GameEngine()</text>
<text text-anchor="start" x="64" y="-51.5" font-family="Helvetica,sans-Serif" font-size="10.00">+ operator=()</text>
<text text-anchor="start" x="64" y="-40.5" font-family="Helvetica,sans-Serif" font-size="10.00">+ operator=()</text>
<text text-anchor="start" x="64" y="-29.5" font-family="Helvetica,sans-Serif" font-size="10.00">+ update()</text>
<text text-anchor="start" x="64" y="-18.5" font-family="Helvetica,sans-Serif" font-size="10.00">+ render()</text>
<text text-anchor="start" x="64" y="-7.5" font-family="Helvetica,sans-Serif" font-size="10.00">+ load()</text>
</g>
<!-- Node2 -->
<g id="node2" class="node"><title>Node2</title>
<polygon fill="none" stroke="#bfbfbf" points="0,-237.5 0,-305.5 102,-305.5 102,-237.5 0,-237.5"/>
<text text-anchor="start" x="8" y="-293.5" font-family="Helvetica,sans-Serif" font-size="10.00">list&lt; WorldParticles</text>
<text text-anchor="middle" x="51" y="-282.5" font-family="Helvetica,sans-Serif" font-size="10.00">::Engine::Scene * &gt;</text>
<polyline fill="none" stroke="#bfbfbf" points="0,-275.5 102,-275.5 "/>
<text text-anchor="middle" x="51" y="-263.5" font-family="Helvetica,sans-Serif" font-size="10.00"> </text>
<polyline fill="none" stroke="#bfbfbf" points="0,-256.5 102,-256.5 "/>
<text text-anchor="middle" x="51" y="-244.5" font-family="Helvetica,sans-Serif" font-size="10.00"> </text>
</g>
<!-- Node2&#45;&gt;Node1 -->
<g id="edge1" class="edge"><title>Node2&#45;&gt;Node1</title>
<path fill="none" stroke="#404040" d="M61.9738,-237.23C68.304,-218.039 76.5931,-192.908 84.6886,-168.365"/>
<polygon fill="none" stroke="#404040" points="84.7527,-168.17 82.8335,-161.219 88.5117,-156.774 90.4309,-163.725 84.7527,-168.17"/>
<text text-anchor="middle" x="103" y="-178" font-family="Helvetica,sans-Serif" font-size="10.00"> #scenes</text>
</g>
<!-- Node3 -->
<g id="node3" class="node"><title>Node3</title>
<g id="a_node3"><a xlink:href="../../d6/d4a/classWorldParticles_1_1Engine_1_1AssimpImporter.html" target="_top" xlink:title="This class is used to import a scene with the assimp library. ">
<polygon fill="none" stroke="black" points="120,-204.5 120,-338.5 236,-338.5 236,-204.5 120,-204.5"/>
<text text-anchor="start" x="128" y="-326.5" font-family="Helvetica,sans-Serif" font-size="10.00">WorldParticles::Engine</text>
<text text-anchor="middle" x="178" y="-315.5" font-family="Helvetica,sans-Serif" font-size="10.00">::AssimpImporter</text>
<polyline fill="none" stroke="black" points="120,-308.5 236,-308.5 "/>
<text text-anchor="middle" x="178" y="-296.5" font-family="Helvetica,sans-Serif" font-size="10.00"> </text>
<polyline fill="none" stroke="black" points="120,-289.5 236,-289.5 "/>
<text text-anchor="start" x="128" y="-277.5" font-family="Helvetica,sans-Serif" font-size="10.00">+ AssimpImporter()</text>
<text text-anchor="start" x="128" y="-266.5" font-family="Helvetica,sans-Serif" font-size="10.00">+ AssimpImporter()</text>
<text text-anchor="start" x="128" y="-255.5" font-family="Helvetica,sans-Serif" font-size="10.00">+ AssimpImporter()</text>
<text text-anchor="start" x="128" y="-244.5" font-family="Helvetica,sans-Serif" font-size="10.00">+ ~AssimpImporter()</text>
<text text-anchor="start" x="128" y="-233.5" font-family="Helvetica,sans-Serif" font-size="10.00">+ operator=()</text>
<text text-anchor="start" x="128" y="-222.5" font-family="Helvetica,sans-Serif" font-size="10.00">+ operator=()</text>
<text text-anchor="start" x="128" y="-211.5" font-family="Helvetica,sans-Serif" font-size="10.00">+ import()</text>
</a>
</g>
</g>
<!-- Node3&#45;&gt;Node1 -->
<g id="edge2" class="edge"><title>Node3&#45;&gt;Node1</title>
<path fill="none" stroke="#404040" d="M155.796,-204.234C151.911,-192.639 147.812,-180.409 143.762,-168.321"/>
<polygon fill="none" stroke="#404040" points="143.715,-168.18 138.016,-163.762 139.902,-156.802 145.601,-161.22 143.715,-168.18"/>
<text text-anchor="middle" x="170" y="-178" font-family="Helvetica,sans-Serif" font-size="10.00"> #importer</text>
</g>
</g>
</svg>
