<?xml version="1.0" encoding="UTF-8" standalone="no"?>
<!DOCTYPE svg PUBLIC "-//W3C//DTD SVG 1.1//EN"
 "http://www.w3.org/Graphics/SVG/1.1/DTD/svg11.dtd">
<!-- Generated by graphviz version 2.38.0 (20140413.2041)
 -->
<!-- Title: engine/AssimpScene/AssimpScene.cpp Pages: 1 -->
<svg width="148pt" height="151pt"
 viewBox="0.00 0.00 147.50 151.00" xmlns="http://www.w3.org/2000/svg" xmlns:xlink="http://www.w3.org/1999/xlink">
<g id="graph0" class="graph" transform="scale(1 1) rotate(0) translate(4 147)">
<title>engine/AssimpScene/AssimpScene.cpp</title>
<!-- Node1 -->
<g id="node1" class="node"><title>Node1</title>
<polygon fill="#bfbfbf" stroke="black" points="27.5,-112.5 27.5,-142.5 136.5,-142.5 136.5,-112.5 27.5,-112.5"/>
<text text-anchor="start" x="35.5" y="-130.5" font-family="Helvetica,sans-Serif" font-size="10.00">engine/AssimpScene</text>
<text text-anchor="middle" x="82" y="-119.5" font-family="Helvetica,sans-Serif" font-size="10.00">/AssimpScene.cpp</text>
</g>
<!-- Node2 -->
<g id="node2" class="node"><title>Node2</title>
<g id="a_node2"><a xlink:href="../../d0/d06/AssimpScene_8hpp.html" target="_top" xlink:title="AssimpScene.hpp">
<polygon fill="none" stroke="black" points="34,-56.5 34,-75.5 130,-75.5 130,-56.5 34,-56.5"/>
<text text-anchor="middle" x="82" y="-63.5" font-family="Helvetica,sans-Serif" font-size="10.00">AssimpScene.hpp</text>
</a>
</g>
</g>
<!-- Node1&#45;&gt;Node2 -->
<g id="edge1" class="edge"><title>Node1&#45;&gt;Node2</title>
<path fill="none" stroke="midnightblue" d="M82,-112.399C82,-104.466 82,-94.458 82,-85.8583"/>
<polygon fill="midnightblue" stroke="midnightblue" points="85.5001,-85.6577 82,-75.6578 78.5001,-85.6578 85.5001,-85.6577"/>
</g>
<!-- Node3 -->
<g id="node3" class="node"><title>Node3</title>
<polygon fill="none" stroke="#bfbfbf" points="0,-0.5 0,-19.5 86,-19.5 86,-0.5 0,-0.5"/>
<text text-anchor="middle" x="43" y="-7.5" font-family="Helvetica,sans-Serif" font-size="10.00">assimp/scene.h</text>
</g>
<!-- Node2&#45;&gt;Node3 -->
<g id="edge2" class="edge"><title>Node2&#45;&gt;Node3</title>
<path fill="none" stroke="midnightblue" d="M75.5599,-56.083C70.0511,-48.4554 61.9688,-37.2645 55.235,-27.9408"/>
<polygon fill="midnightblue" stroke="midnightblue" points="58.0126,-25.8087 49.3202,-19.7511 52.3378,-29.9071 58.0126,-25.8087"/>
</g>
<!-- Node4 -->
<g id="node4" class="node"><title>Node4</title>
<polygon fill="none" stroke="#bfbfbf" points="104.5,-0.5 104.5,-19.5 139.5,-19.5 139.5,-0.5 104.5,-0.5"/>
<text text-anchor="middle" x="122" y="-7.5" font-family="Helvetica,sans-Serif" font-size="10.00">map</text>
</g>
<!-- Node2&#45;&gt;Node4 -->
<g id="edge3" class="edge"><title>Node2&#45;&gt;Node4</title>
<path fill="none" stroke="midnightblue" d="M88.6052,-56.083C94.2552,-48.4554 102.545,-37.2645 109.451,-27.9408"/>
<polygon fill="midnightblue" stroke="midnightblue" points="112.378,-29.87 115.518,-19.7511 106.753,-25.7034 112.378,-29.87"/>
</g>
</g>
</svg>
