<?xml version="1.0" encoding="UTF-8" standalone="no"?>
<!DOCTYPE svg PUBLIC "-//W3C//DTD SVG 1.1//EN"
 "http://www.w3.org/Graphics/SVG/1.1/DTD/svg11.dtd">
<!-- Generated by graphviz version 2.38.0 (20140413.2041)
 -->
<!-- Title: engine/Animation/Animation.hpp Pages: 1 -->
<!--zoomable 408 -->
<svg id="main" version="1.1" xmlns="http://www.w3.org/2000/svg" xmlns:xlink="http://www.w3.org/1999/xlink" xml:space="preserve" onload="init(evt)">
<style type="text/css"><![CDATA[
.edge:hover path { stroke: red; }
.edge:hover polygon { stroke: red; fill: red; }
]]></style>
<script type="text/javascript"><![CDATA[
var edges = document.getElementsByTagName('g');
if (edges && edges.length) {
  for (var i=0;i<edges.length;i++) {
    if (edges[i].id.substr(0,4)=='edge') {
      edges[i].setAttribute('class','edge');
    }
  }
}
]]></script>
        <defs>
                <circle id="rim" cx="0" cy="0" r="7"/>
                <circle id="rim2" cx="0" cy="0" r="3.5"/>
                <g id="zoomPlus">
                        <use xlink:href="#rim" fill="#404040">
                                <set attributeName="fill" to="#808080" begin="zoomplus.mouseover" end="zoomplus.mouseout"/>
                        </use>
                        <path d="M-4,0h8M0,-4v8" fill="none" stroke="white" stroke-width="1.5" pointer-events="none"/>
                </g>
                <g id="zoomMin">
                        <use xlink:href="#rim" fill="#404040">
                                <set attributeName="fill" to="#808080" begin="zoomminus.mouseover" end="zoomminus.mouseout"/>
                        </use>
                        <path d="M-4,0h8" fill="none" stroke="white" stroke-width="1.5" pointer-events="none"/>
                </g>
                <g id="dirArrow">
                        <path fill="none" stroke="white" stroke-width="1.5" d="M0,-3.0v7 M-2.5,-0.5L0,-3.0L2.5,-0.5"/>
                </g>
               <g id="resetDef">
                       <use xlink:href="#rim2" fill="#404040">
                               <set attributeName="fill" to="#808080" begin="reset.mouseover" end="reset.mouseout"/>
                       </use>
               </g>
        </defs>

<script type="text/javascript">
var viewWidth = 1280;
var viewHeight = 408;
var sectionId = 'dynsection-1';
</script>
<script xlink:href="../../svgpan.js"/>
<svg id="graph" class="graph">
<g id="viewport">
<title>engine/Animation/Animation.hpp</title>
<!-- Node1 -->
<g id="node1" class="node"><title>Node1</title>
<polygon fill="#bfbfbf" stroke="black" points="623.5,-380.5 623.5,-399.5 780.5,-399.5 780.5,-380.5 623.5,-380.5"/>
<text text-anchor="middle" x="702" y="-387.5" font-family="Helvetica,sans-Serif" font-size="10.00">engine/Animation/Animation.hpp</text>
</g>
<!-- Node2 -->
<g id="node2" class="node"><title>Node2</title>
<g id="a_node2"><a xlink:href="../../d3/da9/Animation_8cpp.html" target="_top" xlink:title="engine/Animation/Animation.cpp">
<polygon fill="none" stroke="black" points="516.5,-319 516.5,-338 673.5,-338 673.5,-319 516.5,-319"/>
<text text-anchor="middle" x="595" y="-326" font-family="Helvetica,sans-Serif" font-size="10.00">engine/Animation/Animation.cpp</text>
</a>
</g>
</g>
<!-- Node1&#45;&gt;Node2 -->
<g id="edge1" class="edge"><title>Node1&#45;&gt;Node2</title>
<path fill="none" stroke="midnightblue" d="M677.824,-375.556C657.117,-364.042 627.929,-347.811 610.302,-338.009"/>
<polygon fill="midnightblue" stroke="midnightblue" points="676.229,-378.674 686.67,-380.475 679.631,-372.556 676.229,-378.674"/>
</g>
<!-- Node3 -->
<g id="node3" class="node"><title>Node3</title>
<g id="a_node3"><a xlink:href="../../d1/da3/AnimationLibrary_8hpp.html" target="_top" xlink:title="engine/AnimationLibrary\l/AnimationLibrary.hpp">
<polygon fill="none" stroke="black" points="730.5,-313.5 730.5,-343.5 851.5,-343.5 851.5,-313.5 730.5,-313.5"/>
<text text-anchor="start" x="738.5" y="-331.5" font-family="Helvetica,sans-Serif" font-size="10.00">engine/AnimationLibrary</text>
<text text-anchor="middle" x="791" y="-320.5" font-family="Helvetica,sans-Serif" font-size="10.00">/AnimationLibrary.hpp</text>
</a>
</g>
</g>
<!-- Node1&#45;&gt;Node3 -->
<g id="edge2" class="edge"><title>Node1&#45;&gt;Node3</title>
<path fill="none" stroke="midnightblue" d="M723.332,-374.739C737.477,-365.282 755.953,-352.93 770.024,-343.523"/>
<polygon fill="midnightblue" stroke="midnightblue" points="721.12,-372.008 714.752,-380.475 725.01,-377.827 721.12,-372.008"/>
</g>
<!-- Node4 -->
<g id="node4" class="node"><title>Node4</title>
<g id="a_node4"><a xlink:href="../../d7/d38/AnimationLibrary_8cpp.html" target="_top" xlink:title="engine/AnimationLibrary\l/AnimationLibrary.cpp">
<polygon fill="none" stroke="black" points="641.5,-246.5 641.5,-276.5 762.5,-276.5 762.5,-246.5 641.5,-246.5"/>
<text text-anchor="start" x="649.5" y="-264.5" font-family="Helvetica,sans-Serif" font-size="10.00">engine/AnimationLibrary</text>
<text text-anchor="middle" x="702" y="-253.5" font-family="Helvetica,sans-Serif" font-size="10.00">/AnimationLibrary.cpp</text>
</a>
</g>
</g>
<!-- Node1&#45;&gt;Node4 -->
<g id="edge24" class="edge"><title>Node1&#45;&gt;Node4</title>
<path fill="none" stroke="midnightblue" d="M702,-370.108C702,-344.629 702,-299.811 702,-276.888"/>
<polygon fill="midnightblue" stroke="midnightblue" points="698.5,-370.305 702,-380.305 705.5,-370.305 698.5,-370.305"/>
</g>
<!-- Node3&#45;&gt;Node4 -->
<g id="edge3" class="edge"><title>Node3&#45;&gt;Node4</title>
<path fill="none" stroke="midnightblue" d="M763.548,-307.451C749.857,-297.452 733.629,-285.6 721.274,-276.577"/>
<polygon fill="midnightblue" stroke="midnightblue" points="761.548,-310.324 771.688,-313.396 765.677,-304.672 761.548,-310.324"/>
</g>
<!-- Node5 -->
<g id="node5" class="node"><title>Node5</title>
<g id="a_node5"><a xlink:href="../../db/de8/Scene_8hpp.html" target="_top" xlink:title="engine/Scene/Scene.hpp">
<polygon fill="none" stroke="black" points="780.5,-252 780.5,-271 905.5,-271 905.5,-252 780.5,-252"/>
<text text-anchor="middle" x="843" y="-259" font-family="Helvetica,sans-Serif" font-size="10.00">engine/Scene/Scene.hpp</text>
</a>
</g>
</g>
<!-- Node3&#45;&gt;Node5 -->
<g id="edge4" class="edge"><title>Node3&#45;&gt;Node5</title>
<path fill="none" stroke="midnightblue" d="M808.747,-305.316C818.122,-293.598 829.094,-279.883 836.044,-271.195"/>
<polygon fill="midnightblue" stroke="midnightblue" points="805.797,-303.401 802.283,-313.396 811.263,-307.774 805.797,-303.401"/>
</g>
<!-- Node6 -->
<g id="node6" class="node"><title>Node6</title>
<g id="a_node6"><a xlink:href="../../d4/d7f/AssimpImporter_8cpp.html" target="_top" xlink:title="engine/AssimpImporter\l/AssimpImporter.cpp">
<polygon fill="none" stroke="black" points="382.5,-179.5 382.5,-209.5 499.5,-209.5 499.5,-179.5 382.5,-179.5"/>
<text text-anchor="start" x="390.5" y="-197.5" font-family="Helvetica,sans-Serif" font-size="10.00">engine/AssimpImporter</text>
<text text-anchor="middle" x="441" y="-186.5" font-family="Helvetica,sans-Serif" font-size="10.00">/AssimpImporter.cpp</text>
</a>
</g>
</g>
<!-- Node5&#45;&gt;Node6 -->
<g id="edge5" class="edge"><title>Node5&#45;&gt;Node6</title>
<path fill="none" stroke="midnightblue" d="M792.866,-249.988C785.545,-248.574 778.088,-247.199 771,-246 655.109,-226.388 624.778,-230.27 509,-210 505.909,-209.459 502.744,-208.878 499.552,-208.271"/>
<polygon fill="midnightblue" stroke="midnightblue" points="792.229,-253.429 802.717,-251.928 793.582,-246.561 792.229,-253.429"/>
</g>
<!-- Node7 -->
<g id="node7" class="node"><title>Node7</title>
<g id="a_node7"><a xlink:href="../../d4/d1c/GameEngine_8hpp.html" target="_top" xlink:title="engine/GameEngine/GameEngine.hpp">
<polygon fill="none" stroke="black" points="518,-185 518,-204 700,-204 700,-185 518,-185"/>
<text text-anchor="middle" x="609" y="-192" font-family="Helvetica,sans-Serif" font-size="10.00">engine/GameEngine/GameEngine.hpp</text>
</a>
</g>
</g>
<!-- Node5&#45;&gt;Node7 -->
<g id="edge6" class="edge"><title>Node5&#45;&gt;Node7</title>
<path fill="none" stroke="midnightblue" d="M802.22,-249.172C755.947,-236.319 681.514,-215.643 639.829,-204.064"/>
<polygon fill="midnightblue" stroke="midnightblue" points="801.355,-252.564 811.927,-251.869 803.228,-245.82 801.355,-252.564"/>
</g>
<!-- Node20 -->
<g id="node20" class="node"><title>Node20</title>
<g id="a_node20"><a xlink:href="../../d2/d41/Light_8cpp.html" target="_top" xlink:title="engine/Light/Light.cpp">
<polygon fill="none" stroke="black" points="718,-185 718,-204 830,-204 830,-185 718,-185"/>
<text text-anchor="middle" x="774" y="-192" font-family="Helvetica,sans-Serif" font-size="10.00">engine/Light/Light.cpp</text>
</a>
</g>
</g>
<!-- Node5&#45;&gt;Node20 -->
<g id="edge20" class="edge"><title>Node5&#45;&gt;Node20</title>
<path fill="none" stroke="midnightblue" d="M826.394,-244.856C812.829,-232.078 794.16,-214.492 783.158,-204.127"/>
<polygon fill="midnightblue" stroke="midnightblue" points="824.015,-247.424 833.694,-251.734 828.815,-242.329 824.015,-247.424"/>
</g>
<!-- Node21 -->
<g id="node21" class="node"><title>Node21</title>
<g id="a_node21"><a xlink:href="../../de/d4f/Object_8cpp.html" target="_top" xlink:title="engine/Object/Object.cpp">
<polygon fill="none" stroke="black" points="848.5,-185 848.5,-204 975.5,-204 975.5,-185 848.5,-185"/>
<text text-anchor="middle" x="912" y="-192" font-family="Helvetica,sans-Serif" font-size="10.00">engine/Object/Object.cpp</text>
</a>
</g>
</g>
<!-- Node5&#45;&gt;Node21 -->
<g id="edge21" class="edge"><title>Node5&#45;&gt;Node21</title>
<path fill="none" stroke="midnightblue" d="M859.606,-244.856C873.171,-232.078 891.84,-214.492 902.842,-204.127"/>
<polygon fill="midnightblue" stroke="midnightblue" points="857.185,-242.329 852.306,-251.734 861.985,-247.424 857.185,-242.329"/>
</g>
<!-- Node22 -->
<g id="node22" class="node"><title>Node22</title>
<g id="a_node22"><a xlink:href="../../da/daf/PerspectiveCamera_8cpp.html" target="_top" xlink:title="engine/PerspectiveCamera\l/PerspectiveCamera.cpp">
<polygon fill="none" stroke="black" points="994,-179.5 994,-209.5 1128,-209.5 1128,-179.5 994,-179.5"/>
<text text-anchor="start" x="1002" y="-197.5" font-family="Helvetica,sans-Serif" font-size="10.00">engine/PerspectiveCamera</text>
<text text-anchor="middle" x="1061" y="-186.5" font-family="Helvetica,sans-Serif" font-size="10.00">/PerspectiveCamera.cpp</text>
</a>
</g>
</g>
<!-- Node5&#45;&gt;Node22 -->
<g id="edge22" class="edge"><title>Node5&#45;&gt;Node22</title>
<path fill="none" stroke="midnightblue" d="M881.849,-248.917C918.813,-237.895 974.492,-221.294 1013.95,-209.528"/>
<polygon fill="midnightblue" stroke="midnightblue" points="880.532,-245.657 871.949,-251.869 882.532,-252.365 880.532,-245.657"/>
</g>
<!-- Node23 -->
<g id="node23" class="node"><title>Node23</title>
<g id="a_node23"><a xlink:href="../../de/d15/Scene_8cpp.html" target="_top" xlink:title="engine/Scene/Scene.cpp">
<polygon fill="none" stroke="black" points="1146.5,-185 1146.5,-204 1271.5,-204 1271.5,-185 1146.5,-185"/>
<text text-anchor="middle" x="1209" y="-192" font-family="Helvetica,sans-Serif" font-size="10.00">engine/Scene/Scene.cpp</text>
</a>
</g>
</g>
<!-- Node5&#45;&gt;Node23 -->
<g id="edge23" class="edge"><title>Node5&#45;&gt;Node23</title>
<path fill="none" stroke="midnightblue" d="M905.395,-250.314C964.972,-240.463 1057.23,-224.88 1137,-210 1146.9,-208.153 1157.55,-206.065 1167.54,-204.061"/>
<polygon fill="midnightblue" stroke="midnightblue" points="904.689,-246.884 895.392,-251.965 905.829,-253.79 904.689,-246.884"/>
</g>
<!-- Node8 -->
<g id="node8" class="node"><title>Node8</title>
<g id="a_node8"><a xlink:href="../../dd/d98/GameEngine_8cpp.html" target="_top" xlink:title="engine/GameEngine/GameEngine.cpp">
<polygon fill="none" stroke="black" points="353,-123.5 353,-142.5 535,-142.5 535,-123.5 353,-123.5"/>
<text text-anchor="middle" x="444" y="-130.5" font-family="Helvetica,sans-Serif" font-size="10.00">engine/GameEngine/GameEngine.cpp</text>
</a>
</g>
</g>
<!-- Node7&#45;&gt;Node8 -->
<g id="edge7" class="edge"><title>Node7&#45;&gt;Node8</title>
<path fill="none" stroke="midnightblue" d="M575.952,-181.583C543.879,-170.017 496.002,-152.752 467.597,-142.509"/>
<polygon fill="midnightblue" stroke="midnightblue" points="574.765,-184.875 585.36,-184.975 577.14,-178.29 574.765,-184.875"/>
</g>
<!-- Node9 -->
<g id="node9" class="node"><title>Node9</title>
<g id="a_node9"><a xlink:href="../../d0/d5e/glwindow_8hpp.html" target="_top" xlink:title="window/glwindow.hpp">
<polygon fill="none" stroke="black" points="553,-123.5 553,-142.5 665,-142.5 665,-123.5 553,-123.5"/>
<text text-anchor="middle" x="609" y="-130.5" font-family="Helvetica,sans-Serif" font-size="10.00">window/glwindow.hpp</text>
</a>
</g>
</g>
<!-- Node7&#45;&gt;Node9 -->
<g id="edge8" class="edge"><title>Node7&#45;&gt;Node9</title>
<path fill="none" stroke="midnightblue" d="M609,-174.817C609,-163.996 609,-150.898 609,-142.509"/>
<polygon fill="midnightblue" stroke="midnightblue" points="605.5,-174.975 609,-184.975 612.5,-174.975 605.5,-174.975"/>
</g>
<!-- Node16 -->
<g id="node16" class="node"><title>Node16</title>
<g id="a_node16"><a xlink:href="../../d3/d1f/glwindow_8cpp.html" target="_top" xlink:title="window/glwindow.cpp">
<polygon fill="none" stroke="black" points="971,-62 971,-81 1083,-81 1083,-62 971,-62"/>
<text text-anchor="middle" x="1027" y="-69" font-family="Helvetica,sans-Serif" font-size="10.00">window/glwindow.cpp</text>
</a>
</g>
</g>
<!-- Node7&#45;&gt;Node16 -->
<g id="edge19" class="edge"><title>Node7&#45;&gt;Node16</title>
<path fill="none" stroke="midnightblue" d="M648.203,-182.152C731.289,-158.101 923.51,-102.458 997.36,-81.0799"/>
<polygon fill="midnightblue" stroke="midnightblue" points="647.025,-178.849 638.393,-184.992 648.972,-185.573 647.025,-178.849"/>
</g>
<!-- Node10 -->
<g id="node10" class="node"><title>Node10</title>
<g id="a_node10"><a xlink:href="../../d8/d49/ArrayObject_8cpp.html" target="_top" xlink:title="engine/ArrayObject\l/ArrayObject.cpp">
<polygon fill="none" stroke="black" points="0,-56.5 0,-86.5 100,-86.5 100,-56.5 0,-56.5"/>
<text text-anchor="start" x="8" y="-74.5" font-family="Helvetica,sans-Serif" font-size="10.00">engine/ArrayObject</text>
<text text-anchor="middle" x="50" y="-63.5" font-family="Helvetica,sans-Serif" font-size="10.00">/ArrayObject.cpp</text>
</a>
</g>
</g>
<!-- Node9&#45;&gt;Node10 -->
<g id="edge9" class="edge"><title>Node9&#45;&gt;Node10</title>
<path fill="none" stroke="midnightblue" d="M542.455,-122.894C349.405,-102.24 297.189,-117.713 109,-87 106.085,-86.5243 103.102,-85.9792 100.101,-85.3855"/>
<polygon fill="midnightblue" stroke="midnightblue" points="542.333,-126.402 552.653,-124.005 543.091,-119.443 542.333,-126.402"/>
</g>
<!-- Node11 -->
<g id="node11" class="node"><title>Node11</title>
<g id="a_node11"><a xlink:href="../../db/d2b/BufferObject_8cpp.html" target="_top" xlink:title="engine/BufferObject\l/BufferObject.cpp">
<polygon fill="none" stroke="black" points="118.5,-56.5 118.5,-86.5 221.5,-86.5 221.5,-56.5 118.5,-56.5"/>
<text text-anchor="start" x="126.5" y="-74.5" font-family="Helvetica,sans-Serif" font-size="10.00">engine/BufferObject</text>
<text text-anchor="middle" x="170" y="-63.5" font-family="Helvetica,sans-Serif" font-size="10.00">/BufferObject.cpp</text>
</a>
</g>
</g>
<!-- Node9&#45;&gt;Node11 -->
<g id="edge10" class="edge"><title>Node9&#45;&gt;Node11</title>
<path fill="none" stroke="midnightblue" d="M542.773,-122.882C403.331,-105.653 365.683,-110.666 231,-87 227.998,-86.4725 224.923,-85.8869 221.827,-85.2623"/>
<polygon fill="midnightblue" stroke="midnightblue" points="542.634,-126.392 552.991,-124.161 543.503,-119.446 542.634,-126.392"/>
</g>
<!-- Node12 -->
<g id="node12" class="node"><title>Node12</title>
<g id="a_node12"><a xlink:href="../../d2/dcc/Mesh_8cpp.html" target="_top" xlink:title="engine/Mesh/Mesh.cpp">
<polygon fill="none" stroke="black" points="240,-62 240,-81 358,-81 358,-62 240,-62"/>
<text text-anchor="middle" x="299" y="-69" font-family="Helvetica,sans-Serif" font-size="10.00">engine/Mesh/Mesh.cpp</text>
</a>
</g>
</g>
<!-- Node9&#45;&gt;Node12 -->
<g id="edge11" class="edge"><title>Node9&#45;&gt;Node12</title>
<path fill="none" stroke="midnightblue" d="M551.065,-121.668C501.989,-112.81 429.795,-99.5313 367,-87 357.648,-85.1338 347.593,-83.0386 338.158,-81.0334"/>
<polygon fill="midnightblue" stroke="midnightblue" points="550.713,-125.161 561.175,-123.489 551.954,-118.271 550.713,-125.161"/>
</g>
<!-- Node13 -->
<g id="node13" class="node"><title>Node13</title>
<g id="a_node13"><a xlink:href="../../d3/d28/Renderer_8cpp.html" target="_top" xlink:title="engine/Renderer/Renderer.cpp">
<polygon fill="none" stroke="black" points="376.5,-62 376.5,-81 525.5,-81 525.5,-62 376.5,-62"/>
<text text-anchor="middle" x="451" y="-69" font-family="Helvetica,sans-Serif" font-size="10.00">engine/Renderer/Renderer.cpp</text>
</a>
</g>
</g>
<!-- Node9&#45;&gt;Node13 -->
<g id="edge12" class="edge"><title>Node9&#45;&gt;Node13</title>
<path fill="none" stroke="midnightblue" d="M576.956,-119.933C546.247,-108.368 500.679,-91.2083 473.596,-81.0091"/>
<polygon fill="midnightblue" stroke="midnightblue" points="575.771,-123.226 586.362,-123.475 578.238,-116.675 575.771,-123.226"/>
</g>
<!-- Node14 -->
<g id="node14" class="node"><title>Node14</title>
<g id="a_node14"><a xlink:href="../../dd/d84/Shader_8cpp.html" target="_top" xlink:title="engine/Shader/Shader.cpp">
<polygon fill="none" stroke="black" points="543.5,-62 543.5,-81 674.5,-81 674.5,-62 543.5,-62"/>
<text text-anchor="middle" x="609" y="-69" font-family="Helvetica,sans-Serif" font-size="10.00">engine/Shader/Shader.cpp</text>
</a>
</g>
</g>
<!-- Node9&#45;&gt;Node14 -->
<g id="edge13" class="edge"><title>Node9&#45;&gt;Node14</title>
<path fill="none" stroke="midnightblue" d="M609,-113.317C609,-102.496 609,-89.398 609,-81.0091"/>
<polygon fill="midnightblue" stroke="midnightblue" points="605.5,-113.475 609,-123.475 612.5,-113.475 605.5,-113.475"/>
</g>
<!-- Node15 -->
<g id="node15" class="node"><title>Node15</title>
<g id="a_node15"><a xlink:href="../../de/d34/ShaderProgram_8cpp.html" target="_top" xlink:title="engine/ShaderProgram\l/ShaderProgram.cpp">
<polygon fill="none" stroke="black" points="693,-56.5 693,-86.5 809,-86.5 809,-56.5 693,-56.5"/>
<text text-anchor="start" x="701" y="-74.5" font-family="Helvetica,sans-Serif" font-size="10.00">engine/ShaderProgram</text>
<text text-anchor="middle" x="751" y="-63.5" font-family="Helvetica,sans-Serif" font-size="10.00">/ShaderProgram.cpp</text>
</a>
</g>
</g>
<!-- Node9&#45;&gt;Node15 -->
<g id="edge14" class="edge"><title>Node9&#45;&gt;Node15</title>
<path fill="none" stroke="midnightblue" d="M638.617,-119.59C661.642,-109.942 693.585,-96.5575 717.533,-86.523"/>
<polygon fill="midnightblue" stroke="midnightblue" points="637.216,-116.382 629.345,-123.475 639.921,-122.839 637.216,-116.382"/>
</g>
<!-- Node9&#45;&gt;Node16 -->
<g id="edge15" class="edge"><title>Node9&#45;&gt;Node16</title>
<path fill="none" stroke="midnightblue" d="M675.147,-125.323C746.09,-117.747 861.92,-104.182 961,-87 970.71,-85.3162 981.153,-83.1763 990.804,-81.0608"/>
<polygon fill="midnightblue" stroke="midnightblue" points="674.588,-121.862 665.013,-126.397 675.326,-128.823 674.588,-121.862"/>
</g>
<!-- Node17 -->
<g id="node17" class="node"><title>Node17</title>
<g id="a_node17"><a xlink:href="../../df/d50/mainwindow_8hpp.html" target="_top" xlink:title="window/mainwindow.hpp">
<polygon fill="none" stroke="black" points="827.5,-62 827.5,-81 952.5,-81 952.5,-62 827.5,-62"/>
<text text-anchor="middle" x="890" y="-69" font-family="Helvetica,sans-Serif" font-size="10.00">window/mainwindow.hpp</text>
</a>
</g>
</g>
<!-- Node9&#45;&gt;Node17 -->
<g id="edge16" class="edge"><title>Node9&#45;&gt;Node17</title>
<path fill="none" stroke="midnightblue" d="M659.05,-121.402C713.527,-109.867 799.562,-91.6498 849.814,-81.0091"/>
<polygon fill="midnightblue" stroke="midnightblue" points="658.318,-117.979 649.26,-123.475 659.769,-124.828 658.318,-117.979"/>
</g>
<!-- Node18 -->
<g id="node18" class="node"><title>Node18</title>
<g id="a_node18"><a xlink:href="../../df/d0a/main_8cpp.html" target="_top" xlink:title="TODO. ">
<polygon fill="none" stroke="black" points="808,-0.5 808,-19.5 864,-19.5 864,-0.5 808,-0.5"/>
<text text-anchor="middle" x="836" y="-7.5" font-family="Helvetica,sans-Serif" font-size="10.00">main.cpp</text>
</a>
</g>
</g>
<!-- Node17&#45;&gt;Node18 -->
<g id="edge17" class="edge"><title>Node17&#45;&gt;Node18</title>
<path fill="none" stroke="midnightblue" d="M875.477,-54.4975C865.256,-43.2356 851.977,-28.6044 843.723,-19.5091"/>
<polygon fill="midnightblue" stroke="midnightblue" points="872.951,-56.9222 882.263,-61.9751 878.134,-52.2178 872.951,-56.9222"/>
</g>
<!-- Node19 -->
<g id="node19" class="node"><title>Node19</title>
<g id="a_node19"><a xlink:href="../../d8/dd9/mainwindow_8cpp.html" target="_top" xlink:title="window/mainwindow.cpp">
<polygon fill="none" stroke="black" points="881.5,-0.5 881.5,-19.5 1006.5,-19.5 1006.5,-0.5 881.5,-0.5"/>
<text text-anchor="middle" x="944" y="-7.5" font-family="Helvetica,sans-Serif" font-size="10.00">window/mainwindow.cpp</text>
</a>
</g>
</g>
<!-- Node17&#45;&gt;Node19 -->
<g id="edge18" class="edge"><title>Node17&#45;&gt;Node19</title>
<path fill="none" stroke="midnightblue" d="M904.523,-54.4975C914.744,-43.2356 928.023,-28.6044 936.277,-19.5091"/>
<polygon fill="midnightblue" stroke="midnightblue" points="901.866,-52.2178 897.737,-61.9751 907.049,-56.9222 901.866,-52.2178"/>
</g>
</g>
</svg>
        <g id="navigator" transform="translate(0 0)" fill="#404254">
                <rect fill="#f2f5e9" fill-opacity="0.5" stroke="#606060" stroke-width=".5" x="0" y="0" width="60" height="60"/>
                <use id="zoomplus" xlink:href="#zoomPlus" x="17" y="9" onmousedown="handleZoom(evt,'in')"/>
                <use id="zoomminus" xlink:href="#zoomMin" x="42" y="9" onmousedown="handleZoom(evt,'out')"/>
                <use id="reset" xlink:href="#resetDef" x="30" y="36" onmousedown="handleReset()"/>
                <g id="arrowUp" xlink:href="#dirArrow" transform="translate(30 24)" onmousedown="handlePan(0,-1)">
                  <use xlink:href="#rim" fill="#404040">
                        <set attributeName="fill" to="#808080" begin="arrowUp.mouseover" end="arrowUp.mouseout"/>
                  </use>
                  <path fill="none" stroke="white" stroke-width="1.5" d="M0,-3.0v7 M-2.5,-0.5L0,-3.0L2.5,-0.5"/>
                </g>
                <g id="arrowRight" xlink:href="#dirArrow" transform="rotate(90) translate(36 -43)" onmousedown="handlePan(1,0)">
                  <use xlink:href="#rim" fill="#404040">
                        <set attributeName="fill" to="#808080" begin="arrowRight.mouseover" end="arrowRight.mouseout"/>
                  </use>
                  <path fill="none" stroke="white" stroke-width="1.5" d="M0,-3.0v7 M-2.5,-0.5L0,-3.0L2.5,-0.5"/>
                </g>
                <g id="arrowDown" xlink:href="#dirArrow" transform="rotate(180) translate(-30 -48)" onmousedown="handlePan(0,1)">
                  <use xlink:href="#rim" fill="#404040">
                        <set attributeName="fill" to="#808080" begin="arrowDown.mouseover" end="arrowDown.mouseout"/>
                  </use>
                  <path fill="none" stroke="white" stroke-width="1.5" d="M0,-3.0v7 M-2.5,-0.5L0,-3.0L2.5,-0.5"/>
                </g>
                <g id="arrowLeft" xlink:href="#dirArrow" transform="rotate(270) translate(-36 17)" onmousedown="handlePan(-1,0)">
                  <use xlink:href="#rim" fill="#404040">
                        <set attributeName="fill" to="#808080" begin="arrowLeft.mouseover" end="arrowLeft.mouseout"/>
                  </use>
                  <path fill="none" stroke="white" stroke-width="1.5" d="M0,-3.0v7 M-2.5,-0.5L0,-3.0L2.5,-0.5"/>
                </g>
        </g>
        <svg viewBox="0 0 15 15" width="100%" height="30px" preserveAspectRatio="xMaxYMin meet">
         <g id="arrow_out" transform="scale(0.3 0.3)">
          <a xlink:href="Animation_8hpp__dep__incl_org.svg" target="_base">
           <rect id="button" ry="5" rx="5" y="6" x="6" height="38" width="38"
                fill="#f2f5e9" fill-opacity="0.5" stroke="#606060" stroke-width="1.0"/>
           <path id="arrow"
             d="M 11.500037,31.436501 C 11.940474,20.09759 22.043105,11.32322 32.158766,21.979434 L 37.068811,17.246167 C 37.068811,17.246167 37.088388,32 37.088388,32 L 22.160133,31.978069 C 22.160133,31.978069 26.997745,27.140456 26.997745,27.140456 C 18.528582,18.264221 13.291696,25.230495 11.500037,31.436501 z"
             style="fill:#404040;"/>
          </a>
         </g>
        </svg>
</svg>
