<?xml version="1.0" encoding="UTF-8" standalone="no"?>
<!DOCTYPE svg PUBLIC "-//W3C//DTD SVG 1.1//EN"
 "http://www.w3.org/Graphics/SVG/1.1/DTD/svg11.dtd">
<!-- Generated by graphviz version 2.38.0 (20140413.2041)
 -->
<!-- Title: engine/Material/Material.hpp Pages: 1 -->
<svg width="294pt" height="196pt"
 viewBox="0.00 0.00 294.00 196.00" xmlns="http://www.w3.org/2000/svg" xmlns:xlink="http://www.w3.org/1999/xlink">
<g id="graph0" class="graph" transform="scale(1 1) rotate(0) translate(4 192)">
<title>engine/Material/Material.hpp</title>
<!-- Node1 -->
<g id="node1" class="node"><title>Node1</title>
<polygon fill="#bfbfbf" stroke="black" points="23.5,-168.5 23.5,-187.5 162.5,-187.5 162.5,-168.5 23.5,-168.5"/>
<text text-anchor="middle" x="93" y="-175.5" font-family="Helvetica,sans-Serif" font-size="10.00">engine/Material/Material.hpp</text>
</g>
<!-- Node2 -->
<g id="node2" class="node"><title>Node2</title>
<polygon fill="none" stroke="#bfbfbf" points="0,-56.5 0,-75.5 70,-75.5 70,-56.5 0,-56.5"/>
<text text-anchor="middle" x="35" y="-63.5" font-family="Helvetica,sans-Serif" font-size="10.00">glm/glm.hpp</text>
</g>
<!-- Node1&#45;&gt;Node2 -->
<g id="edge1" class="edge"><title>Node1&#45;&gt;Node2</title>
<path fill="none" stroke="midnightblue" d="M88.4488,-168.368C78.9619,-150.376 56.9083,-108.55 44.2941,-84.6267"/>
<polygon fill="midnightblue" stroke="midnightblue" points="47.2902,-82.8047 39.53,-75.5914 41.0982,-86.0696 47.2902,-82.8047"/>
</g>
<!-- Node3 -->
<g id="node3" class="node"><title>Node3</title>
<polygon fill="none" stroke="#bfbfbf" points="88,-56.5 88,-75.5 140,-75.5 140,-56.5 88,-56.5"/>
<text text-anchor="middle" x="114" y="-63.5" font-family="Helvetica,sans-Serif" font-size="10.00">memory</text>
</g>
<!-- Node1&#45;&gt;Node3 -->
<g id="edge2" class="edge"><title>Node1&#45;&gt;Node3</title>
<path fill="none" stroke="midnightblue" d="M94.6478,-168.368C98.0368,-150.617 105.855,-109.666 110.45,-85.5974"/>
<polygon fill="midnightblue" stroke="midnightblue" points="113.922,-86.0704 112.36,-75.5914 107.047,-84.7577 113.922,-86.0704"/>
</g>
<!-- Node4 -->
<g id="node4" class="node"><title>Node4</title>
<g id="a_node4"><a xlink:href="../../dc/ddb/ShaderProgram_8hpp.html" target="_top" xlink:title="ShaderProgram.hpp">
<polygon fill="none" stroke="black" points="121.5,-112.5 121.5,-131.5 224.5,-131.5 224.5,-112.5 121.5,-112.5"/>
<text text-anchor="middle" x="173" y="-119.5" font-family="Helvetica,sans-Serif" font-size="10.00">ShaderProgram.hpp</text>
</a>
</g>
</g>
<!-- Node1&#45;&gt;Node4 -->
<g id="edge3" class="edge"><title>Node1&#45;&gt;Node4</title>
<path fill="none" stroke="midnightblue" d="M105.853,-168.324C118.216,-159.979 137.13,-147.212 151.737,-137.352"/>
<polygon fill="midnightblue" stroke="midnightblue" points="153.848,-140.15 160.179,-131.655 149.932,-134.348 153.848,-140.15"/>
</g>
<!-- Node4&#45;&gt;Node2 -->
<g id="edge4" class="edge"><title>Node4&#45;&gt;Node2</title>
<path fill="none" stroke="midnightblue" d="M151.133,-112.444C128.221,-103.478 92.0247,-89.314 66.1335,-79.1827"/>
<polygon fill="midnightblue" stroke="midnightblue" points="67.3521,-75.9011 56.7642,-75.5164 64.8012,-82.4198 67.3521,-75.9011"/>
</g>
<!-- Node4&#45;&gt;Node3 -->
<g id="edge6" class="edge"><title>Node4&#45;&gt;Node3</title>
<path fill="none" stroke="midnightblue" d="M163.521,-112.324C154.799,-104.341 141.657,-92.3128 131.102,-82.6529"/>
<polygon fill="midnightblue" stroke="midnightblue" points="133.392,-80.0036 123.652,-75.8339 128.666,-85.1674 133.392,-80.0036"/>
</g>
<!-- Node5 -->
<g id="node5" class="node"><title>Node5</title>
<polygon fill="none" stroke="#bfbfbf" points="158,-56.5 158,-75.5 202,-75.5 202,-56.5 158,-56.5"/>
<text text-anchor="middle" x="180" y="-63.5" font-family="Helvetica,sans-Serif" font-size="10.00">vector</text>
</g>
<!-- Node4&#45;&gt;Node5 -->
<g id="edge5" class="edge"><title>Node4&#45;&gt;Node5</title>
<path fill="none" stroke="midnightblue" d="M174.156,-112.083C175.084,-104.927 176.418,-94.6353 177.577,-85.6911"/>
<polygon fill="midnightblue" stroke="midnightblue" points="181.051,-86.1181 178.866,-75.7511 174.109,-85.2181 181.051,-86.1181"/>
</g>
<!-- Node6 -->
<g id="node6" class="node"><title>Node6</title>
<g id="a_node6"><a xlink:href="../../d4/d6e/Shader_8hpp.html" target="_top" xlink:title="Shader.hpp">
<polygon fill="none" stroke="black" points="220,-56.5 220,-75.5 286,-75.5 286,-56.5 220,-56.5"/>
<text text-anchor="middle" x="253" y="-63.5" font-family="Helvetica,sans-Serif" font-size="10.00">Shader.hpp</text>
</a>
</g>
</g>
<!-- Node4&#45;&gt;Node6 -->
<g id="edge7" class="edge"><title>Node4&#45;&gt;Node6</title>
<path fill="none" stroke="midnightblue" d="M185.853,-112.324C198.216,-103.979 217.13,-91.2122 231.737,-81.3524"/>
<polygon fill="midnightblue" stroke="midnightblue" points="233.848,-84.1503 240.179,-75.6545 229.932,-78.3483 233.848,-84.1503"/>
</g>
<!-- Node7 -->
<g id="node7" class="node"><title>Node7</title>
<polygon fill="none" stroke="#bfbfbf" points="232.5,-0.5 232.5,-19.5 273.5,-19.5 273.5,-0.5 232.5,-0.5"/>
<text text-anchor="middle" x="253" y="-7.5" font-family="Helvetica,sans-Serif" font-size="10.00">string</text>
</g>
<!-- Node6&#45;&gt;Node7 -->
<g id="edge8" class="edge"><title>Node6&#45;&gt;Node7</title>
<path fill="none" stroke="midnightblue" d="M253,-56.083C253,-49.0059 253,-38.8611 253,-29.9865"/>
<polygon fill="midnightblue" stroke="midnightblue" points="256.5,-29.751 253,-19.7511 249.5,-29.7511 256.5,-29.751"/>
</g>
</g>
</svg>
