<?xml version="1.0" encoding="UTF-8" standalone="no"?>
<!DOCTYPE svg PUBLIC "-//W3C//DTD SVG 1.1//EN"
 "http://www.w3.org/Graphics/SVG/1.1/DTD/svg11.dtd">
<!-- Generated by graphviz version 2.38.0 (20140413.2041)
 -->
<!-- Title: engine/Material/Material.hpp Pages: 1 -->
<svg width="260pt" height="84pt"
 viewBox="0.00 0.00 260.00 84.00" xmlns="http://www.w3.org/2000/svg" xmlns:xlink="http://www.w3.org/1999/xlink">
<g id="graph0" class="graph" transform="scale(1 1) rotate(0) translate(4 80)">
<title>engine/Material/Material.hpp</title>
<!-- Node1 -->
<g id="node1" class="node"><title>Node1</title>
<polygon fill="#bfbfbf" stroke="black" points="35.5,-56.5 35.5,-75.5 174.5,-75.5 174.5,-56.5 35.5,-56.5"/>
<text text-anchor="middle" x="105" y="-63.5" font-family="Helvetica,sans-Serif" font-size="10.00">engine/Material/Material.hpp</text>
</g>
<!-- Node2 -->
<g id="node2" class="node"><title>Node2</title>
<polygon fill="none" stroke="#bfbfbf" points="0,-0.5 0,-19.5 52,-19.5 52,-0.5 0,-0.5"/>
<text text-anchor="middle" x="26" y="-7.5" font-family="Helvetica,sans-Serif" font-size="10.00">memory</text>
</g>
<!-- Node1&#45;&gt;Node2 -->
<g id="edge1" class="edge"><title>Node1&#45;&gt;Node2</title>
<path fill="none" stroke="midnightblue" d="M92.3073,-56.324C80.0989,-47.979 61.4215,-35.2122 46.9971,-25.3524"/>
<polygon fill="midnightblue" stroke="midnightblue" points="48.892,-22.4082 38.6612,-19.6545 44.9418,-28.1871 48.892,-22.4082"/>
</g>
<!-- Node3 -->
<g id="node3" class="node"><title>Node3</title>
<polygon fill="none" stroke="#bfbfbf" points="70,-0.5 70,-19.5 140,-19.5 140,-0.5 70,-0.5"/>
<text text-anchor="middle" x="105" y="-7.5" font-family="Helvetica,sans-Serif" font-size="10.00">glm/glm.hpp</text>
</g>
<!-- Node1&#45;&gt;Node3 -->
<g id="edge2" class="edge"><title>Node1&#45;&gt;Node3</title>
<path fill="none" stroke="midnightblue" d="M105,-56.083C105,-49.0059 105,-38.8611 105,-29.9865"/>
<polygon fill="midnightblue" stroke="midnightblue" points="108.5,-29.751 105,-19.7511 101.5,-29.7511 108.5,-29.751"/>
</g>
<!-- Node4 -->
<g id="node4" class="node"><title>Node4</title>
<polygon fill="none" stroke="#bfbfbf" points="158,-0.5 158,-19.5 252,-19.5 252,-0.5 158,-0.5"/>
<text text-anchor="middle" x="205" y="-7.5" font-family="Helvetica,sans-Serif" font-size="10.00">assimp/material.h</text>
</g>
<!-- Node1&#45;&gt;Node4 -->
<g id="edge3" class="edge"><title>Node1&#45;&gt;Node4</title>
<path fill="none" stroke="midnightblue" d="M121.067,-56.324C136.958,-47.7428 161.507,-34.486 179.958,-24.5224"/>
<polygon fill="midnightblue" stroke="midnightblue" points="181.837,-27.4857 188.973,-19.6545 178.511,-21.3264 181.837,-27.4857"/>
</g>
</g>
</svg>
