<?xml version="1.0" encoding="UTF-8" standalone="no"?>
<!DOCTYPE svg PUBLIC "-//W3C//DTD SVG 1.1//EN"
 "http://www.w3.org/Graphics/SVG/1.1/DTD/svg11.dtd">
<!-- Generated by graphviz version 2.38.0 (20140413.2041)
 -->
<!-- Title: engine/AnimationLibrary/AnimationLibrary.cpp Pages: 1 -->
<svg width="303pt" height="207pt"
 viewBox="0.00 0.00 302.50 207.00" xmlns="http://www.w3.org/2000/svg" xmlns:xlink="http://www.w3.org/1999/xlink">
<g id="graph0" class="graph" transform="scale(1 1) rotate(0) translate(4 203)">
<title>engine/AnimationLibrary/AnimationLibrary.cpp</title>
<!-- Node1 -->
<g id="node1" class="node"><title>Node1</title>
<polygon fill="#bfbfbf" stroke="black" points="157.5,-168.5 157.5,-198.5 278.5,-198.5 278.5,-168.5 157.5,-168.5"/>
<text text-anchor="start" x="165.5" y="-186.5" font-family="Helvetica,sans-Serif" font-size="10.00">engine/AnimationLibrary</text>
<text text-anchor="middle" x="218" y="-175.5" font-family="Helvetica,sans-Serif" font-size="10.00">/AnimationLibrary.cpp</text>
</g>
<!-- Node2 -->
<g id="node2" class="node"><title>Node2</title>
<g id="a_node2"><a xlink:href="../../d1/da3/AnimationLibrary_8hpp.html" target="_top" xlink:title="AnimationLibrary.hpp">
<polygon fill="none" stroke="black" points="123,-112.5 123,-131.5 231,-131.5 231,-112.5 123,-112.5"/>
<text text-anchor="middle" x="177" y="-119.5" font-family="Helvetica,sans-Serif" font-size="10.00">AnimationLibrary.hpp</text>
</a>
</g>
</g>
<!-- Node1&#45;&gt;Node2 -->
<g id="edge1" class="edge"><title>Node1&#45;&gt;Node2</title>
<path fill="none" stroke="midnightblue" d="M208.284,-168.399C202.449,-159.932 194.984,-149.099 188.81,-140.139"/>
<polygon fill="midnightblue" stroke="midnightblue" points="191.522,-137.906 182.966,-131.658 185.758,-141.878 191.522,-137.906"/>
</g>
<!-- Node7 -->
<g id="node7" class="node"><title>Node7</title>
<g id="a_node7"><a xlink:href="../../d0/d36/Animation_8hpp.html" target="_top" xlink:title="Animation.hpp">
<polygon fill="none" stroke="black" points="215.5,-56.5 215.5,-75.5 294.5,-75.5 294.5,-56.5 215.5,-56.5"/>
<text text-anchor="middle" x="255" y="-63.5" font-family="Helvetica,sans-Serif" font-size="10.00">Animation.hpp</text>
</a>
</g>
</g>
<!-- Node1&#45;&gt;Node7 -->
<g id="edge10" class="edge"><title>Node1&#45;&gt;Node7</title>
<path fill="none" stroke="midnightblue" d="M225.077,-168.191C229.794,-158.228 235.863,-144.532 240,-132 245.054,-116.689 249.047,-98.8078 251.639,-85.6798"/>
<polygon fill="midnightblue" stroke="midnightblue" points="255.135,-86.0258 253.547,-75.5507 248.256,-84.73 255.135,-86.0258"/>
</g>
<!-- Node3 -->
<g id="node3" class="node"><title>Node3</title>
<polygon fill="none" stroke="#bfbfbf" points="142,-0.5 142,-19.5 222,-19.5 222,-0.5 142,-0.5"/>
<text text-anchor="middle" x="182" y="-7.5" font-family="Helvetica,sans-Serif" font-size="10.00">assimp/anim.h</text>
</g>
<!-- Node2&#45;&gt;Node3 -->
<g id="edge2" class="edge"><title>Node2&#45;&gt;Node3</title>
<path fill="none" stroke="midnightblue" d="M177.392,-112.368C178.199,-94.617 180.061,-53.6664 181.155,-29.5974"/>
<polygon fill="midnightblue" stroke="midnightblue" points="184.652,-29.7401 181.609,-19.5914 177.659,-29.4221 184.652,-29.7401"/>
</g>
<!-- Node4 -->
<g id="node4" class="node"><title>Node4</title>
<g id="a_node4"><a xlink:href="../../df/d67/Library_8hpp.html" target="_top" xlink:title="Library.hpp">
<polygon fill="none" stroke="black" points="69.5,-56.5 69.5,-75.5 134.5,-75.5 134.5,-56.5 69.5,-56.5"/>
<text text-anchor="middle" x="102" y="-63.5" font-family="Helvetica,sans-Serif" font-size="10.00">Library.hpp</text>
</a>
</g>
</g>
<!-- Node2&#45;&gt;Node4 -->
<g id="edge3" class="edge"><title>Node2&#45;&gt;Node4</title>
<path fill="none" stroke="midnightblue" d="M164.95,-112.324C153.537,-104.107 136.169,-91.6017 122.565,-81.8069"/>
<polygon fill="midnightblue" stroke="midnightblue" points="124.43,-78.8366 114.269,-75.8339 120.34,-84.5174 124.43,-78.8366"/>
</g>
<!-- Node2&#45;&gt;Node7 -->
<g id="edge7" class="edge"><title>Node2&#45;&gt;Node7</title>
<path fill="none" stroke="midnightblue" d="M189.532,-112.324C201.586,-103.979 220.027,-91.2122 234.269,-81.3524"/>
<polygon fill="midnightblue" stroke="midnightblue" points="236.269,-84.2243 242.499,-75.6545 232.285,-78.469 236.269,-84.2243"/>
</g>
<!-- Node4&#45;&gt;Node4 -->
<g id="edge6" class="edge"><title>Node4&#45;&gt;Node4</title>
<path fill="none" stroke="midnightblue" d="M123.538,-75.5252C138.173,-78.3079 152.5,-75.1328 152.5,-66 152.5,-59.0077 144.102,-55.5077 133.597,-55.5"/>
<polygon fill="midnightblue" stroke="midnightblue" points="133.154,-52.0265 123.538,-56.4748 133.829,-58.9938 133.154,-52.0265"/>
</g>
<!-- Node5 -->
<g id="node5" class="node"><title>Node5</title>
<polygon fill="none" stroke="#bfbfbf" points="80,-0.5 80,-19.5 124,-19.5 124,-0.5 80,-0.5"/>
<text text-anchor="middle" x="102" y="-7.5" font-family="Helvetica,sans-Serif" font-size="10.00">vector</text>
</g>
<!-- Node4&#45;&gt;Node5 -->
<g id="edge4" class="edge"><title>Node4&#45;&gt;Node5</title>
<path fill="none" stroke="midnightblue" d="M102,-56.083C102,-49.0059 102,-38.8611 102,-29.9865"/>
<polygon fill="midnightblue" stroke="midnightblue" points="105.5,-29.751 102,-19.7511 98.5001,-29.7511 105.5,-29.751"/>
</g>
<!-- Node6 -->
<g id="node6" class="node"><title>Node6</title>
<polygon fill="none" stroke="#bfbfbf" points="0,-0.5 0,-19.5 62,-19.5 62,-0.5 0,-0.5"/>
<text text-anchor="middle" x="31" y="-7.5" font-family="Helvetica,sans-Serif" font-size="10.00">Library.tpp</text>
</g>
<!-- Node4&#45;&gt;Node6 -->
<g id="edge5" class="edge"><title>Node4&#45;&gt;Node6</title>
<path fill="none" stroke="midnightblue" d="M90.5926,-56.324C79.8912,-48.1849 63.6593,-35.8395 50.8372,-26.0874"/>
<polygon fill="midnightblue" stroke="midnightblue" points="52.6932,-23.1018 42.6149,-19.8339 48.4556,-28.6734 52.6932,-23.1018"/>
</g>
<!-- Node7&#45;&gt;Node3 -->
<g id="edge8" class="edge"><title>Node7&#45;&gt;Node3</title>
<path fill="none" stroke="midnightblue" d="M243.271,-56.324C232.163,-48.1066 215.258,-35.6017 202.017,-25.8069"/>
<polygon fill="midnightblue" stroke="midnightblue" points="204.063,-22.9671 193.942,-19.8339 199.9,-28.5948 204.063,-22.9671"/>
</g>
<!-- Node8 -->
<g id="node8" class="node"><title>Node8</title>
<polygon fill="none" stroke="#bfbfbf" points="240.5,-0.5 240.5,-19.5 281.5,-19.5 281.5,-0.5 240.5,-0.5"/>
<text text-anchor="middle" x="261" y="-7.5" font-family="Helvetica,sans-Serif" font-size="10.00">string</text>
</g>
<!-- Node7&#45;&gt;Node8 -->
<g id="edge9" class="edge"><title>Node7&#45;&gt;Node8</title>
<path fill="none" stroke="midnightblue" d="M255.991,-56.083C256.786,-48.9272 257.929,-38.6353 258.923,-29.6911"/>
<polygon fill="midnightblue" stroke="midnightblue" points="262.402,-30.0765 260.028,-19.7511 255.445,-29.3034 262.402,-30.0765"/>
</g>
</g>
</svg>
