<?xml version="1.0" encoding="UTF-8" standalone="no"?>
<!DOCTYPE svg PUBLIC "-//W3C//DTD SVG 1.1//EN"
 "http://www.w3.org/Graphics/SVG/1.1/DTD/svg11.dtd">
<!-- Generated by graphviz version 2.38.0 (20140413.2041)
 -->
<!-- Title: engine/Primitives/Cube/Cube.hpp Pages: 1 -->
<svg width="470pt" height="106pt"
 viewBox="0.00 0.00 469.50 106.00" xmlns="http://www.w3.org/2000/svg" xmlns:xlink="http://www.w3.org/1999/xlink">
<g id="graph0" class="graph" transform="scale(1 1) rotate(0) translate(4 102)">
<title>engine/Primitives/Cube/Cube.hpp</title>
<!-- Node1 -->
<g id="node1" class="node"><title>Node1</title>
<polygon fill="#bfbfbf" stroke="black" points="200,-67.5 200,-97.5 318,-97.5 318,-67.5 200,-67.5"/>
<text text-anchor="start" x="208" y="-85.5" font-family="Helvetica,sans-Serif" font-size="10.00">engine/Primitives/Cube</text>
<text text-anchor="middle" x="259" y="-74.5" font-family="Helvetica,sans-Serif" font-size="10.00">/Cube.hpp</text>
</g>
<!-- Node2 -->
<g id="node2" class="node"><title>Node2</title>
<g id="a_node2"><a xlink:href="../../dd/d98/GameEngine_8cpp.html" target="_top" xlink:title="engine/GameEngine/GameEngine.cpp">
<polygon fill="none" stroke="black" points="0,-6 0,-25 182,-25 182,-6 0,-6"/>
<text text-anchor="middle" x="91" y="-13" font-family="Helvetica,sans-Serif" font-size="10.00">engine/GameEngine/GameEngine.cpp</text>
</a>
</g>
</g>
<!-- Node1&#45;&gt;Node2 -->
<g id="edge1" class="edge"><title>Node1&#45;&gt;Node2</title>
<path fill="none" stroke="midnightblue" d="M213.211,-63.7838C180.636,-51.1807 138.32,-34.8082 112.987,-25.007"/>
<polygon fill="midnightblue" stroke="midnightblue" points="211.957,-67.0517 222.547,-67.396 214.483,-60.5233 211.957,-67.0517"/>
</g>
<!-- Node3 -->
<g id="node3" class="node"><title>Node3</title>
<g id="a_node3"><a xlink:href="../../d6/d05/Cube_8cpp.html" target="_top" xlink:title="engine/Primitives/Cube\l/Cube.cpp">
<polygon fill="none" stroke="black" points="200,-0.5 200,-30.5 318,-30.5 318,-0.5 200,-0.5"/>
<text text-anchor="start" x="208" y="-18.5" font-family="Helvetica,sans-Serif" font-size="10.00">engine/Primitives/Cube</text>
<text text-anchor="middle" x="259" y="-7.5" font-family="Helvetica,sans-Serif" font-size="10.00">/Cube.cpp</text>
</a>
</g>
</g>
<!-- Node1&#45;&gt;Node3 -->
<g id="edge2" class="edge"><title>Node1&#45;&gt;Node3</title>
<path fill="none" stroke="midnightblue" d="M259,-57.1081C259,-48.1539 259,-38.3227 259,-30.5765"/>
<polygon fill="midnightblue" stroke="midnightblue" points="255.5,-57.3959 259,-67.396 262.5,-57.396 255.5,-57.3959"/>
</g>
<!-- Node4 -->
<g id="node4" class="node"><title>Node4</title>
<g id="a_node4"><a xlink:href="../../de/d15/Scene_8cpp.html" target="_top" xlink:title="engine/Scene/Scene.cpp">
<polygon fill="none" stroke="black" points="336.5,-6 336.5,-25 461.5,-25 461.5,-6 336.5,-6"/>
<text text-anchor="middle" x="399" y="-13" font-family="Helvetica,sans-Serif" font-size="10.00">engine/Scene/Scene.cpp</text>
</a>
</g>
</g>
<!-- Node1&#45;&gt;Node4 -->
<g id="edge3" class="edge"><title>Node1&#45;&gt;Node4</title>
<path fill="none" stroke="midnightblue" d="M298.563,-63.1315C325.51,-50.6205 359.929,-34.6399 380.677,-25.007"/>
<polygon fill="midnightblue" stroke="midnightblue" points="296.974,-60.0103 289.378,-67.396 299.922,-66.3593 296.974,-60.0103"/>
</g>
</g>
</svg>
