<?xml version="1.0" encoding="UTF-8" standalone="no"?>
<!DOCTYPE svg PUBLIC "-//W3C//DTD SVG 1.1//EN"
 "http://www.w3.org/Graphics/SVG/1.1/DTD/svg11.dtd">
<!-- Generated by graphviz version 2.38.0 (20140413.2041)
 -->
<!-- Title: window/toolwidget.h Pages: 1 -->
<svg width="282pt" height="140pt"
 viewBox="0.00 0.00 282.00 140.00" xmlns="http://www.w3.org/2000/svg" xmlns:xlink="http://www.w3.org/1999/xlink">
<g id="graph0" class="graph" transform="scale(1 1) rotate(0) translate(4 136)">
<title>window/toolwidget.h</title>
<!-- Node1 -->
<g id="node1" class="node"><title>Node1</title>
<polygon fill="#bfbfbf" stroke="black" points="96.5,-112.5 96.5,-131.5 201.5,-131.5 201.5,-112.5 96.5,-112.5"/>
<text text-anchor="middle" x="149" y="-119.5" font-family="Helvetica,sans-Serif" font-size="10.00">window/toolwidget.h</text>
</g>
<!-- Node2 -->
<g id="node2" class="node"><title>Node2</title>
<g id="a_node2"><a xlink:href="../../d9/d53/mainwindow_8h.html" target="_top" xlink:title="window/mainwindow.h">
<polygon fill="none" stroke="black" points="24.5,-56.5 24.5,-75.5 139.5,-75.5 139.5,-56.5 24.5,-56.5"/>
<text text-anchor="middle" x="82" y="-63.5" font-family="Helvetica,sans-Serif" font-size="10.00">window/mainwindow.h</text>
</a>
</g>
</g>
<!-- Node1&#45;&gt;Node2 -->
<g id="edge1" class="edge"><title>Node1&#45;&gt;Node2</title>
<path fill="none" stroke="midnightblue" d="M130.165,-105.82C118.162,-96.1452 103.028,-83.9481 92.9606,-75.8339"/>
<polygon fill="midnightblue" stroke="midnightblue" points="128.253,-108.774 138.235,-112.324 132.646,-103.324 128.253,-108.774"/>
</g>
<!-- Node5 -->
<g id="node5" class="node"><title>Node5</title>
<g id="a_node5"><a xlink:href="../../df/d91/toolwidget_8cpp.html" target="_top" xlink:title="window/toolwidget.cpp">
<polygon fill="none" stroke="black" points="158,-56.5 158,-75.5 274,-75.5 274,-56.5 158,-56.5"/>
<text text-anchor="middle" x="216" y="-63.5" font-family="Helvetica,sans-Serif" font-size="10.00">window/toolwidget.cpp</text>
</a>
</g>
</g>
<!-- Node1&#45;&gt;Node5 -->
<g id="edge4" class="edge"><title>Node1&#45;&gt;Node5</title>
<path fill="none" stroke="midnightblue" d="M167.835,-105.82C179.838,-96.1452 194.972,-83.9481 205.039,-75.8339"/>
<polygon fill="midnightblue" stroke="midnightblue" points="165.354,-103.324 159.765,-112.324 169.747,-108.774 165.354,-103.324"/>
</g>
<!-- Node3 -->
<g id="node3" class="node"><title>Node3</title>
<g id="a_node3"><a xlink:href="../../df/d0a/main_8cpp.html" target="_top" xlink:title="TODO. ">
<polygon fill="none" stroke="black" points="0,-0.5 0,-19.5 56,-19.5 56,-0.5 0,-0.5"/>
<text text-anchor="middle" x="28" y="-7.5" font-family="Helvetica,sans-Serif" font-size="10.00">main.cpp</text>
</a>
</g>
</g>
<!-- Node2&#45;&gt;Node3 -->
<g id="edge2" class="edge"><title>Node2&#45;&gt;Node3</title>
<path fill="none" stroke="midnightblue" d="M66.0024,-49.0024C56.4329,-39.4329 44.6389,-27.6389 36.7511,-19.7511"/>
<polygon fill="midnightblue" stroke="midnightblue" points="63.537,-51.4868 73.083,-56.083 68.4868,-46.537 63.537,-51.4868"/>
</g>
<!-- Node4 -->
<g id="node4" class="node"><title>Node4</title>
<g id="a_node4"><a xlink:href="../../d8/dd9/mainwindow_8cpp.html" target="_top" xlink:title="window/mainwindow.cpp">
<polygon fill="none" stroke="black" points="73.5,-0.5 73.5,-19.5 198.5,-19.5 198.5,-0.5 73.5,-0.5"/>
<text text-anchor="middle" x="136" y="-7.5" font-family="Helvetica,sans-Serif" font-size="10.00">window/mainwindow.cpp</text>
</a>
</g>
</g>
<!-- Node2&#45;&gt;Node4 -->
<g id="edge3" class="edge"><title>Node2&#45;&gt;Node4</title>
<path fill="none" stroke="midnightblue" d="M97.9976,-49.0024C107.567,-39.4329 119.361,-27.6389 127.249,-19.7511"/>
<polygon fill="midnightblue" stroke="midnightblue" points="95.5132,-46.537 90.917,-56.083 100.463,-51.4868 95.5132,-46.537"/>
</g>
</g>
</svg>
