<?xml version="1.0" encoding="UTF-8" standalone="no"?>
<!DOCTYPE svg PUBLIC "-//W3C//DTD SVG 1.1//EN"
 "http://www.w3.org/Graphics/SVG/1.1/DTD/svg11.dtd">
<!-- Generated by graphviz version 2.38.0 (20140413.2041)
 -->
<!-- Title: WorldParticles::Engine::ShaderProgram Pages: 1 -->
<svg width="124pt" height="292pt"
 viewBox="0.00 0.00 124.00 292.00" xmlns="http://www.w3.org/2000/svg" xmlns:xlink="http://www.w3.org/1999/xlink">
<g id="graph0" class="graph" transform="scale(1 1) rotate(0) translate(4 288)">
<title>WorldParticles::Engine::ShaderProgram</title>
<!-- Node1 -->
<g id="node1" class="node"><title>Node1</title>
<polygon fill="#bfbfbf" stroke="black" points="-7.10543e-15,-0.5 -7.10543e-15,-178.5 116,-178.5 116,-0.5 -7.10543e-15,-0.5"/>
<text text-anchor="start" x="8" y="-166.5" font-family="Helvetica,sans-Serif" font-size="10.00">WorldParticles::Engine</text>
<text text-anchor="middle" x="58" y="-155.5" font-family="Helvetica,sans-Serif" font-size="10.00">::ShaderProgram</text>
<polyline fill="none" stroke="black" points="-7.10543e-15,-148.5 116,-148.5 "/>
<text text-anchor="middle" x="58" y="-136.5" font-family="Helvetica,sans-Serif" font-size="10.00"> </text>
<polyline fill="none" stroke="black" points="-7.10543e-15,-129.5 116,-129.5 "/>
<text text-anchor="start" x="8" y="-117.5" font-family="Helvetica,sans-Serif" font-size="10.00">+ ShaderProgram()</text>
<text text-anchor="start" x="8" y="-106.5" font-family="Helvetica,sans-Serif" font-size="10.00">+ ~ShaderProgram()</text>
<text text-anchor="start" x="8" y="-95.5" font-family="Helvetica,sans-Serif" font-size="10.00">+ operator&lt;&lt;()</text>
<text text-anchor="start" x="8" y="-84.5" font-family="Helvetica,sans-Serif" font-size="10.00">+ add()</text>
<text text-anchor="start" x="8" y="-73.5" font-family="Helvetica,sans-Serif" font-size="10.00">+ link()</text>
<text text-anchor="start" x="8" y="-62.5" font-family="Helvetica,sans-Serif" font-size="10.00">+ bind()</text>
<text text-anchor="start" x="8" y="-51.5" font-family="Helvetica,sans-Serif" font-size="10.00">+ unbind()</text>
<text text-anchor="start" x="8" y="-40.5" font-family="Helvetica,sans-Serif" font-size="10.00">+ isLinked()</text>
<text text-anchor="start" x="8" y="-29.5" font-family="Helvetica,sans-Serif" font-size="10.00">+ setUniform()</text>
<text text-anchor="start" x="8" y="-18.5" font-family="Helvetica,sans-Serif" font-size="10.00">+ setUniform()</text>
<text text-anchor="start" x="8" y="-7.5" font-family="Helvetica,sans-Serif" font-size="10.00">and 40 more...</text>
</g>
<!-- Node2 -->
<g id="node2" class="node"><title>Node2</title>
<polygon fill="none" stroke="#bfbfbf" points="18.5,-226.5 18.5,-283.5 47.5,-283.5 47.5,-226.5 18.5,-226.5"/>
<text text-anchor="middle" x="33" y="-271.5" font-family="Helvetica,sans-Serif" font-size="10.00">int</text>
<polyline fill="none" stroke="#bfbfbf" points="18.5,-264.5 47.5,-264.5 "/>
<text text-anchor="middle" x="33" y="-252.5" font-family="Helvetica,sans-Serif" font-size="10.00"> </text>
<polyline fill="none" stroke="#bfbfbf" points="18.5,-245.5 47.5,-245.5 "/>
<text text-anchor="middle" x="33" y="-233.5" font-family="Helvetica,sans-Serif" font-size="10.00"> </text>
</g>
<!-- Node2&#45;&gt;Node1 -->
<g id="edge1" class="edge"><title>Node2&#45;&gt;Node1</title>
<path fill="none" stroke="#404040" d="M37.2409,-226.264C38.8088,-216.011 40.6904,-203.704 42.6722,-190.744"/>
<polygon fill="none" stroke="#404040" points="42.7003,-190.56 39.6532,-184.024 44.5141,-178.697 47.5613,-185.233 42.7003,-190.56"/>
<text text-anchor="middle" x="50" y="-200" font-family="Helvetica,sans-Serif" font-size="10.00"> #id</text>
</g>
<!-- Node3 -->
<g id="node3" class="node"><title>Node3</title>
<polygon fill="none" stroke="#bfbfbf" points="65.5,-226.5 65.5,-283.5 100.5,-283.5 100.5,-226.5 65.5,-226.5"/>
<text text-anchor="middle" x="83" y="-271.5" font-family="Helvetica,sans-Serif" font-size="10.00">bool</text>
<polyline fill="none" stroke="#bfbfbf" points="65.5,-264.5 100.5,-264.5 "/>
<text text-anchor="middle" x="83" y="-252.5" font-family="Helvetica,sans-Serif" font-size="10.00"> </text>
<polyline fill="none" stroke="#bfbfbf" points="65.5,-245.5 100.5,-245.5 "/>
<text text-anchor="middle" x="83" y="-233.5" font-family="Helvetica,sans-Serif" font-size="10.00"> </text>
</g>
<!-- Node3&#45;&gt;Node1 -->
<g id="edge2" class="edge"><title>Node3&#45;&gt;Node1</title>
<path fill="none" stroke="#404040" d="M78.7591,-226.264C77.1912,-216.011 75.3096,-203.704 73.3278,-190.744"/>
<polygon fill="none" stroke="#404040" points="73.2997,-190.56 68.4387,-185.233 71.4859,-178.697 76.3468,-184.024 73.2997,-190.56"/>
<text text-anchor="middle" x="92" y="-200" font-family="Helvetica,sans-Serif" font-size="10.00"> #linked</text>
</g>
</g>
</svg>
