<?xml version="1.0" encoding="UTF-8" standalone="no"?>
<!DOCTYPE svg PUBLIC "-//W3C//DTD SVG 1.1//EN"
 "http://www.w3.org/Graphics/SVG/1.1/DTD/svg11.dtd">
<!-- Generated by graphviz version 2.38.0 (20140413.2041)
 -->
<!-- Title: WorldParticles::Engine::ShaderProgram Pages: 1 -->
<svg width="136pt" height="292pt"
 viewBox="0.00 0.00 135.50 292.00" xmlns="http://www.w3.org/2000/svg" xmlns:xlink="http://www.w3.org/1999/xlink">
<g id="graph0" class="graph" transform="scale(1 1) rotate(0) translate(4 288)">
<title>WorldParticles::Engine::ShaderProgram</title>
<!-- Node1 -->
<g id="node1" class="node"><title>Node1</title>
<polygon fill="#bfbfbf" stroke="black" points="-7.10543e-15,-0.5 -7.10543e-15,-178.5 116,-178.5 116,-0.5 -7.10543e-15,-0.5"/>
<text text-anchor="start" x="8" y="-166.5" font-family="Helvetica,sans-Serif" font-size="10.00">WorldParticles::Engine</text>
<text text-anchor="middle" x="58" y="-155.5" font-family="Helvetica,sans-Serif" font-size="10.00">::ShaderProgram</text>
<polyline fill="none" stroke="black" points="-7.10543e-15,-148.5 116,-148.5 "/>
<text text-anchor="middle" x="58" y="-136.5" font-family="Helvetica,sans-Serif" font-size="10.00"> </text>
<polyline fill="none" stroke="black" points="-7.10543e-15,-129.5 116,-129.5 "/>
<text text-anchor="start" x="8" y="-117.5" font-family="Helvetica,sans-Serif" font-size="10.00">+ ShaderProgram()</text>
<text text-anchor="start" x="8" y="-106.5" font-family="Helvetica,sans-Serif" font-size="10.00">+ ShaderProgram()</text>
<text text-anchor="start" x="8" y="-95.5" font-family="Helvetica,sans-Serif" font-size="10.00">+ ShaderProgram()</text>
<text text-anchor="start" x="8" y="-84.5" font-family="Helvetica,sans-Serif" font-size="10.00">+ ~ShaderProgram()</text>
<text text-anchor="start" x="8" y="-73.5" font-family="Helvetica,sans-Serif" font-size="10.00">+ operator=()</text>
<text text-anchor="start" x="8" y="-62.5" font-family="Helvetica,sans-Serif" font-size="10.00">+ operator=()</text>
<text text-anchor="start" x="8" y="-51.5" font-family="Helvetica,sans-Serif" font-size="10.00">+ operator&lt;&lt;()</text>
<text text-anchor="start" x="8" y="-40.5" font-family="Helvetica,sans-Serif" font-size="10.00">+ add()</text>
<text text-anchor="start" x="8" y="-29.5" font-family="Helvetica,sans-Serif" font-size="10.00">+ link()</text>
<text text-anchor="start" x="8" y="-18.5" font-family="Helvetica,sans-Serif" font-size="10.00">+ bind()</text>
<text text-anchor="start" x="8" y="-7.5" font-family="Helvetica,sans-Serif" font-size="10.00">and 44 more...</text>
</g>
<!-- Node2 -->
<g id="node2" class="node"><title>Node2</title>
<polygon fill="none" stroke="#bfbfbf" points="5.5,-226.5 5.5,-283.5 40.5,-283.5 40.5,-226.5 5.5,-226.5"/>
<text text-anchor="middle" x="23" y="-271.5" font-family="Helvetica,sans-Serif" font-size="10.00">bool</text>
<polyline fill="none" stroke="#bfbfbf" points="5.5,-264.5 40.5,-264.5 "/>
<text text-anchor="middle" x="23" y="-252.5" font-family="Helvetica,sans-Serif" font-size="10.00"> </text>
<polyline fill="none" stroke="#bfbfbf" points="5.5,-245.5 40.5,-245.5 "/>
<text text-anchor="middle" x="23" y="-233.5" font-family="Helvetica,sans-Serif" font-size="10.00"> </text>
</g>
<!-- Node2&#45;&gt;Node1 -->
<g id="edge1" class="edge"><title>Node2&#45;&gt;Node1</title>
<path fill="none" stroke="#404040" d="M28.9373,-226.264C31.1323,-216.011 33.7666,-203.704 36.5411,-190.744"/>
<polygon fill="none" stroke="#404040" points="36.6078,-190.432 33.9524,-183.727 39.1198,-178.697 41.7752,-185.402 36.6078,-190.432"/>
<text text-anchor="middle" x="53" y="-200" font-family="Helvetica,sans-Serif" font-size="10.00"> #linked</text>
</g>
<!-- Node3 -->
<g id="node3" class="node"><title>Node3</title>
<polygon fill="none" stroke="#bfbfbf" points="58.5,-226.5 58.5,-283.5 127.5,-283.5 127.5,-226.5 58.5,-226.5"/>
<text text-anchor="middle" x="93" y="-271.5" font-family="Helvetica,sans-Serif" font-size="10.00">unsigned int</text>
<polyline fill="none" stroke="#bfbfbf" points="58.5,-264.5 127.5,-264.5 "/>
<text text-anchor="middle" x="93" y="-252.5" font-family="Helvetica,sans-Serif" font-size="10.00"> </text>
<polyline fill="none" stroke="#bfbfbf" points="58.5,-245.5 127.5,-245.5 "/>
<text text-anchor="middle" x="93" y="-233.5" font-family="Helvetica,sans-Serif" font-size="10.00"> </text>
</g>
<!-- Node3&#45;&gt;Node1 -->
<g id="edge2" class="edge"><title>Node3&#45;&gt;Node1</title>
<path fill="none" stroke="#404040" d="M87.0627,-226.264C84.8677,-216.011 82.2334,-203.704 79.4589,-190.744"/>
<polygon fill="none" stroke="#404040" points="79.3922,-190.432 74.2248,-185.402 76.8802,-178.697 82.0476,-183.727 79.3922,-190.432"/>
<text text-anchor="middle" x="90" y="-200" font-family="Helvetica,sans-Serif" font-size="10.00"> #id</text>
</g>
</g>
</svg>
