<?xml version="1.0" encoding="UTF-8" standalone="no"?>
<!DOCTYPE svg PUBLIC "-//W3C//DTD SVG 1.1//EN"
 "http://www.w3.org/Graphics/SVG/1.1/DTD/svg11.dtd">
<!-- Generated by graphviz version 2.38.0 (20140413.2041)
 -->
<!-- Title: window/glwidget.hpp Pages: 1 -->
<svg width="436pt" height="140pt"
 viewBox="0.00 0.00 435.50 140.00" xmlns="http://www.w3.org/2000/svg" xmlns:xlink="http://www.w3.org/1999/xlink">
<g id="graph0" class="graph" transform="scale(1 1) rotate(0) translate(4 136)">
<title>window/glwidget.hpp</title>
<!-- Node1 -->
<g id="node1" class="node"><title>Node1</title>
<polygon fill="#bfbfbf" stroke="black" points="77.5,-112.5 77.5,-131.5 184.5,-131.5 184.5,-112.5 77.5,-112.5"/>
<text text-anchor="middle" x="131" y="-119.5" font-family="Helvetica,sans-Serif" font-size="10.00">window/glwidget.hpp</text>
</g>
<!-- Node2 -->
<g id="node2" class="node"><title>Node2</title>
<polygon fill="none" stroke="#bfbfbf" points="20,-56.5 20,-75.5 88,-75.5 88,-56.5 20,-56.5"/>
<text text-anchor="middle" x="54" y="-63.5" font-family="Helvetica,sans-Serif" font-size="10.00">QGLWidget</text>
</g>
<!-- Node1&#45;&gt;Node2 -->
<g id="edge1" class="edge"><title>Node1&#45;&gt;Node2</title>
<path fill="none" stroke="midnightblue" d="M118.629,-112.324C106.842,-104.058 88.8677,-91.4527 74.8645,-81.6322"/>
<polygon fill="midnightblue" stroke="midnightblue" points="76.5376,-78.5307 66.3407,-75.6545 72.5184,-84.2619 76.5376,-78.5307"/>
</g>
<!-- Node3 -->
<g id="node3" class="node"><title>Node3</title>
<polygon fill="none" stroke="#bfbfbf" points="106.5,-56.5 106.5,-75.5 155.5,-75.5 155.5,-56.5 106.5,-56.5"/>
<text text-anchor="middle" x="131" y="-63.5" font-family="Helvetica,sans-Serif" font-size="10.00">QTimer</text>
</g>
<!-- Node1&#45;&gt;Node3 -->
<g id="edge2" class="edge"><title>Node1&#45;&gt;Node3</title>
<path fill="none" stroke="midnightblue" d="M131,-112.083C131,-105.006 131,-94.8611 131,-85.9865"/>
<polygon fill="midnightblue" stroke="midnightblue" points="134.5,-85.751 131,-75.7511 127.5,-85.7511 134.5,-85.751"/>
</g>
<!-- Node4 -->
<g id="node4" class="node"><title>Node4</title>
<g id="a_node4"><a xlink:href="../../de/d71/tools_8hpp.html" target="_top" xlink:title="tools.hpp">
<polygon fill="none" stroke="black" points="174,-56.5 174,-75.5 230,-75.5 230,-56.5 174,-56.5"/>
<text text-anchor="middle" x="202" y="-63.5" font-family="Helvetica,sans-Serif" font-size="10.00">tools.hpp</text>
</a>
</g>
</g>
<!-- Node1&#45;&gt;Node4 -->
<g id="edge3" class="edge"><title>Node1&#45;&gt;Node4</title>
<path fill="none" stroke="midnightblue" d="M142.407,-112.324C153.109,-104.185 169.341,-91.8395 182.163,-82.0874"/>
<polygon fill="midnightblue" stroke="midnightblue" points="184.544,-84.6734 190.385,-75.8339 180.307,-79.1018 184.544,-84.6734"/>
</g>
<!-- Node5 -->
<g id="node5" class="node"><title>Node5</title>
<polygon fill="none" stroke="#bfbfbf" points="0,-0.5 0,-19.5 50,-19.5 50,-0.5 0,-0.5"/>
<text text-anchor="middle" x="25" y="-7.5" font-family="Helvetica,sans-Serif" font-size="10.00">QString</text>
</g>
<!-- Node4&#45;&gt;Node5 -->
<g id="edge4" class="edge"><title>Node4&#45;&gt;Node5</title>
<path fill="none" stroke="midnightblue" d="M173.954,-56.4435C143.035,-47.0106 93.258,-31.8245 59.8549,-21.6337"/>
<polygon fill="midnightblue" stroke="midnightblue" points="60.6393,-18.2138 50.0531,-18.6433 58.5966,-24.9091 60.6393,-18.2138"/>
</g>
<!-- Node6 -->
<g id="node6" class="node"><title>Node6</title>
<polygon fill="none" stroke="#bfbfbf" points="68.5,-0.5 68.5,-19.5 133.5,-19.5 133.5,-0.5 68.5,-0.5"/>
<text text-anchor="middle" x="101" y="-7.5" font-family="Helvetica,sans-Serif" font-size="10.00">QVector3D</text>
</g>
<!-- Node4&#45;&gt;Node6 -->
<g id="edge5" class="edge"><title>Node4&#45;&gt;Node6</title>
<path fill="none" stroke="midnightblue" d="M185.773,-56.324C169.649,-47.7034 144.7,-34.3643 126.036,-24.3855"/>
<polygon fill="midnightblue" stroke="midnightblue" points="127.656,-21.283 117.187,-19.6545 124.356,-27.456 127.656,-21.283"/>
</g>
<!-- Node7 -->
<g id="node7" class="node"><title>Node7</title>
<polygon fill="none" stroke="#bfbfbf" points="152,-0.5 152,-19.5 192,-19.5 192,-0.5 152,-0.5"/>
<text text-anchor="middle" x="172" y="-7.5" font-family="Helvetica,sans-Serif" font-size="10.00">QList</text>
</g>
<!-- Node4&#45;&gt;Node7 -->
<g id="edge6" class="edge"><title>Node4&#45;&gt;Node7</title>
<path fill="none" stroke="midnightblue" d="M197.046,-56.083C192.896,-48.6127 186.847,-37.7244 181.733,-28.5199"/>
<polygon fill="midnightblue" stroke="midnightblue" points="184.778,-26.7929 176.862,-19.7511 178.659,-30.1924 184.778,-26.7929"/>
</g>
<!-- Node8 -->
<g id="node8" class="node"><title>Node8</title>
<polygon fill="none" stroke="#bfbfbf" points="210.5,-0.5 210.5,-19.5 253.5,-19.5 253.5,-0.5 210.5,-0.5"/>
<text text-anchor="middle" x="232" y="-7.5" font-family="Helvetica,sans-Serif" font-size="10.00">QMap</text>
</g>
<!-- Node4&#45;&gt;Node8 -->
<g id="edge7" class="edge"><title>Node4&#45;&gt;Node8</title>
<path fill="none" stroke="midnightblue" d="M206.954,-56.083C211.104,-48.6127 217.153,-37.7244 222.267,-28.5199"/>
<polygon fill="midnightblue" stroke="midnightblue" points="225.341,-30.1924 227.138,-19.7511 219.222,-26.7929 225.341,-30.1924"/>
</g>
<!-- Node9 -->
<g id="node9" class="node"><title>Node9</title>
<polygon fill="none" stroke="#bfbfbf" points="271.5,-0.5 271.5,-19.5 362.5,-19.5 362.5,-0.5 271.5,-0.5"/>
<text text-anchor="middle" x="317" y="-7.5" font-family="Helvetica,sans-Serif" font-size="10.00">QGraphicsScene</text>
</g>
<!-- Node4&#45;&gt;Node9 -->
<g id="edge8" class="edge"><title>Node4&#45;&gt;Node9</title>
<path fill="none" stroke="midnightblue" d="M220.222,-56.4435C238.896,-47.6751 268.156,-33.9355 289.617,-23.8579"/>
<polygon fill="midnightblue" stroke="midnightblue" points="291.299,-26.935 298.863,-19.5164 288.324,-20.5988 291.299,-26.935"/>
</g>
<!-- Node10 -->
<g id="node10" class="node"><title>Node10</title>
<polygon fill="none" stroke="#bfbfbf" points="380.5,-0.5 380.5,-19.5 427.5,-19.5 427.5,-0.5 380.5,-0.5"/>
<text text-anchor="middle" x="404" y="-7.5" font-family="Helvetica,sans-Serif" font-size="10.00">math.h</text>
</g>
<!-- Node4&#45;&gt;Node10 -->
<g id="edge9" class="edge"><title>Node4&#45;&gt;Node10</title>
<path fill="none" stroke="midnightblue" d="M230.012,-57.7263C261.827,-49.4342 315.547,-35.3403 370.364,-20.4201"/>
<polygon fill="midnightblue" stroke="midnightblue" points="371.519,-23.7331 380.246,-17.7248 369.677,-16.9798 371.519,-23.7331"/>
</g>
</g>
</svg>
