<?xml version="1.0" encoding="UTF-8" standalone="no"?>
<!DOCTYPE svg PUBLIC "-//W3C//DTD SVG 1.1//EN"
 "http://www.w3.org/Graphics/SVG/1.1/DTD/svg11.dtd">
<!-- Generated by graphviz version 2.38.0 (20140413.2041)
 -->
<!-- Title: engine/TextureLibrary/TextureLibrary.hpp Pages: 1 -->
<svg width="244pt" height="151pt"
 viewBox="0.00 0.00 243.50 151.00" xmlns="http://www.w3.org/2000/svg" xmlns:xlink="http://www.w3.org/1999/xlink">
<g id="graph0" class="graph" transform="scale(1 1) rotate(0) translate(4 147)">
<title>engine/TextureLibrary/TextureLibrary.hpp</title>
<!-- Node1 -->
<g id="node1" class="node"><title>Node1</title>
<polygon fill="#bfbfbf" stroke="black" points="84,-112.5 84,-142.5 194,-142.5 194,-112.5 84,-112.5"/>
<text text-anchor="start" x="92" y="-130.5" font-family="Helvetica,sans-Serif" font-size="10.00">engine/TextureLibrary</text>
<text text-anchor="middle" x="139" y="-119.5" font-family="Helvetica,sans-Serif" font-size="10.00">/TextureLibrary.hpp</text>
</g>
<!-- Node2 -->
<g id="node2" class="node"><title>Node2</title>
<g id="a_node2"><a xlink:href="../../df/d67/Library_8hpp.html" target="_top" xlink:title="Library.hpp">
<polygon fill="none" stroke="black" points="55.5,-56.5 55.5,-75.5 120.5,-75.5 120.5,-56.5 55.5,-56.5"/>
<text text-anchor="middle" x="88" y="-63.5" font-family="Helvetica,sans-Serif" font-size="10.00">Library.hpp</text>
</a>
</g>
</g>
<!-- Node1&#45;&gt;Node2 -->
<g id="edge1" class="edge"><title>Node1&#45;&gt;Node2</title>
<path fill="none" stroke="midnightblue" d="M126.914,-112.399C119.426,-103.664 109.782,-92.4126 101.968,-83.2962"/>
<polygon fill="midnightblue" stroke="midnightblue" points="104.586,-80.9726 95.421,-75.6578 99.2715,-85.5281 104.586,-80.9726"/>
</g>
<!-- Node5 -->
<g id="node5" class="node"><title>Node5</title>
<g id="a_node5"><a xlink:href="../../d0/ddc/Texture_8hpp.html" target="_top" xlink:title="Texture.hpp">
<polygon fill="none" stroke="black" points="157,-56.5 157,-75.5 225,-75.5 225,-56.5 157,-56.5"/>
<text text-anchor="middle" x="191" y="-63.5" font-family="Helvetica,sans-Serif" font-size="10.00">Texture.hpp</text>
</a>
</g>
</g>
<!-- Node1&#45;&gt;Node5 -->
<g id="edge5" class="edge"><title>Node1&#45;&gt;Node5</title>
<path fill="none" stroke="midnightblue" d="M151.323,-112.399C158.957,-103.664 168.791,-92.4126 176.758,-83.2962"/>
<polygon fill="midnightblue" stroke="midnightblue" points="179.488,-85.4907 183.434,-75.6578 174.218,-80.8843 179.488,-85.4907"/>
</g>
<!-- Node2&#45;&gt;Node2 -->
<g id="edge4" class="edge"><title>Node2&#45;&gt;Node2</title>
<path fill="none" stroke="midnightblue" d="M109.538,-75.5252C124.173,-78.3079 138.5,-75.1328 138.5,-66 138.5,-59.0077 130.102,-55.5077 119.597,-55.5"/>
<polygon fill="midnightblue" stroke="midnightblue" points="119.154,-52.0265 109.538,-56.4748 119.829,-58.9938 119.154,-52.0265"/>
</g>
<!-- Node3 -->
<g id="node3" class="node"><title>Node3</title>
<polygon fill="none" stroke="#bfbfbf" points="0,-0.5 0,-19.5 44,-19.5 44,-0.5 0,-0.5"/>
<text text-anchor="middle" x="22" y="-7.5" font-family="Helvetica,sans-Serif" font-size="10.00">vector</text>
</g>
<!-- Node2&#45;&gt;Node3 -->
<g id="edge2" class="edge"><title>Node2&#45;&gt;Node3</title>
<path fill="none" stroke="midnightblue" d="M77.396,-56.324C67.5438,-48.2631 52.6491,-36.0765 40.7849,-26.3695"/>
<polygon fill="midnightblue" stroke="midnightblue" points="42.7529,-23.4575 32.797,-19.8339 38.3202,-28.8752 42.7529,-23.4575"/>
</g>
<!-- Node4 -->
<g id="node4" class="node"><title>Node4</title>
<polygon fill="none" stroke="#bfbfbf" points="62,-0.5 62,-19.5 124,-19.5 124,-0.5 62,-0.5"/>
<text text-anchor="middle" x="93" y="-7.5" font-family="Helvetica,sans-Serif" font-size="10.00">Library.tpp</text>
</g>
<!-- Node2&#45;&gt;Node4 -->
<g id="edge3" class="edge"><title>Node2&#45;&gt;Node4</title>
<path fill="none" stroke="midnightblue" d="M88.8256,-56.083C89.4809,-49.0059 90.4203,-38.8611 91.242,-29.9865"/>
<polygon fill="midnightblue" stroke="midnightblue" points="94.7527,-30.0312 92.1897,-19.7511 87.7826,-29.3858 94.7527,-30.0312"/>
</g>
<!-- Node6 -->
<g id="node6" class="node"><title>Node6</title>
<polygon fill="none" stroke="#bfbfbf" points="146.5,-0.5 146.5,-19.5 235.5,-19.5 235.5,-0.5 146.5,-0.5"/>
<text text-anchor="middle" x="191" y="-7.5" font-family="Helvetica,sans-Serif" font-size="10.00">assimp/texture.h</text>
</g>
<!-- Node5&#45;&gt;Node6 -->
<g id="edge6" class="edge"><title>Node5&#45;&gt;Node6</title>
<path fill="none" stroke="midnightblue" d="M191,-56.083C191,-49.0059 191,-38.8611 191,-29.9865"/>
<polygon fill="midnightblue" stroke="midnightblue" points="194.5,-29.751 191,-19.7511 187.5,-29.7511 194.5,-29.751"/>
</g>
</g>
</svg>
