<?xml version="1.0" encoding="UTF-8" standalone="no"?>
<!DOCTYPE svg PUBLIC "-//W3C//DTD SVG 1.1//EN"
 "http://www.w3.org/Graphics/SVG/1.1/DTD/svg11.dtd">
<!-- Generated by graphviz version 2.38.0 (20140413.2041)
 -->
<!-- Title: engine/Entity/Entity.hpp Pages: 1 -->
<svg width="939pt" height="218pt"
 viewBox="0.00 0.00 939.00 218.00" xmlns="http://www.w3.org/2000/svg" xmlns:xlink="http://www.w3.org/1999/xlink">
<g id="graph0" class="graph" transform="scale(1 1) rotate(0) translate(4 214)">
<title>engine/Entity/Entity.hpp</title>
<!-- Node1 -->
<g id="node1" class="node"><title>Node1</title>
<polygon fill="#bfbfbf" stroke="black" points="536,-190.5 536,-209.5 657,-209.5 657,-190.5 536,-190.5"/>
<text text-anchor="middle" x="596.5" y="-197.5" font-family="Helvetica,sans-Serif" font-size="10.00">engine/Entity/Entity.hpp</text>
</g>
<!-- Node2 -->
<g id="node2" class="node"><title>Node2</title>
<g id="a_node2"><a xlink:href="../../d6/d80/Camera_8hpp.html" target="_top" xlink:title="engine/Camera/Camera.hpp">
<polygon fill="none" stroke="black" points="292,-134.5 292,-153.5 431,-153.5 431,-134.5 292,-134.5"/>
<text text-anchor="middle" x="361.5" y="-141.5" font-family="Helvetica,sans-Serif" font-size="10.00">engine/Camera/Camera.hpp</text>
</a>
</g>
</g>
<!-- Node1&#45;&gt;Node2 -->
<g id="edge1" class="edge"><title>Node1&#45;&gt;Node2</title>
<path fill="none" stroke="midnightblue" d="M549.295,-188.153C504.893,-177.95 439.315,-162.881 398.562,-153.516"/>
<polygon fill="midnightblue" stroke="midnightblue" points="548.734,-191.615 559.264,-190.444 550.301,-184.793 548.734,-191.615"/>
</g>
<!-- Node9 -->
<g id="node9" class="node"><title>Node9</title>
<g id="a_node9"><a xlink:href="../../df/de9/Entity_8cpp.html" target="_top" xlink:title="engine/Entity/Entity.cpp">
<polygon fill="none" stroke="black" points="750,-134.5 750,-153.5 871,-153.5 871,-134.5 750,-134.5"/>
<text text-anchor="middle" x="810.5" y="-141.5" font-family="Helvetica,sans-Serif" font-size="10.00">engine/Entity/Entity.cpp</text>
</a>
</g>
</g>
<!-- Node1&#45;&gt;Node9 -->
<g id="edge8" class="edge"><title>Node1&#45;&gt;Node9</title>
<path fill="none" stroke="midnightblue" d="M640.255,-187.959C680.674,-177.76 739.873,-162.822 776.75,-153.516"/>
<polygon fill="midnightblue" stroke="midnightblue" points="639.249,-184.603 630.409,-190.444 640.961,-191.39 639.249,-184.603"/>
</g>
<!-- Node10 -->
<g id="node10" class="node"><title>Node10</title>
<g id="a_node10"><a xlink:href="../../d5/dd5/Light_8hpp.html" target="_top" xlink:title="engine/Light/Light.hpp">
<polygon fill="none" stroke="black" points="469.5,-134.5 469.5,-153.5 581.5,-153.5 581.5,-134.5 469.5,-134.5"/>
<text text-anchor="middle" x="525.5" y="-141.5" font-family="Helvetica,sans-Serif" font-size="10.00">engine/Light/Light.hpp</text>
</a>
</g>
</g>
<!-- Node1&#45;&gt;Node10 -->
<g id="edge9" class="edge"><title>Node1&#45;&gt;Node10</title>
<path fill="none" stroke="midnightblue" d="M576.91,-184.101C564.132,-174.382 547.887,-162.027 537.115,-153.834"/>
<polygon fill="midnightblue" stroke="midnightblue" points="575.014,-187.056 585.093,-190.324 579.252,-181.484 575.014,-187.056"/>
</g>
<!-- Node12 -->
<g id="node12" class="node"><title>Node12</title>
<g id="a_node12"><a xlink:href="../../d7/d3f/Object_8hpp.html" target="_top" xlink:title="engine/Object/Object.hpp">
<polygon fill="none" stroke="black" points="605,-134.5 605,-153.5 732,-153.5 732,-134.5 605,-134.5"/>
<text text-anchor="middle" x="668.5" y="-141.5" font-family="Helvetica,sans-Serif" font-size="10.00">engine/Object/Object.hpp</text>
</a>
</g>
</g>
<!-- Node1&#45;&gt;Node12 -->
<g id="edge14" class="edge"><title>Node1&#45;&gt;Node12</title>
<path fill="none" stroke="midnightblue" d="M616.366,-184.101C629.323,-174.382 645.797,-162.027 656.721,-153.834"/>
<polygon fill="midnightblue" stroke="midnightblue" points="613.968,-181.524 608.068,-190.324 618.168,-187.124 613.968,-181.524"/>
</g>
<!-- Node3 -->
<g id="node3" class="node"><title>Node3</title>
<g id="a_node3"><a xlink:href="../../da/d8c/Camera_8cpp.html" target="_top" xlink:title="engine/Camera/Camera.cpp">
<polygon fill="none" stroke="black" points="0,-73 0,-92 139,-92 139,-73 0,-73"/>
<text text-anchor="middle" x="69.5" y="-80" font-family="Helvetica,sans-Serif" font-size="10.00">engine/Camera/Camera.cpp</text>
</a>
</g>
</g>
<!-- Node2&#45;&gt;Node3 -->
<g id="edge2" class="edge"><title>Node2&#45;&gt;Node3</title>
<path fill="none" stroke="midnightblue" d="M309.843,-132.474C253.252,-120.943 163.587,-102.672 111.259,-92.0091"/>
<polygon fill="midnightblue" stroke="midnightblue" points="309.166,-135.908 319.664,-134.475 310.564,-129.049 309.166,-135.908"/>
</g>
<!-- Node4 -->
<g id="node4" class="node"><title>Node4</title>
<g id="a_node4"><a xlink:href="../../d4/d3e/PerspectiveCamera_8hpp.html" target="_top" xlink:title="engine/PerspectiveCamera\l/PerspectiveCamera.hpp">
<polygon fill="none" stroke="black" points="157.5,-67.5 157.5,-97.5 291.5,-97.5 291.5,-67.5 157.5,-67.5"/>
<text text-anchor="start" x="165.5" y="-85.5" font-family="Helvetica,sans-Serif" font-size="10.00">engine/PerspectiveCamera</text>
<text text-anchor="middle" x="224.5" y="-74.5" font-family="Helvetica,sans-Serif" font-size="10.00">/PerspectiveCamera.hpp</text>
</a>
</g>
</g>
<!-- Node2&#45;&gt;Node4 -->
<g id="edge3" class="edge"><title>Node2&#45;&gt;Node4</title>
<path fill="none" stroke="midnightblue" d="M332.628,-130.461C310.437,-120.823 279.79,-107.513 256.788,-97.523"/>
<polygon fill="midnightblue" stroke="midnightblue" points="331.305,-133.702 341.871,-134.475 334.093,-127.281 331.305,-133.702"/>
</g>
<!-- Node7 -->
<g id="node7" class="node"><title>Node7</title>
<g id="a_node7"><a xlink:href="../../d3/d28/Renderer_8cpp.html" target="_top" xlink:title="engine/Renderer/Renderer.cpp">
<polygon fill="none" stroke="black" points="599,-73 599,-92 748,-92 748,-73 599,-73"/>
<text text-anchor="middle" x="673.5" y="-80" font-family="Helvetica,sans-Serif" font-size="10.00">engine/Renderer/Renderer.cpp</text>
</a>
</g>
</g>
<!-- Node2&#45;&gt;Node7 -->
<g id="edge6" class="edge"><title>Node2&#45;&gt;Node7</title>
<path fill="none" stroke="midnightblue" d="M416.32,-132.546C476.765,-121.018 572.853,-102.694 628.881,-92.0091"/>
<polygon fill="midnightblue" stroke="midnightblue" points="415.369,-129.164 406.202,-134.475 416.681,-136.04 415.369,-129.164"/>
</g>
<!-- Node8 -->
<g id="node8" class="node"><title>Node8</title>
<g id="a_node8"><a xlink:href="../../d3/d35/SpatialGraph_8cpp.html" target="_top" xlink:title="engine/SpatialGraph\l/SpatialGraph.cpp">
<polygon fill="none" stroke="black" points="309.5,-67.5 309.5,-97.5 413.5,-97.5 413.5,-67.5 309.5,-67.5"/>
<text text-anchor="start" x="317.5" y="-85.5" font-family="Helvetica,sans-Serif" font-size="10.00">engine/SpatialGraph</text>
<text text-anchor="middle" x="361.5" y="-74.5" font-family="Helvetica,sans-Serif" font-size="10.00">/SpatialGraph.cpp</text>
</a>
</g>
</g>
<!-- Node2&#45;&gt;Node8 -->
<g id="edge7" class="edge"><title>Node2&#45;&gt;Node8</title>
<path fill="none" stroke="midnightblue" d="M361.5,-124.235C361.5,-115.586 361.5,-105.497 361.5,-97.523"/>
<polygon fill="midnightblue" stroke="midnightblue" points="358,-124.475 361.5,-134.475 365,-124.475 358,-124.475"/>
</g>
<!-- Node5 -->
<g id="node5" class="node"><title>Node5</title>
<g id="a_node5"><a xlink:href="../../da/daf/PerspectiveCamera_8cpp.html" target="_top" xlink:title="engine/PerspectiveCamera\l/PerspectiveCamera.cpp">
<polygon fill="none" stroke="black" points="157.5,-0.5 157.5,-30.5 291.5,-30.5 291.5,-0.5 157.5,-0.5"/>
<text text-anchor="start" x="165.5" y="-18.5" font-family="Helvetica,sans-Serif" font-size="10.00">engine/PerspectiveCamera</text>
<text text-anchor="middle" x="224.5" y="-7.5" font-family="Helvetica,sans-Serif" font-size="10.00">/PerspectiveCamera.cpp</text>
</a>
</g>
</g>
<!-- Node4&#45;&gt;Node5 -->
<g id="edge4" class="edge"><title>Node4&#45;&gt;Node5</title>
<path fill="none" stroke="midnightblue" d="M224.5,-57.1081C224.5,-48.1539 224.5,-38.3227 224.5,-30.5765"/>
<polygon fill="midnightblue" stroke="midnightblue" points="221,-57.3959 224.5,-67.396 228,-57.396 221,-57.3959"/>
</g>
<!-- Node6 -->
<g id="node6" class="node"><title>Node6</title>
<g id="a_node6"><a xlink:href="../../d2/d22/SceneGraphNode_8cpp.html" target="_top" xlink:title="engine/SceneGraphNode\l/SceneGraphNode.cpp">
<polygon fill="none" stroke="black" points="379,-0.5 379,-30.5 504,-30.5 504,-0.5 379,-0.5"/>
<text text-anchor="start" x="387" y="-18.5" font-family="Helvetica,sans-Serif" font-size="10.00">engine/SceneGraphNode</text>
<text text-anchor="middle" x="441.5" y="-7.5" font-family="Helvetica,sans-Serif" font-size="10.00">/SceneGraphNode.cpp</text>
</a>
</g>
</g>
<!-- Node4&#45;&gt;Node6 -->
<g id="edge5" class="edge"><title>Node4&#45;&gt;Node6</title>
<path fill="none" stroke="midnightblue" d="M280.988,-64.5797C316.233,-54.0225 361.069,-40.5921 394.391,-30.6109"/>
<polygon fill="midnightblue" stroke="midnightblue" points="279.894,-61.2537 271.319,-67.476 281.902,-67.9593 279.894,-61.2537"/>
</g>
<!-- Node10&#45;&gt;Node6 -->
<g id="edge12" class="edge"><title>Node10&#45;&gt;Node6</title>
<path fill="none" stroke="midnightblue" d="M496.967,-129.445C484.001,-121.907 469.567,-111.334 460.5,-98 446.531,-77.4553 442.746,-47.9932 441.773,-30.6934"/>
<polygon fill="midnightblue" stroke="midnightblue" points="495.595,-132.683 506.051,-134.393 498.944,-126.536 495.595,-132.683"/>
</g>
<!-- Node10&#45;&gt;Node7 -->
<g id="edge11" class="edge"><title>Node10&#45;&gt;Node7</title>
<path fill="none" stroke="midnightblue" d="M556.266,-130.631C585.019,-119.072 627.185,-102.12 652.335,-92.0091"/>
<polygon fill="midnightblue" stroke="midnightblue" points="554.678,-127.498 546.705,-134.475 557.289,-133.992 554.678,-127.498"/>
</g>
<!-- Node10&#45;&gt;Node8 -->
<g id="edge13" class="edge"><title>Node10&#45;&gt;Node8</title>
<path fill="none" stroke="midnightblue" d="M492.357,-130.976C465.693,-121.302 428.18,-107.692 400.152,-97.523"/>
<polygon fill="midnightblue" stroke="midnightblue" points="491.409,-134.355 502.003,-134.475 493.796,-127.774 491.409,-134.355"/>
</g>
<!-- Node11 -->
<g id="node11" class="node"><title>Node11</title>
<g id="a_node11"><a xlink:href="../../d2/d41/Light_8cpp.html" target="_top" xlink:title="engine/Light/Light.cpp">
<polygon fill="none" stroke="black" points="469.5,-73 469.5,-92 581.5,-92 581.5,-73 469.5,-73"/>
<text text-anchor="middle" x="525.5" y="-80" font-family="Helvetica,sans-Serif" font-size="10.00">engine/Light/Light.cpp</text>
</a>
</g>
</g>
<!-- Node10&#45;&gt;Node11 -->
<g id="edge10" class="edge"><title>Node10&#45;&gt;Node11</title>
<path fill="none" stroke="midnightblue" d="M525.5,-124.317C525.5,-113.496 525.5,-100.398 525.5,-92.0091"/>
<polygon fill="midnightblue" stroke="midnightblue" points="522,-124.475 525.5,-134.475 529,-124.475 522,-124.475"/>
</g>
<!-- Node12&#45;&gt;Node6 -->
<g id="edge17" class="edge"><title>Node12&#45;&gt;Node6</title>
<path fill="none" stroke="midnightblue" d="M714.772,-130.728C731.189,-123.904 747.947,-113.535 757.5,-98 764.717,-86.2637 766.441,-77.4829 757.5,-67 725.594,-29.59 586.746,-19.7699 504.09,-17.2716"/>
<polygon fill="midnightblue" stroke="midnightblue" points="713.317,-127.537 705.202,-134.349 715.794,-134.084 713.317,-127.537"/>
</g>
<!-- Node12&#45;&gt;Node7 -->
<g id="edge16" class="edge"><title>Node12&#45;&gt;Node7</title>
<path fill="none" stroke="midnightblue" d="M670.07,-124.317C670.979,-113.496 672.08,-100.398 672.785,-92.0091"/>
<polygon fill="midnightblue" stroke="midnightblue" points="666.566,-124.217 669.216,-134.475 673.542,-124.803 666.566,-124.217"/>
</g>
<!-- Node12&#45;&gt;Node8 -->
<g id="edge18" class="edge"><title>Node12&#45;&gt;Node8</title>
<path fill="none" stroke="midnightblue" d="M614.676,-132.568C558.064,-121.596 469.584,-104.448 413.622,-93.6018"/>
<polygon fill="midnightblue" stroke="midnightblue" points="614.031,-136.008 624.514,-134.475 615.363,-129.136 614.031,-136.008"/>
</g>
<!-- Node13 -->
<g id="node13" class="node"><title>Node13</title>
<g id="a_node13"><a xlink:href="../../de/d4f/Object_8cpp.html" target="_top" xlink:title="engine/Object/Object.cpp">
<polygon fill="none" stroke="black" points="804,-73 804,-92 931,-92 931,-73 804,-73"/>
<text text-anchor="middle" x="867.5" y="-80" font-family="Helvetica,sans-Serif" font-size="10.00">engine/Object/Object.cpp</text>
</a>
</g>
</g>
<!-- Node12&#45;&gt;Node13 -->
<g id="edge15" class="edge"><title>Node12&#45;&gt;Node13</title>
<path fill="none" stroke="midnightblue" d="M706.867,-131.529C745.542,-119.965 804.339,-102.385 839.041,-92.0091"/>
<polygon fill="midnightblue" stroke="midnightblue" points="705.59,-128.257 697.012,-134.475 707.595,-134.964 705.59,-128.257"/>
</g>
</g>
</svg>
