<?xml version="1.0" encoding="UTF-8" standalone="no"?>
<!DOCTYPE svg PUBLIC "-//W3C//DTD SVG 1.1//EN"
 "http://www.w3.org/Graphics/SVG/1.1/DTD/svg11.dtd">
<!-- Generated by graphviz version 2.38.0 (20140413.2041)
 -->
<!-- Title: window/toolwidget.h Pages: 1 -->
<svg width="436pt" height="196pt"
 viewBox="0.00 0.00 435.50 196.00" xmlns="http://www.w3.org/2000/svg" xmlns:xlink="http://www.w3.org/1999/xlink">
<g id="graph0" class="graph" transform="scale(1 1) rotate(0) translate(4 192)">
<title>window/toolwidget.h</title>
<!-- Node1 -->
<g id="node1" class="node"><title>Node1</title>
<polygon fill="#bfbfbf" stroke="black" points="102.5,-168.5 102.5,-187.5 207.5,-187.5 207.5,-168.5 102.5,-168.5"/>
<text text-anchor="middle" x="155" y="-175.5" font-family="Helvetica,sans-Serif" font-size="10.00">window/toolwidget.h</text>
</g>
<!-- Node2 -->
<g id="node2" class="node"><title>Node2</title>
<polygon fill="none" stroke="#bfbfbf" points="72.5,-112.5 72.5,-131.5 143.5,-131.5 143.5,-112.5 72.5,-112.5"/>
<text text-anchor="middle" x="108" y="-119.5" font-family="Helvetica,sans-Serif" font-size="10.00">QTabWidget</text>
</g>
<!-- Node1&#45;&gt;Node2 -->
<g id="edge1" class="edge"><title>Node1&#45;&gt;Node2</title>
<path fill="none" stroke="midnightblue" d="M147.239,-168.083C140.463,-160.298 130.457,-148.801 122.245,-139.367"/>
<polygon fill="midnightblue" stroke="midnightblue" points="124.822,-136.996 115.617,-131.751 119.542,-141.592 124.822,-136.996"/>
</g>
<!-- Node3 -->
<g id="node3" class="node"><title>Node3</title>
<g id="a_node3"><a xlink:href="../../dc/d51/model_8h.html" target="_top" xlink:title="model/model.h">
<polygon fill="none" stroke="black" points="162,-112.5 162,-131.5 242,-131.5 242,-112.5 162,-112.5"/>
<text text-anchor="middle" x="202" y="-119.5" font-family="Helvetica,sans-Serif" font-size="10.00">model/model.h</text>
</a>
</g>
</g>
<!-- Node1&#45;&gt;Node3 -->
<g id="edge2" class="edge"><title>Node1&#45;&gt;Node3</title>
<path fill="none" stroke="midnightblue" d="M162.761,-168.083C169.537,-160.298 179.543,-148.801 187.755,-139.367"/>
<polygon fill="midnightblue" stroke="midnightblue" points="190.458,-141.592 194.383,-131.751 185.178,-136.996 190.458,-141.592"/>
</g>
<!-- Node4 -->
<g id="node4" class="node"><title>Node4</title>
<g id="a_node4"><a xlink:href="../../d5/da5/tools_8h.html" target="_top" xlink:title="tools.h">
<polygon fill="none" stroke="black" points="179,-56.5 179,-75.5 225,-75.5 225,-56.5 179,-56.5"/>
<text text-anchor="middle" x="202" y="-63.5" font-family="Helvetica,sans-Serif" font-size="10.00">tools.h</text>
</a>
</g>
</g>
<!-- Node3&#45;&gt;Node4 -->
<g id="edge3" class="edge"><title>Node3&#45;&gt;Node4</title>
<path fill="none" stroke="midnightblue" d="M202,-112.083C202,-105.006 202,-94.8611 202,-85.9865"/>
<polygon fill="midnightblue" stroke="midnightblue" points="205.5,-85.751 202,-75.7511 198.5,-85.7511 205.5,-85.751"/>
</g>
<!-- Node5 -->
<g id="node5" class="node"><title>Node5</title>
<polygon fill="none" stroke="#bfbfbf" points="0,-0.5 0,-19.5 50,-19.5 50,-0.5 0,-0.5"/>
<text text-anchor="middle" x="25" y="-7.5" font-family="Helvetica,sans-Serif" font-size="10.00">QString</text>
</g>
<!-- Node4&#45;&gt;Node5 -->
<g id="edge4" class="edge"><title>Node4&#45;&gt;Node5</title>
<path fill="none" stroke="midnightblue" d="M178.86,-57.9404C148.583,-48.7033 95.2458,-32.4309 60.011,-21.6813"/>
<polygon fill="midnightblue" stroke="midnightblue" points="60.7315,-18.2419 50.1454,-18.6715 58.6889,-24.9373 60.7315,-18.2419"/>
</g>
<!-- Node6 -->
<g id="node6" class="node"><title>Node6</title>
<polygon fill="none" stroke="#bfbfbf" points="68.5,-0.5 68.5,-19.5 133.5,-19.5 133.5,-0.5 68.5,-0.5"/>
<text text-anchor="middle" x="101" y="-7.5" font-family="Helvetica,sans-Serif" font-size="10.00">QVector3D</text>
</g>
<!-- Node4&#45;&gt;Node6 -->
<g id="edge5" class="edge"><title>Node4&#45;&gt;Node6</title>
<path fill="none" stroke="midnightblue" d="M185.773,-56.324C169.649,-47.7034 144.7,-34.3643 126.036,-24.3855"/>
<polygon fill="midnightblue" stroke="midnightblue" points="127.656,-21.283 117.187,-19.6545 124.356,-27.456 127.656,-21.283"/>
</g>
<!-- Node7 -->
<g id="node7" class="node"><title>Node7</title>
<polygon fill="none" stroke="#bfbfbf" points="152,-0.5 152,-19.5 192,-19.5 192,-0.5 152,-0.5"/>
<text text-anchor="middle" x="172" y="-7.5" font-family="Helvetica,sans-Serif" font-size="10.00">QList</text>
</g>
<!-- Node4&#45;&gt;Node7 -->
<g id="edge6" class="edge"><title>Node4&#45;&gt;Node7</title>
<path fill="none" stroke="midnightblue" d="M197.046,-56.083C192.896,-48.6127 186.847,-37.7244 181.733,-28.5199"/>
<polygon fill="midnightblue" stroke="midnightblue" points="184.778,-26.7929 176.862,-19.7511 178.659,-30.1924 184.778,-26.7929"/>
</g>
<!-- Node8 -->
<g id="node8" class="node"><title>Node8</title>
<polygon fill="none" stroke="#bfbfbf" points="210.5,-0.5 210.5,-19.5 253.5,-19.5 253.5,-0.5 210.5,-0.5"/>
<text text-anchor="middle" x="232" y="-7.5" font-family="Helvetica,sans-Serif" font-size="10.00">QMap</text>
</g>
<!-- Node4&#45;&gt;Node8 -->
<g id="edge7" class="edge"><title>Node4&#45;&gt;Node8</title>
<path fill="none" stroke="midnightblue" d="M206.954,-56.083C211.104,-48.6127 217.153,-37.7244 222.267,-28.5199"/>
<polygon fill="midnightblue" stroke="midnightblue" points="225.341,-30.1924 227.138,-19.7511 219.222,-26.7929 225.341,-30.1924"/>
</g>
<!-- Node9 -->
<g id="node9" class="node"><title>Node9</title>
<polygon fill="none" stroke="#bfbfbf" points="271.5,-0.5 271.5,-19.5 362.5,-19.5 362.5,-0.5 271.5,-0.5"/>
<text text-anchor="middle" x="317" y="-7.5" font-family="Helvetica,sans-Serif" font-size="10.00">QGraphicsScene</text>
</g>
<!-- Node4&#45;&gt;Node9 -->
<g id="edge8" class="edge"><title>Node4&#45;&gt;Node9</title>
<path fill="none" stroke="midnightblue" d="M220.222,-56.4435C238.896,-47.6751 268.156,-33.9355 289.617,-23.8579"/>
<polygon fill="midnightblue" stroke="midnightblue" points="291.299,-26.935 298.863,-19.5164 288.324,-20.5988 291.299,-26.935"/>
</g>
<!-- Node10 -->
<g id="node10" class="node"><title>Node10</title>
<polygon fill="none" stroke="#bfbfbf" points="380.5,-0.5 380.5,-19.5 427.5,-19.5 427.5,-0.5 380.5,-0.5"/>
<text text-anchor="middle" x="404" y="-7.5" font-family="Helvetica,sans-Serif" font-size="10.00">math.h</text>
</g>
<!-- Node4&#45;&gt;Node10 -->
<g id="edge9" class="edge"><title>Node4&#45;&gt;Node10</title>
<path fill="none" stroke="midnightblue" d="M225.128,-58.9985C256.074,-50.9421 312.911,-36.0555 370.287,-20.4409"/>
<polygon fill="midnightblue" stroke="midnightblue" points="371.519,-23.7329 380.246,-17.7248 369.677,-16.9795 371.519,-23.7329"/>
</g>
</g>
</svg>
