<?xml version="1.0" encoding="UTF-8" standalone="no"?>
<!DOCTYPE svg PUBLIC "-//W3C//DTD SVG 1.1//EN"
 "http://www.w3.org/Graphics/SVG/1.1/DTD/svg11.dtd">
<!-- Generated by graphviz version 2.38.0 (20140413.2041)
 -->
<!-- Title: engine/GameEngine/GameEngine.cpp Pages: 1 -->
<!--zoomable 364 -->
<svg id="main" version="1.1" xmlns="http://www.w3.org/2000/svg" xmlns:xlink="http://www.w3.org/1999/xlink" xml:space="preserve" onload="init(evt)">
<style type="text/css"><![CDATA[
.edge:hover path { stroke: red; }
.edge:hover polygon { stroke: red; fill: red; }
]]></style>
<script type="text/javascript"><![CDATA[
var edges = document.getElementsByTagName('g');
if (edges && edges.length) {
  for (var i=0;i<edges.length;i++) {
    if (edges[i].id.substr(0,4)=='edge') {
      edges[i].setAttribute('class','edge');
    }
  }
}
]]></script>
        <defs>
                <circle id="rim" cx="0" cy="0" r="7"/>
                <circle id="rim2" cx="0" cy="0" r="3.5"/>
                <g id="zoomPlus">
                        <use xlink:href="#rim" fill="#404040">
                                <set attributeName="fill" to="#808080" begin="zoomplus.mouseover" end="zoomplus.mouseout"/>
                        </use>
                        <path d="M-4,0h8M0,-4v8" fill="none" stroke="white" stroke-width="1.5" pointer-events="none"/>
                </g>
                <g id="zoomMin">
                        <use xlink:href="#rim" fill="#404040">
                                <set attributeName="fill" to="#808080" begin="zoomminus.mouseover" end="zoomminus.mouseout"/>
                        </use>
                        <path d="M-4,0h8" fill="none" stroke="white" stroke-width="1.5" pointer-events="none"/>
                </g>
                <g id="dirArrow">
                        <path fill="none" stroke="white" stroke-width="1.5" d="M0,-3.0v7 M-2.5,-0.5L0,-3.0L2.5,-0.5"/>
                </g>
               <g id="resetDef">
                       <use xlink:href="#rim2" fill="#404040">
                               <set attributeName="fill" to="#808080" begin="reset.mouseover" end="reset.mouseout"/>
                       </use>
               </g>
        </defs>

<script type="text/javascript">
var viewWidth = 1407;
var viewHeight = 364;
var sectionId = 'dynsection-0';
</script>
<script xlink:href="../../svgpan.js"/>
<svg id="graph" class="graph">
<g id="viewport">
<title>engine/GameEngine/GameEngine.cpp</title>
<!-- Node1 -->
<g id="node1" class="node"><title>Node1</title>
<polygon fill="#bfbfbf" stroke="black" points="715.495,-336.5 715.495,-355.5 897.495,-355.5 897.495,-336.5 715.495,-336.5"/>
<text text-anchor="middle" x="806.495" y="-343.5" font-family="Helvetica,sans-Serif" font-size="10.00">engine/GameEngine/GameEngine.cpp</text>
</g>
<!-- Node2 -->
<g id="node2" class="node"><title>Node2</title>
<polygon fill="none" stroke="#bfbfbf" points="693.995,-280.5 693.995,-299.5 800.995,-299.5 800.995,-280.5 693.995,-280.5"/>
<text text-anchor="middle" x="747.495" y="-287.5" font-family="Helvetica,sans-Serif" font-size="10.00">log4cpp/Category.hh</text>
</g>
<!-- Node1&#45;&gt;Node2 -->
<g id="edge1" class="edge"><title>Node1&#45;&gt;Node2</title>
<path fill="none" stroke="midnightblue" d="M797.016,-336.324C788.294,-328.341 775.152,-316.313 764.598,-306.653"/>
<polygon fill="midnightblue" stroke="midnightblue" points="766.887,-304.004 757.147,-299.834 762.161,-309.167 766.887,-304.004"/>
</g>
<!-- Node3 -->
<g id="node3" class="node"><title>Node3</title>
<g id="a_node3"><a xlink:href="../../d4/d1c/GameEngine_8hpp.html" target="_top" xlink:title="GameEngine.hpp">
<polygon fill="none" stroke="black" points="819.495,-280.5 819.495,-299.5 911.495,-299.5 911.495,-280.5 819.495,-280.5"/>
<text text-anchor="middle" x="865.495" y="-287.5" font-family="Helvetica,sans-Serif" font-size="10.00">GameEngine.hpp</text>
</a>
</g>
</g>
<!-- Node1&#45;&gt;Node3 -->
<g id="edge2" class="edge"><title>Node1&#45;&gt;Node3</title>
<path fill="none" stroke="midnightblue" d="M815.975,-336.324C824.696,-328.341 837.839,-316.313 848.393,-306.653"/>
<polygon fill="midnightblue" stroke="midnightblue" points="850.83,-309.167 855.843,-299.834 846.104,-304.004 850.83,-309.167"/>
</g>
<!-- Node4 -->
<g id="node4" class="node"><title>Node4</title>
<g id="a_node4"><a xlink:href="../../de/df7/worldparticles_8hpp.html" target="_top" xlink:title="wordparticles configuration file ">
<polygon fill="none" stroke="black" points="720.995,-224.5 720.995,-243.5 815.995,-243.5 815.995,-224.5 720.995,-224.5"/>
<text text-anchor="middle" x="768.495" y="-231.5" font-family="Helvetica,sans-Serif" font-size="10.00">worldparticles.hpp</text>
</a>
</g>
</g>
<!-- Node3&#45;&gt;Node4 -->
<g id="edge3" class="edge"><title>Node3&#45;&gt;Node4</title>
<path fill="none" stroke="midnightblue" d="M849.911,-280.324C834.496,-271.743 810.683,-258.486 792.786,-248.522"/>
<polygon fill="midnightblue" stroke="midnightblue" points="794.481,-245.461 784.041,-243.655 791.076,-251.577 794.481,-245.461"/>
</g>
<!-- Node5 -->
<g id="node5" class="node"><title>Node5</title>
<g id="a_node5"><a xlink:href="../../db/de8/Scene_8hpp.html" target="_top" xlink:title="Scene.hpp">
<polygon fill="none" stroke="black" points="833.995,-224.5 833.995,-243.5 896.995,-243.5 896.995,-224.5 833.995,-224.5"/>
<text text-anchor="middle" x="865.495" y="-231.5" font-family="Helvetica,sans-Serif" font-size="10.00">Scene.hpp</text>
</a>
</g>
</g>
<!-- Node3&#45;&gt;Node5 -->
<g id="edge4" class="edge"><title>Node3&#45;&gt;Node5</title>
<path fill="none" stroke="midnightblue" d="M865.495,-280.083C865.495,-273.006 865.495,-262.861 865.495,-253.986"/>
<polygon fill="midnightblue" stroke="midnightblue" points="868.995,-253.751 865.495,-243.751 861.995,-253.751 868.995,-253.751"/>
</g>
<!-- Node37 -->
<g id="node37" class="node"><title>Node37</title>
<g id="a_node37"><a xlink:href="../../d0/dbd/AssimpImporter_8hpp.html" target="_top" xlink:title="AssimpImporter.hpp">
<polygon fill="none" stroke="black" points="1168.5,-168.5 1168.5,-187.5 1272.5,-187.5 1272.5,-168.5 1168.5,-168.5"/>
<text text-anchor="middle" x="1220.5" y="-175.5" font-family="Helvetica,sans-Serif" font-size="10.00">AssimpImporter.hpp</text>
</a>
</g>
</g>
<!-- Node3&#45;&gt;Node37 -->
<g id="edge59" class="edge"><title>Node3&#45;&gt;Node37</title>
<path fill="none" stroke="midnightblue" d="M893.056,-280.46C956.096,-260.926 1110.89,-212.963 1182.73,-190.702"/>
<polygon fill="midnightblue" stroke="midnightblue" points="1184.19,-193.913 1192.71,-187.61 1182.12,-187.227 1184.19,-193.913"/>
</g>
<!-- Node6 -->
<g id="node6" class="node"><title>Node6</title>
<polygon fill="none" stroke="#bfbfbf" points="110.495,-56.5 110.495,-75.5 162.495,-75.5 162.495,-56.5 110.495,-56.5"/>
<text text-anchor="middle" x="136.495" y="-63.5" font-family="Helvetica,sans-Serif" font-size="10.00">memory</text>
</g>
<!-- Node5&#45;&gt;Node6 -->
<g id="edge5" class="edge"><title>Node5&#45;&gt;Node6</title>
<path fill="none" stroke="midnightblue" d="M833.703,-225.366C830.937,-224.848 828.173,-224.382 825.495,-224 568.926,-187.439 499.865,-225.935 243.495,-188 136.427,-172.157 73.6546,-216.878 6.4953,-132 -21.4389,-96.6961 52.7012,-79.03 100.209,-71.5644"/>
<polygon fill="midnightblue" stroke="midnightblue" points="100.809,-75.0138 110.186,-70.0828 99.7806,-68.0898 100.809,-75.0138"/>
</g>
<!-- Node7 -->
<g id="node7" class="node"><title>Node7</title>
<polygon fill="none" stroke="#bfbfbf" points="933.995,-112.5 933.995,-131.5 962.995,-131.5 962.995,-112.5 933.995,-112.5"/>
<text text-anchor="middle" x="948.495" y="-119.5" font-family="Helvetica,sans-Serif" font-size="10.00">list</text>
</g>
<!-- Node5&#45;&gt;Node7 -->
<g id="edge6" class="edge"><title>Node5&#45;&gt;Node7</title>
<path fill="none" stroke="midnightblue" d="M879.285,-224.487C891.479,-216.375 909.059,-203.172 920.495,-188 931.117,-173.909 938.633,-155.172 943.185,-141.437"/>
<polygon fill="midnightblue" stroke="midnightblue" points="946.592,-142.265 946.203,-131.677 939.905,-140.197 946.592,-142.265"/>
</g>
<!-- Node8 -->
<g id="node8" class="node"><title>Node8</title>
<g id="a_node8"><a xlink:href="../../dd/db8/Renderer_8hpp.html" target="_top" xlink:title="Renderer.hpp">
<polygon fill="none" stroke="black" points="967.995,-168.5 967.995,-187.5 1043,-187.5 1043,-168.5 967.995,-168.5"/>
<text text-anchor="middle" x="1005.5" y="-175.5" font-family="Helvetica,sans-Serif" font-size="10.00">Renderer.hpp</text>
</a>
</g>
</g>
<!-- Node5&#45;&gt;Node8 -->
<g id="edge7" class="edge"><title>Node5&#45;&gt;Node8</title>
<path fill="none" stroke="midnightblue" d="M887.679,-224.444C910.924,-215.478 947.644,-201.314 973.911,-191.183"/>
<polygon fill="midnightblue" stroke="midnightblue" points="975.345,-194.381 983.416,-187.516 972.826,-187.85 975.345,-194.381"/>
</g>
<!-- Node9 -->
<g id="node9" class="node"><title>Node9</title>
<g id="a_node9"><a xlink:href="../../de/dbe/SpatialGraph_8hpp.html" target="_top" xlink:title="SpatialGraph.hpp">
<polygon fill="none" stroke="black" points="819.495,-168.5 819.495,-187.5 911.495,-187.5 911.495,-168.5 819.495,-168.5"/>
<text text-anchor="middle" x="865.495" y="-175.5" font-family="Helvetica,sans-Serif" font-size="10.00">SpatialGraph.hpp</text>
</a>
</g>
</g>
<!-- Node5&#45;&gt;Node9 -->
<g id="edge9" class="edge"><title>Node5&#45;&gt;Node9</title>
<path fill="none" stroke="midnightblue" d="M865.495,-224.083C865.495,-217.006 865.495,-206.861 865.495,-197.986"/>
<polygon fill="midnightblue" stroke="midnightblue" points="868.995,-197.751 865.495,-187.751 861.995,-197.751 868.995,-197.751"/>
</g>
<!-- Node10 -->
<g id="node10" class="node"><title>Node10</title>
<g id="a_node10"><a xlink:href="../../d8/d58/SceneGraph_8hpp.html" target="_top" xlink:title="SceneGraph.hpp">
<polygon fill="none" stroke="black" points="1061,-168.5 1061,-187.5 1150,-187.5 1150,-168.5 1061,-168.5"/>
<text text-anchor="middle" x="1105.5" y="-175.5" font-family="Helvetica,sans-Serif" font-size="10.00">SceneGraph.hpp</text>
</a>
</g>
</g>
<!-- Node5&#45;&gt;Node10 -->
<g id="edge11" class="edge"><title>Node5&#45;&gt;Node10</title>
<path fill="none" stroke="midnightblue" d="M897.365,-225.829C938.435,-216.589 1010.2,-200.442 1057.78,-189.735"/>
<polygon fill="midnightblue" stroke="midnightblue" points="1058.56,-193.147 1067.55,-187.537 1057.03,-186.318 1058.56,-193.147"/>
</g>
<!-- Node12 -->
<g id="node12" class="node"><title>Node12</title>
<g id="a_node12"><a xlink:href="../../d1/d93/ShaderProgramLibrary_8hpp.html" target="_top" xlink:title="ShaderProgramLibrary.hpp">
<polygon fill="none" stroke="black" points="252.495,-168.5 252.495,-187.5 384.495,-187.5 384.495,-168.5 252.495,-168.5"/>
<text text-anchor="middle" x="318.495" y="-175.5" font-family="Helvetica,sans-Serif" font-size="10.00">ShaderProgramLibrary.hpp</text>
</a>
</g>
</g>
<!-- Node5&#45;&gt;Node12 -->
<g id="edge13" class="edge"><title>Node5&#45;&gt;Node12</title>
<path fill="none" stroke="midnightblue" d="M833.692,-225.444C830.928,-224.909 828.168,-224.417 825.495,-224 744.689,-211.38 515.667,-193.483 395.017,-184.538"/>
<polygon fill="midnightblue" stroke="midnightblue" points="394.981,-181.026 384.75,-183.78 394.464,-188.007 394.981,-181.026"/>
</g>
<!-- Node23 -->
<g id="node23" class="node"><title>Node23</title>
<g id="a_node23"><a xlink:href="../../d2/d26/MaterialLibrary_8hpp.html" target="_top" xlink:title="MaterialLibrary.hpp">
<polygon fill="none" stroke="black" points="479.995,-168.5 479.995,-187.5 578.995,-187.5 578.995,-168.5 479.995,-168.5"/>
<text text-anchor="middle" x="529.495" y="-175.5" font-family="Helvetica,sans-Serif" font-size="10.00">MaterialLibrary.hpp</text>
</a>
</g>
</g>
<!-- Node5&#45;&gt;Node23 -->
<g id="edge31" class="edge"><title>Node5&#45;&gt;Node23</title>
<path fill="none" stroke="midnightblue" d="M833.661,-225.624C830.904,-225.05 828.153,-224.5 825.495,-224 723.962,-204.891 695.528,-204.067 589.255,-188.105"/>
<polygon fill="midnightblue" stroke="midnightblue" points="589.48,-184.599 579.069,-186.564 588.434,-191.52 589.48,-184.599"/>
</g>
<!-- Node26 -->
<g id="node26" class="node"><title>Node26</title>
<g id="a_node26"><a xlink:href="../../d1/da3/AnimationLibrary_8hpp.html" target="_top" xlink:title="AnimationLibrary.hpp">
<polygon fill="none" stroke="black" points="1291.5,-112.5 1291.5,-131.5 1399.5,-131.5 1399.5,-112.5 1291.5,-112.5"/>
<text text-anchor="middle" x="1345.5" y="-119.5" font-family="Helvetica,sans-Serif" font-size="10.00">AnimationLibrary.hpp</text>
</a>
</g>
</g>
<!-- Node5&#45;&gt;Node26 -->
<g id="edge38" class="edge"><title>Node5&#45;&gt;Node26</title>
<path fill="none" stroke="midnightblue" d="M897.019,-232.308C981.923,-230.02 1213.56,-220.853 1281.5,-188 1303.69,-177.266 1322.56,-155.547 1333.94,-140.175"/>
<polygon fill="midnightblue" stroke="midnightblue" points="1337.1,-141.764 1340.02,-131.578 1331.39,-137.721 1337.1,-141.764"/>
</g>
<!-- Node29 -->
<g id="node29" class="node"><title>Node29</title>
<g id="a_node29"><a xlink:href="../../dd/de2/MeshLibrary_8hpp.html" target="_top" xlink:title="MeshLibrary.hpp">
<polygon fill="none" stroke="black" points="596.995,-168.5 596.995,-187.5 685.995,-187.5 685.995,-168.5 596.995,-168.5"/>
<text text-anchor="middle" x="641.495" y="-175.5" font-family="Helvetica,sans-Serif" font-size="10.00">MeshLibrary.hpp</text>
</a>
</g>
</g>
<!-- Node5&#45;&gt;Node29 -->
<g id="edge44" class="edge"><title>Node5&#45;&gt;Node29</title>
<path fill="none" stroke="midnightblue" d="M833.877,-225.378C795.501,-216.126 730.515,-200.46 686.82,-189.926"/>
<polygon fill="midnightblue" stroke="midnightblue" points="687.561,-186.505 677.019,-187.564 685.92,-193.31 687.561,-186.505"/>
</g>
<!-- Node34 -->
<g id="node34" class="node"><title>Node34</title>
<g id="a_node34"><a xlink:href="../../dc/d23/TextureLibrary_8hpp.html" target="_top" xlink:title="TextureLibrary.hpp">
<polygon fill="none" stroke="black" points="703.495,-168.5 703.495,-187.5 801.495,-187.5 801.495,-168.5 703.495,-168.5"/>
<text text-anchor="middle" x="752.495" y="-175.5" font-family="Helvetica,sans-Serif" font-size="10.00">TextureLibrary.hpp</text>
</a>
</g>
</g>
<!-- Node5&#45;&gt;Node34 -->
<g id="edge55" class="edge"><title>Node5&#45;&gt;Node34</title>
<path fill="none" stroke="midnightblue" d="M847.59,-224.444C829.241,-215.675 800.49,-201.935 779.402,-191.858"/>
<polygon fill="midnightblue" stroke="midnightblue" points="780.849,-188.67 770.317,-187.516 777.83,-194.986 780.849,-188.67"/>
</g>
<!-- Node8&#45;&gt;Node7 -->
<g id="edge8" class="edge"><title>Node8&#45;&gt;Node7</title>
<path fill="none" stroke="midnightblue" d="M996.337,-168.324C987.994,-160.42 975.463,-148.548 965.318,-138.938"/>
<polygon fill="midnightblue" stroke="midnightblue" points="967.487,-136.171 957.82,-131.834 962.672,-141.252 967.487,-136.171"/>
</g>
<!-- Node9&#45;&gt;Node7 -->
<g id="edge10" class="edge"><title>Node9&#45;&gt;Node7</title>
<path fill="none" stroke="midnightblue" d="M878.831,-168.324C891.657,-159.979 911.28,-147.212 926.435,-137.352"/>
<polygon fill="midnightblue" stroke="midnightblue" points="928.72,-140.042 935.193,-131.655 924.902,-134.174 928.72,-140.042"/>
</g>
<!-- Node11 -->
<g id="node11" class="node"><title>Node11</title>
<polygon fill="none" stroke="#bfbfbf" points="987.495,-112.5 987.495,-131.5 1073.5,-131.5 1073.5,-112.5 987.495,-112.5"/>
<text text-anchor="middle" x="1030.5" y="-119.5" font-family="Helvetica,sans-Serif" font-size="10.00">assimp/scene.h</text>
</g>
<!-- Node10&#45;&gt;Node11 -->
<g id="edge12" class="edge"><title>Node10&#45;&gt;Node11</title>
<path fill="none" stroke="midnightblue" d="M1093.45,-168.324C1082.03,-160.107 1064.66,-147.602 1051.06,-137.807"/>
<polygon fill="midnightblue" stroke="midnightblue" points="1052.93,-134.837 1042.76,-131.834 1048.83,-140.517 1052.93,-134.837"/>
</g>
<!-- Node12&#45;&gt;Node6 -->
<g id="edge14" class="edge"><title>Node12&#45;&gt;Node6</title>
<path fill="none" stroke="midnightblue" d="M252.361,-169.848C223.249,-163.791 190.329,-152.615 166.495,-132 152.562,-119.949 144.707,-100.063 140.562,-85.455"/>
<polygon fill="midnightblue" stroke="midnightblue" points="143.901,-84.3799 138.076,-75.5298 137.11,-86.0806 143.901,-84.3799"/>
</g>
<!-- Node13 -->
<g id="node13" class="node"><title>Node13</title>
<g id="a_node13"><a xlink:href="../../df/d67/Library_8hpp.html" target="_top" xlink:title="Library.hpp">
<polygon fill="none" stroke="black" points="920.995,-56.5 920.995,-75.5 985.995,-75.5 985.995,-56.5 920.995,-56.5"/>
<text text-anchor="middle" x="953.495" y="-63.5" font-family="Helvetica,sans-Serif" font-size="10.00">Library.hpp</text>
</a>
</g>
</g>
<!-- Node12&#45;&gt;Node13 -->
<g id="edge15" class="edge"><title>Node12&#45;&gt;Node13</title>
<path fill="none" stroke="midnightblue" d="M384.724,-172.004C473.829,-164.728 627.28,-150.091 680.495,-132 697.094,-126.357 698.062,-118.107 714.495,-112 795.389,-81.9397 822.868,-92.7495 910.967,-76.2004"/>
<polygon fill="midnightblue" stroke="midnightblue" points="911.696,-79.6241 920.844,-74.2791 910.36,-72.7529 911.696,-79.6241"/>
</g>
<!-- Node16 -->
<g id="node16" class="node"><title>Node16</title>
<g id="a_node16"><a xlink:href="../../dc/ddb/ShaderProgram_8hpp.html" target="_top" xlink:title="ShaderProgram.hpp">
<polygon fill="none" stroke="black" points="15.9953,-112.5 15.9953,-131.5 118.995,-131.5 118.995,-112.5 15.9953,-112.5"/>
<text text-anchor="middle" x="67.4953" y="-119.5" font-family="Helvetica,sans-Serif" font-size="10.00">ShaderProgram.hpp</text>
</a>
</g>
</g>
<!-- Node12&#45;&gt;Node16 -->
<g id="edge19" class="edge"><title>Node12&#45;&gt;Node16</title>
<path fill="none" stroke="midnightblue" d="M278.724,-168.444C234.937,-159.023 164.482,-143.866 117.115,-133.675"/>
<polygon fill="midnightblue" stroke="midnightblue" points="117.593,-130.198 107.081,-131.516 116.121,-137.041 117.593,-130.198"/>
</g>
<!-- Node20 -->
<g id="node20" class="node"><title>Node20</title>
<g id="a_node20"><a xlink:href="../../d9/db7/ShaderProgramNames_8hpp.html" target="_top" xlink:title="ShaderProgramNames.hpp">
<polygon fill="none" stroke="black" points="175.495,-112.5 175.495,-131.5 309.495,-131.5 309.495,-112.5 175.495,-112.5"/>
<text text-anchor="middle" x="242.495" y="-119.5" font-family="Helvetica,sans-Serif" font-size="10.00">ShaderProgramNames.hpp</text>
</a>
</g>
</g>
<!-- Node12&#45;&gt;Node20 -->
<g id="edge25" class="edge"><title>Node12&#45;&gt;Node20</title>
<path fill="none" stroke="midnightblue" d="M306.285,-168.324C294.719,-160.107 277.12,-147.602 263.335,-137.807"/>
<polygon fill="midnightblue" stroke="midnightblue" points="265.107,-134.773 254.928,-131.834 261.053,-140.479 265.107,-134.773"/>
</g>
<!-- Node21 -->
<g id="node21" class="node"><title>Node21</title>
<g id="a_node21"><a xlink:href="../../d2/db1/ShaderLibrary_8hpp.html" target="_top" xlink:title="ShaderLibrary.hpp">
<polygon fill="none" stroke="black" points="415.995,-112.5 415.995,-131.5 510.995,-131.5 510.995,-112.5 415.995,-112.5"/>
<text text-anchor="middle" x="463.495" y="-119.5" font-family="Helvetica,sans-Serif" font-size="10.00">ShaderLibrary.hpp</text>
</a>
</g>
</g>
<!-- Node12&#45;&gt;Node21 -->
<g id="edge26" class="edge"><title>Node12&#45;&gt;Node21</title>
<path fill="none" stroke="midnightblue" d="M341.471,-168.444C365.652,-159.438 403.913,-145.189 431.141,-135.049"/>
<polygon fill="midnightblue" stroke="midnightblue" points="432.477,-138.286 440.627,-131.516 430.034,-131.727 432.477,-138.286"/>
</g>
<!-- Node13&#45;&gt;Node13 -->
<g id="edge18" class="edge"><title>Node13&#45;&gt;Node13</title>
<path fill="none" stroke="midnightblue" d="M975.034,-75.5252C989.668,-78.3079 1004,-75.1328 1004,-66 1004,-59.0077 995.597,-55.5077 985.092,-55.5"/>
<polygon fill="midnightblue" stroke="midnightblue" points="984.649,-52.0265 975.034,-56.4748 985.325,-58.9938 984.649,-52.0265"/>
</g>
<!-- Node14 -->
<g id="node14" class="node"><title>Node14</title>
<polygon fill="none" stroke="#bfbfbf" points="627.495,-0.5 627.495,-19.5 671.495,-19.5 671.495,-0.5 627.495,-0.5"/>
<text text-anchor="middle" x="649.495" y="-7.5" font-family="Helvetica,sans-Serif" font-size="10.00">vector</text>
</g>
<!-- Node13&#45;&gt;Node14 -->
<g id="edge16" class="edge"><title>Node13&#45;&gt;Node14</title>
<path fill="none" stroke="midnightblue" d="M920.85,-57.6902C918.028,-57.1019 915.213,-56.5305 912.495,-56 829.687,-39.836 731.583,-23.894 681.864,-16.04"/>
<polygon fill="midnightblue" stroke="midnightblue" points="682.149,-12.5419 671.726,-14.4449 681.061,-19.4568 682.149,-12.5419"/>
</g>
<!-- Node15 -->
<g id="node15" class="node"><title>Node15</title>
<polygon fill="none" stroke="#bfbfbf" points="922.495,-0.5 922.495,-19.5 984.495,-19.5 984.495,-0.5 922.495,-0.5"/>
<text text-anchor="middle" x="953.495" y="-7.5" font-family="Helvetica,sans-Serif" font-size="10.00">Library.tpp</text>
</g>
<!-- Node13&#45;&gt;Node15 -->
<g id="edge17" class="edge"><title>Node13&#45;&gt;Node15</title>
<path fill="none" stroke="midnightblue" d="M953.495,-56.083C953.495,-49.0059 953.495,-38.8611 953.495,-29.9865"/>
<polygon fill="midnightblue" stroke="midnightblue" points="956.995,-29.751 953.495,-19.7511 949.995,-29.7511 956.995,-29.751"/>
</g>
<!-- Node16&#45;&gt;Node6 -->
<g id="edge22" class="edge"><title>Node16&#45;&gt;Node6</title>
<path fill="none" stroke="midnightblue" d="M78.5813,-112.324C88.9813,-104.185 104.756,-91.8395 117.217,-82.0874"/>
<polygon fill="midnightblue" stroke="midnightblue" points="119.49,-84.7533 125.208,-75.8339 115.175,-79.2407 119.49,-84.7533"/>
</g>
<!-- Node16&#45;&gt;Node14 -->
<g id="edge21" class="edge"><title>Node16&#45;&gt;Node14</title>
<path fill="none" stroke="midnightblue" d="M69.1936,-112.478C72.5574,-98.0828 81.5395,-69.2288 101.495,-56 144.519,-27.4791 506.044,-15.0291 617.146,-11.8534"/>
<polygon fill="midnightblue" stroke="midnightblue" points="617.493,-15.3451 627.391,-11.5667 617.297,-8.34786 617.493,-15.3451"/>
</g>
<!-- Node17 -->
<g id="node17" class="node"><title>Node17</title>
<polygon fill="none" stroke="#bfbfbf" points="330.495,-0.5 330.495,-19.5 400.495,-19.5 400.495,-0.5 330.495,-0.5"/>
<text text-anchor="middle" x="365.495" y="-7.5" font-family="Helvetica,sans-Serif" font-size="10.00">glm/glm.hpp</text>
</g>
<!-- Node16&#45;&gt;Node17 -->
<g id="edge20" class="edge"><title>Node16&#45;&gt;Node17</title>
<path fill="none" stroke="midnightblue" d="M64.4465,-112.179C60.2948,-98.3771 54.835,-71.6409 68.4953,-56 100.686,-19.1416 245.296,-12.1404 320.197,-11.0287"/>
<polygon fill="midnightblue" stroke="midnightblue" points="320.326,-14.5276 330.284,-10.9085 320.243,-7.52805 320.326,-14.5276"/>
</g>
<!-- Node18 -->
<g id="node18" class="node"><title>Node18</title>
<g id="a_node18"><a xlink:href="../../d4/d6e/Shader_8hpp.html" target="_top" xlink:title="Shader.hpp">
<polygon fill="none" stroke="black" points="218.495,-56.5 218.495,-75.5 284.495,-75.5 284.495,-56.5 218.495,-56.5"/>
<text text-anchor="middle" x="251.495" y="-63.5" font-family="Helvetica,sans-Serif" font-size="10.00">Shader.hpp</text>
</a>
</g>
</g>
<!-- Node16&#45;&gt;Node18 -->
<g id="edge23" class="edge"><title>Node16&#45;&gt;Node18</title>
<path fill="none" stroke="midnightblue" d="M96.6506,-112.444C128.009,-103.241 178.026,-88.5617 212.692,-78.3879"/>
<polygon fill="midnightblue" stroke="midnightblue" points="213.867,-81.6909 222.476,-75.5164 211.895,-74.9742 213.867,-81.6909"/>
</g>
<!-- Node19 -->
<g id="node19" class="node"><title>Node19</title>
<polygon fill="none" stroke="#bfbfbf" points="1119,-0.5 1119,-19.5 1160,-19.5 1160,-0.5 1119,-0.5"/>
<text text-anchor="middle" x="1139.5" y="-7.5" font-family="Helvetica,sans-Serif" font-size="10.00">string</text>
</g>
<!-- Node18&#45;&gt;Node19 -->
<g id="edge24" class="edge"><title>Node18&#45;&gt;Node19</title>
<path fill="none" stroke="midnightblue" d="M284.882,-57.3428C287.785,-56.8299 290.686,-56.3708 293.495,-56 602.339,-15.2336 682.47,-37.5838 993.495,-20 1033.24,-17.7531 1079.05,-14.8835 1108.6,-12.9962"/>
<polygon fill="midnightblue" stroke="midnightblue" points="1108.95,-16.4808 1118.71,-12.3483 1108.5,-9.49518 1108.95,-16.4808"/>
</g>
<!-- Node21&#45;&gt;Node6 -->
<g id="edge27" class="edge"><title>Node21&#45;&gt;Node6</title>
<path fill="none" stroke="midnightblue" d="M415.947,-113.148C349.942,-102.248 231.994,-82.7704 172.671,-72.9739"/>
<polygon fill="midnightblue" stroke="midnightblue" points="173.08,-69.4942 162.643,-71.318 171.939,-76.4006 173.08,-69.4942"/>
</g>
<!-- Node21&#45;&gt;Node13 -->
<g id="edge28" class="edge"><title>Node21&#45;&gt;Node13</title>
<path fill="none" stroke="midnightblue" d="M511.246,-118.045C591.772,-112.661 759.819,-99.7135 910.957,-76.0878"/>
<polygon fill="midnightblue" stroke="midnightblue" points="911.557,-79.5365 920.887,-74.5161 910.462,-72.6226 911.557,-79.5365"/>
</g>
<!-- Node21&#45;&gt;Node18 -->
<g id="edge29" class="edge"><title>Node21&#45;&gt;Node18</title>
<path fill="none" stroke="midnightblue" d="M429.903,-112.444C393.2,-103.095 334.312,-88.0948 294.317,-77.9075"/>
<polygon fill="midnightblue" stroke="midnightblue" points="295.136,-74.5043 284.581,-75.4275 293.408,-81.2877 295.136,-74.5043"/>
</g>
<!-- Node22 -->
<g id="node22" class="node"><title>Node22</title>
<g id="a_node22"><a xlink:href="../../d2/dba/ShaderNames_8hpp.html" target="_top" xlink:title="ShaderNames.hpp">
<polygon fill="none" stroke="black" points="414.495,-56.5 414.495,-75.5 512.495,-75.5 512.495,-56.5 414.495,-56.5"/>
<text text-anchor="middle" x="463.495" y="-63.5" font-family="Helvetica,sans-Serif" font-size="10.00">ShaderNames.hpp</text>
</a>
</g>
</g>
<!-- Node21&#45;&gt;Node22 -->
<g id="edge30" class="edge"><title>Node21&#45;&gt;Node22</title>
<path fill="none" stroke="midnightblue" d="M463.495,-112.083C463.495,-105.006 463.495,-94.8611 463.495,-85.9865"/>
<polygon fill="midnightblue" stroke="midnightblue" points="466.995,-85.751 463.495,-75.7511 459.995,-85.7511 466.995,-85.751"/>
</g>
<!-- Node23&#45;&gt;Node13 -->
<g id="edge33" class="edge"><title>Node23&#45;&gt;Node13</title>
<path fill="none" stroke="midnightblue" d="M576.692,-168.441C614.574,-160.879 668.788,-148.489 714.495,-132 733.567,-125.12 736.372,-118.736 755.495,-112 762.851,-109.409 854.672,-88.8925 910.653,-76.4742"/>
<polygon fill="midnightblue" stroke="midnightblue" points="911.655,-79.8372 920.66,-74.2558 910.14,-73.0031 911.655,-79.8372"/>
</g>
<!-- Node24 -->
<g id="node24" class="node"><title>Node24</title>
<polygon fill="none" stroke="#bfbfbf" points="302.495,-56.5 302.495,-75.5 396.495,-75.5 396.495,-56.5 302.495,-56.5"/>
<text text-anchor="middle" x="349.495" y="-63.5" font-family="Helvetica,sans-Serif" font-size="10.00">assimp/material.h</text>
</g>
<!-- Node23&#45;&gt;Node24 -->
<g id="edge32" class="edge"><title>Node23&#45;&gt;Node24</title>
<path fill="none" stroke="midnightblue" d="M531.061,-168.189C532.968,-154.401 534.404,-127.683 520.495,-112 512.413,-102.887 448.627,-87.7777 401.313,-77.6094"/>
<polygon fill="midnightblue" stroke="midnightblue" points="402.002,-74.1778 391.493,-75.5185 400.545,-81.0243 402.002,-74.1778"/>
</g>
<!-- Node25 -->
<g id="node25" class="node"><title>Node25</title>
<g id="a_node25"><a xlink:href="../../d0/d70/Material_8hpp.html" target="_top" xlink:title="Material.hpp">
<polygon fill="none" stroke="black" points="327.495,-112.5 327.495,-131.5 397.495,-131.5 397.495,-112.5 327.495,-112.5"/>
<text text-anchor="middle" x="362.495" y="-119.5" font-family="Helvetica,sans-Serif" font-size="10.00">Material.hpp</text>
</a>
</g>
</g>
<!-- Node23&#45;&gt;Node25 -->
<g id="edge34" class="edge"><title>Node23&#45;&gt;Node25</title>
<path fill="none" stroke="midnightblue" d="M503.034,-168.444C474.817,-159.32 429.955,-144.813 398.527,-134.651"/>
<polygon fill="midnightblue" stroke="midnightblue" points="399.425,-131.263 388.833,-131.516 397.271,-137.923 399.425,-131.263"/>
</g>
<!-- Node25&#45;&gt;Node6 -->
<g id="edge35" class="edge"><title>Node25&#45;&gt;Node6</title>
<path fill="none" stroke="midnightblue" d="M327.183,-112.562C285.092,-102.505 215.129,-85.7885 172.664,-75.6421"/>
<polygon fill="midnightblue" stroke="midnightblue" points="173.291,-72.1935 162.752,-73.2737 171.665,-79.0019 173.291,-72.1935"/>
</g>
<!-- Node25&#45;&gt;Node17 -->
<g id="edge36" class="edge"><title>Node25&#45;&gt;Node17</title>
<path fill="none" stroke="midnightblue" d="M327.309,-112.988C284.409,-102.867 216.69,-85.6157 209.495,-76 204.17,-68.8829 204.151,-63.1032 209.495,-56 222.891,-38.1938 279.241,-25.2178 320.38,-17.8973"/>
<polygon fill="midnightblue" stroke="midnightblue" points="321.215,-21.3051 330.476,-16.1586 320.027,-14.4067 321.215,-21.3051"/>
</g>
<!-- Node25&#45;&gt;Node24 -->
<g id="edge37" class="edge"><title>Node25&#45;&gt;Node24</title>
<path fill="none" stroke="midnightblue" d="M360.349,-112.083C358.626,-104.927 356.148,-94.6353 353.995,-85.6911"/>
<polygon fill="midnightblue" stroke="midnightblue" points="357.345,-84.6541 351.602,-75.7511 350.54,-86.2925 357.345,-84.6541"/>
</g>
<!-- Node26&#45;&gt;Node13 -->
<g id="edge40" class="edge"><title>Node26&#45;&gt;Node13</title>
<path fill="none" stroke="midnightblue" d="M1291.2,-113.213C1288.26,-112.8 1285.34,-112.394 1282.5,-112 1163.01,-95.4706 1132.92,-92.9471 1013.5,-76 1007.96,-75.2138 1002.13,-74.3663 996.378,-73.5169"/>
<polygon fill="midnightblue" stroke="midnightblue" points="996.585,-70.0092 986.178,-71.9985 995.554,-76.9329 996.585,-70.0092"/>
</g>
<!-- Node27 -->
<g id="node27" class="node"><title>Node27</title>
<polygon fill="none" stroke="#bfbfbf" points="1271.5,-0.5 1271.5,-19.5 1351.5,-19.5 1351.5,-0.5 1271.5,-0.5"/>
<text text-anchor="middle" x="1311.5" y="-7.5" font-family="Helvetica,sans-Serif" font-size="10.00">assimp/anim.h</text>
</g>
<!-- Node26&#45;&gt;Node27 -->
<g id="edge39" class="edge"><title>Node26&#45;&gt;Node27</title>
<path fill="none" stroke="midnightblue" d="M1343.02,-112.137C1339.49,-99.5963 1332.74,-75.9736 1326.5,-56 1323.73,-47.1467 1320.49,-37.3722 1317.73,-29.2013"/>
<polygon fill="midnightblue" stroke="midnightblue" points="1321,-27.9359 1314.47,-19.5958 1314.37,-30.1902 1321,-27.9359"/>
</g>
<!-- Node28 -->
<g id="node28" class="node"><title>Node28</title>
<g id="a_node28"><a xlink:href="../../d0/d36/Animation_8hpp.html" target="_top" xlink:title="Animation.hpp">
<polygon fill="none" stroke="black" points="1238,-56.5 1238,-75.5 1317,-75.5 1317,-56.5 1238,-56.5"/>
<text text-anchor="middle" x="1277.5" y="-63.5" font-family="Helvetica,sans-Serif" font-size="10.00">Animation.hpp</text>
</a>
</g>
</g>
<!-- Node26&#45;&gt;Node28 -->
<g id="edge41" class="edge"><title>Node26&#45;&gt;Node28</title>
<path fill="none" stroke="midnightblue" d="M1334.57,-112.324C1324.32,-104.185 1308.77,-91.8395 1296.49,-82.0874"/>
<polygon fill="midnightblue" stroke="midnightblue" points="1298.63,-79.3119 1288.62,-75.8339 1294.27,-84.7937 1298.63,-79.3119"/>
</g>
<!-- Node28&#45;&gt;Node19 -->
<g id="edge43" class="edge"><title>Node28&#45;&gt;Node19</title>
<path fill="none" stroke="midnightblue" d="M1255.63,-56.4435C1232.45,-47.3721 1195.67,-32.98 1169.72,-22.8268"/>
<polygon fill="midnightblue" stroke="midnightblue" points="1170.94,-19.5477 1160.36,-19.1629 1168.39,-26.0664 1170.94,-19.5477"/>
</g>
<!-- Node28&#45;&gt;Node27 -->
<g id="edge42" class="edge"><title>Node28&#45;&gt;Node27</title>
<path fill="none" stroke="midnightblue" d="M1283.11,-56.083C1287.86,-48.5341 1294.81,-37.4948 1300.65,-28.2298"/>
<polygon fill="midnightblue" stroke="midnightblue" points="1303.62,-30.0783 1305.99,-19.7511 1297.7,-26.3486 1303.62,-30.0783"/>
</g>
<!-- Node29&#45;&gt;Node13 -->
<g id="edge45" class="edge"><title>Node29&#45;&gt;Node13</title>
<path fill="none" stroke="midnightblue" d="M663.38,-168.448C686.352,-159.451 723.507,-144.841 755.495,-132 777.324,-123.237 782.323,-119.853 804.495,-112 840.538,-99.2335 882.26,-86.8314 912.371,-78.2914"/>
<polygon fill="midnightblue" stroke="midnightblue" points="913.435,-81.6279 922.112,-75.5484 911.537,-74.89 913.435,-81.6279"/>
</g>
<!-- Node30 -->
<g id="node30" class="node"><title>Node30</title>
<g id="a_node30"><a xlink:href="../../d1/d62/Mesh_8hpp.html" target="_top" xlink:title="Mesh.hpp">
<polygon fill="none" stroke="black" points="611.995,-112.5 611.995,-131.5 670.995,-131.5 670.995,-112.5 611.995,-112.5"/>
<text text-anchor="middle" x="641.495" y="-119.5" font-family="Helvetica,sans-Serif" font-size="10.00">Mesh.hpp</text>
</a>
</g>
</g>
<!-- Node29&#45;&gt;Node30 -->
<g id="edge46" class="edge"><title>Node29&#45;&gt;Node30</title>
<path fill="none" stroke="midnightblue" d="M641.495,-168.083C641.495,-161.006 641.495,-150.861 641.495,-141.986"/>
<polygon fill="midnightblue" stroke="midnightblue" points="644.995,-141.751 641.495,-131.751 637.995,-141.751 644.995,-141.751"/>
</g>
<!-- Node30&#45;&gt;Node6 -->
<g id="edge48" class="edge"><title>Node30&#45;&gt;Node6</title>
<path fill="none" stroke="midnightblue" d="M611.882,-118.11C541.866,-111.234 360.652,-93.1891 209.495,-76 197.425,-74.6274 184.245,-73.0321 172.446,-71.5691"/>
<polygon fill="midnightblue" stroke="midnightblue" points="172.853,-68.0928 162.496,-70.3265 171.985,-75.0389 172.853,-68.0928"/>
</g>
<!-- Node30&#45;&gt;Node14 -->
<g id="edge47" class="edge"><title>Node30&#45;&gt;Node14</title>
<path fill="none" stroke="midnightblue" d="M648.386,-112.319C654.765,-103.684 663.803,-89.7696 667.495,-76 671.754,-60.1148 665.922,-42.0946 659.789,-29.0636"/>
<polygon fill="midnightblue" stroke="midnightblue" points="662.705,-27.0839 654.993,-19.8189 656.491,-30.3073 662.705,-27.0839"/>
</g>
<!-- Node30&#45;&gt;Node17 -->
<g id="edge49" class="edge"><title>Node30&#45;&gt;Node17</title>
<path fill="none" stroke="midnightblue" d="M625.695,-112.325C594.355,-95.1329 526.867,-58.1996 521.495,-56 485.129,-41.1096 442.107,-29.0917 410.463,-21.2337"/>
<polygon fill="midnightblue" stroke="midnightblue" points="411.157,-17.8003 400.612,-18.8302 409.498,-24.6008 411.157,-17.8003"/>
</g>
<!-- Node31 -->
<g id="node31" class="node"><title>Node31</title>
<polygon fill="none" stroke="#bfbfbf" points="819.995,-56.5 819.995,-75.5 902.995,-75.5 902.995,-56.5 819.995,-56.5"/>
<text text-anchor="middle" x="861.495" y="-63.5" font-family="Helvetica,sans-Serif" font-size="10.00">assimp/mesh.h</text>
</g>
<!-- Node30&#45;&gt;Node31 -->
<g id="edge50" class="edge"><title>Node30&#45;&gt;Node31</title>
<path fill="none" stroke="midnightblue" d="M671.165,-113.717C708.596,-104.53 773.313,-88.6447 816.757,-77.9812"/>
<polygon fill="midnightblue" stroke="midnightblue" points="817.622,-81.373 826.499,-75.59 815.953,-74.5748 817.622,-81.373"/>
</g>
<!-- Node32 -->
<g id="node32" class="node"><title>Node32</title>
<g id="a_node32"><a xlink:href="../../da/d04/BufferObject_8hpp.html" target="_top" xlink:title="BufferObject.hpp">
<polygon fill="none" stroke="black" points="568.495,-56.5 568.495,-75.5 658.495,-75.5 658.495,-56.5 568.495,-56.5"/>
<text text-anchor="middle" x="613.495" y="-63.5" font-family="Helvetica,sans-Serif" font-size="10.00">BufferObject.hpp</text>
</a>
</g>
</g>
<!-- Node30&#45;&gt;Node32 -->
<g id="edge51" class="edge"><title>Node30&#45;&gt;Node32</title>
<path fill="none" stroke="midnightblue" d="M636.872,-112.083C633.039,-104.691 627.471,-93.9533 622.731,-84.8111"/>
<polygon fill="midnightblue" stroke="midnightblue" points="625.743,-83.0175 618.033,-75.7511 619.529,-86.2398 625.743,-83.0175"/>
</g>
<!-- Node33 -->
<g id="node33" class="node"><title>Node33</title>
<g id="a_node33"><a xlink:href="../../df/d20/ArrayObject_8hpp.html" target="_top" xlink:title="ArrayObject.hpp">
<polygon fill="none" stroke="black" points="714.995,-56.5 714.995,-75.5 801.995,-75.5 801.995,-56.5 714.995,-56.5"/>
<text text-anchor="middle" x="758.495" y="-63.5" font-family="Helvetica,sans-Serif" font-size="10.00">ArrayObject.hpp</text>
</a>
</g>
</g>
<!-- Node30&#45;&gt;Node33 -->
<g id="edge54" class="edge"><title>Node30&#45;&gt;Node33</title>
<path fill="none" stroke="midnightblue" d="M660.034,-112.444C679.118,-103.636 709.07,-89.8116 730.931,-79.722"/>
<polygon fill="midnightblue" stroke="midnightblue" points="732.43,-82.8849 740.043,-75.5164 729.497,-76.5292 732.43,-82.8849"/>
</g>
<!-- Node32&#45;&gt;Node14 -->
<g id="edge52" class="edge"><title>Node32&#45;&gt;Node14</title>
<path fill="none" stroke="midnightblue" d="M619.44,-56.083C624.473,-48.5341 631.832,-37.4948 638.009,-28.2298"/>
<polygon fill="midnightblue" stroke="midnightblue" points="641.026,-30.0131 643.661,-19.7511 635.202,-26.1301 641.026,-30.0131"/>
</g>
<!-- Node32&#45;&gt;Node17 -->
<g id="edge53" class="edge"><title>Node32&#45;&gt;Node17</title>
<path fill="none" stroke="midnightblue" d="M574.199,-56.4435C529.664,-46.7463 457.205,-30.969 410.453,-20.7892"/>
<polygon fill="midnightblue" stroke="midnightblue" points="411.114,-17.3511 400.598,-18.6433 409.624,-24.1908 411.114,-17.3511"/>
</g>
<!-- Node34&#45;&gt;Node13 -->
<g id="edge56" class="edge"><title>Node34&#45;&gt;Node13</title>
<path fill="none" stroke="midnightblue" d="M761.945,-168.457C777.163,-155.037 808.443,-128.814 838.495,-112 863.106,-98.2308 892.786,-86.7311 915.829,-78.8038"/>
<polygon fill="midnightblue" stroke="midnightblue" points="917.222,-82.028 925.585,-75.5234 914.991,-75.3931 917.222,-82.028"/>
</g>
<!-- Node35 -->
<g id="node35" class="node"><title>Node35</title>
<g id="a_node35"><a xlink:href="../../d0/ddc/Texture_8hpp.html" target="_top" xlink:title="Texture.hpp">
<polygon fill="none" stroke="black" points="847.495,-112.5 847.495,-131.5 915.495,-131.5 915.495,-112.5 847.495,-112.5"/>
<text text-anchor="middle" x="881.495" y="-119.5" font-family="Helvetica,sans-Serif" font-size="10.00">Texture.hpp</text>
</a>
</g>
</g>
<!-- Node34&#45;&gt;Node35 -->
<g id="edge57" class="edge"><title>Node34&#45;&gt;Node35</title>
<path fill="none" stroke="midnightblue" d="M772.936,-168.444C794.166,-159.557 827.594,-145.563 851.75,-135.451"/>
<polygon fill="midnightblue" stroke="midnightblue" points="853.278,-138.606 861.151,-131.516 850.575,-132.149 853.278,-138.606"/>
</g>
<!-- Node36 -->
<g id="node36" class="node"><title>Node36</title>
<polygon fill="none" stroke="#bfbfbf" points="1022,-56.5 1022,-75.5 1111,-75.5 1111,-56.5 1022,-56.5"/>
<text text-anchor="middle" x="1066.5" y="-63.5" font-family="Helvetica,sans-Serif" font-size="10.00">assimp/texture.h</text>
</g>
<!-- Node35&#45;&gt;Node36 -->
<g id="edge58" class="edge"><title>Node35&#45;&gt;Node36</title>
<path fill="none" stroke="midnightblue" d="M910.809,-112.444C942.338,-103.241 992.627,-88.5617 1027.48,-78.3879"/>
<polygon fill="midnightblue" stroke="midnightblue" points="1028.7,-81.6783 1037.32,-75.5164 1026.74,-74.9587 1028.7,-81.6783"/>
</g>
<!-- Node37&#45;&gt;Node7 -->
<g id="edge61" class="edge"><title>Node37&#45;&gt;Node7</title>
<path fill="none" stroke="midnightblue" d="M1168.22,-168.949C1118.98,-160.972 1043.29,-147.695 978.495,-132 976.593,-131.539 974.632,-131.03 972.667,-130.495"/>
<polygon fill="midnightblue" stroke="midnightblue" points="973.637,-127.132 963.058,-127.712 971.689,-133.856 973.637,-127.132"/>
</g>
<!-- Node37&#45;&gt;Node19 -->
<g id="edge60" class="edge"><title>Node37&#45;&gt;Node19</title>
<path fill="none" stroke="midnightblue" d="M1201.61,-168.388C1187.37,-160.869 1168.63,-148.561 1158.5,-132 1138.95,-100.074 1137.3,-54.8394 1138.18,-29.6961"/>
<polygon fill="midnightblue" stroke="midnightblue" points="1141.67,-29.8471 1138.7,-19.6775 1134.68,-29.4805 1141.67,-29.8471"/>
</g>
<!-- Node37&#45;&gt;Node31 -->
<g id="edge63" class="edge"><title>Node37&#45;&gt;Node31</title>
<path fill="none" stroke="midnightblue" d="M1202.38,-168.398C1165.64,-150.965 1085.59,-113.027 1082.5,-112 1066.64,-106.737 973.744,-88.4989 913.546,-76.9198"/>
<polygon fill="midnightblue" stroke="midnightblue" points="913.929,-73.4294 903.449,-74.9808 912.609,-80.3038 913.929,-73.4294"/>
</g>
<!-- Node38 -->
<g id="node38" class="node"><title>Node38</title>
<polygon fill="none" stroke="#bfbfbf" points="1167.5,-112.5 1167.5,-131.5 1273.5,-131.5 1273.5,-112.5 1167.5,-112.5"/>
<text text-anchor="middle" x="1220.5" y="-119.5" font-family="Helvetica,sans-Serif" font-size="10.00">assimp/Importer.hpp</text>
</g>
<!-- Node37&#45;&gt;Node38 -->
<g id="edge62" class="edge"><title>Node37&#45;&gt;Node38</title>
<path fill="none" stroke="midnightblue" d="M1220.5,-168.083C1220.5,-161.006 1220.5,-150.861 1220.5,-141.986"/>
<polygon fill="midnightblue" stroke="midnightblue" points="1224,-141.751 1220.5,-131.751 1217,-141.751 1224,-141.751"/>
</g>
</g>
</svg>
        <g id="navigator" transform="translate(0 0)" fill="#404254">
                <rect fill="#f2f5e9" fill-opacity="0.5" stroke="#606060" stroke-width=".5" x="0" y="0" width="60" height="60"/>
                <use id="zoomplus" xlink:href="#zoomPlus" x="17" y="9" onmousedown="handleZoom(evt,'in')"/>
                <use id="zoomminus" xlink:href="#zoomMin" x="42" y="9" onmousedown="handleZoom(evt,'out')"/>
                <use id="reset" xlink:href="#resetDef" x="30" y="36" onmousedown="handleReset()"/>
                <g id="arrowUp" xlink:href="#dirArrow" transform="translate(30 24)" onmousedown="handlePan(0,-1)">
                  <use xlink:href="#rim" fill="#404040">
                        <set attributeName="fill" to="#808080" begin="arrowUp.mouseover" end="arrowUp.mouseout"/>
                  </use>
                  <path fill="none" stroke="white" stroke-width="1.5" d="M0,-3.0v7 M-2.5,-0.5L0,-3.0L2.5,-0.5"/>
                </g>
                <g id="arrowRight" xlink:href="#dirArrow" transform="rotate(90) translate(36 -43)" onmousedown="handlePan(1,0)">
                  <use xlink:href="#rim" fill="#404040">
                        <set attributeName="fill" to="#808080" begin="arrowRight.mouseover" end="arrowRight.mouseout"/>
                  </use>
                  <path fill="none" stroke="white" stroke-width="1.5" d="M0,-3.0v7 M-2.5,-0.5L0,-3.0L2.5,-0.5"/>
                </g>
                <g id="arrowDown" xlink:href="#dirArrow" transform="rotate(180) translate(-30 -48)" onmousedown="handlePan(0,1)">
                  <use xlink:href="#rim" fill="#404040">
                        <set attributeName="fill" to="#808080" begin="arrowDown.mouseover" end="arrowDown.mouseout"/>
                  </use>
                  <path fill="none" stroke="white" stroke-width="1.5" d="M0,-3.0v7 M-2.5,-0.5L0,-3.0L2.5,-0.5"/>
                </g>
                <g id="arrowLeft" xlink:href="#dirArrow" transform="rotate(270) translate(-36 17)" onmousedown="handlePan(-1,0)">
                  <use xlink:href="#rim" fill="#404040">
                        <set attributeName="fill" to="#808080" begin="arrowLeft.mouseover" end="arrowLeft.mouseout"/>
                  </use>
                  <path fill="none" stroke="white" stroke-width="1.5" d="M0,-3.0v7 M-2.5,-0.5L0,-3.0L2.5,-0.5"/>
                </g>
        </g>
        <svg viewBox="0 0 15 15" width="100%" height="30px" preserveAspectRatio="xMaxYMin meet">
         <g id="arrow_out" transform="scale(0.3 0.3)">
          <a xlink:href="GameEngine_8cpp__incl_org.svg" target="_base">
           <rect id="button" ry="5" rx="5" y="6" x="6" height="38" width="38"
                fill="#f2f5e9" fill-opacity="0.5" stroke="#606060" stroke-width="1.0"/>
           <path id="arrow"
             d="M 11.500037,31.436501 C 11.940474,20.09759 22.043105,11.32322 32.158766,21.979434 L 37.068811,17.246167 C 37.068811,17.246167 37.088388,32 37.088388,32 L 22.160133,31.978069 C 22.160133,31.978069 26.997745,27.140456 26.997745,27.140456 C 18.528582,18.264221 13.291696,25.230495 11.500037,31.436501 z"
             style="fill:#404040;"/>
          </a>
         </g>
        </svg>
</svg>
