<?xml version="1.0" encoding="UTF-8" standalone="no"?>
<!DOCTYPE svg PUBLIC "-//W3C//DTD SVG 1.1//EN"
 "http://www.w3.org/Graphics/SVG/1.1/DTD/svg11.dtd">
<!-- Generated by graphviz version 2.38.0 (20140413.2041)
 -->
<!-- Title: engine/GameEngine/GameEngine.cpp Pages: 1 -->
<!--zoomable 543 -->
<svg id="main" version="1.1" xmlns="http://www.w3.org/2000/svg" xmlns:xlink="http://www.w3.org/1999/xlink" xml:space="preserve" onload="init(evt)">
<style type="text/css"><![CDATA[
.edge:hover path { stroke: red; }
.edge:hover polygon { stroke: red; fill: red; }
]]></style>
<script type="text/javascript"><![CDATA[
var edges = document.getElementsByTagName('g');
if (edges && edges.length) {
  for (var i=0;i<edges.length;i++) {
    if (edges[i].id.substr(0,4)=='edge') {
      edges[i].setAttribute('class','edge');
    }
  }
}
]]></script>
        <defs>
                <circle id="rim" cx="0" cy="0" r="7"/>
                <circle id="rim2" cx="0" cy="0" r="3.5"/>
                <g id="zoomPlus">
                        <use xlink:href="#rim" fill="#404040">
                                <set attributeName="fill" to="#808080" begin="zoomplus.mouseover" end="zoomplus.mouseout"/>
                        </use>
                        <path d="M-4,0h8M0,-4v8" fill="none" stroke="white" stroke-width="1.5" pointer-events="none"/>
                </g>
                <g id="zoomMin">
                        <use xlink:href="#rim" fill="#404040">
                                <set attributeName="fill" to="#808080" begin="zoomminus.mouseover" end="zoomminus.mouseout"/>
                        </use>
                        <path d="M-4,0h8" fill="none" stroke="white" stroke-width="1.5" pointer-events="none"/>
                </g>
                <g id="dirArrow">
                        <path fill="none" stroke="white" stroke-width="1.5" d="M0,-3.0v7 M-2.5,-0.5L0,-3.0L2.5,-0.5"/>
                </g>
               <g id="resetDef">
                       <use xlink:href="#rim2" fill="#404040">
                               <set attributeName="fill" to="#808080" begin="reset.mouseover" end="reset.mouseout"/>
                       </use>
               </g>
        </defs>

<script type="text/javascript">
var viewWidth = 1444;
var viewHeight = 543;
var sectionId = 'dynsection-0';
</script>
<script xlink:href="../../svgpan.js"/>
<svg id="graph" class="graph">
<g id="viewport">
<title>engine/GameEngine/GameEngine.cpp</title>
<!-- Node1 -->
<g id="node1" class="node"><title>Node1</title>
<polygon fill="#bfbfbf" stroke="black" points="390.528,-515.5 390.528,-534.5 572.528,-534.5 572.528,-515.5 390.528,-515.5"/>
<text text-anchor="middle" x="481.528" y="-522.5" font-family="Helvetica,sans-Serif" font-size="10.00">engine/GameEngine/GameEngine.cpp</text>
</g>
<!-- Node2 -->
<g id="node2" class="node"><title>Node2</title>
<g id="a_node2"><a xlink:href="../../d4/d1c/GameEngine_8hpp.html" target="_top" xlink:title="GameEngine.hpp">
<polygon fill="none" stroke="black" points="474.528,-398 474.528,-417 566.528,-417 566.528,-398 474.528,-398"/>
<text text-anchor="middle" x="520.528" y="-405" font-family="Helvetica,sans-Serif" font-size="10.00">GameEngine.hpp</text>
</a>
</g>
</g>
<!-- Node1&#45;&gt;Node2 -->
<g id="edge1" class="edge"><title>Node1&#45;&gt;Node2</title>
<path fill="none" stroke="midnightblue" d="M484.459,-515.319C490.783,-496.59 505.824,-452.046 514.351,-426.792"/>
<polygon fill="midnightblue" stroke="midnightblue" points="517.679,-427.876 517.562,-417.282 511.047,-425.637 517.679,-427.876"/>
</g>
<!-- Node21 -->
<g id="node21" class="node"><title>Node21</title>
<g id="a_node21"><a xlink:href="../../d0/dbd/AssimpImporter_8hpp.html" target="_top" xlink:title="AssimpImporter.hpp">
<polygon fill="none" stroke="black" points="130.528,-398 130.528,-417 234.528,-417 234.528,-398 130.528,-398"/>
<text text-anchor="middle" x="182.528" y="-405" font-family="Helvetica,sans-Serif" font-size="10.00">AssimpImporter.hpp</text>
</a>
</g>
</g>
<!-- Node1&#45;&gt;Node21 -->
<g id="edge38" class="edge"><title>Node1&#45;&gt;Node21</title>
<path fill="none" stroke="midnightblue" d="M459.054,-515.319C406.436,-494.993 275.112,-444.264 214.325,-420.783"/>
<polygon fill="midnightblue" stroke="midnightblue" points="215.444,-417.463 204.854,-417.124 212.921,-423.993 215.444,-417.463"/>
</g>
<!-- Node23 -->
<g id="node23" class="node"><title>Node23</title>
<g id="a_node23"><a xlink:href="../../d4/dd0/Cube_8hpp.html" target="_top" xlink:title="Cube.hpp">
<polygon fill="none" stroke="black" points="421.028,-459.5 421.028,-478.5 480.028,-478.5 480.028,-459.5 421.028,-459.5"/>
<text text-anchor="middle" x="450.528" y="-466.5" font-family="Helvetica,sans-Serif" font-size="10.00">Cube.hpp</text>
</a>
</g>
</g>
<!-- Node1&#45;&gt;Node23 -->
<g id="edge44" class="edge"><title>Node1&#45;&gt;Node23</title>
<path fill="none" stroke="midnightblue" d="M476.409,-515.083C472.12,-507.613 465.87,-496.724 460.585,-487.52"/>
<polygon fill="midnightblue" stroke="midnightblue" points="463.566,-485.681 455.551,-478.751 457.495,-489.166 463.566,-485.681"/>
</g>
<!-- Node24 -->
<g id="node24" class="node"><title>Node24</title>
<g id="a_node24"><a xlink:href="../../d1/d2a/glwindow_8h.html" target="_top" xlink:title="glwindow.h">
<polygon fill="none" stroke="black" points="701.028,-459.5 701.028,-478.5 766.028,-478.5 766.028,-459.5 701.028,-459.5"/>
<text text-anchor="middle" x="733.528" y="-466.5" font-family="Helvetica,sans-Serif" font-size="10.00">glwindow.h</text>
</a>
</g>
</g>
<!-- Node1&#45;&gt;Node24 -->
<g id="edge46" class="edge"><title>Node1&#45;&gt;Node24</title>
<path fill="none" stroke="midnightblue" d="M521.458,-515.444C567.746,-505.525 643.72,-489.245 691.061,-479.1"/>
<polygon fill="midnightblue" stroke="midnightblue" points="691.952,-482.489 700.996,-476.971 690.485,-475.644 691.952,-482.489"/>
</g>
<!-- Node3 -->
<g id="node3" class="node"><title>Node3</title>
<g id="a_node3"><a xlink:href="../../de/df7/worldparticles_8hpp.html" target="_top" xlink:title="wordparticles configuration file ">
<polygon fill="none" stroke="black" points="837.028,-112.5 837.028,-131.5 932.028,-131.5 932.028,-112.5 837.028,-112.5"/>
<text text-anchor="middle" x="884.528" y="-119.5" font-family="Helvetica,sans-Serif" font-size="10.00">worldparticles.hpp</text>
</a>
</g>
</g>
<!-- Node2&#45;&gt;Node3 -->
<g id="edge2" class="edge"><title>Node2&#45;&gt;Node3</title>
<path fill="none" stroke="midnightblue" d="M552.491,-397.956C560.037,-395.972 568.06,-393.888 575.528,-392 665.245,-369.316 979.528,-383.541 979.528,-291 979.528,-291 979.528,-291 979.528,-233 979.528,-189.739 936.919,-155.086 908.773,-136.915"/>
<polygon fill="midnightblue" stroke="midnightblue" points="910.557,-133.903 900.215,-131.604 906.866,-139.851 910.557,-133.903"/>
</g>
<!-- Node4 -->
<g id="node4" class="node"><title>Node4</title>
<g id="a_node4"><a xlink:href="../../db/de8/Scene_8hpp.html" target="_top" xlink:title="Scene.hpp">
<polygon fill="none" stroke="black" points="303.028,-336.5 303.028,-355.5 366.028,-355.5 366.028,-336.5 303.028,-336.5"/>
<text text-anchor="middle" x="334.528" y="-343.5" font-family="Helvetica,sans-Serif" font-size="10.00">Scene.hpp</text>
</a>
</g>
</g>
<!-- Node2&#45;&gt;Node4 -->
<g id="edge3" class="edge"><title>Node2&#45;&gt;Node4</title>
<path fill="none" stroke="midnightblue" d="M493.878,-397.975C461.558,-387.636 406.93,-370.161 370.795,-358.602"/>
<polygon fill="midnightblue" stroke="midnightblue" points="371.718,-355.222 361.128,-355.509 369.586,-361.89 371.718,-355.222"/>
</g>
<!-- Node5 -->
<g id="node5" class="node"><title>Node5</title>
<polygon fill="none" stroke="#bfbfbf" points="725.528,-56.5 725.528,-75.5 777.528,-75.5 777.528,-56.5 725.528,-56.5"/>
<text text-anchor="middle" x="751.528" y="-63.5" font-family="Helvetica,sans-Serif" font-size="10.00">memory</text>
</g>
<!-- Node4&#45;&gt;Node5 -->
<g id="edge4" class="edge"><title>Node4&#45;&gt;Node5</title>
<path fill="none" stroke="midnightblue" d="M366.089,-341.828C454.26,-331.801 708.386,-294.866 886.528,-188 916.177,-170.213 927.587,-164.062 940.528,-132 943.855,-123.757 946.037,-118.975 940.528,-112 921.839,-88.339 837.074,-75.7788 787.639,-70.3545"/>
<polygon fill="midnightblue" stroke="midnightblue" points="787.975,-66.8705 777.663,-69.3038 787.241,-73.832 787.975,-66.8705"/>
</g>
<!-- Node6 -->
<g id="node6" class="node"><title>Node6</title>
<polygon fill="none" stroke="#bfbfbf" points="189.028,-280.5 189.028,-299.5 218.028,-299.5 218.028,-280.5 189.028,-280.5"/>
<text text-anchor="middle" x="203.528" y="-287.5" font-family="Helvetica,sans-Serif" font-size="10.00">list</text>
</g>
<!-- Node4&#45;&gt;Node6 -->
<g id="edge5" class="edge"><title>Node4&#45;&gt;Node6</title>
<path fill="none" stroke="midnightblue" d="M313.77,-336.444C290.309,-326.772 252.177,-311.054 227.475,-300.872"/>
<polygon fill="midnightblue" stroke="midnightblue" points="228.683,-297.584 218.104,-297.008 226.015,-304.055 228.683,-297.584"/>
</g>
<!-- Node7 -->
<g id="node7" class="node"><title>Node7</title>
<g id="a_node7"><a xlink:href="../../d4/db5/GameObject_8hpp.html" target="_top" xlink:title="GameObject.hpp">
<polygon fill="none" stroke="black" points="395.528,-224.5 395.528,-243.5 485.528,-243.5 485.528,-224.5 395.528,-224.5"/>
<text text-anchor="middle" x="440.528" y="-231.5" font-family="Helvetica,sans-Serif" font-size="10.00">GameObject.hpp</text>
</a>
</g>
</g>
<!-- Node4&#45;&gt;Node7 -->
<g id="edge6" class="edge"><title>Node4&#45;&gt;Node7</title>
<path fill="none" stroke="midnightblue" d="M334.928,-336.43C335.977,-322.972 339.776,-296.699 353.528,-280 365.817,-265.077 384.35,-254.533 401.156,-247.422"/>
<polygon fill="midnightblue" stroke="midnightblue" points="402.771,-250.548 410.792,-243.625 400.205,-244.035 402.771,-250.548"/>
</g>
<!-- Node19 -->
<g id="node19" class="node"><title>Node19</title>
<g id="a_node19"><a xlink:href="../../d6/d80/Camera_8hpp.html" target="_top" xlink:title="Camera.hpp">
<polygon fill="none" stroke="black" points="236.528,-280.5 236.528,-299.5 306.528,-299.5 306.528,-280.5 236.528,-280.5"/>
<text text-anchor="middle" x="271.528" y="-287.5" font-family="Helvetica,sans-Serif" font-size="10.00">Camera.hpp</text>
</a>
</g>
</g>
<!-- Node4&#45;&gt;Node19 -->
<g id="edge33" class="edge"><title>Node4&#45;&gt;Node19</title>
<path fill="none" stroke="midnightblue" d="M324.406,-336.324C315.001,-328.263 300.784,-316.077 289.459,-306.369"/>
<polygon fill="midnightblue" stroke="midnightblue" points="291.704,-303.684 281.834,-299.834 287.149,-308.999 291.704,-303.684"/>
</g>
<!-- Node20 -->
<g id="node20" class="node"><title>Node20</title>
<g id="a_node20"><a xlink:href="../../d5/dd5/Light_8hpp.html" target="_top" xlink:title="Light.hpp">
<polygon fill="none" stroke="black" points="362.528,-280.5 362.528,-299.5 418.528,-299.5 418.528,-280.5 362.528,-280.5"/>
<text text-anchor="middle" x="390.528" y="-287.5" font-family="Helvetica,sans-Serif" font-size="10.00">Light.hpp</text>
</a>
</g>
</g>
<!-- Node4&#45;&gt;Node20 -->
<g id="edge37" class="edge"><title>Node4&#45;&gt;Node20</title>
<path fill="none" stroke="midnightblue" d="M343.525,-336.324C351.722,-328.42 364.033,-316.548 374,-306.938"/>
<polygon fill="midnightblue" stroke="midnightblue" points="376.598,-309.295 381.367,-299.834 371.739,-304.256 376.598,-309.295"/>
</g>
<!-- Node7&#45;&gt;Node3 -->
<g id="edge9" class="edge"><title>Node7&#45;&gt;Node3</title>
<path fill="none" stroke="midnightblue" d="M485.827,-231.026C589.397,-226.117 836.807,-211.993 865.528,-188 878.901,-176.828 883.158,-156.804 884.372,-141.923"/>
<polygon fill="midnightblue" stroke="midnightblue" points="887.875,-141.918 884.807,-131.777 880.881,-141.618 887.875,-141.918"/>
</g>
<!-- Node7&#45;&gt;Node5 -->
<g id="edge8" class="edge"><title>Node7&#45;&gt;Node5</title>
<path fill="none" stroke="midnightblue" d="M485.593,-230.75C550.306,-224.981 668.761,-204.502 732.528,-132 743.801,-119.183 748.398,-99.9967 750.266,-85.7886"/>
<polygon fill="midnightblue" stroke="midnightblue" points="753.765,-85.971 751.255,-75.6779 746.798,-85.29 753.765,-85.971"/>
</g>
<!-- Node8 -->
<g id="node8" class="node"><title>Node8</title>
<polygon fill="none" stroke="#bfbfbf" points="296.528,-56.5 296.528,-75.5 366.528,-75.5 366.528,-56.5 296.528,-56.5"/>
<text text-anchor="middle" x="331.528" y="-63.5" font-family="Helvetica,sans-Serif" font-size="10.00">glm/glm.hpp</text>
</g>
<!-- Node7&#45;&gt;Node8 -->
<g id="edge7" class="edge"><title>Node7&#45;&gt;Node8</title>
<path fill="none" stroke="midnightblue" d="M423.575,-224.337C396.829,-209.587 345.8,-176.784 325.528,-132 318.89,-117.336 321.465,-98.9359 325.072,-85.4587"/>
<polygon fill="midnightblue" stroke="midnightblue" points="328.427,-86.4587 328.031,-75.8712 321.738,-84.3945 328.427,-86.4587"/>
</g>
<!-- Node9 -->
<g id="node9" class="node"><title>Node9</title>
<g id="a_node9"><a xlink:href="../../da/d83/Transform_8hpp.html" target="_top" xlink:title="Transform.hpp">
<polygon fill="none" stroke="black" points="226.528,-168.5 226.528,-187.5 306.528,-187.5 306.528,-168.5 226.528,-168.5"/>
<text text-anchor="middle" x="266.528" y="-175.5" font-family="Helvetica,sans-Serif" font-size="10.00">Transform.hpp</text>
</a>
</g>
</g>
<!-- Node7&#45;&gt;Node9 -->
<g id="edge10" class="edge"><title>Node7&#45;&gt;Node9</title>
<path fill="none" stroke="midnightblue" d="M412.957,-224.444C383.43,-215.28 336.41,-200.688 303.645,-190.519"/>
<polygon fill="midnightblue" stroke="midnightblue" points="304.558,-187.138 293.97,-187.516 302.483,-193.823 304.558,-187.138"/>
</g>
<!-- Node10 -->
<g id="node10" class="node"><title>Node10</title>
<g id="a_node10"><a xlink:href="../../d1/dca/IRenderer_8hpp.html" target="_top" xlink:title="IRenderer.hpp">
<polygon fill="none" stroke="black" points="778.528,-168.5 778.528,-187.5 856.528,-187.5 856.528,-168.5 778.528,-168.5"/>
<text text-anchor="middle" x="817.528" y="-175.5" font-family="Helvetica,sans-Serif" font-size="10.00">IRenderer.hpp</text>
</a>
</g>
</g>
<!-- Node7&#45;&gt;Node10 -->
<g id="edge12" class="edge"><title>Node7&#45;&gt;Node10</title>
<path fill="none" stroke="midnightblue" d="M485.667,-227.168C548.329,-218.973 665.185,-203.33 764.528,-188 765.799,-187.804 767.087,-187.603 768.386,-187.398"/>
<polygon fill="midnightblue" stroke="midnightblue" points="769.161,-190.818 778.475,-185.769 768.045,-183.908 769.161,-190.818"/>
</g>
<!-- Node11 -->
<g id="node11" class="node"><title>Node11</title>
<g id="a_node11"><a xlink:href="../../d0/d70/Material_8hpp.html" target="_top" xlink:title="Material.hpp">
<polygon fill="none" stroke="black" points="525.528,-168.5 525.528,-187.5 595.528,-187.5 595.528,-168.5 525.528,-168.5"/>
<text text-anchor="middle" x="560.528" y="-175.5" font-family="Helvetica,sans-Serif" font-size="10.00">Material.hpp</text>
</a>
</g>
</g>
<!-- Node7&#45;&gt;Node11 -->
<g id="edge16" class="edge"><title>Node7&#45;&gt;Node11</title>
<path fill="none" stroke="midnightblue" d="M459.542,-224.444C479.115,-215.636 509.835,-201.812 532.257,-191.722"/>
<polygon fill="midnightblue" stroke="midnightblue" points="533.919,-194.812 541.602,-187.516 531.047,-188.428 533.919,-194.812"/>
</g>
<!-- Node16 -->
<g id="node16" class="node"><title>Node16</title>
<g id="a_node16"><a xlink:href="../../d1/d62/Mesh_8hpp.html" target="_top" xlink:title="Mesh.hpp">
<polygon fill="none" stroke="black" points="400.028,-168.5 400.028,-187.5 459.028,-187.5 459.028,-168.5 400.028,-168.5"/>
<text text-anchor="middle" x="429.528" y="-175.5" font-family="Helvetica,sans-Serif" font-size="10.00">Mesh.hpp</text>
</a>
</g>
</g>
<!-- Node7&#45;&gt;Node16 -->
<g id="edge25" class="edge"><title>Node7&#45;&gt;Node16</title>
<path fill="none" stroke="midnightblue" d="M438.711,-224.083C437.254,-216.927 435.157,-206.635 433.335,-197.691"/>
<polygon fill="midnightblue" stroke="midnightblue" points="436.736,-196.851 431.31,-187.751 429.877,-198.248 436.736,-196.851"/>
</g>
<!-- Node9&#45;&gt;Node8 -->
<g id="edge11" class="edge"><title>Node9&#45;&gt;Node8</title>
<path fill="none" stroke="midnightblue" d="M262.821,-168.376C257.813,-155.301 250.586,-130.071 260.528,-112 268.415,-97.6632 283.013,-87.2525 296.931,-80.0792"/>
<polygon fill="midnightblue" stroke="midnightblue" points="298.82,-83.0578 306.367,-75.6217 295.83,-76.7285 298.82,-83.0578"/>
</g>
<!-- Node10&#45;&gt;Node3 -->
<g id="edge15" class="edge"><title>Node10&#45;&gt;Node3</title>
<path fill="none" stroke="midnightblue" d="M828.292,-168.324C838.294,-160.263 853.414,-148.077 865.458,-138.369"/>
<polygon fill="midnightblue" stroke="midnightblue" points="867.978,-140.834 873.567,-131.834 863.585,-135.384 867.978,-140.834"/>
</g>
<!-- Node10&#45;&gt;Node5 -->
<g id="edge14" class="edge"><title>Node10&#45;&gt;Node5</title>
<path fill="none" stroke="midnightblue" d="M813.684,-168.346C807.927,-155.657 796.459,-131.406 784.528,-112 778.565,-102.303 771.124,-92.0274 764.818,-83.7473"/>
<polygon fill="midnightblue" stroke="midnightblue" points="767.442,-81.4194 758.544,-75.6676 761.913,-85.7126 767.442,-81.4194"/>
</g>
<!-- Node10&#45;&gt;Node8 -->
<g id="edge13" class="edge"><title>Node10&#45;&gt;Node8</title>
<path fill="none" stroke="midnightblue" d="M778.33,-171.769C726.527,-164.526 632.582,-150.246 553.528,-132 518.236,-123.855 422.466,-94.9185 368.962,-78.5333"/>
<polygon fill="midnightblue" stroke="midnightblue" points="369.758,-75.1166 359.172,-75.5306 367.706,-81.8089 369.758,-75.1166"/>
</g>
<!-- Node11&#45;&gt;Node5 -->
<g id="edge18" class="edge"><title>Node11&#45;&gt;Node5</title>
<path fill="none" stroke="midnightblue" d="M595.569,-173.182C627.637,-168.205 675.05,-156.965 708.528,-132 724.762,-119.894 736.712,-99.7249 743.838,-85.0595"/>
<polygon fill="midnightblue" stroke="midnightblue" points="747.21,-86.099 748.166,-75.5474 740.839,-83.1996 747.21,-86.099"/>
</g>
<!-- Node11&#45;&gt;Node8 -->
<g id="edge17" class="edge"><title>Node11&#45;&gt;Node8</title>
<path fill="none" stroke="midnightblue" d="M525.334,-172.094C477.192,-164.821 393.978,-150.074 369.528,-132 353.795,-120.37 343.47,-100.121 337.606,-85.306"/>
<polygon fill="midnightblue" stroke="midnightblue" points="340.814,-83.8857 334.112,-75.6802 334.234,-86.2743 340.814,-83.8857"/>
</g>
<!-- Node12 -->
<g id="node12" class="node"><title>Node12</title>
<g id="a_node12"><a xlink:href="../../dc/ddb/ShaderProgram_8hpp.html" target="_top" xlink:title="ShaderProgram.hpp">
<polygon fill="none" stroke="black" points="563.028,-112.5 563.028,-131.5 666.028,-131.5 666.028,-112.5 563.028,-112.5"/>
<text text-anchor="middle" x="614.528" y="-119.5" font-family="Helvetica,sans-Serif" font-size="10.00">ShaderProgram.hpp</text>
</a>
</g>
</g>
<!-- Node11&#45;&gt;Node12 -->
<g id="edge19" class="edge"><title>Node11&#45;&gt;Node12</title>
<path fill="none" stroke="midnightblue" d="M569.445,-168.083C577.308,-160.22 588.959,-148.569 598.446,-139.081"/>
<polygon fill="midnightblue" stroke="midnightblue" points="601.18,-141.297 605.777,-131.751 596.231,-136.347 601.18,-141.297"/>
</g>
<!-- Node12&#45;&gt;Node5 -->
<g id="edge22" class="edge"><title>Node12&#45;&gt;Node5</title>
<path fill="none" stroke="midnightblue" d="M636.236,-112.444C658.882,-103.517 694.6,-89.4387 720.279,-79.3168"/>
<polygon fill="midnightblue" stroke="midnightblue" points="721.901,-82.4397 729.921,-75.5164 719.334,-75.9273 721.901,-82.4397"/>
</g>
<!-- Node12&#45;&gt;Node8 -->
<g id="edge20" class="edge"><title>Node12&#45;&gt;Node8</title>
<path fill="none" stroke="midnightblue" d="M569.686,-112.444C516.938,-102.379 429.864,-85.7639 376.892,-75.656"/>
<polygon fill="midnightblue" stroke="midnightblue" points="377.251,-72.1615 366.772,-73.7251 375.939,-79.0374 377.251,-72.1615"/>
</g>
<!-- Node13 -->
<g id="node13" class="node"><title>Node13</title>
<polygon fill="none" stroke="#bfbfbf" points="474.528,-56.5 474.528,-75.5 518.528,-75.5 518.528,-56.5 474.528,-56.5"/>
<text text-anchor="middle" x="496.528" y="-63.5" font-family="Helvetica,sans-Serif" font-size="10.00">vector</text>
</g>
<!-- Node12&#45;&gt;Node13 -->
<g id="edge21" class="edge"><title>Node12&#45;&gt;Node13</title>
<path fill="none" stroke="midnightblue" d="M595.83,-112.444C576.583,-103.636 546.375,-89.8116 524.328,-79.722"/>
<polygon fill="midnightblue" stroke="midnightblue" points="525.687,-76.4951 515.138,-75.5164 522.774,-82.8603 525.687,-76.4951"/>
</g>
<!-- Node14 -->
<g id="node14" class="node"><title>Node14</title>
<g id="a_node14"><a xlink:href="../../d4/d6e/Shader_8hpp.html" target="_top" xlink:title="Shader.hpp">
<polygon fill="none" stroke="black" points="559.528,-56.5 559.528,-75.5 625.528,-75.5 625.528,-56.5 559.528,-56.5"/>
<text text-anchor="middle" x="592.528" y="-63.5" font-family="Helvetica,sans-Serif" font-size="10.00">Shader.hpp</text>
</a>
</g>
</g>
<!-- Node12&#45;&gt;Node14 -->
<g id="edge23" class="edge"><title>Node12&#45;&gt;Node14</title>
<path fill="none" stroke="midnightblue" d="M610.895,-112.083C607.915,-104.77 603.602,-94.1814 599.903,-85.1034"/>
<polygon fill="midnightblue" stroke="midnightblue" points="603.107,-83.6914 596.093,-75.7511 596.625,-86.3326 603.107,-83.6914"/>
</g>
<!-- Node15 -->
<g id="node15" class="node"><title>Node15</title>
<polygon fill="none" stroke="#bfbfbf" points="276.028,-0.5 276.028,-19.5 317.028,-19.5 317.028,-0.5 276.028,-0.5"/>
<text text-anchor="middle" x="296.528" y="-7.5" font-family="Helvetica,sans-Serif" font-size="10.00">string</text>
</g>
<!-- Node14&#45;&gt;Node15 -->
<g id="edge24" class="edge"><title>Node14&#45;&gt;Node15</title>
<path fill="none" stroke="midnightblue" d="M559.434,-58.9627C501.61,-48.4137 383.02,-26.7789 327.052,-16.5687"/>
<polygon fill="midnightblue" stroke="midnightblue" points="327.51,-13.0946 317.045,-14.7429 326.254,-19.9809 327.51,-13.0946"/>
</g>
<!-- Node16&#45;&gt;Node5 -->
<g id="edge27" class="edge"><title>Node16&#45;&gt;Node5</title>
<path fill="none" stroke="midnightblue" d="M459.442,-173.459C516.081,-166.437 636.697,-149.873 674.528,-132 699.352,-120.272 722.677,-98.4953 737.013,-83.3981"/>
<polygon fill="midnightblue" stroke="midnightblue" points="739.806,-85.5317 744.004,-75.8041 734.656,-80.7904 739.806,-85.5317"/>
</g>
<!-- Node16&#45;&gt;Node8 -->
<g id="edge28" class="edge"><title>Node16&#45;&gt;Node8</title>
<path fill="none" stroke="midnightblue" d="M399.61,-170.824C378.303,-164.75 350.978,-153.192 336.528,-132 327.371,-118.571 326.914,-99.7537 328.278,-85.8194"/>
<polygon fill="midnightblue" stroke="midnightblue" points="331.749,-86.2684 329.631,-75.8876 324.813,-85.3237 331.749,-86.2684"/>
</g>
<!-- Node16&#45;&gt;Node13 -->
<g id="edge26" class="edge"><title>Node16&#45;&gt;Node13</title>
<path fill="none" stroke="midnightblue" d="M441.93,-168.399C452.819,-160.228 468.318,-146.987 477.528,-132 486.28,-117.757 491.171,-99.284 493.79,-85.6734"/>
<polygon fill="midnightblue" stroke="midnightblue" points="497.28,-86.0265 495.491,-75.5838 490.377,-84.863 497.28,-86.0265"/>
</g>
<!-- Node17 -->
<g id="node17" class="node"><title>Node17</title>
<polygon fill="none" stroke="#bfbfbf" points="87.0277,-112.5 87.0277,-131.5 170.028,-131.5 170.028,-112.5 87.0277,-112.5"/>
<text text-anchor="middle" x="128.528" y="-119.5" font-family="Helvetica,sans-Serif" font-size="10.00">assimp/mesh.h</text>
</g>
<!-- Node16&#45;&gt;Node17 -->
<g id="edge29" class="edge"><title>Node16&#45;&gt;Node17</title>
<path fill="none" stroke="midnightblue" d="M399.843,-171.674C348.773,-162.512 243.683,-143.659 180.33,-132.293"/>
<polygon fill="midnightblue" stroke="midnightblue" points="180.614,-128.789 170.154,-130.468 179.378,-135.679 180.614,-128.789"/>
</g>
<!-- Node18 -->
<g id="node18" class="node"><title>Node18</title>
<g id="a_node18"><a xlink:href="../../da/d04/BufferObject_8hpp.html" target="_top" xlink:title="BufferObject.hpp">
<polygon fill="none" stroke="black" points="378.528,-112.5 378.528,-131.5 468.528,-131.5 468.528,-112.5 378.528,-112.5"/>
<text text-anchor="middle" x="423.528" y="-119.5" font-family="Helvetica,sans-Serif" font-size="10.00">BufferObject.hpp</text>
</a>
</g>
</g>
<!-- Node16&#45;&gt;Node18 -->
<g id="edge30" class="edge"><title>Node16&#45;&gt;Node18</title>
<path fill="none" stroke="midnightblue" d="M428.537,-168.083C427.742,-160.927 426.598,-150.635 425.605,-141.691"/>
<polygon fill="midnightblue" stroke="midnightblue" points="429.083,-141.303 424.5,-131.751 422.126,-142.076 429.083,-141.303"/>
</g>
<!-- Node18&#45;&gt;Node8 -->
<g id="edge32" class="edge"><title>Node18&#45;&gt;Node8</title>
<path fill="none" stroke="midnightblue" d="M408.746,-112.324C394.261,-103.822 371.955,-90.7288 355.035,-80.7975"/>
<polygon fill="midnightblue" stroke="midnightblue" points="356.668,-77.6981 346.272,-75.6545 353.125,-83.735 356.668,-77.6981"/>
</g>
<!-- Node18&#45;&gt;Node13 -->
<g id="edge31" class="edge"><title>Node18&#45;&gt;Node13</title>
<path fill="none" stroke="midnightblue" d="M435.256,-112.324C446.365,-104.107 463.27,-91.6017 476.511,-81.8069"/>
<polygon fill="midnightblue" stroke="midnightblue" points="478.628,-84.5948 484.586,-75.8339 474.465,-78.9671 478.628,-84.5948"/>
</g>
<!-- Node19&#45;&gt;Node7 -->
<g id="edge36" class="edge"><title>Node19&#45;&gt;Node7</title>
<path fill="none" stroke="midnightblue" d="M298.306,-280.444C326.861,-271.32 372.26,-256.813 404.065,-246.651"/>
<polygon fill="midnightblue" stroke="midnightblue" points="405.414,-249.894 413.874,-243.516 403.284,-243.226 405.414,-249.894"/>
</g>
<!-- Node19&#45;&gt;Node8 -->
<g id="edge34" class="edge"><title>Node19&#45;&gt;Node8</title>
<path fill="none" stroke="midnightblue" d="M262.812,-280.22C244.538,-260.711 204.908,-212.004 217.528,-168 225.619,-139.787 231.355,-132.326 252.528,-112 266.483,-98.6026 285.184,-87.719 300.887,-80.013"/>
<polygon fill="midnightblue" stroke="midnightblue" points="302.647,-83.0531 310.208,-75.6315 299.669,-76.7181 302.647,-83.0531"/>
</g>
<!-- Node19&#45;&gt;Node9 -->
<g id="edge35" class="edge"><title>Node19&#45;&gt;Node9</title>
<path fill="none" stroke="midnightblue" d="M271.135,-280.368C270.328,-262.617 268.467,-221.666 267.373,-197.597"/>
<polygon fill="midnightblue" stroke="midnightblue" points="270.869,-197.422 266.918,-187.591 263.876,-197.74 270.869,-197.422"/>
</g>
<!-- Node21&#45;&gt;Node4 -->
<g id="edge43" class="edge"><title>Node21&#45;&gt;Node4</title>
<path fill="none" stroke="midnightblue" d="M204.306,-397.975C230.266,-387.813 273.839,-370.756 303.362,-359.2"/>
<polygon fill="midnightblue" stroke="midnightblue" points="304.754,-362.413 312.79,-355.509 302.202,-355.895 304.754,-362.413"/>
</g>
<!-- Node21&#45;&gt;Node6 -->
<g id="edge40" class="edge"><title>Node21&#45;&gt;Node6</title>
<path fill="none" stroke="midnightblue" d="M184.106,-397.819C187.496,-379.173 195.538,-334.943 200.14,-309.632"/>
<polygon fill="midnightblue" stroke="midnightblue" points="203.586,-310.247 201.931,-299.782 196.698,-308.995 203.586,-310.247"/>
</g>
<!-- Node21&#45;&gt;Node15 -->
<g id="edge39" class="edge"><title>Node21&#45;&gt;Node15</title>
<path fill="none" stroke="midnightblue" d="M130.374,-403C94.6407,-397.894 48.6192,-385.562 19.5277,-356 -1.58313,-334.548 0.52771,-321.098 0.52771,-291 0.52771,-291 0.52771,-291 0.52771,-121 0.52771,-64.844 190.087,-28.1216 265.815,-15.6917"/>
<polygon fill="midnightblue" stroke="midnightblue" points="266.396,-19.1433 275.714,-14.0995 265.285,-12.2321 266.396,-19.1433"/>
</g>
<!-- Node21&#45;&gt;Node17 -->
<g id="edge42" class="edge"><title>Node21&#45;&gt;Node17</title>
<path fill="none" stroke="midnightblue" d="M180.852,-397.705C173.34,-358.266 142.667,-197.234 132.114,-141.83"/>
<polygon fill="midnightblue" stroke="midnightblue" points="135.493,-140.861 130.183,-131.693 128.617,-142.171 135.493,-140.861"/>
</g>
<!-- Node22 -->
<g id="node22" class="node"><title>Node22</title>
<polygon fill="none" stroke="#bfbfbf" points="28.5277,-336.5 28.5277,-355.5 134.528,-355.5 134.528,-336.5 28.5277,-336.5"/>
<text text-anchor="middle" x="81.5277" y="-343.5" font-family="Helvetica,sans-Serif" font-size="10.00">assimp/Importer.hpp</text>
</g>
<!-- Node21&#45;&gt;Node22 -->
<g id="edge41" class="edge"><title>Node21&#45;&gt;Node22</title>
<path fill="none" stroke="midnightblue" d="M168.057,-397.975C151.557,-388.255 124.349,-372.227 104.846,-360.737"/>
<polygon fill="midnightblue" stroke="midnightblue" points="106.364,-357.569 95.9717,-355.509 102.811,-363.601 106.364,-357.569"/>
</g>
<!-- Node23&#45;&gt;Node7 -->
<g id="edge45" class="edge"><title>Node23&#45;&gt;Node7</title>
<path fill="none" stroke="midnightblue" d="M450.16,-459.431C448.715,-425.754 443.403,-301.994 441.348,-254.102"/>
<polygon fill="midnightblue" stroke="midnightblue" points="444.835,-253.736 440.91,-243.896 437.842,-254.037 444.835,-253.736"/>
</g>
<!-- Node24&#45;&gt;Node2 -->
<g id="edge52" class="edge"><title>Node24&#45;&gt;Node2</title>
<path fill="none" stroke="midnightblue" d="M703.01,-459.475C665.603,-449.026 602.101,-431.287 560.741,-419.733"/>
<polygon fill="midnightblue" stroke="midnightblue" points="561.562,-416.329 550.989,-417.009 559.678,-423.071 561.562,-416.329"/>
</g>
<!-- Node25 -->
<g id="node25" class="node"><title>Node25</title>
<polygon fill="none" stroke="#bfbfbf" points="833.028,-398 833.028,-417 892.028,-417 892.028,-398 833.028,-398"/>
<text text-anchor="middle" x="862.528" y="-405" font-family="Helvetica,sans-Serif" font-size="10.00">QWindow</text>
</g>
<!-- Node24&#45;&gt;Node25 -->
<g id="edge47" class="edge"><title>Node24&#45;&gt;Node25</title>
<path fill="none" stroke="midnightblue" d="M752.01,-459.475C773.659,-449.49 809.74,-432.848 834.76,-421.307"/>
<polygon fill="midnightblue" stroke="midnightblue" points="836.465,-424.376 844.079,-417.009 833.533,-418.019 836.465,-424.376"/>
</g>
<!-- Node26 -->
<g id="node26" class="node"><title>Node26</title>
<polygon fill="none" stroke="#bfbfbf" points="910.028,-398 910.028,-417 1005.03,-417 1005.03,-398 910.028,-398"/>
<text text-anchor="middle" x="957.528" y="-405" font-family="Helvetica,sans-Serif" font-size="10.00">QOpenGLContext</text>
</g>
<!-- Node24&#45;&gt;Node26 -->
<g id="edge48" class="edge"><title>Node24&#45;&gt;Node26</title>
<path fill="none" stroke="midnightblue" d="M765.621,-459.475C805.127,-448.982 872.307,-431.137 915.788,-419.587"/>
<polygon fill="midnightblue" stroke="midnightblue" points="916.727,-422.959 925.494,-417.009 914.93,-416.194 916.727,-422.959"/>
</g>
<!-- Node27 -->
<g id="node27" class="node"><title>Node27</title>
<polygon fill="none" stroke="#bfbfbf" points="1023.03,-392.5 1023.03,-422.5 1136.03,-422.5 1136.03,-392.5 1023.03,-392.5"/>
<text text-anchor="start" x="1031.03" y="-410.5" font-family="Helvetica,sans-Serif" font-size="10.00">QOpenGLFunctions_4</text>
<text text-anchor="middle" x="1079.53" y="-399.5" font-family="Helvetica,sans-Serif" font-size="10.00">_2_Core</text>
</g>
<!-- Node24&#45;&gt;Node27 -->
<g id="edge49" class="edge"><title>Node24&#45;&gt;Node27</title>
<path fill="none" stroke="midnightblue" d="M766.395,-463.337C817.025,-456.02 917.364,-440.988 1012.6,-423.111"/>
<polygon fill="midnightblue" stroke="midnightblue" points="1013.51,-426.5 1022.69,-421.203 1012.21,-419.622 1013.51,-426.5"/>
</g>
<!-- Node28 -->
<g id="node28" class="node"><title>Node28</title>
<polygon fill="none" stroke="#bfbfbf" points="585.028,-398 585.028,-417 652.028,-417 652.028,-398 585.028,-398"/>
<text text-anchor="middle" x="618.528" y="-405" font-family="Helvetica,sans-Serif" font-size="10.00">QKeyEvent</text>
</g>
<!-- Node24&#45;&gt;Node28 -->
<g id="edge50" class="edge"><title>Node24&#45;&gt;Node28</title>
<path fill="none" stroke="midnightblue" d="M717.051,-459.475C697.922,-449.578 666.154,-433.142 643.876,-421.615"/>
<polygon fill="midnightblue" stroke="midnightblue" points="645.464,-418.496 634.974,-417.009 642.247,-424.713 645.464,-418.496"/>
</g>
<!-- Node29 -->
<g id="node29" class="node"><title>Node29</title>
<polygon fill="none" stroke="#bfbfbf" points="670.528,-398 670.528,-417 716.528,-417 716.528,-398 670.528,-398"/>
<text text-anchor="middle" x="693.528" y="-405" font-family="Helvetica,sans-Serif" font-size="10.00">QTime</text>
</g>
<!-- Node24&#45;&gt;Node29 -->
<g id="edge51" class="edge"><title>Node24&#45;&gt;Node29</title>
<path fill="none" stroke="midnightblue" d="M727.797,-459.475C721.856,-450.638 712.411,-436.589 704.939,-425.475"/>
<polygon fill="midnightblue" stroke="midnightblue" points="707.732,-423.355 699.248,-417.009 701.923,-427.261 707.732,-423.355"/>
</g>
<!-- Node30 -->
<g id="node30" class="node"><title>Node30</title>
<g id="a_node30"><a xlink:href="../../dc/d51/model_8h.html" target="_top" xlink:title="model/model.h">
<polygon fill="none" stroke="black" points="734.528,-398 734.528,-417 814.528,-417 814.528,-398 734.528,-398"/>
<text text-anchor="middle" x="774.528" y="-405" font-family="Helvetica,sans-Serif" font-size="10.00">model/model.h</text>
</a>
</g>
</g>
<!-- Node24&#45;&gt;Node30 -->
<g id="edge53" class="edge"><title>Node24&#45;&gt;Node30</title>
<path fill="none" stroke="midnightblue" d="M739.402,-459.475C745.491,-450.638 755.173,-436.589 762.831,-425.475"/>
<polygon fill="midnightblue" stroke="midnightblue" points="765.872,-427.229 768.664,-417.009 760.108,-423.258 765.872,-427.229"/>
</g>
<!-- Node31 -->
<g id="node31" class="node"><title>Node31</title>
<g id="a_node31"><a xlink:href="../../d5/da5/tools_8h.html" target="_top" xlink:title="tools.h">
<polygon fill="none" stroke="black" points="1178.53,-336.5 1178.53,-355.5 1224.53,-355.5 1224.53,-336.5 1178.53,-336.5"/>
<text text-anchor="middle" x="1201.53" y="-343.5" font-family="Helvetica,sans-Serif" font-size="10.00">tools.h</text>
</a>
</g>
</g>
<!-- Node30&#45;&gt;Node31 -->
<g id="edge54" class="edge"><title>Node30&#45;&gt;Node31</title>
<path fill="none" stroke="midnightblue" d="M800.259,-397.997C807.702,-395.78 815.881,-393.575 823.528,-392 949.227,-366.114 1101.73,-353.607 1168.04,-349.076"/>
<polygon fill="midnightblue" stroke="midnightblue" points="1168.55,-352.55 1178.3,-348.393 1168.09,-345.565 1168.55,-352.55"/>
</g>
<!-- Node32 -->
<g id="node32" class="node"><title>Node32</title>
<polygon fill="none" stroke="#bfbfbf" points="1243.53,-280.5 1243.53,-299.5 1293.53,-299.5 1293.53,-280.5 1243.53,-280.5"/>
<text text-anchor="middle" x="1268.53" y="-287.5" font-family="Helvetica,sans-Serif" font-size="10.00">QString</text>
</g>
<!-- Node31&#45;&gt;Node32 -->
<g id="edge55" class="edge"><title>Node31&#45;&gt;Node32</title>
<path fill="none" stroke="midnightblue" d="M1212.29,-336.324C1222.29,-328.263 1237.41,-316.077 1249.46,-306.369"/>
<polygon fill="midnightblue" stroke="midnightblue" points="1251.98,-308.834 1257.57,-299.834 1247.58,-303.384 1251.98,-308.834"/>
</g>
<!-- Node33 -->
<g id="node33" class="node"><title>Node33</title>
<polygon fill="none" stroke="#bfbfbf" points="1312.03,-280.5 1312.03,-299.5 1377.03,-299.5 1377.03,-280.5 1312.03,-280.5"/>
<text text-anchor="middle" x="1344.53" y="-287.5" font-family="Helvetica,sans-Serif" font-size="10.00">QVector3D</text>
</g>
<!-- Node31&#45;&gt;Node33 -->
<g id="edge56" class="edge"><title>Node31&#45;&gt;Node33</title>
<path fill="none" stroke="midnightblue" d="M1224.19,-336.444C1247.93,-327.478 1285.44,-313.314 1312.27,-303.183"/>
<polygon fill="midnightblue" stroke="midnightblue" points="1313.86,-306.324 1321.97,-299.516 1311.38,-299.775 1313.86,-306.324"/>
</g>
<!-- Node34 -->
<g id="node34" class="node"><title>Node34</title>
<polygon fill="none" stroke="#bfbfbf" points="1395.53,-280.5 1395.53,-299.5 1435.53,-299.5 1435.53,-280.5 1395.53,-280.5"/>
<text text-anchor="middle" x="1415.53" y="-287.5" font-family="Helvetica,sans-Serif" font-size="10.00">QList</text>
</g>
<!-- Node31&#45;&gt;Node34 -->
<g id="edge57" class="edge"><title>Node31&#45;&gt;Node34</title>
<path fill="none" stroke="midnightblue" d="M1224.57,-339.766C1259.52,-331.74 1327.93,-315.671 1385.53,-300 1385.63,-299.973 1385.72,-299.946 1385.82,-299.919"/>
<polygon fill="midnightblue" stroke="midnightblue" points="1386.57,-303.345 1395.24,-297.242 1384.66,-296.612 1386.57,-303.345"/>
</g>
<!-- Node35 -->
<g id="node35" class="node"><title>Node35</title>
<polygon fill="none" stroke="#bfbfbf" points="1008.03,-280.5 1008.03,-299.5 1051.03,-299.5 1051.03,-280.5 1008.03,-280.5"/>
<text text-anchor="middle" x="1029.53" y="-287.5" font-family="Helvetica,sans-Serif" font-size="10.00">QMap</text>
</g>
<!-- Node31&#45;&gt;Node35 -->
<g id="edge58" class="edge"><title>Node31&#45;&gt;Node35</title>
<path fill="none" stroke="midnightblue" d="M1178.33,-337.717C1148.08,-328.221 1095.04,-311.569 1061.14,-300.923"/>
<polygon fill="midnightblue" stroke="midnightblue" points="1061.86,-297.483 1051.27,-297.827 1059.77,-304.162 1061.86,-297.483"/>
</g>
<!-- Node36 -->
<g id="node36" class="node"><title>Node36</title>
<polygon fill="none" stroke="#bfbfbf" points="1069.03,-280.5 1069.03,-299.5 1160.03,-299.5 1160.03,-280.5 1069.03,-280.5"/>
<text text-anchor="middle" x="1114.53" y="-287.5" font-family="Helvetica,sans-Serif" font-size="10.00">QGraphicsScene</text>
</g>
<!-- Node31&#45;&gt;Node36 -->
<g id="edge59" class="edge"><title>Node31&#45;&gt;Node36</title>
<path fill="none" stroke="midnightblue" d="M1187.55,-336.324C1173.98,-327.9 1153.15,-314.971 1137.2,-305.074"/>
<polygon fill="midnightblue" stroke="midnightblue" points="1138.81,-301.954 1128.47,-299.655 1135.12,-307.902 1138.81,-301.954"/>
</g>
<!-- Node37 -->
<g id="node37" class="node"><title>Node37</title>
<polygon fill="none" stroke="#bfbfbf" points="1178.03,-280.5 1178.03,-299.5 1225.03,-299.5 1225.03,-280.5 1178.03,-280.5"/>
<text text-anchor="middle" x="1201.53" y="-287.5" font-family="Helvetica,sans-Serif" font-size="10.00">math.h</text>
</g>
<!-- Node31&#45;&gt;Node37 -->
<g id="edge60" class="edge"><title>Node31&#45;&gt;Node37</title>
<path fill="none" stroke="midnightblue" d="M1201.53,-336.083C1201.53,-329.006 1201.53,-318.861 1201.53,-309.986"/>
<polygon fill="midnightblue" stroke="midnightblue" points="1205.03,-309.751 1201.53,-299.751 1198.03,-309.751 1205.03,-309.751"/>
</g>
</g>
</svg>
        <g id="navigator" transform="translate(0 0)" fill="#404254">
                <rect fill="#f2f5e9" fill-opacity="0.5" stroke="#606060" stroke-width=".5" x="0" y="0" width="60" height="60"/>
                <use id="zoomplus" xlink:href="#zoomPlus" x="17" y="9" onmousedown="handleZoom(evt,'in')"/>
                <use id="zoomminus" xlink:href="#zoomMin" x="42" y="9" onmousedown="handleZoom(evt,'out')"/>
                <use id="reset" xlink:href="#resetDef" x="30" y="36" onmousedown="handleReset()"/>
                <g id="arrowUp" xlink:href="#dirArrow" transform="translate(30 24)" onmousedown="handlePan(0,-1)">
                  <use xlink:href="#rim" fill="#404040">
                        <set attributeName="fill" to="#808080" begin="arrowUp.mouseover" end="arrowUp.mouseout"/>
                  </use>
                  <path fill="none" stroke="white" stroke-width="1.5" d="M0,-3.0v7 M-2.5,-0.5L0,-3.0L2.5,-0.5"/>
                </g>
                <g id="arrowRight" xlink:href="#dirArrow" transform="rotate(90) translate(36 -43)" onmousedown="handlePan(1,0)">
                  <use xlink:href="#rim" fill="#404040">
                        <set attributeName="fill" to="#808080" begin="arrowRight.mouseover" end="arrowRight.mouseout"/>
                  </use>
                  <path fill="none" stroke="white" stroke-width="1.5" d="M0,-3.0v7 M-2.5,-0.5L0,-3.0L2.5,-0.5"/>
                </g>
                <g id="arrowDown" xlink:href="#dirArrow" transform="rotate(180) translate(-30 -48)" onmousedown="handlePan(0,1)">
                  <use xlink:href="#rim" fill="#404040">
                        <set attributeName="fill" to="#808080" begin="arrowDown.mouseover" end="arrowDown.mouseout"/>
                  </use>
                  <path fill="none" stroke="white" stroke-width="1.5" d="M0,-3.0v7 M-2.5,-0.5L0,-3.0L2.5,-0.5"/>
                </g>
                <g id="arrowLeft" xlink:href="#dirArrow" transform="rotate(270) translate(-36 17)" onmousedown="handlePan(-1,0)">
                  <use xlink:href="#rim" fill="#404040">
                        <set attributeName="fill" to="#808080" begin="arrowLeft.mouseover" end="arrowLeft.mouseout"/>
                  </use>
                  <path fill="none" stroke="white" stroke-width="1.5" d="M0,-3.0v7 M-2.5,-0.5L0,-3.0L2.5,-0.5"/>
                </g>
        </g>
        <svg viewBox="0 0 15 15" width="100%" height="30px" preserveAspectRatio="xMaxYMin meet">
         <g id="arrow_out" transform="scale(0.3 0.3)">
          <a xlink:href="GameEngine_8cpp__incl_org.svg" target="_base">
           <rect id="button" ry="5" rx="5" y="6" x="6" height="38" width="38"
                fill="#f2f5e9" fill-opacity="0.5" stroke="#606060" stroke-width="1.0"/>
           <path id="arrow"
             d="M 11.500037,31.436501 C 11.940474,20.09759 22.043105,11.32322 32.158766,21.979434 L 37.068811,17.246167 C 37.068811,17.246167 37.088388,32 37.088388,32 L 22.160133,31.978069 C 22.160133,31.978069 26.997745,27.140456 26.997745,27.140456 C 18.528582,18.264221 13.291696,25.230495 11.500037,31.436501 z"
             style="fill:#404040;"/>
          </a>
         </g>
        </svg>
</svg>
