<?xml version="1.0" encoding="UTF-8" standalone="no"?>
<!DOCTYPE svg PUBLIC "-//W3C//DTD SVG 1.1//EN"
 "http://www.w3.org/Graphics/SVG/1.1/DTD/svg11.dtd">
<!-- Generated by graphviz version 2.38.0 (20140413.2041)
 -->
<!-- Title: Model::WorldConf Pages: 1 -->
<svg width="411pt" height="182pt"
 viewBox="0.00 0.00 411.00 182.00" xmlns="http://www.w3.org/2000/svg" xmlns:xlink="http://www.w3.org/1999/xlink">
<g id="graph0" class="graph" transform="scale(1 1) rotate(0) translate(4 178)">
<title>Model::WorldConf</title>
<!-- Node1 -->
<g id="node1" class="node"><title>Node1</title>
<polygon fill="#bfbfbf" stroke="black" points="118.5,-0.5 118.5,-57.5 213.5,-57.5 213.5,-0.5 118.5,-0.5"/>
<text text-anchor="middle" x="166" y="-45.5" font-family="Helvetica,sans-Serif" font-size="10.00">Model::WorldConf</text>
<polyline fill="none" stroke="black" points="118.5,-38.5 213.5,-38.5 "/>
<text text-anchor="middle" x="166" y="-26.5" font-family="Helvetica,sans-Serif" font-size="10.00"> </text>
<polyline fill="none" stroke="black" points="118.5,-19.5 213.5,-19.5 "/>
<text text-anchor="middle" x="166" y="-7.5" font-family="Helvetica,sans-Serif" font-size="10.00"> </text>
</g>
<!-- Node2 -->
<g id="node2" class="node"><title>Node2</title>
<polygon fill="none" stroke="#bfbfbf" points="0,-111 0,-168 50,-168 50,-111 0,-111"/>
<text text-anchor="middle" x="25" y="-156" font-family="Helvetica,sans-Serif" font-size="10.00">QString</text>
<polyline fill="none" stroke="#bfbfbf" points="0,-149 50,-149 "/>
<text text-anchor="middle" x="25" y="-137" font-family="Helvetica,sans-Serif" font-size="10.00"> </text>
<polyline fill="none" stroke="#bfbfbf" points="0,-130 50,-130 "/>
<text text-anchor="middle" x="25" y="-118" font-family="Helvetica,sans-Serif" font-size="10.00"> </text>
</g>
<!-- Node2&#45;&gt;Node1 -->
<g id="edge1" class="edge"><title>Node2&#45;&gt;Node1</title>
<path fill="none" stroke="#404040" d="M35.6508,-110.918C41.3906,-98.9394 49.4816,-85.5058 60,-76 73.4231,-63.8692 90.5442,-54.5764 107.092,-47.6277"/>
<polygon fill="none" stroke="#404040" points="107.234,-47.5719 111.357,-41.6555 118.404,-43.1855 114.281,-49.1019 107.234,-47.5719"/>
<text text-anchor="middle" x="77" y="-79" font-family="Helvetica,sans-Serif" font-size="10.00"> +name</text>
</g>
<!-- Node3 -->
<g id="node3" class="node"><title>Node3</title>
<polygon fill="none" stroke="#bfbfbf" points="68.5,-111 68.5,-168 97.5,-168 97.5,-111 68.5,-111"/>
<text text-anchor="middle" x="83" y="-156" font-family="Helvetica,sans-Serif" font-size="10.00">int</text>
<polyline fill="none" stroke="#bfbfbf" points="68.5,-149 97.5,-149 "/>
<text text-anchor="middle" x="83" y="-137" font-family="Helvetica,sans-Serif" font-size="10.00"> </text>
<polyline fill="none" stroke="#bfbfbf" points="68.5,-130 97.5,-130 "/>
<text text-anchor="middle" x="83" y="-118" font-family="Helvetica,sans-Serif" font-size="10.00"> </text>
</g>
<!-- Node3&#45;&gt;Node1 -->
<g id="edge2" class="edge"><title>Node3&#45;&gt;Node1</title>
<path fill="none" stroke="#404040" d="M88.3916,-110.954C91.5917,-99.3948 96.5317,-86.2794 104,-76 106.595,-72.4285 109.548,-69.0146 112.725,-65.7767"/>
<polygon fill="none" stroke="#404040" points="112.74,-65.7632 114.441,-58.7555 121.563,-57.6302 119.863,-64.6379 112.74,-65.7632"/>
<text text-anchor="middle" x="133" y="-79" font-family="Helvetica,sans-Serif" font-size="10.00"> +windPower</text>
</g>
<!-- Node4 -->
<g id="node4" class="node"><title>Node4</title>
<polygon fill="none" stroke="#bfbfbf" points="115,-105.5 115,-173.5 217,-173.5 217,-105.5 115,-105.5"/>
<text text-anchor="start" x="123" y="-161.5" font-family="Helvetica,sans-Serif" font-size="10.00">Map&lt; String, Model</text>
<text text-anchor="middle" x="166" y="-150.5" font-family="Helvetica,sans-Serif" font-size="10.00">::Mod * &gt;</text>
<polyline fill="none" stroke="#bfbfbf" points="115,-143.5 217,-143.5 "/>
<text text-anchor="middle" x="166" y="-131.5" font-family="Helvetica,sans-Serif" font-size="10.00"> </text>
<polyline fill="none" stroke="#bfbfbf" points="115,-124.5 217,-124.5 "/>
<text text-anchor="middle" x="166" y="-112.5" font-family="Helvetica,sans-Serif" font-size="10.00"> </text>
</g>
<!-- Node4&#45;&gt;Node1 -->
<g id="edge3" class="edge"><title>Node4&#45;&gt;Node1</title>
<path fill="none" stroke="#404040" d="M166,-105.357C166,-94.1899 166,-81.6093 166,-69.9724"/>
<polygon fill="none" stroke="#404040" points="166,-69.827 162,-63.827 166,-57.827 170,-63.8269 166,-69.827"/>
<text text-anchor="middle" x="183" y="-79" font-family="Helvetica,sans-Serif" font-size="10.00"> +mods</text>
</g>
<!-- Node5 -->
<g id="node5" class="node"><title>Node5</title>
<polygon fill="none" stroke="#bfbfbf" points="235,-111 235,-168 315,-168 315,-111 235,-111"/>
<text text-anchor="middle" x="275" y="-156" font-family="Helvetica,sans-Serif" font-size="10.00">CLIMATTYPE</text>
<polyline fill="none" stroke="#bfbfbf" points="235,-149 315,-149 "/>
<text text-anchor="middle" x="275" y="-137" font-family="Helvetica,sans-Serif" font-size="10.00"> </text>
<polyline fill="none" stroke="#bfbfbf" points="235,-130 315,-130 "/>
<text text-anchor="middle" x="275" y="-118" font-family="Helvetica,sans-Serif" font-size="10.00"> </text>
</g>
<!-- Node5&#45;&gt;Node1 -->
<g id="edge4" class="edge"><title>Node5&#45;&gt;Node1</title>
<path fill="none" stroke="#404040" d="M247.213,-110.84C233.632,-97.3218 217.111,-80.8769 202.525,-66.3575"/>
<polygon fill="none" stroke="#404040" points="202.241,-66.0751 195.167,-64.6772 193.737,-57.6094 200.811,-59.0073 202.241,-66.0751"/>
<text text-anchor="middle" x="248.5" y="-79" font-family="Helvetica,sans-Serif" font-size="10.00"> +climattype</text>
</g>
<!-- Node6 -->
<g id="node6" class="node"><title>Node6</title>
<polygon fill="none" stroke="#bfbfbf" points="333,-111 333,-168 403,-168 403,-111 333,-111"/>
<text text-anchor="middle" x="368" y="-156" font-family="Helvetica,sans-Serif" font-size="10.00">LANDTYPE</text>
<polyline fill="none" stroke="#bfbfbf" points="333,-149 403,-149 "/>
<text text-anchor="middle" x="368" y="-137" font-family="Helvetica,sans-Serif" font-size="10.00"> </text>
<polyline fill="none" stroke="#bfbfbf" points="333,-130 403,-130 "/>
<text text-anchor="middle" x="368" y="-118" font-family="Helvetica,sans-Serif" font-size="10.00"> </text>
</g>
<!-- Node6&#45;&gt;Node1 -->
<g id="edge5" class="edge"><title>Node6&#45;&gt;Node1</title>
<path fill="none" stroke="#404040" d="M332.613,-111.23C329.716,-109.098 326.82,-106.999 324,-105 304.894,-91.4538 300.74,-86.8804 280,-76 262.553,-66.8476 242.866,-58.3144 224.822,-51.1441"/>
<polygon fill="none" stroke="#404040" points="224.721,-51.1048 217.679,-52.6544 213.539,-46.7495 220.582,-45.1999 224.721,-51.1048"/>
<text text-anchor="middle" x="322" y="-79" font-family="Helvetica,sans-Serif" font-size="10.00"> +landtype</text>
</g>
</g>
</svg>
