<?xml version="1.0" encoding="UTF-8" standalone="no"?>
<!DOCTYPE svg PUBLIC "-//W3C//DTD SVG 1.1//EN"
 "http://www.w3.org/Graphics/SVG/1.1/DTD/svg11.dtd">
<!-- Generated by graphviz version 2.38.0 (20140413.2041)
 -->
<!-- Title: engine/Shaders/Managers/ShaderProgramManager/ShaderProgramManager.hpp Pages: 1 -->
<svg width="356pt" height="218pt"
 viewBox="0.00 0.00 355.50 218.00" xmlns="http://www.w3.org/2000/svg" xmlns:xlink="http://www.w3.org/1999/xlink">
<g id="graph0" class="graph" transform="scale(1 1) rotate(0) translate(4 214)">
<title>engine/Shaders/Managers/ShaderProgramManager/ShaderProgramManager.hpp</title>
<!-- Node1 -->
<g id="node1" class="node"><title>Node1</title>
<polygon fill="#bfbfbf" stroke="black" points="32,-168.5 32,-209.5 175,-209.5 175,-168.5 32,-168.5"/>
<text text-anchor="start" x="40" y="-197.5" font-family="Helvetica,sans-Serif" font-size="10.00">engine/Shaders/Managers</text>
<text text-anchor="start" x="40" y="-186.5" font-family="Helvetica,sans-Serif" font-size="10.00">/ShaderProgramManager</text>
<text text-anchor="middle" x="103.5" y="-175.5" font-family="Helvetica,sans-Serif" font-size="10.00">/ShaderProgramManager.hpp</text>
</g>
<!-- Node2 -->
<g id="node2" class="node"><title>Node2</title>
<polygon fill="none" stroke="#bfbfbf" points="0,-112.5 0,-131.5 35,-131.5 35,-112.5 0,-112.5"/>
<text text-anchor="middle" x="17.5" y="-119.5" font-family="Helvetica,sans-Serif" font-size="10.00">map</text>
</g>
<!-- Node1&#45;&gt;Node2 -->
<g id="edge1" class="edge"><title>Node1&#45;&gt;Node2</title>
<path fill="none" stroke="midnightblue" d="M77.6972,-168.498C64.6385,-158.628 49.0464,-146.843 37.0031,-137.741"/>
<polygon fill="midnightblue" stroke="midnightblue" points="39.036,-134.89 28.9479,-131.652 34.8152,-140.474 39.036,-134.89"/>
</g>
<!-- Node3 -->
<g id="node3" class="node"><title>Node3</title>
<polygon fill="none" stroke="#bfbfbf" points="37.5,-56.5 37.5,-75.5 89.5,-75.5 89.5,-56.5 37.5,-56.5"/>
<text text-anchor="middle" x="63.5" y="-63.5" font-family="Helvetica,sans-Serif" font-size="10.00">memory</text>
</g>
<!-- Node1&#45;&gt;Node3 -->
<g id="edge2" class="edge"><title>Node1&#45;&gt;Node3</title>
<path fill="none" stroke="midnightblue" d="M95.7538,-168.431C91.6236,-157.736 86.5694,-144.215 82.5,-132 77.3325,-116.489 72.1726,-98.649 68.5368,-85.5877"/>
<polygon fill="midnightblue" stroke="midnightblue" points="71.8985,-84.6117 65.8746,-75.896 65.1485,-86.466 71.8985,-84.6117"/>
</g>
<!-- Node4 -->
<g id="node4" class="node"><title>Node4</title>
<g id="a_node4"><a xlink:href="../../dc/ddb/ShaderProgram_8hpp.html" target="_top" xlink:title="ShaderProgram.hpp">
<polygon fill="none" stroke="black" points="92,-112.5 92,-131.5 195,-131.5 195,-112.5 92,-112.5"/>
<text text-anchor="middle" x="143.5" y="-119.5" font-family="Helvetica,sans-Serif" font-size="10.00">ShaderProgram.hpp</text>
</a>
</g>
</g>
<!-- Node1&#45;&gt;Node4 -->
<g id="edge3" class="edge"><title>Node1&#45;&gt;Node4</title>
<path fill="none" stroke="midnightblue" d="M115.501,-168.498C121.044,-159.49 127.569,-148.888 132.924,-140.185"/>
<polygon fill="midnightblue" stroke="midnightblue" points="135.915,-142.003 138.175,-131.652 129.954,-138.335 135.915,-142.003"/>
</g>
<!-- Node9 -->
<g id="node9" class="node"><title>Node9</title>
<g id="a_node9"><a xlink:href="../../d9/db7/ShaderProgramNames_8hpp.html" target="_top" xlink:title="ShaderProgramNames.hpp">
<polygon fill="none" stroke="black" points="213.5,-112.5 213.5,-131.5 347.5,-131.5 347.5,-112.5 213.5,-112.5"/>
<text text-anchor="middle" x="280.5" y="-119.5" font-family="Helvetica,sans-Serif" font-size="10.00">ShaderProgramNames.hpp</text>
</a>
</g>
</g>
<!-- Node1&#45;&gt;Node9 -->
<g id="edge9" class="edge"><title>Node1&#45;&gt;Node9</title>
<path fill="none" stroke="midnightblue" d="M156.606,-168.498C186.092,-157.67 221.853,-144.537 247.361,-135.17"/>
<polygon fill="midnightblue" stroke="midnightblue" points="248.758,-138.385 256.939,-131.652 246.345,-131.814 248.758,-138.385"/>
</g>
<!-- Node4&#45;&gt;Node3 -->
<g id="edge6" class="edge"><title>Node4&#45;&gt;Node3</title>
<path fill="none" stroke="midnightblue" d="M130.647,-112.324C118.284,-103.979 99.3699,-91.2122 84.7628,-81.3524"/>
<polygon fill="midnightblue" stroke="midnightblue" points="86.5682,-78.3483 76.3215,-75.6545 82.6518,-84.1503 86.5682,-78.3483"/>
</g>
<!-- Node5 -->
<g id="node5" class="node"><title>Node5</title>
<polygon fill="none" stroke="#bfbfbf" points="107.5,-56.5 107.5,-75.5 177.5,-75.5 177.5,-56.5 107.5,-56.5"/>
<text text-anchor="middle" x="142.5" y="-63.5" font-family="Helvetica,sans-Serif" font-size="10.00">glm/glm.hpp</text>
</g>
<!-- Node4&#45;&gt;Node5 -->
<g id="edge4" class="edge"><title>Node4&#45;&gt;Node5</title>
<path fill="none" stroke="midnightblue" d="M143.335,-112.083C143.204,-105.006 143.016,-94.8611 142.852,-85.9865"/>
<polygon fill="midnightblue" stroke="midnightblue" points="146.347,-85.6845 142.662,-75.7511 139.348,-85.8142 146.347,-85.6845"/>
</g>
<!-- Node6 -->
<g id="node6" class="node"><title>Node6</title>
<polygon fill="none" stroke="#bfbfbf" points="195.5,-56.5 195.5,-75.5 239.5,-75.5 239.5,-56.5 195.5,-56.5"/>
<text text-anchor="middle" x="217.5" y="-63.5" font-family="Helvetica,sans-Serif" font-size="10.00">vector</text>
</g>
<!-- Node4&#45;&gt;Node6 -->
<g id="edge5" class="edge"><title>Node4&#45;&gt;Node6</title>
<path fill="none" stroke="midnightblue" d="M155.389,-112.324C166.65,-104.107 183.787,-91.6017 197.209,-81.8069"/>
<polygon fill="midnightblue" stroke="midnightblue" points="199.38,-84.5559 205.394,-75.8339 195.253,-78.9014 199.38,-84.5559"/>
</g>
<!-- Node7 -->
<g id="node7" class="node"><title>Node7</title>
<g id="a_node7"><a xlink:href="../../d4/d6e/Shader_8hpp.html" target="_top" xlink:title="Shader.hpp">
<polygon fill="none" stroke="black" points="257.5,-56.5 257.5,-75.5 323.5,-75.5 323.5,-56.5 257.5,-56.5"/>
<text text-anchor="middle" x="290.5" y="-63.5" font-family="Helvetica,sans-Serif" font-size="10.00">Shader.hpp</text>
</a>
</g>
</g>
<!-- Node4&#45;&gt;Node7 -->
<g id="edge7" class="edge"><title>Node4&#45;&gt;Node7</title>
<path fill="none" stroke="midnightblue" d="M166.793,-112.444C191.307,-103.438 230.096,-89.1891 257.7,-79.049"/>
<polygon fill="midnightblue" stroke="midnightblue" points="259.137,-82.25 267.316,-75.5164 256.723,-75.6793 259.137,-82.25"/>
</g>
<!-- Node8 -->
<g id="node8" class="node"><title>Node8</title>
<polygon fill="none" stroke="#bfbfbf" points="270,-0.5 270,-19.5 311,-19.5 311,-0.5 270,-0.5"/>
<text text-anchor="middle" x="290.5" y="-7.5" font-family="Helvetica,sans-Serif" font-size="10.00">string</text>
</g>
<!-- Node7&#45;&gt;Node8 -->
<g id="edge8" class="edge"><title>Node7&#45;&gt;Node8</title>
<path fill="none" stroke="midnightblue" d="M290.5,-56.083C290.5,-49.0059 290.5,-38.8611 290.5,-29.9865"/>
<polygon fill="midnightblue" stroke="midnightblue" points="294,-29.751 290.5,-19.7511 287,-29.7511 294,-29.751"/>
</g>
</g>
</svg>
