<?xml version="1.0" encoding="UTF-8" standalone="no"?>
<!DOCTYPE svg PUBLIC "-//W3C//DTD SVG 1.1//EN"
 "http://www.w3.org/Graphics/SVG/1.1/DTD/svg11.dtd">
<!-- Generated by graphviz version 2.38.0 (20140413.2041)
 -->
<!-- Title: Core/SpatialGraph.cpp Pages: 1 -->
<svg width="848pt" height="84pt"
 viewBox="0.00 0.00 848.00 84.00" xmlns="http://www.w3.org/2000/svg" xmlns:xlink="http://www.w3.org/1999/xlink">
<g id="graph0" class="graph" transform="scale(1 1) rotate(0) translate(4 80)">
<title>Core/SpatialGraph.cpp</title>
<!-- Node1 -->
<g id="node1" class="node"><title>Node1</title>
<polygon fill="#bfbfbf" stroke="black" points="374.5,-56.5 374.5,-75.5 490.5,-75.5 490.5,-56.5 374.5,-56.5"/>
<text text-anchor="middle" x="432.5" y="-63.5" font-family="Helvetica,sans-Serif" font-size="10.00">Core/SpatialGraph.cpp</text>
</g>
<!-- Node2 -->
<g id="node2" class="node"><title>Node2</title>
<polygon fill="none" stroke="#bfbfbf" points="0,-0.5 0,-19.5 107,-19.5 107,-0.5 0,-0.5"/>
<text text-anchor="middle" x="53.5" y="-7.5" font-family="Helvetica,sans-Serif" font-size="10.00">log4cpp/Category.hh</text>
</g>
<!-- Node1&#45;&gt;Node2 -->
<g id="edge1" class="edge"><title>Node1&#45;&gt;Node2</title>
<path fill="none" stroke="midnightblue" d="M374.357,-56.8021C312.947,-48.1309 212.997,-33.9823 117.398,-20.2694"/>
<polygon fill="midnightblue" stroke="midnightblue" points="117.663,-16.7716 107.267,-18.8154 116.668,-23.7006 117.663,-16.7716"/>
</g>
<!-- Node3 -->
<g id="node3" class="node"><title>Node3</title>
<polygon fill="none" stroke="#bfbfbf" points="125,-0.5 125,-19.5 274,-19.5 274,-0.5 125,-0.5"/>
<text text-anchor="middle" x="199.5" y="-7.5" font-family="Helvetica,sans-Serif" font-size="10.00">Engine/Core/SpatialGraph.hpp</text>
</g>
<!-- Node1&#45;&gt;Node3 -->
<g id="edge2" class="edge"><title>Node1&#45;&gt;Node3</title>
<path fill="none" stroke="midnightblue" d="M395.58,-56.4435C355.105,-47.0629 290.079,-31.9926 246.116,-21.8036"/>
<polygon fill="midnightblue" stroke="midnightblue" points="246.779,-18.3646 236.247,-19.5164 245.198,-25.1839 246.779,-18.3646"/>
</g>
<!-- Node4 -->
<g id="node4" class="node"><title>Node4</title>
<polygon fill="none" stroke="#bfbfbf" points="292.5,-0.5 292.5,-19.5 424.5,-19.5 424.5,-0.5 292.5,-0.5"/>
<text text-anchor="middle" x="358.5" y="-7.5" font-family="Helvetica,sans-Serif" font-size="10.00">Engine/Core/Renderer.hpp</text>
</g>
<!-- Node1&#45;&gt;Node4 -->
<g id="edge3" class="edge"><title>Node1&#45;&gt;Node4</title>
<path fill="none" stroke="midnightblue" d="M420.611,-56.324C409.35,-48.1066 392.213,-35.6017 378.791,-25.8069"/>
<polygon fill="midnightblue" stroke="midnightblue" points="380.747,-22.9014 370.606,-19.8339 376.62,-28.5559 380.747,-22.9014"/>
</g>
<!-- Node5 -->
<g id="node5" class="node"><title>Node5</title>
<polygon fill="none" stroke="#bfbfbf" points="443,-0.5 443,-19.5 570,-19.5 570,-0.5 443,-0.5"/>
<text text-anchor="middle" x="506.5" y="-7.5" font-family="Helvetica,sans-Serif" font-size="10.00">Engine/Core/Camera.hpp</text>
</g>
<!-- Node1&#45;&gt;Node5 -->
<g id="edge4" class="edge"><title>Node1&#45;&gt;Node5</title>
<path fill="none" stroke="midnightblue" d="M444.389,-56.324C455.65,-48.1066 472.787,-35.6017 486.209,-25.8069"/>
<polygon fill="midnightblue" stroke="midnightblue" points="488.38,-28.5559 494.394,-19.8339 484.253,-22.9014 488.38,-28.5559"/>
</g>
<!-- Node6 -->
<g id="node6" class="node"><title>Node6</title>
<polygon fill="none" stroke="#bfbfbf" points="588,-0.5 588,-19.5 709,-19.5 709,-0.5 588,-0.5"/>
<text text-anchor="middle" x="648.5" y="-7.5" font-family="Helvetica,sans-Serif" font-size="10.00">Engine/Core/Object.hpp</text>
</g>
<!-- Node1&#45;&gt;Node6 -->
<g id="edge5" class="edge"><title>Node1&#45;&gt;Node6</title>
<path fill="none" stroke="midnightblue" d="M466.726,-56.4435C504.012,-47.1221 563.769,-32.1828 604.511,-21.9972"/>
<polygon fill="midnightblue" stroke="midnightblue" points="605.582,-25.3374 614.434,-19.5164 603.884,-18.5464 605.582,-25.3374"/>
</g>
<!-- Node7 -->
<g id="node7" class="node"><title>Node7</title>
<polygon fill="none" stroke="#bfbfbf" points="727,-0.5 727,-19.5 840,-19.5 840,-0.5 727,-0.5"/>
<text text-anchor="middle" x="783.5" y="-7.5" font-family="Helvetica,sans-Serif" font-size="10.00">Engine/Core/Light.hpp</text>
</g>
<!-- Node1&#45;&gt;Node7 -->
<g id="edge6" class="edge"><title>Node1&#45;&gt;Node7</title>
<path fill="none" stroke="midnightblue" d="M488.117,-56.4435C550.632,-46.8259 652.021,-31.2275 718.234,-21.0409"/>
<polygon fill="midnightblue" stroke="midnightblue" points="718.792,-24.4964 728.143,-19.5164 717.727,-17.5778 718.792,-24.4964"/>
</g>
</g>
</svg>
