<?xml version="1.0" encoding="UTF-8" standalone="no"?>
<!DOCTYPE svg PUBLIC "-//W3C//DTD SVG 1.1//EN"
 "http://www.w3.org/Graphics/SVG/1.1/DTD/svg11.dtd">
<!-- Generated by graphviz version 2.38.0 (20140413.2041)
 -->
<!-- Title: window/glwindow.cpp Pages: 1 -->
<svg width="1414pt" height="543pt"
 viewBox="0.00 0.00 1413.50 543.00" xmlns="http://www.w3.org/2000/svg" xmlns:xlink="http://www.w3.org/1999/xlink">
<g id="graph0" class="graph" transform="scale(1 1) rotate(0) translate(4 539)">
<title>window/glwindow.cpp</title>
<!-- Node1 -->
<g id="node1" class="node"><title>Node1</title>
<polygon fill="#bfbfbf" stroke="black" points="545.5,-515.5 545.5,-534.5 657.5,-534.5 657.5,-515.5 545.5,-515.5"/>
<text text-anchor="middle" x="601.5" y="-522.5" font-family="Helvetica,sans-Serif" font-size="10.00">window/glwindow.cpp</text>
</g>
<!-- Node2 -->
<g id="node2" class="node"><title>Node2</title>
<g id="a_node2"><a xlink:href="../../d1/d2a/glwindow_8h.html" target="_top" xlink:title="glwindow.h">
<polygon fill="none" stroke="black" points="301,-459.5 301,-478.5 366,-478.5 366,-459.5 301,-459.5"/>
<text text-anchor="middle" x="333.5" y="-466.5" font-family="Helvetica,sans-Serif" font-size="10.00">glwindow.h</text>
</a>
</g>
</g>
<!-- Node1&#45;&gt;Node2 -->
<g id="edge1" class="edge"><title>Node1&#45;&gt;Node2</title>
<path fill="none" stroke="midnightblue" d="M559.035,-515.444C508.911,-505.344 426.056,-488.649 375.942,-478.552"/>
<polygon fill="midnightblue" stroke="midnightblue" points="376.567,-475.107 366.072,-476.563 375.184,-481.969 376.567,-475.107"/>
</g>
<!-- Node8 -->
<g id="node8" class="node"><title>Node8</title>
<g id="a_node8"><a xlink:href="../../d4/d1c/GameEngine_8hpp.html" target="_top" xlink:title="GameEngine.hpp">
<polygon fill="none" stroke="black" points="505.5,-398 505.5,-417 597.5,-417 597.5,-398 505.5,-398"/>
<text text-anchor="middle" x="551.5" y="-405" font-family="Helvetica,sans-Serif" font-size="10.00">GameEngine.hpp</text>
</a>
</g>
</g>
<!-- Node1&#45;&gt;Node8 -->
<g id="edge57" class="edge"><title>Node1&#45;&gt;Node8</title>
<path fill="none" stroke="midnightblue" d="M545.097,-518.068C496.111,-511.615 430.568,-499.393 414.5,-479 408.999,-472.018 409.416,-466.292 414.5,-459 420.439,-450.482 474.902,-432.179 513.339,-420.107"/>
<polygon fill="midnightblue" stroke="midnightblue" points="514.707,-423.347 523.213,-417.031 512.625,-416.663 514.707,-423.347"/>
</g>
<!-- Node35 -->
<g id="node35" class="node"><title>Node35</title>
<polygon fill="none" stroke="#bfbfbf" points="423,-459.5 423,-478.5 498,-478.5 498,-459.5 423,-459.5"/>
<text text-anchor="middle" x="460.5" y="-466.5" font-family="Helvetica,sans-Serif" font-size="10.00">QPushButton</text>
</g>
<!-- Node1&#45;&gt;Node35 -->
<g id="edge52" class="edge"><title>Node1&#45;&gt;Node35</title>
<path fill="none" stroke="midnightblue" d="M579.158,-515.444C555.747,-506.478 518.764,-492.314 492.31,-482.183"/>
<polygon fill="midnightblue" stroke="midnightblue" points="493.328,-478.824 482.737,-478.516 490.824,-485.361 493.328,-478.824"/>
</g>
<!-- Node36 -->
<g id="node36" class="node"><title>Node36</title>
<polygon fill="none" stroke="#bfbfbf" points="516,-459.5 516,-478.5 587,-478.5 587,-459.5 516,-459.5"/>
<text text-anchor="middle" x="551.5" y="-466.5" font-family="Helvetica,sans-Serif" font-size="10.00">QGridLayout</text>
</g>
<!-- Node1&#45;&gt;Node36 -->
<g id="edge53" class="edge"><title>Node1&#45;&gt;Node36</title>
<path fill="none" stroke="midnightblue" d="M593.244,-515.083C586.035,-507.298 575.39,-495.801 566.654,-486.367"/>
<polygon fill="midnightblue" stroke="midnightblue" points="568.965,-483.711 559.603,-478.751 563.829,-488.467 568.965,-483.711"/>
</g>
<!-- Node37 -->
<g id="node37" class="node"><title>Node37</title>
<polygon fill="none" stroke="#bfbfbf" points="605,-459.5 605,-478.5 698,-478.5 698,-459.5 605,-459.5"/>
<text text-anchor="middle" x="651.5" y="-466.5" font-family="Helvetica,sans-Serif" font-size="10.00">QCoreApplication</text>
</g>
<!-- Node1&#45;&gt;Node37 -->
<g id="edge54" class="edge"><title>Node1&#45;&gt;Node37</title>
<path fill="none" stroke="midnightblue" d="M609.756,-515.083C616.965,-507.298 627.61,-495.801 636.346,-486.367"/>
<polygon fill="midnightblue" stroke="midnightblue" points="639.171,-488.467 643.397,-478.751 634.035,-483.711 639.171,-488.467"/>
</g>
<!-- Node38 -->
<g id="node38" class="node"><title>Node38</title>
<g id="a_node38"><a xlink:href="../../d4/df0/GameClock_8hpp.html" target="_top" xlink:title="GameClock.hpp">
<polygon fill="none" stroke="black" points="716,-459.5 716,-478.5 803,-478.5 803,-459.5 716,-459.5"/>
<text text-anchor="middle" x="759.5" y="-466.5" font-family="Helvetica,sans-Serif" font-size="10.00">GameClock.hpp</text>
</a>
</g>
</g>
<!-- Node1&#45;&gt;Node38 -->
<g id="edge55" class="edge"><title>Node1&#45;&gt;Node38</title>
<path fill="none" stroke="midnightblue" d="M626.536,-515.444C653.116,-506.359 695.309,-491.939 725.023,-481.783"/>
<polygon fill="midnightblue" stroke="midnightblue" points="726.251,-485.062 734.582,-478.516 723.987,-478.439 726.251,-485.062"/>
</g>
<!-- Node39 -->
<g id="node39" class="node"><title>Node39</title>
<polygon fill="none" stroke="#bfbfbf" points="821,-459.5 821,-478.5 928,-478.5 928,-459.5 821,-459.5"/>
<text text-anchor="middle" x="874.5" y="-466.5" font-family="Helvetica,sans-Serif" font-size="10.00">log4cpp/Category.hh</text>
</g>
<!-- Node1&#45;&gt;Node39 -->
<g id="edge58" class="edge"><title>Node1&#45;&gt;Node39</title>
<path fill="none" stroke="midnightblue" d="M644.758,-515.444C692.681,-505.964 769.978,-490.675 821.5,-480.483"/>
<polygon fill="midnightblue" stroke="midnightblue" points="822.314,-483.89 831.445,-478.516 820.956,-477.023 822.314,-483.89"/>
</g>
<!-- Node40 -->
<g id="node40" class="node"><title>Node40</title>
<polygon fill="none" stroke="#bfbfbf" points="946.5,-459.5 946.5,-478.5 1064.5,-478.5 1064.5,-459.5 946.5,-459.5"/>
<text text-anchor="middle" x="1005.5" y="-466.5" font-family="Helvetica,sans-Serif" font-size="10.00">QOpenGLDebugLogger</text>
</g>
<!-- Node1&#45;&gt;Node40 -->
<g id="edge59" class="edge"><title>Node1&#45;&gt;Node40</title>
<path fill="none" stroke="midnightblue" d="M657.674,-516.492C730.402,-506.771 857.13,-489.832 935.885,-479.305"/>
<polygon fill="midnightblue" stroke="midnightblue" points="936.745,-482.721 946.194,-477.927 935.818,-475.783 936.745,-482.721"/>
</g>
<!-- Node3 -->
<g id="node3" class="node"><title>Node3</title>
<polygon fill="none" stroke="#bfbfbf" points="216,-398 216,-417 275,-417 275,-398 216,-398"/>
<text text-anchor="middle" x="245.5" y="-405" font-family="Helvetica,sans-Serif" font-size="10.00">QWindow</text>
</g>
<!-- Node2&#45;&gt;Node3 -->
<g id="edge2" class="edge"><title>Node2&#45;&gt;Node3</title>
<path fill="none" stroke="midnightblue" d="M320.892,-459.475C306.777,-449.931 283.669,-434.307 266.751,-422.868"/>
<polygon fill="midnightblue" stroke="midnightblue" points="268.329,-419.711 258.085,-417.009 264.409,-425.51 268.329,-419.711"/>
</g>
<!-- Node4 -->
<g id="node4" class="node"><title>Node4</title>
<polygon fill="none" stroke="#bfbfbf" points="392,-398 392,-417 487,-417 487,-398 392,-398"/>
<text text-anchor="middle" x="439.5" y="-405" font-family="Helvetica,sans-Serif" font-size="10.00">QOpenGLContext</text>
</g>
<!-- Node2&#45;&gt;Node4 -->
<g id="edge3" class="edge"><title>Node2&#45;&gt;Node4</title>
<path fill="none" stroke="midnightblue" d="M348.687,-459.475C366.162,-449.666 395.079,-433.435 415.583,-421.925"/>
<polygon fill="midnightblue" stroke="midnightblue" points="417.334,-424.956 424.341,-417.009 413.908,-418.852 417.334,-424.956"/>
</g>
<!-- Node5 -->
<g id="node5" class="node"><title>Node5</title>
<polygon fill="none" stroke="#bfbfbf" points="0,-392.5 0,-422.5 113,-422.5 113,-392.5 0,-392.5"/>
<text text-anchor="start" x="8" y="-410.5" font-family="Helvetica,sans-Serif" font-size="10.00">QOpenGLFunctions_4</text>
<text text-anchor="middle" x="56.5" y="-399.5" font-family="Helvetica,sans-Serif" font-size="10.00">_2_Core</text>
</g>
<!-- Node2&#45;&gt;Node5 -->
<g id="edge4" class="edge"><title>Node2&#45;&gt;Node5</title>
<path fill="none" stroke="midnightblue" d="M300.791,-461.166C261.081,-452.846 191.805,-438.255 123.309,-423.383"/>
<polygon fill="midnightblue" stroke="midnightblue" points="123.728,-419.892 113.213,-421.187 122.241,-426.732 123.728,-419.892"/>
</g>
<!-- Node6 -->
<g id="node6" class="node"><title>Node6</title>
<polygon fill="none" stroke="#bfbfbf" points="131,-398 131,-417 198,-417 198,-398 131,-398"/>
<text text-anchor="middle" x="164.5" y="-405" font-family="Helvetica,sans-Serif" font-size="10.00">QKeyEvent</text>
</g>
<!-- Node2&#45;&gt;Node6 -->
<g id="edge5" class="edge"><title>Node2&#45;&gt;Node6</title>
<path fill="none" stroke="midnightblue" d="M309.286,-459.475C280.171,-449.225 231.132,-431.959 198.298,-420.399"/>
<polygon fill="midnightblue" stroke="midnightblue" points="199.263,-417.029 188.669,-417.009 196.939,-423.631 199.263,-417.029"/>
</g>
<!-- Node7 -->
<g id="node7" class="node"><title>Node7</title>
<polygon fill="none" stroke="#bfbfbf" points="676.5,-398 676.5,-417 722.5,-417 722.5,-398 676.5,-398"/>
<text text-anchor="middle" x="699.5" y="-405" font-family="Helvetica,sans-Serif" font-size="10.00">QTime</text>
</g>
<!-- Node2&#45;&gt;Node7 -->
<g id="edge6" class="edge"><title>Node2&#45;&gt;Node7</title>
<path fill="none" stroke="midnightblue" d="M366.302,-462.667C435.729,-451.381 596.852,-425.187 666.475,-413.869"/>
<polygon fill="midnightblue" stroke="midnightblue" points="667.14,-417.307 676.449,-412.247 666.017,-410.397 667.14,-417.307"/>
</g>
<!-- Node2&#45;&gt;Node8 -->
<g id="edge7" class="edge"><title>Node2&#45;&gt;Node8</title>
<path fill="none" stroke="midnightblue" d="M364.734,-459.475C403.1,-449.004 468.287,-431.212 510.611,-419.66"/>
<polygon fill="midnightblue" stroke="midnightblue" points="511.598,-423.019 520.324,-417.009 509.755,-416.266 511.598,-423.019"/>
</g>
<!-- Node27 -->
<g id="node27" class="node"><title>Node27</title>
<g id="a_node27"><a xlink:href="../../dc/d51/model_8h.html" target="_top" xlink:title="model/model.h">
<polygon fill="none" stroke="black" points="293.5,-398 293.5,-417 373.5,-417 373.5,-398 293.5,-398"/>
<text text-anchor="middle" x="333.5" y="-405" font-family="Helvetica,sans-Serif" font-size="10.00">model/model.h</text>
</a>
</g>
</g>
<!-- Node2&#45;&gt;Node27 -->
<g id="edge44" class="edge"><title>Node2&#45;&gt;Node27</title>
<path fill="none" stroke="midnightblue" d="M333.5,-459.475C333.5,-451.08 333.5,-437.981 333.5,-427.163"/>
<polygon fill="midnightblue" stroke="midnightblue" points="337,-427.009 333.5,-417.009 330,-427.009 337,-427.009"/>
</g>
<!-- Node9 -->
<g id="node9" class="node"><title>Node9</title>
<g id="a_node9"><a xlink:href="../../de/df7/worldparticles_8hpp.html" target="_top" xlink:title="wordparticles configuration file ">
<polygon fill="none" stroke="black" points="608,-112.5 608,-131.5 703,-131.5 703,-112.5 608,-112.5"/>
<text text-anchor="middle" x="655.5" y="-119.5" font-family="Helvetica,sans-Serif" font-size="10.00">worldparticles.hpp</text>
</a>
</g>
</g>
<!-- Node8&#45;&gt;Node9 -->
<g id="edge8" class="edge"><title>Node8&#45;&gt;Node9</title>
<path fill="none" stroke="midnightblue" d="M551.5,-397.807C551.5,-378.562 551.5,-330.904 551.5,-291 551.5,-291 551.5,-291 551.5,-233 551.5,-188.223 597.564,-154.325 628.379,-136.658"/>
<polygon fill="midnightblue" stroke="midnightblue" points="630.311,-139.59 637.385,-131.702 626.936,-133.457 630.311,-139.59"/>
</g>
<!-- Node10 -->
<g id="node10" class="node"><title>Node10</title>
<g id="a_node10"><a xlink:href="../../db/de8/Scene_8hpp.html" target="_top" xlink:title="Scene.hpp">
<polygon fill="none" stroke="black" points="681,-336.5 681,-355.5 744,-355.5 744,-336.5 681,-336.5"/>
<text text-anchor="middle" x="712.5" y="-343.5" font-family="Helvetica,sans-Serif" font-size="10.00">Scene.hpp</text>
</a>
</g>
</g>
<!-- Node8&#45;&gt;Node10 -->
<g id="edge9" class="edge"><title>Node8&#45;&gt;Node10</title>
<path fill="none" stroke="midnightblue" d="M574.567,-397.975C602.185,-387.769 648.62,-370.608 679.896,-359.049"/>
<polygon fill="midnightblue" stroke="midnightblue" points="681.309,-362.259 689.475,-355.509 678.882,-355.693 681.309,-362.259"/>
</g>
<!-- Node11 -->
<g id="node11" class="node"><title>Node11</title>
<polygon fill="none" stroke="#bfbfbf" points="1233.5,-56.5 1233.5,-75.5 1285.5,-75.5 1285.5,-56.5 1233.5,-56.5"/>
<text text-anchor="middle" x="1259.5" y="-63.5" font-family="Helvetica,sans-Serif" font-size="10.00">memory</text>
</g>
<!-- Node10&#45;&gt;Node11 -->
<g id="edge10" class="edge"><title>Node10&#45;&gt;Node11</title>
<path fill="none" stroke="midnightblue" d="M744.078,-343.373C879.649,-335.978 1405.5,-302.914 1405.5,-235 1405.5,-235 1405.5,-235 1405.5,-177 1405.5,-121.942 1338.45,-90.9899 1295.23,-76.7569"/>
<polygon fill="midnightblue" stroke="midnightblue" points="1296.19,-73.3916 1285.6,-73.7317 1294.09,-80.0694 1296.19,-73.3916"/>
</g>
<!-- Node12 -->
<g id="node12" class="node"><title>Node12</title>
<polygon fill="none" stroke="#bfbfbf" points="668,-280.5 668,-299.5 697,-299.5 697,-280.5 668,-280.5"/>
<text text-anchor="middle" x="682.5" y="-287.5" font-family="Helvetica,sans-Serif" font-size="10.00">list</text>
</g>
<!-- Node10&#45;&gt;Node12 -->
<g id="edge11" class="edge"><title>Node10&#45;&gt;Node12</title>
<path fill="none" stroke="midnightblue" d="M707.546,-336.083C703.396,-328.613 697.347,-317.724 692.233,-308.52"/>
<polygon fill="midnightblue" stroke="midnightblue" points="695.278,-306.793 687.362,-299.751 689.159,-310.192 695.278,-306.793"/>
</g>
<!-- Node13 -->
<g id="node13" class="node"><title>Node13</title>
<g id="a_node13"><a xlink:href="../../d4/db5/GameObject_8hpp.html" target="_top" xlink:title="GameObject.hpp">
<polygon fill="none" stroke="black" points="734.5,-224.5 734.5,-243.5 824.5,-243.5 824.5,-224.5 734.5,-224.5"/>
<text text-anchor="middle" x="779.5" y="-231.5" font-family="Helvetica,sans-Serif" font-size="10.00">GameObject.hpp</text>
</a>
</g>
</g>
<!-- Node10&#45;&gt;Node13 -->
<g id="edge12" class="edge"><title>Node10&#45;&gt;Node13</title>
<path fill="none" stroke="midnightblue" d="M735.288,-336.471C750.826,-329.316 770.207,-317.435 779.5,-300 787.047,-285.84 786.21,-267.358 783.975,-253.723"/>
<polygon fill="midnightblue" stroke="midnightblue" points="787.342,-252.714 781.921,-243.61 780.482,-254.107 787.342,-252.714"/>
</g>
<!-- Node25 -->
<g id="node25" class="node"><title>Node25</title>
<g id="a_node25"><a xlink:href="../../d6/d80/Camera_8hpp.html" target="_top" xlink:title="Camera.hpp">
<polygon fill="none" stroke="black" points="579.5,-280.5 579.5,-299.5 649.5,-299.5 649.5,-280.5 579.5,-280.5"/>
<text text-anchor="middle" x="614.5" y="-287.5" font-family="Helvetica,sans-Serif" font-size="10.00">Camera.hpp</text>
</a>
</g>
</g>
<!-- Node10&#45;&gt;Node25 -->
<g id="edge39" class="edge"><title>Node10&#45;&gt;Node25</title>
<path fill="none" stroke="midnightblue" d="M696.755,-336.324C681.181,-327.743 657.123,-314.486 639.041,-304.522"/>
<polygon fill="midnightblue" stroke="midnightblue" points="640.654,-301.415 630.206,-299.655 637.276,-307.546 640.654,-301.415"/>
</g>
<!-- Node26 -->
<g id="node26" class="node"><title>Node26</title>
<g id="a_node26"><a xlink:href="../../d5/dd5/Light_8hpp.html" target="_top" xlink:title="Light.hpp">
<polygon fill="none" stroke="black" points="714.5,-280.5 714.5,-299.5 770.5,-299.5 770.5,-280.5 714.5,-280.5"/>
<text text-anchor="middle" x="742.5" y="-287.5" font-family="Helvetica,sans-Serif" font-size="10.00">Light.hpp</text>
</a>
</g>
</g>
<!-- Node10&#45;&gt;Node26 -->
<g id="edge43" class="edge"><title>Node10&#45;&gt;Node26</title>
<path fill="none" stroke="midnightblue" d="M717.454,-336.083C721.604,-328.613 727.653,-317.724 732.767,-308.52"/>
<polygon fill="midnightblue" stroke="midnightblue" points="735.841,-310.192 737.638,-299.751 729.722,-306.793 735.841,-310.192"/>
</g>
<!-- Node13&#45;&gt;Node9 -->
<g id="edge15" class="edge"><title>Node13&#45;&gt;Node9</title>
<path fill="none" stroke="midnightblue" d="M734.457,-226.593C710.017,-220.711 681.425,-209.465 664.5,-188 654.259,-175.012 652.739,-155.849 653.342,-141.693"/>
<polygon fill="midnightblue" stroke="midnightblue" points="656.839,-141.876 654.155,-131.627 649.862,-141.312 656.839,-141.876"/>
</g>
<!-- Node13&#45;&gt;Node11 -->
<g id="edge14" class="edge"><title>Node13&#45;&gt;Node11</title>
<path fill="none" stroke="midnightblue" d="M824.921,-231.759C944.382,-227.446 1262.56,-208.825 1326.5,-132 1342.68,-112.56 1314.23,-92.6655 1289.56,-80.0955"/>
<polygon fill="midnightblue" stroke="midnightblue" points="1290.91,-76.8623 1280.39,-75.6527 1287.86,-83.1621 1290.91,-76.8623"/>
</g>
<!-- Node14 -->
<g id="node14" class="node"><title>Node14</title>
<polygon fill="none" stroke="#bfbfbf" points="753.5,-56.5 753.5,-75.5 823.5,-75.5 823.5,-56.5 753.5,-56.5"/>
<text text-anchor="middle" x="788.5" y="-63.5" font-family="Helvetica,sans-Serif" font-size="10.00">glm/glm.hpp</text>
</g>
<!-- Node13&#45;&gt;Node14 -->
<g id="edge13" class="edge"><title>Node13&#45;&gt;Node14</title>
<path fill="none" stroke="midnightblue" d="M779.984,-224.075C781.401,-197.945 785.561,-121.211 787.493,-85.577"/>
<polygon fill="midnightblue" stroke="midnightblue" points="790.989,-85.743 788.035,-75.5681 783.999,-85.3639 790.989,-85.743"/>
</g>
<!-- Node15 -->
<g id="node15" class="node"><title>Node15</title>
<g id="a_node15"><a xlink:href="../../da/d83/Transform_8hpp.html" target="_top" xlink:title="Transform.hpp">
<polygon fill="none" stroke="black" points="443.5,-168.5 443.5,-187.5 523.5,-187.5 523.5,-168.5 443.5,-168.5"/>
<text text-anchor="middle" x="483.5" y="-175.5" font-family="Helvetica,sans-Serif" font-size="10.00">Transform.hpp</text>
</a>
</g>
</g>
<!-- Node13&#45;&gt;Node15 -->
<g id="edge16" class="edge"><title>Node13&#45;&gt;Node15</title>
<path fill="none" stroke="midnightblue" d="M734.222,-224.74C680.098,-214.866 589.809,-198.394 533.626,-188.145"/>
<polygon fill="midnightblue" stroke="midnightblue" points="534.015,-184.658 523.549,-186.306 532.759,-191.544 534.015,-184.658"/>
</g>
<!-- Node16 -->
<g id="node16" class="node"><title>Node16</title>
<g id="a_node16"><a xlink:href="../../d1/dca/IRenderer_8hpp.html" target="_top" xlink:title="IRenderer.hpp">
<polygon fill="none" stroke="black" points="673.5,-168.5 673.5,-187.5 751.5,-187.5 751.5,-168.5 673.5,-168.5"/>
<text text-anchor="middle" x="712.5" y="-175.5" font-family="Helvetica,sans-Serif" font-size="10.00">IRenderer.hpp</text>
</a>
</g>
</g>
<!-- Node13&#45;&gt;Node16 -->
<g id="edge18" class="edge"><title>Node13&#45;&gt;Node16</title>
<path fill="none" stroke="midnightblue" d="M768.735,-224.324C758.734,-216.263 743.613,-204.077 731.57,-194.369"/>
<polygon fill="midnightblue" stroke="midnightblue" points="733.443,-191.384 723.461,-187.834 729.05,-196.834 733.443,-191.384"/>
</g>
<!-- Node17 -->
<g id="node17" class="node"><title>Node17</title>
<g id="a_node17"><a xlink:href="../../d0/d70/Material_8hpp.html" target="_top" xlink:title="Material.hpp">
<polygon fill="none" stroke="black" points="831.5,-168.5 831.5,-187.5 901.5,-187.5 901.5,-168.5 831.5,-168.5"/>
<text text-anchor="middle" x="866.5" y="-175.5" font-family="Helvetica,sans-Serif" font-size="10.00">Material.hpp</text>
</a>
</g>
</g>
<!-- Node13&#45;&gt;Node17 -->
<g id="edge22" class="edge"><title>Node13&#45;&gt;Node17</title>
<path fill="none" stroke="midnightblue" d="M793.478,-224.324C807.05,-215.9 827.88,-202.971 843.825,-193.074"/>
<polygon fill="midnightblue" stroke="midnightblue" points="845.906,-195.902 852.557,-187.655 842.214,-189.954 845.906,-195.902"/>
</g>
<!-- Node22 -->
<g id="node22" class="node"><title>Node22</title>
<g id="a_node22"><a xlink:href="../../d1/d62/Mesh_8hpp.html" target="_top" xlink:title="Mesh.hpp">
<polygon fill="none" stroke="black" points="934,-168.5 934,-187.5 993,-187.5 993,-168.5 934,-168.5"/>
<text text-anchor="middle" x="963.5" y="-175.5" font-family="Helvetica,sans-Serif" font-size="10.00">Mesh.hpp</text>
</a>
</g>
</g>
<!-- Node13&#45;&gt;Node22 -->
<g id="edge31" class="edge"><title>Node13&#45;&gt;Node22</title>
<path fill="none" stroke="midnightblue" d="M808.655,-224.444C840.013,-215.241 890.031,-200.562 924.697,-190.388"/>
<polygon fill="midnightblue" stroke="midnightblue" points="925.871,-193.691 934.481,-187.516 923.9,-186.974 925.871,-193.691"/>
</g>
<!-- Node15&#45;&gt;Node14 -->
<g id="edge17" class="edge"><title>Node15&#45;&gt;Node14</title>
<path fill="none" stroke="midnightblue" d="M491.666,-168.27C505.453,-154.095 534.853,-126.23 565.5,-112 623.282,-85.1711 696.781,-74.2859 743.251,-69.9038"/>
<polygon fill="midnightblue" stroke="midnightblue" points="743.658,-73.3816 753.313,-69.0171 743.044,-66.4086 743.658,-73.3816"/>
</g>
<!-- Node16&#45;&gt;Node9 -->
<g id="edge21" class="edge"><title>Node16&#45;&gt;Node9</title>
<path fill="none" stroke="midnightblue" d="M703.342,-168.324C694.999,-160.42 682.468,-148.548 672.323,-138.938"/>
<polygon fill="midnightblue" stroke="midnightblue" points="674.491,-136.171 664.825,-131.834 669.677,-141.252 674.491,-136.171"/>
</g>
<!-- Node16&#45;&gt;Node11 -->
<g id="edge20" class="edge"><title>Node16&#45;&gt;Node11</title>
<path fill="none" stroke="midnightblue" d="M751.626,-173.786C848.988,-165.649 1096.89,-144.029 1132.5,-132 1148.75,-126.511 1150.41,-120.157 1165.5,-112 1187.05,-100.348 1212.1,-88.4337 1230.92,-79.7936"/>
<polygon fill="midnightblue" stroke="midnightblue" points="1232.49,-82.9234 1240.14,-75.5927 1229.59,-76.5533 1232.49,-82.9234"/>
</g>
<!-- Node16&#45;&gt;Node14 -->
<g id="edge19" class="edge"><title>Node16&#45;&gt;Node14</title>
<path fill="none" stroke="midnightblue" d="M717.938,-168.499C725.974,-155.999 741.576,-131.982 755.5,-112 762.089,-102.544 769.681,-92.158 775.921,-83.749"/>
<polygon fill="midnightblue" stroke="midnightblue" points="778.873,-85.6452 782.049,-75.5376 773.263,-81.4584 778.873,-85.6452"/>
</g>
<!-- Node17&#45;&gt;Node11 -->
<g id="edge24" class="edge"><title>Node17&#45;&gt;Node11</title>
<path fill="none" stroke="midnightblue" d="M901.752,-171.608C909.571,-170.416 917.816,-169.162 925.5,-168 1032.15,-151.867 1065.21,-171.701 1165.5,-132 1195.15,-120.264 1224.61,-97.648 1242.45,-82.4368"/>
<polygon fill="midnightblue" stroke="midnightblue" points="1244.99,-84.8616 1250.21,-75.6443 1240.38,-79.592 1244.99,-84.8616"/>
</g>
<!-- Node17&#45;&gt;Node14 -->
<g id="edge23" class="edge"><title>Node17&#45;&gt;Node14</title>
<path fill="none" stroke="midnightblue" d="M859.322,-168.188C852.099,-159.225 840.736,-144.863 831.5,-132 820.069,-116.081 807.808,-97.3675 799.315,-84.118"/>
<polygon fill="midnightblue" stroke="midnightblue" points="802.186,-82.11 793.863,-75.5541 796.281,-85.8693 802.186,-82.11"/>
</g>
<!-- Node18 -->
<g id="node18" class="node"><title>Node18</title>
<g id="a_node18"><a xlink:href="../../dc/ddb/ShaderProgram_8hpp.html" target="_top" xlink:title="ShaderProgram.hpp">
<polygon fill="none" stroke="black" points="1020,-112.5 1020,-131.5 1123,-131.5 1123,-112.5 1020,-112.5"/>
<text text-anchor="middle" x="1071.5" y="-119.5" font-family="Helvetica,sans-Serif" font-size="10.00">ShaderProgram.hpp</text>
</a>
</g>
</g>
<!-- Node17&#45;&gt;Node18 -->
<g id="edge25" class="edge"><title>Node17&#45;&gt;Node18</title>
<path fill="none" stroke="midnightblue" d="M898.983,-168.444C934.22,-159.162 990.604,-144.309 1029.26,-134.127"/>
<polygon fill="midnightblue" stroke="midnightblue" points="1030.39,-137.448 1039.17,-131.516 1028.61,-130.679 1030.39,-137.448"/>
</g>
<!-- Node18&#45;&gt;Node11 -->
<g id="edge28" class="edge"><title>Node18&#45;&gt;Node11</title>
<path fill="none" stroke="midnightblue" d="M1101.29,-112.444C1134.46,-102.916 1188.06,-87.5187 1223.54,-77.328"/>
<polygon fill="midnightblue" stroke="midnightblue" points="1224.84,-80.5978 1233.48,-74.473 1222.91,-73.8698 1224.84,-80.5978"/>
</g>
<!-- Node18&#45;&gt;Node14 -->
<g id="edge26" class="edge"><title>Node18&#45;&gt;Node14</title>
<path fill="none" stroke="midnightblue" d="M1026.66,-112.444C973.91,-102.379 886.837,-85.7639 833.864,-75.656"/>
<polygon fill="midnightblue" stroke="midnightblue" points="834.223,-72.1615 823.744,-73.7251 832.911,-79.0374 834.223,-72.1615"/>
</g>
<!-- Node19 -->
<g id="node19" class="node"><title>Node19</title>
<polygon fill="none" stroke="#bfbfbf" points="969.5,-56.5 969.5,-75.5 1013.5,-75.5 1013.5,-56.5 969.5,-56.5"/>
<text text-anchor="middle" x="991.5" y="-63.5" font-family="Helvetica,sans-Serif" font-size="10.00">vector</text>
</g>
<!-- Node18&#45;&gt;Node19 -->
<g id="edge27" class="edge"><title>Node18&#45;&gt;Node19</title>
<path fill="none" stroke="midnightblue" d="M1058.65,-112.324C1046.28,-103.979 1027.37,-91.2122 1012.76,-81.3524"/>
<polygon fill="midnightblue" stroke="midnightblue" points="1014.57,-78.3483 1004.32,-75.6545 1010.65,-84.1503 1014.57,-78.3483"/>
</g>
<!-- Node20 -->
<g id="node20" class="node"><title>Node20</title>
<g id="a_node20"><a xlink:href="../../d4/d6e/Shader_8hpp.html" target="_top" xlink:title="Shader.hpp">
<polygon fill="none" stroke="black" points="1038.5,-56.5 1038.5,-75.5 1104.5,-75.5 1104.5,-56.5 1038.5,-56.5"/>
<text text-anchor="middle" x="1071.5" y="-63.5" font-family="Helvetica,sans-Serif" font-size="10.00">Shader.hpp</text>
</a>
</g>
</g>
<!-- Node18&#45;&gt;Node20 -->
<g id="edge29" class="edge"><title>Node18&#45;&gt;Node20</title>
<path fill="none" stroke="midnightblue" d="M1071.5,-112.083C1071.5,-105.006 1071.5,-94.8611 1071.5,-85.9865"/>
<polygon fill="midnightblue" stroke="midnightblue" points="1075,-85.751 1071.5,-75.7511 1068,-85.7511 1075,-85.751"/>
</g>
<!-- Node21 -->
<g id="node21" class="node"><title>Node21</title>
<polygon fill="none" stroke="#bfbfbf" points="1051,-0.5 1051,-19.5 1092,-19.5 1092,-0.5 1051,-0.5"/>
<text text-anchor="middle" x="1071.5" y="-7.5" font-family="Helvetica,sans-Serif" font-size="10.00">string</text>
</g>
<!-- Node20&#45;&gt;Node21 -->
<g id="edge30" class="edge"><title>Node20&#45;&gt;Node21</title>
<path fill="none" stroke="midnightblue" d="M1071.5,-56.083C1071.5,-49.0059 1071.5,-38.8611 1071.5,-29.9865"/>
<polygon fill="midnightblue" stroke="midnightblue" points="1075,-29.751 1071.5,-19.7511 1068,-29.7511 1075,-29.751"/>
</g>
<!-- Node22&#45;&gt;Node11 -->
<g id="edge33" class="edge"><title>Node22&#45;&gt;Node11</title>
<path fill="none" stroke="midnightblue" d="M993.035,-175.367C1073.09,-170.641 1289.62,-155.758 1310.5,-132 1325.35,-115.105 1302.87,-94.5219 1283.23,-81.1064"/>
<polygon fill="midnightblue" stroke="midnightblue" points="1285.12,-78.1599 1274.82,-75.6567 1281.31,-84.0335 1285.12,-78.1599"/>
</g>
<!-- Node22&#45;&gt;Node14 -->
<g id="edge34" class="edge"><title>Node22&#45;&gt;Node14</title>
<path fill="none" stroke="midnightblue" d="M939.743,-168.386C919.068,-160.389 888.705,-147.415 864.5,-132 842.012,-117.678 819.156,-97.1497 804.466,-83.0142"/>
<polygon fill="midnightblue" stroke="midnightblue" points="806.793,-80.394 797.199,-75.8988 801.895,-85.3958 806.793,-80.394"/>
</g>
<!-- Node22&#45;&gt;Node19 -->
<g id="edge32" class="edge"><title>Node22&#45;&gt;Node19</title>
<path fill="none" stroke="midnightblue" d="M965.697,-168.368C970.216,-150.617 980.639,-109.666 986.766,-85.5974"/>
<polygon fill="midnightblue" stroke="midnightblue" points="990.238,-86.1458 989.313,-75.5914 983.454,-84.419 990.238,-86.1458"/>
</g>
<!-- Node23 -->
<g id="node23" class="node"><title>Node23</title>
<polygon fill="none" stroke="#bfbfbf" points="1218,-112.5 1218,-131.5 1301,-131.5 1301,-112.5 1218,-112.5"/>
<text text-anchor="middle" x="1259.5" y="-119.5" font-family="Helvetica,sans-Serif" font-size="10.00">assimp/mesh.h</text>
</g>
<!-- Node22&#45;&gt;Node23 -->
<g id="edge35" class="edge"><title>Node22&#45;&gt;Node23</title>
<path fill="none" stroke="midnightblue" d="M993.237,-171.575C1043.51,-162.404 1145.88,-143.729 1208.01,-132.394"/>
<polygon fill="midnightblue" stroke="midnightblue" points="1208.79,-135.81 1218,-130.572 1207.53,-128.923 1208.79,-135.81"/>
</g>
<!-- Node24 -->
<g id="node24" class="node"><title>Node24</title>
<g id="a_node24"><a xlink:href="../../da/d04/BufferObject_8hpp.html" target="_top" xlink:title="BufferObject.hpp">
<polygon fill="none" stroke="black" points="873.5,-112.5 873.5,-131.5 963.5,-131.5 963.5,-112.5 873.5,-112.5"/>
<text text-anchor="middle" x="918.5" y="-119.5" font-family="Helvetica,sans-Serif" font-size="10.00">BufferObject.hpp</text>
</a>
</g>
</g>
<!-- Node22&#45;&gt;Node24 -->
<g id="edge36" class="edge"><title>Node22&#45;&gt;Node24</title>
<path fill="none" stroke="midnightblue" d="M956.069,-168.083C949.647,-160.377 940.194,-149.033 932.378,-139.653"/>
<polygon fill="midnightblue" stroke="midnightblue" points="934.883,-137.193 925.793,-131.751 929.506,-141.674 934.883,-137.193"/>
</g>
<!-- Node24&#45;&gt;Node14 -->
<g id="edge38" class="edge"><title>Node24&#45;&gt;Node14</title>
<path fill="none" stroke="midnightblue" d="M897.901,-112.444C876.507,-103.557 842.819,-89.5632 818.476,-79.4514"/>
<polygon fill="midnightblue" stroke="midnightblue" points="819.58,-76.1203 809.003,-75.5164 816.895,-82.5848 819.58,-76.1203"/>
</g>
<!-- Node24&#45;&gt;Node19 -->
<g id="edge37" class="edge"><title>Node24&#45;&gt;Node19</title>
<path fill="none" stroke="midnightblue" d="M930.229,-112.324C941.337,-104.107 958.242,-91.6017 971.483,-81.8069"/>
<polygon fill="midnightblue" stroke="midnightblue" points="973.6,-84.5948 979.558,-75.8339 969.437,-78.9671 973.6,-84.5948"/>
</g>
<!-- Node25&#45;&gt;Node13 -->
<g id="edge42" class="edge"><title>Node25&#45;&gt;Node13</title>
<path fill="none" stroke="midnightblue" d="M640.645,-280.444C668.523,-271.32 712.848,-256.813 743.9,-246.651"/>
<polygon fill="midnightblue" stroke="midnightblue" points="745.062,-249.953 753.478,-243.516 742.885,-243.3 745.062,-249.953"/>
</g>
<!-- Node25&#45;&gt;Node14 -->
<g id="edge40" class="edge"><title>Node25&#45;&gt;Node14</title>
<path fill="none" stroke="midnightblue" d="M610.118,-280.453C596.559,-252.68 558.594,-163.79 599.5,-112 617.103,-89.7134 693.33,-77.2754 743.436,-71.3727"/>
<polygon fill="midnightblue" stroke="midnightblue" points="743.851,-74.8483 753.393,-70.2447 743.063,-67.8928 743.851,-74.8483"/>
</g>
<!-- Node25&#45;&gt;Node15 -->
<g id="edge41" class="edge"><title>Node25&#45;&gt;Node15</title>
<path fill="none" stroke="midnightblue" d="M604.221,-280.368C582.028,-261.733 529.389,-217.532 501.523,-194.134"/>
<polygon fill="midnightblue" stroke="midnightblue" points="503.641,-191.342 493.732,-187.591 499.139,-196.702 503.641,-191.342"/>
</g>
<!-- Node28 -->
<g id="node28" class="node"><title>Node28</title>
<g id="a_node28"><a xlink:href="../../d5/da5/tools_8h.html" target="_top" xlink:title="tools.h">
<polygon fill="none" stroke="black" points="304.5,-336.5 304.5,-355.5 350.5,-355.5 350.5,-336.5 304.5,-336.5"/>
<text text-anchor="middle" x="327.5" y="-343.5" font-family="Helvetica,sans-Serif" font-size="10.00">tools.h</text>
</a>
</g>
</g>
<!-- Node27&#45;&gt;Node28 -->
<g id="edge45" class="edge"><title>Node27&#45;&gt;Node28</title>
<path fill="none" stroke="midnightblue" d="M332.64,-397.975C331.794,-389.58 330.473,-376.481 329.382,-365.663"/>
<polygon fill="midnightblue" stroke="midnightblue" points="332.844,-365.107 328.358,-355.509 325.879,-365.81 332.844,-365.107"/>
</g>
<!-- Node29 -->
<g id="node29" class="node"><title>Node29</title>
<polygon fill="none" stroke="#bfbfbf" points="95.5,-280.5 95.5,-299.5 145.5,-299.5 145.5,-280.5 95.5,-280.5"/>
<text text-anchor="middle" x="120.5" y="-287.5" font-family="Helvetica,sans-Serif" font-size="10.00">QString</text>
</g>
<!-- Node28&#45;&gt;Node29 -->
<g id="edge46" class="edge"><title>Node28&#45;&gt;Node29</title>
<path fill="none" stroke="midnightblue" d="M304.266,-338.99C272.803,-330.845 214.64,-315.761 155.61,-300.284"/>
<polygon fill="midnightblue" stroke="midnightblue" points="156.309,-296.848 145.748,-297.696 154.532,-303.619 156.309,-296.848"/>
</g>
<!-- Node30 -->
<g id="node30" class="node"><title>Node30</title>
<polygon fill="none" stroke="#bfbfbf" points="164,-280.5 164,-299.5 229,-299.5 229,-280.5 164,-280.5"/>
<text text-anchor="middle" x="196.5" y="-287.5" font-family="Helvetica,sans-Serif" font-size="10.00">QVector3D</text>
</g>
<!-- Node28&#45;&gt;Node30 -->
<g id="edge47" class="edge"><title>Node28&#45;&gt;Node30</title>
<path fill="none" stroke="midnightblue" d="M306.743,-336.444C285.184,-327.557 251.237,-313.563 226.706,-303.451"/>
<polygon fill="midnightblue" stroke="midnightblue" points="227.739,-300.092 217.16,-299.516 225.072,-306.563 227.739,-300.092"/>
</g>
<!-- Node31 -->
<g id="node31" class="node"><title>Node31</title>
<polygon fill="none" stroke="#bfbfbf" points="247.5,-280.5 247.5,-299.5 287.5,-299.5 287.5,-280.5 247.5,-280.5"/>
<text text-anchor="middle" x="267.5" y="-287.5" font-family="Helvetica,sans-Serif" font-size="10.00">QList</text>
</g>
<!-- Node28&#45;&gt;Node31 -->
<g id="edge48" class="edge"><title>Node28&#45;&gt;Node31</title>
<path fill="none" stroke="midnightblue" d="M317.86,-336.324C308.99,-328.341 295.625,-316.313 284.892,-306.653"/>
<polygon fill="midnightblue" stroke="midnightblue" points="287.09,-303.922 277.315,-299.834 282.407,-309.125 287.09,-303.922"/>
</g>
<!-- Node32 -->
<g id="node32" class="node"><title>Node32</title>
<polygon fill="none" stroke="#bfbfbf" points="306,-280.5 306,-299.5 349,-299.5 349,-280.5 306,-280.5"/>
<text text-anchor="middle" x="327.5" y="-287.5" font-family="Helvetica,sans-Serif" font-size="10.00">QMap</text>
</g>
<!-- Node28&#45;&gt;Node32 -->
<g id="edge49" class="edge"><title>Node28&#45;&gt;Node32</title>
<path fill="none" stroke="midnightblue" d="M327.5,-336.083C327.5,-329.006 327.5,-318.861 327.5,-309.986"/>
<polygon fill="midnightblue" stroke="midnightblue" points="331,-309.751 327.5,-299.751 324,-309.751 331,-309.751"/>
</g>
<!-- Node33 -->
<g id="node33" class="node"><title>Node33</title>
<polygon fill="none" stroke="#bfbfbf" points="367,-280.5 367,-299.5 458,-299.5 458,-280.5 367,-280.5"/>
<text text-anchor="middle" x="412.5" y="-287.5" font-family="Helvetica,sans-Serif" font-size="10.00">QGraphicsScene</text>
</g>
<!-- Node28&#45;&gt;Node33 -->
<g id="edge50" class="edge"><title>Node28&#45;&gt;Node33</title>
<path fill="none" stroke="midnightblue" d="M341.157,-336.324C354.416,-327.9 374.768,-314.971 390.346,-305.074"/>
<polygon fill="midnightblue" stroke="midnightblue" points="392.313,-307.971 398.877,-299.655 388.56,-302.063 392.313,-307.971"/>
</g>
<!-- Node34 -->
<g id="node34" class="node"><title>Node34</title>
<polygon fill="none" stroke="#bfbfbf" points="476,-280.5 476,-299.5 523,-299.5 523,-280.5 476,-280.5"/>
<text text-anchor="middle" x="499.5" y="-287.5" font-family="Helvetica,sans-Serif" font-size="10.00">math.h</text>
</g>
<!-- Node28&#45;&gt;Node34 -->
<g id="edge51" class="edge"><title>Node28&#45;&gt;Node34</title>
<path fill="none" stroke="midnightblue" d="M350.697,-337.717C380.363,-328.403 431.954,-312.206 465.915,-301.544"/>
<polygon fill="midnightblue" stroke="midnightblue" points="467.353,-304.761 475.845,-298.427 465.256,-298.083 467.353,-304.761"/>
</g>
<!-- Node38&#45;&gt;Node7 -->
<g id="edge56" class="edge"><title>Node38&#45;&gt;Node7</title>
<path fill="none" stroke="midnightblue" d="M750.903,-459.475C741.636,-450.285 726.683,-435.456 715.288,-424.156"/>
<polygon fill="midnightblue" stroke="midnightblue" points="717.646,-421.565 708.081,-417.009 712.717,-426.536 717.646,-421.565"/>
</g>
</g>
</svg>
