<?xml version="1.0" encoding="UTF-8" standalone="no"?>
<!DOCTYPE svg PUBLIC "-//W3C//DTD SVG 1.1//EN"
 "http://www.w3.org/Graphics/SVG/1.1/DTD/svg11.dtd">
<!-- Generated by graphviz version 2.38.0 (20140413.2041)
 -->
<!-- Title: window/glwindow.cpp Pages: 1 -->
<!--zoomable 431 -->
<svg id="main" version="1.1" xmlns="http://www.w3.org/2000/svg" xmlns:xlink="http://www.w3.org/1999/xlink" xml:space="preserve" onload="init(evt)">
<style type="text/css"><![CDATA[
.edge:hover path { stroke: red; }
.edge:hover polygon { stroke: red; fill: red; }
]]></style>
<script type="text/javascript"><![CDATA[
var edges = document.getElementsByTagName('g');
if (edges && edges.length) {
  for (var i=0;i<edges.length;i++) {
    if (edges[i].id.substr(0,4)=='edge') {
      edges[i].setAttribute('class','edge');
    }
  }
}
]]></script>
        <defs>
                <circle id="rim" cx="0" cy="0" r="7"/>
                <circle id="rim2" cx="0" cy="0" r="3.5"/>
                <g id="zoomPlus">
                        <use xlink:href="#rim" fill="#404040">
                                <set attributeName="fill" to="#808080" begin="zoomplus.mouseover" end="zoomplus.mouseout"/>
                        </use>
                        <path d="M-4,0h8M0,-4v8" fill="none" stroke="white" stroke-width="1.5" pointer-events="none"/>
                </g>
                <g id="zoomMin">
                        <use xlink:href="#rim" fill="#404040">
                                <set attributeName="fill" to="#808080" begin="zoomminus.mouseover" end="zoomminus.mouseout"/>
                        </use>
                        <path d="M-4,0h8" fill="none" stroke="white" stroke-width="1.5" pointer-events="none"/>
                </g>
                <g id="dirArrow">
                        <path fill="none" stroke="white" stroke-width="1.5" d="M0,-3.0v7 M-2.5,-0.5L0,-3.0L2.5,-0.5"/>
                </g>
               <g id="resetDef">
                       <use xlink:href="#rim2" fill="#404040">
                               <set attributeName="fill" to="#808080" begin="reset.mouseover" end="reset.mouseout"/>
                       </use>
               </g>
        </defs>

<script type="text/javascript">
var viewWidth = 1748;
var viewHeight = 431;
var sectionId = 'dynsection-0';
</script>
<script xlink:href="../../svgpan.js"/>
<svg id="graph" class="graph">
<g id="viewport">
<title>window/glwindow.cpp</title>
<!-- Node1 -->
<g id="node1" class="node"><title>Node1</title>
<polygon fill="#bfbfbf" stroke="black" points="1094,-403.5 1094,-422.5 1206,-422.5 1206,-403.5 1094,-403.5"/>
<text text-anchor="middle" x="1150" y="-410.5" font-family="Helvetica,sans-Serif" font-size="10.00">window/glwindow.cpp</text>
</g>
<!-- Node2 -->
<g id="node2" class="node"><title>Node2</title>
<g id="a_node2"><a xlink:href="../../d0/d5e/glwindow_8hpp.html" target="_top" xlink:title="glwindow.hpp">
<polygon fill="none" stroke="black" points="800,-347.5 800,-366.5 876,-366.5 876,-347.5 800,-347.5"/>
<text text-anchor="middle" x="838" y="-354.5" font-family="Helvetica,sans-Serif" font-size="10.00">glwindow.hpp</text>
</a>
</g>
</g>
<!-- Node1&#45;&gt;Node2 -->
<g id="edge1" class="edge"><title>Node1&#45;&gt;Node2</title>
<path fill="none" stroke="midnightblue" d="M1100.56,-403.444C1041.88,-393.288 944.675,-376.463 886.438,-366.384"/>
<polygon fill="midnightblue" stroke="midnightblue" points="886.837,-362.901 876.387,-364.644 885.643,-369.798 886.837,-362.901"/>
</g>
<!-- Node8 -->
<g id="node8" class="node"><title>Node8</title>
<g id="a_node8"><a xlink:href="../../d4/d1c/GameEngine_8hpp.html" target="_top" xlink:title="GameEngine.hpp">
<polygon fill="none" stroke="black" points="1002,-286 1002,-305 1094,-305 1094,-286 1002,-286"/>
<text text-anchor="middle" x="1048" y="-293" font-family="Helvetica,sans-Serif" font-size="10.00">GameEngine.hpp</text>
</a>
</g>
</g>
<!-- Node1&#45;&gt;Node8 -->
<g id="edge68" class="edge"><title>Node1&#45;&gt;Node8</title>
<path fill="none" stroke="midnightblue" d="M1093.86,-408.68C1064.71,-403.76 1031.43,-392.448 1013,-367 1000.44,-349.658 1016.37,-327.134 1030.62,-312.268"/>
<polygon fill="midnightblue" stroke="midnightblue" points="1033.07,-314.764 1037.75,-305.26 1028.16,-309.769 1033.07,-314.764"/>
</g>
<!-- Node46 -->
<g id="node46" class="node"><title>Node46</title>
<polygon fill="none" stroke="#bfbfbf" points="1021.5,-347.5 1021.5,-366.5 1096.5,-366.5 1096.5,-347.5 1021.5,-347.5"/>
<text text-anchor="middle" x="1059" y="-354.5" font-family="Helvetica,sans-Serif" font-size="10.00">QPushButton</text>
</g>
<!-- Node1&#45;&gt;Node46 -->
<g id="edge65" class="edge"><title>Node1&#45;&gt;Node46</title>
<path fill="none" stroke="midnightblue" d="M1135.38,-403.324C1121.05,-394.822 1098.99,-381.729 1082.25,-371.797"/>
<polygon fill="midnightblue" stroke="midnightblue" points="1083.97,-368.748 1073.58,-366.655 1080.4,-374.768 1083.97,-368.748"/>
</g>
<!-- Node47 -->
<g id="node47" class="node"><title>Node47</title>
<polygon fill="none" stroke="#bfbfbf" points="1114.5,-347.5 1114.5,-366.5 1185.5,-366.5 1185.5,-347.5 1114.5,-347.5"/>
<text text-anchor="middle" x="1150" y="-354.5" font-family="Helvetica,sans-Serif" font-size="10.00">QGridLayout</text>
</g>
<!-- Node1&#45;&gt;Node47 -->
<g id="edge66" class="edge"><title>Node1&#45;&gt;Node47</title>
<path fill="none" stroke="midnightblue" d="M1150,-403.083C1150,-396.006 1150,-385.861 1150,-376.986"/>
<polygon fill="midnightblue" stroke="midnightblue" points="1153.5,-376.751 1150,-366.751 1146.5,-376.751 1153.5,-376.751"/>
</g>
<!-- Node48 -->
<g id="node48" class="node"><title>Node48</title>
<polygon fill="none" stroke="#bfbfbf" points="1203.5,-347.5 1203.5,-366.5 1296.5,-366.5 1296.5,-347.5 1203.5,-347.5"/>
<text text-anchor="middle" x="1250" y="-354.5" font-family="Helvetica,sans-Serif" font-size="10.00">QCoreApplication</text>
</g>
<!-- Node1&#45;&gt;Node48 -->
<g id="edge67" class="edge"><title>Node1&#45;&gt;Node48</title>
<path fill="none" stroke="midnightblue" d="M1166.07,-403.324C1181.96,-394.743 1206.51,-381.486 1224.96,-371.522"/>
<polygon fill="midnightblue" stroke="midnightblue" points="1226.84,-374.486 1233.97,-366.655 1223.51,-368.326 1226.84,-374.486"/>
</g>
<!-- Node49 -->
<g id="node49" class="node"><title>Node49</title>
<polygon fill="none" stroke="#bfbfbf" points="1314.5,-347.5 1314.5,-366.5 1421.5,-366.5 1421.5,-347.5 1314.5,-347.5"/>
<text text-anchor="middle" x="1368" y="-354.5" font-family="Helvetica,sans-Serif" font-size="10.00">log4cpp/Category.hh</text>
</g>
<!-- Node1&#45;&gt;Node49 -->
<g id="edge69" class="edge"><title>Node1&#45;&gt;Node49</title>
<path fill="none" stroke="midnightblue" d="M1184.54,-403.444C1222.25,-394.102 1282.74,-379.119 1323.86,-368.933"/>
<polygon fill="midnightblue" stroke="midnightblue" points="1324.75,-372.318 1333.62,-366.516 1323.07,-365.524 1324.75,-372.318"/>
</g>
<!-- Node50 -->
<g id="node50" class="node"><title>Node50</title>
<polygon fill="none" stroke="#bfbfbf" points="1440,-347.5 1440,-366.5 1558,-366.5 1558,-347.5 1440,-347.5"/>
<text text-anchor="middle" x="1499" y="-354.5" font-family="Helvetica,sans-Serif" font-size="10.00">QOpenGLDebugLogger</text>
</g>
<!-- Node1&#45;&gt;Node50 -->
<g id="edge70" class="edge"><title>Node1&#45;&gt;Node50</title>
<path fill="none" stroke="midnightblue" d="M1205.3,-403.444C1267.33,-393.846 1367.86,-378.292 1433.7,-368.104"/>
<polygon fill="midnightblue" stroke="midnightblue" points="1434.61,-371.504 1443.96,-366.516 1433.54,-364.587 1434.61,-371.504"/>
</g>
<!-- Node3 -->
<g id="node3" class="node"><title>Node3</title>
<polygon fill="none" stroke="#bfbfbf" points="844.5,-286 844.5,-305 903.5,-305 903.5,-286 844.5,-286"/>
<text text-anchor="middle" x="874" y="-293" font-family="Helvetica,sans-Serif" font-size="10.00">QWindow</text>
</g>
<!-- Node2&#45;&gt;Node3 -->
<g id="edge2" class="edge"><title>Node2&#45;&gt;Node3</title>
<path fill="none" stroke="midnightblue" d="M843.158,-347.475C848.451,-338.727 856.835,-324.869 863.527,-313.809"/>
<polygon fill="midnightblue" stroke="midnightblue" points="866.67,-315.377 868.852,-305.009 860.68,-311.753 866.67,-315.377"/>
</g>
<!-- Node4 -->
<g id="node4" class="node"><title>Node4</title>
<polygon fill="none" stroke="#bfbfbf" points="450.5,-286 450.5,-305 545.5,-305 545.5,-286 450.5,-286"/>
<text text-anchor="middle" x="498" y="-293" font-family="Helvetica,sans-Serif" font-size="10.00">QOpenGLContext</text>
</g>
<!-- Node2&#45;&gt;Node4 -->
<g id="edge3" class="edge"><title>Node2&#45;&gt;Node4</title>
<path fill="none" stroke="midnightblue" d="M799.807,-351.056C745.247,-343.739 641.972,-328.938 555,-311 549.942,-309.957 544.658,-308.76 539.434,-307.51"/>
<polygon fill="midnightblue" stroke="midnightblue" points="540.085,-304.066 529.538,-305.07 538.409,-310.863 540.085,-304.066"/>
</g>
<!-- Node5 -->
<g id="node5" class="node"><title>Node5</title>
<polygon fill="none" stroke="#bfbfbf" points="563.5,-280.5 563.5,-310.5 676.5,-310.5 676.5,-280.5 563.5,-280.5"/>
<text text-anchor="start" x="571.5" y="-298.5" font-family="Helvetica,sans-Serif" font-size="10.00">QOpenGLFunctions_4</text>
<text text-anchor="middle" x="620" y="-287.5" font-family="Helvetica,sans-Serif" font-size="10.00">_2_Core</text>
</g>
<!-- Node2&#45;&gt;Node5 -->
<g id="edge4" class="edge"><title>Node2&#45;&gt;Node5</title>
<path fill="none" stroke="midnightblue" d="M806.766,-347.475C774.137,-338.569 722.108,-324.369 681.242,-313.215"/>
<polygon fill="midnightblue" stroke="midnightblue" points="681.947,-309.78 671.378,-310.523 680.104,-316.533 681.947,-309.78"/>
</g>
<!-- Node6 -->
<g id="node6" class="node"><title>Node6</title>
<polygon fill="none" stroke="#bfbfbf" points="694.5,-286 694.5,-305 761.5,-305 761.5,-286 694.5,-286"/>
<text text-anchor="middle" x="728" y="-293" font-family="Helvetica,sans-Serif" font-size="10.00">QKeyEvent</text>
</g>
<!-- Node2&#45;&gt;Node6 -->
<g id="edge5" class="edge"><title>Node2&#45;&gt;Node6</title>
<path fill="none" stroke="midnightblue" d="M822.24,-347.475C804.024,-337.622 773.827,-321.288 752.532,-309.77"/>
<polygon fill="midnightblue" stroke="midnightblue" points="754.192,-306.688 743.731,-305.009 750.862,-312.845 754.192,-306.688"/>
</g>
<!-- Node7 -->
<g id="node7" class="node"><title>Node7</title>
<polygon fill="none" stroke="#bfbfbf" points="780,-286 780,-305 826,-305 826,-286 780,-286"/>
<text text-anchor="middle" x="803" y="-293" font-family="Helvetica,sans-Serif" font-size="10.00">QTime</text>
</g>
<!-- Node2&#45;&gt;Node7 -->
<g id="edge6" class="edge"><title>Node2&#45;&gt;Node7</title>
<path fill="none" stroke="midnightblue" d="M832.985,-347.475C827.839,-338.727 819.688,-324.869 813.182,-313.809"/>
<polygon fill="midnightblue" stroke="midnightblue" points="816.092,-311.854 808.005,-305.009 810.059,-315.403 816.092,-311.854"/>
</g>
<!-- Node2&#45;&gt;Node8 -->
<g id="edge7" class="edge"><title>Node2&#45;&gt;Node8</title>
<path fill="none" stroke="midnightblue" d="M868.088,-347.475C904.89,-337.048 967.311,-319.362 1008.09,-307.807"/>
<polygon fill="midnightblue" stroke="midnightblue" points="1009.3,-311.103 1017.97,-305.009 1007.39,-304.368 1009.3,-311.103"/>
</g>
<!-- Node38 -->
<g id="node38" class="node"><title>Node38</title>
<g id="a_node38"><a xlink:href="../../dc/ddc/model_8hpp.html" target="_top" xlink:title="model.hpp">
<polygon fill="none" stroke="black" points="922,-286 922,-305 984,-305 984,-286 922,-286"/>
<text text-anchor="middle" x="953" y="-293" font-family="Helvetica,sans-Serif" font-size="10.00">model.hpp</text>
</a>
</g>
</g>
<!-- Node2&#45;&gt;Node38 -->
<g id="edge57" class="edge"><title>Node2&#45;&gt;Node38</title>
<path fill="none" stroke="midnightblue" d="M854.477,-347.475C873.605,-337.578 905.373,-321.142 927.652,-309.615"/>
<polygon fill="midnightblue" stroke="midnightblue" points="929.281,-312.713 936.554,-305.009 926.064,-306.496 929.281,-312.713"/>
</g>
<!-- Node9 -->
<g id="node9" class="node"><title>Node9</title>
<g id="a_node9"><a xlink:href="../../de/df7/worldparticles_8hpp.html" target="_top" xlink:title="wordparticles configuration file ">
<polygon fill="none" stroke="black" points="1106.5,-224.5 1106.5,-243.5 1201.5,-243.5 1201.5,-224.5 1106.5,-224.5"/>
<text text-anchor="middle" x="1154" y="-231.5" font-family="Helvetica,sans-Serif" font-size="10.00">worldparticles.hpp</text>
</a>
</g>
</g>
<!-- Node8&#45;&gt;Node9 -->
<g id="edge8" class="edge"><title>Node8&#45;&gt;Node9</title>
<path fill="none" stroke="midnightblue" d="M1063.19,-285.975C1080.66,-276.166 1109.58,-259.935 1130.08,-248.425"/>
<polygon fill="midnightblue" stroke="midnightblue" points="1131.83,-251.456 1138.84,-243.509 1128.41,-245.352 1131.83,-251.456"/>
</g>
<!-- Node10 -->
<g id="node10" class="node"><title>Node10</title>
<g id="a_node10"><a xlink:href="../../db/de8/Scene_8hpp.html" target="_top" xlink:title="Scene.hpp">
<polygon fill="none" stroke="black" points="986.5,-224.5 986.5,-243.5 1049.5,-243.5 1049.5,-224.5 986.5,-224.5"/>
<text text-anchor="middle" x="1018" y="-231.5" font-family="Helvetica,sans-Serif" font-size="10.00">Scene.hpp</text>
</a>
</g>
</g>
<!-- Node8&#45;&gt;Node10 -->
<g id="edge9" class="edge"><title>Node8&#45;&gt;Node10</title>
<path fill="none" stroke="midnightblue" d="M1043.7,-285.975C1039.34,-277.315 1032.44,-263.649 1026.9,-252.645"/>
<polygon fill="midnightblue" stroke="midnightblue" points="1029.92,-250.863 1022.29,-243.509 1023.67,-254.014 1029.92,-250.863"/>
</g>
<!-- Node36 -->
<g id="node36" class="node"><title>Node36</title>
<g id="a_node36"><a xlink:href="../../d0/dbd/AssimpImporter_8hpp.html" target="_top" xlink:title="AssimpImporter.hpp">
<polygon fill="none" stroke="black" points="1525,-168.5 1525,-187.5 1629,-187.5 1629,-168.5 1525,-168.5"/>
<text text-anchor="middle" x="1577" y="-175.5" font-family="Helvetica,sans-Serif" font-size="10.00">AssimpImporter.hpp</text>
</a>
</g>
</g>
<!-- Node8&#45;&gt;Node36 -->
<g id="edge52" class="edge"><title>Node8&#45;&gt;Node36</title>
<path fill="none" stroke="midnightblue" d="M1051.32,-285.683C1057.7,-270.138 1073.26,-238.164 1098,-224 1176.31,-179.174 1407.81,-197.517 1514.55,-187.967"/>
<polygon fill="midnightblue" stroke="midnightblue" points="1515.19,-191.419 1524.78,-186.916 1514.48,-184.455 1515.19,-191.419"/>
</g>
<!-- Node11 -->
<g id="node11" class="node"><title>Node11</title>
<polygon fill="none" stroke="#bfbfbf" points="759,-56.5 759,-75.5 811,-75.5 811,-56.5 759,-56.5"/>
<text text-anchor="middle" x="785" y="-63.5" font-family="Helvetica,sans-Serif" font-size="10.00">memory</text>
</g>
<!-- Node10&#45;&gt;Node11 -->
<g id="edge10" class="edge"><title>Node10&#45;&gt;Node11</title>
<path fill="none" stroke="midnightblue" d="M986.299,-231.096C909.899,-226.178 717.524,-211.753 658,-188 619.031,-172.449 600.923,-169.448 582,-132 577.991,-124.066 576.436,-118.932 582,-112 592.428,-99.0074 693.375,-81.3533 748.871,-72.5165"/>
<polygon fill="midnightblue" stroke="midnightblue" points="749.665,-75.9347 758.998,-70.9214 748.575,-69.02 749.665,-75.9347"/>
</g>
<!-- Node12 -->
<g id="node12" class="node"><title>Node12</title>
<polygon fill="none" stroke="#bfbfbf" points="1097.5,-112.5 1097.5,-131.5 1126.5,-131.5 1126.5,-112.5 1097.5,-112.5"/>
<text text-anchor="middle" x="1112" y="-119.5" font-family="Helvetica,sans-Serif" font-size="10.00">list</text>
</g>
<!-- Node10&#45;&gt;Node12 -->
<g id="edge11" class="edge"><title>Node10&#45;&gt;Node12</title>
<path fill="none" stroke="midnightblue" d="M1025.38,-224.368C1041.03,-206.055 1077.78,-163.049 1098.02,-139.362"/>
<polygon fill="midnightblue" stroke="midnightblue" points="1100.82,-141.468 1104.66,-131.591 1095.5,-136.92 1100.82,-141.468"/>
</g>
<!-- Node13 -->
<g id="node13" class="node"><title>Node13</title>
<g id="a_node13"><a xlink:href="../../dd/db8/Renderer_8hpp.html" target="_top" xlink:title="Renderer.hpp">
<polygon fill="none" stroke="black" points="1083.5,-168.5 1083.5,-187.5 1158.5,-187.5 1158.5,-168.5 1083.5,-168.5"/>
<text text-anchor="middle" x="1121" y="-175.5" font-family="Helvetica,sans-Serif" font-size="10.00">Renderer.hpp</text>
</a>
</g>
</g>
<!-- Node10&#45;&gt;Node13 -->
<g id="edge12" class="edge"><title>Node10&#45;&gt;Node13</title>
<path fill="none" stroke="midnightblue" d="M1034.55,-224.324C1050.99,-215.703 1076.43,-202.364 1095.47,-192.386"/>
<polygon fill="midnightblue" stroke="midnightblue" points="1097.26,-195.398 1104.49,-187.655 1094.01,-189.198 1097.26,-195.398"/>
</g>
<!-- Node14 -->
<g id="node14" class="node"><title>Node14</title>
<g id="a_node14"><a xlink:href="../../de/dbe/SpatialGraph_8hpp.html" target="_top" xlink:title="SpatialGraph.hpp">
<polygon fill="none" stroke="black" points="935,-168.5 935,-187.5 1027,-187.5 1027,-168.5 935,-168.5"/>
<text text-anchor="middle" x="981" y="-175.5" font-family="Helvetica,sans-Serif" font-size="10.00">SpatialGraph.hpp</text>
</a>
</g>
</g>
<!-- Node10&#45;&gt;Node14 -->
<g id="edge14" class="edge"><title>Node10&#45;&gt;Node14</title>
<path fill="none" stroke="midnightblue" d="M1011.89,-224.083C1006.72,-216.534 999.154,-205.495 992.806,-196.23"/>
<polygon fill="midnightblue" stroke="midnightblue" points="995.536,-194.022 986.996,-187.751 989.761,-197.979 995.536,-194.022"/>
</g>
<!-- Node15 -->
<g id="node15" class="node"><title>Node15</title>
<g id="a_node15"><a xlink:href="../../d8/d58/SceneGraph_8hpp.html" target="_top" xlink:title="SceneGraph.hpp">
<polygon fill="none" stroke="black" points="445.5,-168.5 445.5,-187.5 534.5,-187.5 534.5,-168.5 445.5,-168.5"/>
<text text-anchor="middle" x="490" y="-175.5" font-family="Helvetica,sans-Serif" font-size="10.00">SceneGraph.hpp</text>
</a>
</g>
</g>
<!-- Node10&#45;&gt;Node15 -->
<g id="edge16" class="edge"><title>Node10&#45;&gt;Node15</title>
<path fill="none" stroke="midnightblue" d="M986.369,-230.577C910.673,-224.646 713.175,-208.382 549,-188 547.699,-187.838 546.382,-187.671 545.054,-187.498"/>
<polygon fill="midnightblue" stroke="midnightblue" points="545.123,-183.975 534.742,-186.093 544.177,-190.911 545.123,-183.975"/>
</g>
<!-- Node17 -->
<g id="node17" class="node"><title>Node17</title>
<g id="a_node17"><a xlink:href="../../d1/d93/ShaderProgramLibrary_8hpp.html" target="_top" xlink:title="ShaderProgramLibrary.hpp">
<polygon fill="none" stroke="black" points="667,-168.5 667,-187.5 799,-187.5 799,-168.5 667,-168.5"/>
<text text-anchor="middle" x="733" y="-175.5" font-family="Helvetica,sans-Serif" font-size="10.00">ShaderProgramLibrary.hpp</text>
</a>
</g>
</g>
<!-- Node10&#45;&gt;Node17 -->
<g id="edge18" class="edge"><title>Node10&#45;&gt;Node17</title>
<path fill="none" stroke="midnightblue" d="M986.411,-227.015C938.597,-217.955 847.185,-200.635 788.213,-189.461"/>
<polygon fill="midnightblue" stroke="midnightblue" points="788.796,-186.01 778.319,-187.587 787.493,-192.887 788.796,-186.01"/>
</g>
<!-- Node24 -->
<g id="node24" class="node"><title>Node24</title>
<g id="a_node24"><a xlink:href="../../d2/d26/MaterialLibrary_8hpp.html" target="_top" xlink:title="MaterialLibrary.hpp">
<polygon fill="none" stroke="black" points="817.5,-168.5 817.5,-187.5 916.5,-187.5 916.5,-168.5 817.5,-168.5"/>
<text text-anchor="middle" x="867" y="-175.5" font-family="Helvetica,sans-Serif" font-size="10.00">MaterialLibrary.hpp</text>
</a>
</g>
</g>
<!-- Node10&#45;&gt;Node24 -->
<g id="edge31" class="edge"><title>Node10&#45;&gt;Node24</title>
<path fill="none" stroke="midnightblue" d="M994.074,-224.444C968.781,-215.399 928.698,-201.064 900.32,-190.916"/>
<polygon fill="midnightblue" stroke="midnightblue" points="901.409,-187.588 890.814,-187.516 899.052,-194.179 901.409,-187.588"/>
</g>
<!-- Node27 -->
<g id="node27" class="node"><title>Node27</title>
<g id="a_node27"><a xlink:href="../../d1/da3/AnimationLibrary_8hpp.html" target="_top" xlink:title="AnimationLibrary.hpp">
<polygon fill="none" stroke="black" points="1399,-168.5 1399,-187.5 1507,-187.5 1507,-168.5 1399,-168.5"/>
<text text-anchor="middle" x="1453" y="-175.5" font-family="Helvetica,sans-Serif" font-size="10.00">AnimationLibrary.hpp</text>
</a>
</g>
</g>
<!-- Node10&#45;&gt;Node27 -->
<g id="edge37" class="edge"><title>Node10&#45;&gt;Node27</title>
<path fill="none" stroke="midnightblue" d="M1049.61,-226.456C1054.42,-225.565 1059.33,-224.713 1064,-224 1204.86,-202.481 1243.66,-206.129 1388.56,-188.141"/>
<polygon fill="midnightblue" stroke="midnightblue" points="1389.23,-191.584 1398.72,-186.867 1388.36,-184.639 1389.23,-191.584"/>
</g>
<!-- Node31 -->
<g id="node31" class="node"><title>Node31</title>
<g id="a_node31"><a xlink:href="../../dd/de2/MeshLibrary_8hpp.html" target="_top" xlink:title="MeshLibrary.hpp">
<polygon fill="none" stroke="black" points="1176.5,-168.5 1176.5,-187.5 1265.5,-187.5 1265.5,-168.5 1176.5,-168.5"/>
<text text-anchor="middle" x="1221" y="-175.5" font-family="Helvetica,sans-Serif" font-size="10.00">MeshLibrary.hpp</text>
</a>
</g>
</g>
<!-- Node10&#45;&gt;Node31 -->
<g id="edge43" class="edge"><title>Node10&#45;&gt;Node31</title>
<path fill="none" stroke="midnightblue" d="M1049.72,-224.562C1084.52,-215.304 1140.54,-200.403 1178.98,-190.178"/>
<polygon fill="midnightblue" stroke="midnightblue" points="1180.07,-193.51 1188.83,-187.556 1178.27,-186.745 1180.07,-193.51"/>
</g>
<!-- Node34 -->
<g id="node34" class="node"><title>Node34</title>
<g id="a_node34"><a xlink:href="../../dc/d23/TextureLibrary_8hpp.html" target="_top" xlink:title="TextureLibrary.hpp">
<polygon fill="none" stroke="black" points="1283,-168.5 1283,-187.5 1381,-187.5 1381,-168.5 1283,-168.5"/>
<text text-anchor="middle" x="1332" y="-175.5" font-family="Helvetica,sans-Serif" font-size="10.00">TextureLibrary.hpp</text>
</a>
</g>
</g>
<!-- Node10&#45;&gt;Node34 -->
<g id="edge49" class="edge"><title>Node10&#45;&gt;Node34</title>
<path fill="none" stroke="midnightblue" d="M1049.65,-226.691C1054.46,-225.768 1059.36,-224.844 1064,-224 1135.52,-211.002 1218.02,-197.35 1272.39,-188.539"/>
<polygon fill="midnightblue" stroke="midnightblue" points="1273.22,-191.949 1282.54,-186.897 1272.11,-185.039 1273.22,-191.949"/>
</g>
<!-- Node13&#45;&gt;Node12 -->
<g id="edge13" class="edge"><title>Node13&#45;&gt;Node12</title>
<path fill="none" stroke="midnightblue" d="M1119.51,-168.083C1118.32,-160.927 1116.61,-150.635 1115.12,-141.691"/>
<polygon fill="midnightblue" stroke="midnightblue" points="1118.55,-141.04 1113.46,-131.751 1111.65,-142.19 1118.55,-141.04"/>
</g>
<!-- Node14&#45;&gt;Node12 -->
<g id="edge15" class="edge"><title>Node14&#45;&gt;Node12</title>
<path fill="none" stroke="midnightblue" d="M1001.76,-168.444C1025.22,-158.772 1063.35,-143.054 1088.05,-132.872"/>
<polygon fill="midnightblue" stroke="midnightblue" points="1089.51,-136.055 1097.42,-129.008 1086.84,-129.584 1089.51,-136.055"/>
</g>
<!-- Node16 -->
<g id="node16" class="node"><title>Node16</title>
<polygon fill="none" stroke="#bfbfbf" points="327,-112.5 327,-131.5 413,-131.5 413,-112.5 327,-112.5"/>
<text text-anchor="middle" x="370" y="-119.5" font-family="Helvetica,sans-Serif" font-size="10.00">assimp/scene.h</text>
</g>
<!-- Node15&#45;&gt;Node16 -->
<g id="edge17" class="edge"><title>Node15&#45;&gt;Node16</title>
<path fill="none" stroke="midnightblue" d="M470.986,-168.444C451.412,-159.636 420.692,-145.812 398.271,-135.722"/>
<polygon fill="midnightblue" stroke="midnightblue" points="399.481,-132.428 388.925,-131.516 396.608,-138.812 399.481,-132.428"/>
</g>
<!-- Node17&#45;&gt;Node11 -->
<g id="edge19" class="edge"><title>Node17&#45;&gt;Node11</title>
<path fill="none" stroke="midnightblue" d="M737.08,-168.368C745.548,-150.456 765.182,-108.923 776.515,-84.9482"/>
<polygon fill="midnightblue" stroke="midnightblue" points="779.829,-86.128 780.939,-75.5914 773.5,-83.1363 779.829,-86.128"/>
</g>
<!-- Node18 -->
<g id="node18" class="node"><title>Node18</title>
<g id="a_node18"><a xlink:href="../../df/d67/Library_8hpp.html" target="_top" xlink:title="Library.hpp">
<polygon fill="none" stroke="black" points="1075.5,-56.5 1075.5,-75.5 1140.5,-75.5 1140.5,-56.5 1075.5,-56.5"/>
<text text-anchor="middle" x="1108" y="-63.5" font-family="Helvetica,sans-Serif" font-size="10.00">Library.hpp</text>
</a>
</g>
</g>
<!-- Node17&#45;&gt;Node18 -->
<g id="edge20" class="edge"><title>Node17&#45;&gt;Node18</title>
<path fill="none" stroke="midnightblue" d="M787.892,-168.496C847.97,-158.879 940.243,-143.116 974,-132 1014.68,-118.603 1058.82,-95.3266 1084.91,-80.5665"/>
<polygon fill="midnightblue" stroke="midnightblue" points="1086.73,-83.5576 1093.67,-75.5479 1083.25,-77.4846 1086.73,-83.5576"/>
</g>
<!-- Node21 -->
<g id="node21" class="node"><title>Node21</title>
<g id="a_node21"><a xlink:href="../../dc/ddb/ShaderProgram_8hpp.html" target="_top" xlink:title="ShaderProgram.hpp">
<polygon fill="none" stroke="red" points="431.5,-112.5 431.5,-131.5 534.5,-131.5 534.5,-112.5 431.5,-112.5"/>
<text text-anchor="middle" x="483" y="-119.5" font-family="Helvetica,sans-Serif" font-size="10.00">ShaderProgram.hpp</text>
</a>
</g>
</g>
<!-- Node17&#45;&gt;Node21 -->
<g id="edge24" class="edge"><title>Node17&#45;&gt;Node21</title>
<path fill="none" stroke="midnightblue" d="M693.387,-168.444C649.775,-159.023 579.6,-143.866 532.422,-133.675"/>
<polygon fill="midnightblue" stroke="midnightblue" points="532.941,-130.207 522.428,-131.516 531.464,-137.049 532.941,-130.207"/>
</g>
<!-- Node22 -->
<g id="node22" class="node"><title>Node22</title>
<g id="a_node22"><a xlink:href="../../d9/db7/ShaderProgramNames_8hpp.html" target="_top" xlink:title="ShaderProgramNames.hpp">
<polygon fill="none" stroke="black" points="591,-112.5 591,-131.5 725,-131.5 725,-112.5 591,-112.5"/>
<text text-anchor="middle" x="658" y="-119.5" font-family="Helvetica,sans-Serif" font-size="10.00">ShaderProgramNames.hpp</text>
</a>
</g>
</g>
<!-- Node17&#45;&gt;Node22 -->
<g id="edge27" class="edge"><title>Node17&#45;&gt;Node22</title>
<path fill="none" stroke="midnightblue" d="M720.95,-168.324C709.537,-160.107 692.169,-147.602 678.565,-137.807"/>
<polygon fill="midnightblue" stroke="midnightblue" points="680.43,-134.837 670.269,-131.834 676.34,-140.517 680.43,-134.837"/>
</g>
<!-- Node23 -->
<g id="node23" class="node"><title>Node23</title>
<g id="a_node23"><a xlink:href="../../d2/db1/ShaderLibrary_8hpp.html" target="_top" xlink:title="ShaderLibrary.hpp">
<polygon fill="none" stroke="red" points="869.5,-112.5 869.5,-131.5 964.5,-131.5 964.5,-112.5 869.5,-112.5"/>
<text text-anchor="middle" x="917" y="-119.5" font-family="Helvetica,sans-Serif" font-size="10.00">ShaderLibrary.hpp</text>
</a>
</g>
</g>
<!-- Node17&#45;&gt;Node23 -->
<g id="edge28" class="edge"><title>Node17&#45;&gt;Node23</title>
<path fill="none" stroke="midnightblue" d="M762.155,-168.444C793.513,-159.241 843.531,-144.562 878.197,-134.388"/>
<polygon fill="midnightblue" stroke="midnightblue" points="879.371,-137.691 887.981,-131.516 877.4,-130.974 879.371,-137.691"/>
</g>
<!-- Node18&#45;&gt;Node18 -->
<g id="edge23" class="edge"><title>Node18&#45;&gt;Node18</title>
<path fill="none" stroke="midnightblue" d="M1129.54,-75.5252C1144.17,-78.3079 1158.5,-75.1328 1158.5,-66 1158.5,-59.0077 1150.1,-55.5077 1139.6,-55.5"/>
<polygon fill="midnightblue" stroke="midnightblue" points="1139.15,-52.0265 1129.54,-56.4748 1139.83,-58.9938 1139.15,-52.0265"/>
</g>
<!-- Node19 -->
<g id="node19" class="node"><title>Node19</title>
<polygon fill="none" stroke="#bfbfbf" points="1017,-0.5 1017,-19.5 1061,-19.5 1061,-0.5 1017,-0.5"/>
<text text-anchor="middle" x="1039" y="-7.5" font-family="Helvetica,sans-Serif" font-size="10.00">vector</text>
</g>
<!-- Node18&#45;&gt;Node19 -->
<g id="edge21" class="edge"><title>Node18&#45;&gt;Node19</title>
<path fill="none" stroke="midnightblue" d="M1096.91,-56.324C1086.51,-48.1849 1070.74,-35.8395 1058.28,-26.0874"/>
<polygon fill="midnightblue" stroke="midnightblue" points="1060.32,-23.2407 1050.29,-19.8339 1056.01,-28.7533 1060.32,-23.2407"/>
</g>
<!-- Node20 -->
<g id="node20" class="node"><title>Node20</title>
<polygon fill="none" stroke="#bfbfbf" points="1079,-0.5 1079,-19.5 1141,-19.5 1141,-0.5 1079,-0.5"/>
<text text-anchor="middle" x="1110" y="-7.5" font-family="Helvetica,sans-Serif" font-size="10.00">Library.tpp</text>
</g>
<!-- Node18&#45;&gt;Node20 -->
<g id="edge22" class="edge"><title>Node18&#45;&gt;Node20</title>
<path fill="none" stroke="midnightblue" d="M1108.33,-56.083C1108.59,-49.0059 1108.97,-38.8611 1109.3,-29.9865"/>
<polygon fill="midnightblue" stroke="midnightblue" points="1112.8,-29.8738 1109.68,-19.7511 1105.81,-29.6147 1112.8,-29.8738"/>
</g>
<!-- Node21&#45;&gt;Node11 -->
<g id="edge26" class="edge"><title>Node21&#45;&gt;Node11</title>
<path fill="none" stroke="midnightblue" d="M530.853,-112.444C591.478,-101.603 694.594,-83.1653 748.973,-73.4419"/>
<polygon fill="midnightblue" stroke="midnightblue" points="749.627,-76.8805 758.855,-71.6749 748.395,-69.9898 749.627,-76.8805"/>
</g>
<!-- Node21&#45;&gt;Node19 -->
<g id="edge25" class="edge"><title>Node21&#45;&gt;Node19</title>
<path fill="none" stroke="midnightblue" d="M514.456,-112.428C564.186,-99.0844 664.143,-73.1035 750,-56 842.674,-37.5385 953.328,-22.1382 1006.85,-15.1042"/>
<polygon fill="midnightblue" stroke="midnightblue" points="1007.31,-18.5743 1016.77,-13.8105 1006.4,-11.633 1007.31,-18.5743"/>
</g>
<!-- Node23&#45;&gt;Node11 -->
<g id="edge29" class="edge"><title>Node23&#45;&gt;Node11</title>
<path fill="none" stroke="midnightblue" d="M896.084,-112.444C874.264,-103.517 839.85,-89.4387 815.108,-79.3168"/>
<polygon fill="midnightblue" stroke="midnightblue" points="816.399,-76.0634 805.818,-75.5164 813.748,-82.5422 816.399,-76.0634"/>
</g>
<!-- Node23&#45;&gt;Node18 -->
<g id="edge30" class="edge"><title>Node23&#45;&gt;Node18</title>
<path fill="none" stroke="midnightblue" d="M947.265,-112.444C979.955,-103.201 1032.18,-88.4356 1068.18,-78.2572"/>
<polygon fill="midnightblue" stroke="midnightblue" points="1069.21,-81.6051 1077.88,-75.5164 1067.3,-74.8691 1069.21,-81.6051"/>
</g>
<!-- Node24&#45;&gt;Node18 -->
<g id="edge33" class="edge"><title>Node24&#45;&gt;Node18</title>
<path fill="none" stroke="midnightblue" d="M912.333,-168.482C957.306,-159.513 1022.65,-144.926 1045,-132 1065.95,-119.882 1084.5,-98.8145 1095.95,-83.9545"/>
<polygon fill="midnightblue" stroke="midnightblue" points="1098.97,-85.7558 1102.12,-75.6396 1093.35,-81.5844 1098.97,-85.7558"/>
</g>
<!-- Node25 -->
<g id="node25" class="node"><title>Node25</title>
<polygon fill="none" stroke="#bfbfbf" points="907,-56.5 907,-75.5 1001,-75.5 1001,-56.5 907,-56.5"/>
<text text-anchor="middle" x="954" y="-63.5" font-family="Helvetica,sans-Serif" font-size="10.00">assimp/material.h</text>
</g>
<!-- Node24&#45;&gt;Node25 -->
<g id="edge32" class="edge"><title>Node24&#45;&gt;Node25</title>
<path fill="none" stroke="midnightblue" d="M916.674,-168.734C938.083,-162.442 961.121,-151.388 974,-132 983.661,-117.457 975.487,-98.0269 966.86,-84.2082"/>
<polygon fill="midnightblue" stroke="midnightblue" points="969.557,-81.9518 961.028,-75.6669 963.776,-85.8991 969.557,-81.9518"/>
</g>
<!-- Node26 -->
<g id="node26" class="node"><title>Node26</title>
<g id="a_node26"><a xlink:href="../../d0/d70/Material_8hpp.html" target="_top" xlink:title="Material.hpp">
<polygon fill="none" stroke="red" points="781,-112.5 781,-131.5 851,-131.5 851,-112.5 781,-112.5"/>
<text text-anchor="middle" x="816" y="-119.5" font-family="Helvetica,sans-Serif" font-size="10.00">Material.hpp</text>
</a>
</g>
</g>
<!-- Node24&#45;&gt;Node26 -->
<g id="edge34" class="edge"><title>Node24&#45;&gt;Node26</title>
<path fill="none" stroke="midnightblue" d="M858.578,-168.083C851.152,-160.22 840.148,-148.569 831.188,-139.081"/>
<polygon fill="midnightblue" stroke="midnightblue" points="833.676,-136.618 824.265,-131.751 828.587,-141.424 833.676,-136.618"/>
</g>
<!-- Node26&#45;&gt;Node11 -->
<g id="edge35" class="edge"><title>Node26&#45;&gt;Node11</title>
<path fill="none" stroke="midnightblue" d="M810.881,-112.083C806.592,-104.613 800.342,-93.7244 795.058,-84.5199"/>
<polygon fill="midnightblue" stroke="midnightblue" points="798.038,-82.6811 790.024,-75.7511 791.967,-86.1662 798.038,-82.6811"/>
</g>
<!-- Node26&#45;&gt;Node25 -->
<g id="edge36" class="edge"><title>Node26&#45;&gt;Node25</title>
<path fill="none" stroke="midnightblue" d="M837.867,-112.444C860.779,-103.478 896.975,-89.314 922.866,-79.1827"/>
<polygon fill="midnightblue" stroke="midnightblue" points="924.199,-82.4198 932.236,-75.5164 921.648,-75.9011 924.199,-82.4198"/>
</g>
<!-- Node27&#45;&gt;Node18 -->
<g id="edge39" class="edge"><title>Node27&#45;&gt;Node18</title>
<path fill="none" stroke="midnightblue" d="M1445.38,-168.149C1432.47,-153.802 1404.79,-125.693 1375,-112 1301.17,-78.063 1205.31,-69.4395 1150.83,-67.4177"/>
<polygon fill="midnightblue" stroke="midnightblue" points="1150.94,-63.9193 1140.83,-67.104 1150.72,-70.9159 1150.94,-63.9193"/>
</g>
<!-- Node28 -->
<g id="node28" class="node"><title>Node28</title>
<polygon fill="none" stroke="#bfbfbf" points="1444,-56.5 1444,-75.5 1524,-75.5 1524,-56.5 1444,-56.5"/>
<text text-anchor="middle" x="1484" y="-63.5" font-family="Helvetica,sans-Serif" font-size="10.00">assimp/anim.h</text>
</g>
<!-- Node27&#45;&gt;Node28 -->
<g id="edge38" class="edge"><title>Node27&#45;&gt;Node28</title>
<path fill="none" stroke="midnightblue" d="M1455.43,-168.368C1460.46,-150.537 1472.08,-109.295 1478.85,-85.2717"/>
<polygon fill="midnightblue" stroke="midnightblue" points="1482.23,-86.1659 1481.58,-75.5914 1475.5,-84.2671 1482.23,-86.1659"/>
</g>
<!-- Node29 -->
<g id="node29" class="node"><title>Node29</title>
<g id="a_node29"><a xlink:href="../../d0/d36/Animation_8hpp.html" target="_top" xlink:title="Animation.hpp">
<polygon fill="none" stroke="black" points="1498.5,-112.5 1498.5,-131.5 1577.5,-131.5 1577.5,-112.5 1498.5,-112.5"/>
<text text-anchor="middle" x="1538" y="-119.5" font-family="Helvetica,sans-Serif" font-size="10.00">Animation.hpp</text>
</a>
</g>
</g>
<!-- Node27&#45;&gt;Node29 -->
<g id="edge40" class="edge"><title>Node27&#45;&gt;Node29</title>
<path fill="none" stroke="midnightblue" d="M1466.66,-168.324C1479.92,-159.9 1500.27,-146.971 1515.85,-137.074"/>
<polygon fill="midnightblue" stroke="midnightblue" points="1517.81,-139.971 1524.38,-131.655 1514.06,-134.063 1517.81,-139.971"/>
</g>
<!-- Node29&#45;&gt;Node28 -->
<g id="edge41" class="edge"><title>Node29&#45;&gt;Node28</title>
<path fill="none" stroke="midnightblue" d="M1529.08,-112.083C1521.22,-104.22 1509.57,-92.5688 1500.08,-83.0813"/>
<polygon fill="midnightblue" stroke="midnightblue" points="1502.3,-80.3473 1492.75,-75.7511 1497.35,-85.2971 1502.3,-80.3473"/>
</g>
<!-- Node30 -->
<g id="node30" class="node"><title>Node30</title>
<polygon fill="none" stroke="#bfbfbf" points="1570.5,-56.5 1570.5,-75.5 1611.5,-75.5 1611.5,-56.5 1570.5,-56.5"/>
<text text-anchor="middle" x="1591" y="-63.5" font-family="Helvetica,sans-Serif" font-size="10.00">string</text>
</g>
<!-- Node29&#45;&gt;Node30 -->
<g id="edge42" class="edge"><title>Node29&#45;&gt;Node30</title>
<path fill="none" stroke="midnightblue" d="M1546.75,-112.083C1554.47,-104.22 1565.9,-92.5688 1575.22,-83.0813"/>
<polygon fill="midnightblue" stroke="midnightblue" points="1577.9,-85.3396 1582.41,-75.7511 1572.91,-80.4363 1577.9,-85.3396"/>
</g>
<!-- Node31&#45;&gt;Node18 -->
<g id="edge44" class="edge"><title>Node31&#45;&gt;Node18</title>
<path fill="none" stroke="midnightblue" d="M1222.44,-168.437C1224.2,-154.989 1225.56,-128.728 1213,-112 1198.13,-92.1972 1172.78,-81.0064 1150.72,-74.7377"/>
<polygon fill="midnightblue" stroke="midnightblue" points="1151.42,-71.3038 1140.86,-72.1906 1149.67,-78.0812 1151.42,-71.3038"/>
</g>
<!-- Node32 -->
<g id="node32" class="node"><title>Node32</title>
<g id="a_node32"><a xlink:href="../../d1/d62/Mesh_8hpp.html" target="_top" xlink:title="Mesh.hpp">
<polygon fill="none" stroke="red" points="1144.5,-112.5 1144.5,-131.5 1203.5,-131.5 1203.5,-112.5 1144.5,-112.5"/>
<text text-anchor="middle" x="1174" y="-119.5" font-family="Helvetica,sans-Serif" font-size="10.00">Mesh.hpp</text>
</a>
</g>
</g>
<!-- Node31&#45;&gt;Node32 -->
<g id="edge45" class="edge"><title>Node31&#45;&gt;Node32</title>
<path fill="none" stroke="midnightblue" d="M1213.24,-168.083C1206.46,-160.298 1196.46,-148.801 1188.24,-139.367"/>
<polygon fill="midnightblue" stroke="midnightblue" points="1190.82,-136.996 1181.62,-131.751 1185.54,-141.592 1190.82,-136.996"/>
</g>
<!-- Node32&#45;&gt;Node11 -->
<g id="edge47" class="edge"><title>Node32&#45;&gt;Node11</title>
<path fill="none" stroke="midnightblue" d="M1144.19,-113.628C1141.43,-113.039 1138.67,-112.486 1136,-112 1021.77,-91.2105 884.918,-76.5923 821.088,-70.3632"/>
<polygon fill="midnightblue" stroke="midnightblue" points="821.414,-66.8784 811.124,-69.4012 820.741,-73.846 821.414,-66.8784"/>
</g>
<!-- Node32&#45;&gt;Node19 -->
<g id="edge46" class="edge"><title>Node32&#45;&gt;Node19</title>
<path fill="none" stroke="midnightblue" d="M1147.53,-112.421C1119.84,-103.016 1078.81,-87.7052 1067,-76 1054.21,-63.3159 1046.88,-43.8384 1042.96,-29.5105"/>
<polygon fill="midnightblue" stroke="midnightblue" points="1046.35,-28.6459 1040.59,-19.7554 1039.55,-30.2991 1046.35,-28.6459"/>
</g>
<!-- Node33 -->
<g id="node33" class="node"><title>Node33</title>
<polygon fill="none" stroke="#bfbfbf" points="1271.5,-56.5 1271.5,-75.5 1354.5,-75.5 1354.5,-56.5 1271.5,-56.5"/>
<text text-anchor="middle" x="1313" y="-63.5" font-family="Helvetica,sans-Serif" font-size="10.00">assimp/mesh.h</text>
</g>
<!-- Node32&#45;&gt;Node33 -->
<g id="edge48" class="edge"><title>Node32&#45;&gt;Node33</title>
<path fill="none" stroke="midnightblue" d="M1196.02,-112.444C1219.1,-103.478 1255.56,-89.314 1281.64,-79.1827"/>
<polygon fill="midnightblue" stroke="midnightblue" points="1283.02,-82.4002 1291.08,-75.5164 1280.49,-75.8753 1283.02,-82.4002"/>
</g>
<!-- Node34&#45;&gt;Node18 -->
<g id="edge50" class="edge"><title>Node34&#45;&gt;Node18</title>
<path fill="none" stroke="midnightblue" d="M1320.38,-168.301C1302.1,-154.902 1265.17,-128.985 1231,-112 1203.8,-98.4792 1171.49,-86.8153 1146.81,-78.7524"/>
<polygon fill="midnightblue" stroke="midnightblue" points="1147.67,-75.3525 1137.08,-75.6293 1145.53,-82.0177 1147.67,-75.3525"/>
</g>
<!-- Node35 -->
<g id="node35" class="node"><title>Node35</title>
<g id="a_node35"><a xlink:href="../../d0/ddc/Texture_8hpp.html" target="_top" xlink:title="Texture.hpp">
<polygon fill="none" stroke="red" points="1298,-112.5 1298,-131.5 1366,-131.5 1366,-112.5 1298,-112.5"/>
<text text-anchor="middle" x="1332" y="-119.5" font-family="Helvetica,sans-Serif" font-size="10.00">Texture.hpp</text>
</a>
</g>
</g>
<!-- Node34&#45;&gt;Node35 -->
<g id="edge51" class="edge"><title>Node34&#45;&gt;Node35</title>
<path fill="none" stroke="midnightblue" d="M1332,-168.083C1332,-161.006 1332,-150.861 1332,-141.986"/>
<polygon fill="midnightblue" stroke="midnightblue" points="1335.5,-141.751 1332,-131.751 1328.5,-141.751 1335.5,-141.751"/>
</g>
<!-- Node36&#45;&gt;Node12 -->
<g id="edge54" class="edge"><title>Node36&#45;&gt;Node12</title>
<path fill="none" stroke="midnightblue" d="M1524.78,-169.113C1521.81,-168.722 1518.87,-168.347 1516,-168 1350.87,-148.011 1303.16,-169.253 1136.63,-131.478"/>
<polygon fill="midnightblue" stroke="midnightblue" points="1137.06,-127.986 1126.53,-129.149 1135.49,-134.807 1137.06,-127.986"/>
</g>
<!-- Node36&#45;&gt;Node30 -->
<g id="edge53" class="edge"><title>Node36&#45;&gt;Node30</title>
<path fill="none" stroke="midnightblue" d="M1579.32,-168.447C1581.67,-159.448 1585.19,-144.838 1587,-132 1589.17,-116.587 1590.17,-98.9532 1590.62,-85.9447"/>
<polygon fill="midnightblue" stroke="midnightblue" points="1594.12,-85.9678 1590.89,-75.8757 1587.12,-85.7761 1594.12,-85.9678"/>
</g>
<!-- Node36&#45;&gt;Node33 -->
<g id="edge56" class="edge"><title>Node36&#45;&gt;Node33</title>
<path fill="none" stroke="midnightblue" d="M1556.28,-168.368C1509.83,-149.01 1397.15,-102.065 1343.02,-79.5074"/>
<polygon fill="midnightblue" stroke="midnightblue" points="1344.2,-76.2069 1333.62,-75.5914 1341.5,-82.6684 1344.2,-76.2069"/>
</g>
<!-- Node37 -->
<g id="node37" class="node"><title>Node37</title>
<polygon fill="none" stroke="#bfbfbf" points="1634,-112.5 1634,-131.5 1740,-131.5 1740,-112.5 1634,-112.5"/>
<text text-anchor="middle" x="1687" y="-119.5" font-family="Helvetica,sans-Serif" font-size="10.00">assimp/Importer.hpp</text>
</g>
<!-- Node36&#45;&gt;Node37 -->
<g id="edge55" class="edge"><title>Node36&#45;&gt;Node37</title>
<path fill="none" stroke="midnightblue" d="M1594.67,-168.324C1612.39,-159.625 1639.9,-146.12 1660.29,-136.113"/>
<polygon fill="midnightblue" stroke="midnightblue" points="1661.94,-139.203 1669.37,-131.655 1658.85,-132.919 1661.94,-139.203"/>
</g>
<!-- Node39 -->
<g id="node39" class="node"><title>Node39</title>
<g id="a_node39"><a xlink:href="../../de/d71/tools_8hpp.html" target="_top" xlink:title="tools.hpp">
<polygon fill="none" stroke="black" points="204,-224.5 204,-243.5 260,-243.5 260,-224.5 204,-224.5"/>
<text text-anchor="middle" x="232" y="-231.5" font-family="Helvetica,sans-Serif" font-size="10.00">tools.hpp</text>
</a>
</g>
</g>
<!-- Node38&#45;&gt;Node39 -->
<g id="edge58" class="edge"><title>Node38&#45;&gt;Node39</title>
<path fill="none" stroke="midnightblue" d="M932.973,-285.991C926.687,-283.661 919.651,-281.396 913,-280 788.774,-253.928 395.473,-239.976 270.509,-236.12"/>
<polygon fill="midnightblue" stroke="midnightblue" points="270.381,-232.614 260.279,-235.808 270.168,-239.611 270.381,-232.614"/>
</g>
<!-- Node40 -->
<g id="node40" class="node"><title>Node40</title>
<polygon fill="none" stroke="#bfbfbf" points="0,-168.5 0,-187.5 50,-187.5 50,-168.5 0,-168.5"/>
<text text-anchor="middle" x="25" y="-175.5" font-family="Helvetica,sans-Serif" font-size="10.00">QString</text>
</g>
<!-- Node39&#45;&gt;Node40 -->
<g id="edge59" class="edge"><title>Node39&#45;&gt;Node40</title>
<path fill="none" stroke="midnightblue" d="M203.652,-225.605C166.19,-215.832 100.228,-198.625 59.7903,-188.076"/>
<polygon fill="midnightblue" stroke="midnightblue" points="60.6519,-184.683 50.0922,-185.546 58.8849,-191.457 60.6519,-184.683"/>
</g>
<!-- Node41 -->
<g id="node41" class="node"><title>Node41</title>
<polygon fill="none" stroke="#bfbfbf" points="68.5,-168.5 68.5,-187.5 133.5,-187.5 133.5,-168.5 68.5,-168.5"/>
<text text-anchor="middle" x="101" y="-175.5" font-family="Helvetica,sans-Serif" font-size="10.00">QVector3D</text>
</g>
<!-- Node39&#45;&gt;Node41 -->
<g id="edge60" class="edge"><title>Node39&#45;&gt;Node41</title>
<path fill="none" stroke="midnightblue" d="M211.243,-224.444C189.684,-215.557 155.737,-201.563 131.206,-191.451"/>
<polygon fill="midnightblue" stroke="midnightblue" points="132.239,-188.092 121.66,-187.516 129.572,-194.563 132.239,-188.092"/>
</g>
<!-- Node42 -->
<g id="node42" class="node"><title>Node42</title>
<polygon fill="none" stroke="#bfbfbf" points="152,-168.5 152,-187.5 192,-187.5 192,-168.5 152,-168.5"/>
<text text-anchor="middle" x="172" y="-175.5" font-family="Helvetica,sans-Serif" font-size="10.00">QList</text>
</g>
<!-- Node39&#45;&gt;Node42 -->
<g id="edge61" class="edge"><title>Node39&#45;&gt;Node42</title>
<path fill="none" stroke="midnightblue" d="M222.36,-224.324C213.49,-216.341 200.125,-204.313 189.392,-194.653"/>
<polygon fill="midnightblue" stroke="midnightblue" points="191.59,-191.922 181.815,-187.834 186.907,-197.125 191.59,-191.922"/>
</g>
<!-- Node43 -->
<g id="node43" class="node"><title>Node43</title>
<polygon fill="none" stroke="#bfbfbf" points="210.5,-168.5 210.5,-187.5 253.5,-187.5 253.5,-168.5 210.5,-168.5"/>
<text text-anchor="middle" x="232" y="-175.5" font-family="Helvetica,sans-Serif" font-size="10.00">QMap</text>
</g>
<!-- Node39&#45;&gt;Node43 -->
<g id="edge62" class="edge"><title>Node39&#45;&gt;Node43</title>
<path fill="none" stroke="midnightblue" d="M232,-224.083C232,-217.006 232,-206.861 232,-197.986"/>
<polygon fill="midnightblue" stroke="midnightblue" points="235.5,-197.751 232,-187.751 228.5,-197.751 235.5,-197.751"/>
</g>
<!-- Node44 -->
<g id="node44" class="node"><title>Node44</title>
<polygon fill="none" stroke="#bfbfbf" points="271.5,-168.5 271.5,-187.5 362.5,-187.5 362.5,-168.5 271.5,-168.5"/>
<text text-anchor="middle" x="317" y="-175.5" font-family="Helvetica,sans-Serif" font-size="10.00">QGraphicsScene</text>
</g>
<!-- Node39&#45;&gt;Node44 -->
<g id="edge63" class="edge"><title>Node39&#45;&gt;Node44</title>
<path fill="none" stroke="midnightblue" d="M245.657,-224.324C258.916,-215.9 279.268,-202.971 294.846,-193.074"/>
<polygon fill="midnightblue" stroke="midnightblue" points="296.813,-195.971 303.377,-187.655 293.06,-190.063 296.813,-195.971"/>
</g>
<!-- Node45 -->
<g id="node45" class="node"><title>Node45</title>
<polygon fill="none" stroke="#bfbfbf" points="380.5,-168.5 380.5,-187.5 427.5,-187.5 427.5,-168.5 380.5,-168.5"/>
<text text-anchor="middle" x="404" y="-175.5" font-family="Helvetica,sans-Serif" font-size="10.00">math.h</text>
</g>
<!-- Node39&#45;&gt;Node45 -->
<g id="edge64" class="edge"><title>Node39&#45;&gt;Node45</title>
<path fill="none" stroke="midnightblue" d="M259.254,-224.444C289.427,-214.971 338.079,-199.696 370.54,-189.505"/>
<polygon fill="midnightblue" stroke="midnightblue" points="371.974,-192.723 380.467,-186.388 369.877,-186.045 371.974,-192.723"/>
</g>
</g>
</svg>
        <g id="navigator" transform="translate(0 0)" fill="#404254">
                <rect fill="#f2f5e9" fill-opacity="0.5" stroke="#606060" stroke-width=".5" x="0" y="0" width="60" height="60"/>
                <use id="zoomplus" xlink:href="#zoomPlus" x="17" y="9" onmousedown="handleZoom(evt,'in')"/>
                <use id="zoomminus" xlink:href="#zoomMin" x="42" y="9" onmousedown="handleZoom(evt,'out')"/>
                <use id="reset" xlink:href="#resetDef" x="30" y="36" onmousedown="handleReset()"/>
                <g id="arrowUp" xlink:href="#dirArrow" transform="translate(30 24)" onmousedown="handlePan(0,-1)">
                  <use xlink:href="#rim" fill="#404040">
                        <set attributeName="fill" to="#808080" begin="arrowUp.mouseover" end="arrowUp.mouseout"/>
                  </use>
                  <path fill="none" stroke="white" stroke-width="1.5" d="M0,-3.0v7 M-2.5,-0.5L0,-3.0L2.5,-0.5"/>
                </g>
                <g id="arrowRight" xlink:href="#dirArrow" transform="rotate(90) translate(36 -43)" onmousedown="handlePan(1,0)">
                  <use xlink:href="#rim" fill="#404040">
                        <set attributeName="fill" to="#808080" begin="arrowRight.mouseover" end="arrowRight.mouseout"/>
                  </use>
                  <path fill="none" stroke="white" stroke-width="1.5" d="M0,-3.0v7 M-2.5,-0.5L0,-3.0L2.5,-0.5"/>
                </g>
                <g id="arrowDown" xlink:href="#dirArrow" transform="rotate(180) translate(-30 -48)" onmousedown="handlePan(0,1)">
                  <use xlink:href="#rim" fill="#404040">
                        <set attributeName="fill" to="#808080" begin="arrowDown.mouseover" end="arrowDown.mouseout"/>
                  </use>
                  <path fill="none" stroke="white" stroke-width="1.5" d="M0,-3.0v7 M-2.5,-0.5L0,-3.0L2.5,-0.5"/>
                </g>
                <g id="arrowLeft" xlink:href="#dirArrow" transform="rotate(270) translate(-36 17)" onmousedown="handlePan(-1,0)">
                  <use xlink:href="#rim" fill="#404040">
                        <set attributeName="fill" to="#808080" begin="arrowLeft.mouseover" end="arrowLeft.mouseout"/>
                  </use>
                  <path fill="none" stroke="white" stroke-width="1.5" d="M0,-3.0v7 M-2.5,-0.5L0,-3.0L2.5,-0.5"/>
                </g>
        </g>
        <svg viewBox="0 0 15 15" width="100%" height="30px" preserveAspectRatio="xMaxYMin meet">
         <g id="arrow_out" transform="scale(0.3 0.3)">
          <a xlink:href="glwindow_8cpp__incl_org.svg" target="_base">
           <rect id="button" ry="5" rx="5" y="6" x="6" height="38" width="38"
                fill="#f2f5e9" fill-opacity="0.5" stroke="#606060" stroke-width="1.0"/>
           <path id="arrow"
             d="M 11.500037,31.436501 C 11.940474,20.09759 22.043105,11.32322 32.158766,21.979434 L 37.068811,17.246167 C 37.068811,17.246167 37.088388,32 37.088388,32 L 22.160133,31.978069 C 22.160133,31.978069 26.997745,27.140456 26.997745,27.140456 C 18.528582,18.264221 13.291696,25.230495 11.500037,31.436501 z"
             style="fill:#404040;"/>
          </a>
         </g>
        </svg>
</svg>
