<?xml version="1.0" encoding="UTF-8" standalone="no"?>
<!DOCTYPE svg PUBLIC "-//W3C//DTD SVG 1.1//EN"
 "http://www.w3.org/Graphics/SVG/1.1/DTD/svg11.dtd">
<!-- Generated by graphviz version 2.38.0 (20140413.2041)
 -->
<!-- Title: Core/Object.cpp Pages: 1 -->
<svg width="393pt" height="84pt"
 viewBox="0.00 0.00 392.50 84.00" xmlns="http://www.w3.org/2000/svg" xmlns:xlink="http://www.w3.org/1999/xlink">
<g id="graph0" class="graph" transform="scale(1 1) rotate(0) translate(4 80)">
<title>Core/Object.cpp</title>
<!-- Node1 -->
<g id="node1" class="node"><title>Node1</title>
<polygon fill="#bfbfbf" stroke="black" points="141.5,-56.5 141.5,-75.5 229.5,-75.5 229.5,-56.5 141.5,-56.5"/>
<text text-anchor="middle" x="185.5" y="-63.5" font-family="Helvetica,sans-Serif" font-size="10.00">Core/Object.cpp</text>
</g>
<!-- Node2 -->
<g id="node2" class="node"><title>Node2</title>
<polygon fill="none" stroke="#bfbfbf" points="0,-0.5 0,-19.5 107,-19.5 107,-0.5 0,-0.5"/>
<text text-anchor="middle" x="53.5" y="-7.5" font-family="Helvetica,sans-Serif" font-size="10.00">log4cpp/Category.hh</text>
</g>
<!-- Node1&#45;&gt;Node2 -->
<g id="edge1" class="edge"><title>Node1&#45;&gt;Node2</title>
<path fill="none" stroke="midnightblue" d="M164.584,-56.4435C142.764,-47.5171 108.35,-33.4387 83.6078,-23.3168"/>
<polygon fill="midnightblue" stroke="midnightblue" points="84.8987,-20.0634 74.3179,-19.5164 82.2482,-26.5422 84.8987,-20.0634"/>
</g>
<!-- Node3 -->
<g id="node3" class="node"><title>Node3</title>
<polygon fill="none" stroke="#bfbfbf" points="125,-0.5 125,-19.5 246,-19.5 246,-0.5 125,-0.5"/>
<text text-anchor="middle" x="185.5" y="-7.5" font-family="Helvetica,sans-Serif" font-size="10.00">Engine/Core/Object.hpp</text>
</g>
<!-- Node1&#45;&gt;Node3 -->
<g id="edge2" class="edge"><title>Node1&#45;&gt;Node3</title>
<path fill="none" stroke="midnightblue" d="M185.5,-56.083C185.5,-49.0059 185.5,-38.8611 185.5,-29.9865"/>
<polygon fill="midnightblue" stroke="midnightblue" points="189,-29.751 185.5,-19.7511 182,-29.7511 189,-29.751"/>
</g>
<!-- Node4 -->
<g id="node4" class="node"><title>Node4</title>
<polygon fill="none" stroke="#bfbfbf" points="264.5,-0.5 264.5,-19.5 384.5,-19.5 384.5,-0.5 264.5,-0.5"/>
<text text-anchor="middle" x="324.5" y="-7.5" font-family="Helvetica,sans-Serif" font-size="10.00">Engine/Core/Scene.hpp</text>
</g>
<!-- Node1&#45;&gt;Node4 -->
<g id="edge3" class="edge"><title>Node1&#45;&gt;Node4</title>
<path fill="none" stroke="midnightblue" d="M207.525,-56.4435C230.604,-47.4776 267.062,-33.314 293.141,-23.1827"/>
<polygon fill="midnightblue" stroke="midnightblue" points="294.524,-26.4002 302.578,-19.5164 291.989,-19.8753 294.524,-26.4002"/>
</g>
</g>
</svg>
