<?xml version="1.0" encoding="UTF-8" standalone="no"?>
<!DOCTYPE svg PUBLIC "-//W3C//DTD SVG 1.1//EN"
 "http://www.w3.org/Graphics/SVG/1.1/DTD/svg11.dtd">
<!-- Generated by graphviz version 2.38.0 (20140413.2041)
 -->
<!-- Title: engine/Object/Object.cpp Pages: 1 -->
<!--zoomable 308 -->
<svg id="main" version="1.1" xmlns="http://www.w3.org/2000/svg" xmlns:xlink="http://www.w3.org/1999/xlink" xml:space="preserve" onload="init(evt)">
<style type="text/css"><![CDATA[
.edge:hover path { stroke: red; }
.edge:hover polygon { stroke: red; fill: red; }
]]></style>
<script type="text/javascript"><![CDATA[
var edges = document.getElementsByTagName('g');
if (edges && edges.length) {
  for (var i=0;i<edges.length;i++) {
    if (edges[i].id.substr(0,4)=='edge') {
      edges[i].setAttribute('class','edge');
    }
  }
}
]]></script>
        <defs>
                <circle id="rim" cx="0" cy="0" r="7"/>
                <circle id="rim2" cx="0" cy="0" r="3.5"/>
                <g id="zoomPlus">
                        <use xlink:href="#rim" fill="#404040">
                                <set attributeName="fill" to="#808080" begin="zoomplus.mouseover" end="zoomplus.mouseout"/>
                        </use>
                        <path d="M-4,0h8M0,-4v8" fill="none" stroke="white" stroke-width="1.5" pointer-events="none"/>
                </g>
                <g id="zoomMin">
                        <use xlink:href="#rim" fill="#404040">
                                <set attributeName="fill" to="#808080" begin="zoomminus.mouseover" end="zoomminus.mouseout"/>
                        </use>
                        <path d="M-4,0h8" fill="none" stroke="white" stroke-width="1.5" pointer-events="none"/>
                </g>
                <g id="dirArrow">
                        <path fill="none" stroke="white" stroke-width="1.5" d="M0,-3.0v7 M-2.5,-0.5L0,-3.0L2.5,-0.5"/>
                </g>
               <g id="resetDef">
                       <use xlink:href="#rim2" fill="#404040">
                               <set attributeName="fill" to="#808080" begin="reset.mouseover" end="reset.mouseout"/>
                       </use>
               </g>
        </defs>

<script type="text/javascript">
var viewWidth = 1534;
var viewHeight = 308;
var sectionId = 'dynsection-0';
</script>
<script xlink:href="../../svgpan.js"/>
<svg id="graph" class="graph">
<g id="viewport">
<title>engine/Object/Object.cpp</title>
<!-- Node1 -->
<g id="node1" class="node"><title>Node1</title>
<polygon fill="#bfbfbf" stroke="black" points="192,-280.5 192,-299.5 319,-299.5 319,-280.5 192,-280.5"/>
<text text-anchor="middle" x="255.5" y="-287.5" font-family="Helvetica,sans-Serif" font-size="10.00">engine/Object/Object.cpp</text>
</g>
<!-- Node2 -->
<g id="node2" class="node"><title>Node2</title>
<polygon fill="none" stroke="#bfbfbf" points="120,-224.5 120,-243.5 227,-243.5 227,-224.5 120,-224.5"/>
<text text-anchor="middle" x="173.5" y="-231.5" font-family="Helvetica,sans-Serif" font-size="10.00">log4cpp/Category.hh</text>
</g>
<!-- Node1&#45;&gt;Node2 -->
<g id="edge1" class="edge"><title>Node1&#45;&gt;Node2</title>
<path fill="none" stroke="midnightblue" d="M242.325,-280.324C229.653,-271.979 210.267,-259.212 195.294,-249.352"/>
<polygon fill="midnightblue" stroke="midnightblue" points="196.919,-246.231 186.642,-243.655 193.069,-252.078 196.919,-246.231"/>
</g>
<!-- Node3 -->
<g id="node3" class="node"><title>Node3</title>
<g id="a_node3"><a xlink:href="../../d7/d3f/Object_8hpp.html" target="_top" xlink:title="Object.hpp">
<polygon fill="none" stroke="black" points="48.5,-168.5 48.5,-187.5 112.5,-187.5 112.5,-168.5 48.5,-168.5"/>
<text text-anchor="middle" x="80.5" y="-175.5" font-family="Helvetica,sans-Serif" font-size="10.00">Object.hpp</text>
</a>
</g>
</g>
<!-- Node1&#45;&gt;Node3 -->
<g id="edge2" class="edge"><title>Node1&#45;&gt;Node3</title>
<path fill="none" stroke="midnightblue" d="M255.318,-280.084C254.542,-266.151 250.984,-239.239 235.5,-224 227.296,-215.925 165.759,-199.675 122.738,-189.073"/>
<polygon fill="midnightblue" stroke="midnightblue" points="123.33,-185.614 112.785,-186.639 121.667,-192.414 123.33,-185.614"/>
</g>
<!-- Node8 -->
<g id="node8" class="node"><title>Node8</title>
<g id="a_node8"><a xlink:href="../../db/de8/Scene_8hpp.html" target="_top" xlink:title="Scene.hpp">
<polygon fill="none" stroke="black" points="459,-224.5 459,-243.5 522,-243.5 522,-224.5 459,-224.5"/>
<text text-anchor="middle" x="490.5" y="-231.5" font-family="Helvetica,sans-Serif" font-size="10.00">Scene.hpp</text>
</a>
</g>
</g>
<!-- Node1&#45;&gt;Node8 -->
<g id="edge7" class="edge"><title>Node1&#45;&gt;Node8</title>
<path fill="none" stroke="midnightblue" d="M292.736,-280.444C335.241,-270.677 404.586,-254.742 448.851,-244.571"/>
<polygon fill="midnightblue" stroke="midnightblue" points="449.751,-247.955 458.713,-242.304 448.183,-241.133 449.751,-247.955"/>
</g>
<!-- Node4 -->
<g id="node4" class="node"><title>Node4</title>
<polygon fill="none" stroke="#bfbfbf" points="184,-112.5 184,-131.5 213,-131.5 213,-112.5 184,-112.5"/>
<text text-anchor="middle" x="198.5" y="-119.5" font-family="Helvetica,sans-Serif" font-size="10.00">list</text>
</g>
<!-- Node3&#45;&gt;Node4 -->
<g id="edge3" class="edge"><title>Node3&#45;&gt;Node4</title>
<path fill="none" stroke="midnightblue" d="M99.1975,-168.444C119.69,-159.066 152.608,-144.002 174.872,-133.813"/>
<polygon fill="midnightblue" stroke="midnightblue" points="176.345,-136.988 183.982,-129.644 173.432,-130.623 176.345,-136.988"/>
</g>
<!-- Node5 -->
<g id="node5" class="node"><title>Node5</title>
<polygon fill="none" stroke="#bfbfbf" points="79.5,-112.5 79.5,-131.5 165.5,-131.5 165.5,-112.5 79.5,-112.5"/>
<text text-anchor="middle" x="122.5" y="-119.5" font-family="Helvetica,sans-Serif" font-size="10.00">assimp/scene.h</text>
</g>
<!-- Node3&#45;&gt;Node5 -->
<g id="edge4" class="edge"><title>Node3&#45;&gt;Node5</title>
<path fill="none" stroke="midnightblue" d="M87.4354,-168.083C93.4292,-160.377 102.252,-149.033 109.548,-139.653"/>
<polygon fill="midnightblue" stroke="midnightblue" points="112.317,-141.793 115.694,-131.751 106.791,-137.496 112.317,-141.793"/>
</g>
<!-- Node6 -->
<g id="node6" class="node"><title>Node6</title>
<g id="a_node6"><a xlink:href="../../de/da6/Entity_8hpp.html" target="_top" xlink:title="Entity.hpp">
<polygon fill="none" stroke="black" points="0,-112.5 0,-131.5 61,-131.5 61,-112.5 0,-112.5"/>
<text text-anchor="middle" x="30.5" y="-119.5" font-family="Helvetica,sans-Serif" font-size="10.00">Entity.hpp</text>
</a>
</g>
</g>
<!-- Node3&#45;&gt;Node6 -->
<g id="edge5" class="edge"><title>Node3&#45;&gt;Node6</title>
<path fill="none" stroke="midnightblue" d="M72.2435,-168.083C65.0353,-160.298 54.3902,-148.801 45.6542,-139.367"/>
<polygon fill="midnightblue" stroke="midnightblue" points="47.9651,-136.711 38.6028,-131.751 42.8288,-141.467 47.9651,-136.711"/>
</g>
<!-- Node7 -->
<g id="node7" class="node"><title>Node7</title>
<polygon fill="none" stroke="#bfbfbf" points="207,-0.5 207,-19.5 248,-19.5 248,-0.5 207,-0.5"/>
<text text-anchor="middle" x="227.5" y="-7.5" font-family="Helvetica,sans-Serif" font-size="10.00">string</text>
</g>
<!-- Node6&#45;&gt;Node7 -->
<g id="edge6" class="edge"><title>Node6&#45;&gt;Node7</title>
<path fill="none" stroke="midnightblue" d="M45.9583,-112.368C80.1232,-93.2916 162.271,-47.4223 203.313,-24.5054"/>
<polygon fill="midnightblue" stroke="midnightblue" points="205.089,-27.5226 212.114,-19.5914 201.676,-21.4108 205.089,-27.5226"/>
</g>
<!-- Node8&#45;&gt;Node4 -->
<g id="edge9" class="edge"><title>Node8&#45;&gt;Node4</title>
<path fill="none" stroke="midnightblue" d="M466.822,-224.403C443.744,-215.83 407.803,-201.961 377.5,-188 360.166,-180.014 357.141,-175.282 339.5,-168 291.961,-148.376 275.763,-149.375 222.755,-131.89"/>
<polygon fill="midnightblue" stroke="midnightblue" points="223.767,-128.537 213.173,-128.662 221.532,-135.171 223.767,-128.537"/>
</g>
<!-- Node9 -->
<g id="node9" class="node"><title>Node9</title>
<polygon fill="none" stroke="#bfbfbf" points="825.5,-56.5 825.5,-75.5 877.5,-75.5 877.5,-56.5 825.5,-56.5"/>
<text text-anchor="middle" x="851.5" y="-63.5" font-family="Helvetica,sans-Serif" font-size="10.00">memory</text>
</g>
<!-- Node8&#45;&gt;Node9 -->
<g id="edge8" class="edge"><title>Node8&#45;&gt;Node9</title>
<path fill="none" stroke="midnightblue" d="M522.231,-230.576C611.514,-222.993 861.213,-196.281 904.5,-132 916.984,-113.462 895.444,-93.7869 876.193,-81.0025"/>
<polygon fill="midnightblue" stroke="midnightblue" points="877.971,-77.9866 867.639,-75.6423 874.254,-83.9182 877.971,-77.9866"/>
</g>
<!-- Node10 -->
<g id="node10" class="node"><title>Node10</title>
<g id="a_node10"><a xlink:href="../../dd/db8/Renderer_8hpp.html" target="_top" xlink:title="Renderer.hpp">
<polygon fill="none" stroke="black" points="387,-168.5 387,-187.5 462,-187.5 462,-168.5 387,-168.5"/>
<text text-anchor="middle" x="424.5" y="-175.5" font-family="Helvetica,sans-Serif" font-size="10.00">Renderer.hpp</text>
</a>
</g>
</g>
<!-- Node8&#45;&gt;Node10 -->
<g id="edge10" class="edge"><title>Node8&#45;&gt;Node10</title>
<path fill="none" stroke="midnightblue" d="M479.896,-224.324C470.044,-216.263 455.149,-204.077 443.285,-194.369"/>
<polygon fill="midnightblue" stroke="midnightblue" points="445.253,-191.457 435.297,-187.834 440.82,-196.875 445.253,-191.457"/>
</g>
<!-- Node11 -->
<g id="node11" class="node"><title>Node11</title>
<g id="a_node11"><a xlink:href="../../de/dbe/SpatialGraph_8hpp.html" target="_top" xlink:title="SpatialGraph.hpp">
<polygon fill="none" stroke="black" points="238.5,-168.5 238.5,-187.5 330.5,-187.5 330.5,-168.5 238.5,-168.5"/>
<text text-anchor="middle" x="284.5" y="-175.5" font-family="Helvetica,sans-Serif" font-size="10.00">SpatialGraph.hpp</text>
</a>
</g>
</g>
<!-- Node8&#45;&gt;Node11 -->
<g id="edge12" class="edge"><title>Node8&#45;&gt;Node11</title>
<path fill="none" stroke="midnightblue" d="M458.764,-224.681C423.36,-215.4 365.924,-200.344 326.743,-190.073"/>
<polygon fill="midnightblue" stroke="midnightblue" points="327.513,-186.657 316.952,-187.507 325.738,-193.428 327.513,-186.657"/>
</g>
<!-- Node12 -->
<g id="node12" class="node"><title>Node12</title>
<g id="a_node12"><a xlink:href="../../d8/d58/SceneGraph_8hpp.html" target="_top" xlink:title="SceneGraph.hpp">
<polygon fill="none" stroke="black" points="131,-168.5 131,-187.5 220,-187.5 220,-168.5 131,-168.5"/>
<text text-anchor="middle" x="175.5" y="-175.5" font-family="Helvetica,sans-Serif" font-size="10.00">SceneGraph.hpp</text>
</a>
</g>
</g>
<!-- Node8&#45;&gt;Node12 -->
<g id="edge14" class="edge"><title>Node8&#45;&gt;Node12</title>
<path fill="none" stroke="midnightblue" d="M458.854,-227.575C405.393,-218.41 296.57,-199.755 230.437,-188.418"/>
<polygon fill="midnightblue" stroke="midnightblue" points="230.652,-184.904 220.204,-186.664 229.469,-191.803 230.652,-184.904"/>
</g>
<!-- Node13 -->
<g id="node13" class="node"><title>Node13</title>
<g id="a_node13"><a xlink:href="../../d1/d93/ShaderProgramLibrary_8hpp.html" target="_top" xlink:title="ShaderProgramLibrary.hpp">
<polygon fill="none" stroke="black" points="518.5,-168.5 518.5,-187.5 650.5,-187.5 650.5,-168.5 518.5,-168.5"/>
<text text-anchor="middle" x="584.5" y="-175.5" font-family="Helvetica,sans-Serif" font-size="10.00">ShaderProgramLibrary.hpp</text>
</a>
</g>
</g>
<!-- Node8&#45;&gt;Node13 -->
<g id="edge16" class="edge"><title>Node8&#45;&gt;Node13</title>
<path fill="none" stroke="midnightblue" d="M505.603,-224.324C520.403,-215.822 543.194,-202.729 560.482,-192.797"/>
<polygon fill="midnightblue" stroke="midnightblue" points="562.507,-195.671 569.435,-187.655 559.02,-189.601 562.507,-195.671"/>
</g>
<!-- Node23 -->
<g id="node23" class="node"><title>Node23</title>
<g id="a_node23"><a xlink:href="../../d2/d26/MaterialLibrary_8hpp.html" target="_top" xlink:title="MaterialLibrary.hpp">
<polygon fill="none" stroke="black" points="1210,-168.5 1210,-187.5 1309,-187.5 1309,-168.5 1210,-168.5"/>
<text text-anchor="middle" x="1259.5" y="-175.5" font-family="Helvetica,sans-Serif" font-size="10.00">MaterialLibrary.hpp</text>
</a>
</g>
</g>
<!-- Node8&#45;&gt;Node23 -->
<g id="edge34" class="edge"><title>Node8&#45;&gt;Node23</title>
<path fill="none" stroke="midnightblue" d="M522.079,-230.782C638.601,-222.6 1045.61,-194.02 1199.73,-183.197"/>
<polygon fill="midnightblue" stroke="midnightblue" points="1200.22,-186.671 1209.95,-182.479 1199.73,-179.689 1200.22,-186.671"/>
</g>
<!-- Node26 -->
<g id="node26" class="node"><title>Node26</title>
<g id="a_node26"><a xlink:href="../../d1/da3/AnimationLibrary_8hpp.html" target="_top" xlink:title="AnimationLibrary.hpp">
<polygon fill="none" stroke="black" points="231.5,-112.5 231.5,-131.5 339.5,-131.5 339.5,-112.5 231.5,-112.5"/>
<text text-anchor="middle" x="285.5" y="-119.5" font-family="Helvetica,sans-Serif" font-size="10.00">AnimationLibrary.hpp</text>
</a>
</g>
</g>
<!-- Node8&#45;&gt;Node26 -->
<g id="edge41" class="edge"><title>Node8&#45;&gt;Node26</title>
<path fill="none" stroke="midnightblue" d="M490.418,-224.455C489.8,-210.547 486.487,-183.057 470.5,-168 460.913,-158.97 391.561,-143.743 340.574,-133.534"/>
<polygon fill="midnightblue" stroke="midnightblue" points="341.134,-130.077 330.644,-131.562 339.771,-136.943 341.134,-130.077"/>
</g>
<!-- Node29 -->
<g id="node29" class="node"><title>Node29</title>
<g id="a_node29"><a xlink:href="../../dd/de2/MeshLibrary_8hpp.html" target="_top" xlink:title="MeshLibrary.hpp">
<polygon fill="none" stroke="black" points="669,-168.5 669,-187.5 758,-187.5 758,-168.5 669,-168.5"/>
<text text-anchor="middle" x="713.5" y="-175.5" font-family="Helvetica,sans-Serif" font-size="10.00">MeshLibrary.hpp</text>
</a>
</g>
</g>
<!-- Node8&#45;&gt;Node29 -->
<g id="edge47" class="edge"><title>Node8&#45;&gt;Node29</title>
<path fill="none" stroke="midnightblue" d="M522.45,-225.263C560.693,-216.003 624.986,-200.434 668.307,-189.944"/>
<polygon fill="midnightblue" stroke="midnightblue" points="669.402,-193.28 678.298,-187.524 667.755,-186.476 669.402,-193.28"/>
</g>
<!-- Node34 -->
<g id="node34" class="node"><title>Node34</title>
<g id="a_node34"><a xlink:href="../../dc/d23/TextureLibrary_8hpp.html" target="_top" xlink:title="TextureLibrary.hpp">
<polygon fill="none" stroke="black" points="973.5,-168.5 973.5,-187.5 1071.5,-187.5 1071.5,-168.5 973.5,-168.5"/>
<text text-anchor="middle" x="1022.5" y="-175.5" font-family="Helvetica,sans-Serif" font-size="10.00">TextureLibrary.hpp</text>
</a>
</g>
</g>
<!-- Node8&#45;&gt;Node34 -->
<g id="edge58" class="edge"><title>Node8&#45;&gt;Node34</title>
<path fill="none" stroke="midnightblue" d="M522.119,-230.474C597.788,-224.319 795.23,-207.604 959.5,-188 960.765,-187.849 962.044,-187.693 963.333,-187.534"/>
<polygon fill="midnightblue" stroke="midnightblue" points="963.876,-190.993 973.348,-186.246 962.983,-184.05 963.876,-190.993"/>
</g>
<!-- Node10&#45;&gt;Node4 -->
<g id="edge11" class="edge"><title>Node10&#45;&gt;Node4</title>
<path fill="none" stroke="midnightblue" d="M386.869,-170.248C347.992,-162.914 285.463,-150.12 222.766,-131.727"/>
<polygon fill="midnightblue" stroke="midnightblue" points="223.696,-128.352 213.113,-128.85 221.697,-135.06 223.696,-128.352"/>
</g>
<!-- Node11&#45;&gt;Node4 -->
<g id="edge13" class="edge"><title>Node11&#45;&gt;Node4</title>
<path fill="none" stroke="midnightblue" d="M270.683,-168.324C257.267,-159.9 236.676,-146.971 220.914,-137.074"/>
<polygon fill="midnightblue" stroke="midnightblue" points="222.613,-134.008 212.283,-131.655 218.891,-139.936 222.613,-134.008"/>
</g>
<!-- Node12&#45;&gt;Node5 -->
<g id="edge15" class="edge"><title>Node12&#45;&gt;Node5</title>
<path fill="none" stroke="midnightblue" d="M166.748,-168.083C159.03,-160.22 147.595,-148.569 138.283,-139.081"/>
<polygon fill="midnightblue" stroke="midnightblue" points="140.592,-136.436 131.089,-131.751 135.596,-141.34 140.592,-136.436"/>
</g>
<!-- Node13&#45;&gt;Node9 -->
<g id="edge17" class="edge"><title>Node13&#45;&gt;Node9</title>
<path fill="none" stroke="midnightblue" d="M649.405,-168.462C737.527,-156.719 884.601,-136.519 888.5,-132 901.527,-116.903 885.612,-96.5296 870.789,-82.642"/>
<polygon fill="midnightblue" stroke="midnightblue" points="872.679,-79.643 862.858,-75.6686 868.057,-84.9001 872.679,-79.643"/>
</g>
<!-- Node14 -->
<g id="node14" class="node"><title>Node14</title>
<g id="a_node14"><a xlink:href="../../df/d67/Library_8hpp.html" target="_top" xlink:title="Library.hpp">
<polygon fill="none" stroke="black" points="564,-56.5 564,-75.5 629,-75.5 629,-56.5 564,-56.5"/>
<text text-anchor="middle" x="596.5" y="-63.5" font-family="Helvetica,sans-Serif" font-size="10.00">Library.hpp</text>
</a>
</g>
</g>
<!-- Node13&#45;&gt;Node14 -->
<g id="edge18" class="edge"><title>Node13&#45;&gt;Node14</title>
<path fill="none" stroke="midnightblue" d="M592.714,-168.182C600.044,-159.663 610.255,-146.019 614.5,-132 619.313,-116.104 613.266,-97.8677 606.917,-84.7652"/>
<polygon fill="midnightblue" stroke="midnightblue" points="609.968,-83.0493 602.177,-75.8699 603.791,-86.3411 609.968,-83.0493"/>
</g>
<!-- Node17 -->
<g id="node17" class="node"><title>Node17</title>
<g id="a_node17"><a xlink:href="../../dc/ddb/ShaderProgram_8hpp.html" target="_top" xlink:title="ShaderProgram.hpp">
<polygon fill="none" stroke="black" points="776,-112.5 776,-131.5 879,-131.5 879,-112.5 776,-112.5"/>
<text text-anchor="middle" x="827.5" y="-119.5" font-family="Helvetica,sans-Serif" font-size="10.00">ShaderProgram.hpp</text>
</a>
</g>
</g>
<!-- Node13&#45;&gt;Node17 -->
<g id="edge22" class="edge"><title>Node13&#45;&gt;Node17</title>
<path fill="none" stroke="midnightblue" d="M623.004,-168.444C665.306,-159.043 733.319,-143.929 779.173,-133.739"/>
<polygon fill="midnightblue" stroke="midnightblue" points="780.173,-137.102 789.176,-131.516 778.655,-130.269 780.173,-137.102"/>
</g>
<!-- Node20 -->
<g id="node20" class="node"><title>Node20</title>
<g id="a_node20"><a xlink:href="../../d9/db7/ShaderProgramNames_8hpp.html" target="_top" xlink:title="ShaderProgramNames.hpp">
<polygon fill="none" stroke="black" points="471.5,-112.5 471.5,-131.5 605.5,-131.5 605.5,-112.5 471.5,-112.5"/>
<text text-anchor="middle" x="538.5" y="-119.5" font-family="Helvetica,sans-Serif" font-size="10.00">ShaderProgramNames.hpp</text>
</a>
</g>
</g>
<!-- Node13&#45;&gt;Node20 -->
<g id="edge28" class="edge"><title>Node13&#45;&gt;Node20</title>
<path fill="none" stroke="midnightblue" d="M576.904,-168.083C570.273,-160.298 560.479,-148.801 552.442,-139.367"/>
<polygon fill="midnightblue" stroke="midnightblue" points="555.104,-137.094 545.955,-131.751 549.775,-141.633 555.104,-137.094"/>
</g>
<!-- Node21 -->
<g id="node21" class="node"><title>Node21</title>
<g id="a_node21"><a xlink:href="../../d2/db1/ShaderLibrary_8hpp.html" target="_top" xlink:title="ShaderLibrary.hpp">
<polygon fill="none" stroke="black" points="358,-112.5 358,-131.5 453,-131.5 453,-112.5 358,-112.5"/>
<text text-anchor="middle" x="405.5" y="-119.5" font-family="Helvetica,sans-Serif" font-size="10.00">ShaderLibrary.hpp</text>
</a>
</g>
</g>
<!-- Node13&#45;&gt;Node21 -->
<g id="edge29" class="edge"><title>Node13&#45;&gt;Node21</title>
<path fill="none" stroke="midnightblue" d="M556.137,-168.444C525.762,-159.28 477.39,-144.688 443.684,-134.519"/>
<polygon fill="midnightblue" stroke="midnightblue" points="444.315,-131.054 433.73,-131.516 442.293,-137.756 444.315,-131.054"/>
</g>
<!-- Node14&#45;&gt;Node14 -->
<g id="edge21" class="edge"><title>Node14&#45;&gt;Node14</title>
<path fill="none" stroke="midnightblue" d="M618.038,-75.5252C632.673,-78.3079 647,-75.1328 647,-66 647,-59.0077 638.602,-55.5077 628.097,-55.5"/>
<polygon fill="midnightblue" stroke="midnightblue" points="627.654,-52.0265 618.038,-56.4748 628.329,-58.9938 627.654,-52.0265"/>
</g>
<!-- Node15 -->
<g id="node15" class="node"><title>Node15</title>
<polygon fill="none" stroke="#bfbfbf" points="810.5,-0.5 810.5,-19.5 854.5,-19.5 854.5,-0.5 810.5,-0.5"/>
<text text-anchor="middle" x="832.5" y="-7.5" font-family="Helvetica,sans-Serif" font-size="10.00">vector</text>
</g>
<!-- Node14&#45;&gt;Node15 -->
<g id="edge19" class="edge"><title>Node14&#45;&gt;Node15</title>
<path fill="none" stroke="midnightblue" d="M629.315,-57.4915C674.552,-47.1405 755.556,-28.6058 800.409,-18.3429"/>
<polygon fill="midnightblue" stroke="midnightblue" points="801.231,-21.7454 810.198,-16.103 799.669,-14.9217 801.231,-21.7454"/>
</g>
<!-- Node16 -->
<g id="node16" class="node"><title>Node16</title>
<polygon fill="none" stroke="#bfbfbf" points="565.5,-0.5 565.5,-19.5 627.5,-19.5 627.5,-0.5 565.5,-0.5"/>
<text text-anchor="middle" x="596.5" y="-7.5" font-family="Helvetica,sans-Serif" font-size="10.00">Library.tpp</text>
</g>
<!-- Node14&#45;&gt;Node16 -->
<g id="edge20" class="edge"><title>Node14&#45;&gt;Node16</title>
<path fill="none" stroke="midnightblue" d="M596.5,-56.083C596.5,-49.0059 596.5,-38.8611 596.5,-29.9865"/>
<polygon fill="midnightblue" stroke="midnightblue" points="600,-29.751 596.5,-19.7511 593,-29.7511 600,-29.751"/>
</g>
<!-- Node17&#45;&gt;Node9 -->
<g id="edge25" class="edge"><title>Node17&#45;&gt;Node9</title>
<path fill="none" stroke="midnightblue" d="M831.463,-112.083C834.713,-104.77 839.419,-94.1814 843.454,-85.1034"/>
<polygon fill="midnightblue" stroke="midnightblue" points="846.748,-86.3107 847.611,-75.7511 840.351,-83.4677 846.748,-86.3107"/>
</g>
<!-- Node17&#45;&gt;Node15 -->
<g id="edge24" class="edge"><title>Node17&#45;&gt;Node15</title>
<path fill="none" stroke="midnightblue" d="M814.469,-112.357C798.267,-100.446 773.853,-77.9579 783.5,-56 788.89,-43.732 799.458,-33.3414 809.404,-25.6461"/>
<polygon fill="midnightblue" stroke="midnightblue" points="811.752,-28.2697 817.839,-19.598 807.672,-22.5811 811.752,-28.2697"/>
</g>
<!-- Node18 -->
<g id="node18" class="node"><title>Node18</title>
<polygon fill="none" stroke="#bfbfbf" points="979.5,-0.5 979.5,-19.5 1049.5,-19.5 1049.5,-0.5 979.5,-0.5"/>
<text text-anchor="middle" x="1014.5" y="-7.5" font-family="Helvetica,sans-Serif" font-size="10.00">glm/glm.hpp</text>
</g>
<!-- Node17&#45;&gt;Node18 -->
<g id="edge23" class="edge"><title>Node17&#45;&gt;Node18</title>
<path fill="none" stroke="midnightblue" d="M822.261,-112.373C814.793,-98.8371 803.362,-72.4586 816.5,-56 835.262,-32.4958 916.971,-20.3327 969.384,-14.8341"/>
<polygon fill="midnightblue" stroke="midnightblue" points="969.849,-18.305 979.448,-13.8218 969.148,-11.3402 969.849,-18.305"/>
</g>
<!-- Node19 -->
<g id="node19" class="node"><title>Node19</title>
<g id="a_node19"><a xlink:href="../../d4/d6e/Shader_8hpp.html" target="_top" xlink:title="Shader.hpp">
<polygon fill="none" stroke="black" points="665.5,-56.5 665.5,-75.5 731.5,-75.5 731.5,-56.5 665.5,-56.5"/>
<text text-anchor="middle" x="698.5" y="-63.5" font-family="Helvetica,sans-Serif" font-size="10.00">Shader.hpp</text>
</a>
</g>
</g>
<!-- Node17&#45;&gt;Node19 -->
<g id="edge26" class="edge"><title>Node17&#45;&gt;Node19</title>
<path fill="none" stroke="midnightblue" d="M807.06,-112.444C785.83,-103.557 752.401,-89.5632 728.245,-79.4514"/>
<polygon fill="midnightblue" stroke="midnightblue" points="729.421,-76.1493 718.845,-75.5164 726.718,-82.6064 729.421,-76.1493"/>
</g>
<!-- Node19&#45;&gt;Node7 -->
<g id="edge27" class="edge"><title>Node19&#45;&gt;Node7</title>
<path fill="none" stroke="midnightblue" d="M665.234,-57.6393C661.954,-57.0334 658.668,-56.4732 655.5,-56 483.011,-30.2368 433.661,-52.8404 257.855,-19.6397"/>
<polygon fill="midnightblue" stroke="midnightblue" points="258.502,-16.2001 248.021,-17.7499 257.181,-23.0743 258.502,-16.2001"/>
</g>
<!-- Node21&#45;&gt;Node9 -->
<g id="edge30" class="edge"><title>Node21&#45;&gt;Node9</title>
<path fill="none" stroke="midnightblue" d="M453.064,-113.339C456.255,-112.872 459.423,-112.421 462.5,-112 591.654,-94.3409 745.563,-77.8903 814.689,-70.7445"/>
<polygon fill="midnightblue" stroke="midnightblue" points="815.45,-74.1847 825.039,-69.6788 814.733,-67.2216 815.45,-74.1847"/>
</g>
<!-- Node21&#45;&gt;Node14 -->
<g id="edge31" class="edge"><title>Node21&#45;&gt;Node14</title>
<path fill="none" stroke="midnightblue" d="M435.765,-112.444C468.455,-103.201 520.682,-88.4356 556.683,-78.2572"/>
<polygon fill="midnightblue" stroke="midnightblue" points="557.706,-81.6051 566.377,-75.5164 555.802,-74.8691 557.706,-81.6051"/>
</g>
<!-- Node21&#45;&gt;Node19 -->
<g id="edge32" class="edge"><title>Node21&#45;&gt;Node19</title>
<path fill="none" stroke="midnightblue" d="M453.036,-112.855C501.319,-104.489 578.502,-90.8646 655.331,-75.9856"/>
<polygon fill="midnightblue" stroke="midnightblue" points="656.036,-79.4141 665.184,-74.0699 654.7,-72.5427 656.036,-79.4141"/>
</g>
<!-- Node22 -->
<g id="node22" class="node"><title>Node22</title>
<g id="a_node22"><a xlink:href="../../d2/dba/ShaderNames_8hpp.html" target="_top" xlink:title="ShaderNames.hpp">
<polygon fill="none" stroke="black" points="356.5,-56.5 356.5,-75.5 454.5,-75.5 454.5,-56.5 356.5,-56.5"/>
<text text-anchor="middle" x="405.5" y="-63.5" font-family="Helvetica,sans-Serif" font-size="10.00">ShaderNames.hpp</text>
</a>
</g>
</g>
<!-- Node21&#45;&gt;Node22 -->
<g id="edge33" class="edge"><title>Node21&#45;&gt;Node22</title>
<path fill="none" stroke="midnightblue" d="M405.5,-112.083C405.5,-105.006 405.5,-94.8611 405.5,-85.9865"/>
<polygon fill="midnightblue" stroke="midnightblue" points="409,-85.751 405.5,-75.7511 402,-85.7511 409,-85.751"/>
</g>
<!-- Node23&#45;&gt;Node14 -->
<g id="edge36" class="edge"><title>Node23&#45;&gt;Node14</title>
<path fill="none" stroke="midnightblue" d="M1209.76,-174.577C1101.85,-168.976 849.272,-153.915 766.5,-132 745.735,-126.502 742.41,-120.064 722.5,-112 692.28,-99.7602 657.319,-87.4139 631.901,-78.7576"/>
<polygon fill="midnightblue" stroke="midnightblue" points="632.911,-75.4045 622.317,-75.5144 630.667,-82.0352 632.911,-75.4045"/>
</g>
<!-- Node24 -->
<g id="node24" class="node"><title>Node24</title>
<polygon fill="none" stroke="#bfbfbf" points="1431.5,-56.5 1431.5,-75.5 1525.5,-75.5 1525.5,-56.5 1431.5,-56.5"/>
<text text-anchor="middle" x="1478.5" y="-63.5" font-family="Helvetica,sans-Serif" font-size="10.00">assimp/material.h</text>
</g>
<!-- Node23&#45;&gt;Node24 -->
<g id="edge35" class="edge"><title>Node23&#45;&gt;Node24</title>
<path fill="none" stroke="midnightblue" d="M1296.4,-168.487C1324.58,-161.124 1363.82,-148.975 1395.5,-132 1420.78,-118.454 1446.21,-97.1397 1462.13,-82.6411"/>
<polygon fill="midnightblue" stroke="midnightblue" points="1464.6,-85.1279 1469.54,-75.7578 1459.83,-79.9991 1464.6,-85.1279"/>
</g>
<!-- Node25 -->
<g id="node25" class="node"><title>Node25</title>
<g id="a_node25"><a xlink:href="../../d0/d70/Material_8hpp.html" target="_top" xlink:title="Material.hpp">
<polygon fill="none" stroke="black" points="1316.5,-112.5 1316.5,-131.5 1386.5,-131.5 1386.5,-112.5 1316.5,-112.5"/>
<text text-anchor="middle" x="1351.5" y="-119.5" font-family="Helvetica,sans-Serif" font-size="10.00">Material.hpp</text>
</a>
</g>
</g>
<!-- Node23&#45;&gt;Node25 -->
<g id="edge37" class="edge"><title>Node23&#45;&gt;Node25</title>
<path fill="none" stroke="midnightblue" d="M1274.28,-168.324C1288.77,-159.822 1311.07,-146.729 1327.99,-136.797"/>
<polygon fill="midnightblue" stroke="midnightblue" points="1329.9,-139.735 1336.76,-131.655 1326.36,-133.698 1329.9,-139.735"/>
</g>
<!-- Node25&#45;&gt;Node9 -->
<g id="edge38" class="edge"><title>Node25&#45;&gt;Node9</title>
<path fill="none" stroke="midnightblue" d="M1316.33,-117.506C1243.28,-110.202 1069.84,-92.6168 924.5,-76 912.431,-74.6201 899.25,-73.0229 887.452,-71.5605"/>
<polygon fill="midnightblue" stroke="midnightblue" points="887.858,-68.0842 877.502,-70.3189 886.991,-75.0303 887.858,-68.0842"/>
</g>
<!-- Node25&#45;&gt;Node18 -->
<g id="edge39" class="edge"><title>Node25&#45;&gt;Node18</title>
<path fill="none" stroke="midnightblue" d="M1362.01,-112.168C1376.65,-98.8213 1399.77,-73.2423 1384.5,-56 1363.28,-32.0424 1153.89,-18.239 1059.84,-13.2033"/>
<polygon fill="midnightblue" stroke="midnightblue" points="1059.93,-9.70349 1049.76,-12.6738 1059.56,-16.6938 1059.93,-9.70349"/>
</g>
<!-- Node25&#45;&gt;Node24 -->
<g id="edge40" class="edge"><title>Node25&#45;&gt;Node24</title>
<path fill="none" stroke="midnightblue" d="M1371.62,-112.444C1392.52,-103.557 1425.43,-89.5632 1449.22,-79.4514"/>
<polygon fill="midnightblue" stroke="midnightblue" points="1450.64,-82.6504 1458.47,-75.5164 1447.9,-76.2085 1450.64,-82.6504"/>
</g>
<!-- Node26&#45;&gt;Node14 -->
<g id="edge43" class="edge"><title>Node26&#45;&gt;Node14</title>
<path fill="none" stroke="midnightblue" d="M334.779,-112.444C395.083,-101.973 496.213,-84.4131 553.503,-74.4657"/>
<polygon fill="midnightblue" stroke="midnightblue" points="554.416,-77.8596 563.67,-72.7003 553.219,-70.9628 554.416,-77.8596"/>
</g>
<!-- Node27 -->
<g id="node27" class="node"><title>Node27</title>
<polygon fill="none" stroke="#bfbfbf" points="266.5,-0.5 266.5,-19.5 346.5,-19.5 346.5,-0.5 266.5,-0.5"/>
<text text-anchor="middle" x="306.5" y="-7.5" font-family="Helvetica,sans-Serif" font-size="10.00">assimp/anim.h</text>
</g>
<!-- Node26&#45;&gt;Node27 -->
<g id="edge42" class="edge"><title>Node26&#45;&gt;Node27</title>
<path fill="none" stroke="midnightblue" d="M287.148,-112.368C290.537,-94.617 298.355,-53.6664 302.95,-29.5974"/>
<polygon fill="midnightblue" stroke="midnightblue" points="306.422,-30.0704 304.86,-19.5914 299.547,-28.7577 306.422,-30.0704"/>
</g>
<!-- Node28 -->
<g id="node28" class="node"><title>Node28</title>
<g id="a_node28"><a xlink:href="../../d0/d36/Animation_8hpp.html" target="_top" xlink:title="Animation.hpp">
<polygon fill="none" stroke="black" points="199,-56.5 199,-75.5 278,-75.5 278,-56.5 199,-56.5"/>
<text text-anchor="middle" x="238.5" y="-63.5" font-family="Helvetica,sans-Serif" font-size="10.00">Animation.hpp</text>
</a>
</g>
</g>
<!-- Node26&#45;&gt;Node28 -->
<g id="edge44" class="edge"><title>Node26&#45;&gt;Node28</title>
<path fill="none" stroke="midnightblue" d="M277.739,-112.083C270.963,-104.298 260.957,-92.8015 252.745,-83.3665"/>
<polygon fill="midnightblue" stroke="midnightblue" points="255.322,-80.9963 246.117,-75.7511 250.042,-85.592 255.322,-80.9963"/>
</g>
<!-- Node28&#45;&gt;Node7 -->
<g id="edge46" class="edge"><title>Node28&#45;&gt;Node7</title>
<path fill="none" stroke="midnightblue" d="M236.684,-56.083C235.226,-48.9272 233.129,-38.6353 231.307,-29.6911"/>
<polygon fill="midnightblue" stroke="midnightblue" points="234.708,-28.8512 229.283,-19.7511 227.849,-30.2485 234.708,-28.8512"/>
</g>
<!-- Node28&#45;&gt;Node27 -->
<g id="edge45" class="edge"><title>Node28&#45;&gt;Node27</title>
<path fill="none" stroke="midnightblue" d="M249.425,-56.324C259.675,-48.1849 275.221,-35.8395 287.501,-26.0874"/>
<polygon fill="midnightblue" stroke="midnightblue" points="289.721,-28.7937 295.376,-19.8339 285.368,-23.3119 289.721,-28.7937"/>
</g>
<!-- Node29&#45;&gt;Node14 -->
<g id="edge48" class="edge"><title>Node29&#45;&gt;Node14</title>
<path fill="none" stroke="midnightblue" d="M704.319,-168.368C684.669,-149.894 638.293,-106.293 613.245,-82.7436"/>
<polygon fill="midnightblue" stroke="midnightblue" points="615.321,-79.8912 605.638,-75.5914 610.526,-84.9912 615.321,-79.8912"/>
</g>
<!-- Node30 -->
<g id="node30" class="node"><title>Node30</title>
<g id="a_node30"><a xlink:href="../../d1/d62/Mesh_8hpp.html" target="_top" xlink:title="Mesh.hpp">
<polygon fill="none" stroke="black" points="974,-112.5 974,-131.5 1033,-131.5 1033,-112.5 974,-112.5"/>
<text text-anchor="middle" x="1003.5" y="-119.5" font-family="Helvetica,sans-Serif" font-size="10.00">Mesh.hpp</text>
</a>
</g>
</g>
<!-- Node29&#45;&gt;Node30 -->
<g id="edge49" class="edge"><title>Node29&#45;&gt;Node30</title>
<path fill="none" stroke="midnightblue" d="M758.177,-168.681C814.449,-158.203 910.259,-140.362 963.98,-130.359"/>
<polygon fill="midnightblue" stroke="midnightblue" points="964.63,-133.798 973.82,-128.527 963.349,-126.916 964.63,-133.798"/>
</g>
<!-- Node30&#45;&gt;Node9 -->
<g id="edge51" class="edge"><title>Node30&#45;&gt;Node9</title>
<path fill="none" stroke="midnightblue" d="M979.415,-112.444C953.955,-103.399 913.606,-89.064 885.041,-78.9158"/>
<polygon fill="midnightblue" stroke="midnightblue" points="886.067,-75.5661 875.472,-75.5164 883.723,-82.1622 886.067,-75.5661"/>
</g>
<!-- Node30&#45;&gt;Node15 -->
<g id="edge50" class="edge"><title>Node30&#45;&gt;Node15</title>
<path fill="none" stroke="midnightblue" d="M987.494,-112.479C971.342,-103.742 945.811,-89.5525 924.5,-76 898.831,-59.676 870.391,-39.1922 852.023,-25.6301"/>
<polygon fill="midnightblue" stroke="midnightblue" points="853.987,-22.7288 843.871,-19.5769 849.813,-28.3488 853.987,-22.7288"/>
</g>
<!-- Node30&#45;&gt;Node18 -->
<g id="edge52" class="edge"><title>Node30&#45;&gt;Node18</title>
<path fill="none" stroke="midnightblue" d="M1011.17,-112.459C1018.28,-103.927 1028.35,-90.0875 1032.5,-76 1037.19,-60.0667 1031.16,-41.8348 1024.84,-28.7431"/>
<polygon fill="midnightblue" stroke="midnightblue" points="1027.91,-27.0539 1020.13,-19.857 1021.72,-30.3318 1027.91,-27.0539"/>
</g>
<!-- Node31 -->
<g id="node31" class="node"><title>Node31</title>
<polygon fill="none" stroke="#bfbfbf" points="1185,-56.5 1185,-75.5 1268,-75.5 1268,-56.5 1185,-56.5"/>
<text text-anchor="middle" x="1226.5" y="-63.5" font-family="Helvetica,sans-Serif" font-size="10.00">assimp/mesh.h</text>
</g>
<!-- Node30&#45;&gt;Node31 -->
<g id="edge53" class="edge"><title>Node30&#45;&gt;Node31</title>
<path fill="none" stroke="midnightblue" d="M1033.11,-113.829C1071.03,-104.647 1137.12,-88.6442 1181.33,-77.9371"/>
<polygon fill="midnightblue" stroke="midnightblue" points="1182.35,-81.2924 1191.24,-75.5371 1180.7,-74.489 1182.35,-81.2924"/>
</g>
<!-- Node32 -->
<g id="node32" class="node"><title>Node32</title>
<g id="a_node32"><a xlink:href="../../da/d04/BufferObject_8hpp.html" target="_top" xlink:title="BufferObject.hpp">
<polygon fill="none" stroke="black" points="933.5,-56.5 933.5,-75.5 1023.5,-75.5 1023.5,-56.5 933.5,-56.5"/>
<text text-anchor="middle" x="978.5" y="-63.5" font-family="Helvetica,sans-Serif" font-size="10.00">BufferObject.hpp</text>
</a>
</g>
</g>
<!-- Node30&#45;&gt;Node32 -->
<g id="edge54" class="edge"><title>Node30&#45;&gt;Node32</title>
<path fill="none" stroke="midnightblue" d="M999.372,-112.083C995.986,-104.77 991.084,-94.1814 986.881,-85.1034"/>
<polygon fill="midnightblue" stroke="midnightblue" points="989.929,-83.3553 982.551,-75.7511 983.577,-86.2962 989.929,-83.3553"/>
</g>
<!-- Node33 -->
<g id="node33" class="node"><title>Node33</title>
<g id="a_node33"><a xlink:href="../../df/d20/ArrayObject_8hpp.html" target="_top" xlink:title="ArrayObject.hpp">
<polygon fill="none" stroke="black" points="1080,-56.5 1080,-75.5 1167,-75.5 1167,-56.5 1080,-56.5"/>
<text text-anchor="middle" x="1123.5" y="-63.5" font-family="Helvetica,sans-Serif" font-size="10.00">ArrayObject.hpp</text>
</a>
</g>
</g>
<!-- Node30&#45;&gt;Node33 -->
<g id="edge57" class="edge"><title>Node30&#45;&gt;Node33</title>
<path fill="none" stroke="midnightblue" d="M1022.51,-112.444C1042.09,-103.636 1072.81,-89.8116 1095.23,-79.722"/>
<polygon fill="midnightblue" stroke="midnightblue" points="1096.89,-82.8119 1104.57,-75.5164 1094.02,-76.4284 1096.89,-82.8119"/>
</g>
<!-- Node32&#45;&gt;Node15 -->
<g id="edge55" class="edge"><title>Node32&#45;&gt;Node15</title>
<path fill="none" stroke="midnightblue" d="M955.366,-56.4435C930.731,-47.3322 891.584,-32.8531 864.114,-22.6929"/>
<polygon fill="midnightblue" stroke="midnightblue" points="865.163,-19.3493 854.57,-19.1629 862.735,-25.9146 865.163,-19.3493"/>
</g>
<!-- Node32&#45;&gt;Node18 -->
<g id="edge56" class="edge"><title>Node32&#45;&gt;Node18</title>
<path fill="none" stroke="midnightblue" d="M984.445,-56.083C989.477,-48.5341 996.837,-37.4948 1003.01,-28.2298"/>
<polygon fill="midnightblue" stroke="midnightblue" points="1006.03,-30.0131 1008.67,-19.7511 1000.21,-26.1301 1006.03,-30.0131"/>
</g>
<!-- Node34&#45;&gt;Node14 -->
<g id="edge59" class="edge"><title>Node34&#45;&gt;Node14</title>
<path fill="none" stroke="midnightblue" d="M973.47,-173.692C915.192,-168.778 815.514,-157.256 733.5,-132 691.821,-119.165 646.716,-95.7233 620.072,-80.7765"/>
<polygon fill="midnightblue" stroke="midnightblue" points="621.554,-77.5927 611.131,-75.6895 618.092,-83.6769 621.554,-77.5927"/>
</g>
<!-- Node35 -->
<g id="node35" class="node"><title>Node35</title>
<g id="a_node35"><a xlink:href="../../d0/ddc/Texture_8hpp.html" target="_top" xlink:title="Texture.hpp">
<polygon fill="none" stroke="black" points="1127.5,-112.5 1127.5,-131.5 1195.5,-131.5 1195.5,-112.5 1127.5,-112.5"/>
<text text-anchor="middle" x="1161.5" y="-119.5" font-family="Helvetica,sans-Serif" font-size="10.00">Texture.hpp</text>
</a>
</g>
</g>
<!-- Node34&#45;&gt;Node35 -->
<g id="edge60" class="edge"><title>Node34&#45;&gt;Node35</title>
<path fill="none" stroke="midnightblue" d="M1044.52,-168.444C1067.6,-159.478 1104.06,-145.314 1130.14,-135.183"/>
<polygon fill="midnightblue" stroke="midnightblue" points="1131.52,-138.4 1139.58,-131.516 1128.99,-131.875 1131.52,-138.4"/>
</g>
<!-- Node36 -->
<g id="node36" class="node"><title>Node36</title>
<polygon fill="none" stroke="#bfbfbf" points="1286,-56.5 1286,-75.5 1375,-75.5 1375,-56.5 1286,-56.5"/>
<text text-anchor="middle" x="1330.5" y="-63.5" font-family="Helvetica,sans-Serif" font-size="10.00">assimp/texture.h</text>
</g>
<!-- Node35&#45;&gt;Node36 -->
<g id="edge61" class="edge"><title>Node35&#45;&gt;Node36</title>
<path fill="none" stroke="midnightblue" d="M1188.28,-112.444C1216.83,-103.32 1262.23,-88.8133 1294.04,-78.6509"/>
<polygon fill="midnightblue" stroke="midnightblue" points="1295.39,-81.8941 1303.85,-75.5164 1293.26,-75.2262 1295.39,-81.8941"/>
</g>
</g>
</svg>
        <g id="navigator" transform="translate(0 0)" fill="#404254">
                <rect fill="#f2f5e9" fill-opacity="0.5" stroke="#606060" stroke-width=".5" x="0" y="0" width="60" height="60"/>
                <use id="zoomplus" xlink:href="#zoomPlus" x="17" y="9" onmousedown="handleZoom(evt,'in')"/>
                <use id="zoomminus" xlink:href="#zoomMin" x="42" y="9" onmousedown="handleZoom(evt,'out')"/>
                <use id="reset" xlink:href="#resetDef" x="30" y="36" onmousedown="handleReset()"/>
                <g id="arrowUp" xlink:href="#dirArrow" transform="translate(30 24)" onmousedown="handlePan(0,-1)">
                  <use xlink:href="#rim" fill="#404040">
                        <set attributeName="fill" to="#808080" begin="arrowUp.mouseover" end="arrowUp.mouseout"/>
                  </use>
                  <path fill="none" stroke="white" stroke-width="1.5" d="M0,-3.0v7 M-2.5,-0.5L0,-3.0L2.5,-0.5"/>
                </g>
                <g id="arrowRight" xlink:href="#dirArrow" transform="rotate(90) translate(36 -43)" onmousedown="handlePan(1,0)">
                  <use xlink:href="#rim" fill="#404040">
                        <set attributeName="fill" to="#808080" begin="arrowRight.mouseover" end="arrowRight.mouseout"/>
                  </use>
                  <path fill="none" stroke="white" stroke-width="1.5" d="M0,-3.0v7 M-2.5,-0.5L0,-3.0L2.5,-0.5"/>
                </g>
                <g id="arrowDown" xlink:href="#dirArrow" transform="rotate(180) translate(-30 -48)" onmousedown="handlePan(0,1)">
                  <use xlink:href="#rim" fill="#404040">
                        <set attributeName="fill" to="#808080" begin="arrowDown.mouseover" end="arrowDown.mouseout"/>
                  </use>
                  <path fill="none" stroke="white" stroke-width="1.5" d="M0,-3.0v7 M-2.5,-0.5L0,-3.0L2.5,-0.5"/>
                </g>
                <g id="arrowLeft" xlink:href="#dirArrow" transform="rotate(270) translate(-36 17)" onmousedown="handlePan(-1,0)">
                  <use xlink:href="#rim" fill="#404040">
                        <set attributeName="fill" to="#808080" begin="arrowLeft.mouseover" end="arrowLeft.mouseout"/>
                  </use>
                  <path fill="none" stroke="white" stroke-width="1.5" d="M0,-3.0v7 M-2.5,-0.5L0,-3.0L2.5,-0.5"/>
                </g>
        </g>
        <svg viewBox="0 0 15 15" width="100%" height="30px" preserveAspectRatio="xMaxYMin meet">
         <g id="arrow_out" transform="scale(0.3 0.3)">
          <a xlink:href="Object_8cpp__incl_org.svg" target="_base">
           <rect id="button" ry="5" rx="5" y="6" x="6" height="38" width="38"
                fill="#f2f5e9" fill-opacity="0.5" stroke="#606060" stroke-width="1.0"/>
           <path id="arrow"
             d="M 11.500037,31.436501 C 11.940474,20.09759 22.043105,11.32322 32.158766,21.979434 L 37.068811,17.246167 C 37.068811,17.246167 37.088388,32 37.088388,32 L 22.160133,31.978069 C 22.160133,31.978069 26.997745,27.140456 26.997745,27.140456 C 18.528582,18.264221 13.291696,25.230495 11.500037,31.436501 z"
             style="fill:#404040;"/>
          </a>
         </g>
        </svg>
</svg>
