<?xml version="1.0" encoding="UTF-8" standalone="no"?>
<!DOCTYPE svg PUBLIC "-//W3C//DTD SVG 1.1//EN"
 "http://www.w3.org/Graphics/SVG/1.1/DTD/svg11.dtd">
<!-- Generated by graphviz version 2.38.0 (20140413.2041)
 -->
<!-- Title: engine/PerspectiveCamera/PerspectiveCamera.hpp Pages: 1 -->
<svg width="281pt" height="207pt"
 viewBox="0.00 0.00 280.98 207.00" xmlns="http://www.w3.org/2000/svg" xmlns:xlink="http://www.w3.org/1999/xlink">
<g id="graph0" class="graph" transform="scale(1 1) rotate(0) translate(4 203)">
<title>engine/PerspectiveCamera/PerspectiveCamera.hpp</title>
<!-- Node1 -->
<g id="node1" class="node"><title>Node1</title>
<polygon fill="#bfbfbf" stroke="black" points="30.4807,-168.5 30.4807,-198.5 164.481,-198.5 164.481,-168.5 30.4807,-168.5"/>
<text text-anchor="start" x="38.4807" y="-186.5" font-family="Helvetica,sans-Serif" font-size="10.00">engine/PerspectiveCamera</text>
<text text-anchor="middle" x="97.4807" y="-175.5" font-family="Helvetica,sans-Serif" font-size="10.00">/PerspectiveCamera.hpp</text>
</g>
<!-- Node2 -->
<g id="node2" class="node"><title>Node2</title>
<g id="a_node2"><a xlink:href="../../d6/d80/Camera_8hpp.html" target="_top" xlink:title="Camera.hpp">
<polygon fill="none" stroke="black" points="62.4807,-112.5 62.4807,-131.5 132.481,-131.5 132.481,-112.5 62.4807,-112.5"/>
<text text-anchor="middle" x="97.4807" y="-119.5" font-family="Helvetica,sans-Serif" font-size="10.00">Camera.hpp</text>
</a>
</g>
</g>
<!-- Node1&#45;&gt;Node2 -->
<g id="edge1" class="edge"><title>Node1&#45;&gt;Node2</title>
<path fill="none" stroke="midnightblue" d="M97.4807,-168.399C97.4807,-160.466 97.4807,-150.458 97.4807,-141.858"/>
<polygon fill="midnightblue" stroke="midnightblue" points="100.981,-141.658 97.4807,-131.658 93.9808,-141.658 100.981,-141.658"/>
</g>
<!-- Node3 -->
<g id="node3" class="node"><title>Node3</title>
<polygon fill="none" stroke="#bfbfbf" points="92.9807,-0.5 92.9807,-19.5 133.981,-19.5 133.981,-0.5 92.9807,-0.5"/>
<text text-anchor="middle" x="113.481" y="-7.5" font-family="Helvetica,sans-Serif" font-size="10.00">string</text>
</g>
<!-- Node2&#45;&gt;Node3 -->
<g id="edge2" class="edge"><title>Node2&#45;&gt;Node3</title>
<path fill="none" stroke="midnightblue" d="M63.7302,-112.44C30.2659,-102.208 -13.5925,-83.0144 4.48075,-56 21.7903,-30.1272 56.9903,-19.1137 82.7224,-14.4355"/>
<polygon fill="midnightblue" stroke="midnightblue" points="83.4219,-17.8684 92.7476,-12.8404 82.3218,-10.9553 83.4219,-17.8684"/>
</g>
<!-- Node4 -->
<g id="node4" class="node"><title>Node4</title>
<polygon fill="none" stroke="#bfbfbf" points="13.4807,-56.5 13.4807,-75.5 83.4807,-75.5 83.4807,-56.5 13.4807,-56.5"/>
<text text-anchor="middle" x="48.4807" y="-63.5" font-family="Helvetica,sans-Serif" font-size="10.00">glm/glm.hpp</text>
</g>
<!-- Node2&#45;&gt;Node4 -->
<g id="edge3" class="edge"><title>Node2&#45;&gt;Node4</title>
<path fill="none" stroke="midnightblue" d="M89.3894,-112.083C82.3254,-104.298 71.8932,-92.8015 63.3319,-83.3665"/>
<polygon fill="midnightblue" stroke="midnightblue" points="65.7334,-80.8047 56.4215,-75.7511 60.5495,-85.5087 65.7334,-80.8047"/>
</g>
<!-- Node5 -->
<g id="node5" class="node"><title>Node5</title>
<polygon fill="none" stroke="#bfbfbf" points="101.481,-56.5 101.481,-75.5 193.481,-75.5 193.481,-56.5 101.481,-56.5"/>
<text text-anchor="middle" x="147.481" y="-63.5" font-family="Helvetica,sans-Serif" font-size="10.00">assimp/camera.h</text>
</g>
<!-- Node2&#45;&gt;Node5 -->
<g id="edge4" class="edge"><title>Node2&#45;&gt;Node5</title>
<path fill="none" stroke="midnightblue" d="M105.737,-112.083C112.945,-104.298 123.591,-92.8015 132.327,-83.3665"/>
<polygon fill="midnightblue" stroke="midnightblue" points="135.152,-85.4666 139.378,-75.7511 130.016,-80.7108 135.152,-85.4666"/>
</g>
<!-- Node6 -->
<g id="node6" class="node"><title>Node6</title>
<g id="a_node6"><a xlink:href="../../de/da6/Entity_8hpp.html" target="_top" xlink:title="Entity.hpp">
<polygon fill="none" stroke="black" points="211.981,-56.5 211.981,-75.5 272.981,-75.5 272.981,-56.5 211.981,-56.5"/>
<text text-anchor="middle" x="242.481" y="-63.5" font-family="Helvetica,sans-Serif" font-size="10.00">Entity.hpp</text>
</a>
</g>
</g>
<!-- Node2&#45;&gt;Node6 -->
<g id="edge5" class="edge"><title>Node2&#45;&gt;Node6</title>
<path fill="none" stroke="midnightblue" d="M120.456,-112.444C144.638,-103.438 182.899,-89.1891 210.127,-79.049"/>
<polygon fill="midnightblue" stroke="midnightblue" points="211.463,-82.2864 219.613,-75.5164 209.02,-75.7265 211.463,-82.2864"/>
</g>
<!-- Node6&#45;&gt;Node3 -->
<g id="edge6" class="edge"><title>Node6&#45;&gt;Node3</title>
<path fill="none" stroke="midnightblue" d="M222.04,-56.4435C200.81,-47.5566 167.382,-33.5632 143.226,-23.4514"/>
<polygon fill="midnightblue" stroke="midnightblue" points="144.401,-20.1493 133.826,-19.5164 141.698,-26.6064 144.401,-20.1493"/>
</g>
</g>
</svg>
