<?xml version="1.0" encoding="UTF-8" standalone="no"?>
<!DOCTYPE svg PUBLIC "-//W3C//DTD SVG 1.1//EN"
 "http://www.w3.org/Graphics/SVG/1.1/DTD/svg11.dtd">
<!-- Generated by graphviz version 2.38.0 (20140413.2041)
 -->
<!-- Title: engine/Material/Material.cpp Pages: 1 -->
<svg width="406pt" height="196pt"
 viewBox="0.00 0.00 406.00 196.00" xmlns="http://www.w3.org/2000/svg" xmlns:xlink="http://www.w3.org/1999/xlink">
<g id="graph0" class="graph" transform="scale(1 1) rotate(0) translate(4 192)">
<title>engine/Material/Material.cpp</title>
<!-- Node1 -->
<g id="node1" class="node"><title>Node1</title>
<polygon fill="#bfbfbf" stroke="black" points="129.5,-168.5 129.5,-187.5 268.5,-187.5 268.5,-168.5 129.5,-168.5"/>
<text text-anchor="middle" x="199" y="-175.5" font-family="Helvetica,sans-Serif" font-size="10.00">engine/Material/Material.cpp</text>
</g>
<!-- Node2 -->
<g id="node2" class="node"><title>Node2</title>
<g id="a_node2"><a xlink:href="../../d0/d70/Material_8hpp.html" target="_top" xlink:title="Material.hpp">
<polygon fill="none" stroke="black" points="112,-112.5 112,-131.5 182,-131.5 182,-112.5 112,-112.5"/>
<text text-anchor="middle" x="147" y="-119.5" font-family="Helvetica,sans-Serif" font-size="10.00">Material.hpp</text>
</a>
</g>
</g>
<!-- Node1&#45;&gt;Node2 -->
<g id="edge1" class="edge"><title>Node1&#45;&gt;Node2</title>
<path fill="none" stroke="midnightblue" d="M190.413,-168.083C182.841,-160.22 171.622,-148.569 162.486,-139.081"/>
<polygon fill="midnightblue" stroke="midnightblue" points="164.885,-136.527 155.427,-131.751 159.842,-141.382 164.885,-136.527"/>
</g>
<!-- Node6 -->
<g id="node6" class="node"><title>Node6</title>
<g id="a_node6"><a xlink:href="../../dc/ddb/ShaderProgram_8hpp.html" target="_top" xlink:title="ShaderProgram.hpp">
<polygon fill="none" stroke="black" points="200.5,-112.5 200.5,-131.5 303.5,-131.5 303.5,-112.5 200.5,-112.5"/>
<text text-anchor="middle" x="252" y="-119.5" font-family="Helvetica,sans-Serif" font-size="10.00">ShaderProgram.hpp</text>
</a>
</g>
</g>
<!-- Node1&#45;&gt;Node6 -->
<g id="edge5" class="edge"><title>Node1&#45;&gt;Node6</title>
<path fill="none" stroke="midnightblue" d="M207.752,-168.083C215.47,-160.22 226.905,-148.569 236.217,-139.081"/>
<polygon fill="midnightblue" stroke="midnightblue" points="238.904,-141.34 243.411,-131.751 233.908,-136.436 238.904,-141.34"/>
</g>
<!-- Node3 -->
<g id="node3" class="node"><title>Node3</title>
<polygon fill="none" stroke="#bfbfbf" points="200,-56.5 200,-75.5 252,-75.5 252,-56.5 200,-56.5"/>
<text text-anchor="middle" x="226" y="-63.5" font-family="Helvetica,sans-Serif" font-size="10.00">memory</text>
</g>
<!-- Node2&#45;&gt;Node3 -->
<g id="edge2" class="edge"><title>Node2&#45;&gt;Node3</title>
<path fill="none" stroke="midnightblue" d="M159.693,-112.324C171.901,-103.979 190.578,-91.2122 205.003,-81.3524"/>
<polygon fill="midnightblue" stroke="midnightblue" points="207.058,-84.1871 213.339,-75.6545 203.108,-78.4082 207.058,-84.1871"/>
</g>
<!-- Node4 -->
<g id="node4" class="node"><title>Node4</title>
<polygon fill="none" stroke="#bfbfbf" points="112,-56.5 112,-75.5 182,-75.5 182,-56.5 112,-56.5"/>
<text text-anchor="middle" x="147" y="-63.5" font-family="Helvetica,sans-Serif" font-size="10.00">glm/glm.hpp</text>
</g>
<!-- Node2&#45;&gt;Node4 -->
<g id="edge3" class="edge"><title>Node2&#45;&gt;Node4</title>
<path fill="none" stroke="midnightblue" d="M147,-112.083C147,-105.006 147,-94.8611 147,-85.9865"/>
<polygon fill="midnightblue" stroke="midnightblue" points="150.5,-85.751 147,-75.7511 143.5,-85.7511 150.5,-85.751"/>
</g>
<!-- Node5 -->
<g id="node5" class="node"><title>Node5</title>
<polygon fill="none" stroke="#bfbfbf" points="0,-56.5 0,-75.5 94,-75.5 94,-56.5 0,-56.5"/>
<text text-anchor="middle" x="47" y="-63.5" font-family="Helvetica,sans-Serif" font-size="10.00">assimp/material.h</text>
</g>
<!-- Node2&#45;&gt;Node5 -->
<g id="edge4" class="edge"><title>Node2&#45;&gt;Node5</title>
<path fill="none" stroke="midnightblue" d="M130.933,-112.324C115.042,-103.743 90.4926,-90.486 72.0415,-80.5224"/>
<polygon fill="midnightblue" stroke="midnightblue" points="73.489,-77.3264 63.0269,-75.6545 70.1629,-83.4857 73.489,-77.3264"/>
</g>
<!-- Node6&#45;&gt;Node3 -->
<g id="edge8" class="edge"><title>Node6&#45;&gt;Node3</title>
<path fill="none" stroke="midnightblue" d="M247.707,-112.083C244.148,-104.691 238.978,-93.9533 234.576,-84.8111"/>
<polygon fill="midnightblue" stroke="midnightblue" points="237.705,-83.2427 230.213,-75.7511 231.398,-86.2795 237.705,-83.2427"/>
</g>
<!-- Node6&#45;&gt;Node4 -->
<g id="edge6" class="edge"><title>Node6&#45;&gt;Node4</title>
<path fill="none" stroke="midnightblue" d="M235.13,-112.324C218.291,-103.664 192.193,-90.2424 172.762,-80.249"/>
<polygon fill="midnightblue" stroke="midnightblue" points="174.322,-77.1155 163.828,-75.6545 171.12,-83.3405 174.322,-77.1155"/>
</g>
<!-- Node7 -->
<g id="node7" class="node"><title>Node7</title>
<polygon fill="none" stroke="#bfbfbf" points="354,-56.5 354,-75.5 398,-75.5 398,-56.5 354,-56.5"/>
<text text-anchor="middle" x="376" y="-63.5" font-family="Helvetica,sans-Serif" font-size="10.00">vector</text>
</g>
<!-- Node6&#45;&gt;Node7 -->
<g id="edge7" class="edge"><title>Node6&#45;&gt;Node7</title>
<path fill="none" stroke="midnightblue" d="M271.648,-112.444C291.965,-103.596 323.903,-89.6875 347.098,-79.5865"/>
<polygon fill="midnightblue" stroke="midnightblue" points="348.673,-82.7181 356.444,-75.5164 345.878,-76.3002 348.673,-82.7181"/>
</g>
<!-- Node8 -->
<g id="node8" class="node"><title>Node8</title>
<g id="a_node8"><a xlink:href="../../d4/d6e/Shader_8hpp.html" target="_top" xlink:title="Shader.hpp">
<polygon fill="none" stroke="black" points="270,-56.5 270,-75.5 336,-75.5 336,-56.5 270,-56.5"/>
<text text-anchor="middle" x="303" y="-63.5" font-family="Helvetica,sans-Serif" font-size="10.00">Shader.hpp</text>
</a>
</g>
</g>
<!-- Node6&#45;&gt;Node8 -->
<g id="edge9" class="edge"><title>Node6&#45;&gt;Node8</title>
<path fill="none" stroke="midnightblue" d="M260.422,-112.083C267.848,-104.22 278.852,-92.5688 287.812,-83.0813"/>
<polygon fill="midnightblue" stroke="midnightblue" points="290.413,-85.4244 294.735,-75.7511 285.324,-80.618 290.413,-85.4244"/>
</g>
<!-- Node9 -->
<g id="node9" class="node"><title>Node9</title>
<polygon fill="none" stroke="#bfbfbf" points="282.5,-0.5 282.5,-19.5 323.5,-19.5 323.5,-0.5 282.5,-0.5"/>
<text text-anchor="middle" x="303" y="-7.5" font-family="Helvetica,sans-Serif" font-size="10.00">string</text>
</g>
<!-- Node8&#45;&gt;Node9 -->
<g id="edge10" class="edge"><title>Node8&#45;&gt;Node9</title>
<path fill="none" stroke="midnightblue" d="M303,-56.083C303,-49.0059 303,-38.8611 303,-29.9865"/>
<polygon fill="midnightblue" stroke="midnightblue" points="306.5,-29.751 303,-19.7511 299.5,-29.7511 306.5,-29.751"/>
</g>
</g>
</svg>
