<?xml version="1.0" encoding="UTF-8" standalone="no"?>
<!DOCTYPE svg PUBLIC "-//W3C//DTD SVG 1.1//EN"
 "http://www.w3.org/Graphics/SVG/1.1/DTD/svg11.dtd">
<!-- Generated by graphviz version 2.38.0 (20140413.2041)
 -->
<!-- Title: engine/Primitives/Cube/Cube.cpp Pages: 1 -->
<!--zoomable 375 -->
<svg id="main" version="1.1" xmlns="http://www.w3.org/2000/svg" xmlns:xlink="http://www.w3.org/1999/xlink" xml:space="preserve" onload="init(evt)">
<style type="text/css"><![CDATA[
.edge:hover path { stroke: red; }
.edge:hover polygon { stroke: red; fill: red; }
]]></style>
<script type="text/javascript"><![CDATA[
var edges = document.getElementsByTagName('g');
if (edges && edges.length) {
  for (var i=0;i<edges.length;i++) {
    if (edges[i].id.substr(0,4)=='edge') {
      edges[i].setAttribute('class','edge');
    }
  }
}
]]></script>
        <defs>
                <circle id="rim" cx="0" cy="0" r="7"/>
                <circle id="rim2" cx="0" cy="0" r="3.5"/>
                <g id="zoomPlus">
                        <use xlink:href="#rim" fill="#404040">
                                <set attributeName="fill" to="#808080" begin="zoomplus.mouseover" end="zoomplus.mouseout"/>
                        </use>
                        <path d="M-4,0h8M0,-4v8" fill="none" stroke="white" stroke-width="1.5" pointer-events="none"/>
                </g>
                <g id="zoomMin">
                        <use xlink:href="#rim" fill="#404040">
                                <set attributeName="fill" to="#808080" begin="zoomminus.mouseover" end="zoomminus.mouseout"/>
                        </use>
                        <path d="M-4,0h8" fill="none" stroke="white" stroke-width="1.5" pointer-events="none"/>
                </g>
                <g id="dirArrow">
                        <path fill="none" stroke="white" stroke-width="1.5" d="M0,-3.0v7 M-2.5,-0.5L0,-3.0L2.5,-0.5"/>
                </g>
               <g id="resetDef">
                       <use xlink:href="#rim2" fill="#404040">
                               <set attributeName="fill" to="#808080" begin="reset.mouseover" end="reset.mouseout"/>
                       </use>
               </g>
        </defs>

<script type="text/javascript">
var viewWidth = 1059;
var viewHeight = 375;
var sectionId = 'dynsection-0';
</script>
<script xlink:href="../../svgpan.js"/>
<svg id="graph" class="graph">
<g id="viewport">
<title>engine/Primitives/Cube/Cube.cpp</title>
<!-- Node1 -->
<g id="node1" class="node"><title>Node1</title>
<polygon fill="#bfbfbf" stroke="black" points="126.5,-336.5 126.5,-366.5 244.5,-366.5 244.5,-336.5 126.5,-336.5"/>
<text text-anchor="start" x="134.5" y="-354.5" font-family="Helvetica,sans-Serif" font-size="10.00">engine/Primitives/Cube</text>
<text text-anchor="middle" x="185.5" y="-343.5" font-family="Helvetica,sans-Serif" font-size="10.00">/Cube.cpp</text>
</g>
<!-- Node2 -->
<g id="node2" class="node"><title>Node2</title>
<g id="a_node2"><a xlink:href="../../de/df7/worldparticles_8hpp.html" target="_top" xlink:title="wordparticles configuration file ">
<polygon fill="none" stroke="black" points="0,-112.5 0,-131.5 95,-131.5 95,-112.5 0,-112.5"/>
<text text-anchor="middle" x="47.5" y="-119.5" font-family="Helvetica,sans-Serif" font-size="10.00">worldparticles.hpp</text>
</a>
</g>
</g>
<!-- Node1&#45;&gt;Node2 -->
<g id="edge1" class="edge"><title>Node1&#45;&gt;Node2</title>
<path fill="none" stroke="midnightblue" d="M161.93,-336.436C134.211,-318.583 89.0061,-285.107 65.5,-244 47.0246,-211.69 45.409,-166.914 46.2281,-141.88"/>
<polygon fill="midnightblue" stroke="midnightblue" points="49.7383,-141.762 46.7432,-131.599 42.7471,-141.411 49.7383,-141.762"/>
</g>
<!-- Node3 -->
<g id="node3" class="node"><title>Node3</title>
<g id="a_node3"><a xlink:href="../../d4/dd0/Cube_8hpp.html" target="_top" xlink:title="Cube.hpp">
<polygon fill="none" stroke="black" points="199,-280.5 199,-299.5 258,-299.5 258,-280.5 199,-280.5"/>
<text text-anchor="middle" x="228.5" y="-287.5" font-family="Helvetica,sans-Serif" font-size="10.00">Cube.hpp</text>
</a>
</g>
</g>
<!-- Node1&#45;&gt;Node3 -->
<g id="edge2" class="edge"><title>Node1&#45;&gt;Node3</title>
<path fill="none" stroke="midnightblue" d="M195.69,-336.399C201.874,-327.842 209.803,-316.871 216.318,-307.857"/>
<polygon fill="midnightblue" stroke="midnightblue" points="219.222,-309.813 222.243,-299.658 213.549,-305.713 219.222,-309.813"/>
</g>
<!-- Node17 -->
<g id="node17" class="node"><title>Node17</title>
<g id="a_node17"><a xlink:href="../../de/db3/BasicRenderer_8hpp.html" target="_top" xlink:title="BasicRenderer.hpp">
<polygon fill="none" stroke="black" points="74.5,-224.5 74.5,-243.5 174.5,-243.5 174.5,-224.5 74.5,-224.5"/>
<text text-anchor="middle" x="124.5" y="-231.5" font-family="Helvetica,sans-Serif" font-size="10.00">BasicRenderer.hpp</text>
</a>
</g>
</g>
<!-- Node1&#45;&gt;Node17 -->
<g id="edge30" class="edge"><title>Node1&#45;&gt;Node17</title>
<path fill="none" stroke="midnightblue" d="M178.02,-336.337C166.88,-315.243 145.942,-275.6 133.821,-252.648"/>
<polygon fill="midnightblue" stroke="midnightblue" points="136.844,-250.877 129.079,-243.669 130.654,-254.147 136.844,-250.877"/>
</g>
<!-- Node18 -->
<g id="node18" class="node"><title>Node18</title>
<g id="a_node18"><a xlink:href="../../df/dfd/ShaderProgramManager_8hpp.html" target="_top" xlink:title="ShaderProgramManager.hpp">
<polygon fill="none" stroke="black" points="825.5,-168.5 825.5,-187.5 965.5,-187.5 965.5,-168.5 825.5,-168.5"/>
<text text-anchor="middle" x="895.5" y="-175.5" font-family="Helvetica,sans-Serif" font-size="10.00">ShaderProgramManager.hpp</text>
</a>
</g>
</g>
<!-- Node1&#45;&gt;Node18 -->
<g id="edge32" class="edge"><title>Node1&#45;&gt;Node18</title>
<path fill="none" stroke="midnightblue" d="M243.602,-336.465C381.475,-303.162 726.114,-219.915 850.136,-189.958"/>
<polygon fill="midnightblue" stroke="midnightblue" points="851.165,-193.31 860.063,-187.56 849.521,-186.506 851.165,-193.31"/>
</g>
<!-- Node4 -->
<g id="node4" class="node"><title>Node4</title>
<g id="a_node4"><a xlink:href="../../d4/db5/GameObject_8hpp.html" target="_top" xlink:title="GameObject.hpp">
<polygon fill="none" stroke="black" points="203.5,-224.5 203.5,-243.5 293.5,-243.5 293.5,-224.5 203.5,-224.5"/>
<text text-anchor="middle" x="248.5" y="-231.5" font-family="Helvetica,sans-Serif" font-size="10.00">GameObject.hpp</text>
</a>
</g>
</g>
<!-- Node3&#45;&gt;Node4 -->
<g id="edge3" class="edge"><title>Node3&#45;&gt;Node4</title>
<path fill="none" stroke="midnightblue" d="M231.803,-280.083C234.482,-272.849 238.349,-262.409 241.686,-253.397"/>
<polygon fill="midnightblue" stroke="midnightblue" points="245.068,-254.344 245.259,-243.751 238.504,-251.913 245.068,-254.344"/>
</g>
<!-- Node4&#45;&gt;Node2 -->
<g id="edge6" class="edge"><title>Node4&#45;&gt;Node2</title>
<path fill="none" stroke="midnightblue" d="M203.418,-226.413C157.619,-218.889 90.7627,-205.344 71.5,-188 58.2498,-176.07 52.2975,-156.165 49.6342,-141.519"/>
<polygon fill="midnightblue" stroke="midnightblue" points="53.0881,-140.949 48.1723,-131.564 46.1624,-141.966 53.0881,-140.949"/>
</g>
<!-- Node5 -->
<g id="node5" class="node"><title>Node5</title>
<polygon fill="none" stroke="#bfbfbf" points="202.5,-56.5 202.5,-75.5 272.5,-75.5 272.5,-56.5 202.5,-56.5"/>
<text text-anchor="middle" x="237.5" y="-63.5" font-family="Helvetica,sans-Serif" font-size="10.00">glm/glm.hpp</text>
</g>
<!-- Node4&#45;&gt;Node5 -->
<g id="edge4" class="edge"><title>Node4&#45;&gt;Node5</title>
<path fill="none" stroke="midnightblue" d="M236.003,-224.302C225.626,-216.251 211.613,-203.245 205.5,-188 191.214,-152.371 211.884,-108.294 226.068,-84.3959"/>
<polygon fill="midnightblue" stroke="midnightblue" points="229.141,-86.0816 231.453,-75.742 223.198,-82.3832 229.141,-86.0816"/>
</g>
<!-- Node6 -->
<g id="node6" class="node"><title>Node6</title>
<polygon fill="none" stroke="#bfbfbf" points="714.5,-56.5 714.5,-75.5 766.5,-75.5 766.5,-56.5 714.5,-56.5"/>
<text text-anchor="middle" x="740.5" y="-63.5" font-family="Helvetica,sans-Serif" font-size="10.00">memory</text>
</g>
<!-- Node4&#45;&gt;Node6 -->
<g id="edge5" class="edge"><title>Node4&#45;&gt;Node6</title>
<path fill="none" stroke="midnightblue" d="M293.606,-231.264C406.802,-225.841 697.819,-204.931 753.5,-132 763.84,-118.457 757.871,-98.8362 750.999,-84.6986"/>
<polygon fill="midnightblue" stroke="midnightblue" points="753.885,-82.6769 746.056,-75.5387 747.725,-86.0012 753.885,-82.6769"/>
</g>
<!-- Node7 -->
<g id="node7" class="node"><title>Node7</title>
<g id="a_node7"><a xlink:href="../../da/d83/Transform_8hpp.html" target="_top" xlink:title="Transform.hpp">
<polygon fill="none" stroke="black" points="214.5,-168.5 214.5,-187.5 294.5,-187.5 294.5,-168.5 214.5,-168.5"/>
<text text-anchor="middle" x="254.5" y="-175.5" font-family="Helvetica,sans-Serif" font-size="10.00">Transform.hpp</text>
</a>
</g>
</g>
<!-- Node4&#45;&gt;Node7 -->
<g id="edge7" class="edge"><title>Node4&#45;&gt;Node7</title>
<path fill="none" stroke="midnightblue" d="M249.491,-224.083C250.286,-216.927 251.429,-206.635 252.423,-197.691"/>
<polygon fill="midnightblue" stroke="midnightblue" points="255.902,-198.076 253.528,-187.751 248.945,-197.303 255.902,-198.076"/>
</g>
<!-- Node8 -->
<g id="node8" class="node"><title>Node8</title>
<g id="a_node8"><a xlink:href="../../d1/dca/IRenderer_8hpp.html" target="_top" xlink:title="IRenderer.hpp">
<polygon fill="none" stroke="black" points="80.5,-168.5 80.5,-187.5 158.5,-187.5 158.5,-168.5 80.5,-168.5"/>
<text text-anchor="middle" x="119.5" y="-175.5" font-family="Helvetica,sans-Serif" font-size="10.00">IRenderer.hpp</text>
</a>
</g>
</g>
<!-- Node4&#45;&gt;Node8 -->
<g id="edge9" class="edge"><title>Node4&#45;&gt;Node8</title>
<path fill="none" stroke="midnightblue" d="M228.06,-224.444C206.83,-215.557 173.401,-201.563 149.245,-191.451"/>
<polygon fill="midnightblue" stroke="midnightblue" points="150.421,-188.149 139.845,-187.516 147.718,-194.606 150.421,-188.149"/>
</g>
<!-- Node9 -->
<g id="node9" class="node"><title>Node9</title>
<g id="a_node9"><a xlink:href="../../d0/d70/Material_8hpp.html" target="_top" xlink:title="Material.hpp">
<polygon fill="none" stroke="black" points="469.5,-168.5 469.5,-187.5 539.5,-187.5 539.5,-168.5 469.5,-168.5"/>
<text text-anchor="middle" x="504.5" y="-175.5" font-family="Helvetica,sans-Serif" font-size="10.00">Material.hpp</text>
</a>
</g>
</g>
<!-- Node4&#45;&gt;Node9 -->
<g id="edge13" class="edge"><title>Node4&#45;&gt;Node9</title>
<path fill="none" stroke="midnightblue" d="M289.064,-224.444C335.527,-214.643 411.434,-198.631 459.63,-188.465"/>
<polygon fill="midnightblue" stroke="midnightblue" points="460.411,-191.877 469.473,-186.388 458.966,-185.028 460.411,-191.877"/>
</g>
<!-- Node14 -->
<g id="node14" class="node"><title>Node14</title>
<g id="a_node14"><a xlink:href="../../d1/d62/Mesh_8hpp.html" target="_top" xlink:title="Mesh.hpp">
<polygon fill="none" stroke="black" points="364,-168.5 364,-187.5 423,-187.5 423,-168.5 364,-168.5"/>
<text text-anchor="middle" x="393.5" y="-175.5" font-family="Helvetica,sans-Serif" font-size="10.00">Mesh.hpp</text>
</a>
</g>
</g>
<!-- Node4&#45;&gt;Node14 -->
<g id="edge22" class="edge"><title>Node4&#45;&gt;Node14</title>
<path fill="none" stroke="midnightblue" d="M271.476,-224.444C295.657,-215.438 333.918,-201.189 361.146,-191.049"/>
<polygon fill="midnightblue" stroke="midnightblue" points="362.482,-194.286 370.632,-187.516 360.039,-187.727 362.482,-194.286"/>
</g>
<!-- Node7&#45;&gt;Node5 -->
<g id="edge8" class="edge"><title>Node7&#45;&gt;Node5</title>
<path fill="none" stroke="midnightblue" d="M246.017,-168.234C238.446,-159.75 227.896,-146.131 223.5,-132 218.63,-116.345 223.473,-98.053 228.75,-84.8691"/>
<polygon fill="midnightblue" stroke="midnightblue" points="232.034,-86.0985 232.899,-75.539 225.638,-83.2545 232.034,-86.0985"/>
</g>
<!-- Node8&#45;&gt;Node2 -->
<g id="edge12" class="edge"><title>Node8&#45;&gt;Node2</title>
<path fill="none" stroke="midnightblue" d="M107.932,-168.324C97.0798,-160.185 80.6193,-147.839 67.6166,-138.087"/>
<polygon fill="midnightblue" stroke="midnightblue" points="69.3786,-135.034 59.2785,-131.834 65.1785,-140.634 69.3786,-135.034"/>
</g>
<!-- Node8&#45;&gt;Node5 -->
<g id="edge10" class="edge"><title>Node8&#45;&gt;Node5</title>
<path fill="none" stroke="midnightblue" d="M121.214,-168.367C124.302,-154.824 131.975,-128.435 147.5,-112 161.569,-97.1064 181.637,-86.4145 199.254,-79.2003"/>
<polygon fill="midnightblue" stroke="midnightblue" points="200.663,-82.4081 208.735,-75.5456 198.146,-75.8765 200.663,-82.4081"/>
</g>
<!-- Node8&#45;&gt;Node6 -->
<g id="edge11" class="edge"><title>Node8&#45;&gt;Node6</title>
<path fill="none" stroke="midnightblue" d="M158.867,-172.664C173.501,-171.109 190.252,-169.397 205.5,-168 307.166,-158.686 569.065,-170.792 663.5,-132 689.169,-121.456 712.591,-99.0224 726.695,-83.482"/>
<polygon fill="midnightblue" stroke="midnightblue" points="729.574,-85.5067 733.527,-75.6769 724.307,-80.8961 729.574,-85.5067"/>
</g>
<!-- Node9&#45;&gt;Node5 -->
<g id="edge14" class="edge"><title>Node9&#45;&gt;Node5</title>
<path fill="none" stroke="midnightblue" d="M501.975,-168.237C497.398,-154.016 486.318,-126.085 466.5,-112 437.526,-91.4069 340.689,-77.9028 282.629,-71.4444"/>
<polygon fill="midnightblue" stroke="midnightblue" points="282.932,-67.9569 272.613,-70.3572 282.177,-74.916 282.932,-67.9569"/>
</g>
<!-- Node9&#45;&gt;Node6 -->
<g id="edge15" class="edge"><title>Node9&#45;&gt;Node6</title>
<path fill="none" stroke="midnightblue" d="M539.795,-175.203C597.949,-171.448 710.025,-160.605 735.5,-132 746.429,-119.729 746.569,-100.469 744.644,-86.0955"/>
<polygon fill="midnightblue" stroke="midnightblue" points="748.017,-85.076 742.823,-75.8421 741.125,-86.3001 748.017,-85.076"/>
</g>
<!-- Node10 -->
<g id="node10" class="node"><title>Node10</title>
<g id="a_node10"><a xlink:href="../../dc/ddb/ShaderProgram_8hpp.html" target="_top" xlink:title="ShaderProgram.hpp">
<polygon fill="none" stroke="black" points="552,-112.5 552,-131.5 655,-131.5 655,-112.5 552,-112.5"/>
<text text-anchor="middle" x="603.5" y="-119.5" font-family="Helvetica,sans-Serif" font-size="10.00">ShaderProgram.hpp</text>
</a>
</g>
</g>
<!-- Node9&#45;&gt;Node10 -->
<g id="edge16" class="edge"><title>Node9&#45;&gt;Node10</title>
<path fill="none" stroke="midnightblue" d="M520.406,-168.324C536.138,-159.743 560.442,-146.486 578.709,-136.522"/>
<polygon fill="midnightblue" stroke="midnightblue" points="580.53,-139.516 587.633,-131.655 577.178,-133.37 580.53,-139.516"/>
</g>
<!-- Node10&#45;&gt;Node5 -->
<g id="edge17" class="edge"><title>Node10&#45;&gt;Node5</title>
<path fill="none" stroke="midnightblue" d="M551.837,-113.378C479.96,-102.773 350.948,-83.7382 282.696,-73.6682"/>
<polygon fill="midnightblue" stroke="midnightblue" points="283.085,-70.1878 272.681,-72.1907 282.063,-77.1129 283.085,-70.1878"/>
</g>
<!-- Node10&#45;&gt;Node6 -->
<g id="edge19" class="edge"><title>Node10&#45;&gt;Node6</title>
<path fill="none" stroke="midnightblue" d="M625.208,-112.444C647.855,-103.517 683.572,-89.4387 709.252,-79.3168"/>
<polygon fill="midnightblue" stroke="midnightblue" points="710.874,-82.4397 718.894,-75.5164 708.307,-75.9273 710.874,-82.4397"/>
</g>
<!-- Node11 -->
<g id="node11" class="node"><title>Node11</title>
<polygon fill="none" stroke="#bfbfbf" points="501.5,-56.5 501.5,-75.5 545.5,-75.5 545.5,-56.5 501.5,-56.5"/>
<text text-anchor="middle" x="523.5" y="-63.5" font-family="Helvetica,sans-Serif" font-size="10.00">vector</text>
</g>
<!-- Node10&#45;&gt;Node11 -->
<g id="edge18" class="edge"><title>Node10&#45;&gt;Node11</title>
<path fill="none" stroke="midnightblue" d="M590.647,-112.324C578.284,-103.979 559.37,-91.2122 544.763,-81.3524"/>
<polygon fill="midnightblue" stroke="midnightblue" points="546.568,-78.3483 536.321,-75.6545 542.652,-84.1503 546.568,-78.3483"/>
</g>
<!-- Node12 -->
<g id="node12" class="node"><title>Node12</title>
<g id="a_node12"><a xlink:href="../../d4/d6e/Shader_8hpp.html" target="_top" xlink:title="Shader.hpp">
<polygon fill="none" stroke="black" points="570.5,-56.5 570.5,-75.5 636.5,-75.5 636.5,-56.5 570.5,-56.5"/>
<text text-anchor="middle" x="603.5" y="-63.5" font-family="Helvetica,sans-Serif" font-size="10.00">Shader.hpp</text>
</a>
</g>
</g>
<!-- Node10&#45;&gt;Node12 -->
<g id="edge20" class="edge"><title>Node10&#45;&gt;Node12</title>
<path fill="none" stroke="midnightblue" d="M603.5,-112.083C603.5,-105.006 603.5,-94.8611 603.5,-85.9865"/>
<polygon fill="midnightblue" stroke="midnightblue" points="607,-85.751 603.5,-75.7511 600,-85.7511 607,-85.751"/>
</g>
<!-- Node13 -->
<g id="node13" class="node"><title>Node13</title>
<polygon fill="none" stroke="#bfbfbf" points="583,-0.5 583,-19.5 624,-19.5 624,-0.5 583,-0.5"/>
<text text-anchor="middle" x="603.5" y="-7.5" font-family="Helvetica,sans-Serif" font-size="10.00">string</text>
</g>
<!-- Node12&#45;&gt;Node13 -->
<g id="edge21" class="edge"><title>Node12&#45;&gt;Node13</title>
<path fill="none" stroke="midnightblue" d="M603.5,-56.083C603.5,-49.0059 603.5,-38.8611 603.5,-29.9865"/>
<polygon fill="midnightblue" stroke="midnightblue" points="607,-29.751 603.5,-19.7511 600,-29.7511 607,-29.751"/>
</g>
<!-- Node14&#45;&gt;Node5 -->
<g id="edge25" class="edge"><title>Node14&#45;&gt;Node5</title>
<path fill="none" stroke="midnightblue" d="M363.914,-175.142C332.951,-171.614 284.962,-161.417 256.5,-132 244.631,-119.733 240.113,-100.473 238.426,-86.0977"/>
<polygon fill="midnightblue" stroke="midnightblue" points="241.891,-85.5273 237.594,-75.8433 234.914,-86.0938 241.891,-85.5273"/>
</g>
<!-- Node14&#45;&gt;Node6 -->
<g id="edge24" class="edge"><title>Node14&#45;&gt;Node6</title>
<path fill="none" stroke="midnightblue" d="M423.097,-172.943C498.389,-162.579 691.704,-135.687 697.5,-132 714.752,-121.023 726.62,-100.354 733.449,-85.2618"/>
<polygon fill="midnightblue" stroke="midnightblue" points="736.739,-86.4674 737.376,-75.8917 730.283,-83.7618 736.739,-86.4674"/>
</g>
<!-- Node14&#45;&gt;Node11 -->
<g id="edge23" class="edge"><title>Node14&#45;&gt;Node11</title>
<path fill="none" stroke="midnightblue" d="M410.392,-168.469C425.831,-160.25 448.875,-146.895 466.5,-132 483.615,-117.536 500.154,-97.8354 510.967,-83.9253"/>
<polygon fill="midnightblue" stroke="midnightblue" points="513.929,-85.8127 517.195,-75.7338 508.357,-81.576 513.929,-85.8127"/>
</g>
<!-- Node15 -->
<g id="node15" class="node"><title>Node15</title>
<polygon fill="none" stroke="#bfbfbf" points="266,-112.5 266,-131.5 349,-131.5 349,-112.5 266,-112.5"/>
<text text-anchor="middle" x="307.5" y="-119.5" font-family="Helvetica,sans-Serif" font-size="10.00">assimp/mesh.h</text>
</g>
<!-- Node14&#45;&gt;Node15 -->
<g id="edge26" class="edge"><title>Node14&#45;&gt;Node15</title>
<path fill="none" stroke="midnightblue" d="M379.683,-168.324C366.267,-159.9 345.676,-146.971 329.914,-137.074"/>
<polygon fill="midnightblue" stroke="midnightblue" points="331.613,-134.008 321.283,-131.655 327.891,-139.936 331.613,-134.008"/>
</g>
<!-- Node16 -->
<g id="node16" class="node"><title>Node16</title>
<g id="a_node16"><a xlink:href="../../da/d04/BufferObject_8hpp.html" target="_top" xlink:title="BufferObject.hpp">
<polygon fill="none" stroke="black" points="367.5,-112.5 367.5,-131.5 457.5,-131.5 457.5,-112.5 367.5,-112.5"/>
<text text-anchor="middle" x="412.5" y="-119.5" font-family="Helvetica,sans-Serif" font-size="10.00">BufferObject.hpp</text>
</a>
</g>
</g>
<!-- Node14&#45;&gt;Node16 -->
<g id="edge27" class="edge"><title>Node14&#45;&gt;Node16</title>
<path fill="none" stroke="midnightblue" d="M396.637,-168.083C399.183,-160.849 402.856,-150.409 406.027,-141.397"/>
<polygon fill="midnightblue" stroke="midnightblue" points="409.403,-142.346 409.421,-131.751 402.8,-140.023 409.403,-142.346"/>
</g>
<!-- Node16&#45;&gt;Node5 -->
<g id="edge29" class="edge"><title>Node16&#45;&gt;Node5</title>
<path fill="none" stroke="midnightblue" d="M384.771,-112.444C355.074,-103.28 307.784,-88.6876 274.831,-78.5192"/>
<polygon fill="midnightblue" stroke="midnightblue" points="275.687,-75.1206 265.1,-75.5164 273.623,-81.8094 275.687,-75.1206"/>
</g>
<!-- Node16&#45;&gt;Node11 -->
<g id="edge28" class="edge"><title>Node16&#45;&gt;Node11</title>
<path fill="none" stroke="midnightblue" d="M430.334,-112.324C448.216,-103.625 475.975,-90.1202 496.546,-80.113"/>
<polygon fill="midnightblue" stroke="midnightblue" points="498.249,-83.1765 505.71,-75.6545 495.187,-76.8819 498.249,-83.1765"/>
</g>
<!-- Node17&#45;&gt;Node8 -->
<g id="edge31" class="edge"><title>Node17&#45;&gt;Node8</title>
<path fill="none" stroke="midnightblue" d="M123.674,-224.083C123.019,-217.006 122.08,-206.861 121.258,-197.986"/>
<polygon fill="midnightblue" stroke="midnightblue" points="124.717,-197.386 120.31,-187.751 117.747,-198.031 124.717,-197.386"/>
</g>
<!-- Node18&#45;&gt;Node6 -->
<g id="edge34" class="edge"><title>Node18&#45;&gt;Node6</title>
<path fill="none" stroke="midnightblue" d="M885.131,-168.467C869.501,-155.724 838.823,-131.167 811.5,-112 795.819,-101 777.555,-89.4507 763.477,-80.8069"/>
<polygon fill="midnightblue" stroke="midnightblue" points="765.261,-77.7954 754.901,-75.5811 761.619,-83.7732 765.261,-77.7954"/>
</g>
<!-- Node18&#45;&gt;Node10 -->
<g id="edge35" class="edge"><title>Node18&#45;&gt;Node10</title>
<path fill="none" stroke="midnightblue" d="M849.232,-168.444C797.759,-158.925 714.607,-143.547 659.501,-133.356"/>
<polygon fill="midnightblue" stroke="midnightblue" points="660.022,-129.893 649.552,-131.516 658.749,-136.777 660.022,-129.893"/>
</g>
<!-- Node19 -->
<g id="node19" class="node"><title>Node19</title>
<polygon fill="none" stroke="#bfbfbf" points="1016,-112.5 1016,-131.5 1051,-131.5 1051,-112.5 1016,-112.5"/>
<text text-anchor="middle" x="1033.5" y="-119.5" font-family="Helvetica,sans-Serif" font-size="10.00">map</text>
</g>
<!-- Node18&#45;&gt;Node19 -->
<g id="edge33" class="edge"><title>Node18&#45;&gt;Node19</title>
<path fill="none" stroke="midnightblue" d="M917.367,-168.444C941.386,-159.045 980.003,-143.934 1006.04,-133.744"/>
<polygon fill="midnightblue" stroke="midnightblue" points="1007.65,-136.874 1015.69,-129.971 1005.1,-130.356 1007.65,-136.874"/>
</g>
<!-- Node20 -->
<g id="node20" class="node"><title>Node20</title>
<g id="a_node20"><a xlink:href="../../d9/db7/ShaderProgramNames_8hpp.html" target="_top" xlink:title="ShaderProgramNames.hpp">
<polygon fill="none" stroke="black" points="863.5,-112.5 863.5,-131.5 997.5,-131.5 997.5,-112.5 863.5,-112.5"/>
<text text-anchor="middle" x="930.5" y="-119.5" font-family="Helvetica,sans-Serif" font-size="10.00">ShaderProgramNames.hpp</text>
</a>
</g>
</g>
<!-- Node18&#45;&gt;Node20 -->
<g id="edge36" class="edge"><title>Node18&#45;&gt;Node20</title>
<path fill="none" stroke="midnightblue" d="M901.28,-168.083C906.172,-160.534 913.327,-149.495 919.333,-140.23"/>
<polygon fill="midnightblue" stroke="midnightblue" points="922.326,-142.046 924.828,-131.751 916.452,-138.239 922.326,-142.046"/>
</g>
</g>
</svg>
        <g id="navigator" transform="translate(0 0)" fill="#404254">
                <rect fill="#f2f5e9" fill-opacity="0.5" stroke="#606060" stroke-width=".5" x="0" y="0" width="60" height="60"/>
                <use id="zoomplus" xlink:href="#zoomPlus" x="17" y="9" onmousedown="handleZoom(evt,'in')"/>
                <use id="zoomminus" xlink:href="#zoomMin" x="42" y="9" onmousedown="handleZoom(evt,'out')"/>
                <use id="reset" xlink:href="#resetDef" x="30" y="36" onmousedown="handleReset()"/>
                <g id="arrowUp" xlink:href="#dirArrow" transform="translate(30 24)" onmousedown="handlePan(0,-1)">
                  <use xlink:href="#rim" fill="#404040">
                        <set attributeName="fill" to="#808080" begin="arrowUp.mouseover" end="arrowUp.mouseout"/>
                  </use>
                  <path fill="none" stroke="white" stroke-width="1.5" d="M0,-3.0v7 M-2.5,-0.5L0,-3.0L2.5,-0.5"/>
                </g>
                <g id="arrowRight" xlink:href="#dirArrow" transform="rotate(90) translate(36 -43)" onmousedown="handlePan(1,0)">
                  <use xlink:href="#rim" fill="#404040">
                        <set attributeName="fill" to="#808080" begin="arrowRight.mouseover" end="arrowRight.mouseout"/>
                  </use>
                  <path fill="none" stroke="white" stroke-width="1.5" d="M0,-3.0v7 M-2.5,-0.5L0,-3.0L2.5,-0.5"/>
                </g>
                <g id="arrowDown" xlink:href="#dirArrow" transform="rotate(180) translate(-30 -48)" onmousedown="handlePan(0,1)">
                  <use xlink:href="#rim" fill="#404040">
                        <set attributeName="fill" to="#808080" begin="arrowDown.mouseover" end="arrowDown.mouseout"/>
                  </use>
                  <path fill="none" stroke="white" stroke-width="1.5" d="M0,-3.0v7 M-2.5,-0.5L0,-3.0L2.5,-0.5"/>
                </g>
                <g id="arrowLeft" xlink:href="#dirArrow" transform="rotate(270) translate(-36 17)" onmousedown="handlePan(-1,0)">
                  <use xlink:href="#rim" fill="#404040">
                        <set attributeName="fill" to="#808080" begin="arrowLeft.mouseover" end="arrowLeft.mouseout"/>
                  </use>
                  <path fill="none" stroke="white" stroke-width="1.5" d="M0,-3.0v7 M-2.5,-0.5L0,-3.0L2.5,-0.5"/>
                </g>
        </g>
        <svg viewBox="0 0 15 15" width="100%" height="30px" preserveAspectRatio="xMaxYMin meet">
         <g id="arrow_out" transform="scale(0.3 0.3)">
          <a xlink:href="Cube_8cpp__incl_org.svg" target="_base">
           <rect id="button" ry="5" rx="5" y="6" x="6" height="38" width="38"
                fill="#f2f5e9" fill-opacity="0.5" stroke="#606060" stroke-width="1.0"/>
           <path id="arrow"
             d="M 11.500037,31.436501 C 11.940474,20.09759 22.043105,11.32322 32.158766,21.979434 L 37.068811,17.246167 C 37.068811,17.246167 37.088388,32 37.088388,32 L 22.160133,31.978069 C 22.160133,31.978069 26.997745,27.140456 26.997745,27.140456 C 18.528582,18.264221 13.291696,25.230495 11.500037,31.436501 z"
             style="fill:#404040;"/>
          </a>
         </g>
        </svg>
</svg>
