<?xml version="1.0" encoding="UTF-8" standalone="no"?>
<!DOCTYPE svg PUBLIC "-//W3C//DTD SVG 1.1//EN"
 "http://www.w3.org/Graphics/SVG/1.1/DTD/svg11.dtd">
<!-- Generated by graphviz version 2.38.0 (20140413.2041)
 -->
<!-- Title: WorldParticles::Engine::Primitives::Cube Pages: 1 -->
<!--zoomable 701 -->
<svg id="main" version="1.1" xmlns="http://www.w3.org/2000/svg" xmlns:xlink="http://www.w3.org/1999/xlink" xml:space="preserve" onload="init(evt)">
<style type="text/css"><![CDATA[
.edge:hover path { stroke: red; }
.edge:hover polygon { stroke: red; fill: red; }
]]></style>
<script type="text/javascript"><![CDATA[
var edges = document.getElementsByTagName('g');
if (edges && edges.length) {
  for (var i=0;i<edges.length;i++) {
    if (edges[i].id.substr(0,4)=='edge') {
      edges[i].setAttribute('class','edge');
    }
  }
}
]]></script>
        <defs>
                <circle id="rim" cx="0" cy="0" r="7"/>
                <circle id="rim2" cx="0" cy="0" r="3.5"/>
                <g id="zoomPlus">
                        <use xlink:href="#rim" fill="#404040">
                                <set attributeName="fill" to="#808080" begin="zoomplus.mouseover" end="zoomplus.mouseout"/>
                        </use>
                        <path d="M-4,0h8M0,-4v8" fill="none" stroke="white" stroke-width="1.5" pointer-events="none"/>
                </g>
                <g id="zoomMin">
                        <use xlink:href="#rim" fill="#404040">
                                <set attributeName="fill" to="#808080" begin="zoomminus.mouseover" end="zoomminus.mouseout"/>
                        </use>
                        <path d="M-4,0h8" fill="none" stroke="white" stroke-width="1.5" pointer-events="none"/>
                </g>
                <g id="dirArrow">
                        <path fill="none" stroke="white" stroke-width="1.5" d="M0,-3.0v7 M-2.5,-0.5L0,-3.0L2.5,-0.5"/>
                </g>
               <g id="resetDef">
                       <use xlink:href="#rim2" fill="#404040">
                               <set attributeName="fill" to="#808080" begin="reset.mouseover" end="reset.mouseout"/>
                       </use>
               </g>
        </defs>

<script type="text/javascript">
var viewWidth = 718;
var viewHeight = 701;
var sectionId = 'dynsection-1';
</script>
<script xlink:href="../../svgpan.js"/>
<svg id="graph" class="graph">
<g id="viewport">
<title>WorldParticles::Engine::Primitives::Cube</title>
<!-- Node1 -->
<g id="node1" class="node"><title>Node1</title>
<polygon fill="#bfbfbf" stroke="black" points="306.5,-0.5 306.5,-101.5 422.5,-101.5 422.5,-0.5 306.5,-0.5"/>
<text text-anchor="start" x="314.5" y="-89.5" font-family="Helvetica,sans-Serif" font-size="10.00">WorldParticles::Engine</text>
<text text-anchor="middle" x="364.5" y="-78.5" font-family="Helvetica,sans-Serif" font-size="10.00">::Primitives::Cube</text>
<polyline fill="none" stroke="black" points="306.5,-71.5 422.5,-71.5 "/>
<text text-anchor="middle" x="364.5" y="-59.5" font-family="Helvetica,sans-Serif" font-size="10.00"> </text>
<polyline fill="none" stroke="black" points="306.5,-52.5 422.5,-52.5 "/>
<text text-anchor="start" x="314.5" y="-40.5" font-family="Helvetica,sans-Serif" font-size="10.00">+ Cube()</text>
<text text-anchor="start" x="314.5" y="-29.5" font-family="Helvetica,sans-Serif" font-size="10.00">+ initialise()</text>
<text text-anchor="start" x="314.5" y="-18.5" font-family="Helvetica,sans-Serif" font-size="10.00">+ draw()</text>
<text text-anchor="start" x="314.5" y="-7.5" font-family="Helvetica,sans-Serif" font-size="10.00">+ update()</text>
</g>
<!-- Node2 -->
<g id="node2" class="node"><title>Node2</title>
<g id="a_node2"><a xlink:href="../../dc/dc5/classWorldParticles_1_1Engine_1_1GameObject.html" target="_top" xlink:title="This class is used to represent an object in the 3D world. This object must be drawable. ">
<polygon fill="none" stroke="black" points="306.5,-139.5 306.5,-361.5 422.5,-361.5 422.5,-139.5 306.5,-139.5"/>
<text text-anchor="start" x="314.5" y="-349.5" font-family="Helvetica,sans-Serif" font-size="10.00">WorldParticles::Engine</text>
<text text-anchor="middle" x="364.5" y="-338.5" font-family="Helvetica,sans-Serif" font-size="10.00">::GameObject</text>
<polyline fill="none" stroke="black" points="306.5,-331.5 422.5,-331.5 "/>
<text text-anchor="middle" x="364.5" y="-319.5" font-family="Helvetica,sans-Serif" font-size="10.00"> </text>
<polyline fill="none" stroke="black" points="306.5,-312.5 422.5,-312.5 "/>
<text text-anchor="start" x="314.5" y="-300.5" font-family="Helvetica,sans-Serif" font-size="10.00">+ GameObject()</text>
<text text-anchor="start" x="314.5" y="-289.5" font-family="Helvetica,sans-Serif" font-size="10.00">+ ~GameObject()</text>
<text text-anchor="start" x="314.5" y="-278.5" font-family="Helvetica,sans-Serif" font-size="10.00">+ initialise()</text>
<text text-anchor="start" x="314.5" y="-267.5" font-family="Helvetica,sans-Serif" font-size="10.00">+ draw()</text>
<text text-anchor="start" x="314.5" y="-256.5" font-family="Helvetica,sans-Serif" font-size="10.00">+ update()</text>
<text text-anchor="start" x="314.5" y="-245.5" font-family="Helvetica,sans-Serif" font-size="10.00">+ getTransform()</text>
<text text-anchor="start" x="314.5" y="-234.5" font-family="Helvetica,sans-Serif" font-size="10.00">+ getRenderer()</text>
<text text-anchor="start" x="314.5" y="-223.5" font-family="Helvetica,sans-Serif" font-size="10.00">+ getMaterial()</text>
<text text-anchor="start" x="314.5" y="-212.5" font-family="Helvetica,sans-Serif" font-size="10.00">+ getMesh()</text>
<text text-anchor="start" x="314.5" y="-201.5" font-family="Helvetica,sans-Serif" font-size="10.00">+ getShaderProgram()</text>
<text text-anchor="start" x="314.5" y="-190.5" font-family="Helvetica,sans-Serif" font-size="10.00">+ setTransform()</text>
<text text-anchor="start" x="314.5" y="-179.5" font-family="Helvetica,sans-Serif" font-size="10.00">+ setRenderer()</text>
<text text-anchor="start" x="314.5" y="-168.5" font-family="Helvetica,sans-Serif" font-size="10.00">+ setMaterial()</text>
<text text-anchor="start" x="314.5" y="-157.5" font-family="Helvetica,sans-Serif" font-size="10.00">+ setMesh()</text>
<text text-anchor="start" x="314.5" y="-146.5" font-family="Helvetica,sans-Serif" font-size="10.00">+ setShaderProgram()</text>
</a>
</g>
</g>
<!-- Node2&#45;&gt;Node1 -->
<g id="edge1" class="edge"><title>Node2&#45;&gt;Node1</title>
<path fill="none" stroke="midnightblue" d="M364.5,-129.42C364.5,-119.839 364.5,-110.541 364.5,-101.907"/>
<polygon fill="none" stroke="midnightblue" points="361,-129.489 364.5,-139.489 368,-129.489 361,-129.489"/>
</g>
<!-- Node3 -->
<g id="node3" class="node"><title>Node3</title>
<polygon fill="none" stroke="#bfbfbf" points="0,-453.5 0,-521.5 135,-521.5 135,-453.5 0,-453.5"/>
<text text-anchor="start" x="8" y="-509.5" font-family="Helvetica,sans-Serif" font-size="10.00">shared_ptr&lt; WorldParticles</text>
<text text-anchor="middle" x="67.5" y="-498.5" font-family="Helvetica,sans-Serif" font-size="10.00">::Engine::ShaderProgram &gt;</text>
<polyline fill="none" stroke="#bfbfbf" points="0,-491.5 135,-491.5 "/>
<text text-anchor="middle" x="67.5" y="-479.5" font-family="Helvetica,sans-Serif" font-size="10.00"> </text>
<polyline fill="none" stroke="#bfbfbf" points="0,-472.5 135,-472.5 "/>
<text text-anchor="middle" x="67.5" y="-460.5" font-family="Helvetica,sans-Serif" font-size="10.00"> </text>
</g>
<!-- Node3&#45;&gt;Node2 -->
<g id="edge2" class="edge"><title>Node3&#45;&gt;Node2</title>
<path fill="none" stroke="#404040" d="M97.7213,-453.155C111.198,-438.965 127.598,-422.59 143.5,-409 192.013,-367.539 251.058,-325.861 295.908,-295.802"/>
<polygon fill="none" stroke="#404040" points="296.135,-295.651 298.908,-288.994 306.119,-288.994 303.346,-295.651 296.135,-295.651"/>
<text text-anchor="middle" x="215" y="-383" font-family="Helvetica,sans-Serif" font-size="10.00"> #shaderprogram</text>
</g>
<!-- Node4 -->
<g id="node4" class="node"><title>Node4</title>
<polygon fill="none" stroke="#bfbfbf" points="153,-453.5 153,-521.5 288,-521.5 288,-453.5 153,-453.5"/>
<text text-anchor="start" x="161" y="-509.5" font-family="Helvetica,sans-Serif" font-size="10.00">shared_ptr&lt; WorldParticles</text>
<text text-anchor="middle" x="220.5" y="-498.5" font-family="Helvetica,sans-Serif" font-size="10.00">::Engine::Material &gt;</text>
<polyline fill="none" stroke="#bfbfbf" points="153,-491.5 288,-491.5 "/>
<text text-anchor="middle" x="220.5" y="-479.5" font-family="Helvetica,sans-Serif" font-size="10.00"> </text>
<polyline fill="none" stroke="#bfbfbf" points="153,-472.5 288,-472.5 "/>
<text text-anchor="middle" x="220.5" y="-460.5" font-family="Helvetica,sans-Serif" font-size="10.00"> </text>
</g>
<!-- Node4&#45;&gt;Node2 -->
<g id="edge3" class="edge"><title>Node4&#45;&gt;Node2</title>
<path fill="none" stroke="#404040" d="M240.826,-453.329C256.35,-427.995 278.647,-391.608 300.045,-356.687"/>
<polygon fill="none" stroke="#404040" points="300.078,-356.633 299.802,-349.427 306.348,-346.401 306.624,-353.607 300.078,-356.633"/>
<text text-anchor="middle" x="306" y="-383" font-family="Helvetica,sans-Serif" font-size="10.00"> #material</text>
</g>
<!-- Node5 -->
<g id="node5" class="node"><title>Node5</title>
<g id="a_node5"><a xlink:href="../../de/d34/classWorldParticles_1_1Engine_1_1Transform.html" target="_top" xlink:title="The Transform class is used to represent an object transformation in space. (like position...">
<polygon fill="none" stroke="black" points="306.5,-409.5 306.5,-565.5 422.5,-565.5 422.5,-409.5 306.5,-409.5"/>
<text text-anchor="start" x="314.5" y="-553.5" font-family="Helvetica,sans-Serif" font-size="10.00">WorldParticles::Engine</text>
<text text-anchor="middle" x="364.5" y="-542.5" font-family="Helvetica,sans-Serif" font-size="10.00">::Transform</text>
<polyline fill="none" stroke="black" points="306.5,-535.5 422.5,-535.5 "/>
<text text-anchor="middle" x="364.5" y="-523.5" font-family="Helvetica,sans-Serif" font-size="10.00"> </text>
<polyline fill="none" stroke="black" points="306.5,-516.5 422.5,-516.5 "/>
<text text-anchor="start" x="314.5" y="-504.5" font-family="Helvetica,sans-Serif" font-size="10.00">+ Transform()</text>
<text text-anchor="start" x="314.5" y="-493.5" font-family="Helvetica,sans-Serif" font-size="10.00">+ ~Transform()</text>
<text text-anchor="start" x="314.5" y="-482.5" font-family="Helvetica,sans-Serif" font-size="10.00">+ getMatrix()</text>
<text text-anchor="start" x="314.5" y="-471.5" font-family="Helvetica,sans-Serif" font-size="10.00">+ setPosition()</text>
<text text-anchor="start" x="314.5" y="-460.5" font-family="Helvetica,sans-Serif" font-size="10.00">+ setRotation()</text>
<text text-anchor="start" x="314.5" y="-449.5" font-family="Helvetica,sans-Serif" font-size="10.00">+ setScale()</text>
<text text-anchor="start" x="314.5" y="-438.5" font-family="Helvetica,sans-Serif" font-size="10.00">+ getPosition()</text>
<text text-anchor="start" x="314.5" y="-427.5" font-family="Helvetica,sans-Serif" font-size="10.00">+ getRotation()</text>
<text text-anchor="start" x="314.5" y="-416.5" font-family="Helvetica,sans-Serif" font-size="10.00">+ getScale()</text>
</a>
</g>
</g>
<!-- Node5&#45;&gt;Node2 -->
<g id="edge4" class="edge"><title>Node5&#45;&gt;Node2</title>
<path fill="none" stroke="#404040" d="M364.5,-409.227C364.5,-397.789 364.5,-385.773 364.5,-373.69"/>
<polygon fill="none" stroke="#404040" points="364.5,-373.605 360.5,-367.605 364.5,-361.605 368.5,-367.605 364.5,-373.605"/>
<text text-anchor="middle" x="389.5" y="-383" font-family="Helvetica,sans-Serif" font-size="10.00"> #transform</text>
</g>
<!-- Node6 -->
<g id="node6" class="node"><title>Node6</title>
<polygon fill="none" stroke="#bfbfbf" points="316.5,-635.5 316.5,-692.5 354.5,-692.5 354.5,-635.5 316.5,-635.5"/>
<text text-anchor="middle" x="335.5" y="-680.5" font-family="Helvetica,sans-Serif" font-size="10.00">mat4</text>
<polyline fill="none" stroke="#bfbfbf" points="316.5,-673.5 354.5,-673.5 "/>
<text text-anchor="middle" x="335.5" y="-661.5" font-family="Helvetica,sans-Serif" font-size="10.00"> </text>
<polyline fill="none" stroke="#bfbfbf" points="316.5,-654.5 354.5,-654.5 "/>
<text text-anchor="middle" x="335.5" y="-642.5" font-family="Helvetica,sans-Serif" font-size="10.00"> </text>
</g>
<!-- Node6&#45;&gt;Node5 -->
<g id="edge5" class="edge"><title>Node6&#45;&gt;Node5</title>
<path fill="none" stroke="#404040" d="M334.019,-635.431C333.658,-620.188 333.956,-600.956 336.5,-584 336.808,-581.944 337.15,-579.871 337.52,-577.786"/>
<polygon fill="none" stroke="#404040" points="337.572,-577.528 334.831,-570.858 339.933,-565.762 342.674,-572.432 337.572,-577.528"/>
<text text-anchor="middle" x="354.5" y="-598" font-family="Helvetica,sans-Serif" font-size="10.00"> #matrix</text>
</g>
<!-- Node7 -->
<g id="node7" class="node"><title>Node7</title>
<polygon fill="none" stroke="#bfbfbf" points="375.5,-635.5 375.5,-692.5 413.5,-692.5 413.5,-635.5 375.5,-635.5"/>
<text text-anchor="middle" x="394.5" y="-680.5" font-family="Helvetica,sans-Serif" font-size="10.00">vec3</text>
<polyline fill="none" stroke="#bfbfbf" points="375.5,-673.5 413.5,-673.5 "/>
<text text-anchor="middle" x="394.5" y="-661.5" font-family="Helvetica,sans-Serif" font-size="10.00"> </text>
<polyline fill="none" stroke="#bfbfbf" points="375.5,-654.5 413.5,-654.5 "/>
<text text-anchor="middle" x="394.5" y="-642.5" font-family="Helvetica,sans-Serif" font-size="10.00"> </text>
</g>
<!-- Node7&#45;&gt;Node5 -->
<g id="edge6" class="edge"><title>Node7&#45;&gt;Node5</title>
<path fill="none" stroke="#404040" d="M389.746,-635.35C387.027,-619.531 383.446,-598.704 379.84,-577.725"/>
<polygon fill="none" stroke="#404040" points="379.812,-577.567 374.854,-572.332 377.779,-565.741 382.738,-570.976 379.812,-577.567"/>
<text text-anchor="middle" x="406.5" y="-609" font-family="Helvetica,sans-Serif" font-size="10.00"> #scale</text>
<text text-anchor="middle" x="406.5" y="-598" font-family="Helvetica,sans-Serif" font-size="10.00">#rotation</text>
<text text-anchor="middle" x="406.5" y="-587" font-family="Helvetica,sans-Serif" font-size="10.00">#position</text>
</g>
<!-- Node8 -->
<g id="node8" class="node"><title>Node8</title>
<g id="a_node8"><a xlink:href="../../d4/ddd/classWorldParticles_1_1Engine_1_1IRenderer.html" target="_top" xlink:title="This class is used to store the whole rendering part into a class. This class should be inherited...">
<polygon fill="none" stroke="black" points="440.5,-453.5 440.5,-521.5 556.5,-521.5 556.5,-453.5 440.5,-453.5"/>
<text text-anchor="start" x="448.5" y="-509.5" font-family="Helvetica,sans-Serif" font-size="10.00">WorldParticles::Engine</text>
<text text-anchor="middle" x="498.5" y="-498.5" font-family="Helvetica,sans-Serif" font-size="10.00">::IRenderer</text>
<polyline fill="none" stroke="black" points="440.5,-491.5 556.5,-491.5 "/>
<text text-anchor="middle" x="498.5" y="-479.5" font-family="Helvetica,sans-Serif" font-size="10.00"> </text>
<polyline fill="none" stroke="black" points="440.5,-472.5 556.5,-472.5 "/>
<text text-anchor="start" x="448.5" y="-460.5" font-family="Helvetica,sans-Serif" font-size="10.00">+ draw()</text>
</a>
</g>
</g>
<!-- Node8&#45;&gt;Node2 -->
<g id="edge7" class="edge"><title>Node8&#45;&gt;Node2</title>
<path fill="none" stroke="#404040" d="M479.585,-453.329C466.143,-429.754 447.242,-396.607 428.636,-363.977"/>
<polygon fill="none" stroke="#404040" points="428.557,-363.838 422.11,-360.607 422.613,-353.414 429.059,-356.645 428.557,-363.838"/>
<text text-anchor="middle" x="466.5" y="-383" font-family="Helvetica,sans-Serif" font-size="10.00"> #renderer</text>
</g>
<!-- Node9 -->
<g id="node9" class="node"><title>Node9</title>
<polygon fill="none" stroke="#bfbfbf" points="575,-453.5 575,-521.5 710,-521.5 710,-453.5 575,-453.5"/>
<text text-anchor="start" x="583" y="-509.5" font-family="Helvetica,sans-Serif" font-size="10.00">shared_ptr&lt; WorldParticles</text>
<text text-anchor="middle" x="642.5" y="-498.5" font-family="Helvetica,sans-Serif" font-size="10.00">::Engine::Mesh &gt;</text>
<polyline fill="none" stroke="#bfbfbf" points="575,-491.5 710,-491.5 "/>
<text text-anchor="middle" x="642.5" y="-479.5" font-family="Helvetica,sans-Serif" font-size="10.00"> </text>
<polyline fill="none" stroke="#bfbfbf" points="575,-472.5 710,-472.5 "/>
<text text-anchor="middle" x="642.5" y="-460.5" font-family="Helvetica,sans-Serif" font-size="10.00"> </text>
</g>
<!-- Node9&#45;&gt;Node2 -->
<g id="edge8" class="edge"><title>Node9&#45;&gt;Node2</title>
<path fill="none" stroke="#404040" d="M611.148,-453.155C597.503,-439.119 581.094,-422.861 565.5,-409 522.798,-371.043 472.151,-331.387 432.38,-301.363"/>
<polygon fill="none" stroke="#404040" points="432.365,-301.352 425.166,-300.942 422.775,-294.139 429.974,-294.548 432.365,-301.352"/>
<text text-anchor="middle" x="562" y="-383" font-family="Helvetica,sans-Serif" font-size="10.00"> #mesh</text>
</g>
</g>
</svg>
        <g id="navigator" transform="translate(0 0)" fill="#404254">
                <rect fill="#f2f5e9" fill-opacity="0.5" stroke="#606060" stroke-width=".5" x="0" y="0" width="60" height="60"/>
                <use id="zoomplus" xlink:href="#zoomPlus" x="17" y="9" onmousedown="handleZoom(evt,'in')"/>
                <use id="zoomminus" xlink:href="#zoomMin" x="42" y="9" onmousedown="handleZoom(evt,'out')"/>
                <use id="reset" xlink:href="#resetDef" x="30" y="36" onmousedown="handleReset()"/>
                <g id="arrowUp" xlink:href="#dirArrow" transform="translate(30 24)" onmousedown="handlePan(0,-1)">
                  <use xlink:href="#rim" fill="#404040">
                        <set attributeName="fill" to="#808080" begin="arrowUp.mouseover" end="arrowUp.mouseout"/>
                  </use>
                  <path fill="none" stroke="white" stroke-width="1.5" d="M0,-3.0v7 M-2.5,-0.5L0,-3.0L2.5,-0.5"/>
                </g>
                <g id="arrowRight" xlink:href="#dirArrow" transform="rotate(90) translate(36 -43)" onmousedown="handlePan(1,0)">
                  <use xlink:href="#rim" fill="#404040">
                        <set attributeName="fill" to="#808080" begin="arrowRight.mouseover" end="arrowRight.mouseout"/>
                  </use>
                  <path fill="none" stroke="white" stroke-width="1.5" d="M0,-3.0v7 M-2.5,-0.5L0,-3.0L2.5,-0.5"/>
                </g>
                <g id="arrowDown" xlink:href="#dirArrow" transform="rotate(180) translate(-30 -48)" onmousedown="handlePan(0,1)">
                  <use xlink:href="#rim" fill="#404040">
                        <set attributeName="fill" to="#808080" begin="arrowDown.mouseover" end="arrowDown.mouseout"/>
                  </use>
                  <path fill="none" stroke="white" stroke-width="1.5" d="M0,-3.0v7 M-2.5,-0.5L0,-3.0L2.5,-0.5"/>
                </g>
                <g id="arrowLeft" xlink:href="#dirArrow" transform="rotate(270) translate(-36 17)" onmousedown="handlePan(-1,0)">
                  <use xlink:href="#rim" fill="#404040">
                        <set attributeName="fill" to="#808080" begin="arrowLeft.mouseover" end="arrowLeft.mouseout"/>
                  </use>
                  <path fill="none" stroke="white" stroke-width="1.5" d="M0,-3.0v7 M-2.5,-0.5L0,-3.0L2.5,-0.5"/>
                </g>
        </g>
        <svg viewBox="0 0 15 15" width="100%" height="30px" preserveAspectRatio="xMaxYMin meet">
         <g id="arrow_out" transform="scale(0.3 0.3)">
          <a xlink:href="classWorldParticles_1_1Engine_1_1Primitives_1_1Cube__coll__graph_org.svg" target="_base">
           <rect id="button" ry="5" rx="5" y="6" x="6" height="38" width="38"
                fill="#f2f5e9" fill-opacity="0.5" stroke="#606060" stroke-width="1.0"/>
           <path id="arrow"
             d="M 11.500037,31.436501 C 11.940474,20.09759 22.043105,11.32322 32.158766,21.979434 L 37.068811,17.246167 C 37.068811,17.246167 37.088388,32 37.088388,32 L 22.160133,31.978069 C 22.160133,31.978069 26.997745,27.140456 26.997745,27.140456 C 18.528582,18.264221 13.291696,25.230495 11.500037,31.436501 z"
             style="fill:#404040;"/>
          </a>
         </g>
        </svg>
</svg>
