<?xml version="1.0" encoding="UTF-8" standalone="no"?>
<!DOCTYPE svg PUBLIC "-//W3C//DTD SVG 1.1//EN"
 "http://www.w3.org/Graphics/SVG/1.1/DTD/svg11.dtd">
<!-- Generated by graphviz version 2.38.0 (20140413.2041)
 -->
<!-- Title: engine/ShaderProgramLibrary/ShaderProgramLibrary.cpp Pages: 1 -->
<svg width="663pt" height="263pt"
 viewBox="0.00 0.00 663.00 263.00" xmlns="http://www.w3.org/2000/svg" xmlns:xlink="http://www.w3.org/1999/xlink">
<g id="graph0" class="graph" transform="scale(1 1) rotate(0) translate(4 259)">
<title>engine/ShaderProgramLibrary/ShaderProgramLibrary.cpp</title>
<!-- Node1 -->
<g id="node1" class="node"><title>Node1</title>
<polygon fill="#bfbfbf" stroke="black" points="110,-224.5 110,-254.5 255,-254.5 255,-224.5 110,-224.5"/>
<text text-anchor="start" x="118" y="-242.5" font-family="Helvetica,sans-Serif" font-size="10.00">engine/ShaderProgramLibrary</text>
<text text-anchor="middle" x="182.5" y="-231.5" font-family="Helvetica,sans-Serif" font-size="10.00">/ShaderProgramLibrary.cpp</text>
</g>
<!-- Node2 -->
<g id="node2" class="node"><title>Node2</title>
<polygon fill="none" stroke="#bfbfbf" points="0,-168.5 0,-187.5 107,-187.5 107,-168.5 0,-168.5"/>
<text text-anchor="middle" x="53.5" y="-175.5" font-family="Helvetica,sans-Serif" font-size="10.00">log4cpp/Category.hh</text>
</g>
<!-- Node1&#45;&gt;Node2 -->
<g id="edge1" class="edge"><title>Node1&#45;&gt;Node2</title>
<path fill="none" stroke="midnightblue" d="M151.929,-224.399C130.575,-214.55 102.285,-201.501 81.5151,-191.922"/>
<polygon fill="midnightblue" stroke="midnightblue" points="82.8172,-188.668 72.2706,-187.658 79.8853,-195.024 82.8172,-188.668"/>
</g>
<!-- Node3 -->
<g id="node3" class="node"><title>Node3</title>
<g id="a_node3"><a xlink:href="../../d2/db1/ShaderLibrary_8hpp.html" target="_top" xlink:title="ShaderLibrary.hpp">
<polygon fill="none" stroke="black" points="88,-112.5 88,-131.5 183,-131.5 183,-112.5 88,-112.5"/>
<text text-anchor="middle" x="135.5" y="-119.5" font-family="Helvetica,sans-Serif" font-size="10.00">ShaderLibrary.hpp</text>
</a>
</g>
</g>
<!-- Node1&#45;&gt;Node3 -->
<g id="edge2" class="edge"><title>Node1&#45;&gt;Node3</title>
<path fill="none" stroke="midnightblue" d="M173.533,-224.341C167.548,-214.445 159.828,-200.767 154.5,-188 148.133,-172.742 143.028,-154.633 139.719,-141.41"/>
<polygon fill="midnightblue" stroke="midnightblue" points="143.108,-140.531 137.375,-131.621 136.3,-142.161 143.108,-140.531"/>
</g>
<!-- Node11 -->
<g id="node11" class="node"><title>Node11</title>
<g id="a_node11"><a xlink:href="../../d1/d93/ShaderProgramLibrary_8hpp.html" target="_top" xlink:title="ShaderProgramLibrary.hpp">
<polygon fill="none" stroke="black" points="163.5,-168.5 163.5,-187.5 295.5,-187.5 295.5,-168.5 163.5,-168.5"/>
<text text-anchor="middle" x="229.5" y="-175.5" font-family="Helvetica,sans-Serif" font-size="10.00">ShaderProgramLibrary.hpp</text>
</a>
</g>
</g>
<!-- Node1&#45;&gt;Node11 -->
<g id="edge11" class="edge"><title>Node1&#45;&gt;Node11</title>
<path fill="none" stroke="midnightblue" d="M193.638,-224.399C200.468,-215.753 209.245,-204.642 216.406,-195.576"/>
<polygon fill="midnightblue" stroke="midnightblue" points="219.209,-197.674 222.661,-187.658 213.716,-193.335 219.209,-197.674"/>
</g>
<!-- Node15 -->
<g id="node15" class="node"><title>Node15</title>
<g id="a_node15"><a xlink:href="../../dd/d4f/ShaderProgramMapping_8hpp.html" target="_top" xlink:title="internal/ShaderProgramMapping.hpp">
<polygon fill="none" stroke="black" points="396.5,-168.5 396.5,-187.5 570.5,-187.5 570.5,-168.5 396.5,-168.5"/>
<text text-anchor="middle" x="483.5" y="-175.5" font-family="Helvetica,sans-Serif" font-size="10.00">internal/ShaderProgramMapping.hpp</text>
</a>
</g>
</g>
<!-- Node1&#45;&gt;Node15 -->
<g id="edge21" class="edge"><title>Node1&#45;&gt;Node15</title>
<path fill="none" stroke="midnightblue" d="M253.452,-224.475C307.648,-213.761 381.158,-199.23 430.354,-189.506"/>
<polygon fill="midnightblue" stroke="midnightblue" points="431.336,-192.879 440.468,-187.506 429.979,-186.012 431.336,-192.879"/>
</g>
<!-- Node4 -->
<g id="node4" class="node"><title>Node4</title>
<polygon fill="none" stroke="#bfbfbf" points="185.5,-56.5 185.5,-75.5 237.5,-75.5 237.5,-56.5 185.5,-56.5"/>
<text text-anchor="middle" x="211.5" y="-63.5" font-family="Helvetica,sans-Serif" font-size="10.00">memory</text>
</g>
<!-- Node3&#45;&gt;Node4 -->
<g id="edge3" class="edge"><title>Node3&#45;&gt;Node4</title>
<path fill="none" stroke="midnightblue" d="M147.711,-112.324C159.276,-104.107 176.875,-91.6017 190.661,-81.8069"/>
<polygon fill="midnightblue" stroke="midnightblue" points="192.943,-84.4791 199.067,-75.8339 188.888,-78.7729 192.943,-84.4791"/>
</g>
<!-- Node5 -->
<g id="node5" class="node"><title>Node5</title>
<g id="a_node5"><a xlink:href="../../df/d67/Library_8hpp.html" target="_top" xlink:title="Library.hpp">
<polygon fill="none" stroke="black" points="84,-56.5 84,-75.5 149,-75.5 149,-56.5 84,-56.5"/>
<text text-anchor="middle" x="116.5" y="-63.5" font-family="Helvetica,sans-Serif" font-size="10.00">Library.hpp</text>
</a>
</g>
</g>
<!-- Node3&#45;&gt;Node5 -->
<g id="edge4" class="edge"><title>Node3&#45;&gt;Node5</title>
<path fill="none" stroke="midnightblue" d="M132.363,-112.083C129.817,-104.849 126.144,-94.4087 122.973,-85.3968"/>
<polygon fill="midnightblue" stroke="midnightblue" points="126.2,-84.0225 119.579,-75.7511 119.597,-86.3459 126.2,-84.0225"/>
</g>
<!-- Node8 -->
<g id="node8" class="node"><title>Node8</title>
<g id="a_node8"><a xlink:href="../../d4/d6e/Shader_8hpp.html" target="_top" xlink:title="Shader.hpp">
<polygon fill="none" stroke="black" points="255.5,-56.5 255.5,-75.5 321.5,-75.5 321.5,-56.5 255.5,-56.5"/>
<text text-anchor="middle" x="288.5" y="-63.5" font-family="Helvetica,sans-Serif" font-size="10.00">Shader.hpp</text>
</a>
</g>
</g>
<!-- Node3&#45;&gt;Node8 -->
<g id="edge8" class="edge"><title>Node3&#45;&gt;Node8</title>
<path fill="none" stroke="midnightblue" d="M159.743,-112.444C185.371,-103.399 225.985,-89.064 254.738,-78.9158"/>
<polygon fill="midnightblue" stroke="midnightblue" points="256.105,-82.1452 264.37,-75.5164 253.775,-75.5442 256.105,-82.1452"/>
</g>
<!-- Node10 -->
<g id="node10" class="node"><title>Node10</title>
<g id="a_node10"><a xlink:href="../../d2/dba/ShaderNames_8hpp.html" target="_top" xlink:title="ShaderNames.hpp">
<polygon fill="none" stroke="black" points="465.5,-56.5 465.5,-75.5 563.5,-75.5 563.5,-56.5 465.5,-56.5"/>
<text text-anchor="middle" x="514.5" y="-63.5" font-family="Helvetica,sans-Serif" font-size="10.00">ShaderNames.hpp</text>
</a>
</g>
</g>
<!-- Node3&#45;&gt;Node10 -->
<g id="edge10" class="edge"><title>Node3&#45;&gt;Node10</title>
<path fill="none" stroke="midnightblue" d="M183.117,-114.216C252.138,-104.381 379.92,-86.1751 455.04,-75.4719"/>
<polygon fill="midnightblue" stroke="midnightblue" points="455.872,-78.8888 465.278,-74.0131 454.885,-71.9587 455.872,-78.8888"/>
</g>
<!-- Node5&#45;&gt;Node5 -->
<g id="edge7" class="edge"><title>Node5&#45;&gt;Node5</title>
<path fill="none" stroke="midnightblue" d="M138.038,-75.5252C152.673,-78.3079 167,-75.1328 167,-66 167,-59.0077 158.602,-55.5077 148.097,-55.5"/>
<polygon fill="midnightblue" stroke="midnightblue" points="147.654,-52.0265 138.038,-56.4748 148.329,-58.9938 147.654,-52.0265"/>
</g>
<!-- Node6 -->
<g id="node6" class="node"><title>Node6</title>
<polygon fill="none" stroke="#bfbfbf" points="415.5,-0.5 415.5,-19.5 459.5,-19.5 459.5,-0.5 415.5,-0.5"/>
<text text-anchor="middle" x="437.5" y="-7.5" font-family="Helvetica,sans-Serif" font-size="10.00">vector</text>
</g>
<!-- Node5&#45;&gt;Node6 -->
<g id="edge5" class="edge"><title>Node5&#45;&gt;Node6</title>
<path fill="none" stroke="midnightblue" d="M149.046,-59.525C210.822,-49.1328 344.364,-26.6678 405.62,-16.363"/>
<polygon fill="midnightblue" stroke="midnightblue" points="406.217,-19.8119 415.498,-14.7013 405.056,-12.9089 406.217,-19.8119"/>
</g>
<!-- Node7 -->
<g id="node7" class="node"><title>Node7</title>
<polygon fill="none" stroke="#bfbfbf" points="85.5,-0.5 85.5,-19.5 147.5,-19.5 147.5,-0.5 85.5,-0.5"/>
<text text-anchor="middle" x="116.5" y="-7.5" font-family="Helvetica,sans-Serif" font-size="10.00">Library.tpp</text>
</g>
<!-- Node5&#45;&gt;Node7 -->
<g id="edge6" class="edge"><title>Node5&#45;&gt;Node7</title>
<path fill="none" stroke="midnightblue" d="M116.5,-56.083C116.5,-49.0059 116.5,-38.8611 116.5,-29.9865"/>
<polygon fill="midnightblue" stroke="midnightblue" points="120,-29.751 116.5,-19.7511 113,-29.7511 120,-29.751"/>
</g>
<!-- Node9 -->
<g id="node9" class="node"><title>Node9</title>
<polygon fill="none" stroke="#bfbfbf" points="268,-0.5 268,-19.5 309,-19.5 309,-0.5 268,-0.5"/>
<text text-anchor="middle" x="288.5" y="-7.5" font-family="Helvetica,sans-Serif" font-size="10.00">string</text>
</g>
<!-- Node8&#45;&gt;Node9 -->
<g id="edge9" class="edge"><title>Node8&#45;&gt;Node9</title>
<path fill="none" stroke="midnightblue" d="M288.5,-56.083C288.5,-49.0059 288.5,-38.8611 288.5,-29.9865"/>
<polygon fill="midnightblue" stroke="midnightblue" points="292,-29.751 288.5,-19.7511 285,-29.7511 292,-29.751"/>
</g>
<!-- Node11&#45;&gt;Node3 -->
<g id="edge20" class="edge"><title>Node11&#45;&gt;Node3</title>
<path fill="none" stroke="midnightblue" d="M214.397,-168.324C199.597,-159.822 176.806,-146.729 159.518,-136.797"/>
<polygon fill="midnightblue" stroke="midnightblue" points="160.98,-133.601 150.565,-131.655 157.493,-139.671 160.98,-133.601"/>
</g>
<!-- Node11&#45;&gt;Node4 -->
<g id="edge12" class="edge"><title>Node11&#45;&gt;Node4</title>
<path fill="none" stroke="midnightblue" d="M228.088,-168.368C225.183,-150.617 218.482,-109.666 214.543,-85.5974"/>
<polygon fill="midnightblue" stroke="midnightblue" points="217.975,-84.8949 212.906,-75.5914 211.067,-86.0254 217.975,-84.8949"/>
</g>
<!-- Node11&#45;&gt;Node5 -->
<g id="edge13" class="edge"><title>Node11&#45;&gt;Node5</title>
<path fill="none" stroke="midnightblue" d="M163.154,-174.615C132.237,-169.754 98.0368,-158.208 78.5,-132 66.569,-115.995 82.3965,-95.9534 97.1095,-82.3874"/>
<polygon fill="midnightblue" stroke="midnightblue" points="99.706,-84.7695 104.985,-75.5836 95.1299,-79.4723 99.706,-84.7695"/>
</g>
<!-- Node12 -->
<g id="node12" class="node"><title>Node12</title>
<g id="a_node12"><a xlink:href="../../dc/ddb/ShaderProgram_8hpp.html" target="_top" xlink:title="ShaderProgram.hpp">
<polygon fill="none" stroke="black" points="392,-112.5 392,-131.5 495,-131.5 495,-112.5 392,-112.5"/>
<text text-anchor="middle" x="443.5" y="-119.5" font-family="Helvetica,sans-Serif" font-size="10.00">ShaderProgram.hpp</text>
</a>
</g>
</g>
<!-- Node11&#45;&gt;Node12 -->
<g id="edge14" class="edge"><title>Node11&#45;&gt;Node12</title>
<path fill="none" stroke="midnightblue" d="M263.409,-168.444C300.349,-159.122 359.554,-144.183 399.918,-133.997"/>
<polygon fill="midnightblue" stroke="midnightblue" points="400.91,-137.357 409.75,-131.516 399.197,-130.57 400.91,-137.357"/>
</g>
<!-- Node14 -->
<g id="node14" class="node"><title>Node14</title>
<g id="a_node14"><a xlink:href="../../d9/db7/ShaderProgramNames_8hpp.html" target="_top" xlink:title="ShaderProgramNames.hpp">
<polygon fill="none" stroke="black" points="239.5,-112.5 239.5,-131.5 373.5,-131.5 373.5,-112.5 239.5,-112.5"/>
<text text-anchor="middle" x="306.5" y="-119.5" font-family="Helvetica,sans-Serif" font-size="10.00">ShaderProgramNames.hpp</text>
</a>
</g>
</g>
<!-- Node11&#45;&gt;Node14 -->
<g id="edge19" class="edge"><title>Node11&#45;&gt;Node14</title>
<path fill="none" stroke="midnightblue" d="M241.871,-168.324C253.658,-160.058 271.632,-147.453 285.636,-137.632"/>
<polygon fill="midnightblue" stroke="midnightblue" points="287.982,-140.262 294.159,-131.655 283.962,-134.531 287.982,-140.262"/>
</g>
<!-- Node12&#45;&gt;Node4 -->
<g id="edge17" class="edge"><title>Node12&#45;&gt;Node4</title>
<path fill="none" stroke="midnightblue" d="M404.553,-112.43C366.858,-104.064 307.854,-90.7768 247.876,-76.2885"/>
<polygon fill="midnightblue" stroke="midnightblue" points="248.397,-72.8135 237.854,-73.8583 246.748,-79.6163 248.397,-72.8135"/>
</g>
<!-- Node12&#45;&gt;Node6 -->
<g id="edge16" class="edge"><title>Node12&#45;&gt;Node6</title>
<path fill="none" stroke="midnightblue" d="M443.029,-112.368C442.061,-94.617 439.827,-53.6664 438.514,-29.5974"/>
<polygon fill="midnightblue" stroke="midnightblue" points="442.008,-29.3859 437.969,-19.5914 435.019,-29.7672 442.008,-29.3859"/>
</g>
<!-- Node12&#45;&gt;Node8 -->
<g id="edge18" class="edge"><title>Node12&#45;&gt;Node8</title>
<path fill="none" stroke="midnightblue" d="M418.94,-112.444C392.977,-103.399 351.832,-89.064 322.703,-78.9158"/>
<polygon fill="midnightblue" stroke="midnightblue" points="323.54,-75.5013 312.945,-75.5164 321.237,-82.1116 323.54,-75.5013"/>
</g>
<!-- Node13 -->
<g id="node13" class="node"><title>Node13</title>
<polygon fill="none" stroke="#bfbfbf" points="339.5,-56.5 339.5,-75.5 409.5,-75.5 409.5,-56.5 339.5,-56.5"/>
<text text-anchor="middle" x="374.5" y="-63.5" font-family="Helvetica,sans-Serif" font-size="10.00">glm/glm.hpp</text>
</g>
<!-- Node12&#45;&gt;Node13 -->
<g id="edge15" class="edge"><title>Node12&#45;&gt;Node13</title>
<path fill="none" stroke="midnightblue" d="M432.414,-112.324C422.014,-104.185 406.239,-91.8395 393.778,-82.0874"/>
<polygon fill="midnightblue" stroke="midnightblue" points="395.82,-79.2407 385.788,-75.8339 391.506,-84.7533 395.82,-79.2407"/>
</g>
<!-- Node15&#45;&gt;Node6 -->
<g id="edge23" class="edge"><title>Node15&#45;&gt;Node6</title>
<path fill="none" stroke="midnightblue" d="M498.791,-168.237C531.521,-148.363 602.996,-98.3104 572.5,-56 549.204,-23.6784 501.684,-14.2212 469.706,-11.6479"/>
<polygon fill="midnightblue" stroke="midnightblue" points="469.712,-8.14162 459.514,-11.016 469.279,-15.1282 469.712,-8.14162"/>
</g>
<!-- Node15&#45;&gt;Node10 -->
<g id="edge25" class="edge"><title>Node15&#45;&gt;Node10</title>
<path fill="none" stroke="midnightblue" d="M488.455,-168.33C493.293,-159.478 500.494,-145.2 504.5,-132 509.116,-116.79 511.669,-98.8995 513.037,-85.7425"/>
<polygon fill="midnightblue" stroke="midnightblue" points="516.541,-85.86 513.957,-75.5851 509.569,-85.2286 516.541,-85.86"/>
</g>
<!-- Node15&#45;&gt;Node12 -->
<g id="edge24" class="edge"><title>Node15&#45;&gt;Node12</title>
<path fill="none" stroke="midnightblue" d="M476.895,-168.083C471.245,-160.455 462.955,-149.264 456.049,-139.941"/>
<polygon fill="midnightblue" stroke="midnightblue" points="458.747,-137.703 449.982,-131.751 453.122,-141.87 458.747,-137.703"/>
</g>
<!-- Node15&#45;&gt;Node14 -->
<g id="edge26" class="edge"><title>Node15&#45;&gt;Node14</title>
<path fill="none" stroke="midnightblue" d="M455.454,-168.444C425.418,-159.28 377.587,-144.688 344.257,-134.519"/>
<polygon fill="midnightblue" stroke="midnightblue" points="345.001,-131.087 334.415,-131.516 342.958,-137.782 345.001,-131.087"/>
</g>
<!-- Node16 -->
<g id="node16" class="node"><title>Node16</title>
<polygon fill="none" stroke="#bfbfbf" points="620,-112.5 620,-131.5 655,-131.5 655,-112.5 620,-112.5"/>
<text text-anchor="middle" x="637.5" y="-119.5" font-family="Helvetica,sans-Serif" font-size="10.00">map</text>
</g>
<!-- Node15&#45;&gt;Node16 -->
<g id="edge22" class="edge"><title>Node15&#45;&gt;Node16</title>
<path fill="none" stroke="midnightblue" d="M507.902,-168.444C535.821,-158.654 581.412,-142.667 610.41,-132.499"/>
<polygon fill="midnightblue" stroke="midnightblue" points="611.64,-135.777 619.919,-129.165 609.324,-129.171 611.64,-135.777"/>
</g>
</g>
</svg>
