<?xml version="1.0" encoding="UTF-8" standalone="no"?>
<!DOCTYPE svg PUBLIC "-//W3C//DTD SVG 1.1//EN"
 "http://www.w3.org/Graphics/SVG/1.1/DTD/svg11.dtd">
<!-- Generated by graphviz version 2.38.0 (20140413.2041)
 -->
<!-- Title: Core/ShaderProgramLibrary.cpp Pages: 1 -->
<svg width="604pt" height="95pt"
 viewBox="0.00 0.00 604.00 95.00" xmlns="http://www.w3.org/2000/svg" xmlns:xlink="http://www.w3.org/1999/xlink">
<g id="graph0" class="graph" transform="scale(1 1) rotate(0) translate(4 91)">
<title>Core/ShaderProgramLibrary.cpp</title>
<!-- Node1 -->
<g id="node1" class="node"><title>Node1</title>
<polygon fill="#bfbfbf" stroke="black" points="205.5,-67.5 205.5,-86.5 361.5,-86.5 361.5,-67.5 205.5,-67.5"/>
<text text-anchor="middle" x="283.5" y="-74.5" font-family="Helvetica,sans-Serif" font-size="10.00">Core/ShaderProgramLibrary.cpp</text>
</g>
<!-- Node2 -->
<g id="node2" class="node"><title>Node2</title>
<polygon fill="none" stroke="#bfbfbf" points="0,-6 0,-25 107,-25 107,-6 0,-6"/>
<text text-anchor="middle" x="53.5" y="-13" font-family="Helvetica,sans-Serif" font-size="10.00">log4cpp/Category.hh</text>
</g>
<!-- Node1&#45;&gt;Node2 -->
<g id="edge1" class="edge"><title>Node1&#45;&gt;Node2</title>
<path fill="none" stroke="midnightblue" d="M250.547,-67.4751C209.898,-56.9595 140.713,-39.0615 96.0758,-27.5142"/>
<polygon fill="midnightblue" stroke="midnightblue" points="96.9502,-24.1252 86.3923,-25.0091 95.197,-30.9021 96.9502,-24.1252"/>
</g>
<!-- Node3 -->
<g id="node3" class="node"><title>Node3</title>
<polygon fill="none" stroke="#bfbfbf" points="125.5,-6 125.5,-25 277.5,-25 277.5,-6 125.5,-6"/>
<text text-anchor="middle" x="201.5" y="-13" font-family="Helvetica,sans-Serif" font-size="10.00">Engine/Core/ShaderLibrary.hpp</text>
</g>
<!-- Node1&#45;&gt;Node3 -->
<g id="edge2" class="edge"><title>Node1&#45;&gt;Node3</title>
<path fill="none" stroke="midnightblue" d="M271.751,-67.4751C258.721,-58.0199 237.464,-42.5961 221.741,-31.1871"/>
<polygon fill="midnightblue" stroke="midnightblue" points="223.376,-28.0492 213.227,-25.0091 219.265,-33.7149 223.376,-28.0492"/>
</g>
<!-- Node4 -->
<g id="node4" class="node"><title>Node4</title>
<polygon fill="none" stroke="#bfbfbf" points="296,-0.5 296,-30.5 437,-30.5 437,-0.5 296,-0.5"/>
<text text-anchor="start" x="304" y="-18.5" font-family="Helvetica,sans-Serif" font-size="10.00">Engine/Core/ShaderProgram</text>
<text text-anchor="middle" x="366.5" y="-7.5" font-family="Helvetica,sans-Serif" font-size="10.00">Library.hpp</text>
</g>
<!-- Node1&#45;&gt;Node4 -->
<g id="edge3" class="edge"><title>Node1&#45;&gt;Node4</title>
<path fill="none" stroke="midnightblue" d="M295.392,-67.4751C306.633,-59.4167 323.922,-47.0229 338.637,-36.4741"/>
<polygon fill="midnightblue" stroke="midnightblue" points="340.85,-39.1939 346.939,-30.523 336.772,-33.5047 340.85,-39.1939"/>
</g>
<!-- Node5 -->
<g id="node5" class="node"><title>Node5</title>
<polygon fill="none" stroke="#bfbfbf" points="455,-0.5 455,-30.5 596,-30.5 596,-0.5 455,-0.5"/>
<text text-anchor="start" x="463" y="-18.5" font-family="Helvetica,sans-Serif" font-size="10.00">Engine/Core/ShaderProgram</text>
<text text-anchor="middle" x="525.5" y="-7.5" font-family="Helvetica,sans-Serif" font-size="10.00">Mapping.hpp</text>
</g>
<!-- Node1&#45;&gt;Node5 -->
<g id="edge4" class="edge"><title>Node1&#45;&gt;Node5</title>
<path fill="none" stroke="midnightblue" d="M318.173,-67.4751C354.701,-58.4941 413.13,-44.1282 458.664,-32.9328"/>
<polygon fill="midnightblue" stroke="midnightblue" points="459.59,-36.3094 468.465,-30.523 457.919,-29.5118 459.59,-36.3094"/>
</g>
</g>
</svg>
