<?xml version="1.0" encoding="UTF-8" standalone="no"?>
<!DOCTYPE svg PUBLIC "-//W3C//DTD SVG 1.1//EN"
 "http://www.w3.org/Graphics/SVG/1.1/DTD/svg11.dtd">
<!-- Generated by graphviz version 2.38.0 (20140413.2041)
 -->
<!-- Title: WorldParticles::Engine::ShaderProperty Pages: 1 -->
<svg width="140pt" height="182pt"
 viewBox="0.00 0.00 140.00 182.00" xmlns="http://www.w3.org/2000/svg" xmlns:xlink="http://www.w3.org/1999/xlink">
<g id="graph0" class="graph" transform="scale(1 1) rotate(0) translate(4 178)">
<title>WorldParticles::Engine::ShaderProperty</title>
<!-- Node1 -->
<g id="node1" class="node"><title>Node1</title>
<polygon fill="#bfbfbf" stroke="black" points="3,-0.5 3,-68.5 119,-68.5 119,-0.5 3,-0.5"/>
<text text-anchor="start" x="11" y="-56.5" font-family="Helvetica,sans-Serif" font-size="10.00">WorldParticles::Engine</text>
<text text-anchor="middle" x="61" y="-45.5" font-family="Helvetica,sans-Serif" font-size="10.00">::ShaderProperty</text>
<polyline fill="none" stroke="black" points="3,-38.5 119,-38.5 "/>
<text text-anchor="middle" x="61" y="-26.5" font-family="Helvetica,sans-Serif" font-size="10.00"> </text>
<polyline fill="none" stroke="black" points="3,-19.5 119,-19.5 "/>
<text text-anchor="middle" x="61" y="-7.5" font-family="Helvetica,sans-Serif" font-size="10.00"> </text>
</g>
<!-- Node2 -->
<g id="node2" class="node"><title>Node2</title>
<polygon fill="none" stroke="#bfbfbf" points="0,-116.5 0,-173.5 38,-173.5 38,-116.5 0,-116.5"/>
<text text-anchor="middle" x="19" y="-161.5" font-family="Helvetica,sans-Serif" font-size="10.00">Type</text>
<polyline fill="none" stroke="#bfbfbf" points="0,-154.5 38,-154.5 "/>
<text text-anchor="middle" x="19" y="-142.5" font-family="Helvetica,sans-Serif" font-size="10.00"> </text>
<polyline fill="none" stroke="#bfbfbf" points="0,-135.5 38,-135.5 "/>
<text text-anchor="middle" x="19" y="-123.5" font-family="Helvetica,sans-Serif" font-size="10.00"> </text>
</g>
<!-- Node2&#45;&gt;Node1 -->
<g id="edge1" class="edge"><title>Node2&#45;&gt;Node1</title>
<path fill="none" stroke="#404040" d="M15.9284,-116.385C15.7864,-106.835 16.6866,-96.2212 20,-87 20.9263,-84.4221 22.0385,-81.8755 23.2938,-79.3769"/>
<polygon fill="none" stroke="#404040" points="23.457,-79.1017 23.0785,-71.9006 29.5801,-68.7814 29.9587,-75.9826 23.457,-79.1017"/>
<text text-anchor="middle" x="50.5" y="-90" font-family="Helvetica,sans-Serif" font-size="10.00"> +shaderType</text>
</g>
<!-- Node3 -->
<g id="node3" class="node"><title>Node3</title>
<polygon fill="none" stroke="#bfbfbf" points="82.5,-116.5 82.5,-173.5 123.5,-173.5 123.5,-116.5 82.5,-116.5"/>
<text text-anchor="middle" x="103" y="-161.5" font-family="Helvetica,sans-Serif" font-size="10.00">string</text>
<polyline fill="none" stroke="#bfbfbf" points="82.5,-154.5 123.5,-154.5 "/>
<text text-anchor="middle" x="103" y="-142.5" font-family="Helvetica,sans-Serif" font-size="10.00"> </text>
<polyline fill="none" stroke="#bfbfbf" points="82.5,-135.5 123.5,-135.5 "/>
<text text-anchor="middle" x="103" y="-123.5" font-family="Helvetica,sans-Serif" font-size="10.00"> </text>
</g>
<!-- Node3&#45;&gt;Node1 -->
<g id="edge2" class="edge"><title>Node3&#45;&gt;Node1</title>
<path fill="none" stroke="#404040" d="M92.3811,-116.453C88.773,-107.102 84.7148,-96.5951 81,-87 80.1072,-84.694 79.1914,-82.3301 78.2663,-79.9434"/>
<polygon fill="none" stroke="#404040" points="78.2604,-79.928 72.3612,-75.7808 73.9205,-68.7403 79.8197,-72.8875 78.2604,-79.928"/>
<text text-anchor="middle" x="109" y="-90" font-family="Helvetica,sans-Serif" font-size="10.00"> +filename</text>
</g>
</g>
</svg>
