<?xml version="1.0" encoding="UTF-8" standalone="no"?>
<!DOCTYPE svg PUBLIC "-//W3C//DTD SVG 1.1//EN"
 "http://www.w3.org/Graphics/SVG/1.1/DTD/svg11.dtd">
<!-- Generated by graphviz version 2.38.0 (20140413.2041)
 -->
<!-- Title: window/mainwindow.cpp Pages: 1 -->
<!--zoomable 431 -->
<svg id="main" version="1.1" xmlns="http://www.w3.org/2000/svg" xmlns:xlink="http://www.w3.org/1999/xlink" xml:space="preserve" onload="init(evt)">
<style type="text/css"><![CDATA[
.edge:hover path { stroke: red; }
.edge:hover polygon { stroke: red; fill: red; }
]]></style>
<script type="text/javascript"><![CDATA[
var edges = document.getElementsByTagName('g');
if (edges && edges.length) {
  for (var i=0;i<edges.length;i++) {
    if (edges[i].id.substr(0,4)=='edge') {
      edges[i].setAttribute('class','edge');
    }
  }
}
]]></script>
        <defs>
                <circle id="rim" cx="0" cy="0" r="7"/>
                <circle id="rim2" cx="0" cy="0" r="3.5"/>
                <g id="zoomPlus">
                        <use xlink:href="#rim" fill="#404040">
                                <set attributeName="fill" to="#808080" begin="zoomplus.mouseover" end="zoomplus.mouseout"/>
                        </use>
                        <path d="M-4,0h8M0,-4v8" fill="none" stroke="white" stroke-width="1.5" pointer-events="none"/>
                </g>
                <g id="zoomMin">
                        <use xlink:href="#rim" fill="#404040">
                                <set attributeName="fill" to="#808080" begin="zoomminus.mouseover" end="zoomminus.mouseout"/>
                        </use>
                        <path d="M-4,0h8" fill="none" stroke="white" stroke-width="1.5" pointer-events="none"/>
                </g>
                <g id="dirArrow">
                        <path fill="none" stroke="white" stroke-width="1.5" d="M0,-3.0v7 M-2.5,-0.5L0,-3.0L2.5,-0.5"/>
                </g>
               <g id="resetDef">
                       <use xlink:href="#rim2" fill="#404040">
                               <set attributeName="fill" to="#808080" begin="reset.mouseover" end="reset.mouseout"/>
                       </use>
               </g>
        </defs>

<script type="text/javascript">
var viewWidth = 1869;
var viewHeight = 431;
var sectionId = 'dynsection-0';
</script>
<script xlink:href="../../svgpan.js"/>
<svg id="graph" class="graph">
<g id="viewport">
<title>window/mainwindow.cpp</title>
<!-- Node1 -->
<g id="node1" class="node"><title>Node1</title>
<polygon fill="#bfbfbf" stroke="black" points="340.5,-404 340.5,-423 465.5,-423 465.5,-404 340.5,-404"/>
<text text-anchor="middle" x="403" y="-411" font-family="Helvetica,sans-Serif" font-size="10.00">window/mainwindow.cpp</text>
</g>
<!-- Node2 -->
<g id="node2" class="node"><title>Node2</title>
<polygon fill="none" stroke="#bfbfbf" points="234.5,-348 234.5,-367 311.5,-367 311.5,-348 234.5,-348"/>
<text text-anchor="middle" x="273" y="-355" font-family="Helvetica,sans-Serif" font-size="10.00">qinputdialog.h</text>
</g>
<!-- Node1&#45;&gt;Node2 -->
<g id="edge1" class="edge"><title>Node1&#45;&gt;Node2</title>
<path fill="none" stroke="midnightblue" d="M382.401,-403.944C361.007,-395.057 327.319,-381.063 302.976,-370.951"/>
<polygon fill="midnightblue" stroke="midnightblue" points="304.08,-367.62 293.503,-367.016 301.395,-374.085 304.08,-367.62"/>
</g>
<!-- Node3 -->
<g id="node3" class="node"><title>Node3</title>
<polygon fill="none" stroke="#bfbfbf" points="330,-348 330,-367 386,-367 386,-348 330,-348"/>
<text text-anchor="middle" x="358" y="-355" font-family="Helvetica,sans-Serif" font-size="10.00">qdebug.h</text>
</g>
<!-- Node1&#45;&gt;Node3 -->
<g id="edge2" class="edge"><title>Node1&#45;&gt;Node3</title>
<path fill="none" stroke="midnightblue" d="M395.569,-403.583C389.147,-395.877 379.694,-384.533 371.878,-375.153"/>
<polygon fill="midnightblue" stroke="midnightblue" points="374.383,-372.693 365.293,-367.251 369.006,-377.174 374.383,-372.693"/>
</g>
<!-- Node4 -->
<g id="node4" class="node"><title>Node4</title>
<g id="a_node4"><a xlink:href="../../df/d50/mainwindow_8hpp.html" target="_top" xlink:title="mainwindow.hpp">
<polygon fill="none" stroke="black" points="403.5,-348 403.5,-367 492.5,-367 492.5,-348 403.5,-348"/>
<text text-anchor="middle" x="448" y="-355" font-family="Helvetica,sans-Serif" font-size="10.00">mainwindow.hpp</text>
</a>
</g>
</g>
<!-- Node1&#45;&gt;Node4 -->
<g id="edge3" class="edge"><title>Node1&#45;&gt;Node4</title>
<path fill="none" stroke="midnightblue" d="M410.431,-403.583C416.853,-395.877 426.306,-384.533 434.122,-375.153"/>
<polygon fill="midnightblue" stroke="midnightblue" points="436.994,-377.174 440.707,-367.251 431.617,-372.693 436.994,-377.174"/>
</g>
<!-- Node50 -->
<g id="node50" class="node"><title>Node50</title>
<polygon fill="none" stroke="#bfbfbf" points="511,-348 511,-367 603,-367 603,-348 511,-348"/>
<text text-anchor="middle" x="557" y="-355" font-family="Helvetica,sans-Serif" font-size="10.00">ui_mainwindow.h</text>
</g>
<!-- Node1&#45;&gt;Node50 -->
<g id="edge69" class="edge"><title>Node1&#45;&gt;Node50</title>
<path fill="none" stroke="midnightblue" d="M427.402,-403.944C453.197,-394.899 494.077,-380.564 523.018,-370.416"/>
<polygon fill="midnightblue" stroke="midnightblue" points="524.434,-373.628 532.712,-367.016 522.118,-367.023 524.434,-373.628"/>
</g>
<!-- Node5 -->
<g id="node5" class="node"><title>Node5</title>
<polygon fill="none" stroke="#bfbfbf" points="276,-292 276,-311 356,-311 356,-292 276,-292"/>
<text text-anchor="middle" x="316" y="-299" font-family="Helvetica,sans-Serif" font-size="10.00">QMainWindow</text>
</g>
<!-- Node4&#45;&gt;Node5 -->
<g id="edge4" class="edge"><title>Node4&#45;&gt;Node5</title>
<path fill="none" stroke="midnightblue" d="M427.084,-347.944C405.264,-339.017 370.85,-324.939 346.108,-314.817"/>
<polygon fill="midnightblue" stroke="midnightblue" points="347.399,-311.563 336.818,-311.016 344.748,-318.042 347.399,-311.563"/>
</g>
<!-- Node6 -->
<g id="node6" class="node"><title>Node6</title>
<g id="a_node6"><a xlink:href="../../dd/da8/toolwidget_8hpp.html" target="_top" xlink:title="toolwidget.hpp">
<polygon fill="none" stroke="black" points="374,-292 374,-311 454,-311 454,-292 374,-292"/>
<text text-anchor="middle" x="414" y="-299" font-family="Helvetica,sans-Serif" font-size="10.00">toolwidget.hpp</text>
</a>
</g>
</g>
<!-- Node4&#45;&gt;Node6 -->
<g id="edge5" class="edge"><title>Node4&#45;&gt;Node6</title>
<path fill="none" stroke="midnightblue" d="M442.386,-347.583C437.633,-340.034 430.682,-328.995 424.848,-319.73"/>
<polygon fill="midnightblue" stroke="midnightblue" points="427.8,-317.849 419.51,-311.251 421.876,-321.578 427.8,-317.849"/>
</g>
<!-- Node8 -->
<g id="node8" class="node"><title>Node8</title>
<g id="a_node8"><a xlink:href="../../dc/ddc/model_8hpp.html" target="_top" xlink:title="model.hpp">
<polygon fill="none" stroke="black" points="417,-230.5 417,-249.5 479,-249.5 479,-230.5 417,-230.5"/>
<text text-anchor="middle" x="448" y="-237.5" font-family="Helvetica,sans-Serif" font-size="10.00">model.hpp</text>
</a>
</g>
</g>
<!-- Node4&#45;&gt;Node8 -->
<g id="edge15" class="edge"><title>Node4&#45;&gt;Node8</title>
<path fill="none" stroke="midnightblue" d="M451.856,-347.749C455.558,-338.833 460.889,-324.506 463,-311.5 465.907,-293.586 460.706,-273.342 455.651,-259.158"/>
<polygon fill="midnightblue" stroke="midnightblue" points="458.834,-257.685 451.95,-249.631 452.309,-260.22 458.834,-257.685"/>
</g>
<!-- Node16 -->
<g id="node16" class="node"><title>Node16</title>
<g id="a_node16"><a xlink:href="../../d0/d5e/glwindow_8hpp.html" target="_top" xlink:title="glwindow.hpp">
<polygon fill="none" stroke="black" points="645,-292 645,-311 721,-311 721,-292 645,-292"/>
<text text-anchor="middle" x="683" y="-299" font-family="Helvetica,sans-Serif" font-size="10.00">glwindow.hpp</text>
</a>
</g>
</g>
<!-- Node4&#45;&gt;Node16 -->
<g id="edge16" class="edge"><title>Node4&#45;&gt;Node16</title>
<path fill="none" stroke="midnightblue" d="M485.236,-347.944C526.06,-338.563 591.643,-323.493 635.984,-313.304"/>
<polygon fill="midnightblue" stroke="midnightblue" points="636.976,-316.667 645.938,-311.016 635.408,-309.845 636.976,-316.667"/>
</g>
<!-- Node7 -->
<g id="node7" class="node"><title>Node7</title>
<polygon fill="none" stroke="#bfbfbf" points="327.5,-230.5 327.5,-249.5 398.5,-249.5 398.5,-230.5 327.5,-230.5"/>
<text text-anchor="middle" x="363" y="-237.5" font-family="Helvetica,sans-Serif" font-size="10.00">QTabWidget</text>
</g>
<!-- Node6&#45;&gt;Node7 -->
<g id="edge6" class="edge"><title>Node6&#45;&gt;Node7</title>
<path fill="none" stroke="midnightblue" d="M406.693,-291.975C398.967,-282.962 386.592,-268.525 376.982,-257.312"/>
<polygon fill="midnightblue" stroke="midnightblue" points="379.459,-254.824 370.294,-249.509 374.144,-259.379 379.459,-254.824"/>
</g>
<!-- Node6&#45;&gt;Node8 -->
<g id="edge7" class="edge"><title>Node6&#45;&gt;Node8</title>
<path fill="none" stroke="midnightblue" d="M418.871,-291.975C423.87,-283.227 431.789,-269.369 438.109,-258.309"/>
<polygon fill="midnightblue" stroke="midnightblue" points="441.215,-259.928 443.138,-249.509 435.137,-256.455 441.215,-259.928"/>
</g>
<!-- Node9 -->
<g id="node9" class="node"><title>Node9</title>
<g id="a_node9"><a xlink:href="../../de/d71/tools_8hpp.html" target="_top" xlink:title="tools.hpp">
<polygon fill="none" stroke="black" points="204,-169 204,-188 260,-188 260,-169 204,-169"/>
<text text-anchor="middle" x="232" y="-176" font-family="Helvetica,sans-Serif" font-size="10.00">tools.hpp</text>
</a>
</g>
</g>
<!-- Node8&#45;&gt;Node9 -->
<g id="edge8" class="edge"><title>Node8&#45;&gt;Node9</title>
<path fill="none" stroke="midnightblue" d="M424.702,-230.36C418.948,-228.337 412.778,-226.261 407,-224.5 360.297,-210.267 305.699,-196.708 270.067,-188.263"/>
<polygon fill="midnightblue" stroke="midnightblue" points="270.632,-184.801 260.096,-185.917 269.028,-191.615 270.632,-184.801"/>
</g>
<!-- Node10 -->
<g id="node10" class="node"><title>Node10</title>
<polygon fill="none" stroke="#bfbfbf" points="0,-113 0,-132 50,-132 50,-113 0,-113"/>
<text text-anchor="middle" x="25" y="-120" font-family="Helvetica,sans-Serif" font-size="10.00">QString</text>
</g>
<!-- Node9&#45;&gt;Node10 -->
<g id="edge9" class="edge"><title>Node9&#45;&gt;Node10</title>
<path fill="none" stroke="midnightblue" d="M203.823,-170.21C171.448,-161.826 116.467,-147.561 60.0497,-132.768"/>
<polygon fill="midnightblue" stroke="midnightblue" points="60.8087,-129.349 50.2478,-130.196 59.0322,-136.119 60.8087,-129.349"/>
</g>
<!-- Node11 -->
<g id="node11" class="node"><title>Node11</title>
<polygon fill="none" stroke="#bfbfbf" points="68.5,-113 68.5,-132 133.5,-132 133.5,-113 68.5,-113"/>
<text text-anchor="middle" x="101" y="-120" font-family="Helvetica,sans-Serif" font-size="10.00">QVector3D</text>
</g>
<!-- Node9&#45;&gt;Node11 -->
<g id="edge10" class="edge"><title>Node9&#45;&gt;Node11</title>
<path fill="none" stroke="midnightblue" d="M211.243,-168.944C189.684,-160.057 155.737,-146.063 131.206,-135.951"/>
<polygon fill="midnightblue" stroke="midnightblue" points="132.239,-132.592 121.66,-132.016 129.572,-139.063 132.239,-132.592"/>
</g>
<!-- Node12 -->
<g id="node12" class="node"><title>Node12</title>
<polygon fill="none" stroke="#bfbfbf" points="152,-113 152,-132 192,-132 192,-113 152,-113"/>
<text text-anchor="middle" x="172" y="-120" font-family="Helvetica,sans-Serif" font-size="10.00">QList</text>
</g>
<!-- Node9&#45;&gt;Node12 -->
<g id="edge11" class="edge"><title>Node9&#45;&gt;Node12</title>
<path fill="none" stroke="midnightblue" d="M222.36,-168.824C213.49,-160.841 200.125,-148.813 189.392,-139.153"/>
<polygon fill="midnightblue" stroke="midnightblue" points="191.59,-136.422 181.815,-132.334 186.907,-141.625 191.59,-136.422"/>
</g>
<!-- Node13 -->
<g id="node13" class="node"><title>Node13</title>
<polygon fill="none" stroke="#bfbfbf" points="210.5,-113 210.5,-132 253.5,-132 253.5,-113 210.5,-113"/>
<text text-anchor="middle" x="232" y="-120" font-family="Helvetica,sans-Serif" font-size="10.00">QMap</text>
</g>
<!-- Node9&#45;&gt;Node13 -->
<g id="edge12" class="edge"><title>Node9&#45;&gt;Node13</title>
<path fill="none" stroke="midnightblue" d="M232,-168.583C232,-161.506 232,-151.361 232,-142.486"/>
<polygon fill="midnightblue" stroke="midnightblue" points="235.5,-142.251 232,-132.251 228.5,-142.251 235.5,-142.251"/>
</g>
<!-- Node14 -->
<g id="node14" class="node"><title>Node14</title>
<polygon fill="none" stroke="#bfbfbf" points="271.5,-113 271.5,-132 362.5,-132 362.5,-113 271.5,-113"/>
<text text-anchor="middle" x="317" y="-120" font-family="Helvetica,sans-Serif" font-size="10.00">QGraphicsScene</text>
</g>
<!-- Node9&#45;&gt;Node14 -->
<g id="edge13" class="edge"><title>Node9&#45;&gt;Node14</title>
<path fill="none" stroke="midnightblue" d="M245.657,-168.824C258.916,-160.4 279.268,-147.471 294.846,-137.574"/>
<polygon fill="midnightblue" stroke="midnightblue" points="296.813,-140.471 303.377,-132.154 293.06,-134.563 296.813,-140.471"/>
</g>
<!-- Node15 -->
<g id="node15" class="node"><title>Node15</title>
<polygon fill="none" stroke="#bfbfbf" points="380.5,-113 380.5,-132 427.5,-132 427.5,-113 380.5,-113"/>
<text text-anchor="middle" x="404" y="-120" font-family="Helvetica,sans-Serif" font-size="10.00">math.h</text>
</g>
<!-- Node9&#45;&gt;Node15 -->
<g id="edge14" class="edge"><title>Node9&#45;&gt;Node15</title>
<path fill="none" stroke="midnightblue" d="M259.254,-168.944C289.427,-159.471 338.079,-144.196 370.54,-134.005"/>
<polygon fill="midnightblue" stroke="midnightblue" points="371.974,-137.223 380.467,-130.888 369.877,-130.545 371.974,-137.223"/>
</g>
<!-- Node16&#45;&gt;Node8 -->
<g id="edge68" class="edge"><title>Node16&#45;&gt;Node8</title>
<path fill="none" stroke="midnightblue" d="M644.9,-293.131C605.335,-285.147 541.812,-271.399 488,-255.5 485.368,-254.722 482.657,-253.865 479.946,-252.967"/>
<polygon fill="midnightblue" stroke="midnightblue" points="480.861,-249.58 470.267,-249.611 478.568,-256.194 480.861,-249.58"/>
</g>
<!-- Node17 -->
<g id="node17" class="node"><title>Node17</title>
<polygon fill="none" stroke="#bfbfbf" points="497.5,-230.5 497.5,-249.5 556.5,-249.5 556.5,-230.5 497.5,-230.5"/>
<text text-anchor="middle" x="527" y="-237.5" font-family="Helvetica,sans-Serif" font-size="10.00">QWindow</text>
</g>
<!-- Node16&#45;&gt;Node17 -->
<g id="edge17" class="edge"><title>Node16&#45;&gt;Node17</title>
<path fill="none" stroke="midnightblue" d="M660.649,-291.975C634.005,-281.813 589.286,-264.756 558.986,-253.2"/>
<polygon fill="midnightblue" stroke="midnightblue" points="559.9,-249.803 549.31,-249.509 557.406,-256.343 559.9,-249.803"/>
</g>
<!-- Node18 -->
<g id="node18" class="node"><title>Node18</title>
<polygon fill="none" stroke="#bfbfbf" points="574.5,-230.5 574.5,-249.5 669.5,-249.5 669.5,-230.5 574.5,-230.5"/>
<text text-anchor="middle" x="622" y="-237.5" font-family="Helvetica,sans-Serif" font-size="10.00">QOpenGLContext</text>
</g>
<!-- Node16&#45;&gt;Node18 -->
<g id="edge18" class="edge"><title>Node16&#45;&gt;Node18</title>
<path fill="none" stroke="midnightblue" d="M674.26,-291.975C664.838,-282.785 649.636,-267.956 638.051,-256.656"/>
<polygon fill="midnightblue" stroke="midnightblue" points="640.326,-253.986 630.724,-249.509 635.438,-258.997 640.326,-253.986"/>
</g>
<!-- Node19 -->
<g id="node19" class="node"><title>Node19</title>
<polygon fill="none" stroke="#bfbfbf" points="687.5,-225 687.5,-255 800.5,-255 800.5,-225 687.5,-225"/>
<text text-anchor="start" x="695.5" y="-243" font-family="Helvetica,sans-Serif" font-size="10.00">QOpenGLFunctions_4</text>
<text text-anchor="middle" x="744" y="-232" font-family="Helvetica,sans-Serif" font-size="10.00">_2_Core</text>
</g>
<!-- Node16&#45;&gt;Node19 -->
<g id="edge19" class="edge"><title>Node16&#45;&gt;Node19</title>
<path fill="none" stroke="midnightblue" d="M691.74,-291.975C699.693,-284.218 711.764,-272.443 722.302,-262.165"/>
<polygon fill="midnightblue" stroke="midnightblue" points="724.909,-264.511 729.624,-255.023 720.021,-259.5 724.909,-264.511"/>
</g>
<!-- Node20 -->
<g id="node20" class="node"><title>Node20</title>
<polygon fill="none" stroke="#bfbfbf" points="818.5,-230.5 818.5,-249.5 885.5,-249.5 885.5,-230.5 818.5,-230.5"/>
<text text-anchor="middle" x="852" y="-237.5" font-family="Helvetica,sans-Serif" font-size="10.00">QKeyEvent</text>
</g>
<!-- Node16&#45;&gt;Node20 -->
<g id="edge20" class="edge"><title>Node16&#45;&gt;Node20</title>
<path fill="none" stroke="midnightblue" d="M707.214,-291.975C736.329,-281.725 785.368,-264.459 818.202,-252.899"/>
<polygon fill="midnightblue" stroke="midnightblue" points="819.561,-256.131 827.831,-249.509 817.237,-249.529 819.561,-256.131"/>
</g>
<!-- Node21 -->
<g id="node21" class="node"><title>Node21</title>
<polygon fill="none" stroke="#bfbfbf" points="904,-230.5 904,-249.5 950,-249.5 950,-230.5 904,-230.5"/>
<text text-anchor="middle" x="927" y="-237.5" font-family="Helvetica,sans-Serif" font-size="10.00">QTime</text>
</g>
<!-- Node16&#45;&gt;Node21 -->
<g id="edge21" class="edge"><title>Node16&#45;&gt;Node21</title>
<path fill="none" stroke="midnightblue" d="M721.346,-294.74C764.103,-287.764 835.005,-274.532 894,-255.5 895.921,-254.88 897.881,-254.187 899.841,-253.448"/>
<polygon fill="midnightblue" stroke="midnightblue" points="901.525,-256.54 909.446,-249.504 898.866,-250.064 901.525,-256.54"/>
</g>
<!-- Node22 -->
<g id="node22" class="node"><title>Node22</title>
<g id="a_node22"><a xlink:href="../../d4/d1c/GameEngine_8hpp.html" target="_top" xlink:title="GameEngine.hpp">
<polygon fill="none" stroke="black" points="1184,-230.5 1184,-249.5 1276,-249.5 1276,-230.5 1184,-230.5"/>
<text text-anchor="middle" x="1230" y="-237.5" font-family="Helvetica,sans-Serif" font-size="10.00">GameEngine.hpp</text>
</a>
</g>
</g>
<!-- Node16&#45;&gt;Node22 -->
<g id="edge22" class="edge"><title>Node16&#45;&gt;Node22</title>
<path fill="none" stroke="midnightblue" d="M721.03,-296.363C815.713,-286.064 1062.38,-259.233 1173.86,-247.107"/>
<polygon fill="midnightblue" stroke="midnightblue" points="1174.33,-250.576 1183.89,-246.015 1173.57,-243.617 1174.33,-250.576"/>
</g>
<!-- Node23 -->
<g id="node23" class="node"><title>Node23</title>
<g id="a_node23"><a xlink:href="../../de/df7/worldparticles_8hpp.html" target="_top" xlink:title="wordparticles configuration file ">
<polygon fill="none" stroke="black" points="1134.5,-169 1134.5,-188 1229.5,-188 1229.5,-169 1134.5,-169"/>
<text text-anchor="middle" x="1182" y="-176" font-family="Helvetica,sans-Serif" font-size="10.00">worldparticles.hpp</text>
</a>
</g>
</g>
<!-- Node22&#45;&gt;Node23 -->
<g id="edge23" class="edge"><title>Node22&#45;&gt;Node23</title>
<path fill="none" stroke="midnightblue" d="M1223.12,-230.475C1215.85,-221.462 1204.2,-207.025 1195.16,-195.812"/>
<polygon fill="midnightblue" stroke="midnightblue" points="1197.87,-193.595 1188.86,-188.009 1192.42,-197.99 1197.87,-193.595"/>
</g>
<!-- Node24 -->
<g id="node24" class="node"><title>Node24</title>
<g id="a_node24"><a xlink:href="../../db/de8/Scene_8hpp.html" target="_top" xlink:title="Scene.hpp">
<polygon fill="none" stroke="black" points="1247.5,-169 1247.5,-188 1310.5,-188 1310.5,-169 1247.5,-169"/>
<text text-anchor="middle" x="1279" y="-176" font-family="Helvetica,sans-Serif" font-size="10.00">Scene.hpp</text>
</a>
</g>
</g>
<!-- Node22&#45;&gt;Node24 -->
<g id="edge24" class="edge"><title>Node22&#45;&gt;Node24</title>
<path fill="none" stroke="midnightblue" d="M1237.02,-230.475C1244.44,-221.462 1256.33,-207.025 1265.57,-195.812"/>
<polygon fill="midnightblue" stroke="midnightblue" points="1268.34,-197.953 1271.99,-188.009 1262.93,-193.503 1268.34,-197.953"/>
</g>
<!-- Node48 -->
<g id="node48" class="node"><title>Node48</title>
<g id="a_node48"><a xlink:href="../../d0/dbd/AssimpImporter_8hpp.html" target="_top" xlink:title="AssimpImporter.hpp">
<polygon fill="none" stroke="black" points="1649,-113 1649,-132 1753,-132 1753,-113 1649,-113"/>
<text text-anchor="middle" x="1701" y="-120" font-family="Helvetica,sans-Serif" font-size="10.00">AssimpImporter.hpp</text>
</a>
</g>
</g>
<!-- Node22&#45;&gt;Node48 -->
<g id="edge63" class="edge"><title>Node22&#45;&gt;Node48</title>
<path fill="none" stroke="midnightblue" d="M1265.02,-230.413C1349.17,-209.778 1562.68,-157.42 1656.09,-134.514"/>
<polygon fill="midnightblue" stroke="midnightblue" points="1657.19,-137.846 1666.07,-132.065 1655.53,-131.047 1657.19,-137.846"/>
</g>
<!-- Node25 -->
<g id="node25" class="node"><title>Node25</title>
<polygon fill="none" stroke="#bfbfbf" points="606,-0.999987 606,-20 658,-20 658,-0.999987 606,-0.999987"/>
<text text-anchor="middle" x="632" y="-7.99999" font-family="Helvetica,sans-Serif" font-size="10.00">memory</text>
</g>
<!-- Node24&#45;&gt;Node25 -->
<g id="edge25" class="edge"><title>Node24&#45;&gt;Node25</title>
<path fill="none" stroke="midnightblue" d="M1247.21,-169.865C1244.44,-169.347 1241.68,-168.881 1239,-168.5 981.108,-131.792 908.802,-186.645 654,-132.5 584.393,-117.709 544.576,-134.959 504,-76.5 478.831,-40.2381 549.749,-23.0397 595.851,-15.8832"/>
<polygon fill="midnightblue" stroke="midnightblue" points="596.443,-19.3341 605.833,-14.4279 595.433,-12.4073 596.443,-19.3341"/>
</g>
<!-- Node26 -->
<g id="node26" class="node"><title>Node26</title>
<polygon fill="none" stroke="#bfbfbf" points="1525.5,-57 1525.5,-76 1554.5,-76 1554.5,-57 1525.5,-57"/>
<text text-anchor="middle" x="1540" y="-64" font-family="Helvetica,sans-Serif" font-size="10.00">list</text>
</g>
<!-- Node24&#45;&gt;Node26 -->
<g id="edge26" class="edge"><title>Node24&#45;&gt;Node26</title>
<path fill="none" stroke="midnightblue" d="M1303.94,-168.989C1328.25,-160.48 1366.1,-146.657 1398,-132.5 1415.8,-124.598 1419.4,-120.848 1437,-112.5 1463.67,-99.8516 1494.78,-86.441 1515.77,-77.584"/>
<polygon fill="midnightblue" stroke="midnightblue" points="1517.34,-80.7232 1525.2,-73.6251 1514.63,-74.2689 1517.34,-80.7232"/>
</g>
<!-- Node27 -->
<g id="node27" class="node"><title>Node27</title>
<g id="a_node27"><a xlink:href="../../dd/db8/Renderer_8hpp.html" target="_top" xlink:title="Renderer.hpp">
<polygon fill="none" stroke="black" points="1445.5,-113 1445.5,-132 1520.5,-132 1520.5,-113 1445.5,-113"/>
<text text-anchor="middle" x="1483" y="-120" font-family="Helvetica,sans-Serif" font-size="10.00">Renderer.hpp</text>
</a>
</g>
</g>
<!-- Node24&#45;&gt;Node27 -->
<g id="edge27" class="edge"><title>Node24&#45;&gt;Node27</title>
<path fill="none" stroke="midnightblue" d="M1310.88,-169.062C1345.85,-159.804 1402.15,-144.903 1440.77,-134.678"/>
<polygon fill="midnightblue" stroke="midnightblue" points="1441.9,-137.999 1450.68,-132.056 1440.11,-131.232 1441.9,-137.999"/>
</g>
<!-- Node28 -->
<g id="node28" class="node"><title>Node28</title>
<g id="a_node28"><a xlink:href="../../de/dbe/SpatialGraph_8hpp.html" target="_top" xlink:title="SpatialGraph.hpp">
<polygon fill="none" stroke="black" points="1539,-113 1539,-132 1631,-132 1631,-113 1539,-113"/>
<text text-anchor="middle" x="1585" y="-120" font-family="Helvetica,sans-Serif" font-size="10.00">SpatialGraph.hpp</text>
</a>
</g>
</g>
<!-- Node24&#45;&gt;Node28 -->
<g id="edge29" class="edge"><title>Node24&#45;&gt;Node28</title>
<path fill="none" stroke="midnightblue" d="M1310.59,-171.924C1362.12,-162.831 1464.93,-144.69 1529.03,-133.377"/>
<polygon fill="midnightblue" stroke="midnightblue" points="1529.74,-136.807 1538.98,-131.622 1528.52,-129.913 1529.74,-136.807"/>
</g>
<!-- Node29 -->
<g id="node29" class="node"><title>Node29</title>
<g id="a_node29"><a xlink:href="../../d8/d58/SceneGraph_8hpp.html" target="_top" xlink:title="SceneGraph.hpp">
<polygon fill="none" stroke="black" points="1771.5,-113 1771.5,-132 1860.5,-132 1860.5,-113 1771.5,-113"/>
<text text-anchor="middle" x="1816" y="-120" font-family="Helvetica,sans-Serif" font-size="10.00">SceneGraph.hpp</text>
</a>
</g>
</g>
<!-- Node24&#45;&gt;Node29 -->
<g id="edge31" class="edge"><title>Node24&#45;&gt;Node29</title>
<path fill="none" stroke="midnightblue" d="M1310.73,-175.341C1386.65,-170.005 1584.92,-155.065 1761.27,-132.502"/>
<polygon fill="midnightblue" stroke="midnightblue" points="1761.78,-135.966 1771.25,-131.214 1760.88,-129.023 1761.78,-135.966"/>
</g>
<!-- Node31 -->
<g id="node31" class="node"><title>Node31</title>
<g id="a_node31"><a xlink:href="../../d1/d93/ShaderProgramLibrary_8hpp.html" target="_top" xlink:title="ShaderProgramLibrary.hpp">
<polygon fill="none" stroke="black" points="663,-113 663,-132 795,-132 795,-113 663,-113"/>
<text text-anchor="middle" x="729" y="-120" font-family="Helvetica,sans-Serif" font-size="10.00">ShaderProgramLibrary.hpp</text>
</a>
</g>
</g>
<!-- Node24&#45;&gt;Node31 -->
<g id="edge33" class="edge"><title>Node24&#45;&gt;Node31</title>
<path fill="none" stroke="midnightblue" d="M1247.2,-169.942C1244.43,-169.408 1241.67,-168.917 1239,-168.5 1086.16,-144.672 905.447,-132.445 805.38,-127.058"/>
<polygon fill="midnightblue" stroke="midnightblue" points="805.531,-123.561 795.36,-126.527 805.16,-130.551 805.531,-123.561"/>
</g>
<!-- Node36 -->
<g id="node36" class="node"><title>Node36</title>
<g id="a_node36"><a xlink:href="../../d2/d26/MaterialLibrary_8hpp.html" target="_top" xlink:title="MaterialLibrary.hpp">
<polygon fill="none" stroke="black" points="940.5,-113 940.5,-132 1039.5,-132 1039.5,-113 940.5,-113"/>
<text text-anchor="middle" x="990" y="-120" font-family="Helvetica,sans-Serif" font-size="10.00">MaterialLibrary.hpp</text>
</a>
</g>
</g>
<!-- Node24&#45;&gt;Node36 -->
<g id="edge43" class="edge"><title>Node24&#45;&gt;Node36</title>
<path fill="none" stroke="midnightblue" d="M1247.15,-170.205C1244.4,-169.614 1241.65,-169.038 1239,-168.5 1174.55,-155.433 1100.34,-142.261 1049.82,-133.576"/>
<polygon fill="midnightblue" stroke="midnightblue" points="1050.17,-130.085 1039.72,-131.846 1048.99,-136.985 1050.17,-130.085"/>
</g>
<!-- Node39 -->
<g id="node39" class="node"><title>Node39</title>
<g id="a_node39"><a xlink:href="../../d1/da3/AnimationLibrary_8hpp.html" target="_top" xlink:title="AnimationLibrary.hpp">
<polygon fill="none" stroke="black" points="1165,-113 1165,-132 1273,-132 1273,-113 1165,-113"/>
<text text-anchor="middle" x="1219" y="-120" font-family="Helvetica,sans-Serif" font-size="10.00">AnimationLibrary.hpp</text>
</a>
</g>
</g>
<!-- Node24&#45;&gt;Node39 -->
<g id="edge49" class="edge"><title>Node24&#45;&gt;Node39</title>
<path fill="none" stroke="midnightblue" d="M1269.36,-168.824C1260.49,-160.841 1247.13,-148.813 1236.39,-139.153"/>
<polygon fill="midnightblue" stroke="midnightblue" points="1238.59,-136.422 1228.82,-132.334 1233.91,-141.625 1238.59,-136.422"/>
</g>
<!-- Node43 -->
<g id="node43" class="node"><title>Node43</title>
<g id="a_node43"><a xlink:href="../../dd/de2/MeshLibrary_8hpp.html" target="_top" xlink:title="MeshLibrary.hpp">
<polygon fill="none" stroke="black" points="1057.5,-113 1057.5,-132 1146.5,-132 1146.5,-113 1057.5,-113"/>
<text text-anchor="middle" x="1102" y="-120" font-family="Helvetica,sans-Serif" font-size="10.00">MeshLibrary.hpp</text>
</a>
</g>
</g>
<!-- Node24&#45;&gt;Node43 -->
<g id="edge55" class="edge"><title>Node24&#45;&gt;Node43</title>
<path fill="none" stroke="midnightblue" d="M1250.95,-168.944C1220.92,-159.78 1173.09,-145.188 1139.76,-135.019"/>
<polygon fill="midnightblue" stroke="midnightblue" points="1140.5,-131.587 1129.91,-132.016 1138.46,-138.282 1140.5,-131.587"/>
</g>
<!-- Node46 -->
<g id="node46" class="node"><title>Node46</title>
<g id="a_node46"><a xlink:href="../../dc/d23/TextureLibrary_8hpp.html" target="_top" xlink:title="TextureLibrary.hpp">
<polygon fill="none" stroke="black" points="1291,-113 1291,-132 1389,-132 1389,-113 1291,-113"/>
<text text-anchor="middle" x="1340" y="-120" font-family="Helvetica,sans-Serif" font-size="10.00">TextureLibrary.hpp</text>
</a>
</g>
</g>
<!-- Node24&#45;&gt;Node46 -->
<g id="edge60" class="edge"><title>Node24&#45;&gt;Node46</title>
<path fill="none" stroke="midnightblue" d="M1288.8,-168.824C1297.82,-160.841 1311.41,-148.813 1322.32,-139.153"/>
<polygon fill="midnightblue" stroke="midnightblue" points="1324.85,-141.583 1330.02,-132.334 1320.21,-136.342 1324.85,-141.583"/>
</g>
<!-- Node27&#45;&gt;Node26 -->
<g id="edge28" class="edge"><title>Node27&#45;&gt;Node26</title>
<path fill="none" stroke="midnightblue" d="M1492.16,-112.824C1500.5,-104.92 1513.03,-93.0482 1523.18,-83.4377"/>
<polygon fill="midnightblue" stroke="midnightblue" points="1525.82,-85.7522 1530.68,-76.3339 1521.01,-80.6705 1525.82,-85.7522"/>
</g>
<!-- Node28&#45;&gt;Node26 -->
<g id="edge30" class="edge"><title>Node28&#45;&gt;Node26</title>
<path fill="none" stroke="midnightblue" d="M1577.57,-112.583C1571.15,-104.877 1561.69,-93.5333 1553.88,-84.153"/>
<polygon fill="midnightblue" stroke="midnightblue" points="1556.38,-81.6926 1547.29,-76.2511 1551.01,-86.174 1556.38,-81.6926"/>
</g>
<!-- Node30 -->
<g id="node30" class="node"><title>Node30</title>
<polygon fill="none" stroke="#bfbfbf" points="1773,-57 1773,-76 1859,-76 1859,-57 1773,-57"/>
<text text-anchor="middle" x="1816" y="-64" font-family="Helvetica,sans-Serif" font-size="10.00">assimp/scene.h</text>
</g>
<!-- Node29&#45;&gt;Node30 -->
<g id="edge32" class="edge"><title>Node29&#45;&gt;Node30</title>
<path fill="none" stroke="midnightblue" d="M1816,-112.583C1816,-105.506 1816,-95.3611 1816,-86.4865"/>
<polygon fill="midnightblue" stroke="midnightblue" points="1819.5,-86.251 1816,-76.2511 1812.5,-86.2511 1819.5,-86.251"/>
</g>
<!-- Node31&#45;&gt;Node25 -->
<g id="edge34" class="edge"><title>Node31&#45;&gt;Node25</title>
<path fill="none" stroke="midnightblue" d="M662.864,-116.715C606.477,-111.096 531.669,-99.4586 513,-76.5 487.082,-44.6264 551.797,-26.0033 595.624,-17.3768"/>
<polygon fill="midnightblue" stroke="midnightblue" points="596.517,-20.7705 605.704,-15.4931 595.231,-13.8896 596.517,-20.7705"/>
</g>
<!-- Node32 -->
<g id="node32" class="node"><title>Node32</title>
<g id="a_node32"><a xlink:href="../../df/d67/Library_8hpp.html" target="_top" xlink:title="Library.hpp">
<polygon fill="none" stroke="red" points="1033.5,-0.999987 1033.5,-20 1098.5,-20 1098.5,-0.999987 1033.5,-0.999987"/>
<text text-anchor="middle" x="1066" y="-7.99999" font-family="Helvetica,sans-Serif" font-size="10.00">Library.hpp</text>
</a>
</g>
</g>
<!-- Node31&#45;&gt;Node32 -->
<g id="edge35" class="edge"><title>Node31&#45;&gt;Node32</title>
<path fill="none" stroke="midnightblue" d="M733.975,-112.608C742.55,-98.2009 761.569,-70.0092 786,-56.5 825.958,-34.4047 954.997,-20.7044 1023.06,-14.833"/>
<polygon fill="midnightblue" stroke="midnightblue" points="1023.37,-18.3195 1033.04,-13.9906 1022.78,-11.3443 1023.37,-18.3195"/>
</g>
<!-- Node33 -->
<g id="node33" class="node"><title>Node33</title>
<g id="a_node33"><a xlink:href="../../dc/ddb/ShaderProgram_8hpp.html" target="_top" xlink:title="ShaderProgram.hpp">
<polygon fill="none" stroke="red" points="522.5,-57 522.5,-76 625.5,-76 625.5,-57 522.5,-57"/>
<text text-anchor="middle" x="574" y="-64" font-family="Helvetica,sans-Serif" font-size="10.00">ShaderProgram.hpp</text>
</a>
</g>
</g>
<!-- Node31&#45;&gt;Node33 -->
<g id="edge37" class="edge"><title>Node31&#45;&gt;Node33</title>
<path fill="none" stroke="midnightblue" d="M704.44,-112.944C678.477,-103.899 637.332,-89.564 608.203,-79.4158"/>
<polygon fill="midnightblue" stroke="midnightblue" points="609.04,-76.0012 598.445,-76.0164 606.737,-82.6116 609.04,-76.0012"/>
</g>
<!-- Node34 -->
<g id="node34" class="node"><title>Node34</title>
<g id="a_node34"><a xlink:href="../../d9/db7/ShaderProgramNames_8hpp.html" target="_top" xlink:title="ShaderProgramNames.hpp">
<polygon fill="none" stroke="black" points="795,-57 795,-76 929,-76 929,-57 795,-57"/>
<text text-anchor="middle" x="862" y="-64" font-family="Helvetica,sans-Serif" font-size="10.00">ShaderProgramNames.hpp</text>
</a>
</g>
</g>
<!-- Node31&#45;&gt;Node34 -->
<g id="edge39" class="edge"><title>Node31&#45;&gt;Node34</title>
<path fill="none" stroke="midnightblue" d="M750.074,-112.944C772.06,-104.017 806.734,-89.9387 831.664,-79.8168"/>
<polygon fill="midnightblue" stroke="midnightblue" points="833.076,-83.0213 841.024,-76.0164 830.442,-76.5355 833.076,-83.0213"/>
</g>
<!-- Node35 -->
<g id="node35" class="node"><title>Node35</title>
<g id="a_node35"><a xlink:href="../../d2/db1/ShaderLibrary_8hpp.html" target="_top" xlink:title="ShaderLibrary.hpp">
<polygon fill="none" stroke="red" points="643.5,-57 643.5,-76 738.5,-76 738.5,-57 643.5,-57"/>
<text text-anchor="middle" x="691" y="-64" font-family="Helvetica,sans-Serif" font-size="10.00">ShaderLibrary.hpp</text>
</a>
</g>
</g>
<!-- Node31&#45;&gt;Node35 -->
<g id="edge40" class="edge"><title>Node31&#45;&gt;Node35</title>
<path fill="none" stroke="midnightblue" d="M722.725,-112.583C717.358,-104.955 709.482,-93.7644 702.921,-84.4408"/>
<polygon fill="midnightblue" stroke="midnightblue" points="705.775,-82.4149 697.158,-76.2511 700.051,-86.4434 705.775,-82.4149"/>
</g>
<!-- Node32&#45;&gt;Node32 -->
<g id="edge36" class="edge"><title>Node32&#45;&gt;Node32</title>
<path fill="none" stroke="midnightblue" d="M1087.54,-20.0252C1102.17,-22.8079 1116.5,-19.6328 1116.5,-10.5 1116.5,-3.50768 1108.1,-0.00768198 1097.6,-0"/>
<polygon fill="midnightblue" stroke="midnightblue" points="1097.15,3.47355 1087.54,-0.974749 1097.83,-3.49381 1097.15,3.47355"/>
</g>
<!-- Node33&#45;&gt;Node25 -->
<g id="edge38" class="edge"><title>Node33&#45;&gt;Node25</title>
<path fill="none" stroke="midnightblue" d="M583.319,-56.824C591.893,-48.8414 604.812,-36.8127 615.188,-27.1529"/>
<polygon fill="midnightblue" stroke="midnightblue" points="617.578,-29.7097 622.512,-20.3339 612.808,-24.5865 617.578,-29.7097"/>
</g>
<!-- Node35&#45;&gt;Node25 -->
<g id="edge41" class="edge"><title>Node35&#45;&gt;Node25</title>
<path fill="none" stroke="midnightblue" d="M681.521,-56.824C672.799,-48.8414 659.657,-36.8127 649.102,-27.1529"/>
<polygon fill="midnightblue" stroke="midnightblue" points="651.392,-24.5036 641.652,-20.3339 646.666,-29.6674 651.392,-24.5036"/>
</g>
<!-- Node35&#45;&gt;Node32 -->
<g id="edge42" class="edge"><title>Node35&#45;&gt;Node32</title>
<path fill="none" stroke="midnightblue" d="M738.726,-58.5653C743.548,-57.8667 748.371,-57.1687 753,-56.5 849.563,-42.5499 962.9,-26.2815 1023.19,-17.6366"/>
<polygon fill="midnightblue" stroke="midnightblue" points="1023.7,-21.0988 1033.1,-16.2148 1022.71,-14.1696 1023.7,-21.0988"/>
</g>
<!-- Node36&#45;&gt;Node32 -->
<g id="edge45" class="edge"><title>Node36&#45;&gt;Node32</title>
<path fill="none" stroke="midnightblue" d="M997.504,-112.785C1005.03,-103.897 1016.79,-89.5914 1026,-76.5 1036.94,-60.9567 1048.18,-42.4253 1055.94,-29.1339"/>
<polygon fill="midnightblue" stroke="midnightblue" points="1059.18,-30.5375 1061.15,-20.1275 1053.11,-27.0365 1059.18,-30.5375"/>
</g>
<!-- Node37 -->
<g id="node37" class="node"><title>Node37</title>
<polygon fill="none" stroke="#bfbfbf" points="1157,-0.999987 1157,-20 1251,-20 1251,-0.999987 1157,-0.999987"/>
<text text-anchor="middle" x="1204" y="-7.99999" font-family="Helvetica,sans-Serif" font-size="10.00">assimp/material.h</text>
</g>
<!-- Node36&#45;&gt;Node37 -->
<g id="edge44" class="edge"><title>Node36&#45;&gt;Node37</title>
<path fill="none" stroke="midnightblue" d="M1039.57,-113.607C1070.66,-107.069 1110.65,-95.6544 1142,-76.5 1162.5,-63.9767 1180.78,-42.9919 1192.08,-28.2618"/>
<polygon fill="midnightblue" stroke="midnightblue" points="1195.04,-30.1489 1198.18,-20.0299 1189.42,-25.9823 1195.04,-30.1489"/>
</g>
<!-- Node38 -->
<g id="node38" class="node"><title>Node38</title>
<g id="a_node38"><a xlink:href="../../d0/d70/Material_8hpp.html" target="_top" xlink:title="Material.hpp">
<polygon fill="none" stroke="red" points="947,-57 947,-76 1017,-76 1017,-57 947,-57"/>
<text text-anchor="middle" x="982" y="-64" font-family="Helvetica,sans-Serif" font-size="10.00">Material.hpp</text>
</a>
</g>
</g>
<!-- Node36&#45;&gt;Node38 -->
<g id="edge46" class="edge"><title>Node36&#45;&gt;Node38</title>
<path fill="none" stroke="midnightblue" d="M988.679,-112.583C987.619,-105.427 986.094,-95.1353 984.769,-86.1911"/>
<polygon fill="midnightblue" stroke="midnightblue" points="988.224,-85.6301 983.296,-76.2511 981.3,-86.6561 988.224,-85.6301"/>
</g>
<!-- Node38&#45;&gt;Node25 -->
<g id="edge47" class="edge"><title>Node38&#45;&gt;Node25</title>
<path fill="none" stroke="midnightblue" d="M946.969,-58.1512C943.94,-57.5713 940.918,-57.0126 938,-56.5 840.914,-39.4457 725.717,-23.7106 668.306,-16.1723"/>
<polygon fill="midnightblue" stroke="midnightblue" points="668.645,-12.687 658.276,-14.8617 667.738,-19.628 668.645,-12.687"/>
</g>
<!-- Node38&#45;&gt;Node37 -->
<g id="edge48" class="edge"><title>Node38&#45;&gt;Node37</title>
<path fill="none" stroke="midnightblue" d="M1017.18,-56.9435C1055.58,-47.6024 1117.18,-32.6194 1159.06,-22.4325"/>
<polygon fill="midnightblue" stroke="midnightblue" points="1160.1,-25.7808 1168.99,-20.0164 1158.44,-18.9792 1160.1,-25.7808"/>
</g>
<!-- Node39&#45;&gt;Node32 -->
<g id="edge51" class="edge"><title>Node39&#45;&gt;Node32</title>
<path fill="none" stroke="midnightblue" d="M1212.18,-112.562C1201.56,-99.075 1179.87,-73.3163 1157,-56.5 1138.83,-43.1343 1116.08,-31.8846 1097.87,-23.9762"/>
<polygon fill="midnightblue" stroke="midnightblue" points="1099.12,-20.7053 1088.55,-20.0431 1096.4,-27.1548 1099.12,-20.7053"/>
</g>
<!-- Node40 -->
<g id="node40" class="node"><title>Node40</title>
<polygon fill="none" stroke="#bfbfbf" points="1292,-0.999987 1292,-20 1372,-20 1372,-0.999987 1292,-0.999987"/>
<text text-anchor="middle" x="1332" y="-7.99999" font-family="Helvetica,sans-Serif" font-size="10.00">assimp/anim.h</text>
</g>
<!-- Node39&#45;&gt;Node40 -->
<g id="edge50" class="edge"><title>Node39&#45;&gt;Node40</title>
<path fill="none" stroke="midnightblue" d="M1236.53,-112.892C1251.62,-104.898 1273.37,-91.9259 1289,-76.5 1303.1,-62.5802 1315.14,-43.3138 1322.86,-29.3739"/>
<polygon fill="midnightblue" stroke="midnightblue" points="1326.08,-30.7885 1327.69,-20.3175 1319.9,-27.496 1326.08,-30.7885"/>
</g>
<!-- Node41 -->
<g id="node41" class="node"><title>Node41</title>
<g id="a_node41"><a xlink:href="../../d0/d36/Animation_8hpp.html" target="_top" xlink:title="Animation.hpp">
<polygon fill="none" stroke="black" points="1341.5,-57 1341.5,-76 1420.5,-76 1420.5,-57 1341.5,-57"/>
<text text-anchor="middle" x="1381" y="-64" font-family="Helvetica,sans-Serif" font-size="10.00">Animation.hpp</text>
</a>
</g>
</g>
<!-- Node39&#45;&gt;Node41 -->
<g id="edge52" class="edge"><title>Node39&#45;&gt;Node41</title>
<path fill="none" stroke="midnightblue" d="M1244.67,-112.944C1271.92,-103.859 1315.18,-89.4387 1345.65,-79.2831"/>
<polygon fill="midnightblue" stroke="midnightblue" points="1347.07,-82.4992 1355.45,-76.0164 1344.86,-75.8584 1347.07,-82.4992"/>
</g>
<!-- Node41&#45;&gt;Node40 -->
<g id="edge53" class="edge"><title>Node41&#45;&gt;Node40</title>
<path fill="none" stroke="midnightblue" d="M1372.91,-56.583C1365.84,-48.7981 1355.41,-37.3014 1346.85,-27.8665"/>
<polygon fill="midnightblue" stroke="midnightblue" points="1349.25,-25.3047 1339.94,-20.2511 1344.07,-30.0087 1349.25,-25.3047"/>
</g>
<!-- Node42 -->
<g id="node42" class="node"><title>Node42</title>
<polygon fill="none" stroke="#bfbfbf" points="1464.5,-0.999987 1464.5,-20 1505.5,-20 1505.5,-0.999987 1464.5,-0.999987"/>
<text text-anchor="middle" x="1485" y="-7.99999" font-family="Helvetica,sans-Serif" font-size="10.00">string</text>
</g>
<!-- Node41&#45;&gt;Node42 -->
<g id="edge54" class="edge"><title>Node41&#45;&gt;Node42</title>
<path fill="none" stroke="midnightblue" d="M1397.71,-56.824C1414.31,-48.2034 1440,-34.8643 1459.22,-24.8855"/>
<polygon fill="midnightblue" stroke="midnightblue" points="1461.07,-27.8689 1468.33,-20.1545 1457.84,-21.6565 1461.07,-27.8689"/>
</g>
<!-- Node43&#45;&gt;Node32 -->
<g id="edge56" class="edge"><title>Node43&#45;&gt;Node32</title>
<path fill="none" stroke="midnightblue" d="M1113.87,-112.988C1129.51,-100.674 1153.75,-77.1053 1142,-56.5 1133.59,-41.7475 1118.23,-31.3375 1103.52,-24.2737"/>
<polygon fill="midnightblue" stroke="midnightblue" points="1104.58,-20.9179 1094.02,-20.103 1101.76,-27.3275 1104.58,-20.9179"/>
</g>
<!-- Node44 -->
<g id="node44" class="node"><title>Node44</title>
<g id="a_node44"><a xlink:href="../../d1/d62/Mesh_8hpp.html" target="_top" xlink:title="Mesh.hpp">
<polygon fill="none" stroke="red" points="1073.5,-57 1073.5,-76 1132.5,-76 1132.5,-57 1073.5,-57"/>
<text text-anchor="middle" x="1103" y="-64" font-family="Helvetica,sans-Serif" font-size="10.00">Mesh.hpp</text>
</a>
</g>
</g>
<!-- Node43&#45;&gt;Node44 -->
<g id="edge57" class="edge"><title>Node43&#45;&gt;Node44</title>
<path fill="none" stroke="midnightblue" d="M1102.17,-112.583C1102.3,-105.506 1102.48,-95.3611 1102.65,-86.4865"/>
<polygon fill="midnightblue" stroke="midnightblue" points="1106.15,-86.3142 1102.84,-76.2511 1099.15,-86.1845 1106.15,-86.3142"/>
</g>
<!-- Node44&#45;&gt;Node25 -->
<g id="edge58" class="edge"><title>Node44&#45;&gt;Node25</title>
<path fill="none" stroke="midnightblue" d="M1073.38,-62.02C1059.07,-60.3427 1041.64,-58.3075 1026,-56.5 894.268,-41.2786 737.723,-23.4879 668.276,-15.6109"/>
<polygon fill="midnightblue" stroke="midnightblue" points="668.616,-12.127 658.285,-14.4778 667.827,-19.0824 668.616,-12.127"/>
</g>
<!-- Node45 -->
<g id="node45" class="node"><title>Node45</title>
<polygon fill="none" stroke="#bfbfbf" points="1560.5,-0.999987 1560.5,-20 1643.5,-20 1643.5,-0.999987 1560.5,-0.999987"/>
<text text-anchor="middle" x="1602" y="-7.99999" font-family="Helvetica,sans-Serif" font-size="10.00">assimp/mesh.h</text>
</g>
<!-- Node44&#45;&gt;Node45 -->
<g id="edge59" class="edge"><title>Node44&#45;&gt;Node45</title>
<path fill="none" stroke="midnightblue" d="M1132.72,-62.2838C1214.96,-53.3844 1446.3,-28.3497 1550.26,-17.0989"/>
<polygon fill="midnightblue" stroke="midnightblue" points="1550.65,-20.5776 1560.21,-16.022 1549.9,-13.6182 1550.65,-20.5776"/>
</g>
<!-- Node46&#45;&gt;Node32 -->
<g id="edge61" class="edge"><title>Node46&#45;&gt;Node32</title>
<path fill="none" stroke="midnightblue" d="M1319.6,-112.954C1289.55,-100.398 1231.58,-76.312 1182,-56.5 1153.74,-45.2077 1121.46,-32.7166 1098.13,-23.7655"/>
<polygon fill="midnightblue" stroke="midnightblue" points="1099.32,-20.4701 1088.73,-20.16 1096.81,-27.0066 1099.32,-20.4701"/>
</g>
<!-- Node47 -->
<g id="node47" class="node"><title>Node47</title>
<g id="a_node47"><a xlink:href="../../d0/ddc/Texture_8hpp.html" target="_top" xlink:title="Texture.hpp">
<polygon fill="none" stroke="red" points="1439,-57 1439,-76 1507,-76 1507,-57 1439,-57"/>
<text text-anchor="middle" x="1473" y="-64" font-family="Helvetica,sans-Serif" font-size="10.00">Texture.hpp</text>
</a>
</g>
</g>
<!-- Node46&#45;&gt;Node47 -->
<g id="edge62" class="edge"><title>Node46&#45;&gt;Node47</title>
<path fill="none" stroke="midnightblue" d="M1361.07,-112.944C1383.06,-104.017 1417.73,-89.9387 1442.66,-79.8168"/>
<polygon fill="midnightblue" stroke="midnightblue" points="1444.08,-83.0213 1452.02,-76.0164 1441.44,-76.5355 1444.08,-83.0213"/>
</g>
<!-- Node48&#45;&gt;Node26 -->
<g id="edge65" class="edge"><title>Node48&#45;&gt;Node26</title>
<path fill="none" stroke="midnightblue" d="M1675.49,-112.944C1645.03,-102.728 1594.46,-85.7653 1564.47,-75.7068"/>
<polygon fill="midnightblue" stroke="midnightblue" points="1565.38,-72.321 1554.79,-72.4593 1563.15,-78.9576 1565.38,-72.321"/>
</g>
<!-- Node48&#45;&gt;Node42 -->
<g id="edge64" class="edge"><title>Node48&#45;&gt;Node42</title>
<path fill="none" stroke="midnightblue" d="M1684.05,-112.868C1646.43,-93.7113 1555.76,-47.5355 1510.95,-24.7172"/>
<polygon fill="midnightblue" stroke="midnightblue" points="1512.37,-21.5106 1501.87,-20.0914 1509.19,-27.7483 1512.37,-21.5106"/>
</g>
<!-- Node48&#45;&gt;Node45 -->
<g id="edge67" class="edge"><title>Node48&#45;&gt;Node45</title>
<path fill="none" stroke="midnightblue" d="M1686.12,-112.94C1672.87,-104.796 1653.55,-91.5735 1640,-76.5 1627.33,-62.3998 1616.82,-43.4139 1610.09,-29.6036"/>
<polygon fill="midnightblue" stroke="midnightblue" points="1613.11,-27.7977 1605.7,-20.2182 1606.76,-30.7599 1613.11,-27.7977"/>
</g>
<!-- Node49 -->
<g id="node49" class="node"><title>Node49</title>
<polygon fill="none" stroke="#bfbfbf" points="1649,-57 1649,-76 1755,-76 1755,-57 1649,-57"/>
<text text-anchor="middle" x="1702" y="-64" font-family="Helvetica,sans-Serif" font-size="10.00">assimp/Importer.hpp</text>
</g>
<!-- Node48&#45;&gt;Node49 -->
<g id="edge66" class="edge"><title>Node48&#45;&gt;Node49</title>
<path fill="none" stroke="midnightblue" d="M1701.17,-112.583C1701.3,-105.506 1701.48,-95.3611 1701.65,-86.4865"/>
<polygon fill="midnightblue" stroke="midnightblue" points="1705.15,-86.3142 1701.84,-76.2511 1698.15,-86.1845 1705.15,-86.3142"/>
</g>
</g>
</svg>
        <g id="navigator" transform="translate(0 0)" fill="#404254">
                <rect fill="#f2f5e9" fill-opacity="0.5" stroke="#606060" stroke-width=".5" x="0" y="0" width="60" height="60"/>
                <use id="zoomplus" xlink:href="#zoomPlus" x="17" y="9" onmousedown="handleZoom(evt,'in')"/>
                <use id="zoomminus" xlink:href="#zoomMin" x="42" y="9" onmousedown="handleZoom(evt,'out')"/>
                <use id="reset" xlink:href="#resetDef" x="30" y="36" onmousedown="handleReset()"/>
                <g id="arrowUp" xlink:href="#dirArrow" transform="translate(30 24)" onmousedown="handlePan(0,-1)">
                  <use xlink:href="#rim" fill="#404040">
                        <set attributeName="fill" to="#808080" begin="arrowUp.mouseover" end="arrowUp.mouseout"/>
                  </use>
                  <path fill="none" stroke="white" stroke-width="1.5" d="M0,-3.0v7 M-2.5,-0.5L0,-3.0L2.5,-0.5"/>
                </g>
                <g id="arrowRight" xlink:href="#dirArrow" transform="rotate(90) translate(36 -43)" onmousedown="handlePan(1,0)">
                  <use xlink:href="#rim" fill="#404040">
                        <set attributeName="fill" to="#808080" begin="arrowRight.mouseover" end="arrowRight.mouseout"/>
                  </use>
                  <path fill="none" stroke="white" stroke-width="1.5" d="M0,-3.0v7 M-2.5,-0.5L0,-3.0L2.5,-0.5"/>
                </g>
                <g id="arrowDown" xlink:href="#dirArrow" transform="rotate(180) translate(-30 -48)" onmousedown="handlePan(0,1)">
                  <use xlink:href="#rim" fill="#404040">
                        <set attributeName="fill" to="#808080" begin="arrowDown.mouseover" end="arrowDown.mouseout"/>
                  </use>
                  <path fill="none" stroke="white" stroke-width="1.5" d="M0,-3.0v7 M-2.5,-0.5L0,-3.0L2.5,-0.5"/>
                </g>
                <g id="arrowLeft" xlink:href="#dirArrow" transform="rotate(270) translate(-36 17)" onmousedown="handlePan(-1,0)">
                  <use xlink:href="#rim" fill="#404040">
                        <set attributeName="fill" to="#808080" begin="arrowLeft.mouseover" end="arrowLeft.mouseout"/>
                  </use>
                  <path fill="none" stroke="white" stroke-width="1.5" d="M0,-3.0v7 M-2.5,-0.5L0,-3.0L2.5,-0.5"/>
                </g>
        </g>
        <svg viewBox="0 0 15 15" width="100%" height="30px" preserveAspectRatio="xMaxYMin meet">
         <g id="arrow_out" transform="scale(0.3 0.3)">
          <a xlink:href="mainwindow_8cpp__incl_org.svg" target="_base">
           <rect id="button" ry="5" rx="5" y="6" x="6" height="38" width="38"
                fill="#f2f5e9" fill-opacity="0.5" stroke="#606060" stroke-width="1.0"/>
           <path id="arrow"
             d="M 11.500037,31.436501 C 11.940474,20.09759 22.043105,11.32322 32.158766,21.979434 L 37.068811,17.246167 C 37.068811,17.246167 37.088388,32 37.088388,32 L 22.160133,31.978069 C 22.160133,31.978069 26.997745,27.140456 26.997745,27.140456 C 18.528582,18.264221 13.291696,25.230495 11.500037,31.436501 z"
             style="fill:#404040;"/>
          </a>
         </g>
        </svg>
</svg>
