<?xml version="1.0" encoding="UTF-8" standalone="no"?>
<!DOCTYPE svg PUBLIC "-//W3C//DTD SVG 1.1//EN"
 "http://www.w3.org/Graphics/SVG/1.1/DTD/svg11.dtd">
<!-- Generated by graphviz version 2.38.0 (20140413.2041)
 -->
<!-- Title: window/mainwindow.cpp Pages: 1 -->
<!--zoomable 599 -->
<svg id="main" version="1.1" xmlns="http://www.w3.org/2000/svg" xmlns:xlink="http://www.w3.org/1999/xlink" xml:space="preserve" onload="init(evt)">
<style type="text/css"><![CDATA[
.edge:hover path { stroke: red; }
.edge:hover polygon { stroke: red; fill: red; }
]]></style>
<script type="text/javascript"><![CDATA[
var edges = document.getElementsByTagName('g');
if (edges && edges.length) {
  for (var i=0;i<edges.length;i++) {
    if (edges[i].id.substr(0,4)=='edge') {
      edges[i].setAttribute('class','edge');
    }
  }
}
]]></script>
        <defs>
                <circle id="rim" cx="0" cy="0" r="7"/>
                <circle id="rim2" cx="0" cy="0" r="3.5"/>
                <g id="zoomPlus">
                        <use xlink:href="#rim" fill="#404040">
                                <set attributeName="fill" to="#808080" begin="zoomplus.mouseover" end="zoomplus.mouseout"/>
                        </use>
                        <path d="M-4,0h8M0,-4v8" fill="none" stroke="white" stroke-width="1.5" pointer-events="none"/>
                </g>
                <g id="zoomMin">
                        <use xlink:href="#rim" fill="#404040">
                                <set attributeName="fill" to="#808080" begin="zoomminus.mouseover" end="zoomminus.mouseout"/>
                        </use>
                        <path d="M-4,0h8" fill="none" stroke="white" stroke-width="1.5" pointer-events="none"/>
                </g>
                <g id="dirArrow">
                        <path fill="none" stroke="white" stroke-width="1.5" d="M0,-3.0v7 M-2.5,-0.5L0,-3.0L2.5,-0.5"/>
                </g>
               <g id="resetDef">
                       <use xlink:href="#rim2" fill="#404040">
                               <set attributeName="fill" to="#808080" begin="reset.mouseover" end="reset.mouseout"/>
                       </use>
               </g>
        </defs>

<script type="text/javascript">
var viewWidth = 1370;
var viewHeight = 599;
var sectionId = 'dynsection-0';
</script>
<script xlink:href="../../svgpan.js"/>
<svg id="graph" class="graph">
<g id="viewport">
<title>window/mainwindow.cpp</title>
<!-- Node1 -->
<g id="node1" class="node"><title>Node1</title>
<polygon fill="#bfbfbf" stroke="black" points="103,-571.5 103,-590.5 228,-590.5 228,-571.5 103,-571.5"/>
<text text-anchor="middle" x="165.5" y="-578.5" font-family="Helvetica,sans-Serif" font-size="10.00">window/mainwindow.cpp</text>
</g>
<!-- Node2 -->
<g id="node2" class="node"><title>Node2</title>
<polygon fill="none" stroke="#bfbfbf" points="0,-515.5 0,-534.5 77,-534.5 77,-515.5 0,-515.5"/>
<text text-anchor="middle" x="38.5" y="-522.5" font-family="Helvetica,sans-Serif" font-size="10.00">qinputdialog.h</text>
</g>
<!-- Node1&#45;&gt;Node2 -->
<g id="edge1" class="edge"><title>Node1&#45;&gt;Node2</title>
<path fill="none" stroke="midnightblue" d="M145.376,-571.444C124.476,-562.557 91.5653,-548.563 67.7839,-538.451"/>
<polygon fill="midnightblue" stroke="midnightblue" points="69.1016,-535.208 58.5294,-534.516 66.3625,-541.65 69.1016,-535.208"/>
</g>
<!-- Node3 -->
<g id="node3" class="node"><title>Node3</title>
<polygon fill="none" stroke="#bfbfbf" points="95.5,-515.5 95.5,-534.5 151.5,-534.5 151.5,-515.5 95.5,-515.5"/>
<text text-anchor="middle" x="123.5" y="-522.5" font-family="Helvetica,sans-Serif" font-size="10.00">qdebug.h</text>
</g>
<!-- Node1&#45;&gt;Node3 -->
<g id="edge2" class="edge"><title>Node1&#45;&gt;Node3</title>
<path fill="none" stroke="midnightblue" d="M158.565,-571.083C152.571,-563.377 143.748,-552.033 136.452,-542.653"/>
<polygon fill="midnightblue" stroke="midnightblue" points="139.209,-540.496 130.306,-534.751 133.683,-544.793 139.209,-540.496"/>
</g>
<!-- Node4 -->
<g id="node4" class="node"><title>Node4</title>
<g id="a_node4"><a xlink:href="../../d9/d53/mainwindow_8h.html" target="_top" xlink:title="mainwindow.h">
<polygon fill="none" stroke="black" points="169,-515.5 169,-534.5 248,-534.5 248,-515.5 169,-515.5"/>
<text text-anchor="middle" x="208.5" y="-522.5" font-family="Helvetica,sans-Serif" font-size="10.00">mainwindow.h</text>
</a>
</g>
</g>
<!-- Node1&#45;&gt;Node4 -->
<g id="edge3" class="edge"><title>Node1&#45;&gt;Node4</title>
<path fill="none" stroke="midnightblue" d="M172.601,-571.083C178.737,-563.377 187.77,-552.033 195.239,-542.653"/>
<polygon fill="midnightblue" stroke="midnightblue" points="198.04,-544.754 201.532,-534.751 192.564,-540.394 198.04,-544.754"/>
</g>
<!-- Node41 -->
<g id="node41" class="node"><title>Node41</title>
<polygon fill="none" stroke="#bfbfbf" points="266.5,-515.5 266.5,-534.5 358.5,-534.5 358.5,-515.5 266.5,-515.5"/>
<text text-anchor="middle" x="312.5" y="-522.5" font-family="Helvetica,sans-Serif" font-size="10.00">ui_mainwindow.h</text>
</g>
<!-- Node1&#45;&gt;Node41 -->
<g id="edge60" class="edge"><title>Node1&#45;&gt;Node41</title>
<path fill="none" stroke="midnightblue" d="M188.793,-571.444C213.307,-562.438 252.096,-548.189 279.7,-538.049"/>
<polygon fill="midnightblue" stroke="midnightblue" points="281.137,-541.25 289.316,-534.516 278.723,-534.679 281.137,-541.25"/>
</g>
<!-- Node5 -->
<g id="node5" class="node"><title>Node5</title>
<polygon fill="none" stroke="#bfbfbf" points="16.5,-459.5 16.5,-478.5 96.5,-478.5 96.5,-459.5 16.5,-459.5"/>
<text text-anchor="middle" x="56.5" y="-466.5" font-family="Helvetica,sans-Serif" font-size="10.00">QMainWindow</text>
</g>
<!-- Node4&#45;&gt;Node5 -->
<g id="edge4" class="edge"><title>Node4&#45;&gt;Node5</title>
<path fill="none" stroke="midnightblue" d="M184.415,-515.444C158.955,-506.399 118.606,-492.064 90.0409,-481.916"/>
<polygon fill="midnightblue" stroke="midnightblue" points="91.0669,-478.566 80.4722,-478.516 88.7235,-485.162 91.0669,-478.566"/>
</g>
<!-- Node6 -->
<g id="node6" class="node"><title>Node6</title>
<g id="a_node6"><a xlink:href="../../d7/d42/toolwidget_8h.html" target="_top" xlink:title="window/toolwidget.h">
<polygon fill="none" stroke="black" points="115,-459.5 115,-478.5 220,-478.5 220,-459.5 115,-459.5"/>
<text text-anchor="middle" x="167.5" y="-466.5" font-family="Helvetica,sans-Serif" font-size="10.00">window/toolwidget.h</text>
</a>
</g>
</g>
<!-- Node4&#45;&gt;Node6 -->
<g id="edge5" class="edge"><title>Node4&#45;&gt;Node6</title>
<path fill="none" stroke="midnightblue" d="M201.73,-515.083C195.938,-507.455 187.442,-496.264 180.362,-486.941"/>
<polygon fill="midnightblue" stroke="midnightblue" points="182.979,-484.599 174.144,-478.751 177.404,-488.832 182.979,-484.599"/>
</g>
<!-- Node8 -->
<g id="node8" class="node"><title>Node8</title>
<g id="a_node8"><a xlink:href="../../dc/d51/model_8h.html" target="_top" xlink:title="model/model.h">
<polygon fill="none" stroke="black" points="167.5,-398 167.5,-417 247.5,-417 247.5,-398 167.5,-398"/>
<text text-anchor="middle" x="207.5" y="-405" font-family="Helvetica,sans-Serif" font-size="10.00">model/model.h</text>
</a>
</g>
</g>
<!-- Node4&#45;&gt;Node8 -->
<g id="edge15" class="edge"><title>Node4&#45;&gt;Node8</title>
<path fill="none" stroke="midnightblue" d="M213.63,-515.407C218.558,-506.614 225.66,-492.381 228.5,-479 232.383,-460.704 224.95,-440.268 217.878,-426.129"/>
<polygon fill="midnightblue" stroke="midnightblue" points="220.806,-424.186 212.959,-417.067 214.654,-427.526 220.806,-424.186"/>
</g>
<!-- Node16 -->
<g id="node16" class="node"><title>Node16</title>
<g id="a_node16"><a xlink:href="../../d1/d2a/glwindow_8h.html" target="_top" xlink:title="window/glwindow.h">
<polygon fill="none" stroke="black" points="417,-459.5 417,-478.5 518,-478.5 518,-459.5 417,-459.5"/>
<text text-anchor="middle" x="467.5" y="-466.5" font-family="Helvetica,sans-Serif" font-size="10.00">window/glwindow.h</text>
</a>
</g>
</g>
<!-- Node4&#45;&gt;Node16 -->
<g id="edge16" class="edge"><title>Node4&#45;&gt;Node16</title>
<path fill="none" stroke="midnightblue" d="M248.118,-515.74C293.326,-506.314 367.369,-490.877 416.763,-480.578"/>
<polygon fill="midnightblue" stroke="midnightblue" points="417.528,-483.994 426.603,-478.527 416.099,-477.142 417.528,-483.994"/>
</g>
<!-- Node7 -->
<g id="node7" class="node"><title>Node7</title>
<polygon fill="none" stroke="#bfbfbf" points="78,-398 78,-417 149,-417 149,-398 78,-398"/>
<text text-anchor="middle" x="113.5" y="-405" font-family="Helvetica,sans-Serif" font-size="10.00">QTabWidget</text>
</g>
<!-- Node6&#45;&gt;Node7 -->
<g id="edge6" class="edge"><title>Node6&#45;&gt;Node7</title>
<path fill="none" stroke="midnightblue" d="M159.763,-459.475C151.503,-450.373 138.223,-435.741 128.006,-424.483"/>
<polygon fill="midnightblue" stroke="midnightblue" points="130.535,-422.062 121.223,-417.009 125.351,-426.766 130.535,-422.062"/>
</g>
<!-- Node6&#45;&gt;Node8 -->
<g id="edge7" class="edge"><title>Node6&#45;&gt;Node8</title>
<path fill="none" stroke="midnightblue" d="M173.231,-459.475C179.172,-450.638 188.617,-436.589 196.088,-425.475"/>
<polygon fill="midnightblue" stroke="midnightblue" points="199.105,-427.261 201.78,-417.009 193.296,-423.355 199.105,-427.261"/>
</g>
<!-- Node9 -->
<g id="node9" class="node"><title>Node9</title>
<g id="a_node9"><a xlink:href="../../d5/da5/tools_8h.html" target="_top" xlink:title="tools.h">
<polygon fill="none" stroke="black" points="184.5,-336.5 184.5,-355.5 230.5,-355.5 230.5,-336.5 184.5,-336.5"/>
<text text-anchor="middle" x="207.5" y="-343.5" font-family="Helvetica,sans-Serif" font-size="10.00">tools.h</text>
</a>
</g>
</g>
<!-- Node8&#45;&gt;Node9 -->
<g id="edge8" class="edge"><title>Node8&#45;&gt;Node9</title>
<path fill="none" stroke="midnightblue" d="M207.5,-397.975C207.5,-389.58 207.5,-376.481 207.5,-365.663"/>
<polygon fill="midnightblue" stroke="midnightblue" points="211,-365.509 207.5,-355.509 204,-365.509 211,-365.509"/>
</g>
<!-- Node10 -->
<g id="node10" class="node"><title>Node10</title>
<polygon fill="none" stroke="#bfbfbf" points="5.5,-280.5 5.5,-299.5 55.5,-299.5 55.5,-280.5 5.5,-280.5"/>
<text text-anchor="middle" x="30.5" y="-287.5" font-family="Helvetica,sans-Serif" font-size="10.00">QString</text>
</g>
<!-- Node9&#45;&gt;Node10 -->
<g id="edge9" class="edge"><title>Node9&#45;&gt;Node10</title>
<path fill="none" stroke="midnightblue" d="M184.36,-337.94C154.083,-328.703 100.746,-312.431 65.511,-301.681"/>
<polygon fill="midnightblue" stroke="midnightblue" points="66.2315,-298.242 55.6454,-298.671 64.1889,-304.937 66.2315,-298.242"/>
</g>
<!-- Node11 -->
<g id="node11" class="node"><title>Node11</title>
<polygon fill="none" stroke="#bfbfbf" points="74,-280.5 74,-299.5 139,-299.5 139,-280.5 74,-280.5"/>
<text text-anchor="middle" x="106.5" y="-287.5" font-family="Helvetica,sans-Serif" font-size="10.00">QVector3D</text>
</g>
<!-- Node9&#45;&gt;Node11 -->
<g id="edge10" class="edge"><title>Node9&#45;&gt;Node11</title>
<path fill="none" stroke="midnightblue" d="M191.273,-336.324C175.149,-327.703 150.2,-314.364 131.536,-304.386"/>
<polygon fill="midnightblue" stroke="midnightblue" points="133.156,-301.283 122.687,-299.655 129.856,-307.456 133.156,-301.283"/>
</g>
<!-- Node12 -->
<g id="node12" class="node"><title>Node12</title>
<polygon fill="none" stroke="#bfbfbf" points="157.5,-280.5 157.5,-299.5 197.5,-299.5 197.5,-280.5 157.5,-280.5"/>
<text text-anchor="middle" x="177.5" y="-287.5" font-family="Helvetica,sans-Serif" font-size="10.00">QList</text>
</g>
<!-- Node9&#45;&gt;Node12 -->
<g id="edge11" class="edge"><title>Node9&#45;&gt;Node12</title>
<path fill="none" stroke="midnightblue" d="M202.546,-336.083C198.396,-328.613 192.347,-317.724 187.233,-308.52"/>
<polygon fill="midnightblue" stroke="midnightblue" points="190.278,-306.793 182.362,-299.751 184.159,-310.192 190.278,-306.793"/>
</g>
<!-- Node13 -->
<g id="node13" class="node"><title>Node13</title>
<polygon fill="none" stroke="#bfbfbf" points="216,-280.5 216,-299.5 259,-299.5 259,-280.5 216,-280.5"/>
<text text-anchor="middle" x="237.5" y="-287.5" font-family="Helvetica,sans-Serif" font-size="10.00">QMap</text>
</g>
<!-- Node9&#45;&gt;Node13 -->
<g id="edge12" class="edge"><title>Node9&#45;&gt;Node13</title>
<path fill="none" stroke="midnightblue" d="M212.454,-336.083C216.604,-328.613 222.653,-317.724 227.767,-308.52"/>
<polygon fill="midnightblue" stroke="midnightblue" points="230.841,-310.192 232.638,-299.751 224.722,-306.793 230.841,-310.192"/>
</g>
<!-- Node14 -->
<g id="node14" class="node"><title>Node14</title>
<polygon fill="none" stroke="#bfbfbf" points="277,-280.5 277,-299.5 368,-299.5 368,-280.5 277,-280.5"/>
<text text-anchor="middle" x="322.5" y="-287.5" font-family="Helvetica,sans-Serif" font-size="10.00">QGraphicsScene</text>
</g>
<!-- Node9&#45;&gt;Node14 -->
<g id="edge13" class="edge"><title>Node9&#45;&gt;Node14</title>
<path fill="none" stroke="midnightblue" d="M225.722,-336.444C244.396,-327.675 273.656,-313.935 295.117,-303.858"/>
<polygon fill="midnightblue" stroke="midnightblue" points="296.799,-306.935 304.363,-299.516 293.824,-300.599 296.799,-306.935"/>
</g>
<!-- Node15 -->
<g id="node15" class="node"><title>Node15</title>
<polygon fill="none" stroke="#bfbfbf" points="386,-280.5 386,-299.5 433,-299.5 433,-280.5 386,-280.5"/>
<text text-anchor="middle" x="409.5" y="-287.5" font-family="Helvetica,sans-Serif" font-size="10.00">math.h</text>
</g>
<!-- Node9&#45;&gt;Node15 -->
<g id="edge14" class="edge"><title>Node9&#45;&gt;Node15</title>
<path fill="none" stroke="midnightblue" d="M230.748,-338.857C261.622,-330.689 318.096,-315.712 376.027,-300.116"/>
<polygon fill="midnightblue" stroke="midnightblue" points="376.967,-303.487 385.712,-297.506 375.145,-296.728 376.967,-303.487"/>
</g>
<!-- Node16&#45;&gt;Node8 -->
<g id="edge59" class="edge"><title>Node16&#45;&gt;Node8</title>
<path fill="none" stroke="midnightblue" d="M422.4,-459.435C379.518,-451.043 313.312,-437.441 256.5,-423 252.644,-422.02 248.636,-420.938 244.646,-419.821"/>
<polygon fill="midnightblue" stroke="midnightblue" points="245.445,-416.409 234.867,-417.006 243.509,-423.135 245.445,-416.409"/>
</g>
<!-- Node17 -->
<g id="node17" class="node"><title>Node17</title>
<polygon fill="none" stroke="#bfbfbf" points="657,-398 657,-417 716,-417 716,-398 657,-398"/>
<text text-anchor="middle" x="686.5" y="-405" font-family="Helvetica,sans-Serif" font-size="10.00">QWindow</text>
</g>
<!-- Node16&#45;&gt;Node17 -->
<g id="edge17" class="edge"><title>Node16&#45;&gt;Node17</title>
<path fill="none" stroke="midnightblue" d="M506.821,-459.494C543.521,-451.243 599.655,-437.825 647.5,-423 650.064,-422.206 652.705,-421.336 655.347,-420.431"/>
<polygon fill="midnightblue" stroke="midnightblue" points="656.543,-423.72 664.782,-417.06 654.188,-417.128 656.543,-423.72"/>
</g>
<!-- Node18 -->
<g id="node18" class="node"><title>Node18</title>
<polygon fill="none" stroke="#bfbfbf" points="734,-398 734,-417 829,-417 829,-398 734,-398"/>
<text text-anchor="middle" x="781.5" y="-405" font-family="Helvetica,sans-Serif" font-size="10.00">QOpenGLContext</text>
</g>
<!-- Node16&#45;&gt;Node18 -->
<g id="edge18" class="edge"><title>Node16&#45;&gt;Node18</title>
<path fill="none" stroke="midnightblue" d="M518.16,-460.402C570.353,-452.285 653.951,-438.476 725.5,-423 730.465,-421.926 735.654,-420.711 740.784,-419.451"/>
<polygon fill="midnightblue" stroke="midnightblue" points="741.663,-422.839 750.505,-417.001 739.952,-416.051 741.663,-422.839"/>
</g>
<!-- Node19 -->
<g id="node19" class="node"><title>Node19</title>
<polygon fill="none" stroke="#bfbfbf" points="266,-392.5 266,-422.5 379,-422.5 379,-392.5 266,-392.5"/>
<text text-anchor="start" x="274" y="-410.5" font-family="Helvetica,sans-Serif" font-size="10.00">QOpenGLFunctions_4</text>
<text text-anchor="middle" x="322.5" y="-399.5" font-family="Helvetica,sans-Serif" font-size="10.00">_2_Core</text>
</g>
<!-- Node16&#45;&gt;Node19 -->
<g id="edge19" class="edge"><title>Node16&#45;&gt;Node19</title>
<path fill="none" stroke="midnightblue" d="M446.725,-459.475C425.802,-450.889 392.886,-437.383 366.193,-426.429"/>
<polygon fill="midnightblue" stroke="midnightblue" points="367.254,-423.081 356.674,-422.523 364.596,-429.557 367.254,-423.081"/>
</g>
<!-- Node20 -->
<g id="node20" class="node"><title>Node20</title>
<polygon fill="none" stroke="#bfbfbf" points="397,-398 397,-417 464,-417 464,-398 397,-398"/>
<text text-anchor="middle" x="430.5" y="-405" font-family="Helvetica,sans-Serif" font-size="10.00">QKeyEvent</text>
</g>
<!-- Node16&#45;&gt;Node20 -->
<g id="edge20" class="edge"><title>Node16&#45;&gt;Node20</title>
<path fill="none" stroke="midnightblue" d="M462.199,-459.475C456.759,-450.727 448.141,-436.869 441.264,-425.809"/>
<polygon fill="midnightblue" stroke="midnightblue" points="444.044,-423.653 435.791,-417.009 438.1,-427.349 444.044,-423.653"/>
</g>
<!-- Node21 -->
<g id="node21" class="node"><title>Node21</title>
<polygon fill="none" stroke="#bfbfbf" points="482.5,-398 482.5,-417 528.5,-417 528.5,-398 482.5,-398"/>
<text text-anchor="middle" x="505.5" y="-405" font-family="Helvetica,sans-Serif" font-size="10.00">QTime</text>
</g>
<!-- Node16&#45;&gt;Node21 -->
<g id="edge21" class="edge"><title>Node16&#45;&gt;Node21</title>
<path fill="none" stroke="midnightblue" d="M472.944,-459.475C478.588,-450.638 487.561,-436.589 494.659,-425.475"/>
<polygon fill="midnightblue" stroke="midnightblue" points="497.633,-427.321 500.066,-417.009 491.733,-423.553 497.633,-427.321"/>
</g>
<!-- Node22 -->
<g id="node22" class="node"><title>Node22</title>
<g id="a_node22"><a xlink:href="../../d4/d1c/GameEngine_8hpp.html" target="_top" xlink:title="GameEngine.hpp">
<polygon fill="none" stroke="black" points="546.5,-398 546.5,-417 638.5,-417 638.5,-398 546.5,-398"/>
<text text-anchor="middle" x="592.5" y="-405" font-family="Helvetica,sans-Serif" font-size="10.00">GameEngine.hpp</text>
</a>
</g>
</g>
<!-- Node16&#45;&gt;Node22 -->
<g id="edge22" class="edge"><title>Node16&#45;&gt;Node22</title>
<path fill="none" stroke="midnightblue" d="M485.409,-459.475C506.387,-449.49 541.35,-432.848 565.593,-421.307"/>
<polygon fill="midnightblue" stroke="midnightblue" points="567.099,-424.467 574.624,-417.009 564.09,-418.147 567.099,-424.467"/>
</g>
<!-- Node23 -->
<g id="node23" class="node"><title>Node23</title>
<g id="a_node23"><a xlink:href="../../de/df7/worldparticles_8hpp.html" target="_top" xlink:title="wordparticles configuration file ">
<polygon fill="none" stroke="black" points="564,-112.5 564,-131.5 659,-131.5 659,-112.5 564,-112.5"/>
<text text-anchor="middle" x="611.5" y="-119.5" font-family="Helvetica,sans-Serif" font-size="10.00">worldparticles.hpp</text>
</a>
</g>
</g>
<!-- Node22&#45;&gt;Node23 -->
<g id="edge23" class="edge"><title>Node22&#45;&gt;Node23</title>
<path fill="none" stroke="midnightblue" d="M580.548,-397.818C558.017,-380.344 511.5,-338.514 511.5,-291 511.5,-291 511.5,-291 511.5,-233 511.5,-188.984 555.88,-154.796 585.51,-136.875"/>
<polygon fill="midnightblue" stroke="midnightblue" points="587.644,-139.683 594.536,-131.636 584.131,-133.629 587.644,-139.683"/>
</g>
<!-- Node24 -->
<g id="node24" class="node"><title>Node24</title>
<g id="a_node24"><a xlink:href="../../db/de8/Scene_8hpp.html" target="_top" xlink:title="Scene.hpp">
<polygon fill="none" stroke="black" points="641,-336.5 641,-355.5 704,-355.5 704,-336.5 641,-336.5"/>
<text text-anchor="middle" x="672.5" y="-343.5" font-family="Helvetica,sans-Serif" font-size="10.00">Scene.hpp</text>
</a>
</g>
</g>
<!-- Node22&#45;&gt;Node24 -->
<g id="edge24" class="edge"><title>Node22&#45;&gt;Node24</title>
<path fill="none" stroke="midnightblue" d="M603.962,-397.975C616.675,-388.52 637.413,-373.096 652.753,-361.687"/>
<polygon fill="midnightblue" stroke="midnightblue" points="655.124,-364.285 661.059,-355.509 650.946,-358.669 655.124,-364.285"/>
</g>
<!-- Node25 -->
<g id="node25" class="node"><title>Node25</title>
<polygon fill="none" stroke="#bfbfbf" points="1189.5,-56.5 1189.5,-75.5 1241.5,-75.5 1241.5,-56.5 1189.5,-56.5"/>
<text text-anchor="middle" x="1215.5" y="-63.5" font-family="Helvetica,sans-Serif" font-size="10.00">memory</text>
</g>
<!-- Node24&#45;&gt;Node25 -->
<g id="edge25" class="edge"><title>Node24&#45;&gt;Node25</title>
<path fill="none" stroke="midnightblue" d="M704.35,-343.329C839.855,-335.804 1361.5,-302.456 1361.5,-235 1361.5,-235 1361.5,-235 1361.5,-177 1361.5,-121.942 1294.45,-90.9899 1251.23,-76.7569"/>
<polygon fill="midnightblue" stroke="midnightblue" points="1252.19,-73.3916 1241.6,-73.7317 1250.09,-80.0694 1252.19,-73.3916"/>
</g>
<!-- Node26 -->
<g id="node26" class="node"><title>Node26</title>
<polygon fill="none" stroke="#bfbfbf" points="628,-280.5 628,-299.5 657,-299.5 657,-280.5 628,-280.5"/>
<text text-anchor="middle" x="642.5" y="-287.5" font-family="Helvetica,sans-Serif" font-size="10.00">list</text>
</g>
<!-- Node24&#45;&gt;Node26 -->
<g id="edge26" class="edge"><title>Node24&#45;&gt;Node26</title>
<path fill="none" stroke="midnightblue" d="M667.546,-336.083C663.396,-328.613 657.347,-317.724 652.233,-308.52"/>
<polygon fill="midnightblue" stroke="midnightblue" points="655.278,-306.793 647.362,-299.751 649.159,-310.192 655.278,-306.793"/>
</g>
<!-- Node27 -->
<g id="node27" class="node"><title>Node27</title>
<g id="a_node27"><a xlink:href="../../d4/db5/GameObject_8hpp.html" target="_top" xlink:title="GameObject.hpp">
<polygon fill="none" stroke="black" points="690.5,-224.5 690.5,-243.5 780.5,-243.5 780.5,-224.5 690.5,-224.5"/>
<text text-anchor="middle" x="735.5" y="-231.5" font-family="Helvetica,sans-Serif" font-size="10.00">GameObject.hpp</text>
</a>
</g>
</g>
<!-- Node24&#45;&gt;Node27 -->
<g id="edge27" class="edge"><title>Node24&#45;&gt;Node27</title>
<path fill="none" stroke="midnightblue" d="M695.288,-336.471C710.826,-329.316 730.207,-317.435 739.5,-300 747.137,-285.671 744.947,-266.964 741.552,-253.299"/>
<polygon fill="midnightblue" stroke="midnightblue" points="744.886,-252.229 738.736,-243.602 738.163,-254.181 744.886,-252.229"/>
</g>
<!-- Node39 -->
<g id="node39" class="node"><title>Node39</title>
<g id="a_node39"><a xlink:href="../../d6/d80/Camera_8hpp.html" target="_top" xlink:title="Camera.hpp">
<polygon fill="none" stroke="black" points="539.5,-280.5 539.5,-299.5 609.5,-299.5 609.5,-280.5 539.5,-280.5"/>
<text text-anchor="middle" x="574.5" y="-287.5" font-family="Helvetica,sans-Serif" font-size="10.00">Camera.hpp</text>
</a>
</g>
</g>
<!-- Node24&#45;&gt;Node39 -->
<g id="edge54" class="edge"><title>Node24&#45;&gt;Node39</title>
<path fill="none" stroke="midnightblue" d="M656.755,-336.324C641.181,-327.743 617.123,-314.486 599.041,-304.522"/>
<polygon fill="midnightblue" stroke="midnightblue" points="600.654,-301.415 590.206,-299.655 597.276,-307.546 600.654,-301.415"/>
</g>
<!-- Node40 -->
<g id="node40" class="node"><title>Node40</title>
<g id="a_node40"><a xlink:href="../../d5/dd5/Light_8hpp.html" target="_top" xlink:title="Light.hpp">
<polygon fill="none" stroke="black" points="674.5,-280.5 674.5,-299.5 730.5,-299.5 730.5,-280.5 674.5,-280.5"/>
<text text-anchor="middle" x="702.5" y="-287.5" font-family="Helvetica,sans-Serif" font-size="10.00">Light.hpp</text>
</a>
</g>
</g>
<!-- Node24&#45;&gt;Node40 -->
<g id="edge58" class="edge"><title>Node24&#45;&gt;Node40</title>
<path fill="none" stroke="midnightblue" d="M677.454,-336.083C681.604,-328.613 687.653,-317.724 692.767,-308.52"/>
<polygon fill="midnightblue" stroke="midnightblue" points="695.841,-310.192 697.638,-299.751 689.722,-306.793 695.841,-310.192"/>
</g>
<!-- Node27&#45;&gt;Node23 -->
<g id="edge30" class="edge"><title>Node27&#45;&gt;Node23</title>
<path fill="none" stroke="midnightblue" d="M690.457,-226.593C666.017,-220.711 637.425,-209.465 620.5,-188 610.259,-175.012 608.739,-155.849 609.342,-141.693"/>
<polygon fill="midnightblue" stroke="midnightblue" points="612.839,-141.876 610.155,-131.627 605.862,-141.312 612.839,-141.876"/>
</g>
<!-- Node27&#45;&gt;Node25 -->
<g id="edge29" class="edge"><title>Node27&#45;&gt;Node25</title>
<path fill="none" stroke="midnightblue" d="M780.921,-231.759C900.382,-227.446 1218.56,-208.825 1282.5,-132 1298.68,-112.56 1270.23,-92.6655 1245.56,-80.0955"/>
<polygon fill="midnightblue" stroke="midnightblue" points="1246.91,-76.8623 1236.39,-75.6527 1243.86,-83.1621 1246.91,-76.8623"/>
</g>
<!-- Node28 -->
<g id="node28" class="node"><title>Node28</title>
<polygon fill="none" stroke="#bfbfbf" points="709.5,-56.5 709.5,-75.5 779.5,-75.5 779.5,-56.5 709.5,-56.5"/>
<text text-anchor="middle" x="744.5" y="-63.5" font-family="Helvetica,sans-Serif" font-size="10.00">glm/glm.hpp</text>
</g>
<!-- Node27&#45;&gt;Node28 -->
<g id="edge28" class="edge"><title>Node27&#45;&gt;Node28</title>
<path fill="none" stroke="midnightblue" d="M735.984,-224.075C737.401,-197.945 741.561,-121.211 743.493,-85.577"/>
<polygon fill="midnightblue" stroke="midnightblue" points="746.989,-85.743 744.035,-75.5681 739.999,-85.3639 746.989,-85.743"/>
</g>
<!-- Node29 -->
<g id="node29" class="node"><title>Node29</title>
<g id="a_node29"><a xlink:href="../../da/d83/Transform_8hpp.html" target="_top" xlink:title="Transform.hpp">
<polygon fill="none" stroke="black" points="403.5,-168.5 403.5,-187.5 483.5,-187.5 483.5,-168.5 403.5,-168.5"/>
<text text-anchor="middle" x="443.5" y="-175.5" font-family="Helvetica,sans-Serif" font-size="10.00">Transform.hpp</text>
</a>
</g>
</g>
<!-- Node27&#45;&gt;Node29 -->
<g id="edge31" class="edge"><title>Node27&#45;&gt;Node29</title>
<path fill="none" stroke="midnightblue" d="M690.195,-224.622C636.962,-214.777 548.905,-198.493 493.656,-188.275"/>
<polygon fill="midnightblue" stroke="midnightblue" points="494.207,-184.818 483.737,-186.441 492.934,-191.701 494.207,-184.818"/>
</g>
<!-- Node30 -->
<g id="node30" class="node"><title>Node30</title>
<g id="a_node30"><a xlink:href="../../d1/dca/IRenderer_8hpp.html" target="_top" xlink:title="IRenderer.hpp">
<polygon fill="none" stroke="black" points="629.5,-168.5 629.5,-187.5 707.5,-187.5 707.5,-168.5 629.5,-168.5"/>
<text text-anchor="middle" x="668.5" y="-175.5" font-family="Helvetica,sans-Serif" font-size="10.00">IRenderer.hpp</text>
</a>
</g>
</g>
<!-- Node27&#45;&gt;Node30 -->
<g id="edge33" class="edge"><title>Node27&#45;&gt;Node30</title>
<path fill="none" stroke="midnightblue" d="M724.735,-224.324C714.734,-216.263 699.613,-204.077 687.57,-194.369"/>
<polygon fill="midnightblue" stroke="midnightblue" points="689.443,-191.384 679.461,-187.834 685.05,-196.834 689.443,-191.384"/>
</g>
<!-- Node31 -->
<g id="node31" class="node"><title>Node31</title>
<g id="a_node31"><a xlink:href="../../d0/d70/Material_8hpp.html" target="_top" xlink:title="Material.hpp">
<polygon fill="none" stroke="black" points="780.5,-168.5 780.5,-187.5 850.5,-187.5 850.5,-168.5 780.5,-168.5"/>
<text text-anchor="middle" x="815.5" y="-175.5" font-family="Helvetica,sans-Serif" font-size="10.00">Material.hpp</text>
</a>
</g>
</g>
<!-- Node27&#45;&gt;Node31 -->
<g id="edge37" class="edge"><title>Node27&#45;&gt;Node31</title>
<path fill="none" stroke="midnightblue" d="M748.353,-224.324C760.716,-215.979 779.63,-203.212 794.237,-193.352"/>
<polygon fill="midnightblue" stroke="midnightblue" points="796.348,-196.15 802.679,-187.655 792.432,-190.348 796.348,-196.15"/>
</g>
<!-- Node36 -->
<g id="node36" class="node"><title>Node36</title>
<g id="a_node36"><a xlink:href="../../d1/d62/Mesh_8hpp.html" target="_top" xlink:title="Mesh.hpp">
<polygon fill="none" stroke="black" points="885,-168.5 885,-187.5 944,-187.5 944,-168.5 885,-168.5"/>
<text text-anchor="middle" x="914.5" y="-175.5" font-family="Helvetica,sans-Serif" font-size="10.00">Mesh.hpp</text>
</a>
</g>
</g>
<!-- Node27&#45;&gt;Node36 -->
<g id="edge46" class="edge"><title>Node27&#45;&gt;Node36</title>
<path fill="none" stroke="midnightblue" d="M763.863,-224.444C794.238,-215.28 842.61,-200.688 876.316,-190.519"/>
<polygon fill="midnightblue" stroke="midnightblue" points="877.707,-193.756 886.27,-187.516 875.685,-187.054 877.707,-193.756"/>
</g>
<!-- Node29&#45;&gt;Node28 -->
<g id="edge32" class="edge"><title>Node29&#45;&gt;Node28</title>
<path fill="none" stroke="midnightblue" d="M451.175,-168.256C464.155,-154.062 491.934,-126.17 521.5,-112 578.949,-84.466 652.535,-73.7642 699.115,-69.6144"/>
<polygon fill="midnightblue" stroke="midnightblue" points="699.523,-73.0926 709.201,-68.7808 698.947,-66.1164 699.523,-73.0926"/>
</g>
<!-- Node30&#45;&gt;Node23 -->
<g id="edge36" class="edge"><title>Node30&#45;&gt;Node23</title>
<path fill="none" stroke="midnightblue" d="M659.342,-168.324C650.999,-160.42 638.468,-148.548 628.323,-138.938"/>
<polygon fill="midnightblue" stroke="midnightblue" points="630.491,-136.171 620.825,-131.834 625.677,-141.252 630.491,-136.171"/>
</g>
<!-- Node30&#45;&gt;Node25 -->
<g id="edge35" class="edge"><title>Node30&#45;&gt;Node25</title>
<path fill="none" stroke="midnightblue" d="M707.525,-173.283C808.284,-163.623 1070.57,-138.059 1088.5,-132 1104.75,-126.511 1106.41,-120.157 1121.5,-112 1143.05,-100.348 1168.1,-88.4337 1186.92,-79.7936"/>
<polygon fill="midnightblue" stroke="midnightblue" points="1188.49,-82.9234 1196.14,-75.5927 1185.59,-76.5533 1188.49,-82.9234"/>
</g>
<!-- Node30&#45;&gt;Node28 -->
<g id="edge34" class="edge"><title>Node30&#45;&gt;Node28</title>
<path fill="none" stroke="midnightblue" d="M673.938,-168.499C681.974,-155.999 697.576,-131.982 711.5,-112 718.089,-102.544 725.681,-92.158 731.921,-83.749"/>
<polygon fill="midnightblue" stroke="midnightblue" points="734.873,-85.6452 738.049,-75.5376 729.263,-81.4584 734.873,-85.6452"/>
</g>
<!-- Node31&#45;&gt;Node25 -->
<g id="edge39" class="edge"><title>Node31&#45;&gt;Node25</title>
<path fill="none" stroke="midnightblue" d="M850.659,-171.809C859.121,-170.561 868.133,-169.232 876.5,-168 985.384,-151.968 1019.11,-172.357 1121.5,-132 1151.16,-120.308 1180.63,-97.6811 1198.45,-82.4552"/>
<polygon fill="midnightblue" stroke="midnightblue" points="1201,-84.8766 1206.22,-75.6556 1196.39,-79.6102 1201,-84.8766"/>
</g>
<!-- Node31&#45;&gt;Node28 -->
<g id="edge38" class="edge"><title>Node31&#45;&gt;Node28</title>
<path fill="none" stroke="midnightblue" d="M809.929,-168.368C798.264,-150.296 771.077,-108.176 755.671,-84.3074"/>
<polygon fill="midnightblue" stroke="midnightblue" points="758.409,-82.0952 750.045,-75.5914 752.528,-85.8913 758.409,-82.0952"/>
</g>
<!-- Node32 -->
<g id="node32" class="node"><title>Node32</title>
<g id="a_node32"><a xlink:href="../../dc/ddb/ShaderProgram_8hpp.html" target="_top" xlink:title="ShaderProgram.hpp">
<polygon fill="none" stroke="black" points="976,-112.5 976,-131.5 1079,-131.5 1079,-112.5 976,-112.5"/>
<text text-anchor="middle" x="1027.5" y="-119.5" font-family="Helvetica,sans-Serif" font-size="10.00">ShaderProgram.hpp</text>
</a>
</g>
</g>
<!-- Node31&#45;&gt;Node32 -->
<g id="edge40" class="edge"><title>Node31&#45;&gt;Node32</title>
<path fill="none" stroke="midnightblue" d="M849.092,-168.444C885.687,-159.122 944.338,-144.183 984.326,-133.997"/>
<polygon fill="midnightblue" stroke="midnightblue" points="985.239,-137.377 994.065,-131.516 983.511,-130.593 985.239,-137.377"/>
</g>
<!-- Node32&#45;&gt;Node25 -->
<g id="edge43" class="edge"><title>Node32&#45;&gt;Node25</title>
<path fill="none" stroke="midnightblue" d="M1057.29,-112.444C1090.46,-102.916 1144.06,-87.5187 1179.54,-77.328"/>
<polygon fill="midnightblue" stroke="midnightblue" points="1180.84,-80.5978 1189.48,-74.473 1178.91,-73.8698 1180.84,-80.5978"/>
</g>
<!-- Node32&#45;&gt;Node28 -->
<g id="edge41" class="edge"><title>Node32&#45;&gt;Node28</title>
<path fill="none" stroke="midnightblue" d="M982.658,-112.444C929.91,-102.379 842.837,-85.7639 789.864,-75.656"/>
<polygon fill="midnightblue" stroke="midnightblue" points="790.223,-72.1615 779.744,-73.7251 788.911,-79.0374 790.223,-72.1615"/>
</g>
<!-- Node33 -->
<g id="node33" class="node"><title>Node33</title>
<polygon fill="none" stroke="#bfbfbf" points="925.5,-56.5 925.5,-75.5 969.5,-75.5 969.5,-56.5 925.5,-56.5"/>
<text text-anchor="middle" x="947.5" y="-63.5" font-family="Helvetica,sans-Serif" font-size="10.00">vector</text>
</g>
<!-- Node32&#45;&gt;Node33 -->
<g id="edge42" class="edge"><title>Node32&#45;&gt;Node33</title>
<path fill="none" stroke="midnightblue" d="M1014.65,-112.324C1002.28,-103.979 983.37,-91.2122 968.763,-81.3524"/>
<polygon fill="midnightblue" stroke="midnightblue" points="970.568,-78.3483 960.321,-75.6545 966.652,-84.1503 970.568,-78.3483"/>
</g>
<!-- Node34 -->
<g id="node34" class="node"><title>Node34</title>
<g id="a_node34"><a xlink:href="../../d4/d6e/Shader_8hpp.html" target="_top" xlink:title="Shader.hpp">
<polygon fill="none" stroke="black" points="994.5,-56.5 994.5,-75.5 1060.5,-75.5 1060.5,-56.5 994.5,-56.5"/>
<text text-anchor="middle" x="1027.5" y="-63.5" font-family="Helvetica,sans-Serif" font-size="10.00">Shader.hpp</text>
</a>
</g>
</g>
<!-- Node32&#45;&gt;Node34 -->
<g id="edge44" class="edge"><title>Node32&#45;&gt;Node34</title>
<path fill="none" stroke="midnightblue" d="M1027.5,-112.083C1027.5,-105.006 1027.5,-94.8611 1027.5,-85.9865"/>
<polygon fill="midnightblue" stroke="midnightblue" points="1031,-85.751 1027.5,-75.7511 1024,-85.7511 1031,-85.751"/>
</g>
<!-- Node35 -->
<g id="node35" class="node"><title>Node35</title>
<polygon fill="none" stroke="#bfbfbf" points="1007,-0.5 1007,-19.5 1048,-19.5 1048,-0.5 1007,-0.5"/>
<text text-anchor="middle" x="1027.5" y="-7.5" font-family="Helvetica,sans-Serif" font-size="10.00">string</text>
</g>
<!-- Node34&#45;&gt;Node35 -->
<g id="edge45" class="edge"><title>Node34&#45;&gt;Node35</title>
<path fill="none" stroke="midnightblue" d="M1027.5,-56.083C1027.5,-49.0059 1027.5,-38.8611 1027.5,-29.9865"/>
<polygon fill="midnightblue" stroke="midnightblue" points="1031,-29.751 1027.5,-19.7511 1024,-29.7511 1031,-29.751"/>
</g>
<!-- Node36&#45;&gt;Node25 -->
<g id="edge48" class="edge"><title>Node36&#45;&gt;Node25</title>
<path fill="none" stroke="midnightblue" d="M944.167,-175.417C1025.13,-170.795 1245.28,-156.104 1266.5,-132 1281.36,-115.119 1258.89,-94.5323 1239.23,-81.1125"/>
<polygon fill="midnightblue" stroke="midnightblue" points="1241.12,-78.1645 1230.83,-75.6608 1237.31,-84.0379 1241.12,-78.1645"/>
</g>
<!-- Node36&#45;&gt;Node28 -->
<g id="edge49" class="edge"><title>Node36&#45;&gt;Node28</title>
<path fill="none" stroke="midnightblue" d="M892.362,-168.342C872.745,-160.226 843.701,-147.101 820.5,-132 798.155,-117.456 775.271,-96.9716 760.535,-82.9073"/>
<polygon fill="midnightblue" stroke="midnightblue" points="762.856,-80.283 753.241,-75.8327 757.982,-85.3076 762.856,-80.283"/>
</g>
<!-- Node36&#45;&gt;Node33 -->
<g id="edge47" class="edge"><title>Node36&#45;&gt;Node33</title>
<path fill="none" stroke="midnightblue" d="M917.228,-168.387C920.082,-159.339 924.672,-144.69 928.5,-132 933.222,-116.347 938.421,-98.5199 942.184,-85.4992"/>
<polygon fill="midnightblue" stroke="midnightblue" points="945.56,-86.4239 944.967,-75.8457 938.834,-84.4852 945.56,-86.4239"/>
</g>
<!-- Node37 -->
<g id="node37" class="node"><title>Node37</title>
<polygon fill="none" stroke="#bfbfbf" points="1174,-112.5 1174,-131.5 1257,-131.5 1257,-112.5 1174,-112.5"/>
<text text-anchor="middle" x="1215.5" y="-119.5" font-family="Helvetica,sans-Serif" font-size="10.00">assimp/mesh.h</text>
</g>
<!-- Node36&#45;&gt;Node37 -->
<g id="edge50" class="edge"><title>Node36&#45;&gt;Node37</title>
<path fill="none" stroke="midnightblue" d="M944.185,-171.674C995.255,-162.512 1100.35,-143.659 1163.7,-132.293"/>
<polygon fill="midnightblue" stroke="midnightblue" points="1164.65,-135.679 1173.87,-130.468 1163.41,-128.789 1164.65,-135.679"/>
</g>
<!-- Node38 -->
<g id="node38" class="node"><title>Node38</title>
<g id="a_node38"><a xlink:href="../../da/d04/BufferObject_8hpp.html" target="_top" xlink:title="BufferObject.hpp">
<polygon fill="none" stroke="black" points="829.5,-112.5 829.5,-131.5 919.5,-131.5 919.5,-112.5 829.5,-112.5"/>
<text text-anchor="middle" x="874.5" y="-119.5" font-family="Helvetica,sans-Serif" font-size="10.00">BufferObject.hpp</text>
</a>
</g>
</g>
<!-- Node36&#45;&gt;Node38 -->
<g id="edge51" class="edge"><title>Node36&#45;&gt;Node38</title>
<path fill="none" stroke="midnightblue" d="M907.895,-168.083C902.245,-160.455 893.955,-149.264 887.049,-139.941"/>
<polygon fill="midnightblue" stroke="midnightblue" points="889.747,-137.703 880.982,-131.751 884.122,-141.87 889.747,-137.703"/>
</g>
<!-- Node38&#45;&gt;Node28 -->
<g id="edge53" class="edge"><title>Node38&#45;&gt;Node28</title>
<path fill="none" stroke="midnightblue" d="M853.901,-112.444C832.507,-103.557 798.819,-89.5632 774.476,-79.4514"/>
<polygon fill="midnightblue" stroke="midnightblue" points="775.58,-76.1203 765.003,-75.5164 772.895,-82.5848 775.58,-76.1203"/>
</g>
<!-- Node38&#45;&gt;Node33 -->
<g id="edge52" class="edge"><title>Node38&#45;&gt;Node33</title>
<path fill="none" stroke="midnightblue" d="M886.229,-112.324C897.337,-104.107 914.242,-91.6017 927.483,-81.8069"/>
<polygon fill="midnightblue" stroke="midnightblue" points="929.6,-84.5948 935.558,-75.8339 925.437,-78.9671 929.6,-84.5948"/>
</g>
<!-- Node39&#45;&gt;Node27 -->
<g id="edge57" class="edge"><title>Node39&#45;&gt;Node27</title>
<path fill="none" stroke="midnightblue" d="M600.011,-280.444C627.096,-271.359 670.09,-256.939 700.369,-246.783"/>
<polygon fill="midnightblue" stroke="midnightblue" points="701.74,-250.015 710.108,-243.516 699.514,-243.378 701.74,-250.015"/>
</g>
<!-- Node39&#45;&gt;Node28 -->
<g id="edge55" class="edge"><title>Node39&#45;&gt;Node28</title>
<path fill="none" stroke="midnightblue" d="M569.823,-280.462C555.326,-252.716 514.506,-163.901 555.5,-112 573.103,-89.7134 649.33,-77.2754 699.436,-71.3727"/>
<polygon fill="midnightblue" stroke="midnightblue" points="699.851,-74.8483 709.393,-70.2447 699.063,-67.8928 699.851,-74.8483"/>
</g>
<!-- Node39&#45;&gt;Node29 -->
<g id="edge56" class="edge"><title>Node39&#45;&gt;Node29</title>
<path fill="none" stroke="midnightblue" d="M564.221,-280.368C542.028,-261.733 489.389,-217.532 461.523,-194.134"/>
<polygon fill="midnightblue" stroke="midnightblue" points="463.641,-191.342 453.732,-187.591 459.139,-196.702 463.641,-191.342"/>
</g>
</g>
</svg>
        <g id="navigator" transform="translate(0 0)" fill="#404254">
                <rect fill="#f2f5e9" fill-opacity="0.5" stroke="#606060" stroke-width=".5" x="0" y="0" width="60" height="60"/>
                <use id="zoomplus" xlink:href="#zoomPlus" x="17" y="9" onmousedown="handleZoom(evt,'in')"/>
                <use id="zoomminus" xlink:href="#zoomMin" x="42" y="9" onmousedown="handleZoom(evt,'out')"/>
                <use id="reset" xlink:href="#resetDef" x="30" y="36" onmousedown="handleReset()"/>
                <g id="arrowUp" xlink:href="#dirArrow" transform="translate(30 24)" onmousedown="handlePan(0,-1)">
                  <use xlink:href="#rim" fill="#404040">
                        <set attributeName="fill" to="#808080" begin="arrowUp.mouseover" end="arrowUp.mouseout"/>
                  </use>
                  <path fill="none" stroke="white" stroke-width="1.5" d="M0,-3.0v7 M-2.5,-0.5L0,-3.0L2.5,-0.5"/>
                </g>
                <g id="arrowRight" xlink:href="#dirArrow" transform="rotate(90) translate(36 -43)" onmousedown="handlePan(1,0)">
                  <use xlink:href="#rim" fill="#404040">
                        <set attributeName="fill" to="#808080" begin="arrowRight.mouseover" end="arrowRight.mouseout"/>
                  </use>
                  <path fill="none" stroke="white" stroke-width="1.5" d="M0,-3.0v7 M-2.5,-0.5L0,-3.0L2.5,-0.5"/>
                </g>
                <g id="arrowDown" xlink:href="#dirArrow" transform="rotate(180) translate(-30 -48)" onmousedown="handlePan(0,1)">
                  <use xlink:href="#rim" fill="#404040">
                        <set attributeName="fill" to="#808080" begin="arrowDown.mouseover" end="arrowDown.mouseout"/>
                  </use>
                  <path fill="none" stroke="white" stroke-width="1.5" d="M0,-3.0v7 M-2.5,-0.5L0,-3.0L2.5,-0.5"/>
                </g>
                <g id="arrowLeft" xlink:href="#dirArrow" transform="rotate(270) translate(-36 17)" onmousedown="handlePan(-1,0)">
                  <use xlink:href="#rim" fill="#404040">
                        <set attributeName="fill" to="#808080" begin="arrowLeft.mouseover" end="arrowLeft.mouseout"/>
                  </use>
                  <path fill="none" stroke="white" stroke-width="1.5" d="M0,-3.0v7 M-2.5,-0.5L0,-3.0L2.5,-0.5"/>
                </g>
        </g>
        <svg viewBox="0 0 15 15" width="100%" height="30px" preserveAspectRatio="xMaxYMin meet">
         <g id="arrow_out" transform="scale(0.3 0.3)">
          <a xlink:href="mainwindow_8cpp__incl_org.svg" target="_base">
           <rect id="button" ry="5" rx="5" y="6" x="6" height="38" width="38"
                fill="#f2f5e9" fill-opacity="0.5" stroke="#606060" stroke-width="1.0"/>
           <path id="arrow"
             d="M 11.500037,31.436501 C 11.940474,20.09759 22.043105,11.32322 32.158766,21.979434 L 37.068811,17.246167 C 37.068811,17.246167 37.088388,32 37.088388,32 L 22.160133,31.978069 C 22.160133,31.978069 26.997745,27.140456 26.997745,27.140456 C 18.528582,18.264221 13.291696,25.230495 11.500037,31.436501 z"
             style="fill:#404040;"/>
          </a>
         </g>
        </svg>
</svg>
