<?xml version="1.0" encoding="UTF-8" standalone="no"?>
<!DOCTYPE svg PUBLIC "-//W3C//DTD SVG 1.1//EN"
 "http://www.w3.org/Graphics/SVG/1.1/DTD/svg11.dtd">
<!-- Generated by graphviz version 2.38.0 (20140413.2041)
 -->
<!-- Title: window/mainwindow.h Pages: 1 -->
<svg width="1364pt" height="543pt"
 viewBox="0.00 0.00 1364.00 543.00" xmlns="http://www.w3.org/2000/svg" xmlns:xlink="http://www.w3.org/1999/xlink">
<g id="graph0" class="graph" transform="scale(1 1) rotate(0) translate(4 539)">
<title>window/mainwindow.h</title>
<!-- Node1 -->
<g id="node1" class="node"><title>Node1</title>
<polygon fill="#bfbfbf" stroke="black" points="144.5,-515.5 144.5,-534.5 259.5,-534.5 259.5,-515.5 144.5,-515.5"/>
<text text-anchor="middle" x="202" y="-522.5" font-family="Helvetica,sans-Serif" font-size="10.00">window/mainwindow.h</text>
</g>
<!-- Node2 -->
<g id="node2" class="node"><title>Node2</title>
<polygon fill="none" stroke="#bfbfbf" points="11,-459.5 11,-478.5 91,-478.5 91,-459.5 11,-459.5"/>
<text text-anchor="middle" x="51" y="-466.5" font-family="Helvetica,sans-Serif" font-size="10.00">QMainWindow</text>
</g>
<!-- Node1&#45;&gt;Node2 -->
<g id="edge1" class="edge"><title>Node1&#45;&gt;Node2</title>
<path fill="none" stroke="midnightblue" d="M178.074,-515.444C152.781,-506.399 112.698,-492.064 84.3202,-481.916"/>
<polygon fill="midnightblue" stroke="midnightblue" points="85.4091,-478.588 74.8145,-478.516 83.0519,-485.179 85.4091,-478.588"/>
</g>
<!-- Node3 -->
<g id="node3" class="node"><title>Node3</title>
<g id="a_node3"><a xlink:href="../../d7/d42/toolwidget_8h.html" target="_top" xlink:title="window/toolwidget.h">
<polygon fill="none" stroke="black" points="109.5,-459.5 109.5,-478.5 214.5,-478.5 214.5,-459.5 109.5,-459.5"/>
<text text-anchor="middle" x="162" y="-466.5" font-family="Helvetica,sans-Serif" font-size="10.00">window/toolwidget.h</text>
</a>
</g>
</g>
<!-- Node1&#45;&gt;Node3 -->
<g id="edge2" class="edge"><title>Node1&#45;&gt;Node3</title>
<path fill="none" stroke="midnightblue" d="M195.395,-515.083C189.745,-507.455 181.455,-496.264 174.549,-486.941"/>
<polygon fill="midnightblue" stroke="midnightblue" points="177.247,-484.703 168.482,-478.751 171.622,-488.87 177.247,-484.703"/>
</g>
<!-- Node5 -->
<g id="node5" class="node"><title>Node5</title>
<g id="a_node5"><a xlink:href="../../dc/d51/model_8h.html" target="_top" xlink:title="model/model.h">
<polygon fill="none" stroke="black" points="162,-398 162,-417 242,-417 242,-398 162,-398"/>
<text text-anchor="middle" x="202" y="-405" font-family="Helvetica,sans-Serif" font-size="10.00">model/model.h</text>
</a>
</g>
</g>
<!-- Node1&#45;&gt;Node5 -->
<g id="edge12" class="edge"><title>Node1&#45;&gt;Node5</title>
<path fill="none" stroke="midnightblue" d="M207.384,-515.443C212.556,-506.678 220.012,-492.467 223,-479 227.051,-460.74 219.594,-440.3 212.47,-426.149"/>
<polygon fill="midnightblue" stroke="midnightblue" points="215.38,-424.174 207.512,-417.079 209.237,-427.532 215.38,-424.174"/>
</g>
<!-- Node13 -->
<g id="node13" class="node"><title>Node13</title>
<g id="a_node13"><a xlink:href="../../d1/d2a/glwindow_8h.html" target="_top" xlink:title="window/glwindow.h">
<polygon fill="none" stroke="black" points="411.5,-459.5 411.5,-478.5 512.5,-478.5 512.5,-459.5 411.5,-459.5"/>
<text text-anchor="middle" x="462" y="-466.5" font-family="Helvetica,sans-Serif" font-size="10.00">window/glwindow.h</text>
</a>
</g>
</g>
<!-- Node1&#45;&gt;Node13 -->
<g id="edge13" class="edge"><title>Node1&#45;&gt;Node13</title>
<path fill="none" stroke="midnightblue" d="M243.198,-515.444C288.649,-506.004 361.842,-490.802 410.909,-480.611"/>
<polygon fill="midnightblue" stroke="midnightblue" points="411.916,-483.977 420.995,-478.516 410.492,-477.123 411.916,-483.977"/>
</g>
<!-- Node4 -->
<g id="node4" class="node"><title>Node4</title>
<polygon fill="none" stroke="#bfbfbf" points="72.5,-398 72.5,-417 143.5,-417 143.5,-398 72.5,-398"/>
<text text-anchor="middle" x="108" y="-405" font-family="Helvetica,sans-Serif" font-size="10.00">QTabWidget</text>
</g>
<!-- Node3&#45;&gt;Node4 -->
<g id="edge3" class="edge"><title>Node3&#45;&gt;Node4</title>
<path fill="none" stroke="midnightblue" d="M154.263,-459.475C146.003,-450.373 132.723,-435.741 122.506,-424.483"/>
<polygon fill="midnightblue" stroke="midnightblue" points="125.035,-422.062 115.723,-417.009 119.851,-426.766 125.035,-422.062"/>
</g>
<!-- Node3&#45;&gt;Node5 -->
<g id="edge4" class="edge"><title>Node3&#45;&gt;Node5</title>
<path fill="none" stroke="midnightblue" d="M167.731,-459.475C173.672,-450.638 183.117,-436.589 190.588,-425.475"/>
<polygon fill="midnightblue" stroke="midnightblue" points="193.605,-427.261 196.28,-417.009 187.796,-423.355 193.605,-427.261"/>
</g>
<!-- Node6 -->
<g id="node6" class="node"><title>Node6</title>
<g id="a_node6"><a xlink:href="../../d5/da5/tools_8h.html" target="_top" xlink:title="tools.h">
<polygon fill="none" stroke="black" points="179,-336.5 179,-355.5 225,-355.5 225,-336.5 179,-336.5"/>
<text text-anchor="middle" x="202" y="-343.5" font-family="Helvetica,sans-Serif" font-size="10.00">tools.h</text>
</a>
</g>
</g>
<!-- Node5&#45;&gt;Node6 -->
<g id="edge5" class="edge"><title>Node5&#45;&gt;Node6</title>
<path fill="none" stroke="midnightblue" d="M202,-397.975C202,-389.58 202,-376.481 202,-365.663"/>
<polygon fill="midnightblue" stroke="midnightblue" points="205.5,-365.509 202,-355.509 198.5,-365.509 205.5,-365.509"/>
</g>
<!-- Node7 -->
<g id="node7" class="node"><title>Node7</title>
<polygon fill="none" stroke="#bfbfbf" points="0,-280.5 0,-299.5 50,-299.5 50,-280.5 0,-280.5"/>
<text text-anchor="middle" x="25" y="-287.5" font-family="Helvetica,sans-Serif" font-size="10.00">QString</text>
</g>
<!-- Node6&#45;&gt;Node7 -->
<g id="edge6" class="edge"><title>Node6&#45;&gt;Node7</title>
<path fill="none" stroke="midnightblue" d="M178.86,-337.94C148.583,-328.703 95.2458,-312.431 60.011,-301.681"/>
<polygon fill="midnightblue" stroke="midnightblue" points="60.7315,-298.242 50.1454,-298.671 58.6889,-304.937 60.7315,-298.242"/>
</g>
<!-- Node8 -->
<g id="node8" class="node"><title>Node8</title>
<polygon fill="none" stroke="#bfbfbf" points="68.5,-280.5 68.5,-299.5 133.5,-299.5 133.5,-280.5 68.5,-280.5"/>
<text text-anchor="middle" x="101" y="-287.5" font-family="Helvetica,sans-Serif" font-size="10.00">QVector3D</text>
</g>
<!-- Node6&#45;&gt;Node8 -->
<g id="edge7" class="edge"><title>Node6&#45;&gt;Node8</title>
<path fill="none" stroke="midnightblue" d="M185.773,-336.324C169.649,-327.703 144.7,-314.364 126.036,-304.386"/>
<polygon fill="midnightblue" stroke="midnightblue" points="127.656,-301.283 117.187,-299.655 124.356,-307.456 127.656,-301.283"/>
</g>
<!-- Node9 -->
<g id="node9" class="node"><title>Node9</title>
<polygon fill="none" stroke="#bfbfbf" points="152,-280.5 152,-299.5 192,-299.5 192,-280.5 152,-280.5"/>
<text text-anchor="middle" x="172" y="-287.5" font-family="Helvetica,sans-Serif" font-size="10.00">QList</text>
</g>
<!-- Node6&#45;&gt;Node9 -->
<g id="edge8" class="edge"><title>Node6&#45;&gt;Node9</title>
<path fill="none" stroke="midnightblue" d="M197.046,-336.083C192.896,-328.613 186.847,-317.724 181.733,-308.52"/>
<polygon fill="midnightblue" stroke="midnightblue" points="184.778,-306.793 176.862,-299.751 178.659,-310.192 184.778,-306.793"/>
</g>
<!-- Node10 -->
<g id="node10" class="node"><title>Node10</title>
<polygon fill="none" stroke="#bfbfbf" points="210.5,-280.5 210.5,-299.5 253.5,-299.5 253.5,-280.5 210.5,-280.5"/>
<text text-anchor="middle" x="232" y="-287.5" font-family="Helvetica,sans-Serif" font-size="10.00">QMap</text>
</g>
<!-- Node6&#45;&gt;Node10 -->
<g id="edge9" class="edge"><title>Node6&#45;&gt;Node10</title>
<path fill="none" stroke="midnightblue" d="M206.954,-336.083C211.104,-328.613 217.153,-317.724 222.267,-308.52"/>
<polygon fill="midnightblue" stroke="midnightblue" points="225.341,-310.192 227.138,-299.751 219.222,-306.793 225.341,-310.192"/>
</g>
<!-- Node11 -->
<g id="node11" class="node"><title>Node11</title>
<polygon fill="none" stroke="#bfbfbf" points="271.5,-280.5 271.5,-299.5 362.5,-299.5 362.5,-280.5 271.5,-280.5"/>
<text text-anchor="middle" x="317" y="-287.5" font-family="Helvetica,sans-Serif" font-size="10.00">QGraphicsScene</text>
</g>
<!-- Node6&#45;&gt;Node11 -->
<g id="edge10" class="edge"><title>Node6&#45;&gt;Node11</title>
<path fill="none" stroke="midnightblue" d="M220.222,-336.444C238.896,-327.675 268.156,-313.935 289.617,-303.858"/>
<polygon fill="midnightblue" stroke="midnightblue" points="291.299,-306.935 298.863,-299.516 288.324,-300.599 291.299,-306.935"/>
</g>
<!-- Node12 -->
<g id="node12" class="node"><title>Node12</title>
<polygon fill="none" stroke="#bfbfbf" points="380.5,-280.5 380.5,-299.5 427.5,-299.5 427.5,-280.5 380.5,-280.5"/>
<text text-anchor="middle" x="404" y="-287.5" font-family="Helvetica,sans-Serif" font-size="10.00">math.h</text>
</g>
<!-- Node6&#45;&gt;Node12 -->
<g id="edge11" class="edge"><title>Node6&#45;&gt;Node12</title>
<path fill="none" stroke="midnightblue" d="M225.248,-338.857C256.122,-330.689 312.596,-315.712 370.527,-300.116"/>
<polygon fill="midnightblue" stroke="midnightblue" points="371.467,-303.487 380.212,-297.506 369.645,-296.728 371.467,-303.487"/>
</g>
<!-- Node13&#45;&gt;Node5 -->
<g id="edge56" class="edge"><title>Node13&#45;&gt;Node5</title>
<path fill="none" stroke="midnightblue" d="M416.9,-459.435C374.018,-451.043 307.812,-437.441 251,-423 247.144,-422.02 243.136,-420.938 239.146,-419.821"/>
<polygon fill="midnightblue" stroke="midnightblue" points="239.945,-416.409 229.367,-417.006 238.009,-423.135 239.945,-416.409"/>
</g>
<!-- Node14 -->
<g id="node14" class="node"><title>Node14</title>
<polygon fill="none" stroke="#bfbfbf" points="651.5,-398 651.5,-417 710.5,-417 710.5,-398 651.5,-398"/>
<text text-anchor="middle" x="681" y="-405" font-family="Helvetica,sans-Serif" font-size="10.00">QWindow</text>
</g>
<!-- Node13&#45;&gt;Node14 -->
<g id="edge14" class="edge"><title>Node13&#45;&gt;Node14</title>
<path fill="none" stroke="midnightblue" d="M501.321,-459.494C538.021,-451.243 594.155,-437.825 642,-423 644.564,-422.206 647.205,-421.336 649.847,-420.431"/>
<polygon fill="midnightblue" stroke="midnightblue" points="651.043,-423.72 659.282,-417.06 648.688,-417.128 651.043,-423.72"/>
</g>
<!-- Node15 -->
<g id="node15" class="node"><title>Node15</title>
<polygon fill="none" stroke="#bfbfbf" points="728.5,-398 728.5,-417 823.5,-417 823.5,-398 728.5,-398"/>
<text text-anchor="middle" x="776" y="-405" font-family="Helvetica,sans-Serif" font-size="10.00">QOpenGLContext</text>
</g>
<!-- Node13&#45;&gt;Node15 -->
<g id="edge15" class="edge"><title>Node13&#45;&gt;Node15</title>
<path fill="none" stroke="midnightblue" d="M512.66,-460.402C564.853,-452.285 648.451,-438.476 720,-423 724.965,-421.926 730.154,-420.711 735.284,-419.451"/>
<polygon fill="midnightblue" stroke="midnightblue" points="736.163,-422.839 745.005,-417.001 734.452,-416.051 736.163,-422.839"/>
</g>
<!-- Node16 -->
<g id="node16" class="node"><title>Node16</title>
<polygon fill="none" stroke="#bfbfbf" points="260.5,-392.5 260.5,-422.5 373.5,-422.5 373.5,-392.5 260.5,-392.5"/>
<text text-anchor="start" x="268.5" y="-410.5" font-family="Helvetica,sans-Serif" font-size="10.00">QOpenGLFunctions_4</text>
<text text-anchor="middle" x="317" y="-399.5" font-family="Helvetica,sans-Serif" font-size="10.00">_2_Core</text>
</g>
<!-- Node13&#45;&gt;Node16 -->
<g id="edge16" class="edge"><title>Node13&#45;&gt;Node16</title>
<path fill="none" stroke="midnightblue" d="M441.225,-459.475C420.302,-450.889 387.386,-437.383 360.693,-426.429"/>
<polygon fill="midnightblue" stroke="midnightblue" points="361.754,-423.081 351.174,-422.523 359.096,-429.557 361.754,-423.081"/>
</g>
<!-- Node17 -->
<g id="node17" class="node"><title>Node17</title>
<polygon fill="none" stroke="#bfbfbf" points="391.5,-398 391.5,-417 458.5,-417 458.5,-398 391.5,-398"/>
<text text-anchor="middle" x="425" y="-405" font-family="Helvetica,sans-Serif" font-size="10.00">QKeyEvent</text>
</g>
<!-- Node13&#45;&gt;Node17 -->
<g id="edge17" class="edge"><title>Node13&#45;&gt;Node17</title>
<path fill="none" stroke="midnightblue" d="M456.699,-459.475C451.259,-450.727 442.641,-436.869 435.764,-425.809"/>
<polygon fill="midnightblue" stroke="midnightblue" points="438.544,-423.653 430.291,-417.009 432.6,-427.349 438.544,-423.653"/>
</g>
<!-- Node18 -->
<g id="node18" class="node"><title>Node18</title>
<polygon fill="none" stroke="#bfbfbf" points="477,-398 477,-417 523,-417 523,-398 477,-398"/>
<text text-anchor="middle" x="500" y="-405" font-family="Helvetica,sans-Serif" font-size="10.00">QTime</text>
</g>
<!-- Node13&#45;&gt;Node18 -->
<g id="edge18" class="edge"><title>Node13&#45;&gt;Node18</title>
<path fill="none" stroke="midnightblue" d="M467.444,-459.475C473.088,-450.638 482.061,-436.589 489.159,-425.475"/>
<polygon fill="midnightblue" stroke="midnightblue" points="492.133,-427.321 494.566,-417.009 486.233,-423.553 492.133,-427.321"/>
</g>
<!-- Node19 -->
<g id="node19" class="node"><title>Node19</title>
<g id="a_node19"><a xlink:href="../../d4/d1c/GameEngine_8hpp.html" target="_top" xlink:title="GameEngine.hpp">
<polygon fill="none" stroke="black" points="541,-398 541,-417 633,-417 633,-398 541,-398"/>
<text text-anchor="middle" x="587" y="-405" font-family="Helvetica,sans-Serif" font-size="10.00">GameEngine.hpp</text>
</a>
</g>
</g>
<!-- Node13&#45;&gt;Node19 -->
<g id="edge19" class="edge"><title>Node13&#45;&gt;Node19</title>
<path fill="none" stroke="midnightblue" d="M479.909,-459.475C500.887,-449.49 535.85,-432.848 560.093,-421.307"/>
<polygon fill="midnightblue" stroke="midnightblue" points="561.599,-424.467 569.124,-417.009 558.59,-418.147 561.599,-424.467"/>
</g>
<!-- Node20 -->
<g id="node20" class="node"><title>Node20</title>
<g id="a_node20"><a xlink:href="../../de/df7/worldparticles_8hpp.html" target="_top" xlink:title="wordparticles configuration file ">
<polygon fill="none" stroke="black" points="558.5,-112.5 558.5,-131.5 653.5,-131.5 653.5,-112.5 558.5,-112.5"/>
<text text-anchor="middle" x="606" y="-119.5" font-family="Helvetica,sans-Serif" font-size="10.00">worldparticles.hpp</text>
</a>
</g>
</g>
<!-- Node19&#45;&gt;Node20 -->
<g id="edge20" class="edge"><title>Node19&#45;&gt;Node20</title>
<path fill="none" stroke="midnightblue" d="M575.048,-397.818C552.517,-380.344 506,-338.514 506,-291 506,-291 506,-291 506,-233 506,-188.984 550.38,-154.796 580.01,-136.875"/>
<polygon fill="midnightblue" stroke="midnightblue" points="582.144,-139.683 589.036,-131.636 578.631,-133.629 582.144,-139.683"/>
</g>
<!-- Node21 -->
<g id="node21" class="node"><title>Node21</title>
<g id="a_node21"><a xlink:href="../../db/de8/Scene_8hpp.html" target="_top" xlink:title="Scene.hpp">
<polygon fill="none" stroke="black" points="635.5,-336.5 635.5,-355.5 698.5,-355.5 698.5,-336.5 635.5,-336.5"/>
<text text-anchor="middle" x="667" y="-343.5" font-family="Helvetica,sans-Serif" font-size="10.00">Scene.hpp</text>
</a>
</g>
</g>
<!-- Node19&#45;&gt;Node21 -->
<g id="edge21" class="edge"><title>Node19&#45;&gt;Node21</title>
<path fill="none" stroke="midnightblue" d="M598.462,-397.975C611.175,-388.52 631.913,-373.096 647.253,-361.687"/>
<polygon fill="midnightblue" stroke="midnightblue" points="649.624,-364.285 655.559,-355.509 645.446,-358.669 649.624,-364.285"/>
</g>
<!-- Node22 -->
<g id="node22" class="node"><title>Node22</title>
<polygon fill="none" stroke="#bfbfbf" points="1184,-56.5 1184,-75.5 1236,-75.5 1236,-56.5 1184,-56.5"/>
<text text-anchor="middle" x="1210" y="-63.5" font-family="Helvetica,sans-Serif" font-size="10.00">memory</text>
</g>
<!-- Node21&#45;&gt;Node22 -->
<g id="edge22" class="edge"><title>Node21&#45;&gt;Node22</title>
<path fill="none" stroke="midnightblue" d="M698.85,-343.329C834.355,-335.804 1356,-302.456 1356,-235 1356,-235 1356,-235 1356,-177 1356,-121.942 1288.95,-90.9899 1245.73,-76.7569"/>
<polygon fill="midnightblue" stroke="midnightblue" points="1246.69,-73.3916 1236.1,-73.7317 1244.59,-80.0694 1246.69,-73.3916"/>
</g>
<!-- Node23 -->
<g id="node23" class="node"><title>Node23</title>
<polygon fill="none" stroke="#bfbfbf" points="622.5,-280.5 622.5,-299.5 651.5,-299.5 651.5,-280.5 622.5,-280.5"/>
<text text-anchor="middle" x="637" y="-287.5" font-family="Helvetica,sans-Serif" font-size="10.00">list</text>
</g>
<!-- Node21&#45;&gt;Node23 -->
<g id="edge23" class="edge"><title>Node21&#45;&gt;Node23</title>
<path fill="none" stroke="midnightblue" d="M662.046,-336.083C657.896,-328.613 651.847,-317.724 646.733,-308.52"/>
<polygon fill="midnightblue" stroke="midnightblue" points="649.778,-306.793 641.862,-299.751 643.659,-310.192 649.778,-306.793"/>
</g>
<!-- Node24 -->
<g id="node24" class="node"><title>Node24</title>
<g id="a_node24"><a xlink:href="../../d4/db5/GameObject_8hpp.html" target="_top" xlink:title="GameObject.hpp">
<polygon fill="none" stroke="black" points="685,-224.5 685,-243.5 775,-243.5 775,-224.5 685,-224.5"/>
<text text-anchor="middle" x="730" y="-231.5" font-family="Helvetica,sans-Serif" font-size="10.00">GameObject.hpp</text>
</a>
</g>
</g>
<!-- Node21&#45;&gt;Node24 -->
<g id="edge24" class="edge"><title>Node21&#45;&gt;Node24</title>
<path fill="none" stroke="midnightblue" d="M689.788,-336.471C705.326,-329.316 724.707,-317.435 734,-300 741.637,-285.671 739.447,-266.964 736.052,-253.299"/>
<polygon fill="midnightblue" stroke="midnightblue" points="739.386,-252.229 733.236,-243.602 732.663,-254.181 739.386,-252.229"/>
</g>
<!-- Node36 -->
<g id="node36" class="node"><title>Node36</title>
<g id="a_node36"><a xlink:href="../../d6/d80/Camera_8hpp.html" target="_top" xlink:title="Camera.hpp">
<polygon fill="none" stroke="black" points="534,-280.5 534,-299.5 604,-299.5 604,-280.5 534,-280.5"/>
<text text-anchor="middle" x="569" y="-287.5" font-family="Helvetica,sans-Serif" font-size="10.00">Camera.hpp</text>
</a>
</g>
</g>
<!-- Node21&#45;&gt;Node36 -->
<g id="edge51" class="edge"><title>Node21&#45;&gt;Node36</title>
<path fill="none" stroke="midnightblue" d="M651.255,-336.324C635.681,-327.743 611.623,-314.486 593.541,-304.522"/>
<polygon fill="midnightblue" stroke="midnightblue" points="595.154,-301.415 584.706,-299.655 591.776,-307.546 595.154,-301.415"/>
</g>
<!-- Node37 -->
<g id="node37" class="node"><title>Node37</title>
<g id="a_node37"><a xlink:href="../../d5/dd5/Light_8hpp.html" target="_top" xlink:title="Light.hpp">
<polygon fill="none" stroke="black" points="669,-280.5 669,-299.5 725,-299.5 725,-280.5 669,-280.5"/>
<text text-anchor="middle" x="697" y="-287.5" font-family="Helvetica,sans-Serif" font-size="10.00">Light.hpp</text>
</a>
</g>
</g>
<!-- Node21&#45;&gt;Node37 -->
<g id="edge55" class="edge"><title>Node21&#45;&gt;Node37</title>
<path fill="none" stroke="midnightblue" d="M671.954,-336.083C676.104,-328.613 682.153,-317.724 687.267,-308.52"/>
<polygon fill="midnightblue" stroke="midnightblue" points="690.341,-310.192 692.138,-299.751 684.222,-306.793 690.341,-310.192"/>
</g>
<!-- Node24&#45;&gt;Node20 -->
<g id="edge27" class="edge"><title>Node24&#45;&gt;Node20</title>
<path fill="none" stroke="midnightblue" d="M684.957,-226.593C660.517,-220.711 631.925,-209.465 615,-188 604.759,-175.012 603.239,-155.849 603.842,-141.693"/>
<polygon fill="midnightblue" stroke="midnightblue" points="607.339,-141.876 604.655,-131.627 600.362,-141.312 607.339,-141.876"/>
</g>
<!-- Node24&#45;&gt;Node22 -->
<g id="edge26" class="edge"><title>Node24&#45;&gt;Node22</title>
<path fill="none" stroke="midnightblue" d="M775.421,-231.759C894.882,-227.446 1213.06,-208.825 1277,-132 1293.18,-112.56 1264.73,-92.6655 1240.06,-80.0955"/>
<polygon fill="midnightblue" stroke="midnightblue" points="1241.41,-76.8623 1230.89,-75.6527 1238.36,-83.1621 1241.41,-76.8623"/>
</g>
<!-- Node25 -->
<g id="node25" class="node"><title>Node25</title>
<polygon fill="none" stroke="#bfbfbf" points="704,-56.5 704,-75.5 774,-75.5 774,-56.5 704,-56.5"/>
<text text-anchor="middle" x="739" y="-63.5" font-family="Helvetica,sans-Serif" font-size="10.00">glm/glm.hpp</text>
</g>
<!-- Node24&#45;&gt;Node25 -->
<g id="edge25" class="edge"><title>Node24&#45;&gt;Node25</title>
<path fill="none" stroke="midnightblue" d="M730.484,-224.075C731.901,-197.945 736.061,-121.211 737.993,-85.577"/>
<polygon fill="midnightblue" stroke="midnightblue" points="741.489,-85.743 738.535,-75.5681 734.499,-85.3639 741.489,-85.743"/>
</g>
<!-- Node26 -->
<g id="node26" class="node"><title>Node26</title>
<g id="a_node26"><a xlink:href="../../da/d83/Transform_8hpp.html" target="_top" xlink:title="Transform.hpp">
<polygon fill="none" stroke="black" points="398,-168.5 398,-187.5 478,-187.5 478,-168.5 398,-168.5"/>
<text text-anchor="middle" x="438" y="-175.5" font-family="Helvetica,sans-Serif" font-size="10.00">Transform.hpp</text>
</a>
</g>
</g>
<!-- Node24&#45;&gt;Node26 -->
<g id="edge28" class="edge"><title>Node24&#45;&gt;Node26</title>
<path fill="none" stroke="midnightblue" d="M684.695,-224.622C631.462,-214.777 543.405,-198.493 488.156,-188.275"/>
<polygon fill="midnightblue" stroke="midnightblue" points="488.707,-184.818 478.237,-186.441 487.434,-191.701 488.707,-184.818"/>
</g>
<!-- Node27 -->
<g id="node27" class="node"><title>Node27</title>
<g id="a_node27"><a xlink:href="../../d1/dca/IRenderer_8hpp.html" target="_top" xlink:title="IRenderer.hpp">
<polygon fill="none" stroke="black" points="624,-168.5 624,-187.5 702,-187.5 702,-168.5 624,-168.5"/>
<text text-anchor="middle" x="663" y="-175.5" font-family="Helvetica,sans-Serif" font-size="10.00">IRenderer.hpp</text>
</a>
</g>
</g>
<!-- Node24&#45;&gt;Node27 -->
<g id="edge30" class="edge"><title>Node24&#45;&gt;Node27</title>
<path fill="none" stroke="midnightblue" d="M719.235,-224.324C709.234,-216.263 694.113,-204.077 682.07,-194.369"/>
<polygon fill="midnightblue" stroke="midnightblue" points="683.943,-191.384 673.961,-187.834 679.55,-196.834 683.943,-191.384"/>
</g>
<!-- Node28 -->
<g id="node28" class="node"><title>Node28</title>
<g id="a_node28"><a xlink:href="../../d0/d70/Material_8hpp.html" target="_top" xlink:title="Material.hpp">
<polygon fill="none" stroke="black" points="775,-168.5 775,-187.5 845,-187.5 845,-168.5 775,-168.5"/>
<text text-anchor="middle" x="810" y="-175.5" font-family="Helvetica,sans-Serif" font-size="10.00">Material.hpp</text>
</a>
</g>
</g>
<!-- Node24&#45;&gt;Node28 -->
<g id="edge34" class="edge"><title>Node24&#45;&gt;Node28</title>
<path fill="none" stroke="midnightblue" d="M742.853,-224.324C755.216,-215.979 774.13,-203.212 788.737,-193.352"/>
<polygon fill="midnightblue" stroke="midnightblue" points="790.848,-196.15 797.179,-187.655 786.932,-190.348 790.848,-196.15"/>
</g>
<!-- Node33 -->
<g id="node33" class="node"><title>Node33</title>
<g id="a_node33"><a xlink:href="../../d1/d62/Mesh_8hpp.html" target="_top" xlink:title="Mesh.hpp">
<polygon fill="none" stroke="black" points="879.5,-168.5 879.5,-187.5 938.5,-187.5 938.5,-168.5 879.5,-168.5"/>
<text text-anchor="middle" x="909" y="-175.5" font-family="Helvetica,sans-Serif" font-size="10.00">Mesh.hpp</text>
</a>
</g>
</g>
<!-- Node24&#45;&gt;Node33 -->
<g id="edge43" class="edge"><title>Node24&#45;&gt;Node33</title>
<path fill="none" stroke="midnightblue" d="M758.363,-224.444C788.738,-215.28 837.11,-200.688 870.816,-190.519"/>
<polygon fill="midnightblue" stroke="midnightblue" points="872.207,-193.756 880.77,-187.516 870.185,-187.054 872.207,-193.756"/>
</g>
<!-- Node26&#45;&gt;Node25 -->
<g id="edge29" class="edge"><title>Node26&#45;&gt;Node25</title>
<path fill="none" stroke="midnightblue" d="M445.675,-168.256C458.655,-154.062 486.434,-126.17 516,-112 573.449,-84.466 647.035,-73.7642 693.615,-69.6144"/>
<polygon fill="midnightblue" stroke="midnightblue" points="694.023,-73.0926 703.701,-68.7808 693.447,-66.1164 694.023,-73.0926"/>
</g>
<!-- Node27&#45;&gt;Node20 -->
<g id="edge33" class="edge"><title>Node27&#45;&gt;Node20</title>
<path fill="none" stroke="midnightblue" d="M653.842,-168.324C645.499,-160.42 632.968,-148.548 622.823,-138.938"/>
<polygon fill="midnightblue" stroke="midnightblue" points="624.991,-136.171 615.325,-131.834 620.177,-141.252 624.991,-136.171"/>
</g>
<!-- Node27&#45;&gt;Node22 -->
<g id="edge32" class="edge"><title>Node27&#45;&gt;Node22</title>
<path fill="none" stroke="midnightblue" d="M702.025,-173.283C802.784,-163.623 1065.07,-138.059 1083,-132 1099.25,-126.511 1100.91,-120.157 1116,-112 1137.55,-100.348 1162.6,-88.4337 1181.42,-79.7936"/>
<polygon fill="midnightblue" stroke="midnightblue" points="1182.99,-82.9234 1190.64,-75.5927 1180.09,-76.5533 1182.99,-82.9234"/>
</g>
<!-- Node27&#45;&gt;Node25 -->
<g id="edge31" class="edge"><title>Node27&#45;&gt;Node25</title>
<path fill="none" stroke="midnightblue" d="M668.438,-168.499C676.474,-155.999 692.076,-131.982 706,-112 712.589,-102.544 720.181,-92.158 726.421,-83.749"/>
<polygon fill="midnightblue" stroke="midnightblue" points="729.373,-85.6452 732.549,-75.5376 723.763,-81.4584 729.373,-85.6452"/>
</g>
<!-- Node28&#45;&gt;Node22 -->
<g id="edge36" class="edge"><title>Node28&#45;&gt;Node22</title>
<path fill="none" stroke="midnightblue" d="M845.159,-171.809C853.621,-170.561 862.633,-169.232 871,-168 979.884,-151.968 1013.61,-172.357 1116,-132 1145.66,-120.308 1175.13,-97.6811 1192.95,-82.4552"/>
<polygon fill="midnightblue" stroke="midnightblue" points="1195.5,-84.8766 1200.72,-75.6556 1190.89,-79.6102 1195.5,-84.8766"/>
</g>
<!-- Node28&#45;&gt;Node25 -->
<g id="edge35" class="edge"><title>Node28&#45;&gt;Node25</title>
<path fill="none" stroke="midnightblue" d="M804.429,-168.368C792.764,-150.296 765.577,-108.176 750.171,-84.3074"/>
<polygon fill="midnightblue" stroke="midnightblue" points="752.909,-82.0952 744.545,-75.5914 747.028,-85.8913 752.909,-82.0952"/>
</g>
<!-- Node29 -->
<g id="node29" class="node"><title>Node29</title>
<g id="a_node29"><a xlink:href="../../dc/ddb/ShaderProgram_8hpp.html" target="_top" xlink:title="ShaderProgram.hpp">
<polygon fill="none" stroke="black" points="970.5,-112.5 970.5,-131.5 1073.5,-131.5 1073.5,-112.5 970.5,-112.5"/>
<text text-anchor="middle" x="1022" y="-119.5" font-family="Helvetica,sans-Serif" font-size="10.00">ShaderProgram.hpp</text>
</a>
</g>
</g>
<!-- Node28&#45;&gt;Node29 -->
<g id="edge37" class="edge"><title>Node28&#45;&gt;Node29</title>
<path fill="none" stroke="midnightblue" d="M843.592,-168.444C880.187,-159.122 938.838,-144.183 978.826,-133.997"/>
<polygon fill="midnightblue" stroke="midnightblue" points="979.739,-137.377 988.565,-131.516 978.011,-130.593 979.739,-137.377"/>
</g>
<!-- Node29&#45;&gt;Node22 -->
<g id="edge40" class="edge"><title>Node29&#45;&gt;Node22</title>
<path fill="none" stroke="midnightblue" d="M1051.79,-112.444C1084.96,-102.916 1138.56,-87.5187 1174.04,-77.328"/>
<polygon fill="midnightblue" stroke="midnightblue" points="1175.34,-80.5978 1183.98,-74.473 1173.41,-73.8698 1175.34,-80.5978"/>
</g>
<!-- Node29&#45;&gt;Node25 -->
<g id="edge38" class="edge"><title>Node29&#45;&gt;Node25</title>
<path fill="none" stroke="midnightblue" d="M977.158,-112.444C924.41,-102.379 837.337,-85.7639 784.364,-75.656"/>
<polygon fill="midnightblue" stroke="midnightblue" points="784.723,-72.1615 774.244,-73.7251 783.411,-79.0374 784.723,-72.1615"/>
</g>
<!-- Node30 -->
<g id="node30" class="node"><title>Node30</title>
<polygon fill="none" stroke="#bfbfbf" points="920,-56.5 920,-75.5 964,-75.5 964,-56.5 920,-56.5"/>
<text text-anchor="middle" x="942" y="-63.5" font-family="Helvetica,sans-Serif" font-size="10.00">vector</text>
</g>
<!-- Node29&#45;&gt;Node30 -->
<g id="edge39" class="edge"><title>Node29&#45;&gt;Node30</title>
<path fill="none" stroke="midnightblue" d="M1009.15,-112.324C996.784,-103.979 977.87,-91.2122 963.263,-81.3524"/>
<polygon fill="midnightblue" stroke="midnightblue" points="965.068,-78.3483 954.821,-75.6545 961.152,-84.1503 965.068,-78.3483"/>
</g>
<!-- Node31 -->
<g id="node31" class="node"><title>Node31</title>
<g id="a_node31"><a xlink:href="../../d4/d6e/Shader_8hpp.html" target="_top" xlink:title="Shader.hpp">
<polygon fill="none" stroke="black" points="989,-56.5 989,-75.5 1055,-75.5 1055,-56.5 989,-56.5"/>
<text text-anchor="middle" x="1022" y="-63.5" font-family="Helvetica,sans-Serif" font-size="10.00">Shader.hpp</text>
</a>
</g>
</g>
<!-- Node29&#45;&gt;Node31 -->
<g id="edge41" class="edge"><title>Node29&#45;&gt;Node31</title>
<path fill="none" stroke="midnightblue" d="M1022,-112.083C1022,-105.006 1022,-94.8611 1022,-85.9865"/>
<polygon fill="midnightblue" stroke="midnightblue" points="1025.5,-85.751 1022,-75.7511 1018.5,-85.7511 1025.5,-85.751"/>
</g>
<!-- Node32 -->
<g id="node32" class="node"><title>Node32</title>
<polygon fill="none" stroke="#bfbfbf" points="1001.5,-0.5 1001.5,-19.5 1042.5,-19.5 1042.5,-0.5 1001.5,-0.5"/>
<text text-anchor="middle" x="1022" y="-7.5" font-family="Helvetica,sans-Serif" font-size="10.00">string</text>
</g>
<!-- Node31&#45;&gt;Node32 -->
<g id="edge42" class="edge"><title>Node31&#45;&gt;Node32</title>
<path fill="none" stroke="midnightblue" d="M1022,-56.083C1022,-49.0059 1022,-38.8611 1022,-29.9865"/>
<polygon fill="midnightblue" stroke="midnightblue" points="1025.5,-29.751 1022,-19.7511 1018.5,-29.7511 1025.5,-29.751"/>
</g>
<!-- Node33&#45;&gt;Node22 -->
<g id="edge45" class="edge"><title>Node33&#45;&gt;Node22</title>
<path fill="none" stroke="midnightblue" d="M938.667,-175.417C1019.63,-170.795 1239.78,-156.104 1261,-132 1275.86,-115.119 1253.39,-94.5323 1233.73,-81.1125"/>
<polygon fill="midnightblue" stroke="midnightblue" points="1235.62,-78.1645 1225.33,-75.6608 1231.81,-84.0379 1235.62,-78.1645"/>
</g>
<!-- Node33&#45;&gt;Node25 -->
<g id="edge46" class="edge"><title>Node33&#45;&gt;Node25</title>
<path fill="none" stroke="midnightblue" d="M886.862,-168.342C867.245,-160.226 838.201,-147.101 815,-132 792.655,-117.456 769.771,-96.9716 755.035,-82.9073"/>
<polygon fill="midnightblue" stroke="midnightblue" points="757.356,-80.283 747.741,-75.8327 752.482,-85.3076 757.356,-80.283"/>
</g>
<!-- Node33&#45;&gt;Node30 -->
<g id="edge44" class="edge"><title>Node33&#45;&gt;Node30</title>
<path fill="none" stroke="midnightblue" d="M911.728,-168.387C914.582,-159.339 919.172,-144.69 923,-132 927.722,-116.347 932.921,-98.5199 936.684,-85.4992"/>
<polygon fill="midnightblue" stroke="midnightblue" points="940.06,-86.4239 939.467,-75.8457 933.334,-84.4852 940.06,-86.4239"/>
</g>
<!-- Node34 -->
<g id="node34" class="node"><title>Node34</title>
<polygon fill="none" stroke="#bfbfbf" points="1168.5,-112.5 1168.5,-131.5 1251.5,-131.5 1251.5,-112.5 1168.5,-112.5"/>
<text text-anchor="middle" x="1210" y="-119.5" font-family="Helvetica,sans-Serif" font-size="10.00">assimp/mesh.h</text>
</g>
<!-- Node33&#45;&gt;Node34 -->
<g id="edge47" class="edge"><title>Node33&#45;&gt;Node34</title>
<path fill="none" stroke="midnightblue" d="M938.685,-171.674C989.755,-162.512 1094.85,-143.659 1158.2,-132.293"/>
<polygon fill="midnightblue" stroke="midnightblue" points="1159.15,-135.679 1168.37,-130.468 1157.91,-128.789 1159.15,-135.679"/>
</g>
<!-- Node35 -->
<g id="node35" class="node"><title>Node35</title>
<g id="a_node35"><a xlink:href="../../da/d04/BufferObject_8hpp.html" target="_top" xlink:title="BufferObject.hpp">
<polygon fill="none" stroke="black" points="824,-112.5 824,-131.5 914,-131.5 914,-112.5 824,-112.5"/>
<text text-anchor="middle" x="869" y="-119.5" font-family="Helvetica,sans-Serif" font-size="10.00">BufferObject.hpp</text>
</a>
</g>
</g>
<!-- Node33&#45;&gt;Node35 -->
<g id="edge48" class="edge"><title>Node33&#45;&gt;Node35</title>
<path fill="none" stroke="midnightblue" d="M902.395,-168.083C896.745,-160.455 888.455,-149.264 881.549,-139.941"/>
<polygon fill="midnightblue" stroke="midnightblue" points="884.247,-137.703 875.482,-131.751 878.622,-141.87 884.247,-137.703"/>
</g>
<!-- Node35&#45;&gt;Node25 -->
<g id="edge50" class="edge"><title>Node35&#45;&gt;Node25</title>
<path fill="none" stroke="midnightblue" d="M848.401,-112.444C827.007,-103.557 793.319,-89.5632 768.976,-79.4514"/>
<polygon fill="midnightblue" stroke="midnightblue" points="770.08,-76.1203 759.503,-75.5164 767.395,-82.5848 770.08,-76.1203"/>
</g>
<!-- Node35&#45;&gt;Node30 -->
<g id="edge49" class="edge"><title>Node35&#45;&gt;Node30</title>
<path fill="none" stroke="midnightblue" d="M880.729,-112.324C891.837,-104.107 908.742,-91.6017 921.983,-81.8069"/>
<polygon fill="midnightblue" stroke="midnightblue" points="924.1,-84.5948 930.058,-75.8339 919.937,-78.9671 924.1,-84.5948"/>
</g>
<!-- Node36&#45;&gt;Node24 -->
<g id="edge54" class="edge"><title>Node36&#45;&gt;Node24</title>
<path fill="none" stroke="midnightblue" d="M594.511,-280.444C621.596,-271.359 664.59,-256.939 694.869,-246.783"/>
<polygon fill="midnightblue" stroke="midnightblue" points="696.24,-250.015 704.608,-243.516 694.014,-243.378 696.24,-250.015"/>
</g>
<!-- Node36&#45;&gt;Node25 -->
<g id="edge52" class="edge"><title>Node36&#45;&gt;Node25</title>
<path fill="none" stroke="midnightblue" d="M564.247,-280.462C549.506,-252.719 507.95,-163.909 549,-112 566.705,-89.6123 643.332,-77.2062 693.701,-71.3372"/>
<polygon fill="midnightblue" stroke="midnightblue" points="694.161,-74.8076 703.71,-70.2161 693.382,-67.8511 694.161,-74.8076"/>
</g>
<!-- Node36&#45;&gt;Node26 -->
<g id="edge53" class="edge"><title>Node36&#45;&gt;Node26</title>
<path fill="none" stroke="midnightblue" d="M558.721,-280.368C536.528,-261.733 483.889,-217.532 456.023,-194.134"/>
<polygon fill="midnightblue" stroke="midnightblue" points="458.141,-191.342 448.232,-187.591 453.639,-196.702 458.141,-191.342"/>
</g>
</g>
</svg>
