<?xml version="1.0" encoding="UTF-8" standalone="no"?>
<!DOCTYPE svg PUBLIC "-//W3C//DTD SVG 1.1//EN"
 "http://www.w3.org/Graphics/SVG/1.1/DTD/svg11.dtd">
<!-- Generated by graphviz version 2.38.0 (20140413.2041)
 -->
<!-- Title: main.cpp Pages: 1 -->
<!--zoomable 431 -->
<svg id="main" version="1.1" xmlns="http://www.w3.org/2000/svg" xmlns:xlink="http://www.w3.org/1999/xlink" xml:space="preserve" onload="init(evt)">
<style type="text/css"><![CDATA[
.edge:hover path { stroke: red; }
.edge:hover polygon { stroke: red; fill: red; }
]]></style>
<script type="text/javascript"><![CDATA[
var edges = document.getElementsByTagName('g');
if (edges && edges.length) {
  for (var i=0;i<edges.length;i++) {
    if (edges[i].id.substr(0,4)=='edge') {
      edges[i].setAttribute('class','edge');
    }
  }
}
]]></script>
        <defs>
                <circle id="rim" cx="0" cy="0" r="7"/>
                <circle id="rim2" cx="0" cy="0" r="3.5"/>
                <g id="zoomPlus">
                        <use xlink:href="#rim" fill="#404040">
                                <set attributeName="fill" to="#808080" begin="zoomplus.mouseover" end="zoomplus.mouseout"/>
                        </use>
                        <path d="M-4,0h8M0,-4v8" fill="none" stroke="white" stroke-width="1.5" pointer-events="none"/>
                </g>
                <g id="zoomMin">
                        <use xlink:href="#rim" fill="#404040">
                                <set attributeName="fill" to="#808080" begin="zoomminus.mouseover" end="zoomminus.mouseout"/>
                        </use>
                        <path d="M-4,0h8" fill="none" stroke="white" stroke-width="1.5" pointer-events="none"/>
                </g>
                <g id="dirArrow">
                        <path fill="none" stroke="white" stroke-width="1.5" d="M0,-3.0v7 M-2.5,-0.5L0,-3.0L2.5,-0.5"/>
                </g>
               <g id="resetDef">
                       <use xlink:href="#rim2" fill="#404040">
                               <set attributeName="fill" to="#808080" begin="reset.mouseover" end="reset.mouseout"/>
                       </use>
               </g>
        </defs>

<script type="text/javascript">
var viewWidth = 1817;
var viewHeight = 431;
var sectionId = 'dynsection-0';
</script>
<script xlink:href="../../svgpan.js"/>
<svg id="graph" class="graph">
<g id="viewport">
<title>main.cpp</title>
<!-- Node1 -->
<g id="node1" class="node"><title>Node1</title>
<polygon fill="#bfbfbf" stroke="black" points="1117.55,-404 1117.55,-423 1173.55,-423 1173.55,-404 1117.55,-404"/>
<text text-anchor="middle" x="1145.55" y="-411" font-family="Helvetica,sans-Serif" font-size="10.00">main.cpp</text>
</g>
<!-- Node2 -->
<g id="node2" class="node"><title>Node2</title>
<g id="a_node2"><a xlink:href="../../de/df7/worldparticles_8hpp.html" target="_top" xlink:title="wordparticles configuration file ">
<polygon fill="none" stroke="black" points="736.05,-169 736.05,-188 831.05,-188 831.05,-169 736.05,-169"/>
<text text-anchor="middle" x="783.55" y="-176" font-family="Helvetica,sans-Serif" font-size="10.00">worldparticles.hpp</text>
</a>
</g>
</g>
<!-- Node1&#45;&gt;Node2 -->
<g id="edge1" class="edge"><title>Node1&#45;&gt;Node2</title>
<path fill="none" stroke="midnightblue" d="M1117.55,-406.959C1086.14,-400.139 1034.16,-387.01 992.55,-367.5 911.633,-329.563 885.972,-321.348 825.55,-255.5 809.832,-238.37 797.809,-214.298 790.734,-197.864"/>
<polygon fill="midnightblue" stroke="midnightblue" points="793.849,-196.236 786.81,-188.318 787.375,-198.898 793.849,-196.236"/>
</g>
<!-- Node3 -->
<g id="node3" class="node"><title>Node3</title>
<g id="a_node3"><a xlink:href="../../df/d50/mainwindow_8hpp.html" target="_top" xlink:title="mainwindow.hpp">
<polygon fill="none" stroke="black" points="1002.05,-348 1002.05,-367 1091.05,-367 1091.05,-348 1002.05,-348"/>
<text text-anchor="middle" x="1046.55" y="-355" font-family="Helvetica,sans-Serif" font-size="10.00">mainwindow.hpp</text>
</a>
</g>
</g>
<!-- Node1&#45;&gt;Node3 -->
<g id="edge2" class="edge"><title>Node1&#45;&gt;Node3</title>
<path fill="none" stroke="midnightblue" d="M1129.64,-403.824C1113.91,-395.243 1089.61,-381.986 1071.34,-372.022"/>
<polygon fill="midnightblue" stroke="midnightblue" points="1072.87,-368.87 1062.42,-367.154 1069.52,-375.016 1072.87,-368.87"/>
</g>
<!-- Node48 -->
<g id="node48" class="node"><title>Node48</title>
<polygon fill="none" stroke="#bfbfbf" points="1109.55,-348 1109.55,-367 1181.55,-367 1181.55,-348 1109.55,-348"/>
<text text-anchor="middle" x="1145.55" y="-355" font-family="Helvetica,sans-Serif" font-size="10.00">QApplication</text>
</g>
<!-- Node1&#45;&gt;Node48 -->
<g id="edge68" class="edge"><title>Node1&#45;&gt;Node48</title>
<path fill="none" stroke="midnightblue" d="M1145.55,-403.583C1145.55,-396.506 1145.55,-386.361 1145.55,-377.486"/>
<polygon fill="midnightblue" stroke="midnightblue" points="1149.05,-377.251 1145.55,-367.251 1142.05,-377.251 1149.05,-377.251"/>
</g>
<!-- Node49 -->
<g id="node49" class="node"><title>Node49</title>
<polygon fill="none" stroke="#bfbfbf" points="1200.05,-348 1200.05,-367 1357.05,-367 1357.05,-348 1200.05,-348"/>
<text text-anchor="middle" x="1278.55" y="-355" font-family="Helvetica,sans-Serif" font-size="10.00">log4cpp/PropertyConfigurator.hh</text>
</g>
<!-- Node1&#45;&gt;Node49 -->
<g id="edge69" class="edge"><title>Node1&#45;&gt;Node49</title>
<path fill="none" stroke="midnightblue" d="M1166.62,-403.944C1188.61,-395.017 1223.28,-380.939 1248.21,-370.817"/>
<polygon fill="midnightblue" stroke="midnightblue" points="1249.63,-374.021 1257.57,-367.016 1246.99,-367.535 1249.63,-374.021"/>
</g>
<!-- Node50 -->
<g id="node50" class="node"><title>Node50</title>
<polygon fill="none" stroke="#bfbfbf" points="1375.05,-348 1375.05,-367 1482.05,-367 1482.05,-348 1375.05,-348"/>
<text text-anchor="middle" x="1428.55" y="-355" font-family="Helvetica,sans-Serif" font-size="10.00">log4cpp/Category.hh</text>
</g>
<!-- Node1&#45;&gt;Node50 -->
<g id="edge70" class="edge"><title>Node1&#45;&gt;Node50</title>
<path fill="none" stroke="midnightblue" d="M1173.72,-407.125C1220.24,-398.248 1313.93,-380.372 1373.82,-368.942"/>
<polygon fill="midnightblue" stroke="midnightblue" points="1374.7,-372.339 1383.86,-367.027 1373.39,-365.463 1374.7,-372.339"/>
</g>
<!-- Node4 -->
<g id="node4" class="node"><title>Node4</title>
<polygon fill="none" stroke="#bfbfbf" points="1199.55,-292 1199.55,-311 1279.55,-311 1279.55,-292 1199.55,-292"/>
<text text-anchor="middle" x="1239.55" y="-299" font-family="Helvetica,sans-Serif" font-size="10.00">QMainWindow</text>
</g>
<!-- Node3&#45;&gt;Node4 -->
<g id="edge3" class="edge"><title>Node3&#45;&gt;Node4</title>
<path fill="none" stroke="midnightblue" d="M1077.13,-347.944C1110.16,-338.701 1162.94,-323.936 1199.32,-313.757"/>
<polygon fill="midnightblue" stroke="midnightblue" points="1200.42,-317.081 1209.11,-311.016 1198.54,-310.34 1200.42,-317.081"/>
</g>
<!-- Node5 -->
<g id="node5" class="node"><title>Node5</title>
<g id="a_node5"><a xlink:href="../../dd/da8/toolwidget_8hpp.html" target="_top" xlink:title="toolwidget.hpp">
<polygon fill="none" stroke="black" points="1006.55,-292 1006.55,-311 1086.55,-311 1086.55,-292 1006.55,-292"/>
<text text-anchor="middle" x="1046.55" y="-299" font-family="Helvetica,sans-Serif" font-size="10.00">toolwidget.hpp</text>
</a>
</g>
</g>
<!-- Node3&#45;&gt;Node5 -->
<g id="edge4" class="edge"><title>Node3&#45;&gt;Node5</title>
<path fill="none" stroke="midnightblue" d="M1046.55,-347.583C1046.55,-340.506 1046.55,-330.361 1046.55,-321.486"/>
<polygon fill="midnightblue" stroke="midnightblue" points="1050.05,-321.251 1046.55,-311.251 1043.05,-321.251 1050.05,-321.251"/>
</g>
<!-- Node7 -->
<g id="node7" class="node"><title>Node7</title>
<g id="a_node7"><a xlink:href="../../dc/ddc/model_8hpp.html" target="_top" xlink:title="model.hpp">
<polygon fill="none" stroke="black" points="944.55,-230.5 944.55,-249.5 1006.55,-249.5 1006.55,-230.5 944.55,-230.5"/>
<text text-anchor="middle" x="975.55" y="-237.5" font-family="Helvetica,sans-Serif" font-size="10.00">model.hpp</text>
</a>
</g>
</g>
<!-- Node3&#45;&gt;Node7 -->
<g id="edge14" class="edge"><title>Node3&#45;&gt;Node7</title>
<path fill="none" stroke="midnightblue" d="M1033.95,-347.915C1022.87,-339.754 1007.08,-326.521 997.55,-311.5 987.481,-295.624 981.729,-274.807 978.652,-259.917"/>
<polygon fill="midnightblue" stroke="midnightblue" points="982.053,-259.062 976.793,-249.865 975.17,-260.335 982.053,-259.062"/>
</g>
<!-- Node15 -->
<g id="node15" class="node"><title>Node15</title>
<g id="a_node15"><a xlink:href="../../d0/d5e/glwindow_8hpp.html" target="_top" xlink:title="glwindow.hpp">
<polygon fill="none" stroke="black" points="1105.55,-292 1105.55,-311 1181.55,-311 1181.55,-292 1105.55,-292"/>
<text text-anchor="middle" x="1143.55" y="-299" font-family="Helvetica,sans-Serif" font-size="10.00">glwindow.hpp</text>
</a>
</g>
</g>
<!-- Node3&#45;&gt;Node15 -->
<g id="edge15" class="edge"><title>Node3&#45;&gt;Node15</title>
<path fill="none" stroke="midnightblue" d="M1062.13,-347.824C1077.55,-339.243 1101.36,-325.986 1119.26,-316.022"/>
<polygon fill="midnightblue" stroke="midnightblue" points="1120.97,-319.077 1128,-311.154 1117.56,-312.961 1120.97,-319.077"/>
</g>
<!-- Node6 -->
<g id="node6" class="node"><title>Node6</title>
<polygon fill="none" stroke="#bfbfbf" points="1025.05,-230.5 1025.05,-249.5 1096.05,-249.5 1096.05,-230.5 1025.05,-230.5"/>
<text text-anchor="middle" x="1060.55" y="-237.5" font-family="Helvetica,sans-Serif" font-size="10.00">QTabWidget</text>
</g>
<!-- Node5&#45;&gt;Node6 -->
<g id="edge5" class="edge"><title>Node5&#45;&gt;Node6</title>
<path fill="none" stroke="midnightblue" d="M1048.56,-291.975C1050.55,-283.492 1053.68,-270.204 1056.24,-259.322"/>
<polygon fill="midnightblue" stroke="midnightblue" points="1059.66,-260.045 1058.55,-249.509 1052.85,-258.442 1059.66,-260.045"/>
</g>
<!-- Node5&#45;&gt;Node7 -->
<g id="edge6" class="edge"><title>Node5&#45;&gt;Node7</title>
<path fill="none" stroke="midnightblue" d="M1036.38,-291.975C1025.2,-282.608 1007.03,-267.384 993.459,-256.008"/>
<polygon fill="midnightblue" stroke="midnightblue" points="995.616,-253.25 985.704,-249.509 991.12,-258.615 995.616,-253.25"/>
</g>
<!-- Node8 -->
<g id="node8" class="node"><title>Node8</title>
<g id="a_node8"><a xlink:href="../../de/d71/tools_8hpp.html" target="_top" xlink:title="tools.hpp">
<polygon fill="none" stroke="black" points="1525.55,-169 1525.55,-188 1581.55,-188 1581.55,-169 1525.55,-169"/>
<text text-anchor="middle" x="1553.55" y="-176" font-family="Helvetica,sans-Serif" font-size="10.00">tools.hpp</text>
</a>
</g>
</g>
<!-- Node7&#45;&gt;Node8 -->
<g id="edge7" class="edge"><title>Node7&#45;&gt;Node8</title>
<path fill="none" stroke="midnightblue" d="M996.003,-230.41C1002.18,-228.137 1009.06,-225.922 1015.55,-224.5 1199.65,-184.179 1426.46,-179.436 1515.31,-179.257"/>
<polygon fill="midnightblue" stroke="midnightblue" points="1515.45,-182.757 1525.45,-179.256 1515.44,-175.757 1515.45,-182.757"/>
</g>
<!-- Node9 -->
<g id="node9" class="node"><title>Node9</title>
<polygon fill="none" stroke="#bfbfbf" points="1381.55,-113 1381.55,-132 1431.55,-132 1431.55,-113 1381.55,-113"/>
<text text-anchor="middle" x="1406.55" y="-120" font-family="Helvetica,sans-Serif" font-size="10.00">QString</text>
</g>
<!-- Node8&#45;&gt;Node9 -->
<g id="edge8" class="edge"><title>Node8&#45;&gt;Node9</title>
<path fill="none" stroke="midnightblue" d="M1530.26,-168.944C1505.74,-159.938 1466.95,-145.689 1439.35,-135.549"/>
<polygon fill="midnightblue" stroke="midnightblue" points="1440.33,-132.179 1429.73,-132.016 1437.91,-138.75 1440.33,-132.179"/>
</g>
<!-- Node10 -->
<g id="node10" class="node"><title>Node10</title>
<polygon fill="none" stroke="#bfbfbf" points="1450.05,-113 1450.05,-132 1515.05,-132 1515.05,-113 1450.05,-113"/>
<text text-anchor="middle" x="1482.55" y="-120" font-family="Helvetica,sans-Serif" font-size="10.00">QVector3D</text>
</g>
<!-- Node8&#45;&gt;Node10 -->
<g id="edge9" class="edge"><title>Node8&#45;&gt;Node10</title>
<path fill="none" stroke="midnightblue" d="M1542.14,-168.824C1531.44,-160.685 1515.21,-148.339 1502.39,-138.587"/>
<polygon fill="midnightblue" stroke="midnightblue" points="1504.24,-135.602 1494.16,-132.334 1500.01,-141.173 1504.24,-135.602"/>
</g>
<!-- Node11 -->
<g id="node11" class="node"><title>Node11</title>
<polygon fill="none" stroke="#bfbfbf" points="1533.55,-113 1533.55,-132 1573.55,-132 1573.55,-113 1533.55,-113"/>
<text text-anchor="middle" x="1553.55" y="-120" font-family="Helvetica,sans-Serif" font-size="10.00">QList</text>
</g>
<!-- Node8&#45;&gt;Node11 -->
<g id="edge10" class="edge"><title>Node8&#45;&gt;Node11</title>
<path fill="none" stroke="midnightblue" d="M1553.55,-168.583C1553.55,-161.506 1553.55,-151.361 1553.55,-142.486"/>
<polygon fill="midnightblue" stroke="midnightblue" points="1557.05,-142.251 1553.55,-132.251 1550.05,-142.251 1557.05,-142.251"/>
</g>
<!-- Node12 -->
<g id="node12" class="node"><title>Node12</title>
<polygon fill="none" stroke="#bfbfbf" points="1592.05,-113 1592.05,-132 1635.05,-132 1635.05,-113 1592.05,-113"/>
<text text-anchor="middle" x="1613.55" y="-120" font-family="Helvetica,sans-Serif" font-size="10.00">QMap</text>
</g>
<!-- Node8&#45;&gt;Node12 -->
<g id="edge11" class="edge"><title>Node8&#45;&gt;Node12</title>
<path fill="none" stroke="midnightblue" d="M1563.19,-168.824C1572.06,-160.841 1585.42,-148.813 1596.16,-139.153"/>
<polygon fill="midnightblue" stroke="midnightblue" points="1598.64,-141.625 1603.73,-132.334 1593.96,-136.422 1598.64,-141.625"/>
</g>
<!-- Node13 -->
<g id="node13" class="node"><title>Node13</title>
<polygon fill="none" stroke="#bfbfbf" points="1653.05,-113 1653.05,-132 1744.05,-132 1744.05,-113 1653.05,-113"/>
<text text-anchor="middle" x="1698.55" y="-120" font-family="Helvetica,sans-Serif" font-size="10.00">QGraphicsScene</text>
</g>
<!-- Node8&#45;&gt;Node13 -->
<g id="edge12" class="edge"><title>Node8&#45;&gt;Node13</title>
<path fill="none" stroke="midnightblue" d="M1576.53,-168.944C1600.71,-159.938 1638.97,-145.689 1666.2,-135.549"/>
<polygon fill="midnightblue" stroke="midnightblue" points="1667.53,-138.786 1675.68,-132.016 1665.09,-132.227 1667.53,-138.786"/>
</g>
<!-- Node14 -->
<g id="node14" class="node"><title>Node14</title>
<polygon fill="none" stroke="#bfbfbf" points="1762.05,-113 1762.05,-132 1809.05,-132 1809.05,-113 1762.05,-113"/>
<text text-anchor="middle" x="1785.55" y="-120" font-family="Helvetica,sans-Serif" font-size="10.00">math.h</text>
</g>
<!-- Node8&#45;&gt;Node14 -->
<g id="edge13" class="edge"><title>Node8&#45;&gt;Node14</title>
<path fill="none" stroke="midnightblue" d="M1581.65,-171.551C1618.47,-163.671 1685.25,-149.075 1751.95,-132.563"/>
<polygon fill="midnightblue" stroke="midnightblue" points="1752.93,-135.926 1761.79,-130.114 1751.24,-129.134 1752.93,-135.926"/>
</g>
<!-- Node15&#45;&gt;Node7 -->
<g id="edge67" class="edge"><title>Node15&#45;&gt;Node7</title>
<path fill="none" stroke="midnightblue" d="M1118.99,-291.944C1093.2,-282.943 1051.49,-268.331 1015.55,-255.5 1013.32,-254.704 1011.02,-253.879 1008.7,-253.047"/>
<polygon fill="midnightblue" stroke="midnightblue" points="1009.82,-249.728 999.225,-249.625 1007.44,-256.312 1009.82,-249.728"/>
</g>
<!-- Node16 -->
<g id="node16" class="node"><title>Node16</title>
<polygon fill="none" stroke="#bfbfbf" points="1114.05,-230.5 1114.05,-249.5 1173.05,-249.5 1173.05,-230.5 1114.05,-230.5"/>
<text text-anchor="middle" x="1143.55" y="-237.5" font-family="Helvetica,sans-Serif" font-size="10.00">QWindow</text>
</g>
<!-- Node15&#45;&gt;Node16 -->
<g id="edge16" class="edge"><title>Node15&#45;&gt;Node16</title>
<path fill="none" stroke="midnightblue" d="M1143.55,-291.975C1143.55,-283.58 1143.55,-270.481 1143.55,-259.663"/>
<polygon fill="midnightblue" stroke="midnightblue" points="1147.05,-259.509 1143.55,-249.509 1140.05,-259.509 1147.05,-259.509"/>
</g>
<!-- Node17 -->
<g id="node17" class="node"><title>Node17</title>
<polygon fill="none" stroke="#bfbfbf" points="1191.05,-230.5 1191.05,-249.5 1286.05,-249.5 1286.05,-230.5 1191.05,-230.5"/>
<text text-anchor="middle" x="1238.55" y="-237.5" font-family="Helvetica,sans-Serif" font-size="10.00">QOpenGLContext</text>
</g>
<!-- Node15&#45;&gt;Node17 -->
<g id="edge17" class="edge"><title>Node15&#45;&gt;Node17</title>
<path fill="none" stroke="midnightblue" d="M1157.16,-291.975C1172.61,-282.299 1198.04,-266.372 1216.37,-254.894"/>
<polygon fill="midnightblue" stroke="midnightblue" points="1218.35,-257.783 1224.96,-249.509 1214.63,-251.851 1218.35,-257.783"/>
</g>
<!-- Node18 -->
<g id="node18" class="node"><title>Node18</title>
<polygon fill="none" stroke="#bfbfbf" points="1304.05,-225 1304.05,-255 1417.05,-255 1417.05,-225 1304.05,-225"/>
<text text-anchor="start" x="1312.05" y="-243" font-family="Helvetica,sans-Serif" font-size="10.00">QOpenGLFunctions_4</text>
<text text-anchor="middle" x="1360.55" y="-232" font-family="Helvetica,sans-Serif" font-size="10.00">_2_Core</text>
</g>
<!-- Node15&#45;&gt;Node18 -->
<g id="edge18" class="edge"><title>Node15&#45;&gt;Node18</title>
<path fill="none" stroke="midnightblue" d="M1174.64,-291.975C1207.12,-283.069 1258.91,-268.869 1299.59,-257.715"/>
<polygon fill="midnightblue" stroke="midnightblue" points="1300.69,-261.043 1309.41,-255.023 1298.84,-254.292 1300.69,-261.043"/>
</g>
<!-- Node19 -->
<g id="node19" class="node"><title>Node19</title>
<polygon fill="none" stroke="#bfbfbf" points="1435.05,-230.5 1435.05,-249.5 1502.05,-249.5 1502.05,-230.5 1435.05,-230.5"/>
<text text-anchor="middle" x="1468.55" y="-237.5" font-family="Helvetica,sans-Serif" font-size="10.00">QKeyEvent</text>
</g>
<!-- Node15&#45;&gt;Node19 -->
<g id="edge19" class="edge"><title>Node15&#45;&gt;Node19</title>
<path fill="none" stroke="midnightblue" d="M1181.75,-293.062C1184.72,-292.521 1187.68,-291.994 1190.55,-291.5 1294.68,-273.561 1322.88,-280.475 1425.55,-255.5 1428.94,-254.674 1432.45,-253.7 1435.93,-252.652"/>
<polygon fill="midnightblue" stroke="midnightblue" points="1437.1,-255.954 1445.56,-249.572 1434.97,-249.287 1437.1,-255.954"/>
</g>
<!-- Node20 -->
<g id="node20" class="node"><title>Node20</title>
<polygon fill="none" stroke="#bfbfbf" points="1520.55,-230.5 1520.55,-249.5 1566.55,-249.5 1566.55,-230.5 1520.55,-230.5"/>
<text text-anchor="middle" x="1543.55" y="-237.5" font-family="Helvetica,sans-Serif" font-size="10.00">QTime</text>
</g>
<!-- Node15&#45;&gt;Node20 -->
<g id="edge20" class="edge"><title>Node15&#45;&gt;Node20</title>
<path fill="none" stroke="midnightblue" d="M1181.73,-292.934C1184.71,-292.422 1187.68,-291.936 1190.55,-291.5 1332.05,-270.026 1372.35,-292.71 1510.55,-255.5 1512.84,-254.882 1515.18,-254.129 1517.5,-253.293"/>
<polygon fill="midnightblue" stroke="midnightblue" points="1518.82,-256.535 1526.78,-249.537 1516.2,-250.048 1518.82,-256.535"/>
</g>
<!-- Node21 -->
<g id="node21" class="node"><title>Node21</title>
<g id="a_node21"><a xlink:href="../../d4/d1c/GameEngine_8hpp.html" target="_top" xlink:title="GameEngine.hpp">
<polygon fill="none" stroke="black" points="834.55,-230.5 834.55,-249.5 926.55,-249.5 926.55,-230.5 834.55,-230.5"/>
<text text-anchor="middle" x="880.55" y="-237.5" font-family="Helvetica,sans-Serif" font-size="10.00">GameEngine.hpp</text>
</a>
</g>
</g>
<!-- Node15&#45;&gt;Node21 -->
<g id="edge21" class="edge"><title>Node15&#45;&gt;Node21</title>
<path fill="none" stroke="midnightblue" d="M1105.48,-292.796C1063.68,-284.215 994.651,-269.676 935.55,-255.5 931.109,-254.435 926.477,-253.281 921.869,-252.106"/>
<polygon fill="midnightblue" stroke="midnightblue" points="922.459,-248.643 911.901,-249.524 920.704,-255.42 922.459,-248.643"/>
</g>
<!-- Node21&#45;&gt;Node2 -->
<g id="edge22" class="edge"><title>Node21&#45;&gt;Node2</title>
<path fill="none" stroke="midnightblue" d="M866.652,-230.475C850.878,-220.799 824.913,-204.872 806.201,-193.394"/>
<polygon fill="midnightblue" stroke="midnightblue" points="807.776,-190.254 797.422,-188.009 804.116,-196.221 807.776,-190.254"/>
</g>
<!-- Node22 -->
<g id="node22" class="node"><title>Node22</title>
<g id="a_node22"><a xlink:href="../../db/de8/Scene_8hpp.html" target="_top" xlink:title="Scene.hpp">
<polygon fill="none" stroke="black" points="849.05,-169 849.05,-188 912.05,-188 912.05,-169 849.05,-169"/>
<text text-anchor="middle" x="880.55" y="-176" font-family="Helvetica,sans-Serif" font-size="10.00">Scene.hpp</text>
</a>
</g>
</g>
<!-- Node21&#45;&gt;Node22 -->
<g id="edge23" class="edge"><title>Node21&#45;&gt;Node22</title>
<path fill="none" stroke="midnightblue" d="M880.55,-230.475C880.55,-222.08 880.55,-208.981 880.55,-198.163"/>
<polygon fill="midnightblue" stroke="midnightblue" points="884.05,-198.009 880.55,-188.009 877.05,-198.009 884.05,-198.009"/>
</g>
<!-- Node46 -->
<g id="node46" class="node"><title>Node46</title>
<g id="a_node46"><a xlink:href="../../d0/dbd/AssimpImporter_8hpp.html" target="_top" xlink:title="AssimpImporter.hpp">
<polygon fill="none" stroke="black" points="1151.55,-113 1151.55,-132 1255.55,-132 1255.55,-113 1151.55,-113"/>
<text text-anchor="middle" x="1203.55" y="-120" font-family="Helvetica,sans-Serif" font-size="10.00">AssimpImporter.hpp</text>
</a>
</g>
</g>
<!-- Node21&#45;&gt;Node46 -->
<g id="edge62" class="edge"><title>Node21&#45;&gt;Node46</title>
<path fill="none" stroke="midnightblue" d="M904.563,-230.413C961.441,-210.075 1104.5,-158.919 1169.94,-135.52"/>
<polygon fill="midnightblue" stroke="midnightblue" points="1171.14,-138.806 1179.38,-132.143 1168.78,-132.215 1171.14,-138.806"/>
</g>
<!-- Node23 -->
<g id="node23" class="node"><title>Node23</title>
<polygon fill="none" stroke="#bfbfbf" points="107.55,-0.999987 107.55,-20 159.55,-20 159.55,-0.999987 107.55,-0.999987"/>
<text text-anchor="middle" x="133.55" y="-7.99999" font-family="Helvetica,sans-Serif" font-size="10.00">memory</text>
</g>
<!-- Node22&#45;&gt;Node23 -->
<g id="edge24" class="edge"><title>Node22&#45;&gt;Node23</title>
<path fill="none" stroke="midnightblue" d="M848.857,-170.007C845.725,-169.428 842.583,-168.91 839.55,-168.5 537.872,-127.729 453.6,-194.454 155.55,-132.5 85.878,-118.018 46.1256,-134.959 5.54987,-76.5 -19.6189,-40.2381 51.2992,-23.0397 97.4009,-15.8832"/>
<polygon fill="midnightblue" stroke="midnightblue" points="97.9924,-19.3341 107.383,-14.4279 96.9824,-12.4073 97.9924,-19.3341"/>
</g>
<!-- Node24 -->
<g id="node24" class="node"><title>Node24</title>
<polygon fill="none" stroke="#bfbfbf" points="1027.05,-57 1027.05,-76 1056.05,-76 1056.05,-57 1027.05,-57"/>
<text text-anchor="middle" x="1041.55" y="-64" font-family="Helvetica,sans-Serif" font-size="10.00">list</text>
</g>
<!-- Node22&#45;&gt;Node24 -->
<g id="edge25" class="edge"><title>Node22&#45;&gt;Node24</title>
<path fill="none" stroke="midnightblue" d="M886.385,-168.842C895.912,-155.264 916.016,-128.829 938.55,-112.5 951.663,-102.998 991.065,-86.9024 1017.16,-76.7566"/>
<polygon fill="midnightblue" stroke="midnightblue" points="1018.68,-79.9212 1026.75,-73.0601 1016.16,-73.3892 1018.68,-79.9212"/>
</g>
<!-- Node25 -->
<g id="node25" class="node"><title>Node25</title>
<g id="a_node25"><a xlink:href="../../dd/db8/Renderer_8hpp.html" target="_top" xlink:title="Renderer.hpp">
<polygon fill="none" stroke="black" points="948.05,-113 948.05,-132 1023.05,-132 1023.05,-113 948.05,-113"/>
<text text-anchor="middle" x="985.55" y="-120" font-family="Helvetica,sans-Serif" font-size="10.00">Renderer.hpp</text>
</a>
</g>
</g>
<!-- Node22&#45;&gt;Node25 -->
<g id="edge26" class="edge"><title>Node22&#45;&gt;Node25</title>
<path fill="none" stroke="midnightblue" d="M897.42,-168.824C914.259,-160.164 940.356,-146.742 959.788,-136.749"/>
<polygon fill="midnightblue" stroke="midnightblue" points="961.43,-139.841 968.722,-132.154 958.228,-133.616 961.43,-139.841"/>
</g>
<!-- Node26 -->
<g id="node26" class="node"><title>Node26</title>
<g id="a_node26"><a xlink:href="../../de/dbe/SpatialGraph_8hpp.html" target="_top" xlink:title="SpatialGraph.hpp">
<polygon fill="none" stroke="black" points="1041.55,-113 1041.55,-132 1133.55,-132 1133.55,-113 1041.55,-113"/>
<text text-anchor="middle" x="1087.55" y="-120" font-family="Helvetica,sans-Serif" font-size="10.00">SpatialGraph.hpp</text>
</a>
</g>
</g>
<!-- Node22&#45;&gt;Node26 -->
<g id="edge28" class="edge"><title>Node22&#45;&gt;Node26</title>
<path fill="none" stroke="midnightblue" d="M912.44,-169.181C948.015,-159.9 1005.73,-144.844 1045.1,-134.573"/>
<polygon fill="midnightblue" stroke="midnightblue" points="1046.15,-137.918 1054.94,-132.007 1044.38,-131.145 1046.15,-137.918"/>
</g>
<!-- Node27 -->
<g id="node27" class="node"><title>Node27</title>
<g id="a_node27"><a xlink:href="../../d8/d58/SceneGraph_8hpp.html" target="_top" xlink:title="SceneGraph.hpp">
<polygon fill="none" stroke="black" points="1274.05,-113 1274.05,-132 1363.05,-132 1363.05,-113 1274.05,-113"/>
<text text-anchor="middle" x="1318.55" y="-120" font-family="Helvetica,sans-Serif" font-size="10.00">SceneGraph.hpp</text>
</a>
</g>
</g>
<!-- Node22&#45;&gt;Node27 -->
<g id="edge30" class="edge"><title>Node22&#45;&gt;Node27</title>
<path fill="none" stroke="midnightblue" d="M912.478,-174.288C976.789,-167.704 1126.73,-151.779 1263.54,-132.58"/>
<polygon fill="midnightblue" stroke="midnightblue" points="1264.37,-135.997 1273.79,-131.132 1263.4,-129.066 1264.37,-135.997"/>
</g>
<!-- Node29 -->
<g id="node29" class="node"><title>Node29</title>
<g id="a_node29"><a xlink:href="../../d1/d93/ShaderProgramLibrary_8hpp.html" target="_top" xlink:title="ShaderProgramLibrary.hpp">
<polygon fill="none" stroke="black" points="164.55,-113 164.55,-132 296.55,-132 296.55,-113 164.55,-113"/>
<text text-anchor="middle" x="230.55" y="-120" font-family="Helvetica,sans-Serif" font-size="10.00">ShaderProgramLibrary.hpp</text>
</a>
</g>
</g>
<!-- Node22&#45;&gt;Node29 -->
<g id="edge32" class="edge"><title>Node22&#45;&gt;Node29</title>
<path fill="none" stroke="midnightblue" d="M848.848,-170.074C845.717,-169.481 842.579,-168.942 839.55,-168.5 738.868,-153.806 446.795,-135.848 306.94,-127.782"/>
<polygon fill="midnightblue" stroke="midnightblue" points="306.916,-124.275 296.732,-127.195 306.514,-131.263 306.916,-124.275"/>
</g>
<!-- Node34 -->
<g id="node34" class="node"><title>Node34</title>
<g id="a_node34"><a xlink:href="../../d2/d26/MaterialLibrary_8hpp.html" target="_top" xlink:title="MaterialLibrary.hpp">
<polygon fill="none" stroke="black" points="443.05,-113 443.05,-132 542.05,-132 542.05,-113 443.05,-113"/>
<text text-anchor="middle" x="492.55" y="-120" font-family="Helvetica,sans-Serif" font-size="10.00">MaterialLibrary.hpp</text>
</a>
</g>
</g>
<!-- Node22&#45;&gt;Node34 -->
<g id="edge42" class="edge"><title>Node22&#45;&gt;Node34</title>
<path fill="none" stroke="midnightblue" d="M848.822,-170.233C845.697,-169.608 842.567,-169.018 839.55,-168.5 715.218,-147.157 680.488,-150.248 552.413,-132.719"/>
<polygon fill="midnightblue" stroke="midnightblue" points="552.595,-129.211 542.209,-131.306 551.635,-136.145 552.595,-129.211"/>
</g>
<!-- Node37 -->
<g id="node37" class="node"><title>Node37</title>
<g id="a_node37"><a xlink:href="../../d1/da3/AnimationLibrary_8hpp.html" target="_top" xlink:title="AnimationLibrary.hpp">
<polygon fill="none" stroke="black" points="667.55,-113 667.55,-132 775.55,-132 775.55,-113 667.55,-113"/>
<text text-anchor="middle" x="721.55" y="-120" font-family="Helvetica,sans-Serif" font-size="10.00">AnimationLibrary.hpp</text>
</a>
</g>
</g>
<!-- Node22&#45;&gt;Node37 -->
<g id="edge48" class="edge"><title>Node22&#45;&gt;Node37</title>
<path fill="none" stroke="midnightblue" d="M855.356,-168.944C828.607,-159.859 786.147,-145.439 756.245,-135.283"/>
<polygon fill="midnightblue" stroke="midnightblue" points="757.22,-131.918 746.626,-132.016 754.969,-138.546 757.22,-131.918"/>
</g>
<!-- Node41 -->
<g id="node41" class="node"><title>Node41</title>
<g id="a_node41"><a xlink:href="../../dd/de2/MeshLibrary_8hpp.html" target="_top" xlink:title="MeshLibrary.hpp">
<polygon fill="none" stroke="black" points="560.05,-113 560.05,-132 649.05,-132 649.05,-113 560.05,-113"/>
<text text-anchor="middle" x="604.55" y="-120" font-family="Helvetica,sans-Serif" font-size="10.00">MeshLibrary.hpp</text>
</a>
</g>
</g>
<!-- Node22&#45;&gt;Node41 -->
<g id="edge54" class="edge"><title>Node22&#45;&gt;Node41</title>
<path fill="none" stroke="midnightblue" d="M848.784,-170.439C845.666,-169.772 842.548,-169.116 839.55,-168.5 777.949,-155.843 707.021,-142.419 659.342,-133.561"/>
<polygon fill="midnightblue" stroke="midnightblue" points="659.705,-130.069 649.234,-131.687 658.429,-136.951 659.705,-130.069"/>
</g>
<!-- Node44 -->
<g id="node44" class="node"><title>Node44</title>
<g id="a_node44"><a xlink:href="../../dc/d23/TextureLibrary_8hpp.html" target="_top" xlink:title="TextureLibrary.hpp">
<polygon fill="none" stroke="black" points="793.55,-113 793.55,-132 891.55,-132 891.55,-113 793.55,-113"/>
<text text-anchor="middle" x="842.55" y="-120" font-family="Helvetica,sans-Serif" font-size="10.00">TextureLibrary.hpp</text>
</a>
</g>
</g>
<!-- Node22&#45;&gt;Node44 -->
<g id="edge59" class="edge"><title>Node22&#45;&gt;Node44</title>
<path fill="none" stroke="midnightblue" d="M874.275,-168.583C868.907,-160.955 861.032,-149.764 854.471,-140.441"/>
<polygon fill="midnightblue" stroke="midnightblue" points="857.325,-138.415 848.708,-132.251 851.601,-142.443 857.325,-138.415"/>
</g>
<!-- Node25&#45;&gt;Node24 -->
<g id="edge27" class="edge"><title>Node25&#45;&gt;Node24</title>
<path fill="none" stroke="midnightblue" d="M994.547,-112.824C1002.74,-104.92 1015.06,-93.0482 1025.02,-83.4377"/>
<polygon fill="midnightblue" stroke="midnightblue" points="1027.62,-85.7947 1032.39,-76.3339 1022.76,-80.7558 1027.62,-85.7947"/>
</g>
<!-- Node26&#45;&gt;Node24 -->
<g id="edge29" class="edge"><title>Node26&#45;&gt;Node24</title>
<path fill="none" stroke="midnightblue" d="M1079.95,-112.583C1073.32,-104.798 1063.53,-93.3014 1055.49,-83.8665"/>
<polygon fill="midnightblue" stroke="midnightblue" points="1058.15,-81.5939 1049,-76.2511 1052.82,-86.1332 1058.15,-81.5939"/>
</g>
<!-- Node28 -->
<g id="node28" class="node"><title>Node28</title>
<polygon fill="none" stroke="#bfbfbf" points="1275.55,-57 1275.55,-76 1361.55,-76 1361.55,-57 1275.55,-57"/>
<text text-anchor="middle" x="1318.55" y="-64" font-family="Helvetica,sans-Serif" font-size="10.00">assimp/scene.h</text>
</g>
<!-- Node27&#45;&gt;Node28 -->
<g id="edge31" class="edge"><title>Node27&#45;&gt;Node28</title>
<path fill="none" stroke="midnightblue" d="M1318.55,-112.583C1318.55,-105.506 1318.55,-95.3611 1318.55,-86.4865"/>
<polygon fill="midnightblue" stroke="midnightblue" points="1322.05,-86.251 1318.55,-76.2511 1315.05,-86.2511 1322.05,-86.251"/>
</g>
<!-- Node29&#45;&gt;Node23 -->
<g id="edge33" class="edge"><title>Node29&#45;&gt;Node23</title>
<path fill="none" stroke="midnightblue" d="M164.414,-116.715C108.027,-111.096 33.2184,-99.4586 14.5499,-76.5 -11.3677,-44.6264 53.3473,-26.0033 97.1738,-17.3768"/>
<polygon fill="midnightblue" stroke="midnightblue" points="98.0672,-20.7705 107.254,-15.4931 96.7813,-13.8896 98.0672,-20.7705"/>
</g>
<!-- Node30 -->
<g id="node30" class="node"><title>Node30</title>
<g id="a_node30"><a xlink:href="../../df/d67/Library_8hpp.html" target="_top" xlink:title="Library.hpp">
<polygon fill="none" stroke="red" points="535.05,-0.999987 535.05,-20 600.05,-20 600.05,-0.999987 535.05,-0.999987"/>
<text text-anchor="middle" x="567.55" y="-7.99999" font-family="Helvetica,sans-Serif" font-size="10.00">Library.hpp</text>
</a>
</g>
</g>
<!-- Node29&#45;&gt;Node30 -->
<g id="edge34" class="edge"><title>Node29&#45;&gt;Node30</title>
<path fill="none" stroke="midnightblue" d="M235.525,-112.608C244.099,-98.2009 263.119,-70.0092 287.55,-56.5 327.508,-34.4047 456.547,-20.7044 524.609,-14.833"/>
<polygon fill="midnightblue" stroke="midnightblue" points="524.918,-18.3195 534.588,-13.9906 524.329,-11.3443 524.918,-18.3195"/>
</g>
<!-- Node31 -->
<g id="node31" class="node"><title>Node31</title>
<g id="a_node31"><a xlink:href="../../dc/ddb/ShaderProgram_8hpp.html" target="_top" xlink:title="ShaderProgram.hpp">
<polygon fill="none" stroke="red" points="24.0499,-57 24.0499,-76 127.05,-76 127.05,-57 24.0499,-57"/>
<text text-anchor="middle" x="75.5499" y="-64" font-family="Helvetica,sans-Serif" font-size="10.00">ShaderProgram.hpp</text>
</a>
</g>
</g>
<!-- Node29&#45;&gt;Node31 -->
<g id="edge36" class="edge"><title>Node29&#45;&gt;Node31</title>
<path fill="none" stroke="midnightblue" d="M205.99,-112.944C180.027,-103.899 138.882,-89.564 109.753,-79.4158"/>
<polygon fill="midnightblue" stroke="midnightblue" points="110.59,-76.0012 99.9952,-76.0164 108.287,-82.6116 110.59,-76.0012"/>
</g>
<!-- Node32 -->
<g id="node32" class="node"><title>Node32</title>
<g id="a_node32"><a xlink:href="../../d9/db7/ShaderProgramNames_8hpp.html" target="_top" xlink:title="ShaderProgramNames.hpp">
<polygon fill="none" stroke="black" points="296.55,-57 296.55,-76 430.55,-76 430.55,-57 296.55,-57"/>
<text text-anchor="middle" x="363.55" y="-64" font-family="Helvetica,sans-Serif" font-size="10.00">ShaderProgramNames.hpp</text>
</a>
</g>
</g>
<!-- Node29&#45;&gt;Node32 -->
<g id="edge38" class="edge"><title>Node29&#45;&gt;Node32</title>
<path fill="none" stroke="midnightblue" d="M251.624,-112.944C273.61,-104.017 308.284,-89.9387 333.214,-79.8168"/>
<polygon fill="midnightblue" stroke="midnightblue" points="334.625,-83.0213 342.574,-76.0164 331.992,-76.5355 334.625,-83.0213"/>
</g>
<!-- Node33 -->
<g id="node33" class="node"><title>Node33</title>
<g id="a_node33"><a xlink:href="../../d2/db1/ShaderLibrary_8hpp.html" target="_top" xlink:title="ShaderLibrary.hpp">
<polygon fill="none" stroke="red" points="145.05,-57 145.05,-76 240.05,-76 240.05,-57 145.05,-57"/>
<text text-anchor="middle" x="192.55" y="-64" font-family="Helvetica,sans-Serif" font-size="10.00">ShaderLibrary.hpp</text>
</a>
</g>
</g>
<!-- Node29&#45;&gt;Node33 -->
<g id="edge39" class="edge"><title>Node29&#45;&gt;Node33</title>
<path fill="none" stroke="midnightblue" d="M224.275,-112.583C218.907,-104.955 211.032,-93.7644 204.471,-84.4408"/>
<polygon fill="midnightblue" stroke="midnightblue" points="207.325,-82.4149 198.708,-76.2511 201.601,-86.4434 207.325,-82.4149"/>
</g>
<!-- Node30&#45;&gt;Node30 -->
<g id="edge35" class="edge"><title>Node30&#45;&gt;Node30</title>
<path fill="none" stroke="midnightblue" d="M589.088,-20.0252C603.723,-22.8079 618.05,-19.6328 618.05,-10.5 618.05,-3.50768 609.652,-0.00768198 599.147,-0"/>
<polygon fill="midnightblue" stroke="midnightblue" points="598.704,3.47355 589.088,-0.974749 599.379,-3.49381 598.704,3.47355"/>
</g>
<!-- Node31&#45;&gt;Node23 -->
<g id="edge37" class="edge"><title>Node31&#45;&gt;Node23</title>
<path fill="none" stroke="midnightblue" d="M84.8686,-56.824C93.4425,-48.8414 106.362,-36.8127 116.738,-27.1529"/>
<polygon fill="midnightblue" stroke="midnightblue" points="119.128,-29.7097 124.062,-20.3339 114.358,-24.5865 119.128,-29.7097"/>
</g>
<!-- Node33&#45;&gt;Node23 -->
<g id="edge40" class="edge"><title>Node33&#45;&gt;Node23</title>
<path fill="none" stroke="midnightblue" d="M183.071,-56.824C174.349,-48.8414 161.206,-36.8127 150.652,-27.1529"/>
<polygon fill="midnightblue" stroke="midnightblue" points="152.942,-24.5036 143.202,-20.3339 148.215,-29.6674 152.942,-24.5036"/>
</g>
<!-- Node33&#45;&gt;Node30 -->
<g id="edge41" class="edge"><title>Node33&#45;&gt;Node30</title>
<path fill="none" stroke="midnightblue" d="M240.276,-58.5653C245.098,-57.8667 249.921,-57.1687 254.55,-56.5 351.113,-42.5499 464.45,-26.2815 524.735,-17.6366"/>
<polygon fill="midnightblue" stroke="midnightblue" points="525.249,-21.0988 534.651,-16.2148 524.256,-14.1696 525.249,-21.0988"/>
</g>
<!-- Node34&#45;&gt;Node30 -->
<g id="edge44" class="edge"><title>Node34&#45;&gt;Node30</title>
<path fill="none" stroke="midnightblue" d="M499.817,-112.751C507.11,-103.838 518.526,-89.5128 527.55,-76.5 538.381,-60.8822 549.632,-42.3597 557.432,-29.0906"/>
<polygon fill="midnightblue" stroke="midnightblue" points="560.658,-30.5066 562.661,-20.1028 554.607,-26.9869 560.658,-30.5066"/>
</g>
<!-- Node35 -->
<g id="node35" class="node"><title>Node35</title>
<polygon fill="none" stroke="#bfbfbf" points="658.55,-0.999987 658.55,-20 752.55,-20 752.55,-0.999987 658.55,-0.999987"/>
<text text-anchor="middle" x="705.55" y="-7.99999" font-family="Helvetica,sans-Serif" font-size="10.00">assimp/material.h</text>
</g>
<!-- Node34&#45;&gt;Node35 -->
<g id="edge43" class="edge"><title>Node34&#45;&gt;Node35</title>
<path fill="none" stroke="midnightblue" d="M542.104,-113.252C572.667,-106.611 611.768,-95.2139 642.55,-76.5 663.234,-63.9252 681.835,-42.9509 693.372,-28.2373"/>
<polygon fill="midnightblue" stroke="midnightblue" points="696.35,-30.1011 699.597,-20.016 690.77,-25.8752 696.35,-30.1011"/>
</g>
<!-- Node36 -->
<g id="node36" class="node"><title>Node36</title>
<g id="a_node36"><a xlink:href="../../d0/d70/Material_8hpp.html" target="_top" xlink:title="Material.hpp">
<polygon fill="none" stroke="red" points="448.55,-57 448.55,-76 518.55,-76 518.55,-57 448.55,-57"/>
<text text-anchor="middle" x="483.55" y="-64" font-family="Helvetica,sans-Serif" font-size="10.00">Material.hpp</text>
</a>
</g>
</g>
<!-- Node34&#45;&gt;Node36 -->
<g id="edge45" class="edge"><title>Node34&#45;&gt;Node36</title>
<path fill="none" stroke="midnightblue" d="M491.064,-112.583C489.871,-105.427 488.156,-95.1353 486.665,-86.1911"/>
<polygon fill="midnightblue" stroke="midnightblue" points="490.105,-85.5396 485.008,-76.2511 483.2,-86.6904 490.105,-85.5396"/>
</g>
<!-- Node36&#45;&gt;Node23 -->
<g id="edge46" class="edge"><title>Node36&#45;&gt;Node23</title>
<path fill="none" stroke="midnightblue" d="M448.519,-58.1512C445.489,-57.5713 442.468,-57.0126 439.55,-56.5 342.464,-39.4457 227.267,-23.7106 169.856,-16.1723"/>
<polygon fill="midnightblue" stroke="midnightblue" points="170.195,-12.687 159.826,-14.8617 169.288,-19.628 170.195,-12.687"/>
</g>
<!-- Node36&#45;&gt;Node35 -->
<g id="edge47" class="edge"><title>Node36&#45;&gt;Node35</title>
<path fill="none" stroke="midnightblue" d="M518.726,-56.9435C557.129,-47.6024 618.726,-32.6194 660.605,-22.4325"/>
<polygon fill="midnightblue" stroke="midnightblue" points="661.648,-25.7808 670.538,-20.0164 659.994,-18.9792 661.648,-25.7808"/>
</g>
<!-- Node37&#45;&gt;Node30 -->
<g id="edge50" class="edge"><title>Node37&#45;&gt;Node30</title>
<path fill="none" stroke="midnightblue" d="M714.594,-112.571C703.752,-99.0967 681.659,-73.3538 658.55,-56.5 640.323,-43.2071 617.574,-31.9574 599.381,-24.0307"/>
<polygon fill="midnightblue" stroke="midnightblue" points="600.64,-20.7628 590.066,-20.0864 597.91,-27.2087 600.64,-20.7628"/>
</g>
<!-- Node38 -->
<g id="node38" class="node"><title>Node38</title>
<polygon fill="none" stroke="#bfbfbf" points="793.55,-0.999987 793.55,-20 873.55,-20 873.55,-0.999987 793.55,-0.999987"/>
<text text-anchor="middle" x="833.55" y="-7.99999" font-family="Helvetica,sans-Serif" font-size="10.00">assimp/anim.h</text>
</g>
<!-- Node37&#45;&gt;Node38 -->
<g id="edge49" class="edge"><title>Node37&#45;&gt;Node38</title>
<path fill="none" stroke="midnightblue" d="M738.532,-112.997C753.412,-104.983 775.027,-91.9218 790.55,-76.5 804.608,-62.5339 816.654,-43.2743 824.389,-29.3485"/>
<polygon fill="midnightblue" stroke="midnightblue" points="827.597,-30.7718 829.227,-20.3031 821.425,-27.4704 827.597,-30.7718"/>
</g>
<!-- Node39 -->
<g id="node39" class="node"><title>Node39</title>
<g id="a_node39"><a xlink:href="../../d0/d36/Animation_8hpp.html" target="_top" xlink:title="Animation.hpp">
<polygon fill="none" stroke="black" points="843.05,-57 843.05,-76 922.05,-76 922.05,-57 843.05,-57"/>
<text text-anchor="middle" x="882.55" y="-64" font-family="Helvetica,sans-Serif" font-size="10.00">Animation.hpp</text>
</a>
</g>
</g>
<!-- Node37&#45;&gt;Node39 -->
<g id="edge51" class="edge"><title>Node37&#45;&gt;Node39</title>
<path fill="none" stroke="midnightblue" d="M747.061,-112.944C774.146,-103.859 817.14,-89.4387 847.419,-79.2831"/>
<polygon fill="midnightblue" stroke="midnightblue" points="848.79,-82.5147 857.158,-76.0164 846.564,-75.8781 848.79,-82.5147"/>
</g>
<!-- Node39&#45;&gt;Node38 -->
<g id="edge52" class="edge"><title>Node39&#45;&gt;Node38</title>
<path fill="none" stroke="midnightblue" d="M874.459,-56.583C867.395,-48.7981 856.962,-37.3014 848.401,-27.8665"/>
<polygon fill="midnightblue" stroke="midnightblue" points="850.803,-25.3047 841.491,-20.2511 845.619,-30.0087 850.803,-25.3047"/>
</g>
<!-- Node40 -->
<g id="node40" class="node"><title>Node40</title>
<polygon fill="none" stroke="#bfbfbf" points="966.05,-0.999987 966.05,-20 1007.05,-20 1007.05,-0.999987 966.05,-0.999987"/>
<text text-anchor="middle" x="986.55" y="-7.99999" font-family="Helvetica,sans-Serif" font-size="10.00">string</text>
</g>
<!-- Node39&#45;&gt;Node40 -->
<g id="edge53" class="edge"><title>Node39&#45;&gt;Node40</title>
<path fill="none" stroke="midnightblue" d="M899.259,-56.824C915.862,-48.2034 941.552,-34.8643 960.77,-24.8855"/>
<polygon fill="midnightblue" stroke="midnightblue" points="962.62,-27.8689 969.882,-20.1545 959.394,-21.6565 962.62,-27.8689"/>
</g>
<!-- Node41&#45;&gt;Node30 -->
<g id="edge55" class="edge"><title>Node41&#45;&gt;Node30</title>
<path fill="none" stroke="midnightblue" d="M615.924,-112.922C630.906,-100.527 654.078,-76.8612 642.55,-56.5 634.203,-41.7584 618.888,-31.3191 604.263,-24.2321"/>
<polygon fill="midnightblue" stroke="midnightblue" points="605.392,-20.9041 594.832,-20.0474 602.553,-27.3025 605.392,-20.9041"/>
</g>
<!-- Node42 -->
<g id="node42" class="node"><title>Node42</title>
<g id="a_node42"><a xlink:href="../../d1/d62/Mesh_8hpp.html" target="_top" xlink:title="Mesh.hpp">
<polygon fill="none" stroke="red" points="575.05,-57 575.05,-76 634.05,-76 634.05,-57 575.05,-57"/>
<text text-anchor="middle" x="604.55" y="-64" font-family="Helvetica,sans-Serif" font-size="10.00">Mesh.hpp</text>
</a>
</g>
</g>
<!-- Node41&#45;&gt;Node42 -->
<g id="edge56" class="edge"><title>Node41&#45;&gt;Node42</title>
<path fill="none" stroke="midnightblue" d="M604.55,-112.583C604.55,-105.506 604.55,-95.3611 604.55,-86.4865"/>
<polygon fill="midnightblue" stroke="midnightblue" points="608.05,-86.251 604.55,-76.2511 601.05,-86.2511 608.05,-86.251"/>
</g>
<!-- Node42&#45;&gt;Node23 -->
<g id="edge57" class="edge"><title>Node42&#45;&gt;Node23</title>
<path fill="none" stroke="midnightblue" d="M574.935,-62.02C560.621,-60.3427 543.193,-58.3075 527.55,-56.5 395.818,-41.2786 239.273,-23.4879 169.826,-15.6109"/>
<polygon fill="midnightblue" stroke="midnightblue" points="170.165,-12.127 159.835,-14.4778 169.377,-19.0824 170.165,-12.127"/>
</g>
<!-- Node43 -->
<g id="node43" class="node"><title>Node43</title>
<polygon fill="none" stroke="#bfbfbf" points="1062.05,-0.999987 1062.05,-20 1145.05,-20 1145.05,-0.999987 1062.05,-0.999987"/>
<text text-anchor="middle" x="1103.55" y="-7.99999" font-family="Helvetica,sans-Serif" font-size="10.00">assimp/mesh.h</text>
</g>
<!-- Node42&#45;&gt;Node43 -->
<g id="edge58" class="edge"><title>Node42&#45;&gt;Node43</title>
<path fill="none" stroke="midnightblue" d="M634.27,-62.2838C716.507,-53.3844 947.846,-28.3497 1051.81,-17.0989"/>
<polygon fill="midnightblue" stroke="midnightblue" points="1052.2,-20.5776 1061.76,-16.022 1051.44,-13.6182 1052.2,-20.5776"/>
</g>
<!-- Node44&#45;&gt;Node30 -->
<g id="edge60" class="edge"><title>Node44&#45;&gt;Node30</title>
<path fill="none" stroke="midnightblue" d="M822.158,-112.935C792.117,-100.356 734.156,-76.2405 684.55,-56.5 656.064,-45.1642 623.499,-32.6774 599.97,-23.7391"/>
<polygon fill="midnightblue" stroke="midnightblue" points="601.07,-20.4128 590.478,-20.1394 598.587,-26.9579 601.07,-20.4128"/>
</g>
<!-- Node45 -->
<g id="node45" class="node"><title>Node45</title>
<g id="a_node45"><a xlink:href="../../d0/ddc/Texture_8hpp.html" target="_top" xlink:title="Texture.hpp">
<polygon fill="none" stroke="red" points="940.55,-57 940.55,-76 1008.55,-76 1008.55,-57 940.55,-57"/>
<text text-anchor="middle" x="974.55" y="-64" font-family="Helvetica,sans-Serif" font-size="10.00">Texture.hpp</text>
</a>
</g>
</g>
<!-- Node44&#45;&gt;Node45 -->
<g id="edge61" class="edge"><title>Node44&#45;&gt;Node45</title>
<path fill="none" stroke="midnightblue" d="M863.466,-112.944C885.286,-104.017 919.7,-89.9387 944.442,-79.8168"/>
<polygon fill="midnightblue" stroke="midnightblue" points="945.802,-83.0422 953.732,-76.0164 943.151,-76.5634 945.802,-83.0422"/>
</g>
<!-- Node46&#45;&gt;Node24 -->
<g id="edge64" class="edge"><title>Node46&#45;&gt;Node24</title>
<path fill="none" stroke="midnightblue" d="M1177.88,-112.944C1147.23,-102.728 1096.35,-85.7653 1066.17,-75.7068"/>
<polygon fill="midnightblue" stroke="midnightblue" points="1067.02,-72.3013 1056.43,-72.4593 1064.81,-78.942 1067.02,-72.3013"/>
</g>
<!-- Node46&#45;&gt;Node40 -->
<g id="edge63" class="edge"><title>Node46&#45;&gt;Node40</title>
<path fill="none" stroke="midnightblue" d="M1186.52,-112.868C1148.73,-93.7113 1057.64,-47.5355 1012.62,-24.7172"/>
<polygon fill="midnightblue" stroke="midnightblue" points="1014,-21.491 1003.5,-20.0914 1010.84,-27.7347 1014,-21.491"/>
</g>
<!-- Node46&#45;&gt;Node43 -->
<g id="edge66" class="edge"><title>Node46&#45;&gt;Node43</title>
<path fill="none" stroke="midnightblue" d="M1188.41,-112.991C1174.94,-104.882 1155.3,-91.6808 1141.55,-76.5 1128.82,-62.449 1118.32,-43.4566 1111.61,-29.6313"/>
<polygon fill="midnightblue" stroke="midnightblue" points="1114.63,-27.8256 1107.24,-20.2337 1108.28,-30.7771 1114.63,-27.8256"/>
</g>
<!-- Node47 -->
<g id="node47" class="node"><title>Node47</title>
<polygon fill="none" stroke="#bfbfbf" points="1150.55,-57 1150.55,-76 1256.55,-76 1256.55,-57 1150.55,-57"/>
<text text-anchor="middle" x="1203.55" y="-64" font-family="Helvetica,sans-Serif" font-size="10.00">assimp/Importer.hpp</text>
</g>
<!-- Node46&#45;&gt;Node47 -->
<g id="edge65" class="edge"><title>Node46&#45;&gt;Node47</title>
<path fill="none" stroke="midnightblue" d="M1203.55,-112.583C1203.55,-105.506 1203.55,-95.3611 1203.55,-86.4865"/>
<polygon fill="midnightblue" stroke="midnightblue" points="1207.05,-86.251 1203.55,-76.2511 1200.05,-86.2511 1207.05,-86.251"/>
</g>
</g>
</svg>
        <g id="navigator" transform="translate(0 0)" fill="#404254">
                <rect fill="#f2f5e9" fill-opacity="0.5" stroke="#606060" stroke-width=".5" x="0" y="0" width="60" height="60"/>
                <use id="zoomplus" xlink:href="#zoomPlus" x="17" y="9" onmousedown="handleZoom(evt,'in')"/>
                <use id="zoomminus" xlink:href="#zoomMin" x="42" y="9" onmousedown="handleZoom(evt,'out')"/>
                <use id="reset" xlink:href="#resetDef" x="30" y="36" onmousedown="handleReset()"/>
                <g id="arrowUp" xlink:href="#dirArrow" transform="translate(30 24)" onmousedown="handlePan(0,-1)">
                  <use xlink:href="#rim" fill="#404040">
                        <set attributeName="fill" to="#808080" begin="arrowUp.mouseover" end="arrowUp.mouseout"/>
                  </use>
                  <path fill="none" stroke="white" stroke-width="1.5" d="M0,-3.0v7 M-2.5,-0.5L0,-3.0L2.5,-0.5"/>
                </g>
                <g id="arrowRight" xlink:href="#dirArrow" transform="rotate(90) translate(36 -43)" onmousedown="handlePan(1,0)">
                  <use xlink:href="#rim" fill="#404040">
                        <set attributeName="fill" to="#808080" begin="arrowRight.mouseover" end="arrowRight.mouseout"/>
                  </use>
                  <path fill="none" stroke="white" stroke-width="1.5" d="M0,-3.0v7 M-2.5,-0.5L0,-3.0L2.5,-0.5"/>
                </g>
                <g id="arrowDown" xlink:href="#dirArrow" transform="rotate(180) translate(-30 -48)" onmousedown="handlePan(0,1)">
                  <use xlink:href="#rim" fill="#404040">
                        <set attributeName="fill" to="#808080" begin="arrowDown.mouseover" end="arrowDown.mouseout"/>
                  </use>
                  <path fill="none" stroke="white" stroke-width="1.5" d="M0,-3.0v7 M-2.5,-0.5L0,-3.0L2.5,-0.5"/>
                </g>
                <g id="arrowLeft" xlink:href="#dirArrow" transform="rotate(270) translate(-36 17)" onmousedown="handlePan(-1,0)">
                  <use xlink:href="#rim" fill="#404040">
                        <set attributeName="fill" to="#808080" begin="arrowLeft.mouseover" end="arrowLeft.mouseout"/>
                  </use>
                  <path fill="none" stroke="white" stroke-width="1.5" d="M0,-3.0v7 M-2.5,-0.5L0,-3.0L2.5,-0.5"/>
                </g>
        </g>
        <svg viewBox="0 0 15 15" width="100%" height="30px" preserveAspectRatio="xMaxYMin meet">
         <g id="arrow_out" transform="scale(0.3 0.3)">
          <a xlink:href="main_8cpp__incl_org.svg" target="_base">
           <rect id="button" ry="5" rx="5" y="6" x="6" height="38" width="38"
                fill="#f2f5e9" fill-opacity="0.5" stroke="#606060" stroke-width="1.0"/>
           <path id="arrow"
             d="M 11.500037,31.436501 C 11.940474,20.09759 22.043105,11.32322 32.158766,21.979434 L 37.068811,17.246167 C 37.068811,17.246167 37.088388,32 37.088388,32 L 22.160133,31.978069 C 22.160133,31.978069 26.997745,27.140456 26.997745,27.140456 C 18.528582,18.264221 13.291696,25.230495 11.500037,31.436501 z"
             style="fill:#404040;"/>
          </a>
         </g>
        </svg>
</svg>
