<?xml version="1.0" encoding="UTF-8" standalone="no"?>
<!DOCTYPE svg PUBLIC "-//W3C//DTD SVG 1.1//EN"
 "http://www.w3.org/Graphics/SVG/1.1/DTD/svg11.dtd">
<!-- Generated by graphviz version 2.38.0 (20140413.2041)
 -->
<!-- Title: main.cpp Pages: 1 -->
<!--zoomable 599 -->
<svg id="main" version="1.1" xmlns="http://www.w3.org/2000/svg" xmlns:xlink="http://www.w3.org/1999/xlink" xml:space="preserve" onload="init(evt)">
<style type="text/css"><![CDATA[
.edge:hover path { stroke: red; }
.edge:hover polygon { stroke: red; fill: red; }
]]></style>
<script type="text/javascript"><![CDATA[
var edges = document.getElementsByTagName('g');
if (edges && edges.length) {
  for (var i=0;i<edges.length;i++) {
    if (edges[i].id.substr(0,4)=='edge') {
      edges[i].setAttribute('class','edge');
    }
  }
}
]]></script>
        <defs>
                <circle id="rim" cx="0" cy="0" r="7"/>
                <circle id="rim2" cx="0" cy="0" r="3.5"/>
                <g id="zoomPlus">
                        <use xlink:href="#rim" fill="#404040">
                                <set attributeName="fill" to="#808080" begin="zoomplus.mouseover" end="zoomplus.mouseout"/>
                        </use>
                        <path d="M-4,0h8M0,-4v8" fill="none" stroke="white" stroke-width="1.5" pointer-events="none"/>
                </g>
                <g id="zoomMin">
                        <use xlink:href="#rim" fill="#404040">
                                <set attributeName="fill" to="#808080" begin="zoomminus.mouseover" end="zoomminus.mouseout"/>
                        </use>
                        <path d="M-4,0h8" fill="none" stroke="white" stroke-width="1.5" pointer-events="none"/>
                </g>
                <g id="dirArrow">
                        <path fill="none" stroke="white" stroke-width="1.5" d="M0,-3.0v7 M-2.5,-0.5L0,-3.0L2.5,-0.5"/>
                </g>
               <g id="resetDef">
                       <use xlink:href="#rim2" fill="#404040">
                               <set attributeName="fill" to="#808080" begin="reset.mouseover" end="reset.mouseout"/>
                       </use>
               </g>
        </defs>

<script type="text/javascript">
var viewWidth = 1691;
var viewHeight = 599;
var sectionId = 'dynsection-0';
</script>
<script xlink:href="../../svgpan.js"/>
<svg id="graph" class="graph">
<g id="viewport">
<title>main.cpp</title>
<!-- Node1 -->
<g id="node1" class="node"><title>Node1</title>
<polygon fill="#bfbfbf" stroke="black" points="911.5,-571.5 911.5,-590.5 967.5,-590.5 967.5,-571.5 911.5,-571.5"/>
<text text-anchor="middle" x="939.5" y="-578.5" font-family="Helvetica,sans-Serif" font-size="10.00">main.cpp</text>
</g>
<!-- Node2 -->
<g id="node2" class="node"><title>Node2</title>
<g id="a_node2"><a xlink:href="../../de/df7/worldparticles_8hpp.html" target="_top" xlink:title="wordparticles configuration file ">
<polygon fill="none" stroke="black" points="842,-112.5 842,-131.5 937,-131.5 937,-112.5 842,-112.5"/>
<text text-anchor="middle" x="889.5" y="-119.5" font-family="Helvetica,sans-Serif" font-size="10.00">worldparticles.hpp</text>
</a>
</g>
</g>
<!-- Node1&#45;&gt;Node2 -->
<g id="edge1" class="edge"><title>Node1&#45;&gt;Node2</title>
<path fill="none" stroke="midnightblue" d="M927.892,-571.233C917.696,-562.949 903.173,-549.638 894.5,-535 879.158,-509.106 875.5,-500.098 875.5,-470 875.5,-470 875.5,-470 875.5,-233 875.5,-200.541 881.573,-163.121 885.719,-141.356"/>
<polygon fill="midnightblue" stroke="midnightblue" points="889.16,-142 887.67,-131.511 882.293,-140.64 889.16,-142"/>
</g>
<!-- Node3 -->
<g id="node3" class="node"><title>Node3</title>
<g id="a_node3"><a xlink:href="../../d9/d53/mainwindow_8h.html" target="_top" xlink:title="mainwindow.h">
<polygon fill="none" stroke="black" points="350,-515.5 350,-534.5 429,-534.5 429,-515.5 350,-515.5"/>
<text text-anchor="middle" x="389.5" y="-522.5" font-family="Helvetica,sans-Serif" font-size="10.00">mainwindow.h</text>
</a>
</g>
</g>
<!-- Node1&#45;&gt;Node3 -->
<g id="edge2" class="edge"><title>Node1&#45;&gt;Node3</title>
<path fill="none" stroke="midnightblue" d="M911.469,-577.248C823.48,-568.609 551.944,-541.949 439.281,-530.888"/>
<polygon fill="midnightblue" stroke="midnightblue" points="439.499,-527.392 429.205,-529.898 438.815,-534.359 439.499,-527.392"/>
</g>
<!-- Node39 -->
<g id="node39" class="node"><title>Node39</title>
<polygon fill="none" stroke="#bfbfbf" points="903.5,-515.5 903.5,-534.5 975.5,-534.5 975.5,-515.5 903.5,-515.5"/>
<text text-anchor="middle" x="939.5" y="-522.5" font-family="Helvetica,sans-Serif" font-size="10.00">QApplication</text>
</g>
<!-- Node1&#45;&gt;Node39 -->
<g id="edge59" class="edge"><title>Node1&#45;&gt;Node39</title>
<path fill="none" stroke="midnightblue" d="M939.5,-571.083C939.5,-564.006 939.5,-553.861 939.5,-544.986"/>
<polygon fill="midnightblue" stroke="midnightblue" points="943,-544.751 939.5,-534.751 936,-544.751 943,-544.751"/>
</g>
<!-- Node40 -->
<g id="node40" class="node"><title>Node40</title>
<polygon fill="none" stroke="#bfbfbf" points="994,-515.5 994,-534.5 1151,-534.5 1151,-515.5 994,-515.5"/>
<text text-anchor="middle" x="1072.5" y="-522.5" font-family="Helvetica,sans-Serif" font-size="10.00">log4cpp/PropertyConfigurator.hh</text>
</g>
<!-- Node1&#45;&gt;Node40 -->
<g id="edge60" class="edge"><title>Node1&#45;&gt;Node40</title>
<path fill="none" stroke="midnightblue" d="M960.574,-571.444C982.56,-562.517 1017.23,-548.439 1042.16,-538.317"/>
<polygon fill="midnightblue" stroke="midnightblue" points="1043.58,-541.521 1051.52,-534.516 1040.94,-535.035 1043.58,-541.521"/>
</g>
<!-- Node41 -->
<g id="node41" class="node"><title>Node41</title>
<polygon fill="none" stroke="#bfbfbf" points="1169,-515.5 1169,-534.5 1276,-534.5 1276,-515.5 1169,-515.5"/>
<text text-anchor="middle" x="1222.5" y="-522.5" font-family="Helvetica,sans-Serif" font-size="10.00">log4cpp/Category.hh</text>
</g>
<!-- Node1&#45;&gt;Node41 -->
<g id="edge61" class="edge"><title>Node1&#45;&gt;Node41</title>
<path fill="none" stroke="midnightblue" d="M967.67,-574.625C1014.19,-565.748 1107.88,-547.872 1167.77,-536.442"/>
<polygon fill="midnightblue" stroke="midnightblue" points="1168.65,-539.839 1177.81,-534.527 1167.34,-532.963 1168.65,-539.839"/>
</g>
<!-- Node4 -->
<g id="node4" class="node"><title>Node4</title>
<polygon fill="none" stroke="#bfbfbf" points="349.5,-459.5 349.5,-478.5 429.5,-478.5 429.5,-459.5 349.5,-459.5"/>
<text text-anchor="middle" x="389.5" y="-466.5" font-family="Helvetica,sans-Serif" font-size="10.00">QMainWindow</text>
</g>
<!-- Node3&#45;&gt;Node4 -->
<g id="edge3" class="edge"><title>Node3&#45;&gt;Node4</title>
<path fill="none" stroke="midnightblue" d="M389.5,-515.083C389.5,-508.006 389.5,-497.861 389.5,-488.986"/>
<polygon fill="midnightblue" stroke="midnightblue" points="393,-488.751 389.5,-478.751 386,-488.751 393,-488.751"/>
</g>
<!-- Node5 -->
<g id="node5" class="node"><title>Node5</title>
<g id="a_node5"><a xlink:href="../../d7/d42/toolwidget_8h.html" target="_top" xlink:title="window/toolwidget.h">
<polygon fill="none" stroke="black" points="174,-459.5 174,-478.5 279,-478.5 279,-459.5 174,-459.5"/>
<text text-anchor="middle" x="226.5" y="-466.5" font-family="Helvetica,sans-Serif" font-size="10.00">window/toolwidget.h</text>
</a>
</g>
</g>
<!-- Node3&#45;&gt;Node5 -->
<g id="edge4" class="edge"><title>Node3&#45;&gt;Node5</title>
<path fill="none" stroke="midnightblue" d="M363.672,-515.444C336.251,-506.359 292.723,-491.939 262.068,-481.783"/>
<polygon fill="midnightblue" stroke="midnightblue" points="262.8,-478.339 252.207,-478.516 260.599,-484.984 262.8,-478.339"/>
</g>
<!-- Node7 -->
<g id="node7" class="node"><title>Node7</title>
<g id="a_node7"><a xlink:href="../../dc/d51/model_8h.html" target="_top" xlink:title="model/model.h">
<polygon fill="none" stroke="black" points="186.5,-398 186.5,-417 266.5,-417 266.5,-398 186.5,-398"/>
<text text-anchor="middle" x="226.5" y="-405" font-family="Helvetica,sans-Serif" font-size="10.00">model/model.h</text>
</a>
</g>
</g>
<!-- Node3&#45;&gt;Node7 -->
<g id="edge14" class="edge"><title>Node3&#45;&gt;Node7</title>
<path fill="none" stroke="midnightblue" d="M377.249,-515.319C349.519,-495.67 281.692,-447.609 247.269,-423.217"/>
<polygon fill="midnightblue" stroke="midnightblue" points="249.077,-420.208 238.894,-417.282 245.029,-425.919 249.077,-420.208"/>
</g>
<!-- Node15 -->
<g id="node15" class="node"><title>Node15</title>
<g id="a_node15"><a xlink:href="../../d1/d2a/glwindow_8h.html" target="_top" xlink:title="window/glwindow.h">
<polygon fill="none" stroke="black" points="452,-459.5 452,-478.5 553,-478.5 553,-459.5 452,-459.5"/>
<text text-anchor="middle" x="502.5" y="-466.5" font-family="Helvetica,sans-Serif" font-size="10.00">window/glwindow.h</text>
</a>
</g>
</g>
<!-- Node3&#45;&gt;Node15 -->
<g id="edge15" class="edge"><title>Node3&#45;&gt;Node15</title>
<path fill="none" stroke="midnightblue" d="M407.405,-515.444C425.754,-506.675 454.505,-492.935 475.594,-482.858"/>
<polygon fill="midnightblue" stroke="midnightblue" points="477.165,-485.986 484.679,-478.516 474.147,-479.67 477.165,-485.986"/>
</g>
<!-- Node6 -->
<g id="node6" class="node"><title>Node6</title>
<polygon fill="none" stroke="#bfbfbf" points="97,-398 97,-417 168,-417 168,-398 97,-398"/>
<text text-anchor="middle" x="132.5" y="-405" font-family="Helvetica,sans-Serif" font-size="10.00">QTabWidget</text>
</g>
<!-- Node5&#45;&gt;Node6 -->
<g id="edge5" class="edge"><title>Node5&#45;&gt;Node6</title>
<path fill="none" stroke="midnightblue" d="M213.032,-459.475C197.815,-449.843 172.813,-434.017 154.699,-422.552"/>
<polygon fill="midnightblue" stroke="midnightblue" points="156.264,-419.4 145.943,-417.009 152.521,-425.315 156.264,-419.4"/>
</g>
<!-- Node5&#45;&gt;Node7 -->
<g id="edge6" class="edge"><title>Node5&#45;&gt;Node7</title>
<path fill="none" stroke="midnightblue" d="M226.5,-459.475C226.5,-451.08 226.5,-437.981 226.5,-427.163"/>
<polygon fill="midnightblue" stroke="midnightblue" points="230,-427.009 226.5,-417.009 223,-427.009 230,-427.009"/>
</g>
<!-- Node8 -->
<g id="node8" class="node"><title>Node8</title>
<g id="a_node8"><a xlink:href="../../d5/da5/tools_8h.html" target="_top" xlink:title="tools.h">
<polygon fill="none" stroke="black" points="203.5,-336.5 203.5,-355.5 249.5,-355.5 249.5,-336.5 203.5,-336.5"/>
<text text-anchor="middle" x="226.5" y="-343.5" font-family="Helvetica,sans-Serif" font-size="10.00">tools.h</text>
</a>
</g>
</g>
<!-- Node7&#45;&gt;Node8 -->
<g id="edge7" class="edge"><title>Node7&#45;&gt;Node8</title>
<path fill="none" stroke="midnightblue" d="M226.5,-397.975C226.5,-389.58 226.5,-376.481 226.5,-365.663"/>
<polygon fill="midnightblue" stroke="midnightblue" points="230,-365.509 226.5,-355.509 223,-365.509 230,-365.509"/>
</g>
<!-- Node9 -->
<g id="node9" class="node"><title>Node9</title>
<polygon fill="none" stroke="#bfbfbf" points="235.5,-280.5 235.5,-299.5 285.5,-299.5 285.5,-280.5 235.5,-280.5"/>
<text text-anchor="middle" x="260.5" y="-287.5" font-family="Helvetica,sans-Serif" font-size="10.00">QString</text>
</g>
<!-- Node8&#45;&gt;Node9 -->
<g id="edge8" class="edge"><title>Node8&#45;&gt;Node9</title>
<path fill="none" stroke="midnightblue" d="M232.114,-336.083C236.867,-328.534 243.818,-317.495 249.652,-308.23"/>
<polygon fill="midnightblue" stroke="midnightblue" points="252.624,-310.078 254.99,-299.751 246.7,-306.349 252.624,-310.078"/>
</g>
<!-- Node10 -->
<g id="node10" class="node"><title>Node10</title>
<polygon fill="none" stroke="#bfbfbf" points="304,-280.5 304,-299.5 369,-299.5 369,-280.5 304,-280.5"/>
<text text-anchor="middle" x="336.5" y="-287.5" font-family="Helvetica,sans-Serif" font-size="10.00">QVector3D</text>
</g>
<!-- Node8&#45;&gt;Node10 -->
<g id="edge9" class="edge"><title>Node8&#45;&gt;Node10</title>
<path fill="none" stroke="midnightblue" d="M244.173,-336.324C261.894,-327.625 289.403,-314.12 309.788,-304.113"/>
<polygon fill="midnightblue" stroke="midnightblue" points="311.436,-307.203 318.87,-299.655 308.351,-300.919 311.436,-307.203"/>
</g>
<!-- Node11 -->
<g id="node11" class="node"><title>Node11</title>
<polygon fill="none" stroke="#bfbfbf" points="387.5,-280.5 387.5,-299.5 427.5,-299.5 427.5,-280.5 387.5,-280.5"/>
<text text-anchor="middle" x="407.5" y="-287.5" font-family="Helvetica,sans-Serif" font-size="10.00">QList</text>
</g>
<!-- Node8&#45;&gt;Node11 -->
<g id="edge10" class="edge"><title>Node8&#45;&gt;Node11</title>
<path fill="none" stroke="midnightblue" d="M249.528,-338.152C279.141,-329.341 332.16,-313.557 377.5,-300 377.601,-299.97 377.702,-299.94 377.803,-299.909"/>
<polygon fill="midnightblue" stroke="midnightblue" points="378.916,-303.23 387.491,-297.008 376.908,-296.524 378.916,-303.23"/>
</g>
<!-- Node12 -->
<g id="node12" class="node"><title>Node12</title>
<polygon fill="none" stroke="#bfbfbf" points="0,-280.5 0,-299.5 43,-299.5 43,-280.5 0,-280.5"/>
<text text-anchor="middle" x="21.5" y="-287.5" font-family="Helvetica,sans-Serif" font-size="10.00">QMap</text>
</g>
<!-- Node8&#45;&gt;Node12 -->
<g id="edge11" class="edge"><title>Node8&#45;&gt;Node12</title>
<path fill="none" stroke="midnightblue" d="M203.49,-339.393C171.726,-331.586 112.433,-316.776 53.0194,-300.349"/>
<polygon fill="midnightblue" stroke="midnightblue" points="53.6724,-296.898 43.1003,-297.592 51.7975,-303.642 53.6724,-296.898"/>
</g>
<!-- Node13 -->
<g id="node13" class="node"><title>Node13</title>
<polygon fill="none" stroke="#bfbfbf" points="61,-280.5 61,-299.5 152,-299.5 152,-280.5 61,-280.5"/>
<text text-anchor="middle" x="106.5" y="-287.5" font-family="Helvetica,sans-Serif" font-size="10.00">QGraphicsScene</text>
</g>
<!-- Node8&#45;&gt;Node13 -->
<g id="edge12" class="edge"><title>Node8&#45;&gt;Node13</title>
<path fill="none" stroke="midnightblue" d="M207.486,-336.444C187.912,-327.636 157.192,-313.812 134.771,-303.722"/>
<polygon fill="midnightblue" stroke="midnightblue" points="135.981,-300.428 125.425,-299.516 133.108,-306.812 135.981,-300.428"/>
</g>
<!-- Node14 -->
<g id="node14" class="node"><title>Node14</title>
<polygon fill="none" stroke="#bfbfbf" points="170,-280.5 170,-299.5 217,-299.5 217,-280.5 170,-280.5"/>
<text text-anchor="middle" x="193.5" y="-287.5" font-family="Helvetica,sans-Serif" font-size="10.00">math.h</text>
</g>
<!-- Node8&#45;&gt;Node14 -->
<g id="edge13" class="edge"><title>Node8&#45;&gt;Node14</title>
<path fill="none" stroke="midnightblue" d="M221.051,-336.083C216.486,-328.613 209.832,-317.724 204.207,-308.52"/>
<polygon fill="midnightblue" stroke="midnightblue" points="207.049,-306.459 198.848,-299.751 201.076,-310.109 207.049,-306.459"/>
</g>
<!-- Node15&#45;&gt;Node7 -->
<g id="edge58" class="edge"><title>Node15&#45;&gt;Node7</title>
<path fill="none" stroke="midnightblue" d="M452.614,-459.474C406.426,-451.258 335.964,-437.906 275.5,-423 271.59,-422.036 267.526,-420.958 263.486,-419.837"/>
<polygon fill="midnightblue" stroke="midnightblue" points="264.17,-416.392 253.593,-417.001 262.241,-423.121 264.17,-416.392"/>
</g>
<!-- Node16 -->
<g id="node16" class="node"><title>Node16</title>
<polygon fill="none" stroke="#bfbfbf" points="395,-398 395,-417 454,-417 454,-398 395,-398"/>
<text text-anchor="middle" x="424.5" y="-405" font-family="Helvetica,sans-Serif" font-size="10.00">QWindow</text>
</g>
<!-- Node15&#45;&gt;Node16 -->
<g id="edge16" class="edge"><title>Node15&#45;&gt;Node16</title>
<path fill="none" stroke="midnightblue" d="M491.325,-459.475C478.929,-450.02 458.71,-434.596 443.754,-423.187"/>
<polygon fill="midnightblue" stroke="midnightblue" points="445.728,-420.291 435.655,-417.009 441.483,-425.857 445.728,-420.291"/>
</g>
<!-- Node17 -->
<g id="node17" class="node"><title>Node17</title>
<polygon fill="none" stroke="#bfbfbf" points="472,-398 472,-417 567,-417 567,-398 472,-398"/>
<text text-anchor="middle" x="519.5" y="-405" font-family="Helvetica,sans-Serif" font-size="10.00">QOpenGLContext</text>
</g>
<!-- Node15&#45;&gt;Node17 -->
<g id="edge17" class="edge"><title>Node15&#45;&gt;Node17</title>
<path fill="none" stroke="midnightblue" d="M504.936,-459.475C507.359,-450.992 511.156,-437.704 514.265,-426.822"/>
<polygon fill="midnightblue" stroke="midnightblue" points="517.687,-427.586 517.069,-417.009 510.956,-425.663 517.687,-427.586"/>
</g>
<!-- Node18 -->
<g id="node18" class="node"><title>Node18</title>
<polygon fill="none" stroke="#bfbfbf" points="585,-392.5 585,-422.5 698,-422.5 698,-392.5 585,-392.5"/>
<text text-anchor="start" x="593" y="-410.5" font-family="Helvetica,sans-Serif" font-size="10.00">QOpenGLFunctions_4</text>
<text text-anchor="middle" x="641.5" y="-399.5" font-family="Helvetica,sans-Serif" font-size="10.00">_2_Core</text>
</g>
<!-- Node15&#45;&gt;Node18 -->
<g id="edge18" class="edge"><title>Node15&#45;&gt;Node18</title>
<path fill="none" stroke="midnightblue" d="M522.415,-459.475C542.385,-450.927 573.75,-437.501 599.278,-426.573"/>
<polygon fill="midnightblue" stroke="midnightblue" points="600.925,-429.676 608.74,-422.523 598.17,-423.241 600.925,-429.676"/>
</g>
<!-- Node19 -->
<g id="node19" class="node"><title>Node19</title>
<polygon fill="none" stroke="#bfbfbf" points="716,-398 716,-417 783,-417 783,-398 716,-398"/>
<text text-anchor="middle" x="749.5" y="-405" font-family="Helvetica,sans-Serif" font-size="10.00">QKeyEvent</text>
</g>
<!-- Node15&#45;&gt;Node19 -->
<g id="edge19" class="edge"><title>Node15&#45;&gt;Node19</title>
<path fill="none" stroke="midnightblue" d="M547.817,-459.466C589.387,-451.292 652.513,-438.009 706.5,-423 709.515,-422.162 712.629,-421.235 715.74,-420.266"/>
<polygon fill="midnightblue" stroke="midnightblue" points="717.101,-423.504 725.535,-417.092 714.943,-416.845 717.101,-423.504"/>
</g>
<!-- Node20 -->
<g id="node20" class="node"><title>Node20</title>
<polygon fill="none" stroke="#bfbfbf" points="801.5,-398 801.5,-417 847.5,-417 847.5,-398 801.5,-398"/>
<text text-anchor="middle" x="824.5" y="-405" font-family="Helvetica,sans-Serif" font-size="10.00">QTime</text>
</g>
<!-- Node15&#45;&gt;Node20 -->
<g id="edge20" class="edge"><title>Node15&#45;&gt;Node20</title>
<path fill="none" stroke="midnightblue" d="M553.226,-464.112C611.625,-458.72 709.981,-446.815 791.5,-423 793.647,-422.373 795.839,-421.638 798.019,-420.838"/>
<polygon fill="midnightblue" stroke="midnightblue" points="799.403,-424.053 807.347,-417.043 796.765,-417.569 799.403,-424.053"/>
</g>
<!-- Node21 -->
<g id="node21" class="node"><title>Node21</title>
<g id="a_node21"><a xlink:href="../../d4/d1c/GameEngine_8hpp.html" target="_top" xlink:title="GameEngine.hpp">
<polygon fill="none" stroke="black" points="284.5,-398 284.5,-417 376.5,-417 376.5,-398 284.5,-398"/>
<text text-anchor="middle" x="330.5" y="-405" font-family="Helvetica,sans-Serif" font-size="10.00">GameEngine.hpp</text>
</a>
</g>
</g>
<!-- Node15&#45;&gt;Node21 -->
<g id="edge21" class="edge"><title>Node15&#45;&gt;Node21</title>
<path fill="none" stroke="midnightblue" d="M477.857,-459.475C448.225,-449.225 398.315,-431.959 364.898,-420.399"/>
<polygon fill="midnightblue" stroke="midnightblue" points="365.692,-416.971 355.098,-417.009 363.404,-423.586 365.692,-416.971"/>
</g>
<!-- Node21&#45;&gt;Node2 -->
<g id="edge22" class="edge"><title>Node21&#45;&gt;Node2</title>
<path fill="none" stroke="midnightblue" d="M362.069,-397.931C439.675,-376.422 633.5,-319.817 633.5,-291 633.5,-291 633.5,-291 633.5,-233 633.5,-147.298 756.11,-127.534 831.623,-123.488"/>
<polygon fill="midnightblue" stroke="midnightblue" points="832.119,-126.969 841.948,-123.016 831.799,-119.976 832.119,-126.969"/>
</g>
<!-- Node22 -->
<g id="node22" class="node"><title>Node22</title>
<g id="a_node22"><a xlink:href="../../db/de8/Scene_8hpp.html" target="_top" xlink:title="Scene.hpp">
<polygon fill="none" stroke="black" points="1004,-336.5 1004,-355.5 1067,-355.5 1067,-336.5 1004,-336.5"/>
<text text-anchor="middle" x="1035.5" y="-343.5" font-family="Helvetica,sans-Serif" font-size="10.00">Scene.hpp</text>
</a>
</g>
</g>
<!-- Node21&#45;&gt;Node22 -->
<g id="edge23" class="edge"><title>Node21&#45;&gt;Node22</title>
<path fill="none" stroke="midnightblue" d="M358.825,-397.941C367.33,-395.668 376.731,-393.446 385.5,-392 612.908,-354.497 890.079,-348.186 993.744,-347.172"/>
<polygon fill="midnightblue" stroke="midnightblue" points="993.832,-350.671 1003.8,-347.085 993.772,-343.671 993.832,-350.671"/>
</g>
<!-- Node23 -->
<g id="node23" class="node"><title>Node23</title>
<polygon fill="none" stroke="#bfbfbf" points="996.5,-56.5 996.5,-75.5 1048.5,-75.5 1048.5,-56.5 996.5,-56.5"/>
<text text-anchor="middle" x="1022.5" y="-63.5" font-family="Helvetica,sans-Serif" font-size="10.00">memory</text>
</g>
<!-- Node22&#45;&gt;Node23 -->
<g id="edge24" class="edge"><title>Node22&#45;&gt;Node23</title>
<path fill="none" stroke="midnightblue" d="M1016.92,-336.37C954.555,-306.281 760.617,-202.897 832.5,-112 851.297,-88.2316 936.507,-75.714 986.2,-70.3252"/>
<polygon fill="midnightblue" stroke="midnightblue" points="986.644,-73.7979 996.228,-69.2819 985.92,-66.8355 986.644,-73.7979"/>
</g>
<!-- Node24 -->
<g id="node24" class="node"><title>Node24</title>
<polygon fill="none" stroke="#bfbfbf" points="1051,-280.5 1051,-299.5 1080,-299.5 1080,-280.5 1051,-280.5"/>
<text text-anchor="middle" x="1065.5" y="-287.5" font-family="Helvetica,sans-Serif" font-size="10.00">list</text>
</g>
<!-- Node22&#45;&gt;Node24 -->
<g id="edge25" class="edge"><title>Node22&#45;&gt;Node24</title>
<path fill="none" stroke="midnightblue" d="M1040.45,-336.083C1044.6,-328.613 1050.65,-317.724 1055.77,-308.52"/>
<polygon fill="midnightblue" stroke="midnightblue" points="1058.84,-310.192 1060.64,-299.751 1052.72,-306.793 1058.84,-310.192"/>
</g>
<!-- Node25 -->
<g id="node25" class="node"><title>Node25</title>
<g id="a_node25"><a xlink:href="../../d4/db5/GameObject_8hpp.html" target="_top" xlink:title="GameObject.hpp">
<polygon fill="none" stroke="black" points="1114.5,-224.5 1114.5,-243.5 1204.5,-243.5 1204.5,-224.5 1114.5,-224.5"/>
<text text-anchor="middle" x="1159.5" y="-231.5" font-family="Helvetica,sans-Serif" font-size="10.00">GameObject.hpp</text>
</a>
</g>
</g>
<!-- Node22&#45;&gt;Node25 -->
<g id="edge26" class="edge"><title>Node22&#45;&gt;Node25</title>
<path fill="none" stroke="midnightblue" d="M1045.76,-336.485C1056.5,-327.518 1073.83,-312.932 1088.5,-300 1107.36,-283.369 1128.58,-263.833 1142.87,-250.552"/>
<polygon fill="midnightblue" stroke="midnightblue" points="1145.48,-252.903 1150.41,-243.525 1140.71,-247.781 1145.48,-252.903"/>
</g>
<!-- Node37 -->
<g id="node37" class="node"><title>Node37</title>
<g id="a_node37"><a xlink:href="../../d6/d80/Camera_8hpp.html" target="_top" xlink:title="Camera.hpp">
<polygon fill="none" stroke="black" points="1302.5,-280.5 1302.5,-299.5 1372.5,-299.5 1372.5,-280.5 1302.5,-280.5"/>
<text text-anchor="middle" x="1337.5" y="-287.5" font-family="Helvetica,sans-Serif" font-size="10.00">Camera.hpp</text>
</a>
</g>
</g>
<!-- Node22&#45;&gt;Node37 -->
<g id="edge53" class="edge"><title>Node22&#45;&gt;Node37</title>
<path fill="none" stroke="midnightblue" d="M1067.25,-339.323C1121.19,-329.678 1230.86,-310.068 1292.63,-299.024"/>
<polygon fill="midnightblue" stroke="midnightblue" points="1293.25,-302.468 1302.48,-297.262 1292.02,-295.577 1293.25,-302.468"/>
</g>
<!-- Node38 -->
<g id="node38" class="node"><title>Node38</title>
<g id="a_node38"><a xlink:href="../../d5/dd5/Light_8hpp.html" target="_top" xlink:title="Light.hpp">
<polygon fill="none" stroke="black" points="977.5,-280.5 977.5,-299.5 1033.5,-299.5 1033.5,-280.5 977.5,-280.5"/>
<text text-anchor="middle" x="1005.5" y="-287.5" font-family="Helvetica,sans-Serif" font-size="10.00">Light.hpp</text>
</a>
</g>
</g>
<!-- Node22&#45;&gt;Node38 -->
<g id="edge57" class="edge"><title>Node22&#45;&gt;Node38</title>
<path fill="none" stroke="midnightblue" d="M1030.55,-336.083C1026.4,-328.613 1020.35,-317.724 1015.23,-308.52"/>
<polygon fill="midnightblue" stroke="midnightblue" points="1018.28,-306.793 1010.36,-299.751 1012.16,-310.192 1018.28,-306.793"/>
</g>
<!-- Node25&#45;&gt;Node2 -->
<g id="edge29" class="edge"><title>Node25&#45;&gt;Node2</title>
<path fill="none" stroke="midnightblue" d="M1114.2,-230.853C1070.14,-227.066 1002.58,-216.641 951.5,-188 930.548,-176.252 912.363,-155.109 901.201,-140.131"/>
<polygon fill="midnightblue" stroke="midnightblue" points="903.863,-137.835 895.197,-131.74 898.17,-141.909 903.863,-137.835"/>
</g>
<!-- Node25&#45;&gt;Node23 -->
<g id="edge28" class="edge"><title>Node25&#45;&gt;Node23</title>
<path fill="none" stroke="midnightblue" d="M1114.41,-226.199C1072.99,-218.919 1016.02,-205.945 1002.5,-188 979.421,-157.377 998.712,-109.957 1012.18,-84.5287"/>
<polygon fill="midnightblue" stroke="midnightblue" points="1015.31,-86.0947 1017.12,-75.6555 1009.2,-82.688 1015.31,-86.0947"/>
</g>
<!-- Node26 -->
<g id="node26" class="node"><title>Node26</title>
<polygon fill="none" stroke="#bfbfbf" points="1441.5,-56.5 1441.5,-75.5 1511.5,-75.5 1511.5,-56.5 1441.5,-56.5"/>
<text text-anchor="middle" x="1476.5" y="-63.5" font-family="Helvetica,sans-Serif" font-size="10.00">glm/glm.hpp</text>
</g>
<!-- Node25&#45;&gt;Node26 -->
<g id="edge27" class="edge"><title>Node25&#45;&gt;Node26</title>
<path fill="none" stroke="midnightblue" d="M1204.79,-228.746C1300.67,-218.674 1518.79,-189.767 1560.5,-132 1576.94,-109.234 1544.1,-90.5525 1514.79,-79.1518"/>
<polygon fill="midnightblue" stroke="midnightblue" points="1515.65,-75.7406 1505.06,-75.5692 1513.23,-82.3094 1515.65,-75.7406"/>
</g>
<!-- Node27 -->
<g id="node27" class="node"><title>Node27</title>
<g id="a_node27"><a xlink:href="../../da/d83/Transform_8hpp.html" target="_top" xlink:title="Transform.hpp">
<polygon fill="none" stroke="black" points="1584.5,-168.5 1584.5,-187.5 1664.5,-187.5 1664.5,-168.5 1584.5,-168.5"/>
<text text-anchor="middle" x="1624.5" y="-175.5" font-family="Helvetica,sans-Serif" font-size="10.00">Transform.hpp</text>
</a>
</g>
</g>
<!-- Node25&#45;&gt;Node27 -->
<g id="edge30" class="edge"><title>Node25&#45;&gt;Node27</title>
<path fill="none" stroke="midnightblue" d="M1204.61,-228.896C1280.36,-221.817 1437.89,-206.296 1570.5,-188 1571.77,-187.825 1573.06,-187.643 1574.36,-187.455"/>
<polygon fill="midnightblue" stroke="midnightblue" points="1575.07,-190.888 1584.43,-185.935 1574.02,-183.966 1575.07,-190.888"/>
</g>
<!-- Node28 -->
<g id="node28" class="node"><title>Node28</title>
<g id="a_node28"><a xlink:href="../../d1/dca/IRenderer_8hpp.html" target="_top" xlink:title="IRenderer.hpp">
<polygon fill="none" stroke="black" points="1011.5,-168.5 1011.5,-187.5 1089.5,-187.5 1089.5,-168.5 1011.5,-168.5"/>
<text text-anchor="middle" x="1050.5" y="-175.5" font-family="Helvetica,sans-Serif" font-size="10.00">IRenderer.hpp</text>
</a>
</g>
</g>
<!-- Node25&#45;&gt;Node28 -->
<g id="edge32" class="edge"><title>Node25&#45;&gt;Node28</title>
<path fill="none" stroke="midnightblue" d="M1141.99,-224.324C1124.43,-215.625 1097.17,-202.12 1076.97,-192.113"/>
<polygon fill="midnightblue" stroke="midnightblue" points="1078.48,-188.958 1067.97,-187.655 1075.38,-195.23 1078.48,-188.958"/>
</g>
<!-- Node29 -->
<g id="node29" class="node"><title>Node29</title>
<g id="a_node29"><a xlink:href="../../d0/d70/Material_8hpp.html" target="_top" xlink:title="Material.hpp">
<polygon fill="none" stroke="black" points="1124.5,-168.5 1124.5,-187.5 1194.5,-187.5 1194.5,-168.5 1124.5,-168.5"/>
<text text-anchor="middle" x="1159.5" y="-175.5" font-family="Helvetica,sans-Serif" font-size="10.00">Material.hpp</text>
</a>
</g>
</g>
<!-- Node25&#45;&gt;Node29 -->
<g id="edge36" class="edge"><title>Node25&#45;&gt;Node29</title>
<path fill="none" stroke="midnightblue" d="M1159.5,-224.083C1159.5,-217.006 1159.5,-206.861 1159.5,-197.986"/>
<polygon fill="midnightblue" stroke="midnightblue" points="1163,-197.751 1159.5,-187.751 1156,-197.751 1163,-197.751"/>
</g>
<!-- Node34 -->
<g id="node34" class="node"><title>Node34</title>
<g id="a_node34"><a xlink:href="../../d1/d62/Mesh_8hpp.html" target="_top" xlink:title="Mesh.hpp">
<polygon fill="none" stroke="black" points="1323,-168.5 1323,-187.5 1382,-187.5 1382,-168.5 1323,-168.5"/>
<text text-anchor="middle" x="1352.5" y="-175.5" font-family="Helvetica,sans-Serif" font-size="10.00">Mesh.hpp</text>
</a>
</g>
</g>
<!-- Node25&#45;&gt;Node34 -->
<g id="edge45" class="edge"><title>Node25&#45;&gt;Node34</title>
<path fill="none" stroke="midnightblue" d="M1190.08,-224.444C1223.31,-215.147 1276.51,-200.262 1312.91,-190.078"/>
<polygon fill="midnightblue" stroke="midnightblue" points="1314.01,-193.404 1322.7,-187.339 1312.12,-186.663 1314.01,-193.404"/>
</g>
<!-- Node27&#45;&gt;Node26 -->
<g id="edge31" class="edge"><title>Node27&#45;&gt;Node26</title>
<path fill="none" stroke="midnightblue" d="M1625.96,-168.279C1627.72,-154.615 1628.97,-128.064 1615.5,-112 1592.59,-84.6681 1552.91,-73.7849 1521.8,-69.5268"/>
<polygon fill="midnightblue" stroke="midnightblue" points="1521.96,-66.0209 1511.61,-68.3226 1521.13,-72.9725 1521.96,-66.0209"/>
</g>
<!-- Node28&#45;&gt;Node2 -->
<g id="edge35" class="edge"><title>Node28&#45;&gt;Node2</title>
<path fill="none" stroke="midnightblue" d="M1024.99,-168.444C997.904,-159.359 954.91,-144.939 924.631,-134.783"/>
<polygon fill="midnightblue" stroke="midnightblue" points="925.486,-131.378 914.892,-131.516 923.26,-138.015 925.486,-131.378"/>
</g>
<!-- Node28&#45;&gt;Node23 -->
<g id="edge34" class="edge"><title>Node28&#45;&gt;Node23</title>
<path fill="none" stroke="midnightblue" d="M1044.83,-168.462C1039.34,-159.712 1031.31,-145.512 1027.5,-132 1023.23,-116.834 1022.12,-98.9396 1022,-85.7699"/>
<polygon fill="midnightblue" stroke="midnightblue" points="1025.51,-85.6324 1022.1,-75.6001 1018.51,-85.5669 1025.51,-85.6324"/>
</g>
<!-- Node28&#45;&gt;Node26 -->
<g id="edge33" class="edge"><title>Node28&#45;&gt;Node26</title>
<path fill="none" stroke="midnightblue" d="M1085.66,-168.42C1119.99,-159.86 1173.62,-146 1219.5,-132 1245.58,-124.042 1251.27,-119.463 1277.5,-112 1329.79,-97.1201 1390.92,-83.9062 1431.48,-75.7099"/>
<polygon fill="midnightblue" stroke="midnightblue" points="1432.22,-79.1322 1441.34,-73.7362 1430.84,-72.2686 1432.22,-79.1322"/>
</g>
<!-- Node29&#45;&gt;Node23 -->
<g id="edge38" class="edge"><title>Node29&#45;&gt;Node23</title>
<path fill="none" stroke="midnightblue" d="M1132.13,-168.368C1112.06,-161.041 1085.01,-148.991 1065.5,-132 1050.39,-118.844 1038.38,-99.163 1030.93,-84.9053"/>
<polygon fill="midnightblue" stroke="midnightblue" points="1033.92,-83.0534 1026.34,-75.653 1027.65,-86.1663 1033.92,-83.0534"/>
</g>
<!-- Node29&#45;&gt;Node26 -->
<g id="edge37" class="edge"><title>Node29&#45;&gt;Node26</title>
<path fill="none" stroke="midnightblue" d="M1181.48,-168.445C1214.52,-155.672 1279.03,-131.079 1334.5,-112 1369.5,-99.9618 1409.75,-87.3185 1438.44,-78.5095"/>
<polygon fill="midnightblue" stroke="midnightblue" points="1439.54,-81.8334 1448.08,-75.5609 1437.49,-75.1396 1439.54,-81.8334"/>
</g>
<!-- Node30 -->
<g id="node30" class="node"><title>Node30</title>
<g id="a_node30"><a xlink:href="../../dc/ddb/ShaderProgram_8hpp.html" target="_top" xlink:title="ShaderProgram.hpp">
<polygon fill="none" stroke="black" points="1108,-112.5 1108,-131.5 1211,-131.5 1211,-112.5 1108,-112.5"/>
<text text-anchor="middle" x="1159.5" y="-119.5" font-family="Helvetica,sans-Serif" font-size="10.00">ShaderProgram.hpp</text>
</a>
</g>
</g>
<!-- Node29&#45;&gt;Node30 -->
<g id="edge39" class="edge"><title>Node29&#45;&gt;Node30</title>
<path fill="none" stroke="midnightblue" d="M1159.5,-168.083C1159.5,-161.006 1159.5,-150.861 1159.5,-141.986"/>
<polygon fill="midnightblue" stroke="midnightblue" points="1163,-141.751 1159.5,-131.751 1156,-141.751 1163,-141.751"/>
</g>
<!-- Node30&#45;&gt;Node23 -->
<g id="edge42" class="edge"><title>Node30&#45;&gt;Node23</title>
<path fill="none" stroke="midnightblue" d="M1137.79,-112.444C1115.15,-103.517 1079.43,-89.4387 1053.75,-79.3168"/>
<polygon fill="midnightblue" stroke="midnightblue" points="1054.69,-75.9273 1044.11,-75.5164 1052.13,-82.4397 1054.69,-75.9273"/>
</g>
<!-- Node30&#45;&gt;Node26 -->
<g id="edge40" class="edge"><title>Node30&#45;&gt;Node26</title>
<path fill="none" stroke="midnightblue" d="M1209.73,-112.444C1270.67,-102.063 1372.5,-84.7161 1431.15,-74.7253"/>
<polygon fill="midnightblue" stroke="midnightblue" points="1431.96,-78.1381 1441.23,-73.0084 1430.78,-71.2375 1431.96,-78.1381"/>
</g>
<!-- Node31 -->
<g id="node31" class="node"><title>Node31</title>
<polygon fill="none" stroke="#bfbfbf" points="1293.5,-56.5 1293.5,-75.5 1337.5,-75.5 1337.5,-56.5 1293.5,-56.5"/>
<text text-anchor="middle" x="1315.5" y="-63.5" font-family="Helvetica,sans-Serif" font-size="10.00">vector</text>
</g>
<!-- Node30&#45;&gt;Node31 -->
<g id="edge41" class="edge"><title>Node30&#45;&gt;Node31</title>
<path fill="none" stroke="midnightblue" d="M1184.22,-112.444C1211.12,-103.133 1254.21,-88.2163 1283.63,-78.0315"/>
<polygon fill="midnightblue" stroke="midnightblue" points="1285.11,-81.222 1293.42,-74.6433 1282.82,-74.607 1285.11,-81.222"/>
</g>
<!-- Node32 -->
<g id="node32" class="node"><title>Node32</title>
<g id="a_node32"><a xlink:href="../../d4/d6e/Shader_8hpp.html" target="_top" xlink:title="Shader.hpp">
<polygon fill="none" stroke="black" points="1126.5,-56.5 1126.5,-75.5 1192.5,-75.5 1192.5,-56.5 1126.5,-56.5"/>
<text text-anchor="middle" x="1159.5" y="-63.5" font-family="Helvetica,sans-Serif" font-size="10.00">Shader.hpp</text>
</a>
</g>
</g>
<!-- Node30&#45;&gt;Node32 -->
<g id="edge43" class="edge"><title>Node30&#45;&gt;Node32</title>
<path fill="none" stroke="midnightblue" d="M1159.5,-112.083C1159.5,-105.006 1159.5,-94.8611 1159.5,-85.9865"/>
<polygon fill="midnightblue" stroke="midnightblue" points="1163,-85.751 1159.5,-75.7511 1156,-85.7511 1163,-85.751"/>
</g>
<!-- Node33 -->
<g id="node33" class="node"><title>Node33</title>
<polygon fill="none" stroke="#bfbfbf" points="1139,-0.5 1139,-19.5 1180,-19.5 1180,-0.5 1139,-0.5"/>
<text text-anchor="middle" x="1159.5" y="-7.5" font-family="Helvetica,sans-Serif" font-size="10.00">string</text>
</g>
<!-- Node32&#45;&gt;Node33 -->
<g id="edge44" class="edge"><title>Node32&#45;&gt;Node33</title>
<path fill="none" stroke="midnightblue" d="M1159.5,-56.083C1159.5,-49.0059 1159.5,-38.8611 1159.5,-29.9865"/>
<polygon fill="midnightblue" stroke="midnightblue" points="1163,-29.751 1159.5,-19.7511 1156,-29.7511 1163,-29.751"/>
</g>
<!-- Node34&#45;&gt;Node23 -->
<g id="edge47" class="edge"><title>Node34&#45;&gt;Node23</title>
<path fill="none" stroke="midnightblue" d="M1322.81,-176.729C1273.77,-175.218 1173.81,-167.589 1098.5,-132 1073.86,-120.359 1050.87,-98.5625 1036.77,-83.4371"/>
<polygon fill="midnightblue" stroke="midnightblue" points="1039.19,-80.9005 1029.89,-75.8272 1034,-85.5935 1039.19,-80.9005"/>
</g>
<!-- Node34&#45;&gt;Node26 -->
<g id="edge48" class="edge"><title>Node34&#45;&gt;Node26</title>
<path fill="none" stroke="midnightblue" d="M1382.1,-174.461C1430.83,-169.6 1524.56,-157.152 1544.5,-132 1560.24,-112.141 1531.92,-92.4744 1507.16,-80.064"/>
<polygon fill="midnightblue" stroke="midnightblue" points="1508.48,-76.8161 1497.95,-75.6775 1505.47,-83.1364 1508.48,-76.8161"/>
</g>
<!-- Node34&#45;&gt;Node31 -->
<g id="edge46" class="edge"><title>Node34&#45;&gt;Node31</title>
<path fill="none" stroke="midnightblue" d="M1348.8,-168.466C1344.98,-159.483 1338.95,-144.885 1334.5,-132 1329.16,-116.546 1324.02,-98.7011 1320.43,-85.6234"/>
<polygon fill="midnightblue" stroke="midnightblue" points="1323.8,-84.6606 1317.81,-75.9164 1317.04,-86.4827 1323.8,-84.6606"/>
</g>
<!-- Node35 -->
<g id="node35" class="node"><title>Node35</title>
<polygon fill="none" stroke="#bfbfbf" points="1452,-112.5 1452,-131.5 1535,-131.5 1535,-112.5 1452,-112.5"/>
<text text-anchor="middle" x="1493.5" y="-119.5" font-family="Helvetica,sans-Serif" font-size="10.00">assimp/mesh.h</text>
</g>
<!-- Node34&#45;&gt;Node35 -->
<g id="edge49" class="edge"><title>Node34&#45;&gt;Node35</title>
<path fill="none" stroke="midnightblue" d="M1374.84,-168.444C1398.25,-159.478 1435.24,-145.314 1461.69,-135.183"/>
<polygon fill="midnightblue" stroke="midnightblue" points="1463.18,-138.361 1471.26,-131.516 1460.67,-131.824 1463.18,-138.361"/>
</g>
<!-- Node36 -->
<g id="node36" class="node"><title>Node36</title>
<g id="a_node36"><a xlink:href="../../da/d04/BufferObject_8hpp.html" target="_top" xlink:title="BufferObject.hpp">
<polygon fill="none" stroke="black" points="1343.5,-112.5 1343.5,-131.5 1433.5,-131.5 1433.5,-112.5 1343.5,-112.5"/>
<text text-anchor="middle" x="1388.5" y="-119.5" font-family="Helvetica,sans-Serif" font-size="10.00">BufferObject.hpp</text>
</a>
</g>
</g>
<!-- Node34&#45;&gt;Node36 -->
<g id="edge50" class="edge"><title>Node34&#45;&gt;Node36</title>
<path fill="none" stroke="midnightblue" d="M1358.44,-168.083C1363.48,-160.534 1370.84,-149.495 1377.01,-140.23"/>
<polygon fill="midnightblue" stroke="midnightblue" points="1380.03,-142.013 1382.67,-131.751 1374.21,-138.13 1380.03,-142.013"/>
</g>
<!-- Node36&#45;&gt;Node26 -->
<g id="edge52" class="edge"><title>Node36&#45;&gt;Node26</title>
<path fill="none" stroke="midnightblue" d="M1402.64,-112.324C1416.37,-103.9 1437.44,-90.9709 1453.56,-81.0741"/>
<polygon fill="midnightblue" stroke="midnightblue" points="1455.7,-83.8678 1462.4,-75.6545 1452.04,-77.9016 1455.7,-83.8678"/>
</g>
<!-- Node36&#45;&gt;Node31 -->
<g id="edge51" class="edge"><title>Node36&#45;&gt;Node31</title>
<path fill="none" stroke="midnightblue" d="M1376.77,-112.324C1365.66,-104.107 1348.76,-91.6017 1335.52,-81.8069"/>
<polygon fill="midnightblue" stroke="midnightblue" points="1337.56,-78.9671 1327.44,-75.8339 1333.4,-84.5948 1337.56,-78.9671"/>
</g>
<!-- Node37&#45;&gt;Node25 -->
<g id="edge56" class="edge"><title>Node37&#45;&gt;Node25</title>
<path fill="none" stroke="midnightblue" d="M1309.3,-280.444C1279.09,-271.28 1230.99,-256.688 1197.47,-246.519"/>
<polygon fill="midnightblue" stroke="midnightblue" points="1198.16,-243.07 1187.57,-243.516 1196.13,-249.769 1198.16,-243.07"/>
</g>
<!-- Node37&#45;&gt;Node26 -->
<g id="edge54" class="edge"><title>Node37&#45;&gt;Node26</title>
<path fill="none" stroke="midnightblue" d="M1372.64,-283.802C1451.25,-271.374 1637.29,-237.266 1673.5,-188 1717.9,-127.581 1592.6,-90.9073 1521.62,-75.4976"/>
<polygon fill="midnightblue" stroke="midnightblue" points="1522.08,-72.0169 1511.57,-73.378 1520.63,-78.8662 1522.08,-72.0169"/>
</g>
<!-- Node37&#45;&gt;Node27 -->
<g id="edge55" class="edge"><title>Node37&#45;&gt;Node27</title>
<path fill="none" stroke="midnightblue" d="M1360.02,-280.368C1410.74,-260.93 1534.03,-213.674 1592.6,-191.228"/>
<polygon fill="midnightblue" stroke="midnightblue" points="1594,-194.439 1602.08,-187.591 1591.49,-187.902 1594,-194.439"/>
</g>
</g>
</svg>
        <g id="navigator" transform="translate(0 0)" fill="#404254">
                <rect fill="#f2f5e9" fill-opacity="0.5" stroke="#606060" stroke-width=".5" x="0" y="0" width="60" height="60"/>
                <use id="zoomplus" xlink:href="#zoomPlus" x="17" y="9" onmousedown="handleZoom(evt,'in')"/>
                <use id="zoomminus" xlink:href="#zoomMin" x="42" y="9" onmousedown="handleZoom(evt,'out')"/>
                <use id="reset" xlink:href="#resetDef" x="30" y="36" onmousedown="handleReset()"/>
                <g id="arrowUp" xlink:href="#dirArrow" transform="translate(30 24)" onmousedown="handlePan(0,-1)">
                  <use xlink:href="#rim" fill="#404040">
                        <set attributeName="fill" to="#808080" begin="arrowUp.mouseover" end="arrowUp.mouseout"/>
                  </use>
                  <path fill="none" stroke="white" stroke-width="1.5" d="M0,-3.0v7 M-2.5,-0.5L0,-3.0L2.5,-0.5"/>
                </g>
                <g id="arrowRight" xlink:href="#dirArrow" transform="rotate(90) translate(36 -43)" onmousedown="handlePan(1,0)">
                  <use xlink:href="#rim" fill="#404040">
                        <set attributeName="fill" to="#808080" begin="arrowRight.mouseover" end="arrowRight.mouseout"/>
                  </use>
                  <path fill="none" stroke="white" stroke-width="1.5" d="M0,-3.0v7 M-2.5,-0.5L0,-3.0L2.5,-0.5"/>
                </g>
                <g id="arrowDown" xlink:href="#dirArrow" transform="rotate(180) translate(-30 -48)" onmousedown="handlePan(0,1)">
                  <use xlink:href="#rim" fill="#404040">
                        <set attributeName="fill" to="#808080" begin="arrowDown.mouseover" end="arrowDown.mouseout"/>
                  </use>
                  <path fill="none" stroke="white" stroke-width="1.5" d="M0,-3.0v7 M-2.5,-0.5L0,-3.0L2.5,-0.5"/>
                </g>
                <g id="arrowLeft" xlink:href="#dirArrow" transform="rotate(270) translate(-36 17)" onmousedown="handlePan(-1,0)">
                  <use xlink:href="#rim" fill="#404040">
                        <set attributeName="fill" to="#808080" begin="arrowLeft.mouseover" end="arrowLeft.mouseout"/>
                  </use>
                  <path fill="none" stroke="white" stroke-width="1.5" d="M0,-3.0v7 M-2.5,-0.5L0,-3.0L2.5,-0.5"/>
                </g>
        </g>
        <svg viewBox="0 0 15 15" width="100%" height="30px" preserveAspectRatio="xMaxYMin meet">
         <g id="arrow_out" transform="scale(0.3 0.3)">
          <a xlink:href="main_8cpp__incl_org.svg" target="_base">
           <rect id="button" ry="5" rx="5" y="6" x="6" height="38" width="38"
                fill="#f2f5e9" fill-opacity="0.5" stroke="#606060" stroke-width="1.0"/>
           <path id="arrow"
             d="M 11.500037,31.436501 C 11.940474,20.09759 22.043105,11.32322 32.158766,21.979434 L 37.068811,17.246167 C 37.068811,17.246167 37.088388,32 37.088388,32 L 22.160133,31.978069 C 22.160133,31.978069 26.997745,27.140456 26.997745,27.140456 C 18.528582,18.264221 13.291696,25.230495 11.500037,31.436501 z"
             style="fill:#404040;"/>
          </a>
         </g>
        </svg>
</svg>
