<?xml version="1.0" encoding="UTF-8" standalone="no"?>
<!DOCTYPE svg PUBLIC "-//W3C//DTD SVG 1.1//EN"
 "http://www.w3.org/Graphics/SVG/1.1/DTD/svg11.dtd">
<!-- Generated by graphviz version 2.38.0 (20140413.2041)
 -->
<!-- Title: engine/BufferObject/BufferObject.cpp Pages: 1 -->
<svg width="1712pt" height="442pt"
 viewBox="0.00 0.00 1711.50 442.00" xmlns="http://www.w3.org/2000/svg" xmlns:xlink="http://www.w3.org/1999/xlink">
<g id="graph0" class="graph" transform="scale(1 1) rotate(0) translate(4 438)">
<title>engine/BufferObject/BufferObject.cpp</title>
<!-- Node1 -->
<g id="node1" class="node"><title>Node1</title>
<polygon fill="#bfbfbf" stroke="black" points="327.5,-403.5 327.5,-433.5 430.5,-433.5 430.5,-403.5 327.5,-403.5"/>
<text text-anchor="start" x="335.5" y="-421.5" font-family="Helvetica,sans-Serif" font-size="10.00">engine/BufferObject</text>
<text text-anchor="middle" x="379" y="-410.5" font-family="Helvetica,sans-Serif" font-size="10.00">/BufferObject.cpp</text>
</g>
<!-- Node2 -->
<g id="node2" class="node"><title>Node2</title>
<g id="a_node2"><a xlink:href="../../da/d04/BufferObject_8hpp.html" target="_top" xlink:title="BufferObject.hpp">
<polygon fill="none" stroke="black" points="0,-56.5 0,-75.5 90,-75.5 90,-56.5 0,-56.5"/>
<text text-anchor="middle" x="45" y="-63.5" font-family="Helvetica,sans-Serif" font-size="10.00">BufferObject.hpp</text>
</a>
</g>
</g>
<!-- Node1&#45;&gt;Node2 -->
<g id="edge1" class="edge"><title>Node1&#45;&gt;Node2</title>
<path fill="none" stroke="midnightblue" d="M327.492,-411.975C223.866,-399.424 0,-364.448 0,-296.5 0,-296.5 0,-296.5 0,-177 0,-141.93 19.8368,-104.939 33.1694,-84.037"/>
<polygon fill="midnightblue" stroke="midnightblue" points="36.1342,-85.8991 38.7429,-75.6305 30.3,-82.031 36.1342,-85.8991"/>
</g>
<!-- Node5 -->
<g id="node5" class="node"><title>Node5</title>
<g id="a_node5"><a xlink:href="../../d0/d5e/glwindow_8hpp.html" target="_top" xlink:title="glwindow.hpp">
<polygon fill="none" stroke="black" points="341,-347.5 341,-366.5 417,-366.5 417,-347.5 341,-347.5"/>
<text text-anchor="middle" x="379" y="-354.5" font-family="Helvetica,sans-Serif" font-size="10.00">glwindow.hpp</text>
</a>
</g>
</g>
<!-- Node1&#45;&gt;Node5 -->
<g id="edge4" class="edge"><title>Node1&#45;&gt;Node5</title>
<path fill="none" stroke="midnightblue" d="M379,-403.399C379,-395.466 379,-385.458 379,-376.858"/>
<polygon fill="midnightblue" stroke="midnightblue" points="382.5,-376.658 379,-366.658 375.5,-376.658 382.5,-376.658"/>
</g>
<!-- Node50 -->
<g id="node50" class="node"><title>Node50</title>
<polygon fill="none" stroke="#bfbfbf" points="435.5,-347.5 435.5,-366.5 542.5,-366.5 542.5,-347.5 435.5,-347.5"/>
<text text-anchor="middle" x="489" y="-354.5" font-family="Helvetica,sans-Serif" font-size="10.00">log4cpp/Category.hh</text>
</g>
<!-- Node1&#45;&gt;Node50 -->
<g id="edge76" class="edge"><title>Node1&#45;&gt;Node50</title>
<path fill="none" stroke="midnightblue" d="M405.068,-403.399C422.865,-393.773 446.312,-381.09 463.899,-371.577"/>
<polygon fill="midnightblue" stroke="midnightblue" points="465.864,-374.494 472.994,-366.658 462.533,-368.337 465.864,-374.494"/>
</g>
<!-- Node3 -->
<g id="node3" class="node"><title>Node3</title>
<polygon fill="none" stroke="#bfbfbf" points="357,-0.5 357,-19.5 401,-19.5 401,-0.5 357,-0.5"/>
<text text-anchor="middle" x="379" y="-7.5" font-family="Helvetica,sans-Serif" font-size="10.00">vector</text>
</g>
<!-- Node2&#45;&gt;Node3 -->
<g id="edge2" class="edge"><title>Node2&#45;&gt;Node3</title>
<path fill="none" stroke="midnightblue" d="M90.078,-57.4669C93.0971,-56.9686 96.0924,-56.4759 99,-56 188.777,-41.3045 294.821,-24.3801 346.883,-16.0996"/>
<polygon fill="midnightblue" stroke="midnightblue" points="347.525,-19.5416 356.851,-14.5149 346.426,-12.6284 347.525,-19.5416"/>
</g>
<!-- Node4 -->
<g id="node4" class="node"><title>Node4</title>
<polygon fill="none" stroke="#bfbfbf" points="227,-0.5 227,-19.5 297,-19.5 297,-0.5 227,-0.5"/>
<text text-anchor="middle" x="262" y="-7.5" font-family="Helvetica,sans-Serif" font-size="10.00">glm/glm.hpp</text>
</g>
<!-- Node2&#45;&gt;Node4 -->
<g id="edge3" class="edge"><title>Node2&#45;&gt;Node4</title>
<path fill="none" stroke="midnightblue" d="M79.3843,-56.4435C116.922,-47.1024 177.131,-32.1194 218.067,-21.9326"/>
<polygon fill="midnightblue" stroke="midnightblue" points="218.918,-25.3278 227.777,-19.5164 217.227,-18.5349 218.918,-25.3278"/>
</g>
<!-- Node6 -->
<g id="node6" class="node"><title>Node6</title>
<polygon fill="none" stroke="#bfbfbf" points="648.5,-286 648.5,-305 707.5,-305 707.5,-286 648.5,-286"/>
<text text-anchor="middle" x="678" y="-293" font-family="Helvetica,sans-Serif" font-size="10.00">QWindow</text>
</g>
<!-- Node5&#45;&gt;Node6 -->
<g id="edge5" class="edge"><title>Node5&#45;&gt;Node6</title>
<path fill="none" stroke="midnightblue" d="M417.207,-348.612C420.181,-348.059 423.138,-347.516 426,-347 520.487,-329.971 546.26,-335.839 639,-311 641.813,-310.247 644.707,-309.371 647.587,-308.43"/>
<polygon fill="midnightblue" stroke="midnightblue" points="648.907,-311.676 657.186,-305.064 646.591,-305.071 648.907,-311.676"/>
</g>
<!-- Node7 -->
<g id="node7" class="node"><title>Node7</title>
<polygon fill="none" stroke="#bfbfbf" points="64.5,-286 64.5,-305 159.5,-305 159.5,-286 64.5,-286"/>
<text text-anchor="middle" x="112" y="-293" font-family="Helvetica,sans-Serif" font-size="10.00">QOpenGLContext</text>
</g>
<!-- Node5&#45;&gt;Node7 -->
<g id="edge6" class="edge"><title>Node5&#45;&gt;Node7</title>
<path fill="none" stroke="midnightblue" d="M340.771,-348.365C298.417,-339.785 228.15,-325.194 168,-311 163.357,-309.904 158.509,-308.716 153.692,-307.507"/>
<polygon fill="midnightblue" stroke="midnightblue" points="154.478,-304.096 143.924,-305.02 152.751,-310.879 154.478,-304.096"/>
</g>
<!-- Node8 -->
<g id="node8" class="node"><title>Node8</title>
<polygon fill="none" stroke="#bfbfbf" points="177.5,-280.5 177.5,-310.5 290.5,-310.5 290.5,-280.5 177.5,-280.5"/>
<text text-anchor="start" x="185.5" y="-298.5" font-family="Helvetica,sans-Serif" font-size="10.00">QOpenGLFunctions_4</text>
<text text-anchor="middle" x="234" y="-287.5" font-family="Helvetica,sans-Serif" font-size="10.00">_2_Core</text>
</g>
<!-- Node5&#45;&gt;Node8 -->
<g id="edge7" class="edge"><title>Node5&#45;&gt;Node8</title>
<path fill="none" stroke="midnightblue" d="M358.225,-347.475C337.302,-338.889 304.386,-325.383 277.693,-314.429"/>
<polygon fill="midnightblue" stroke="midnightblue" points="278.754,-311.081 268.174,-310.523 276.096,-317.557 278.754,-311.081"/>
</g>
<!-- Node9 -->
<g id="node9" class="node"><title>Node9</title>
<polygon fill="none" stroke="#bfbfbf" points="308.5,-286 308.5,-305 375.5,-305 375.5,-286 308.5,-286"/>
<text text-anchor="middle" x="342" y="-293" font-family="Helvetica,sans-Serif" font-size="10.00">QKeyEvent</text>
</g>
<!-- Node5&#45;&gt;Node9 -->
<g id="edge8" class="edge"><title>Node5&#45;&gt;Node9</title>
<path fill="none" stroke="midnightblue" d="M373.699,-347.475C368.259,-338.727 359.641,-324.869 352.764,-313.809"/>
<polygon fill="midnightblue" stroke="midnightblue" points="355.544,-311.653 347.291,-305.009 349.6,-315.349 355.544,-311.653"/>
</g>
<!-- Node10 -->
<g id="node10" class="node"><title>Node10</title>
<polygon fill="none" stroke="#bfbfbf" points="394,-286 394,-305 440,-305 440,-286 394,-286"/>
<text text-anchor="middle" x="417" y="-293" font-family="Helvetica,sans-Serif" font-size="10.00">QTime</text>
</g>
<!-- Node5&#45;&gt;Node10 -->
<g id="edge9" class="edge"><title>Node5&#45;&gt;Node10</title>
<path fill="none" stroke="midnightblue" d="M384.444,-347.475C390.088,-338.638 399.061,-324.589 406.159,-313.475"/>
<polygon fill="midnightblue" stroke="midnightblue" points="409.133,-315.321 411.566,-305.009 403.233,-311.553 409.133,-315.321"/>
</g>
<!-- Node11 -->
<g id="node11" class="node"><title>Node11</title>
<g id="a_node11"><a xlink:href="../../d4/d1c/GameEngine_8hpp.html" target="_top" xlink:title="GameEngine.hpp">
<polygon fill="none" stroke="black" points="458,-286 458,-305 550,-305 550,-286 458,-286"/>
<text text-anchor="middle" x="504" y="-293" font-family="Helvetica,sans-Serif" font-size="10.00">GameEngine.hpp</text>
</a>
</g>
</g>
<!-- Node5&#45;&gt;Node11 -->
<g id="edge10" class="edge"><title>Node5&#45;&gt;Node11</title>
<path fill="none" stroke="midnightblue" d="M396.909,-347.475C417.887,-337.49 452.85,-320.848 477.093,-309.307"/>
<polygon fill="midnightblue" stroke="midnightblue" points="478.599,-312.467 486.124,-305.009 475.59,-306.147 478.599,-312.467"/>
</g>
<!-- Node42 -->
<g id="node42" class="node"><title>Node42</title>
<g id="a_node42"><a xlink:href="../../dc/ddc/model_8hpp.html" target="_top" xlink:title="model.hpp">
<polygon fill="none" stroke="black" points="568,-286 568,-305 630,-305 630,-286 568,-286"/>
<text text-anchor="middle" x="599" y="-293" font-family="Helvetica,sans-Serif" font-size="10.00">model.hpp</text>
</a>
</g>
</g>
<!-- Node5&#45;&gt;Node42 -->
<g id="edge68" class="edge"><title>Node5&#45;&gt;Node42</title>
<path fill="none" stroke="midnightblue" d="M417.237,-347.642C453.89,-339.349 510.632,-325.77 559,-311 561.625,-310.198 564.331,-309.324 567.038,-308.415"/>
<polygon fill="midnightblue" stroke="midnightblue" points="568.424,-311.638 576.712,-305.038 566.117,-305.03 568.424,-311.638"/>
</g>
<!-- Node12 -->
<g id="node12" class="node"><title>Node12</title>
<g id="a_node12"><a xlink:href="../../de/df7/worldparticles_8hpp.html" target="_top" xlink:title="wordparticles configuration file ">
<polygon fill="none" stroke="black" points="456.5,-224.5 456.5,-243.5 551.5,-243.5 551.5,-224.5 456.5,-224.5"/>
<text text-anchor="middle" x="504" y="-231.5" font-family="Helvetica,sans-Serif" font-size="10.00">worldparticles.hpp</text>
</a>
</g>
</g>
<!-- Node11&#45;&gt;Node12 -->
<g id="edge11" class="edge"><title>Node11&#45;&gt;Node12</title>
<path fill="none" stroke="midnightblue" d="M504,-285.975C504,-277.58 504,-264.481 504,-253.663"/>
<polygon fill="midnightblue" stroke="midnightblue" points="507.5,-253.509 504,-243.509 500.5,-253.509 507.5,-253.509"/>
</g>
<!-- Node13 -->
<g id="node13" class="node"><title>Node13</title>
<g id="a_node13"><a xlink:href="../../db/de8/Scene_8hpp.html" target="_top" xlink:title="Scene.hpp">
<polygon fill="none" stroke="black" points="605.5,-224.5 605.5,-243.5 668.5,-243.5 668.5,-224.5 605.5,-224.5"/>
<text text-anchor="middle" x="637" y="-231.5" font-family="Helvetica,sans-Serif" font-size="10.00">Scene.hpp</text>
</a>
</g>
</g>
<!-- Node11&#45;&gt;Node13 -->
<g id="edge12" class="edge"><title>Node11&#45;&gt;Node13</title>
<path fill="none" stroke="midnightblue" d="M523.056,-285.975C545.475,-275.945 582.905,-259.2 608.713,-247.655"/>
<polygon fill="midnightblue" stroke="midnightblue" points="610.281,-250.788 617.98,-243.509 607.422,-244.398 610.281,-250.788"/>
</g>
<!-- Node40 -->
<g id="node40" class="node"><title>Node40</title>
<g id="a_node40"><a xlink:href="../../d0/dbd/AssimpImporter_8hpp.html" target="_top" xlink:title="AssimpImporter.hpp">
<polygon fill="none" stroke="black" points="184,-168.5 184,-187.5 288,-187.5 288,-168.5 184,-168.5"/>
<text text-anchor="middle" x="236" y="-175.5" font-family="Helvetica,sans-Serif" font-size="10.00">AssimpImporter.hpp</text>
</a>
</g>
</g>
<!-- Node11&#45;&gt;Node40 -->
<g id="edge63" class="edge"><title>Node11&#45;&gt;Node40</title>
<path fill="none" stroke="midnightblue" d="M483.856,-285.819C436.986,-265.619 320.439,-215.391 265.519,-191.722"/>
<polygon fill="midnightblue" stroke="midnightblue" points="266.58,-188.368 256.012,-187.624 263.81,-194.797 266.58,-188.368"/>
</g>
<!-- Node14 -->
<g id="node14" class="node"><title>Node14</title>
<polygon fill="none" stroke="#bfbfbf" points="526,-56.5 526,-75.5 578,-75.5 578,-56.5 526,-56.5"/>
<text text-anchor="middle" x="552" y="-63.5" font-family="Helvetica,sans-Serif" font-size="10.00">memory</text>
</g>
<!-- Node13&#45;&gt;Node14 -->
<g id="edge13" class="edge"><title>Node13&#45;&gt;Node14</title>
<path fill="none" stroke="midnightblue" d="M605.227,-228.818C528.566,-218.655 339.413,-193.119 335,-188 312.946,-162.416 313.678,-138.197 335,-112 357.36,-84.5268 459.819,-73.2942 515.583,-69.1527"/>
<polygon fill="midnightblue" stroke="midnightblue" points="516.02,-72.6307 525.749,-68.4378 515.529,-65.648 516.02,-72.6307"/>
</g>
<!-- Node15 -->
<g id="node15" class="node"><title>Node15</title>
<polygon fill="none" stroke="#bfbfbf" points="344.5,-112.5 344.5,-131.5 373.5,-131.5 373.5,-112.5 344.5,-112.5"/>
<text text-anchor="middle" x="359" y="-119.5" font-family="Helvetica,sans-Serif" font-size="10.00">list</text>
</g>
<!-- Node13&#45;&gt;Node15 -->
<g id="edge14" class="edge"><title>Node13&#45;&gt;Node15</title>
<path fill="none" stroke="midnightblue" d="M605.407,-225.74C573.831,-218.028 524.185,-204.66 483,-188 465.307,-180.843 461.9,-176.869 445,-168 424.045,-157.003 400.2,-144.529 382.942,-135.508"/>
<polygon fill="midnightblue" stroke="midnightblue" points="384.097,-132.163 373.614,-130.633 380.855,-138.367 384.097,-132.163"/>
</g>
<!-- Node16 -->
<g id="node16" class="node"><title>Node16</title>
<g id="a_node16"><a xlink:href="../../dd/db8/Renderer_8hpp.html" target="_top" xlink:title="Renderer.hpp">
<polygon fill="none" stroke="black" points="599.5,-168.5 599.5,-187.5 674.5,-187.5 674.5,-168.5 599.5,-168.5"/>
<text text-anchor="middle" x="637" y="-175.5" font-family="Helvetica,sans-Serif" font-size="10.00">Renderer.hpp</text>
</a>
</g>
</g>
<!-- Node13&#45;&gt;Node16 -->
<g id="edge15" class="edge"><title>Node13&#45;&gt;Node16</title>
<path fill="none" stroke="midnightblue" d="M637,-224.083C637,-217.006 637,-206.861 637,-197.986"/>
<polygon fill="midnightblue" stroke="midnightblue" points="640.5,-197.751 637,-187.751 633.5,-197.751 640.5,-197.751"/>
</g>
<!-- Node17 -->
<g id="node17" class="node"><title>Node17</title>
<g id="a_node17"><a xlink:href="../../de/dbe/SpatialGraph_8hpp.html" target="_top" xlink:title="SpatialGraph.hpp">
<polygon fill="none" stroke="black" points="344,-168.5 344,-187.5 436,-187.5 436,-168.5 344,-168.5"/>
<text text-anchor="middle" x="390" y="-175.5" font-family="Helvetica,sans-Serif" font-size="10.00">SpatialGraph.hpp</text>
</a>
</g>
</g>
<!-- Node13&#45;&gt;Node17 -->
<g id="edge17" class="edge"><title>Node13&#45;&gt;Node17</title>
<path fill="none" stroke="midnightblue" d="M605.466,-226.106C563.368,-216.902 488.377,-200.508 438.912,-189.693"/>
<polygon fill="midnightblue" stroke="midnightblue" points="439.588,-186.258 429.071,-187.542 438.092,-193.097 439.588,-186.258"/>
</g>
<!-- Node18 -->
<g id="node18" class="node"><title>Node18</title>
<g id="a_node18"><a xlink:href="../../d8/d58/SceneGraph_8hpp.html" target="_top" xlink:title="SceneGraph.hpp">
<polygon fill="none" stroke="black" points="692.5,-168.5 692.5,-187.5 781.5,-187.5 781.5,-168.5 692.5,-168.5"/>
<text text-anchor="middle" x="737" y="-175.5" font-family="Helvetica,sans-Serif" font-size="10.00">SceneGraph.hpp</text>
</a>
</g>
</g>
<!-- Node13&#45;&gt;Node18 -->
<g id="edge19" class="edge"><title>Node13&#45;&gt;Node18</title>
<path fill="none" stroke="midnightblue" d="M653.067,-224.324C668.958,-215.743 693.507,-202.486 711.958,-192.522"/>
<polygon fill="midnightblue" stroke="midnightblue" points="713.837,-195.486 720.973,-187.655 710.511,-189.326 713.837,-195.486"/>
</g>
<!-- Node20 -->
<g id="node20" class="node"><title>Node20</title>
<g id="a_node20"><a xlink:href="../../d1/d93/ShaderProgramLibrary_8hpp.html" target="_top" xlink:title="ShaderProgramLibrary.hpp">
<polygon fill="none" stroke="black" points="800,-168.5 800,-187.5 932,-187.5 932,-168.5 800,-168.5"/>
<text text-anchor="middle" x="866" y="-175.5" font-family="Helvetica,sans-Serif" font-size="10.00">ShaderProgramLibrary.hpp</text>
</a>
</g>
</g>
<!-- Node13&#45;&gt;Node20 -->
<g id="edge21" class="edge"><title>Node13&#45;&gt;Node20</title>
<path fill="none" stroke="midnightblue" d="M668.841,-225.492C708.145,-216.223 775.273,-200.394 820.13,-189.817"/>
<polygon fill="midnightblue" stroke="midnightblue" points="820.974,-193.214 829.904,-187.512 819.367,-186.4 820.974,-193.214"/>
</g>
<!-- Node29 -->
<g id="node29" class="node"><title>Node29</title>
<g id="a_node29"><a xlink:href="../../d2/d26/MaterialLibrary_8hpp.html" target="_top" xlink:title="MaterialLibrary.hpp">
<polygon fill="none" stroke="black" points="979.5,-168.5 979.5,-187.5 1078.5,-187.5 1078.5,-168.5 979.5,-168.5"/>
<text text-anchor="middle" x="1029" y="-175.5" font-family="Helvetica,sans-Serif" font-size="10.00">MaterialLibrary.hpp</text>
</a>
</g>
</g>
<!-- Node13&#45;&gt;Node29 -->
<g id="edge39" class="edge"><title>Node13&#45;&gt;Node29</title>
<path fill="none" stroke="midnightblue" d="M668.747,-228.627C734.253,-219.603 885.298,-198.796 969.521,-187.194"/>
<polygon fill="midnightblue" stroke="midnightblue" points="970.022,-190.658 979.451,-185.826 969.067,-183.723 970.022,-190.658"/>
</g>
<!-- Node32 -->
<g id="node32" class="node"><title>Node32</title>
<g id="a_node32"><a xlink:href="../../d1/da3/AnimationLibrary_8hpp.html" target="_top" xlink:title="AnimationLibrary.hpp">
<polygon fill="none" stroke="black" points="1286,-112.5 1286,-131.5 1394,-131.5 1394,-112.5 1286,-112.5"/>
<text text-anchor="middle" x="1340" y="-119.5" font-family="Helvetica,sans-Serif" font-size="10.00">AnimationLibrary.hpp</text>
</a>
</g>
</g>
<!-- Node13&#45;&gt;Node32 -->
<g id="edge46" class="edge"><title>Node13&#45;&gt;Node32</title>
<path fill="none" stroke="midnightblue" d="M668.802,-232.464C775.954,-230.367 1122.99,-221.119 1229,-188 1238.42,-185.056 1287.81,-155.156 1317.44,-136.951"/>
<polygon fill="midnightblue" stroke="midnightblue" points="1319.61,-139.724 1326.29,-131.5 1315.94,-133.764 1319.61,-139.724"/>
</g>
<!-- Node35 -->
<g id="node35" class="node"><title>Node35</title>
<g id="a_node35"><a xlink:href="../../dd/de2/MeshLibrary_8hpp.html" target="_top" xlink:title="MeshLibrary.hpp">
<polygon fill="none" stroke="black" points="492.5,-168.5 492.5,-187.5 581.5,-187.5 581.5,-168.5 492.5,-168.5"/>
<text text-anchor="middle" x="537" y="-175.5" font-family="Helvetica,sans-Serif" font-size="10.00">MeshLibrary.hpp</text>
</a>
</g>
</g>
<!-- Node13&#45;&gt;Node35 -->
<g id="edge52" class="edge"><title>Node13&#45;&gt;Node35</title>
<path fill="none" stroke="midnightblue" d="M620.933,-224.324C605.042,-215.743 580.493,-202.486 562.042,-192.522"/>
<polygon fill="midnightblue" stroke="midnightblue" points="563.489,-189.326 553.027,-187.655 560.163,-195.486 563.489,-189.326"/>
</g>
<!-- Node38 -->
<g id="node38" class="node"><title>Node38</title>
<g id="a_node38"><a xlink:href="../../dc/d23/TextureLibrary_8hpp.html" target="_top" xlink:title="TextureLibrary.hpp">
<polygon fill="none" stroke="black" points="1122,-168.5 1122,-187.5 1220,-187.5 1220,-168.5 1122,-168.5"/>
<text text-anchor="middle" x="1171" y="-175.5" font-family="Helvetica,sans-Serif" font-size="10.00">TextureLibrary.hpp</text>
</a>
</g>
</g>
<!-- Node13&#45;&gt;Node38 -->
<g id="edge60" class="edge"><title>Node13&#45;&gt;Node38</title>
<path fill="none" stroke="midnightblue" d="M668.651,-229.912C742.138,-222.727 930.025,-204.258 1087,-188 1094.99,-187.173 1103.4,-186.288 1111.69,-185.408"/>
<polygon fill="midnightblue" stroke="midnightblue" points="1112.13,-188.881 1121.7,-184.341 1111.39,-181.92 1112.13,-188.881"/>
</g>
<!-- Node16&#45;&gt;Node15 -->
<g id="edge16" class="edge"><title>Node16&#45;&gt;Node15</title>
<path fill="none" stroke="midnightblue" d="M599.301,-169.723C596.156,-169.133 593.024,-168.552 590,-168 501.189,-151.775 474.845,-156.174 383.254,-131.598"/>
<polygon fill="midnightblue" stroke="midnightblue" points="384.149,-128.215 373.581,-128.962 382.308,-134.969 384.149,-128.215"/>
</g>
<!-- Node17&#45;&gt;Node15 -->
<g id="edge18" class="edge"><title>Node17&#45;&gt;Node15</title>
<path fill="none" stroke="midnightblue" d="M384.881,-168.083C380.592,-160.613 374.342,-149.724 369.058,-140.52"/>
<polygon fill="midnightblue" stroke="midnightblue" points="372.038,-138.681 364.024,-131.751 365.967,-142.166 372.038,-138.681"/>
</g>
<!-- Node19 -->
<g id="node19" class="node"><title>Node19</title>
<polygon fill="none" stroke="#bfbfbf" points="392,-112.5 392,-131.5 478,-131.5 478,-112.5 392,-112.5"/>
<text text-anchor="middle" x="435" y="-119.5" font-family="Helvetica,sans-Serif" font-size="10.00">assimp/scene.h</text>
</g>
<!-- Node18&#45;&gt;Node19 -->
<g id="edge20" class="edge"><title>Node18&#45;&gt;Node19</title>
<path fill="none" stroke="midnightblue" d="M692.439,-169.032C638.111,-159.318 546.38,-142.916 488.348,-132.539"/>
<polygon fill="midnightblue" stroke="midnightblue" points="488.734,-129.053 478.274,-130.738 487.502,-135.943 488.734,-129.053"/>
</g>
<!-- Node20&#45;&gt;Node14 -->
<g id="edge22" class="edge"><title>Node20&#45;&gt;Node14</title>
<path fill="none" stroke="midnightblue" d="M812.326,-168.476C757.439,-159.314 676.21,-144.396 647,-132 617.595,-119.521 587.873,-97.2843 569.695,-82.3404"/>
<polygon fill="midnightblue" stroke="midnightblue" points="571.657,-79.4181 561.75,-75.6648 567.154,-84.7775 571.657,-79.4181"/>
</g>
<!-- Node21 -->
<g id="node21" class="node"><title>Node21</title>
<g id="a_node21"><a xlink:href="../../df/d67/Library_8hpp.html" target="_top" xlink:title="Library.hpp">
<polygon fill="none" stroke="black" points="1063.5,-56.5 1063.5,-75.5 1128.5,-75.5 1128.5,-56.5 1063.5,-56.5"/>
<text text-anchor="middle" x="1096" y="-63.5" font-family="Helvetica,sans-Serif" font-size="10.00">Library.hpp</text>
</a>
</g>
</g>
<!-- Node20&#45;&gt;Node21 -->
<g id="edge23" class="edge"><title>Node20&#45;&gt;Node21</title>
<path fill="none" stroke="midnightblue" d="M932.09,-169.257C965.974,-163.028 1006.78,-151.876 1039,-132 1058.49,-119.978 1075,-99.1967 1085.15,-84.3679"/>
<polygon fill="midnightblue" stroke="midnightblue" points="1088.32,-85.9171 1090.87,-75.6347 1082.47,-82.0799 1088.32,-85.9171"/>
</g>
<!-- Node23 -->
<g id="node23" class="node"><title>Node23</title>
<g id="a_node23"><a xlink:href="../../dc/ddb/ShaderProgram_8hpp.html" target="_top" xlink:title="ShaderProgram.hpp">
<polygon fill="none" stroke="black" points="496.5,-112.5 496.5,-131.5 599.5,-131.5 599.5,-112.5 496.5,-112.5"/>
<text text-anchor="middle" x="548" y="-119.5" font-family="Helvetica,sans-Serif" font-size="10.00">ShaderProgram.hpp</text>
</a>
</g>
</g>
<!-- Node20&#45;&gt;Node23 -->
<g id="edge27" class="edge"><title>Node20&#45;&gt;Node23</title>
<path fill="none" stroke="midnightblue" d="M815.612,-168.444C759.324,-158.885 668.248,-143.419 608.242,-133.23"/>
<polygon fill="midnightblue" stroke="midnightblue" points="608.597,-129.74 598.152,-131.516 607.425,-136.641 608.597,-129.74"/>
</g>
<!-- Node26 -->
<g id="node26" class="node"><title>Node26</title>
<g id="a_node26"><a xlink:href="../../d9/db7/ShaderProgramNames_8hpp.html" target="_top" xlink:title="ShaderProgramNames.hpp">
<polygon fill="none" stroke="black" points="896,-112.5 896,-131.5 1030,-131.5 1030,-112.5 896,-112.5"/>
<text text-anchor="middle" x="963" y="-119.5" font-family="Helvetica,sans-Serif" font-size="10.00">ShaderProgramNames.hpp</text>
</a>
</g>
</g>
<!-- Node20&#45;&gt;Node26 -->
<g id="edge33" class="edge"><title>Node20&#45;&gt;Node26</title>
<path fill="none" stroke="midnightblue" d="M881.585,-168.324C896.999,-159.743 920.812,-146.486 938.71,-136.522"/>
<polygon fill="midnightblue" stroke="midnightblue" points="940.419,-139.577 947.454,-131.655 937.014,-133.461 940.419,-139.577"/>
</g>
<!-- Node27 -->
<g id="node27" class="node"><title>Node27</title>
<g id="a_node27"><a xlink:href="../../d2/db1/ShaderLibrary_8hpp.html" target="_top" xlink:title="ShaderLibrary.hpp">
<polygon fill="none" stroke="black" points="744.5,-112.5 744.5,-131.5 839.5,-131.5 839.5,-112.5 744.5,-112.5"/>
<text text-anchor="middle" x="792" y="-119.5" font-family="Helvetica,sans-Serif" font-size="10.00">ShaderLibrary.hpp</text>
</a>
</g>
</g>
<!-- Node20&#45;&gt;Node27 -->
<g id="edge34" class="edge"><title>Node20&#45;&gt;Node27</title>
<path fill="none" stroke="midnightblue" d="M854.111,-168.324C842.85,-160.107 825.713,-147.602 812.291,-137.807"/>
<polygon fill="midnightblue" stroke="midnightblue" points="814.247,-134.901 804.106,-131.834 810.12,-140.556 814.247,-134.901"/>
</g>
<!-- Node21&#45;&gt;Node3 -->
<g id="edge24" class="edge"><title>Node21&#45;&gt;Node3</title>
<path fill="none" stroke="midnightblue" d="M1063.43,-61.4293C1046.84,-59.6725 1026.36,-57.5952 1008,-56 779.546,-36.1503 503.855,-18.6577 411.16,-12.9531"/>
<polygon fill="midnightblue" stroke="midnightblue" points="411.22,-9.45033 401.024,-12.3316 410.791,-16.4372 411.22,-9.45033"/>
</g>
<!-- Node21&#45;&gt;Node21 -->
<g id="edge26" class="edge"><title>Node21&#45;&gt;Node21</title>
<path fill="none" stroke="midnightblue" d="M1117.54,-75.5252C1132.17,-78.3079 1146.5,-75.1328 1146.5,-66 1146.5,-59.0077 1138.1,-55.5077 1127.6,-55.5"/>
<polygon fill="midnightblue" stroke="midnightblue" points="1127.15,-52.0265 1117.54,-56.4748 1127.83,-58.9938 1127.15,-52.0265"/>
</g>
<!-- Node22 -->
<g id="node22" class="node"><title>Node22</title>
<polygon fill="none" stroke="#bfbfbf" points="1065,-0.5 1065,-19.5 1127,-19.5 1127,-0.5 1065,-0.5"/>
<text text-anchor="middle" x="1096" y="-7.5" font-family="Helvetica,sans-Serif" font-size="10.00">Library.tpp</text>
</g>
<!-- Node21&#45;&gt;Node22 -->
<g id="edge25" class="edge"><title>Node21&#45;&gt;Node22</title>
<path fill="none" stroke="midnightblue" d="M1096,-56.083C1096,-49.0059 1096,-38.8611 1096,-29.9865"/>
<polygon fill="midnightblue" stroke="midnightblue" points="1099.5,-29.751 1096,-19.7511 1092.5,-29.7511 1099.5,-29.751"/>
</g>
<!-- Node23&#45;&gt;Node3 -->
<g id="edge29" class="edge"><title>Node23&#45;&gt;Node3</title>
<path fill="none" stroke="midnightblue" d="M534.739,-112.368C505.738,-93.4924 436.437,-48.385 400.873,-25.2367"/>
<polygon fill="midnightblue" stroke="midnightblue" points="402.49,-22.1132 392.2,-19.5914 398.671,-27.9799 402.49,-22.1132"/>
</g>
<!-- Node23&#45;&gt;Node4 -->
<g id="edge28" class="edge"><title>Node23&#45;&gt;Node4</title>
<path fill="none" stroke="midnightblue" d="M525.558,-112.368C475.018,-92.9302 352.154,-45.6744 293.792,-23.2278"/>
<polygon fill="midnightblue" stroke="midnightblue" points="294.928,-19.9146 284.338,-19.5914 292.415,-26.448 294.928,-19.9146"/>
</g>
<!-- Node23&#45;&gt;Node14 -->
<g id="edge30" class="edge"><title>Node23&#45;&gt;Node14</title>
<path fill="none" stroke="midnightblue" d="M548.661,-112.083C549.185,-105.006 549.936,-94.8611 550.594,-85.9865"/>
<polygon fill="midnightblue" stroke="midnightblue" points="554.103,-85.9823 551.352,-75.7511 547.123,-85.4652 554.103,-85.9823"/>
</g>
<!-- Node24 -->
<g id="node24" class="node"><title>Node24</title>
<g id="a_node24"><a xlink:href="../../d4/d6e/Shader_8hpp.html" target="_top" xlink:title="Shader.hpp">
<polygon fill="none" stroke="black" points="645,-56.5 645,-75.5 711,-75.5 711,-56.5 645,-56.5"/>
<text text-anchor="middle" x="678" y="-63.5" font-family="Helvetica,sans-Serif" font-size="10.00">Shader.hpp</text>
</a>
</g>
</g>
<!-- Node23&#45;&gt;Node24 -->
<g id="edge31" class="edge"><title>Node23&#45;&gt;Node24</title>
<path fill="none" stroke="midnightblue" d="M568.599,-112.444C589.993,-103.557 623.681,-89.5632 648.024,-79.4514"/>
<polygon fill="midnightblue" stroke="midnightblue" points="649.605,-82.5848 657.497,-75.5164 646.92,-76.1203 649.605,-82.5848"/>
</g>
<!-- Node25 -->
<g id="node25" class="node"><title>Node25</title>
<polygon fill="none" stroke="#bfbfbf" points="657.5,-0.5 657.5,-19.5 698.5,-19.5 698.5,-0.5 657.5,-0.5"/>
<text text-anchor="middle" x="678" y="-7.5" font-family="Helvetica,sans-Serif" font-size="10.00">string</text>
</g>
<!-- Node24&#45;&gt;Node25 -->
<g id="edge32" class="edge"><title>Node24&#45;&gt;Node25</title>
<path fill="none" stroke="midnightblue" d="M678,-56.083C678,-49.0059 678,-38.8611 678,-29.9865"/>
<polygon fill="midnightblue" stroke="midnightblue" points="681.5,-29.751 678,-19.7511 674.5,-29.7511 681.5,-29.751"/>
</g>
<!-- Node27&#45;&gt;Node14 -->
<g id="edge35" class="edge"><title>Node27&#45;&gt;Node14</title>
<path fill="none" stroke="midnightblue" d="M753.971,-112.444C708.355,-102.18 632.469,-85.1055 587.845,-75.0652"/>
<polygon fill="midnightblue" stroke="midnightblue" points="588.54,-71.6341 578.016,-72.8536 587.004,-78.4634 588.54,-71.6341"/>
</g>
<!-- Node27&#45;&gt;Node21 -->
<g id="edge36" class="edge"><title>Node27&#45;&gt;Node21</title>
<path fill="none" stroke="midnightblue" d="M839.834,-112.503C898.549,-102.074 997.217,-84.5469 1053.42,-74.5636"/>
<polygon fill="midnightblue" stroke="midnightblue" points="1054.17,-77.9857 1063.4,-72.7907 1052.94,-71.0936 1054.17,-77.9857"/>
</g>
<!-- Node27&#45;&gt;Node24 -->
<g id="edge37" class="edge"><title>Node27&#45;&gt;Node24</title>
<path fill="none" stroke="midnightblue" d="M773.936,-112.444C755.425,-103.675 726.419,-89.9355 705.145,-79.8579"/>
<polygon fill="midnightblue" stroke="midnightblue" points="706.515,-76.6343 695.979,-75.5164 703.518,-82.9604 706.515,-76.6343"/>
</g>
<!-- Node28 -->
<g id="node28" class="node"><title>Node28</title>
<g id="a_node28"><a xlink:href="../../d2/dba/ShaderNames_8hpp.html" target="_top" xlink:title="ShaderNames.hpp">
<polygon fill="none" stroke="black" points="743,-56.5 743,-75.5 841,-75.5 841,-56.5 743,-56.5"/>
<text text-anchor="middle" x="792" y="-63.5" font-family="Helvetica,sans-Serif" font-size="10.00">ShaderNames.hpp</text>
</a>
</g>
</g>
<!-- Node27&#45;&gt;Node28 -->
<g id="edge38" class="edge"><title>Node27&#45;&gt;Node28</title>
<path fill="none" stroke="midnightblue" d="M792,-112.083C792,-105.006 792,-94.8611 792,-85.9865"/>
<polygon fill="midnightblue" stroke="midnightblue" points="795.5,-85.751 792,-75.7511 788.5,-85.7511 795.5,-85.751"/>
</g>
<!-- Node29&#45;&gt;Node21 -->
<g id="edge41" class="edge"><title>Node29&#45;&gt;Node21</title>
<path fill="none" stroke="midnightblue" d="M1060.02,-168.436C1078.03,-161.694 1099.23,-150.302 1110,-132 1118.57,-117.429 1112.76,-98.2568 1106.21,-84.5164"/>
<polygon fill="midnightblue" stroke="midnightblue" points="1109.27,-82.8219 1101.5,-75.6148 1103.08,-86.0917 1109.27,-82.8219"/>
</g>
<!-- Node30 -->
<g id="node30" class="node"><title>Node30</title>
<polygon fill="none" stroke="#bfbfbf" points="905,-56.5 905,-75.5 999,-75.5 999,-56.5 905,-56.5"/>
<text text-anchor="middle" x="952" y="-63.5" font-family="Helvetica,sans-Serif" font-size="10.00">assimp/material.h</text>
</g>
<!-- Node29&#45;&gt;Node30 -->
<g id="edge40" class="edge"><title>Node29&#45;&gt;Node30</title>
<path fill="none" stroke="midnightblue" d="M1033.73,-168.296C1040.19,-155.115 1049.8,-129.751 1039,-112 1029.54,-96.4569 1012.79,-86.0455 996.495,-79.1913"/>
<polygon fill="midnightblue" stroke="midnightblue" points="997.603,-75.8676 987.013,-75.5548 995.097,-82.4035 997.603,-75.8676"/>
</g>
<!-- Node31 -->
<g id="node31" class="node"><title>Node31</title>
<g id="a_node31"><a xlink:href="../../d0/d70/Material_8hpp.html" target="_top" xlink:title="Material.hpp">
<polygon fill="none" stroke="black" points="656,-112.5 656,-131.5 726,-131.5 726,-112.5 656,-112.5"/>
<text text-anchor="middle" x="691" y="-119.5" font-family="Helvetica,sans-Serif" font-size="10.00">Material.hpp</text>
</a>
</g>
</g>
<!-- Node29&#45;&gt;Node31 -->
<g id="edge42" class="edge"><title>Node29&#45;&gt;Node31</title>
<path fill="none" stroke="midnightblue" d="M979.458,-170.186C922.978,-162.247 827.649,-148.327 736.032,-132.112"/>
<polygon fill="midnightblue" stroke="midnightblue" points="736.493,-128.639 726.034,-130.33 735.265,-135.53 736.493,-128.639"/>
</g>
<!-- Node31&#45;&gt;Node4 -->
<g id="edge44" class="edge"><title>Node31&#45;&gt;Node4</title>
<path fill="none" stroke="midnightblue" d="M680.564,-112.339C662.669,-98.0043 624.428,-69.5815 587,-56 561.229,-46.6485 390.422,-25.9132 307.292,-16.2042"/>
<polygon fill="midnightblue" stroke="midnightblue" points="307.462,-12.7005 297.125,-15.0207 306.653,-19.6536 307.462,-12.7005"/>
</g>
<!-- Node31&#45;&gt;Node14 -->
<g id="edge43" class="edge"><title>Node31&#45;&gt;Node14</title>
<path fill="none" stroke="midnightblue" d="M668.975,-112.444C645.896,-103.478 609.438,-89.314 583.359,-79.1827"/>
<polygon fill="midnightblue" stroke="midnightblue" points="584.511,-75.8753 573.922,-75.5164 581.976,-82.4002 584.511,-75.8753"/>
</g>
<!-- Node31&#45;&gt;Node30 -->
<g id="edge45" class="edge"><title>Node31&#45;&gt;Node30</title>
<path fill="none" stroke="midnightblue" d="M726.2,-113.717C771.074,-104.433 849.004,-88.3096 900.543,-77.6462"/>
<polygon fill="midnightblue" stroke="midnightblue" points="901.398,-81.0436 910.482,-75.59 899.98,-74.1888 901.398,-81.0436"/>
</g>
<!-- Node32&#45;&gt;Node21 -->
<g id="edge48" class="edge"><title>Node32&#45;&gt;Node21</title>
<path fill="none" stroke="midnightblue" d="M1301.34,-112.444C1256.99,-102.628 1184.49,-86.5844 1138.57,-76.4203"/>
<polygon fill="midnightblue" stroke="midnightblue" points="1139.15,-72.9639 1128.63,-74.2203 1137.63,-79.7985 1139.15,-72.9639"/>
</g>
<!-- Node33 -->
<g id="node33" class="node"><title>Node33</title>
<polygon fill="none" stroke="#bfbfbf" points="1266,-0.5 1266,-19.5 1346,-19.5 1346,-0.5 1266,-0.5"/>
<text text-anchor="middle" x="1306" y="-7.5" font-family="Helvetica,sans-Serif" font-size="10.00">assimp/anim.h</text>
</g>
<!-- Node32&#45;&gt;Node33 -->
<g id="edge47" class="edge"><title>Node32&#45;&gt;Node33</title>
<path fill="none" stroke="midnightblue" d="M1337.29,-112.166C1333.45,-99.6594 1326.21,-76.0771 1320,-56 1317.28,-47.1957 1314.24,-37.4271 1311.69,-29.2474"/>
<polygon fill="midnightblue" stroke="midnightblue" points="1315.01,-28.1299 1308.69,-19.6243 1308.33,-30.2128 1315.01,-28.1299"/>
</g>
<!-- Node34 -->
<g id="node34" class="node"><title>Node34</title>
<g id="a_node34"><a xlink:href="../../d0/d36/Animation_8hpp.html" target="_top" xlink:title="Animation.hpp">
<polygon fill="none" stroke="black" points="1232.5,-56.5 1232.5,-75.5 1311.5,-75.5 1311.5,-56.5 1232.5,-56.5"/>
<text text-anchor="middle" x="1272" y="-63.5" font-family="Helvetica,sans-Serif" font-size="10.00">Animation.hpp</text>
</a>
</g>
</g>
<!-- Node32&#45;&gt;Node34 -->
<g id="edge49" class="edge"><title>Node32&#45;&gt;Node34</title>
<path fill="none" stroke="midnightblue" d="M1329.07,-112.324C1318.83,-104.185 1303.28,-91.8395 1291,-82.0874"/>
<polygon fill="midnightblue" stroke="midnightblue" points="1293.13,-79.3119 1283.12,-75.8339 1288.78,-84.7937 1293.13,-79.3119"/>
</g>
<!-- Node34&#45;&gt;Node25 -->
<g id="edge51" class="edge"><title>Node34&#45;&gt;Node25</title>
<path fill="none" stroke="midnightblue" d="M1232.1,-61.3731C1120.67,-51.2427 807.8,-22.8 708.588,-13.7807"/>
<polygon fill="midnightblue" stroke="midnightblue" points="708.89,-10.2938 698.614,-12.874 708.256,-17.2651 708.89,-10.2938"/>
</g>
<!-- Node34&#45;&gt;Node33 -->
<g id="edge50" class="edge"><title>Node34&#45;&gt;Node33</title>
<path fill="none" stroke="midnightblue" d="M1277.61,-56.083C1282.37,-48.5341 1289.32,-37.4948 1295.15,-28.2298"/>
<polygon fill="midnightblue" stroke="midnightblue" points="1298.12,-30.0783 1300.49,-19.7511 1292.2,-26.3486 1298.12,-30.0783"/>
</g>
<!-- Node35&#45;&gt;Node21 -->
<g id="edge53" class="edge"><title>Node35&#45;&gt;Node21</title>
<path fill="none" stroke="midnightblue" d="M581.518,-169.342C584.387,-168.879 587.233,-168.428 590,-168 704.418,-150.307 737.609,-166.905 848,-132 866.573,-126.127 868.655,-118.551 887,-112 942.865,-92.052 1010.44,-79.4722 1053.32,-72.8355"/>
<polygon fill="midnightblue" stroke="midnightblue" points="1054.04,-76.2668 1063.41,-71.3142 1053,-69.3451 1054.04,-76.2668"/>
</g>
<!-- Node36 -->
<g id="node36" class="node"><title>Node36</title>
<g id="a_node36"><a xlink:href="../../d1/d62/Mesh_8hpp.html" target="_top" xlink:title="Mesh.hpp">
<polygon fill="none" stroke="red" points="190.5,-112.5 190.5,-131.5 249.5,-131.5 249.5,-112.5 190.5,-112.5"/>
<text text-anchor="middle" x="220" y="-119.5" font-family="Helvetica,sans-Serif" font-size="10.00">Mesh.hpp</text>
</a>
</g>
</g>
<!-- Node35&#45;&gt;Node36 -->
<g id="edge54" class="edge"><title>Node35&#45;&gt;Node36</title>
<path fill="none" stroke="midnightblue" d="M492.254,-169.378C430.269,-158.819 319.227,-139.903 259.917,-129.8"/>
<polygon fill="midnightblue" stroke="midnightblue" points="260.261,-126.308 249.815,-128.079 259.085,-133.209 260.261,-126.308"/>
</g>
<!-- Node36&#45;&gt;Node2 -->
<g id="edge59" class="edge"><title>Node36&#45;&gt;Node2</title>
<path fill="none" stroke="midnightblue" d="M192.271,-112.444C162.574,-103.28 115.284,-88.6876 82.3307,-78.5192"/>
<polygon fill="midnightblue" stroke="midnightblue" points="83.187,-75.1206 72.5995,-75.5164 81.123,-81.8094 83.187,-75.1206"/>
</g>
<!-- Node36&#45;&gt;Node3 -->
<g id="edge55" class="edge"><title>Node36&#45;&gt;Node3</title>
<path fill="none" stroke="midnightblue" d="M226.419,-112.433C236.85,-98.9797 258.674,-72.7122 282,-56 302.139,-41.571 327.641,-29.9568 347.442,-22.1437"/>
<polygon fill="midnightblue" stroke="midnightblue" points="348.846,-25.3542 356.937,-18.514 346.346,-18.8158 348.846,-25.3542"/>
</g>
<!-- Node36&#45;&gt;Node4 -->
<g id="edge57" class="edge"><title>Node36&#45;&gt;Node4</title>
<path fill="none" stroke="midnightblue" d="M223.186,-112.14C227.714,-99.6036 236.315,-75.9856 244,-56 247.44,-47.0542 251.382,-37.1602 254.699,-28.9329"/>
<polygon fill="midnightblue" stroke="midnightblue" points="257.969,-30.1823 258.48,-19.5998 251.481,-27.5536 257.969,-30.1823"/>
</g>
<!-- Node36&#45;&gt;Node14 -->
<g id="edge56" class="edge"><title>Node36&#45;&gt;Node14</title>
<path fill="none" stroke="midnightblue" d="M249.755,-116.16C310.79,-106.233 449.952,-83.5982 515.968,-72.8607"/>
<polygon fill="midnightblue" stroke="midnightblue" points="516.603,-76.3034 525.912,-71.2433 515.48,-69.3942 516.603,-76.3034"/>
</g>
<!-- Node37 -->
<g id="node37" class="node"><title>Node37</title>
<polygon fill="none" stroke="#bfbfbf" points="108.5,-56.5 108.5,-75.5 191.5,-75.5 191.5,-56.5 108.5,-56.5"/>
<text text-anchor="middle" x="150" y="-63.5" font-family="Helvetica,sans-Serif" font-size="10.00">assimp/mesh.h</text>
</g>
<!-- Node36&#45;&gt;Node37 -->
<g id="edge58" class="edge"><title>Node36&#45;&gt;Node37</title>
<path fill="none" stroke="midnightblue" d="M208.753,-112.324C198.203,-104.185 182.199,-91.8395 169.558,-82.0874"/>
<polygon fill="midnightblue" stroke="midnightblue" points="171.507,-79.1707 161.451,-75.8339 167.231,-84.7132 171.507,-79.1707"/>
</g>
<!-- Node38&#45;&gt;Node21 -->
<g id="edge61" class="edge"><title>Node38&#45;&gt;Node21</title>
<path fill="none" stroke="midnightblue" d="M1192.63,-168.318C1218.35,-156.706 1255.81,-134.912 1239,-112 1216.29,-81.0406 1172.26,-70.8195 1139.03,-67.7161"/>
<polygon fill="midnightblue" stroke="midnightblue" points="1138.89,-64.1962 1128.66,-66.9413 1138.37,-71.1768 1138.89,-64.1962"/>
</g>
<!-- Node39 -->
<g id="node39" class="node"><title>Node39</title>
<g id="a_node39"><a xlink:href="../../d0/ddc/Texture_8hpp.html" target="_top" xlink:title="Texture.hpp">
<polygon fill="none" stroke="red" points="1162,-112.5 1162,-131.5 1230,-131.5 1230,-112.5 1162,-112.5"/>
<text text-anchor="middle" x="1196" y="-119.5" font-family="Helvetica,sans-Serif" font-size="10.00">Texture.hpp</text>
</a>
</g>
</g>
<!-- Node38&#45;&gt;Node39 -->
<g id="edge62" class="edge"><title>Node38&#45;&gt;Node39</title>
<path fill="none" stroke="midnightblue" d="M1175.13,-168.083C1178.51,-160.77 1183.42,-150.181 1187.62,-141.103"/>
<polygon fill="midnightblue" stroke="midnightblue" points="1190.92,-142.296 1191.95,-131.751 1184.57,-139.355 1190.92,-142.296"/>
</g>
<!-- Node40&#45;&gt;Node15 -->
<g id="edge65" class="edge"><title>Node40&#45;&gt;Node15</title>
<path fill="none" stroke="midnightblue" d="M255.49,-168.444C277.065,-158.972 311.853,-143.699 335.066,-133.507"/>
<polygon fill="midnightblue" stroke="midnightblue" points="336.485,-136.707 344.234,-129.483 333.671,-130.298 336.485,-136.707"/>
</g>
<!-- Node40&#45;&gt;Node25 -->
<g id="edge64" class="edge"><title>Node40&#45;&gt;Node25</title>
<path fill="none" stroke="midnightblue" d="M244.878,-168.087C259.233,-154.158 288.975,-127.252 319,-112 432.23,-54.4831 582.708,-25.811 646.877,-15.5485"/>
<polygon fill="midnightblue" stroke="midnightblue" points="647.783,-18.9497 657.124,-13.9503 646.704,-12.0334 647.783,-18.9497"/>
</g>
<!-- Node40&#45;&gt;Node37 -->
<g id="edge67" class="edge"><title>Node40&#45;&gt;Node37</title>
<path fill="none" stroke="midnightblue" d="M183.784,-170.979C136.694,-164.347 72.5163,-151.9 57,-132 38.5587,-108.349 74.9465,-89.8391 107.469,-78.7208"/>
<polygon fill="midnightblue" stroke="midnightblue" points="108.94,-81.9233 117.374,-75.51 106.782,-75.2644 108.94,-81.9233"/>
</g>
<!-- Node41 -->
<g id="node41" class="node"><title>Node41</title>
<polygon fill="none" stroke="#bfbfbf" points="66,-112.5 66,-131.5 172,-131.5 172,-112.5 66,-112.5"/>
<text text-anchor="middle" x="119" y="-119.5" font-family="Helvetica,sans-Serif" font-size="10.00">assimp/Importer.hpp</text>
</g>
<!-- Node40&#45;&gt;Node41 -->
<g id="edge66" class="edge"><title>Node40&#45;&gt;Node41</title>
<path fill="none" stroke="midnightblue" d="M217.461,-168.444C198.377,-159.636 168.425,-145.812 146.564,-135.722"/>
<polygon fill="midnightblue" stroke="midnightblue" points="147.999,-132.529 137.452,-131.516 145.065,-138.885 147.999,-132.529"/>
</g>
<!-- Node43 -->
<g id="node43" class="node"><title>Node43</title>
<g id="a_node43"><a xlink:href="../../de/d71/tools_8hpp.html" target="_top" xlink:title="tools.hpp">
<polygon fill="none" stroke="black" points="1420,-224.5 1420,-243.5 1476,-243.5 1476,-224.5 1420,-224.5"/>
<text text-anchor="middle" x="1448" y="-231.5" font-family="Helvetica,sans-Serif" font-size="10.00">tools.hpp</text>
</a>
</g>
</g>
<!-- Node42&#45;&gt;Node43 -->
<g id="edge69" class="edge"><title>Node42&#45;&gt;Node43</title>
<path fill="none" stroke="midnightblue" d="M619.018,-285.948C625.303,-283.617 632.342,-281.361 639,-280 789.101,-249.312 1269.48,-238.268 1409.41,-235.656"/>
<polygon fill="midnightblue" stroke="midnightblue" points="1409.71,-239.152 1419.64,-235.469 1409.58,-232.153 1409.71,-239.152"/>
</g>
<!-- Node44 -->
<g id="node44" class="node"><title>Node44</title>
<polygon fill="none" stroke="#bfbfbf" points="1276,-168.5 1276,-187.5 1326,-187.5 1326,-168.5 1276,-168.5"/>
<text text-anchor="middle" x="1301" y="-175.5" font-family="Helvetica,sans-Serif" font-size="10.00">QString</text>
</g>
<!-- Node43&#45;&gt;Node44 -->
<g id="edge70" class="edge"><title>Node43&#45;&gt;Node44</title>
<path fill="none" stroke="midnightblue" d="M1424.71,-224.444C1400.19,-215.438 1361.4,-201.189 1333.8,-191.049"/>
<polygon fill="midnightblue" stroke="midnightblue" points="1334.78,-187.679 1324.18,-187.516 1332.36,-194.25 1334.78,-187.679"/>
</g>
<!-- Node45 -->
<g id="node45" class="node"><title>Node45</title>
<polygon fill="none" stroke="#bfbfbf" points="1344.5,-168.5 1344.5,-187.5 1409.5,-187.5 1409.5,-168.5 1344.5,-168.5"/>
<text text-anchor="middle" x="1377" y="-175.5" font-family="Helvetica,sans-Serif" font-size="10.00">QVector3D</text>
</g>
<!-- Node43&#45;&gt;Node45 -->
<g id="edge71" class="edge"><title>Node43&#45;&gt;Node45</title>
<path fill="none" stroke="midnightblue" d="M1436.59,-224.324C1425.89,-216.185 1409.66,-203.839 1396.84,-194.087"/>
<polygon fill="midnightblue" stroke="midnightblue" points="1398.69,-191.102 1388.61,-187.834 1394.46,-196.673 1398.69,-191.102"/>
</g>
<!-- Node46 -->
<g id="node46" class="node"><title>Node46</title>
<polygon fill="none" stroke="#bfbfbf" points="1428,-168.5 1428,-187.5 1468,-187.5 1468,-168.5 1428,-168.5"/>
<text text-anchor="middle" x="1448" y="-175.5" font-family="Helvetica,sans-Serif" font-size="10.00">QList</text>
</g>
<!-- Node43&#45;&gt;Node46 -->
<g id="edge72" class="edge"><title>Node43&#45;&gt;Node46</title>
<path fill="none" stroke="midnightblue" d="M1448,-224.083C1448,-217.006 1448,-206.861 1448,-197.986"/>
<polygon fill="midnightblue" stroke="midnightblue" points="1451.5,-197.751 1448,-187.751 1444.5,-197.751 1451.5,-197.751"/>
</g>
<!-- Node47 -->
<g id="node47" class="node"><title>Node47</title>
<polygon fill="none" stroke="#bfbfbf" points="1486.5,-168.5 1486.5,-187.5 1529.5,-187.5 1529.5,-168.5 1486.5,-168.5"/>
<text text-anchor="middle" x="1508" y="-175.5" font-family="Helvetica,sans-Serif" font-size="10.00">QMap</text>
</g>
<!-- Node43&#45;&gt;Node47 -->
<g id="edge73" class="edge"><title>Node43&#45;&gt;Node47</title>
<path fill="none" stroke="midnightblue" d="M1457.64,-224.324C1466.51,-216.341 1479.87,-204.313 1490.61,-194.653"/>
<polygon fill="midnightblue" stroke="midnightblue" points="1493.09,-197.125 1498.18,-187.834 1488.41,-191.922 1493.09,-197.125"/>
</g>
<!-- Node48 -->
<g id="node48" class="node"><title>Node48</title>
<polygon fill="none" stroke="#bfbfbf" points="1547.5,-168.5 1547.5,-187.5 1638.5,-187.5 1638.5,-168.5 1547.5,-168.5"/>
<text text-anchor="middle" x="1593" y="-175.5" font-family="Helvetica,sans-Serif" font-size="10.00">QGraphicsScene</text>
</g>
<!-- Node43&#45;&gt;Node48 -->
<g id="edge74" class="edge"><title>Node43&#45;&gt;Node48</title>
<path fill="none" stroke="midnightblue" d="M1470.98,-224.444C1495.16,-215.438 1533.42,-201.189 1560.65,-191.049"/>
<polygon fill="midnightblue" stroke="midnightblue" points="1561.98,-194.286 1570.13,-187.516 1559.54,-187.727 1561.98,-194.286"/>
</g>
<!-- Node49 -->
<g id="node49" class="node"><title>Node49</title>
<polygon fill="none" stroke="#bfbfbf" points="1656.5,-168.5 1656.5,-187.5 1703.5,-187.5 1703.5,-168.5 1656.5,-168.5"/>
<text text-anchor="middle" x="1680" y="-175.5" font-family="Helvetica,sans-Serif" font-size="10.00">math.h</text>
</g>
<!-- Node43&#45;&gt;Node49 -->
<g id="edge75" class="edge"><title>Node43&#45;&gt;Node49</title>
<path fill="none" stroke="midnightblue" d="M1476.26,-227.133C1513.29,-219.341 1580.42,-204.846 1646.53,-188.282"/>
<polygon fill="midnightblue" stroke="midnightblue" points="1647.43,-191.664 1656.27,-185.824 1645.72,-184.877 1647.43,-191.664"/>
</g>
</g>
</svg>
