<?xml version="1.0" encoding="UTF-8" standalone="no"?>
<!DOCTYPE svg PUBLIC "-//W3C//DTD SVG 1.1//EN"
 "http://www.w3.org/Graphics/SVG/1.1/DTD/svg11.dtd">
<!-- Generated by graphviz version 2.38.0 (20140413.2041)
 -->
<!-- Title: Core/BufferObject.cpp Pages: 1 -->
<svg width="359pt" height="84pt"
 viewBox="0.00 0.00 359.00 84.00" xmlns="http://www.w3.org/2000/svg" xmlns:xlink="http://www.w3.org/1999/xlink">
<g id="graph0" class="graph" transform="scale(1 1) rotate(0) translate(4 80)">
<title>Core/BufferObject.cpp</title>
<!-- Node1 -->
<g id="node1" class="node"><title>Node1</title>
<polygon fill="#bfbfbf" stroke="black" points="75.5,-56.5 75.5,-75.5 189.5,-75.5 189.5,-56.5 75.5,-56.5"/>
<text text-anchor="middle" x="132.5" y="-63.5" font-family="Helvetica,sans-Serif" font-size="10.00">Core/BufferObject.cpp</text>
</g>
<!-- Node2 -->
<g id="node2" class="node"><title>Node2</title>
<polygon fill="none" stroke="#bfbfbf" points="0,-0.5 0,-19.5 61,-19.5 61,-0.5 0,-0.5"/>
<text text-anchor="middle" x="30.5" y="-7.5" font-family="Helvetica,sans-Serif" font-size="10.00">GL/glew.h</text>
</g>
<!-- Node1&#45;&gt;Node2 -->
<g id="edge1" class="edge"><title>Node1&#45;&gt;Node2</title>
<path fill="none" stroke="midnightblue" d="M116.112,-56.324C99.8287,-47.7034 74.6325,-34.3643 55.7837,-24.3855"/>
<polygon fill="midnightblue" stroke="midnightblue" points="57.3229,-21.2402 46.8474,-19.6545 54.0477,-27.4267 57.3229,-21.2402"/>
</g>
<!-- Node3 -->
<g id="node3" class="node"><title>Node3</title>
<polygon fill="none" stroke="#bfbfbf" points="79,-0.5 79,-19.5 186,-19.5 186,-0.5 79,-0.5"/>
<text text-anchor="middle" x="132.5" y="-7.5" font-family="Helvetica,sans-Serif" font-size="10.00">log4cpp/Category.hh</text>
</g>
<!-- Node1&#45;&gt;Node3 -->
<g id="edge2" class="edge"><title>Node1&#45;&gt;Node3</title>
<path fill="none" stroke="midnightblue" d="M132.5,-56.083C132.5,-49.0059 132.5,-38.8611 132.5,-29.9865"/>
<polygon fill="midnightblue" stroke="midnightblue" points="136,-29.751 132.5,-19.7511 129,-29.7511 136,-29.751"/>
</g>
<!-- Node4 -->
<g id="node4" class="node"><title>Node4</title>
<polygon fill="none" stroke="#bfbfbf" points="204,-0.5 204,-19.5 351,-19.5 351,-0.5 204,-0.5"/>
<text text-anchor="middle" x="277.5" y="-7.5" font-family="Helvetica,sans-Serif" font-size="10.00">Engine/Core/BufferObject.hpp</text>
</g>
<!-- Node1&#45;&gt;Node4 -->
<g id="edge3" class="edge"><title>Node1&#45;&gt;Node4</title>
<path fill="none" stroke="midnightblue" d="M155.476,-56.4435C179.657,-47.4381 217.918,-33.1891 245.146,-23.049"/>
<polygon fill="midnightblue" stroke="midnightblue" points="246.482,-26.2864 254.632,-19.5164 244.039,-19.7265 246.482,-26.2864"/>
</g>
</g>
</svg>
