<?xml version="1.0" encoding="UTF-8" standalone="no"?>
<!DOCTYPE svg PUBLIC "-//W3C//DTD SVG 1.1//EN"
 "http://www.w3.org/Graphics/SVG/1.1/DTD/svg11.dtd">
<!-- Generated by graphviz version 2.38.0 (20140413.2041)
 -->
<!-- Title: engine/BufferObject/BufferObject.cpp Pages: 1 -->
<svg width="1367pt" height="554pt"
 viewBox="0.00 0.00 1366.50 554.00" xmlns="http://www.w3.org/2000/svg" xmlns:xlink="http://www.w3.org/1999/xlink">
<g id="graph0" class="graph" transform="scale(1 1) rotate(0) translate(4 550)">
<title>engine/BufferObject/BufferObject.cpp</title>
<!-- Node1 -->
<g id="node1" class="node"><title>Node1</title>
<polygon fill="#bfbfbf" stroke="black" points="929.5,-515.5 929.5,-545.5 1032.5,-545.5 1032.5,-515.5 929.5,-515.5"/>
<text text-anchor="start" x="937.5" y="-533.5" font-family="Helvetica,sans-Serif" font-size="10.00">engine/BufferObject</text>
<text text-anchor="middle" x="981" y="-522.5" font-family="Helvetica,sans-Serif" font-size="10.00">/BufferObject.cpp</text>
</g>
<!-- Node2 -->
<g id="node2" class="node"><title>Node2</title>
<g id="a_node2"><a xlink:href="../../da/d04/BufferObject_8hpp.html" target="_top" xlink:title="BufferObject.hpp">
<polygon fill="none" stroke="black" points="142,-112.5 142,-131.5 232,-131.5 232,-112.5 142,-112.5"/>
<text text-anchor="middle" x="187" y="-119.5" font-family="Helvetica,sans-Serif" font-size="10.00">BufferObject.hpp</text>
</a>
</g>
</g>
<!-- Node1&#45;&gt;Node2 -->
<g id="edge1" class="edge"><title>Node1&#45;&gt;Node2</title>
<path fill="none" stroke="midnightblue" d="M929.295,-528.615C726.965,-524.48 0,-503.043 0,-408.5 0,-408.5 0,-408.5 0,-233 0,-171.302 76.5622,-143.524 131.708,-131.518"/>
<polygon fill="midnightblue" stroke="midnightblue" points="132.643,-134.899 141.733,-129.455 131.232,-128.043 132.643,-134.899"/>
</g>
<!-- Node5 -->
<g id="node5" class="node"><title>Node5</title>
<g id="a_node5"><a xlink:href="../../d1/d2a/glwindow_8h.html" target="_top" xlink:title="glwindow.h">
<polygon fill="none" stroke="black" points="948.5,-459.5 948.5,-478.5 1013.5,-478.5 1013.5,-459.5 948.5,-459.5"/>
<text text-anchor="middle" x="981" y="-466.5" font-family="Helvetica,sans-Serif" font-size="10.00">glwindow.h</text>
</a>
</g>
</g>
<!-- Node1&#45;&gt;Node5 -->
<g id="edge4" class="edge"><title>Node1&#45;&gt;Node5</title>
<path fill="none" stroke="midnightblue" d="M981,-515.399C981,-507.466 981,-497.458 981,-488.858"/>
<polygon fill="midnightblue" stroke="midnightblue" points="984.5,-488.658 981,-478.658 977.5,-488.658 984.5,-488.658"/>
</g>
<!-- Node35 -->
<g id="node35" class="node"><title>Node35</title>
<polygon fill="none" stroke="#bfbfbf" points="1031.5,-459.5 1031.5,-478.5 1138.5,-478.5 1138.5,-459.5 1031.5,-459.5"/>
<text text-anchor="middle" x="1085" y="-466.5" font-family="Helvetica,sans-Serif" font-size="10.00">log4cpp/Category.hh</text>
</g>
<!-- Node1&#45;&gt;Node35 -->
<g id="edge53" class="edge"><title>Node1&#45;&gt;Node35</title>
<path fill="none" stroke="midnightblue" d="M1005.65,-515.399C1022.32,-505.862 1044.23,-493.325 1060.81,-483.842"/>
<polygon fill="midnightblue" stroke="midnightblue" points="1062.93,-486.662 1069.87,-478.658 1059.45,-480.586 1062.93,-486.662"/>
</g>
<!-- Node3 -->
<g id="node3" class="node"><title>Node3</title>
<polygon fill="none" stroke="#bfbfbf" points="416,-56.5 416,-75.5 460,-75.5 460,-56.5 416,-56.5"/>
<text text-anchor="middle" x="438" y="-63.5" font-family="Helvetica,sans-Serif" font-size="10.00">vector</text>
</g>
<!-- Node2&#45;&gt;Node3 -->
<g id="edge2" class="edge"><title>Node2&#45;&gt;Node3</title>
<path fill="none" stroke="midnightblue" d="M226.772,-112.444C276.402,-101.766 360.295,-83.7174 405.993,-73.8859"/>
<polygon fill="midnightblue" stroke="midnightblue" points="406.903,-77.2704 415.943,-71.7454 405.43,-70.427 406.903,-77.2704"/>
</g>
<!-- Node4 -->
<g id="node4" class="node"><title>Node4</title>
<polygon fill="none" stroke="#bfbfbf" points="188,-56.5 188,-75.5 258,-75.5 258,-56.5 188,-56.5"/>
<text text-anchor="middle" x="223" y="-63.5" font-family="Helvetica,sans-Serif" font-size="10.00">glm/glm.hpp</text>
</g>
<!-- Node2&#45;&gt;Node4 -->
<g id="edge3" class="edge"><title>Node2&#45;&gt;Node4</title>
<path fill="none" stroke="midnightblue" d="M192.945,-112.083C197.977,-104.534 205.337,-93.4948 211.513,-84.2298"/>
<polygon fill="midnightblue" stroke="midnightblue" points="214.531,-86.0131 217.166,-75.7511 208.707,-82.1301 214.531,-86.0131"/>
</g>
<!-- Node6 -->
<g id="node6" class="node"><title>Node6</title>
<polygon fill="none" stroke="#bfbfbf" points="904.5,-398 904.5,-417 963.5,-417 963.5,-398 904.5,-398"/>
<text text-anchor="middle" x="934" y="-405" font-family="Helvetica,sans-Serif" font-size="10.00">QWindow</text>
</g>
<!-- Node5&#45;&gt;Node6 -->
<g id="edge5" class="edge"><title>Node5&#45;&gt;Node6</title>
<path fill="none" stroke="midnightblue" d="M974.266,-459.475C967.216,-450.55 955.965,-436.307 947.146,-425.143"/>
<polygon fill="midnightblue" stroke="midnightblue" points="949.667,-422.687 940.721,-417.009 944.174,-427.026 949.667,-422.687"/>
</g>
<!-- Node7 -->
<g id="node7" class="node"><title>Node7</title>
<polygon fill="none" stroke="#bfbfbf" points="981.5,-398 981.5,-417 1076.5,-417 1076.5,-398 981.5,-398"/>
<text text-anchor="middle" x="1029" y="-405" font-family="Helvetica,sans-Serif" font-size="10.00">QOpenGLContext</text>
</g>
<!-- Node5&#45;&gt;Node7 -->
<g id="edge6" class="edge"><title>Node5&#45;&gt;Node7</title>
<path fill="none" stroke="midnightblue" d="M987.877,-459.475C995.149,-450.462 1006.8,-436.025 1015.84,-424.812"/>
<polygon fill="midnightblue" stroke="midnightblue" points="1018.58,-426.99 1022.14,-417.009 1013.13,-422.595 1018.58,-426.99"/>
</g>
<!-- Node8 -->
<g id="node8" class="node"><title>Node8</title>
<polygon fill="none" stroke="#bfbfbf" points="1094.5,-392.5 1094.5,-422.5 1207.5,-422.5 1207.5,-392.5 1094.5,-392.5"/>
<text text-anchor="start" x="1102.5" y="-410.5" font-family="Helvetica,sans-Serif" font-size="10.00">QOpenGLFunctions_4</text>
<text text-anchor="middle" x="1151" y="-399.5" font-family="Helvetica,sans-Serif" font-size="10.00">_2_Core</text>
</g>
<!-- Node5&#45;&gt;Node8 -->
<g id="edge7" class="edge"><title>Node5&#45;&gt;Node8</title>
<path fill="none" stroke="midnightblue" d="M1005.36,-459.475C1030.32,-450.739 1069.84,-436.907 1101.41,-425.855"/>
<polygon fill="midnightblue" stroke="midnightblue" points="1102.65,-429.13 1110.93,-422.523 1100.34,-422.523 1102.65,-429.13"/>
</g>
<!-- Node9 -->
<g id="node9" class="node"><title>Node9</title>
<polygon fill="none" stroke="#bfbfbf" points="1225.5,-398 1225.5,-417 1292.5,-417 1292.5,-398 1225.5,-398"/>
<text text-anchor="middle" x="1259" y="-405" font-family="Helvetica,sans-Serif" font-size="10.00">QKeyEvent</text>
</g>
<!-- Node5&#45;&gt;Node9 -->
<g id="edge8" class="edge"><title>Node5&#45;&gt;Node9</title>
<path fill="none" stroke="midnightblue" d="M1013.65,-460.729C1016.47,-460.132 1019.29,-459.548 1022,-459 1108.39,-441.55 1131.77,-445.443 1217,-423 1220.04,-422.201 1223.17,-421.289 1226.29,-420.321"/>
<polygon fill="midnightblue" stroke="midnightblue" points="1227.67,-423.55 1236.08,-417.106 1225.49,-416.899 1227.67,-423.55"/>
</g>
<!-- Node10 -->
<g id="node10" class="node"><title>Node10</title>
<polygon fill="none" stroke="#bfbfbf" points="1311,-398 1311,-417 1357,-417 1357,-398 1311,-398"/>
<text text-anchor="middle" x="1334" y="-405" font-family="Helvetica,sans-Serif" font-size="10.00">QTime</text>
</g>
<!-- Node5&#45;&gt;Node10 -->
<g id="edge9" class="edge"><title>Node5&#45;&gt;Node10</title>
<path fill="none" stroke="midnightblue" d="M1013.62,-460.567C1016.45,-460.005 1019.27,-459.474 1022,-459 1145.62,-437.528 1181.3,-457.271 1302,-423 1303.94,-422.45 1305.91,-421.801 1307.87,-421.088"/>
<polygon fill="midnightblue" stroke="midnightblue" points="1309.51,-424.196 1317.42,-417.144 1306.84,-417.726 1309.51,-424.196"/>
</g>
<!-- Node11 -->
<g id="node11" class="node"><title>Node11</title>
<g id="a_node11"><a xlink:href="../../d4/d1c/GameEngine_8hpp.html" target="_top" xlink:title="GameEngine.hpp">
<polygon fill="none" stroke="black" points="696,-398 696,-417 788,-417 788,-398 696,-398"/>
<text text-anchor="middle" x="742" y="-405" font-family="Helvetica,sans-Serif" font-size="10.00">GameEngine.hpp</text>
</a>
</g>
</g>
<!-- Node5&#45;&gt;Node11 -->
<g id="edge10" class="edge"><title>Node5&#45;&gt;Node11</title>
<path fill="none" stroke="midnightblue" d="M948.383,-460.21C911.569,-451.373 849.909,-436.443 797,-423 792.684,-421.903 788.182,-420.743 783.694,-419.576"/>
<polygon fill="midnightblue" stroke="midnightblue" points="784.527,-416.176 773.966,-417.031 782.755,-422.948 784.527,-416.176"/>
</g>
<!-- Node27 -->
<g id="node27" class="node"><title>Node27</title>
<g id="a_node27"><a xlink:href="../../dc/d51/model_8h.html" target="_top" xlink:title="model/model.h">
<polygon fill="none" stroke="black" points="806,-398 806,-417 886,-417 886,-398 806,-398"/>
<text text-anchor="middle" x="846" y="-405" font-family="Helvetica,sans-Serif" font-size="10.00">model/model.h</text>
</a>
</g>
</g>
<!-- Node5&#45;&gt;Node27 -->
<g id="edge45" class="edge"><title>Node5&#45;&gt;Node27</title>
<path fill="none" stroke="midnightblue" d="M961.658,-459.475C938.901,-449.445 900.908,-432.7 874.712,-421.155"/>
<polygon fill="midnightblue" stroke="midnightblue" points="875.869,-417.839 865.306,-417.009 873.045,-424.245 875.869,-417.839"/>
</g>
<!-- Node12 -->
<g id="node12" class="node"><title>Node12</title>
<g id="a_node12"><a xlink:href="../../de/df7/worldparticles_8hpp.html" target="_top" xlink:title="wordparticles configuration file ">
<polygon fill="none" stroke="black" points="778.5,-112.5 778.5,-131.5 873.5,-131.5 873.5,-112.5 778.5,-112.5"/>
<text text-anchor="middle" x="826" y="-119.5" font-family="Helvetica,sans-Serif" font-size="10.00">worldparticles.hpp</text>
</a>
</g>
</g>
<!-- Node11&#45;&gt;Node12 -->
<g id="edge11" class="edge"><title>Node11&#45;&gt;Node12</title>
<path fill="none" stroke="midnightblue" d="M760.914,-397.929C793.082,-381.906 855,-344.16 855,-291 855,-291 855,-291 855,-233 855,-199.716 842.432,-162.584 833.844,-141.094"/>
<polygon fill="midnightblue" stroke="midnightblue" points="836.982,-139.525 829.911,-131.635 830.518,-142.213 836.982,-139.525"/>
</g>
<!-- Node13 -->
<g id="node13" class="node"><title>Node13</title>
<g id="a_node13"><a xlink:href="../../db/de8/Scene_8hpp.html" target="_top" xlink:title="Scene.hpp">
<polygon fill="none" stroke="black" points="577.5,-336.5 577.5,-355.5 640.5,-355.5 640.5,-336.5 577.5,-336.5"/>
<text text-anchor="middle" x="609" y="-343.5" font-family="Helvetica,sans-Serif" font-size="10.00">Scene.hpp</text>
</a>
</g>
</g>
<!-- Node11&#45;&gt;Node13 -->
<g id="edge12" class="edge"><title>Node11&#45;&gt;Node13</title>
<path fill="none" stroke="midnightblue" d="M722.944,-397.975C700.525,-387.945 663.095,-371.2 637.287,-359.655"/>
<polygon fill="midnightblue" stroke="midnightblue" points="638.578,-356.398 628.02,-355.509 635.719,-362.788 638.578,-356.398"/>
</g>
<!-- Node14 -->
<g id="node14" class="node"><title>Node14</title>
<polygon fill="none" stroke="#bfbfbf" points="667,-56.5 667,-75.5 719,-75.5 719,-56.5 667,-56.5"/>
<text text-anchor="middle" x="693" y="-63.5" font-family="Helvetica,sans-Serif" font-size="10.00">memory</text>
</g>
<!-- Node13&#45;&gt;Node14 -->
<g id="edge13" class="edge"><title>Node13&#45;&gt;Node14</title>
<path fill="none" stroke="midnightblue" d="M640.635,-340.041C716.398,-327.275 902,-290.354 902,-235 902,-235 902,-235 902,-177 902,-146.775 904.053,-132.67 882,-112 860.161,-91.5316 777.765,-77.8154 729.273,-71.3268"/>
<polygon fill="midnightblue" stroke="midnightblue" points="729.551,-67.8336 719.183,-70.0154 728.649,-74.7752 729.551,-67.8336"/>
</g>
<!-- Node15 -->
<g id="node15" class="node"><title>Node15</title>
<polygon fill="none" stroke="#bfbfbf" points="616.5,-280.5 616.5,-299.5 645.5,-299.5 645.5,-280.5 616.5,-280.5"/>
<text text-anchor="middle" x="631" y="-287.5" font-family="Helvetica,sans-Serif" font-size="10.00">list</text>
</g>
<!-- Node13&#45;&gt;Node15 -->
<g id="edge14" class="edge"><title>Node13&#45;&gt;Node15</title>
<path fill="none" stroke="midnightblue" d="M612.633,-336.083C615.612,-328.77 619.926,-318.181 623.625,-309.103"/>
<polygon fill="midnightblue" stroke="midnightblue" points="626.903,-310.333 627.435,-299.751 620.42,-307.691 626.903,-310.333"/>
</g>
<!-- Node16 -->
<g id="node16" class="node"><title>Node16</title>
<g id="a_node16"><a xlink:href="../../d4/db5/GameObject_8hpp.html" target="_top" xlink:title="GameObject.hpp">
<polygon fill="none" stroke="black" points="511,-224.5 511,-243.5 601,-243.5 601,-224.5 511,-224.5"/>
<text text-anchor="middle" x="556" y="-231.5" font-family="Helvetica,sans-Serif" font-size="10.00">GameObject.hpp</text>
</a>
</g>
</g>
<!-- Node13&#45;&gt;Node16 -->
<g id="edge15" class="edge"><title>Node13&#45;&gt;Node16</title>
<path fill="none" stroke="midnightblue" d="M604.841,-336.368C596.172,-318.376 576.02,-276.55 564.493,-252.627"/>
<polygon fill="midnightblue" stroke="midnightblue" points="567.633,-251.081 560.14,-243.591 561.327,-254.119 567.633,-251.081"/>
</g>
<!-- Node25 -->
<g id="node25" class="node"><title>Node25</title>
<g id="a_node25"><a xlink:href="../../d6/d80/Camera_8hpp.html" target="_top" xlink:title="Camera.hpp">
<polygon fill="none" stroke="black" points="244,-280.5 244,-299.5 314,-299.5 314,-280.5 244,-280.5"/>
<text text-anchor="middle" x="279" y="-287.5" font-family="Helvetica,sans-Serif" font-size="10.00">Camera.hpp</text>
</a>
</g>
</g>
<!-- Node13&#45;&gt;Node25 -->
<g id="edge40" class="edge"><title>Node13&#45;&gt;Node25</title>
<path fill="none" stroke="midnightblue" d="M577.358,-339.822C518.436,-330.18 391.744,-309.449 323.96,-298.357"/>
<polygon fill="midnightblue" stroke="midnightblue" points="324.437,-294.889 314.003,-296.728 323.307,-301.797 324.437,-294.889"/>
</g>
<!-- Node26 -->
<g id="node26" class="node"><title>Node26</title>
<g id="a_node26"><a xlink:href="../../d5/dd5/Light_8hpp.html" target="_top" xlink:title="Light.hpp">
<polygon fill="none" stroke="black" points="504,-280.5 504,-299.5 560,-299.5 560,-280.5 504,-280.5"/>
<text text-anchor="middle" x="532" y="-287.5" font-family="Helvetica,sans-Serif" font-size="10.00">Light.hpp</text>
</a>
</g>
</g>
<!-- Node13&#45;&gt;Node26 -->
<g id="edge44" class="edge"><title>Node13&#45;&gt;Node26</title>
<path fill="none" stroke="midnightblue" d="M596.629,-336.324C584.842,-328.058 566.868,-315.453 552.864,-305.632"/>
<polygon fill="midnightblue" stroke="midnightblue" points="554.538,-302.531 544.341,-299.655 550.518,-308.262 554.538,-302.531"/>
</g>
<!-- Node16&#45;&gt;Node4 -->
<g id="edge16" class="edge"><title>Node16&#45;&gt;Node4</title>
<path fill="none" stroke="midnightblue" d="M510.745,-229.203C411.334,-219.816 179.069,-191.818 133,-132 115.042,-108.682 150.53,-90.0546 182.094,-78.8188"/>
<polygon fill="midnightblue" stroke="midnightblue" points="183.347,-82.0898 191.7,-75.5721 181.105,-75.4583 183.347,-82.0898"/>
</g>
<!-- Node16&#45;&gt;Node12 -->
<g id="edge18" class="edge"><title>Node16&#45;&gt;Node12</title>
<path fill="none" stroke="midnightblue" d="M601.172,-229.646C662.597,-224.255 768.24,-211.769 798,-188 812.23,-176.634 819.368,-156.641 822.857,-141.82"/>
<polygon fill="midnightblue" stroke="midnightblue" points="826.347,-142.214 824.87,-131.723 819.482,-140.845 826.347,-142.214"/>
</g>
<!-- Node16&#45;&gt;Node14 -->
<g id="edge17" class="edge"><title>Node16&#45;&gt;Node14</title>
<path fill="none" stroke="midnightblue" d="M570.541,-224.347C595.246,-208.908 645.413,-174.237 673,-132 682.18,-117.945 687.332,-99.4505 690.099,-85.7844"/>
<polygon fill="midnightblue" stroke="midnightblue" points="693.598,-86.1016 691.898,-75.6439 686.705,-84.8787 693.598,-86.1016"/>
</g>
<!-- Node17 -->
<g id="node17" class="node"><title>Node17</title>
<g id="a_node17"><a xlink:href="../../da/d83/Transform_8hpp.html" target="_top" xlink:title="Transform.hpp">
<polygon fill="none" stroke="black" points="66,-168.5 66,-187.5 146,-187.5 146,-168.5 66,-168.5"/>
<text text-anchor="middle" x="106" y="-175.5" font-family="Helvetica,sans-Serif" font-size="10.00">Transform.hpp</text>
</a>
</g>
</g>
<!-- Node16&#45;&gt;Node17 -->
<g id="edge19" class="edge"><title>Node16&#45;&gt;Node17</title>
<path fill="none" stroke="midnightblue" d="M510.768,-228.633C437.121,-221.349 286.769,-205.755 160,-188 158.729,-187.822 157.442,-187.638 156.145,-187.448"/>
<polygon fill="midnightblue" stroke="midnightblue" points="156.481,-183.96 146.069,-185.916 155.429,-190.88 156.481,-183.96"/>
</g>
<!-- Node18 -->
<g id="node18" class="node"><title>Node18</title>
<g id="a_node18"><a xlink:href="../../d1/dca/IRenderer_8hpp.html" target="_top" xlink:title="IRenderer.hpp">
<polygon fill="none" stroke="black" points="711,-168.5 711,-187.5 789,-187.5 789,-168.5 711,-168.5"/>
<text text-anchor="middle" x="750" y="-175.5" font-family="Helvetica,sans-Serif" font-size="10.00">IRenderer.hpp</text>
</a>
</g>
</g>
<!-- Node16&#45;&gt;Node18 -->
<g id="edge21" class="edge"><title>Node16&#45;&gt;Node18</title>
<path fill="none" stroke="midnightblue" d="M586.74,-224.444C619.944,-215.201 672.991,-200.436 709.557,-190.257"/>
<polygon fill="midnightblue" stroke="midnightblue" points="710.709,-193.57 719.404,-187.516 708.832,-186.826 710.709,-193.57"/>
</g>
<!-- Node19 -->
<g id="node19" class="node"><title>Node19</title>
<g id="a_node19"><a xlink:href="../../d0/d70/Material_8hpp.html" target="_top" xlink:title="Material.hpp">
<polygon fill="none" stroke="black" points="521,-168.5 521,-187.5 591,-187.5 591,-168.5 521,-168.5"/>
<text text-anchor="middle" x="556" y="-175.5" font-family="Helvetica,sans-Serif" font-size="10.00">Material.hpp</text>
</a>
</g>
</g>
<!-- Node16&#45;&gt;Node19 -->
<g id="edge25" class="edge"><title>Node16&#45;&gt;Node19</title>
<path fill="none" stroke="midnightblue" d="M556,-224.083C556,-217.006 556,-206.861 556,-197.986"/>
<polygon fill="midnightblue" stroke="midnightblue" points="559.5,-197.751 556,-187.751 552.5,-197.751 559.5,-197.751"/>
</g>
<!-- Node23 -->
<g id="node23" class="node"><title>Node23</title>
<g id="a_node23"><a xlink:href="../../d1/d62/Mesh_8hpp.html" target="_top" xlink:title="Mesh.hpp">
<polygon fill="none" stroke="black" points="354.5,-168.5 354.5,-187.5 413.5,-187.5 413.5,-168.5 354.5,-168.5"/>
<text text-anchor="middle" x="384" y="-175.5" font-family="Helvetica,sans-Serif" font-size="10.00">Mesh.hpp</text>
</a>
</g>
</g>
<!-- Node16&#45;&gt;Node23 -->
<g id="edge34" class="edge"><title>Node16&#45;&gt;Node23</title>
<path fill="none" stroke="midnightblue" d="M528.746,-224.444C499.559,-215.28 453.079,-200.688 420.691,-190.519"/>
<polygon fill="midnightblue" stroke="midnightblue" points="421.716,-187.173 411.126,-187.516 419.619,-193.851 421.716,-187.173"/>
</g>
<!-- Node17&#45;&gt;Node4 -->
<g id="edge20" class="edge"><title>Node17&#45;&gt;Node4</title>
<path fill="none" stroke="midnightblue" d="M101.824,-168.084C96.2013,-154.626 88.1837,-128.905 100,-112 117.442,-87.046 150.286,-75.8852 177.65,-70.9154"/>
<polygon fill="midnightblue" stroke="midnightblue" points="178.499,-74.3245 187.825,-69.298 177.4,-67.4113 178.499,-74.3245"/>
</g>
<!-- Node18&#45;&gt;Node4 -->
<g id="edge22" class="edge"><title>Node18&#45;&gt;Node4</title>
<path fill="none" stroke="midnightblue" d="M710.904,-171.212C660.676,-163.522 570.909,-148.92 495,-132 461.747,-124.588 454.062,-120.221 421,-112 368.759,-99.0096 308.389,-85.5049 268.177,-76.7218"/>
<polygon fill="midnightblue" stroke="midnightblue" points="268.669,-73.2468 258.153,-74.5389 267.179,-80.0865 268.669,-73.2468"/>
</g>
<!-- Node18&#45;&gt;Node12 -->
<g id="edge24" class="edge"><title>Node18&#45;&gt;Node12</title>
<path fill="none" stroke="midnightblue" d="M762.211,-168.324C773.776,-160.107 791.375,-147.602 805.161,-137.807"/>
<polygon fill="midnightblue" stroke="midnightblue" points="807.443,-140.479 813.567,-131.834 803.388,-134.773 807.443,-140.479"/>
</g>
<!-- Node18&#45;&gt;Node14 -->
<g id="edge23" class="edge"><title>Node18&#45;&gt;Node14</title>
<path fill="none" stroke="midnightblue" d="M747.621,-168.258C743.952,-155.459 736.252,-131.072 726,-112 720.678,-102.099 713.401,-91.9283 707.034,-83.7669"/>
<polygon fill="midnightblue" stroke="midnightblue" points="709.62,-81.3969 700.619,-75.8072 704.169,-85.7896 709.62,-81.3969"/>
</g>
<!-- Node19&#45;&gt;Node4 -->
<g id="edge26" class="edge"><title>Node19&#45;&gt;Node4</title>
<path fill="none" stroke="midnightblue" d="M534.506,-168.471C501.527,-155.519 436.339,-130.449 380,-112 341.461,-99.3797 296.981,-86.8153 265.227,-78.1835"/>
<polygon fill="midnightblue" stroke="midnightblue" points="265.954,-74.7547 255.388,-75.524 264.128,-81.5122 265.954,-74.7547"/>
</g>
<!-- Node19&#45;&gt;Node14 -->
<g id="edge27" class="edge"><title>Node19&#45;&gt;Node14</title>
<path fill="none" stroke="midnightblue" d="M583.371,-168.368C603.444,-161.041 630.487,-148.991 650,-132 665.109,-118.844 677.125,-99.163 684.571,-84.9053"/>
<polygon fill="midnightblue" stroke="midnightblue" points="687.853,-86.1663 689.165,-75.653 681.583,-83.0534 687.853,-86.1663"/>
</g>
<!-- Node20 -->
<g id="node20" class="node"><title>Node20</title>
<g id="a_node20"><a xlink:href="../../dc/ddb/ShaderProgram_8hpp.html" target="_top" xlink:title="ShaderProgram.hpp">
<polygon fill="none" stroke="black" points="504.5,-112.5 504.5,-131.5 607.5,-131.5 607.5,-112.5 504.5,-112.5"/>
<text text-anchor="middle" x="556" y="-119.5" font-family="Helvetica,sans-Serif" font-size="10.00">ShaderProgram.hpp</text>
</a>
</g>
</g>
<!-- Node19&#45;&gt;Node20 -->
<g id="edge28" class="edge"><title>Node19&#45;&gt;Node20</title>
<path fill="none" stroke="midnightblue" d="M556,-168.083C556,-161.006 556,-150.861 556,-141.986"/>
<polygon fill="midnightblue" stroke="midnightblue" points="559.5,-141.751 556,-131.751 552.5,-141.751 559.5,-141.751"/>
</g>
<!-- Node20&#45;&gt;Node3 -->
<g id="edge30" class="edge"><title>Node20&#45;&gt;Node3</title>
<path fill="none" stroke="midnightblue" d="M537.303,-112.444C518.056,-103.636 487.848,-89.8116 465.8,-79.722"/>
<polygon fill="midnightblue" stroke="midnightblue" points="467.16,-76.4951 456.61,-75.5164 464.247,-82.8603 467.16,-76.4951"/>
</g>
<!-- Node20&#45;&gt;Node4 -->
<g id="edge29" class="edge"><title>Node20&#45;&gt;Node4</title>
<path fill="none" stroke="midnightblue" d="M504.334,-112.622C439.747,-102.148 330.212,-84.3857 268.6,-74.3946"/>
<polygon fill="midnightblue" stroke="midnightblue" points="268.838,-70.8875 258.406,-72.7416 267.717,-77.7972 268.838,-70.8875"/>
</g>
<!-- Node20&#45;&gt;Node14 -->
<g id="edge31" class="edge"><title>Node20&#45;&gt;Node14</title>
<path fill="none" stroke="midnightblue" d="M577.708,-112.444C600.355,-103.517 636.072,-89.4387 661.752,-79.3168"/>
<polygon fill="midnightblue" stroke="midnightblue" points="663.374,-82.4397 671.394,-75.5164 660.807,-75.9273 663.374,-82.4397"/>
</g>
<!-- Node21 -->
<g id="node21" class="node"><title>Node21</title>
<g id="a_node21"><a xlink:href="../../d4/d6e/Shader_8hpp.html" target="_top" xlink:title="Shader.hpp">
<polygon fill="none" stroke="black" points="523,-56.5 523,-75.5 589,-75.5 589,-56.5 523,-56.5"/>
<text text-anchor="middle" x="556" y="-63.5" font-family="Helvetica,sans-Serif" font-size="10.00">Shader.hpp</text>
</a>
</g>
</g>
<!-- Node20&#45;&gt;Node21 -->
<g id="edge32" class="edge"><title>Node20&#45;&gt;Node21</title>
<path fill="none" stroke="midnightblue" d="M556,-112.083C556,-105.006 556,-94.8611 556,-85.9865"/>
<polygon fill="midnightblue" stroke="midnightblue" points="559.5,-85.751 556,-75.7511 552.5,-85.7511 559.5,-85.751"/>
</g>
<!-- Node22 -->
<g id="node22" class="node"><title>Node22</title>
<polygon fill="none" stroke="#bfbfbf" points="535.5,-0.5 535.5,-19.5 576.5,-19.5 576.5,-0.5 535.5,-0.5"/>
<text text-anchor="middle" x="556" y="-7.5" font-family="Helvetica,sans-Serif" font-size="10.00">string</text>
</g>
<!-- Node21&#45;&gt;Node22 -->
<g id="edge33" class="edge"><title>Node21&#45;&gt;Node22</title>
<path fill="none" stroke="midnightblue" d="M556,-56.083C556,-49.0059 556,-38.8611 556,-29.9865"/>
<polygon fill="midnightblue" stroke="midnightblue" points="559.5,-29.751 556,-19.7511 552.5,-29.7511 559.5,-29.751"/>
</g>
<!-- Node23&#45;&gt;Node2 -->
<g id="edge39" class="edge"><title>Node23&#45;&gt;Node2</title>
<path fill="none" stroke="midnightblue" d="M354.08,-168.799C320.53,-159.602 265.907,-144.629 228.303,-134.322"/>
<polygon fill="midnightblue" stroke="midnightblue" points="228.749,-130.815 218.18,-131.547 226.899,-137.566 228.749,-130.815"/>
</g>
<!-- Node23&#45;&gt;Node3 -->
<g id="edge35" class="edge"><title>Node23&#45;&gt;Node3</title>
<path fill="none" stroke="midnightblue" d="M388.237,-168.368C397.07,-150.376 417.603,-108.55 429.347,-84.6267"/>
<polygon fill="midnightblue" stroke="midnightblue" points="432.517,-86.1105 433.782,-75.5914 426.234,-83.0257 432.517,-86.1105"/>
</g>
<!-- Node23&#45;&gt;Node4 -->
<g id="edge37" class="edge"><title>Node23&#45;&gt;Node4</title>
<path fill="none" stroke="midnightblue" d="M354.522,-168.388C332.381,-161.006 302.038,-148.878 279,-132 260.864,-118.713 244.647,-98.4986 234.39,-84.1441"/>
<polygon fill="midnightblue" stroke="midnightblue" points="237.114,-81.9284 228.551,-75.689 231.354,-85.9064 237.114,-81.9284"/>
</g>
<!-- Node23&#45;&gt;Node14 -->
<g id="edge36" class="edge"><title>Node23&#45;&gt;Node14</title>
<path fill="none" stroke="midnightblue" d="M413.688,-175.995C459.311,-173.429 548.458,-164.322 616,-132 640.765,-120.149 664.104,-98.3999 678.458,-83.3427"/>
<polygon fill="midnightblue" stroke="midnightblue" points="681.24,-85.4895 685.461,-75.7714 676.101,-80.7366 681.24,-85.4895"/>
</g>
<!-- Node24 -->
<g id="node24" class="node"><title>Node24</title>
<polygon fill="none" stroke="#bfbfbf" points="288.5,-112.5 288.5,-131.5 371.5,-131.5 371.5,-112.5 288.5,-112.5"/>
<text text-anchor="middle" x="330" y="-119.5" font-family="Helvetica,sans-Serif" font-size="10.00">assimp/mesh.h</text>
</g>
<!-- Node23&#45;&gt;Node24 -->
<g id="edge38" class="edge"><title>Node23&#45;&gt;Node24</title>
<path fill="none" stroke="midnightblue" d="M375.083,-168.083C367.22,-160.22 355.569,-148.569 346.081,-139.081"/>
<polygon fill="midnightblue" stroke="midnightblue" points="348.297,-136.347 338.751,-131.751 343.347,-141.297 348.297,-136.347"/>
</g>
<!-- Node25&#45;&gt;Node4 -->
<g id="edge41" class="edge"><title>Node25&#45;&gt;Node4</title>
<path fill="none" stroke="midnightblue" d="M243.947,-284.838C192.434,-276.614 97.9657,-253.024 57,-188 39.3512,-159.986 81.1541,-119.187 90,-112 115.191,-91.5343 150.156,-80.1843 177.914,-74.0039"/>
<polygon fill="midnightblue" stroke="midnightblue" points="178.704,-77.4146 187.783,-71.9535 177.28,-70.5609 178.704,-77.4146"/>
</g>
<!-- Node25&#45;&gt;Node16 -->
<g id="edge43" class="edge"><title>Node25&#45;&gt;Node16</title>
<path fill="none" stroke="midnightblue" d="M314.082,-282.161C361.501,-272.917 446.498,-256.347 502.067,-245.514"/>
<polygon fill="midnightblue" stroke="midnightblue" points="502.939,-248.91 512.085,-243.561 501.6,-242.039 502.939,-248.91"/>
</g>
<!-- Node25&#45;&gt;Node17 -->
<g id="edge42" class="edge"><title>Node25&#45;&gt;Node17</title>
<path fill="none" stroke="midnightblue" d="M265.425,-280.368C235.738,-261.492 164.796,-216.385 128.39,-193.237"/>
<polygon fill="midnightblue" stroke="midnightblue" points="129.829,-190.004 119.512,-187.591 126.073,-195.911 129.829,-190.004"/>
</g>
<!-- Node28 -->
<g id="node28" class="node"><title>Node28</title>
<g id="a_node28"><a xlink:href="../../d5/da5/tools_8h.html" target="_top" xlink:title="tools.h">
<polygon fill="none" stroke="black" points="1074,-336.5 1074,-355.5 1120,-355.5 1120,-336.5 1074,-336.5"/>
<text text-anchor="middle" x="1097" y="-343.5" font-family="Helvetica,sans-Serif" font-size="10.00">tools.h</text>
</a>
</g>
</g>
<!-- Node27&#45;&gt;Node28 -->
<g id="edge46" class="edge"><title>Node27&#45;&gt;Node28</title>
<path fill="none" stroke="midnightblue" d="M873.635,-397.962C880.584,-395.915 888.044,-393.802 895,-392 954.067,-376.7 1023.66,-361.897 1063.82,-353.664"/>
<polygon fill="midnightblue" stroke="midnightblue" points="1064.75,-357.045 1073.85,-351.618 1063.36,-350.186 1064.75,-357.045"/>
</g>
<!-- Node29 -->
<g id="node29" class="node"><title>Node29</title>
<polygon fill="none" stroke="#bfbfbf" points="996,-280.5 996,-299.5 1046,-299.5 1046,-280.5 996,-280.5"/>
<text text-anchor="middle" x="1021" y="-287.5" font-family="Helvetica,sans-Serif" font-size="10.00">QString</text>
</g>
<!-- Node28&#45;&gt;Node29 -->
<g id="edge47" class="edge"><title>Node28&#45;&gt;Node29</title>
<path fill="none" stroke="midnightblue" d="M1084.79,-336.324C1073.22,-328.107 1055.62,-315.602 1041.84,-305.807"/>
<polygon fill="midnightblue" stroke="midnightblue" points="1043.61,-302.773 1033.43,-299.834 1039.56,-308.479 1043.61,-302.773"/>
</g>
<!-- Node30 -->
<g id="node30" class="node"><title>Node30</title>
<polygon fill="none" stroke="#bfbfbf" points="1064.5,-280.5 1064.5,-299.5 1129.5,-299.5 1129.5,-280.5 1064.5,-280.5"/>
<text text-anchor="middle" x="1097" y="-287.5" font-family="Helvetica,sans-Serif" font-size="10.00">QVector3D</text>
</g>
<!-- Node28&#45;&gt;Node30 -->
<g id="edge48" class="edge"><title>Node28&#45;&gt;Node30</title>
<path fill="none" stroke="midnightblue" d="M1097,-336.083C1097,-329.006 1097,-318.861 1097,-309.986"/>
<polygon fill="midnightblue" stroke="midnightblue" points="1100.5,-309.751 1097,-299.751 1093.5,-309.751 1100.5,-309.751"/>
</g>
<!-- Node31 -->
<g id="node31" class="node"><title>Node31</title>
<polygon fill="none" stroke="#bfbfbf" points="1148,-280.5 1148,-299.5 1188,-299.5 1188,-280.5 1148,-280.5"/>
<text text-anchor="middle" x="1168" y="-287.5" font-family="Helvetica,sans-Serif" font-size="10.00">QList</text>
</g>
<!-- Node28&#45;&gt;Node31 -->
<g id="edge49" class="edge"><title>Node28&#45;&gt;Node31</title>
<path fill="none" stroke="midnightblue" d="M1108.41,-336.324C1119.11,-328.185 1135.34,-315.839 1148.16,-306.087"/>
<polygon fill="midnightblue" stroke="midnightblue" points="1150.54,-308.673 1156.39,-299.834 1146.31,-303.102 1150.54,-308.673"/>
</g>
<!-- Node32 -->
<g id="node32" class="node"><title>Node32</title>
<polygon fill="none" stroke="#bfbfbf" points="1206.5,-280.5 1206.5,-299.5 1249.5,-299.5 1249.5,-280.5 1206.5,-280.5"/>
<text text-anchor="middle" x="1228" y="-287.5" font-family="Helvetica,sans-Serif" font-size="10.00">QMap</text>
</g>
<!-- Node28&#45;&gt;Node32 -->
<g id="edge50" class="edge"><title>Node28&#45;&gt;Node32</title>
<path fill="none" stroke="midnightblue" d="M1117.76,-336.444C1139.32,-327.557 1173.26,-313.563 1197.79,-303.451"/>
<polygon fill="midnightblue" stroke="midnightblue" points="1199.43,-306.563 1207.34,-299.516 1196.76,-300.092 1199.43,-306.563"/>
</g>
<!-- Node33 -->
<g id="node33" class="node"><title>Node33</title>
<polygon fill="none" stroke="#bfbfbf" points="1267.5,-280.5 1267.5,-299.5 1358.5,-299.5 1358.5,-280.5 1267.5,-280.5"/>
<text text-anchor="middle" x="1313" y="-287.5" font-family="Helvetica,sans-Serif" font-size="10.00">QGraphicsScene</text>
</g>
<!-- Node28&#45;&gt;Node33 -->
<g id="edge51" class="edge"><title>Node28&#45;&gt;Node33</title>
<path fill="none" stroke="midnightblue" d="M1120.12,-339.221C1155.53,-330.368 1223.84,-313.291 1268.92,-302.019"/>
<polygon fill="midnightblue" stroke="midnightblue" points="1269.88,-305.389 1278.73,-299.568 1268.18,-298.598 1269.88,-305.389"/>
</g>
<!-- Node34 -->
<g id="node34" class="node"><title>Node34</title>
<polygon fill="none" stroke="#bfbfbf" points="930.5,-280.5 930.5,-299.5 977.5,-299.5 977.5,-280.5 930.5,-280.5"/>
<text text-anchor="middle" x="954" y="-287.5" font-family="Helvetica,sans-Serif" font-size="10.00">math.h</text>
</g>
<!-- Node28&#45;&gt;Node34 -->
<g id="edge52" class="edge"><title>Node28&#45;&gt;Node34</title>
<path fill="none" stroke="midnightblue" d="M1074.34,-336.444C1050.6,-327.478 1013.09,-313.314 986.262,-303.183"/>
<polygon fill="midnightblue" stroke="midnightblue" points="987.144,-299.775 976.553,-299.516 984.671,-306.324 987.144,-299.775"/>
</g>
</g>
</svg>
