<?xml version="1.0" encoding="UTF-8" standalone="no"?>
<!DOCTYPE svg PUBLIC "-//W3C//DTD SVG 1.1//EN"
 "http://www.w3.org/Graphics/SVG/1.1/DTD/svg11.dtd">
<!-- Generated by graphviz version 2.38.0 (20140413.2041)
 -->
<!-- Title: Core.cpp Pages: 1 -->
<svg width="1019pt" height="84pt"
 viewBox="0.00 0.00 1018.50 84.00" xmlns="http://www.w3.org/2000/svg" xmlns:xlink="http://www.w3.org/1999/xlink">
<g id="graph0" class="graph" transform="scale(1 1) rotate(0) translate(4 80)">
<title>Core.cpp</title>
<!-- Node1 -->
<g id="node1" class="node"><title>Node1</title>
<polygon fill="#bfbfbf" stroke="black" points="467.5,-56.5 467.5,-75.5 523.5,-75.5 523.5,-56.5 467.5,-56.5"/>
<text text-anchor="middle" x="495.5" y="-63.5" font-family="Helvetica,sans-Serif" font-size="10.00">Core.cpp</text>
</g>
<!-- Node2 -->
<g id="node2" class="node"><title>Node2</title>
<polygon fill="none" stroke="#bfbfbf" points="0,-0.5 0,-19.5 61,-19.5 61,-0.5 0,-0.5"/>
<text text-anchor="middle" x="30.5" y="-7.5" font-family="Helvetica,sans-Serif" font-size="10.00">GL/glew.h</text>
</g>
<!-- Node1&#45;&gt;Node2 -->
<g id="edge1" class="edge"><title>Node1&#45;&gt;Node2</title>
<path fill="none" stroke="midnightblue" d="M467.429,-63.2204C400.49,-58.7253 226.104,-45.5329 71.2564,-20.1201"/>
<polygon fill="midnightblue" stroke="midnightblue" points="71.5252,-16.6168 61.0864,-18.4285 70.3766,-23.5219 71.5252,-16.6168"/>
</g>
<!-- Node3 -->
<g id="node3" class="node"><title>Node3</title>
<polygon fill="none" stroke="#bfbfbf" points="79,-0.5 79,-19.5 186,-19.5 186,-0.5 79,-0.5"/>
<text text-anchor="middle" x="132.5" y="-7.5" font-family="Helvetica,sans-Serif" font-size="10.00">log4cpp/Category.hh</text>
</g>
<!-- Node1&#45;&gt;Node3 -->
<g id="edge2" class="edge"><title>Node1&#45;&gt;Node3</title>
<path fill="none" stroke="midnightblue" d="M467.318,-60.8076C409.41,-52.1932 275.787,-32.3154 195.961,-20.4404"/>
<polygon fill="midnightblue" stroke="midnightblue" points="196.43,-16.9718 186.023,-18.9622 195.4,-23.8956 196.43,-16.9718"/>
</g>
<!-- Node4 -->
<g id="node4" class="node"><title>Node4</title>
<polygon fill="none" stroke="#bfbfbf" points="204,-0.5 204,-19.5 361,-19.5 361,-0.5 204,-0.5"/>
<text text-anchor="middle" x="282.5" y="-7.5" font-family="Helvetica,sans-Serif" font-size="10.00">log4cpp/PropertyConfigurator.hh</text>
</g>
<!-- Node1&#45;&gt;Node4 -->
<g id="edge3" class="edge"><title>Node1&#45;&gt;Node4</title>
<path fill="none" stroke="midnightblue" d="M467.215,-57.8292C431.071,-48.6659 368.14,-32.7116 325.908,-22.0048"/>
<polygon fill="midnightblue" stroke="midnightblue" points="326.728,-18.602 316.174,-19.5371 325.007,-25.3873 326.728,-18.602"/>
</g>
<!-- Node5 -->
<g id="node5" class="node"><title>Node5</title>
<polygon fill="none" stroke="#bfbfbf" points="379,-0.5 379,-19.5 480,-19.5 480,-0.5 379,-0.5"/>
<text text-anchor="middle" x="429.5" y="-7.5" font-family="Helvetica,sans-Serif" font-size="10.00">Engine/Version.hpp</text>
</g>
<!-- Node1&#45;&gt;Node5 -->
<g id="edge4" class="edge"><title>Node1&#45;&gt;Node5</title>
<path fill="none" stroke="midnightblue" d="M484.896,-56.324C475.044,-48.2631 460.149,-36.0765 448.285,-26.3695"/>
<polygon fill="midnightblue" stroke="midnightblue" points="450.253,-23.4575 440.297,-19.8339 445.82,-28.8752 450.253,-23.4575"/>
</g>
<!-- Node6 -->
<g id="node6" class="node"><title>Node6</title>
<polygon fill="none" stroke="#bfbfbf" points="498.5,-0.5 498.5,-19.5 624.5,-19.5 624.5,-0.5 498.5,-0.5"/>
<text text-anchor="middle" x="561.5" y="-7.5" font-family="Helvetica,sans-Serif" font-size="10.00">Engine/Configuration.hpp</text>
</g>
<!-- Node1&#45;&gt;Node6 -->
<g id="edge5" class="edge"><title>Node1&#45;&gt;Node6</title>
<path fill="none" stroke="midnightblue" d="M506.104,-56.324C515.956,-48.2631 530.851,-36.0765 542.715,-26.3695"/>
<polygon fill="midnightblue" stroke="midnightblue" points="545.18,-28.8752 550.703,-19.8339 540.747,-23.4575 545.18,-28.8752"/>
</g>
<!-- Node7 -->
<g id="node7" class="node"><title>Node7</title>
<polygon fill="none" stroke="#bfbfbf" points="643,-0.5 643,-19.5 732,-19.5 732,-0.5 643,-0.5"/>
<text text-anchor="middle" x="687.5" y="-7.5" font-family="Helvetica,sans-Serif" font-size="10.00">Engine/Core.hpp</text>
</g>
<!-- Node1&#45;&gt;Node7 -->
<g id="edge6" class="edge"><title>Node1&#45;&gt;Node7</title>
<path fill="none" stroke="midnightblue" d="M523.83,-57.0321C556.439,-47.8608 610.243,-32.7286 647.203,-22.3334"/>
<polygon fill="midnightblue" stroke="midnightblue" points="648.471,-25.6128 657.15,-19.536 646.576,-18.8742 648.471,-25.6128"/>
</g>
<!-- Node8 -->
<g id="node8" class="node"><title>Node8</title>
<polygon fill="none" stroke="#bfbfbf" points="750.5,-0.5 750.5,-19.5 872.5,-19.5 872.5,-0.5 750.5,-0.5"/>
<text text-anchor="middle" x="811.5" y="-7.5" font-family="Helvetica,sans-Serif" font-size="10.00">Engine/Event/Event.hpp</text>
</g>
<!-- Node1&#45;&gt;Node8 -->
<g id="edge7" class="edge"><title>Node1&#45;&gt;Node8</title>
<path fill="none" stroke="midnightblue" d="M523.543,-60.2079C574.475,-51.5042 683.215,-32.9221 751.531,-21.2479"/>
<polygon fill="midnightblue" stroke="midnightblue" points="752.451,-24.6414 761.719,-19.5069 751.272,-17.7414 752.451,-24.6414"/>
</g>
<!-- Node9 -->
<g id="node9" class="node"><title>Node9</title>
<polygon fill="none" stroke="#bfbfbf" points="890.5,-0.5 890.5,-19.5 1010.5,-19.5 1010.5,-0.5 890.5,-0.5"/>
<text text-anchor="middle" x="950.5" y="-7.5" font-family="Helvetica,sans-Serif" font-size="10.00">Engine/Core/Scene.hpp</text>
</g>
<!-- Node1&#45;&gt;Node9 -->
<g id="edge8" class="edge"><title>Node1&#45;&gt;Node9</title>
<path fill="none" stroke="midnightblue" d="M523.607,-61.8564C585.822,-54.8694 740.122,-37.3844 880.233,-20.1428"/>
<polygon fill="midnightblue" stroke="midnightblue" points="880.799,-23.5996 890.295,-18.9019 879.942,-16.6522 880.799,-23.5996"/>
</g>
</g>
</svg>
