<?xml version="1.0" encoding="UTF-8" standalone="no"?>
<!DOCTYPE svg PUBLIC "-//W3C//DTD SVG 1.1//EN"
 "http://www.w3.org/Graphics/SVG/1.1/DTD/svg11.dtd">
<!-- Generated by graphviz version 2.38.0 (20140413.2041)
 -->
<!-- Title: WorldParticles::Engine::ShaderProgramProperty Pages: 1 -->
<svg width="165pt" height="182pt"
 viewBox="0.00 0.00 164.50 182.00" xmlns="http://www.w3.org/2000/svg" xmlns:xlink="http://www.w3.org/1999/xlink">
<g id="graph0" class="graph" transform="scale(1 1) rotate(0) translate(4 178)">
<title>WorldParticles::Engine::ShaderProgramProperty</title>
<!-- Node1 -->
<g id="node1" class="node"><title>Node1</title>
<polygon fill="#bfbfbf" stroke="black" points="0,-0.5 0,-68.5 127,-68.5 127,-0.5 0,-0.5"/>
<text text-anchor="start" x="8" y="-56.5" font-family="Helvetica,sans-Serif" font-size="10.00">WorldParticles::Engine</text>
<text text-anchor="middle" x="63.5" y="-45.5" font-family="Helvetica,sans-Serif" font-size="10.00">::ShaderProgramProperty</text>
<polyline fill="none" stroke="black" points="0,-38.5 127,-38.5 "/>
<text text-anchor="middle" x="63.5" y="-26.5" font-family="Helvetica,sans-Serif" font-size="10.00"> </text>
<polyline fill="none" stroke="black" points="0,-19.5 127,-19.5 "/>
<text text-anchor="middle" x="63.5" y="-7.5" font-family="Helvetica,sans-Serif" font-size="10.00"> </text>
</g>
<!-- Node2 -->
<g id="node2" class="node"><title>Node2</title>
<polygon fill="none" stroke="#bfbfbf" points="4,-116.5 4,-173.5 123,-173.5 123,-116.5 4,-116.5"/>
<text text-anchor="middle" x="63.5" y="-161.5" font-family="Helvetica,sans-Serif" font-size="10.00">vector&lt; ShaderName &gt;</text>
<polyline fill="none" stroke="#bfbfbf" points="4,-154.5 123,-154.5 "/>
<text text-anchor="middle" x="63.5" y="-142.5" font-family="Helvetica,sans-Serif" font-size="10.00"> </text>
<polyline fill="none" stroke="#bfbfbf" points="4,-135.5 123,-135.5 "/>
<text text-anchor="middle" x="63.5" y="-123.5" font-family="Helvetica,sans-Serif" font-size="10.00"> </text>
</g>
<!-- Node2&#45;&gt;Node1 -->
<g id="edge1" class="edge"><title>Node2&#45;&gt;Node1</title>
<path fill="none" stroke="#404040" d="M63.5,-116.34C63.5,-105.529 63.5,-92.847 63.5,-80.7745"/>
<polygon fill="none" stroke="#404040" points="63.5001,-80.5186 59.5,-74.5186 63.5,-68.5186 67.5,-74.5185 63.5001,-80.5186"/>
<text text-anchor="middle" x="110" y="-90" font-family="Helvetica,sans-Serif" font-size="10.00"> +associatedShaders</text>
</g>
</g>
</svg>
