<?xml version="1.0" encoding="UTF-8" standalone="no"?>
<!DOCTYPE svg PUBLIC "-//W3C//DTD SVG 1.1//EN"
 "http://www.w3.org/Graphics/SVG/1.1/DTD/svg11.dtd">
<!-- Generated by graphviz version 2.38.0 (20140413.2041)
 -->
<!-- Title: engine/Transform/Transform.cpp Pages: 1 -->
<svg width="502pt" height="140pt"
 viewBox="0.00 0.00 501.50 140.00" xmlns="http://www.w3.org/2000/svg" xmlns:xlink="http://www.w3.org/1999/xlink">
<g id="graph0" class="graph" transform="scale(1 1) rotate(0) translate(4 136)">
<title>engine/Transform/Transform.cpp</title>
<!-- Node1 -->
<g id="node1" class="node"><title>Node1</title>
<polygon fill="#bfbfbf" stroke="black" points="118.5,-112.5 118.5,-131.5 276.5,-131.5 276.5,-112.5 118.5,-112.5"/>
<text text-anchor="middle" x="197.5" y="-119.5" font-family="Helvetica,sans-Serif" font-size="10.00">engine/Transform/Transform.cpp</text>
</g>
<!-- Node2 -->
<g id="node2" class="node"><title>Node2</title>
<polygon fill="none" stroke="#bfbfbf" points="-7.10543e-15,-56.5 -7.10543e-15,-75.5 107,-75.5 107,-56.5 -7.10543e-15,-56.5"/>
<text text-anchor="middle" x="53.5" y="-63.5" font-family="Helvetica,sans-Serif" font-size="10.00">log4cpp/Category.hh</text>
</g>
<!-- Node1&#45;&gt;Node2 -->
<g id="edge1" class="edge"><title>Node1&#45;&gt;Node2</title>
<path fill="none" stroke="midnightblue" d="M174.683,-112.444C150.668,-103.438 112.671,-89.1891 85.6308,-79.049"/>
<polygon fill="midnightblue" stroke="midnightblue" points="86.8027,-75.7506 76.2105,-75.5164 84.3448,-82.3049 86.8027,-75.7506"/>
</g>
<!-- Node3 -->
<g id="node3" class="node"><title>Node3</title>
<polygon fill="none" stroke="#bfbfbf" points="125.5,-56.5 125.5,-75.5 269.5,-75.5 269.5,-56.5 125.5,-56.5"/>
<text text-anchor="middle" x="197.5" y="-63.5" font-family="Helvetica,sans-Serif" font-size="10.00">glm/gtc/matrix_transform.hpp</text>
</g>
<!-- Node1&#45;&gt;Node3 -->
<g id="edge2" class="edge"><title>Node1&#45;&gt;Node3</title>
<path fill="none" stroke="midnightblue" d="M197.5,-112.083C197.5,-105.006 197.5,-94.8611 197.5,-85.9865"/>
<polygon fill="midnightblue" stroke="midnightblue" points="201,-85.751 197.5,-75.7511 194,-85.7511 201,-85.751"/>
</g>
<!-- Node4 -->
<g id="node4" class="node"><title>Node4</title>
<g id="a_node4"><a xlink:href="../../da/d83/Transform_8hpp.html" target="_top" xlink:title="Transform.hpp">
<polygon fill="none" stroke="black" points="287.5,-56.5 287.5,-75.5 367.5,-75.5 367.5,-56.5 287.5,-56.5"/>
<text text-anchor="middle" x="327.5" y="-63.5" font-family="Helvetica,sans-Serif" font-size="10.00">Transform.hpp</text>
</a>
</g>
</g>
<!-- Node1&#45;&gt;Node4 -->
<g id="edge3" class="edge"><title>Node1&#45;&gt;Node4</title>
<path fill="none" stroke="midnightblue" d="M218.099,-112.444C239.493,-103.557 273.181,-89.5632 297.524,-79.4514"/>
<polygon fill="midnightblue" stroke="midnightblue" points="299.105,-82.5848 306.997,-75.5164 296.42,-76.1203 299.105,-82.5848"/>
</g>
<!-- Node5 -->
<g id="node5" class="node"><title>Node5</title>
<polygon fill="none" stroke="#bfbfbf" points="193.5,-0.5 193.5,-19.5 263.5,-19.5 263.5,-0.5 193.5,-0.5"/>
<text text-anchor="middle" x="228.5" y="-7.5" font-family="Helvetica,sans-Serif" font-size="10.00">glm/glm.hpp</text>
</g>
<!-- Node4&#45;&gt;Node5 -->
<g id="edge4" class="edge"><title>Node4&#45;&gt;Node5</title>
<path fill="none" stroke="midnightblue" d="M311.594,-56.324C295.862,-47.7428 271.558,-34.486 253.291,-24.5224"/>
<polygon fill="midnightblue" stroke="midnightblue" points="254.822,-21.3704 244.367,-19.6545 251.47,-27.5157 254.822,-21.3704"/>
</g>
<!-- Node6 -->
<g id="node6" class="node"><title>Node6</title>
<polygon fill="none" stroke="#bfbfbf" points="281.5,-0.5 281.5,-19.5 373.5,-19.5 373.5,-0.5 281.5,-0.5"/>
<text text-anchor="middle" x="327.5" y="-7.5" font-family="Helvetica,sans-Serif" font-size="10.00">assimp/vector3.h</text>
</g>
<!-- Node4&#45;&gt;Node6 -->
<g id="edge5" class="edge"><title>Node4&#45;&gt;Node6</title>
<path fill="none" stroke="midnightblue" d="M327.5,-56.083C327.5,-49.0059 327.5,-38.8611 327.5,-29.9865"/>
<polygon fill="midnightblue" stroke="midnightblue" points="331,-29.751 327.5,-19.7511 324,-29.7511 331,-29.751"/>
</g>
<!-- Node7 -->
<g id="node7" class="node"><title>Node7</title>
<polygon fill="none" stroke="#bfbfbf" points="391.5,-0.5 391.5,-19.5 493.5,-19.5 493.5,-0.5 391.5,-0.5"/>
<text text-anchor="middle" x="442.5" y="-7.5" font-family="Helvetica,sans-Serif" font-size="10.00">assimp/matrix4x4.h</text>
</g>
<!-- Node4&#45;&gt;Node7 -->
<g id="edge6" class="edge"><title>Node4&#45;&gt;Node7</title>
<path fill="none" stroke="midnightblue" d="M345.722,-56.4435C364.396,-47.6751 393.656,-33.9355 415.117,-23.8579"/>
<polygon fill="midnightblue" stroke="midnightblue" points="416.799,-26.935 424.363,-19.5164 413.824,-20.5988 416.799,-26.935"/>
</g>
</g>
</svg>
