<?xml version="1.0" encoding="UTF-8" standalone="no"?>
<!DOCTYPE svg PUBLIC "-//W3C//DTD SVG 1.1//EN"
 "http://www.w3.org/Graphics/SVG/1.1/DTD/svg11.dtd">
<!-- Generated by graphviz version 2.38.0 (20140413.2041)
 -->
<!-- Title: Core/Transform.cpp Pages: 1 -->
<svg width="433pt" height="84pt"
 viewBox="0.00 0.00 433.00 84.00" xmlns="http://www.w3.org/2000/svg" xmlns:xlink="http://www.w3.org/1999/xlink">
<g id="graph0" class="graph" transform="scale(1 1) rotate(0) translate(4 80)">
<title>Core/Transform.cpp</title>
<!-- Node1 -->
<g id="node1" class="node"><title>Node1</title>
<polygon fill="#bfbfbf" stroke="black" points="145.5,-56.5 145.5,-75.5 249.5,-75.5 249.5,-56.5 145.5,-56.5"/>
<text text-anchor="middle" x="197.5" y="-63.5" font-family="Helvetica,sans-Serif" font-size="10.00">Core/Transform.cpp</text>
</g>
<!-- Node2 -->
<g id="node2" class="node"><title>Node2</title>
<polygon fill="none" stroke="#bfbfbf" points="0,-0.5 0,-19.5 107,-19.5 107,-0.5 0,-0.5"/>
<text text-anchor="middle" x="53.5" y="-7.5" font-family="Helvetica,sans-Serif" font-size="10.00">log4cpp/Category.hh</text>
</g>
<!-- Node1&#45;&gt;Node2 -->
<g id="edge1" class="edge"><title>Node1&#45;&gt;Node2</title>
<path fill="none" stroke="midnightblue" d="M174.683,-56.4435C150.668,-47.4381 112.671,-33.1891 85.6308,-23.049"/>
<polygon fill="midnightblue" stroke="midnightblue" points="86.8027,-19.7506 76.2105,-19.5164 84.3448,-26.3049 86.8027,-19.7506"/>
</g>
<!-- Node3 -->
<g id="node3" class="node"><title>Node3</title>
<polygon fill="none" stroke="#bfbfbf" points="125.5,-0.5 125.5,-19.5 269.5,-19.5 269.5,-0.5 125.5,-0.5"/>
<text text-anchor="middle" x="197.5" y="-7.5" font-family="Helvetica,sans-Serif" font-size="10.00">glm/gtc/matrix_transform.hpp</text>
</g>
<!-- Node1&#45;&gt;Node3 -->
<g id="edge2" class="edge"><title>Node1&#45;&gt;Node3</title>
<path fill="none" stroke="midnightblue" d="M197.5,-56.083C197.5,-49.0059 197.5,-38.8611 197.5,-29.9865"/>
<polygon fill="midnightblue" stroke="midnightblue" points="201,-29.751 197.5,-19.7511 194,-29.7511 201,-29.751"/>
</g>
<!-- Node4 -->
<g id="node4" class="node"><title>Node4</title>
<polygon fill="none" stroke="#bfbfbf" points="288,-0.5 288,-19.5 425,-19.5 425,-0.5 288,-0.5"/>
<text text-anchor="middle" x="356.5" y="-7.5" font-family="Helvetica,sans-Serif" font-size="10.00">Engine/Core/Transform.hpp</text>
</g>
<!-- Node1&#45;&gt;Node4 -->
<g id="edge3" class="edge"><title>Node1&#45;&gt;Node4</title>
<path fill="none" stroke="midnightblue" d="M222.694,-56.4435C249.443,-47.3591 291.903,-32.9388 321.805,-22.7831"/>
<polygon fill="midnightblue" stroke="midnightblue" points="323.081,-26.0464 331.424,-19.5164 320.829,-19.4182 323.081,-26.0464"/>
</g>
</g>
</svg>
